<?xml version="1.0" encoding="UTF-8" standalone="no"?>
<!-- Created with Inkscape (http://www.inkscape.org/) -->

<svg
   xmlns:dc="http://purl.org/dc/elements/1.1/"
   xmlns:cc="http://creativecommons.org/ns#"
   xmlns:rdf="http://www.w3.org/1999/02/22-rdf-syntax-ns#"
   xmlns:svg="http://www.w3.org/2000/svg"
   xmlns="http://www.w3.org/2000/svg"
   xmlns:sodipodi="http://sodipodi.sourceforge.net/DTD/sodipodi-0.dtd"
   xmlns:inkscape="http://www.inkscape.org/namespaces/inkscape"
   id="svg2910"
   version="1.1"
   inkscape:version="0.47 r22583"
   width="16"
   height="16"
   sodipodi:docname="package-supported.svg"
   inkscape:export-filename="/home/kwwii/bzr/u-art/distributor-logo2.png"
   inkscape:export-xdpi="90"
   inkscape:export-ydpi="90">
  <metadata
     id="metadata2916">
    <rdf:RDF>
      <cc:Work
         rdf:about="">
        <dc:format>image/svg+xml</dc:format>
        <dc:type
           rdf:resource="http://purl.org/dc/dcmitype/StillImage" />
        <dc:title></dc:title>
      </cc:Work>
    </rdf:RDF>
  </metadata>
  <defs
     id="defs2914">
    <inkscape:perspective
       sodipodi:type="inkscape:persp3d"
       inkscape:vp_x="0 : 24 : 1"
       inkscape:vp_y="0 : 1000 : 0"
       inkscape:vp_z="48 : 24 : 1"
       inkscape:persp3d-origin="24 : 16 : 1"
       id="perspective9" />
  </defs>
  <sodipodi:namedview
     pagecolor="#ffffff"
     bordercolor="#666666"
     borderopacity="1"
     objecttolerance="10"
     gridtolerance="10"
     guidetolerance="10"
     inkscape:pageopacity="0"
     inkscape:pageshadow="2"
     inkscape:window-width="918"
     inkscape:window-height="612"
     id="namedview2912"
     showgrid="false"
     inkscape:zoom="7.3541667"
     inkscape:cx="22"
     inkscape:cy="22"
     inkscape:window-x="45"
     inkscape:window-y="87"
     inkscape:window-maximized="0"
     inkscape:current-layer="svg2910" />
  <g
     transform="matrix(0.17649856,0,0,-0.17650148,0,16)"
     id="g2846">
    <path
       d="M 90.6523,45.3246 C 90.6523,20.293 70.3594,0 45.3262,0 20.293,0 0,20.293 0,45.3246 c 0,25.0332 20.293,45.3262 45.3262,45.3262 25.0332,0 45.3261,-20.293 45.3261,-45.3262"
       style="fill:#e13f20;fill-opacity:1;fill-rule:nonzero;stroke:none"
       id="path24" />
    <path
       d="m 57.7109,66.7797 c 2.8946,-1.6719 6.5938,-0.6817 8.2637,2.2129 1.6719,2.8945 0.6816,6.5937 -2.2129,8.2656 -2.8945,1.6699 -6.5937,0.6777 -8.2656,-2.2168 -1.6699,-2.8926 -0.6777,-6.5918 2.2148,-8.2617 z M 45.3262,27.6484 c -2.6602,0 -5.1836,0.5918 -7.4453,1.6446 l -4.2051,-7.5352 c 3.5117,-1.7402 7.4668,-2.7226 11.6504,-2.7226 2.4336,0 4.7871,0.3378 7.0234,0.957 0.3945,2.4316 1.8379,4.6699 4.1387,6 2.2988,1.3262 4.9551,1.457 7.2558,0.5879 4.4747,4.4004 7.3868,10.3847 7.8106,17.0508 l -8.625,0.1269 C 62.1367,34.7266 54.5605,27.6484 45.3262,27.6484 z m 0,35.3539 c 9.2343,0 16.8105,-7.08 17.6054,-16.1093 l 8.6231,0.1269 c -0.4238,6.666 -3.3359,12.6504 -7.8106,17.0508 -2.3007,-0.8691 -4.9589,-0.7363 -7.2558,0.5879 -2.3008,1.3281 -3.7442,3.5684 -4.1387,6 -2.2363,0.6172 -4.5898,0.9551 -7.0234,0.9551 -4.1836,0 -8.1387,-0.9825 -11.6504,-2.7207 l 4.2051,-7.5352 c 2.2617,1.0527 4.7851,1.6445 7.4453,1.6445 z M 27.6504,45.3246 c 0,5.9805 2.9707,11.2637 7.5156,14.4629 l -4.4238,7.4102 c -5.2949,-3.5391 -9.2344,-8.9473 -10.8711,-15.2813 1.9101,-1.5586 3.1328,-3.9316 3.1328,-6.5918 0,-2.6586 -1.2227,-5.0316 -3.1328,-6.5902 1.6348,-6.336 5.5742,-11.7442 10.8711,-15.2832 l 4.4238,7.4121 c -4.5449,3.1972 -7.5156,8.4805 -7.5156,14.4613 z M 57.7129,23.873 c -2.8945,-1.6718 -3.8867,-5.371 -2.2149,-8.2636 1.67,-2.8946 5.3692,-3.8867 8.2637,-2.2149 2.8945,1.67 3.8867,5.3692 2.2149,8.2637 -1.67,2.8926 -5.3711,3.8848 -8.2637,2.2148 z m -43.207,27.5043 c -3.3438,0 -6.05278,-2.7089 -6.05278,-6.0527 0,-3.3422 2.70898,-6.0512 6.05278,-6.0512 3.3418,0 6.0507,2.709 6.0507,6.0512 0,3.3438 -2.7089,6.0527 -6.0507,6.0527"
       style="fill:#ffffff;fill-opacity:1;fill-rule:nonzero;stroke:none"
       id="path26" />
  </g>
</svg>
