<?xml version="1.0" encoding="UTF-8" standalone="no"?>
<!-- Created with Inkscape (http://www.inkscape.org/) -->
<svg
   xmlns:svg="http://www.w3.org/2000/svg"
   xmlns="http://www.w3.org/2000/svg"
   version="1.0"
   width="22"
   height="22"
   id="svg3245">
  <defs
     id="defs3247" />
  <g
     id="layer1">
    <path
       d="M 6.4164911,4.1176784 L 8.0351283,6.0556702"
       id="path3221"
       style="opacity:0.6;fill:none;fill-opacity:0.29803922;fill-rule:evenodd;stroke:#eae3d1;stroke-width:3;stroke-linecap:round;stroke-linejoin:miter;stroke-miterlimit:4;stroke-dasharray:none;stroke-opacity:1" />
    <path
       d="M 9.2963271,6.144414 L 9.56365,3.4997309"
       id="path3223"
       style="opacity:0.6;fill:none;fill-opacity:0.29803922;fill-rule:evenodd;stroke:#eae3d1;stroke-width:3;stroke-linecap:round;stroke-linejoin:miter;stroke-miterlimit:4;stroke-dasharray:none;stroke-opacity:1" />
    <path
       d="M 10.393341,6.5186672 L 12.405543,4.8015009"
       id="path3225"
       style="opacity:0.6;fill:none;fill-opacity:0.29803922;fill-rule:evenodd;stroke:#eae3d1;stroke-width:3;stroke-linecap:round;stroke-linejoin:miter;stroke-miterlimit:4;stroke-dasharray:none;stroke-opacity:1" />
    <path
       d="M 9.90625,5.9375 C 9.460892,5.9756806 9.0866151,6.287578 8.96875,6.71875 C 8.9607352,6.7039347 8.90625,6.59375 8.90625,6.59375 C 8.6974246,6.1936979 8.2593801,5.9684178 7.8125,6.03125 C 7.1736339,6.1273598 6.5440435,6.2877233 5.96875,6.4375 C 5.9475809,6.4472311 5.9267363,6.4576533 5.90625,6.46875 C 3.654906,7.2619161 1.8424599,9.1492373 1.21875,11.53125 C 0.27294447,14.754543 1.6243492,18.409931 4.53125,20.09375 C 7.2787046,21.814122 10.92957,21.222284 13.15625,18.875 L 13.1875,18.90625 C 13.21954,18.883663 13.219291,18.836034 13.25,18.8125 C 13.285636,18.773652 13.340156,18.758561 13.375,18.71875 L 13.34375,18.6875 C 13.862899,18.242656 14.22616,17.69692 14.5,17.03125 C 14.810283,16.276993 15.025405,15.410275 15.125,14.5 C 15.251122,13.347276 15.079616,12.171637 14.6875,11.0625 C 17.016565,11.069801 22.96875,11.09375 22.96875,11.09375 C 23.554682,11.091655 24.029155,10.617182 24.03125,10.03125 C 24.039622,9.117749 24.054078,7.9188824 24.0625,7 C 24.060405,6.4140676 23.585932,5.9395953 23,5.9375 C 19.000076,5.9376251 13.999922,5.9375 10,5.9375 C 9.9687651,5.9361256 9.9374849,5.9361256 9.90625,5.9375 L 9.90625,5.9375 z"
       transform="matrix(0.8720712,0.2292842,-0.2336708,0.8557007,2.7156717,-9.2218551e-2)"
       id="path3219"
       style="opacity:0.6;fill:#eae3d1;fill-opacity:1;fill-rule:nonzero;stroke:none;stroke-width:3;stroke-linecap:round;stroke-linejoin:miter;marker:none;marker-start:none;marker-mid:none;marker-end:none;stroke-miterlimit:4;stroke-dasharray:none;stroke-dashoffset:0;stroke-opacity:1;visibility:visible;display:inline;overflow:visible;enable-background:accumulate" />
    <path
       d="M 9.8014706,8.1876598 L 9.9474535,9.6966478 L 8.2457211,9.6697758 C 8.2457211,9.6697758 7.9939246,7.8141276 7.9939246,7.8141276 C 7.4734416,7.7564387 6.9483413,7.7326252 6.4216711,7.7289534 C 4.6008538,7.866671 2.8526487,8.9198032 1.9183792,10.528766 C 0.5790231,12.685754 0.86439895,15.695625 2.6550596,17.457679 C 4.3624108,19.257589 7.3609107,19.592824 9.4584729,18.214648 C 10.959842,17.673143 12.993472,13.612584 11.716672,11.442615 C 11.716672,11.442615 19.677609,13.568236 19.677609,13.568236 C 20.352885,13.728668 20.36404,13.733053 20.622552,12.981508 C 20.728957,12.67217 20.805068,12.340857 20.895144,12.02452 C 21.119312,11.143127 21.011799,11.155413 20.205171,10.923017 C 16.894741,10.052714 12.984872,9.0246372 9.8014706,8.1876598 z"
       id="path2387"
       style="opacity:1;fill:#3a3935;fill-opacity:1;fill-rule:nonzero;stroke:none;stroke-width:3;stroke-linecap:round;stroke-linejoin:miter;marker:none;marker-start:none;marker-mid:none;marker-end:none;stroke-miterlimit:4;stroke-dasharray:none;stroke-dashoffset:0;stroke-opacity:1;visibility:visible;display:inline;overflow:visible;enable-background:accumulate" />
    <path
       d="M 6.4164911,4.1176784 L 8.0351283,6.0556702"
       id="path3211"
       style="fill:none;fill-rule:evenodd;stroke:#3a3935;stroke-width:1px;stroke-linecap:round;stroke-linejoin:miter;stroke-opacity:1" />
    <path
       d="M 9.3827671,6.1868228 L 9.6500902,3.5421396"
       id="path3213"
       style="fill:none;fill-rule:evenodd;stroke:#3a3935;stroke-width:1px;stroke-linecap:round;stroke-linejoin:miter;stroke-opacity:1" />
    <path
       d="M 10.730407,6.3179751 L 12.432066,4.3032605"
       id="path3215"
       style="fill:none;fill-rule:evenodd;stroke:#3a3935;stroke-width:1px;stroke-linecap:round;stroke-linejoin:miter;stroke-opacity:1" />
  </g>
</svg>
