<?xml version="1.0" encoding="UTF-8" standalone="no"?>
<!-- Created with Inkscape (http://www.inkscape.org/) -->
<svg
   xmlns:svg="http://www.w3.org/2000/svg"
   xmlns="http://www.w3.org/2000/svg"
   version="1.0"
   width="22"
   height="22"
   id="svg3217">
  <defs
     id="defs3219" />
  <g
     id="layer1">
    <path
       d="M 14.1875,3.65625 C 14.118208,3.6715105 14.053784,3.7037226 14,3.75 C 9.0028797,7.3915103 6.6523062,10.219928 5.5625,12.1875 C 5.0175969,13.171286 4.8104921,13.933803 4.71875,14.46875 C 4.6364872,14.948423 4.6786442,15.217917 4.6875,15.28125 L 4.65625,15.28125 C 4.6562501,17.040611 5.4113554,18.164333 6.15625,18.78125 C 6.9011446,19.398167 7.65625,19.53125 7.65625,19.53125 C 7.65578,19.550192 7.65625,19.575176 7.65625,19.59375 C 7.6562498,20.162448 7.9917915,20.665719 8.4375,21 C 8.8832085,21.334281 9.4547324,21.53125 10.09375,21.53125 C 11.13165,21.531251 12.049014,20.999658 12.375,20.1875 C 13.107525,20.28719 13.843558,20.40665 14.5625,20.5 C 14.583306,20.50152 14.604194,20.50152 14.625,20.5 C 15.705232,20.500001 16.675615,19.882173 17.375,18.96875 C 18.074385,18.055327 18.531251,16.825573 18.53125,15.46875 C 18.53125,13.869518 17.828906,12.50976 16.9375,11.59375 L 20.4375,6.875 C 20.527333,6.745923 20.539325,6.5780348 20.46875,6.4375 L 19.59375,4.65625 C 19.537226,4.5264497 19.420292,4.4329025 19.28125,4.40625 L 14.3125,3.65625 C 14.271057,3.6501459 14.228943,3.6501459 14.1875,3.65625 z"
       transform="matrix(1.0191049,0,0,1.0084725,-2.3922072,-1.2136735)"
       id="path3215"
       style="opacity:0.6;fill:none;fill-opacity:1;fill-rule:nonzero;stroke:#eae3d0;stroke-width:0.98641235;stroke-linecap:round;stroke-linejoin:miter;marker:none;marker-start:none;marker-mid:none;marker-end:none;stroke-miterlimit:4;stroke-dasharray:none;stroke-dashoffset:0;stroke-opacity:1;visibility:visible;display:inline;overflow:visible;enable-background:accumulate" />
    <path
       d="M 18.34375,5.875 C 14.657921,9.2697794 12.993795,11.695666 12.28125,13.25 C 11.916908,14.04477 11.7851,14.608002 11.75,14.96875 C 11.7149,15.329498 11.78125,15.46875 11.78125,15.46875 C 12.081338,17.006701 12.744424,17.868472 13.34375,18.34375 C 13.885449,18.773328 14.322887,18.856166 14.40625,18.875 C 15.742857,18.510611 16.304243,17.595737 16.5625,16.71875 C 16.825473,15.82575 16.75,15.03125 16.75,15.03125 C 16.749344,15.020844 16.749344,15.010406 16.75,15 C 16.819963,13.320886 14.90625,11.96875 14.90625,11.96875 C 14.878515,11.942697 14.857132,11.910622 14.84375,11.875 C 14.827163,11.846157 14.816536,11.814277 14.8125,11.78125 C 14.806553,11.750283 14.806553,11.718467 14.8125,11.6875 C 14.831753,11.591235 14.869353,11.564759 14.90625,11.5 C 14.943147,11.435241 14.973347,11.36865 15.03125,11.28125 C 15.147057,11.10645 15.313867,10.880383 15.5,10.625 C 15.872266,10.114233 16.359622,9.4727432 16.84375,8.84375 C 17.763809,7.6483823 18.599112,6.6116047 18.6875,6.5 L 18.34375,5.875 z"
       transform="translate(-2.0002813,-0.9933795)"
       id="path3211"
       style="opacity:0.3;fill:none;fill-opacity:1;fill-rule:nonzero;stroke:#000000;stroke-width:0.5;stroke-linecap:round;stroke-linejoin:miter;marker:none;marker-start:none;marker-mid:none;marker-end:none;stroke-miterlimit:4;stroke-dasharray:none;stroke-dashoffset:0;stroke-opacity:1;visibility:visible;display:inline;overflow:visible;enable-background:accumulate" />
    <path
       d="M 12.155969,3.0066205 C 2.2303839,10.239611 2.9997187,14.19412 2.9997187,14.19412 C 2.9997186,17.481843 5.6559689,18.03787 5.6559687,18.03787 C 5.7909159,18.057458 5.9268074,18.080894 6.0622187,18.10037 C 6.0165497,18.226143 5.9997187,18.370043 5.9997187,18.50662 C 5.9997187,19.33462 6.8957187,20.00662 7.9997187,20.00662 C 9.0490657,20.00662 9.9169997,19.402747 9.9997187,18.63162 C 10.846104,18.744962 11.703755,18.867961 12.530969,18.97537 C 14.370609,18.97537 15.99972,16.911125 15.999719,14.38162 C 15.999719,12.761764 15.235714,11.352869 14.312219,10.53787 C 14.312266,10.537664 14.312219,10.50662 14.312219,10.50662 L 17.999719,5.5378705 L 17.124719,3.7566205 L 12.155969,3.0066205 z M 16.405969,4.4753705 L 16.968469,5.5378705 C 16.968469,5.5378706 13.139842,10.368499 13.062219,10.75662 C 13.062219,10.75662 15.077343,12.143637 14.999719,14.00662 C 14.999719,14.00662 15.364957,17.417926 12.405969,18.16287 C 12.405969,18.16287 10.151963,17.720466 9.5309687,14.53787 C 9.5309687,14.53787 8.6435407,11.53918 16.405969,4.4753705 z M 6.7809687,8.8503705 L 10.468469,9.3816205 L 9.9372187,10.16287 L 6.1559687,9.6003705 L 6.7809687,8.8503705 z M 7.0616322,18.230086 C 7.6685258,18.315349 8.3914977,18.423912 8.9997187,18.50662 C 8.9997187,18.782621 8.5428737,19.183516 7.9908739,19.183516 C 7.438874,19.183517 6.9378052,18.897602 6.9378052,18.621602 C 6.9378052,18.52093 6.9591173,18.308574 7.0616322,18.230086 z"
       id="path3207"
       style="fill:#3a3935;fill-opacity:1;fill-rule:evenodd;stroke:none;stroke-width:1px;stroke-linecap:butt;stroke-linejoin:miter;stroke-opacity:1" />
  </g>
</svg>
