<?xml version="1.0" encoding="UTF-8" standalone="no"?>
<!-- Created with Inkscape (http://www.inkscape.org/) -->
<svg
   xmlns:dc="http://purl.org/dc/elements/1.1/"
   xmlns:cc="http://creativecommons.org/ns#"
   xmlns:rdf="http://www.w3.org/1999/02/22-rdf-syntax-ns#"
   xmlns:svg="http://www.w3.org/2000/svg"
   xmlns="http://www.w3.org/2000/svg"
   xmlns:sodipodi="http://sodipodi.sourceforge.net/DTD/sodipodi-0.dtd"
   xmlns:inkscape="http://www.inkscape.org/namespaces/inkscape"
   version="1.0"
   width="48"
   height="48"
   id="svg3170"
   sodipodi:version="0.32"
   inkscape:version="0.46"
   sodipodi:docname="stock_person-panel.svg"
   inkscape:output_extension="org.inkscape.output.svg.inkscape">
  <metadata
     id="metadata8">
    <rdf:RDF>
      <cc:Work
         rdf:about="">
        <dc:format>image/svg+xml</dc:format>
        <dc:type
           rdf:resource="http://purl.org/dc/dcmitype/StillImage" />
      </cc:Work>
    </rdf:RDF>
  </metadata>
  <sodipodi:namedview
     inkscape:window-height="781"
     inkscape:window-width="1440"
     inkscape:pageshadow="2"
     inkscape:pageopacity="0.0"
     guidetolerance="10.0"
     gridtolerance="10.0"
     objecttolerance="10.0"
     borderopacity="1.0"
     bordercolor="#666666"
     pagecolor="#ffffff"
     id="base"
     showgrid="false"
     showguides="true"
     inkscape:guide-bbox="true"
     inkscape:zoom="7.3362329"
     inkscape:cx="24"
     inkscape:cy="24"
     inkscape:window-x="0"
     inkscape:window-y="24"
     inkscape:current-layer="svg3170" />
  <defs
     id="defs3172">
    <inkscape:perspective
       sodipodi:type="inkscape:persp3d"
       inkscape:vp_x="0 : 24 : 1"
       inkscape:vp_y="0 : 1000 : 0"
       inkscape:vp_z="48 : 24 : 1"
       inkscape:persp3d-origin="24 : 16 : 1"
       id="perspective9" />
    <inkscape:perspective
       id="perspective2388"
       inkscape:persp3d-origin="32 : 21.333333 : 1"
       inkscape:vp_z="64 : 32 : 1"
       inkscape:vp_y="0 : 1000 : 0"
       inkscape:vp_x="0 : 32 : 1"
       sodipodi:type="inkscape:persp3d" />
  </defs>
  <path
     style="opacity:0.59999999999999998;fill:none;fill-opacity:1;fill-rule:evenodd;stroke:#eae3d0;stroke-width:0.99999994000000003;stroke-linecap:round;stroke-linejoin:round;marker:none;marker-start:none;marker-mid:none;marker-end:none;stroke-miterlimit:4;stroke-dasharray:none;stroke-dashoffset:0;stroke-opacity:1;visibility:visible;display:inline;overflow:visible;enable-background:accumulate;color:#000000"
     id="path3166"
     d="M 2.9070537,0.50089539 C 1.5710131,0.50089539 0.50089541,1.6050188 0.50089541,2.9380766 L 0.50089541,43.995206 C 0.50046514,44.161857 0.58267659,44.317885 0.72038199,44.411767 C 0.8580874,44.505648 1.0333778,44.525173 1.1883692,44.463894 L 4.2820013,43.12032 C 4.292415,43.120644 4.3028364,43.120644 4.3132502,43.12032 C 8.1445531,41.41879 11.386893,39.570469 13.719142,37.871007 C 14.885266,37.021276 15.840506,36.19947 16.500286,35.433826 C 17.160066,34.668181 17.562745,33.959868 17.562745,33.215366 C 17.562746,32.296029 17.148454,31.20824 16.531535,30.090775 C 15.914615,28.973309 15.083738,27.840885 14.187874,26.997429 C 13.176401,26.045128 12.818636,25.208934 12.562936,23.029198 C 12.464602,22.190982 12.395842,21.349466 12.406692,20.748247 C 12.412117,20.447637 12.436598,20.220264 12.469189,20.092083 C 12.485486,20.027992 12.50988,19.984039 12.500438,19.998345 C 12.623535,19.932583 12.76799,19.877453 12.844175,19.779623 C 12.962494,19.627691 13.03944,19.454862 13.094166,19.279689 C 13.203618,18.929342 13.254897,18.528816 13.281658,18.061098 C 13.335179,17.125663 13.281748,15.953021 13.281658,14.780277 C 13.281506,12.901545 13.319571,11.784765 13.5004,10.968276 C 13.681229,10.151787 13.989115,9.5968929 14.594108,8.7185704 C 14.968338,8.1752669 15.365212,7.6862812 15.687817,7.3437502 C 15.84912,7.1724847 15.994866,7.0464591 16.094051,6.9687993 C 16.193237,6.8911394 16.305442,6.9063076 16.094051,6.9063075 C 16.396329,6.9063075 16.734216,6.6713976 16.812774,6.3751269 C 16.840839,6.269283 16.790627,6.1904635 16.781525,6.0939137 C 17.081329,6.156936 17.392282,6.199547 17.656492,6.0626678 C 17.986687,5.8916037 18.236727,5.5821298 18.375214,5.2190282 C 18.465292,5.3209906 18.55711,5.4366095 18.687702,5.5002414 C 18.8939,5.6007127 19.126711,5.5958137 19.343927,5.5627332 C 19.77836,5.4965722 20.204802,5.2660529 20.750124,4.9065691 C 21.426597,4.4606261 22.514917,4.2426877 23.812507,4.2504049 C 25.756485,4.2619664 28.125041,4.7845783 30.187264,5.656471 C 32.249488,6.5283636 33.985406,7.7557731 34.74959,8.9997836 C 35.566749,10.330024 35.812048,11.472292 35.81205,14.811523 C 35.81205,15.981046 35.786269,17.142368 35.843299,18.061098 C 35.871814,18.520463 35.910696,18.912492 35.999543,19.248443 C 36.043966,19.416419 36.096123,19.568787 36.187036,19.717132 C 36.277948,19.865476 36.439184,20.019679 36.655768,20.092083 C 36.469515,20.029819 36.526454,19.988115 36.562021,20.123328 C 36.597589,20.258542 36.614712,20.482405 36.624519,20.779493 C 36.644133,21.373667 36.597413,22.19469 36.499524,23.029198 C 36.243817,25.208935 35.886048,26.045129 34.874586,26.997429 C 33.978254,27.841324 33.171351,28.972335 32.562174,30.090775 C 31.952997,31.209214 31.530964,32.300739 31.530963,33.215366 C 31.530963,33.963974 31.956189,34.662834 32.624671,35.433826 C 33.293154,36.204817 34.240849,37.031482 35.374567,37.871007 C 37.642002,39.550057 40.713197,41.306904 43.999238,42.682877 L 46.811631,43.870222 C 46.966622,43.931501 47.141912,43.911975 47.279618,43.818095 C 47.417324,43.724213 47.499535,43.568184 47.499105,43.401533 L 47.499105,2.9380766 C 47.499105,1.605019 46.428987,0.50089539 45.092946,0.50089539 L 2.9070537,0.50089539 z" />
  <path
     style="fill:#3a3935;fill-opacity:1;fill-rule:nonzero;stroke:none;stroke-width:1.00178742000000010;stroke-linecap:butt;stroke-linejoin:miter;marker:none;marker-start:none;marker-mid:none;marker-end:none;stroke-miterlimit:4;stroke-dasharray:none;stroke-dashoffset:0;stroke-opacity:1;visibility:visible;display:inline;overflow:visible;enable-background:accumulate"
     id="rect2382"
     d="M 2.9166667,1 C 1.8548333,1 1,1.8601205 1,2.9285214 L 1,44 L 4.0846354,42.644009 C 11.695843,39.263461 17.052083,35.35155 17.052083,33.212334 C 17.052083,31.715346 15.538827,28.958887 13.847656,27.366503 C 12.761865,26.344136 12.311908,25.313803 12.050781,23.087597 C 11.851084,21.385186 11.81116,19.709634 12.230469,19.622284 C 12.945385,19.473354 12.769713,17.138164 12.769531,14.770848 C 12.769225,10.997756 12.94091,10.237717 14.177083,8.4428872 C 14.952557,7.3169557 15.822206,6.3938331 16.09375,6.3938332 C 16.365284,6.3938332 16.423215,6.1440513 16.24349,5.8514366 C 16.05648,5.5469828 16.280156,5.4580869 16.752604,5.6405046 C 17.24812,5.8318254 17.712682,5.5829624 17.920573,5.0378416 C 18.166405,4.3932691 18.390243,4.3123859 18.669271,4.7666433 C 18.960911,5.2414424 19.421494,5.1841576 20.466146,4.495445 C 21.275866,3.9616139 22.465484,3.734058 23.820312,3.7421163 C 27.884798,3.7662913 33.478833,5.9412365 35.200521,8.7442187 C 36.065762,10.152864 36.308592,11.435451 36.308594,14.800981 C 36.308594,17.148886 36.257771,19.43508 36.817708,19.622284 C 37.22407,19.758143 37.197073,21.385185 36.997396,23.087597 C 36.73626,25.313804 36.316249,26.344137 35.230469,27.366503 C 33.540994,28.957289 32.026043,31.718964 32.026042,33.212334 C 32.026042,35.298364 37.686341,39.500734 44.184896,42.222144 L 47,43.397337 L 47,2.9285214 C 47,1.8601205 46.145167,1 45.083333,1 L 2.9166667,1 z" />
</svg>
