<?xml version="1.0" encoding="UTF-8" standalone="no"?>
<!-- Created with Inkscape (http://www.inkscape.org/) -->

<svg
   xmlns:dc="http://purl.org/dc/elements/1.1/"
   xmlns:cc="http://creativecommons.org/ns#"
   xmlns:rdf="http://www.w3.org/1999/02/22-rdf-syntax-ns#"
   xmlns:svg="http://www.w3.org/2000/svg"
   xmlns="http://www.w3.org/2000/svg"
   xmlns:sodipodi="http://sodipodi.sourceforge.net/DTD/sodipodi-0.dtd"
   xmlns:inkscape="http://www.inkscape.org/namespaces/inkscape"
   version="1.0"
   width="48"
   height="48"
   id="svg3170"
   sodipodi:version="0.32"
   inkscape:version="0.48.0 r9654"
   sodipodi:docname="stock_person-panel.svg"
   inkscape:output_extension="org.inkscape.output.svg.inkscape">
  <metadata
     id="metadata8">
    <rdf:RDF>
      <cc:Work
         rdf:about="">
        <dc:format>image/svg+xml</dc:format>
        <dc:type
           rdf:resource="http://purl.org/dc/dcmitype/StillImage" />
      </cc:Work>
    </rdf:RDF>
  </metadata>
  <sodipodi:namedview
     inkscape:window-height="753"
     inkscape:window-width="1280"
     inkscape:pageshadow="2"
     inkscape:pageopacity="0.0"
     guidetolerance="10.0"
     gridtolerance="10.0"
     objecttolerance="10.0"
     borderopacity="1.0"
     bordercolor="#666666"
     pagecolor="#ffffff"
     id="base"
     showgrid="false"
     showguides="true"
     inkscape:guide-bbox="true"
     inkscape:zoom="10.375"
     inkscape:cx="9.3493976"
     inkscape:cy="25.012048"
     inkscape:window-x="0"
     inkscape:window-y="24"
     inkscape:current-layer="svg3170"
     inkscape:window-maximized="1" />
  <defs
     id="defs3172" />
  <path
     inkscape:connector-curvature="0"
     style="fill:#ffffff;fill-opacity:1;fill-rule:nonzero;stroke:none;stroke-width:1.00178742000000010;marker:none;visibility:visible;display:inline;overflow:visible;enable-background:accumulate;opacity:0.3"
     id="rect2382-4"
     d="M 2.9166667,2 C 1.8548333,2 1,2.8601205 1,3.9285214 L 1,45 4.0846354,43.644009 C 11.695843,40.263461 17.052083,36.35155 17.052083,34.212334 c 0,-1.496988 -1.513256,-4.253447 -3.204427,-5.845831 -1.085791,-1.022367 -1.535748,-2.0527 -1.796875,-4.278906 -0.199697,-1.702411 -0.239621,-3.377963 0.179688,-3.465313 0.714916,-0.14893 0.539244,-2.48412 0.539062,-4.851436 -3.06e-4,-3.773092 0.171379,-4.533131 1.407552,-6.3279608 0.775474,-1.1259315 1.645123,-2.0490541 1.916667,-2.049054 0.271534,0 0.329465,-0.2497819 0.14974,-0.5423966 -0.18701,-0.3044538 0.03667,-0.3933497 0.509114,-0.210932 0.495516,0.1913208 0.960078,-0.057542 1.167969,-0.602663 0.245832,-0.6445725 0.46967,-0.7254557 0.748698,-0.2711983 0.29164,0.4747991 0.752223,0.4175143 1.796875,-0.2711983 0.80972,-0.5338311 1.999338,-0.761387 3.354166,-0.7533287 4.064486,0.024175 9.658521,2.1991202 11.380209,5.0021024 0.865241,1.4086453 1.108071,2.6912323 1.108073,6.0567623 0,2.347905 -0.05082,4.634099 0.509114,4.821303 0.406362,0.135859 0.379365,1.762901 0.179688,3.465313 -0.261136,2.226207 -0.681147,3.25654 -1.766927,4.278906 -1.689475,1.590786 -3.204426,4.352461 -3.204427,5.845831 0,2.08603 5.660299,6.2884 12.158854,9.00981 L 47,44.397337 47,3.9285214 C 47,2.8601205 46.145167,2 45.083333,2 L 2.9166667,2 z" />
  <path
     inkscape:connector-curvature="0"
     style="fill:#3c3c3c;fill-opacity:1;fill-rule:nonzero;stroke:none;stroke-width:1.00178742000000010;marker:none;visibility:visible;display:inline;overflow:visible;enable-background:accumulate"
     id="rect2382"
     d="M 2.9166667,1 C 1.8548333,1 1,1.8601205 1,2.9285214 L 1,44 4.0846354,42.644009 C 11.695843,39.263461 17.052083,35.35155 17.052083,33.212334 c 0,-1.496988 -1.513256,-4.253447 -3.204427,-5.845831 -1.085791,-1.022367 -1.535748,-2.0527 -1.796875,-4.278906 -0.199697,-1.702411 -0.239621,-3.377963 0.179688,-3.465313 0.714916,-0.14893 0.539244,-2.48412 0.539062,-4.851436 -3.06e-4,-3.773092 0.171379,-4.533131 1.407552,-6.3279608 0.775474,-1.1259315 1.645123,-2.0490541 1.916667,-2.049054 0.271534,0 0.329465,-0.2497819 0.14974,-0.5423966 -0.18701,-0.3044538 0.03667,-0.3933497 0.509114,-0.210932 0.495516,0.1913208 0.960078,-0.057542 1.167969,-0.602663 0.245832,-0.6445725 0.46967,-0.7254557 0.748698,-0.2711983 0.29164,0.4747991 0.752223,0.4175143 1.796875,-0.2711983 0.80972,-0.5338311 1.999338,-0.761387 3.354166,-0.7533287 4.064486,0.024175 9.658521,2.1991202 11.380209,5.0021024 0.865241,1.4086453 1.108071,2.6912323 1.108073,6.0567623 0,2.347905 -0.05082,4.634099 0.509114,4.821303 0.406362,0.135859 0.379365,1.762901 0.179688,3.465313 -0.261136,2.226207 -0.681147,3.25654 -1.766927,4.278906 -1.689475,1.590786 -3.204426,4.352461 -3.204427,5.845831 0,2.08603 5.660299,6.2884 12.158854,9.00981 L 47,43.397337 47,2.9285214 C 47,1.8601205 46.145167,1 45.083333,1 L 2.9166667,1 z" />
</svg>
