<?xml version="1.0" encoding="UTF-8" standalone="no"?>
<!-- Created with Inkscape (http://www.inkscape.org/) -->

<svg
   xmlns:dc="http://purl.org/dc/elements/1.1/"
   xmlns:cc="http://creativecommons.org/ns#"
   xmlns:rdf="http://www.w3.org/1999/02/22-rdf-syntax-ns#"
   xmlns:svg="http://www.w3.org/2000/svg"
   xmlns="http://www.w3.org/2000/svg"
   xmlns:sodipodi="http://sodipodi.sourceforge.net/DTD/sodipodi-0.dtd"
   xmlns:inkscape="http://www.inkscape.org/namespaces/inkscape"
   version="1.0"
   width="32"
   height="32"
   id="svg3172"
   inkscape:version="0.48.0 r9654"
   sodipodi:docname="stock_person-panel.svg">
  <metadata
     id="metadata9">
    <rdf:RDF>
      <cc:Work
         rdf:about="">
        <dc:format>image/svg+xml</dc:format>
        <dc:type
           rdf:resource="http://purl.org/dc/dcmitype/StillImage" />
      </cc:Work>
    </rdf:RDF>
  </metadata>
  <sodipodi:namedview
     pagecolor="#ffffff"
     bordercolor="#666666"
     borderopacity="1"
     objecttolerance="10"
     gridtolerance="10"
     guidetolerance="10"
     inkscape:pageopacity="0"
     inkscape:pageshadow="2"
     inkscape:window-width="1280"
     inkscape:window-height="753"
     id="namedview7"
     showgrid="false"
     inkscape:zoom="9.09375"
     inkscape:cx="-0.71477663"
     inkscape:cy="17.154639"
     inkscape:window-x="0"
     inkscape:window-y="24"
     inkscape:window-maximized="1"
     inkscape:current-layer="svg3172" />
  <defs
     id="defs3174" />
  <path
     inkscape:connector-curvature="0"
     style="fill:#000000;fill-opacity:1;fill-rule:nonzero;stroke:none;stroke-width:1.00178742000000010;marker:none;visibility:visible;display:inline;overflow:visible;enable-background:accumulate;opacity:0.3"
     id="rect2382-6"
     d="M 2.875,2 C 1.83625,2 1,2.8404122 1,3.8843323 L 1,30 2.9921875,29.116719 c 4.9638375,-2.202058 8.4667965,-4.730612 8.4667965,-6.124079 0,-0.975125 -0.977137,-2.760845 -2.0800778,-3.798108 C 8.6707844,18.52857 8.3773375,17.847608 8.2070312,16.397477 8.0767938,15.288542 8.0507592,14.187288 8.3242188,14.130389 8.790475,14.033377 8.6758934,12.522069 8.6757812,10.980021 8.675575,8.5222626 8.7777812,7.9977372 9.5839844,6.8286015 10.089728,6.0951798 10.666656,5.5036802 10.84375,5.5036803 c 0.177094,0 0.205097,-0.1627056 0.08789,-0.3533123 -0.121969,-0.1983185 0.04344,-0.2365957 0.351562,-0.1177708 0.323166,0.1246251 0.626138,-0.027668 0.761719,-0.382755 0.160331,-0.4198688 0.286772,-0.4725556 0.46875,-0.1766561 0.1902,0.3092802 0.490584,0.2425229 1.171875,-0.2060989 0.528077,-0.3477328 1.313682,-0.5057749 2.197265,-0.5005257 2.650752,0.015747 6.289268,1.4717441 7.41211,3.2975815 0.564281,0.9175794 0.732422,1.7530446 0.732422,3.945322 0,1.529403 -0.01361,2.998982 0.351562,3.120924 0.265022,0.0885 0.218119,1.158153 0.08789,2.267088 -0.170306,1.450131 -0.434467,2.131093 -1.142578,2.797055 -1.101835,1.036223 -2.080078,2.825339 -2.080078,3.798108 0,1.358821 3.671971,4.086394 7.910156,5.859095 L 31,29.617245 31,3.8843323 C 31,2.8404122 30.16375,2 29.125,2 L 2.875,2 z" />
  <path
     inkscape:connector-curvature="0"
     style="fill:#dfdbd2;fill-opacity:1;fill-rule:nonzero;stroke:none;stroke-width:1.00178742000000010;marker:none;visibility:visible;display:inline;overflow:visible;enable-background:accumulate"
     id="rect2382"
     d="M 2.875,0.99999951 C 1.83625,0.99999951 1,1.8404117 1,2.8843318 L 1,29 2.9921875,28.116719 c 4.9638375,-2.202058 8.4667965,-4.730612 8.4667965,-6.124079 0,-0.975125 -0.977137,-2.760845 -2.0800778,-3.798108 C 8.6707844,17.52857 8.3773375,16.847608 8.2070312,15.397477 8.0767938,14.288542 8.0507592,13.187288 8.3242188,13.130389 8.790475,13.033377 8.6758934,11.522069 8.6757812,9.9800205 8.675575,7.5222621 8.7777812,6.9977367 9.5839844,5.828601 10.089728,5.0951793 10.666656,4.5036797 10.84375,4.5036798 c 0.177094,0 0.205097,-0.1627056 0.08789,-0.3533123 -0.121969,-0.1983185 0.04344,-0.2365957 0.351562,-0.1177708 0.323166,0.1246251 0.626138,-0.027668 0.761719,-0.382755 0.160331,-0.4198688 0.286772,-0.4725556 0.46875,-0.1766561 0.1902,0.3092802 0.490584,0.2425229 1.171875,-0.2060989 0.528077,-0.3477328 1.313682,-0.5057749 2.197265,-0.5005257 2.650752,0.015747 6.289268,1.4717441 7.41211,3.2975815 0.564281,0.9175794 0.732422,1.7530446 0.732422,3.9453215 0,1.529404 -0.01361,2.998983 0.351562,3.120925 0.265022,0.0885 0.218119,1.158153 0.08789,2.267088 -0.170306,1.450131 -0.434467,2.131093 -1.142578,2.797055 -1.101835,1.036223 -2.080078,2.825339 -2.080078,3.798108 0,1.358821 3.671971,4.086394 7.910156,5.859095 L 31,28.617245 31,2.8843318 C 31,1.8404117 30.16375,0.99999951 29.125,0.99999951 l -26.25,0 z" />
</svg>
