<?xml version="1.0" encoding="UTF-8" standalone="no"?>
<!-- Created with Inkscape (http://www.inkscape.org/) -->
<svg
   xmlns:svg="http://www.w3.org/2000/svg"
   xmlns="http://www.w3.org/2000/svg"
   version="1.0"
   width="32"
   height="32"
   id="svg3172">
  <defs
     id="defs3174" />
  <g
     id="layer1">
    <path
       d="M 2.875,0.5 C 1.5681614,0.49999999 0.5,1.5626595 0.5,2.875 L 0.5,29 C 0.49956972,29.166673 0.5817843,29.322722 0.71949495,29.416616 C 0.8572056,29.510509 1.0325027,29.530037 1.1875,29.46875 L 3.1875,28.59375 C 3.1979141,28.594074 3.2083359,28.594074 3.21875,28.59375 C 5.7257937,27.481576 7.8368885,26.267986 9.375,25.15625 C 10.144056,24.600382 10.773689,24.074796 11.21875,23.5625 C 11.663811,23.050204 11.96875,22.559068 11.96875,22 C 11.96875,21.342204 11.690423,20.619524 11.28125,19.875 C 10.872077,19.130476 10.321207,18.379082 9.71875,17.8125 C 9.0845041,17.216016 8.8837471,16.748674 8.71875,15.34375 C 8.6550484,14.801349 8.6200019,14.258416 8.625,13.875 C 8.627499,13.683292 8.6409613,13.531237 8.65625,13.46875 C 8.718796,13.422848 8.8020938,13.396927 8.84375,13.34375 C 8.9399063,13.220999 9.0222562,13.095771 9.0625,12.96875 C 9.1429876,12.714709 9.1685591,12.436846 9.1875,12.125 C 9.2253819,11.501308 9.1875554,10.729883 9.1875,9.96875 C 9.1873975,8.7467076 9.2339378,8.0356433 9.34375,7.53125 C 9.4535622,7.0268567 9.6103084,6.690121 10,6.125 C 10.240014,5.7769356 10.513734,5.4704635 10.71875,5.25 C 10.821258,5.1397683 10.913805,5.0438896 10.96875,5 C 11.023695,4.9561104 11.088176,5.0000001 10.84375,5 C 10.960464,5 11.090463,4.9909796 11.21875,4.90625 C 11.347037,4.8215204 11.465017,4.6674673 11.5,4.53125 C 11.503364,4.5181522 11.497362,4.5127423 11.5,4.5 C 11.651799,4.4988596 11.801302,4.5367067 11.9375,4.46875 C 12.137512,4.3689532 12.2672,4.1904694 12.375,4 C 12.411024,4.0252223 12.427544,4.0740944 12.46875,4.09375 C 12.640717,4.1757792 12.832866,4.1824464 13,4.15625 C 13.334268,4.1038572 13.605192,3.9268983 13.96875,3.6875 C 14.366201,3.4257827 15.052896,3.276366 15.875,3.28125 C 17.110752,3.2885913 18.647011,3.6534931 19.96875,4.21875 C 21.290489,4.7840069 22.378148,5.5553914 22.84375,6.3125 C 23.363163,7.1571189 23.53125,7.8361093 23.53125,10 C 23.53125,10.762355 23.519858,11.516619 23.5625,12.125 C 23.583821,12.42919 23.621787,12.698856 23.6875,12.9375 C 23.737442,13.11887 23.83713,13.318691 24.03125,13.46875 C 24.047511,13.536816 24.059526,13.7164 24.0625,13.90625 C 24.068447,14.28595 24.032365,14.802046 23.96875,15.34375 C 23.803753,16.748672 23.602988,17.216014 22.96875,17.8125 C 22.364928,18.380365 21.838807,19.129509 21.4375,19.875 C 21.036193,20.620491 20.75,21.348161 20.75,22 C 20.75,22.565837 21.053188,23.047102 21.5,23.5625 C 21.946812,24.077898 22.568639,24.606372 23.3125,25.15625 C 24.800222,26.256006 26.813094,27.410856 28.96875,28.3125 L 30.8125,29.09375 C 30.967497,29.155037 31.142794,29.135509 31.280505,29.041616 C 31.418216,28.947722 31.50043,28.791673 31.5,28.625 L 31.5,2.875 C 31.5,1.5626596 30.431839,0.5 29.125,0.5 L 2.875,0.5 z"
       id="path3168"
       style="opacity:0.6;fill:none;fill-opacity:1;fill-rule:evenodd;stroke:#3a3935;stroke-width:0.99999994;stroke-linecap:round;stroke-linejoin:round;marker:none;marker-start:none;marker-mid:none;marker-end:none;stroke-miterlimit:4;stroke-dasharray:none;stroke-dashoffset:0;stroke-opacity:1;visibility:visible;display:inline;overflow:visible;enable-background:accumulate" />
    <path
       d="M 2.875,0.99999951 C 1.83625,0.99999951 1,1.8404117 1,2.8843318 L 1,29 L 2.9921875,28.116719 C 7.956025,25.914661 11.458984,23.386107 11.458984,21.99264 C 11.458984,21.017515 10.481847,19.231795 9.3789062,18.194532 C 8.6707844,17.52857 8.3773375,16.847608 8.2070312,15.397477 C 8.0767938,14.288542 8.0507592,13.187288 8.3242188,13.130389 C 8.790475,13.033377 8.6758934,11.522069 8.6757812,9.9800205 C 8.675575,7.5222621 8.7777812,6.9977367 9.5839844,5.828601 C 10.089728,5.0951793 10.666656,4.5036797 10.84375,4.5036798 C 11.020844,4.5036798 11.048847,4.3409742 10.931641,4.1503675 C 10.809672,3.952049 10.975084,3.9137718 11.283203,4.0325967 C 11.606369,4.1572218 11.909341,4.0049291 12.044922,3.6498417 C 12.205253,3.2299729 12.331694,3.1772861 12.513672,3.4731856 C 12.703872,3.7824658 13.004256,3.7157085 13.685547,3.2670867 C 14.213624,2.9193539 14.999229,2.7613118 15.882812,2.766561 C 18.533564,2.7823084 22.17208,4.2383051 23.294922,6.0641425 C 23.859203,6.9817219 24.027344,7.8171871 24.027344,10.009464 C 24.027344,11.538868 24.013731,13.008447 24.378906,13.130389 C 24.643928,13.218887 24.597025,14.288542 24.466797,15.397477 C 24.296491,16.847608 24.03233,17.52857 23.324219,18.194532 C 22.222384,19.230755 21.244141,21.019871 21.244141,21.99264 C 21.244141,23.351461 24.916112,26.079034 29.154297,27.851735 L 31,28.617245 L 31,2.8843318 C 31,1.8404117 30.16375,0.99999951 29.125,0.99999951 L 2.875,0.99999951 z"
       id="rect2382"
       style="opacity:1;fill:#eae3d0;fill-opacity:1;fill-rule:nonzero;stroke:none;stroke-width:1.00178742;stroke-linecap:butt;stroke-linejoin:miter;marker:none;marker-start:none;marker-mid:none;marker-end:none;stroke-miterlimit:4;stroke-dasharray:none;stroke-dashoffset:0;stroke-opacity:1;visibility:visible;display:inline;overflow:visible;enable-background:accumulate" />
  </g>
</svg>
