<?xml version="1.0" encoding="UTF-8" standalone="no"?>
<!-- Created with Inkscape (http://www.inkscape.org/) -->
<svg
   xmlns:svg="http://www.w3.org/2000/svg"
   xmlns="http://www.w3.org/2000/svg"
   version="1.0"
   width="48"
   height="48"
   id="svg2439">
  <defs
     id="defs2441" />
  <g
     id="layer1">
    <path
       d="M 24,6 C 13.529758,6 5,14.529758 5,25 C 5,35.470242 13.529758,44 24,44 C 34.470242,44 43,35.470242 43,25 C 43,14.529758 34.470242,6.0000001 24,6 z M 24,14.21875 C 24.233074,14.21875 24.426805,14.329538 24.65625,14.34375 C 24.225896,14.734455 23.980542,15.217746 24,15.8125 C 24.020805,15.214396 23.772965,14.72825 23.34375,14.34375 C 23.573195,14.329538 23.766926,14.21875 24,14.21875 z M 20.34375,14.9375 C 20.327815,14.972144 20.295322,14.995413 20.28125,15.03125 C 20.259165,15.010725 20.241661,14.988114 20.21875,14.96875 C 20.258496,14.954069 20.303788,14.951734 20.34375,14.9375 z M 27.625,14.9375 C 27.674546,14.954993 27.732034,14.950571 27.78125,14.96875 C 27.751779,14.993727 27.715586,15.004333 27.6875,15.03125 C 27.671651,14.994363 27.642954,14.972955 27.625,14.9375 z M 24,16.40625 L 24.8125,19.34375 L 24.84375,19.5625 L 24,21.0625 L 23.15625,19.5625 L 23.21875,19.34375 L 24,16.40625 z M 30.78125,16.75 C 30.81056,16.773493 30.845937,16.788714 30.875,16.8125 C 30.842958,16.816212 30.813347,16.807195 30.78125,16.8125 C 30.785968,16.791853 30.777234,16.770736 30.78125,16.75 z M 17.21875,16.78125 C 17.220918,16.791534 17.216412,16.802236 17.21875,16.8125 C 17.182565,16.80742 17.160776,16.846602 17.125,16.84375 C 17.154024,16.819919 17.189478,16.804788 17.21875,16.78125 z M 15.09375,19.09375 C 15.221687,19.746947 15.573481,20.305252 16.21875,20.5625 C 15.629921,20.087459 14.920523,20.051001 14.25,20.34375 C 14.478075,19.890426 14.807565,19.508412 15.09375,19.09375 z M 32.9375,19.125 C 33.192635,19.497812 33.478971,19.846015 33.6875,20.25 C 33.087443,20.015037 32.487272,20.041382 31.9375,20.40625 C 32.465148,20.135832 32.803707,19.694031 32.9375,19.125 z M 31.46875,20.6875 L 29.3125,22.875 L 29.1875,23 L 27.46875,23 L 28.28125,21.5625 L 28.5,21.5 L 31.46875,20.6875 z M 16.5,20.71875 L 19.5,21.5 L 19.75,21.5625 L 20.5625,23 L 18.8125,23 L 18.6875,22.875 L 16.5,20.71875 z M 34.5625,23 C 34.57783,23.072369 34.579846,23.14586 34.59375,23.21875 C 34.562247,23.2075 34.532178,23.197157 34.5,23.1875 C 34.544251,23.130737 34.525946,23.059556 34.5625,23 z M 13.4375,23.03125 C 13.478868,23.09789 13.450042,23.187616 13.5,23.25 C 13.458484,23.262533 13.415395,23.266085 13.375,23.28125 C 13.390706,23.196055 13.41985,23.115741 13.4375,23.03125 z M 34.71875,26.65625 C 34.698251,26.806638 34.65149,26.945373 34.625,27.09375 C 34.566659,26.98235 34.580811,26.85091 34.5,26.75 C 34.577607,26.726571 34.645221,26.68872 34.71875,26.65625 z M 13.3125,26.75 C 13.37406,26.775588 13.435645,26.793187 13.5,26.8125 C 13.424427,26.90944 13.428508,27.020655 13.375,27.125 C 13.352154,26.999086 13.331037,26.877378 13.3125,26.75 z M 18.8125,27 L 20.5625,27 L 19.71875,28.46875 L 19.5,28.53125 L 16.5,29.34375 L 18.6875,27.125 L 18.8125,27 z M 27.40625,27 L 29.1875,27 L 29.3125,27.125 L 31.5625,29.34375 L 28.5,28.53125 L 28.25,28.46875 L 27.40625,27 z M 24,29 L 24.84375,30.46875 L 24.78125,30.6875 L 24,33.625 L 23.1875,30.6875 L 23.15625,30.46875 L 24,29 z M 31.6875,29.40625 C 32.398001,30.043642 33.401139,30.060946 34.15625,29.5 C 33.874512,30.167002 33.370439,30.689285 32.96875,31.28125 C 32.954697,30.447831 32.510352,29.678745 31.6875,29.40625 z M 16.15625,29.53125 C 15.445554,29.836023 15.068347,30.495616 15.03125,31.25 C 14.648708,30.683386 14.148155,30.197771 13.875,29.5625 C 14.580925,30.066889 15.458876,30.055471 16.15625,29.53125 z M 31.6875,33.0625 C 31.446309,33.29883 31.105828,33.411533 30.84375,33.625 C 30.842385,33.486114 30.812872,33.355806 30.78125,33.21875 C 31.122148,33.266607 31.409407,33.164258 31.6875,33.0625 z M 16.40625,33.125 C 16.675837,33.194111 16.936538,33.26528 17.21875,33.21875 C 17.187492,33.355537 17.157407,33.486407 17.15625,33.625 C 16.923291,33.435252 16.622776,33.332884 16.40625,33.125 z M 24,34.21875 C 23.972608,35.006232 24.406338,35.65537 25.09375,36 C 24.715101,36.039227 24.38916,36.21875 24,36.21875 C 23.621537,36.21875 23.306047,36.037126 22.9375,36 C 23.626472,35.646627 24.025244,34.990399 24,34.21875 z M 20.3125,35 C 20.403159,35.226758 20.58678,35.38483 20.75,35.5625 C 20.43846,35.464434 20.080093,35.499292 19.78125,35.375 C 19.981431,35.285252 20.15024,35.155506 20.3125,35 z M 27.6875,35 C 27.849849,35.155046 28.018592,35.285249 28.21875,35.375 C 27.919907,35.499292 27.56154,35.464434 27.25,35.5625 C 27.412718,35.38885 27.594622,35.226104 27.6875,35 z"
       id="path2437"
       style="opacity:0.6;fill:#eae3d0;fill-opacity:1;fill-rule:evenodd;stroke:none;stroke-width:1.69999993;stroke-linecap:round;stroke-linejoin:miter;marker:none;marker-start:none;marker-mid:none;marker-end:none;stroke-miterlimit:4;stroke-dasharray:none;stroke-dashoffset:0;stroke-opacity:1;visibility:visible;display:inline;overflow:visible;enable-background:accumulate" />
    <path
       d="M 24,7 C 14.064,7 6,15.064 6,25 C 6,34.936 14.064,43 24,43 C 33.936,43 42,34.936 42,25 C 42,15.064 33.936,7.0000001 24,7 z M 24,13.21875 C 30.624,13.21875 36,18.59475 36,25.21875 C 36,31.84275 30.624,37.21875 24,37.21875 C 17.376,37.218748 12,31.84275 12,25.21875 C 12,18.594749 17.376,13.21875 24,13.21875 z M 21.96875,14.71875 C 21.577069,14.775976 21.231861,15.067227 21.125,15.46875 L 20.65625,17.21875 L 19.875,15.84375 C 19.597192,15.36444 18.979311,15.222191 18.5,15.5 C 18.02069,15.777808 17.847191,16.395689 18.125,16.875 L 18.90625,18.21875 L 17.15625,17.75 C 16.888569,17.678756 16.627407,17.746817 16.40625,17.875 C 16.185092,18.003181 16.008741,18.201068 15.9375,18.46875 C 15.795016,19.004112 16.120885,19.576267 16.65625,19.71875 L 19.75,20.53125 L 20.375,20.6875 L 22.28125,24 L 18.4375,24 L 18,23.5625 L 15.71875,21.3125 C 15.326352,20.921423 14.672325,20.920103 14.28125,21.3125 C 13.890173,21.704896 13.888852,22.358924 14.28125,22.75 L 15.5625,24.03125 L 14,24.03125 C 13.446001,24.032183 12.999066,24.477251 13,25.03125 C 13.000934,25.585246 13.446,26.032184 14,26.03125 L 15.5625,26.03125 L 14.28125,27.3125 C 14.085712,27.508697 13.999569,27.775631 14,28.03125 C 14.000431,28.286868 14.085051,28.554462 14.28125,28.75 C 14.673647,29.141075 15.327674,29.142398 15.71875,28.75 L 18,26.4375 L 18.4375,26 L 22.28125,26 L 20.34375,29.34375 L 19.75,29.5 L 16.625,30.34375 C 16.09012,30.488038 15.761961,31.05887 15.90625,31.59375 C 16.050537,32.128631 16.62137,32.425539 17.15625,32.28125 L 18.90625,31.8125 L 18.125,33.1875 C 17.848808,33.667741 18.019755,34.255059 18.5,34.53125 C 18.980243,34.807437 19.598809,34.667745 19.875,34.1875 L 20.65625,32.8125 L 21.125,34.5625 C 21.197142,34.82994 21.372162,35.060064 21.59375,35.1875 C 21.815338,35.314936 22.10756,35.353394 22.375,35.28125 C 22.909881,35.13696 23.238039,34.566131 23.09375,34.03125 L 22.25,30.9375 L 22.09375,30.34375 L 24,27.03125 L 25.90625,30.34375 L 25.75,30.9375 L 24.90625,34.0625 C 24.763769,34.597865 25.120886,35.138767 25.65625,35.28125 C 26.191615,35.423734 26.732518,35.097865 26.875,34.5625 L 27.34375,32.8125 L 28.125,34.1875 C 28.402808,34.666809 29.020689,34.809058 29.5,34.53125 C 29.97931,34.253442 30.152809,33.666811 29.875,33.1875 L 29.09375,31.8125 L 30.84375,32.28125 C 31.111431,32.35249 31.372593,32.284433 31.59375,32.15625 C 31.814908,32.028065 31.991259,31.830182 32.0625,31.5625 C 32.204985,31.027134 31.879115,30.454983 31.34375,30.3125 L 28.25,29.5 L 27.625,29.34375 L 25.6875,26 L 29.5625,26 L 30,26.4375 L 32.28125,28.6875 C 32.673649,29.078576 33.327675,29.079897 33.71875,28.6875 C 34.109826,28.295102 34.111148,27.641076 33.71875,27.25 L 32.4375,25.96875 L 34,25.96875 C 34.553999,25.967815 35.000934,25.522749 35,24.96875 C 34.999064,24.41475 34.554,23.967816 34,23.96875 L 32.4375,23.96875 L 33.71875,22.6875 C 33.914287,22.491301 34.000431,22.224369 34,21.96875 C 33.999568,21.71313 33.914949,21.445538 33.71875,21.25 C 33.326354,20.858923 32.672326,20.857602 32.28125,21.25 L 30,23.5625 L 29.5625,24 L 25.75,24 L 27.65625,20.6875 L 28.25,20.53125 L 31.375,19.6875 C 31.90988,19.54321 32.238039,19.00363 32.09375,18.46875 C 31.949461,17.933868 31.37863,17.605712 30.84375,17.75 L 29.09375,18.21875 L 29.875,16.84375 C 30.151192,16.363505 29.980245,15.77619 29.5,15.5 C 29.019757,15.22381 28.401191,15.363505 28.125,15.84375 L 27.34375,17.21875 L 26.875,15.46875 C 26.802858,15.20131 26.627838,15.002436 26.40625,14.875 C 26.184662,14.747564 25.89244,14.677856 25.625,14.75 C 25.090119,14.894288 24.761961,15.465119 24.90625,16 L 25.75,19.09375 L 25.90625,19.71875 L 24,23.03125 L 22.09375,19.6875 L 22.25,19.09375 L 23.09375,15.96875 C 23.236231,15.433386 22.879114,14.892483 22.34375,14.75 C 22.209909,14.714379 22.09931,14.699675 21.96875,14.71875 z"
       id="path2399"
       style="opacity:1;fill:#3a3935;fill-opacity:1;fill-rule:evenodd;stroke:none;stroke-width:1.69999993;stroke-linecap:round;stroke-linejoin:miter;marker:none;marker-start:none;marker-mid:none;marker-end:none;stroke-miterlimit:4;stroke-dasharray:none;stroke-dashoffset:0;stroke-opacity:1;visibility:visible;display:inline;overflow:visible;enable-background:accumulate" />
  </g>
</svg>
