<?xml version="1.0" encoding="UTF-8" standalone="no"?>
<!-- Created with Inkscape (http://www.inkscape.org/) -->
<svg
   xmlns:svg="http://www.w3.org/2000/svg"
   xmlns="http://www.w3.org/2000/svg"
   version="1.0"
   width="48"
   height="48"
   id="svg2497">
  <defs
     id="defs2499" />
  <g
     id="layer1">
    <path
       d="M 24,6 C 13.527259,6 5,14.527259 5,25 C 5,35.472741 13.527259,44 24,44 C 34.472741,44 43,35.472741 43,25 C 43,14.527259 34.472741,6.0000001 24,6 z M 24,14.21875 C 30.087259,14.21875 35,19.131491 35,25.21875 C 35,29.525353 32.471497,33.159305 28.875,34.96875 C 29.332393,34.52576 29.52513,33.893285 29.28125,33.28125 L 29.34375,33.25 L 27.375,27.09375 L 27.3125,23.9375 L 32.5625,22.03125 C 32.640432,21.999049 32.713942,21.957044 32.78125,21.90625 C 33.358257,21.515623 33.691858,20.726875 33.40625,20 C 33.114505,19.257474 32.369683,18.924906 31.6875,19 C 31.666306,19.00968 31.64546,19.020103 31.625,19.03125 C 31.58051,19.038392 31.431288,19.103854 31.34375,19.125 L 26.34375,19.90625 C 26.929772,19.338594 27.3125,18.565139 27.3125,17.6875 C 27.3125,15.932223 25.844144,14.5 24.09375,14.5 C 22.343356,14.5 20.906251,15.949433 20.90625,17.6875 C 20.90625,18.556534 21.26554,19.336443 21.84375,19.90625 L 16.6875,19.125 L 16.6875,19.1875 C 16.428584,19.089779 16.160174,18.959154 15.875,19 C 15.916038,18.994122 15.705372,18.965853 15.4375,19.09375 C 14.806872,19.394849 14.50856,19.925128 14.5,20.59375 C 14.491696,21.302038 14.987807,21.771803 15.4375,22 C 15.477646,22.023746 15.519416,22.044631 15.5625,22.0625 L 20.71875,23.6875 L 20.65625,27.0625 L 18.65625,33.1875 L 18.71875,33.21875 C 18.480226,33.79061 18.596895,34.444852 19.03125,34.90625 C 15.489862,33.078274 13,29.484816 13,25.21875 C 13,19.131489 17.91274,14.21875 24,14.21875 z M 24,29.6875 L 26.375,34.625 C 26.394894,34.646751 26.415749,34.667606 26.4375,34.6875 C 26.846576,35.378612 27.665583,35.563099 28.375,35.3125 C 27.029809,35.897324 25.562352,36.21875 24,36.21875 C 22.39711,36.21875 20.90383,35.863832 19.53125,35.25 C 20.229818,35.537618 21.018976,35.446491 21.5,34.75 C 21.534488,34.710863 21.565835,34.669067 21.59375,34.625 L 24,29.6875 z"
       id="path2479"
       style="opacity:0.6;fill:#eae3d0;fill-opacity:1;fill-rule:evenodd;stroke:none;stroke-width:1.69999993;stroke-linecap:round;stroke-linejoin:miter;marker:none;marker-start:none;marker-mid:none;marker-end:none;stroke-miterlimit:4;stroke-dasharray:none;stroke-dashoffset:0;stroke-opacity:1;visibility:visible;display:inline;overflow:visible;enable-background:accumulate" />
    <path
       d="M 24,7 C 14.064,7 6,15.064 6,25 C 6,34.936 14.064,43 24,43 C 33.936,43 42,34.936 42,25 C 42,15.064 33.936,7.0000001 24,7 z M 24,13.21875 C 30.624,13.21875 36,18.59475 36,25.21875 C 36,31.84275 30.624,37.21875 24,37.21875 C 17.376,37.218748 12,31.84275 12,25.21875 C 12,18.594749 17.376,13.21875 24,13.21875 z M 24.09375,15.5 C 22.881611,15.5 21.906251,16.486541 21.90625,17.6875 C 21.90625,18.888459 22.881612,19.84375 24.09375,19.84375 C 25.305887,19.84375 26.3125,18.888458 26.3125,17.6875 C 26.3125,16.486542 25.305888,15.5 24.09375,15.5 z M 16.03125,19.96875 C 15.972513,19.977163 15.928873,19.974278 15.875,20 C 15.659507,20.102889 15.502971,20.361696 15.5,20.59375 C 15.497279,20.825836 15.662187,21.017008 15.875,21.125 L 21.71875,22.96875 L 21.65625,27.1875 L 19.59375,33.5 C 19.395074,33.787668 19.451996,34.151969 19.75,34.34375 C 20.048017,34.535561 20.488804,34.475199 20.6875,34.1875 L 24,27.375 L 27.28125,34.1875 C 27.45786,34.485873 27.847196,34.576742 28.15625,34.40625 C 28.465305,34.23576 28.582854,33.860875 28.40625,33.5625 L 26.375,27.21875 L 26.28125,23.25 L 32.21875,21.09375 C 32.458268,20.931599 32.57249,20.639019 32.46875,20.375 C 32.365003,20.110951 32.071897,19.968006 31.78125,20 C 31.679687,20.016304 31.582252,20.033963 31.5,20.09375 L 24,21.25 L 16.53125,20.09375 C 16.38661,19.989812 16.20746,19.943511 16.03125,19.96875 z"
       id="path2402"
       style="fill:#3a3935;fill-opacity:1;fill-rule:evenodd;stroke:none;stroke-width:1.69999993;stroke-linecap:round;stroke-linejoin:miter;marker:none;marker-start:none;marker-mid:none;marker-end:none;stroke-miterlimit:4;stroke-dasharray:none;stroke-dashoffset:0;stroke-opacity:1;visibility:visible;display:inline;overflow:visible;enable-background:accumulate" />
  </g>
</svg>
