<?xml version="1.0" encoding="UTF-8" standalone="no"?>
<!-- Created with Inkscape (http://www.inkscape.org/) -->
<svg
   xmlns:svg="http://www.w3.org/2000/svg"
   xmlns="http://www.w3.org/2000/svg"
   version="1.0"
   width="48"
   height="48"
   id="svg3194">
  <defs
     id="defs3196" />
  <g
     id="layer1">
    <path
       d="M 34,5 C 33.733855,4.9969316 33.477714,5.1013029 33.289509,5.2895085 C 33.101303,5.4777142 32.996932,5.7338547 33,6 L 33,8.40625 C 30.311951,6.9395293 27.280345,6 24,6 C 13.529122,6 5,14.529122 5,25 C 5,35.470878 13.529121,44 24,44 C 34.470878,44 43,35.470878 43,25 C 43,23.261075 42.687428,21.59388 42.25,20 L 44,20 C 44.266145,20.003068 44.522286,19.898697 44.710491,19.710491 C 44.898697,19.522286 45.003068,19.266145 45,19 L 45,16 C 45.003068,15.733855 44.898697,15.477714 44.710491,15.289509 C 44.522286,15.101303 44.266145,14.996932 44,15 L 40.15625,15 L 44.75,9.65625 C 44.910833,9.4754639 44.999782,9.2419727 45,9 L 45,6 C 45.003068,5.7338547 44.898697,5.4777142 44.710491,5.2895085 C 44.522286,5.1013029 44.266145,4.9969316 44,5 L 34,5 z M 35.53125,10 L 37.84375,10 L 36.90625,11.09375 C 36.480563,10.698701 35.995148,10.36196 35.53125,10 z M 24,14 C 26.68989,14 29.060259,15.05162 30.96875,16.65625 L 24.625,23 L 23.375,23 L 18.6875,18.3125 C 18.3042,17.941608 17.6958,17.941608 17.3125,18.3125 L 16.3125,19.3125 C 15.941608,19.6958 15.941608,20.3042 16.3125,20.6875 L 22.3125,26.6875 C 22.491287,26.878535 22.738511,26.990909 23,27 L 25,27 C 25.261489,26.990909 25.508713,26.878535 25.6875,26.6875 L 29.5,22.875 C 29.652684,22.960139 29.825213,23.003271 30,23 L 31.625,23 L 29.3125,25.3125 C 29.121465,25.491287 29.009091,25.738511 29,26 L 29,27 C 28.996932,27.266145 29.101303,27.522286 29.289509,27.710491 C 29.477714,27.898697 29.733855,28.003068 30,28 L 34.5,28 C 33.182712,32.603932 29.032286,36 24,36 C 17.910878,36 13,31.089122 13,25 C 13,18.910877 17.910878,14 24,14 z M 33.0625,19.3125 C 33.185272,19.699635 33.532309,19.972307 33.9375,20 L 32.375,20 L 33.0625,19.3125 z M 34.96875,24.40625 C 34.98439,24.600964 35,24.810878 35,25 L 34.375,25 L 34.96875,24.40625 z"
       id="path3190"
       style="opacity:0.6;fill:#eae3d0;fill-opacity:1;fill-rule:evenodd;stroke:none;stroke-width:1.69999993;stroke-linecap:round;stroke-linejoin:miter;marker:none;marker-start:none;marker-mid:none;marker-end:none;stroke-miterlimit:4;stroke-dasharray:none;stroke-dashoffset:0;stroke-opacity:1;visibility:visible;display:inline;overflow:visible;enable-background:accumulate" />
    <path
       d="M 34,6 L 34,9 L 40,9 L 34,16 L 34,17 L 34,19 L 44,19 L 44,16 L 38,16 L 44,9 L 44,6 L 34,6 z M 34,17 L 33,16 C 33.001027,15.758177 33.089871,15.524962 33.25,15.34375 L 36.25,11.84375 C 35.529795,11.172821 34.760219,10.546769 33.9375,10 C 33.695528,9.9849956 33.453716,9.8912163 33.28125,9.71875 C 33.229361,9.666861 33.195028,9.5921997 33.15625,9.53125 C 30.468986,7.9349085 27.350343,7 24,7 C 14.064,7 6,15.064 6,25 C 6,34.936 14.063999,43 24,43 C 33.936,43 42,34.936 42,25 C 42,23.26174 41.741709,21.590517 41.28125,20 L 35.0625,20 C 35.59082,20.031808 36.002307,20.470729 36,21 L 36,23 C 36.004147,23.170803 35.952787,23.320112 35.875,23.46875 C 35.940156,23.974766 36,24.476346 36,25 C 36,25.254644 35.984405,25.499279 35.96875,25.75 C 35.990879,25.83349 36.000225,25.912123 36,26 L 36,27 C 36.000678,27.265424 35.906434,27.531067 35.71875,27.71875 C 35.702742,27.734758 35.673199,27.735207 35.65625,27.75 C 34.40616,33.041941 29.672086,37 24,37 C 17.376,37 12,31.624 12,25 C 12,18.375999 17.376,13 24,13 C 27.314905,13 30.298149,14.354259 32.46875,16.53125 L 25,24 L 23,24 L 18,19 L 17,20 L 23,26 L 25,26 L 30,21 L 34,17 z M 30,21 L 30,22 L 34,22 L 30,26 L 30,27 L 35,27 L 35,26 L 32,26 L 35,23 L 35,21 L 30,21 z"
       id="path2398"
       style="opacity:1;fill:#3a3935;fill-opacity:1;fill-rule:evenodd;stroke:none;stroke-width:1.69999993;stroke-linecap:round;stroke-linejoin:miter;marker:none;marker-start:none;marker-mid:none;marker-end:none;stroke-miterlimit:4;stroke-dasharray:none;stroke-dashoffset:0;stroke-opacity:1;visibility:visible;display:inline;overflow:visible;enable-background:accumulate" />
  </g>
</svg>
