<?xml version="1.0" encoding="UTF-8" standalone="no"?>
<!-- Created with Inkscape (http://www.inkscape.org/) -->
<svg
   xmlns:svg="http://www.w3.org/2000/svg"
   xmlns="http://www.w3.org/2000/svg"
   version="1.0"
   width="48"
   height="48"
   id="svg3198">
  <defs
     id="defs3200" />
  <g
     id="layer1">
    <path
       d="M 24,3 C 22.088875,2.9441019 20.7204,4.867798 21,6.6694504 C 21.010366,11.547753 20.979237,16.427119 21.01562,21.304755 C 21.147603,23.724104 24.490722,24.931684 26.116821,23.116821 C 27.452306,21.774087 26.872097,19.787996 27,18.099048 C 26.989654,13.964579 27.020737,9.8290481 26.98438,5.6952447 C 26.854411,4.2082435 25.494845,2.974603 24,3 z M 6.5809334,17.026377 C 3.8676009,22.940402 4.4916328,30.228138 8.227672,35.571961 C 12.544233,42.056131 21.116174,45.34565 28.644054,43.245323 C 30.263325,42.839267 32.313342,41.943744 33.4375,41.28125 C 37.69947,38.796547 40.961838,34.628221 42.21875,29.84375 C 42.380062,29.438971 42.931811,26.818373 42.875,25.5 C 42.973039,22.67787 42.468369,19.812234 41.28125,17.25 C 41.213073,16.741139 39.150754,13.342597 39.25,13.625 C 36.733336,10.269548 31.127175,5.1757338 28.09375,10.75 C 27.365538,12.576981 28.621838,14.501908 29.89058,15.649928 C 31.437481,16.672363 32.868225,18.249363 33.375,19.3125 C 34.707617,21.465994 35.130012,24.1337 34.749964,26.621971 C 34.616966,27.704825 33.737832,30.328271 32.552054,31.620444 C 31.337087,33.370243 28.739402,34.910625 27.283866,35.321526 C 22.278817,37.02839 16.268218,34.548775 14.0625,29.71875 C 12.63083,27.017274 12.56678,23.696146 13.657083,20.861319 C 14.082859,19.623256 15.520609,17.401472 16.992208,16.307502 C 18.312502,15.485434 19.426531,14.24146 19.853356,12.697772 C 20.45781,10.244553 18.010441,7.9088151 15.59375,8.25 C 11.379573,9.3305199 8.7362636,13.3611 6.5809334,17.026377 z"
       id="path3178"
       style="opacity:0.6;fill:#eae3d0;fill-opacity:1;fill-rule:evenodd;stroke:none;stroke-width:1.69999993;stroke-linecap:round;stroke-linejoin:miter;marker:none;marker-start:none;marker-mid:none;marker-end:none;stroke-miterlimit:4;stroke-dasharray:none;stroke-dashoffset:0;stroke-opacity:1;visibility:visible;display:inline;overflow:visible;enable-background:accumulate" />
    <path
       d="M 24,4 C 22.892,4 22,4.892 22,6 L 22,21 C 22,22.108 22.892,23 24,23 C 25.108,23 26,22.108 26,21 L 26,6 C 26,4.892 25.108,4 24,4 z M 14.90625,9.3125 C 14.712282,9.3847872 14.54398,9.488105 14.375,9.59375 C 14.374835,9.5934872 14.375,9.5625 14.375,9.5625 C 13.291922,10.236713 12.30192,11.040013 11.40625,11.90625 C 10.643356,12.644075 9.959156,13.429605 9.34375,14.28125 C 9.0916753,14.63009 8.8510756,14.978586 8.625,15.34375 C 8.4908113,15.557767 8.3756997,15.778899 8.25,16 C 8.1101763,16.248267 7.9716584,16.495542 7.84375,16.75 C 7.7839525,16.868367 7.7136239,16.973546 7.65625,17.09375 C 7.4399441,17.548336 7.2403401,18.028784 7.0625,18.5 C 7.0542736,18.521815 7.0393994,18.540633 7.03125,18.5625 C 7.0277401,18.571918 7.0347431,18.58433 7.03125,18.59375 C 6.9046285,18.934757 6.7934916,19.276577 6.6875,19.625 C 6.5017288,20.236055 6.3370116,20.853451 6.21875,21.46875 C 6.1849673,21.644381 6.1535808,21.823178 6.125,22 C 6.0981597,22.166178 6.0845572,22.333807 6.0625,22.5 C 6.0123695,22.877602 5.9635928,23.243327 5.9375,23.625 C 5.9070467,24.065988 5.9040503,24.498904 5.90625,24.9375 C 5.908353,25.356814 5.9374663,25.771826 5.96875,26.1875 C 5.9841786,26.39362 5.9773233,26.606156 6,26.8125 C 6.0370872,27.148901 6.100438,27.479832 6.15625,27.8125 C 6.1700701,27.895165 6.1724888,27.97986 6.1875,28.0625 C 6.2552076,28.433916 6.3468781,28.790777 6.4375,29.15625 C 6.523322,29.502819 6.6112488,29.842726 6.71875,30.1875 C 6.8070405,30.470357 6.898034,30.753322 7,31.03125 C 7.011472,31.062553 7.019593,31.093721 7.03125,31.125 C 7.0981268,31.30445 7.1780517,31.480221 7.25,31.65625 C 7.3566274,31.916933 7.4751112,32.182105 7.59375,32.4375 C 7.7414918,32.755923 7.8982978,33.06899 8.0625,33.375 C 8.2448351,33.714388 8.4211446,34.047569 8.625,34.375 C 8.6524956,34.419212 8.6909053,34.456086 8.71875,34.5 C 8.9365711,34.843178 9.1652252,35.171595 9.40625,35.5 C 9.6571834,35.841799 9.9150897,36.179354 10.1875,36.5 C 10.239574,36.561473 10.290814,36.626687 10.34375,36.6875 C 10.382115,36.731436 10.429992,36.768981 10.46875,36.8125 C 10.700734,37.07298 10.941919,37.317186 11.1875,37.5625 C 11.432814,37.808081 11.67702,38.049266 11.9375,38.28125 C 12.042337,38.374355 12.143158,38.471995 12.25,38.5625 C 12.591209,38.852381 12.947361,39.140741 13.3125,39.40625 C 13.427267,39.489635 13.539648,39.575661 13.65625,39.65625 C 14.001165,39.894818 14.354168,40.12797 14.71875,40.34375 C 14.872248,40.434549 15.031464,40.507566 15.1875,40.59375 C 15.554119,40.796214 15.927701,40.977711 16.3125,41.15625 C 16.567895,41.274889 16.833067,41.393373 17.09375,41.5 C 17.269779,41.571948 17.44555,41.651873 17.625,41.71875 C 17.656282,41.730408 17.687445,41.738527 17.71875,41.75 C 18.037155,41.866816 18.362677,41.963656 18.6875,42.0625 C 19.021962,42.164182 19.351467,42.26243 19.6875,42.34375 C 20.234006,42.476005 20.764349,42.607956 21.3125,42.6875 C 21.43559,42.705414 21.563911,42.70338 21.6875,42.71875 C 22.165377,42.777872 22.648617,42.823444 23.125,42.84375 C 23.640236,42.865712 24.14527,42.866049 24.65625,42.84375 C 25.132633,42.823444 25.615873,42.777872 26.09375,42.71875 C 26.197323,42.705936 26.302666,42.702164 26.40625,42.6875 C 26.488648,42.675798 26.574087,42.669085 26.65625,42.65625 C 27.143554,42.580245 27.639141,42.461483 28.125,42.34375 C 28.45927,42.26275 28.792286,42.163651 29.125,42.0625 C 29.442345,41.965931 29.751272,41.863726 30.0625,41.75 C 30.370494,41.637455 30.667467,41.504019 30.96875,41.375 C 31.124254,41.308535 31.284781,41.257871 31.4375,41.1875 C 31.905817,40.971704 32.371078,40.750977 32.8125,40.5 C 32.857006,40.474695 32.893273,40.431899 32.9375,40.40625 C 33.326027,40.180925 33.695948,39.938512 34.0625,39.6875 C 34.254843,39.555785 34.438864,39.419697 34.625,39.28125 C 34.715208,39.214338 34.817239,39.162392 34.90625,39.09375 C 35.250759,38.827215 35.58445,38.538772 35.90625,38.25 C 36.021402,38.146991 36.137361,38.043628 36.25,37.9375 C 36.336035,37.856205 36.415728,37.770352 36.5,37.6875 C 36.773527,37.419412 37.055438,37.161628 37.3125,36.875 C 37.47145,36.697769 37.597687,36.496664 37.75,36.3125 C 37.976429,36.038722 38.195204,35.757521 38.40625,35.46875 C 38.445126,35.415556 38.492913,35.366195 38.53125,35.3125 C 38.583784,35.23888 38.636105,35.168112 38.6875,35.09375 C 38.926068,34.748834 39.15922,34.395832 39.375,34.03125 C 39.406085,33.978729 39.438154,33.927922 39.46875,33.875 C 39.664191,33.536827 39.858192,33.193579 40.03125,32.84375 C 40.051372,32.802936 40.073909,32.759773 40.09375,32.71875 C 40.3431,32.204805 40.550201,31.660416 40.75,31.125 C 40.917816,30.67529 41.055766,30.212394 41.1875,29.75 C 41.202824,29.696213 41.235172,29.647691 41.25,29.59375 C 41.256112,29.571489 41.275227,29.553518 41.28125,29.53125 C 41.362874,29.229815 41.434016,28.930845 41.5,28.625 C 41.576239,28.270577 41.633278,27.917523 41.6875,27.5625 C 41.697043,27.500019 41.709882,27.437484 41.71875,27.375 C 41.759628,27.087159 41.785591,26.790393 41.8125,26.5 C 41.839284,26.210021 41.862439,25.914304 41.875,25.625 C 41.877275,25.572859 41.87318,25.520947 41.875,25.46875 C 41.889888,25.040611 41.890647,24.612721 41.875,24.1875 C 41.871158,24.083093 41.880657,23.979174 41.875,23.875 C 41.871564,23.812573 41.847847,23.749963 41.84375,23.6875 C 41.817631,23.284923 41.7716,22.898084 41.71875,22.5 C 41.700705,22.364075 41.708616,22.229051 41.6875,22.09375 C 41.600335,21.534892 41.485895,20.962998 41.34375,20.40625 C 41.33552,20.373984 41.320907,20.344714 41.3125,20.3125 C 41.194591,19.86096 41.061305,19.416814 40.90625,18.96875 C 40.903131,18.959747 40.909383,18.946498 40.90625,18.9375 C 40.86238,18.811407 40.828105,18.688225 40.78125,18.5625 C 40.665241,18.251214 40.506321,17.956839 40.375,17.65625 C 40.358178,17.617745 40.360818,17.569578 40.34375,17.53125 C 40.334193,17.509679 40.322141,17.490284 40.3125,17.46875 C 40.187347,17.190604 40.044075,16.92488 39.90625,16.65625 C 39.727856,16.306525 39.544657,15.962679 39.34375,15.625 C 39.078793,15.179668 38.802986,14.73439 38.5,14.3125 C 38.491492,14.300653 38.477287,14.293077 38.46875,14.28125 C 38.455207,14.262745 38.451109,14.237194 38.4375,14.21875 C 38.142268,13.813028 37.798194,13.443567 37.46875,13.0625 C 37.121337,12.660649 36.75914,12.277767 36.375,11.90625 C 36.004615,11.548036 35.622043,11.20228 35.21875,10.875 C 34.646794,10.410848 34.072694,9.9579068 33.4375,9.5625 C 33.4375,9.5625 33.406415,9.5934872 33.40625,9.59375 C 33.245035,9.492959 33.089384,9.3828455 32.90625,9.3125 C 32.898536,9.3080535 32.88272,9.3169352 32.875,9.3125 C 32.789347,9.26329 32.711411,9.2040717 32.625,9.15625 L 32.59375,9.25 C 31.123111,8.8659772 29.573404,9.6389895 29.03125,11.09375 C 28.546128,12.395474 29.072096,13.796294 30.15625,14.5625 L 30.125,14.625 C 30.338959,14.754265 30.54416,14.888994 30.75,15.03125 C 30.881217,15.122575 30.998178,15.216458 31.125,15.3125 C 31.206495,15.37356 31.295005,15.436847 31.375,15.5 C 31.588814,15.670996 31.799752,15.847229 32,16.03125 C 32.055046,16.081114 32.102086,16.136562 32.15625,16.1875 C 32.346313,16.368891 32.541864,16.526197 32.71875,16.71875 C 32.82107,16.828542 32.901613,16.948506 33,17.0625 C 33.056367,17.128553 33.132642,17.182818 33.1875,17.25 C 33.362218,17.461779 33.526791,17.712159 33.6875,17.9375 C 33.695858,17.94934 33.710436,17.956882 33.71875,17.96875 C 33.911709,18.241407 34.078948,18.520638 34.25,18.8125 C 34.363359,19.005922 34.490593,19.204595 34.59375,19.40625 C 34.684561,19.584172 34.761884,19.755332 34.84375,19.9375 C 34.880772,20.019655 34.902172,20.104107 34.9375,20.1875 C 35.050484,20.454772 35.15649,20.725057 35.25,21 C 35.343582,21.275154 35.426438,21.562032 35.5,21.84375 C 35.602406,22.23592 35.688577,22.606188 35.75,23 C 35.811423,23.393812 35.853376,23.794639 35.875,24.1875 C 35.896624,24.580361 35.891989,24.985682 35.875,25.375 C 35.866274,25.576927 35.862908,25.766318 35.84375,25.96875 C 35.826041,26.157231 35.807788,26.344386 35.78125,26.53125 C 35.778343,26.551642 35.784265,26.573358 35.78125,26.59375 C 35.730899,26.935549 35.64175,27.258911 35.5625,27.59375 C 35.528618,27.737282 35.508183,27.888088 35.46875,28.03125 C 35.440144,28.134894 35.406345,28.240983 35.375,28.34375 C 35.313566,28.545101 35.260196,28.737373 35.1875,28.9375 C 35.141271,29.065222 35.081739,29.186459 35.03125,29.3125 C 34.924842,29.577304 34.810445,29.840727 34.6875,30.09375 C 34.661232,30.147903 34.620826,30.196241 34.59375,30.25 C 34.434646,30.565272 34.27722,30.891739 34.09375,31.1875 C 33.95532,31.411158 33.809335,31.629221 33.65625,31.84375 C 33.61698,31.898479 33.57136,31.946056 33.53125,32 C 33.403645,32.172675 33.262027,32.334014 33.125,32.5 C 33.013592,32.634096 32.897937,32.7777 32.78125,32.90625 C 32.648907,33.052783 32.514927,33.203486 32.375,33.34375 C 32.234736,33.483677 32.084033,33.617657 31.9375,33.75 C 31.792869,33.881081 31.65163,34.000613 31.5,34.125 C 31.293184,34.294461 31.092011,34.470144 30.875,34.625 C 30.79525,34.681845 30.706391,34.726216 30.625,34.78125 C 30.387757,34.941906 30.15389,35.106881 29.90625,35.25 C 29.838729,35.288923 29.75599,35.306035 29.6875,35.34375 C 29.420021,35.491441 29.152753,35.654315 28.875,35.78125 C 28.75126,35.837508 28.626454,35.885085 28.5,35.9375 C 28.293731,36.023409 28.08585,36.08187 27.875,36.15625 C 27.853449,36.16383 27.834067,36.180051 27.8125,36.1875 C 27.511958,36.291552 27.2147,36.388643 26.90625,36.46875 C 26.566898,36.557364 26.246962,36.629633 25.90625,36.6875 C 25.834805,36.69975 25.759225,36.707788 25.6875,36.71875 C 25.490587,36.748411 25.290554,36.761597 25.09375,36.78125 C 24.519815,36.839843 23.958784,36.869612 23.375,36.84375 C 23.333186,36.841925 23.291756,36.846013 23.25,36.84375 C 23.115997,36.836374 22.977963,36.824461 22.84375,36.8125 C 22.580555,36.789161 22.322496,36.759253 22.0625,36.71875 C 21.742332,36.668813 21.412993,36.608202 21.09375,36.53125 C 21.021343,36.513719 20.947022,36.48761 20.875,36.46875 C 20.801646,36.449595 20.729492,36.426863 20.65625,36.40625 C 20.342171,36.317753 20.024109,36.207192 19.71875,36.09375 C 19.69656,36.08548 19.678362,36.070887 19.65625,36.0625 C 19.313901,35.932647 18.979466,35.813282 18.65625,35.65625 C 18.601692,35.629744 18.553999,35.589751 18.5,35.5625 C 18.184728,35.403396 17.85826,35.24597 17.5625,35.0625 C 17.538231,35.047445 17.524134,35.015212 17.5,35 C 17.175361,34.795373 16.862281,34.57568 16.5625,34.34375 C 16.37407,34.197968 16.178268,34.062073 16,33.90625 C 15.928318,33.843853 15.851527,33.782931 15.78125,33.71875 C 15.651474,33.599681 15.530192,33.46799 15.40625,33.34375 C 15.28201,33.219808 15.150319,33.098526 15.03125,32.96875 C 14.806048,32.722158 14.60922,32.450801 14.40625,32.1875 C 14.17432,31.887719 13.954627,31.574639 13.75,31.25 C 13.737329,31.229898 13.731312,31.207696 13.71875,31.1875 C 13.513004,30.856717 13.331362,30.511439 13.15625,30.15625 C 13.105438,30.053184 13.048102,29.94881 13,29.84375 C 12.920202,29.669141 12.852653,29.49075 12.78125,29.3125 C 12.74288,29.217013 12.692394,29.128234 12.65625,29.03125 C 12.641032,28.990417 12.639744,28.947142 12.625,28.90625 C 12.584127,28.792471 12.537456,28.677519 12.5,28.5625 C 12.420028,28.316926 12.314132,28.06315 12.25,27.8125 C 12.181491,27.544745 12.143759,27.27262 12.09375,27 C 12.046319,26.741162 11.998725,26.477653 11.96875,26.21875 C 11.945637,26.019114 11.950413,25.824287 11.9375,25.625 C 11.923405,25.407959 11.908438,25.187253 11.90625,24.96875 C 11.903432,24.629378 11.911629,24.273411 11.9375,23.9375 C 11.963371,23.601589 12.008717,23.268264 12.0625,22.9375 C 12.123148,22.564518 12.186162,22.207907 12.28125,21.84375 C 12.297501,21.781516 12.32645,21.718404 12.34375,21.65625 C 12.422845,21.372334 12.525494,21.089418 12.625,20.8125 C 12.6427,20.763066 12.63786,20.705597 12.65625,20.65625 C 12.704939,20.525604 12.75977,20.409062 12.8125,20.28125 C 12.860529,20.164764 12.917108,20.052414 12.96875,19.9375 C 13.085359,19.678737 13.210916,19.433779 13.34375,19.1875 C 13.461991,18.967511 13.586941,18.743721 13.71875,18.53125 C 13.83251,18.347874 13.970111,18.177283 14.09375,18 C 14.209829,17.835213 14.313898,17.657641 14.4375,17.5 C 14.524468,17.387757 14.596445,17.265528 14.6875,17.15625 C 14.734871,17.100078 14.795425,17.055181 14.84375,17 C 15.012996,16.806745 15.194529,16.618428 15.375,16.4375 C 15.607001,16.204912 15.844613,15.992975 16.09375,15.78125 C 16.252013,15.646752 16.397846,15.500896 16.5625,15.375 C 16.603371,15.343426 16.64616,15.312336 16.6875,15.28125 C 16.87423,15.142257 17.055879,15.0029 17.25,14.875 C 17.300491,14.841431 17.355144,14.814115 17.40625,14.78125 C 17.489616,14.728094 17.571648,14.676113 17.65625,14.625 C 18.92123,13.581084 18.904387,12.588429 18.78125,11.09375 C 18.240917,9.6438773 16.684988,8.8750929 15.21875,9.25 C 15.177296,9.074165 15.011349,9.2914803 14.90625,9.3125 z"
       id="path2404"
       style="fill:#3a3935;fill-opacity:1;fill-rule:evenodd;stroke:none;stroke-width:1.69999993;stroke-linecap:round;stroke-linejoin:miter;marker:none;marker-start:none;marker-mid:none;marker-end:none;stroke-miterlimit:4;stroke-dasharray:none;stroke-dashoffset:0;stroke-opacity:1;visibility:visible;display:inline;overflow:visible;enable-background:accumulate" />
  </g>
</svg>
