<?xml version="1.0" encoding="UTF-8" standalone="no"?>
<!-- Created with Inkscape (http://www.inkscape.org/) -->
<svg
   xmlns:svg="http://www.w3.org/2000/svg"
   xmlns="http://www.w3.org/2000/svg"
   version="1.0"
   width="48"
   height="48"
   id="svg3191">
  <defs
     id="defs3193" />
  <g
     id="layer1">
    <path
       d="M 40.96875,5 C 40.718274,5.0171305 40.483678,5.128843 40.3125,5.3125 L 35.5625,10.0625 C 32.360806,7.5712865 28.37242,6 24,6 C 13.528734,6 5,14.528734 5,25 C 5,35.471266 13.528734,44 24,44 C 33.17491,44 40.866435,37.453575 42.625,28.78125 C 42.638393,28.687978 42.638393,28.593272 42.625,28.5 C 42.626481,28.468768 42.626481,28.437482 42.625,28.40625 C 42.640512,28.268585 42.6875,28.145524 42.6875,28 C 42.6875,25.808734 40.878767,24 38.6875,24 C 36.779987,24 35.202213,25.374793 34.8125,27.15625 C 34.843172,27.016043 34.78898,27.170444 34.75,27.34375 C 33.671278,32.289273 29.278804,36 24,36 C 17.911266,36 13,31.088734 13,25 C 13,18.911266 17.911266,14 24,14 C 26.173435,14 28.112191,14.720506 29.8125,15.8125 L 25.3125,20.3125 C 25.032086,20.594032 24.947309,21.01601 25.09723,21.383999 C 25.247152,21.751988 25.602681,21.994581 26,22 L 41,22 C 41.266086,22.00287 41.522111,21.898436 41.710273,21.710273 C 41.898436,21.522111 42.00287,21.266086 42,21 L 42,6 C 42.003159,5.728344 41.894473,5.4673412 41.699438,5.2782162 C 41.504403,5.0890912 41.24018,4.988486 40.96875,5 L 40.96875,5 z"
       id="path3189"
       style="opacity:0.6;fill:#eae3d0;fill-opacity:1;fill-rule:evenodd;stroke:none;stroke-width:1.69999993;stroke-linecap:round;stroke-linejoin:miter;marker:none;marker-start:none;marker-mid:none;marker-end:none;stroke-miterlimit:4;stroke-dasharray:none;stroke-dashoffset:0;stroke-opacity:1;visibility:visible;display:inline;overflow:visible;enable-background:accumulate" />
    <path
       d="M 41,6 L 35.65625,11.34375 C 32.515177,8.6515618 28.458626,7 24,7 C 14.064,7 6,15.064 6,25 C 6,34.936 14.064,43 24,43 C 32.706029,43 39.990057,36.810544 41.65625,28.59375 C 41.65625,28.59375 41.625304,28.593813 41.625,28.59375 C 41.664984,28.398516 41.6875,28.207 41.6875,28 C 41.6875,26.344 40.343501,25 38.6875,25 C 37.2523,25 36.075963,26.027807 35.78125,27.375 C 35.76712,27.439591 35.72864,27.49643 35.71875,27.5625 C 34.54257,32.954829 29.743324,37 24,37 C 17.376,37 12,31.624 12,25 C 12,18.376 17.376,13 24,13 C 26.80554,13 29.365873,13.975282 31.40625,15.59375 L 26,21 L 41,21 L 41,6 z"
       id="path2404"
       style="opacity:1;fill:#3a3935;fill-opacity:1;fill-rule:evenodd;stroke:none;stroke-width:1.69999993;stroke-linecap:round;stroke-linejoin:miter;marker:none;marker-start:none;marker-mid:none;marker-end:none;stroke-miterlimit:4;stroke-dasharray:none;stroke-dashoffset:0;stroke-opacity:1;visibility:visible;display:inline;overflow:visible;enable-background:accumulate" />
  </g>
</svg>
