<?xml version="1.0" encoding="UTF-8" standalone="no"?>
<!-- Created with Inkscape (http://www.inkscape.org/) -->

<svg
   xmlns:dc="http://purl.org/dc/elements/1.1/"
   xmlns:cc="http://creativecommons.org/ns#"
   xmlns:rdf="http://www.w3.org/1999/02/22-rdf-syntax-ns#"
   xmlns:svg="http://www.w3.org/2000/svg"
   xmlns="http://www.w3.org/2000/svg"
   xmlns:xlink="http://www.w3.org/1999/xlink"
   xmlns:sodipodi="http://sodipodi.sourceforge.net/DTD/sodipodi-0.dtd"
   xmlns:inkscape="http://www.inkscape.org/namespaces/inkscape"
   width="512"
   height="476"
   id="svg3336"
   version="1.1"
   inkscape:version="0.48.3.1 r9886"
   sodipodi:docname="app_calculator_512x476px_squared.svg"
   inkscape:export-filename="PNG/app_calculator_512x476px_squared.png"
   inkscape:export-xdpi="90"
   inkscape:export-ydpi="90">
  <defs
     id="defs3338">
    <filter
       color-interpolation-filters="sRGB"
       inkscape:collect="always"
       id="filter5048"
       x="-0.077714287"
       width="1.1554286"
       y="-0.12553845"
       height="1.2510769">
      <feGaussianBlur
         inkscape:collect="always"
         stdDeviation="0.68"
         id="feGaussianBlur5050" />
    </filter>
    <filter
       color-interpolation-filters="sRGB"
       inkscape:collect="always"
       id="filter5010"
       x="-0.10032705"
       width="1.2006541"
       y="-0.092030771"
       height="1.1840615">
      <feGaussianBlur
         inkscape:collect="always"
         stdDeviation="0.69023076"
         id="feGaussianBlur5012" />
    </filter>
    <linearGradient
       id="linearGradient3994-4">
      <stop
         style="stop-color:#ffffff;stop-opacity:1;"
         offset="0"
         id="stop3996-9" />
      <stop
         style="stop-color:#ffffff;stop-opacity:0;"
         offset="1"
         id="stop3998-9" />
    </linearGradient>
    <filter
       color-interpolation-filters="sRGB"
       inkscape:collect="always"
       id="filter4747">
      <feGaussianBlur
         inkscape:collect="always"
         stdDeviation="0.83602156"
         id="feGaussianBlur4749" />
    </filter>
    <linearGradient
       inkscape:collect="always"
       id="linearGradient3901">
      <stop
         style="stop-color:#000000;stop-opacity:1;"
         offset="0"
         id="stop3903" />
      <stop
         style="stop-color:#000000;stop-opacity:0;"
         offset="1"
         id="stop3905" />
    </linearGradient>
    <filter
       color-interpolation-filters="sRGB"
       inkscape:collect="always"
       id="filter4731">
      <feGaussianBlur
         inkscape:collect="always"
         stdDeviation="0.48004487"
         id="feGaussianBlur4733" />
    </filter>
    <linearGradient
       id="linearGradient4929">
      <stop
         id="stop4931"
         offset="0"
         style="stop-color:#d0d0d0;stop-opacity:1;" />
      <stop
         style="stop-color:#bababa;stop-opacity:1;"
         offset="0.09917424"
         id="stop4408" />
      <stop
         style="stop-color:#acacac;stop-opacity:1;"
         offset="0.91744775"
         id="stop4404" />
      <stop
         id="stop4933"
         offset="1"
         style="stop-color:#6f6f6f;stop-opacity:1;" />
    </linearGradient>
    <linearGradient
       id="linearGradient4146-2">
      <stop
         style="stop-color:#d0d0d0;stop-opacity:1;"
         offset="0"
         id="stop4148-2" />
      <stop
         style="stop-color:#acacac;stop-opacity:1;"
         offset="1"
         id="stop4150-8" />
    </linearGradient>
    <filter
       color-interpolation-filters="sRGB"
       inkscape:collect="always"
       id="filter4067-3"
       x="-0.1125"
       width="1.225"
       y="-0.12857144"
       height="1.2571429">
      <feGaussianBlur
         inkscape:collect="always"
         stdDeviation="1.5"
         id="feGaussianBlur4069-4" />
    </filter>
    <linearGradient
       id="linearGradient3201">
      <stop
         style="stop-color:#ffffff;stop-opacity:1;"
         offset="0"
         id="stop3203" />
      <stop
         style="stop-color:#ffffff;stop-opacity:0;"
         offset="1"
         id="stop3205" />
    </linearGradient>
    <linearGradient
       id="linearGradient4045">
      <stop
         style="stop-color:#c74112;stop-opacity:1;"
         offset="0"
         id="stop4047" />
      <stop
         id="stop4689"
         offset="0.06991075"
         style="stop-color:#de4a16;stop-opacity:1;" />
      <stop
         style="stop-color:#eb6738;stop-opacity:1;"
         offset="0.92685443"
         id="stop4691" />
      <stop
         style="stop-color:#ef7c54;stop-opacity:1;"
         offset="1"
         id="stop4049" />
    </linearGradient>
    <linearGradient
       id="linearGradient4071">
      <stop
         id="stop4073"
         offset="0"
         style="stop-color:#ec5b29;stop-opacity:1;" />
      <stop
         id="stop4075"
         offset="1"
         style="stop-color:#ed7c38;stop-opacity:1;" />
    </linearGradient>
    <linearGradient
       id="linearGradient4115">
      <stop
         style="stop-color:#9b9b9b;stop-opacity:1;"
         offset="0"
         id="stop4117" />
      <stop
         style="stop-color:#777777;stop-opacity:1;"
         offset="1"
         id="stop4119" />
    </linearGradient>
    <clipPath
       id="clipPath4058-7-9"
       clipPathUnits="userSpaceOnUse">
      <path
         style="fill:#dd4814;fill-opacity:1;stroke:none"
         d="m -133.42831,956.36216 22.85662,0 c 31.999999,0 31.999999,0 31.999999,32 l 0,32.00004 c 0,32 0,32 -31.999999,32 l -22.85662,0 c -32,0 -32,0 -32,-32 l 0,-32.00004 c 0,-32 0,-32 32,-32 z"
         id="path4060-38-5"
         inkscape:connector-curvature="0"
         sodipodi:nodetypes="sssssssss" />
    </clipPath>
    <filter
       color-interpolation-filters="sRGB"
       id="filter4080-7-0"
       inkscape:collect="always">
      <feGaussianBlur
         id="feGaussianBlur4082-6-2"
         stdDeviation="2.4000005"
         inkscape:collect="always" />
    </filter>
    <linearGradient
       y2="1004.3622"
       x2="-74"
       y1="1004.3622"
       x1="-170"
       gradientUnits="userSpaceOnUse"
       id="linearGradient3463"
       xlink:href="#linearGradient3994-4"
       inkscape:collect="always" />
    <linearGradient
       inkscape:collect="always"
       xlink:href="#linearGradient3994-4"
       id="linearGradient3442"
       gradientUnits="userSpaceOnUse"
       x1="-170"
       y1="1004.3622"
       x2="-74"
       y2="1004.3622" />
    <linearGradient
       inkscape:collect="always"
       xlink:href="#linearGradient3994-4"
       id="linearGradient3446"
       gradientUnits="userSpaceOnUse"
       x1="30.360001"
       y1="1003.0568"
       x2="30.360001"
       y2="980.5564" />
    <linearGradient
       inkscape:collect="always"
       xlink:href="#linearGradient3901"
       id="linearGradient3448"
       gradientUnits="userSpaceOnUse"
       x1="30"
       y1="1002.3622"
       x2="30"
       y2="975.10175" />
    <linearGradient
       inkscape:collect="always"
       xlink:href="#linearGradient3901"
       id="linearGradient3450"
       gradientUnits="userSpaceOnUse"
       x1="30"
       y1="1002.3622"
       x2="30"
       y2="932.36212" />
    <linearGradient
       inkscape:collect="always"
       xlink:href="#linearGradient4045"
       id="linearGradient3452"
       gradientUnits="userSpaceOnUse"
       gradientTransform="matrix(0.34000003,0,0,0.34147842,12.68,644.91821)"
       x1="44.236801"
       y1="1044.707"
       x2="44.236801"
       y2="960.21375" />
    <linearGradient
       inkscape:collect="always"
       xlink:href="#linearGradient4071"
       id="linearGradient3454"
       gradientUnits="userSpaceOnUse"
       gradientTransform="matrix(0.32583337,0,0,-0.32521769,13.36,1313.524)"
       x1="44.236801"
       y1="1044.707"
       x2="44.236801"
       y2="960.21375" />
    <linearGradient
       inkscape:collect="always"
       xlink:href="#linearGradient3994-4"
       id="linearGradient3456"
       gradientUnits="userSpaceOnUse"
       gradientTransform="matrix(0.65131976,0,0,0.64936242,1.6445712,961.40025)"
       x1="38"
       y1="19.000002"
       x2="37.55159"
       y2="70.80864" />
    <linearGradient
       inkscape:collect="always"
       xlink:href="#linearGradient3994-4"
       id="linearGradient3458"
       gradientUnits="userSpaceOnUse"
       gradientTransform="matrix(0.3256599,0,0,0.32521751,13.368326,661.22571)"
       x1="36"
       y1="960.93359"
       x2="36"
       y2="1002.8643" />
    <linearGradient
       inkscape:collect="always"
       xlink:href="#linearGradient4115"
       id="linearGradient3502"
       gradientUnits="userSpaceOnUse"
       gradientTransform="matrix(5.3329479,0,0,-5.4179183,0.01851758,5682.2607)"
       x1="44.236801"
       y1="1046.2661"
       x2="44.236801"
       y2="960.21375" />
    <linearGradient
       inkscape:collect="always"
       xlink:href="#linearGradient4146-2"
       id="linearGradient4295"
       gradientUnits="userSpaceOnUse"
       gradientTransform="matrix(0.3147884,0,0,0.3112797,14.01619,674.99432)"
       x1="44.236801"
       y1="1044.707"
       x2="44.236801"
       y2="960.21375" />
    <filter
       inkscape:collect="always"
       id="filter4321">
      <feGaussianBlur
         inkscape:collect="always"
         stdDeviation="0.15424088"
         id="feGaussianBlur4323" />
    </filter>
    <clipPath
       clipPathUnits="userSpaceOnUse"
       id="clipPath4329">
      <path
         sodipodi:nodetypes="sssssssss"
         inkscape:connector-curvature="0"
         id="path4331"
         d="m 29.723689,1001.5614 10.280431,0 c 10.280431,0 11.308515,0 11.308515,-10.98636 l 0,-6.81898 c 0,-10.98625 -1.028084,-10.98625 -11.308515,-10.98625 l -10.280431,0 c -10.28043,0 -11.308432,0 -11.308432,10.98625 l 0,6.81898 c 0,10.98636 1.028002,10.98636 11.308432,10.98636 z"
         style="fill:#ff00ff;fill-opacity:1;stroke:none;display:inline" />
    </clipPath>
    <linearGradient
       inkscape:collect="always"
       xlink:href="#linearGradient3201"
       id="linearGradient4343"
       x1="31.100853"
       y1="1002.3055"
       x2="31.100853"
       y2="977.42981"
       gradientUnits="userSpaceOnUse" />
    <filter
       inkscape:collect="always"
       id="filter4353">
      <feGaussianBlur
         inkscape:collect="always"
         stdDeviation="0.62413614"
         id="feGaussianBlur4355" />
    </filter>
    <radialGradient
       inkscape:collect="always"
       xlink:href="#linearGradient3201"
       id="radialGradient4398"
       cx="77.757172"
       cy="74.516167"
       fx="77.757172"
       fy="74.516167"
       r="17.78125"
       gradientTransform="matrix(1,0,0,0.80404218,0,15.894016)"
       gradientUnits="userSpaceOnUse" />
    <radialGradient
       inkscape:collect="always"
       xlink:href="#linearGradient3201"
       id="radialGradient4402"
       gradientUnits="userSpaceOnUse"
       gradientTransform="matrix(-0.19126383,0,0,0.154331,57.813312,963.15226)"
       cx="77.757172"
       cy="74.516167"
       fx="77.757172"
       fy="74.516167"
       r="17.78125" />
    <linearGradient
       inkscape:collect="always"
       xlink:href="#linearGradient4929"
       id="linearGradient4406"
       gradientUnits="userSpaceOnUse"
       gradientTransform="matrix(0.34268104,0,0,-0.34332299,12.677343,1331.472)"
       x1="44.383114"
       y1="1040.8965"
       x2="43.962837"
       y2="961.03705" />
    <clipPath
       clipPathUnits="userSpaceOnUse"
       id="clipPath4433">
      <path
         sodipodi:nodetypes="sssssssss"
         inkscape:connector-curvature="0"
         id="path4435"
         d="m 123.12478,216.00008 53.75,0 c 53.75,0 59.12521,0 59.12521,-57.23735 l 0,-35.52589 c 0,-57.236778 -5.37521,-57.236778 -59.12521,-57.236778 l -53.75,0 c -53.749997,0 -59.124782,0 -59.124782,57.236778 l 0,35.52589 c 0,57.23735 5.374785,57.23735 59.124782,57.23735 z"
         style="fill:#ff00ff;fill-opacity:1;stroke:none;display:inline" />
    </clipPath>
    <filter
       inkscape:collect="always"
       id="filter4441"
       x="-0.14441872"
       width="1.2888374"
       y="-0.70971162"
       height="2.4194232">
      <feGaussianBlur
         inkscape:collect="always"
         stdDeviation="11.85625"
         id="feGaussianBlur4443" />
    </filter>
    <clipPath
       clipPathUnits="userSpaceOnUse"
       id="clipPath4449">
      <path
         sodipodi:nodetypes="sssssssss"
         inkscape:connector-curvature="0"
         id="path4451"
         d="m 24.404167,974.11345 9.443653,0 c 9.443651,0 10.388054,0 10.388054,9.96097 l 0,6.18254 c 0,9.96094 -0.944403,9.96094 -10.388054,9.96094 l -9.443653,0 c -9.44365,0 -10.387977,0 -10.387977,-9.96094 l 0,-6.18254 c 0,-9.96097 0.944327,-9.96097 10.387977,-9.96097 z"
         style="fill:#ff00ff;fill-opacity:1;stroke:none;display:inline" />
    </clipPath>
    <filter
       inkscape:collect="always"
       id="filter4461"
       x="-0.089475233"
       width="1.1789505"
       y="-0.10358055"
       height="1.2071611">
      <feGaussianBlur
         inkscape:collect="always"
         stdDeviation="1.1266305"
         id="feGaussianBlur4463" />
    </filter>
    <clipPath
       clipPathUnits="userSpaceOnUse"
       id="clipPath4497">
      <path
         sodipodi:nodetypes="ccccccccccccc"
         inkscape:connector-curvature="0"
         id="path4499"
         d="m 142.70588,103 0,31.71429 -24.70588,0 0,10.57142 24.70588,0 0,31.71429 10.58824,0 0,-31.71429 24.70588,0 0,-10.57142 -24.70588,0 0,-31.71429 z"
         style="color:#000000;fill:#333333;fill-opacity:1;fill-rule:nonzero;stroke:none;stroke-width:1;marker:none;visibility:visible;display:inline;overflow:visible;enable-background:accumulate" />
    </clipPath>
    <filter
       inkscape:collect="always"
       id="filter4501">
      <feGaussianBlur
         inkscape:collect="always"
         stdDeviation="0.67"
         id="feGaussianBlur4503" />
    </filter>
    <filter
       inkscape:collect="always"
       id="filter4507"
       x="-0.1072"
       width="1.2144"
       y="-0.086918919"
       height="1.1738378">
      <feGaussianBlur
         inkscape:collect="always"
         stdDeviation="2.68"
         id="feGaussianBlur4509" />
    </filter>
    <filter
       inkscape:collect="always"
       id="filter4613">
      <feGaussianBlur
         inkscape:collect="always"
         stdDeviation="0.3528571"
         id="feGaussianBlur4615" />
    </filter>
    <filter
       inkscape:collect="always"
       id="filter4623"
       x="-0.056457136"
       width="1.1129143"
       y="-0.32043265"
       height="1.6408653">
      <feGaussianBlur
         inkscape:collect="always"
         stdDeviation="1.4114284"
         id="feGaussianBlur4625" />
    </filter>
    <clipPath
       clipPathUnits="userSpaceOnUse"
       id="clipPath4633">
      <path
         d="m 167.16441,370 c -0.92248,-1.84366 -2.05456,-3.89609 -3.39623,-6.15838 -1.34176,-2.26228 -2.80927,-4.56596 -4.40251,-6.91212 -1.59333,-2.43002 -3.22855,-4.81757 -4.90566,-7.16372 -1.67718,-2.34616 -3.31241,-4.5667 -4.90566,-6.66088 -1.59332,2.09455 -3.22854,4.35647 -4.90567,6.78686 -1.67717,2.34616 -3.31238,4.7337 -4.90565,7.16373 -1.50946,2.34542 -2.93503,4.64983 -4.27673,6.91175 -1.34173,2.26265 -2.47382,4.27296 -3.39623,6.03276 l -12.07547,0 c 2.935,-5.69765 6.41508,-11.47881 10.44024,-17.34347 4.10902,-5.94853 8.17609,-11.60442 12.20127,-16.96659 l -21.63521,-31.04245 13.20754,0 15.59749,22.87338 15.72326,-22.87338 12.45283,0 -21.13208,30.28835 c 4.02512,5.44604 8.13414,11.22756 12.32705,17.34347 4.27668,6.0324 7.88255,11.93918 10.81761,17.72069 l -12.83019,0"
         style="font-size:23.07692337px;font-style:normal;font-variant:normal;font-weight:normal;font-stretch:normal;text-align:center;line-height:125%;letter-spacing:0px;word-spacing:0px;writing-mode:lr-tb;text-anchor:middle;fill:#ff0000;fill-opacity:1;stroke:none;font-family:Ubuntu;-inkscape-font-specification:Ubuntu"
         id="path4635"
         inkscape:connector-curvature="0" />
    </clipPath>
    <filter
       inkscape:collect="always"
       id="filter4637">
      <feGaussianBlur
         inkscape:collect="always"
         stdDeviation="0.62676255"
         id="feGaussianBlur4639" />
    </filter>
    <filter
       inkscape:collect="always"
       id="filter4643"
       x="-0.10028201"
       width="1.200564"
       y="-0.092068698"
       height="1.1841374">
      <feGaussianBlur
         inkscape:collect="always"
         stdDeviation="2.5070502"
         id="feGaussianBlur4645" />
    </filter>
    <linearGradient
       inkscape:collect="always"
       xlink:href="#linearGradient3201"
       id="linearGradient4671"
       gradientUnits="userSpaceOnUse"
       x1="31.100853"
       y1="1002.3055"
       x2="31.100853"
       y2="977.42981" />
    <linearGradient
       inkscape:collect="always"
       xlink:href="#linearGradient4045"
       id="linearGradient4673"
       gradientUnits="userSpaceOnUse"
       gradientTransform="matrix(0.34268104,0,0,0.34332299,12.677343,642.85921)"
       x1="44.694401"
       y1="1040.7134"
       x2="44.694401"
       y2="965.4411" />
    <radialGradient
       inkscape:collect="always"
       xlink:href="#linearGradient3201"
       id="radialGradient4675"
       gradientUnits="userSpaceOnUse"
       gradientTransform="matrix(1,0,0,0.80404218,0,15.894016)"
       cx="77.757172"
       cy="74.516167"
       fx="77.757172"
       fy="74.516167"
       r="17.78125" />
    <radialGradient
       inkscape:collect="always"
       xlink:href="#linearGradient3201"
       id="radialGradient4677"
       gradientUnits="userSpaceOnUse"
       gradientTransform="matrix(-0.19126383,0,0,0.154331,57.813312,963.15226)"
       cx="77.757172"
       cy="74.516167"
       fx="77.757172"
       fy="74.516167"
       r="17.78125" />
    <linearGradient
       inkscape:collect="always"
       xlink:href="#linearGradient4071"
       id="linearGradient4679"
       gradientUnits="userSpaceOnUse"
       gradientTransform="matrix(0.3147884,0,0,-0.3112797,14.01619,1299.337)"
       x1="44.236801"
       y1="1044.707"
       x2="44.236801"
       y2="960.21375" />
    <clipPath
       clipPathUnits="userSpaceOnUse"
       id="clipPath4702">
      <path
         id="path4704"
         d="m 325,313 0,11 74,0 0,-11 -74,0 z m 0,35 0,11 74,0 0,-11 -74,0 z"
         style="color:#000000;fill:#ff0000;fill-opacity:1;fill-rule:nonzero;stroke:none;stroke-width:1;marker:none;visibility:visible;display:inline;overflow:visible;enable-background:accumulate"
         inkscape:connector-curvature="0" />
    </clipPath>
    <filter
       inkscape:collect="always"
       id="filter4710">
      <feGaussianBlur
         inkscape:collect="always"
         stdDeviation="0.6"
         id="feGaussianBlur4712" />
    </filter>
    <filter
       inkscape:collect="always"
       id="filter4720"
       x="-0.077837838"
       width="1.1556757"
       y="-0.12521739"
       height="1.2504348">
      <feGaussianBlur
         inkscape:collect="always"
         stdDeviation="2.4"
         id="feGaussianBlur4722" />
    </filter>
    <clipPath
       clipPathUnits="userSpaceOnUse"
       id="clipPath4728">
      <path
         style="color:#000000;fill:#333333;fill-opacity:1;fill-rule:nonzero;stroke:none;stroke-width:1;marker:none;visibility:visible;display:inline;overflow:visible;enable-background:accumulate"
         d="m 332,134 0,11 60,0 0,-11 z"
         id="path4730"
         inkscape:connector-curvature="0"
         sodipodi:nodetypes="ccccc" />
    </clipPath>
    <filter
       inkscape:collect="always"
       id="filter4732">
      <feGaussianBlur
         inkscape:collect="always"
         stdDeviation="0.355"
         id="feGaussianBlur4734" />
    </filter>
    <filter
       inkscape:collect="always"
       id="filter4738"
       x="-0.0568"
       width="1.1136"
       y="-0.30981818"
       height="1.6196364">
      <feGaussianBlur
         inkscape:collect="always"
         stdDeviation="1.42"
         id="feGaussianBlur4740" />
    </filter>
  </defs>
  <sodipodi:namedview
     id="base"
     pagecolor="#ffffff"
     bordercolor="#666666"
     borderopacity="1.0"
     inkscape:pageopacity="0.0"
     inkscape:pageshadow="2"
     inkscape:zoom="1"
     inkscape:cx="392.90273"
     inkscape:cy="345.56705"
     inkscape:document-units="px"
     inkscape:current-layer="layer2"
     showgrid="false"
     inkscape:window-width="1920"
     inkscape:window-height="1029"
     inkscape:window-x="0"
     inkscape:window-y="24"
     inkscape:window-maximized="1">
    <inkscape:grid
       type="xygrid"
       id="grid4480" />
  </sodipodi:namedview>
  <metadata
     id="metadata3341">
    <rdf:RDF>
      <cc:Work
         rdf:about="">
        <dc:format>image/svg+xml</dc:format>
        <dc:type
           rdf:resource="http://purl.org/dc/dcmitype/StillImage" />
        <dc:title></dc:title>
      </cc:Work>
    </rdf:RDF>
  </metadata>
  <g
     inkscape:groupmode="layer"
     id="layer2"
     inkscape:label="Icon">
    <path
       transform="matrix(0,4.6620459,4.6663308,0,-4430.686,810.32645)"
       clip-path="url(#clipPath4058-7-9)"
       sodipodi:nodetypes="sssssssss"
       inkscape:connector-curvature="0"
       id="path4332"
       d="m -138,956.36216 32,0 c 32,0 32,0 32,32 l 0,32.00004 c 0,32 0,32 -32,32 l -32,0 c -32,0 -32,0 -32,-32 l 0,-32.00004 c 0,-32 0,-32 32,-32 z"
       style="opacity:0.1;fill:none;stroke:url(#linearGradient3442);stroke-width:2.28577948;stroke-miterlimit:4;stroke-dasharray:none;display:inline;filter:url(#filter4080-7-0)" />
    <path
       style="fill:url(#linearGradient3502);fill-opacity:1;stroke:none;display:inline"
       d="m 0.01851758,3.733312e-5 0,142.86678266688 c -0.04166454,9.52355 0,19.69112 0,30.52687 l 0,129.21269 c 0,10.83575 -0.04166454,21.00332 0,30.52687 l 0,142.86679 140.65650242,0 230.65,0 140.6565,0 0,-142.86679 c 0.0416,-9.52355 0,-19.69112 0,-30.52687 l 0,-129.21269 c 0,-10.83575 0.0416,-21.00332 0,-30.52687 l 0,-142.86678266688 -140.6565,0 -230.65,0 -140.65650242,0 z"
       id="path6419"
       inkscape:connector-curvature="0" />
    <g
       transform="matrix(5.2283802,0,0,5.2098552,209.71803,-4807.9898)"
       id="g4647">
      <path
         d="m 24,972.0625 c -2.569901,0 -4.576844,-0.0213 -6.1875,0.15625 -1.610656,0.17754 -2.87545,0.54371 -3.8125,1.375 -0.93705,0.83129 -1.447321,2.06001 -1.71875,3.6875 -0.271429,1.62749 -0.3125,3.71079 -0.3125,6.46875 l 0,6.8125 c 0,2.758 0.04114,4.83857 0.3125,6.46875 0.271362,1.63018 0.782515,2.85221 1.71875,3.68755 0.936235,0.8352 2.201322,1.2256 3.8125,1.4062 1.611178,0.1806 3.617232,0.1562 6.1875,0.1562 l 10.28125,0 c 2.570268,0 4.579062,0.024 6.1875,-0.1562 1.608438,-0.1807 2.848819,-0.5701 3.78125,-1.4062 0.932431,-0.83618 1.450561,-2.05788 1.71875,-3.68755 0.268189,-1.62967 0.3125,-3.71109 0.3125,-6.46875 l 0,-6.8125 c 0,-2.75762 -0.04424,-4.84177 -0.3125,-6.46875 -0.268255,-1.62698 -0.785497,-2.85537 -1.71875,-3.6875 -0.933253,-0.83213 -2.173335,-1.19743 -3.78125,-1.375 -1.607915,-0.17757 -3.617599,-0.15625 -6.1875,-0.15625 l -10.28125,0 z"
         id="path4649"
         style="opacity:0.3;fill:none;stroke:url(#linearGradient4671);stroke-width:0.76641428;stroke-miterlimit:4;stroke-dasharray:none;display:inline;filter:url(#filter4353)"
         inkscape:original="M 24 972.78125 C 13.71957 972.78125 12.6875 972.76375 12.6875 983.75 L 12.6875 990.5625 C 12.6875 1001.5489 13.71957 1001.5625 24 1001.5625 L 34.28125 1001.5625 C 44.561681 1001.5625 45.5625 1001.5489 45.5625 990.5625 L 45.5625 983.75 C 45.5625 972.76375 44.561681 972.78125 34.28125 972.78125 L 24 972.78125 z "
         inkscape:radius="0.72826236"
         sodipodi:type="inkscape:offset" />
      <path
         style="opacity:0.8;fill:none;stroke:#1a1a1a;display:inline"
         d="m 23.985775,1001.5614 10.280431,0 c 10.280431,0 11.308515,0 11.308515,-10.98636 l 0,-6.81898 c 0,-10.98625 -1.028084,-10.98625 -11.308515,-10.98625 l -10.280431,0 c -10.28043,0 -11.308432,0 -11.308432,10.98625 l 0,6.81898 c 0,10.98636 1.028002,10.98636 11.308432,10.98636 z"
         id="path4651"
         inkscape:connector-curvature="0"
         sodipodi:nodetypes="sssssssss" />
      <path
         sodipodi:nodetypes="sssssssss"
         inkscape:connector-curvature="0"
         id="path4653"
         d="m 23.985775,972.76981 10.280431,0 c 10.280431,0 11.308515,0 11.308515,10.98636 l 0,6.81898 c 0,10.98625 -1.028084,10.98625 -11.308515,10.98625 l -10.280431,0 c -10.28043,0 -11.308432,0 -11.308432,-10.98625 l 0,-6.81898 c 0,-10.98636 1.028002,-10.98636 11.308432,-10.98636 z"
         style="fill:url(#linearGradient4673);fill-opacity:1;stroke:none;display:inline" />
      <path
         clip-path="url(#clipPath4433)"
         id="path4655"
         transform="matrix(0.19126383,0,0,0.19194391,0.43645831,960.1015)"
         d="m 84.375,186.8125 -31.34375,11.53125 c 2.969798,14.73456 40.278747,26.93546 56.25,28.5625 L 110.0625,200.34375 84.375,186.8125 z m 134.34375,0 -25.6875,13.53125 0.78125,26.5625 c 15.97125,-1.62704 53.2802,-13.82794 56.25,-28.5625 L 218.71875,186.8125 z"
         style="opacity:0.1;fill:#000000;fill-opacity:1;stroke:none;filter:url(#filter4441)"
         inkscape:connector-curvature="0" />
      <path
         id="path4657"
         transform="matrix(0.19126383,0,0,0.19194391,0.43645831,960.1015)"
         d="M 92.03125,66.8125 C 76.059999,68.439609 69.0323,73.359275 66.0625,88.09375 L 84.375,95.40625 101.625,81.5 92.03125,66.8125 z"
         style="opacity:0.1;fill:url(#radialGradient4675);fill-opacity:1;stroke:none"
         inkscape:connector-curvature="0" />
      <path
         inkscape:connector-curvature="0"
         style="opacity:0.1;fill:url(#radialGradient4677);fill-opacity:1;stroke:none"
         d="m 40.211062,972.92575 c 3.054723,0.31232 4.398868,1.25662 4.966883,4.08481 l -3.502519,1.40359 -3.299301,-2.66922 1.834937,-2.81918 z"
         id="path4659" />
      <path
         transform="translate(-5.7379149,0)"
         clip-path="url(#clipPath4329)"
         sodipodi:nodetypes="sssssssss"
         inkscape:connector-curvature="0"
         id="path4661"
         d="m 29.723689,1001.5614 10.280431,0 c 10.280431,0 11.308515,0 11.308515,-10.98636 l 0,-6.81898 c 0,-10.98625 -1.028084,-10.98625 -11.308515,-10.98625 l -10.280431,0 c -10.28043,0 -11.308432,0 -11.308432,10.98625 l 0,6.81898 c 0,10.98636 1.028002,10.98636 11.308432,10.98636 z"
         style="opacity:0.3;fill:none;stroke:#000000;stroke-width:0.57481068;stroke-miterlimit:4;stroke-dasharray:none;display:inline;filter:url(#filter4321)" />
      <path
         style="fill:url(#linearGradient4679);fill-opacity:1;stroke:none;display:inline"
         d="m 24.404167,1000.2179 9.443653,0 c 9.443651,0 10.388054,0 10.388054,-9.96097 l 0,-6.18254 c 0,-9.96094 -0.944403,-9.96094 -10.388054,-9.96094 l -9.443653,0 c -9.44365,0 -10.387977,0 -10.387977,9.96094 l 0,6.18254 c 0,9.96097 0.944327,9.96097 10.387977,9.96097 z"
         id="path4663"
         inkscape:connector-curvature="0"
         sodipodi:nodetypes="sssssssss" />
      <path
         clip-path="url(#clipPath4449)"
         sodipodi:nodetypes="sssssssss"
         inkscape:connector-curvature="0"
         id="path4665"
         d="m 24.404167,974.11345 9.443653,0 c 9.443651,0 10.388054,0 10.388054,9.96097 l 0,6.18254 c 0,9.96094 -0.944403,9.96094 -10.388054,9.96094 l -9.443653,0 c -9.44365,0 -10.387977,0 -10.387977,-9.96094 l 0,-6.18254 c 0,-9.96097 0.944327,-9.96097 10.387977,-9.96097 z"
         style="opacity:0.3;fill:none;stroke:#ffffff;display:inline;filter:url(#filter4461)" />
      <path
         id="path4667"
         transform="matrix(0.19126383,0,0,0.19194391,0.43645831,960.1015)"
         d="M 116.5625,73 C 75.336332,73.190046 71,76.254489 71,124.90625 l 0,32.1875 c 0,32.43441 1.936584,44.59516 15.4375,49.15625 -2.410072,-0.84571 -4.375483,-1.95038 -6.03125,-3.40625 -3.47441,-3.05495 -5.66588,-7.77941 -6.875,-14.96875 -1.20912,-7.18934 -1.46875,-16.85382 -1.46875,-29.8125 l 0,-32.21875 c 0,-12.95879 0.259734,-22.63879 1.46875,-29.8125 1.209016,-7.17371 3.401777,-11.777759 6.875,-14.8125 3.473223,-3.034741 8.345918,-4.58529 15.65625,-5.375 7.31033,-0.78971 16.90585,-0.8125 29.25,-0.8125 l 49.34375,0 c 12.34415,0 21.92408,0.02274 29.25,0.8125 7.32592,0.789762 12.34992,2.339061 15.84375,5.375 3.49383,3.035939 5.65103,7.639571 6.875,14.8125 1.22397,7.17293 1.46875,16.85424 1.46875,29.8125 l 0,32.21875 c 0,12.95816 -0.24468,22.62389 -1.46875,29.8125 -1.22407,7.18861 -3.37999,11.9126 -6.875,14.96875 -1.22325,1.06965 -2.61834,1.96033 -4.25,2.6875 11.74952,-5.0853 13.5,-17.62481 13.5,-48.4375 l 0,-32.1875 C 229,73.011039 224.0625,73 174.6875,73 l -49.375,0 c -3.08594,0 -6.00159,-0.01267 -8.75,0 z"
         style="opacity:0.22972973;fill:#ffb380;fill-opacity:1;stroke:none;display:inline"
         inkscape:connector-curvature="0" />
      <path
         id="path4669"
         transform="matrix(0.19126383,0,0,0.19194391,0.43645831,960.1015)"
         d="m 116.5625,73 c -38.777911,0.17876 -44.907238,2.941226 -45.5,43.75 C 71.785745,73.989663 79.023444,74 125.3125,74 l 49.375,0 c 46.28906,0 53.52671,-0.01034 54.25,42.75 C 228.30269,73.048876 221.31358,73 174.6875,73 l -49.375,0 c -3.08594,0 -6.00159,-0.01267 -8.75,0 z"
         style="opacity:0.43693694;fill:#ffb380;fill-opacity:1;stroke:none;display:inline"
         inkscape:connector-curvature="0" />
    </g>
    <use
       x="0"
       y="0"
       xlink:href="#g3922"
       id="use4627"
       transform="translate(0,194)"
       width="512"
       height="476" />
    <use
       x="0"
       y="0"
       xlink:href="#g3922"
       id="use4511"
       transform="translate(212,0)"
       width="512"
       height="476" />
    <g
       id="g3922"
       transform="matrix(5.2283802,0,0,5.2098552,-2.28197,-5001.9898)">
      <path
         sodipodi:type="inkscape:offset"
         inkscape:radius="0.72826236"
         inkscape:original="M 24 972.78125 C 13.71957 972.78125 12.6875 972.76375 12.6875 983.75 L 12.6875 990.5625 C 12.6875 1001.5489 13.71957 1001.5625 24 1001.5625 L 34.28125 1001.5625 C 44.561681 1001.5625 45.5625 1001.5489 45.5625 990.5625 L 45.5625 983.75 C 45.5625 972.76375 44.561681 972.78125 34.28125 972.78125 L 24 972.78125 z "
         style="opacity:0.3;fill:none;stroke:url(#linearGradient4343);stroke-width:0.76641428;stroke-miterlimit:4;stroke-dasharray:none;display:inline;filter:url(#filter4353)"
         id="path4335"
         d="m 24,972.0625 c -2.569901,0 -4.576844,-0.0213 -6.1875,0.15625 -1.610656,0.17754 -2.87545,0.54371 -3.8125,1.375 -0.93705,0.83129 -1.447321,2.06001 -1.71875,3.6875 -0.271429,1.62749 -0.3125,3.71079 -0.3125,6.46875 l 0,6.8125 c 0,2.758 0.04114,4.83857 0.3125,6.46875 0.271362,1.63018 0.782515,2.85221 1.71875,3.68755 0.936235,0.8352 2.201322,1.2256 3.8125,1.4062 1.611178,0.1806 3.617232,0.1562 6.1875,0.1562 l 10.28125,0 c 2.570268,0 4.579062,0.024 6.1875,-0.1562 1.608438,-0.1807 2.848819,-0.5701 3.78125,-1.4062 0.932431,-0.83618 1.450561,-2.05788 1.71875,-3.68755 0.268189,-1.62967 0.3125,-3.71109 0.3125,-6.46875 l 0,-6.8125 c 0,-2.75762 -0.04424,-4.84177 -0.3125,-6.46875 -0.268255,-1.62698 -0.785497,-2.85537 -1.71875,-3.6875 -0.933253,-0.83213 -2.173335,-1.19743 -3.78125,-1.375 -1.607915,-0.17757 -3.617599,-0.15625 -6.1875,-0.15625 l -10.28125,0 z" />
      <path
         sodipodi:nodetypes="sssssssss"
         inkscape:connector-curvature="0"
         id="path4483"
         d="m 23.985775,1001.5614 10.280431,0 c 10.280431,0 11.308515,0 11.308515,-10.98636 l 0,-6.81898 c 0,-10.98625 -1.028084,-10.98625 -11.308515,-10.98625 l -10.280431,0 c -10.28043,0 -11.308432,0 -11.308432,10.98625 l 0,6.81898 c 0,10.98636 1.028002,10.98636 11.308432,10.98636 z"
         style="fill:none;fill-opacity:1;stroke:#1a1a1a;display:inline;opacity:0.80000000000000004" />
      <path
         style="fill:url(#linearGradient4406);fill-opacity:1;stroke:none;display:inline"
         d="m 23.985775,1001.5614 10.280431,0 c 10.280431,0 11.308515,0 11.308515,-10.98636 l 0,-6.81898 c 0,-10.98625 -1.028084,-10.98625 -11.308515,-10.98625 l -10.280431,0 c -10.28043,0 -11.308432,0 -11.308432,10.98625 l 0,6.81898 c 0,10.98636 1.028002,10.98636 11.308432,10.98636 z"
         id="path3868"
         inkscape:connector-curvature="0"
         sodipodi:nodetypes="sssssssss" />
      <path
         style="opacity:0.2;fill:#000000;fill-opacity:1;stroke:none;filter:url(#filter4441)"
         d="M 84.375 186.8125 L 53.03125 198.34375 C 56.001048 213.07831 93.309997 225.27921 109.28125 226.90625 L 110.0625 200.34375 L 84.375 186.8125 z M 218.71875 186.8125 L 193.03125 200.34375 L 193.8125 226.90625 C 209.78375 225.27921 247.0927 213.07831 250.0625 198.34375 L 218.71875 186.8125 z "
         transform="matrix(0.19126383,0,0,0.19194391,0.43645831,960.1015)"
         id="path4410"
         clip-path="url(#clipPath4433)" />
      <path
         style="fill:url(#radialGradient4398);stroke:none;stroke-width:0.19160357000000000px;stroke-linecap:butt;stroke-linejoin:miter;stroke-opacity:1;fill-opacity:1;opacity:0.2"
         d="M 92.03125 66.8125 C 76.059999 68.439609 69.0323 73.359275 66.0625 88.09375 L 84.375 95.40625 L 101.625 81.5 L 92.03125 66.8125 z "
         transform="matrix(0.19126383,0,0,0.19194391,0.43645831,960.1015)"
         id="path4366" />
      <path
         id="path4400"
         d="m 40.211062,972.92575 c 3.054723,0.31232 4.398868,1.25662 4.966883,4.08481 l -3.502519,1.40359 -3.299301,-2.66922 1.834937,-2.81918 z"
         style="opacity:0.2;fill:url(#radialGradient4402);fill-opacity:1;stroke:none"
         inkscape:connector-curvature="0" />
      <path
         style="opacity:0.3;fill:none;stroke:#000000;stroke-width:0.57481068000000002;stroke-miterlimit:4;stroke-dasharray:none;display:inline;filter:url(#filter4321)"
         d="m 29.723689,1001.5614 10.280431,0 c 10.280431,0 11.308515,0 11.308515,-10.98636 l 0,-6.81898 c 0,-10.98625 -1.028084,-10.98625 -11.308515,-10.98625 l -10.280431,0 c -10.28043,0 -11.308432,0 -11.308432,10.98625 l 0,6.81898 c 0,10.98636 1.028002,10.98636 11.308432,10.98636 z"
         id="path4299"
         inkscape:connector-curvature="0"
         sodipodi:nodetypes="sssssssss"
         clip-path="url(#clipPath4329)"
         transform="translate(-5.7379149,0)" />
      <path
         sodipodi:nodetypes="sssssssss"
         inkscape:connector-curvature="0"
         id="path4915"
         d="m 24.404167,974.11345 9.443653,0 c 9.443651,0 10.388054,0 10.388054,9.96097 l 0,6.18254 c 0,9.96094 -0.944403,9.96094 -10.388054,9.96094 l -9.443653,0 c -9.44365,0 -10.387977,0 -10.387977,-9.96094 l 0,-6.18254 c 0,-9.96097 0.944327,-9.96097 10.387977,-9.96097 z"
         style="fill:url(#linearGradient4295);fill-opacity:1;stroke:none;display:inline" />
      <path
         style="fill:none;fill-opacity:1;stroke:#ffffff;display:inline;filter:url(#filter4461);opacity:0.3"
         d="m 24.404167,974.11345 9.443653,0 c 9.443651,0 10.388054,0 10.388054,9.96097 l 0,6.18254 c 0,9.96094 -0.944403,9.96094 -10.388054,9.96094 l -9.443653,0 c -9.44365,0 -10.387977,0 -10.387977,-9.96094 l 0,-6.18254 c 0,-9.96097 0.944327,-9.96097 10.387977,-9.96097 z"
         id="path4445"
         inkscape:connector-curvature="0"
         sodipodi:nodetypes="sssssssss"
         clip-path="url(#clipPath4449)" />
      <path
         style="fill:#ffffff;fill-opacity:1;stroke:none;display:inline;opacity:0.1"
         d="M 116.5625 73 C 75.336332 73.190046 71 76.254489 71 124.90625 L 71 157.09375 C 71 189.52816 72.936584 201.68891 86.4375 206.25 C 84.027428 205.40429 82.062017 204.29962 80.40625 202.84375 C 76.93184 199.7888 74.74037 195.06434 73.53125 187.875 C 72.32213 180.68566 72.0625 171.02118 72.0625 158.0625 L 72.0625 125.84375 C 72.0625 112.88496 72.322234 103.20496 73.53125 96.03125 C 74.740266 88.85754 76.933027 84.253491 80.40625 81.21875 C 83.879473 78.184009 88.752168 76.63346 96.0625 75.84375 C 103.37283 75.05404 112.96835 75.03125 125.3125 75.03125 L 174.65625 75.03125 C 187.0004 75.03125 196.58033 75.053988 203.90625 75.84375 C 211.23217 76.633512 216.25617 78.182811 219.75 81.21875 C 223.24383 84.254689 225.40103 88.858321 226.625 96.03125 C 227.84897 103.20418 228.09375 112.88549 228.09375 125.84375 L 228.09375 158.0625 C 228.09375 171.02066 227.84907 180.68639 226.625 187.875 C 225.40093 195.06361 223.24501 199.7876 219.75 202.84375 C 218.52675 203.9134 217.13166 204.80408 215.5 205.53125 C 227.24952 200.44595 229 187.90644 229 157.09375 L 229 124.90625 C 229 73.011039 224.0625 73 174.6875 73 L 125.3125 73 C 122.22656 73 119.31091 72.98733 116.5625 73 z "
         transform="matrix(0.19126383,0,0,0.19194391,0.43645831,960.1015)"
         id="path4474" />
      <path
         style="fill:#ffffff;fill-opacity:1;stroke:none;display:inline;opacity:0.3"
         d="M 116.5625 73 C 77.784589 73.17876 71.655262 75.941226 71.0625 116.75 C 71.785745 73.989663 79.023444 74 125.3125 74 L 174.6875 74 C 220.97656 74 228.21421 73.989663 228.9375 116.75 C 228.30269 73.048876 221.31358 73 174.6875 73 L 125.3125 73 C 122.22656 73 119.31091 72.98733 116.5625 73 z "
         transform="matrix(0.19126383,0,0,0.19194391,0.43645831,960.1015)"
         id="path4465" />
    </g>
    <path
       d="m 167.16441,372 c -0.92248,-1.84366 -2.05456,-3.89609 -3.39623,-6.15838 -1.34176,-2.26228 -2.80927,-4.56596 -4.40251,-6.91212 -1.59333,-2.43002 -3.22855,-4.81757 -4.90566,-7.16372 -1.67718,-2.34616 -3.31241,-4.5667 -4.90566,-6.66088 -1.59332,2.09455 -3.22854,4.35647 -4.90567,6.78686 -1.67717,2.34616 -3.31238,4.7337 -4.90565,7.16373 -1.50946,2.34542 -2.93503,4.64983 -4.27673,6.91175 -1.34173,2.26265 -2.47382,4.27296 -3.39623,6.03276 l -12.07547,0 c 2.935,-5.69765 6.41508,-11.47881 10.44024,-17.34347 4.10902,-5.94853 8.17609,-11.60442 12.20127,-16.96659 l -21.63521,-31.04245 13.20754,0 15.59749,22.87338 15.72326,-22.87338 12.45283,0 -21.13208,30.28835 c 4.02512,5.44604 8.13414,11.22756 12.32705,17.34347 4.27668,6.0324 7.88255,11.93918 10.81761,17.72069 l -12.83019,0"
       style="font-size:23.07692336999999938px;font-style:normal;font-variant:normal;font-weight:normal;font-stretch:normal;text-align:center;line-height:125%;letter-spacing:0px;word-spacing:0px;writing-mode:lr-tb;text-anchor:middle;fill:#ffffff;fill-opacity:1;stroke:#ffffff;font-family:Ubuntu;-inkscape-font-specification:Ubuntu;stroke-width:2;stroke-miterlimit:4;stroke-dasharray:none;filter:url(#filter4643);opacity:0.5"
       id="path4641"
       inkscape:connector-curvature="0" />
    <path
       inkscape:connector-curvature="0"
       id="path3956"
       style="font-size:23.07692337px;font-style:normal;font-variant:normal;font-weight:normal;font-stretch:normal;text-align:center;line-height:125%;letter-spacing:0px;word-spacing:0px;writing-mode:lr-tb;text-anchor:middle;fill:#333333;fill-opacity:1;stroke:none;font-family:Ubuntu;-inkscape-font-specification:Ubuntu"
       d="m 167.16441,370 c -0.92248,-1.84366 -2.05456,-3.89609 -3.39623,-6.15838 -1.34176,-2.26228 -2.80927,-4.56596 -4.40251,-6.91212 -1.59333,-2.43002 -3.22855,-4.81757 -4.90566,-7.16372 -1.67718,-2.34616 -3.31241,-4.5667 -4.90566,-6.66088 -1.59332,2.09455 -3.22854,4.35647 -4.90567,6.78686 -1.67717,2.34616 -3.31238,4.7337 -4.90565,7.16373 -1.50946,2.34542 -2.93503,4.64983 -4.27673,6.91175 -1.34173,2.26265 -2.47382,4.27296 -3.39623,6.03276 l -12.07547,0 c 2.935,-5.69765 6.41508,-11.47881 10.44024,-17.34347 4.10902,-5.94853 8.17609,-11.60442 12.20127,-16.96659 l -21.63521,-31.04245 13.20754,0 15.59749,22.87338 15.72326,-22.87338 12.45283,0 -21.13208,30.28835 c 4.02512,5.44604 8.13414,11.22756 12.32705,17.34347 4.27668,6.0324 7.88255,11.93918 10.81761,17.72069 l -12.83019,0" />
    <path
       sodipodi:nodetypes="ccccccccccccc"
       inkscape:connector-curvature="0"
       id="path4505"
       d="m 142.70588,105 0,31.71429 -24.70588,0 0,10.57142 24.70588,0 0,31.71429 10.58824,0 0,-31.71429 24.70588,0 0,-10.57142 -24.70588,0 0,-31.71429 z"
       style="color:#000000;fill:#ffffff;fill-opacity:1;fill-rule:nonzero;stroke:#ffffff;stroke-width:2;marker:none;visibility:visible;display:inline;overflow:visible;filter:url(#filter4507);enable-background:accumulate;opacity:0.59999999999999998;stroke-miterlimit:4;stroke-dasharray:none" />
    <path
       style="color:#000000;fill:#333333;fill-opacity:1;fill-rule:nonzero;stroke:none;stroke-width:1;marker:none;visibility:visible;display:inline;overflow:visible;enable-background:accumulate"
       d="m 142.70588,103 0,31.71429 -24.70588,0 0,10.57142 24.70588,0 0,31.71429 10.58824,0 0,-31.71429 24.70588,0 0,-10.57142 -24.70588,0 0,-31.71429 z"
       id="rect3944"
       inkscape:connector-curvature="0"
       sodipodi:nodetypes="ccccccccccccc" />
    <path
       id="path4714"
       d="m 325,315 0,11 74,0 0,-11 -74,0 z m 0,35 0,11 74,0 0,-11 -74,0 z"
       style="color:#000000;fill:#ffffff;fill-opacity:1;fill-rule:nonzero;stroke:#ffffff;stroke-width:2;marker:none;visibility:visible;display:inline;overflow:visible;enable-background:accumulate;stroke-miterlimit:4;stroke-dasharray:none;filter:url(#filter4720);opacity:0.2"
       inkscape:connector-curvature="0" />
    <path
       style="color:#000000;fill:#42190b;fill-opacity:1;fill-rule:nonzero;stroke:none;stroke-width:1;marker:none;visibility:visible;display:inline;overflow:visible;enable-background:accumulate"
       d="M 325 313 L 325 324 L 399 324 L 399 313 L 325 313 z M 325 348 L 325 359 L 399 359 L 399 348 L 325 348 z "
       id="path4695" />
    <path
       sodipodi:nodetypes="ccccccccccccc"
       inkscape:connector-curvature="0"
       id="path4485"
       d="m 142.70588,103.5 0,31.71429 -24.70588,0 0,10.57142 24.70588,0 0,31.71429 10.58824,0 0,-31.71429 24.70588,0 0,-10.57142 -24.70588,0 0,-31.71429 z"
       style="color:#000000;fill:none;stroke:#000000;stroke-width:1;marker:none;visibility:visible;display:inline;overflow:visible;enable-background:accumulate;filter:url(#filter4501);opacity:0.6"
       clip-path="url(#clipPath4497)" />
    <path
       style="color:#000000;fill:#ffffff;fill-opacity:1;fill-rule:nonzero;stroke:#ffffff;stroke-width:2;marker:none;visibility:visible;display:inline;overflow:visible;enable-background:accumulate;stroke-miterlimit:4;stroke-dasharray:none;filter:url(#filter4738);opacity:0.5"
       d="m 332,136 0,11 60,0 0,-11 z"
       id="path4736"
       inkscape:connector-curvature="0"
       sodipodi:nodetypes="ccccc" />
    <path
       sodipodi:nodetypes="ccccc"
       inkscape:connector-curvature="0"
       id="path4526"
       d="m 332,134 0,11 60,0 0,-11 z"
       style="color:#000000;fill:#333333;fill-opacity:1;fill-rule:nonzero;stroke:none;stroke-width:1;marker:none;visibility:visible;display:inline;overflow:visible;enable-background:accumulate" />
    <path
       d="m 167.16441,370.5 c -0.92248,-1.84366 -2.05456,-3.89609 -3.39623,-6.15838 -1.34176,-2.26228 -2.80927,-4.56596 -4.40251,-6.91212 -1.59333,-2.43002 -3.22855,-4.81757 -4.90566,-7.16372 -1.67718,-2.34616 -3.31241,-4.5667 -4.90566,-6.66088 -1.59332,2.09455 -3.22854,4.35647 -4.90567,6.78686 -1.67717,2.34616 -3.31238,4.7337 -4.90565,7.16373 -1.50946,2.34542 -2.93503,4.64983 -4.27673,6.91175 -1.34173,2.26265 -2.47382,4.27296 -3.39623,6.03276 l -12.07547,0 c 2.935,-5.69765 6.41508,-11.47881 10.44024,-17.34347 4.10902,-5.94853 8.17609,-11.60442 12.20127,-16.96659 l -21.63521,-31.04245 13.20754,0 15.59749,22.87338 15.72326,-22.87338 12.45283,0 -21.13208,30.28835 c 4.02512,5.44604 8.13414,11.22756 12.32705,17.34347 4.27668,6.0324 7.88255,11.93918 10.81761,17.72069 l -12.83019,0"
       style="font-size:23.07692336999999938px;font-style:normal;font-variant:normal;font-weight:normal;font-stretch:normal;text-align:center;line-height:125%;letter-spacing:0px;word-spacing:0px;writing-mode:lr-tb;text-anchor:middle;fill:none;stroke:#000000;font-family:Ubuntu;-inkscape-font-specification:Ubuntu;filter:url(#filter4637)"
       id="path4629"
       inkscape:connector-curvature="0"
       clip-path="url(#clipPath4633)" />
    <path
       id="path4698"
       d="m 325,313.5 0,11 74,0 0,-11 -74,0 z m 0,35 0,11 74,0 0,-11 -74,0 z"
       style="color:#000000;fill:none;stroke:#000000;stroke-width:1;marker:none;visibility:visible;display:inline;overflow:visible;enable-background:accumulate;filter:url(#filter4710)"
       inkscape:connector-curvature="0"
       clip-path="url(#clipPath4702)" />
    <path
       style="color:#000000;fill:none;stroke:#000000;stroke-width:1;marker:none;visibility:visible;display:inline;overflow:visible;enable-background:accumulate;filter:url(#filter4732)"
       d="m 332,134.5 0,11 60,0 0,-11 z"
       id="path4724"
       inkscape:connector-curvature="0"
       sodipodi:nodetypes="ccccc"
       clip-path="url(#clipPath4728)" />
  </g>
  <g
     inkscape:label="Masks"
     inkscape:groupmode="layer"
     id="layer1"
     transform="translate(0,-576.36218)"
     style="display:none">
    <g
       transform="matrix(3.5555556,0,0,3.5522388,0,-2685.8796)"
       id="layer1-3"
       inkscape:label="Layer 1"
       style="fill:#000000;display:inline">
      <g
         style="fill:#000000"
         inkscape:label="Layer 1"
         id="layer1-2"
         transform="translate(0,9.99998)">
        <path
           sodipodi:nodetypes="sssssssss"
           inkscape:connector-curvature="0"
           id="path3774"
           d="m 46.702703,908.3622 50.594594,0 C 138.16216,908.3622 144,914.2 144,955.06487 l 0,40.59483 c 0,40.8647 -5.83784,46.7025 -46.702703,46.7025 l -50.594594,0 C 5.8378378,1042.3622 0,1036.5244 0,995.6597 L 0,955.06487 C 0,914.2 5.8378378,908.3622 46.702703,908.3622 z"
           style="fill:#000000;fill-opacity:1;stroke:none;display:inline" />
      </g>
    </g>
  </g>
</svg>
