<?xml version="1.0" encoding="UTF-8" standalone="no"?>
<!-- Created with Inkscape (http://www.inkscape.org/) -->

<svg
   xmlns:dc="http://purl.org/dc/elements/1.1/"
   xmlns:cc="http://creativecommons.org/ns#"
   xmlns:rdf="http://www.w3.org/1999/02/22-rdf-syntax-ns#"
   xmlns:svg="http://www.w3.org/2000/svg"
   xmlns="http://www.w3.org/2000/svg"
   xmlns:xlink="http://www.w3.org/1999/xlink"
   xmlns:sodipodi="http://sodipodi.sourceforge.net/DTD/sodipodi-0.dtd"
   xmlns:inkscape="http://www.inkscape.org/namespaces/inkscape"
   width="512"
   height="476"
   id="svg3336"
   version="1.1"
   inkscape:version="0.48.3.1 r9886"
   sodipodi:docname="app_ebay_512x476px_squared.svg"
   inkscape:export-filename="PNG/app_ebay_512x476px_squared.png"
   inkscape:export-xdpi="90"
   inkscape:export-ydpi="90">
  <defs
     id="defs3338">
    <linearGradient
       id="linearGradient3883">
      <stop
         style="stop-color:#f2f2f2;stop-opacity:1;"
         offset="0"
         id="stop3885" />
      <stop
         style="stop-color:#ffffff;stop-opacity:1;"
         offset="1"
         id="stop3887" />
    </linearGradient>
    <linearGradient
       inkscape:collect="always"
       xlink:href="#linearGradient3883"
       id="linearGradient3889"
       x1="235.9296"
       y1="476"
       x2="235.9296"
       y2="0"
       gradientUnits="userSpaceOnUse" />
    <filter
       inkscape:collect="always"
       id="filter3956">
      <feGaussianBlur
         inkscape:collect="always"
         stdDeviation="6.29875"
         id="feGaussianBlur3958" />
    </filter>
    <filter
       inkscape:collect="always"
       id="filter4006">
      <feGaussianBlur
         inkscape:collect="always"
         stdDeviation="4.9105097"
         id="feGaussianBlur4008" />
    </filter>
    <filter
       inkscape:collect="always"
       id="filter4029">
      <feGaussianBlur
         inkscape:collect="always"
         stdDeviation="1.54625"
         id="feGaussianBlur4031" />
    </filter>
    <filter
       inkscape:collect="always"
       id="filter4035">
      <feGaussianBlur
         inkscape:collect="always"
         stdDeviation="6.185"
         id="feGaussianBlur4037" />
    </filter>
  </defs>
  <sodipodi:namedview
     id="base"
     pagecolor="#ffffff"
     bordercolor="#666666"
     borderopacity="1.0"
     inkscape:pageopacity="0.0"
     inkscape:pageshadow="2"
     inkscape:zoom="1.5625"
     inkscape:cx="269.78919"
     inkscape:cy="225.88782"
     inkscape:document-units="px"
     inkscape:current-layer="layer2"
     showgrid="true"
     inkscape:window-width="1920"
     inkscape:window-height="1029"
     inkscape:window-x="0"
     inkscape:window-y="24"
     inkscape:window-maximized="1"
     inkscape:snap-page="true">
    <inkscape:grid
       type="xygrid"
       id="grid3960" />
  </sodipodi:namedview>
  <metadata
     id="metadata3341">
    <rdf:RDF>
      <cc:Work
         rdf:about="">
        <dc:format>image/svg+xml</dc:format>
        <dc:type
           rdf:resource="http://purl.org/dc/dcmitype/StillImage" />
        <dc:title></dc:title>
      </cc:Work>
    </rdf:RDF>
  </metadata>
  <g
     inkscape:groupmode="layer"
     id="layer2"
     inkscape:label="Icons">
    <rect
       style="opacity:1;color:#000000;fill:url(#linearGradient3889);fill-opacity:1;fill-rule:nonzero;stroke:none;stroke-width:2;marker:none;visibility:visible;display:inline;overflow:visible;enable-background:accumulate"
       id="rect3113"
       width="512"
       height="476"
       x="0"
       y="0" />
    <g
       id="g3973"
       transform="matrix(0.31154007,0,0,0.31154007,35.223858,147.25134)">
      <path
         d="m 183.268,131.242 c -99.966,0 -183.269,42.412 -183.269,170.365 0,101.37 56.015,165.201 185.852,165.201 152.824,0 162.621,-100.668 162.621,-100.668 h -74.051 c 0,0 -15.877,54.205 -93.087,54.205 -62.887,0 -108.115,-42.483 -108.115,-102.021 h 282.995 v -37.368 c 0,-58.907 -37.396,-149.714 -172.946,-149.714 z m -2.58,47.756 c 59.86,0 100.67,36.671 100.67,91.633 H 74.855 c 0,-58.348 53.266,-91.633 105.833,-91.633 z"
         id="e"
         inkscape:connector-curvature="0"
         style="fill:#e53238" />
      <path
         d="m 356.161,7.343 v 395.21 c 0,22.433 -1.6,53.933 -1.6,53.933 h 70.629 c 0,0 2.535,-22.621 2.535,-43.3 0,0 34.894,54.593 129.777,54.593 99.914,0 167.782,-69.371 167.782,-168.752 0,-92.455 -62.34,-166.814 -167.62,-166.814 -98.591,0 -129.226,53.238 -129.226,53.238 V 7.343 h -72.277 z m 183.271,173.751 c 67.85,0 110.996,50.357 110.996,117.932 0,72.465 -49.831,119.87 -110.511,119.87 -72.416,0 -111.479,-56.546 -111.479,-119.224 0,-58.405 35.053,-118.578 110.994,-118.578 z"
         id="b"
         inkscape:connector-curvature="0"
         style="fill:#0064d2" />
      <path
         d="m 900.809,131.242 c -150.391,0 -160.035,82.35 -160.035,95.509 h 74.855 c 0,0 3.925,-48.077 80.018,-48.077 49.451,0 87.766,22.631 87.766,66.145 v 15.489 h -87.766 c -116.508,0 -178.104,34.083 -178.104,103.251 0,68.069 56.911,105.105 133.821,105.105 104.818,0 138.586,-57.917 138.586,-57.917 0,23.032 1.772,45.737 1.772,45.737 h 66.546 c 0,0 -2.581,-28.139 -2.581,-46.14 V 254.741 c 0,-102.026 -82.293,-123.496 -154.878,-123.496 v -0.003 z m 82.603,175.531 v 20.646 c 0,26.935 -16.621,93.896 -114.464,93.896 -53.577,0 -76.55,-26.74 -76.55,-57.756 0,-56.425 77.358,-56.786 191.014,-56.786 z"
         id="a"
         inkscape:connector-curvature="0"
         style="fill:#f5af02" />
      <path
         d="m 1015.378,144.163 h 84.214 l 120.862,242.13 120.581,-242.13 h 76.287 L 1197.68,575.238 h -80.018 l 63.379,-120.17 -165.663,-310.905 z"
         id="y"
         inkscape:connector-curvature="0"
         style="fill:#86b817" />
    </g>
  </g>
  <g
     inkscape:label="Masks"
     inkscape:groupmode="layer"
     id="layer1"
     transform="translate(0,-576.36218)"
     style="display:none">
    <g
       transform="matrix(3.5555556,0,0,3.5522388,0,-2685.8796)"
       id="layer1-3"
       inkscape:label="Layer 1"
       style="fill:#000000;display:inline">
      <g
         style="fill:#000000"
         inkscape:label="Layer 1"
         id="layer1-2"
         transform="translate(0,9.99998)">
        <path
           sodipodi:nodetypes="sssssssss"
           inkscape:connector-curvature="0"
           id="path3774"
           d="m 46.702703,908.3622 50.594594,0 C 138.16216,908.3622 144,914.2 144,955.06487 l 0,40.59483 c 0,40.8647 -5.83784,46.7025 -46.702703,46.7025 l -50.594594,0 C 5.8378378,1042.3622 0,1036.5244 0,995.6597 L 0,955.06487 C 0,914.2 5.8378378,908.3622 46.702703,908.3622 z"
           style="fill:#000000;fill-opacity:1;stroke:none;display:inline" />
      </g>
    </g>
  </g>
</svg>
