<?xml version="1.0" encoding="UTF-8" standalone="no"?>
<!-- Created with Inkscape (http://www.inkscape.org/) -->

<svg
   xmlns:dc="http://purl.org/dc/elements/1.1/"
   xmlns:cc="http://creativecommons.org/ns#"
   xmlns:rdf="http://www.w3.org/1999/02/22-rdf-syntax-ns#"
   xmlns:svg="http://www.w3.org/2000/svg"
   xmlns="http://www.w3.org/2000/svg"
   xmlns:xlink="http://www.w3.org/1999/xlink"
   xmlns:sodipodi="http://sodipodi.sourceforge.net/DTD/sodipodi-0.dtd"
   xmlns:inkscape="http://www.inkscape.org/namespaces/inkscape"
   width="512"
   height="476"
   id="svg3336"
   version="1.1"
   inkscape:version="0.48.3.1 r9886"
   sodipodi:docname="app_evernote_512x476px_squared.svg"
   inkscape:export-filename="PNG/app_evernote_512x476px_squared.png"
   inkscape:export-xdpi="90"
   inkscape:export-ydpi="90">
  <defs
     id="defs3338">
    <filter
       color-interpolation-filters="sRGB"
       inkscape:collect="always"
       id="filter4314">
      <feGaussianBlur
         inkscape:collect="always"
         stdDeviation="0.82668854"
         id="feGaussianBlur4316" />
    </filter>
    <linearGradient
       inkscape:collect="always"
       xlink:href="#linearGradient4275"
       id="linearGradient4169"
       gradientUnits="userSpaceOnUse"
       gradientTransform="translate(435.43644,944.77734)"
       spreadMethod="reflect"
       x1="48"
       y1="64"
       x2="48"
       y2="112" />
    <linearGradient
       inkscape:collect="always"
       id="linearGradient4275">
      <stop
         style="stop-color:#e8f8c8;stop-opacity:1;"
         offset="0"
         id="stop4277" />
      <stop
         style="stop-color:#e8f8c8;stop-opacity:0;"
         offset="1"
         id="stop4279" />
    </linearGradient>
    <filter
       color-interpolation-filters="sRGB"
       inkscape:collect="always"
       id="filter4271">
      <feGaussianBlur
         inkscape:collect="always"
         stdDeviation="0.33067541"
         id="feGaussianBlur4273" />
    </filter>
    <linearGradient
       inkscape:collect="always"
       xlink:href="#linearGradient4171"
       id="linearGradient4172"
       gradientUnits="userSpaceOnUse"
       gradientTransform="translate(435.43644,944.77734)"
       x1="32"
       y1="26"
       x2="25"
       y2="20" />
    <linearGradient
       inkscape:collect="always"
       id="linearGradient4171">
      <stop
         style="stop-color:#8c8c8c;stop-opacity:1;"
         offset="0"
         id="stop4173" />
      <stop
         style="stop-color:#303032;stop-opacity:1"
         offset="1"
         id="stop4175" />
    </linearGradient>
    <radialGradient
       inkscape:collect="always"
       xlink:href="#linearGradient4171"
       id="radialGradient4174"
       gradientUnits="userSpaceOnUse"
       gradientTransform="matrix(1.5936658,0,0,1.2948535,402.19116,930.36342)"
       cx="56"
       cy="50.518402"
       fx="56"
       fy="50.518402"
       r="30.119238" />
    <radialGradient
       inkscape:collect="always"
       xlink:href="#linearGradient4275"
       id="radialGradient4151"
       cx="48.00005"
       cy="1004.363"
       fx="48.00005"
       fy="1004.363"
       r="42.000011"
       gradientTransform="matrix(1.7142853,0,0,1.5770842,-10.285738,-1174.2027)"
       gradientUnits="userSpaceOnUse" />
    <linearGradient
       inkscape:collect="always"
       xlink:href="#linearGradient7517"
       id="linearGradient3159"
       gradientUnits="userSpaceOnUse"
       gradientTransform="matrix(1.4999999,0,0,-1.5252174,4.0067864e-5,1941.6328)"
       x1="44.236801"
       y1="1046.2661"
       x2="44.236801"
       y2="960.21375" />
    <linearGradient
       id="linearGradient7517">
      <stop
         style="stop-color:#5eb71f;stop-opacity:1"
         offset="0"
         id="stop7519" />
      <stop
         style="stop-color:#4e9425;stop-opacity:1"
         offset="1"
         id="stop7521" />
    </linearGradient>
    <linearGradient
       y2="1004.3622"
       x2="-74"
       y1="1004.3622"
       x1="-170"
       gradientUnits="userSpaceOnUse"
       id="linearGradient11355"
       xlink:href="#linearGradient3994-4"
       inkscape:collect="always" />
    <linearGradient
       id="linearGradient3994-4">
      <stop
         style="stop-color:#ffffff;stop-opacity:1;"
         offset="0"
         id="stop3996-9" />
      <stop
         style="stop-color:#ffffff;stop-opacity:0;"
         offset="1"
         id="stop3998-9" />
    </linearGradient>
    <clipPath
       id="clipPath4058-7-9"
       clipPathUnits="userSpaceOnUse">
      <path
         style="fill:#dd4814;fill-opacity:1;stroke:none"
         d="m -133.42831,956.36216 22.85662,0 c 31.999999,0 31.999999,0 31.999999,32 l 0,32.00004 c 0,32 0,32 -31.999999,32 l -22.85662,0 c -32,0 -32,0 -32,-32 l 0,-32.00004 c 0,-32 0,-32 32,-32 z"
         id="path4060-38-5"
         inkscape:connector-curvature="0"
         sodipodi:nodetypes="sssssssss" />
    </clipPath>
    <filter
       color-interpolation-filters="sRGB"
       id="filter4080-7-0"
       inkscape:collect="always">
      <feGaussianBlur
         id="feGaussianBlur4082-6-2"
         stdDeviation="2.4000005"
         inkscape:collect="always" />
    </filter>
    <linearGradient
       y2="1004.3622"
       x2="-74"
       y1="1004.3622"
       x1="-170"
       gradientUnits="userSpaceOnUse"
       id="linearGradient3195"
       xlink:href="#linearGradient3994-4"
       inkscape:collect="always" />
    <linearGradient
       inkscape:collect="always"
       xlink:href="#linearGradient3994-4"
       id="linearGradient3248"
       gradientUnits="userSpaceOnUse"
       x1="-170"
       y1="1004.3622"
       x2="-74"
       y2="1004.3622" />
    <linearGradient
       inkscape:collect="always"
       xlink:href="#linearGradient7517"
       id="linearGradient3250"
       gradientUnits="userSpaceOnUse"
       gradientTransform="matrix(1.4999999,0,0,-1.5252174,4.0067864e-5,1941.6328)"
       x1="44.236801"
       y1="1046.2661"
       x2="44.236801"
       y2="960.21375" />
    <radialGradient
       inkscape:collect="always"
       xlink:href="#linearGradient4275"
       id="radialGradient3252"
       gradientUnits="userSpaceOnUse"
       gradientTransform="matrix(1.7142853,0,0,1.5770842,-10.285738,-1174.2027)"
       cx="48.00005"
       cy="1004.363"
       fx="48.00005"
       fy="1004.363"
       r="42.000011" />
    <linearGradient
       inkscape:collect="always"
       xlink:href="#linearGradient4275"
       id="linearGradient3254"
       gradientUnits="userSpaceOnUse"
       gradientTransform="translate(435.43644,944.77734)"
       spreadMethod="reflect"
       x1="48"
       y1="64"
       x2="48"
       y2="112" />
    <linearGradient
       inkscape:collect="always"
       xlink:href="#linearGradient4171"
       id="linearGradient3256"
       gradientUnits="userSpaceOnUse"
       gradientTransform="translate(435.43644,944.77734)"
       x1="32"
       y1="26"
       x2="25"
       y2="20" />
    <radialGradient
       inkscape:collect="always"
       xlink:href="#linearGradient4171"
       id="radialGradient3258"
       gradientUnits="userSpaceOnUse"
       gradientTransform="matrix(1.5936658,0,0,1.2948535,402.19116,930.36342)"
       cx="56"
       cy="50.518402"
       fx="56"
       fy="50.518402"
       r="30.119238" />
    <radialGradient
       inkscape:collect="always"
       xlink:href="#linearGradient4275"
       id="radialGradient3270"
       gradientUnits="userSpaceOnUse"
       gradientTransform="matrix(6.0947962,0,0,5.6021796,-36.550496,-5385.9141)"
       cx="48.00005"
       cy="1004.363"
       fx="48.00005"
       fy="1004.363"
       r="42.000011" />
    <linearGradient
       inkscape:collect="always"
       xlink:href="#linearGradient7517"
       id="linearGradient3273"
       gradientUnits="userSpaceOnUse"
       gradientTransform="matrix(5.3329475,0,0,-5.4179356,0.01851707,5682.2768)"
       x1="44.236801"
       y1="1046.2661"
       x2="44.236801"
       y2="960.21375" />
    <radialGradient
       inkscape:collect="always"
       xlink:href="#linearGradient4171"
       id="radialGradient3278"
       gradientUnits="userSpaceOnUse"
       gradientTransform="matrix(1.5936658,0,0,1.2948535,402.19116,930.36342)"
       cx="56"
       cy="50.518402"
       fx="56"
       fy="50.518402"
       r="30.119238" />
    <clipPath
       clipPathUnits="userSpaceOnUse"
       id="clipPath3315">
      <path
         transform="matrix(4.6637082,0,0,4.6791204,-1999.1282,-4393.7469)"
         sodipodi:type="inkscape:offset"
         inkscape:radius="-1.7747669"
         inkscape:original="M 476.96875 956.84375 C 475.37465 956.89445 474.08884 957.07623 473.46875 957.25 C 472.15485 957.61723 470.68442 958.37149 469.875 959.53125 C 469.33216 960.30592 469.00273 961.301 469 962.6875 C 469 963.47222 469.01135 965.2951 469.03125 966.9375 C 469.05115 968.585 469.0625 970.08371 469.0625 970.09375 C 469.06157 971.56056 467.8795 972.74814 466.40625 972.75 L 459.65625 972.75 C 458.21465 972.75 457.12268 972.99276 456.28125 973.375 C 455.43857 973.75762 454.82848 974.26478 454.375 974.875 C 453.47238 976.08677 453.30877 977.56775 453.3125 979.09375 C 453.3125 979.09375 453.3245 980.36766 453.625 982.78125 C 453.87482 984.64879 455.92013 997.68852 457.84375 1001.6562 C 458.58963 1003.2001 459.06594 1003.8509 460.53125 1004.5312 C 463.79608 1005.929 471.25482 1007.4611 474.75 1007.9062 C 478.23885 1008.3528 480.44503 1009.2986 481.75 1006.5625 C 481.755 1006.5525 481.99018 1005.8949 482.34375 1004.9062 C 483.47671 1001.4732 483.65625 998.42311 483.65625 996.21875 C 483.65625 995.99462 483.96875 995.98432 483.96875 996.21875 C 483.96875 997.77503 483.68363 1003.2725 487.84375 1004.75 C 489.48604 1005.3324 492.88208 1005.8443 496.34375 1006.25 C 499.4738 1006.6097 501.75 1007.8446 501.75 1015.875 C 501.75 1020.7606 500.70832 1021.4375 495.34375 1021.4375 C 490.99511 1021.4375 489.34375 1021.5486 489.34375 1018.0938 C 489.34375 1015.3016 492.10951 1015.5937 494.15625 1015.5938 C 495.07042 1015.5938 494.40625 1014.9102 494.40625 1013.1875 C 494.40625 1011.4739 495.4824 1010.4938 494.46875 1010.4688 C 487.39127 1010.274 483.21875 1010.4587 483.21875 1019.3125 C 483.21875 1027.3479 486.29891 1028.8437 496.34375 1028.8438 C 504.21947 1028.8438 506.99807 1028.5901 510.25 1018.5 C 510.89373 1016.5081 512.46442 1010.4253 513.40625 1000.2188 C 514.00183 993.76544 512.82387 974.29106 511.90625 969.375 C 511.36949 966.50172 509.66949 965.05674 508.125 964.5 C 506.45865 963.89772 503.08914 963.28164 498.84375 962.78125 C 495.42825 962.37903 491.39365 962.42504 488.96875 962.5 C 488.67773 960.50663 487.28322 958.69296 485.71875 958.0625 C 483.11355 957.01389 479.62559 956.75933 476.96875 956.84375 z M 498.84375 986.75 C 499.00913 986.7373 499.19373 986.744 499.375 986.75 C 502.58561 986.86046 503.01983 989.88207 503.03125 991.9375 C 501.67751 991.33386 500.01284 990.93916 498.1875 990.875 C 497.21451 990.841 496.27896 990.9223 495.40625 991.0625 C 495.6365 989.20291 496.36309 986.94071 498.84375 986.75 z "
         style="fill:#ff00ff;fill-opacity:1"
         id="path3317"
         d="m 477.03125,958.625 c -1.48969,0.0474 -2.77782,0.25522 -3.09375,0.34375 -1.03775,0.29005 -2.15498,0.96506 -2.59375,1.59375 -0.3266,0.46608 -0.56032,1.01795 -0.5625,2.125 0,0.76761 0.0114,2.58408 0.0312,4.21875 0.01,0.82617 0.0259,1.63563 0.0312,2.21875 0.003,0.29156 -0.001,0.51932 0,0.6875 6.9e-4,0.0841 -3.5e-4,0.14202 0,0.1875 3.5e-4,0.0455 0,-0.0747 0,0.0937 -0.002,2.4197 -2.0117,4.43444 -4.4375,4.4375 l -6.75,0 c -1.24236,0 -2.08363,0.20862 -2.65625,0.46875 -0.59874,0.27186 -0.90777,0.56108 -1.1875,0.9375 -0.54546,0.73228 -0.71927,1.747 -0.71875,3.125 0,0 0,0.0311 0,0.0312 1.5e-4,0.0199 -3.9e-4,1.15666 0.28125,3.4375 0.003,0.0206 -0.003,0.0105 0,0.0312 0.11537,0.85852 0.69716,4.60009 1.46875,8.53125 0.77433,3.94514 1.85718,8.26199 2.59375,9.78125 0.70212,1.4533 0.63732,1.4711 1.84375,2.0312 0.002,8e-4 -0.002,0.031 0,0.031 2.83071,1.1958 10.40103,2.8002 13.6875,3.2187 1.8542,0.2374 3.30047,0.5316 4.03125,0.5 0.6733,-0.029 0.74033,0 1.09375,-0.7187 8e-5,-2e-4 -0.004,-0.023 0,-0.031 0.004,-0.01 0.0246,-0.013 0.0312,-0.031 0.006,-0.014 -0.006,-0.017 0,-0.031 0.003,-0.01 0.0279,-0.022 0.0312,-0.031 a 1.7749444,1.7749444 0 0 1 0,-0.031 c 0.0263,-0.073 0.0519,-0.1644 0.0937,-0.2812 0.10003,-0.2792 0.23691,-0.6827 0.40625,-1.1562 1.0524,-3.189 1.21875,-6.01706 1.21875,-8.12505 0,-0.93691 0.96039,-1.92191 1.90625,-1.9375 0.47293,-0.008 0.98408,0.15098 1.375,0.53125 0.39092,0.38027 0.59375,0.95334 0.59375,1.40625 0,0.88652 -0.0542,2.41073 0.3125,3.84375 0.3667,1.433 0.96116,2.4979 2.375,3 1.22008,0.4327 4.68271,1.0365 8.09375,1.4375 0.009,0 0.0219,-0 0.0312,0 1.73937,0.2039 3.78169,0.8015 5.09375,2.6562 1.31912,1.8648 1.875,4.5359 1.875,8.7188 0,1.2845 -0.0727,2.352 -0.3125,3.3438 -0.23981,0.9917 -0.73016,1.9539 -1.53125,2.625 -1.60217,1.3421 -3.58682,1.375 -6.34375,1.375 -2.15921,0 -3.71643,0.143 -5.3125,-0.5313 -0.79804,-0.3372 -1.57536,-1.0354 -1.96875,-1.875 -0.39339,-0.8396 -0.5,-1.7137 -0.5,-2.7187 0,-0.9911 0.26846,-1.9661 0.84375,-2.6876 0.57529,-0.7214 1.38601,-1.1063 2.09375,-1.3124 0.85854,-0.2502 1.49538,-0.1577 2.21875,-0.1563 -0.0364,-0.3092 -0.0937,-0.3595 -0.0937,-0.75 0,-0.4459 0.11725,-0.5483 0.1875,-0.9063 -2.6008,-0 -4.66762,0.1347 -5.71875,0.75 -0.63867,0.3739 -1.08861,0.8272 -1.46875,1.7813 -0.38014,0.9541 -0.625,2.4259 -0.625,4.5 0,1.8955 0.18686,3.2998 0.53125,4.2813 0.34439,0.9814 0.76269,1.5508 1.46875,2.0312 1.41211,0.9609 4.40942,1.4375 9.34375,1.4375 3.9188,0 6.22002,-0.122 7.75,-1.0937 1.52998,-0.9718 2.88672,-3.0913 4.46875,-8 0.57838,-1.7897 2.13133,-7.8153 3.0625,-17.9063 0.54587,-5.91476 -0.65598,-26.02069 -1.46875,-30.375 -0.43227,-2.31393 -1.61128,-3.16583 -2.625,-3.53125 -1.31093,-0.47382 -4.72062,-1.13165 -8.90625,-1.625 -3.23866,-0.3814 -7.2072,-0.32377 -9.59375,-0.25 a 1.7749444,1.7749444 0 0 1 -1.8125,-1.53125 c -0.19617,-1.3437 -1.34714,-2.70519 -2.15625,-3.03125 -2.18847,-0.88087 -5.53688,-1.17301 -8.03125,-1.09375 z m 21.6875,26.34375 c 0.31342,-0.0241 0.54132,-0.006 0.71875,0 2.15833,0.0743 3.83655,1.38684 4.5625,2.84375 0.72595,1.45691 0.80612,2.97715 0.8125,4.125 a 1.7749444,1.7749444 0 0 1 -2.5,1.625 c -1.1223,-0.50044 -2.57967,-0.84974 -4.1875,-0.90625 -0.83463,-0.0292 -1.65482,0.0305 -2.4375,0.15625 a 1.7749444,1.7749444 0 0 1 -2.03125,-1.96875 c 0.13232,-1.06863 0.3772,-2.31929 1.125,-3.5 0.7478,-1.18071 2.17563,-2.23955 3.9375,-2.375 z" />
    </clipPath>
    <filter
       inkscape:collect="always"
       id="filter4095">
      <feGaussianBlur
         inkscape:collect="always"
         stdDeviation="1.4266326"
         id="feGaussianBlur4097" />
    </filter>
    <clipPath
       clipPathUnits="userSpaceOnUse"
       id="clipPath4103">
      <path
         inkscape:connector-curvature="0"
         id="path4105"
         d="m 476.96769,956.83984 c -1.5941,0.0507 -2.87991,0.23248 -3.5,0.40625 -1.3139,0.36723 -2.78433,1.12149 -3.59375,2.28125 -0.54284,0.77467 -0.87227,1.76975 -0.875,3.15625 0,0.78472 0.0113,2.6076 0.0312,4.25 0.0199,1.6475 0.0312,3.14621 0.0312,3.15625 -9.3e-4,1.46681 -1.183,2.65439 -2.65625,2.65625 l -6.75,0 c -1.4416,0 -2.53357,0.24276 -3.375,0.625 -0.84268,0.38262 -1.45277,0.88978 -1.90625,1.5 -0.90262,1.21177 -1.06623,2.69275 -1.0625,4.21875 0,0 0.012,1.27391 0.3125,3.6875 0.24982,1.86754 2.29513,14.90723 4.21875,18.87496 0.74588,1.5438 1.22219,2.1946 2.6875,2.875 3.26483,1.3978 10.72357,2.9298 14.21875,3.375 3.48885,0.4465 5.69503,1.3924 7,-1.3437 0.005,-0.01 0.24018,-0.6676 0.59375,-1.6563 1.13296,-3.4331 1.3125,-6.4831 1.3125,-8.68746 0,-0.22413 0.3125,-0.23443 0.3125,0 0,1.55628 -0.28512,7.05376 3.875,8.53126 1.64229,0.5824 5.03833,1.0943 8.5,1.5 3.13005,0.3597 5.40625,1.5946 5.40625,9.625 0,4.8856 -1.04168,5.5625 -6.40625,5.5625 -4.34864,0 -6,0.1111 -6,-3.3438 0,-2.7922 2.76576,-2.5 4.8125,-2.5 0.91417,0 0.25,-0.6835 0.25,-2.4062 0,-1.7136 1.07615,-2.6937 0.0625,-2.7188 -7.07748,-0.1947 -11.25,-0.01 -11.25,8.8438 0,8.0354 3.08016,9.5312 13.125,9.5312 7.87572,0 10.65432,-0.2536 13.90625,-10.3437 0.64373,-1.9919 2.21442,-8.0748 3.15625,-18.2813 0.59558,-6.45331 -0.58238,-25.92765 -1.5,-30.84371 -0.53676,-2.87328 -2.23676,-4.31826 -3.78125,-4.875 -1.66635,-0.60228 -5.03586,-1.21836 -9.28125,-1.71875 -3.4155,-0.40222 -7.4501,-0.35621 -9.875,-0.28125 -0.29102,-1.99337 -1.68553,-3.80704 -3.25,-4.4375 -2.6052,-1.04861 -6.09316,-1.30317 -8.75,-1.21875 z m 21.875,29.90625 c 0.16538,-0.0127 0.34998,-0.006 0.53125,0 3.21061,0.11046 3.64483,3.13207 3.65625,5.1875 -1.35374,-0.60364 -3.01841,-0.99834 -4.84375,-1.0625 -0.97299,-0.034 -1.90854,0.0473 -2.78125,0.1875 0.23025,-1.85959 0.95684,-4.12179 3.4375,-4.3125 z"
         style="fill:#ff00ff;fill-opacity:1" />
    </clipPath>
    <filter
       inkscape:collect="always"
       id="filter4111">
      <feGaussianBlur
         inkscape:collect="always"
         stdDeviation="1.322897"
         id="feGaussianBlur4113" />
    </filter>
    <linearGradient
       inkscape:collect="always"
       xlink:href="#linearGradient4171"
       id="linearGradient4119"
       gradientUnits="userSpaceOnUse"
       gradientTransform="translate(495.47456,944.77734)"
       x1="32"
       y1="26"
       x2="25"
       y2="20" />
    <clipPath
       clipPathUnits="userSpaceOnUse"
       id="clipPath4122">
      <path
         style="fill:#ff00ff;fill-opacity:1"
         d="m 538.03821,956.82313 c -0.35473,-9.3e-4 -0.6998,0.009 -1.0319,0.02 -1.5941,0.0507 -2.87766,0.22694 -3.49775,0.40071 -1.3139,0.36723 -2.78885,1.12433 -3.59827,2.28409 -0.54284,0.77467 -0.86835,1.7658 -0.87108,3.1523 0,0.78472 0.007,2.61187 0.0268,4.25427 0.0199,1.6475 0.0335,3.14226 0.0335,3.1523 -9.3e-4,1.46681 -1.18022,2.65623 -2.65347,2.65809 l -6.75428,0 c -1.4416,0 -2.52901,0.24555 -3.37044,0.62779 -0.84268,0.38262 -1.45621,0.88578 -1.90969,1.496 -0.90262,1.21177 -1.06914,2.69488 -1.06541,4.22088 0,0 0.0144,1.273 0.31493,3.68659 0.24982,1.86754 2.29781,14.90601 4.22143,18.87371 0.74588,1.5438 1.22166,2.1981 2.68697,2.8785 3.26483,1.3978 10.72366,2.9275 14.21884,3.3727 3.48885,0.4465 5.69053,1.3937 6.9955,-1.3424 0.005,-0.01 0.24279,-0.6676 0.59636,-1.6563 1.13296,-3.4331 1.31334,-6.48449 1.31334,-8.68885 0,-0.22413 0.31493,-0.23443 0.31493,0 0,1.55628 -0.28713,7.05775 3.87299,8.53525 1.64229,0.5824 5.03479,1.0903 8.49646,1.496 3.13005,0.3597 5.40744,1.5935 5.40744,9.6239 0,4.8856 -1.04127,5.5633 -6.40584,5.5633 -4.34865,0 -5.99711,0.1156 -5.99711,-3.3393 0,-2.7922 2.76434,-2.5045 4.81109,-2.5045 0.91416,0 0.24792,-0.6816 0.24792,-2.4043 0,-1.7136 1.08066,-2.6931 0.067,-2.7182 -7.07748,-0.1947 -11.25044,-0.011 -11.25044,8.8425 0,8.0354 3.07509,9.5303 13.11993,9.5303 7.87572,0 10.65867,-0.255 13.9106,-10.3451 0.64373,-1.9919 2.21419,-8.0729 3.15602,-18.2794 0.59558,-6.45328 -0.58333,-25.92571 -1.50095,-30.84177 -0.53676,-2.87328 -2.23469,-4.31864 -3.77918,-4.87538 -1.66635,-0.60228 -5.03505,-1.21601 -9.28044,-1.7164 -3.4155,-0.40222 -7.4519,-0.36214 -9.8768,-0.28718 -0.29102,-1.99337 -1.68536,-3.80414 -3.24983,-4.4346 -2.27955,-0.91753 -5.23607,-1.22903 -7.71918,-1.23554 z m -10.29223,1.95015 c -0.0259,0.004 -0.0547,0.0209 -0.0804,0.0467 l -13.12663,13.01661 c -0.0257,0.0211 -0.0463,0.0519 -0.0536,0.0801 0.27154,-0.1344 0.64437,-0.31753 0.69687,-0.34061 1.14338,-0.51591 2.52827,-0.80143 4.18792,-0.80143 l 0.007,0 6.75428,0 c 0.38722,0 0.70283,-0.31702 0.70357,-0.70126 0,-0.003 -0.0804,-5.78938 -0.0804,-7.39989 l 0,-0.02 c 0,-1.32271 0.27366,-2.47975 0.75718,-3.44616 l 0.23453,-0.43411 z m 31.39266,27.96333 c 0.0895,8.3e-4 0.1841,0.004 0.27473,0.007 3.21061,0.11047 3.64045,3.13385 3.65187,5.18928 -1.35374,-0.60364 -3.01255,-0.99774 -4.83789,-1.0619 -0.97299,-0.034 -1.90807,0.0468 -2.78078,0.187 0.23025,-1.85959 0.95679,-4.12366 3.43745,-4.31438 0.0827,-0.006 0.16514,-0.008 0.25462,-0.007 z"
         id="path4124"
         inkscape:connector-curvature="0" />
    </clipPath>
    <filter
       inkscape:collect="always"
       id="filter4134">
      <feGaussianBlur
         inkscape:collect="always"
         stdDeviation="0.65164716"
         id="feGaussianBlur4136" />
    </filter>
    <filter
       inkscape:collect="always"
       id="filter4138">
      <feGaussianBlur
         inkscape:collect="always"
         stdDeviation="0.66144852"
         id="feGaussianBlur4140" />
    </filter>
    <clipPath
       clipPathUnits="userSpaceOnUse"
       id="clipPath4146">
      <path
         inkscape:connector-curvature="0"
         id="path4148"
         d="m 459.33396,970.77447 c 0,0 0,0 0.005,0 h 6.75715 c 0.38722,0 0.6986,-0.31536 0.69934,-0.69959 0,-0.003 -0.082,-5.79385 -0.082,-7.40436 v -0.0191 c 0,-1.32271 0.27762,-2.4759 0.76114,-3.44231 l 0.23108,-0.43399 c -0.0259,0.004 -0.0517,0.017 -0.0774,0.0428 l -13.12975,13.01963 c -0.0257,0.0211 -0.0418,0.0485 -0.0491,0.0767 0.27154,-0.1344 0.64286,-0.31808 0.69536,-0.34116 1.14338,-0.51591 2.52977,-0.79862 4.18942,-0.79862 z"
         style="fill:#ff00ff;fill-opacity:1" />
    </clipPath>
    <filter
       inkscape:collect="always"
       id="filter4162">
      <feGaussianBlur
         inkscape:collect="always"
         stdDeviation="0.52790445"
         id="feGaussianBlur4164" />
    </filter>
    <linearGradient
       inkscape:collect="always"
       xlink:href="#linearGradient4171"
       id="linearGradient4168"
       gradientUnits="userSpaceOnUse"
       gradientTransform="translate(435.43644,944.77734)"
       x1="32"
       y1="26"
       x2="25"
       y2="20" />
    <clipPath
       clipPathUnits="userSpaceOnUse"
       id="clipPath4203">
      <path
         d="m 465.5,962.65625 -7.03125,6.96875 c 0.29563,-0.0172 0.56587,-0.0625 0.875,-0.0625 l 6.21875,0 c -0.007,-0.68573 -0.0625,-5.37476 -0.0625,-6.90625 z"
         id="path4205"
         style="fill:#ff00ff;fill-opacity:1"
         inkscape:original="M 467.71875 958.78125 C 467.69285 958.78525 467.6507 958.7867 467.625 958.8125 L 454.5 971.84375 C 454.4743 971.86485 454.4448 971.87805 454.4375 971.90625 C 454.70904 971.77185 455.10375 971.58558 455.15625 971.5625 C 456.29963 971.04659 457.6841 970.78125 459.34375 970.78125 L 466.09375 970.78125 C 466.48097 970.78125 466.78051 970.44673 466.78125 970.0625 C 466.78125 970.0595 466.71875 964.26676 466.71875 962.65625 C 466.71875 961.33354 466.98523 960.18516 467.46875 959.21875 L 467.71875 958.78125 z "
         inkscape:radius="-1.2309357"
         sodipodi:type="inkscape:offset"
         transform="matrix(4.6637082,0,0,4.6791204,-1999.1282,-4393.7469)" />
    </clipPath>
    <filter
       inkscape:collect="always"
       id="filter4215"
       x="-0.17872521"
       width="1.3574504"
       y="-0.1812931"
       height="1.3625862">
      <feGaussianBlur
         inkscape:collect="always"
         stdDeviation="2.4644531"
         id="feGaussianBlur4217" />
    </filter>
  </defs>
  <sodipodi:namedview
     id="base"
     pagecolor="#ffffff"
     bordercolor="#666666"
     borderopacity="1.0"
     inkscape:pageopacity="0.0"
     inkscape:pageshadow="2"
     inkscape:zoom="1.0681152"
     inkscape:cx="379.73431"
     inkscape:cy="282.55378"
     inkscape:document-units="px"
     inkscape:current-layer="g6668"
     showgrid="false"
     inkscape:window-width="1920"
     inkscape:window-height="1029"
     inkscape:window-x="0"
     inkscape:window-y="24"
     inkscape:window-maximized="1">
    <inkscape:grid
       type="xygrid"
       id="grid3284" />
  </sodipodi:namedview>
  <metadata
     id="metadata3341">
    <rdf:RDF>
      <cc:Work
         rdf:about="">
        <dc:format>image/svg+xml</dc:format>
        <dc:type
           rdf:resource="http://purl.org/dc/dcmitype/StillImage" />
        <dc:title></dc:title>
      </cc:Work>
    </rdf:RDF>
  </metadata>
  <g
     inkscape:groupmode="layer"
     id="layer2"
     inkscape:label="Icons">
    <path
       transform="matrix(0,5.350648,5.3333312,0,-5101.1068,896.92113)"
       clip-path="url(#clipPath4058-7-9)"
       sodipodi:nodetypes="sssssssss"
       inkscape:connector-curvature="0"
       id="path4332"
       d="m -138,956.36216 32,0 c 32,0 32,0 32,32 l 0,32.00004 c 0,32 0,32 -32,32 l -32,0 c -32,0 -32,0 -32,-32 l 0,-32.00004 c 0,-32 0,-32 32,-32 z"
       style="opacity:0.1;fill:none;stroke:url(#linearGradient3248);stroke-width:0.37439287;stroke-miterlimit:4;stroke-dasharray:none;display:inline;filter:url(#filter4080-7-0)" />
    <path
       style="fill:url(#linearGradient3273);fill-opacity:1;stroke:none;display:inline"
       d="m 0.01851707,0 0,142.86658 c -0.0416634,9.5238 0,19.69138 0,30.52712 l 0,129.21267 c 0,10.83575 -0.0416634,21.00332 0,30.52687 l 0,142.86676 140.65650293,0 230.64999,0 140.65651,0 0,-142.86676 c 0.0416,-9.52355 0,-19.69112 0,-30.52687 l 0,-129.21267 c 0,-10.83574 0.0416,-21.00332 0,-30.52712 L 511.98152,0 371.32501,0 140.67502,0 0.01851707,0 z"
       id="path6419"
       inkscape:connector-curvature="0" />
    <path
       inkscape:connector-curvature="0"
       style="fill:url(#radialGradient3270);fill-opacity:1;stroke:none;display:inline"
       d="m 0.0185171,0 0,142.8666 c -0.041663,9.5237 0,19.6912 0,30.52706 l 0,129.21268 c 0,10.83592 -0.041663,21.00329 0,30.52705 l 0,142.86661 140.6565029,0 230.64999,0 140.65651,0 0,-142.86661 c 0.0416,-9.52376 0,-19.69113 0,-30.52705 l 0,-129.21268 c 0,-10.83586 0.0416,-21.00336 0,-30.52706 L 511.98152,0 371.32501,0 140.67502,0 0.0185171,0 z"
       id="path4149" />
    <g
       transform="matrix(4.6637081,0,0,4.6791204,-1999.1282,-4393.7469)"
       id="g6668">
      <path
         style="opacity:0.8;fill:#000000;fill-opacity:1;filter:url(#filter4138)"
         d="m 476.96769,956.27734 c -1.5941,0.0507 -2.87991,0.23248 -3.5,0.40625 -1.3139,0.36723 -2.78433,1.12149 -3.59375,2.28125 -0.54284,0.77467 -0.87227,1.76975 -0.875,3.15625 0,0.78472 0.0113,2.6076 0.0312,4.25 0.0199,1.6475 0.0312,3.14621 0.0312,3.15625 -9.3e-4,1.46681 -1.183,2.65439 -2.65625,2.65625 l -6.75,0 c -1.4416,0 -2.53357,0.24276 -3.375,0.625 -0.84268,0.38262 -1.45277,0.88978 -1.90625,1.5 -0.90262,1.21177 -1.06623,2.69275 -1.0625,4.21875 0,0 0.012,1.27391 0.3125,3.6875 0.24982,1.86754 2.29513,14.90723 4.21875,18.87496 0.74588,1.5438 1.22219,2.1946 2.6875,2.875 3.26483,1.3978 10.72357,2.9298 14.21875,3.375 3.48885,0.4465 5.69503,1.3924 7,-1.3437 0.005,-0.01 0.24018,-0.6676 0.59375,-1.6563 1.13296,-3.4331 1.3125,-6.4831 1.3125,-8.68746 0,-0.22413 0.3125,-0.23443 0.3125,0 0,1.55628 -0.28512,7.05376 3.875,8.53126 1.64229,0.5824 5.03833,1.0943 8.5,1.5 3.13005,0.3597 5.40625,1.5946 5.40625,9.625 0,4.8856 -1.04168,5.5625 -6.40625,5.5625 -4.34864,0 -6,0.1111 -6,-3.3438 0,-2.7922 2.76576,-2.5 4.8125,-2.5 0.91417,0 0.25,-0.6835 0.25,-2.4062 0,-1.7136 1.07615,-2.6937 0.0625,-2.7188 -7.07748,-0.1947 -11.25,-0.01 -11.25,8.8438 0,8.0354 3.08016,9.5312 13.125,9.5312 7.87572,0 10.65432,-0.2536 13.90625,-10.3437 0.64373,-1.9919 2.21442,-8.0748 3.15625,-18.28126 0.59558,-6.45335 -0.58238,-25.92769 -1.5,-30.84375 -0.53676,-2.87328 -2.23676,-4.31826 -3.78125,-4.875 -1.66635,-0.60228 -5.03586,-1.21836 -9.28125,-1.71875 -3.4155,-0.40222 -7.4501,-0.35621 -9.875,-0.28125 -0.29102,-1.99337 -1.68553,-3.80704 -3.25,-4.4375 -2.6052,-1.04861 -6.09316,-1.30317 -8.75,-1.21875 z m -9.25,1.9375 c -0.0259,0.004 -0.068,0.005 -0.0937,0.0312 l -13.12505,13.03125 c -0.0257,0.0211 -0.0551,0.0343 -0.0625,0.0625 0.27154,-0.1344 0.66625,-0.32066 0.71875,-0.34375 1.14338,-0.5159 2.52785,-0.78125 4.1875,-0.78125 l 6.75,0 c 0.38721,0 0.68675,-0.30326 0.6875,-0.6875 0,-0.002 -0.0625,-5.79574 -0.0625,-7.40625 l 0,-0.0312 c 0,-1.32271 0.26648,-2.47109 0.75,-3.4375 l 0.25,-0.4375 z m 31.125,27.96875 c 0.16538,-0.0127 0.34998,-0.006 0.53125,0 3.21061,0.11046 3.64483,3.13207 3.65625,5.1875 -1.35374,-0.60364 -3.01841,-0.99834 -4.84375,-1.0625 -0.97299,-0.034 -1.90854,0.0473 -2.78125,0.1875 0.23025,-1.85959 0.95684,-4.12179 3.4375,-4.3125 z"
         id="path4318-8"
         inkscape:connector-curvature="0" />
      <path
         style="opacity:0.8;fill:#37820f;fill-opacity:1;filter:url(#filter4314)"
         d="m 476.96769,955.83984 c -1.5941,0.0507 -2.87991,0.23248 -3.5,0.40625 -1.3139,0.36723 -2.78433,1.12149 -3.59375,2.28125 -0.54284,0.77467 -0.87227,1.76975 -0.875,3.15625 0,0.78472 0.0113,2.6076 0.0312,4.25 0.0199,1.6475 0.0312,3.14621 0.0312,3.15625 -9.3e-4,1.46681 -1.183,2.65439 -2.65625,2.65625 l -6.75,0 c -1.4416,0 -2.53357,0.24276 -3.375,0.625 -0.84268,0.38262 -1.45277,0.88978 -1.90625,1.5 -0.90262,1.21177 -1.06623,2.69275 -1.0625,4.21875 0,0 0.012,1.27391 0.3125,3.6875 0.24982,1.86754 2.29513,14.90723 4.21875,18.87496 0.74588,1.5438 1.22219,2.1946 2.6875,2.875 3.26483,1.3978 10.72357,2.9298 14.21875,3.375 3.48885,0.4465 5.69503,1.3924 7,-1.3437 0.005,-0.01 0.24018,-0.6676 0.59375,-1.6563 1.13296,-3.4331 1.3125,-6.4831 1.3125,-8.68746 0,-0.22413 0.3125,-0.23443 0.3125,0 0,1.55628 -0.28512,7.05376 3.875,8.53126 1.64229,0.5824 5.03833,1.0943 8.5,1.5 3.13005,0.3597 5.40625,1.5946 5.40625,9.625 0,4.8856 -1.04168,5.5625 -6.40625,5.5625 -4.34864,0 -6,0.1111 -6,-3.3438 0,-2.7922 2.76576,-2.5 4.8125,-2.5 0.91417,0 0.25,-0.6835 0.25,-2.4062 0,-1.7136 1.07615,-2.6937 0.0625,-2.7188 -7.07748,-0.1947 -11.25,-0.01 -11.25,8.8438 0,8.0354 3.08016,9.5312 13.125,9.5312 7.87572,0 10.65432,-0.2536 13.90625,-10.3437 0.64373,-1.9919 2.21442,-8.0748 3.15625,-18.28126 0.59558,-6.45335 -0.58238,-25.92769 -1.5,-30.84375 -0.53676,-2.87328 -2.23676,-4.31826 -3.78125,-4.875 -1.66625,-0.60228 -5.03576,-1.21836 -9.28115,-1.71875 -3.4155,-0.40222 -7.4501,-0.35621 -9.875,-0.28125 -0.29102,-1.99337 -1.68553,-3.80704 -3.25,-4.4375 -2.6052,-1.04861 -6.09316,-1.30317 -8.75,-1.21875 z m -9.25,1.9375 c -0.0259,0.004 -0.068,0.005 -0.0937,0.0312 l -13.125,13.03125 c -0.0257,0.0211 -0.0551,0.0343 -0.0625,0.0625 0.27154,-0.1344 0.66625,-0.32066 0.71875,-0.34375 1.14333,-0.5159 2.5278,-0.78125 4.18745,-0.78125 l 6.75,0 c 0.38721,0 0.68675,-0.30326 0.6875,-0.6875 0,-0.002 -0.0625,-5.79574 -0.0625,-7.40625 l 0,-0.0312 c 0,-1.32271 0.26648,-2.47109 0.75,-3.4375 l 0.25,-0.4375 z m 31.125,27.96875 c 0.16538,-0.0127 0.34998,-0.006 0.53125,0 3.21061,0.11046 3.64483,3.13207 3.65625,5.1875 -1.35374,-0.60364 -3.01841,-0.99834 -4.84375,-1.0625 -0.97299,-0.034 -1.90854,0.0473 -2.78125,0.1875 0.23025,-1.85959 0.95684,-4.12179 3.4375,-4.3125 z"
         id="path4301"
         inkscape:connector-curvature="0" />
      <path
         style="fill:url(#linearGradient3254);fill-opacity:1;filter:url(#filter4271)"
         d="m 476.96769,957.83984 c -1.5941,0.0507 -2.87991,0.23248 -3.5,0.40625 -1.3139,0.36723 -2.78433,1.12149 -3.59375,2.28125 -0.54284,0.77467 -0.87227,1.76975 -0.875,3.15625 0,0.78472 0.0113,2.6076 0.0312,4.25 0.0199,1.6475 0.0312,3.14621 0.0312,3.15625 -9.3e-4,1.46681 -1.183,2.65439 -2.65625,2.65625 l -6.75,0 c -1.4416,0 -2.53357,0.24276 -3.375,0.625 -0.84268,0.38262 -1.45277,0.88978 -1.90625,1.5 -0.90262,1.21177 -1.06623,2.69275 -1.0625,4.21875 0,0 0.012,1.27391 0.3125,3.6875 0.24982,1.86754 2.29513,14.90723 4.21875,18.87496 0.74588,1.5438 1.22219,2.1946 2.6875,2.875 3.26483,1.3978 10.72357,2.9298 14.21875,3.375 3.48885,0.4465 5.69503,1.3924 7,-1.3437 0.005,-0.01 0.24018,-0.6676 0.59375,-1.6563 1.13296,-3.4331 1.3125,-6.4831 1.3125,-8.68746 0,-0.22413 0.3125,-0.23443 0.3125,0 0,1.55628 -0.28512,7.05376 3.875,8.53126 1.64229,0.5824 5.03833,1.0943 8.5,1.5 3.13005,0.3597 5.40625,1.5946 5.40625,9.625 0,4.8856 -1.04168,5.5625 -6.40625,5.5625 -4.34864,0 -6,0.1111 -6,-3.3438 0,-2.7922 2.76576,-2.5 4.8125,-2.5 0.91417,0 0.25,-0.6835 0.25,-2.4062 0,-1.7136 1.07615,-2.6937 0.0625,-2.7188 -7.07748,-0.1947 -11.25,-0.01 -11.25,8.8438 0,8.0354 3.08016,9.5312 13.125,9.5312 7.87572,0 10.65432,-0.2536 13.90625,-10.3437 0.64373,-1.9919 2.21442,-8.0748 3.15625,-18.2813 0.59558,-6.45331 -0.58238,-25.92765 -1.5,-30.84371 -0.53676,-2.87328 -2.23676,-4.31826 -3.78125,-4.875 -1.66635,-0.60228 -5.03586,-1.21836 -9.28125,-1.71875 -3.4155,-0.40222 -7.4501,-0.35621 -9.875,-0.28125 -0.29102,-1.99337 -1.68553,-3.80704 -3.25,-4.4375 -2.6052,-1.04861 -6.09316,-1.30317 -8.75,-1.21875 z m -9.25,1.9375 c -0.0259,0.004 -0.068,0.005 -0.0937,0.0312 l -13.125,13.03125 c -0.0257,0.0211 -0.0551,0.0343 -0.0625,0.0625 0.27154,-0.1344 0.66625,-0.32066 0.71875,-0.34375 1.14333,-0.5159 2.5278,-0.78125 4.18745,-0.78125 l 6.75,0 c 0.38721,0 0.68675,-0.30326 0.6875,-0.6875 0,-0.002 -0.0625,-5.79574 -0.0625,-7.40625 l 0,-0.0312 c 0,-1.32271 0.26648,-2.47109 0.75,-3.4375 l 0.25,-0.4375 z m 31.125,27.96875 c 0.16538,-0.0127 0.34998,-0.006 0.53125,0 3.21061,0.11046 3.64483,3.13207 3.65625,5.1875 -1.35374,-0.60364 -3.01841,-0.99834 -4.84375,-1.0625 -0.97299,-0.034 -1.90854,0.0473 -2.78125,0.1875 0.23025,-1.85959 0.95684,-4.12179 3.4375,-4.3125 z"
         id="path4254"
         inkscape:connector-curvature="0" />
      <path
         style="fill:url(#linearGradient3256);fill-opacity:1"
         d="m 459.33396,970.77447 c 0,0 0,0 0.005,0 h 6.75715 c 0.38722,0 0.6986,-0.31536 0.69934,-0.69959 0,-0.003 -0.082,-5.79385 -0.082,-7.40436 v -0.0191 c 0,-1.32271 0.27762,-2.4759 0.76114,-3.44231 l 0.23108,-0.43399 c -0.0259,0.004 -0.0517,0.017 -0.0774,0.0428 l -13.12975,13.01963 c -0.0257,0.0211 -0.0418,0.0485 -0.0491,0.0767 0.27154,-0.1344 0.64286,-0.31808 0.69536,-0.34116 1.14338,-0.51591 2.52977,-0.79862 4.18942,-0.79862 z"
         id="path4185"
         inkscape:connector-curvature="0" />
      <path
         style="fill:url(#radialGradient3258);fill-opacity:1"
         d="m 476.96769,956.83984 c -1.5941,0.0507 -2.87991,0.23248 -3.5,0.40625 -1.3139,0.36723 -2.78433,1.12149 -3.59375,2.28125 -0.54284,0.77467 -0.87227,1.76975 -0.875,3.15625 0,0.78472 0.0113,2.6076 0.0312,4.25 0.0199,1.6475 0.0312,3.14621 0.0312,3.15625 -9.3e-4,1.46681 -1.183,2.65439 -2.65625,2.65625 l -6.75,0 c -1.4416,0 -2.53357,0.24276 -3.375,0.625 -0.84268,0.38262 -1.45277,0.88978 -1.90625,1.5 -0.90262,1.21177 -1.06623,2.69275 -1.0625,4.21875 0,0 0.012,1.27391 0.3125,3.6875 0.24982,1.86754 2.29513,14.90723 4.21875,18.87496 0.74588,1.5438 1.22219,2.1946 2.6875,2.875 3.26483,1.3978 10.72357,2.9298 14.21875,3.375 3.48885,0.4465 5.69503,1.3924 7,-1.3437 0.005,-0.01 0.24018,-0.6676 0.59375,-1.6563 1.13296,-3.4331 1.3125,-6.4831 1.3125,-8.68746 0,-0.22413 0.3125,-0.23443 0.3125,0 0,1.55628 -0.28512,7.05376 3.875,8.53126 1.64229,0.5824 5.03833,1.0943 8.5,1.5 3.13005,0.3597 5.40625,1.5946 5.40625,9.625 0,4.8856 -1.04168,5.5625 -6.40625,5.5625 -4.34864,0 -6,0.1111 -6,-3.3438 0,-2.7922 2.76576,-2.5 4.8125,-2.5 0.91417,0 0.25,-0.6835 0.25,-2.4062 0,-1.7136 1.07615,-2.6937 0.0625,-2.7188 -7.07748,-0.1947 -11.25,-0.01 -11.25,8.8438 0,8.0354 3.08016,9.5312 13.125,9.5312 7.87572,0 10.65432,-0.2536 13.90625,-10.3437 0.64373,-1.9919 2.21442,-8.0748 3.15625,-18.2813 0.59558,-6.45331 -0.58238,-25.92765 -1.5,-30.84371 -0.53676,-2.87328 -2.23676,-4.31826 -3.78125,-4.875 -1.66635,-0.60228 -5.03586,-1.21836 -9.28125,-1.71875 -3.4155,-0.40222 -7.4501,-0.35621 -9.875,-0.28125 -0.29102,-1.99337 -1.68553,-3.80704 -3.25,-4.4375 -2.6052,-1.04861 -6.09316,-1.30317 -8.75,-1.21875 z m 21.875,29.90625 c 0.16538,-0.0127 0.34998,-0.006 0.53125,0 3.21061,0.11046 3.64483,3.13207 3.65625,5.1875 -1.35374,-0.60364 -3.01841,-0.99834 -4.84375,-1.0625 -0.97299,-0.034 -1.90854,0.0473 -2.78125,0.1875 0.23025,-1.85959 0.95684,-4.12179 3.4375,-4.3125 z"
         id="path4183"
         inkscape:connector-curvature="0" />
      <path
         inkscape:connector-curvature="0"
         id="path4099"
         d="m 476.96769,956.83984 c -1.5941,0.0507 -2.87991,0.23248 -3.5,0.40625 -1.3139,0.36723 -2.78433,1.12149 -3.59375,2.28125 -0.54284,0.77467 -0.87227,1.76975 -0.875,3.15625 0,0.78472 0.0113,2.6076 0.0312,4.25 0.0199,1.6475 0.0312,3.14621 0.0312,3.15625 -9.3e-4,1.46681 -1.183,2.65439 -2.65625,2.65625 l -6.75,0 c -1.4416,0 -2.53357,0.24276 -3.375,0.625 -0.84268,0.38262 -1.45277,0.88978 -1.90625,1.5 -0.90262,1.21177 -1.06623,2.69275 -1.0625,4.21875 0,0 0.012,1.27391 0.3125,3.6875 0.24982,1.86754 2.29513,14.90723 4.21875,18.87496 0.74588,1.5438 1.22219,2.1946 2.6875,2.875 3.26483,1.3978 10.72357,2.9298 14.21875,3.375 3.48885,0.4465 5.69503,1.3924 7,-1.3437 0.005,-0.01 0.24018,-0.6676 0.59375,-1.6563 1.13296,-3.4331 1.3125,-6.4831 1.3125,-8.68746 0,-0.22413 0.3125,-0.23443 0.3125,0 0,1.55628 -0.28512,7.05376 3.875,8.53126 1.64229,0.5824 5.03833,1.0943 8.5,1.5 3.13005,0.3597 5.40625,1.5946 5.40625,9.625 0,4.8856 -1.04168,5.5625 -6.40625,5.5625 -4.34864,0 -6,0.1111 -6,-3.3438 0,-2.7922 2.76576,-2.5 4.8125,-2.5 0.91417,0 0.25,-0.6835 0.25,-2.4062 0,-1.7136 1.07615,-2.6937 0.0625,-2.7188 -7.07748,-0.1947 -11.25,-0.01 -11.25,8.8438 0,8.0354 3.08016,9.5312 13.125,9.5312 7.87572,0 10.65432,-0.2536 13.90625,-10.3437 0.64373,-1.9919 2.21442,-8.0748 3.15625,-18.2813 0.59558,-6.45331 -0.58238,-25.92765 -1.5,-30.84371 -0.53676,-2.87328 -2.23676,-4.31826 -3.78125,-4.875 -1.66635,-0.60228 -5.03586,-1.21836 -9.28125,-1.71875 -3.4155,-0.40222 -7.4501,-0.35621 -9.875,-0.28125 -0.29102,-1.99337 -1.68553,-3.80704 -3.25,-4.4375 -2.6052,-1.04861 -6.09316,-1.30317 -8.75,-1.21875 z m 21.875,29.90625 c 0.16538,-0.0127 0.34998,-0.006 0.53125,0 3.21061,0.11046 3.64483,3.13207 3.65625,5.1875 -1.35374,-0.60364 -3.01841,-0.99834 -4.84375,-1.0625 -0.97299,-0.034 -1.90854,0.0473 -2.78125,0.1875 0.23025,-1.85959 0.95684,-4.12179 3.4375,-4.3125 z"
         style="fill:none;stroke:#000000;stroke-width:1.71254575;stroke-miterlimit:4;stroke-dasharray:none;filter:url(#filter4111)"
         clip-path="url(#clipPath4103)" />
      <path
         style="fill:#000000;fill-opacity:1;filter:url(#filter4134)"
         d="m 527.75579,958.77734 c -0.0259,0.004 -0.068,0.005 -0.0937,0.0312 l -0.375,0.375 c -0.3336,0.84834 -0.53125,1.81736 -0.53125,2.90625 l 0,0.0312 c 0,0.10193 -4.7e-4,0.33585 0,0.46875 0.008,-1.29595 0.27425,-2.42411 0.75,-3.375 l 0.24995,-0.4375 z m -0.9375,10.78125 c -0.016,0.36974 -0.31054,0.65625 -0.6875,0.65625 l -6.75,0 c -1.5156,0 -2.79241,0.22495 -3.875,0.65625 l -0.96875,0.96875 c -0.0257,0.0211 -0.0551,0.0343 -0.0625,0.0625 0.27154,-0.1344 0.66625,-0.32066 0.71875,-0.34375 1.14338,-0.5159 2.52785,-0.78125 4.1875,-0.78125 l 6.75,0 c 0.38721,0 0.68675,-0.30326 0.6875,-0.6875 0,-1.8e-4 6e-4,-0.47517 0,-0.53125 z m -13.46875,9.21875 c -0.001,0.10539 -2.6e-4,0.20661 0,0.3125 0,0 0.012,1.27391 0.3125,3.6875 0.24982,1.86754 2.29513,14.90726 4.21875,18.87496 0.74588,1.5438 1.22219,2.1946 2.6875,2.875 3.26483,1.3978 10.72357,2.9298 14.21875,3.375 3.48885,0.4465 5.69503,1.3924 7,-1.3437 0.005,-0.01 0.24018,-0.6676 0.59375,-1.6563 0.93759,-2.8411 1.21096,-5.38325 1.28125,-7.4375 -0.1036,1.94875 -0.43153,4.3002 -1.28125,6.875 -0.35357,0.9887 -0.58915,1.6495 -0.59375,1.6563 -1.30497,2.7361 -3.51115,1.7902 -7,1.3437 -3.49518,-0.4452 -10.95392,-1.9772 -14.21875,-3.375 -1.46531,-0.6804 -1.94162,-1.3312 -2.6875,-2.875 -1.92362,-3.9677 -3.96893,-17.00742 -4.21875,-18.87496 -0.26044,-2.09214 -0.30547,-3.14542 -0.3125,-3.4375 z m 45.53125,7.40625 c -2.48066,0.19071 -3.20725,2.45291 -3.4375,4.3125 0.03,-0.005 0.0636,0.005 0.0937,0 0.3061,-1.72757 1.10547,-3.57792 3.34375,-3.75 0.16538,-0.0127 0.34998,-0.006 0.53125,0 2.93259,0.10089 3.53157,2.62128 3.625,4.625 0.009,0.004 0.0226,-0.004 0.0312,0 -0.0114,-2.05543 -0.44564,-5.07704 -3.65625,-5.1875 -0.18127,-0.006 -0.36587,-0.0127 -0.53125,0 z m -15.03125,9.28126 c -0.0781,0.001 -0.15625,0.075 -0.15625,0.1875 0,0.17095 0.002,0.38155 0,0.56245 0,-0.2241 0.3125,-0.2344 0.3125,0 10e-4,-0.168 0,-0.4396 0,-0.56245 0,-0.1172 -0.0781,-0.1888 -0.15625,-0.1875 z m 29.75,1.21875 c -0.023,1.1597 -0.0818,2.16205 -0.15625,2.96875 -0.94183,10.20645 -2.51252,16.28935 -3.15625,18.28125 -3.25193,10.0901 -6.03053,10.3437 -13.90625,10.3437 -9.41703,0 -12.71857,-1.3084 -13.09375,-8.0937 0.23092,7.2579 3.43117,8.6562 13.09375,8.6562 7.87572,0 10.65432,-0.2536 13.90625,-10.3437 0.64373,-1.9919 2.21442,-8.0748 3.15625,-18.2813 0.0853,-0.92375 0.13771,-2.15475 0.15625,-3.5312 z m -29.5625,0.75 c 0.0339,2.21465 0.39533,6.0878 3.84375,7.3125 1.64229,0.5824 5.03833,1.0943 8.5,1.5 2.93443,0.3372 5.11347,1.4337 5.375,8.1875 -0.16467,-7.2355 -2.36406,-8.404 -5.375,-8.75 -3.46167,-0.4057 -6.85771,-0.9176 -8.5,-1.5 -3.12009,-1.1081 -3.72894,-4.47805 -3.84375,-6.75 z m 10.8125,13.1875 c -0.14233,0.4623 -0.40625,1.1432 -0.40625,2 0,0.1017 -0.004,0.1867 0,0.2812 0.0856,-1.1998 0.62413,-1.9832 0.40625,-2.2812 z m -0.21875,4.2812 c -0.0663,0.091 -0.20896,0.125 -0.4375,0.125 -2.04674,0 -4.8125,-0.2922 -4.8125,2.5 0,0.096 0.0287,0.1592 0.0312,0.25 0.20297,-2.4558 2.81465,-2.1875 4.78125,-2.1875 0.49569,0 0.51241,-0.2288 0.4375,-0.6875 z"
         id="path4204-7"
         inkscape:connector-curvature="0"
         clip-path="url(#clipPath4122)"
         transform="translate(-60.03807,1.2071268e-8)" />
      <path
         style="fill:#ffffff;fill-opacity:1;filter:url(#filter4095);opacity:0.1"
         d="M 230.125 91.71875 C 228.56475 91.708815 227.04788 91.734892 225.59375 91.78125 C 218.64627 92.002947 212.66091 92.960757 211.1875 93.375 C 206.34774 94.732179 201.14005 97.902034 199.09375 100.84375 C 197.57058 103.02459 196.47892 105.60123 196.46875 110.78125 C 196.46875 111.48748 196.46473 113.02056 196.46875 114.0625 C 196.57862 109.37875 197.64606 106.91652 199.09375 104.84375 C 201.14005 101.90203 206.34774 98.732179 211.1875 97.375 C 212.66091 96.960757 218.64627 96.002947 225.59375 95.78125 C 237.22676 95.410383 252.85611 96.784553 263.0625 100.90625 C 266.83595 102.43192 272.21012 108.77517 273.125 115.0625 A 8.2778226 8.3051786 0 0 0 281.5625 122.25 C 292.69267 121.90482 311.20834 121.62163 326.3125 123.40625 C 345.83306 125.71469 361.72996 128.78294 367.84375 131 C 372.57144 132.70984 378.07777 136.70409 380.09375 147.53125 C 383.13722 163.89013 387.33772 227.7266 387.5625 266.59375 C 387.63116 228.2833 383.24577 160.47359 380.09375 143.53125 C 378.07777 132.70409 372.57144 128.70984 367.84375 127 C 361.72996 124.78294 345.83306 121.71469 326.3125 119.40625 C 311.20834 117.62163 292.69267 117.90482 281.5625 118.25 A 8.2778226 8.3051786 0 0 1 273.125 111.0625 C 272.21012 104.77517 266.83595 98.431924 263.0625 96.90625 C 254.13191 93.299765 241.04675 91.788294 230.125 91.71875 z M 196.75 145.4375 C 196.74286 156.75957 187.37572 166.17318 176.0625 166.1875 L 144.5625 166.1875 C 138.7685 166.1875 134.85803 167.18907 132.1875 168.40625 C 129.39515 169.67832 127.96083 171.01994 126.65625 172.78125 C 124.11238 176.20768 123.27882 180.95842 123.28125 187.40625 L 123.28125 187.5625 C 123.28145 187.58938 123.31234 188.16148 123.34375 189.0625 C 123.53206 183.78732 124.43037 179.77937 126.65625 176.78125 C 127.96083 175.01994 129.39515 173.67832 132.1875 172.40625 C 134.85803 171.18907 138.7685 170.1875 144.5625 170.1875 L 176.0625 170.1875 C 187.37572 170.17318 196.74286 160.75957 196.75 149.4375 C 196.75 148.6493 196.75163 149.21281 196.75 149 C 196.74837 148.78719 196.75322 148.51847 196.75 148.125 C 196.74463 147.46795 196.75305 146.49475 196.75 145.4375 z M 303.28125 245.40625 C 303.22936 245.78344 303.17047 246.16284 303.125 246.53125 A 8.2778226 8.3051786 0 0 0 312.625 255.75 C 316.27519 255.16165 320.07628 254.86351 323.96875 255 C 331.4672 255.26442 338.26592 256.90838 343.5 259.25 A 8.2778226 8.3051786 0 0 0 355.15625 251.65625 C 355.15114 250.73317 355.13274 249.73442 355.09375 248.71875 A 8.2778226 8.3051786 0 0 1 343.5 255.25 C 338.26592 252.90838 331.4672 251.26442 323.96875 251 C 320.07628 250.86351 316.27519 251.16165 312.625 251.75 A 8.2778226 8.3051786 0 0 1 303.28125 245.40625 z M 266.25 271.3125 C 266.25105 271.78141 266.27428 272.28271 266.28125 272.78125 C 266.28318 272.43589 266.28125 272.00037 266.28125 271.6875 C 266.28125 271.56518 266.25629 271.43829 266.25 271.3125 z M 299.21875 342.84375 C 287.08938 342.83392 277.43341 343.46469 272.53125 346.34375 C 269.55268 348.09327 267.46036 350.22315 265.6875 354.6875 C 263.91464 359.15185 262.78125 366.04504 262.78125 375.75 C 262.78125 376.40663 262.803 377.02469 262.8125 377.65625 C 262.96663 369.0554 264.04604 362.82096 265.6875 358.6875 C 267.46036 354.22315 269.55268 352.09327 272.53125 350.34375 C 277.31259 347.53565 286.63439 346.86636 298.34375 346.84375 C 298.38785 344.97666 298.90537 344.44604 299.21875 342.84375 z M 298.53125 349.25 C 298.43898 349.6281 298.37049 350.04645 298.34375 350.59375 C 298.48983 350.5955 298.63375 350.59346 298.78125 350.59375 C 298.71278 350.01039 298.60753 349.62322 298.53125 349.25 z M 349.15625 361.15625 C 349.09937 366.48722 348.77114 371.07533 347.75 375.3125 C 346.6316 379.95278 344.3298 384.45359 340.59375 387.59375 C 333.1217 393.8736 323.85752 394.03125 311 394.03125 C 300.93007 394.03125 293.6936 394.68638 286.25 391.53125 C 282.52817 389.95345 278.89716 386.67859 277.0625 382.75 C 275.55064 379.51261 274.94686 376.1778 274.78125 372.46875 C 274.74864 372.99223 274.71875 373.50419 274.71875 374.03125 C 274.71875 378.73377 275.22784 382.82141 277.0625 386.75 C 278.89716 390.67859 282.52817 393.95345 286.25 395.53125 C 293.6936 398.68638 300.93007 398.03125 311 398.03125 C 323.85752 398.03125 333.1217 397.8736 340.59375 391.59375 C 344.3298 388.45359 346.6316 383.95278 347.75 379.3125 C 348.8684 374.67175 349.1875 369.66658 349.1875 363.65625 C 349.1875 362.80525 349.16613 361.98077 349.15625 361.15625 z "
         transform="matrix(0.21442165,0,0,0.21371538,428.65637,939.01129)"
         id="path3280"
         clip-path="url(#clipPath3315)" />
      <path
         inkscape:connector-curvature="0"
         id="path4142"
         d="m 459.33396,970.77447 c 0,0 0,0 0.005,0 h 6.75715 c 0.38722,0 0.6986,-0.31536 0.69934,-0.69959 0,-0.003 -0.082,-5.79385 -0.082,-7.40436 v -0.0191 c 0,-1.32271 0.27762,-2.4759 0.76114,-3.44231 l 0.23108,-0.43399 c -0.0259,0.004 -0.0517,0.017 -0.0774,0.0428 l -13.12975,13.01963 c -0.0257,0.0211 -0.0418,0.0485 -0.0491,0.0767 0.27154,-0.1344 0.64286,-0.31808 0.69536,-0.34116 1.14338,-0.51591 2.52977,-0.79862 4.18942,-0.79862 z"
         style="fill:none;fill-opacity:1;stroke:#000000;stroke-width:1.28440935999999994;stroke-miterlimit:4;stroke-dasharray:none;filter:url(#filter4162);opacity:0.7"
         clip-path="url(#clipPath4146)" />
      <path
         style="fill:#ffffff;fill-opacity:1;filter:url(#filter4215);opacity:0.1"
         d="M 171.8125 110.625 L 139.03125 143.25 C 140.40998 143.16943 141.68331 142.9375 143.125 142.9375 L 143.375 142.9375 L 171.8125 114.625 C 171.8125 120.81318 172.01935 136.2909 172.09375 142.9375 L 172.125 142.9375 C 172.09077 139.72889 171.8125 117.79103 171.8125 110.625 z "
         transform="matrix(0.21442165,0,0,0.21371538,428.65637,939.01129)"
         id="path4170"
         clip-path="url(#clipPath4203)" />
    </g>
  </g>
  <g
     inkscape:label="Masks"
     inkscape:groupmode="layer"
     id="layer1"
     transform="translate(0,-576.36218)"
     style="display:none">
    <g
       transform="matrix(3.5555556,0,0,3.5522388,0,-2685.8796)"
       id="layer1-3"
       inkscape:label="Layer 1"
       style="fill:#000000;display:inline">
      <g
         style="fill:#000000"
         inkscape:label="Layer 1"
         id="layer1-2"
         transform="translate(0,9.99998)">
        <path
           sodipodi:nodetypes="sssssssss"
           inkscape:connector-curvature="0"
           id="path3774"
           d="m 46.702703,908.3622 50.594594,0 C 138.16216,908.3622 144,914.2 144,955.06487 l 0,40.59483 c 0,40.8647 -5.83784,46.7025 -46.702703,46.7025 l -50.594594,0 C 5.8378378,1042.3622 0,1036.5244 0,995.6597 L 0,955.06487 C 0,914.2 5.8378378,908.3622 46.702703,908.3622 z"
           style="fill:#000000;fill-opacity:1;stroke:none;display:inline" />
      </g>
    </g>
  </g>
</svg>
