<?xml version="1.0" encoding="UTF-8" standalone="no"?>
<!-- Created with Inkscape (http://www.inkscape.org/) -->

<svg
   xmlns:dc="http://purl.org/dc/elements/1.1/"
   xmlns:cc="http://creativecommons.org/ns#"
   xmlns:rdf="http://www.w3.org/1999/02/22-rdf-syntax-ns#"
   xmlns:svg="http://www.w3.org/2000/svg"
   xmlns="http://www.w3.org/2000/svg"
   xmlns:xlink="http://www.w3.org/1999/xlink"
   xmlns:sodipodi="http://sodipodi.sourceforge.net/DTD/sodipodi-0.dtd"
   xmlns:inkscape="http://www.inkscape.org/namespaces/inkscape"
   width="512"
   height="476"
   id="svg3336"
   version="1.1"
   inkscape:version="0.48.3.1 r9886"
   sodipodi:docname="app_facebook_512x476px_squared.svg">
  <defs
     id="defs3338">
    <linearGradient
       inkscape:collect="always"
       xlink:href="#linearGradient3700-8-3"
       id="linearGradient4014"
       gradientUnits="userSpaceOnUse"
       gradientTransform="matrix(1.4999999,0,0,1.5252192,0,-545.74762)"
       x1="44.236801"
       y1="1101.5593"
       x2="44.236801"
       y2="960.21375" />
    <linearGradient
       id="linearGradient3700-8-3">
      <stop
         id="stop3702-1-23"
         offset="0"
         style="stop-color:#2e4f84;stop-opacity:1;" />
      <stop
         id="stop3704-8-56"
         offset="1"
         style="stop-color:#4c77c5;stop-opacity:1;" />
    </linearGradient>
    <linearGradient
       y2="1004.3622"
       x2="-74"
       y1="1004.3622"
       x1="-170"
       gradientUnits="userSpaceOnUse"
       id="linearGradient11355"
       xlink:href="#linearGradient3994-4"
       inkscape:collect="always" />
    <linearGradient
       id="linearGradient3994-4">
      <stop
         style="stop-color:#ffffff;stop-opacity:1;"
         offset="0"
         id="stop3996-9" />
      <stop
         style="stop-color:#ffffff;stop-opacity:0;"
         offset="1"
         id="stop3998-9" />
    </linearGradient>
    <clipPath
       id="clipPath4058-7-9"
       clipPathUnits="userSpaceOnUse">
      <path
         style="fill:#dd4814;fill-opacity:1;stroke:none"
         d="m -133.42831,956.36216 22.85662,0 c 31.999999,0 31.999999,0 31.999999,32 l 0,32.00004 c 0,32 0,32 -31.999999,32 l -22.85662,0 c -32,0 -32,0 -32,-32 l 0,-32.00004 c 0,-32 0,-32 32,-32 z"
         id="path4060-38-5"
         inkscape:connector-curvature="0"
         sodipodi:nodetypes="sssssssss" />
    </clipPath>
    <filter
       color-interpolation-filters="sRGB"
       id="filter4080-7-0"
       inkscape:collect="always">
      <feGaussianBlur
         id="feGaussianBlur4082-6-2"
         stdDeviation="2.4000005"
         inkscape:collect="always" />
    </filter>
    <linearGradient
       y2="960.21375"
       x2="44.236801"
       y1="1101.5593"
       x1="44.236801"
       gradientTransform="matrix(1.4999999,0,0,1.5252192,-4.6840784e-5,-1122.1098)"
       gradientUnits="userSpaceOnUse"
       id="linearGradient3091"
       xlink:href="#linearGradient3700-8-3"
       inkscape:collect="always" />
    <linearGradient
       inkscape:collect="always"
       xlink:href="#linearGradient3700-8-3"
       id="linearGradient3034"
       gradientUnits="userSpaceOnUse"
       gradientTransform="matrix(1.4999999,0,0,1.5252192,-4.6840784e-5,-1122.1098)"
       x1="44.236801"
       y1="1101.5593"
       x2="44.236801"
       y2="960.21375" />
    <linearGradient
       inkscape:collect="always"
       xlink:href="#linearGradient3994-4"
       id="linearGradient3036"
       gradientUnits="userSpaceOnUse"
       x1="-170"
       y1="1004.3622"
       x2="-74"
       y2="1004.3622" />
    <linearGradient
       inkscape:collect="always"
       xlink:href="#linearGradient3700-8-3"
       id="linearGradient3043"
       gradientUnits="userSpaceOnUse"
       gradientTransform="matrix(5.3329476,0,0,5.417942,0.01851931,-5200.867)"
       x1="44.236801"
       y1="1101.5593"
       x2="44.236801"
       y2="960.21375" />
  </defs>
  <sodipodi:namedview
     id="base"
     pagecolor="#ffffff"
     bordercolor="#666666"
     borderopacity="1.0"
     inkscape:pageopacity="0.0"
     inkscape:pageshadow="2"
     inkscape:zoom="1.335144"
     inkscape:cx="382.20595"
     inkscape:cy="200.57761"
     inkscape:document-units="px"
     inkscape:current-layer="layer2"
     showgrid="true"
     inkscape:window-width="1920"
     inkscape:window-height="1029"
     inkscape:window-x="0"
     inkscape:window-y="24"
     inkscape:window-maximized="1">
    <inkscape:grid
       type="xygrid"
       id="grid3045" />
  </sodipodi:namedview>
  <metadata
     id="metadata3341">
    <rdf:RDF>
      <cc:Work
         rdf:about="">
        <dc:format>image/svg+xml</dc:format>
        <dc:type
           rdf:resource="http://purl.org/dc/dcmitype/StillImage" />
        <dc:title />
      </cc:Work>
    </rdf:RDF>
  </metadata>
  <g
     inkscape:groupmode="layer"
     id="layer2"
     inkscape:label="Icon">
    <path
       style="fill:url(#linearGradient3043);fill-opacity:1;stroke:none;display:inline"
       d="m 0.01851931,0 0,142.86658 c -0.04166845,9.52373 0,19.6912 0,30.52705 l 0,129.21274 c 0,10.83575 -0.04166845,21.00332 0,30.52687 l 0,142.86676 140.65651069,0 230.64998,0 140.65651,0 0,-142.86676 c 0.0416,-9.52355 0,-19.69112 0,-30.52687 l 0,-129.21274 c 0,-10.83585 0.0416,-21.00332 0,-30.52705 L 511.98152,0 371.32501,0 140.67503,0 0.01851931,0 z"
       id="path6419"
       inkscape:connector-curvature="0" />
    <path
       transform="matrix(0,5.350648,5.3333312,0,-5100.5961,896.40945)"
       clip-path="url(#clipPath4058-7-9)"
       sodipodi:nodetypes="sssssssss"
       inkscape:connector-curvature="0"
       id="path4332"
       d="m -138,956.36216 32,0 c 32,0 32,0 32,32 l 0,32.00004 c 0,32 0,32 -32,32 l -32,0 c -32,0 -32,0 -32,-32 l 0,-32.00004 c 0,-32 0,-32 32,-32 z"
       style="opacity:0.1;fill:none;stroke:url(#linearGradient3036);stroke-width:1.32333601;stroke-miterlimit:4;stroke-dasharray:none;display:inline;filter:url(#filter4080-7-0)" />
    <g
       inkscape:label="Square"
       id="g6751"
       style="display:inline"
       inkscape:export-filename="./facebook.png"
       inkscape:export-xdpi="180"
       inkscape:export-ydpi="180"
       transform="matrix(3.5305171,0,0,3.5387254,-347.00806,-3357.0235)" />
    <path
       style="color:#000000;fill:#6683b3;fill-opacity:1;fill-rule:nonzero;stroke:none;stroke-width:2;marker:none;visibility:visible;display:inline;overflow:visible;enable-background:accumulate"
       d="m 0,391 0,85 140.66667,0 230.66666,0 L 512,476 512,391 0,391 z"
       id="rect3241"
       inkscape:connector-curvature="0" />
    <path
       style="fill:#ffffff;display:inline"
       d="m 342,476 -74.95946,0 -0.0751,-162.86654 L 228,313 l 0.0897,-60.08699 39.23602,0.0957 0,-36.95568 C 267.32572,166.28722 288.57325,135 347,135 l 51,0 0,64 -33,0 c -22.7482,0 -23,7.0868 -23,23 l 0,31 55.15281,0.009 -6.80505,60.12486 -48.42282,0 z"
       id="path3835"
       sodipodi:nodetypes="ccccccccccccccccc"
       inkscape:connector-curvature="0" />
  </g>
  <g
     inkscape:label="Masks"
     inkscape:groupmode="layer"
     id="layer1"
     transform="translate(0,-576.36218)"
     style="display:none">
    <g
       transform="matrix(3.5555556,0,0,3.5522388,0,-2685.8796)"
       id="layer1-3"
       inkscape:label="Layer 1"
       style="fill:#000000;display:inline">
      <g
         style="fill:#000000"
         inkscape:label="Layer 1"
         id="layer1-2"
         transform="translate(0,9.99998)">
        <path
           sodipodi:nodetypes="sssssssss"
           inkscape:connector-curvature="0"
           id="path3774"
           d="m 46.702703,908.3622 50.594594,0 C 138.16216,908.3622 144,914.2 144,955.06487 l 0,40.59483 c 0,40.8647 -5.83784,46.7025 -46.702703,46.7025 l -50.594594,0 C 5.8378378,1042.3622 0,1036.5244 0,995.6597 L 0,955.06487 C 0,914.2 5.8378378,908.3622 46.702703,908.3622 z"
           style="fill:#000000;fill-opacity:1;stroke:none;display:inline" />
      </g>
    </g>
  </g>
</svg>
