<?xml version="1.0" encoding="UTF-8" standalone="no"?>
<!-- Created with Inkscape (http://www.inkscape.org/) -->

<svg
   xmlns:dc="http://purl.org/dc/elements/1.1/"
   xmlns:cc="http://creativecommons.org/ns#"
   xmlns:rdf="http://www.w3.org/1999/02/22-rdf-syntax-ns#"
   xmlns:svg="http://www.w3.org/2000/svg"
   xmlns="http://www.w3.org/2000/svg"
   xmlns:xlink="http://www.w3.org/1999/xlink"
   xmlns:sodipodi="http://sodipodi.sourceforge.net/DTD/sodipodi-0.dtd"
   xmlns:inkscape="http://www.inkscape.org/namespaces/inkscape"
   width="144"
   height="134"
   id="svg3289"
   version="1.1"
   inkscape:version="0.48.3.1 r9886"
   sodipodi:docname="messages-new@27.svg">
  <defs
     id="defs3291">
    <linearGradient
       id="linearGradient3992">
      <stop
         style="stop-color:#b5b5b5;stop-opacity:1"
         offset="0"
         id="stop3994" />
      <stop
         style="stop-color:#dbdbdb;stop-opacity:1"
         offset="1"
         id="stop3996" />
    </linearGradient>
    <linearGradient
       id="linearGradient3992-5">
      <stop
         style="stop-color:#b5b5b5;stop-opacity:1"
         offset="0"
         id="stop3994-3" />
      <stop
         style="stop-color:#dbdbdb;stop-opacity:1"
         offset="1"
         id="stop3996-0" />
    </linearGradient>
    <linearGradient
       id="linearGradient3382">
      <stop
         style="stop-color:#b5b5b5;stop-opacity:1"
         offset="0"
         id="stop3384" />
      <stop
         style="stop-color:#dbdbdb;stop-opacity:1"
         offset="1"
         id="stop3386" />
    </linearGradient>
    <linearGradient
       id="linearGradient4091">
      <stop
         id="stop4093"
         offset="0"
         style="stop-color:#dbdbdb;stop-opacity:1;" />
      <stop
         id="stop4095"
         offset="1"
         style="stop-color:#b5b5b5;stop-opacity:1;" />
    </linearGradient>
    <linearGradient
       id="linearGradient3468">
      <stop
         id="stop3470"
         offset="0"
         style="stop-color:#dbdbdb;stop-opacity:1;" />
      <stop
         id="stop3472"
         offset="1"
         style="stop-color:#b5b5b5;stop-opacity:1;" />
    </linearGradient>
    <linearGradient
       id="linearGradient3992-7">
      <stop
         style="stop-color:#b5b5b5;stop-opacity:1"
         offset="0"
         id="stop3994-6" />
      <stop
         style="stop-color:#dbdbdb;stop-opacity:1"
         offset="1"
         id="stop3996-7" />
    </linearGradient>
    <linearGradient
       inkscape:collect="always"
       xlink:href="#linearGradient3992-54"
       id="linearGradient4158"
       gradientUnits="userSpaceOnUse"
       gradientTransform="matrix(2,0,0,1.9861112,-1031,-247.30555)"
       x1="1001.1268"
       y1="332"
       x2="1001.1268"
       y2="344" />
    <linearGradient
       id="linearGradient3992-54">
      <stop
         style="stop-color:#b5b5b5;stop-opacity:1"
         offset="0"
         id="stop3994-9" />
      <stop
         style="stop-color:#dbdbdb;stop-opacity:1"
         offset="1"
         id="stop3996-5" />
    </linearGradient>
    <linearGradient
       inkscape:collect="always"
       xlink:href="#linearGradient3992-54"
       id="linearGradient4428"
       gradientUnits="userSpaceOnUse"
       gradientTransform="matrix(2,0,0,1.9861112,-1031,-247.30555)"
       x1="1010"
       y1="344"
       x2="1010"
       y2="332" />
    <linearGradient
       id="linearGradient3613">
      <stop
         style="stop-color:#b5b5b5;stop-opacity:1"
         offset="0"
         id="stop3615" />
      <stop
         style="stop-color:#dbdbdb;stop-opacity:1"
         offset="1"
         id="stop3617" />
    </linearGradient>
    <linearGradient
       id="linearGradient4091-5">
      <stop
         id="stop4093-8"
         offset="0"
         style="stop-color:#dbdbdb;stop-opacity:1;" />
      <stop
         id="stop4095-6"
         offset="1"
         style="stop-color:#b5b5b5;stop-opacity:1;" />
    </linearGradient>
    <linearGradient
       id="linearGradient3747">
      <stop
         id="stop3749"
         offset="0"
         style="stop-color:#dbdbdb;stop-opacity:1;" />
      <stop
         id="stop3751"
         offset="1"
         style="stop-color:#b5b5b5;stop-opacity:1;" />
    </linearGradient>
  </defs>
  <sodipodi:namedview
     id="base"
     pagecolor="#000000"
     bordercolor="#666666"
     borderopacity="1.0"
     inkscape:pageopacity="1"
     inkscape:pageshadow="2"
     inkscape:zoom="2.4414062"
     inkscape:cx="-40.20543"
     inkscape:cy="22.011028"
     inkscape:document-units="px"
     inkscape:current-layer="g4451"
     showgrid="true"
     inkscape:window-width="1920"
     inkscape:window-height="1029"
     inkscape:window-x="0"
     inkscape:window-y="24"
     inkscape:window-maximized="1"
     fit-margin-top="0"
     fit-margin-left="0"
     fit-margin-right="0"
     fit-margin-bottom="0">
    <inkscape:grid
       type="xygrid"
       id="grid3020"
       empspacing="8"
       visible="true"
       enabled="true"
       snapvisiblegridlinesonly="true" />
  </sodipodi:namedview>
  <metadata
     id="metadata3294">
    <rdf:RDF>
      <cc:Work
         rdf:about="">
        <dc:format>image/svg+xml</dc:format>
        <dc:type
           rdf:resource="http://purl.org/dc/dcmitype/StillImage" />
        <dc:title />
      </cc:Work>
    </rdf:RDF>
  </metadata>
  <g
     inkscape:label="Layer 1"
     inkscape:groupmode="layer"
     id="layer1"
     transform="translate(0,-918.3622)">
    <g
       style="display:inline"
       transform="translate(-789,604.3622)"
       id="g4451">
      <rect
         style="color:#000000;fill:#25211f;fill-opacity:1;fill-rule:nonzero;stroke:none;stroke-width:5;marker:none;visibility:visible;display:inline;overflow:visible;enable-background:accumulate"
         id="rect3011"
         width="144"
         height="134"
         x="789"
         y="313.99994" />
      <path
         style="color:#000000;fill:#cccccc;fill-opacity:1;fill-rule:nonzero;stroke:none;stroke-width:1;marker:none;visibility:visible;display:inline;overflow:visible;enable-background:accumulate"
         d="m 831,347 c -10.7391,0 -15.0338,2.16102 -16.78126,8.34374 16.19992,15.09502 33.27158,31.46866 38.15626,35.4375 2.90504,2.36036 4.6096,3.43126 5.625,3.84376 1.0154,0.41236 1.5,0.65624 3,0.65624 1.5,0 1.9846,-0.24388 3,-0.65624 1.0154,-0.4125 2.71996,-1.4834 5.625,-3.84376 4.8844,-3.96856 21.96982,-20.34906 38.15624,-35.4375 C 906.0338,349.16102 901.7391,347 891,347 l -60,0 z m -17.8125,15 c -0.2133,3.31716 -0.1874,7.24252 -0.1874,12 l 0,12.375 C 813,407.32406 813,413 831,413 l 60,0 c 9.48712,0 13.90926,-1.68748 16.03124,-6.28126 l -23.90624,-20.625 c -6.14984,5.73178 -11.2446,10.355 -13.5,12.1875 -2.90504,2.36036 -4.6096,3.43126 -5.625,3.84376 -1.0154,0.41236 -1.5,0.65624 -3,0.65624 -1.5,0 -1.9846,-0.24388 -3,-0.65624 -1.0154,-0.4125 -2.71996,-1.4834 -5.625,-3.84376 -2.24878,-1.82714 -7.28472,-6.48166 -13.40626,-12.1875 l -23.90624,20.71876 20.625,-23.71876 C 828.85126,376.69934 820.99938,369.2717 813.1875,362 z m 93.84374,44.71874 C 908.93532,402.5967 909,396.13982 909,386.375 L 909,374 c 0,-4.75748 0.027,-8.68284 -0.1874,-12 -7.70418,7.17456 -15.43886,14.47024 -22.21876,20.8125 l 20.4375,23.90624 z M 846.5625,390.125 c 2.50068,2.28162 4.63066,4.196 5.8125,5.15624 -1.24164,-1.00882 -3.2231,-2.78526 -5.8125,-5.15624 z"
         id="path3330"
         inkscape:connector-curvature="0" />
      <rect
         style="fill:none;stroke:none"
         id="rect3332"
         width="144"
         height="144"
         x="789"
         y="309" />
      <path
         inkscape:connector-curvature="0"
         id="path3334"
         d="m 831,347 c -10.96102,0 -15.1988,2.1483 -16.875,8.53124 17.2065,15.97362 33.0426,31.01896 38.25,35.25 2.90504,2.36036 4.6096,3.43126 5.625,3.84376 1.0154,0.4125 1.5,0.65624 3,0.65624 1.5,0 1.9846,-0.24388 3,-0.65624 1.0154,-0.4125 2.71996,-1.4834 5.625,-3.84376 5.20706,-4.23074 21.06224,-19.28552 38.25,-35.25 C 906.17106,349.2441 901.875,347 891,347 l -60,0 z"
         style="color:#000000;fill:#cccccc;fill-opacity:1;fill-rule:nonzero;stroke:none;stroke-width:1;marker:none;visibility:visible;display:inline;overflow:visible;enable-background:accumulate" />
      <path
         inkscape:connector-curvature="0"
         id="path3336"
         d="m 814.21874,355.34374 c -0.32258,1.14134 -0.5795,2.4146 -0.75,3.84376 16.52326,15.38512 33.93972,32.05842 38.90626,36.09374 2.90504,2.36036 4.6096,3.43126 5.625,3.84376 1.0154,0.4125 1.5,0.65624 3,0.65624 1.5,0 1.9846,-0.24388 3,-0.65624 1.0154,-0.4125 2.71996,-1.4834 5.625,-3.84376 4.9662,-4.03504 22.39766,-20.71578 38.90624,-36.09374 -0.1704,-1.42916 -0.4274,-2.70242 -0.75,-3.84376 -16.18642,15.08844 -33.27184,31.46894 -38.15624,35.4375 -2.90504,2.36036 -4.6096,3.43126 -5.625,3.84376 -1.0154,0.41236 -1.5,0.65624 -3,0.65624 -1.5,0 -1.9846,-0.24388 -3,-0.65624 -1.0154,-0.4125 -2.71996,-1.4834 -5.625,-3.84376 -4.88468,-3.96884 -21.95634,-20.34248 -38.15626,-35.4375 z"
         style="opacity:0.2;color:#000000;fill:#c8c8c8;fill-opacity:1;fill-rule:nonzero;stroke:none;stroke-width:1;marker:none;visibility:visible;display:inline;overflow:visible;enable-background:accumulate" />
      <path
         style="opacity:0.5;fill:#cccccc;fill-opacity:1;stroke:none;display:inline"
         d="m 813.46874,359.1875 c -0.1212,0.90582 -0.21764,1.7937 -0.28124,2.8125 7.81188,7.2717 15.66376,14.69936 22.5,21.09374 l -20.625,23.71876 23.90624,-20.71876 c 6.12154,5.70584 11.15748,10.36036 13.40626,12.1875 2.90506,2.36034 4.6096,3.43126 5.625,3.84376 1.0154,0.4125 1.5,0.65624 3,0.65624 1.5,0 1.9846,-0.24388 3,-0.65624 1.0154,-0.4125 2.71994,-1.48342 5.625,-3.84376 2.25538,-1.8325 7.35014,-6.45572 13.5,-12.1875 l 23.90624,20.625 -20.4375,-23.90624 c 6.77988,-6.34228 14.51456,-13.63794 22.21876,-20.8125 -0.064,-1.0188 -0.16,-1.90668 -0.28126,-2.8125 -8.1029,7.54798 -16.37928,15.4112 -23.34374,21.9375 l -3.75,3.46874 c -5.32324,4.9626 -9.7713,9.02902 -11.8125,10.6875 -2.90506,2.36034 -4.6096,3.43126 -5.625,3.84376 -1.0154,0.41236 -1.5,0.65624 -3,0.65624 -1.5,0 -1.9846,-0.24388 -3,-0.65624 -1.0154,-0.4125 -2.71994,-1.48342 -5.625,-3.84376 -2.02836,-1.64804 -6.44618,-5.67846 -11.71876,-10.59374 l -3.09374,-2.90626 c -0.1382,-0.1294 -0.23574,-0.24452 -0.375,-0.375 -7.0234,-6.58054 -15.49068,-14.55742 -23.71876,-22.21874 z"
         id="path3338"
         inkscape:connector-curvature="0" />
    </g>
  </g>
</svg>
