<?xml version="1.0" encoding="UTF-8" standalone="no"?>
<!-- Created with Inkscape (http://www.inkscape.org/) -->

<svg
   xmlns:dc="http://purl.org/dc/elements/1.1/"
   xmlns:cc="http://creativecommons.org/ns#"
   xmlns:rdf="http://www.w3.org/1999/02/22-rdf-syntax-ns#"
   xmlns:svg="http://www.w3.org/2000/svg"
   xmlns="http://www.w3.org/2000/svg"
   xmlns:xlink="http://www.w3.org/1999/xlink"
   xmlns:sodipodi="http://sodipodi.sourceforge.net/DTD/sodipodi-0.dtd"
   xmlns:inkscape="http://www.inkscape.org/namespaces/inkscape"
   width="512"
   height="476"
   id="svg3336"
   version="1.1"
   inkscape:version="0.48.3.1 r9886"
   sodipodi:docname="app_pinterest_512x476px_squared.svg"
   inkscape:export-filename="PNG/app_pinterest_512x476px_squared.png"
   inkscape:export-xdpi="90"
   inkscape:export-ydpi="90">
  <defs
     id="defs3338">
    <linearGradient
       y2="1004.3622"
       x2="-74"
       y1="1004.3622"
       x1="-170"
       gradientUnits="userSpaceOnUse"
       id="linearGradient11355"
       xlink:href="#linearGradient3994-4"
       inkscape:collect="always" />
    <linearGradient
       id="linearGradient3994-4">
      <stop
         style="stop-color:#ffffff;stop-opacity:1;"
         offset="0"
         id="stop3996-9" />
      <stop
         style="stop-color:#ffffff;stop-opacity:0;"
         offset="1"
         id="stop3998-9" />
    </linearGradient>
    <clipPath
       id="clipPath4058-7-9"
       clipPathUnits="userSpaceOnUse">
      <path
         style="fill:#dd4814;fill-opacity:1;stroke:none"
         d="m -133.42831,956.36216 22.85662,0 c 31.999999,0 31.999999,0 31.999999,32 l 0,32.00004 c 0,32 0,32 -31.999999,32 l -22.85662,0 c -32,0 -32,0 -32,-32 l 0,-32.00004 c 0,-32 0,-32 32,-32 z"
         id="path4060-38-5"
         inkscape:connector-curvature="0"
         sodipodi:nodetypes="sssssssss" />
    </clipPath>
    <filter
       color-interpolation-filters="sRGB"
       id="filter4080-7-0"
       inkscape:collect="always">
      <feGaussianBlur
         id="feGaussianBlur4082-6-2"
         stdDeviation="2.4000005"
         inkscape:collect="always" />
    </filter>
    <linearGradient
       inkscape:collect="always"
       xlink:href="#linearGradient4146-2"
       id="linearGradient3223"
       gradientUnits="userSpaceOnUse"
       gradientTransform="matrix(1.4999986,0,0,-1.5252169,0.00535589,1941.6322)"
       x1="44.236801"
       y1="1046.2661"
       x2="44.236801"
       y2="960.21375" />
    <linearGradient
       id="linearGradient4146-2">
      <stop
         style="stop-color:#e03c43;stop-opacity:1"
         offset="0"
         id="stop4148-2" />
      <stop
         style="stop-color:#cb2027;stop-opacity:1"
         offset="1"
         id="stop4150-8" />
    </linearGradient>
    <clipPath
       clipPathUnits="userSpaceOnUse"
       id="clipPath3901">
      <path
         inkscape:connector-curvature="0"
         id="path3903"
         d="m -149.99479,918.36218 0,40.21875 c -0.0117,2.68103 0,5.54333 0,8.59375 l 0,36.37502 c 0,3.0504 -0.0117,5.9127 0,8.5937 l 0,40.2188 39.5625,0 64.875,0 39.5625,0 0,-40.2188 c 0.0117,-2.681 0,-5.5433 0,-8.5937 l 0,-36.37502 c 0,-3.05042 0.0117,-5.91272 0,-8.59375 l 0,-40.21875 -39.5625,0 -64.875,0 -39.5625,0 z"
         style="fill:#ff00ff;fill-opacity:1;stroke:none;display:inline" />
    </clipPath>
    <filter
       color-interpolation-filters="sRGB"
       inkscape:collect="always"
       id="filter3893"
       x="-0.27500939"
       width="1.5500188"
       y="-0.21289758"
       height="1.4257952">
      <feGaussianBlur
         inkscape:collect="always"
         stdDeviation="9.4691265"
         id="feGaussianBlur3895" />
    </filter>
    <filter
       color-interpolation-filters="sRGB"
       inkscape:collect="always"
       id="filter3883">
      <feGaussianBlur
         inkscape:collect="always"
         stdDeviation="1.420369"
         id="feGaussianBlur3885" />
    </filter>
    <linearGradient
       y2="1004.3622"
       x2="-74"
       y1="1004.3622"
       x1="-170"
       gradientUnits="userSpaceOnUse"
       id="linearGradient3089"
       xlink:href="#linearGradient3994-4"
       inkscape:collect="always" />
    <linearGradient
       inkscape:collect="always"
       xlink:href="#linearGradient3994-4"
       id="linearGradient3097"
       gradientUnits="userSpaceOnUse"
       x1="-170"
       y1="1004.3622"
       x2="-74"
       y2="1004.3622" />
    <linearGradient
       inkscape:collect="always"
       xlink:href="#linearGradient4146-2"
       id="linearGradient3099"
       gradientUnits="userSpaceOnUse"
       gradientTransform="matrix(1.4999986,0,0,-1.5252169,0.00535589,1941.6322)"
       x1="44.236801"
       y1="1046.2661"
       x2="44.236801"
       y2="960.21375" />
  </defs>
  <sodipodi:namedview
     id="base"
     pagecolor="#ffffff"
     bordercolor="#666666"
     borderopacity="1.0"
     inkscape:pageopacity="0.0"
     inkscape:pageshadow="2"
     inkscape:zoom="0.85449219"
     inkscape:cx="112.93257"
     inkscape:cy="227.03543"
     inkscape:document-units="px"
     inkscape:current-layer="layer2"
     showgrid="false"
     inkscape:window-width="1920"
     inkscape:window-height="1029"
     inkscape:window-x="0"
     inkscape:window-y="24"
     inkscape:window-maximized="1" />
  <metadata
     id="metadata3341">
    <rdf:RDF>
      <cc:Work
         rdf:about="">
        <dc:format>image/svg+xml</dc:format>
        <dc:type
           rdf:resource="http://purl.org/dc/dcmitype/StillImage" />
        <dc:title></dc:title>
      </cc:Work>
    </rdf:RDF>
  </metadata>
  <g
     inkscape:groupmode="layer"
     id="layer2"
     inkscape:label="Icons">
    <g
       id="g3090"
       transform="matrix(3.5552985,0,0,3.5522375,0,-1214.8652)">
      <path
         style="opacity:0.1;fill:none;stroke:url(#linearGradient3097);stroke-width:1.99986649;stroke-miterlimit:4;stroke-dasharray:none;display:inline;filter:url(#filter4080-7-0)"
         d="m -138,956.36216 32,0 c 32,0 32,0 32,32 l 0,32.00004 c 0,32 0,32 -32,32 l -32,0 c -32,0 -32,0 -32,-32 l 0,-32.00004 c 0,-32 0,-32 32,-32 z"
         id="path4332"
         inkscape:connector-curvature="0"
         sodipodi:nodetypes="sssssssss"
         clip-path="url(#clipPath4058-7-9)"
         transform="matrix(0,1.500395,1.4999986,0,-1434.5419,593.88862)" />
      <path
         inkscape:connector-curvature="0"
         id="path6419"
         d="m 0.00520889,342 0,40.21875 c -0.01172,2.68103 0,5.54333 0,8.59375 l 0,36.37502 c 0,3.0504 -0.01172,5.9127 0,8.5937 l 0,40.2188 39.56250011,0 64.875001,0 39.5625,0 0,-40.2188 c 0.0117,-2.681 0,-5.5433 0,-8.5937 l 0,-36.37502 c 0,-3.05042 0.0117,-5.91272 0,-8.59375 l 0,-40.21875 -39.5625,0 -64.875001,0 -39.56250011,0 z"
         style="fill:url(#linearGradient3099);fill-opacity:1;stroke:none;display:inline" />
      <path
         transform="translate(150,-576.36218)"
         clip-path="url(#clipPath3901)"
         style="opacity:0.3;fill:#ffffff;filter:url(#filter3893)"
         inkscape:connector-curvature="0"
         d="m -75.493881,935.98934 c -29.131169,0 -43.819329,20.8858 -43.819329,38.30266 0,10.54572 3.99262,19.92766 12.556,23.42379 1.40419,0.5741 2.66197,0.02 3.0692,-1.5349 0.28329,-1.076 0.95338,-3.79036 1.25233,-4.9208 0.41063,-1.53766 0.25128,-2.077 -0.88187,-3.41718 -2.46925,-2.91257 -4.0471,-6.68319 -4.0471,-12.02415 0,-15.49513 11.593087,-29.36678 30.188056,-29.36678 16.46553,0 25.511732,10.06087 25.511732,23.49738 0,17.67904 -7.823834,32.60014 -19.43871,32.60014 -6.414195,0 -11.215818,-5.30491 -9.676793,-11.81105 1.842745,-7.7673 5.412466,-16.15023 5.412466,-21.75677 0,-5.01886 -2.693975,-9.20487 -8.269197,-9.20487 -6.557201,0 -11.824619,6.78329 -11.824619,15.87034 0,5.78769 1.955788,9.70199 1.955788,9.70199 0,0 -6.710423,28.43186 -7.886483,33.41116 -2.34259,9.9166 -0.35207,22.0728 -0.18387,23.3006 0.0987,0.7273 1.03374,0.9003 1.45731,0.3507 0.604715,-0.7893 8.414248,-10.4306 11.069408,-20.0646 0.751126,-2.7279 4.312675,-16.8536 4.312675,-16.8536 2.130121,4.0634 8.356365,7.6427 14.977579,7.6427 19.710422,0 33.082928,-17.96921 33.082928,-42.02158 0,-18.18705 -15.404564,-35.12518 -38.817501,-35.12518 z"
         id="path3887" />
      <path
         style="fill:#8f181d;fill-opacity:1;filter:url(#filter3883)"
         inkscape:connector-curvature="0"
         d="m 74.506119,359.62716 c -29.131164,0 -43.819324,20.8858 -43.819324,38.30266 0,10.54572 3.992614,19.92766 12.555997,23.42379 1.40419,0.5741 2.661969,0.02 3.069198,-1.5349 0.283289,-1.076 0.953378,-3.79036 1.252331,-4.9208 0.410633,-1.53766 0.251283,-2.077 -0.881875,-3.41718 -2.469251,-2.91257 -4.047093,-6.68319 -4.047093,-12.02415 0,-15.49513 11.593084,-29.36678 30.188053,-29.36678 16.46553,0 25.511734,10.06087 25.511734,23.49738 0,17.67904 -7.82384,32.60014 -19.438712,32.60014 -6.414195,0 -11.215818,-5.30491 -9.676793,-11.81105 1.842745,-7.7673 5.412466,-16.15023 5.412466,-21.75677 0,-5.01886 -2.693975,-9.20487 -8.269197,-9.20487 -6.557201,0 -11.824619,6.78329 -11.824619,15.87034 0,5.78769 1.955788,9.70199 1.955788,9.70199 0,0 -6.710423,28.43186 -7.886484,33.41116 -2.342587,9.9166 -0.352069,22.0728 -0.183865,23.3006 0.09874,0.7273 1.033735,0.9003 1.457307,0.3507 0.604714,-0.7893 8.414247,-10.4306 11.069407,-20.0646 0.751126,-2.7279 4.312675,-16.8536 4.312675,-16.8536 2.130121,4.0634 8.356365,7.6427 14.977579,7.6427 19.710418,0 33.082928,-17.96921 33.082928,-42.02158 0,-18.18705 -15.40456,-35.12518 -38.817501,-35.12518 z"
         id="path3877" />
      <path
         id="path3095"
         d="m 74.506119,359.62716 c -29.131164,0 -43.819324,20.8858 -43.819324,38.30266 0,10.54572 3.992614,19.92766 12.555997,23.42379 1.40419,0.5741 2.661969,0.02 3.069198,-1.5349 0.283289,-1.076 0.953378,-3.79036 1.252331,-4.9208 0.410633,-1.53766 0.251283,-2.077 -0.881875,-3.41718 -2.469251,-2.91257 -4.047093,-6.68319 -4.047093,-12.02415 0,-15.49513 11.593084,-29.36678 30.188053,-29.36678 16.46553,0 25.511734,10.06087 25.511734,23.49738 0,17.67904 -7.82384,32.60014 -19.438712,32.60014 -6.414195,0 -11.215818,-5.30491 -9.676793,-11.81105 1.842745,-7.7673 5.412466,-16.15023 5.412466,-21.75677 0,-5.01886 -2.693975,-9.20487 -8.269197,-9.20487 -6.557201,0 -11.824619,6.78329 -11.824619,15.87034 0,5.78769 1.955788,9.70199 1.955788,9.70199 0,0 -6.710423,28.43186 -7.886484,33.41116 -2.342587,9.9166 -0.352069,22.0728 -0.183865,23.3006 0.09874,0.7273 1.033735,0.9003 1.457307,0.3507 0.604714,-0.7893 8.414247,-10.4306 11.069407,-20.0646 0.751126,-2.7279 4.312675,-16.8536 4.312675,-16.8536 2.130121,4.0634 8.356365,7.6427 14.977579,7.6427 19.710418,0 33.082928,-17.96921 33.082928,-42.02158 0,-18.18705 -15.40456,-35.12518 -38.817501,-35.12518 z"
         inkscape:connector-curvature="0"
         style="fill:#ffffff" />
    </g>
  </g>
  <g
     inkscape:label="Masks"
     inkscape:groupmode="layer"
     id="layer1"
     transform="translate(0,-576.36218)"
     style="display:none">
    <g
       transform="matrix(3.5555556,0,0,3.5522388,0,-2685.8796)"
       id="layer1-3"
       inkscape:label="Layer 1"
       style="fill:#000000;display:inline">
      <g
         style="fill:#000000"
         inkscape:label="Layer 1"
         id="layer1-2"
         transform="translate(0,9.99998)">
        <path
           sodipodi:nodetypes="sssssssss"
           inkscape:connector-curvature="0"
           id="path3774"
           d="m 46.702703,908.3622 50.594594,0 C 138.16216,908.3622 144,914.2 144,955.06487 l 0,40.59483 c 0,40.8647 -5.83784,46.7025 -46.702703,46.7025 l -50.594594,0 C 5.8378378,1042.3622 0,1036.5244 0,995.6597 L 0,955.06487 C 0,914.2 5.8378378,908.3622 46.702703,908.3622 z"
           style="fill:#000000;fill-opacity:1;stroke:none;display:inline" />
      </g>
    </g>
  </g>
</svg>
