<?xml version="1.0" encoding="UTF-8" standalone="no"?>
<!-- Created with Inkscape (http://www.inkscape.org/) -->

<svg
   xmlns:dc="http://purl.org/dc/elements/1.1/"
   xmlns:cc="http://creativecommons.org/ns#"
   xmlns:rdf="http://www.w3.org/1999/02/22-rdf-syntax-ns#"
   xmlns:svg="http://www.w3.org/2000/svg"
   xmlns="http://www.w3.org/2000/svg"
   xmlns:xlink="http://www.w3.org/1999/xlink"
   xmlns:sodipodi="http://sodipodi.sourceforge.net/DTD/sodipodi-0.dtd"
   xmlns:inkscape="http://www.inkscape.org/namespaces/inkscape"
   width="512"
   height="476"
   id="svg3336"
   version="1.1"
   inkscape:version="0.48.3.1 r9886"
   sodipodi:docname="app_skype_512x476px_squared.svg">
  <defs
     id="defs3338">
    <filter
       color-interpolation-filters="sRGB"
       inkscape:collect="always"
       id="filter6944"
       x="-0.24000005"
       width="1.4800001"
       y="-0.23999995"
       height="1.4799999">
      <feGaussianBlur
         inkscape:collect="always"
         stdDeviation="4.800001"
         id="feGaussianBlur6946" />
    </filter>
    <filter
       color-interpolation-filters="sRGB"
       inkscape:collect="always"
       id="filter6934">
      <feGaussianBlur
         inkscape:collect="always"
         stdDeviation="0.72000015"
         id="feGaussianBlur6936" />
    </filter>
    <linearGradient
       inkscape:collect="always"
       xlink:href="#linearGradient7537"
       id="linearGradient3223"
       gradientUnits="userSpaceOnUse"
       gradientTransform="matrix(5.3329426,0,0,-5.4179322,0.01904181,5682.273)"
       x1="44.236801"
       y1="1046.2661"
       x2="44.236801"
       y2="960.21375" />
    <linearGradient
       id="linearGradient7537">
      <stop
         style="stop-color:#5fcdf5;stop-opacity:1;"
         offset="0"
         id="stop7539" />
      <stop
         style="stop-color:#00aaea;stop-opacity:1;"
         offset="1"
         id="stop7541" />
    </linearGradient>
    <linearGradient
       y2="1004.3622"
       x2="-74"
       y1="1004.3622"
       x1="-170"
       gradientUnits="userSpaceOnUse"
       id="linearGradient11355"
       xlink:href="#linearGradient3994-4"
       inkscape:collect="always" />
    <linearGradient
       id="linearGradient3994-4">
      <stop
         style="stop-color:#ffffff;stop-opacity:1;"
         offset="0"
         id="stop3996-9" />
      <stop
         style="stop-color:#ffffff;stop-opacity:0;"
         offset="1"
         id="stop3998-9" />
    </linearGradient>
    <clipPath
       id="clipPath4058-7-9"
       clipPathUnits="userSpaceOnUse">
      <path
         style="fill:#dd4814;fill-opacity:1;stroke:none"
         d="m -133.42831,956.36216 22.85662,0 c 31.999999,0 31.999999,0 31.999999,32 l 0,32.00004 c 0,32 0,32 -31.999999,32 l -22.85662,0 c -32,0 -32,0 -32,-32 l 0,-32.00004 c 0,-32 0,-32 32,-32 z"
         id="path4060-38-5"
         inkscape:connector-curvature="0"
         sodipodi:nodetypes="sssssssss" />
    </clipPath>
    <filter
       color-interpolation-filters="sRGB"
       id="filter4080-7-0"
       inkscape:collect="always">
      <feGaussianBlur
         id="feGaussianBlur4082-6-2"
         stdDeviation="2.4000005"
         inkscape:collect="always" />
    </filter>
    <linearGradient
       y2="1004.3622"
       x2="-74"
       y1="1004.3622"
       x1="-170"
       gradientUnits="userSpaceOnUse"
       id="linearGradient3098"
       xlink:href="#linearGradient3994-4"
       inkscape:collect="always" />
  </defs>
  <sodipodi:namedview
     id="base"
     pagecolor="#ffffff"
     bordercolor="#666666"
     borderopacity="1.0"
     inkscape:pageopacity="0.0"
     inkscape:pageshadow="2"
     inkscape:zoom="1.0681152"
     inkscape:cx="399.06743"
     inkscape:cy="245.76"
     inkscape:document-units="px"
     inkscape:current-layer="layer2"
     showgrid="false"
     inkscape:window-width="1920"
     inkscape:window-height="1029"
     inkscape:window-x="0"
     inkscape:window-y="24"
     inkscape:window-maximized="1" />
  <metadata
     id="metadata3341">
    <rdf:RDF>
      <cc:Work
         rdf:about="">
        <dc:format>image/svg+xml</dc:format>
        <dc:type
           rdf:resource="http://purl.org/dc/dcmitype/StillImage" />
        <dc:title></dc:title>
      </cc:Work>
    </rdf:RDF>
  </metadata>
  <g
     inkscape:groupmode="layer"
     id="layer2"
     inkscape:label="Icon">
    <path
       transform="matrix(0,5.3297587,5.3329426,0,-5100.2245,894.76815)"
       clip-path="url(#clipPath4058-7-9)"
       sodipodi:nodetypes="sssssssss"
       inkscape:connector-curvature="0"
       id="path4332"
       d="m -138,956.36216 32,0 c 32,0 32,0 32,32 l 0,32.00004 c 0,32 0,32 -32,32 l -32,0 c -32,0 -32,0 -32,-32 l 0,-32.00004 c 0,-32 0,-32 32,-32 z"
       style="opacity:0.1;fill:none;stroke:url(#linearGradient3098);stroke-width:1.99986649;stroke-miterlimit:4;stroke-dasharray:none;display:inline;filter:url(#filter4080-7-0)" />
    <path
       style="fill:url(#linearGradient3223);fill-opacity:1;stroke:none;display:inline"
       d="m 0.01851911,1.5180962e-5 0,142.866544819038 c -0.041668,9.52366 0,19.69123 0,30.52703 l 0,129.21273 c 0,10.83573 -0.041668,21.00329 0,30.52685 l 0,142.86671 140.65649089,0 230.64997,0 140.6565,0 0,-142.86671 c 0.0416,-9.52356 0,-19.69112 0,-30.52685 l 0,-129.21273 c 0,-10.8358 0.0416,-21.00337 0,-30.52703 l 0,-142.866544819038 -140.6565,0 -230.64997,0 -140.65649089,0 z"
       id="path6419"
       inkscape:connector-curvature="0" />
    <g
       id="g4079"
       transform="matrix(6.094796,0,0,6.0895478,588.78878,-6019.4618)">
      <path
         id="path6938"
         d="m -65.55337,1003.5741 c -7.20091,0 -13.05179,5.8508 -13.05179,13.0518 0,2.2241 0.54702,4.3103 1.52988,6.1434 -0.32813,1.5446 -0.47809,3.1628 -0.47809,4.8048 0,12.6735 10.27461,22.9482 22.94821,22.9482 1.64198,0 3.26014,-0.1499 4.80478,-0.4781 1.83933,0.9917 3.9086,1.5299 6.14343,1.5299 7.20091,0 13.05179,-5.8509 13.05179,-13.0519 0,-2.2348 -0.5382,-4.304 -1.52988,-6.1434 0.32813,-1.5446 0.47809,-3.1628 0.47809,-4.8047 0,-12.6736 -10.27461,-22.9482 -22.94821,-22.9482 -1.64237,0 -3.25979,0.1976 -4.80478,0.5258 -1.83322,-0.983 -3.919,-1.5776 -6.14343,-1.5776 z m 10.49403,8.8207 c 7.5078,0 11.37848,3.9662 11.37848,6.2868 0,2.3206 -1.12132,2.7012 -2.96414,2.7012 -3.57702,0 -2.10782,-4.3028 -8.82072,-4.3028 -2.22336,0 -4.97211,0.9954 -4.97211,3.5857 0,2.0783 2.42485,2.8427 6.76494,3.8964 6.52485,1.7483 11.4502,3.5175 11.4502,9.49 0,5.8015 -4.77905,8.7012 -12.28685,8.7012 -7.50781,0 -12.28686,-4.4922 -12.28686,-6.8128 0,-2.3205 0.90618,-2.9162 2.74901,-2.9162 3.57701,0 3.06399,4.8764 9.77689,4.8764 2.22336,0 5.49801,-0.9954 5.49801,-3.5856 0,-2.0783 -0.14255,-2.8128 -4.9004,-4.0877 -5.08309,-0.6931 -13.31474,-2.3424 -13.31474,-8.6533 0,-5.8015 4.42048,-9.1793 11.92829,-9.1793 z"
         style="opacity:0.5;fill:#ffffff;fill-opacity:1;fill-rule:nonzero;stroke:none;display:inline;filter:url(#filter6944)"
         inkscape:connector-curvature="0" />
      <path
         id="path6932"
         d="m -65.55337,1003.5741 c -7.20091,0 -13.05179,5.8508 -13.05179,13.0518 0,2.2241 0.54702,4.3103 1.52988,6.1434 -0.32813,1.5446 -0.47809,3.1628 -0.47809,4.8048 0,12.6735 10.27461,22.9482 22.94821,22.9482 1.64198,0 3.26014,-0.1499 4.80478,-0.4781 1.83933,0.9917 3.9086,1.5299 6.14343,1.5299 7.20091,0 13.05179,-5.8509 13.05179,-13.0519 0,-2.2348 -0.5382,-4.304 -1.52988,-6.1434 0.32813,-1.5446 0.47809,-3.1628 0.47809,-4.8047 0,-12.6736 -10.27461,-22.9482 -22.94821,-22.9482 -1.64237,0 -3.25979,0.1976 -4.80478,0.5258 -1.83322,-0.983 -3.919,-1.5776 -6.14343,-1.5776 z m 10.49403,8.8207 c 7.5078,0 11.37848,3.9662 11.37848,6.2868 0,2.3206 -1.12132,2.7012 -2.96414,2.7012 -3.57702,0 -2.10782,-4.3028 -8.82072,-4.3028 -2.22336,0 -4.97211,0.9954 -4.97211,3.5857 0,2.0783 2.42485,2.8427 6.76494,3.8964 6.52485,1.7483 11.4502,3.5175 11.4502,9.49 0,5.8015 -4.77905,8.7012 -12.28685,8.7012 -7.50781,0 -12.28686,-4.4922 -12.28686,-6.8128 0,-2.3205 0.90618,-2.9162 2.74901,-2.9162 3.57701,0 3.06399,4.8764 9.77689,4.8764 2.22336,0 5.49801,-0.9954 5.49801,-3.5856 0,-2.0783 -0.14255,-2.8128 -4.9004,-4.0877 -5.08309,-0.6931 -13.31474,-2.3424 -13.31474,-8.6533 0,-5.8015 4.42048,-9.1793 11.92829,-9.1793 z"
         style="fill:#06688c;fill-opacity:1;fill-rule:nonzero;stroke:none;display:inline;filter:url(#filter6934)"
         inkscape:connector-curvature="0" />
      <path
         inkscape:connector-curvature="0"
         style="fill:#ffffff;fill-opacity:1;fill-rule:nonzero;stroke:none;display:inline"
         d="m -65.55337,1003.5741 c -7.20091,0 -13.05179,5.8508 -13.05179,13.0518 0,2.2241 0.54702,4.3103 1.52988,6.1434 -0.32813,1.5446 -0.47809,3.1628 -0.47809,4.8048 0,12.6735 10.27461,22.9482 22.94821,22.9482 1.64198,0 3.26014,-0.1499 4.80478,-0.4781 1.83933,0.9917 3.9086,1.5299 6.14343,1.5299 7.20091,0 13.05179,-5.8509 13.05179,-13.0519 0,-2.2348 -0.5382,-4.304 -1.52988,-6.1434 0.32813,-1.5446 0.47809,-3.1628 0.47809,-4.8047 0,-12.6736 -10.27461,-22.9482 -22.94821,-22.9482 -1.64237,0 -3.25979,0.1976 -4.80478,0.5258 -1.83322,-0.983 -3.919,-1.5776 -6.14343,-1.5776 z m 10.49403,8.8207 c 7.5078,0 11.37848,3.9662 11.37848,6.2868 0,2.3206 -1.12132,2.7012 -2.96414,2.7012 -3.57702,0 -2.10782,-4.3028 -8.82072,-4.3028 -2.22336,0 -4.97211,0.9954 -4.97211,3.5857 0,2.0783 2.42485,2.8427 6.76494,3.8964 6.52485,1.7483 11.4502,3.5175 11.4502,9.49 0,5.8015 -4.77905,8.7012 -12.28685,8.7012 -7.50781,0 -12.28686,-4.4922 -12.28686,-6.8128 0,-2.3205 0.90618,-2.9162 2.74901,-2.9162 3.57701,0 3.06399,4.8764 9.77689,4.8764 2.22336,0 5.49801,-0.9954 5.49801,-3.5856 0,-2.0783 -0.14255,-2.8128 -4.9004,-4.0877 -5.08309,-0.6931 -13.31474,-2.3424 -13.31474,-8.6533 0,-5.8015 4.42048,-9.1793 11.92829,-9.1793 z"
         id="path3818" />
    </g>
  </g>
  <g
     inkscape:label="Masks"
     inkscape:groupmode="layer"
     id="layer1"
     transform="translate(0,-576.36218)"
     style="display:none"
     sodipodi:insensitive="true">
    <g
       transform="matrix(3.5555556,0,0,3.5522388,0,-2685.8796)"
       id="layer1-3"
       inkscape:label="Layer 1"
       style="fill:#000000;display:inline">
      <g
         style="fill:#000000"
         inkscape:label="Layer 1"
         id="layer1-2"
         transform="translate(0,9.99998)">
        <path
           sodipodi:nodetypes="sssssssss"
           inkscape:connector-curvature="0"
           id="path3774"
           d="m 46.702703,908.3622 50.594594,0 C 138.16216,908.3622 144,914.2 144,955.06487 l 0,40.59483 c 0,40.8647 -5.83784,46.7025 -46.702703,46.7025 l -50.594594,0 C 5.8378378,1042.3622 0,1036.5244 0,995.6597 L 0,955.06487 C 0,914.2 5.8378378,908.3622 46.702703,908.3622 z"
           style="fill:#000000;fill-opacity:1;stroke:none;display:inline" />
      </g>
    </g>
  </g>
</svg>
