<?xml version="1.0" encoding="UTF-8" standalone="no"?>
<!-- Created with Inkscape (http://www.inkscape.org/) -->

<svg
   xmlns:dc="http://purl.org/dc/elements/1.1/"
   xmlns:cc="http://creativecommons.org/ns#"
   xmlns:rdf="http://www.w3.org/1999/02/22-rdf-syntax-ns#"
   xmlns:svg="http://www.w3.org/2000/svg"
   xmlns="http://www.w3.org/2000/svg"
   xmlns:xlink="http://www.w3.org/1999/xlink"
   xmlns:sodipodi="http://sodipodi.sourceforge.net/DTD/sodipodi-0.dtd"
   xmlns:inkscape="http://www.inkscape.org/namespaces/inkscape"
   width="512"
   height="476"
   id="svg3336"
   version="1.1"
   inkscape:version="0.48.3.1 r9886"
   sodipodi:docname="app_youtube_512x476px_squared.svg"
   inkscape:export-filename="PNG/app_youtube_512x476px_rounded.png"
   inkscape:export-xdpi="90"
   inkscape:export-ydpi="90">
  <defs
     id="defs3338">
    <linearGradient
       inkscape:collect="always"
       xlink:href="#linearGradient3700"
       id="linearGradient3174"
       gradientUnits="userSpaceOnUse"
       gradientTransform="matrix(1.7141587,0,0,1.7430164,-10.279616,902.46273)"
       x1="48"
       y1="90"
       x2="48"
       y2="5.9877172" />
    <linearGradient
       id="linearGradient3700">
      <stop
         style="stop-color:#cdcdcd;stop-opacity:1;"
         offset="0"
         id="stop3702" />
      <stop
         style="stop-color:#f0f0f0;stop-opacity:1;"
         offset="1"
         id="stop3704" />
    </linearGradient>
    <linearGradient
       y2="180.6748"
       x2="175.30762"
       y1="73.254395"
       x1="175.30762"
       gradientUnits="userSpaceOnUse"
       id="linearGradient3749-5">
      <stop
         id="stop3751-8"
         style="stop-color:#000000;stop-opacity:1;"
         offset="0" />
      <stop
         id="stop3753-7"
         style="stop-color:#000000;stop-opacity:0.4728682;"
         offset="0.99438202" />
    </linearGradient>
    <linearGradient
       id="SVGID_1_-4-3"
       gradientUnits="userSpaceOnUse"
       x1="383.28857"
       y1="0"
       x2="383.28857"
       y2="218.48047">
      <stop
         offset="0.005618"
         style="stop-color:#ED2828"
         id="stop3143-2-6" />
      <stop
         offset="0.99438202"
         style="stop-color:#ae1e22;stop-opacity:1;"
         id="stop3147-3-6" />
    </linearGradient>
    <linearGradient
       inkscape:collect="always"
       xlink:href="#linearGradient3700"
       id="linearGradient3126"
       gradientUnits="userSpaceOnUse"
       gradientTransform="matrix(1.7141587,0,0,1.7430164,-10.279616,326.10055)"
       x1="48"
       y1="90"
       x2="48"
       y2="5.9877172" />
    <linearGradient
       inkscape:collect="always"
       xlink:href="#linearGradient3749-5"
       id="linearGradient3128"
       gradientUnits="userSpaceOnUse"
       gradientTransform="matrix(0.26967377,0,0,0.27858027,46.287696,348.30003)"
       x1="175.30762"
       y1="73.254395"
       x2="175.30762"
       y2="180.6748" />
    <linearGradient
       inkscape:collect="always"
       xlink:href="#SVGID_1_-4-3"
       id="linearGradient3130"
       gradientUnits="userSpaceOnUse"
       gradientTransform="matrix(0.27119251,0,0,0.26089119,-31.94489,403.0001)"
       x1="383.28857"
       y1="0"
       x2="383.28857"
       y2="218.48047" />
  </defs>
  <sodipodi:namedview
     id="base"
     pagecolor="#ffffff"
     bordercolor="#666666"
     borderopacity="1.0"
     inkscape:pageopacity="0.0"
     inkscape:pageshadow="2"
     inkscape:zoom="1.0681152"
     inkscape:cx="113.42409"
     inkscape:cy="246.69623"
     inkscape:document-units="px"
     inkscape:current-layer="layer2"
     showgrid="false"
     inkscape:window-width="1920"
     inkscape:window-height="1029"
     inkscape:window-x="0"
     inkscape:window-y="24"
     inkscape:window-maximized="1" />
  <metadata
     id="metadata3341">
    <rdf:RDF>
      <cc:Work
         rdf:about="">
        <dc:format>image/svg+xml</dc:format>
        <dc:type
           rdf:resource="http://purl.org/dc/dcmitype/StillImage" />
        <dc:title></dc:title>
      </cc:Work>
    </rdf:RDF>
  </metadata>
  <g
     inkscape:groupmode="layer"
     id="layer2"
     inkscape:label="Icon">
    <g
       id="g3119"
       transform="matrix(3.5552922,0,0,3.5522383,0.01362823,-1214.8654)"
       clip-path="none">
      <path
         inkscape:connector-curvature="0"
         id="rect2419"
         d="m 0,342 0,40.21875 c -0.012,2.68076 0,5.54367 0,8.59375 l 0,36.37502 c 0,3.0502 -0.012,5.9442 0,8.625 l 0,40.1875 40.0625,0 63.875,0 40.0625,0 0,-40.1875 c 0.012,-2.6808 0,-5.5748 0,-8.625 l 0,-36.37502 c 0,-3.05008 0.012,-5.91299 0,-8.59375 L 144,342 103.9375,342 39.53125,342 0,342 z"
         clip-path="none"
         style="fill:url(#linearGradient3126);fill-opacity:1;fill-rule:nonzero;stroke:none" />
      <path
         sodipodi:nodetypes="cccccccccccsssscscsssscscsccccccccscsccscsscscsscs"
         inkscape:connector-curvature="0"
         id="path3069"
         d="m 43.877161,358.19746 7.124471,24.15891 0,15.85603 5.999556,0 0,-16.60597 6.96377,-23.40897 -6.10669,0 -3.696155,16.01666 -0.374973,0 -3.856856,-16.01666 z m 27.794109,9.74927 c -2.412982,0 -4.35567,0.68108 -5.785287,2.03557 -1.4296,1.35448 -2.142698,3.17918 -2.142698,5.46388 l 0,15.32029 c 0,2.50603 0.695083,4.4632 2.089132,5.94593 1.393411,1.4826 3.248243,2.24985 5.571015,2.24985 2.412195,0 4.302523,-0.7056 5.67815,-2.1426 1.375494,-1.43704 2.089133,-3.42142 2.089133,-5.94605 l 0,-15.26673 c 0,-2.24794 -0.686123,-4.08967 -2.089133,-5.51744 -1.403021,-1.42778 -3.213154,-2.1427 -5.410312,-2.1427 z m 11.181934,0.74995 0,24.64103 c 0,1.75642 0.341653,3.08576 0.964214,3.96404 0.622576,0.87855 1.504575,1.33905 2.731939,1.33905 0.995483,0 2.048634,-0.33795 3.106914,-0.9642 1.058295,-0.6273 2.074724,-1.53211 3.053344,-2.73187 l 0,3.26767 5.30318,0 0,-29.51572 -5.30318,0 0,22.3912 c -0.498655,0.64474 -1.064625,1.19239 -1.660591,1.60702 -0.595964,0.41401 -1.054842,0.58924 -1.446321,0.58924 -0.49852,0 -0.902658,-0.1155 -1.124916,-0.42855 -0.222349,-0.31278 -0.31831,-0.85384 -0.321405,-1.55345 l 0,-22.60546 z m -11.449772,4.39252 c 0.702372,0 1.282518,0.19321 1.714159,0.58924 0.431626,0.39605 0.642809,0.90872 0.642809,1.55346 l 0,16.07024 c 0,0.7933 -0.219993,1.42277 -0.642809,1.87486 -0.423603,0.45165 -0.994153,0.64281 -1.714159,0.64281 -0.702373,0 -1.229389,-0.20039 -1.607024,-0.64281 -0.378574,-0.44289 -0.589242,-1.06253 -0.589242,-1.87486 l 0,-16.07024 c 0,-0.64474 0.237644,-1.15741 0.64281,-1.55346 0.405031,-0.39603 0.905875,-0.58924 1.553456,-0.58924 z"
         style="fill:url(#linearGradient3128);fill-opacity:1;display:inline" />
      <path
         inkscape:connector-curvature="0"
         id="path3149"
         d="m 115.41259,415.64838 c 0,-6.67169 -5.69239,-12.08488 -12.70738,-12.08488 -10.011872,-0.402 -20.256272,-0.5805 -30.70513,-0.5622 -10.448854,-0.0165 -20.692726,0.16035 -30.705266,0.5622 -7.014326,0 -12.707238,5.41319 -12.707238,12.08488 -0.421104,5.2839 -0.603845,10.56764 -0.587413,15.85164 -0.01608,5.2838 0.166324,10.5677 0.587535,15.8516 0,6.6717 5.69279,12.0852 12.707386,12.0852 10.01227,0.402 20.256142,0.5805 30.704996,0.5616 10.448858,0.021 20.693258,-0.1604 30.70513,-0.5616 7.01499,0 12.70738,-5.4135 12.70738,-12.0852 0.4211,-5.2839 0.60383,-10.5678 0.58741,-15.8516 0.0162,-5.284 -0.16628,-10.56774 -0.58741,-15.85164 z"
         style="fill:url(#linearGradient3130);display:inline" />
      <path
         style="fill:#000000;display:inline"
         d="m 38.841819,414.36889 0,4.98164 5.571017,0 0,29.30159 5.356746,0 0,-29.30159 5.517447,0 0,-4.98164 -16.44521,0 z m 32.997556,0 0,34.28323 4.821071,0 0,-1.9286 c 0.623816,0.7703 1.308093,1.3446 2.035564,1.7142 0.727469,0.3695 1.53592,0.5357 2.464102,0.5357 1.406891,0 2.470553,-0.4917 3.214048,-1.4463 0.743488,-0.9545 1.124917,-2.3262 1.124917,-4.1247 l 0,-14.0346 c 0,-2.0659 -0.386466,-3.6339 -1.178484,-4.714 -0.791553,-1.08 -1.925314,-1.607 -3.428317,-1.607 -0.736426,0 -1.476333,0.1877 -2.196266,0.5892 -0.719461,0.4025 -1.395726,0.9959 -2.035564,1.7678 l 0,-11.03493 -4.821071,0 z m 24.480329,8.35653 c -2.125407,0 -3.908218,0.7072 -5.249612,2.089 -1.342335,1.3827 -1.981996,3.1611 -1.981996,5.3568 l 0,11.3563 c 0,2.4347 0.59957,4.3406 1.821293,5.7318 1.222189,1.3907 2.909933,2.0891 5.035342,2.0891 2.364284,0 4.113029,-0.6702 5.303179,-1.982 1.19015,-1.3119 1.82129,-3.2464 1.82129,-5.8389 l 0,-1.9285 -4.928203,0 0,1.7679 c 0,1.4881 -0.115215,2.4577 -0.428539,2.8926 -0.313329,0.4353 -0.873282,0.6427 -1.660593,0.6427 -0.756686,0 -1.293702,-0.2347 -1.607023,-0.7498 -0.313327,-0.5147 -0.482107,-1.4561 -0.482107,-2.7855 l 0,-4.7676 9.106465,0 0,-6.4281 c 0,-2.4006 -0.60207,-4.2376 -1.76772,-5.5174 -1.1666,-1.2798 -2.809255,-1.9284 -4.981776,-1.9284 z m -41.300512,0.6427 0,21.1057 c 0,1.5059 0.300157,2.6747 0.85708,3.4283 0.55691,0.7528 1.366297,1.1248 2.464103,1.1248 0.890493,0 1.838945,-0.2665 2.785507,-0.8034 0.947038,-0.5379 1.856526,-1.3284 2.731941,-2.3569 l 0,2.7855 4.713937,0 0,-25.284 -4.713937,0 0,19.1772 c -0.445718,0.5529 -0.967008,1.0378 -1.499889,1.3927 -0.533356,0.3555 -0.935549,0.5358 -1.285618,0.5358 -0.44572,0 -0.765385,-0.1594 -0.964216,-0.4285 -0.19881,-0.2684 -0.321404,-0.6858 -0.321404,-1.2857 l 0,-19.3915 -4.767504,0 z m 23.62325,3.6962 c 0.644072,0 1.108029,0.2005 1.446321,0.6427 0.338765,0.4424 0.535675,1.129 0.535675,1.9821 l 0,13.0168 c 0,0.8063 -0.154788,1.4123 -0.42854,1.7679 -0.273725,0.3549 -0.705624,0.5357 -1.28562,0.5357 -0.403318,0 -0.762122,-0.086 -1.124916,-0.2679 -0.363264,-0.1811 -0.738566,-0.4997 -1.124916,-0.9107 l 0,-15.7487 c 0.322271,-0.3476 0.633455,-0.6374 0.964214,-0.8037 0.330286,-0.1646 0.679489,-0.2142 1.017782,-0.2142 z m 16.927316,0.1065 c 0.162263,-0.029 0.346742,0 0.535675,0 0.723232,0 1.223647,0.1846 1.553457,0.6427 0.329355,0.4587 0.482107,1.2448 0.482107,2.3035 l 0,2.5712 -4.178262,0 0,-2.5712 c 0,-1.0587 0.151824,-1.8448 0.482107,-2.3035 0.246991,-0.3435 0.63812,-0.5568 1.124916,-0.6427 z"
         id="path3958"
         inkscape:connector-curvature="0" />
      <path
         inkscape:connector-curvature="0"
         id="path3095"
         d="m 38.841819,413.16844 0,4.98164 5.571017,0 0,29.30154 5.356746,0 0,-29.30154 5.517447,0 0,-4.98164 -16.44521,0 z m 32.997556,0 0,34.28318 4.821071,0 0,-1.9284 c 0.623816,0.7701 1.308093,1.3445 2.035564,1.7141 0.727469,0.3694 1.53592,0.5356 2.464102,0.5356 1.406891,0 2.470553,-0.4917 3.214048,-1.4463 0.743488,-0.9544 1.124917,-2.3262 1.124917,-4.1247 l 0,-14.0345 c 0,-2.066 -0.386466,-3.6339 -1.178484,-4.7141 -0.791553,-1.07999 -1.925314,-1.60694 -3.428317,-1.60694 -0.736426,0 -1.476333,0.18765 -2.196266,0.5892 -0.719461,0.40244 -1.395726,0.99584 -2.035564,1.76774 l 0,-11.03488 -4.821071,0 z m 24.480329,8.35649 c -2.125407,0 -3.908218,0.70725 -5.249612,2.08909 -1.342335,1.3827 -1.981996,3.1611 -1.981996,5.3567 l 0,11.3564 c 0,2.4348 0.59957,4.3405 1.821293,5.7318 1.222189,1.3906 2.909933,2.089 5.035342,2.089 2.364284,0 4.113029,-0.67 5.303179,-1.9819 1.19015,-1.3119 1.82129,-3.2465 1.82129,-5.8389 l 0,-1.9286 -4.928203,0 0,1.7679 c 0,1.4882 -0.115215,2.4578 -0.428539,2.8926 -0.313329,0.4353 -0.873282,0.6429 -1.660593,0.6429 -0.756686,0 -1.293702,-0.2349 -1.607023,-0.75 -0.313327,-0.5146 -0.482107,-1.456 -0.482107,-2.7855 l 0,-4.7676 9.106465,0 0,-6.4281 c 0,-2.4004 -0.60207,-4.2376 -1.76772,-5.5174 -1.1666,-1.27964 -2.809255,-1.92839 -4.981776,-1.92839 z m -41.300512,0.6429 0,21.10559 c 0,1.5058 0.300157,2.6748 0.85708,3.4282 0.55691,0.7529 1.366297,1.1249 2.464103,1.1249 0.890493,0 1.838945,-0.2666 2.785507,-0.8034 0.947038,-0.5379 1.856526,-1.3284 2.731941,-2.357 l 0,2.7855 4.713937,0 0,-25.28379 -4.713937,0 0,19.17699 c -0.445718,0.5529 -0.967008,1.0379 -1.499889,1.3929 -0.533356,0.3555 -0.935549,0.5357 -1.285618,0.5357 -0.44572,0 -0.765385,-0.1595 -0.964216,-0.4286 -0.19881,-0.2683 -0.321404,-0.6856 -0.321404,-1.2856 l 0,-19.39139 -4.767504,0 z m 23.62325,3.69599 c 0.644072,0 1.108029,0.2006 1.446321,0.6429 0.338765,0.4422 0.535675,1.1289 0.535675,1.982 l 0,13.0168 c 0,0.8062 -0.154788,1.4124 -0.42854,1.7679 -0.273725,0.3549 -0.705624,0.5356 -1.28562,0.5356 -0.403318,0 -0.762122,-0.086 -1.124916,-0.2679 -0.363264,-0.181 -0.738566,-0.4995 -1.124916,-0.9106 l 0,-15.7488 c 0.322271,-0.3474 0.633455,-0.6373 0.964214,-0.8035 0.330286,-0.1646 0.679489,-0.2144 1.017782,-0.2144 z m 16.927316,0.1065 c 0.162263,-0.029 0.346742,0 0.535675,0 0.723232,0 1.223647,0.1848 1.553457,0.6428 0.329355,0.4587 0.482107,1.2448 0.482107,2.3035 l 0,2.5711 -4.178262,0 0,-2.5711 c 0,-1.0587 0.151824,-1.8448 0.482107,-2.3035 0.246991,-0.3435 0.63812,-0.5568 1.124916,-0.6428 z"
         style="fill:#ffffff;display:inline" />
    </g>
  </g>
  <g
     inkscape:label="Masks"
     inkscape:groupmode="layer"
     id="layer1"
     transform="translate(0,-576.36218)"
     style="display:none">
    <g
       transform="matrix(3.5555556,0,0,3.5522388,0,-2685.8796)"
       id="layer1-3"
       inkscape:label="Layer 1"
       style="fill:#000000;display:inline">
      <g
         style="fill:#000000"
         inkscape:label="Layer 1"
         id="layer1-2"
         transform="translate(0,9.99998)">
        <path
           sodipodi:nodetypes="sssssssss"
           inkscape:connector-curvature="0"
           id="path3774"
           d="m 46.702703,908.3622 50.594594,0 C 138.16216,908.3622 144,914.2 144,955.06487 l 0,40.59483 c 0,40.8647 -5.83784,46.7025 -46.702703,46.7025 l -50.594594,0 C 5.8378378,1042.3622 0,1036.5244 0,995.6597 L 0,955.06487 C 0,914.2 5.8378378,908.3622 46.702703,908.3622 z"
           style="fill:#000000;fill-opacity:1;stroke:none;display:inline" />
      </g>
    </g>
  </g>
</svg>
