<?xml version="1.0" encoding="UTF-8" standalone="no"?>
<!-- Created with Inkscape (http://www.inkscape.org/) -->
<svg
   xmlns:svg="http://www.w3.org/2000/svg"
   xmlns="http://www.w3.org/2000/svg"
   version="1.0"
   width="24"
   height="24"
   id="svg3172">
  <defs
     id="defs3174" />
  <g
     id="layer1">
    <path
       d="M 19.5,12 C 19.500446,16.142451 16.14245,19.500807 12,19.500807 C 7.8575492,19.500807 4.4995543,16.142451 4.4999997,12 C 4.4995543,7.8575497 7.8575492,4.4991936 12,4.4991936 C 16.14245,4.4991936 19.500446,7.8575497 19.5,12 z"
       id="path2394"
       style="opacity:0.6;fill:none;fill-opacity:1;fill-rule:nonzero;stroke:#3a3935;stroke-width:0.99999988;stroke-linecap:round;stroke-linejoin:miter;marker:none;marker-start:none;marker-mid:none;marker-end:none;stroke-miterlimit:4;stroke-dasharray:none;stroke-dashoffset:0;stroke-opacity:1;visibility:visible;display:inline;overflow:visible;enable-background:accumulate" />
    <path
       d="M 12,5 C 8.1360001,5 5,8.1360005 5,12 C 5,15.864 8.1359999,18.999999 12,19 C 15.864,19 19,15.864 19,12 C 19,8.1360001 15.864,5.0000002 12,5 z M 15,7 L 17,9 L 11.5,16.5 L 7.5,13 L 9.5,11 L 11.5,13 L 15,7 z"
       id="path2396"
       style="fill:#eae3d0;fill-opacity:1;fill-rule:nonzero;stroke:none;stroke-width:3;stroke-linecap:round;stroke-linejoin:miter;marker:none;marker-start:none;marker-mid:none;marker-end:none;stroke-miterlimit:4;stroke-dasharray:none;stroke-dashoffset:0;stroke-opacity:1;visibility:visible;display:inline;overflow:visible;enable-background:accumulate" />
    <path
       d="M 7.8544493,13 L 9.5,11.354449 L 11.554531,13.40898 L 15.054531,7.40898 L 16.672816,9.0272653 L 11.472735,16.145551 L 7.8544493,13 z"
       id="path3170"
       style="opacity:0.3;fill:none;fill-opacity:1;fill-rule:evenodd;stroke:#ffffff;stroke-width:0.5;stroke-linecap:butt;stroke-linejoin:miter;stroke-miterlimit:4;stroke-dasharray:none;stroke-opacity:1" />
  </g>
</svg>
