<?xml version="1.0" encoding="UTF-8" standalone="no"?>
<!-- Created with Inkscape (http://www.inkscape.org/) -->
<svg
   xmlns:svg="http://www.w3.org/2000/svg"
   xmlns="http://www.w3.org/2000/svg"
   version="1.0"
   width="24"
   height="24"
   id="svg3233">
  <defs
     id="defs3235" />
  <path
     d="M 11.5,12.496861 L 13.500493,12.496861 M 15.5,12.496861 L 17.500493,12.496861 M 19.5,12.496861 L 21.500493,12.496861"
     id="path3210"
     style="opacity:0.6;fill:none;fill-opacity:1;fill-rule:nonzero;stroke:#43423e;stroke-width:3;stroke-linecap:round;stroke-linejoin:miter;marker:none;marker-start:none;marker-mid:none;marker-end:none;stroke-miterlimit:4;stroke-dasharray:none;stroke-dashoffset:0;stroke-opacity:1;visibility:visible;display:inline;overflow:visible;enable-background:accumulate" />
  <path
     d="M 8,6 C 7.2817061,5.9788098 6.6589577,6.4120877 6.25,6.96875 C 5.6757545,7.6432609 5.1054957,8.3254892 4.53125,9 C 3.7951404,9.0428118 3.0254897,8.8941993 2.3125,9.125 C 1.4374402,9.4320775 0.90134339,10.370281 1,11.28125 C 1.0112526,12.286977 0.98064162,13.308713 1.03125,14.3125 C 1.1725289,15.345879 2.1896745,16.106353 3.21875,16 C 3.6657907,16 4.1154595,16 4.5625,16 C 5.2755602,16.820463 5.9886224,17.6379 6.6875,18.46875 C 7.4572326,19.268387 8.8660353,19.141974 9.53125,18.28125 C 9.9905879,17.780008 10.021231,17.077618 10,16.4375 C 9.9982437,13.593362 10.006157,10.750332 10,7.90625 C 9.9611407,6.876002 9.0323818,5.9844595 8,6 z M 7.96875,8.0625 L 7.96875,16.8125 C 7.9585574,16.801862 7.9481384,16.791443 7.9375,16.78125 L 5.78125,14.3125 C 5.5825772,14.090633 5.2977987,13.965331 5,13.96875 L 3.03125,13.96875 C 3.0332222,12.995971 3.0254718,11.997122 3.03125,11.03125 C 3.0918121,11.03125 5,11.03125 5,11.03125 C 5.3028012,11.026835 5.5884071,10.889745 5.78125,10.65625 L 7.96875,8.0625 z"
     id="path3228"
     style="opacity:0.6;fill:#43423e;fill-opacity:1;fill-rule:evenodd;stroke:none;stroke-width:1.69999993;stroke-linecap:round;stroke-linejoin:miter;marker:none;marker-start:none;marker-mid:none;marker-end:none;stroke-miterlimit:4;stroke-dasharray:none;stroke-dashoffset:0;stroke-opacity:1;visibility:visible;display:inline;overflow:visible;enable-background:accumulate" />
  <path
     d="M 8,7 C 7.6947765,7 7.4334727,7.1279595 7.25,7.34375 L 5,10 C 5,10 3,10 3,10 C 2.448,10 2,10.448 2,11 C 1.9937314,11.996071 2.0022172,13.014549 2,14 C 2,14.552 2.4480001,15 3,15 L 5,15 L 7.15625,17.46875 C 7.3276084,17.773669 7.6255544,18 8,18 C 8.552,18 9.0000004,17.552 9,17 L 9,8 C 9,7.448 8.5519997,7 8,7 z M 7.96875,8.0625 L 7.96875,16.8125 C 7.9585574,16.801862 7.9481384,16.791443 7.9375,16.78125 L 5.78125,14.3125 C 5.5825772,14.090633 5.2977987,13.965331 5,13.96875 L 3.03125,13.96875 C 3.0332222,12.995971 3.0254718,11.997122 3.03125,11.03125 C 3.0918121,11.03125 5,11.03125 5,11.03125 C 5.3028012,11.026835 5.5884071,10.889745 5.78125,10.65625 L 7.96875,8.0625 z"
     id="rect3180"
     style="opacity:1;fill:#dfd8c8;fill-opacity:1;fill-rule:evenodd;stroke:none;stroke-width:1.69999993;stroke-linecap:round;stroke-linejoin:miter;marker:none;marker-start:none;marker-mid:none;marker-end:none;stroke-miterlimit:4;stroke-dasharray:none;stroke-dashoffset:0;stroke-opacity:1;visibility:visible;display:inline;overflow:visible;enable-background:accumulate" />
  <path
     d="M 11.5,12.496861 L 13.500493,12.496861 M 15.5,12.496861 L 17.500493,12.496861 M 19.5,12.496861 L 21.500493,12.496861"
     id="path3200"
     style="opacity:1;fill:none;fill-rule:evenodd;stroke:#dfd8c8;stroke-width:1.00000012px;stroke-linecap:round;stroke-linejoin:miter;stroke-opacity:1" />
  <path
     d="M 7.71875,8.75 L 5.96875,10.8125 C 5.7309449,11.104199 5.3763109,11.275796 5,11.28125 C 5,11.28125 3.6966705,11.28125 3.28125,11.28125 C 3.2782708,12.08493 3.2816212,12.90757 3.28125,13.71875 L 5,13.71875 C 5.3712452,13.71643 5.7250258,13.876202 5.96875,14.15625 L 7.71875,16.15625 L 7.71875,8.75 z"
     id="path3161"
     style="opacity:0.3;fill:none;fill-opacity:1;fill-rule:evenodd;stroke:#ffffff;stroke-width:0.5;stroke-linecap:round;stroke-linejoin:miter;marker:none;marker-start:none;marker-mid:none;marker-end:none;stroke-miterlimit:4;stroke-dasharray:none;stroke-dashoffset:0;stroke-opacity:1;visibility:visible;display:inline;overflow:visible;enable-background:accumulate" />
</svg>
