<?xml version="1.0" encoding="UTF-8" standalone="no"?>
<!-- Created with Inkscape (http://www.inkscape.org/) -->

<svg
   xmlns:dc="http://purl.org/dc/elements/1.1/"
   xmlns:cc="http://creativecommons.org/ns#"
   xmlns:rdf="http://www.w3.org/1999/02/22-rdf-syntax-ns#"
   xmlns:svg="http://www.w3.org/2000/svg"
   xmlns="http://www.w3.org/2000/svg"
   xmlns:sodipodi="http://sodipodi.sourceforge.net/DTD/sodipodi-0.dtd"
   xmlns:inkscape="http://www.inkscape.org/namespaces/inkscape"
   width="14"
   height="24"
   id="svg3330"
   version="1.1"
   inkscape:version="0.48.0 r9654"
   sodipodi:docname="audio-input-microphone-high-panel.svg">
  <defs
     id="defs3332" />
  <sodipodi:namedview
     id="base"
     pagecolor="#ffffff"
     bordercolor="#666666"
     borderopacity="1.0"
     inkscape:pageopacity="0.0"
     inkscape:pageshadow="2"
     inkscape:zoom="13.420134"
     inkscape:cx="-6.2295627"
     inkscape:cy="14.454764"
     inkscape:current-layer="layer1"
     showgrid="true"
     inkscape:grid-bbox="true"
     inkscape:document-units="px"
     inkscape:window-width="1280"
     inkscape:window-height="753"
     inkscape:window-x="0"
     inkscape:window-y="24"
     inkscape:window-maximized="1" />
  <metadata
     id="metadata3335">
    <rdf:RDF>
      <cc:Work
         rdf:about="">
        <dc:format>image/svg+xml</dc:format>
        <dc:type
           rdf:resource="http://purl.org/dc/dcmitype/StillImage" />
        <dc:title></dc:title>
      </cc:Work>
    </rdf:RDF>
  </metadata>
  <g
     id="layer1"
     inkscape:label="Layer 1"
     inkscape:groupmode="layer"
     transform="translate(0,8)">
    <path
       style="opacity:0.3;color:#000000;fill:#000000;fill-opacity:1;fill-rule:nonzero;stroke:none;stroke-width:1;marker:none;visibility:visible;display:inline;overflow:visible;enable-background:accumulate"
       d="m 7,-5 c -1.662,0 -3,1.338 -3,3 l 0,8 c 0,1.662 1.338,3 3,3 1.662,0 3,-1.338 3,-3 l 0,-8 C 10,-3.662 8.662,-5 7,-5 z M 1,2 1,3 2,3 2,6 c 0,2.42375 1.717481,4.441543 4,4.90625 L 6,13 5,13 5,14 9,14 9,13 8,13 8,10.90625 C 10.28252,10.441543 12,8.42375 12,6 l 0,-3 1,0 0,-1 -1,0 -1,0 0,4 C 11,8.216 9.216,10 7,10 4.784,10 3,8.216 3,6 L 3,2 2,2 1,2 z"
       id="path3122-6"
       inkscape:connector-curvature="0" />
    <path
       style="color:#000000;fill:#dfdbd2;fill-opacity:1;fill-rule:nonzero;stroke:none;stroke-width:1;marker:none;visibility:visible;display:inline;overflow:visible;enable-background:accumulate"
       d="m 7,-6 c -1.662,0 -3,1.338 -3,3 l 0,8 c 0,1.662 1.338,3 3,3 1.662,0 3,-1.338 3,-3 l 0,-8 C 10,-4.662 8.662,-6 7,-6 z M 1,1 1,2 2,2 2,5 C 2,7.42375 3.717481,9.441543 6,9.90625 L 6,12 5,12 5,13 9,13 9,12 8,12 8,9.90625 C 10.28252,9.441543 12,7.42375 12,5 l 0,-3 1,0 0,-1 -1,0 -1,0 0,4 C 11,7.216 9.216,9 7,9 4.784,9 3,7.216 3,5 L 3,1 2,1 1,1 z"
       id="path3122"
       inkscape:connector-curvature="0" />
  </g>
</svg>
