<?xml version="1.0" encoding="UTF-8" standalone="no"?>
<!-- Created with Inkscape (http://www.inkscape.org/) -->

<svg
   xmlns:dc="http://purl.org/dc/elements/1.1/"
   xmlns:cc="http://creativecommons.org/ns#"
   xmlns:rdf="http://www.w3.org/1999/02/22-rdf-syntax-ns#"
   xmlns:svg="http://www.w3.org/2000/svg"
   xmlns="http://www.w3.org/2000/svg"
   xmlns:sodipodi="http://sodipodi.sourceforge.net/DTD/sodipodi-0.dtd"
   xmlns:inkscape="http://www.inkscape.org/namespaces/inkscape"
   version="1.1"
   width="14"
   height="24"
   id="svg3330"
   inkscape:version="0.48.0 r9654"
   sodipodi:docname="audio-input-microphone-none-panel.svg">
  <sodipodi:namedview
     pagecolor="#ffffff"
     bordercolor="#666666"
     borderopacity="1"
     objecttolerance="10"
     gridtolerance="10"
     guidetolerance="10"
     inkscape:pageopacity="0"
     inkscape:pageshadow="2"
     inkscape:window-width="1092"
     inkscape:window-height="753"
     id="namedview13"
     showgrid="false"
     inkscape:zoom="11.913009"
     inkscape:cx="7"
     inkscape:cy="11"
     inkscape:window-x="0"
     inkscape:window-y="24"
     inkscape:window-maximized="0"
     inkscape:current-layer="svg3330" />
  <defs
     id="defs3332" />
  <metadata
     id="metadata3335">
    <rdf:RDF>
      <cc:Work
         rdf:about="">
        <dc:format>image/svg+xml</dc:format>
        <dc:type
           rdf:resource="http://purl.org/dc/dcmitype/StillImage" />
        <dc:title></dc:title>
      </cc:Work>
    </rdf:RDF>
  </metadata>
  <g
     transform="translate(0,7)"
     id="layer1">
    <g
       id="g3788"
       style="opacity:0.4">
      <path
         d="m 7,-4 c -1.662,0 -3,1.338 -3,3 l 0,8 c 0,1.662 1.338,3 3,3 1.662,0 3,-1.338 3,-3 l 0,-8 C 10,-2.662 8.662,-4 7,-4 z M 1,3 1,4 2,4 2,7 c 0,2.42375 1.717481,4.441543 4,4.90625 L 6,14 5,14 5,15 9,15 9,14 8,14 8,11.90625 C 10.28252,11.441543 12,9.42375 12,7 l 0,-3 1,0 0,-1 -1,0 -1,0 0,4 C 11,9.216 9.216,11 7,11 4.784,11 3,9.216 3,7 L 3,3 2,3 1,3 z"
         id="path3122-6"
         style="opacity:0.3;color:#000000;fill:#000000;fill-opacity:1;fill-rule:nonzero;stroke:none;stroke-width:1;marker:none;visibility:visible;display:inline;overflow:visible;enable-background:accumulate"
         inkscape:connector-curvature="0" />
      <path
         d="M 7,1 C 5.338,1 4,2.338 4,4 l 0,8 c 0,1.662 1.338,3 3,3 1.662,0 3,-1.338 3,-3 L 10,4 C 10,2.338 8.662,1 7,1 z m -6,7 0,1 1,0 0,3 c 0,2.42375 1.717481,4.441543 4,4.90625 L 6,19 5,19 5,20 9,20 9,19 8,19 8,16.90625 C 10.28252,16.441543 12,14.42375 12,12 l 0,-3 1,0 0,-1 -1,0 -1,0 0,4 C 11,14.216 9.216,16 7,16 4.784,16 3,14.216 3,12 L 3,8 2,8 1,8 z"
         transform="translate(0,-6)"
         id="path3122"
         style="color:#000000;fill:#dfdbd2;fill-opacity:1;fill-rule:nonzero;stroke:none;stroke-width:1;marker:none;visibility:visible;display:inline;overflow:visible;enable-background:accumulate"
         inkscape:connector-curvature="0" />
    </g>
  </g>
</svg>
