<?xml version="1.0" encoding="UTF-8" standalone="no"?>
<!-- Created with Inkscape (http://www.inkscape.org/) -->

<svg
   xmlns:dc="http://purl.org/dc/elements/1.1/"
   xmlns:cc="http://creativecommons.org/ns#"
   xmlns:rdf="http://www.w3.org/1999/02/22-rdf-syntax-ns#"
   xmlns:svg="http://www.w3.org/2000/svg"
   xmlns="http://www.w3.org/2000/svg"
   xmlns:sodipodi="http://sodipodi.sourceforge.net/DTD/sodipodi-0.dtd"
   xmlns:inkscape="http://www.inkscape.org/namespaces/inkscape"
   version="1.0"
   width="24"
   height="24"
   id="svg3172"
   inkscape:version="0.47 r22583"
   sodipodi:docname="audio-volume-low-panel.svg">
  <metadata
     id="metadata11">
    <rdf:RDF>
      <cc:Work
         rdf:about="">
        <dc:format>image/svg+xml</dc:format>
        <dc:type
           rdf:resource="http://purl.org/dc/dcmitype/StillImage" />
        <dc:title></dc:title>
      </cc:Work>
    </rdf:RDF>
  </metadata>
  <sodipodi:namedview
     pagecolor="#ffffff"
     bordercolor="#666666"
     borderopacity="1"
     objecttolerance="10"
     gridtolerance="10"
     guidetolerance="10"
     inkscape:pageopacity="0"
     inkscape:pageshadow="2"
     inkscape:window-width="640"
     inkscape:window-height="480"
     id="namedview9"
     showgrid="false"
     inkscape:zoom="14.125"
     inkscape:cx="12"
     inkscape:cy="12"
     inkscape:window-x="0"
     inkscape:window-y="24"
     inkscape:window-maximized="0"
     inkscape:current-layer="svg3172" />
  <defs
     id="defs3174">
    <inkscape:perspective
       sodipodi:type="inkscape:persp3d"
       inkscape:vp_x="0 : 12 : 1"
       inkscape:vp_y="0 : 1000 : 0"
       inkscape:vp_z="24 : 12 : 1"
       inkscape:persp3d-origin="12 : 8 : 1"
       id="perspective13" />
  </defs>
  <path
     style="opacity:0.6;fill:#43423e;fill-opacity:1;fill-rule:evenodd;stroke:none;stroke-width:1.69999993;marker:none;visibility:visible;display:inline;overflow:visible;enable-background:accumulate"
     id="path3228"
     d="M 8,6 C 7.2817061,5.9788098 6.6629447,6.4198054 6.253987,6.9764677 5.6797413,7.6509785 5.1054957,8.3254892 4.53125,9 3.7951404,9.0428118 3.0308297,8.8921008 2.31784,9.1229015 1.4427803,9.4299794 0.89993358,10.372188 0.99859019,11.283157 1.0098428,12.288884 0.97276462,13.297617 1.023373,14.301404 1.1646519,15.334783 2.1923029,16.106353 3.2213784,16 3.668419,16 4.1154595,16 4.5625,16 5.2755602,16.820463 5.9992798,17.633689 6.6981574,18.464539 7.4678899,19.264176 8.873642,19.1272 9.5388567,18.266476 9.9981944,17.765234 10.021231,17.070859 10,16.430741 9.9982437,13.586602 10.003516,10.742372 9.9973586,7.8982899 9.958499,6.8680417 9.0323818,5.9844595 8,6 z" />
  <path
     style="fill:#dfd8c8;fill-opacity:1;fill-rule:evenodd;stroke:none;stroke-width:1.69999993;marker:none;visibility:visible;display:inline;overflow:visible;enable-background:accumulate"
     id="rect3180"
     d="M 8,7 C 7.6947765,7 7.4334727,7.1279595 7.25,7.34375 L 5,10 c 0,0 -2,0 -2,0 -0.552,0 -1,0.448 -1,1 -0.00627,0.996071 0.00222,2.014549 0,3 0,0.552 0.4480001,1 1,1 l 2,0 2.15625,2.46875 C 7.3276084,17.773669 7.6255544,18 8,18 8.552,18 9.0000004,17.552 9,17 L 9,8 C 9,7.448 8.5519997,7 8,7 z" />
</svg>
