<?xml version="1.0" encoding="UTF-8" standalone="no"?>
<!-- Created with Inkscape (http://www.inkscape.org/) -->
<svg
   xmlns:dc="http://purl.org/dc/elements/1.1/"
   xmlns:cc="http://creativecommons.org/ns#"
   xmlns:rdf="http://www.w3.org/1999/02/22-rdf-syntax-ns#"
   xmlns:svg="http://www.w3.org/2000/svg"
   xmlns="http://www.w3.org/2000/svg"
   xmlns:sodipodi="http://sodipodi.sourceforge.net/DTD/sodipodi-0.dtd"
   xmlns:inkscape="http://www.inkscape.org/namespaces/inkscape"
   version="1.0"
   width="24"
   height="24"
   id="svg3240"
   sodipodi:version="0.32"
   inkscape:version="0.46"
   sodipodi:docname="battery-080-charging.svg"
   inkscape:output_extension="org.inkscape.output.svg.inkscape">
  <metadata
     id="metadata12">
    <rdf:RDF>
      <cc:Work
         rdf:about="">
        <dc:format>image/svg+xml</dc:format>
        <dc:type
           rdf:resource="http://purl.org/dc/dcmitype/StillImage" />
      </cc:Work>
    </rdf:RDF>
  </metadata>
  <sodipodi:namedview
     inkscape:window-height="781"
     inkscape:window-width="1440"
     inkscape:pageshadow="2"
     inkscape:pageopacity="0.0"
     guidetolerance="10.0"
     gridtolerance="10.0"
     objecttolerance="10.0"
     borderopacity="1.0"
     bordercolor="#666666"
     pagecolor="#ffffff"
     id="base"
     showgrid="false"
     inkscape:zoom="20.75"
     inkscape:cx="4.5301205"
     inkscape:cy="12"
     inkscape:window-x="0"
     inkscape:window-y="24"
     inkscape:current-layer="layer1" />
  <defs
     id="defs3242">
    <inkscape:perspective
       sodipodi:type="inkscape:persp3d"
       inkscape:vp_x="0 : 12 : 1"
       inkscape:vp_y="0 : 1000 : 0"
       inkscape:vp_z="24 : 12 : 1"
       inkscape:persp3d-origin="12 : 8 : 1"
       id="perspective14" />
  </defs>
  <g
     id="layer1">
    <rect
       width="14.5"
       height="7.5"
       rx="0.25"
       ry="0.25"
       x="5.25"
       y="8.25"
       id="rect3236"
       style="opacity:0.3;fill:none;fill-opacity:1;fill-rule:nonzero;stroke:#ffffff;stroke-width:0.5;stroke-linecap:round;stroke-linejoin:miter;marker:none;marker-start:none;marker-mid:none;marker-end:none;stroke-miterlimit:4;stroke-dasharray:none;stroke-dashoffset:0;stroke-opacity:1;visibility:visible;display:inline;overflow:visible;enable-background:accumulate" />
    <path
       d="M 19.502042,6.5 C 20.610042,6.5 21.502042,7.392 21.502042,8.5 L 21.502042,15.5 C 21.502042,16.608 20.610042,17.5 19.502042,17.5 L 5.5020421,17.5 C 4.3940421,17.5 3.5020411,16.608 3.5020421,15.5 L 3.5020421,14.5 C 2.9151811,14.465401 2.3417141,14.262611 1.9707921,13.78125 C 1.4455791,13.206345 1.5559811,12.592479 1.5020421,11.6875 C 1.4481031,10.782521 2.4710771,9.5237494 3.5758311,9.5 L 3.5020421,8.5 C 3.5020421,7.392 4.3940411,6.5 5.5020421,6.5 L 19.502042,6.5 z"
       id="rect3225"
       style="opacity:0.6;fill:none;fill-opacity:1;fill-rule:nonzero;stroke:#3a3935;stroke-width:0.99999994;stroke-linecap:round;stroke-linejoin:miter;marker:none;marker-start:none;marker-mid:none;marker-end:none;stroke-miterlimit:4;stroke-dasharray:none;stroke-dashoffset:0;stroke-opacity:1;visibility:visible;display:inline;overflow:visible;enable-background:accumulate" />
    <rect
       width="6"
       height="10"
       rx="0.5"
       ry="0.49999997"
       x="9.0500002"
       y="-16"
       transform="matrix(0,1,-1,0,0,0)"
       id="rect3728"
       style="opacity:0.4;fill:#eae3d0;fill-opacity:1;fill-rule:evenodd;stroke:none;stroke-width:1.69999993;stroke-linecap:round;stroke-linejoin:miter;marker:none;marker-start:none;marker-mid:none;marker-end:none;stroke-miterlimit:4;stroke-dasharray:none;stroke-dashoffset:0;stroke-opacity:1;visibility:visible;display:inline;overflow:visible;enable-background:accumulate" />
    <path
       d="M 19.502042,7.5 L 5.5020421,7.5 C 4.9480421,7.5 4.5020421,7.946 4.5020421,8.5 L 4.5020421,15.5 C 4.5020421,16.054 4.9480421,16.5 5.5020421,16.5 L 19.502042,16.5 C 20.056042,16.5 20.502042,16.054 20.502042,15.5 L 20.502042,8.5 C 20.502042,7.946 20.056042,7.5 19.502042,7.5 z M 4.3835911,10.50264 C 4.0555511,10.50334 3.7275151,10.504168 3.3994831,10.505144 C 2.8016581,10.545901 2.4227501,11.15474 2.5020091,11.717338 C 2.5254421,12.25026 2.3778881,12.894234 2.8652041,13.272203 C 3.3036821,13.622964 3.8864041,13.463608 4.4024111,13.5"
       id="rect2442"
       style="fill:none;fill-opacity:1;fill-rule:nonzero;stroke:#eae3d0;stroke-width:1;stroke-linecap:round;stroke-linejoin:miter;marker:none;marker-start:none;marker-mid:none;marker-end:none;stroke-miterlimit:4;stroke-dashoffset:0;stroke-opacity:1;visibility:visible;display:inline;overflow:visible;enable-background:accumulate" />
    <path
       d="M 11.875,7.53125 C 11.680169,7.603156 11.55394,7.7925002 11.5625,8 L 11.5625,11.21875 L 6.25,8.5625 C 6.0256343,8.4157994 5.7248256,8.4787593 5.578125,8.703125 C 5.4314244,8.9274907 5.4943843,9.2282994 5.71875,9.375 L 13.71875,16.375 C 13.862531,16.492352 14.061193,16.516006 14.228508,16.435694 C 14.395824,16.355383 14.501629,16.185585 14.5,16 L 14.5,13.6875 L 18.84375,15.4375 C 19.05645,15.536457 19.309522,15.466667 19.441436,15.272677 C 19.57335,15.078686 19.545219,14.817678 19.375,14.65625 L 12.375,7.65625 C 12.24691,7.520746 12.051787,7.471965 11.875,7.53125 z"
       id="path3160"
       style="opacity:0.3;fill:#ffffff;fill-opacity:1;fill-rule:evenodd;stroke:none" />
    <path
       d="M 19.039267,15 L 12.039268,8.0000001 L 12.039268,12 L 6.0392673,9.0000001 L 14.039268,16 L 14.039268,13 L 19.039267,15 z"
       id="path3172"
       style="fill:#eae3d0;fill-opacity:1;fill-rule:evenodd;stroke:none" />
  </g>
</svg>
