<?xml version="1.0" encoding="UTF-8" standalone="no"?>
<!-- Created with Inkscape (http://www.inkscape.org/) -->

<svg
   xmlns:dc="http://purl.org/dc/elements/1.1/"
   xmlns:cc="http://creativecommons.org/ns#"
   xmlns:rdf="http://www.w3.org/1999/02/22-rdf-syntax-ns#"
   xmlns:svg="http://www.w3.org/2000/svg"
   xmlns="http://www.w3.org/2000/svg"
   xmlns:sodipodi="http://sodipodi.sourceforge.net/DTD/sodipodi-0.dtd"
   xmlns:inkscape="http://www.inkscape.org/namespaces/inkscape"
   version="1.0"
   width="24"
   height="24"
   id="svg3240"
   sodipodi:version="0.32"
   inkscape:version="0.47 r22583"
   sodipodi:docname="battery-charged.svg"
   inkscape:output_extension="org.inkscape.output.svg.inkscape">
  <metadata
     id="metadata11">
    <rdf:RDF>
      <cc:Work
         rdf:about="">
        <dc:format>image/svg+xml</dc:format>
        <dc:type
           rdf:resource="http://purl.org/dc/dcmitype/StillImage" />
      </cc:Work>
    </rdf:RDF>
  </metadata>
  <sodipodi:namedview
     inkscape:window-height="781"
     inkscape:window-width="1440"
     inkscape:pageshadow="2"
     inkscape:pageopacity="0"
     guidetolerance="10.0"
     gridtolerance="10.0"
     objecttolerance="10.0"
     borderopacity="1.0"
     bordercolor="#666666"
     pagecolor="#3e3e3e"
     id="base"
     showgrid="false"
     inkscape:zoom="22.416667"
     inkscape:cx="12"
     inkscape:cy="12"
     inkscape:window-x="0"
     inkscape:window-y="24"
     inkscape:current-layer="layer1"
     inkscape:window-maximized="1" />
  <defs
     id="defs3242" />
  <g
     id="layer1">
    <path
       d="m 11.237231,9.2139183 c 0.0016,0.7211805 0.0077,1.4425777 -0.0085,2.1628727 -0.09351,0.490954 -0.741524,0.697884 -1.137818,0.393894 C 8.8379327,11.149206 7.5849517,10.527728 6.3319717,9.90625 c 1.897759,1.659393 3.7584913,3.205192 5.6562503,4.864585 0,0 0.815356,0.02917 0.815356,0.02917 -0.0046,-0.537471 -0.02363,-0.830506 0.02839,-1.3625 0.154006,-0.415598 0.727217,-0.575931 1.058779,-0.313701 1.115807,0.448315 2.231614,0.896631 3.347421,1.344946 -1.747143,-1.747143 -3.494285,-3.494285 -5.241428,-5.2414278 0,0 -0.754809,-0.013321 -0.759513,-0.013404 z"
       id="path3179"
       style="opacity:0.3;fill:none;stroke:#ffffff;stroke-width:0.5;stroke-miterlimit:4;stroke-opacity:1;stroke-dasharray:none" />
    <rect
       width="14.5"
       height="7.5"
       rx="0.25"
       ry="0.25"
       x="-18.752043"
       y="8.25"
       id="rect3236"
       style="opacity:0.3;fill:none;stroke:#ffffff;stroke-width:0.5;stroke-linecap:round;stroke-linejoin:miter;stroke-miterlimit:4;stroke-opacity:1;stroke-dasharray:none;stroke-dashoffset:0;marker:none;visibility:visible;display:inline;overflow:visible;enable-background:accumulate"
       transform="scale(-1,1)" />
    <path
       d="m 4.5,6.5 c -1.108,0 -2,0.892 -2,2 l 0,7 c 0,1.108 0.892,2 2,2 l 14,0 c 1.108,0 2.000001,-0.892 2,-2 l 0,-1 c 0.586861,-0.0346 1.160328,-0.237389 1.53125,-0.71875 C 22.556463,13.206345 22.446061,12.592479 22.5,11.6875 22.553939,10.782521 21.530965,9.5237494 20.426211,9.5 L 20.5,8.5 c 0,-1.108 -0.891999,-2 -2,-2 l -14,0 z"
       id="rect3225"
       style="opacity:0.6;fill:none;stroke:#3a3935;stroke-width:0.99999994;stroke-linecap:round;stroke-linejoin:miter;stroke-miterlimit:4;stroke-opacity:1;stroke-dasharray:none;stroke-dashoffset:0;marker:none;visibility:visible;display:inline;overflow:visible;enable-background:accumulate" />
    <path
       d="m 5.5,9.0625 c -0.085544,0 -0.1484836,0.024942 -0.21875,0.0625 l 5.75,2.875 0,-2.9375 -5.53125,0 z m 6.59375,0 5.78125,5.78125 C 17.93963,14.75951 18,14.677354 18,14.5625 l 0,-5 c 0,-0.277 -0.223,-0.5 -0.5,-0.5 l -5.40625,0 z m -6.875,0.09375 C 5.0962472,9.247213 5,9.3975221 5,9.5625 l 0,5 c 0,0.277 0.223,0.5 0.5,0.5 l 6.46875,0 -6.75,-5.90625 z M 13.03125,13 l 0,2.0625 4.46875,0 c 0.128316,0 0.224159,-0.07734 0.3125,-0.15625 L 13.03125,13 z"
       id="rect3728"
       style="fill:#eae3d0;fill-opacity:1;fill-rule:evenodd;stroke:none;stroke-width:1.69999993;marker:none;visibility:visible;display:inline;overflow:visible;enable-background:accumulate" />
    <path
       d="m 4.5,7.5 14,0 c 0.554,0 1,0.446 1,1 l 0,7 c 0,0.554 -0.446,1 -1,1 l -14,0 c -0.554,0 -1,-0.446 -1,-1 l 0,-7 c 0,-0.554 0.446,-1 1,-1 z m 15.118451,3.00264 c 0.32804,7e-4 0.656076,0.0015 0.984108,0.0025 0.597825,0.04076 0.976733,0.649596 0.897474,1.212194 -0.02343,0.532922 0.124121,1.176896 -0.363195,1.554865 -0.438478,0.350761 -1.0212,0.191405 -1.537207,0.227797"
       id="rect2442"
       style="fill:none;stroke:#eae3d0;stroke-width:1;stroke-linecap:round;stroke-linejoin:miter;stroke-miterlimit:4;stroke-opacity:1;stroke-dashoffset:0;marker:none;visibility:visible;display:inline;overflow:visible;enable-background:accumulate" />
  </g>
</svg>
