<?xml version="1.0" encoding="UTF-8" standalone="no"?>
<!-- Created with Inkscape (http://www.inkscape.org/) -->
<svg
   xmlns:dc="http://purl.org/dc/elements/1.1/"
   xmlns:cc="http://creativecommons.org/ns#"
   xmlns:rdf="http://www.w3.org/1999/02/22-rdf-syntax-ns#"
   xmlns:svg="http://www.w3.org/2000/svg"
   xmlns="http://www.w3.org/2000/svg"
   xmlns:sodipodi="http://sodipodi.sourceforge.net/DTD/sodipodi-0.dtd"
   xmlns:inkscape="http://www.inkscape.org/namespaces/inkscape"
   version="1.0"
   width="24"
   height="24"
   id="svg3206"
   sodipodi:version="0.32"
   inkscape:version="0.46"
   sodipodi:docname="gpm-phone-020.svg"
   inkscape:output_extension="org.inkscape.output.svg.inkscape">
  <metadata
     id="metadata10">
    <rdf:RDF>
      <cc:Work
         rdf:about="">
        <dc:format>image/svg+xml</dc:format>
        <dc:type
           rdf:resource="http://purl.org/dc/dcmitype/StillImage" />
      </cc:Work>
    </rdf:RDF>
  </metadata>
  <sodipodi:namedview
     inkscape:window-height="706"
     inkscape:window-width="640"
     inkscape:pageshadow="2"
     inkscape:pageopacity="0.0"
     guidetolerance="10.0"
     gridtolerance="10.0"
     objecttolerance="10.0"
     borderopacity="1.0"
     bordercolor="#666666"
     pagecolor="#ffffff"
     id="base"
     showgrid="false"
     inkscape:zoom="20.75"
     inkscape:cx="12"
     inkscape:cy="12"
     inkscape:window-x="399"
     inkscape:window-y="51"
     inkscape:current-layer="svg3206" />
  <defs
     id="defs3208">
    <inkscape:perspective
       sodipodi:type="inkscape:persp3d"
       inkscape:vp_x="0 : 12 : 1"
       inkscape:vp_y="0 : 1000 : 0"
       inkscape:vp_z="24 : 12 : 1"
       inkscape:persp3d-origin="12 : 8 : 1"
       id="perspective12" />
  </defs>
  <rect
     width="4"
     height="2"
     rx="0.5"
     ry="0.5"
     x="15"
     y="16"
     id="rect3728"
     style="fill:#dc0000;fill-opacity:1;fill-rule:evenodd;stroke:none;stroke-width:1.69999992999999994;stroke-linecap:round;stroke-linejoin:miter;marker:none;marker-start:none;marker-mid:none;marker-end:none;stroke-miterlimit:4;stroke-dasharray:none;stroke-dashoffset:0;stroke-opacity:1;visibility:visible;display:inline;overflow:visible;enable-background:accumulate" />
  <path
     d="M 13.5,18.5 L 13.5,6.5 C 13.5,5.946 13.946,5.5 14.5,5.5 L 19.5,5.5 C 20.054,5.5 20.5,5.946 20.5,6.5 L 20.5,18.5 C 20.5,19.054 20.054,19.5 19.5,19.5 L 14.5,19.5 C 13.946,19.5 13.5,19.054 13.5,18.5 z M 15.50264,5.381549 C 15.50334,5.053509 15.504168,4.725473 15.505144,4.397441 C 15.545901,3.799616 16.15474,3.420708 16.717338,3.499967 C 17.25026,3.5234 17.894234,3.375846 18.272203,3.863162 C 18.622964,4.30164 18.463608,4.884362 18.5,5.400369"
     id="rect2442"
     style="fill:none;fill-opacity:1;fill-rule:nonzero;stroke:#dfd8c8;stroke-width:1;stroke-linecap:round;stroke-linejoin:miter;marker:none;marker-start:none;marker-mid:none;marker-end:none;stroke-miterlimit:4;stroke-dashoffset:0;stroke-opacity:1;visibility:visible;display:inline;overflow:visible;enable-background:accumulate" />
  <path
     d="M 4,5 C 3.446,5 3,5.446 3,6 L 3,19 C 3,19.554 3.446,20 4,20 L 10,20 C 10.554,20 11,19.554 11,19 L 11,6 C 11,5.446 10.554,5 10,5 L 4,5 z M 4.5,6 L 9.5,6 C 9.777,6 10,6.223 10,6.5 L 10,13.5 C 10,13.777 9.777,14 9.5,14 L 4.5,14 C 4.223,14 4,13.777 4,13.5 L 4,6.5 C 4,6.223 4.223,6 4.5,6 z M 4.5,16 C 4.777,16 5,16.223 5,16.5 C 5,16.777 4.777,17 4.5,17 C 4.223,17 4,16.777 4,16.5 C 4,16.223 4.223,16 4.5,16 z M 6.5,16 C 6.777,16 7,16.223 7,16.5 C 7,16.223 7.223,16 7.5,16 C 7.777,16 8,16.223 8,16.5 C 8,16.777 7.777,17 7.5,17 C 7.223,17 7,16.777 7,16.5 C 7,16.777 6.777,17 6.5,17 C 6.223,17 6,16.777 6,16.5 C 6,16.223 6.223,16 6.5,16 z M 9.5,16 C 9.777,16 10,16.223 10,16.5 C 10,16.777 9.777,17 9.5,17 C 9.223,17 9,16.777 9,16.5 C 9,16.223 9.223,16 9.5,16 z M 4.5,18 C 4.777,18 5,18.223 5,18.5 C 5,18.777 4.777,19 4.5,19 C 4.223,19 4,18.777 4,18.5 C 4,18.223 4.223,18 4.5,18 z M 6.5,18 C 6.777,18 7,18.223 7,18.5 C 7,18.223 7.223,18 7.5,18 C 7.777,18 8,18.223 8,18.5 C 8,18.777 7.777,19 7.5,19 C 7.223,19 7,18.777 7,18.5 C 7,18.777 6.777,19 6.5,19 C 6.223,19 6,18.777 6,18.5 C 6,18.223 6.223,18 6.5,18 z M 9.5,18 C 9.777,18 10,18.223 10,18.5 C 10,18.777 9.777,19 9.5,19 C 9.223,19 9,18.777 9,18.5 C 9,18.223 9.223,18 9.5,18 z"
     id="rect2397"
     style="fill:#dfd8c8;fill-opacity:1;fill-rule:evenodd;stroke:none;stroke-width:1.69999993;stroke-linecap:round;stroke-linejoin:miter;marker:none;marker-start:none;marker-mid:none;marker-end:none;stroke-miterlimit:4;stroke-dasharray:none;stroke-dashoffset:0;stroke-opacity:1;visibility:visible;display:inline;overflow:visible;enable-background:accumulate" />
  <path
     d="M 14.25,18.5 L 14.25,6.5 C 14.25,6.3615 14.3615,6.25 14.5,6.25 L 19.5,6.25 C 19.6385,6.25 19.75,6.3615 19.75,6.5 L 19.75,18.5 C 19.75,18.6385 19.6385,18.75 19.5,18.75 L 14.5,18.75 C 14.3615,18.75 14.25,18.6385 14.25,18.5 z M 4.25,13.500001 L 4.25,6.5000005 C 4.25,6.3615005 4.3615,6.2500005 4.5,6.2500005 L 9.4999995,6.2500005 C 9.6384995,6.2500005 9.7499995,6.3615005 9.7499995,6.5000005 L 9.7499995,13.500001 C 9.7499995,13.638501 9.6384995,13.750001 9.4999995,13.750001 L 4.5,13.750001 C 4.3615,13.750001 4.25,13.638501 4.25,13.500001 z"
     id="rect3236"
     style="opacity:0.3;fill:none;fill-opacity:1;fill-rule:nonzero;stroke:#ffffff;stroke-width:0.5;stroke-linecap:round;stroke-linejoin:miter;marker:none;marker-start:none;marker-mid:none;marker-end:none;stroke-miterlimit:4;stroke-dashoffset:0;stroke-opacity:1;visibility:visible;display:inline;overflow:visible;enable-background:accumulate" />
  <path
     d="M 12.5,18.5 C 12.5,19.608 13.392,20.5 14.5,20.5 L 19.5,20.5 C 20.608,20.5 21.5,19.608 21.5,18.5 L 21.5,6.5 C 21.5,5.197903 20.949517,4.5963187 19.5,4.5 C 19.465401,3.913139 19.262611,3.339672 18.78125,2.96875 C 18.206345,2.443537 17.592479,2.553939 16.6875,2.5 C 15.782521,2.446061 14.523749,3.469035 14.5,4.573789 C 13.364936,4.573789 12.543704,4.9287747 12.5,6.5 L 12.5,18.5 z M 4.0000005,4.5 L 10,4.5 C 10.831,4.5 11.5,5.169 11.5,6 L 11.5,19 C 11.5,19.831 10.831,20.5 10,20.5 L 4.0000005,20.5 C 3.1690005,20.5 2.5000005,19.831 2.5000005,19 L 2.5000005,6 C 2.5000005,5.169 3.1690005,4.5 4.0000005,4.5 z"
     id="rect3225"
     style="opacity:0.6;fill:none;fill-opacity:1;fill-rule:nonzero;stroke:#43423e;stroke-width:0.99999994;stroke-linecap:round;stroke-linejoin:miter;marker:none;marker-start:none;marker-mid:none;marker-end:none;stroke-miterlimit:4;stroke-dasharray:none;stroke-dashoffset:0;stroke-opacity:1;visibility:visible;display:inline;overflow:visible;enable-background:accumulate" />
</svg>
