<?xml version="1.0" encoding="UTF-8" standalone="no"?>
<!-- Created with Inkscape (http://www.inkscape.org/) -->

<svg
   xmlns:dc="http://purl.org/dc/elements/1.1/"
   xmlns:cc="http://creativecommons.org/ns#"
   xmlns:rdf="http://www.w3.org/1999/02/22-rdf-syntax-ns#"
   xmlns:svg="http://www.w3.org/2000/svg"
   xmlns="http://www.w3.org/2000/svg"
   xmlns:sodipodi="http://sodipodi.sourceforge.net/DTD/sodipodi-0.dtd"
   xmlns:inkscape="http://www.inkscape.org/namespaces/inkscape"
   version="1.0"
   width="24"
   height="24"
   id="svg3225"
   inkscape:version="0.48.0 r9654"
   sodipodi:docname="ibus-keyboard.svg">
  <metadata
     id="metadata21">
    <rdf:RDF>
      <cc:Work
         rdf:about="">
        <dc:format>image/svg+xml</dc:format>
        <dc:type
           rdf:resource="http://purl.org/dc/dcmitype/StillImage" />
        <dc:title></dc:title>
      </cc:Work>
    </rdf:RDF>
  </metadata>
  <sodipodi:namedview
     pagecolor="#ffffff"
     bordercolor="#666666"
     borderopacity="1"
     objecttolerance="10"
     gridtolerance="10"
     guidetolerance="10"
     inkscape:pageopacity="0"
     inkscape:pageshadow="2"
     inkscape:window-width="1280"
     inkscape:window-height="753"
     id="namedview19"
     showgrid="false"
     inkscape:zoom="6.6136365"
     inkscape:cx="-0.49140893"
     inkscape:cy="11.793814"
     inkscape:window-x="0"
     inkscape:window-y="24"
     inkscape:window-maximized="1"
     inkscape:current-layer="svg3225" />
  <defs
     id="defs3227" />
  <path
     inkscape:connector-curvature="0"
     style="opacity:0.3;fill:#000000;fill-opacity:1;fill-rule:evenodd;stroke:none;stroke-width:1.70000005;marker:none;visibility:visible;display:inline;overflow:visible"
     id="rect2396-7"
     d="M 11,5 11,8 4.21875,8 C 2.9876388,8 2,8.892 2,10 l 0,8 c 0,1.108 0.9876389,2 2.21875,2 l 15.5625,0 C 21.01236,20 22,19.108 22,18 l 0,-8 C 22,8.892 21.012361,8 19.78125,8 L 12,8 l 0,-2 1,0 0,1 4,0 0,-1 c 0,0 -3,0 -3,0 L 14,5 11,5 z M 5.5,10 C 5.223,10 5,10.223 5,10.5 l 0,1 C 5,11.777 5.223,12 5.5,12 l 1,0 C 6.777,12 7,11.777 7,11.5 l 0,-1 C 7,10.223 6.777,10 6.5,10 l -1,0 z m 3,0 C 8.223,10 8,10.223 8,10.5 l 0,1 C 8,11.777 8.223,12 8.5,12 l 1,0 C 9.777,12 10,11.777 10,11.5 l 0,-1 C 10,10.223 9.777,10 9.5,10 l -1,0 z m 3,0 C 11.223,10 11,10.223 11,10.5 l 0,1 c 0,0.277 0.223,0.5 0.5,0.5 l 1,0 c 0.277,0 0.5,-0.223 0.5,-0.5 l 0,-1 C 13,10.223 12.777,10 12.5,10 l -1,0 z m 3,0 C 14.223,10 14,10.223 14,10.5 l 0,1 c 0,0.277 0.223,0.5 0.5,0.5 l 1,0 c 0.277,0 0.5,-0.223 0.5,-0.5 l 0,-1 C 16,10.223 15.777,10 15.5,10 l -1,0 z m 3,0 C 17.223,10 17,10.223 17,10.5 l 0,1 c 0,0.277 0.223,0.5 0.5,0.5 l 1,0 c 0.277,0 0.5,-0.223 0.5,-0.5 l 0,-1 C 19,10.223 18.777,10 18.5,10 l -1,0 z m -12,3 C 5.223,13 5,13.223 5,13.5 l 0,1 C 5,14.777 5.223,15 5.5,15 l 1,0 C 6.777,15 7,14.777 7,14.5 l 0,-1 C 7,13.223 6.777,13 6.5,13 l -1,0 z m 3,0 C 8.223,13 8,13.223 8,13.5 l 0,1 C 8,14.777 8.223,15 8.5,15 l 1,0 C 9.777,15 10,14.777 10,14.5 l 0,-1 C 10,13.223 9.777,13 9.5,13 l -1,0 z m 3,0 C 11.223,13 11,13.223 11,13.5 l 0,1 c 0,0.277 0.223,0.5 0.5,0.5 l 1,0 c 0.277,0 0.5,-0.223 0.5,-0.5 l 0,-1 C 13,13.223 12.777,13 12.5,13 l -1,0 z m 3,0 C 14.223,13 14,13.223 14,13.5 l 0,1 c 0,0.277 0.223,0.5 0.5,0.5 l 1,0 c 0.277,0 0.5,-0.223 0.5,-0.5 l 0,-1 C 16,13.223 15.777,13 15.5,13 l -1,0 z m 3,0 C 17.223,13 17,13.223 17,13.5 l 0,1 c 0,0.277 0.223,0.5 0.5,0.5 l 1,0 c 0.277,0 0.5,-0.223 0.5,-0.5 l 0,-1 C 19,13.223 18.777,13 18.5,13 l -1,0 z m -10,3 C 7.223,16 7,16.223 7,16.5 l 0,1 C 7,17.777 7.223,18 7.5,18 l 9,0 c 0.277,0 0.5,-0.223 0.5,-0.5 l 0,-1 C 17,16.223 16.777,16 16.5,16 l -9,0 z" />
  <g
     transform="translate(1,2)"
     id="g3615"
     style="opacity:0.3">
    <rect
       width="1.623428"
       height="1.611037"
       ry="0.38089144"
       x="4.1456728"
       y="7.2185087"
       id="rect2819"
       style="fill:none;stroke:#ffffff;stroke-width:0.5;stroke-miterlimit:4;stroke-opacity:1;stroke-dasharray:none"
       rx="0.38089144" />
    <rect
       width="1.623428"
       height="1.611037"
       ry="0.38089144"
       x="10.145673"
       y="7.2185087"
       id="rect3593"
       style="fill:none;stroke:#ffffff;stroke-width:0.5;stroke-miterlimit:4;stroke-opacity:1;stroke-dasharray:none"
       rx="0.38089144" />
    <rect
       width="1.623428"
       height="1.611037"
       ry="0.38089144"
       x="16.145672"
       y="7.2185087"
       id="rect3595"
       style="fill:none;stroke:#ffffff;stroke-width:0.5;stroke-miterlimit:4;stroke-opacity:1;stroke-dasharray:none"
       rx="0.38089144" />
    <rect
       width="1.623428"
       height="1.611037"
       ry="0.38089144"
       x="4.1456728"
       y="10.218963"
       id="rect3597"
       style="fill:none;stroke:#ffffff;stroke-width:0.5;stroke-miterlimit:4;stroke-opacity:1;stroke-dasharray:none"
       rx="0.38089144" />
    <rect
       width="1.623428"
       height="1.611037"
       ry="0.38089144"
       x="10.145673"
       y="10.218963"
       id="rect3599"
       style="fill:none;stroke:#ffffff;stroke-width:0.5;stroke-miterlimit:4;stroke-opacity:1;stroke-dasharray:none"
       rx="0.38089144" />
    <rect
       width="1.623428"
       height="1.611037"
       ry="0.38089144"
       x="16.145672"
       y="10.218963"
       id="rect3601"
       style="fill:none;stroke:#ffffff;stroke-width:0.5;stroke-miterlimit:4;stroke-opacity:1;stroke-dasharray:none"
       rx="0.38089144" />
    <rect
       width="1.623428"
       height="1.611037"
       ry="0.38089144"
       x="7.1459999"
       y="7.2185087"
       id="rect3603"
       style="fill:none;stroke:#ffffff;stroke-width:0.5;stroke-miterlimit:4;stroke-opacity:1;stroke-dasharray:none"
       rx="0.38089144" />
    <rect
       width="1.623428"
       height="1.611037"
       ry="0.38089144"
       x="7.1459999"
       y="10.218963"
       id="rect3605"
       style="fill:none;stroke:#ffffff;stroke-width:0.5;stroke-miterlimit:4;stroke-opacity:1;stroke-dasharray:none"
       rx="0.38089144" />
    <rect
       width="1.623428"
       height="1.611037"
       ry="0.38089144"
       x="13.146"
       y="7.2185087"
       id="rect3607"
       style="fill:none;stroke:#ffffff;stroke-width:0.5;stroke-miterlimit:4;stroke-opacity:1;stroke-dasharray:none"
       rx="0.38089144" />
    <rect
       width="1.623428"
       height="1.611037"
       ry="0.38089144"
       x="13.146"
       y="10.218963"
       id="rect3609"
       style="fill:none;stroke:#ffffff;stroke-width:0.5;stroke-miterlimit:4;stroke-opacity:1;stroke-dasharray:none"
       rx="0.38089144" />
    <rect
       width="9.5336552"
       height="1.5213989"
       ry="0.29125711"
       x="6.2441564"
       y="13.240917"
       id="rect3613"
       style="fill:none;stroke:#ffffff;stroke-width:0.5;stroke-miterlimit:4;stroke-opacity:1;stroke-dasharray:none"
       rx="0.29125711" />
  </g>
  <path
     inkscape:connector-curvature="0"
     style="fill:#dfdbd2;fill-opacity:1;fill-rule:evenodd;stroke:none;stroke-width:1.70000005;marker:none;visibility:visible;display:inline;overflow:visible"
     id="rect2396"
     d="M 11,4 11,7 4.21875,7 C 2.9876388,7 2,7.892 2,9 l 0,8 c 0,1.108 0.9876389,2 2.21875,2 l 15.5625,0 C 21.01236,19 22,18.108 22,17 L 22,9 C 22,7.892 21.012361,7 19.78125,7 L 12,7 l 0,-2 1,0 0,1 4,0 0,-1 c 0,0 -3,0 -3,0 L 14,4 11,4 z M 5.5,9 C 5.223,9 5,9.223 5,9.5 l 0,1 C 5,10.777 5.223,11 5.5,11 l 1,0 C 6.777,11 7,10.777 7,10.5 l 0,-1 C 7,9.223 6.777,9 6.5,9 l -1,0 z m 3,0 C 8.223,9 8,9.223 8,9.5 l 0,1 C 8,10.777 8.223,11 8.5,11 l 1,0 C 9.777,11 10,10.777 10,10.5 l 0,-1 C 10,9.223 9.777,9 9.5,9 l -1,0 z m 3,0 C 11.223,9 11,9.223 11,9.5 l 0,1 c 0,0.277 0.223,0.5 0.5,0.5 l 1,0 c 0.277,0 0.5,-0.223 0.5,-0.5 l 0,-1 C 13,9.223 12.777,9 12.5,9 l -1,0 z m 3,0 C 14.223,9 14,9.223 14,9.5 l 0,1 c 0,0.277 0.223,0.5 0.5,0.5 l 1,0 c 0.277,0 0.5,-0.223 0.5,-0.5 l 0,-1 C 16,9.223 15.777,9 15.5,9 l -1,0 z m 3,0 C 17.223,9 17,9.223 17,9.5 l 0,1 c 0,0.277 0.223,0.5 0.5,0.5 l 1,0 c 0.277,0 0.5,-0.223 0.5,-0.5 l 0,-1 C 19,9.223 18.777,9 18.5,9 l -1,0 z m -12,3 C 5.223,12 5,12.223 5,12.5 l 0,1 C 5,13.777 5.223,14 5.5,14 l 1,0 C 6.777,14 7,13.777 7,13.5 l 0,-1 C 7,12.223 6.777,12 6.5,12 l -1,0 z m 3,0 C 8.223,12 8,12.223 8,12.5 l 0,1 C 8,13.777 8.223,14 8.5,14 l 1,0 C 9.777,14 10,13.777 10,13.5 l 0,-1 C 10,12.223 9.777,12 9.5,12 l -1,0 z m 3,0 C 11.223,12 11,12.223 11,12.5 l 0,1 c 0,0.277 0.223,0.5 0.5,0.5 l 1,0 c 0.277,0 0.5,-0.223 0.5,-0.5 l 0,-1 C 13,12.223 12.777,12 12.5,12 l -1,0 z m 3,0 C 14.223,12 14,12.223 14,12.5 l 0,1 c 0,0.277 0.223,0.5 0.5,0.5 l 1,0 c 0.277,0 0.5,-0.223 0.5,-0.5 l 0,-1 C 16,12.223 15.777,12 15.5,12 l -1,0 z m 3,0 C 17.223,12 17,12.223 17,12.5 l 0,1 c 0,0.277 0.223,0.5 0.5,0.5 l 1,0 c 0.277,0 0.5,-0.223 0.5,-0.5 l 0,-1 C 19,12.223 18.777,12 18.5,12 l -1,0 z m -10,3 C 7.223,15 7,15.223 7,15.5 l 0,1 C 7,16.777 7.223,17 7.5,17 l 9,0 c 0.277,0 0.5,-0.223 0.5,-0.5 l 0,-1 C 17,15.223 16.777,15 16.5,15 l -9,0 z" />
</svg>
