<?xml version="1.0" encoding="UTF-8" standalone="no"?>
<!-- Created with Inkscape (http://www.inkscape.org/) -->

<svg
   xmlns:dc="http://purl.org/dc/elements/1.1/"
   xmlns:cc="http://creativecommons.org/ns#"
   xmlns:rdf="http://www.w3.org/1999/02/22-rdf-syntax-ns#"
   xmlns:svg="http://www.w3.org/2000/svg"
   xmlns="http://www.w3.org/2000/svg"
   xmlns:sodipodi="http://sodipodi.sourceforge.net/DTD/sodipodi-0.dtd"
   xmlns:inkscape="http://www.inkscape.org/namespaces/inkscape"
   width="24"
   height="24"
   id="svg4374"
   version="1.1"
   inkscape:version="0.48.3.1 r9886"
   sodipodi:docname="New document 21">
  <defs
     id="defs4376" />
  <sodipodi:namedview
     id="base"
     pagecolor="#ffffff"
     bordercolor="#666666"
     borderopacity="1.0"
     inkscape:pageopacity="0.0"
     inkscape:pageshadow="2"
     inkscape:zoom="9.9475983"
     inkscape:cx="39.431628"
     inkscape:cy="27.820786"
     inkscape:document-units="px"
     inkscape:current-layer="layer1"
     showgrid="false"
     inkscape:window-width="1920"
     inkscape:window-height="1030"
     inkscape:window-x="0"
     inkscape:window-y="22"
     inkscape:window-maximized="1" />
  <metadata
     id="metadata4379">
    <rdf:RDF>
      <cc:Work
         rdf:about="">
        <dc:format>image/svg+xml</dc:format>
        <dc:type
           rdf:resource="http://purl.org/dc/dcmitype/StillImage" />
        <dc:title></dc:title>
      </cc:Work>
    </rdf:RDF>
  </metadata>
  <g
     inkscape:label="Layer 1"
     inkscape:groupmode="layer"
     id="layer1"
     transform="translate(0,-1028.3622)">
    <path
       id="path5558"
       d="m 4.3125,1035.3622 c -0.6094,0 -1.3125,0.7585 -1.3125,1.3125 l 0,9.3125 c 0,0.731 0.80415,1.375 1.46875,1.375 l 10.53125,0 0,-1 a 1.0063982,1.0063982 0 0 1 0.8125,-1 1.0063982,1.0063982 0 0 1 0.1875,0 l 5,0 0,-8.5625 c 0,-0.7756 -0.68625,-1.4375 -1.40625,-1.4375 l -15.28125,0 z m 0.53125,1.1563 6.84375,6.8437 0.59375,0 6.875,-6.8437 0.6875,0.6875 -4.09375,4.1562 3.09375,3.1563 -0.6875,0.6875 -3.15625,-3.1563 -2.28125,2.3125 -1.4375,0 L 9,1042.0497 l -3.15625,3.1875 -0.6875,-0.7187 3.125,-3.1563 -4.125,-4.1562 0.6875,-0.6875 z"
       style="opacity:0.3;fill:#000000;enable-background:new"
       inkscape:connector-curvature="0" />
    <path
       style="fill:#dfdbd2;fill-opacity:1;enable-background:new"
       d="m 4.3125,1034.3622 c -0.6094,0 -1.3125,0.7585 -1.3125,1.3125 l 0,9.3125 c 0,0.731 0.80415,1.375 1.46875,1.375 l 10.53125,0 0,-1 a 1.0063982,1.0063982 0 0 1 0.8125,-1 1.0063982,1.0063982 0 0 1 0.1875,0 l 5,0 0,-8.5625 c 0,-0.7756 -0.68625,-1.4375 -1.40625,-1.4375 l -15.28125,0 z m 0.53125,1.1563 6.84375,6.8437 0.59375,0 6.875,-6.8437 0.6875,0.6875 -4.09375,4.1562 3.09375,3.1563 -0.6875,0.6875 -3.15625,-3.1563 -2.28125,2.3125 -1.4375,0 L 9,1041.0497 l -3.15625,3.1875 -0.6875,-0.7187 3.125,-3.1563 -4.125,-4.1562 0.6875,-0.6875 z"
       id="path5560"
       inkscape:connector-curvature="0" />
    <rect
       style="opacity:0.4;color:#000000;fill:#dfdbd2;fill-opacity:1;fill-rule:nonzero;stroke:none;stroke-width:2;marker:none;visibility:visible;display:inline;overflow:visible;enable-background:accumulate"
       id="rect5578"
       width="7"
       height="2"
       x="16.000023"
       y="1045.3494" />
  </g>
</svg>
