<?xml version="1.0" encoding="utf-8"?>
<!-- Generator: Adobe Illustrator 15.0.0, SVG Export Plug-In . SVG Version: 6.00 Build 0)  -->
<!DOCTYPE svg PUBLIC "-//W3C//DTD SVG 1.1//EN" "http://www.w3.org/Graphics/SVG/1.1/DTD/svg11.dtd">
<svg version="1.1" id="Layer_1" xmlns="http://www.w3.org/2000/svg" xmlns:xlink="http://www.w3.org/1999/xlink" x="0px" y="0px"
	 width="26px" height="24px" viewBox="0 0 26 24" enable-background="new 0 0 26 24" xml:space="preserve">
<path id="path5_10_" opacity="0.3" fill="#020202" enable-background="new    " d="M20.59,7L5.305,7.021
	C4.695,7.021,4,7.782,4,8.335v9.297C4,18.365,4.789,19,5.453,19h15.049C21.299,19,22,18.322,22,17.623V8.464
	C22,7.688,21.311,7,20.59,7z M16.75,13l3.094,3.157l-0.688,0.688L16,13.688L13.721,16h-1.438L10,13.688l-3.156,3.188l-0.688-0.719
	L9.281,13L5.156,8.843l0.688-0.688l0,0L12.688,15h0.599l6.875-6.844l0.688,0.688L16.75,13z"/>
<path id="path5_9_" fill="#2EB5E9" fill-opacity="0.9529" d="M20.59,6L5.305,6.021C4.695,6.021,4,6.782,4,7.335v9.297
	C4,17.365,4.789,18,5.453,18h15.049C21.299,18,22,17.322,22,16.623V7.464C22,6.688,21.311,6,20.59,6z M16.75,12l3.094,3.157
	l-0.688,0.688L16,12.687L13.721,15h-1.438L10,12.687l-3.156,3.188l-0.688-0.719L9.281,12L5.156,7.843l0.688-0.688l0,0L12.688,14
	h0.599l6.875-6.844l0.688,0.688L16.75,12z"/>
<path id="path2997" opacity="0.3" fill="#020202" enable-background="new    " d="M24.566,20.156l-1.666-1.66l1.656-1.662
	c-0.326-0.596-0.815-1.082-1.414-1.402L21.49,17.09l-1.652-1.648c-0.591,0.322-1.072,0.811-1.396,1.396l1.666,1.646l-1.674,1.682
	c0.322,0.598,0.812,1.086,1.406,1.41l1.686-1.691l1.688,1.662C23.786,21.215,24.254,20.738,24.566,20.156z"/>
<linearGradient id="path2999_1_" gradientUnits="userSpaceOnUse" x1="-2489.5674" y1="2498.5049" x2="-2483.4326" y2="2498.5049" gradientTransform="matrix(0 -1 1 0 -2477.001 -2468.999)">
	<stop  offset="0" style="stop-color:#676868"/>
	<stop  offset="0.3958" style="stop-color:#AAA9A8"/>
	<stop  offset="1" style="stop-color:#EAEAEA"/>
</linearGradient>
<path id="path2999" fill="url(#path2999_1_)" d="M23.154,14.434L21.495,16.1l-1.662-1.656c-0.597,0.328-1.082,0.816-1.401,1.416
	l1.657,1.65l-1.647,1.652c0.322,0.592,0.81,1.074,1.396,1.396l1.646-1.666l1.683,1.676c0.599-0.316,1.086-0.812,1.409-1.4
	l-1.69-1.688l1.662-1.689C24.214,15.215,23.736,14.746,23.154,14.434z"/>
<radialGradient id="path3783_1_" cx="3172.4238" cy="-3194.666" r="4.6174" gradientTransform="matrix(0.8669 0 0 -0.8669 -2728.6733 -2754.9517)" gradientUnits="userSpaceOnUse">
	<stop  offset="0" style="stop-color:#FFFFFF"/>
	<stop  offset="1" style="stop-color:#FFFFFF;stop-opacity:0"/>
</radialGradient>
<path id="path3783" fill="url(#path3783_1_)" d="M19.844,14.438c-0.596,0.328-1.086,0.812-1.406,1.406l1.656,1.656l-0.5,0.5
	c0.566,0.309,1.217,0.5,1.906,0.5s1.34-0.191,1.906-0.5l-0.531-0.531l1.656-1.688c-0.326-0.574-0.793-1.031-1.375-1.344L21.5,16.09
	L19.844,14.438z"/>
</svg>
