<?xml version="1.0" encoding="UTF-8" standalone="no"?>
<!-- Created with Inkscape (http://www.inkscape.org/) -->

<svg
   xmlns:dc="http://purl.org/dc/elements/1.1/"
   xmlns:cc="http://creativecommons.org/ns#"
   xmlns:rdf="http://www.w3.org/1999/02/22-rdf-syntax-ns#"
   xmlns:svg="http://www.w3.org/2000/svg"
   xmlns="http://www.w3.org/2000/svg"
   xmlns:sodipodi="http://sodipodi.sourceforge.net/DTD/sodipodi-0.dtd"
   xmlns:inkscape="http://www.inkscape.org/namespaces/inkscape"
   version="1.0"
   width="24"
   height="24"
   id="svg3229"
   inkscape:version="0.47 r22583"
   sodipodi:docname="indicator-messages_alt.svg">
  <metadata
     id="metadata10">
    <rdf:RDF>
      <cc:Work
         rdf:about="">
        <dc:format>image/svg+xml</dc:format>
        <dc:type
           rdf:resource="http://purl.org/dc/dcmitype/StillImage" />
        <dc:title></dc:title>
      </cc:Work>
    </rdf:RDF>
  </metadata>
  <sodipodi:namedview
     pagecolor="#ffffff"
     bordercolor="#666666"
     borderopacity="1"
     objecttolerance="10"
     gridtolerance="10"
     guidetolerance="10"
     inkscape:pageopacity="0"
     inkscape:pageshadow="2"
     inkscape:window-width="1024"
     inkscape:window-height="720"
     id="namedview8"
     showgrid="true"
     inkscape:zoom="7.8518316"
     inkscape:cx="12"
     inkscape:cy="18.895478"
     inkscape:window-x="0"
     inkscape:window-y="24"
     inkscape:window-maximized="1"
     inkscape:current-layer="svg3229">
    <inkscape:grid
       type="xygrid"
       id="grid3597"
       empspacing="5"
       visible="true"
       enabled="true"
       snapvisiblegridlinesonly="true" />
  </sodipodi:namedview>
  <defs
     id="defs3231">
    <inkscape:perspective
       sodipodi:type="inkscape:persp3d"
       inkscape:vp_x="0 : 12 : 1"
       inkscape:vp_y="0 : 1000 : 0"
       inkscape:vp_z="24 : 12 : 1"
       inkscape:persp3d-origin="12 : 8 : 1"
       id="perspective10" />
  </defs>
  <path
     style="fill:#eae3d1;fill-opacity:1;fill-rule:nonzero;stroke:none;stroke-width:1;marker:none;visibility:visible;display:inline;overflow:visible;enable-background:accumulate"
     d="m 12,2.2499999 c -0.338843,0.00841 -1,0.4375 -1,0.4375 l -7.40625,3.625 C 3.2507174,6.5844495 3,7.003921 3,7.3437499 L 3,16.625 C 3,17.355978 3.8041383,18 4.46875,18 L 19.5,18 c 0.797345,0 1.5,-0.676757 1.5,-1.375 l 0,-9.1562501 c 0,-0.460058 -0.246115,-0.8828532 -0.59375,-1.15625 L 13,2.6249999 c 0,0 -0.661157,-0.3834056 -1,-0.375 z M 5.84375,7.1562499 9,10.34375 l 2.28125,-2.3125001 1.4375,0 L 15,10.34375 l 3.15625,-3.1562501 0.6875,0.6875 -3.09375,3.1562501 4.09375,4.15625 -0.6875,0.6875 -6.875,-6.8437501 -0.59375,0 -6.84375,6.8437501 -0.6875,-0.6875 4.125,-4.15625 -3.125,-3.1562501 0.6875,-0.71875 z"
     id="path2387"
     sodipodi:nodetypes="ccccccccccccccccccccccccccccc" />
  <path
     style="opacity:0.6;fill:none;stroke:#3a3935;stroke-width:1;stroke-linecap:round;stroke-linejoin:miter;stroke-miterlimit:4;stroke-opacity:1;stroke-dasharray:none;stroke-dashoffset:0;marker:none;visibility:visible;display:inline;overflow:visible;enable-background:accumulate"
     d="m 10.99962,2.0930109 c 0,0 0.646786,-0.3410061 1,-0.3555787 0.353214,-0.014573 1,0.3144806 1,0.3144806 0,0 7.755759,3.8661492 7.755759,3.8661492 0.5324,0.4375712 0.832702,1.1630403 0.744241,1.8752749 -0.0068,2.9705931 0.01366,5.9420421 -0.01029,8.9120971 -0.08097,1.116571 -1.197192,1.929764 -2.282669,1.794946 C 14.236069,18.49358 9.2646177,18.51408 4.2945643,18.49009 3.1779952,18.409118 2.3648023,17.2929 2.49962,16.207423 2.50644,13.23683 2.48596,10.265381 2.509908,7.295326 2.576977,6.4907453 2.9157574,5.8045225 3.568945,5.5786908 c 0,0 7.430675,-3.4856799 7.430675,-3.4856799 z"
     id="rect3179"
     sodipodi:nodetypes="czsccccccccc" />
  <path
     style="opacity:1;fill:#3a3935;fill-opacity:1;fill-rule:nonzero;stroke:none;stroke-width:1;marker:none;visibility:visible;display:inline;overflow:visible;enable-background:accumulate"
     id="rect3170"
     d="m 4.84337,15.87538 -0.6875,-0.6875 4.125,-4.15625 -3.125,-3.1562501 0.6875,-0.71875 3.15625,3.1875001 2.28125,-2.3125001 1.4375,0 2.28125,2.3125001 3.15625,-3.1562501 0.6875,0.6875 -3.09375,3.1562501 4.09375,4.15625 -0.6875,0.6875 -6.875,-6.8437501 -0.59375,0 -6.84375,6.8437501 z" />
</svg>
