<?xml version="1.0" encoding="UTF-8" standalone="no"?>
<!-- Generator: Adobe Illustrator 15.0.0, SVG Export Plug-In . SVG Version: 6.00 Build 0)  -->

<svg
   xmlns:dc="http://purl.org/dc/elements/1.1/"
   xmlns:cc="http://creativecommons.org/ns#"
   xmlns:rdf="http://www.w3.org/1999/02/22-rdf-syntax-ns#"
   xmlns:svg="http://www.w3.org/2000/svg"
   xmlns="http://www.w3.org/2000/svg"
   xmlns:xlink="http://www.w3.org/1999/xlink"
   xmlns:sodipodi="http://sodipodi.sourceforge.net/DTD/sodipodi-0.dtd"
   xmlns:inkscape="http://www.inkscape.org/namespaces/inkscape"
   version="1.1"
   id="Layer_1"
   x="0px"
   y="0px"
   width="26px"
   height="24px"
   viewBox="0 0 26 24"
   enable-background="new 0 0 26 24"
   xml:space="preserve"
   inkscape:version="0.48.2 r9819"
   sodipodi:docname="indicator-messages-new-invisible-mono-dark.svg"><metadata
   id="metadata3091"><rdf:RDF><cc:Work
       rdf:about=""><dc:format>image/svg+xml</dc:format><dc:type
         rdf:resource="http://purl.org/dc/dcmitype/StillImage" /><dc:title /></cc:Work></rdf:RDF></metadata><defs
   id="defs3089"><linearGradient
     inkscape:collect="always"
     xlink:href="#path10_1_"
     id="linearGradient3805"
     gradientUnits="userSpaceOnUse"
     gradientTransform="matrix(0,-1,1,0,-2479,-2472)"
     x1="-2490"
     y1="2499"
     x2="-2484"
     y2="2499" /></defs><sodipodi:namedview
   pagecolor="#ffffff"
   bordercolor="#666666"
   borderopacity="1"
   objecttolerance="10"
   gridtolerance="10"
   guidetolerance="10"
   inkscape:pageopacity="0"
   inkscape:pageshadow="2"
   inkscape:window-width="1440"
   inkscape:window-height="852"
   id="namedview3087"
   showgrid="false"
   inkscape:zoom="27.041667"
   inkscape:cx="13.524472"
   inkscape:cy="12"
   inkscape:window-x="0"
   inkscape:window-y="0"
   inkscape:window-maximized="0"
   inkscape:current-layer="Layer_1" />
<path
   id="path5_14_"
   opacity="0.3"
   fill="#020202"
   enable-background="new    "
   d="M20.59,7L5.305,7.022  C4.695,7.022,4,7.782,4,8.336v9.298C4,18.366,4.789,19,5.453,19h15.049C21.299,19,22,18.322,22,17.624V8.465  C22,7.689,21.311,7,20.59,7z M16.75,13l3.094,3.156l-0.688,0.688L16,13.688L13.721,16h-1.438L10,13.688l-3.156,3.188l-0.688-0.719  L9.281,13L5.156,8.844l0.688-0.688l0,0L12.688,15h0.599l6.875-6.844l0.688,0.688L16.75,13z" />
<path
   id="path5_13_"
   fill="#2EB5E9"
   fill-opacity="0.9529"
   d="M20.59,6L5.305,6.022C4.695,6.022,4,6.782,4,7.336v9.298  C4,17.366,4.789,18,5.453,18h15.049C21.299,18,22,17.322,22,16.624V7.465C22,6.689,21.311,6,20.59,6z M16.75,12l3.094,3.156  l-0.688,0.688L16,12.688L13.721,15h-1.438L10,12.688l-3.156,3.188l-0.688-0.719L9.281,12L5.156,7.844l0.688-0.688l0,0L12.688,14  h0.599l6.875-6.844l0.688,0.688L16.75,12z" />
<path
   style="opacity:0.3"
   d="M 20 15 C 19.447 15 19 15.447 19 16 L 19 20 C 19 20.553 19.447 21 20 21 L 24 21 C 24.553 21 25 20.553 25 20 L 25 16 C 25 15.447 24.553 15 24 15 L 20 15 z "
   id="path8_7_" />
<linearGradient
   id="path10_1_"
   gradientUnits="userSpaceOnUse"
   x1="-2490"
   y1="2499"
   x2="-2484"
   y2="2499"
   gradientTransform="matrix(0,-1,1,0,-2477,-2470)">
	<stop
   offset="0"
   style="stop-color:#676868;stop-opacity:1;"
   id="stop3074" />
	<stop
   offset="1"
   style="stop-color:#eaeaea;stop-opacity:1;"
   id="stop3076" />
</linearGradient>

<radialGradient
   id="path3789_1_"
   cx="2545.4092"
   cy="2405.4443"
   r="3.6299"
   gradientTransform="matrix(1.1033,0,0,1.1033,-2786.3604,-2639.9385)"
   gradientUnits="userSpaceOnUse">
	<stop
   offset="0"
   style="stop-color:#FFFFFF"
   id="stop3080" />
	<stop
   offset="0.3958"
   style="stop-color:#FFFFFF;stop-opacity:0.498"
   id="stop3082" />
	<stop
   offset="1"
   style="stop-color:#FFFFFF;stop-opacity:0"
   id="stop3084" />
</radialGradient>

<path
   style="fill:#333333;fill-opacity:1"
   d="m 20,14 c -0.553,0 -1,0.447 -1,1 l 0,4 c 0,0.553 0.447,1 1,1 l 4,0 c 0.553,0 1,-0.447 1,-1 l 0,-4 c 0,-0.553 -0.447,-1 -1,-1 l -4,0 z"
   id="path3803"
   inkscape:connector-curvature="0" /><path
   style="fill:url(#path10_1_)"
   d="M 20 14 C 19.447 14 19 14.447 19 15 L 19 19 C 19 19.553 19.447 20 20 20 L 24 20 C 24.553 20 25 19.553 25 19 L 25 15 C 25 14.447 24.553 14 24 14 L 20 14 z M 20 15 L 24 15 L 24 19 L 20 19 L 20 15 z "
   id="path10_7_" /><path
   style="fill:url(#path3789_1_)"
   d="M 20 14 C 19.447 14 19 14.447 19 15 L 19 16.65625 C 19.282487 16.975784 19.62828 17.222621 20 17.4375 L 20 15 L 24 15 L 24 17.4375 C 24.37172 17.222621 24.717513 16.975784 25 16.65625 L 25 15 C 25 14.447 24.553 14 24 14 L 20 14 z "
   id="path3789_2_" /></svg>