<?xml version="1.0" encoding="utf-8"?>
<!-- Generator: Adobe Illustrator 15.0.0, SVG Export Plug-In . SVG Version: 6.00 Build 0)  -->
<!DOCTYPE svg PUBLIC "-//W3C//DTD SVG 1.1//EN" "http://www.w3.org/Graphics/SVG/1.1/DTD/svg11.dtd">
<svg version="1.1" id="Layer_1" xmlns="http://www.w3.org/2000/svg" xmlns:xlink="http://www.w3.org/1999/xlink" x="0px" y="0px"
	 width="26px" height="24px" viewBox="0 0 26 24" enable-background="new 0 0 26 24" xml:space="preserve">
<path id="path3" opacity="0.3" fill="#020202" enable-background="new    " d="M20.59,7L5.305,7.022C4.695,7.022,4,7.782,4,8.336
	v9.298C4,18.366,4.789,19,5.453,19h15.049C21.299,19,22,18.322,22,17.624V8.465C22,7.689,21.311,7,20.59,7z M16.75,13l3.094,3.156
	l-0.688,0.688L16,13.688L13.721,16h-1.438L10,13.688l-3.156,3.188l-0.688-0.719L9.281,13L5.156,8.844l0.688-0.688l0,0L12.688,15
	h0.598l6.875-6.844l0.688,0.688L16.75,13z"/>
<path id="path5" fill="#2EB5E9" fill-opacity="0.9529" d="M20.59,6L5.305,6.022C4.695,6.022,4,6.782,4,7.336v9.298
	C4,17.366,4.789,18,5.453,18h15.049C21.299,18,22,17.322,22,16.624V7.465C22,6.689,21.311,6,20.59,6z M16.75,12l3.094,3.156
	l-0.688,0.688L16,12.688L13.721,15h-1.438L10,12.688l-3.156,3.188l-0.688-0.719L9.281,12L5.156,7.844l0.688-0.688l0,0L12.688,14
	h0.598l6.875-6.844l0.688,0.688L16.75,12z"/>
<circle id="circle5" opacity="0.3" fill="#020202" enable-background="new    " cx="21.5" cy="17.5" r="3.5"/>
<linearGradient id="circle7_1_" gradientUnits="userSpaceOnUse" x1="-2906.9097" y1="2783.9541" x2="-2900.0024" y2="2784.0474" gradientTransform="matrix(0 -1 1 0 -2762.5 -2887)">
	<stop  offset="0" style="stop-color:#2E8942"/>
	<stop  offset="1" style="stop-color:#6CBF5A"/>
</linearGradient>
<circle id="circle7" fill="url(#circle7_1_)" cx="21.5" cy="16.5" r="3.5"/>
<radialGradient id="path3798_1_" cx="2768.4912" cy="2765.085" r="3.5936" gradientTransform="matrix(1.1134 0 0 1.1134 -3060.9482 -3065.1621)" gradientUnits="userSpaceOnUse">
	<stop  offset="0" style="stop-color:#FFFFFF"/>
	<stop  offset="0.4375" style="stop-color:#FFFFFF;stop-opacity:0.498"/>
	<stop  offset="1" style="stop-color:#FFFFFF;stop-opacity:0"/>
</radialGradient>
<path id="path3798" fill="url(#path3798_1_)" d="M21.5,13c-1.633,0-2.988,1.113-3.375,2.625C18.832,16.754,20.07,17.5,21.5,17.5
	s2.668-0.746,3.375-1.875C24.488,14.113,23.133,13,21.5,13z"/>
</svg>
