<?xml version="1.0" encoding="UTF-8" standalone="no"?>
<!-- Generator: Adobe Illustrator 15.0.0, SVG Export Plug-In . SVG Version: 6.00 Build 0)  -->

<svg
   xmlns:dc="http://purl.org/dc/elements/1.1/"
   xmlns:cc="http://creativecommons.org/ns#"
   xmlns:rdf="http://www.w3.org/1999/02/22-rdf-syntax-ns#"
   xmlns:svg="http://www.w3.org/2000/svg"
   xmlns="http://www.w3.org/2000/svg"
   xmlns:xlink="http://www.w3.org/1999/xlink"
   xmlns:sodipodi="http://sodipodi.sourceforge.net/DTD/sodipodi-0.dtd"
   xmlns:inkscape="http://www.inkscape.org/namespaces/inkscape"
   version="1.1"
   id="Layer_1"
   x="0px"
   y="0px"
   width="26px"
   height="24px"
   viewBox="0 0 26 24"
   enable-background="new 0 0 26 24"
   xml:space="preserve"
   inkscape:version="0.48.2 r9819"
   sodipodi:docname="indicator-messages-unread-invisible-mono-dark.svg"><metadata
   id="metadata3023"><rdf:RDF><cc:Work
       rdf:about=""><dc:format>image/svg+xml</dc:format><dc:type
         rdf:resource="http://purl.org/dc/dcmitype/StillImage" /><dc:title /></cc:Work></rdf:RDF></metadata><defs
   id="defs3021"><linearGradient
     inkscape:collect="always"
     xlink:href="#path10_1_"
     id="linearGradient3027"
     gradientUnits="userSpaceOnUse"
     gradientTransform="matrix(0,-1,1,0,-2488,-2479)"
     x1="-2499"
     y1="2508"
     x2="-2493"
     y2="2508" /></defs><sodipodi:namedview
   pagecolor="#ffffff"
   bordercolor="#666666"
   borderopacity="1"
   objecttolerance="10"
   gridtolerance="10"
   guidetolerance="10"
   inkscape:pageopacity="0"
   inkscape:pageshadow="2"
   inkscape:window-width="1440"
   inkscape:window-height="852"
   id="namedview3019"
   showgrid="false"
   inkscape:zoom="27.812867"
   inkscape:cx="12.737795"
   inkscape:cy="7.6854501"
   inkscape:window-x="0"
   inkscape:window-y="0"
   inkscape:window-maximized="1"
   inkscape:current-layer="Layer_1" />
<path
   id="path3_4_"
   opacity="0.3"
   fill="#020202"
   enable-background="new    "
   d="M20.59,7L5.305,7.021C4.695,7.021,4,7.782,4,8.334  v9.298C4,18.366,4.789,19,5.453,19h15.049C21.299,19,22,18.322,22,17.624V8.465C22,7.689,21.311,7,20.59,7z M16.75,13l3.094,3.156  l-0.688,0.688L16,13.688l-1.543,1.531h-2.913L10,13.688l-3.156,3.188l-0.688-0.719L9.281,13L5.156,8.844l0.688-0.688l0,0L12.029,12  h1.953l6.178-3.844l0.688,0.688L16.75,13z" />
<path
   id="path5_4_"
   fill="#DFDBD2"
   d="M20.59,6L5.305,6.021C4.695,6.021,4,6.782,4,7.334v9.298C4,17.366,4.789,18,5.453,18h15.049  C21.299,18,22,17.322,22,16.624V7.465C22,6.689,21.311,6,20.59,6z M16.75,12l3.094,3.156l-0.688,0.688L16,12.688l-1.543,1.531  h-2.913L10,12.688l-3.156,3.188l-0.688-0.719L9.281,12L5.156,7.844l0.688-0.688l0,0L12.029,11h1.953l6.178-3.844l0.688,0.688  L16.75,12z" />
<path
   style="opacity:0.3"
   d="M 20 15 C 19.447 15 19 15.447 19 16 L 19 20 C 19 20.553 19.447 21 20 21 L 24 21 C 24.553 21 25 20.553 25 20 L 25 16 C 25 15.447 24.553 15 24 15 L 20 15 z "
   id="path8_3_" />
<linearGradient
   id="path10_1_"
   gradientUnits="userSpaceOnUse"
   x1="-2499"
   y1="2508"
   x2="-2493"
   y2="2508"
   gradientTransform="matrix(0,-1,1,0,-2486,-2479)">
	<stop
   offset="0"
   style="stop-color:#676868;stop-opacity:1;"
   id="stop3006" />
	<stop
   offset="1"
   style="stop-color:#eaeaea;stop-opacity:1;"
   id="stop3008" />
</linearGradient>

<radialGradient
   id="path3789_2_"
   cx="2536.4082"
   cy="2414.4453"
   r="3.6311"
   gradientTransform="matrix(1.1033,0,0,1.1033,-2776.4307,-2649.8682)"
   gradientUnits="userSpaceOnUse">
	<stop
   offset="0"
   style="stop-color:#FFFFFF"
   id="stop3012" />
	<stop
   offset="0.3958"
   style="stop-color:#FFFFFF;stop-opacity:0.498"
   id="stop3014" />
	<stop
   offset="1"
   style="stop-color:#FFFFFF;stop-opacity:0"
   id="stop3016" />
</radialGradient>

<path
   style="fill:#333333;fill-opacity:1"
   d="m 20,14 c -0.553,0 -1,0.447 -1,1 l 0,4 c 0,0.553 0.447,1 1,1 l 4,0 c 0.553,0 1,-0.447 1,-1 l 0,-4 c 0,-0.553 -0.447,-1 -1,-1 l -4,0 z"
   id="path3025"
   inkscape:connector-curvature="0" /><path
   style="fill:url(#path10_1_)"
   d="m 20,14 c -0.553,0 -1,0.447 -1,1 l 0,4 c 0,0.553 0.447,1 1,1 l 4,0 c 0.553,0 1,-0.447 1,-1 l 0,-4 c 0,-0.553 -0.447,-1 -1,-1 l -4,0 z m 0,1 4,0 0,4 -4,0 0,-4 z"
   id="path10_3_"
   inkscape:connector-curvature="0" /><path
   style="fill:url(#path3789_2_)"
   d="M 20 14 C 19.447 14 19 14.447 19 15 L 19 16.65625 C 19.282487 16.975784 19.62828 17.222621 20 17.4375 L 20 15 L 24 15 L 24 17.4375 C 24.37172 17.222621 24.717513 16.975784 25 16.65625 L 25 15 C 25 14.447 24.553 14 24 14 L 20 14 z "
   id="path3789_1_" /></svg>