<?xml version="1.0" encoding="UTF-8" standalone="no"?>
<!-- Created with Inkscape (http://www.inkscape.org/) -->

<svg
   xmlns:dc="http://purl.org/dc/elements/1.1/"
   xmlns:cc="http://creativecommons.org/ns#"
   xmlns:rdf="http://www.w3.org/1999/02/22-rdf-syntax-ns#"
   xmlns:svg="http://www.w3.org/2000/svg"
   xmlns="http://www.w3.org/2000/svg"
   version="1.0"
   width="24"
   height="24"
   id="svg3194">
  <metadata
     id="metadata8">
    <rdf:RDF>
      <cc:Work
         rdf:about="">
        <dc:format>image/svg+xml</dc:format>
        <dc:type
           rdf:resource="http://purl.org/dc/dcmitype/StillImage" />
        <dc:title></dc:title>
      </cc:Work>
    </rdf:RDF>
  </metadata>
  <defs
     id="defs3196" />
  <path
     d="m 12,4.991601 c -0.554,0 -1,0.446 -1,1 l 0,6 c 0,0.554 0.446,1 1,1 0.554,0 1,-0.446 1,-1 l 0,-6 c 0,-0.554 -0.446,-1 -1,-1 z M 6.9375,6.835351 C 6.6610286,6.912352 6.4690908,7.2442648 6.25,7.429101 5.9705152,7.6567093 5.6644114,8.0719781 6,8.397851 c 0.1482377,0.1482377 0.4851741,0.975727 0.75,1.65625 -0.2113372,0.378211 -0.3738165,0.795731 -0.5,1.21875 l -1.75,0.71875 -0.09375,0 -0.09375,0.03125 c -0.4381081,0.202371 -0.2802045,0.744174 -0.3125,1.125 -0.036682,0.358569 0.032276,0.850619 0.5,0.84375 0.2151484,0 1.0809882,0.35996 1.75,0.65625 0.120906,0.421032 0.2636373,0.841172 0.46875,1.21875 0.00426,0.0078 -0.0043,0.02342 0,0.03125 L 6,17.585351 l -0.0625,0.09375 -0.0625,0.0625 c -0.1666913,0.452887 0.3160517,0.707879 0.5625,1 0.2276083,0.279485 0.6428771,0.585588 0.96875,0.25 0.1482377,-0.148238 0.975727,-0.485174 1.65625,-0.75 0.3782111,0.211337 0.7957309,0.373817 1.21875,0.5 l 0.75,1.9375 c 0.202371,0.438108 0.744174,0.2802 1.125,0.3125 0.358569,0.03668 0.85065,-0.03228 0.84375,-0.5 l 0.71875,-1.75 c 0.399782,-0.119252 0.796211,-0.273165 1.15625,-0.46875 l 1.875,0.84375 c 0.452887,0.166692 0.707876,-0.316055 1,-0.5625 0.279489,-0.227608 0.585609,-0.642898 0.25,-0.96875 l -0.71875,-1.6875 0,-0.03125 c 0.195585,-0.360039 0.349498,-0.756468 0.46875,-1.15625 l 1.9375,-0.75 c 0.438108,-0.202371 0.2802,-0.744174 0.3125,-1.125 0.03668,-0.358569 -0.03228,-0.85065 -0.5,-0.84375 l -1.75,-0.71875 c -0.119252,-0.399782 -0.273165,-0.796211 -0.46875,-1.15625 l 0.84375,-1.875 c 0.166692,-0.452887 -0.316055,-0.7078758 -0.5625,-1 -0.227608,-0.2794844 -0.642898,-0.5856098 -0.96875,-0.25 l -1.6875,0.71875 -0.03125,0 C 14.599263,7.5605616 14.303585,7.4394059 14,7.335351 l 0,3.4375 c 0.608906,0.549074 1,1.334282 1,2.21875 0,1.656854 -1.343146,3 -3,3 -1.656854,0 -3,-1.343146 -3,-3 0,-0.884468 0.3910945,-1.669676 1,-2.21875 l 0,-3.4375 c -0.3035063,0.098765 -0.6004765,0.2258699 -0.875,0.375 l -0.03125,0 L 7.40625,6.991601 7.3125,6.929101 7.25,6.866601 C 7.1367782,6.8249282 7.0296571,6.8096841 6.9375,6.835351 z"
     id="path2997-8"
     style="opacity:0.3;fill:#ffffff;fill-opacity:1;fill-rule:nonzero;stroke:none;stroke-width:1;marker:none;visibility:visible;display:inline;overflow:visible;enable-background:accumulate" />
  <path
     d="m 12,4 c -0.554,0 -1,0.446 -1,1 l 0,6 c 0,0.554 0.446,1 1,1 0.554,0 1,-0.446 1,-1 L 13,5 C 13,4.446 12.554,4 12,4 z M 6.9375,5.84375 C 6.6610286,5.9207508 6.4690908,6.2526638 6.25,6.4375 5.9705152,6.6651083 5.6644114,7.0803771 6,7.40625 6.1482377,7.5544877 6.4851741,8.381977 6.75,9.0625 6.5386628,9.4407111 6.3761835,9.8582309 6.25,10.28125 L 4.5,11 4.40625,11 4.3125,11.03125 C 3.8743919,11.233621 4.0322955,11.775424 4,12.15625 3.9633178,12.514819 4.0322761,13.006869 4.5,13 c 0.2151484,0 1.0809882,0.35996 1.75,0.65625 0.120906,0.421032 0.2636373,0.841172 0.46875,1.21875 0.00426,0.0078 -0.0043,0.02342 0,0.03125 L 6,16.59375 5.9375,16.6875 5.875,16.75 c -0.1666913,0.452887 0.3160517,0.707879 0.5625,1 0.2276083,0.279485 0.6428771,0.585588 0.96875,0.25 0.1482377,-0.148238 0.975727,-0.485174 1.65625,-0.75 0.3782111,0.211337 0.7957309,0.373817 1.21875,0.5 l 0.75,1.9375 c 0.202371,0.438108 0.744174,0.2802 1.125,0.3125 0.358569,0.03668 0.85065,-0.03228 0.84375,-0.5 l 0.71875,-1.75 c 0.399782,-0.119252 0.796211,-0.273165 1.15625,-0.46875 L 16.75,18.125 c 0.452887,0.166692 0.707876,-0.316055 1,-0.5625 0.279489,-0.227608 0.585609,-0.642898 0.25,-0.96875 l -0.71875,-1.6875 0,-0.03125 c 0.195585,-0.360039 0.349498,-0.756468 0.46875,-1.15625 l 1.9375,-0.75 C 20.125608,12.766379 19.9677,12.224576 20,11.84375 20.036682,11.485181 19.967724,10.9931 19.5,11 L 17.75,10.28125 C 17.630748,9.8814679 17.476835,9.485039 17.28125,9.125 L 18.125,7.25 C 18.291692,6.797113 17.808945,6.5421242 17.5625,6.25 17.334892,5.9705156 16.919602,5.6643902 16.59375,6 l -1.6875,0.71875 -0.03125,0 C 14.599263,6.5689606 14.303585,6.4478049 14,6.34375 l 0,3.4375 c 0.608906,0.549074 1,1.334282 1,2.21875 0,1.656854 -1.343146,3 -3,3 -1.656854,0 -3,-1.343146 -3,-3 0,-0.884468 0.3910945,-1.669676 1,-2.21875 l 0,-3.4375 c -0.3035063,0.098765 -0.6004765,0.2258699 -0.875,0.375 l -0.03125,0 L 7.40625,6 7.3125,5.9375 7.25,5.875 C 7.1367782,5.8333272 7.0296571,5.8180831 6.9375,5.84375 z"
     id="path2997"
     style="fill:#df382c;fill-opacity:1;fill-rule:nonzero;stroke:none;stroke-width:1;marker:none;visibility:visible;display:inline;overflow:visible;enable-background:accumulate" />
</svg>
