<?xml version="1.0" encoding="UTF-8" standalone="no"?>
<!-- Created with Inkscape (http://www.inkscape.org/) -->

<svg
   xmlns:dc="http://purl.org/dc/elements/1.1/"
   xmlns:cc="http://creativecommons.org/ns#"
   xmlns:rdf="http://www.w3.org/1999/02/22-rdf-syntax-ns#"
   xmlns:svg="http://www.w3.org/2000/svg"
   xmlns="http://www.w3.org/2000/svg"
   xmlns:sodipodi="http://sodipodi.sourceforge.net/DTD/sodipodi-0.dtd"
   xmlns:inkscape="http://www.inkscape.org/namespaces/inkscape"
   version="1.0"
   width="24"
   height="24"
   id="svg3194"
   inkscape:version="0.48.2 r9819"
   sodipodi:docname="system-devices-symbolic.svg">
  <sodipodi:namedview
     pagecolor="#ffffff"
     bordercolor="#666666"
     borderopacity="1"
     objecttolerance="10"
     gridtolerance="10"
     guidetolerance="10"
     inkscape:pageopacity="0"
     inkscape:pageshadow="2"
     inkscape:window-width="1280"
     inkscape:window-height="753"
     id="namedview7"
     showgrid="false"
     inkscape:zoom="11.645833"
     inkscape:cx="12"
     inkscape:cy="12"
     inkscape:window-x="0"
     inkscape:window-y="24"
     inkscape:window-maximized="1"
     inkscape:current-layer="svg3194">
    <inkscape:grid
       type="xygrid"
       id="grid2984"
       empspacing="5"
       visible="true"
       enabled="true"
       snapvisiblegridlinesonly="true" />
  </sodipodi:namedview>
  <metadata
     id="metadata8">
    <rdf:RDF>
      <cc:Work
         rdf:about="">
        <dc:format>image/svg+xml</dc:format>
        <dc:type
           rdf:resource="http://purl.org/dc/dcmitype/StillImage" />
        <dc:title></dc:title>
      </cc:Work>
    </rdf:RDF>
  </metadata>
  <defs
     id="defs3196" />
  <path
     inkscape:connector-curvature="0"
     style="color:#dfdbd2;fill:#dfdbd2;fill-opacity:1;fill-rule:nonzero;stroke:none;stroke-width:1;marker:none;visibility:visible;display:inline;overflow:visible;enable-background:accumulate;opacity:0.3"
     d="m 12,4.991601 c -0.554,0 -1,0.446 -1,1 l 0,6 c 0,0.554 0.446,1 1,1 0.554,0 1,-0.446 1,-1 l 0,-6 c 0,-0.554 -0.446,-1 -1,-1 z M 6.9375,6.835351 C 6.6610286,6.912352 6.4690908,7.2442648 6.25,7.429101 5.9705152,7.6567093 5.6644114,8.0719781 6,8.397851 c 0.1482377,0.1482377 0.4851741,0.975727 0.75,1.65625 -0.2113372,0.378211 -0.3738165,0.795731 -0.5,1.21875 l -1.75,0.71875 -0.09375,0 -0.09375,0.03125 c -0.4381081,0.202371 -0.2802045,0.744174 -0.3125,1.125 -0.036682,0.358569 0.032276,0.850619 0.5,0.84375 0.2151484,0 1.0809882,0.35996 1.75,0.65625 0.120906,0.421032 0.2636373,0.841172 0.46875,1.21875 0.00426,0.0078 -0.0043,0.02342 0,0.03125 L 6,17.585351 l -0.0625,0.09375 -0.0625,0.0625 c -0.1666913,0.452887 0.3160517,0.707879 0.5625,1 0.2276083,0.279485 0.6428771,0.585588 0.96875,0.25 0.1482377,-0.148238 0.975727,-0.485174 1.65625,-0.75 0.3782111,0.211337 0.7957309,0.373817 1.21875,0.5 l 0.75,1.9375 c 0.202371,0.438108 0.744174,0.2802 1.125,0.3125 0.358569,0.03668 0.85065,-0.03228 0.84375,-0.5 l 0.71875,-1.75 c 0.399782,-0.119252 0.796211,-0.273165 1.15625,-0.46875 l 1.875,0.84375 c 0.452887,0.166692 0.707876,-0.316055 1,-0.5625 0.279489,-0.227608 0.585609,-0.642898 0.25,-0.96875 l -0.71875,-1.6875 0,-0.03125 c 0.195585,-0.360039 0.349498,-0.756468 0.46875,-1.15625 l 1.9375,-0.75 c 0.438108,-0.202371 0.2802,-0.744174 0.3125,-1.125 0.03668,-0.358569 -0.03228,-0.85065 -0.5,-0.84375 l -1.75,-0.71875 c -0.119252,-0.399782 -0.273165,-0.796211 -0.46875,-1.15625 l 0.84375,-1.875 c 0.166692,-0.452887 -0.316055,-0.7078758 -0.5625,-1 -0.227608,-0.2794844 -0.642898,-0.5856098 -0.96875,-0.25 l -1.6875,0.71875 -0.03125,0 C 14.599263,7.5605616 14.303585,7.4394059 14,7.335351 l 0,3.4375 c 0.608906,0.549074 1,1.334282 1,2.21875 0,1.656854 -1.343146,3 -3,3 -1.656854,0 -3,-1.343146 -3,-3 0,-0.884468 0.3910945,-1.669676 1,-2.21875 l 0,-3.4375 c -0.3035063,0.098765 -0.6004765,0.2258699 -0.875,0.375 l -0.03125,0 L 7.40625,6.991601 7.3125,6.929101 7.25,6.866601 C 7.1367782,6.8249282 7.0296571,6.8096841 6.9375,6.835351 z"
     id="path2997-8" />
  <path
     style="color:#dfdbd2;fill:#dfdbd2;fill-opacity:1;fill-rule:nonzero;stroke:none;stroke-width:1;marker:none;visibility:visible;display:inline;overflow:visible;enable-background:accumulate"
     d="M 12 4 C 11.446 4 11 4.446 11 5 L 11 11 C 11 11.554 11.446 12 12 12 C 12.554 12 13 11.554 13 11 L 13 5 C 13 4.446 12.554 4 12 4 z M 6.9375 5.84375 C 6.6610286 5.9207508 6.4690908 6.2526638 6.25 6.4375 C 5.9705152 6.6651083 5.6644114 7.0803771 6 7.40625 C 6.1482377 7.5544877 6.4851741 8.381977 6.75 9.0625 C 6.5386628 9.4407111 6.3761835 9.8582309 6.25 10.28125 L 4.5 11 L 4.40625 11 L 4.3125 11.03125 C 3.8743919 11.233621 4.0322955 11.775424 4 12.15625 C 3.9633178 12.514819 4.0322761 13.006869 4.5 13 C 4.7151484 13 5.5809882 13.35996 6.25 13.65625 C 6.370906 14.077282 6.5136373 14.497422 6.71875 14.875 C 6.7230131 14.882848 6.714453 14.898424 6.71875 14.90625 L 6 16.59375 L 5.9375 16.6875 L 5.875 16.75 C 5.7083087 17.202887 6.1910517 17.457879 6.4375 17.75 C 6.6651083 18.029485 7.0803771 18.335588 7.40625 18 C 7.5544877 17.851762 8.381977 17.514826 9.0625 17.25 C 9.4407111 17.461337 9.8582309 17.623817 10.28125 17.75 L 11.03125 19.6875 C 11.233621 20.125608 11.775424 19.9677 12.15625 20 C 12.514819 20.036682 13.0069 19.967724 13 19.5 L 13.71875 17.75 C 14.118532 17.630748 14.514961 17.476835 14.875 17.28125 L 16.75 18.125 C 17.202887 18.291692 17.457876 17.808945 17.75 17.5625 C 18.029489 17.334892 18.335609 16.919602 18 16.59375 L 17.28125 14.90625 L 17.28125 14.875 C 17.476835 14.514961 17.630748 14.118532 17.75 13.71875 L 19.6875 12.96875 C 20.125608 12.766379 19.9677 12.224576 20 11.84375 C 20.036682 11.485181 19.967724 10.9931 19.5 11 L 17.75 10.28125 C 17.630748 9.8814679 17.476835 9.485039 17.28125 9.125 L 18.125 7.25 C 18.291692 6.797113 17.808945 6.5421242 17.5625 6.25 C 17.334892 5.9705156 16.919602 5.6643902 16.59375 6 L 14.90625 6.71875 L 14.875 6.71875 C 14.599263 6.5689606 14.303585 6.4478049 14 6.34375 L 14 9.78125 C 14.608906 10.330324 15 11.115532 15 12 C 15 13.656854 13.656854 15 12 15 C 10.343146 15 9 13.656854 9 12 C 9 11.115532 9.3910945 10.330324 10 9.78125 L 10 6.34375 C 9.6964937 6.4425151 9.3995235 6.5696199 9.125 6.71875 L 9.09375 6.71875 L 7.40625 6 L 7.3125 5.9375 L 7.25 5.875 C 7.1367782 5.8333272 7.0296571 5.8180831 6.9375 5.84375 z "
     id="path2997" />
</svg>
