<?xml version="1.0" encoding="UTF-8" standalone="no"?>
<!-- Created with Inkscape (http://www.inkscape.org/) -->

<svg
   xmlns:dc="http://purl.org/dc/elements/1.1/"
   xmlns:cc="http://creativecommons.org/ns#"
   xmlns:rdf="http://www.w3.org/1999/02/22-rdf-syntax-ns#"
   xmlns:svg="http://www.w3.org/2000/svg"
   xmlns="http://www.w3.org/2000/svg"
   xmlns:sodipodi="http://sodipodi.sourceforge.net/DTD/sodipodi-0.dtd"
   xmlns:inkscape="http://www.inkscape.org/namespaces/inkscape"
   version="1.0"
   width="24"
   height="24"
   id="svg3215"
   inkscape:version="0.48.0 r9654"
   sodipodi:docname="ubuntuone-client-idle.svg">
  <metadata
     id="metadata8">
    <rdf:RDF>
      <cc:Work
         rdf:about="">
        <dc:format>image/svg+xml</dc:format>
        <dc:type
           rdf:resource="http://purl.org/dc/dcmitype/StillImage" />
        <dc:title></dc:title>
      </cc:Work>
    </rdf:RDF>
  </metadata>
  <sodipodi:namedview
     pagecolor="#ffffff"
     bordercolor="#666666"
     borderopacity="1"
     objecttolerance="10"
     gridtolerance="10"
     guidetolerance="10"
     inkscape:pageopacity="0"
     inkscape:pageshadow="2"
     inkscape:window-width="1280"
     inkscape:window-height="753"
     id="namedview6"
     showgrid="false"
     inkscape:zoom="13.227273"
     inkscape:cx="-0.49140893"
     inkscape:cy="11.793814"
     inkscape:window-x="0"
     inkscape:window-y="24"
     inkscape:window-maximized="1"
     inkscape:current-layer="svg3215" />
  <defs
     id="defs3217" />
  <path
     inkscape:connector-curvature="0"
     d="m 13.5,6.000001 c -1.689456,1e-7 -3.136804,1.0625201 -3.90625,2.59375 C 9.1604803,8.2333454 8.6072,8.0000011 8,8.000001 c -1.3799999,1e-7 -2.4999999,1.12 -2.5,2.5 0,0.309927 0.05301,0.601043 0.15625,0.875 C 4.0867423,12.07628 3,13.664032 3,15.5 3,17.993 5.007,20 7.5,20 l 9,0 c 2.493,0 4.5,-2.007 4.5,-4.5 0,-1.974673 -1.26873,-3.641032 -3.03125,-4.249999 0.0039,-0.08543 0.03125,-0.163499 0.03125,-0.25 0,-2.7600004 -2.016,-5 -4.5,-5 z"
     id="rect3193-5"
     style="opacity:0.3;fill:#000000;fill-opacity:1;fill-rule:evenodd;stroke:none;stroke-width:1.69999993;marker:none;visibility:visible;display:inline;overflow:visible;enable-background:accumulate" />
  <path
     d="m 13.5,5.0000006 c -1.689456,1e-7 -3.136804,1.0625201 -3.90625,2.59375 C 9.1604803,7.233345 8.6072,7.0000007 8,7.0000006 6.6200001,7.0000007 5.5000001,8.1200008 5.5,9.5 5.5,9.809927 5.55301,10.101043 5.65625,10.375 4.0867423,11.07628 3,12.664032 3,14.5 3,16.993 5.007,19 7.5,19 l 9,0 C 18.993,19 21,16.993 21,14.5 21,12.525327 19.73127,10.858967 17.96875,10.25 17.97265,10.16457 18,10.086501 18,10 18,7.2400002 15.984,5.0000006 13.5,5.0000006 z"
     id="rect3193"
     style="fill:#dfdbd2;fill-opacity:1;fill-rule:evenodd;stroke:none;stroke-width:1.69999993;marker:none;visibility:visible;display:inline;overflow:visible;enable-background:accumulate"
     inkscape:connector-curvature="0" />
</svg>
