<?xml version="1.0" encoding="UTF-8" standalone="no"?>
<!-- Created with Inkscape (http://www.inkscape.org/) -->

<svg
   xmlns:dc="http://purl.org/dc/elements/1.1/"
   xmlns:cc="http://creativecommons.org/ns#"
   xmlns:rdf="http://www.w3.org/1999/02/22-rdf-syntax-ns#"
   xmlns:svg="http://www.w3.org/2000/svg"
   xmlns="http://www.w3.org/2000/svg"
   xmlns:sodipodi="http://sodipodi.sourceforge.net/DTD/sodipodi-0.dtd"
   xmlns:inkscape="http://www.inkscape.org/namespaces/inkscape"
   version="1.0"
   width="24"
   height="24"
   id="svg2467"
   sodipodi:version="0.32"
   inkscape:version="0.48.0 r9654"
   sodipodi:docname="ubuntuone-client-updating.svg"
   inkscape:output_extension="org.inkscape.output.svg.inkscape">
  <metadata
     id="metadata8">
    <rdf:RDF>
      <cc:Work
         rdf:about="">
        <dc:format>image/svg+xml</dc:format>
        <dc:type
           rdf:resource="http://purl.org/dc/dcmitype/StillImage" />
        <dc:title></dc:title>
      </cc:Work>
    </rdf:RDF>
  </metadata>
  <sodipodi:namedview
     inkscape:window-height="753"
     inkscape:window-width="1280"
     inkscape:pageshadow="2"
     inkscape:pageopacity="0.0"
     guidetolerance="10.0"
     gridtolerance="10.0"
     objecttolerance="10.0"
     borderopacity="1.0"
     bordercolor="#666666"
     pagecolor="#ffffff"
     id="base"
     showgrid="false"
     inkscape:zoom="10.375"
     inkscape:cx="-10.120482"
     inkscape:cy="12"
     inkscape:window-x="0"
     inkscape:window-y="24"
     inkscape:current-layer="svg2467"
     inkscape:window-maximized="1" />
  <defs
     id="defs2469" />
  <path
     inkscape:connector-curvature="0"
     style="opacity:0.3;fill:#000000;fill-opacity:1;fill-rule:evenodd;stroke:none;stroke-width:4;marker:none;visibility:visible;display:inline;overflow:visible;enable-background:accumulate"
     id="rect3193-52"
     d="m 13.5,6 c -1.689456,1e-7 -3.136804,1.0625201 -3.90625,2.59375 C 9.1604803,8.2333444 8.6072,8.0000001 8,8 c -1.3799999,10e-8 -2.4999999,1.12 -2.5,2.5 0,0.309927 0.05301,0.601043 0.15625,0.875 C 4.0867423,12.07628 3,13.664032 3,15.5 3,17.993 5.007,20 7.5,20 l 9,0 C 18.993,20 21,17.993 21,15.5 21,13.525327 19.73127,11.858967 17.96875,11.25 17.97265,11.16457 18,11.086501 18,11 18,8.2399996 15.984,6 13.5,6 z M 12,10 c 1.482632,0 2.412772,0.558291 3,1.25 l 0,-1.25 1,0 0,2 0,1 -1,0 -2,0 0,-1 1.3125,0 C 13.877148,11.443283 13.170048,11 12,11 9,11 9,14 9,14 l -1,0 c 0,0 0,-4 4,-4 z m 3,4 1,0 c 0,0 0,4 -4,4 -1.482632,0 -2.412772,-0.558291 -3,-1.25 l 0,1.25 -1,0 0,-2 0,-1 1,0 2,0 0,1 -1.3125,0 c 0.435352,0.556717 1.142452,1 2.3125,1 3,0 3,-3 3,-3 z" />
  <path
     inkscape:connector-curvature="0"
     style="fill:#dfdbd2;fill-opacity:1;fill-rule:evenodd;stroke:none;stroke-width:4;marker:none;visibility:visible;display:inline;overflow:visible;enable-background:accumulate"
     id="rect3193"
     d="m 13.5,4.9870003 c -1.689456,1e-7 -3.136804,1.0625201 -3.90625,2.59375 C 9.1604803,7.2203447 8.6072,6.9870004 8,6.9870003 6.6200001,6.9870004 5.5000001,8.1070005 5.5,9.487 5.5,9.796927 5.55301,10.088043 5.65625,10.362 4.0867423,11.06328 3,12.651032 3,14.487 c 0,2.493 2.007,4.5 4.5,4.5 l 9,0 c 2.493,0 4.5,-2.007 4.5,-4.5 0,-1.974673 -1.26873,-3.641033 -3.03125,-4.25 C 17.97265,10.15157 18,10.073501 18,9.987 18,7.2269999 15.984,4.9870003 13.5,4.9870003 z m -1.5,4 c 1.482632,-2e-7 2.412772,0.5582917 3,1.2499997 l 0,-1.2499997 1,0 0,1.9999997 0,1 -1,0 -2,0 0,-1 1.3125,0 c -0.435352,-0.556717 -1.142452,-1 -2.3125,-1 -3,0 -3,3 -3,3 l -1,0 c 0,0 0,-4.0000001 4,-3.9999997 z m 3,3.9999997 1,0 c 0,0 0,4 -4,4 -1.482632,0 -2.412772,-0.558291 -3,-1.25 l 0,1.25 -1,0 0,-2 0,-1 1,0 2,0 0,1 -1.3125,0 c 0.435352,0.556717 1.142452,1 2.3125,1 3,0 3,-3 3,-3 z" />
</svg>
