<?xml version="1.0" encoding="UTF-8" standalone="no"?>
<!-- Created with Inkscape (http://www.inkscape.org/) -->

<svg
   xmlns:dc="http://purl.org/dc/elements/1.1/"
   xmlns:cc="http://creativecommons.org/ns#"
   xmlns:rdf="http://www.w3.org/1999/02/22-rdf-syntax-ns#"
   xmlns:svg="http://www.w3.org/2000/svg"
   xmlns="http://www.w3.org/2000/svg"
   xmlns:sodipodi="http://sodipodi.sourceforge.net/DTD/sodipodi-0.dtd"
   xmlns:inkscape="http://www.inkscape.org/namespaces/inkscape"
   id="svg3215"
   height="24"
   width="24"
   version="1.0"
   inkscape:version="0.48.3.1 r9886"
   sodipodi:docname="ubuntuone-client-paused.svg">
  <defs
     id="defs8" />
  <sodipodi:namedview
     pagecolor="#ffffff"
     bordercolor="#666666"
     borderopacity="1"
     objecttolerance="10"
     gridtolerance="10"
     guidetolerance="10"
     inkscape:pageopacity="0"
     inkscape:pageshadow="2"
     inkscape:window-width="1920"
     inkscape:window-height="1030"
     id="namedview6"
     showgrid="false"
     inkscape:zoom="12.791667"
     inkscape:cx="-0.58631922"
     inkscape:cy="12"
     inkscape:window-x="0"
     inkscape:window-y="22"
     inkscape:window-maximized="1"
     inkscape:current-layer="svg3215" />
  <metadata
     id="metadata8">
    <rdf:RDF>
      <cc:Work
         rdf:about="">
        <dc:format>image/svg+xml</dc:format>
        <dc:type
           rdf:resource="http://purl.org/dc/dcmitype/StillImage" />
        <dc:title />
      </cc:Work>
    </rdf:RDF>
  </metadata>
  <path
     id="path3770"
     d="m 13.5,6 c -1.6895,1e-7 -3.13685,1.06245 -3.90625,2.59375 C 9.16045,8.23325 8.6072,8 8,8 6.62,8 5.5,9.12 5.5,10.5 c 0,0.3099 0.05305,0.601 0.15625,0.875 C 4.08675,12.076 3,13.664 3,15.5 3,17.993 5.007,20 7.5,20 l 9,0 C 18.993,20 21,17.993 21,15.5 21,13.525 19.73075,11.859 17.96875,11.25 17.97275,11.165 18,11.087 18,11 18,8.24 15.984,6 13.5,6 z m -4.5,5 2,0 0,6 -2,0 0,-6 z m 4,0 2,0 0,6 -2,0 0,-6 z"
     style="opacity:0.3;fill:#000000;fill-rule:evenodd"
     inkscape:connector-curvature="0" />
  <path
     style="fill-rule:evenodd;fill:#dfdbd2"
     d="M 13.5 5 C 11.8105 5.0000001 10.36315 6.06245 9.59375 7.59375 C 9.16045 7.23325 8.6072 7 8 7 C 6.62 7 5.5 8.12 5.5 9.5 C 5.5 9.8099 5.55305 10.101 5.65625 10.375 C 4.08675 11.076 3 12.664 3 14.5 C 3 16.993 5.007 19 7.5 19 L 16.5 19 C 18.993 19 21 16.993 21 14.5 C 21 12.525 19.73075 10.859 17.96875 10.25 C 17.97275 10.165 18 10.087 18 10 C 18 7.24 15.984 5 13.5 5 z M 9 10 L 11 10 L 11 16 L 9 16 L 9 10 z M 13 10 L 15 10 L 15 16 L 13 16 L 13 10 z "
     id="rect3193" />
</svg>
