<?xml version="1.0" encoding="UTF-8" standalone="no"?>
<!-- Created with Inkscape (http://www.inkscape.org/) -->
<svg
   xmlns:svg="http://www.w3.org/2000/svg"
   xmlns="http://www.w3.org/2000/svg"
   version="1.0"
   width="24"
   height="24"
   id="svg2816"
   style="display:inline">
  <defs
     id="defs2818" />
  <g
     id="g3152"
     style="opacity:0.4">
    <path
       d="M 10.633508,5 C 12.956963,5 15.069175,5.7748344 16.645621,7.1025105 C 18.222067,8.4301865 19.267017,10.351211 19.267017,12.5 C 19.267017,12.938247 19.178844,13.326601 19.096056,13.723849 L 21.688958,16.171548 C 21.966615,16.433884 22.070552,16.856422 21.9511,17.237241 C 21.83165,17.618059 21.513062,17.879842 21.147582,17.89749 L 16.38918,17.991632 C 14.837228,19.219584 12.85967,20 10.633508,20 C 8.310053,20 6.1978412,19.225166 4.6213952,17.89749 C 3.0449492,16.569814 1.9999991,14.648789 2,12.5 C 2,10.351211 3.0449492,8.4301865 4.6213952,7.1025105 C 6.1978412,5.7748344 8.310053,4.9999999 10.633508,5 z"
       id="path3189"
       style="opacity:0.6;fill:#3a3935;fill-opacity:1;fill-rule:evenodd;stroke:none;stroke-width:1.69999993;stroke-linecap:round;stroke-linejoin:miter;marker:none;marker-start:none;marker-mid:none;marker-end:none;stroke-miterlimit:4;stroke-dasharray:none;stroke-dashoffset:0;stroke-opacity:1;visibility:visible;display:inline;overflow:visible;enable-background:accumulate" />
    <path
       d="M 10.65,6 C 14.8728,6 18.3,8.9120003 18.3,12.5 C 18.3,13.050338 18.198637,13.583288 18.046875,14.09375 L 21,16.90625 L 16.1625,17 C 14.770076,18.23217 12.817646,19 10.65,19 C 6.4272,19 2.9999991,16.088 3,12.5 C 3,8.9120001 6.4272,5.9999999 10.65,6 z"
       id="path2396"
       style="fill:#eae3d1;fill-opacity:1;fill-rule:evenodd;stroke:none;stroke-width:1;stroke-linecap:butt;stroke-linejoin:miter;marker:none;marker-start:none;marker-mid:none;marker-end:none;stroke-miterlimit:4;stroke-dasharray:none;stroke-dashoffset:0;stroke-opacity:1;visibility:visible;display:inline;overflow:visible;enable-background:accumulate" />
  </g>
</svg>
