<?xml version="1.0" encoding="UTF-8" standalone="no"?>
<!-- Created with Inkscape (http://www.inkscape.org/) -->
<svg
   xmlns:dc="http://purl.org/dc/elements/1.1/"
   xmlns:cc="http://creativecommons.org/ns#"
   xmlns:rdf="http://www.w3.org/1999/02/22-rdf-syntax-ns#"
   xmlns:svg="http://www.w3.org/2000/svg"
   xmlns="http://www.w3.org/2000/svg"
   xmlns:sodipodi="http://sodipodi.sourceforge.net/DTD/sodipodi-0.dtd"
   xmlns:inkscape="http://www.inkscape.org/namespaces/inkscape"
   version="1.0"
   width="24"
   height="24"
   id="svg2816"
   style="display:inline"
   sodipodi:version="0.32"
   inkscape:version="0.46"
   sodipodi:docname="user-idle.svg"
   inkscape:output_extension="org.inkscape.output.svg.inkscape">
  <metadata
     id="metadata9">
    <rdf:RDF>
      <cc:Work
         rdf:about="">
        <dc:format>image/svg+xml</dc:format>
        <dc:type
           rdf:resource="http://purl.org/dc/dcmitype/StillImage" />
      </cc:Work>
    </rdf:RDF>
  </metadata>
  <sodipodi:namedview
     inkscape:window-height="781"
     inkscape:window-width="1440"
     inkscape:pageshadow="2"
     inkscape:pageopacity="0.0"
     guidetolerance="10.0"
     gridtolerance="10.0"
     objecttolerance="10.0"
     borderopacity="1.0"
     bordercolor="#666666"
     pagecolor="#ffffff"
     id="base"
     showgrid="false"
     inkscape:zoom="20.75"
     inkscape:cx="4.5301205"
     inkscape:cy="12"
     inkscape:window-x="0"
     inkscape:window-y="24"
     inkscape:current-layer="svg2816" />
  <defs
     id="defs2818">
    <inkscape:perspective
       sodipodi:type="inkscape:persp3d"
       inkscape:vp_x="0 : 12 : 1"
       inkscape:vp_y="0 : 1000 : 0"
       inkscape:vp_z="24 : 12 : 1"
       inkscape:persp3d-origin="12 : 8 : 1"
       id="perspective11" />
  </defs>
  <path
     d="M 10.625,5 C 8.301545,4.9999999 6.2014461,5.7660739 4.625,7.09375 C 3.048554,8.421426 2,10.351211 2,12.5 C 1.9999991,14.648789 3.0485541,16.578574 4.625,17.90625 C 6.201446,19.233926 8.3015453,20 10.625,20 C 12.851162,20 14.823048,19.227952 16.375,18 L 21.15625,17.90625 C 21.52173,17.888602 21.818051,17.630817 21.9375,17.25 C 22.056952,16.869181 21.965158,16.418586 21.6875,16.15625 L 19.09375,13.71875 C 19.176538,13.321502 19.28125,12.938247 19.28125,12.5 C 19.28125,10.351211 18.232696,8.421426 16.65625,7.09375 C 15.079804,5.7660739 12.948455,5 10.625,5 z M 10.5,8 C 12.984,8 15,10.016 15,12.5 C 15,14.984 12.984,17 10.5,17 C 8.0160004,17 6,14.984 6,12.5 C 6,10.016 8.016,8 10.5,8 z"
     id="path3189"
     style="opacity:0.59999999999999998;fill:#3a3935;fill-opacity:1;fill-rule:evenodd;stroke:none;stroke-width:1.69999992999999994;stroke-linecap:round;stroke-linejoin:miter;marker:none;marker-start:none;marker-mid:none;marker-end:none;stroke-miterlimit:4;stroke-dasharray:none;stroke-dashoffset:0;stroke-opacity:1;visibility:visible;display:inline;overflow:visible;enable-background:accumulate" />
  <path
     d="M 10.65625,6 C 6.43345,5.9999999 3,8.9120001 3,12.5 C 2.9999991,16.088 6.4334504,19 10.65625,19 C 12.823896,19 14.763826,18.23217 16.15625,17 L 21,16.90625 L 18.0625,14.09375 C 18.214262,13.583288 18.312501,13.050338 18.3125,12.5 C 18.3125,8.9120003 14.87905,6 10.65625,6 z M 10.5,8 C 12.984,8 15,10.016 15,12.5 C 15,14.984 12.984,17 10.5,17 C 8.0160004,17 6,14.984 6,12.5 C 6,10.016 8.016,8 10.5,8 z"
     id="path2396"
     style="fill:#ebe4d2;fill-opacity:1;fill-rule:evenodd;stroke:none;stroke-width:1;stroke-linecap:butt;stroke-linejoin:miter;marker:none;marker-start:none;marker-mid:none;marker-end:none;stroke-miterlimit:4;stroke-dasharray:none;stroke-dashoffset:0;stroke-opacity:1;visibility:visible;display:inline;overflow:visible;enable-background:accumulate" />
  <path
     d="M 12.262048,12.49928 L 10.5,12.49928 L 10.5,9.9992807"
     id="path2817"
     style="fill:none;stroke:#ebe4d2;stroke-width:1px;stroke-linecap:round;stroke-linejoin:round;stroke-opacity:1;display:inline" />
  <path
     d="M 14.75,12.49928 C 14.750399,14.846772 12.847491,16.75 10.499999,16.75 C 8.1525081,16.75 6.2496021,14.846772 6.2500001,12.49928 C 6.2496021,10.151788 8.1525081,8.2485587 10.499999,8.2485587 C 12.847491,8.2485587 14.750399,10.151788 14.75,12.49928 z"
     id="path3208"
     style="opacity:0.29999999999999999;fill:none;fill-opacity:1;fill-rule:evenodd;stroke:#ffffff;stroke-width:0.50000000000000000;stroke-linecap:round;stroke-linejoin:miter;marker:none;marker-start:none;marker-mid:none;marker-end:none;stroke-miterlimit:4;stroke-dasharray:none;stroke-dashoffset:0;stroke-opacity:1;visibility:visible;display:inline;overflow:visible;enable-background:accumulate" />
</svg>
