<?xml version="1.0" encoding="UTF-8" standalone="no"?>
<!-- Created with Inkscape (http://www.inkscape.org/) -->
<svg
   xmlns:svg="http://www.w3.org/2000/svg"
   xmlns="http://www.w3.org/2000/svg"
   version="1.0"
   width="24"
   height="24"
   id="svg3186">
  <defs
     id="defs3188" />
  <path
     d="M 13.333742,13.950464 C 13.404819,11.986155 12.185602,11.435532 11.851641,11.138981 C 10.673368,10.092418 13.565592,5.7508991 12.014517,6.0112292 C 10.463541,6.2715594 9.0286915,7.1720096 8.1151046,8.4583669 C 7.2016178,9.7447243 6.8205061,11.401172 7.0794859,12.960044 C 7.3384656,14.518896 8.2344335,15.960984 9.5143161,16.879193 C 10.794199,17.797391 12.442279,18.180401 13.993254,17.920071 C 15.54433,17.659741 16.97908,16.75929 17.892667,15.472933 C 18.806354,14.186566 13.592722,15.509356 13.333742,13.950464 L 13.333742,13.950464 z"
     id="path2876-6-6-4"
     style="fill:#eae3d0;fill-opacity:1;stroke:none;stroke-width:2;stroke-linecap:round;stroke-miterlimit:4;stroke-dasharray:none;stroke-dashoffset:0;stroke-opacity:1;display:inline" />
  <path
     d="M 11.896943,5.5121499 C 10.206831,5.7957944 8.6985879,6.8077713 7.7108105,8.1983961 C 6.7189147,9.5949723 6.3053163,11.380774 6.5861778,13.071122 C 6.8663082,14.757048 7.8194262,16.290192 9.2103208,17.287903 C 10.603587,18.287304 12.400091,18.694937 14.083729,18.412379 C 15.766503,18.129984 17.308065,17.155396 18.301102,15.757368 C 18.384583,15.639851 18.4574,15.511805 18.48854,15.351307 C 18.519681,15.190809 18.487005,15.000785 18.394821,14.851541 C 18.210452,14.553052 17.94194,14.49822 17.707546,14.44548 C 17.238757,14.34 16.658719,14.334017 16.051836,14.320538 C 15.444954,14.30706 14.832473,14.263462 14.396127,14.164361 C 14.177954,14.11481 14.012953,14.067875 13.92753,14.008184 C 13.842107,13.948494 13.84327,13.90894 13.833811,13.852007 L 13.802571,13.852007 C 13.808028,12.841145 13.504462,12.081308 13.115295,11.603057 C 12.707738,11.102206 12.232237,10.807765 12.178101,10.759701 C 12.085279,10.677266 12.013094,10.402649 12.084382,9.9163443 C 12.155671,9.43004 12.331914,8.8201314 12.521739,8.2296316 C 12.711565,7.6391318 12.915476,7.101273 12.959096,6.6053896 C 12.980907,6.3574479 12.969066,6.0876229 12.771658,5.8245041 C 12.574249,5.5613853 12.188933,5.4631496 11.896943,5.5121499 z"
     id="path3184"
     style="opacity:0.6;fill:none;fill-opacity:1;fill-rule:nonzero;stroke:#3a3935;stroke-width:1.00000012;stroke-linecap:round;stroke-linejoin:miter;marker:none;marker-start:none;marker-mid:none;marker-end:none;stroke-miterlimit:4;stroke-dasharray:none;stroke-dashoffset:0;stroke-opacity:1;visibility:visible;display:inline;overflow:visible;enable-background:accumulate" />
</svg>
