<?xml version="1.0" encoding="UTF-8" standalone="no"?>
<!-- Created with Inkscape (http://www.inkscape.org/) -->
<svg
   xmlns:svg="http://www.w3.org/2000/svg"
   xmlns="http://www.w3.org/2000/svg"
   version="1.0"
   width="24"
   height="24"
   id="svg3187">
  <defs
     id="defs3189" />
  <path
     d="M 13.024667,4.5001422 C 11.877646,4.4891223 10.825727,5.1202577 10.245013,5.9613093 C 9.2208996,5.3481864 7.7165661,5.8835596 7.3343476,6.8822536 C 7.0219782,7.3539052 7.5723367,7.9758142 6.8238365,8.1619185 C 5.5425712,8.9854495 5.1195154,10.633303 5.8733701,11.857349 C 6.477697,12.926543 7.8486775,13.580927 9.1997263,13.491938 C 11.246391,13.486315 13.293696,13.50333 15.33995,13.483174 C 17.036583,13.399807 18.489962,12.061095 18.497328,10.571846 C 18.554072,9.3887875 17.672934,8.2608835 16.44578,7.797135 C 16.482745,6.2830874 15.22979,4.7341021 13.460978,4.5268581 C 13.316493,4.5090195 13.170577,4.5001347 13.024667,4.5001422 z M 8.4999189,12.500001 C 8.4999189,13.60457 9.3953494,14.5 10.499919,14.5 C 11.604488,14.5 12.499919,13.60457 12.499919,12.500001 C 12.499919,11.395431 11.604488,10.5 10.499919,10.5 C 9.3953494,10.5 8.4999189,11.395431 8.4999189,12.500001 L 8.4999189,12.500001 z M 11.499919,15.500001 C 11.499919,16.60457 12.395349,17.5 13.499918,17.5 C 14.604488,17.5 15.499918,16.60457 15.499918,15.500001 C 15.499918,14.395431 14.604488,13.500001 13.499918,13.500001 C 12.395349,13.500001 11.499919,14.395431 11.499919,15.500001 L 11.499919,15.500001 z M 7.4999189,17.500001 C 7.4999189,18.60457 8.3953494,19.5 9.4999188,19.5 C 10.604488,19.5 11.499919,18.60457 11.499919,17.500001 C 11.499919,16.395431 10.604488,15.5 9.4999188,15.5 C 8.3953494,15.5 7.4999189,16.395431 7.4999189,17.500001 L 7.4999189,17.500001 z"
     id="path2395"
     style="opacity:0.6;fill:none;fill-opacity:1;fill-rule:nonzero;stroke:#3a3935;stroke-width:0.99999982;stroke-linecap:round;stroke-linejoin:miter;marker:none;marker-start:none;marker-mid:none;marker-end:none;stroke-miterlimit:4;stroke-dasharray:none;stroke-dashoffset:0;stroke-opacity:1;visibility:visible;display:inline;overflow:visible;enable-background:accumulate" />
  <path
     d="M 12.999919,5.0000002 C 11.873615,5.0000002 10.919133,5.5937618 10.406169,6.4687502 C 10.117322,6.2628041 9.748469,6.1562502 9.343669,6.1562502 C 8.4236689,6.1562501 7.6561691,6.7739288 7.656169,7.5625002 C 7.6561691,7.7396009 7.7123421,7.9059554 7.781169,8.0625002 C 6.7348303,8.4632321 5.999919,9.3883762 5.999919,10.4375 C 5.999919,11.564587 6.8582779,12.494777 8.031169,12.84375 C 8.0153126,12.72996 7.999919,12.618157 7.999919,12.5 C 7.999919,11.119288 9.1192072,10 10.499919,10 C 11.880631,10 12.999919,11.119288 12.999919,12.5 C 12.999919,12.672589 12.970721,12.837256 12.937419,13 L 14.999919,13 C 16.661919,13 17.999919,11.862071 17.999919,10.4375 C 17.999919,9.3091162 17.143683,8.3479802 15.968669,8.0000002 C 15.971279,7.9511854 15.999919,7.8931799 15.999919,7.8437502 C 15.999919,6.2666073 14.655919,5.0000002 12.999919,5.0000002 z M 11.99992,15.5 C 11.99992,16.328427 12.671493,17 13.499919,17 C 14.328348,17 14.99992,16.328427 14.99992,15.5 C 14.99992,14.671573 14.328348,14 13.499919,14 C 12.671493,14 11.99992,14.671573 11.99992,15.5 L 11.99992,15.5 z M 8.999919,12.5 C 8.999919,13.328427 9.6714919,14 10.499919,14 C 11.328346,14 11.999919,13.328427 11.999919,12.5 C 11.999919,11.671573 11.328346,11 10.499919,11 C 9.6714919,11 8.999919,11.671573 8.999919,12.5 L 8.999919,12.5 z M 7.999919,17.5 C 7.999919,18.328427 8.6714918,19 9.499919,19 C 10.328346,19 10.999919,18.328427 10.999919,17.5 C 10.999919,16.671573 10.328346,16 9.499919,16 C 8.6714918,16 7.999919,16.671573 7.999919,17.5 L 7.999919,17.5 z"
     id="path2397"
     style="fill:#eae3d1;fill-opacity:1;fill-rule:evenodd;stroke:none;stroke-width:4;stroke-linecap:butt;stroke-linejoin:miter;marker:none;marker-start:none;marker-mid:none;marker-end:none;stroke-miterlimit:4;stroke-dasharray:none;stroke-dashoffset:0;stroke-opacity:1;visibility:visible;display:inline;overflow:visible;enable-background:accumulate" />
</svg>
