<?xml version="1.0" encoding="UTF-8" standalone="no"?>
<!-- Created with Inkscape (http://www.inkscape.org/) -->

<svg
   xmlns:dc="http://purl.org/dc/elements/1.1/"
   xmlns:cc="http://creativecommons.org/ns#"
   xmlns:rdf="http://www.w3.org/1999/02/22-rdf-syntax-ns#"
   xmlns:svg="http://www.w3.org/2000/svg"
   xmlns="http://www.w3.org/2000/svg"
   version="1.1"
   width="24"
   height="24"
   id="svg3793">
  <defs
     id="defs3795" />
  <metadata
     id="metadata3798">
    <rdf:RDF>
      <cc:Work
         rdf:about="">
        <dc:format>image/svg+xml</dc:format>
        <dc:type
           rdf:resource="http://purl.org/dc/dcmitype/StillImage" />
        <dc:title></dc:title>
      </cc:Work>
    </rdf:RDF>
  </metadata>
  <g
     transform="translate(0,8)"
     id="layer1">
    <path
       d="m 13.333759,6.9504657 c 0.07108,-1.964309 -1.14814,-2.514932 -1.482101,-2.811483 -1.178273,-1.046563 1.713951,-5.3880823 0.162876,-5.12775228 -1.550976,0.2603302 -2.985826,1.1607804 -3.8994129,2.44713768 -0.9134868,1.2863574 -1.2945985,2.9428056 -1.0356187,4.5016776 0.2589797,1.558852 1.1549476,3.0009402 2.4348302,3.9191492 1.2798824,0.9181981 2.9279634,1.3012081 4.4789384,1.0408781 1.551076,-0.26033 2.985826,-1.1607811 3.899413,-2.4471381 0.913687,-1.2863672 -4.299945,0.03642 -4.558925,-1.5224692 l 0,0 z"
       id="path2876-6-6-4-4"
       style="opacity:0.3;fill:#000000;fill-opacity:1;stroke:none;display:inline" />
    <path
       d="m 13.333759,5.9504637 c 0.07108,-1.964309 -1.14814,-2.514932 -1.482101,-2.811483 -1.178273,-1.0465631 1.713951,-5.3880821 0.162876,-5.1277519 C 10.463558,-1.728441 9.028708,-0.82799088 8.1151211,0.45836642 7.2016343,1.7447238 6.8205226,3.4011717 7.0795024,4.9600437 c 0.2589797,1.558852 1.1549476,3.00094 2.4348302,3.9191492 1.2798824,0.918198 2.9279634,1.3012081 4.4789384,1.040878 1.551076,-0.26033 2.985826,-1.160781 3.899413,-2.4471382 0.913687,-1.286367 -4.299945,0.03642 -4.558925,-1.522469 l 0,0 z"
       id="path2876-6-6-4"
       style="fill:#dfdbd2;fill-opacity:1;stroke:none;display:inline" />
  </g>
</svg>
