<?xml version="1.0" encoding="UTF-8" standalone="no"?>
<!-- Created with Inkscape (http://www.inkscape.org/) -->

<svg
   xmlns:dc="http://purl.org/dc/elements/1.1/"
   xmlns:cc="http://creativecommons.org/ns#"
   xmlns:rdf="http://www.w3.org/1999/02/22-rdf-syntax-ns#"
   xmlns:svg="http://www.w3.org/2000/svg"
   xmlns="http://www.w3.org/2000/svg"
   version="1.0"
   width="24"
   height="24"
   id="svg3186">
  <metadata
     id="metadata9">
    <rdf:RDF>
      <cc:Work
         rdf:about="">
        <dc:format>image/svg+xml</dc:format>
        <dc:type
           rdf:resource="http://purl.org/dc/dcmitype/StillImage" />
        <dc:title></dc:title>
      </cc:Work>
    </rdf:RDF>
  </metadata>
  <defs
     id="defs3188" />
  <path
     d="M 12,6.9999997 C 10.449025,7.2603299 9.0385869,8.1823924 8.125,9.46875 7.2417569,10.712518 6.8529615,12.299488 7.0625,13.8125 7.2033131,13.786662 7.3537654,13.78125 7.5,13.78125 c 0.2115101,0 0.3204114,0.105916 0.5,0.15625 0.5975807,-0.573754 1.346862,-1 2.25,-1 1.615109,0 2.924891,1.187134 3.1875,2.71875 0.891321,0.510019 1.625,1.305903 1.625,2.40625 0,0.195054 -0.02459,0.380361 -0.0625,0.5625 1.149381,-0.414251 2.196317,-1.156643 2.90625,-2.15625 0.913687,-1.286367 -4.30352,0.02764 -4.5625,-1.53125 0.07108,-1.964308 -1.166039,-2.515949 -1.5,-2.8125 C 10.665478,11.078437 13.551076,6.7396696 12,6.9999997 z M 10.25,14 C 9.4052722,14 8.6972229,14.468759 8.3125,15.125 8.0958651,14.970541 7.8035999,14.84375 7.5,14.84375 c -0.69,0 -1.2499999,0.502322 -1.25,1.09375 0,0.132826 0.04213,0.257591 0.09375,0.375 C 5.5589962,16.613049 5,17.275656 5,18.0625 5,19.130929 6.0035,20 7.25,20 l 4.5,0 C 12.9965,20 14,19.130929 14,18.0625 14,17.216212 13.350011,16.510986 12.46875,16.25 12.470708,16.213389 12.5,16.193323 12.5,16.15625 12.5,14.973393 11.492,14 10.25,14 z"
     id="rect3193-4"
     style="opacity:0.3;fill:#000000;fill-opacity:1;fill-rule:evenodd;stroke:none;stroke-width:4;marker:none;visibility:visible;display:inline;overflow:visible;enable-background:accumulate" />
  <path
     d="M 12,6 C 10.449025,6.2603302 9.0385869,7.1823927 8.125,8.46875 7.2417569,9.712519 6.8529615,11.299488 7.0625,12.8125 7.2033131,12.786662 7.3537654,12.78125 7.5,12.78125 c 0.2115101,0 0.3204114,0.105916 0.5,0.15625 0.5975807,-0.573754 1.346862,-1 2.25,-1 1.615109,0 2.924891,1.187134 3.1875,2.71875 0.891321,0.510019 1.625,1.305903 1.625,2.40625 0,0.195054 -0.02459,0.380361 -0.0625,0.5625 1.149381,-0.414251 2.196317,-1.156643 2.90625,-2.15625 0.913687,-1.286367 -4.30352,0.02764 -4.5625,-1.53125 0.07108,-1.964308 -1.166039,-2.515949 -1.5,-2.8125 C 10.665478,10.078437 13.551076,5.7396699 12,6 z m -1.75,7 C 9.4052722,13 8.6972229,13.468759 8.3125,14.125 8.0958651,13.970541 7.8035999,13.84375 7.5,13.84375 c -0.69,0 -1.2499999,0.502322 -1.25,1.09375 0,0.132826 0.04213,0.257591 0.09375,0.375 C 5.5589962,15.613049 5,16.275656 5,17.0625 5,18.130929 6.0035,19 7.25,19 l 4.5,0 C 12.9965,19 14,18.130929 14,17.0625 14,16.216212 13.350011,15.510986 12.46875,15.25 12.470708,15.213389 12.5,15.193323 12.5,15.15625 12.5,13.973393 11.492,13 10.25,13 z"
     id="rect3193"
     style="fill:#dfdbd2;fill-opacity:1;fill-rule:evenodd;stroke:none;stroke-width:4;marker:none;visibility:visible;display:inline;overflow:visible;enable-background:accumulate" />
</svg>
