<?xml version="1.0" encoding="UTF-8" standalone="no"?>
<!-- Created with Inkscape (http://www.inkscape.org/) -->

<svg
   xmlns:dc="http://purl.org/dc/elements/1.1/"
   xmlns:cc="http://creativecommons.org/ns#"
   xmlns:rdf="http://www.w3.org/1999/02/22-rdf-syntax-ns#"
   xmlns:svg="http://www.w3.org/2000/svg"
   xmlns="http://www.w3.org/2000/svg"
   version="1.0"
   width="24"
   height="24"
   id="svg3187">
  <metadata
     id="metadata10">
    <rdf:RDF>
      <cc:Work
         rdf:about="">
        <dc:format>image/svg+xml</dc:format>
        <dc:type
           rdf:resource="http://purl.org/dc/dcmitype/StillImage" />
        <dc:title></dc:title>
      </cc:Work>
    </rdf:RDF>
  </metadata>
  <defs
     id="defs3189" />
  <path
     d="M 13.00004,6 C 11.873736,6 10.919254,6.5937616 10.40629,7.46875 10.117444,7.2628039 9.7485903,7.15625 9.3437903,7.15625 c -0.9199998,-1e-7 -1.6874999,0.6176786 -1.6875,1.40625 -1e-7,0.1771007 0.056173,0.3434552 0.125,0.5 -1.0463384,0.400732 -1.78125,1.325876 -1.78125,2.375 0,1.424571 1.338,2.5625 3,2.5625 l 0.9999997,0 0,-3.96875 c 0,-0.511869 0.425631,-0.9375 0.9375,-0.9375 l 2.125,0 c 0.511869,0 0.9375,0.425631 0.9375,0.9375 l 0,3.96875 1,0 c 1.662,0 3,-1.137929 3,-2.5625 0,-1.128384 -0.856236,-2.08952 -2.03125,-2.4375 0.0026,-0.048815 0.03125,-0.1068203 0.03125,-0.15625 0,-1.5771429 -1.344,-2.84375 -3,-2.84375 z m -1,4 c -0.554,0 -1,0.446 -1,1 l 0,5 c 0,0.554 0.446,1 1,1 0.554,0 1,-0.446 1,-1 l 0,-5 c 0,-0.554 -0.446,-1 -1,-1 z m -0.5,8 c -0.277,0 -0.5,0.223 -0.5,0.5 l 0,0.5 0,0.5 c 0,0.277 0.223,0.5 0.5,0.5 l 0.5,0 0.5,0 c 0.277,0 0.5,-0.223 0.5,-0.5 l 0,-0.5 0,-0.5 c 0,-0.277 -0.223,-0.5 -0.5,-0.5 l -0.5,0 -0.5,0 z"
     id="path2397-8"
     style="opacity:0.3;fill:#000000;fill-opacity:1;fill-rule:evenodd;stroke:none;stroke-width:4;marker:none;visibility:visible;display:inline;overflow:visible;enable-background:accumulate" />
  <path
     d="m 13,5 c -1.126304,0 -2.080786,0.5937616 -2.59375,1.46875 -0.288846,-0.2059461 -0.6577,-0.3125 -1.0625,-0.3125 -0.9199998,-1e-7 -1.6874999,0.6176786 -1.6875,1.40625 -1e-7,0.1771007 0.056173,0.3434552 0.125,0.5 C 6.7349116,8.4632319 6,9.388376 6,10.4375 6,11.862071 7.338,13 9,13 l 1,0 0,-3.96875 c 0,-0.5118689 0.425631,-0.9375 0.9375,-0.9375 l 2.125,0 C 13.574369,8.09375 14,8.519381 14,9.03125 L 14,13 l 1,0 c 1.662,0 3,-1.137929 3,-2.5625 C 18,9.309116 17.143764,8.34798 15.96875,8 15.97135,7.951185 16,7.8931797 16,7.84375 16,6.2666071 14.656,5 13,5 z"
     id="path2397"
     style="fill:#dfdbd2;fill-opacity:1;fill-rule:evenodd;stroke:none;stroke-width:4;marker:none;visibility:visible;display:inline;overflow:visible;enable-background:accumulate" />
  <path
     d="m 12.00004,9 c -0.554,0 -1,0.446 -1,1 l 0,5 c 0,0.554 0.446,1 1,1 0.554,0 1,-0.446 1,-1 l 0,-5 c 0,-0.554 -0.446,-1 -1,-1 z m -0.5,8 c -0.277,0 -0.5,0.223 -0.5,0.5 l 0,0.5 0,0.5 c 0,0.277 0.223,0.5 0.5,0.5 l 0.5,0 0.5,0 c 0.277,0 0.5,-0.223 0.5,-0.5 l 0,-0.5 0,-0.5 c 0,-0.277 -0.223,-0.5 -0.5,-0.5 l -0.5,0 -0.5,0 z"
     id="path3160"
     style="fill:#df382c;fill-opacity:1;fill-rule:evenodd;stroke:none;stroke-width:1.69999993;marker:none;visibility:visible;display:inline;overflow:visible;enable-background:accumulate" />
</svg>
