<?xml version="1.0" encoding="UTF-8" standalone="no"?>
<!-- Created with Inkscape (http://www.inkscape.org/) -->
<svg
   xmlns:svg="http://www.w3.org/2000/svg"
   xmlns="http://www.w3.org/2000/svg"
   version="1.0"
   width="24"
   height="24"
   id="svg3187">
  <defs
     id="defs3189" />
  <path
     d="M 16.9497,16.949748 L 16.384101,16.384049 M 16.454801,7.5452287 L 16.9497,7.0502486 M 7.6159,7.6159287 L 7.0503,7.0502486 M 5,11.999999 L 6,11.999999 M 18,11.999999 L 19,11.999999 M 12,5.9999988 L 12,4.9999987"
     id="path2480"
     style="opacity:0.6;fill:none;stroke:#6c6962;stroke-width:4;stroke-linecap:round;stroke-linejoin:miter;marker:none;stroke-miterlimit:4;stroke-dasharray:none;stroke-dashoffset:0;stroke-opacity:1;visibility:visible;display:inline;overflow:visible;enable-background:accumulate" />
  <path
     d="M 16.500033,11.999968 C 16.500033,9.5146756 14.485314,7.4999488 12.000033,7.4999488 C 9.5147511,7.4999488 7.5000323,9.5146756 7.5000323,11.999968 C 7.5000323,14.485259 9.5147511,16.499986 12.000033,16.499986 C 14.485314,16.499986 16.500033,14.485259 16.500033,11.999968 L 16.500033,11.999968 z M 10.288241,12.50011 C 9.405912,12.491539 8.596738,12.982422 8.1500327,13.636573 C 7.362248,13.1597 6.2050613,13.576101 5.9110452,14.352863 C 5.6707596,14.719703 6.0941149,15.20341 5.518342,15.348158 C 4.5327472,15.988683 4.2073176,17.270347 4.7872094,18.222383 C 5.2520791,19.053977 6.306686,19.562943 7.3459609,19.49373 C 8.9203279,19.489356 10.495188,19.50259 12.069239,19.486913 C 13.37435,19.422072 14.492341,18.380851 14.498006,17.222546 C 14.541656,16.302389 13.863854,15.425131 12.919883,15.064438 C 12.948318,13.886845 11.9845,12.682079 10.623867,12.520889 C 10.512724,12.507015 10.40048,12.500104 10.288241,12.50011 z"
     id="path3183"
     style="opacity:0.6;fill:none;fill-opacity:1;fill-rule:nonzero;stroke:#3a3935;stroke-width:1.00000024;stroke-linecap:round;stroke-linejoin:miter;marker:none;marker-start:none;marker-mid:none;marker-end:none;stroke-miterlimit:4;stroke-dasharray:none;stroke-dashoffset:0;stroke-opacity:1;visibility:visible;display:inline;overflow:visible;enable-background:accumulate" />
  <path
     d="M 16.9497,16.949748 L 16.384101,16.384049 M 16.454801,7.5452287 L 16.9497,7.0502486 M 7.6159,7.6159287 L 7.0503,7.0502486 M 5,11.999999 L 6,11.999999 M 18,11.999999 L 19,11.999999 M 12,5.9999988 L 12,4.9999987"
     id="path2496"
     style="fill:none;stroke:#eae3d1;stroke-width:2;stroke-linecap:round;stroke-linejoin:miter;marker:none;stroke-miterlimit:4;stroke-dasharray:none;stroke-dashoffset:0;stroke-opacity:1;visibility:visible;display:inline;overflow:visible;enable-background:accumulate" />
  <path
     d="M 12,7.9999988 C 9.7908711,7.9999987 8,9.7908604 8,11.999999 C 8,12.286745 8.0364069,12.574099 8.09375,12.843749 C 8.674795,12.316212 9.3949988,11.937499 10.25,11.937499 C 11.865109,11.937499 13.174891,13.124633 13.4375,14.656249 C 13.74553,14.832506 14.0034,15.067192 14.25,15.312499 C 14.255247,15.317718 14.276042,15.307248 14.28125,15.312499 C 15.333643,14.591923 16,13.371757 16,11.999999 C 16,9.7908602 14.209129,7.9999988 12,7.9999988 z M 10.249999,12.999999 C 9.4052717,12.999999 8.6815977,13.455365 8.2968748,14.111606 C 8.0802399,13.957147 7.8035998,13.857142 7.4999999,13.857142 C 6.8099999,13.857142 6.25,14.337142 6.2499999,14.92857 C 6.2499999,15.061396 6.2765047,15.186161 6.3281249,15.30357 C 5.5433711,15.604119 5,16.284583 5,17.071427 C 5,18.139856 6.0035,18.999999 7.25,18.999999 L 11.75,18.999999 C 12.9965,18.999999 14,18.139856 14,17.071427 C 14,16.225139 13.365635,15.510985 12.484374,15.249999 C 12.486332,15.213388 12.5,15.179929 12.5,15.142856 C 12.5,13.959999 11.492,12.999999 10.249999,12.999999 z"
     id="path2876-6-6-4-0"
     style="fill:#eae3d1;fill-opacity:1;fill-rule:nonzero;stroke:none;stroke-width:11.49051189;stroke-linecap:round;stroke-linejoin:miter;marker:none;marker-start:none;marker-mid:none;marker-end:none;stroke-miterlimit:4;stroke-dasharray:none;stroke-dashoffset:0;stroke-opacity:1;visibility:visible;display:inline;overflow:visible;enable-background:accumulate" />
</svg>
