<?xml version="1.0" encoding="UTF-8" standalone="no"?>
<!-- Created with Inkscape (http://www.inkscape.org/) -->
<svg
   xmlns:svg="http://www.w3.org/2000/svg"
   xmlns="http://www.w3.org/2000/svg"
   version="1.0"
   width="24"
   height="24"
   id="svg3187">
  <defs
     id="defs3189" />
  <path
     d="M 16.454801,7.5452291 L 16.9497,7.050249 M 7.6159,7.6159291 L 7.0503,7.050249 M 5,11.999999 L 6,11.999999 M 18,11.999999 L 19,11.999999 M 12,5.9999992 L 12,4.9999991"
     id="path2476"
     style="opacity:0.6;fill:none;stroke:#3a3935;stroke-width:4;stroke-linecap:round;stroke-linejoin:miter;marker:none;stroke-miterlimit:4;stroke-dasharray:none;stroke-dashoffset:0;stroke-opacity:1;visibility:visible;display:inline;overflow:visible;enable-background:accumulate" />
  <path
     d="M 16.500033,11.999968 C 16.500033,9.514676 14.485314,7.4999492 12.000033,7.4999492 C 9.5147511,7.4999492 7.5000323,9.514676 7.5000323,11.999968 C 7.5000323,14.485259 9.5147511,16.499986 12.000033,16.499986 C 14.485314,16.499986 16.500033,14.485259 16.500033,11.999968 L 16.500033,11.999968 z M 14.024748,11.500126 C 12.877727,11.49033 11.825808,12.05134 11.245094,12.798941 C 10.220981,12.253943 8.7166471,12.72983 8.3344286,13.617558 C 8.0220592,14.036804 8.5724177,14.589612 7.8239175,14.755038 C 6.5426522,15.487066 6.1195964,16.951825 6.8734511,18.039866 C 7.477778,18.99026 8.8487585,19.571935 10.199807,19.492834 C 12.246472,19.487835 14.293777,19.50296 16.340031,19.485043 C 18.036664,19.410939 19.490043,18.220973 19.497409,16.897196 C 19.554153,15.845588 18.673015,14.843007 17.445861,14.430786 C 17.482826,13.084966 16.229871,11.70809 14.461059,11.523873 C 14.316574,11.508017 14.170658,11.500119 14.024748,11.500126 z"
     id="path3183"
     style="opacity:0.6;fill:none;fill-opacity:1;fill-rule:nonzero;stroke:#3a3935;stroke-width:1.00000024;stroke-linecap:round;stroke-linejoin:miter;marker:none;marker-start:none;marker-mid:none;marker-end:none;stroke-miterlimit:4;stroke-dasharray:none;stroke-dashoffset:0;stroke-opacity:1;visibility:visible;display:inline;overflow:visible;enable-background:accumulate" />
  <path
     d="M 16.454801,7.5452291 L 16.9497,7.050249 M 7.6159,7.6159291 L 7.0503,7.050249 M 5,11.999999 L 6,11.999999 M 18,11.999999 L 19,11.999999 M 12,5.9999992 L 12,4.9999991"
     id="path2492"
     style="fill:none;fill-opacity:1;stroke:#eae3d1;stroke-width:2;stroke-linecap:round;stroke-linejoin:miter;marker:none;stroke-miterlimit:4;stroke-dasharray:none;stroke-dashoffset:0;stroke-opacity:1;visibility:visible;display:inline;overflow:visible;enable-background:accumulate" />
  <path
     d="M 12,7.9999992 C 9.7908711,7.9999991 8,9.7908608 8,11.999999 C 8,12.32165 8.0533067,12.63782 8.125,12.937499 C 8.2512532,12.781954 8.3769525,12.645008 8.53125,12.531249 C 9.0374211,12.158064 9.6750457,11.968749 10.34375,11.968749 C 10.63699,11.968749 10.881546,12.112634 11.15625,12.187499 C 11.900192,11.477979 12.857704,10.968749 14,10.968749 C 14.703605,10.968749 15.356392,11.138606 15.9375,11.437499 C 15.663873,9.4949242 14.018047,7.9999992 12,7.9999992 z M 14,11.999999 C 12.873696,11.999999 11.908797,12.531259 11.395833,13.296874 C 11.106987,13.116671 10.738133,12.999999 10.333333,12.999999 C 9.4133334,12.999999 8.6666667,13.559999 8.6666666,14.249999 C 8.6666666,14.404962 8.7020064,14.550521 8.7708333,14.687498 C 7.7244948,15.038139 7,15.832014 7,16.749998 C 7,17.996498 8.338,18.999999 10,18.999999 L 16,18.999999 C 17.662,18.999999 19,17.996498 19,16.749998 C 19,15.762662 18.15418,14.929482 16.979166,14.624999 C 16.981776,14.582286 17,14.54325 17,14.499999 C 17,13.119999 15.656,11.999999 14,11.999999 z"
     id="path2876-6-6-4-0"
     style="fill:#eae3d1;fill-opacity:1;fill-rule:nonzero;stroke:none;stroke-width:11.49051189;stroke-linecap:round;stroke-linejoin:miter;marker:none;marker-start:none;marker-mid:none;marker-end:none;stroke-miterlimit:4;stroke-dasharray:none;stroke-dashoffset:0;stroke-opacity:1;visibility:visible;display:inline;overflow:visible;enable-background:accumulate" />
</svg>
