<?xml version="1.0" encoding="UTF-8" standalone="no"?>
<!-- Created with Inkscape (http://www.inkscape.org/) -->

<svg
   xmlns:dc="http://purl.org/dc/elements/1.1/"
   xmlns:cc="http://creativecommons.org/ns#"
   xmlns:rdf="http://www.w3.org/1999/02/22-rdf-syntax-ns#"
   xmlns:svg="http://www.w3.org/2000/svg"
   xmlns="http://www.w3.org/2000/svg"
   xmlns:sodipodi="http://sodipodi.sourceforge.net/DTD/sodipodi-0.dtd"
   xmlns:inkscape="http://www.inkscape.org/namespaces/inkscape"
   version="1.0"
   width="24"
   height="24"
   id="svg3187"
   inkscape:version="0.48.0 r9654"
   sodipodi:docname="weather-clouds.svg">
  <metadata
     id="metadata10">
    <rdf:RDF>
      <cc:Work
         rdf:about="">
        <dc:format>image/svg+xml</dc:format>
        <dc:type
           rdf:resource="http://purl.org/dc/dcmitype/StillImage" />
        <dc:title></dc:title>
      </cc:Work>
    </rdf:RDF>
  </metadata>
  <sodipodi:namedview
     pagecolor="#ffffff"
     bordercolor="#666666"
     borderopacity="1"
     objecttolerance="10"
     gridtolerance="10"
     guidetolerance="10"
     inkscape:pageopacity="0"
     inkscape:pageshadow="2"
     inkscape:window-width="1280"
     inkscape:window-height="753"
     id="namedview8"
     showgrid="false"
     inkscape:zoom="13.227273"
     inkscape:cx="-0.49140893"
     inkscape:cy="11.793814"
     inkscape:window-x="0"
     inkscape:window-y="24"
     inkscape:window-maximized="1"
     inkscape:current-layer="svg3187" />
  <defs
     id="defs3189" />
  <path
     inkscape:connector-curvature="0"
     d="M 16.454801,8.54523 16.9497,8.0502499 M 7.6159,8.61593 7.0503,8.0502499 M 5,13 6,13 m 12,0 1,0 M 12,7.0000001 12,6"
     id="path2492-2"
     style="opacity:0.3;fill:none;stroke:#000000;stroke-width:2;stroke-linecap:round;stroke-linejoin:miter;stroke-miterlimit:4;stroke-opacity:1;stroke-dasharray:none;stroke-dashoffset:0;marker:none;visibility:visible;display:inline;overflow:visible;enable-background:accumulate" />
  <path
     inkscape:connector-curvature="0"
     d="m 12,9 c -2.2091289,-10e-8 -4,1.790862 -4,4 0,0.321651 0.053307,0.637821 0.125,0.9375 0.1262532,-0.155545 0.2519525,-0.292491 0.40625,-0.40625 0.5061711,-0.373185 1.1437957,-0.5625 1.8125,-0.5625 0.29324,0 0.537796,0.143885 0.8125,0.21875 0.743942,-0.70952 1.701454,-1.21875 2.84375,-1.21875 0.703605,0 1.356392,0.169857 1.9375,0.46875 C 15.663873,10.494925 14.018047,9 12,9 z m 2,4 c -1.126304,0 -2.091203,0.53126 -2.604167,1.296875 C 11.106987,14.116672 10.738133,14 10.333333,14 c -0.9199996,0 -1.6666663,0.56 -1.6666664,1.25 0,0.154963 0.03534,0.300522 0.1041667,0.437499 C 7.7244948,16.03814 7,16.832015 7,17.749999 7,18.996499 8.338,20 10,20 l 6,0 c 1.662,0 3,-1.003501 3,-2.250001 0,-0.987336 -0.84582,-1.820516 -2.020834,-2.124999 0.0026,-0.04271 0.02083,-0.08175 0.02083,-0.125 0,-1.38 -1.344,-2.5 -3,-2.5 z"
     id="path2876-6-6-4-0-6"
     style="opacity:0.3;fill:#000000;fill-opacity:1;fill-rule:nonzero;stroke:none;stroke-width:11.49051189;marker:none;visibility:visible;display:inline;overflow:visible;enable-background:accumulate" />
  <path
     d="M 16.454801,7.545229 16.9497,7.0502489 M 7.6159,7.615929 7.0503,7.0502489 M 5,11.999999 l 1,0 m 12,0 1,0 M 12,5.9999991 12,4.999999"
     id="path2492"
     style="fill:none;stroke:#dfdbd2;stroke-width:2;stroke-linecap:round;stroke-linejoin:miter;stroke-miterlimit:4;stroke-opacity:1;stroke-dasharray:none;stroke-dashoffset:0;marker:none;visibility:visible;display:inline;overflow:visible;enable-background:accumulate"
     inkscape:connector-curvature="0" />
  <path
     d="m 12,7.9999991 c -2.2091289,-1e-7 -4,1.7908619 -4,3.9999999 0,0.321651 0.053307,0.637821 0.125,0.9375 0.1262532,-0.155545 0.2519525,-0.292491 0.40625,-0.40625 0.5061711,-0.373185 1.1437957,-0.5625 1.8125,-0.5625 0.29324,0 0.537796,0.143885 0.8125,0.21875 0.743942,-0.70952 1.701454,-1.21875 2.84375,-1.21875 0.703605,0 1.356392,0.169857 1.9375,0.46875 C 15.663873,9.494924 14.018047,7.9999991 12,7.9999991 z m 2,3.9999999 c -1.126304,0 -2.091203,0.53126 -2.604167,1.296875 -0.288846,-0.180203 -0.6577,-0.296875 -1.0625,-0.296875 -0.9199996,0 -1.6666663,0.56 -1.6666664,1.25 0,0.154963 0.03534,0.300522 0.1041667,0.437499 C 7.7244948,15.038139 7,15.832014 7,16.749998 c 0,1.2465 1.338,2.250001 3,2.250001 l 6,0 c 1.662,0 3,-1.003501 3,-2.250001 0,-0.987336 -0.84582,-1.820516 -2.020834,-2.124999 0.0026,-0.04271 0.02083,-0.08175 0.02083,-0.125 0,-1.38 -1.344,-2.5 -3,-2.5 z"
     id="path2876-6-6-4-0"
     style="fill:#dfdbd2;fill-opacity:1;fill-rule:nonzero;stroke:none;stroke-width:11.49051189;marker:none;visibility:visible;display:inline;overflow:visible;enable-background:accumulate"
     inkscape:connector-curvature="0" />
</svg>
