<?xml version="1.0" encoding="UTF-8" standalone="no"?>
<!-- Created with Inkscape (http://www.inkscape.org/) -->
<svg
   xmlns:dc="http://purl.org/dc/elements/1.1/"
   xmlns:cc="http://creativecommons.org/ns#"
   xmlns:rdf="http://www.w3.org/1999/02/22-rdf-syntax-ns#"
   xmlns:svg="http://www.w3.org/2000/svg"
   xmlns="http://www.w3.org/2000/svg"
   xmlns:sodipodi="http://sodipodi.sourceforge.net/DTD/sodipodi-0.dtd"
   xmlns:inkscape="http://www.inkscape.org/namespaces/inkscape"
   version="1.0"
   width="64"
   height="64"
   id="svg3201"
   sodipodi:version="0.32"
   inkscape:version="0.46"
   sodipodi:docname="stock_person-panel.svg"
   inkscape:output_extension="org.inkscape.output.svg.inkscape">
  <metadata
     id="metadata8">
    <rdf:RDF>
      <cc:Work
         rdf:about="">
        <dc:format>image/svg+xml</dc:format>
        <dc:type
           rdf:resource="http://purl.org/dc/dcmitype/StillImage" />
      </cc:Work>
    </rdf:RDF>
  </metadata>
  <sodipodi:namedview
     inkscape:window-height="781"
     inkscape:window-width="1440"
     inkscape:pageshadow="2"
     inkscape:pageopacity="0.0"
     guidetolerance="10.0"
     gridtolerance="10.0"
     objecttolerance="10.0"
     borderopacity="1.0"
     bordercolor="#666666"
     pagecolor="#ffffff"
     id="base"
     showgrid="false"
     inkscape:zoom="3.890625"
     inkscape:cx="-6.939759"
     inkscape:cy="32"
     inkscape:window-x="0"
     inkscape:window-y="24"
     inkscape:current-layer="svg3201" />
  <defs
     id="defs3203" />
  <path
     style="fill:#3a3935;fill-opacity:1;fill-rule:nonzero;stroke:none;stroke-width:1.00178742000000010;stroke-linecap:butt;stroke-linejoin:miter;marker:none;marker-start:none;marker-mid:none;marker-end:none;stroke-miterlimit:4;stroke-dasharray:none;stroke-dashoffset:0;stroke-opacity:1;visibility:visible;display:inline;overflow:visible;enable-background:accumulate"
     id="rect2382"
     d="M 2.9375,1 C 1.864125,1 1,1.8704269 1,2.9516299 L 1,59 L 5.1474609,57.170347 C 15.406039,52.608941 22.615233,47.371221 22.615234,44.484753 C 22.615234,42.464852 20.595807,38.735368 18.316406,36.58675 C 16.852954,35.20726 16.276761,33.796694 15.924805,30.792849 C 15.655657,28.495769 15.601843,26.214601 16.166992,26.09674 C 17.130579,25.895785 16.863534,22.795718 16.863281,19.601472 C 16.862874,14.510402 17.104363,13.454377 18.770508,11.032597 C 19.815712,9.5133661 20.947493,8.2576233 21.313477,8.2576235 C 21.679461,8.2576235 21.797911,7.9510838 21.555664,7.5562565 C 21.303615,7.1454531 21.584901,7.005176 22.22168,7.2513144 C 22.889546,7.5094652 23.515697,7.1940009 23.795898,6.4584648 C 24.12723,5.5887365 24.418843,5.4795994 24.794922,6.0925341 C 25.188002,6.7331849 25.808787,6.6253954 27.216797,5.6961093 C 28.30816,4.9758054 29.901466,4.6789271 31.727539,4.6898002 C 37.20576,4.7224194 44.785906,7.6774239 47.106445,11.459516 C 48.272636,13.360216 48.589844,15.090823 48.589844,19.631966 C 48.589844,22.80002 48.531436,25.844141 49.286133,26.09674 C 49.833835,26.280056 49.797458,28.495769 49.52832,30.792849 C 49.176354,33.796694 48.600171,35.207259 47.136719,36.58675 C 44.859604,38.733213 42.807619,42.469731 42.807617,44.484753 C 42.807617,47.299454 50.456905,52.949424 59.21582,56.621451 L 63,58.207151 L 63,2.9516299 C 63,1.8704269 62.135875,1 61.0625,1 L 2.9375,1 z" />
  <path
     style="opacity:0.59999999999999998;fill:none;fill-opacity:1;fill-rule:evenodd;stroke:#eae3d0;stroke-width:0.99999994000000003;stroke-linecap:round;stroke-linejoin:round;marker:none;marker-start:none;marker-mid:none;marker-end:none;stroke-miterlimit:4;stroke-dasharray:none;stroke-dashoffset:0;stroke-opacity:1;visibility:visible;display:inline;overflow:visible;enable-background:accumulate;color:#000000"
     id="path3167"
     d="M 2.9671339,0.50089372 C 1.6187148,0.50089372 0.50090084,1.6104684 0.50090084,2.9673216 L 0.50090084,58.977089 C 0.49996064,59.157103 0.59230718,59.324764 0.74494869,59.420172 C 0.8975902,59.51558 1.0887507,59.525126 1.2501362,59.445398 L 5.4021489,57.603383 C 10.551981,55.313365 14.920902,52.871983 18.045496,50.609967 C 19.607793,49.478959 20.853599,48.405272 21.729236,47.394244 C 22.604874,46.383216 23.165271,45.427842 23.165271,44.490728 C 23.165271,43.307512 22.608294,41.836981 21.791673,40.338387 C 20.975051,38.839793 19.86168,37.340795 18.669859,36.217267 C 17.290073,34.916541 16.830998,33.679184 16.484589,30.722441 C 16.351787,29.588936 16.24928,28.457118 16.266062,27.631601 C 16.274452,27.218842 16.309698,26.890225 16.359716,26.694982 C 16.384725,26.597361 16.41959,26.542759 16.422153,26.538879 C 16.424715,26.535 16.359871,26.581755 16.266062,26.601321 C 16.519325,26.548498 16.748637,26.409649 16.890425,26.226673 C 17.032212,26.043698 17.13453,25.825576 17.202606,25.602261 C 17.338758,25.155631 17.390542,24.629705 17.421133,24.01001 C 17.482314,22.770622 17.421258,21.190286 17.421133,19.607905 C 17.42093,17.072943 17.48216,15.581143 17.733314,14.456505 C 17.984469,13.331867 18.412803,12.524947 19.231785,11.334444 C 19.742819,10.591585 20.264982,9.9106754 20.699038,9.4299871 C 20.916065,9.189643 21.120729,9.014525 21.260964,8.8992368 C 21.401199,8.7839486 21.530397,8.8055751 21.323401,8.805575 C 21.644609,8.8055748 22.035497,8.6155709 22.16629,8.2748247 C 22.227616,8.1150585 22.222221,7.9570671 22.197509,7.8065156 C 22.600835,7.9228412 23.023327,7.8925485 23.383798,7.7128538 C 23.790927,7.5098995 24.112689,7.1457585 24.289124,6.6825738 C 24.333812,6.56526 24.345024,6.5087137 24.382778,6.4328089 C 24.515333,6.6372234 24.679918,6.8222407 24.913487,6.9323386 C 25.161198,7.0491034 25.457887,7.0715531 25.725158,7.0260004 C 26.259701,6.934895 26.779694,6.6302938 27.504592,6.1518235 C 28.455828,5.5239551 29.951692,5.2359016 31.719041,5.2464259 C 34.363069,5.2621706 37.560352,5.9902041 40.366466,7.1821035 C 43.172581,8.3740028 45.582302,10.045387 46.641313,11.771533 C 47.756629,13.58946 48.046129,15.1277 48.046129,19.639125 C 48.046129,21.217991 48.028881,22.787377 48.108565,24.01001 C 48.148408,24.621327 48.210785,25.139025 48.327092,25.571041 C 48.4434,26.003056 48.618823,26.437731 49.107546,26.601321 C 48.94567,26.547137 49.023306,26.523141 49.076328,26.726203 C 49.12935,26.929265 49.156868,27.25449 49.169982,27.662821 C 49.196209,28.479483 49.115115,29.591963 48.982673,30.722441 C 48.636666,33.675657 48.148655,34.914009 46.766185,36.217267 C 45.575309,37.339904 44.461221,38.839009 43.644371,40.338387 C 42.827522,41.837766 42.270774,43.309331 42.270773,44.490728 C 42.270773,45.428871 42.847234,46.369841 43.738026,47.394244 C 44.628818,48.418648 45.898934,49.516506 47.421766,50.641187 C 50.46743,52.89055 54.591007,55.222541 59.003696,57.072632 L 62.781091,58.664883 C 62.939458,58.730549 63.120027,58.71381 63.263627,58.620151 C 63.407225,58.526492 63.495345,58.367986 63.499109,58.196574 L 63.499109,2.9673216 C 63.499109,1.6104684 62.381294,0.50089372 61.032876,0.50089372 L 2.9671339,0.50089372 z" />
</svg>
