<?xml version="1.0" encoding="UTF-8" standalone="no"?>
<!-- Created with Inkscape (http://www.inkscape.org/) -->

<svg
   xmlns:dc="http://purl.org/dc/elements/1.1/"
   xmlns:cc="http://creativecommons.org/ns#"
   xmlns:rdf="http://www.w3.org/1999/02/22-rdf-syntax-ns#"
   xmlns:svg="http://www.w3.org/2000/svg"
   xmlns="http://www.w3.org/2000/svg"
   xmlns:sodipodi="http://sodipodi.sourceforge.net/DTD/sodipodi-0.dtd"
   xmlns:inkscape="http://www.inkscape.org/namespaces/inkscape"
   width="90"
   height="90"
   id="svg4874"
   version="1.1"
   inkscape:version="0.48+devel r"
   viewBox="0 0 90 90.000001"
   sodipodi:docname="audio-carkit-symbolic.svg">
  <defs
     id="defs4876" />
  <sodipodi:namedview
     id="base"
     pagecolor="#ffffff"
     bordercolor="#666666"
     borderopacity="1.0"
     inkscape:pageopacity="0.0"
     inkscape:pageshadow="2"
     inkscape:zoom="9.9475983"
     inkscape:cx="33.641286"
     inkscape:cy="44.603731"
     inkscape:document-units="px"
     inkscape:current-layer="g1628"
     showgrid="true"
     showborder="true"
     fit-margin-top="0"
     fit-margin-left="0"
     fit-margin-right="0"
     fit-margin-bottom="0"
     inkscape:snap-bbox="true"
     inkscape:bbox-paths="true"
     inkscape:bbox-nodes="true"
     inkscape:snap-bbox-edge-midpoints="true"
     inkscape:snap-bbox-midpoints="true"
     inkscape:object-paths="true"
     inkscape:snap-intersection-paths="true"
     inkscape:object-nodes="true"
     inkscape:snap-smooth-nodes="true"
     inkscape:snap-midpoints="true"
     inkscape:snap-object-midpoints="true"
     inkscape:snap-center="true"
     showguides="true"
     inkscape:guide-bbox="true"
     inkscape:snap-grids="true">
    <inkscape:grid
       type="xygrid"
       id="grid5451"
       empspacing="6" />
    <sodipodi:guide
       orientation="1,0"
       position="6,77"
       id="guide4063" />
    <sodipodi:guide
       orientation="1,0"
       position="3,78"
       id="guide4065" />
    <sodipodi:guide
       orientation="0,1"
       position="55,84"
       id="guide4067" />
    <sodipodi:guide
       orientation="0,1"
       position="53,87"
       id="guide4069" />
    <sodipodi:guide
       orientation="0,1"
       position="20,3"
       id="guide4071" />
    <sodipodi:guide
       orientation="0,1"
       position="20,6"
       id="guide4073" />
    <sodipodi:guide
       orientation="1,0"
       position="87,7"
       id="guide4075" />
    <sodipodi:guide
       orientation="1,0"
       position="84,7"
       id="guide4077" />
    <sodipodi:guide
       orientation="0,1"
       position="58,81"
       id="guide4074" />
    <sodipodi:guide
       orientation="1,0"
       position="9,74"
       id="guide4076" />
    <sodipodi:guide
       orientation="0,1"
       position="21,9"
       id="guide4078" />
    <sodipodi:guide
       orientation="1,0"
       position="81,4"
       id="guide4080" />
  </sodipodi:namedview>
  <metadata
     id="metadata4879">
    <rdf:RDF>
      <cc:Work
         rdf:about="">
        <dc:format>image/svg+xml</dc:format>
        <dc:type
           rdf:resource="http://purl.org/dc/dcmitype/StillImage" />
        <dc:title></dc:title>
      </cc:Work>
    </rdf:RDF>
  </metadata>
  <g
     inkscape:label="Layer 1"
     inkscape:groupmode="layer"
     id="layer1"
     transform="translate(67.857146,-84.50504)">
    <g
       transform="matrix(0,-1,-1,0,373.50506,516.50504)"
       id="g4845"
       style="display:inline">
      <g
         inkscape:export-ydpi="90"
         inkscape:export-xdpi="90"
         inkscape:export-filename="message03.png"
         id="g1628"
         transform="matrix(0,-1,-1,0,572.36222,615.36221)">
        <g
           transform="matrix(1.875,0,0,1.875,-366,-1652.8169)"
           id="g1630">
          <rect
             style="opacity:0.21171169;fill:none;stroke:none"
             id="rect1632"
             width="48"
             height="48"
             x="288"
             y="152"
             transform="translate(0,804.3622)" />
        </g>
        <path
           style="color:#000000;font-style:normal;font-variant:normal;font-weight:normal;font-stretch:normal;font-size:medium;line-height:normal;font-family:sans-serif;text-indent:0;text-align:start;text-decoration:none;text-decoration-line:none;text-decoration-style:solid;text-decoration-color:#000000;letter-spacing:normal;word-spacing:normal;text-transform:none;direction:ltr;block-progression:tb;writing-mode:lr-tb;baseline-shift:baseline;text-anchor:start;clip-rule:nonzero;display:inline;overflow:visible;visibility:visible;opacity:1;isolation:auto;color-interpolation:sRGB;color-interpolation-filters:linearRGB;fill:#808080;fill-opacity:1;fill-rule:nonzero;stroke:none;stroke-width:9;stroke-linecap:butt;stroke-linejoin:miter;stroke-miterlimit:4;stroke-dasharray:none;stroke-dashoffset:0;stroke-opacity:1;marker:none;color-rendering:auto;image-rendering:auto;shape-rendering:auto;text-rendering:auto;enable-background:accumulate"
           d="M 45 4 C 22.40962 4 4 22.40962 4 45 C 4 67.59037 22.40962 86 45 86 C 67.59038 86 86 67.59037 86 45 C 86 22.40962 67.59038 4 45 4 z M 45 10 C 64.38777 10 80 25.61222 80 45 C 80 64.38777 64.38777 79.998047 45 79.998047 C 25.61223 79.998047 10 64.38777 10 45 C 10 25.61222 25.61223 10 45 10 z "
           transform="translate(174,140.36222)"
           id="path4155" />
        <path
           style="color:#000000;font-style:normal;font-variant:normal;font-weight:normal;font-stretch:normal;font-size:medium;line-height:normal;font-family:sans-serif;text-indent:0;text-align:start;text-decoration:none;text-decoration-line:none;text-decoration-style:solid;text-decoration-color:#000000;letter-spacing:normal;word-spacing:normal;text-transform:none;direction:ltr;block-progression:tb;writing-mode:lr-tb;baseline-shift:baseline;text-anchor:start;clip-rule:nonzero;display:inline;overflow:visible;visibility:visible;opacity:1;isolation:auto;color-interpolation:sRGB;color-interpolation-filters:linearRGB;fill:#808080;fill-opacity:1;fill-rule:nonzero;stroke:none;stroke-width:5.99999905;stroke-linecap:butt;stroke-linejoin:miter;stroke-miterlimit:4;stroke-dasharray:none;stroke-dashoffset:0;stroke-opacity:1;marker:none;color-rendering:auto;image-rendering:auto;shape-rendering:auto;text-rendering:auto;enable-background:accumulate"
           d="m 219,172.27131 c -3.34581,0 -6.40258,1.28698 -8.72514,3.37713 -3e-5,-0.019 -0.002,-0.0364 -0.002,-0.0554 -1.61202,1.312 -3.46513,2.37618 -5.56108,3.1875 -2.10581,0.80466 -4.37431,1.20597 -6.80539,1.20597 -1.53795,0 -3.00655,-0.17898 -4.42117,-0.50071 -0.43193,1.88909 -0.66685,3.85478 -0.66685,5.87642 0,2.01214 0.23246,3.96778 0.66051,5.84872 1.40523,-0.31572 2.86334,-0.49219 4.3892,-0.49219 4.17552,0.25819 9.02545,0.88266 11.81251,3.96307 2.78705,3.08042 3.93827,7.89934 3.96307,11.81251 0,1.52513 -0.17677,2.98246 -0.49219,4.38707 1.88094,0.42805 3.83658,0.66264 5.84872,0.66264 2.02203,0 3.987,-0.23689 5.87642,-0.66903 -0.32142,-1.414 -0.50071,-2.88183 -0.50071,-4.41904 0.25623,-4.16686 0.88339,-9.00711 3.96094,-11.78693 3.07755,-2.77983 7.88994,-3.92554 11.79546,-3.95029 1.52586,0 2.98397,0.17647 4.3892,0.49219 0.42805,-1.88094 0.66051,-3.83658 0.66051,-5.84872 0,-2.02164 -0.23492,-3.98733 -0.6669,-5.87642 -1.41462,0.32173 -2.88322,0.50071 -4.42117,0.50071 -2.43108,0 -4.69958,-0.40131 -6.8054,-1.20597 -2.09595,-0.81132 -3.94905,-1.87549 -5.56108,-3.1875 0,0.0191 -0.002,0.0363 -0.002,0.0554 -2.32251,-2.09015 -5.37928,-3.37713 -8.72509,-3.37713 z m -36,3.27273 0,19.63636 2.38636,0 c 1.46107,-1.19962 3.1248,-2.18118 4.97088,-2.96804 -0.5258,-2.19994 -0.81179,-4.49083 -0.81179,-6.85014 0,-2.37225 0.2889,-4.67755 0.82031,-6.8885 -1.8132,-0.77942 -3.44935,-1.74865 -4.88778,-2.92968 l -2.47798,0 z m 69.52202,0 c -1.43843,1.18103 -3.07458,2.15026 -4.88778,2.92968 0.53141,2.21095 0.82031,4.51625 0.82031,6.8885 0,2.35931 -0.28599,4.6502 -0.81179,6.85014 1.84608,0.78686 3.50981,1.76842 4.97088,2.96804 l 2.38636,0 0,-19.63636 -2.47798,0 z M 219,178.81676 c 3.65372,0 6.54546,2.89174 6.54546,6.54546 0,3.65372 -2.89174,6.54546 -6.54546,6.54546 -3.65372,0 -6.54546,-2.89174 -6.54546,-6.54546 0,-3.65372 2.89174,-6.54546 6.54546,-6.54546 z m 6.8885,35.17757 c -2.21125,0.53156 -4.51591,0.82244 -6.8885,0.82244 -2.35879,0 -4.65065,-0.28621 -6.85014,-0.81179 -0.78686,1.84608 -1.76842,3.50981 -2.96804,4.97088 l 0,2.38636 19.63636,0 0,-2.47798 c -1.18142,-1.43891 -2.15014,-3.07598 -2.92968,-4.88991 z"
           id="circle4228"
           inkscape:connector-curvature="0"
           inkscape:transform-center-y="11.454544" />
      </g>
    </g>
  </g>
</svg>
