<?xml version="1.0" encoding="UTF-8" standalone="no"?>
<!-- Created with Inkscape (http://www.inkscape.org/) -->

<svg
   xmlns:dc="http://purl.org/dc/elements/1.1/"
   xmlns:cc="http://creativecommons.org/ns#"
   xmlns:rdf="http://www.w3.org/1999/02/22-rdf-syntax-ns#"
   xmlns:svg="http://www.w3.org/2000/svg"
   xmlns="http://www.w3.org/2000/svg"
   xmlns:sodipodi="http://sodipodi.sourceforge.net/DTD/sodipodi-0.dtd"
   xmlns:inkscape="http://www.inkscape.org/namespaces/inkscape"
   width="90"
   height="90"
   id="svg4874"
   version="1.1"
   inkscape:version="0.48+devel r"
   viewBox="0 0 90 90.000001"
   sodipodi:docname="microphone-off02.svg">
  <defs
     id="defs4876" />
  <sodipodi:namedview
     id="base"
     pagecolor="#ffffff"
     bordercolor="#666666"
     borderopacity="1.0"
     inkscape:pageopacity="0.0"
     inkscape:pageshadow="2"
     inkscape:zoom="6.3664629"
     inkscape:cx="29.341252"
     inkscape:cy="47.21617"
     inkscape:document-units="px"
     inkscape:current-layer="g2004"
     showgrid="false"
     showborder="true"
     fit-margin-top="0"
     fit-margin-left="0"
     fit-margin-right="0"
     fit-margin-bottom="0"
     inkscape:snap-bbox="true"
     inkscape:bbox-paths="true"
     inkscape:bbox-nodes="true"
     inkscape:snap-bbox-edge-midpoints="true"
     inkscape:snap-bbox-midpoints="true"
     inkscape:object-paths="true"
     inkscape:snap-intersection-paths="true"
     inkscape:object-nodes="true"
     inkscape:snap-smooth-nodes="true"
     inkscape:snap-midpoints="true"
     inkscape:snap-object-midpoints="true"
     inkscape:snap-center="true"
     showguides="true"
     inkscape:guide-bbox="true">
    <inkscape:grid
       type="xygrid"
       id="grid5451"
       empspacing="6" />
    <sodipodi:guide
       orientation="1,0"
       position="6,77"
       id="guide4063" />
    <sodipodi:guide
       orientation="1,0"
       position="3,78"
       id="guide4065" />
    <sodipodi:guide
       orientation="0,1"
       position="55,84"
       id="guide4067" />
    <sodipodi:guide
       orientation="0,1"
       position="53,87"
       id="guide4069" />
    <sodipodi:guide
       orientation="0,1"
       position="20,3"
       id="guide4071" />
    <sodipodi:guide
       orientation="0,1"
       position="20,6"
       id="guide4073" />
    <sodipodi:guide
       orientation="1,0"
       position="87,7"
       id="guide4075" />
    <sodipodi:guide
       orientation="1,0"
       position="84,7"
       id="guide4077" />
    <sodipodi:guide
       orientation="0,1"
       position="58,81"
       id="guide4074" />
    <sodipodi:guide
       orientation="1,0"
       position="9,74"
       id="guide4076" />
    <sodipodi:guide
       orientation="0,1"
       position="21,9"
       id="guide4078" />
    <sodipodi:guide
       orientation="1,0"
       position="81,4"
       id="guide4080" />
  </sodipodi:namedview>
  <metadata
     id="metadata4879">
    <rdf:RDF>
      <cc:Work
         rdf:about="">
        <dc:format>image/svg+xml</dc:format>
        <dc:type
           rdf:resource="http://purl.org/dc/dcmitype/StillImage" />
        <dc:title></dc:title>
      </cc:Work>
    </rdf:RDF>
  </metadata>
  <g
     inkscape:label="Layer 1"
     inkscape:groupmode="layer"
     id="layer1"
     transform="translate(67.857146,-84.50504)">
    <g
       inkscape:label="Layer 1"
       id="g2004"
       transform="translate(2156.1429,363.84434)"
       inkscape:export-filename="microphone01.png"
       inkscape:export-xdpi="90"
       inkscape:export-ydpi="90">
      <rect
         style="color:#000000;display:inline;overflow:visible;visibility:visible;opacity:0.01000001;fill:none;stroke:none;stroke-width:2;marker:none;enable-background:accumulate"
         id="rect2008"
         width="90"
         height="90"
         x="-2224"
         y="-279.35211" />
      <path
         style="color:#000000;display:inline;overflow:visible;visibility:visible;fill:#808080;fill-opacity:1;fill-rule:nonzero;stroke:none;stroke-width:2;marker:none;enable-background:accumulate"
         d="M 45 0 C 38.2234 0 33 3.9872001 33 12 L 33 28 L 33 33 L 33 44.271484 L 38.986328 38.285156 L 38.986328 33 L 38.986328 28 L 38.986328 12 C 38.986328 9.2944 39.68315 8.1700125 40.53125 7.3828125 C 41.37935 6.5956125 42.7858 5.9863281 45 5.9863281 C 47.2104 5.9863281 48.616497 6.5969188 49.466797 7.3867188 C 50.316997 8.1766187 51.013672 9.3029 51.013672 12 L 51.013672 26.257812 L 57 20.271484 L 57 12 C 57 4.0000001 51.7765 0 45 0 z M 57 28.757812 L 51.013672 34.744141 L 51.013672 45 C 51.013672 47.6971 50.316997 48.823381 49.466797 49.613281 C 48.616497 50.403081 47.2104 51.013672 45 51.013672 C 42.7858 51.013672 41.37935 50.404387 40.53125 49.617188 C 39.883146 49.015622 39.325611 48.210706 39.097656 46.660156 L 34.419922 51.337891 C 34.581167 51.64277 34.759634 51.93073 34.945312 52.210938 C 34.9956 52.28681 35.047588 52.361483 35.099609 52.435547 C 35.260479 52.664604 35.428508 52.885891 35.605469 53.097656 C 35.644217 53.144026 35.681204 53.19274 35.720703 53.238281 C 35.934073 53.484279 36.159995 53.715681 36.394531 53.9375 C 36.44943 53.989422 36.506483 54.039246 36.5625 54.089844 C 36.773722 54.280614 36.992155 54.462817 37.21875 54.634766 C 37.260493 54.666444 37.299549 54.701382 37.341797 54.732422 C 37.604686 54.925556 37.878448 55.105022 38.160156 55.273438 C 38.2256 55.312559 38.292958 55.348931 38.359375 55.386719 C 38.602126 55.524845 38.852154 55.653121 39.107422 55.773438 C 39.16302 55.799637 39.217268 55.82816 39.273438 55.853516 C 39.571194 55.987947 39.876342 56.109998 40.189453 56.220703 C 40.632315 56.377276 41.091791 56.508044 41.5625 56.617188 C 41.676041 56.643518 41.793163 56.661975 41.908203 56.685547 C 42.275929 56.760884 42.651173 56.821975 43.033203 56.869141 C 43.181295 56.887412 43.328435 56.907835 43.478516 56.921875 C 43.977 56.968535 44.481711 57 45 57 C 51.7765 57 57 53 57 45 L 57 33 L 57 28.757812 z "
         transform="translate(-2224,-279.3393)"
         id="path4149" />
      <path
         style="color:#000000;display:inline;overflow:visible;visibility:visible;fill:#808080;fill-opacity:1;fill-rule:nonzero;stroke:none;stroke-width:2;marker:none;enable-background:accumulate"
         d="m -2203,-240.3393 0,6 c 0,3.27646 0.5959,6.52069 1.7637,9.50781 l 4.8027,-4.80273 c -0.358,-1.52114 -0.5664,-3.10032 -0.5664,-4.70508 l 0,-6 -6,0 z"
         id="path4145" />
      <path
         style="color:#000000;display:inline;overflow:visible;visibility:visible;fill:#808080;fill-opacity:1;fill-rule:nonzero;stroke:none;stroke-width:2;marker:none;enable-background:accumulate"
         d="m -2161,-240.3393 0,6 c 0,5.2107 -1.9783,10.25095 -5.375,13.40625 -3.4589,3.2132 -8.08,4.59375 -12.625,4.59375 -4.5387,0 -9.1627,-1.37985 -12.625,-4.59375 -0.8595,-0.79779 -1.6264,-1.71781 -2.2949,-2.72852 l -4.293,4.29297 c 0.755,1.00497 1.5953,1.94724 2.5254,2.81055 4.7686,4.4264 10.9178,6.21875 16.6875,6.21875 5.7747,0 11.922,-1.79175 16.6875,-6.21875 4.8277,-4.4847 7.3125,-11.07275 7.3125,-17.78125 l 0,-6 -6,0 z"
         id="path2010" />
      <rect
         style="color:#000000;display:inline;overflow:visible;visibility:visible;fill:#808080;stroke:none;stroke-width:3;marker:none;enable-background:accumulate"
         id="rect2014"
         width="8"
         height="26.000002"
         x="-2183"
         y="-219.35211" />
      <path
         id="path1687-9"
         d="m -2179,-195.3393 c -4.9998,0 -10.0099,0.9543 -15,2.75 l 0,3.25 30,0 0,-3.25 c -5.0008,-1.7575 -10.0002,-2.75 -15,-2.75 z"
         style="font-style:normal;font-variant:normal;font-weight:normal;font-stretch:normal;font-size:15px;line-height:125%;font-family:Ubuntu;-inkscape-font-specification:Ubuntu;text-align:center;letter-spacing:0px;word-spacing:0px;writing-mode:lr-tb;text-anchor:middle;fill:#808080;fill-opacity:1;stroke:none"
         inkscape:connector-curvature="0" />
      <path
         style="color:#000000;font-style:normal;font-variant:normal;font-weight:normal;font-stretch:normal;font-size:medium;line-height:normal;text-indent:0;text-align:start;text-decoration:none;text-decoration-line:none;text-decoration-color:currentColor;letter-spacing:normal;word-spacing:normal;text-transform:none;direction:ltr;block-progression:tb;writing-mode:lr-tb;baseline-shift:baseline;text-anchor:start;clip-rule:nonzero;display:inline;overflow:visible;visibility:visible;opacity:1;isolation:auto;color-interpolation:sRGB;color-interpolation-filters:linearRGB;fill:#808080;fill-opacity:1;fill-rule:nonzero;stroke:none;stroke-width:6;stroke-linecap:butt;stroke-linejoin:round;stroke-miterlimit:4;stroke-dasharray:none;stroke-dashoffset:0;stroke-opacity:1;marker:none;color-rendering:auto;image-rendering:auto;shape-rendering:auto;text-rendering:auto;enable-background:accumulate"
         d="m -2144.2426,-273.33849 -73.7578,73.75588 4.2422,4.24414 73.7578,-73.75783 z"
         id="path4137"
         inkscape:connector-curvature="0"
         sodipodi:nodetypes="ccccc" />
    </g>
  </g>
</svg>
