<?xml version="1.0" encoding="UTF-8" standalone="no"?>
<!-- Created with Inkscape (http://www.inkscape.org/) -->

<svg
   xmlns:dc="http://purl.org/dc/elements/1.1/"
   xmlns:cc="http://creativecommons.org/ns#"
   xmlns:rdf="http://www.w3.org/1999/02/22-rdf-syntax-ns#"
   xmlns:svg="http://www.w3.org/2000/svg"
   xmlns="http://www.w3.org/2000/svg"
   xmlns:sodipodi="http://sodipodi.sourceforge.net/DTD/sodipodi-0.dtd"
   xmlns:inkscape="http://www.inkscape.org/namespaces/inkscape"
   width="90"
   height="90"
   id="svg4874"
   version="1.1"
   inkscape:version="0.48+devel r"
   viewBox="0 0 90 90.000001"
   sodipodi:docname="microphone-on02.svg">
  <defs
     id="defs4876" />
  <sodipodi:namedview
     id="base"
     pagecolor="#ffffff"
     bordercolor="#666666"
     borderopacity="1.0"
     inkscape:pageopacity="0.0"
     inkscape:pageshadow="2"
     inkscape:zoom="5.0931703"
     inkscape:cx="8.4819443"
     inkscape:cy="62.387468"
     inkscape:document-units="px"
     inkscape:current-layer="g2006"
     showgrid="false"
     showborder="true"
     fit-margin-top="0"
     fit-margin-left="0"
     fit-margin-right="0"
     fit-margin-bottom="0"
     inkscape:snap-bbox="true"
     inkscape:bbox-paths="true"
     inkscape:bbox-nodes="true"
     inkscape:snap-bbox-edge-midpoints="true"
     inkscape:snap-bbox-midpoints="true"
     inkscape:object-paths="true"
     inkscape:snap-intersection-paths="true"
     inkscape:object-nodes="true"
     inkscape:snap-smooth-nodes="true"
     inkscape:snap-midpoints="true"
     inkscape:snap-object-midpoints="true"
     inkscape:snap-center="true"
     showguides="false"
     inkscape:guide-bbox="true">
    <inkscape:grid
       type="xygrid"
       id="grid5451"
       empspacing="6" />
    <sodipodi:guide
       orientation="1,0"
       position="6,77"
       id="guide4063" />
    <sodipodi:guide
       orientation="1,0"
       position="3,78"
       id="guide4065" />
    <sodipodi:guide
       orientation="0,1"
       position="55,84"
       id="guide4067" />
    <sodipodi:guide
       orientation="0,1"
       position="53,87"
       id="guide4069" />
    <sodipodi:guide
       orientation="0,1"
       position="20,3"
       id="guide4071" />
    <sodipodi:guide
       orientation="0,1"
       position="20,6"
       id="guide4073" />
    <sodipodi:guide
       orientation="1,0"
       position="87,7"
       id="guide4075" />
    <sodipodi:guide
       orientation="1,0"
       position="84,7"
       id="guide4077" />
    <sodipodi:guide
       orientation="0,1"
       position="58,81"
       id="guide4074" />
    <sodipodi:guide
       orientation="1,0"
       position="9,74"
       id="guide4076" />
    <sodipodi:guide
       orientation="0,1"
       position="21,9"
       id="guide4078" />
    <sodipodi:guide
       orientation="1,0"
       position="81,4"
       id="guide4080" />
  </sodipodi:namedview>
  <metadata
     id="metadata4879">
    <rdf:RDF>
      <cc:Work
         rdf:about="">
        <dc:format>image/svg+xml</dc:format>
        <dc:type
           rdf:resource="http://purl.org/dc/dcmitype/StillImage" />
        <dc:title></dc:title>
      </cc:Work>
    </rdf:RDF>
  </metadata>
  <g
     inkscape:label="Layer 1"
     inkscape:groupmode="layer"
     id="layer1"
     transform="translate(67.857146,-84.50504)">
    <g
       inkscape:label="Layer 1"
       id="g2004"
       transform="translate(2156.1429,363.84434)"
       inkscape:export-filename="microphone01.png"
       inkscape:export-xdpi="90"
       inkscape:export-ydpi="90">
      <g
         id="g2006"
         transform="translate(-2566,-630.71429)">
        <rect
           y="351.36218"
           x="342"
           height="90"
           width="90"
           id="rect2008"
           style="opacity:0.01000001;color:#000000;fill:none;stroke:none;stroke-width:2;marker:none;visibility:visible;display:inline;overflow:visible;enable-background:accumulate" />
        <path
           style="color:#000000;fill:#808080;fill-opacity:1;fill-rule:nonzero;stroke:none;stroke-width:2;marker:none;visibility:visible;display:inline;overflow:visible;enable-background:accumulate"
           d="M 45 0 C 38.22341 0 33 3.9872001 33 12 L 33 28 L 33 33 L 33 45 C 33 53.0128 38.22341 57 45 57 C 51.77659 57 57 53 57 45 L 57 33 L 57 28 L 57 12 C 57 4.0000001 51.77659 0 45 0 z M 45 5.9863281 C 47.21043 5.9863281 48.616537 6.5969188 49.466797 7.3867188 C 50.317047 8.1766187 51.013672 9.3029 51.013672 12 L 51.013672 28 L 51.013672 33 L 51.013672 45 C 51.013672 47.6971 50.317047 48.823381 49.466797 49.613281 C 48.616537 50.403081 47.21043 51.013672 45 51.013672 C 42.7858 51.013672 41.37935 50.404387 40.53125 49.617188 C 39.68315 48.829988 38.986328 47.7056 38.986328 45 L 38.986328 33 L 38.986328 28 L 38.986328 12 C 38.986328 9.2944 39.68315 8.1700125 40.53125 7.3828125 C 41.37935 6.5956125 42.7858 5.9863281 45 5.9863281 z "
           transform="translate(341.99995,351.37499)"
           id="path2010" />
        <rect
           y="411.36218"
           x="383"
           height="26.000002"
           width="8"
           id="rect2014"
           style="color:#000000;fill:#808080;stroke:none;stroke-width:3;marker:none;visibility:visible;display:inline;overflow:visible;enable-background:accumulate" />
        <path
           inkscape:connector-curvature="0"
           style="font-size:15px;font-style:normal;font-variant:normal;font-weight:normal;font-stretch:normal;text-align:center;line-height:125%;letter-spacing:0px;word-spacing:0px;writing-mode:lr-tb;text-anchor:middle;fill:#808080;fill-opacity:1;stroke:none;font-family:Ubuntu;-inkscape-font-specification:Ubuntu"
           d="m 219,1124.375 c -4.99983,0 -10.00986,0.9543 -15,2.75 l 0,3.25 30,0 0,-3.25 c -5.00082,-1.7575 -10.00017,-2.75 -15,-2.75 z"
           transform="translate(168,-689.00001)"
           id="path1687-9" />
        <path
           style="font-style:normal;font-variant:normal;font-weight:normal;font-stretch:normal;text-indent:0;text-align:start;text-decoration:none;line-height:normal;letter-spacing:normal;word-spacing:normal;text-transform:none;direction:ltr;block-progression:tb;writing-mode:lr-tb;text-anchor:start;baseline-shift:baseline;color:#000000;color-interpolation:sRGB;color-interpolation-filters:linearRGB;fill:#808080;fill-opacity:1;stroke:none;stroke-width:6;marker:none;visibility:visible;display:inline;overflow:visible;enable-background:accumulate;clip-rule:nonzero;color-rendering:auto;image-rendering:auto;shape-rendering:auto;text-rendering:auto;font-family:sans-serif;-inkscape-font-specification:sans-serif"
           d="m 195,1079.375 0,6 c 0,6.7103 2.48105,13.2966 7.3125,17.7812 4.7686,4.4264 10.91783,6.2188 16.6875,6.2188 5.77467,0 11.92202,-1.7918 16.6875,-6.2188 4.82773,-4.4847 7.3125,-11.0727 7.3125,-17.7812 l 0,-6 -6,0 0,6 c 0,5.2107 -1.97835,10.2509 -5.375,13.4062 -3.4589,3.2132 -8.07999,4.5938 -12.625,4.5938 -4.53867,0 -9.16274,-1.3799 -12.625,-4.5938 -3.39941,-3.1553 -5.375,-8.1907 -5.375,-13.4062 l 0,-6 z"
           transform="translate(168,-689.00001)"
           id="path2060"
           inkscape:connector-curvature="0"
           sodipodi:nodetypes="cscscsccssscscc" />
      </g>
    </g>
  </g>
</svg>
