<?xml version="1.0" encoding="UTF-8" standalone="no"?>
<!-- Created with Inkscape (http://www.inkscape.org/) -->
<svg
   xmlns:svg="http://www.w3.org/2000/svg"
   xmlns="http://www.w3.org/2000/svg"
   version="1.0"
   width="24"
   height="24"
   id="svg2816"
   style="display:inline">
  <defs
     id="defs2818" />
  <path
     d="M 11.5,4 C 9.6392134,4 7.961514,4.7018058 6.5625,5.71875 C 5.7690153,5.3784613 4.5575664,4.96146 2.96875,5 C 2.627731,5.0065879 2.3023449,5.1773977 2.125,5.46875 C 1.9476551,5.7601024 1.9429684,6.1315551 2.09375,6.4375 C 2.09375,6.4375 2.9907359,8.2627218 3.53125,9.34375 C 2.439381,9.6167172 0.75,10.03125 0.75,10.03125 C 0.42579091,10.110926 0.17558349,10.342129 0.0625,10.65625 C -0.050583492,10.970371 -0.011530655,11.325708 0.1875,11.59375 C 0.1875,11.59375 0.60717226,12.174409 1.25,12.75 C 1.7358339,13.185018 2.421498,13.59722 3.21875,13.8125 C 3.8658692,17.856052 7.2804253,21 11.5,21 C 13.536391,21 15.379158,20.198815 16.84375,19 L 22,19 C 22.41331,19.01309 22.777962,18.756503 22.9375,18.375 C 23.097037,17.993497 23.018339,17.566282 22.71875,17.28125 L 19.71875,14.28125 C 19.85347,13.705545 20,13.139591 20,12.5 C 20,7.8206352 16.179365,4.0000001 11.5,4 z M 8,8 C 8.5524885,7.9998671 9,8.4477767 9,9 C 9,9.5523553 8.5523466,10 8,10 C 7.4477669,10 7,9.5522218 7,9 C 7,8.4477767 7.4479088,8 8,8 z M 11.125,11 C 12.120082,10.995811 13.115546,11.365824 13.875,12.125 C 14.887304,13.137381 15.2193,14.584413 14.875,15.875 C 13.58463,16.219379 12.137454,15.88753 11.125,14.875 C 10.112617,13.862471 9.7806991,12.415292 10.125,11.125 C 10.44761,11.038887 10.793306,11.001396 11.125,11 z"
     id="path3249"
     style="opacity:0.6;fill:#eae3d1;fill-opacity:1;fill-rule:evenodd;stroke:none;stroke-width:1;stroke-linecap:butt;stroke-linejoin:miter;marker:none;marker-start:none;marker-mid:none;marker-end:none;stroke-miterlimit:4;stroke-dasharray:none;stroke-dashoffset:0;stroke-opacity:1;visibility:visible;display:inline;overflow:visible;enable-background:accumulate" />
  <path
     d="M 11.5,5 C 9.6404232,5 7.9360277,5.6905051 6.625,6.8125 C 6.0043343,6.5122059 4.6491183,5.9599973 3,6 C 3,6 4.2425537,8.4851074 4.6875,9.375 C 4.5702343,9.629114 4.4637011,9.8877778 4.375,10.15625 C 3.4851074,10.378723 1,11 1,11 C 1,11 2.4672522,13 4,13 C 4,13 4.0245503,12.995771 4.03125,13 C 4.2855504,16.910326 7.5257489,20 11.5,20 C 13.464788,20 15.256106,19.23778 16.59375,18 L 22,18 L 18.65625,14.65625 C 18.864192,13.968633 19,13.255184 19,12.5 C 19,8.36 15.64,5.0000001 11.5,5 z M 8,8 C 8.5524885,7.9998671 9,8.4477767 9,9 C 9,9.5523553 8.5523466,10 8,10 C 7.4477669,10 7,9.5522218 7,9 C 7,8.4477767 7.4479088,8 8,8 z M 11.125,11 C 12.120082,10.995811 13.115546,11.365824 13.875,12.125 C 14.887304,13.137381 15.2193,14.584413 14.875,15.875 C 13.58463,16.219379 12.137454,15.88753 11.125,14.875 C 10.112617,13.862471 9.7806991,12.415292 10.125,11.125 C 10.44761,11.038887 10.793306,11.001396 11.125,11 z"
     id="path2396"
     style="fill:#3a3935;fill-opacity:1;fill-rule:evenodd;stroke:none;stroke-width:1;stroke-linecap:butt;stroke-linejoin:miter;marker:none;marker-start:none;marker-mid:none;marker-end:none;stroke-miterlimit:4;stroke-dasharray:none;stroke-dashoffset:0;stroke-opacity:1;visibility:visible;display:inline;overflow:visible;enable-background:accumulate" />
</svg>
