<?xml version="1.0" encoding="utf-8"?>
<!-- Generator: Adobe Illustrator 15.0.0, SVG Export Plug-In . SVG Version: 6.00 Build 0)  -->
<!DOCTYPE svg PUBLIC "-//W3C//DTD SVG 1.1//EN" "http://www.w3.org/Graphics/SVG/1.1/DTD/svg11.dtd">
<svg version="1.1" id="Layer_1" xmlns="http://www.w3.org/2000/svg" xmlns:xlink="http://www.w3.org/1999/xlink" x="0px" y="0px"
	 width="22px" height="22px" viewBox="0 0 22 22" enable-background="new 0 0 22 22" xml:space="preserve">
<g>
	<g>
		<path fill="#363636" d="M11,2C6.03,2,2,6.029,2,11c0,4.97,4.03,9,9,9c4.97,0,9-4.03,9-9C20,6.029,15.971,2,11,2z M12.873,5.366
			c0.342-0.593,1.099-0.795,1.689-0.453c0.592,0.342,0.795,1.099,0.454,1.69c-0.341,0.593-1.099,0.795-1.69,0.453
			C12.733,6.714,12.531,5.958,12.873,5.366z M5.073,12.346c-0.684,0-1.239-0.554-1.239-1.237S4.389,9.87,5.073,9.87
			c0.683,0,1.237,0.555,1.237,1.238S5.756,12.346,5.073,12.346z M7.332,14.764c-0.614-0.614-1.054-1.355-1.297-2.165
			c0.489-0.315,0.812-0.865,0.812-1.49s-0.323-1.174-0.812-1.49c0.243-0.81,0.683-1.551,1.297-2.166
			c0.219-0.219,0.455-0.416,0.705-0.59l1.06,1.839c-0.712,0.56-1.171,1.431-1.171,2.407c0,0.975,0.459,1.845,1.171,2.407
			l-1.062,1.838C7.787,15.18,7.551,14.983,7.332,14.764z M14.563,17.302c-0.592,0.342-1.348,0.139-1.69-0.453
			c-0.341-0.592-0.139-1.348,0.454-1.689c0.592-0.342,1.349-0.14,1.69,0.452C15.359,16.202,15.156,16.96,14.563,17.302z
			 M14.753,14.65c-0.518-0.264-1.154-0.27-1.694,0.043c-0.542,0.313-0.855,0.867-0.885,1.448c-0.385,0.089-0.782,0.137-1.186,0.137
			c-0.775,0-1.522-0.17-2.202-0.49l1.061-1.838c0.352,0.143,0.737,0.221,1.141,0.221c1.541,0,2.819-1.146,3.03-2.63h2.121
			C16.043,12.707,15.561,13.793,14.753,14.65z M14.019,10.674c-0.211-1.483-1.489-2.627-3.03-2.627c-0.403,0-0.788,0.078-1.14,0.22
			L8.787,6.427c0.68-0.32,1.428-0.489,2.202-0.489c0.403,0,0.801,0.047,1.184,0.137c0.031,0.58,0.345,1.135,0.885,1.446
			c0.542,0.312,1.177,0.308,1.695,0.044c0.807,0.856,1.291,1.943,1.388,3.109H14.019z"/>
	</g>
</g>
</svg>
