<?xml version="1.0" encoding="utf-8"?>
<!-- Generator: Adobe Illustrator 15.0.0, SVG Export Plug-In . SVG Version: 6.00 Build 0)  -->
<!DOCTYPE svg PUBLIC "-//W3C//DTD SVG 1.1//EN" "http://www.w3.org/Graphics/SVG/1.1/DTD/svg11.dtd">
<svg version="1.1" id="Layer_1" xmlns="http://www.w3.org/2000/svg" xmlns:xlink="http://www.w3.org/1999/xlink" x="0px" y="0px"
	 width="22px" height="22px" viewBox="0 0 22 22" enable-background="new 0 0 22 22" xml:space="preserve">
<g>
	<g>
		<path fill="#363636" d="M16.323,16.496c-1.8-0.896-2.621-2.444-2.621-3.179c0-0.49,0.326-1.248,0.642-1.616
			c0.309-0.361,0.766-0.54,0.983-0.941c0.352-0.655,0.541-1.963,0.43-2.538c-0.078-0.41-0.43-0.451-0.43-0.818
			c0-0.328,0.077-0.859,0.077-1.76c0-1.27-0.485-1.948-1.139-2.538C13.675,2.573,12.496,2,11.002,2
			c-0.316,0-0.659,0.029-0.942,0.083C9.412,2.205,8.974,2.511,8.752,2.75L8.743,2.745L8.692,2.811h0
			C8.691,2.813,8.687,2.816,8.685,2.819C8.409,2.86,7.964,2.924,7.584,3.228C7.072,3.637,6.601,4.374,6.601,5.644
			c0,0.9,0.078,1.432,0.078,1.76c0,0.368-0.354,0.409-0.432,0.818c-0.111,0.575,0.079,1.883,0.432,2.538
			c0.217,0.401,0.675,0.58,0.982,0.941c0.315,0.368,0.642,1.126,0.642,1.616c0,0.734-0.828,2.282-2.627,3.179
			C3.211,17.725,2,18.289,2,20h18C20,18.289,18.788,17.725,16.323,16.496z M9.008,2.219L8.831,2.071
			c-0.094,0.113-0.159,0.24-0.19,0.368c-0.12-0.042-0.256-0.062-0.412-0.062v0.231c0.185,0,0.332,0.033,0.45,0.1l0.064,0.037
			L8.85,2.608C8.85,2.479,8.906,2.341,9.008,2.219z"/>
	</g>
</g>
</svg>
