<?xml version="1.0" encoding="UTF-8" standalone="no"?>
<!-- Created with Inkscape (http://www.inkscape.org/) -->

<svg
   xmlns:dc="http://purl.org/dc/elements/1.1/"
   xmlns:cc="http://creativecommons.org/ns#"
   xmlns:rdf="http://www.w3.org/1999/02/22-rdf-syntax-ns#"
   xmlns:svg="http://www.w3.org/2000/svg"
   xmlns="http://www.w3.org/2000/svg"
   xmlns:sodipodi="http://sodipodi.sourceforge.net/DTD/sodipodi-0.dtd"
   xmlns:inkscape="http://www.inkscape.org/namespaces/inkscape"
   version="1.0"
   width="64"
   height="64"
   id="svg3201"
   inkscape:version="0.48.0 r9654"
   sodipodi:docname="stock_person-panel.svg">
  <metadata
     id="metadata9">
    <rdf:RDF>
      <cc:Work
         rdf:about="">
        <dc:format>image/svg+xml</dc:format>
        <dc:type
           rdf:resource="http://purl.org/dc/dcmitype/StillImage" />
      </cc:Work>
    </rdf:RDF>
  </metadata>
  <sodipodi:namedview
     pagecolor="#ffffff"
     bordercolor="#666666"
     borderopacity="1"
     objecttolerance="10"
     gridtolerance="10"
     guidetolerance="10"
     inkscape:pageopacity="0"
     inkscape:pageshadow="2"
     inkscape:window-width="1280"
     inkscape:window-height="753"
     id="namedview7"
     showgrid="false"
     inkscape:zoom="4.546875"
     inkscape:cx="-1.4295533"
     inkscape:cy="34.309278"
     inkscape:window-x="0"
     inkscape:window-y="24"
     inkscape:window-maximized="1"
     inkscape:current-layer="svg3201" />
  <defs
     id="defs3203" />
  <path
     inkscape:connector-curvature="0"
     style="fill:#000000;fill-opacity:1;fill-rule:nonzero;stroke:none;stroke-width:1.00178742000000010;marker:none;visibility:visible;display:inline;overflow:visible;enable-background:accumulate;opacity:0.3"
     id="rect2382-7"
     d="M 2.9375,2 C 1.864125,2 1,2.8704269 1,3.9516299 L 1,60 5.1474609,58.170347 C 15.406039,53.608941 22.615233,48.371221 22.615234,45.484753 c 0,-2.019901 -2.019427,-5.749385 -4.298828,-7.898003 -1.463452,-1.37949 -2.039645,-2.790056 -2.391601,-5.793901 -0.269148,-2.29708 -0.322962,-4.578248 0.242187,-4.696109 0.963587,-0.200955 0.696542,-3.301022 0.696289,-6.495268 -4.07e-4,-5.09107 0.241082,-6.147095 1.907227,-8.568875 1.045204,-1.519231 2.176985,-2.7749737 2.542969,-2.7749735 0.365984,0 0.484434,-0.3065397 0.242187,-0.701367 -0.252049,-0.4108034 0.02924,-0.5510805 0.666016,-0.3049421 0.667866,0.2581508 1.294017,-0.057314 1.574218,-0.7928496 0.331332,-0.8697283 0.622945,-0.9788654 0.999024,-0.3659307 0.39308,0.6406508 1.013865,0.5328613 2.421875,-0.3964248 1.091363,-0.7203039 2.684669,-1.0171822 4.510742,-1.0063091 5.478221,0.032619 13.058367,2.9876237 15.378906,6.7697158 1.166191,1.9007 1.483399,3.631307 1.483399,8.17245 0,3.168054 -0.05841,6.212175 0.696289,6.464774 0.547702,0.183316 0.511325,2.399029 0.242187,4.696109 -0.351966,3.003845 -0.928149,4.41441 -2.391601,5.793901 -2.277115,2.146463 -4.3291,5.882981 -4.329102,7.898003 0,2.814701 7.649288,8.464671 16.408203,12.136698 L 63,59.207151 63,3.9516299 C 63,2.8704269 62.135875,2 61.0625,2 L 2.9375,2 z" />
  <path
     inkscape:connector-curvature="0"
     style="fill:#dfdbd2;fill-opacity:1;fill-rule:nonzero;stroke:none;stroke-width:1.00178742000000010;marker:none;visibility:visible;display:inline;overflow:visible;enable-background:accumulate"
     id="rect2382"
     d="M 2.9375,1 C 1.864125,1 1,1.8704269 1,2.9516299 L 1,59 5.1474609,57.170347 C 15.406039,52.608941 22.615233,47.371221 22.615234,44.484753 c 0,-2.019901 -2.019427,-5.749385 -4.298828,-7.898003 -1.463452,-1.37949 -2.039645,-2.790056 -2.391601,-5.793901 -0.269148,-2.29708 -0.322962,-4.578248 0.242187,-4.696109 0.963587,-0.200955 0.696542,-3.301022 0.696289,-6.495268 -4.07e-4,-5.09107 0.241082,-6.147095 1.907227,-8.568875 1.045204,-1.5192309 2.176985,-2.7749737 2.542969,-2.7749735 0.365984,0 0.484434,-0.3065397 0.242187,-0.701367 -0.252049,-0.4108034 0.02924,-0.5510805 0.666016,-0.3049421 0.667866,0.2581508 1.294017,-0.057314 1.574218,-0.7928496 0.331332,-0.8697283 0.622945,-0.9788654 0.999024,-0.3659307 0.39308,0.6406508 1.013865,0.5328613 2.421875,-0.3964248 1.091363,-0.7203039 2.684669,-1.0171822 4.510742,-1.0063091 5.478221,0.032619 13.058367,2.9876237 15.378906,6.7697158 1.166191,1.9007 1.483399,3.631307 1.483399,8.17245 0,3.168054 -0.05841,6.212175 0.696289,6.464774 0.547702,0.183316 0.511325,2.399029 0.242187,4.696109 -0.351966,3.003845 -0.928149,4.41441 -2.391601,5.793901 -2.277115,2.146463 -4.3291,5.882981 -4.329102,7.898003 0,2.814701 7.649288,8.464671 16.408203,12.136698 L 63,58.207151 63,2.9516299 C 63,1.8704269 62.135875,1 61.0625,1 L 2.9375,1 z" />
</svg>
