<?xml version="1.0" encoding="UTF-8" standalone="no"?>
<!-- Created with Inkscape (http://www.inkscape.org/) -->

<svg
   xmlns:dc="http://purl.org/dc/elements/1.1/"
   xmlns:cc="http://creativecommons.org/ns#"
   xmlns:rdf="http://www.w3.org/1999/02/22-rdf-syntax-ns#"
   xmlns:svg="http://www.w3.org/2000/svg"
   xmlns="http://www.w3.org/2000/svg"
   xmlns:sodipodi="http://sodipodi.sourceforge.net/DTD/sodipodi-0.dtd"
   xmlns:inkscape="http://www.inkscape.org/namespaces/inkscape"
   width="16"
   height="16"
   id="svg4008"
   version="1.1"
   inkscape:version="0.48.0 r9654"
   sodipodi:docname="playlist16.svg">
  <defs
     id="defs4010" />
  <sodipodi:namedview
     id="base"
     pagecolor="#ffffff"
     bordercolor="#666666"
     borderopacity="1.0"
     inkscape:pageopacity="0.0"
     inkscape:pageshadow="2"
     inkscape:zoom="12.340909"
     inkscape:cx="5.7007805"
     inkscape:cy="11"
     inkscape:current-layer="layer1"
     showgrid="true"
     inkscape:grid-bbox="true"
     inkscape:document-units="px"
     inkscape:window-width="1280"
     inkscape:window-height="753"
     inkscape:window-x="0"
     inkscape:window-y="24"
     inkscape:window-maximized="1">
    <inkscape:grid
       type="xygrid"
       id="grid3012"
       empspacing="5"
       visible="true"
       enabled="true"
       snapvisiblegridlinesonly="true" />
  </sodipodi:namedview>
  <metadata
     id="metadata4013">
    <rdf:RDF>
      <cc:Work
         rdf:about="">
        <dc:format>image/svg+xml</dc:format>
        <dc:type
           rdf:resource="http://purl.org/dc/dcmitype/StillImage" />
        <dc:title />
      </cc:Work>
    </rdf:RDF>
  </metadata>
  <g
     id="layer1"
     inkscape:label="Layer 1"
     inkscape:groupmode="layer"
     transform="translate(0,-16)">
    <path
       id="path7249-8-0-4-4"
       style="opacity:0.3;color:#ffffff;fill:#ffffff;fill-opacity:1;fill-rule:nonzero;stroke:none;stroke-width:1;marker:none;visibility:visible;display:inline;overflow:visible;enable-background:accumulate"
       d="m 11.419632,18.004925 c -0.452724,-0.05278 -0.515415,0.329409 -0.468254,0.633497 -0.0043,3.025974 0.0086,6.054726 -0.0064,9.078968 -0.110572,0.10409 -0.322761,-0.0671 -0.463635,-0.02267 -1.534713,-0.08429 -3.211523,0.918378 -3.364951,2.365376 -0.180821,1.15045 1.168324,2.097014 2.371422,1.918082 1.515988,-0.144968 2.700362,-1.523417 2.502717,-2.884223 0.0043,-2.395979 -0.0086,-4.794732 0.0064,-7.188978 0.103332,-0.106629 0.257461,0.120399 0.366317,0.131537 1.219106,0.649916 2.297503,1.721652 2.370301,3.056315 0.08005,1.042897 -0.270433,2.063392 -0.664755,3.030214 1.321308,-1.465443 1.744289,-3.603234 0.826124,-5.334142 C 14.42534,21.784134 13.366037,21.164936 12.773441,20.23168 12.335814,19.608019 12.00275,18.911784 11.898543,18.175501 11.812743,18.021965 11.58675,18.00327 11.419632,18.004925 z M 1,29 l 4.727273,0 0,1 L 1,30 z m 0,-3 8,0 0,1 -8,0 z m 0,-3 8,0 0,1 -8,0 z m 0,-3 8,0 0,1 -8,0 z"
       inkscape:connector-curvature="0"
       sodipodi:nodetypes="ccccccccccccccccccccccccccccccccccc" />
    <path
       id="path7249-8-0-4"
       style="opacity:1;fill:#3c3c3c;fill-opacity:1;stroke:none;color:#ffffff;fill-rule:nonzero;stroke-width:1;marker:none;visibility:visible;display:inline;overflow:visible;enable-background:accumulate"
       d="m 11.419632,17.004925 c -0.452724,-0.05278 -0.515415,0.329409 -0.468254,0.633497 -0.0043,3.025975 0.0086,6.054726 -0.0064,9.078969 -0.110572,0.10409 -0.322761,-0.0671 -0.463635,-0.02267 -1.534713,-0.08429 -3.211523,0.918377 -3.364951,2.365375 -0.180821,1.15045 1.168324,2.097014 2.371422,1.918082 1.515988,-0.144968 2.700362,-1.523417 2.502717,-2.884223 0.0043,-2.395978 -0.0086,-4.794731 0.0064,-7.188977 0.103332,-0.106629 0.257461,0.120399 0.366317,0.131537 1.219106,0.649916 2.297503,1.721652 2.370301,3.056315 0.08005,1.042897 -0.270433,2.063392 -0.664755,3.030213 1.321308,-1.465442 1.744289,-3.603233 0.826124,-5.334141 C 14.42534,20.784135 13.366037,20.164937 12.773441,19.231681 12.335814,18.60802 12.00275,17.911784 11.898543,17.175501 11.812743,17.021965 11.58675,17.00327 11.419632,17.004925 z M 1,28 l 4.727273,0 0,1 L 1,29 z m 0,-3 8,0 0,1 -8,0 z m 0,-3 8,0 0,1 -8,0 z m 0,-3 8,0 0,1 -8,0 z"
       inkscape:connector-curvature="0"
       sodipodi:nodetypes="ccccccccccccccccccccccccccccccccccc" />
  </g>
</svg>
