<?xml version="1.0" encoding="UTF-8" standalone="no"?>
<!-- Created with Inkscape (http://www.inkscape.org/) -->
<svg
   xmlns:svg="http://www.w3.org/2000/svg"
   xmlns="http://www.w3.org/2000/svg"
   version="1.0"
   width="16"
   height="16"
   id="svg2411">
  <defs
     id="defs2413" />
  <g
     id="layer1">
    <path
       d="M 2.5625,0 C 1.1223259,0 0,1.2291395 0,2.65625 L 0,13.34375 C -1.5640066e-08,14.770861 1.1223263,16 2.5625,16 L 13.4375,16 C 14.877674,16 16,14.770861 16,13.34375 L 16,2.65625 C 16,1.2291396 14.877674,0 13.4375,0 L 2.5625,0 z M 7,6.4375 L 7,7 C 7.0029173,7.5510718 7.4489282,7.9970827 8,8 L 13,8 L 13,10 L 8,10 C 7.4489282,10.002917 7.0029173,10.448928 7,11 L 7,11.5625 L 4.4375,9 L 7,6.4375 z"
       id="path2409"
       style="opacity:0.6;fill:#eae3d0;fill-opacity:1;fill-rule:evenodd;stroke:none;stroke-width:1.69999993;stroke-linecap:round;stroke-linejoin:miter;marker:none;marker-start:none;marker-mid:none;marker-end:none;stroke-miterlimit:4;stroke-dasharray:none;stroke-dashoffset:0;stroke-opacity:1;visibility:visible;display:inline;overflow:visible;enable-background:accumulate" />
    <path
       d="M 2.5625,1 C 1.700722,1 1,1.7437795 1,2.65625 L 1,13.34375 C 0.99999999,14.256221 1.700722,15 2.5625,15 L 13.4375,15 C 14.299278,15 15,14.256221 15,13.34375 L 15,2.65625 C 15,1.7437796 14.299278,1 13.4375,1 L 2.5625,1 z M 2.5,2 L 13.5,2 C 13.777,2 14,2.223 14,2.5 C 14,2.777 13.777,3 13.5,3 L 2.5,3 C 2.223,3 2,2.777 2,2.5 C 2,2.223 2.223,2 2.5,2 z M 8,4 L 8,7 L 14,7 L 14,11 L 8,11 L 8,14 L 3,9 L 8,4 z"
       id="rect2396"
       style="fill:#3a3935;fill-opacity:1;fill-rule:evenodd;stroke:none;stroke-width:1.69999993;stroke-linecap:round;stroke-linejoin:miter;marker:none;marker-start:none;marker-mid:none;marker-end:none;stroke-miterlimit:4;stroke-dasharray:none;stroke-dashoffset:0;stroke-opacity:1;visibility:visible;display:inline;overflow:visible;enable-background:accumulate" />
  </g>
</svg>
