<?xml version="1.0" encoding="UTF-8" standalone="no"?>
<!-- Created with Inkscape (http://www.inkscape.org/) -->
<svg
   xmlns:svg="http://www.w3.org/2000/svg"
   xmlns="http://www.w3.org/2000/svg"
   version="1.0"
   width="64"
   height="64"
   id="svg3475">
  <defs
     id="defs3477" />
  <g
     id="layer1">
    <path
       d="M 258.1875,198.90625 C 255.52089,198.90625 253.34331,201.08826 253.34375,203.75 C 253.34332,206.41173 255.5209,208.59375 258.1875,208.59375 C 260.85411,208.59375 263.06297,206.42188 263.0625,203.75 C 263.06298,201.07811 260.85411,198.90625 258.1875,198.90625 z M 246.78125,202.71875 C 244.75328,202.86835 242.78295,203.39065 241,204.125 C 240.72976,204.24344 240.5235,204.47238 240.43379,204.75347 C 240.34408,205.03456 240.37958,205.34066 240.53125,205.59375 L 243.96875,211.46875 C 244.21707,211.87007 244.70691,212.05054 245.15625,211.90625 C 245.96028,211.65179 246.75851,211.51262 247.625,211.46875 C 247.73857,211.46302 247.93211,211.46875 248.15625,211.46875 C 252.93435,211.46874 256.88256,214.79199 257.875,219.25 C 257.97591,219.72222 258.39212,220.0604 258.875,220.0625 L 265.71875,220.0625 C 266.0158,220.06604 266.29983,219.94081 266.49756,219.71911 C 266.69529,219.49741 266.78736,219.20096 266.75,218.90625 C 266.23605,215.11623 264.51884,211.67894 262.09375,208.96875 C 261.77733,208.61639 261.26102,208.52604 260.84375,208.75 C 260.04801,209.17652 259.16769,209.40625 258.1875,209.40625 C 255.1252,209.40624 252.6715,207.03943 252.53125,204.03125 C 252.49757,203.56253 252.15009,203.17645 251.6875,203.09375 C 250.55991,202.8788 249.38021,202.71875 248.15625,202.71875 C 247.95273,202.71875 247.71696,202.70815 247.4375,202.71875 C 247.44842,202.71834 247.35449,202.71034 247.1875,202.71875 C 247.23431,202.71639 247.16353,202.70666 246.96875,202.71875 C 247.02775,202.71508 246.98068,202.70403 246.78125,202.71875 z M 237.21875,206.4375 C 237.01357,206.45244 236.81761,206.52865 236.65625,206.65625 C 233.74655,208.91663 231.52608,212.02577 230.34375,215.59375 C 230.20281,216.0197 230.35464,216.48785 230.71875,216.75 C 232.21457,217.77164 233.21875,219.49405 233.21875,221.4375 C 233.21875,223.38095 232.21458,225.10335 230.71875,226.125 C 230.35464,226.38715 230.20281,226.8553 230.34375,227.28125 C 231.52564,230.84995 233.74491,233.96012 236.65625,236.21875 C 236.89153,236.39262 237.18979,236.45791 237.4762,236.39824 C 237.7626,236.33858 238.00997,236.15961 238.15625,235.90625 L 241.5625,230.03125 C 241.79412,229.6209 241.71682,229.10559 241.375,228.78125 C 239.39103,226.95936 238.15625,224.33978 238.15625,221.4375 C 238.15626,218.53703 239.39154,215.92191 241.375,214.09375 C 241.71682,213.76941 241.79412,213.2541 241.5625,212.84375 L 238.15625,206.96875 C 237.96918,206.62881 237.60651,206.42329 237.21875,206.4375 L 237.21875,206.4375 z M 227.5625,216.59375 C 224.89589,216.59375 222.68704,218.76564 222.6875,221.4375 C 222.68704,224.10936 224.89588,226.28125 227.5625,226.28125 C 230.22912,226.28125 232.40672,224.09923 232.40625,221.4375 C 232.40673,218.77576 230.22912,216.59375 227.5625,216.59375 z M 258.78125,222.78125 C 258.33395,222.82467 257.96681,223.15383 257.875,223.59375 C 256.88238,228.05267 252.93028,231.40625 248.15625,231.40625 C 247.10947,231.40624 246.12292,231.24328 245.15625,230.9375 C 244.70691,230.79321 244.21707,230.97368 243.96875,231.375 L 240.53125,237.25 C 240.37958,237.50309 240.34408,237.80919 240.43379,238.09028 C 240.5235,238.37137 240.72976,238.60031 241,238.71875 C 243.19663,239.62356 245.62847,240.15625 248.15625,240.15625 C 249.3802,240.15625 250.5599,239.99621 251.6875,239.78125 C 252.15009,239.69855 252.49757,239.31247 252.53125,238.84375 C 252.67241,235.96613 254.96595,233.65093 257.84375,233.46875 C 257.90689,233.46476 258.0003,233.46875 258.1875,233.46875 C 259.18635,233.46874 260.06352,233.67555 260.84375,234.09375 C 261.26102,234.31771 261.77733,234.22736 262.09375,233.875 C 264.51885,231.16481 266.23606,227.72753 266.75,223.9375 C 266.78736,223.64279 266.69529,223.34634 266.49756,223.12464 C 266.29983,222.90294 266.0158,222.77771 265.71875,222.78125 L 258.875,222.78125 C 258.84377,222.77982 258.81248,222.77982 258.78125,222.78125 z M 258.1875,234.25 C 255.51078,234.25001 253.34331,236.46326 253.34375,239.125 C 253.34332,241.78674 255.52091,243.96875 258.1875,243.96875 C 260.8541,243.96875 263.06297,241.79689 263.0625,239.125 C 263.06298,236.45311 260.86422,234.25 258.1875,234.25 z"
       transform="translate(-213.71428,-188.93361)"
       id="path3473"
       style="opacity:0.6;fill:#eae3d0;fill-opacity:1;fill-rule:evenodd;stroke:none;stroke-width:1.69999993;stroke-linecap:round;stroke-linejoin:miter;marker:none;marker-start:none;marker-mid:none;marker-end:none;stroke-miterlimit:4;stroke-dasharray:none;stroke-dashoffset:0;stroke-opacity:1;visibility:visible;display:inline;overflow:visible;enable-background:accumulate" />
    <path
       d="M 258.19723,199.93361 C 256.08098,199.93361 254.3787,201.64434 254.37905,203.75583 C 254.3787,205.86731 256.08099,207.57806 258.19723,207.57806 C 260.31349,207.57806 262.04561,205.86731 262.04524,203.75583 C 262.04561,201.64434 260.31349,199.93361 258.19723,199.93361 z M 246.83218,203.75583 C 244.92495,203.89652 243.09589,204.37254 241.40319,205.06972 L 244.83359,210.9225 C 245.70916,210.6454 246.61924,210.49325 247.57792,210.44471 C 247.76557,210.43525 247.95466,210.44471 248.14468,210.44471 C 253.4016,210.44471 257.78857,214.12718 258.88331,219.04472 L 265.71428,219.04472 C 265.22953,215.46997 263.65585,212.235 261.35917,209.66832 C 260.41592,210.1739 259.34226,210.44471 258.19723,210.44471 C 254.60217,210.44471 251.65092,207.63069 251.48558,204.08431 C 250.40361,203.87805 249.28616,203.75583 248.14468,203.75583 C 247.91542,203.75583 247.68575,203.74721 247.45859,203.75583 C 247.38465,203.75862 247.32349,203.75212 247.24979,203.75583 C 247.18035,203.75933 247.11025,203.75153 247.04099,203.75583 C 246.97388,203.76 246.8991,203.75089 246.83218,203.75583 z M 237.28673,207.45861 C 234.53603,209.59546 232.4381,212.53764 231.32082,215.90931 C 233.08566,217.1147 234.24411,219.14008 234.24411,221.43361 C 234.24411,223.72714 233.08566,225.75252 231.32082,226.95791 C 232.43773,230.33041 234.53506,233.27386 237.28673,235.40862 L 240.6873,229.52597 C 238.50001,227.51737 237.13758,224.63043 237.13758,221.43361 C 237.13758,218.23793 238.50266,215.35483 240.6873,213.34125 L 237.28673,207.45861 z M 227.56229,217.61139 C 225.44604,217.61139 223.71392,219.32215 223.71428,221.43361 C 223.71392,223.54507 225.44603,225.25583 227.56229,225.25583 C 229.67855,225.25583 231.38084,223.54507 231.38047,221.43361 C 231.38084,219.32215 229.67855,217.61139 227.56229,217.61139 z M 258.88331,223.8225 C 257.78858,228.74004 253.4016,232.42251 248.14468,232.42251 C 246.98086,232.42251 245.88411,232.24716 244.83359,231.91486 L 241.40319,237.76763 C 243.48186,238.62384 245.75669,239.11139 248.14468,239.11139 C 249.28616,239.11139 250.40362,238.98917 251.48558,238.78291 C 251.65225,235.38537 254.38824,232.6372 257.77962,232.42251 C 257.92193,232.41352 258.05266,232.42251 258.19723,232.42251 C 259.34226,232.42251 260.41592,232.69332 261.35917,233.1989 C 263.65585,230.63222 265.22953,227.39725 265.71428,223.8225 L 258.88331,223.8225 z M 258.19723,235.28916 C 256.08098,235.28916 254.3787,236.99991 254.37905,239.11139 C 254.3787,241.22288 256.08099,242.93361 258.19723,242.93361 C 260.31349,242.93361 262.04561,241.22288 262.04524,239.11139 C 262.04561,236.99991 260.31349,235.28916 258.19723,235.28916 z"
       transform="translate(-213.71428,-188.93361)"
       id="path2317"
       style="fill:#3a3935;fill-opacity:1;fill-rule:nonzero;stroke:none;stroke-width:1.00178742;stroke-linecap:butt;stroke-linejoin:miter;marker:none;marker-start:none;marker-mid:none;marker-end:none;stroke-miterlimit:4;stroke-dasharray:none;stroke-dashoffset:0;stroke-opacity:1;visibility:visible;display:inline;overflow:visible;enable-background:accumulate" />
    <path
       d="M 258.19723,199.93361 C 256.08098,199.93361 254.3787,201.64434 254.37905,203.75583 C 254.3787,205.86731 256.08099,207.57806 258.19723,207.57806 C 260.31349,207.57806 262.04561,205.86731 262.04524,203.75583 C 262.04561,201.64434 260.31349,199.93361 258.19723,199.93361 z M 246.83218,203.75583 C 244.92495,203.89652 243.09589,204.37254 241.40319,205.06972 L 244.83359,210.9225 C 245.70916,210.6454 246.61924,210.49325 247.57792,210.44471 C 247.76557,210.43525 247.95466,210.44471 248.14468,210.44471 C 253.4016,210.44471 257.78857,214.12718 258.88331,219.04472 L 265.71428,219.04472 C 265.22953,215.46997 263.65585,212.235 261.35917,209.66832 C 260.41592,210.1739 259.34226,210.44471 258.19723,210.44471 C 254.60217,210.44471 251.65092,207.63069 251.48558,204.08431 C 250.40361,203.87805 249.28616,203.75583 248.14468,203.75583 C 247.91542,203.75583 247.68575,203.74721 247.45859,203.75583 C 247.38465,203.75862 247.32349,203.75212 247.24979,203.75583 C 247.18035,203.75933 247.11025,203.75153 247.04099,203.75583 C 246.97388,203.76 246.8991,203.75089 246.83218,203.75583 z M 237.28673,207.45861 C 234.53603,209.59546 232.4381,212.53764 231.32082,215.90931 C 233.08566,217.1147 234.24411,219.14008 234.24411,221.43361 C 234.24411,223.72714 233.08566,225.75252 231.32082,226.95791 C 232.43773,230.33041 234.53506,233.27386 237.28673,235.40862 L 240.6873,229.52597 C 238.50001,227.51737 237.13758,224.63043 237.13758,221.43361 C 237.13758,218.23793 238.50266,215.35483 240.6873,213.34125 L 237.28673,207.45861 z M 227.56229,217.61139 C 225.44604,217.61139 223.71392,219.32215 223.71428,221.43361 C 223.71392,223.54507 225.44603,225.25583 227.56229,225.25583 C 229.67855,225.25583 231.38084,223.54507 231.38047,221.43361 C 231.38084,219.32215 229.67855,217.61139 227.56229,217.61139 z M 258.88331,223.8225 C 257.78858,228.74004 253.4016,232.42251 248.14468,232.42251 C 246.98086,232.42251 245.88411,232.24716 244.83359,231.91486 L 241.40319,237.76763 C 243.48186,238.62384 245.75669,239.11139 248.14468,239.11139 C 249.28616,239.11139 250.40362,238.98917 251.48558,238.78291 C 251.65225,235.38537 254.38824,232.6372 257.77962,232.42251 C 257.92193,232.41352 258.05266,232.42251 258.19723,232.42251 C 259.34226,232.42251 260.41592,232.69332 261.35917,233.1989 C 263.65585,230.63222 265.22953,227.39725 265.71428,223.8225 L 258.88331,223.8225 z M 258.19723,235.28916 C 256.08098,235.28916 254.3787,236.99991 254.37905,239.11139 C 254.3787,241.22288 256.08099,242.93361 258.19723,242.93361 C 260.31349,242.93361 262.04561,241.22288 262.04524,239.11139 C 262.04561,236.99991 260.31349,235.28916 258.19723,235.28916 z"
       transform="translate(-213.71428,-188.93361)"
       id="path3467"
       style="fill:none;fill-opacity:1;fill-rule:nonzero;stroke:none;stroke-width:1.00178742;stroke-linecap:butt;stroke-linejoin:miter;marker:none;marker-start:none;marker-mid:none;marker-end:none;stroke-miterlimit:4;stroke-dasharray:none;stroke-dashoffset:0;stroke-opacity:1;visibility:visible;display:inline;overflow:visible;enable-background:accumulate" />
  </g>
</svg>
