<?xml version="1.0" encoding="UTF-8" standalone="no"?>
<!-- Created with Inkscape (http://www.inkscape.org/) -->

<svg
   xmlns:dc="http://purl.org/dc/elements/1.1/"
   xmlns:cc="http://creativecommons.org/ns#"
   xmlns:rdf="http://www.w3.org/1999/02/22-rdf-syntax-ns#"
   xmlns:svg="http://www.w3.org/2000/svg"
   xmlns="http://www.w3.org/2000/svg"
   xmlns:sodipodi="http://sodipodi.sourceforge.net/DTD/sodipodi-0.dtd"
   xmlns:inkscape="http://www.inkscape.org/namespaces/inkscape"
   version="1.0"
   width="22"
   height="22"
   id="svg3356"
   inkscape:version="0.48.0 r9654"
   sodipodi:docname="apport.svg">
  <metadata
     id="metadata8">
    <rdf:RDF>
      <cc:Work
         rdf:about="">
        <dc:format>image/svg+xml</dc:format>
        <dc:type
           rdf:resource="http://purl.org/dc/dcmitype/StillImage" />
        <dc:title></dc:title>
      </cc:Work>
    </rdf:RDF>
  </metadata>
  <sodipodi:namedview
     pagecolor="#ffffff"
     bordercolor="#666666"
     borderopacity="1"
     objecttolerance="10"
     gridtolerance="10"
     guidetolerance="10"
     inkscape:pageopacity="0"
     inkscape:pageshadow="2"
     inkscape:window-width="1280"
     inkscape:window-height="753"
     id="namedview6"
     showgrid="false"
     inkscape:zoom="13.227273"
     inkscape:cx="-0.49140893"
     inkscape:cy="11.793814"
     inkscape:window-x="0"
     inkscape:window-y="24"
     inkscape:window-maximized="1"
     inkscape:current-layer="svg3356" />
  <defs
     id="defs3358" />
  <path
     inkscape:connector-curvature="0"
     d="m 7.9067449,2.9527301 c -0.3700053,0.011021 -0.6624412,0.3173824 -0.65625,0.6875 l 0.03125,3.375 -4.09375,-0.875 c -0.2877244,-0.056357 -0.5763635,0.087454 -0.71875,0.34375 -0.1423865,0.2562957 -0.1061057,0.5667292 0.09375,0.78125 l 3.3125,3.2812499 -3.09375,0.96875 c -0.3010764,0.07534 -0.5,0.34589 -0.5,0.65625 0,0.31036 0.1989236,0.580908 0.5,0.65625 l 2.6875,0.875 -3.34375,4.5 c -0.1620051,0.236216 -0.1684716,0.549601 0,0.78125 0.1684717,0.231649 0.4753603,0.331344 0.75,0.25 l 4.75,-1.71875 0.125,2.40625 c 0.00327,0.272492 0.1849525,0.522616 0.4375,0.625 0.2525476,0.102384 0.5266473,0.03704 0.71875,-0.15625 l 2.2500001,-2.09375 1.125,1.75 c 0.154976,0.249958 0.464678,0.38383 0.75,0.3125 0.285322,-0.07133 0.480884,-0.331519 0.5,-0.625 l 0.125,-1.5 4.34375,2.65625 c 0.255582,0.138117 0.568868,0.104473 0.78125,-0.09375 0.212381,-0.198223 0.276434,-0.516761 0.15625,-0.78125 l -2.15625,-4.125 1.53125,-0.03125 c 0.281306,-0.0024 0.527748,-0.173529 0.625,-0.4375 0.09725,-0.263971 0.02501,-0.565674 -0.1875,-0.75 l -1.375,-1.28125 2.34375,-1.5 c 0.223745,-0.140096 0.34607,-0.394407 0.3125,-0.65625 -0.03357,-0.261843 -0.2169,-0.483378 -0.46875,-0.5625 l -2.28125,-0.7499999 2.65625,-5.875 c 0.120184,-0.2644893 0.05613,-0.5830266 -0.15625,-0.78125 -0.212383,-0.1982234 -0.525668,-0.2318671 -0.78125,-0.09375 l -5.03125,2.6875 -0.40625,-1.375 c -0.07195,-0.2448159 -0.280302,-0.4225228 -0.53125,-0.46875 -0.250947,-0.046227 -0.501787,0.046892 -0.65625,0.25 l -1.09375,1.46875 -2.9062501,-2.59375 C 8.2492948,3.0195828 8.0813362,2.9523994 7.9067449,2.9527301 z m 3.0937501,4.03125 c 0.554,-1e-7 1,0.446 1,1 l 0,4.9999999 c 0,0.554 -0.446,1 -1,1 -0.554,0 -1,-0.446 -1,-1 l 0,-4.9999999 c 0,-0.5540001 0.446,-1 1,-1 z m -0.5,7.9999999 0.5,0 0.5,0 c 0.277,0 0.5,0.223 0.5,0.5 l 0,0.5 0,0.5 c 0,0.277 -0.223,0.5 -0.5,0.5 l -0.5,0 -0.5,0 c -0.277,0 -0.5,-0.223 -0.5,-0.5 l 0,-0.5 0,-0.5 c 0,-0.277 0.223,-0.5 0.5,-0.5 z"
     id="path3186-7"
     style="fill:#000000;fill-opacity:1;fill-rule:evenodd;stroke:none;stroke-width:1.69999992999999994;marker:none;visibility:visible;display:inline;overflow:visible;enable-background:accumulate;opacity:0.3" />
  <path
     d="M 7.9067449,1.9527301 C 7.5367396,1.963751 7.2443037,2.2701125 7.2504949,2.6402301 L 7.2817449,6.0152301 L 3.1879949,5.1402301 C 2.9002705,5.083873 2.6116314,5.2276843 2.4692449,5.4839801 C 2.3268584,5.7402758 2.3631392,6.0507093 2.5629949,6.2652301 L 5.8754949,9.5464801 L 2.7817449,10.51523 C 2.4806685,10.590572 2.2817449,10.86112 2.2817449,11.17148 C 2.2817449,11.48184 2.4806685,11.752388 2.7817449,11.82773 L 5.4692449,12.70273 L 2.1254949,17.20273 C 1.9634898,17.438946 1.9570233,17.752331 2.1254949,17.98398 C 2.2939666,18.215629 2.6008552,18.315324 2.8754949,18.23398 L 7.6254949,16.51523 L 7.7504949,18.92148 C 7.7537687,19.193972 7.9354474,19.444096 8.1879949,19.54648 C 8.4405425,19.648864 8.7146422,19.583516 8.9067449,19.39023 L 11.156745,17.29648 L 12.281745,19.04648 C 12.436721,19.296438 12.746423,19.43031 13.031745,19.35898 C 13.317067,19.287649 13.512629,19.027461 13.531745,18.73398 L 13.656745,17.23398 L 18.000495,19.89023 C 18.256077,20.028347 18.569363,19.994703 18.781745,19.79648 C 18.994126,19.598257 19.058179,19.279719 18.937995,19.01523 L 16.781745,14.89023 L 18.312995,14.85898 C 18.594301,14.856588 18.840743,14.685451 18.937995,14.42148 C 19.035247,14.157509 18.96301,13.855806 18.750495,13.67148 L 17.375495,12.39023 L 19.719245,10.89023 C 19.94299,10.750134 20.065315,10.495823 20.031745,10.23398 C 19.998176,9.9721371 19.814845,9.7506021 19.562995,9.6714801 L 17.281745,8.9214801 L 19.937995,3.0464801 C 20.058179,2.7819908 19.994127,2.4634535 19.781745,2.2652301 C 19.569362,2.0670067 19.256077,2.033363 19.000495,2.1714801 L 13.969245,4.8589801 L 13.562995,3.4839801 C 13.491045,3.2391642 13.282693,3.0614573 13.031745,3.0152301 C 12.780798,2.9690031 12.529958,3.0621218 12.375495,3.2652301 L 11.281745,4.7339801 L 8.3754949,2.1402301 C 8.2492948,2.0195828 8.0813362,1.9523994 7.9067449,1.9527301 z M 11.000495,5.9839801 C 11.554495,5.98398 12.000495,6.4299801 12.000495,6.9839801 L 12.000495,11.98398 C 12.000495,12.53798 11.554495,12.98398 11.000495,12.98398 C 10.446495,12.98398 10.000495,12.53798 10.000495,11.98398 L 10.000495,6.9839801 C 10.000495,6.42998 10.446495,5.9839801 11.000495,5.9839801 z M 10.500495,13.98398 L 11.000495,13.98398 L 11.500495,13.98398 C 11.777495,13.98398 12.000495,14.20698 12.000495,14.48398 L 12.000495,14.98398 L 12.000495,15.48398 C 12.000495,15.76098 11.777495,15.98398 11.500495,15.98398 L 11.000495,15.98398 L 10.500495,15.98398 C 10.223495,15.98398 10.000495,15.76098 10.000495,15.48398 L 10.000495,14.98398 L 10.000495,14.48398 C 10.000495,14.20698 10.223495,13.98398 10.500495,13.98398 z"
     id="path3186"
     style="opacity:1;fill:#df382c;fill-opacity:1;fill-rule:evenodd;stroke:none;stroke-width:1.69999992999999994;stroke-linecap:round;stroke-linejoin:miter;marker:none;marker-start:none;marker-mid:none;marker-end:none;stroke-miterlimit:4;stroke-dasharray:none;stroke-dashoffset:0;stroke-opacity:1;visibility:visible;display:inline;overflow:visible;enable-background:accumulate" />
</svg>
