<?xml version="1.0" encoding="UTF-8" standalone="no"?>
<!-- Created with Inkscape (http://www.inkscape.org/) -->
<svg
   xmlns:svg="http://www.w3.org/2000/svg"
   xmlns="http://www.w3.org/2000/svg"
   version="1.0"
   width="22"
   height="22"
   id="svg3356">
  <defs
     id="defs3358" />
  <path
     d="M 7.9067449,1.9527301 C 7.5367396,1.963751 7.2443037,2.2701125 7.2504949,2.6402301 L 7.2817449,6.0152301 L 3.1879949,5.1402301 C 2.9002705,5.083873 2.6116314,5.2276843 2.4692449,5.4839801 C 2.3268584,5.7402758 2.3631392,6.0507093 2.5629949,6.2652301 L 5.8754949,9.5464801 L 2.7817449,10.51523 C 2.4806685,10.590572 2.2817449,10.86112 2.2817449,11.17148 C 2.2817449,11.48184 2.4806685,11.752388 2.7817449,11.82773 L 5.4692449,12.70273 L 2.1254949,17.20273 C 1.9634898,17.438946 1.9570233,17.752331 2.1254949,17.98398 C 2.2939666,18.215629 2.6008552,18.315324 2.8754949,18.23398 L 7.6254949,16.51523 L 7.7504949,18.92148 C 7.7537687,19.193972 7.9354474,19.444096 8.1879949,19.54648 C 8.4405425,19.648864 8.7146422,19.583516 8.9067449,19.39023 L 11.156745,17.29648 L 12.281745,19.04648 C 12.436721,19.296438 12.746423,19.43031 13.031745,19.35898 C 13.317067,19.287649 13.512629,19.027461 13.531745,18.73398 L 13.656745,17.23398 L 18.000495,19.89023 C 18.256077,20.028347 18.569363,19.994703 18.781745,19.79648 C 18.994126,19.598257 19.058179,19.279719 18.937995,19.01523 L 16.781745,14.89023 L 18.312995,14.85898 C 18.594301,14.856588 18.840743,14.685451 18.937995,14.42148 C 19.035247,14.157509 18.96301,13.855806 18.750495,13.67148 L 17.375495,12.39023 L 19.719245,10.89023 C 19.94299,10.750134 20.065315,10.495823 20.031745,10.23398 C 19.998176,9.9721371 19.814845,9.7506021 19.562995,9.6714801 L 17.281745,8.9214801 L 19.937995,3.0464801 C 20.058179,2.7819908 19.994127,2.4634535 19.781745,2.2652301 C 19.569362,2.0670067 19.256077,2.033363 19.000495,2.1714801 L 13.969245,4.8589801 L 13.562995,3.4839801 C 13.491045,3.2391642 13.282693,3.0614573 13.031745,3.0152301 C 12.780798,2.9690031 12.529958,3.0621218 12.375495,3.2652301 L 11.281745,4.7339801 L 8.3754949,2.1402301 C 8.2492948,2.0195828 8.0813362,1.9523994 7.9067449,1.9527301 z M 11.000495,5.9839801 C 11.554495,5.98398 12.000495,6.4299801 12.000495,6.9839801 L 12.000495,11.98398 C 12.000495,12.53798 11.554495,12.98398 11.000495,12.98398 C 10.446495,12.98398 10.000495,12.53798 10.000495,11.98398 L 10.000495,6.9839801 C 10.000495,6.42998 10.446495,5.9839801 11.000495,5.9839801 z M 10.500495,13.98398 L 11.000495,13.98398 L 11.500495,13.98398 C 11.777495,13.98398 12.000495,14.20698 12.000495,14.48398 L 12.000495,14.98398 L 12.000495,15.48398 C 12.000495,15.76098 11.777495,15.98398 11.500495,15.98398 L 11.000495,15.98398 L 10.500495,15.98398 C 10.223495,15.98398 10.000495,15.76098 10.000495,15.48398 L 10.000495,14.98398 L 10.000495,14.48398 C 10.000495,14.20698 10.223495,13.98398 10.500495,13.98398 z"
     id="path3186"
     style="opacity:1;fill:#dfd8c8;fill-opacity:1;fill-rule:evenodd;stroke:none;stroke-width:1.69999993;stroke-linecap:round;stroke-linejoin:miter;marker:none;marker-start:none;marker-mid:none;marker-end:none;stroke-miterlimit:4;stroke-dasharray:none;stroke-dashoffset:0;stroke-opacity:1;visibility:visible;display:inline;overflow:visible;enable-background:accumulate" />
  <path
     d="M 7.8754949,1.4214801 C 7.2203928,1.4409928 6.7082833,1.9849293 6.7192449,2.6402301 L 6.7504949,5.3277301 L 3.3129949,4.6089801 C 3.3025805,4.6086743 3.2921593,4.6086743 3.2817449,4.6089801 C 2.7604853,4.50688 2.2501417,4.7846156 2.0004949,5.2339801 C 1.7508481,5.6833444 1.8354521,6.2618182 2.1879949,6.6402301 L 4.8754949,9.2964801 L 2.6567449,10.01523 L 2.6254949,10.01523 C 2.111108,10.165592 1.7504949,10.648442 1.7504949,11.17148 C 1.7504949,11.694518 2.111108,12.177368 2.6254949,12.32773 C 2.6327602,12.329854 2.6525984,12.320911 2.6567449,12.32773 L 4.5942449,12.98398 L 1.6879949,16.89023 C 1.4055218,17.302098 1.381395,17.874904 1.6879949,18.29648 C 1.9945955,18.718057 2.5400201,18.879621 3.0317449,18.73398 C 3.0421593,18.734286 3.0525805,18.734286 3.0629949,18.73398 L 7.1254949,17.26523 L 7.2192449,18.95273 C 7.2253137,19.457861 7.5505813,19.864083 8.0004949,20.04648 C 8.4504072,20.228877 8.9534639,20.095533 9.2817449,19.76523 L 11.062995,18.10898 L 11.844245,19.32773 C 12.121727,19.775275 12.631465,20.021549 13.156745,19.89023 C 13.682025,19.758909 14.0299,19.273321 14.062995,18.76523 L 14.125495,18.14023 L 17.719245,20.35898 C 17.729659,20.359286 17.740081,20.359286 17.750495,20.35898 C 18.197947,20.600784 18.775438,20.527366 19.156745,20.17148 C 19.53805,19.815594 19.65424,19.27237 19.437995,18.79648 C 19.428015,18.785635 19.41759,18.77521 19.406745,18.76523 L 17.656745,15.39023 L 18.312995,15.39023 C 18.807526,15.386025 19.265698,15.076646 19.437995,14.60898 C 19.610291,14.141316 19.478848,13.598818 19.094245,13.26523 L 18.219245,12.45273 L 20.000495,11.32773 C 20.395859,11.080176 20.622835,10.638223 20.562995,10.17148 C 20.503157,9.7047361 20.171678,9.3136181 19.719245,9.1714801 L 18.031745,8.6089801 L 20.437995,3.2652301 C 20.654239,2.7893415 20.538051,2.2461164 20.156745,1.8902301 C 19.775438,1.5343448 19.197946,1.4609266 18.750495,1.7027301 L 14.281745,4.0777301 L 14.062995,3.3277301 C 13.932306,2.8830503 13.563848,2.5647292 13.125495,2.4839801 C 12.687143,2.4032311 12.21309,2.5909989 11.937995,2.9527301 L 11.187995,3.9527301 L 8.7192449,1.7339801 C 8.493871,1.5185226 8.2185378,1.4208895 7.9067449,1.4214801 C 7.8963305,1.4211743 7.8859093,1.4211743 7.8754949,1.4214801 z"
     id="path3196"
     style="opacity:0.6;fill:none;fill-opacity:1;fill-rule:nonzero;stroke:#43423e;stroke-width:0.99999994;stroke-linecap:round;stroke-linejoin:miter;marker:none;marker-start:none;marker-mid:none;marker-end:none;stroke-miterlimit:4;stroke-dasharray:none;stroke-dashoffset:0;stroke-opacity:1;visibility:visible;display:inline;overflow:visible;enable-background:accumulate" />
</svg>
