<?xml version="1.0" encoding="UTF-8" standalone="no"?>
<!-- Created with Inkscape (http://www.inkscape.org/) -->

<svg
   xmlns:svg="http://www.w3.org/2000/svg"
   xmlns="http://www.w3.org/2000/svg"
   version="1.1"
   width="22"
   height="22"
   id="svg2882">
  <defs
     id="defs2884" />
  <g
     transform="translate(0,6)"
     id="layer1">
    <path
       d="m 11.013158,-4.4993404 c -5.2341485,0 -9.4861826,4.25203431 -9.4861826,9.4861825 0,5.2341489 4.2520341,9.4861819 9.4861826,9.4861819 5.738771,0 9.486188,-3.663303 9.486182,-9.4861819 -5e-6,-5.23414819 -4.252037,-9.4861825 -9.486182,-9.4861825 z"
       id="path3698"
       style="opacity:0.6;fill:none;stroke:#43423e;stroke-width:1;stroke-miterlimit:4;stroke-opacity:1;stroke-dasharray:none" />
    <path
       d="m 11.375,5 c 0.958999,0.00441 1.975485,-0.00144 2.84375,0.4375 1.086337,0.5138064 1.66388,1.72068 1.75,2.875 C 16.04823,9.5443337 15.98466,10.765959 16,12 c 0.05054,0.194009 -0.24514,1.970646 0,2 0.740957,0.09501 0.995615,0.290521 1,1 0.0044,0.709479 -0.114432,0.900148 -0.84375,1 -0.640249,0.08554 -1.29328,0.023 -1.9375,0 C 13.74294,15.97246 13.332771,15.362801 13.1875,14.90625 13,16 9.5325105,16.35129 7.71875,15.6875 6.5255246,15.282686 6,13.854039 6,12.90625 6,12 6.0088786,11.297972 7,10 7.9911214,8.7020284 11,9 13,9 13.313179,8.7385336 13.28155,7.6822708 11.983021,7.614 10.684493,7.5457292 9.9606983,7.4053299 9.121,8.064 7.6940908,9.1832858 6.6485142,8.9194398 6.40625,7.71875 6.1310625,6.9637456 7.1975302,6.1399143 7.85,5.75 9.0834385,5.249488 9.965732,5.02135 11.375,5 z m -0.125,6.1 c -0.895441,-0.02526 -1.125307,0.35818 -1.609,0.631 -0.4997273,0.231959 -0.7798181,0.608947 -0.2,0.813 0.569377,0.395134 3.111751,0.734236 3.621,-0.332 l 0,-0.612 C 12.826959,11.328285 12.145441,11.125261 11.25,11.1 z"
       transform="translate(0,-6)"
       id="path3767"
       style="opacity:0.3;fill:none;stroke:#ffffff;stroke-opacity:1" />
    <path
       d="m 11,2 c -4.9658897,0 -9,4.0341105 -9,9 0,4.96589 4.0341103,9 9,9 5.80693,0 9.000006,-3.529484 9,-9 -5e-6,-4.9658895 -4.034113,-9 -9,-9 z m 0.375,3 c 0.958999,0.00441 1.975485,-0.00144 2.84375,0.4375 1.086337,0.5138064 1.66388,1.72068 1.75,2.875 C 16.04823,9.5443337 15.98466,10.765959 16,12 c 0.05054,0.194009 -0.24514,1.970646 0,2 0.740957,0.09501 0.995615,0.290521 1,1 0.0044,0.709479 -0.114432,0.900148 -0.84375,1 -0.640249,0.08554 -1.29328,0.023 -1.9375,0 C 13.74294,15.97246 13.332771,15.362801 13.1875,14.90625 13,16 9.5325105,16.35129 7.71875,15.6875 6.5255246,15.282686 6,13.854039 6,12.90625 6,12 6.0088786,11.297972 7,10 7.9911214,8.7020284 11,9 13,9 13.313179,8.7385336 13.28155,7.6822708 11.983021,7.614 10.684493,7.5457292 9.9606983,7.4053299 9.121,8.064 7.6940908,9.1832858 6.6485142,8.9194398 6.40625,7.71875 6.1310625,6.9637456 7.1975302,6.1399143 7.85,5.75 9.0834385,5.249488 9.965732,5.02135 11.375,5 z m -0.125,6.2 c -0.895441,-0.02526 -1.125307,0.15818 -1.609,0.431 -0.4997273,0.231959 -0.8798181,0.708947 -0.3,0.913 0.569377,0.395134 3.211751,0.734236 3.721,-0.332 l 0,-0.612 C 12.826959,11.328285 12.145441,11.225261 11.25,11.2 z"
       transform="translate(0,-6)"
       id="path2555-4"
       style="fill:#dfd8c8;fill-opacity:1;stroke:none" />
  </g>
</svg>
