<?xml version="1.0" encoding="UTF-8" standalone="no"?>
<!-- Created with Inkscape (http://www.inkscape.org/) -->
<svg
   xmlns:svg="http://www.w3.org/2000/svg"
   xmlns="http://www.w3.org/2000/svg"
   version="1.0"
   width="22"
   height="22"
   id="svg2822">
  <defs
     id="defs2824" />
  <path
     d="M 9.40625,2.0318129 C 8.9069251,2.0778228 8.5263747,2.4991464 8.53125,3.0005629 L 8.53125,4.5630629 C 8.4170294,4.6091943 8.2972175,4.6366682 8.1875,4.6880629 L 7.09375,3.5943129 C 6.9125856,3.4097833 6.6648456,3.3130629 6.40625,3.3130629 C 6.1476544,3.3130631 5.8999144,3.4097833 5.71875,3.5943129 L 3.59375,5.7193129 C 3.4092204,5.9004773 3.3125,6.1482173 3.3125,6.4068129 C 3.3125002,6.6654085 3.4092204,6.9131485 3.59375,7.0943129 L 4.6875,8.1880629 C 4.6361053,8.2977804 4.6086314,8.4175923 4.5625,8.5318129 L 3,8.5318129 C 2.7426387,8.5303924 2.4944847,8.6310782 2.3125,8.8130629 C 2.1305153,8.9950478 2.0298295,9.2432019 2.03125,9.5005629 L 2.03125,12.500563 C 2.0298295,12.757924 2.1305153,13.006078 2.3125,13.188063 C 2.4944847,13.370047 2.7426387,13.470733 3,13.469313 L 4.5625,13.469313 C 4.6086314,13.583534 4.6361053,13.703345 4.6875,13.813063 L 3.59375,14.906813 C 3.4092204,15.087977 3.3125,15.335717 3.3125,15.594313 C 3.3125002,15.852909 3.4092204,16.100649 3.59375,16.281813 L 5.71875,18.406813 C 5.8999144,18.591343 6.1476544,18.688063 6.40625,18.688063 C 6.6648456,18.688063 6.9125856,18.591343 7.09375,18.406813 L 8.1875,17.313063 C 8.2972176,17.364458 8.4170293,17.391932 8.53125,17.438063 L 8.53125,19.000563 C 8.5298295,19.257924 8.6305153,19.506078 8.8125,19.688063 C 8.9944849,19.870048 9.242639,19.970733 9.5,19.969313 L 12.5,19.969313 C 12.757361,19.970733 13.005515,19.870048 13.1875,19.688063 C 13.369484,19.506079 13.47017,19.257924 13.46875,19.000563 L 13.46875,17.438063 C 13.582971,17.391932 13.702782,17.364458 13.8125,17.313063 L 14.90625,18.406813 C 15.087414,18.591343 15.335154,18.688063 15.59375,18.688063 C 15.852346,18.688063 16.100086,18.591343 16.28125,18.406813 L 18.40625,16.281813 C 18.59078,16.100649 18.6875,15.852909 18.6875,15.594313 C 18.6875,15.335717 18.59078,15.087977 18.40625,14.906813 L 17.3125,13.813063 C 17.363895,13.703345 17.391369,13.583534 17.4375,13.469313 L 19,13.469313 C 19.257361,13.470733 19.505515,13.370048 19.6875,13.188063 C 19.869485,13.006078 19.97017,12.757924 19.96875,12.500563 L 19.96875,9.5005629 C 19.97017,9.2432019 19.869485,8.9950476 19.6875,8.8130629 C 19.505516,8.6310784 19.257361,8.5303924 19,8.5318129 L 17.4375,8.5318129 C 17.391369,8.4175922 17.363895,8.2977805 17.3125,8.1880629 L 18.40625,7.0943129 C 18.59078,6.9131485 18.6875,6.6654085 18.6875,6.4068129 C 18.6875,6.1482173 18.59078,5.9004773 18.40625,5.7193129 L 16.28125,3.5943129 C 16.100086,3.4097833 15.852346,3.3130629 15.59375,3.3130629 C 15.335154,3.3130631 15.087414,3.4097833 14.90625,3.5943129 L 13.8125,4.6880629 C 13.702782,4.6366682 13.582971,4.6091943 13.46875,4.5630629 L 13.46875,3.0005629 C 13.47017,2.7432016 13.369485,2.4950476 13.1875,2.3130629 C 13.005515,2.1310782 12.757361,2.0303924 12.5,2.0318129 L 9.5,2.0318129 C 9.468769,2.0302916 9.437481,2.0302916 9.40625,2.0318129 z M 11,9.0005629 C 12.104,9.0005629 13,9.8965629 13,11.000563 C 13,12.104563 12.104,13.000563 11,13.000563 C 9.896,13.000563 9,12.104563 9,11.000563 C 9,9.8965629 9.896,9.0005629 11,9.0005629 z"
     id="path3200"
     style="opacity:0.6;fill:#3a3935;fill-opacity:1;fill-rule:evenodd;stroke:none;stroke-width:1;stroke-linecap:butt;stroke-linejoin:miter;marker:none;marker-start:none;marker-mid:none;marker-end:none;stroke-miterlimit:4;stroke-dasharray:none;stroke-dashoffset:0;stroke-opacity:1;visibility:visible;display:inline;overflow:visible;enable-background:accumulate" />
  <path
     d="M 9.5,3 L 9.5,5.1875 C 8.9460968,5.3297005 8.4488356,5.5593783 7.96875,5.84375 L 6.40625,4.28125 L 4.28125,6.40625 L 5.84375,7.96875 C 5.5593783,8.4488356 5.3297005,8.9460968 5.1875,9.5 L 3,9.5 L 3,12.5 L 5.1875,12.5 C 5.3297005,13.053903 5.5593783,13.551164 5.84375,14.03125 L 4.28125,15.59375 L 6.40625,17.71875 L 7.96875,16.15625 C 8.4488356,16.440622 8.9460968,16.6703 9.5,16.8125 L 9.5,19 L 12.5,19 L 12.5,16.8125 C 13.053903,16.6703 13.551164,16.440622 14.03125,16.15625 L 15.59375,17.71875 L 17.71875,15.59375 L 16.15625,14.03125 C 16.440622,13.551164 16.6703,13.053903 16.8125,12.5 L 19,12.5 L 19,9.5 L 16.8125,9.5 C 16.6703,8.9460968 16.440622,8.4488356 16.15625,7.96875 L 17.71875,6.40625 L 15.59375,4.28125 L 14.03125,5.84375 C 13.551164,5.5593783 13.053903,5.3297005 12.5,5.1875 L 12.5,3 L 9.5,3 z M 11,9 C 12.104,8.9999999 13,9.896 13,11 C 13,12.104 12.104,13 11,13 C 9.896,13 9,12.104 9,11 C 8.9999999,9.896 9.896,9 11,9 z"
     id="path3276"
     style="opacity:1;fill:#eae3d0;fill-opacity:1;fill-rule:evenodd;stroke:none;stroke-width:1.69999993;stroke-linecap:round;stroke-linejoin:miter;marker:none;marker-start:none;marker-mid:none;marker-end:none;stroke-miterlimit:4;stroke-dasharray:none;stroke-dashoffset:0;stroke-opacity:1;visibility:visible;display:inline;overflow:visible;enable-background:accumulate" />
</svg>
