<?xml version="1.0" encoding="UTF-8" standalone="no"?>
<!-- Created with Inkscape (http://www.inkscape.org/) -->

<svg
   xmlns:dc="http://purl.org/dc/elements/1.1/"
   xmlns:cc="http://creativecommons.org/ns#"
   xmlns:rdf="http://www.w3.org/1999/02/22-rdf-syntax-ns#"
   xmlns:svg="http://www.w3.org/2000/svg"
   xmlns="http://www.w3.org/2000/svg"
   xmlns:sodipodi="http://sodipodi.sourceforge.net/DTD/sodipodi-0.dtd"
   xmlns:inkscape="http://www.inkscape.org/namespaces/inkscape"
   version="1.1"
   width="22"
   height="22"
   id="svg2864"
   inkscape:version="0.48.0 r9654"
   sodipodi:docname="start-here.svg">
  <metadata
     id="metadata13">
    <rdf:RDF>
      <cc:Work
         rdf:about="">
        <dc:format>image/svg+xml</dc:format>
        <dc:type
           rdf:resource="http://purl.org/dc/dcmitype/StillImage" />
        <dc:title></dc:title>
      </cc:Work>
    </rdf:RDF>
  </metadata>
  <sodipodi:namedview
     pagecolor="#353535"
     bordercolor="#666666"
     borderopacity="1"
     objecttolerance="10"
     gridtolerance="10"
     guidetolerance="10"
     inkscape:pageopacity="0"
     inkscape:pageshadow="2"
     inkscape:window-width="1280"
     inkscape:window-height="753"
     id="namedview11"
     showgrid="false"
     inkscape:zoom="15.409091"
     inkscape:cx="4.9970503"
     inkscape:cy="11.681416"
     inkscape:window-x="0"
     inkscape:window-y="24"
     inkscape:window-maximized="1"
     inkscape:current-layer="svg2864" />
  <defs
     id="defs2866" />
  <path
     inkscape:connector-curvature="0"
     style="opacity:0.3;fill:#000000;fill-opacity:1;overflow:visible"
     d="m 16.25,2.9999999 a 1.5,1.5 0 0 0 -1.25,1.5 1.5,1.5 0 0 0 3,0 1.5,1.5 0 0 0 -1.75,-1.5 z m -4.71875,1.6875 c -0.647272,0.00192 -1.289003,0.1489142 -2.0312498,0.5 l 1.2812498,2.5625 c 2.442659,-0.6898815 4.575162,0.8776318 5.40625,3.4062501 l 2.96875,0 C 18.870948,9.6790344 18.260122,8.1737024 17.21875,7.0624999 16.49184,7.4336833 15.599418,7.4631726 14.84375,7.0312499 14.088859,6.5995312 13.66398,5.8078703 13.625,4.9999999 12.823341,4.8143455 12.178522,4.6855802 11.53125,4.6874999 z m -3.5312498,1.125 c -1.2650463,0.8773707 -2.5073687,2.565019 -2.84375,4.15625 0.9333831,0.4852381 1.4035142,1.2358601 1.4375,2.5000001 0.031912,1.187012 -0.6892833,1.95843 -1.34375,2.4375 0.5796715,1.123288 1.8416473,2.735172 2.9375,3.25 l 1.21875,-2.9375 c -1.7116138,-1.314777 -2.3391059,-4.176768 0,-6.5312501 l -1.40625,-2.875 z m -4.59375,5.1562501 a 1.5000001,1.5000001 0 0 0 -0.5625,2.84375 1.5023582,1.5023582 0 1 0 1.34375,-2.6875 1.5000001,1.5000001 0 0 0 -0.78125,-0.15625 z M 16.1875,12.875 c -0.679613,2.472108 -2.577481,4.02367 -5.25,3.28125 L 9.7500002,18.9375 c 1.4222538,0.464487 2.2418888,0.516067 3.8124998,0.09375 0.04528,-0.809699 0.489905,-1.561344 1.25,-2 0.760259,-0.43875 1.651109,-0.459561 2.375,-0.09375 0.928813,-1.194605 1.73241,-2.538531 1.96875,-4.0625 l -2.96875,0 z M 16.40625,18 A 1.5,1.5 0 0 0 15,19.5 a 1.5,1.5 0 0 0 3,0 1.5,1.5 0 0 0 -1.59375,-1.5 z"
     id="path19-3" />
  <path
     style="fill:#dfdbd2;fill-opacity:1;overflow:visible"
     d="M 16.25 2 A 1.5 1.5 0 0 0 15 3.5 A 1.5 1.5 0 0 0 18 3.5 A 1.5 1.5 0 0 0 16.25 2 z M 11.53125 3.6875 C 10.883978 3.6894197 10.242247 3.8364142 9.5 4.1875 L 10.78125 6.75 C 13.223909 6.0601185 15.356412 7.6276318 16.1875 10.15625 L 19.15625 10.15625 C 18.870948 8.6790345 18.260122 7.1737025 17.21875 6.0625 C 16.49184 6.4336834 15.599418 6.4631727 14.84375 6.03125 C 14.088859 5.5995313 13.66398 4.8078704 13.625 4 C 12.823341 3.8143456 12.178522 3.6855803 11.53125 3.6875 z M 8 4.8125 C 6.7349537 5.6898707 5.4926313 7.377519 5.15625 8.96875 C 6.0896331 9.4539877 6.5597642 10.20461 6.59375 11.46875 C 6.6256623 12.655762 5.9044667 13.42718 5.25 13.90625 C 5.8296715 15.029538 7.0916473 16.641422 8.1875 17.15625 L 9.40625 14.21875 C 7.6946362 12.903973 7.0671441 10.041982 9.40625 7.6875 L 8 4.8125 z M 3.40625 9.96875 A 1.5000001 1.5000001 0 0 0 2.84375 12.8125 A 1.5000001 1.5000001 0 1 0 4.1875 10.125 A 1.5000001 1.5000001 0 0 0 3.40625 9.96875 z M 16.1875 11.875 C 15.507887 14.347108 13.610019 15.89867 10.9375 15.15625 L 9.75 17.9375 C 11.172254 18.401987 11.991889 18.453567 13.5625 18.03125 C 13.607777 17.221551 14.052405 16.469906 14.8125 16.03125 C 15.572759 15.5925 16.463609 15.571689 17.1875 15.9375 C 18.116313 14.742895 18.91991 13.398969 19.15625 11.875 L 16.1875 11.875 z M 16.40625 17 A 1.5 1.5 0 0 0 15 18.5 A 1.5 1.5 0 0 0 18 18.5 A 1.5 1.5 0 0 0 16.40625 17 z "
     id="path19" />
</svg>
