<?xml version="1.0" encoding="UTF-8" standalone="no"?>
<!-- Created with Inkscape (http://www.inkscape.org/) -->

<svg
   xmlns:svg="http://www.w3.org/2000/svg"
   xmlns="http://www.w3.org/2000/svg"
   version="1.0"
   width="22"
   height="22"
   id="svg2">
  <defs
     id="defs4" />
  <g
     transform="translate(-1.879e-4,-0.999982)"
     id="g2829">
    <path
       d="m 9.2221879,10.249982 0.028,-1.25 0.072,3.769565 -1.026,1.267661 2.7040001,0.792774 2.617,-0.83 -0.867,-1.230435 0,-3.659565 0,1.14 3.107,0 1.534,7.5 -12.6820001,0 1.487,-7.5 3.026,0 z"
       id="path3628"
       style="opacity:0.3;fill:none;stroke:#ffffff;stroke-width:0.5;stroke-linecap:square;stroke-linejoin:round;stroke-miterlimit:4;stroke-opacity:1;stroke-dasharray:none;stroke-dashoffset:0;marker:none;visibility:visible;display:inline;overflow:visible;enable-background:accumulate" />
    <path
       d="m 12.500188,8.491982 0,-1.992 2.21,0 c 2.237696,0.1703975 2.531287,-3.1703977 0,-3 l -7.4200001,0 c -2.2964147,-0.2878342 -2.4138511,3.1703975 0,3 l 2.21,0 0,1.992 -3.925,0 c -0.7441016,-0.077435 -0.866028,1.4673053 -1,2 l -2,8.108 c -0.042669,0.601907 -0.032088,2.065777 1,1.9 l 14.9323321,0 c 0.818109,-0.03125 1.140358,-0.382564 0.999668,-1.9 l -2,-8.108 c -0.180075,-0.6396287 -0.50646,-1.9866379 -0.999668,-2 l -4.007332,0 z"
       id="path3603"
       style="opacity:0.6;fill:none;stroke:#43423e;stroke-width:1;stroke-linecap:square;stroke-linejoin:round;stroke-miterlimit:4;stroke-opacity:1;stroke-dasharray:none;stroke-dashoffset:0;marker:none;visibility:visible;display:inline;overflow:visible;enable-background:accumulate" />
    <path
       d="m 9.0001879,10.999982 0,2 -0.9083431,1.030254 2.9083432,0.969746 3,-1 -1,-1 0,-2 2,0 1.4,6 -10.8000001,0 1.2,-6 2.2,0 z"
       id="path3629"
       style="fill:#dfd8c8;fill-opacity:1;stroke:none;stroke-width:1;marker:none;visibility:visible;display:inline;overflow:visible;enable-background:accumulate" />
    <path
       d="m 13.500188,9.491982 3.007332,0 2,9.008 -14.9323321,0 2,-9.008 2.925,0"
       id="rect3170"
       style="fill:none;stroke:#dfd8c8;stroke-width:1;stroke-linecap:square;stroke-linejoin:round;stroke-miterlimit:4;stroke-opacity:1;stroke-dasharray:none;stroke-dashoffset:0;marker:none;visibility:visible;display:inline;overflow:visible;enable-background:accumulate" />
    <path
       d="m 11,4.999982 0,8.5"
       id="path3172"
       style="opacity:0.4;fill:none;stroke:#969696;stroke-width:1;stroke-linecap:butt;stroke-linejoin:miter;stroke-miterlimit:4;stroke-opacity:1;stroke-dasharray:none" />
    <path
       d="m 12.81837,5.9465548 1.818182,0 c 1.759463,0.00354 1.700745,-2.0088316 0,-1.9465728 l -7.2727277,0 c -1.8181819,0.113896 -1.7177357,1.8825635 0,1.9465728 l 1.818182,0"
       id="path3176"
       style="fill:#dfd8c8;fill-opacity:1;stroke:none" />
    <path
       d="m 10.000188,4.999982 0,9 2,0 0,-9"
       id="path3600"
       style="fill:#dfd8c8;fill-opacity:1;stroke:none" />
    <path
       d="m 13.500188,9.491982 3.007332,0 2,10.008 -14.9323321,0 2,-10.008 2.925,0"
       id="path3631"
       style="fill:none;stroke:#dfd8c8;stroke-width:1;stroke-linecap:square;stroke-linejoin:round;stroke-miterlimit:4;stroke-opacity:1;stroke-dasharray:none;stroke-dashoffset:0;marker:none;visibility:visible;display:inline;overflow:visible;enable-background:accumulate" />
  </g>
</svg>
