<?xml version="1.0" encoding="UTF-8" standalone="no"?>
<!-- Created with Inkscape (http://www.inkscape.org/) -->
<svg
   xmlns:svg="http://www.w3.org/2000/svg"
   xmlns="http://www.w3.org/2000/svg"
   version="1.0"
   width="22"
   height="22"
   id="svg3378">
  <defs
     id="defs3380" />
  <g
     id="layer1">
    <path
       d="M 5,3 C 3.3524873,3 2,4.3524873 2,6 L 2,19 C 2,20.647513 3.3524873,22 5,22 L 19,22 C 20.647513,22 22,20.647513 22,19 L 22,6 C 22,4.3524873 20.647513,3 19,3 L 5,3 z M 11,10.25 L 11,11 C 11.002917,11.551072 11.448928,11.997083 12,12 L 19,12 L 19,14.9375 L 12,14.9375 C 11.448928,14.940417 11.002917,15.386428 11,15.9375 L 11,16.6875 L 7.4375,13.46875 L 11,10.25 z"
       transform="translate(-1,-1)"
       id="path3374"
       style="opacity:0.6;fill:#eae3d0;fill-opacity:1;fill-rule:evenodd;stroke:none;stroke-width:1.69999993;stroke-linecap:round;stroke-linejoin:miter;marker:none;marker-start:none;marker-mid:none;marker-end:none;stroke-miterlimit:4;stroke-dasharray:none;stroke-dashoffset:0;stroke-opacity:1;visibility:visible;display:inline;overflow:visible;enable-background:accumulate" />
    <path
       d="M 4,3 C 2.892,3 2,3.892 2,5 L 2,18 C 2,19.108 2.892,20 4,20 L 18,20 C 19.108,20 20,19.108 20,18 L 20,5 C 20,3.892 19.108,3 18,3 L 4,3 z M 3.5,4 L 18.5,4 C 18.777,4 19,4.223 19,4.5 C 19,4.777 18.777,5 18.5,5 L 3.5,5 C 3.223,5 3,4.777 3,4.5 C 3,4.223 3.223,4 3.5,4 z M 11,6.96875 L 11,10 L 19,10 L 19,14.9375 L 11,14.9375 L 11,17.96875 L 4.90625,12.46875 L 11,6.96875 z"
       id="rect2396"
       style="opacity:1;fill:#3a3935;fill-opacity:1;fill-rule:evenodd;stroke:none;stroke-width:1.69999993;stroke-linecap:round;stroke-linejoin:miter;marker:none;marker-start:none;marker-mid:none;marker-end:none;stroke-miterlimit:4;stroke-dasharray:none;stroke-dashoffset:0;stroke-opacity:1;visibility:visible;display:inline;overflow:visible;enable-background:accumulate" />
  </g>
</svg>
