<?xml version="1.0" encoding="UTF-8" standalone="no"?>
<!-- Created with Inkscape (http://www.inkscape.org/) -->

<svg
   xmlns:dc="http://purl.org/dc/elements/1.1/"
   xmlns:cc="http://creativecommons.org/ns#"
   xmlns:rdf="http://www.w3.org/1999/02/22-rdf-syntax-ns#"
   xmlns:svg="http://www.w3.org/2000/svg"
   xmlns="http://www.w3.org/2000/svg"
   xmlns:sodipodi="http://sodipodi.sourceforge.net/DTD/sodipodi-0.dtd"
   xmlns:inkscape="http://www.inkscape.org/namespaces/inkscape"
   width="90"
   height="90"
   id="svg4874"
   version="1.1"
   inkscape:version="0.48+devel r12833"
   viewBox="0 0 90 90.000001"
   sodipodi:docname="browser-tabs.svg">
  <defs
     id="defs4876" />
  <sodipodi:namedview
     id="base"
     pagecolor="#ffffff"
     bordercolor="#666666"
     borderopacity="1.0"
     inkscape:pageopacity="0.0"
     inkscape:pageshadow="2"
     inkscape:zoom="6.366463"
     inkscape:cx="40.462027"
     inkscape:cy="43.462125"
     inkscape:document-units="px"
     inkscape:current-layer="g1311"
     showgrid="true"
     showborder="true"
     fit-margin-top="0"
     fit-margin-left="0"
     fit-margin-right="0"
     fit-margin-bottom="0"
     inkscape:snap-bbox="true"
     inkscape:bbox-paths="true"
     inkscape:bbox-nodes="true"
     inkscape:snap-bbox-edge-midpoints="true"
     inkscape:snap-bbox-midpoints="true"
     inkscape:object-paths="true"
     inkscape:snap-intersection-paths="true"
     inkscape:object-nodes="true"
     inkscape:snap-smooth-nodes="true"
     inkscape:snap-midpoints="true"
     inkscape:snap-object-midpoints="true"
     inkscape:snap-center="true"
     showguides="true"
     inkscape:guide-bbox="true">
    <inkscape:grid
       type="xygrid"
       id="grid5451"
       empspacing="6" />
    <sodipodi:guide
       orientation="1,0"
       position="6,77"
       id="guide4063" />
    <sodipodi:guide
       orientation="1,0"
       position="3,78"
       id="guide4065" />
    <sodipodi:guide
       orientation="0,1"
       position="55,84"
       id="guide4067" />
    <sodipodi:guide
       orientation="0,1"
       position="53,87"
       id="guide4069" />
    <sodipodi:guide
       orientation="0,1"
       position="20,3"
       id="guide4071" />
    <sodipodi:guide
       orientation="0,1"
       position="20,6"
       id="guide4073" />
    <sodipodi:guide
       orientation="1,0"
       position="87,7"
       id="guide4075" />
    <sodipodi:guide
       orientation="1,0"
       position="84,7"
       id="guide4077" />
    <sodipodi:guide
       orientation="0,1"
       position="58,81"
       id="guide4074" />
    <sodipodi:guide
       orientation="1,0"
       position="9,74"
       id="guide4076" />
    <sodipodi:guide
       orientation="0,1"
       position="21,9"
       id="guide4078" />
    <sodipodi:guide
       orientation="1,0"
       position="81,4"
       id="guide4080" />
  </sodipodi:namedview>
  <metadata
     id="metadata4879">
    <rdf:RDF>
      <cc:Work
         rdf:about="">
        <dc:format>image/svg+xml</dc:format>
        <dc:type
           rdf:resource="http://purl.org/dc/dcmitype/StillImage" />
        <dc:title></dc:title>
      </cc:Work>
    </rdf:RDF>
  </metadata>
  <g
     inkscape:label="Layer 1"
     inkscape:groupmode="layer"
     id="layer1"
     transform="translate(67.857146,-84.50504)">
    <g
       transform="matrix(0,-1,-1,0,373.50506,516.50504)"
       id="g4845"
       style="display:inline">
      <g
         transform="matrix(0,-1,-1,0,567.36222,615.36221)"
         id="g1311"
         inkscape:export-filename="envelope02.png"
         inkscape:export-xdpi="90"
         inkscape:export-ydpi="90">
        <g
           id="g1313"
           transform="matrix(1.875,0,0,1.875,-366,-1657.8169)">
          <rect
             transform="translate(0,804.3622)"
             y="152"
             x="288"
             height="48"
             width="48"
             id="rect1315"
             style="opacity:0.21171169;fill:none;stroke:none" />
        </g>
        <path
           style="font-size:15px;font-style:normal;font-variant:normal;font-weight:normal;font-stretch:normal;text-align:center;line-height:125%;letter-spacing:0px;word-spacing:0px;writing-mode:lr-tb;text-anchor:middle;fill:#808080;fill-opacity:1;stroke:none;display:inline;font-family:Ubuntu;-inkscape-font-specification:Ubuntu"
           d="m 207,150.36222 c -10,0 -15,-2e-4 -15,11.62695 l 0,48.7461 c 0,11.62716 5,11.62695 15,11.62695 l 36,0 c 10,0 15,2.1e-4 15,-11.62695 l 0,-48.7461 c 0,-11.62715 -5,-11.62695 -15,-11.62695 z m 1.86719,6 32.26562,0 c 7.9327,0 10.86719,-6.4e-4 10.86719,8.19141 l 0,43.61718 c 0,8.19205 -2.93449,8.19141 -10.86719,8.19141 l -32.26562,0 c -7.9327,0 -10.86719,6.4e-4 -10.86719,-8.19141 l 0,-43.61718 c 0,-8.19205 2.93449,-8.19141 10.86719,-8.19141 z"
           id="path4098"
           inkscape:connector-curvature="0"
           sodipodi:nodetypes="ssssssssssssssssss" />
        <path
           style="font-size:15px;font-style:normal;font-variant:normal;font-weight:normal;font-stretch:normal;text-align:center;line-height:125%;letter-spacing:0px;word-spacing:0px;writing-mode:lr-tb;text-anchor:middle;fill:#808080;fill-opacity:1;stroke:none;display:inline;font-family:Ubuntu;-inkscape-font-specification:Ubuntu"
           d="M 21 3 C 11 3 6 2.9998033 6 14.626953 L 6 63.373047 C 6 70.717563 8.0065582 73.417331 12 74.412109 L 12 60.808594 L 12 48 L 12 17.191406 C 12 8.9993563 14.934488 9 22.867188 9 L 36 9 L 55.132812 9 L 71.392578 9 C 69.799996 3.0231522 65.008311 3 57 3 L 21 3 z "
           transform="translate(174,135.36222)"
           id="path4097" />
      </g>
    </g>
  </g>
</svg>
