<?xml version="1.0" encoding="UTF-8" standalone="no"?>
<!-- Created with Inkscape (http://www.inkscape.org/) -->

<svg
   xmlns:dc="http://purl.org/dc/elements/1.1/"
   xmlns:cc="http://creativecommons.org/ns#"
   xmlns:rdf="http://www.w3.org/1999/02/22-rdf-syntax-ns#"
   xmlns:svg="http://www.w3.org/2000/svg"
   xmlns="http://www.w3.org/2000/svg"
   xmlns:sodipodi="http://sodipodi.sourceforge.net/DTD/sodipodi-0.dtd"
   xmlns:inkscape="http://www.inkscape.org/namespaces/inkscape"
   width="90"
   height="90"
   id="svg4874"
   version="1.1"
   inkscape:version="0.48+devel r12833"
   viewBox="0 0 90 90.000001"
   sodipodi:docname="calendar.svg">
  <defs
     id="defs4876" />
  <sodipodi:namedview
     id="base"
     pagecolor="#ffffff"
     bordercolor="#666666"
     borderopacity="1.0"
     inkscape:pageopacity="0.0"
     inkscape:pageshadow="2"
     inkscape:zoom="12.434498"
     inkscape:cx="28.738595"
     inkscape:cy="41.795013"
     inkscape:document-units="px"
     inkscape:current-layer="g1311"
     showgrid="true"
     showborder="true"
     fit-margin-top="0"
     fit-margin-left="0"
     fit-margin-right="0"
     fit-margin-bottom="0"
     inkscape:snap-bbox="true"
     inkscape:bbox-paths="true"
     inkscape:bbox-nodes="true"
     inkscape:snap-bbox-edge-midpoints="true"
     inkscape:snap-bbox-midpoints="true"
     inkscape:object-paths="true"
     inkscape:snap-intersection-paths="true"
     inkscape:object-nodes="true"
     inkscape:snap-smooth-nodes="true"
     inkscape:snap-midpoints="true"
     inkscape:snap-object-midpoints="true"
     inkscape:snap-center="true"
     showguides="true"
     inkscape:guide-bbox="true">
    <inkscape:grid
       type="xygrid"
       id="grid5451"
       empspacing="6" />
    <sodipodi:guide
       orientation="1,0"
       position="6,77"
       id="guide4063" />
    <sodipodi:guide
       orientation="1,0"
       position="3,78"
       id="guide4065" />
    <sodipodi:guide
       orientation="0,1"
       position="55,84"
       id="guide4067" />
    <sodipodi:guide
       orientation="0,1"
       position="53,87"
       id="guide4069" />
    <sodipodi:guide
       orientation="0,1"
       position="20,3"
       id="guide4071" />
    <sodipodi:guide
       orientation="0,1"
       position="20,6"
       id="guide4073" />
    <sodipodi:guide
       orientation="1,0"
       position="87,7"
       id="guide4075" />
    <sodipodi:guide
       orientation="1,0"
       position="84,7"
       id="guide4077" />
    <sodipodi:guide
       orientation="0,1"
       position="58,81"
       id="guide4074" />
    <sodipodi:guide
       orientation="1,0"
       position="9,74"
       id="guide4076" />
    <sodipodi:guide
       orientation="0,1"
       position="21,9"
       id="guide4078" />
    <sodipodi:guide
       orientation="1,0"
       position="81,4"
       id="guide4080" />
  </sodipodi:namedview>
  <metadata
     id="metadata4879">
    <rdf:RDF>
      <cc:Work
         rdf:about="">
        <dc:format>image/svg+xml</dc:format>
        <dc:type
           rdf:resource="http://purl.org/dc/dcmitype/StillImage" />
        <dc:title></dc:title>
      </cc:Work>
    </rdf:RDF>
  </metadata>
  <g
     inkscape:label="Layer 1"
     inkscape:groupmode="layer"
     id="layer1"
     transform="translate(67.857146,-84.50504)">
    <g
       transform="matrix(0,-1,-1,0,373.50506,516.50504)"
       id="g4845"
       style="display:inline">
      <g
         transform="matrix(0,-1,-1,0,567.36222,615.36221)"
         id="g1311"
         inkscape:export-filename="envelope02.png"
         inkscape:export-xdpi="90"
         inkscape:export-ydpi="90">
        <g
           id="g1313"
           transform="matrix(1.875,0,0,1.875,-366,-1657.8169)">
          <rect
             transform="translate(0,804.3622)"
             y="152"
             x="288"
             height="48"
             width="48"
             id="rect1315"
             style="opacity:0.21171169;fill:none;stroke:none" />
        </g>
        <path
           style="font-size:15px;font-style:normal;font-variant:normal;font-weight:normal;font-stretch:normal;text-align:center;line-height:125%;letter-spacing:0px;word-spacing:0px;writing-mode:lr-tb;text-anchor:middle;fill:#808080;fill-opacity:1;stroke:none;display:inline;font-family:Ubuntu;-inkscape-font-specification:Ubuntu"
           d="M 21 6 C 11 6 6 5.9998036 6 17.626953 L 6 72.373047 C 6 84.000207 11 84 21 84 L 69 84 C 79 84 84 84.000207 84 72.373047 L 84 17.626953 C 84 5.9998036 79 6 69 6 L 69 21 L 57 21 L 57 6 L 33 6 L 33 21 L 21 21 L 21 6 z M 22.867188 27 L 67.132812 27 C 75.065512 27 78 26.999356 78 35.191406 L 78 69.808594 C 78 78.000644 75.065512 78 67.132812 78 L 22.867188 78 C 14.934488 78 12 78.000644 12 69.808594 L 12 35.191406 C 12 26.999356 14.934488 27 22.867188 27 z "
           transform="translate(174,135.36222)"
           id="path4098" />
        <path
           style="color:#000000;fill:#808080;fill-opacity:1;fill-rule:nonzero;stroke:none;stroke-width:10;marker:none;visibility:visible;display:inline;overflow:visible;enable-background:accumulate"
           d="m 198,136.76222 6,-1.40001 0,18 -6,0 z"
           id="rect4097"
           inkscape:connector-curvature="0"
           sodipodi:nodetypes="ccccc" />
        <path
           sodipodi:nodetypes="ccccc"
           inkscape:connector-curvature="0"
           id="path4100"
           d="m 234,136.76222 6,-1.40001 0,18 -6,0 z"
           style="color:#000000;fill:#808080;fill-opacity:1;fill-rule:nonzero;stroke:none;stroke-width:10;marker:none;visibility:visible;display:inline;overflow:visible;enable-background:accumulate" />
        <path
           style="font-size:35.34537888px;font-style:normal;font-variant:normal;font-weight:500;font-stretch:normal;text-align:center;line-height:125%;letter-spacing:0px;word-spacing:0px;writing-mode:lr-tb;text-anchor:middle;fill:#808080;fill-opacity:1;stroke:none;font-family:Ubuntu;-inkscape-font-specification:Ubuntu Medium"
           d="m 206.17063,171.36222 0,0.011 c -1.97904,0 -3.85036,0.38218 -5.59576,1.14684 -1.70114,0.72925 -3.20193,1.70887 -4.48534,2.93129 l -0.38792,0.36852 3.36765,4.76897 0.52126,-0.52122 c 0.17341,-0.17348 0.46683,-0.42617 0.86556,-0.73948 l 0.0101,-0.0143 0.0101,-0.0132 c 0.37881,-0.32453 0.81792,-0.64036 1.3165,-0.94541 0.51314,-0.2967 1.10166,-0.55885 1.76747,-0.78085 0.63332,-0.211 1.32517,-0.3177 2.08508,-0.3177 1.15191,0 2.07318,0.28404 2.83666,0.84388 0.68947,0.50559 1.06194,1.34529 1.06194,2.7469 0,0.61593 -0.12688,1.21306 -0.38792,1.8136 -0.26962,0.59129 -0.63546,1.1905 -1.10557,1.79896 l -0.002,0 c -0.44823,0.58833 -0.98542,1.19634 -1.61231,1.82317 -0.64018,0.64036 -1.31087,1.29392 -2.00992,1.96398 l -0.002,0 c -0.90924,0.87995 -1.81843,1.77476 -2.72756,2.68387 -0.93036,0.93045 -1.77008,1.92294 -2.52149,2.97495 l -0.002,0 c -0.76062,1.06521 -1.38606,2.2225 -1.87171,3.46691 l -0.002,0 c -0.46743,1.24651 -0.69825,2.60929 -0.69825,4.07801 l 0,0.79041 c 0,0.34058 0.0173,0.64289 0.051,0.91164 l 0.0678,0.54311 20.51618,0 0,-5.71702 -13.20629,0 c 0.0784,-0.1594 0.0627,-0.23256 0.19881,-0.43156 l 0.004,-0.0132 0.002,0 c 0.36302,-0.55851 0.80046,-1.13727 1.31166,-1.73362 0.51623,-0.60229 1.06221,-1.20536 1.63655,-1.80876 l 0.0101,-0.0121 c 0.5789,-0.6078 1.09739,-1.12835 1.55411,-1.55662 l 0.002,0 0.004,0 c 0.88007,-0.85058 1.76033,-1.71667 2.64028,-2.59664 l 0.002,0 0.004,0 c 0.89578,-0.9256 1.68934,-1.87003 2.38086,-2.83183 l 0.002,0 c 0.72455,-0.99667 1.317,-2.01238 1.77474,-3.04998 l 0.002,0 c 0.46911,-1.09469 0.70796,-2.22107 0.70796,-3.36031 0,-2.78101 -0.83151,-5.06599 -2.50937,-6.71359 -1.67579,-1.70358 -4.24705,-2.50686 -7.5887,-2.50686 z m 18.29049,0.69822 0,0.0121 -0.0266,0.59162 c -0.11678,2.53999 -0.26365,5.08008 -0.43882,7.62027 -0.1748,2.50522 -0.4235,5.1573 -0.74433,7.95712 l -0.0775,0.69097 0.69584,0 c 2.40536,0 4.37985,0.13322 5.90852,0.38788 l 0.002,0 c 1.56263,0.25577 2.77041,0.63916 3.61252,1.11285 l 0.002,0 0.004,0 c 0.88506,0.48293 1.44826,1.03936 1.7602,1.66333 0.33328,0.66643 0.50428,1.4268 0.50428,2.3105 0,0.5649 -0.10064,1.09338 -0.30306,1.60271 -0.19206,0.45609 -0.50271,0.87083 -0.96494,1.25585 l -0.008,0 -0.008,0 c -0.41371,0.36512 -0.99051,0.676 -1.7408,0.91901 -0.74482,0.21188 -1.66603,0.32728 -2.7615,0.32728 -1.62737,0 -2.99282,-0.15897 -4.09016,-0.46072 -1.11314,-0.34322 -1.96843,-0.65817 -2.53119,-0.92616 l -0.70068,-0.33453 -1.28741,5.70712 0.43398,0.21837 c 0.35173,0.17579 0.81273,0.34267 1.41592,0.52363 0.60774,0.1824 1.28487,0.34532 2.03174,0.4946 0.77291,0.178 1.5739,0.32772 2.40267,0.4462 0.84668,0.12035 1.67927,0.17942 2.49968,0.17942 2.00919,0 3.78505,-0.23497 5.32422,-0.72737 l 0.004,0 0.004,0 c 1.52497,-0.5187 2.81569,-1.22979 3.85254,-2.1411 1.0342,-0.90866 1.81197,-2.00467 2.31542,-3.26328 0.49913,-1.24793 0.74674,-2.60137 0.74674,-4.04643 0,-3.15416 -1.12458,-5.74244 -3.33612,-7.58145 -2.07738,-1.77861 -5.23668,-2.71918 -9.2786,-3.02589 0.0359,-0.2946 0.071,-0.55938 0.10671,-0.91636 0.0588,-0.58789 0.10364,-1.2047 0.13334,-1.84748 l 0.002,-0.0275 c 0.0571,-0.63243 0.0992,-1.25134 0.12851,-1.85705 l 0.002,-0.0297 c 0.0379,-0.41814 0.0592,-0.7618 0.0848,-1.12021 l 11.06061,0 0,-5.7168 -16.74608,0 z"
           id="path4097"
           inkscape:connector-curvature="0" />
      </g>
    </g>
  </g>
</svg>
