<?xml version="1.0" encoding="UTF-8" standalone="no"?>
<!-- Created with Inkscape (http://www.inkscape.org/) -->

<svg
   xmlns:dc="http://purl.org/dc/elements/1.1/"
   xmlns:cc="http://creativecommons.org/ns#"
   xmlns:rdf="http://www.w3.org/1999/02/22-rdf-syntax-ns#"
   xmlns:svg="http://www.w3.org/2000/svg"
   xmlns="http://www.w3.org/2000/svg"
   xmlns:sodipodi="http://sodipodi.sourceforge.net/DTD/sodipodi-0.dtd"
   xmlns:inkscape="http://www.inkscape.org/namespaces/inkscape"
   width="90"
   height="90"
   id="svg4874"
   version="1.1"
   inkscape:version="0.48+devel r"
   viewBox="0 0 90 90.000001"
   sodipodi:docname="camera-flip-front03.svg">
  <defs
     id="defs4876" />
  <sodipodi:namedview
     id="base"
     pagecolor="#ffffff"
     bordercolor="#666666"
     borderopacity="1.0"
     inkscape:pageopacity="0.0"
     inkscape:pageshadow="2"
     inkscape:zoom="6.3664629"
     inkscape:cx="71.507523"
     inkscape:cy="54.292314"
     inkscape:document-units="px"
     inkscape:current-layer="g1708"
     showgrid="true"
     showborder="true"
     fit-margin-top="0"
     fit-margin-left="0"
     fit-margin-right="0"
     fit-margin-bottom="0"
     inkscape:snap-bbox="true"
     inkscape:bbox-paths="true"
     inkscape:bbox-nodes="true"
     inkscape:snap-bbox-edge-midpoints="true"
     inkscape:snap-bbox-midpoints="true"
     inkscape:object-paths="true"
     inkscape:snap-intersection-paths="true"
     inkscape:object-nodes="true"
     inkscape:snap-smooth-nodes="true"
     inkscape:snap-midpoints="true"
     inkscape:snap-object-midpoints="true"
     inkscape:snap-center="true"
     showguides="true"
     inkscape:guide-bbox="true">
    <inkscape:grid
       type="xygrid"
       id="grid5451"
       empspacing="6" />
    <sodipodi:guide
       orientation="1,0"
       position="6,77"
       id="guide4063" />
    <sodipodi:guide
       orientation="1,0"
       position="3,78"
       id="guide4065" />
    <sodipodi:guide
       orientation="0,1"
       position="55,84"
       id="guide4067" />
    <sodipodi:guide
       orientation="0,1"
       position="53,87"
       id="guide4069" />
    <sodipodi:guide
       orientation="0,1"
       position="20,3"
       id="guide4071" />
    <sodipodi:guide
       orientation="0,1"
       position="20,6"
       id="guide4073" />
    <sodipodi:guide
       orientation="1,0"
       position="87,7"
       id="guide4075" />
    <sodipodi:guide
       orientation="1,0"
       position="84,7"
       id="guide4077" />
    <sodipodi:guide
       orientation="0,1"
       position="58,81"
       id="guide4074" />
    <sodipodi:guide
       orientation="1,0"
       position="9,74"
       id="guide4076" />
    <sodipodi:guide
       orientation="0,1"
       position="21,9"
       id="guide4078" />
    <sodipodi:guide
       orientation="1,0"
       position="81,4"
       id="guide4080" />
  </sodipodi:namedview>
  <metadata
     id="metadata4879">
    <rdf:RDF>
      <cc:Work
         rdf:about="">
        <dc:format>image/svg+xml</dc:format>
        <dc:type
           rdf:resource="http://purl.org/dc/dcmitype/StillImage" />
        <dc:title></dc:title>
      </cc:Work>
    </rdf:RDF>
  </metadata>
  <g
     inkscape:label="Layer 1"
     inkscape:groupmode="layer"
     id="layer1"
     transform="translate(67.857146,-84.50504)">
    <g
       transform="matrix(0,-1,-1,0,373.50506,516.50504)"
       id="g4845"
       style="display:inline">
      <g
         inkscape:label="Layer 1"
         id="g1708"
         transform="matrix(0,-1,-1,0,1394.3622,441.36221)"
         inkscape:export-filename="add01.png"
         inkscape:export-xdpi="90"
         inkscape:export-ydpi="90">
        <rect
           style="color:#000000;fill:none;stroke:none;stroke-width:7.5;marker:none;visibility:visible;display:inline;overflow:visible;enable-background:accumulate"
           id="rect1710"
           width="90"
           height="90"
           x="0"
           y="962.36218" />
        <path
           sodipodi:nodetypes="ccsssccc"
           inkscape:transform-center-y="-0.0011929999"
           inkscape:transform-center-x="8.998729"
           inkscape:connector-curvature="0"
           id="path2194-83"
           d="m 53.993822,1049.3773 c 0,0 -9.606787,-4.087 -18.008217,-9.9752 0,0 0,-0.01 0.0033,-0.01 0,0 0.0033,-0.01 0.0039,-0.01 0,0 0.0033,-0.01 0.0039,-0.01 0,0 0.0033,-0.01 0.0033,-0.01 8.862451,-6.0761 17.996342,-9.9382 17.996342,-9.9382 z"
           style="color:#000000;display:inline;overflow:visible;visibility:visible;fill:#808080;fill-opacity:1;fill-rule:nonzero;stroke:none;stroke-width:3;marker:none;enable-background:accumulate" />
        <path
           style="color:#000000;display:inline;overflow:visible;visibility:visible;opacity:1;fill:none;fill-opacity:1;fill-rule:nonzero;stroke:#808080;stroke-width:6;stroke-linecap:butt;stroke-linejoin:miter;stroke-miterlimit:4;stroke-dasharray:none;stroke-dashoffset:0;stroke-opacity:1;marker:none;enable-background:accumulate"
           id="path4136"
           sodipodi:type="arc"
           sodipodi:cx="45.000748"
           sodipodi:cy="1031.3633"
           sodipodi:rx="35.999256"
           sodipodi:ry="8.9986591"
           sodipodi:start="2.0943951"
           sodipodi:end="1.5707963"
           d="m 27.00112,1039.1563 a 35.999256,8.9986591 0 0 1 -15.259348,-11.2367 35.999256,8.9986591 0 0 1 42.576268,-5.2484 35.999256,8.9986591 0 0 1 26.373985,9.8666 35.999256,8.9986591 0 0 1 -35.691276,7.8241"
           sodipodi:open="true" />
        <path
           style="font-style:normal;font-variant:normal;font-weight:normal;font-stretch:normal;font-size:15px;line-height:125%;font-family:Ubuntu;-inkscape-font-specification:Ubuntu;text-align:center;letter-spacing:0px;word-spacing:0px;writing-mode:lr-tb;text-anchor:middle;display:inline;fill:#808080;fill-opacity:1;stroke:none"
           d="m 25.714847,968.3622 c -7.142858,0 -10.714844,-4.2e-4 -10.714844,8.30469 l 0,28.39061 c 0,8.305 3.571986,8.3047 10.714844,8.3047 l 38.570312,0 c 7.142857,0 10.714844,3e-4 10.714844,-8.3047 l 0,-28.39061 c 0,-8.30511 -3.571987,-8.30469 -10.714844,-8.30469 l -38.570312,0 z m 19.285156,6 a 16.500028,16.500028 0 0 1 16.5,16.5 16.500028,16.500028 0 0 1 -16.5,16.5 16.500028,16.500028 0 0 1 -16.5,-16.5 16.500028,16.500028 0 0 1 16.5,-16.5 z"
           id="path4146"
           inkscape:connector-curvature="0" />
        <path
           style="font-style:normal;font-variant:normal;font-weight:normal;font-stretch:normal;font-size:15px;line-height:125%;font-family:Ubuntu;-inkscape-font-specification:Ubuntu;text-align:center;letter-spacing:0px;word-spacing:0px;writing-mode:lr-tb;text-anchor:middle;display:inline;fill:#808080;fill-opacity:1;stroke:none"
           d="m 45.000003,980.3622 a 10.500018,10.500018 0 0 0 -10.5,10.5 10.500018,10.500018 0 0 0 10.5,10.5 10.500018,10.500018 0 0 0 10.5,-10.5 10.500018,10.500018 0 0 0 -1.505859,-5.39648 3.9999986,3.9999986 0 0 1 -3.994141,3.89648 3.9999986,3.9999986 0 0 1 -4,-4 3.9999986,3.9999986 0 0 1 3.515625,-3.96484 10.500018,10.500018 0 0 0 -4.515625,-1.03516 z"
           id="path4148"
           inkscape:connector-curvature="0" />
        <rect
           style="color:#000000;display:inline;overflow:visible;visibility:visible;opacity:1;fill:#808080;fill-opacity:1;fill-rule:nonzero;stroke:none;stroke-width:6;stroke-linecap:butt;stroke-linejoin:miter;stroke-miterlimit:4;stroke-dasharray:none;stroke-dashoffset:0;stroke-opacity:1;marker:none;enable-background:accumulate"
           id="rect4150"
           width="12"
           height="6"
           x="24.000004"
           y="965.36218" />
      </g>
    </g>
  </g>
</svg>
