<?xml version="1.0" encoding="UTF-8" standalone="no"?>
<!-- Created with Inkscape (http://www.inkscape.org/) -->

<svg
   xmlns:dc="http://purl.org/dc/elements/1.1/"
   xmlns:cc="http://creativecommons.org/ns#"
   xmlns:rdf="http://www.w3.org/1999/02/22-rdf-syntax-ns#"
   xmlns:svg="http://www.w3.org/2000/svg"
   xmlns="http://www.w3.org/2000/svg"
   xmlns:sodipodi="http://sodipodi.sourceforge.net/DTD/sodipodi-0.dtd"
   xmlns:inkscape="http://www.inkscape.org/namespaces/inkscape"
   width="90"
   height="90"
   id="svg4874"
   version="1.1"
   inkscape:version="0.48+devel r12833"
   viewBox="0 0 90 90.000001"
   sodipodi:docname="camera-flip.svg">
  <defs
     id="defs4876" />
  <sodipodi:namedview
     id="base"
     pagecolor="#ffffff"
     bordercolor="#666666"
     borderopacity="1.0"
     inkscape:pageopacity="0.0"
     inkscape:pageshadow="2"
     inkscape:zoom="7.9580786"
     inkscape:cx="56.847892"
     inkscape:cy="64.676416"
     inkscape:document-units="px"
     inkscape:current-layer="g1708"
     showgrid="true"
     showborder="true"
     fit-margin-top="0"
     fit-margin-left="0"
     fit-margin-right="0"
     fit-margin-bottom="0"
     inkscape:snap-bbox="true"
     inkscape:bbox-paths="true"
     inkscape:bbox-nodes="true"
     inkscape:snap-bbox-edge-midpoints="true"
     inkscape:snap-bbox-midpoints="true"
     inkscape:object-paths="true"
     inkscape:snap-intersection-paths="true"
     inkscape:object-nodes="true"
     inkscape:snap-smooth-nodes="true"
     inkscape:snap-midpoints="true"
     inkscape:snap-object-midpoints="true"
     inkscape:snap-center="true"
     showguides="true"
     inkscape:guide-bbox="true">
    <inkscape:grid
       type="xygrid"
       id="grid5451"
       empspacing="6" />
    <sodipodi:guide
       orientation="1,0"
       position="6,77"
       id="guide4063" />
    <sodipodi:guide
       orientation="1,0"
       position="3,78"
       id="guide4065" />
    <sodipodi:guide
       orientation="0,1"
       position="55,84"
       id="guide4067" />
    <sodipodi:guide
       orientation="0,1"
       position="53,87"
       id="guide4069" />
    <sodipodi:guide
       orientation="0,1"
       position="20,3"
       id="guide4071" />
    <sodipodi:guide
       orientation="0,1"
       position="20,6"
       id="guide4073" />
    <sodipodi:guide
       orientation="1,0"
       position="87,7"
       id="guide4075" />
    <sodipodi:guide
       orientation="1,0"
       position="84,7"
       id="guide4077" />
    <sodipodi:guide
       orientation="0,1"
       position="58,81"
       id="guide4074" />
    <sodipodi:guide
       orientation="1,0"
       position="9,74"
       id="guide4076" />
    <sodipodi:guide
       orientation="0,1"
       position="21,9"
       id="guide4078" />
    <sodipodi:guide
       orientation="1,0"
       position="81,4"
       id="guide4080" />
  </sodipodi:namedview>
  <metadata
     id="metadata4879">
    <rdf:RDF>
      <cc:Work
         rdf:about="">
        <dc:format>image/svg+xml</dc:format>
        <dc:type
           rdf:resource="http://purl.org/dc/dcmitype/StillImage" />
        <dc:title></dc:title>
      </cc:Work>
    </rdf:RDF>
  </metadata>
  <g
     inkscape:label="Layer 1"
     inkscape:groupmode="layer"
     id="layer1"
     transform="translate(67.857146,-84.50504)">
    <g
       transform="matrix(0,-1,-1,0,373.50506,516.50504)"
       id="g4845"
       style="display:inline">
      <g
         inkscape:label="Layer 1"
         id="g1708"
         transform="matrix(0,-1,-1,0,1394.3622,441.36221)"
         inkscape:export-filename="add01.png"
         inkscape:export-xdpi="90"
         inkscape:export-ydpi="90">
        <rect
           style="color:#000000;fill:none;stroke:none;stroke-width:7.5;marker:none;visibility:visible;display:inline;overflow:visible;enable-background:accumulate"
           id="rect1710"
           width="90"
           height="90"
           x="0"
           y="962.36218" />
        <path
           inkscape:connector-curvature="0"
           style="font-style:normal;font-variant:normal;font-weight:normal;font-stretch:normal;text-indent:0;text-align:start;text-decoration:none;line-height:normal;letter-spacing:normal;word-spacing:normal;text-transform:none;direction:ltr;block-progression:tb;writing-mode:lr-tb;text-anchor:start;baseline-shift:baseline;color:#000000;color-interpolation:sRGB;color-interpolation-filters:linearRGB;fill:#808080;fill-opacity:1;stroke:none;stroke-width:6;marker:none;visibility:visible;display:inline;overflow:visible;enable-background:accumulate;clip-rule:nonzero;font-family:sans-serif;-inkscape-font-specification:sans-serif"
           clip-path="none"
           d="m 36.000004,995.51845 c -11.286111,0.51028 -21.650085,2.02322 -28.4062504,4.53125 l -0.09375,0.031 c -3.1321755,1.1691 -5.4271472,2.3173 -6.78125009,4.6562 -0.68444784,1.1822 -0.91344079,2.8389 -0.46875001,4.1875 0.4446908,1.3486 1.3265225,2.3363 2.3125,3.125 3.9439102,3.1546 10.7936195,4.8231 21.0625005,6.0938 l 0.75,-5.9688 c -9.744855,-1.2058 -16.3205152,-3.4808 -18.0000004,-4.7812 0.4598247,-0.3616 1.3576427,-1.0047 3.28125,-1.7188 5.5287244,-2.0524 15.3896184,-3.4941 26.3437504,-4.0312 l 0,-6.12505 z m 18,0.0312 0,6.06255 c 3.998726,0.179 7.924799,0.4796 11.625,0.9375 9.744855,1.2057 16.320515,3.4809 18,4.7813 -0.459824,0.3617 -1.357643,1.0045 -3.28125,1.7187 -6.747887,2.505 -20.56963,4.3125 -35.34375,4.3125 l 0,6 c 15.231326,0 29.151413,-1.6231 37.40625,-4.6875 3.185257,-1.1824 5.506105,-2.323 6.875,-4.6875 0.684448,-1.1822 0.913442,-2.8388 0.46875,-4.1875 -0.444691,-1.3487 -1.326523,-2.3364 -2.3125,-3.125 -3.943911,-3.15471 -10.793618,-4.82312 -21.0625,-6.0938 l -0.375,-0.0312 c -3.869426,-0.46892 -7.90827,-0.79655 -12,-1 z"
           id="path3834" />
        <path
           style="color:#000000;fill:#808080;fill-opacity:1;fill-rule:nonzero;stroke:none;stroke-width:6;marker:none;visibility:visible;display:inline;overflow:visible;enable-background:accumulate"
           d="m 42.000004,963.8622 0,41.7813 c 2.119688,-1.2462 4.19894,-2.4269 6,-3.3438 l 0,-39.9375 z m 0,63.2188 0,10.2812 6,0 0,-6.9375 c -1.80106,-0.9169 -3.880312,-2.0976 -6,-3.3437 z m 0,16.2812 0,9 6,0 0,-9 z"
           id="rect3056"
           inkscape:connector-curvature="0"
           sodipodi:nodetypes="ccccccccccccccc" />
        <path
           sodipodi:nodetypes="ccsssccc"
           inkscape:transform-center-y="0.0019070001"
           inkscape:transform-center-x="10.499375"
           inkscape:connector-curvature="0"
           id="path2194-83"
           d="m 54.994508,1028.0408 c 0,0 -11.208833,-4.7685 -21.011302,-11.6387 0,0 0,-0.01 0.0038,-0.01 0,0 0.0038,-0.01 0.0046,-0.01 0,0 0.0038,-0.01 0.0046,-0.01 0,0 0.0038,-0.01 0.0038,-0.01 10.340371,-7.0893 20.997448,-11.5955 20.997448,-11.5955 z"
           style="color:#000000;fill:#808080;fill-opacity:1;fill-rule:nonzero;stroke:none;stroke-width:3;marker:none;visibility:visible;display:inline;overflow:visible;enable-background:accumulate" />
      </g>
    </g>
  </g>
</svg>
