<?xml version="1.0" encoding="UTF-8" standalone="no"?>
<!-- Created with Inkscape (http://www.inkscape.org/) -->

<svg
   xmlns:dc="http://purl.org/dc/elements/1.1/"
   xmlns:cc="http://creativecommons.org/ns#"
   xmlns:rdf="http://www.w3.org/1999/02/22-rdf-syntax-ns#"
   xmlns:svg="http://www.w3.org/2000/svg"
   xmlns="http://www.w3.org/2000/svg"
   xmlns:sodipodi="http://sodipodi.sourceforge.net/DTD/sodipodi-0.dtd"
   xmlns:inkscape="http://www.inkscape.org/namespaces/inkscape"
   width="90"
   height="90"
   id="svg4874"
   version="1.1"
   inkscape:version="0.48+devel r12923"
   viewBox="0 0 90 90.000001"
   sodipodi:docname="contact.2.svg">
  <defs
     id="defs4876" />
  <sodipodi:namedview
     id="base"
     pagecolor="#ffffff"
     bordercolor="#666666"
     borderopacity="1.0"
     inkscape:pageopacity="0.0"
     inkscape:pageshadow="2"
     inkscape:zoom="1.335144"
     inkscape:cx="-41.194068"
     inkscape:cy="66.465363"
     inkscape:document-units="px"
     inkscape:current-layer="g4780"
     showgrid="true"
     showborder="true"
     fit-margin-top="0"
     fit-margin-left="0"
     fit-margin-right="0"
     fit-margin-bottom="0"
     inkscape:snap-bbox="true"
     inkscape:bbox-paths="true"
     inkscape:bbox-nodes="true"
     inkscape:snap-bbox-edge-midpoints="true"
     inkscape:snap-bbox-midpoints="true"
     inkscape:object-paths="true"
     inkscape:snap-intersection-paths="true"
     inkscape:object-nodes="true"
     inkscape:snap-smooth-nodes="true"
     inkscape:snap-midpoints="true"
     inkscape:snap-object-midpoints="true"
     inkscape:snap-center="true"
     showguides="false"
     inkscape:guide-bbox="true"
     inkscape:snap-global="true">
    <inkscape:grid
       type="xygrid"
       id="grid5451"
       empspacing="6" />
    <sodipodi:guide
       orientation="1,0"
       position="6,77"
       id="guide4063" />
    <sodipodi:guide
       orientation="1,0"
       position="3,78"
       id="guide4065" />
    <sodipodi:guide
       orientation="0,1"
       position="55,84"
       id="guide4067" />
    <sodipodi:guide
       orientation="0,1"
       position="53,87"
       id="guide4069" />
    <sodipodi:guide
       orientation="0,1"
       position="20,3"
       id="guide4071" />
    <sodipodi:guide
       orientation="0,1"
       position="20,6"
       id="guide4073" />
    <sodipodi:guide
       orientation="1,0"
       position="87,7"
       id="guide4075" />
    <sodipodi:guide
       orientation="1,0"
       position="84,7"
       id="guide4077" />
    <sodipodi:guide
       orientation="0,1"
       position="58,81"
       id="guide4074" />
    <sodipodi:guide
       orientation="1,0"
       position="9,74"
       id="guide4076" />
    <sodipodi:guide
       orientation="0,1"
       position="21,9"
       id="guide4078" />
    <sodipodi:guide
       orientation="1,0"
       position="81,4"
       id="guide4080" />
  </sodipodi:namedview>
  <metadata
     id="metadata4879">
    <rdf:RDF>
      <cc:Work
         rdf:about="">
        <dc:format>image/svg+xml</dc:format>
        <dc:type
           rdf:resource="http://purl.org/dc/dcmitype/StillImage" />
        <dc:title></dc:title>
      </cc:Work>
    </rdf:RDF>
  </metadata>
  <g
     inkscape:label="Layer 1"
     inkscape:groupmode="layer"
     id="layer1"
     transform="translate(67.857146,-84.50504)">
    <g
       transform="matrix(0,-1,-1,0,373.50506,516.50504)"
       id="g4845"
       style="display:inline">
      <g
         inkscape:export-ydpi="90"
         inkscape:export-xdpi="90"
         inkscape:export-filename="next01.png"
         transform="matrix(-0.9996045,0,0,1,575.94296,-611.00001)"
         id="g4778"
         inkscape:label="Layer 1">
        <g
           transform="matrix(-1,0,0,1,575.99999,611)"
           id="g4780"
           style="display:inline">
          <rect
             transform="scale(-1,1)"
             y="351.36221"
             x="-432"
             height="90"
             width="90"
             id="rect4120"
             style="color:#000000;fill:none;stroke:none;stroke-width:4;marker:none;visibility:visible;display:inline;overflow:visible;enable-background:accumulate" />
          <path
             sodipodi:nodetypes="ccccccccccccccccc"
             inkscape:connector-curvature="0"
             id="path4122"
             d="m 377.8517,375.36808 c -3.99884,2.76724 -7.46417,5.77913 -10.426,8.65039 l 0,-0.01 c -5.19478,5.25797 -11.39708,12.32812 -11.39708,12.32812 0,0 6.09255,7.49367 11.38927,12.37305 l 0,-0.01 c 2.95791,2.86769 6.41787,5.87765 10.41036,8.64258 -0.0472,0.12346 -0.0867,0.24994 -0.13482,0.37305 -2.52581,6.66123 -5.88451,12.54322 -10.07625,17.64655 l -19.65035,0 0,-27.60938 0,-0.0352 0,-22.71093 0,-27.64453 19.65035,0 c 4.19174,5.1033 7.55044,10.957 10.07625,17.56445 0.0564,0.14572 0.10308,0.29523 0.15827,0.44141 z"
             style="font-size:15.00296783px;font-style:normal;font-variant:normal;font-weight:normal;font-stretch:normal;text-align:center;line-height:125%;letter-spacing:0px;word-spacing:0px;writing-mode:lr-tb;text-anchor:middle;fill:#808080;fill-opacity:1;stroke:none;font-family:Ubuntu;-inkscape-font-specification:Ubuntu" />
          <path
             style="font-size:121.62958527px;font-style:normal;font-variant:normal;font-weight:normal;font-stretch:normal;text-align:center;line-height:125%;letter-spacing:0px;word-spacing:0px;writing-mode:lr-tb;text-anchor:middle;fill:#808080;fill-opacity:1;stroke:none;font-family:Ubuntu;-inkscape-font-specification:Ubuntu"
             d="m 425.96643,396.36417 c -5.4e-4,6.17426 -2.60609,12.14435 -7.20351,16.50977 -4.59812,4.3661 -10.88465,6.83789 -17.38533,6.83789 l -0.0197,0 c -2.50283,-0.01 -5.38308,-0.23467 -8.30462,-1.41406 -7.61654,-3.0747 -13.53106,-7.68463 -18.10234,-11.89453 l 0,0.008 c -1.32856,-1.16258 -2.67769,-2.48772 -3.97503,-3.8086 l 0,-12.32226 c 1.30835,-1.33748 2.66563,-2.70418 3.98291,-3.9707 l 0,0.01 c 4.57022,-4.20858 10.4807,-8.81704 18.09446,-11.89062 2.92123,-1.17927 5.80108,-1.40483 8.30462,-1.41407 l 0.0197,0 c 6.50181,0 12.78778,2.47428 17.38533,6.83985 4.59684,4.36489 7.20297,10.33355 7.20351,16.50781 l 0,0.002 z"
             id="path4124" />
        </g>
      </g>
    </g>
  </g>
</svg>
