<?xml version="1.0" encoding="UTF-8" standalone="no"?>
<!-- Created with Inkscape (http://www.inkscape.org/) -->

<svg
   xmlns:dc="http://purl.org/dc/elements/1.1/"
   xmlns:cc="http://creativecommons.org/ns#"
   xmlns:rdf="http://www.w3.org/1999/02/22-rdf-syntax-ns#"
   xmlns:svg="http://www.w3.org/2000/svg"
   xmlns="http://www.w3.org/2000/svg"
   xmlns:sodipodi="http://sodipodi.sourceforge.net/DTD/sodipodi-0.dtd"
   xmlns:inkscape="http://www.inkscape.org/namespaces/inkscape"
   width="90"
   height="90"
   id="svg4874"
   version="1.1"
   inkscape:version="0.48+devel r12852"
   viewBox="0 0 90 90.000001"
   sodipodi:docname="new-contact.svg">
  <defs
     id="defs4876" />
  <sodipodi:namedview
     id="base"
     pagecolor="#ffffff"
     bordercolor="#666666"
     borderopacity="1.0"
     inkscape:pageopacity="0.0"
     inkscape:pageshadow="2"
     inkscape:zoom="6.3664629"
     inkscape:cx="-35.137251"
     inkscape:cy="62.397285"
     inkscape:document-units="px"
     inkscape:current-layer="g1628"
     showgrid="true"
     showborder="true"
     fit-margin-top="0"
     fit-margin-left="0"
     fit-margin-right="0"
     fit-margin-bottom="0"
     inkscape:snap-bbox="true"
     inkscape:bbox-paths="true"
     inkscape:bbox-nodes="true"
     inkscape:snap-bbox-edge-midpoints="true"
     inkscape:snap-bbox-midpoints="true"
     inkscape:object-paths="true"
     inkscape:snap-intersection-paths="true"
     inkscape:object-nodes="true"
     inkscape:snap-smooth-nodes="true"
     inkscape:snap-midpoints="true"
     inkscape:snap-object-midpoints="true"
     inkscape:snap-center="true"
     showguides="true"
     inkscape:guide-bbox="true">
    <inkscape:grid
       type="xygrid"
       id="grid5451"
       empspacing="6" />
    <sodipodi:guide
       orientation="1,0"
       position="6,77"
       id="guide4063" />
    <sodipodi:guide
       orientation="1,0"
       position="3,78"
       id="guide4065" />
    <sodipodi:guide
       orientation="0,1"
       position="55,84"
       id="guide4067" />
    <sodipodi:guide
       orientation="0,1"
       position="53,87"
       id="guide4069" />
    <sodipodi:guide
       orientation="0,1"
       position="20,3"
       id="guide4071" />
    <sodipodi:guide
       orientation="0,1"
       position="20,6"
       id="guide4073" />
    <sodipodi:guide
       orientation="1,0"
       position="87,7"
       id="guide4075" />
    <sodipodi:guide
       orientation="1,0"
       position="84,7"
       id="guide4077" />
    <sodipodi:guide
       orientation="0,1"
       position="58,81"
       id="guide4074" />
    <sodipodi:guide
       orientation="1,0"
       position="9,74"
       id="guide4076" />
    <sodipodi:guide
       orientation="0,1"
       position="21,9"
       id="guide4078" />
    <sodipodi:guide
       orientation="1,0"
       position="81,4"
       id="guide4080" />
  </sodipodi:namedview>
  <metadata
     id="metadata4879">
    <rdf:RDF>
      <cc:Work
         rdf:about="">
        <dc:format>image/svg+xml</dc:format>
        <dc:type
           rdf:resource="http://purl.org/dc/dcmitype/StillImage" />
        <dc:title></dc:title>
      </cc:Work>
    </rdf:RDF>
  </metadata>
  <g
     inkscape:label="Layer 1"
     inkscape:groupmode="layer"
     id="layer1"
     transform="translate(67.857146,-84.50504)">
    <g
       transform="matrix(0,-1,-1,0,373.50506,516.50504)"
       id="g4845"
       style="display:inline">
      <g
         inkscape:export-ydpi="90"
         inkscape:export-xdpi="90"
         inkscape:export-filename="message03.png"
         id="g1628"
         transform="matrix(0,-1,-1,0,572.36222,615.36221)">
        <g
           transform="matrix(1.875,0,0,1.875,-366,-1652.8169)"
           id="g1630">
          <rect
             style="opacity:0.21171169;fill:none;stroke:none"
             id="rect1632"
             width="48"
             height="48"
             x="288"
             y="152"
             transform="translate(0,804.3622)" />
        </g>
        <path
           style="color:#000000;fill:#808080;fill-opacity:1;fill-rule:nonzero;stroke:none;stroke-width:7.5;marker:none;visibility:visible;display:inline;overflow:visible;enable-background:accumulate"
           d="m 240,189.86222 6,-1.50004 0,41.99997 -6,0 z"
           id="rect3470"
           inkscape:connector-curvature="0"
           sodipodi:nodetypes="ccccc" />
        <rect
           transform="matrix(0,1,-1,0,0,0)"
           style="color:#000000;fill:#808080;fill-opacity:1;fill-rule:nonzero;stroke:none;stroke-width:7.5;marker:none;visibility:visible;display:inline;overflow:visible;enable-background:accumulate"
           id="rect3472"
           width="5.9999876"
           height="42"
           x="206.36218"
           y="-264" />
        <path
           sodipodi:nodetypes="ccccccccccccccccc"
           inkscape:connector-curvature="0"
           id="path4122"
           d="m 220.83435,178.53522 c -2.02191,2.92064 -4.22257,5.4516 -6.32048,7.61482 l 0.008,0 c -3.84179,3.79412 -9.00765,8.3241 -9.00765,8.3241 0,0 -5.47531,-4.44981 -9.04047,-8.31839 l 0.008,0 c -2.0953,-2.16036 -4.29456,-4.68741 -6.31477,-7.60341 -0.0902,0.0345 -0.18262,0.0634 -0.27258,0.0985 -4.86709,1.84478 -9.16481,4.29787 -12.8936,7.35939 l 0,14.35202 20.17303,0 0.0257,0 16.59394,0 20.19872,0 0,-14.35202 c -3.72878,-3.06152 -8.00584,-5.51461 -12.83362,-7.35939 -0.10647,-0.0412 -0.21571,-0.0753 -0.32253,-0.11559 z"
           style="font-size:15.00296783px;font-style:normal;font-variant:normal;font-weight:normal;font-stretch:normal;text-align:center;line-height:125%;letter-spacing:0px;word-spacing:0px;writing-mode:lr-tb;text-anchor:middle;fill:#808080;fill-opacity:1;stroke:none;display:inline;font-family:Ubuntu;-inkscape-font-specification:Ubuntu" />
        <path
           style="font-size:121.62958527px;font-style:normal;font-variant:normal;font-weight:normal;font-stretch:normal;text-align:center;line-height:125%;letter-spacing:0px;word-spacing:0px;writing-mode:lr-tb;text-anchor:middle;fill:#808080;fill-opacity:1;stroke:none;display:inline;font-family:Ubuntu;-inkscape-font-specification:Ubuntu"
           d="m 205.49337,143.39366 c -4.51127,3.9e-4 -8.87336,1.90379 -12.063,5.26161 -3.19012,3.35832 -4.99616,7.95014 -4.99616,12.69804 l 0,0.0143 c 0.008,1.82799 0.17147,3.93123 1.03319,6.06504 2.24656,5.56288 5.61484,9.88306 8.69085,13.22178 l -0.007,0 c 0.84945,0.97034 1.81767,1.95511 2.78278,2.90266 l 9.00338,0 c 0.97723,-0.95558 1.97583,-1.94627 2.90122,-2.90837 l -0.008,0 c 3.07504,-3.33794 6.44225,-7.65521 8.68799,-13.21607 0.86165,-2.13358 1.02644,-4.23653 1.0332,-6.06504 l 0,-0.0143 c 0,-4.74872 -1.80785,-9.34013 -4.99759,-12.69804 -3.18923,-3.3574 -7.55029,-5.26122 -12.06156,-5.26161 l -9.5e-4,0 z"
           id="path4082" />
      </g>
    </g>
  </g>
</svg>
