<?xml version="1.0" encoding="UTF-8" standalone="no"?>
<!-- Created with Inkscape (http://www.inkscape.org/) -->

<svg
   xmlns:dc="http://purl.org/dc/elements/1.1/"
   xmlns:cc="http://creativecommons.org/ns#"
   xmlns:rdf="http://www.w3.org/1999/02/22-rdf-syntax-ns#"
   xmlns:svg="http://www.w3.org/2000/svg"
   xmlns="http://www.w3.org/2000/svg"
   xmlns:sodipodi="http://sodipodi.sourceforge.net/DTD/sodipodi-0.dtd"
   xmlns:inkscape="http://www.inkscape.org/namespaces/inkscape"
   width="90"
   height="90"
   id="svg4874"
   version="1.1"
   inkscape:version="0.48+devel r"
   viewBox="0 0 90 90.000001"
   sodipodi:docname="dialer.svg">
  <defs
     id="defs4876" />
  <sodipodi:namedview
     id="base"
     pagecolor="#ffffff"
     bordercolor="#666666"
     borderopacity="1.0"
     inkscape:pageopacity="0.0"
     inkscape:pageshadow="2"
     inkscape:zoom="7.9580786"
     inkscape:cx="29.284706"
     inkscape:cy="61.472125"
     inkscape:document-units="px"
     inkscape:current-layer="g4320"
     showgrid="true"
     showborder="true"
     fit-margin-top="0"
     fit-margin-left="0"
     fit-margin-right="0"
     fit-margin-bottom="0"
     inkscape:snap-bbox="true"
     inkscape:bbox-paths="true"
     inkscape:bbox-nodes="true"
     inkscape:snap-bbox-edge-midpoints="true"
     inkscape:snap-bbox-midpoints="true"
     inkscape:object-paths="true"
     inkscape:snap-intersection-paths="true"
     inkscape:object-nodes="true"
     inkscape:snap-smooth-nodes="true"
     inkscape:snap-midpoints="true"
     inkscape:snap-object-midpoints="true"
     inkscape:snap-center="true"
     showguides="true"
     inkscape:guide-bbox="true">
    <inkscape:grid
       type="xygrid"
       id="grid5451"
       empspacing="6" />
    <sodipodi:guide
       orientation="1,0"
       position="9,74"
       id="guide4063" />
    <sodipodi:guide
       orientation="1,0"
       position="6,71"
       id="guide4065" />
    <sodipodi:guide
       orientation="0,1"
       position="39,84"
       id="guide4067" />
    <sodipodi:guide
       orientation="0,1"
       position="39,87"
       id="guide4069" />
    <sodipodi:guide
       orientation="0,1"
       position="50,3"
       id="guide4071" />
    <sodipodi:guide
       orientation="0,1"
       position="52,6"
       id="guide4073" />
    <sodipodi:guide
       orientation="1,0"
       position="87,12"
       id="guide4075" />
    <sodipodi:guide
       orientation="1,0"
       position="84,12"
       id="guide4077" />
    <sodipodi:guide
       orientation="0,1"
       position="45,81"
       id="guide4072" />
    <sodipodi:guide
       orientation="1,0"
       position="3,68"
       id="guide4074" />
    <sodipodi:guide
       orientation="0,1"
       position="70,9"
       id="guide4076" />
    <sodipodi:guide
       orientation="1,0"
       position="81,5"
       id="guide4078" />
  </sodipodi:namedview>
  <metadata
     id="metadata4879">
    <rdf:RDF>
      <cc:Work
         rdf:about="">
        <dc:format>image/svg+xml</dc:format>
        <dc:type
           rdf:resource="http://purl.org/dc/dcmitype/StillImage" />
        <dc:title></dc:title>
      </cc:Work>
    </rdf:RDF>
  </metadata>
  <g
     inkscape:label="Layer 1"
     inkscape:groupmode="layer"
     id="layer1"
     transform="translate(67.857146,-84.50504)">
    <g
       transform="translate(-763.85715,94.142858)"
       id="g4320"
       inkscape:export-filename="phone03.png"
       inkscape:export-xdpi="90"
       inkscape:export-ydpi="90">
      <rect
         y="-9.6378174"
         x="696"
         height="90"
         width="90"
         id="rect4318"
         style="color:#000000;fill:none;stroke:none;stroke-width:6;marker:none;visibility:visible;display:inline;overflow:visible;enable-background:accumulate" />
      <circle
         r="5.0000005"
         cy="1.3621866"
         cx="707"
         style="color:#000000;fill:#808080;fill-opacity:1;fill-rule:nonzero;stroke:none;stroke-width:4;marker:none;visibility:visible;display:inline;overflow:visible;enable-background:accumulate"
         id="path4091"
         d="m 712,1.3621866 a 5.0000005,5.0000005 0 0 1 -5,5.0000004 5.0000005,5.0000005 0 0 1 -5,-5.0000004 5.0000005,5.0000005 0 0 1 5,-5.0000005 5.0000005,5.0000005 0 0 1 5,5.0000005 z" />
      <circle
         r="5.0000005"
         cy="1.3621866"
         cx="721"
         id="path4109"
         style="color:#000000;fill:#808080;fill-opacity:1;fill-rule:nonzero;stroke:none;stroke-width:4;marker:none;visibility:visible;display:inline;overflow:visible;enable-background:accumulate"
         d="m 726,1.3621866 a 5.0000005,5.0000005 0 0 1 -5,5.0000004 5.0000005,5.0000005 0 0 1 -5,-5.0000004 5.0000005,5.0000005 0 0 1 5,-5.0000005 5.0000005,5.0000005 0 0 1 5,5.0000005 z" />
      <circle
         r="5.0000005"
         cy="1.3621866"
         cx="735"
         style="color:#000000;fill:#808080;fill-opacity:1;fill-rule:nonzero;stroke:none;stroke-width:4;marker:none;visibility:visible;display:inline;overflow:visible;enable-background:accumulate"
         id="path4111"
         d="m 740,1.3621866 a 5.0000005,5.0000005 0 0 1 -5,5.0000004 5.0000005,5.0000005 0 0 1 -5,-5.0000004 5.0000005,5.0000005 0 0 1 5,-5.0000005 5.0000005,5.0000005 0 0 1 5,5.0000005 z" />
      <circle
         r="5.0000005"
         cy="15.362186"
         cx="707"
         id="path4113"
         style="color:#000000;fill:#808080;fill-opacity:1;fill-rule:nonzero;stroke:none;stroke-width:4;marker:none;visibility:visible;display:inline;overflow:visible;enable-background:accumulate"
         d="m 712,15.362186 a 5.0000005,5.0000005 0 0 1 -5,5.000001 5.0000005,5.0000005 0 0 1 -5,-5.000001 5.0000005,5.0000005 0 0 1 5,-5 5.0000005,5.0000005 0 0 1 5,5 z" />
      <circle
         r="5.0000005"
         cy="15.362186"
         cx="721"
         style="color:#000000;fill:#808080;fill-opacity:1;fill-rule:nonzero;stroke:none;stroke-width:4;marker:none;visibility:visible;display:inline;overflow:visible;enable-background:accumulate"
         id="path4115"
         d="m 726,15.362186 a 5.0000005,5.0000005 0 0 1 -5,5.000001 5.0000005,5.0000005 0 0 1 -5,-5.000001 5.0000005,5.0000005 0 0 1 5,-5 5.0000005,5.0000005 0 0 1 5,5 z" />
      <circle
         r="5.0000005"
         cy="15.362186"
         cx="735"
         id="path4117"
         style="color:#000000;fill:#808080;fill-opacity:1;fill-rule:nonzero;stroke:none;stroke-width:4;marker:none;visibility:visible;display:inline;overflow:visible;enable-background:accumulate"
         d="m 740,15.362186 a 5.0000005,5.0000005 0 0 1 -5,5.000001 5.0000005,5.0000005 0 0 1 -5,-5.000001 5.0000005,5.0000005 0 0 1 5,-5 5.0000005,5.0000005 0 0 1 5,5 z" />
      <circle
         r="5.0000005"
         cy="29.362186"
         cx="707"
         style="color:#000000;fill:#808080;fill-opacity:1;fill-rule:nonzero;stroke:none;stroke-width:4;marker:none;visibility:visible;display:inline;overflow:visible;enable-background:accumulate"
         id="path4119"
         d="m 712,29.362186 a 5.0000005,5.0000005 0 0 1 -5,5.000001 5.0000005,5.0000005 0 0 1 -5,-5.000001 5.0000005,5.0000005 0 0 1 5,-5 5.0000005,5.0000005 0 0 1 5,5 z" />
      <circle
         r="5.0000005"
         cy="29.362186"
         cx="721"
         id="path4121"
         style="color:#000000;fill:#808080;fill-opacity:1;fill-rule:nonzero;stroke:none;stroke-width:4;marker:none;visibility:visible;display:inline;overflow:visible;enable-background:accumulate"
         d="m 726,29.362186 a 5.0000005,5.0000005 0 0 1 -5,5.000001 5.0000005,5.0000005 0 0 1 -5,-5.000001 5.0000005,5.0000005 0 0 1 5,-5 5.0000005,5.0000005 0 0 1 5,5 z" />
      <circle
         r="5.0000005"
         cy="29.362186"
         cx="735"
         style="color:#000000;fill:#808080;fill-opacity:1;fill-rule:nonzero;stroke:none;stroke-width:4;marker:none;visibility:visible;display:inline;overflow:visible;enable-background:accumulate"
         id="path4123"
         d="m 740,29.362186 a 5.0000005,5.0000005 0 0 1 -5,5.000001 5.0000005,5.0000005 0 0 1 -5,-5.000001 5.0000005,5.0000005 0 0 1 5,-5 5.0000005,5.0000005 0 0 1 5,5 z" />
      <path
         inkscape:transform-center-y="0.2625781"
         inkscape:transform-center-x="-0.25253415"
         inkscape:connector-curvature="0"
         id="path4185"
         d="m 762.80738,-4.6513715 c 7.80698,1.7675293 21.15163,4.3964167 17.60499,16.2777465 -4.50757,15.100534 -15.21354,26.842252 -25.72632,37.359059 l 2.8e-4,2.73e-4 c -0.0104,0.01004 -0.0208,0.02085 -0.0313,0.03128 -0.0104,0.01004 -0.0208,0.02085 -0.0313,0.03128 l -2.8e-4,-2.73e-4 C 744.1067,59.560786 732.36498,70.266752 717.26444,74.774319 705.38312,78.320945 702.75424,64.976307 700.9867,57.169333 l 25.21671,-11.088795 8.88063,5.328089 c 3.65652,-2.332872 7.96979,-6.186036 11.8744,-10.088213 3.90221,-3.904545 7.75534,-8.217864 10.0882,-11.874394 l -5.32804,-8.88065 11.08879,-25.2166928 z"
         style="color:#000000;fill:#808080;fill-opacity:1;fill-rule:nonzero;stroke:none;stroke-width:12;marker:none;visibility:visible;display:inline;overflow:visible;enable-background:accumulate" />
    </g>
  </g>
</svg>
