<?xml version="1.0" encoding="UTF-8" standalone="no"?>
<!-- Created with Inkscape (http://www.inkscape.org/) -->

<svg
   xmlns:dc="http://purl.org/dc/elements/1.1/"
   xmlns:cc="http://creativecommons.org/ns#"
   xmlns:rdf="http://www.w3.org/1999/02/22-rdf-syntax-ns#"
   xmlns:svg="http://www.w3.org/2000/svg"
   xmlns="http://www.w3.org/2000/svg"
   xmlns:sodipodi="http://sodipodi.sourceforge.net/DTD/sodipodi-0.dtd"
   xmlns:inkscape="http://www.inkscape.org/namespaces/inkscape"
   width="90"
   height="90"
   id="svg4874"
   version="1.1"
   inkscape:version="0.48+devel r"
   viewBox="0 0 90 90.000001"
   sodipodi:docname="edit-cut.svg">
  <defs
     id="defs4876" />
  <sodipodi:namedview
     id="base"
     pagecolor="#ffffff"
     bordercolor="#666666"
     borderopacity="1.0"
     inkscape:pageopacity="0.0"
     inkscape:pageshadow="2"
     inkscape:zoom="4.0745362"
     inkscape:cx="-2.1229444"
     inkscape:cy="49.011713"
     inkscape:document-units="px"
     inkscape:current-layer="g5038"
     showgrid="true"
     showborder="true"
     fit-margin-top="0"
     fit-margin-left="0"
     fit-margin-right="0"
     fit-margin-bottom="0"
     inkscape:snap-bbox="true"
     inkscape:bbox-paths="true"
     inkscape:bbox-nodes="true"
     inkscape:snap-bbox-edge-midpoints="true"
     inkscape:snap-bbox-midpoints="true"
     inkscape:object-paths="true"
     inkscape:snap-intersection-paths="true"
     inkscape:object-nodes="true"
     inkscape:snap-smooth-nodes="true"
     inkscape:snap-midpoints="true"
     inkscape:snap-object-midpoints="true"
     inkscape:snap-center="true"
     showguides="true"
     inkscape:guide-bbox="true">
    <inkscape:grid
       type="xygrid"
       id="grid5451"
       empspacing="6" />
    <sodipodi:guide
       orientation="1,0"
       position="6,77"
       id="guide4063" />
    <sodipodi:guide
       orientation="1,0"
       position="3,78"
       id="guide4065" />
    <sodipodi:guide
       orientation="0,1"
       position="55,84"
       id="guide4067" />
    <sodipodi:guide
       orientation="0,1"
       position="53,87"
       id="guide4069" />
    <sodipodi:guide
       orientation="0,1"
       position="20,3"
       id="guide4071" />
    <sodipodi:guide
       orientation="0,1"
       position="20,6"
       id="guide4073" />
    <sodipodi:guide
       orientation="1,0"
       position="87,7"
       id="guide4075" />
    <sodipodi:guide
       orientation="1,0"
       position="84,7"
       id="guide4077" />
    <sodipodi:guide
       orientation="0,1"
       position="58,81"
       id="guide4074" />
    <sodipodi:guide
       orientation="1,0"
       position="9,74"
       id="guide4076" />
    <sodipodi:guide
       orientation="0,1"
       position="21,9"
       id="guide4078" />
    <sodipodi:guide
       orientation="1,0"
       position="81,4"
       id="guide4080" />
  </sodipodi:namedview>
  <metadata
     id="metadata4879">
    <rdf:RDF>
      <cc:Work
         rdf:about="">
        <dc:format>image/svg+xml</dc:format>
        <dc:type
           rdf:resource="http://purl.org/dc/dcmitype/StillImage" />
        <dc:title></dc:title>
      </cc:Work>
    </rdf:RDF>
  </metadata>
  <g
     inkscape:label="Layer 1"
     inkscape:groupmode="layer"
     id="layer1"
     transform="translate(67.857146,-84.50504)">
    <g
       transform="matrix(0,-1,-1,0,373.50506,516.50504)"
       id="g4845"
       style="display:inline">
      <g
         id="g5034"
         transform="matrix(0,-1,-1,0,716.37654,471.3622)">
        <rect
           y="284.36221"
           x="29.99999"
           height="90"
           width="90"
           id="rect5036"
           style="opacity:0.21199999;fill:none;stroke:none" />
        <g
           transform="matrix(1.4940126,0,0,1.4940126,-21.380892,-160.96281)"
           id="g5038">
          <path
             style="font-size:33.10908127px;font-style:normal;font-variant:normal;font-weight:500;font-stretch:normal;text-align:center;line-height:125%;letter-spacing:0px;word-spacing:0px;writing-mode:lr-tb;text-anchor:middle;fill:#808080;fill-opacity:1;stroke:none;font-family:Ubuntu;-inkscape-font-specification:Ubuntu Medium"
             d="M 36.933594 -0.02734375 L 36.908203 -0.013671875 C 36.583913 -0.008671875 36.159103 0.018459375 35.632812 0.068359375 C 35.106533 0.11775937 34.514715 0.230654 33.859375 0.40625 C 33.270505 0.564038 32.804537 0.78133465 32.460938 1.0566406 C 32.114787 1.3224356 31.869166 1.6369461 31.722656 2.0019531 C 31.564096 2.3600081 31.492766 2.7617251 31.509766 3.2050781 C 31.526766 3.6484311 31.639171 4.112291 31.738281 4.625 C 33.950027 16.964703 35.997689 29.345243 38.054688 41.720703 L 43.087891 22.943359 L 36.933594 -0.02734375 z M 45 30.074219 L 39.521484 50.517578 C 39.598113 50.975065 39.67322 51.43319 39.75 51.890625 L 47.845703 64.888672 L 51.775391 79.550781 C 52.304561 81.525691 53.073401 83.249813 54.082031 84.720703 C 55.090681 86.191583 56.270486 87.357576 57.628906 88.222656 C 58.987326 89.087716 60.502122 89.641053 62.169922 89.876953 C 63.805882 90.121413 65.517001 90.003361 67.300781 89.525391 C 69.084561 89.047431 70.623429 88.293352 71.917969 87.263672 C 73.212529 86.234002 74.230719 85.004552 74.974609 83.576172 C 75.718509 82.147792 76.175783 80.542539 76.345703 78.755859 C 76.483783 76.977719 76.287003 75.09991 75.757812 73.125 C 75.228643 71.1501 74.463011 69.442936 73.462891 68.003906 C 72.422391 66.541546 71.225597 65.378722 69.867188 64.513672 C 68.476897 63.657162 66.969197 63.120793 65.341797 62.908203 C 63.705837 62.663743 61.999216 62.732354 60.259766 63.246094 C 58.971406 63.626554 57.732576 64.224001 56.259766 64.087891 C 55.704576 64.036591 55.23308 63.862335 54.84375 63.609375 C 54.44548 63.323075 54.11107 62.948665 53.84375 62.484375 C 53.60975 62.011155 53.395719 61.409131 53.199219 60.675781 L 45 30.074219 z M 45 44.986328 A 3.1499994 3.1499994 0 0 1 48.150391 48.134766 A 3.1499994 3.1499994 0 0 1 45 51.285156 A 3.1499994 3.1499994 0 0 1 41.849609 48.134766 A 3.1499994 3.1499994 0 0 1 45 44.986328 z M 62.996094 68.037109 C 64.347484 67.969609 65.576874 68.376513 66.683594 69.257812 C 68.118834 70.409553 69.168254 72.228331 69.833984 74.712891 C 70.508254 77.229301 70.516002 79.360502 69.857422 81.107422 C 69.167012 82.862872 67.868221 83.997656 65.957031 84.509766 C 64.045841 85.021866 62.367598 84.685563 60.923828 83.501953 C 59.448208 82.326903 58.373489 80.479291 57.699219 77.962891 C 57.033489 75.478321 57.049147 73.375924 57.748047 71.652344 C 58.406587 69.905434 59.692316 68.773819 61.603516 68.261719 C 62.081306 68.133689 62.545634 68.059599 62.996094 68.037109 z "
             transform="matrix(0.66933841,0,0,0.66933841,34.3912,298.08273)"
             id="path5040" />
          <path
             style="font-size:33.10908127px;font-style:normal;font-variant:normal;font-weight:500;font-stretch:normal;text-align:center;line-height:125%;letter-spacing:0px;word-spacing:0px;writing-mode:lr-tb;text-anchor:middle;fill:#808080;fill-opacity:1;stroke:none;font-family:Ubuntu;-inkscape-font-specification:Ubuntu Medium"
             d="M 53.066406 -0.02734375 L 53.0625 -0.013671875 C 53.06151 -0.013687875 53.059594 -0.013656875 53.058594 -0.013671875 L 51.130859 7.1816406 L 51.134766 7.1816406 L 36.800781 60.675781 C 36.604281 61.409131 36.39025 62.011155 36.15625 62.484375 C 35.88893 62.948665 35.55452 63.323075 35.15625 63.609375 C 34.76692 63.862335 34.295424 64.036601 33.740234 64.087891 C 32.267424 64.224001 31.028594 63.626554 29.740234 63.246094 C 28.000784 62.732354 26.294163 62.663743 24.658203 62.908203 C 23.030803 63.120793 21.523102 63.657162 20.132812 64.513672 C 18.774403 65.378722 17.577609 66.541546 16.537109 68.003906 C 15.536989 69.442936 14.771357 71.1501 14.242188 73.125 C 13.713008 75.09991 13.516217 76.977719 13.654297 78.755859 C 13.824217 80.542539 14.281491 82.147792 15.025391 83.576172 C 15.769281 85.004552 16.787471 86.234002 18.082031 87.263672 C 19.376571 88.293352 20.915439 89.047431 22.699219 89.525391 C 24.482999 90.003361 26.194118 90.121413 27.830078 89.876953 C 29.497878 89.641053 31.012674 89.087716 32.371094 88.222656 C 33.729514 87.357576 34.909319 86.191583 35.917969 84.720703 C 36.926599 83.249813 37.695439 81.525691 38.224609 79.550781 L 42.154297 64.888672 L 50.25 51.890625 C 53.12413 36.177517 55.203006 20.307023 58.228516 4.625 C 58.331656 4.117997 58.440211 3.6484381 58.457031 3.2050781 C 58.472331 2.8031141 58.377511 2.3292251 58.244141 2.0019531 C 58.095731 1.6377131 57.852009 1.3224356 57.505859 1.0566406 C 57.162259 0.78133463 56.696282 0.564038 56.107422 0.40625 C 55.452082 0.230654 54.860274 0.11776137 54.333984 0.068359375 C 53.823004 0.019909375 53.416273 -0.00560875 53.095703 -0.01171875 L 53.066406 -0.02734375 z M 45 44.986328 A 3.1499994 3.1499994 0 0 1 48.150391 48.134766 A 3.1499994 3.1499994 0 0 1 45 51.285156 A 3.1499994 3.1499994 0 0 1 41.849609 48.134766 A 3.1499994 3.1499994 0 0 1 45 44.986328 z M 27.003906 68.037109 C 27.454366 68.059609 27.918694 68.133709 28.396484 68.261719 C 30.307684 68.773819 31.593413 69.905434 32.251953 71.652344 C 32.950883 73.375924 32.966541 75.478321 32.300781 77.962891 C 31.626511 80.479291 30.551792 82.326903 29.076172 83.501953 C 27.632402 84.685563 25.954159 85.021866 24.042969 84.509766 C 22.131779 83.997656 20.832988 82.862872 20.142578 81.107422 C 19.484038 79.360502 19.491786 77.229301 20.166016 74.712891 C 20.831746 72.228331 21.881166 70.409552 23.316406 69.257812 C 24.423126 68.376513 25.652516 67.969649 27.003906 68.037109 z "
             transform="matrix(0.66933841,0,0,0.66933841,34.3912,298.08273)"
             id="path5042" />
        </g>
      </g>
    </g>
  </g>
</svg>
