<?xml version="1.0" encoding="UTF-8" standalone="no"?>
<!-- Created with Inkscape (http://www.inkscape.org/) -->

<svg
   xmlns:dc="http://purl.org/dc/elements/1.1/"
   xmlns:cc="http://creativecommons.org/ns#"
   xmlns:rdf="http://www.w3.org/1999/02/22-rdf-syntax-ns#"
   xmlns:svg="http://www.w3.org/2000/svg"
   xmlns="http://www.w3.org/2000/svg"
   xmlns:sodipodi="http://sodipodi.sourceforge.net/DTD/sodipodi-0.dtd"
   xmlns:inkscape="http://www.inkscape.org/namespaces/inkscape"
   width="90"
   height="90"
   id="svg4874"
   version="1.1"
   inkscape:version="0.48+devel r12833"
   viewBox="0 0 90 90.000001"
   sodipodi:docname="flash-auto.svg">
  <defs
     id="defs4876" />
  <sodipodi:namedview
     id="base"
     pagecolor="#ffffff"
     bordercolor="#666666"
     borderopacity="1.0"
     inkscape:pageopacity="0.0"
     inkscape:pageshadow="2"
     inkscape:zoom="2.6077032"
     inkscape:cx="-37.350881"
     inkscape:cy="58.32719"
     inkscape:document-units="px"
     inkscape:current-layer="g1708"
     showgrid="true"
     showborder="true"
     fit-margin-top="0"
     fit-margin-left="0"
     fit-margin-right="0"
     fit-margin-bottom="0"
     inkscape:snap-bbox="true"
     inkscape:bbox-paths="true"
     inkscape:bbox-nodes="true"
     inkscape:snap-bbox-edge-midpoints="true"
     inkscape:snap-bbox-midpoints="true"
     inkscape:object-paths="true"
     inkscape:snap-intersection-paths="true"
     inkscape:object-nodes="true"
     inkscape:snap-smooth-nodes="true"
     inkscape:snap-midpoints="true"
     inkscape:snap-object-midpoints="true"
     inkscape:snap-center="true"
     showguides="true"
     inkscape:guide-bbox="true">
    <inkscape:grid
       type="xygrid"
       id="grid5451"
       empspacing="6" />
    <sodipodi:guide
       orientation="1,0"
       position="6,77"
       id="guide4063" />
    <sodipodi:guide
       orientation="1,0"
       position="3,78"
       id="guide4065" />
    <sodipodi:guide
       orientation="0,1"
       position="55,84"
       id="guide4067" />
    <sodipodi:guide
       orientation="0,1"
       position="53,87"
       id="guide4069" />
    <sodipodi:guide
       orientation="0,1"
       position="20,3"
       id="guide4071" />
    <sodipodi:guide
       orientation="0,1"
       position="20,6"
       id="guide4073" />
    <sodipodi:guide
       orientation="1,0"
       position="87,7"
       id="guide4075" />
    <sodipodi:guide
       orientation="1,0"
       position="84,7"
       id="guide4077" />
    <sodipodi:guide
       orientation="0,1"
       position="58,81"
       id="guide4074" />
    <sodipodi:guide
       orientation="1,0"
       position="9,74"
       id="guide4076" />
    <sodipodi:guide
       orientation="0,1"
       position="21,9"
       id="guide4078" />
    <sodipodi:guide
       orientation="1,0"
       position="81,4"
       id="guide4080" />
  </sodipodi:namedview>
  <metadata
     id="metadata4879">
    <rdf:RDF>
      <cc:Work
         rdf:about="">
        <dc:format>image/svg+xml</dc:format>
        <dc:type
           rdf:resource="http://purl.org/dc/dcmitype/StillImage" />
        <dc:title></dc:title>
      </cc:Work>
    </rdf:RDF>
  </metadata>
  <g
     inkscape:label="Layer 1"
     inkscape:groupmode="layer"
     id="layer1"
     transform="translate(67.857146,-84.50504)">
    <g
       transform="matrix(0,-1,-1,0,373.50506,516.50504)"
       id="g4845"
       style="display:inline">
      <g
         inkscape:label="Layer 1"
         id="g1708"
         transform="matrix(0,-1,-1,0,1394.3622,441.36221)"
         inkscape:export-filename="add01.png"
         inkscape:export-xdpi="90"
         inkscape:export-ydpi="90">
        <rect
           style="color:#000000;fill:none;stroke:none;stroke-width:7.5;marker:none;visibility:visible;display:inline;overflow:visible;enable-background:accumulate"
           id="rect1710"
           width="90"
           height="90"
           x="0"
           y="962.36218" />
        <path
           id="path4212"
           sodipodi:nodetypes="ccccccc"
           inkscape:connector-curvature="0"
           d="m 48.000004,1052.3622 -24,-54 18,0 0,-36 24,54 -18,0 z"
           style="fill:#808080;fill-opacity:1" />
        <g
           transform="matrix(3.5792404,0,0,3.6210018,-100.79499,-2635.6246)"
           id="g4167"
           style="fill:#808080;fill-opacity:1">
          <path
             inkscape:connector-curvature="0"
             d="m 35.822,1018.499 c -0.105,-0.345 -0.225,-0.698 -0.358,-1.062 -0.125,-0.363 -0.249,-0.726 -0.373,-1.09 l -3.874,0 c -0.124,0.364 -0.253,0.727 -0.387,1.09 -0.125,0.364 -0.24,0.718 -0.345,1.062 l -2.324,0 c 0.373,-1.072 0.727,-2.061 1.062,-2.97 0.335,-0.909 0.66,-1.764 0.975,-2.568 0.325,-0.803 0.641,-1.563 0.947,-2.281 0.316,-0.727 0.641,-1.435 0.975,-2.123 l 2.138,0 c 0.325,0.688 0.645,1.396 0.962,2.123 0.315,0.718 0.631,1.478 0.947,2.281 0.325,0.804 0.655,1.659 0.99,2.568 0.335,0.909 0.689,1.898 1.062,2.97 l -2.397,0 m -2.682,-7.69 c -0.048,0.144 -0.12,0.339 -0.216,0.588 -0.095,0.249 -0.205,0.535 -0.329,0.86 -0.125,0.325 -0.263,0.684 -0.416,1.076 -0.143,0.392 -0.292,0.804 -0.445,1.234 l 2.827,0 c -0.153,-0.43 -0.302,-0.842 -0.445,-1.234 -0.143,-0.392 -0.282,-0.751 -0.416,-1.076 -0.124,-0.325 -0.234,-0.612 -0.33,-0.86 -0.096,-0.249 -0.173,-0.444 -0.23,-0.588"
             id="path4169"
             style="fill:#808080;fill-opacity:1" />
        </g>
      </g>
    </g>
  </g>
</svg>
