<?xml version="1.0" encoding="UTF-8" standalone="no"?>
<!-- Created with Inkscape (http://www.inkscape.org/) -->

<svg
   xmlns:dc="http://purl.org/dc/elements/1.1/"
   xmlns:cc="http://creativecommons.org/ns#"
   xmlns:rdf="http://www.w3.org/1999/02/22-rdf-syntax-ns#"
   xmlns:svg="http://www.w3.org/2000/svg"
   xmlns="http://www.w3.org/2000/svg"
   xmlns:sodipodi="http://sodipodi.sourceforge.net/DTD/sodipodi-0.dtd"
   xmlns:inkscape="http://www.inkscape.org/namespaces/inkscape"
   width="90"
   height="90"
   id="svg4874"
   version="1.1"
   inkscape:version="0.48+devel r12833"
   viewBox="0 0 90 90.000001"
   sodipodi:docname="history.svg">
  <defs
     id="defs4876">
    <clipPath
       id="clipPath2991-6"
       clipPathUnits="userSpaceOnUse">
      <path
         sodipodi:nodetypes="cccsssssssccc"
         style="color:#000000;fill:#ff00ff;fill-opacity:1;fill-rule:nonzero;stroke:none;stroke-width:4;marker:none;visibility:visible;display:inline;overflow:visible;enable-background:accumulate"
         d="m 0,968.36224 0,83.99996 16.375,0 c -1.525081,-1.7576 -2.659363,-3.8737 -3.25,-6 -0.996189,-3.5863 -1.09375,-7.3341 -1.09375,-12 l 0,-35.99996 c 0,-4.66586 0.09756,-8.41372 1.09375,-12 0.996189,-3.58628 3.508218,-7.14653 6.90625,-9 C 26.827314,973.6553 34.5,974.39349 48,974.39349 l 6,0 c 10.951245,0 18.075349,-0.45164 24,1.34375 l 0,-7.375 z"
         id="path2993-6"
         inkscape:connector-curvature="0" />
    </clipPath>
  </defs>
  <sodipodi:namedview
     id="base"
     pagecolor="#ffffff"
     bordercolor="#666666"
     borderopacity="1.0"
     inkscape:pageopacity="0.0"
     inkscape:pageshadow="2"
     inkscape:zoom="6.3664628"
     inkscape:cx="24.817547"
     inkscape:cy="56.467776"
     inkscape:document-units="px"
     inkscape:current-layer="g4122"
     showgrid="true"
     showborder="true"
     fit-margin-top="0"
     fit-margin-left="0"
     fit-margin-right="0"
     fit-margin-bottom="0"
     inkscape:snap-bbox="true"
     inkscape:bbox-paths="true"
     inkscape:bbox-nodes="true"
     inkscape:snap-bbox-edge-midpoints="true"
     inkscape:snap-bbox-midpoints="true"
     inkscape:object-paths="true"
     inkscape:snap-intersection-paths="true"
     inkscape:object-nodes="true"
     inkscape:snap-smooth-nodes="true"
     inkscape:snap-midpoints="true"
     inkscape:snap-object-midpoints="true"
     inkscape:snap-center="true"
     showguides="true"
     inkscape:guide-bbox="true">
    <inkscape:grid
       type="xygrid"
       id="grid5451"
       empspacing="6" />
    <sodipodi:guide
       orientation="1,0"
       position="6,77"
       id="guide4063" />
    <sodipodi:guide
       orientation="1,0"
       position="3,78"
       id="guide4065" />
    <sodipodi:guide
       orientation="0,1"
       position="55,84"
       id="guide4067" />
    <sodipodi:guide
       orientation="0,1"
       position="53,87"
       id="guide4069" />
    <sodipodi:guide
       orientation="0,1"
       position="20,3"
       id="guide4071" />
    <sodipodi:guide
       orientation="0,1"
       position="20,6"
       id="guide4073" />
    <sodipodi:guide
       orientation="1,0"
       position="87,7"
       id="guide4075" />
    <sodipodi:guide
       orientation="1,0"
       position="84,7"
       id="guide4077" />
    <sodipodi:guide
       orientation="0,1"
       position="58,81"
       id="guide4074" />
    <sodipodi:guide
       orientation="1,0"
       position="9,74"
       id="guide4076" />
    <sodipodi:guide
       orientation="0,1"
       position="21,9"
       id="guide4078" />
    <sodipodi:guide
       orientation="1,0"
       position="81,4"
       id="guide4080" />
  </sodipodi:namedview>
  <metadata
     id="metadata4879">
    <rdf:RDF>
      <cc:Work
         rdf:about="">
        <dc:format>image/svg+xml</dc:format>
        <dc:type
           rdf:resource="http://purl.org/dc/dcmitype/StillImage" />
        <dc:title></dc:title>
      </cc:Work>
    </rdf:RDF>
  </metadata>
  <g
     inkscape:label="Layer 1"
     inkscape:groupmode="layer"
     id="layer1"
     transform="translate(67.857146,-84.50504)">
    <path
       sodipodi:nodetypes="cssssssccccccccccc"
       inkscape:connector-curvature="0"
       style="fill:#808080;fill-opacity:1;display:none"
       id="path5335"
       d="m -49.85715,117.50504 0,35.99992 c 0,18 3,18 30,18 l 6,0 c 27,0 30,0 30,-18 l 0,-35.99992 c 0,-18 -3,-18 -30,-18 l -6,0 c -27,0 -30,0 -30,18 z m 30,-12 6,0 c 24,0 24,0 24,12 l 0,35.99992 c 0,12 0,12 -24,12 l -6,0 c -24,0 -24,0 -24,-12 l 0,-35.99992 c 0,-12 0,-12 24,-12 z" />
    <path
       transform="translate(-67.85715,-880.85714)"
       clip-path="url(#clipPath2991-6)"
       d="m 6,986.36218 0,35.99992 c 0,18 3,18 30,18 l 6,0 c 27,0 30,0 30,-18 l 0,-35.99992 c 0,-18 -3,-18 -30,-18 l -6,0 c -27,0 -30,0 -30,18 z m 30,-12 6,0 c 24,0 24,0 24,12 l 0,35.99992 c 0,12 0,12 -24,12 l -6,0 c -24,0 -24,0 -24,-12 l 0,-35.99992 c 0,-12 0,-12 24,-12 z"
       id="path5337"
       style="fill:#808080;fill-opacity:1;display:none"
       inkscape:connector-curvature="0"
       sodipodi:nodetypes="cssssssccccccccccc" />
    <g
       id="g4122">
      <path
         style="font-style:normal;font-variant:normal;font-weight:normal;font-stretch:normal;text-indent:0;text-align:start;text-decoration:none;line-height:normal;letter-spacing:normal;word-spacing:normal;text-transform:none;direction:ltr;block-progression:tb;writing-mode:lr-tb;text-anchor:start;baseline-shift:baseline;color:#000000;color-interpolation:sRGB;color-interpolation-filters:linearRGB;fill:#808080;fill-opacity:1;fill-rule:nonzero;stroke:none;stroke-width:6.2608695;marker:none;visibility:visible;display:inline;overflow:visible;enable-background:accumulate;clip-rule:nonzero;color-rendering:auto;image-rendering:auto;shape-rendering:auto;text-rendering:auto;font-family:sans-serif;-inkscape-font-specification:sans-serif"
         d="M 44.996094 4.0097656 L 44.996094 13 A 32 32 0 0 1 45 13 A 32 32 0 0 1 53.253906 14.123047 L 55.591797 5.4042969 C 52.128097 4.4860269 48.557694 4.0098156 44.996094 4.0097656 z M 34.404297 5.4042969 C 30.975097 6.3137769 27.647659 7.6840906 24.505859 9.4941406 L 29.029297 17.316406 A 32 32 0 0 1 36.738281 14.099609 L 34.404297 5.4042969 z M 65.496094 9.4941406 L 60.976562 17.306641 A 32 32 0 0 1 67.615234 22.386719 L 74 16.001953 C 71.4027 13.404633 68.538694 11.246941 65.496094 9.4941406 z M 16.001953 16.001953 C 8.0138532 23.990183 4.0117188 34.496243 4.0117188 45.001953 C 4.0117188 46.983013 4.13275 48.926734 4.40625 50.833984 C 4.41725 50.872984 4.4246875 50.910319 4.4296875 50.949219 C 4.4436875 51.043219 4.4635625 51.134686 4.4765625 51.228516 C 4.6605625 52.427416 4.9093125 53.620413 5.1953125 54.783203 C 5.3538125 55.427613 5.5182313 56.057293 5.7070312 56.689453 C 5.8985312 57.331033 6.0908 57.967563 6.3125 58.595703 C 6.463 59.027383 6.6335281 59.445637 6.7988281 59.873047 C 6.9168281 60.174427 7.0234375 60.481397 7.1484375 60.779297 C 7.2244375 60.960837 7.3262969 61.13183 7.4042969 61.3125 C 7.8808969 62.40523 8.3707 63.478401 8.9375 64.519531 C 10.459 67.340081 12.331247 69.998127 14.560547 72.466797 C 14.589547 72.499197 14.623297 72.528147 14.654297 72.560547 C 15.094997 73.045147 15.533753 73.53191 16.001953 74 C 16.469643 74.46772 16.957057 74.907335 17.441406 75.347656 C 17.474406 75.376956 17.502156 75.412006 17.535156 75.441406 C 20.003856 77.670716 22.659969 79.543023 25.480469 81.064453 C 25.621069 81.140153 25.759291 81.222915 25.900391 81.296875 C 26.343791 81.531545 26.795347 81.728596 27.248047 81.947266 C 27.723047 82.174476 28.2056 82.389736 28.6875 82.597656 C 28.8682 82.676556 29.040556 82.777216 29.222656 82.853516 C 29.522556 82.977866 29.826806 83.086245 30.128906 83.203125 C 30.394106 83.306915 30.650169 83.428944 30.917969 83.527344 C 31.079569 83.586044 31.24395 83.632913 31.40625 83.689453 C 32.03435 83.911213 32.6709 84.103392 33.3125 84.294922 C 33.9447 84.483572 34.572397 84.646188 35.216797 84.804688 C 36.379597 85.090687 37.574538 85.341381 38.773438 85.525391 C 38.867437 85.539491 38.957981 85.558566 39.050781 85.572266 C 39.089781 85.578266 39.128769 85.589503 39.167969 85.595703 C 41.075269 85.869273 43.0189 85.990224 45 85.990234 C 46.9811 85.990234 48.924831 85.869303 50.832031 85.595703 C 50.871031 85.590703 50.911019 85.577766 50.949219 85.572266 C 51.041219 85.558566 51.135716 85.539691 51.228516 85.525391 C 52.427516 85.341411 53.620403 85.092641 54.783203 84.806641 C 55.427603 84.648131 56.0553 84.483592 56.6875 84.294922 C 57.3291 84.103442 57.96565 83.913146 58.59375 83.691406 C 59.02445 83.539406 59.447194 83.369025 59.871094 83.203125 C 60.173394 83.086245 60.477444 82.977816 60.777344 82.853516 C 60.959544 82.777216 61.1318 82.676516 61.3125 82.597656 C 61.6364 82.457886 61.968163 82.328187 62.289062 82.179688 C 62.445562 82.106488 62.598506 82.022326 62.753906 81.947266 C 63.202206 81.732816 63.659663 81.528495 64.101562 81.296875 C 64.243262 81.221875 64.378831 81.141013 64.519531 81.064453 C 67.340131 79.543003 69.998297 77.670716 72.466797 75.441406 C 72.498797 75.412206 72.526594 75.377056 72.558594 75.347656 C 73.043494 74.906996 73.5319 74.46808 74 74 L 73.976562 73.978516 C 81.405262 66.549846 85.990334 56.299013 85.990234 45.001953 L 77 45.001953 A 32 32 0 0 1 45 77 A 32 32 0 0 1 13 45 A 32 32 0 0 1 22.386719 22.386719 L 16.001953 16.001953 z M 80.505859 24.505859 L 72.669922 29.001953 A 32 32 0 0 1 75.898438 36.726562 L 84.619141 34.380859 C 83.668541 30.832859 82.264459 27.545089 80.505859 24.505859 z "
         transform="translate(-67.857146,84.50504)"
         id="path5323" />
      <path
         inkscape:transform-center-x="7.4246"
         inkscape:transform-center-y="-7.424596"
         sodipodi:nodetypes="cc"
         inkscape:connector-curvature="0"
         id="path5329"
         d="m -37.7063,114.65586 13.6492,13.64922"
         style="color:#000000;fill:#ffffff;fill-opacity:1;fill-rule:nonzero;stroke:#808080;stroke-width:6;stroke-linecap:square;stroke-miterlimit:4;stroke-opacity:1;stroke-dasharray:none;stroke-dashoffset:0;marker:none;visibility:visible;display:inline;overflow:visible;enable-background:accumulate" />
      <path
         inkscape:transform-center-y="1.5e-05"
         inkscape:transform-center-x="-10.5"
         style="color:#000000;fill:#ffffff;fill-opacity:1;fill-rule:nonzero;stroke:#808080;stroke-width:6;stroke-linecap:square;stroke-miterlimit:4;stroke-opacity:1;stroke-dasharray:none;stroke-dashoffset:0;marker:none;visibility:visible;display:inline;overflow:visible;enable-background:accumulate"
         d="m -3.8571,129.50509 -17.2,-3e-5"
         id="path5331"
         inkscape:connector-curvature="0"
         sodipodi:nodetypes="cc" />
      <rect
         y="84.505043"
         x="-67.857147"
         height="90"
         width="90"
         id="rect4120"
         style="opacity:0.02999998;color:#000000;fill:none;fill-opacity:1;fill-rule:nonzero;stroke:none;stroke-width:10;marker:none;visibility:visible;display:inline;overflow:visible;enable-background:accumulate" />
    </g>
  </g>
</svg>
