<?xml version="1.0" encoding="UTF-8" standalone="no"?>
<!-- Created with Inkscape (http://www.inkscape.org/) -->

<svg
   xmlns:dc="http://purl.org/dc/elements/1.1/"
   xmlns:cc="http://creativecommons.org/ns#"
   xmlns:rdf="http://www.w3.org/1999/02/22-rdf-syntax-ns#"
   xmlns:svg="http://www.w3.org/2000/svg"
   xmlns="http://www.w3.org/2000/svg"
   xmlns:sodipodi="http://sodipodi.sourceforge.net/DTD/sodipodi-0.dtd"
   xmlns:inkscape="http://www.inkscape.org/namespaces/inkscape"
   width="90"
   height="90"
   id="svg4874"
   version="1.1"
   inkscape:version="0.48+devel r12833"
   viewBox="0 0 90 90.000001"
   sodipodi:docname="media-playlist-repeat.svg">
  <defs
     id="defs4876" />
  <sodipodi:namedview
     id="base"
     pagecolor="#ffffff"
     bordercolor="#666666"
     borderopacity="1.0"
     inkscape:pageopacity="0.0"
     inkscape:pageshadow="2"
     inkscape:zoom="6.3664629"
     inkscape:cx="48.535583"
     inkscape:cy="47.239732"
     inkscape:document-units="px"
     inkscape:current-layer="g4978"
     showgrid="true"
     showborder="true"
     fit-margin-top="0"
     fit-margin-left="0"
     fit-margin-right="0"
     fit-margin-bottom="0"
     inkscape:snap-bbox="true"
     inkscape:bbox-paths="true"
     inkscape:bbox-nodes="true"
     inkscape:snap-bbox-edge-midpoints="true"
     inkscape:snap-bbox-midpoints="true"
     inkscape:object-paths="true"
     inkscape:snap-intersection-paths="true"
     inkscape:object-nodes="true"
     inkscape:snap-smooth-nodes="true"
     inkscape:snap-midpoints="true"
     inkscape:snap-object-midpoints="true"
     inkscape:snap-center="true"
     showguides="false"
     inkscape:guide-bbox="true">
    <inkscape:grid
       type="xygrid"
       id="grid5451"
       empspacing="6" />
    <sodipodi:guide
       orientation="1,0"
       position="6,77"
       id="guide4063" />
    <sodipodi:guide
       orientation="1,0"
       position="3,78"
       id="guide4065" />
    <sodipodi:guide
       orientation="0,1"
       position="55,84"
       id="guide4067" />
    <sodipodi:guide
       orientation="0,1"
       position="53,87"
       id="guide4069" />
    <sodipodi:guide
       orientation="0,1"
       position="20,3"
       id="guide4071" />
    <sodipodi:guide
       orientation="0,1"
       position="20,6"
       id="guide4073" />
    <sodipodi:guide
       orientation="1,0"
       position="87,7"
       id="guide4075" />
    <sodipodi:guide
       orientation="1,0"
       position="84,7"
       id="guide4077" />
    <sodipodi:guide
       orientation="0,1"
       position="58,81"
       id="guide4074" />
    <sodipodi:guide
       orientation="1,0"
       position="9,74"
       id="guide4076" />
    <sodipodi:guide
       orientation="0,1"
       position="21,9"
       id="guide4078" />
    <sodipodi:guide
       orientation="1,0"
       position="81,4"
       id="guide4080" />
  </sodipodi:namedview>
  <metadata
     id="metadata4879">
    <rdf:RDF>
      <cc:Work
         rdf:about="">
        <dc:format>image/svg+xml</dc:format>
        <dc:type
           rdf:resource="http://purl.org/dc/dcmitype/StillImage" />
        <dc:title></dc:title>
      </cc:Work>
    </rdf:RDF>
  </metadata>
  <g
     inkscape:label="Layer 1"
     inkscape:groupmode="layer"
     id="layer1"
     transform="translate(67.857146,-84.50504)">
    <g
       transform="matrix(0,-1,-1,0,373.50506,516.50504)"
       id="g4845"
       style="display:inline">
      <g
         inkscape:label="Layer 1"
         id="layer1-8"
         transform="matrix(0,-1,-1,0,1394.3622,441.36221)">
        <rect
           style="color:#000000;fill:none;stroke:none;stroke-width:7.5;marker:none;visibility:visible;display:inline;overflow:visible;enable-background:accumulate"
           id="rect4198"
           width="90"
           height="90"
           x="0"
           y="962.36218" />
        <g
           id="g4978"
           transform="translate(-60,548.00002)">
          <rect
             style="color:#000000;fill:none;stroke:none;stroke-width:6;marker:none;visibility:visible;display:inline;overflow:visible;enable-background:accumulate"
             id="rect3038"
             width="90"
             height="90"
             x="0"
             y="1.7382814e-05"
             transform="translate(60,414.36216)" />
          <path
             sodipodi:nodetypes="ccsssccc"
             inkscape:transform-center-y="0.009157"
             inkscape:transform-center-x="-13.770195"
             inkscape:connector-curvature="0"
             id="path2194-83"
             d="m 87.13746,452.42665 c 0,0 14.70065,-6.35858 27.55682,-15.51986 0,-0.003 0,-0.006 -0.005,-0.009 0,-0.003 -0.005,-0.007 -0.006,-0.01 0,-0.003 -0.005,-0.007 -0.006,-0.0101 0,-0.003 -0.005,-0.007 -0.005,-0.01 -13.56164,-9.45344 -27.53865,-15.46244 -27.53865,-15.46244 z"
             style="color:#000000;fill:#808080;fill-opacity:1;fill-rule:nonzero;stroke:none;stroke-width:3;marker:none;visibility:visible;display:inline;overflow:visible;enable-background:accumulate" />
          <path
             style="font-size:15px;font-style:normal;font-variant:normal;font-weight:normal;font-stretch:normal;text-align:center;line-height:125%;letter-spacing:0px;word-spacing:0px;writing-mode:lr-tb;text-anchor:middle;fill:#808080;fill-opacity:1;stroke:none;display:inline;font-family:Ubuntu;-inkscape-font-specification:Ubuntu"
             d="m 78.000003,433.36218 c -10,0 -15,-2e-4 -15,11.62695 l 0,28.7461 c 0,11.62716 5,11.62695 15,11.62695 l 53.999997,0 c 10,0 15,2.1e-4 15,-11.62695 l 0,-28.7461 c 0,-11.62715 -5,-11.62695 -15,-11.62695 l -6,0 0,9 3,0 c 7,0 9,0 9,6 l 0,22 c 0,6 -2,6 -9,6 l -47.999997,0 c -7,0 -9,0 -9,-6 l 0,-22 c 0,-6 2.021366,-5.45349 9,-6 l 12.769531,0 8.230466,0 0,-9 -11.292966,0 z"
             id="path4229"
             inkscape:connector-curvature="0"
             sodipodi:nodetypes="ssssssssccssssssssccccs" />
          <path
             style="font-size:15px;font-style:normal;font-variant:normal;font-weight:normal;font-stretch:normal;text-align:center;line-height:125%;letter-spacing:0px;word-spacing:0px;writing-mode:lr-tb;text-anchor:middle;fill:#0000ff;fill-opacity:0.5;stroke:none;display:inline;font-family:Ubuntu;-inkscape-font-specification:Ubuntu"
             d="m 178,433.36218 12.70648,0 41.29352,0 c 10,0 15,0 15,11.62715 l 0,28.74569 c 0,11.62716 -5,11.62716 -15,11.62716 l -54,0 c -10,0 -15,0 -15,-11.62716 l 0,-28.74569 c 0,-11.62715 5,-11.62715 15,-11.62715 z"
             id="path4237"
             inkscape:connector-curvature="0"
             sodipodi:nodetypes="cccccccccc" />
        </g>
      </g>
    </g>
  </g>
</svg>
