<?xml version="1.0" encoding="UTF-8" standalone="no"?>
<!-- Created with Inkscape (http://www.inkscape.org/) -->

<svg
   xmlns:dc="http://purl.org/dc/elements/1.1/"
   xmlns:cc="http://creativecommons.org/ns#"
   xmlns:rdf="http://www.w3.org/1999/02/22-rdf-syntax-ns#"
   xmlns:svg="http://www.w3.org/2000/svg"
   xmlns="http://www.w3.org/2000/svg"
   xmlns:sodipodi="http://sodipodi.sourceforge.net/DTD/sodipodi-0.dtd"
   xmlns:inkscape="http://www.inkscape.org/namespaces/inkscape"
   width="90"
   height="90"
   id="svg4874"
   version="1.1"
   inkscape:version="0.48+devel r12833"
   viewBox="0 0 90 90.000001"
   sodipodi:docname="media-playlist-shuffle.svg">
  <defs
     id="defs4876" />
  <sodipodi:namedview
     id="base"
     pagecolor="#ffffff"
     bordercolor="#666666"
     borderopacity="1.0"
     inkscape:pageopacity="0.0"
     inkscape:pageshadow="2"
     inkscape:zoom="5.0931703"
     inkscape:cx="61.592283"
     inkscape:cy="60.247347"
     inkscape:document-units="px"
     inkscape:current-layer="g4978"
     showgrid="true"
     showborder="true"
     fit-margin-top="0"
     fit-margin-left="0"
     fit-margin-right="0"
     fit-margin-bottom="0"
     inkscape:snap-bbox="true"
     inkscape:bbox-paths="true"
     inkscape:bbox-nodes="true"
     inkscape:snap-bbox-edge-midpoints="true"
     inkscape:snap-bbox-midpoints="true"
     inkscape:object-paths="true"
     inkscape:snap-intersection-paths="true"
     inkscape:object-nodes="true"
     inkscape:snap-smooth-nodes="true"
     inkscape:snap-midpoints="true"
     inkscape:snap-object-midpoints="true"
     inkscape:snap-center="true"
     showguides="false"
     inkscape:guide-bbox="true">
    <inkscape:grid
       type="xygrid"
       id="grid5451"
       empspacing="6" />
    <sodipodi:guide
       orientation="1,0"
       position="6,77"
       id="guide4063" />
    <sodipodi:guide
       orientation="1,0"
       position="3,78"
       id="guide4065" />
    <sodipodi:guide
       orientation="0,1"
       position="55,84"
       id="guide4067" />
    <sodipodi:guide
       orientation="0,1"
       position="53,87"
       id="guide4069" />
    <sodipodi:guide
       orientation="0,1"
       position="20,3"
       id="guide4071" />
    <sodipodi:guide
       orientation="0,1"
       position="20,6"
       id="guide4073" />
    <sodipodi:guide
       orientation="1,0"
       position="87,7"
       id="guide4075" />
    <sodipodi:guide
       orientation="1,0"
       position="84,7"
       id="guide4077" />
    <sodipodi:guide
       orientation="0,1"
       position="58,81"
       id="guide4074" />
    <sodipodi:guide
       orientation="1,0"
       position="9,74"
       id="guide4076" />
    <sodipodi:guide
       orientation="0,1"
       position="21,9"
       id="guide4078" />
    <sodipodi:guide
       orientation="1,0"
       position="81,4"
       id="guide4080" />
  </sodipodi:namedview>
  <metadata
     id="metadata4879">
    <rdf:RDF>
      <cc:Work
         rdf:about="">
        <dc:format>image/svg+xml</dc:format>
        <dc:type
           rdf:resource="http://purl.org/dc/dcmitype/StillImage" />
        <dc:title></dc:title>
      </cc:Work>
    </rdf:RDF>
  </metadata>
  <g
     inkscape:label="Layer 1"
     inkscape:groupmode="layer"
     id="layer1"
     transform="translate(67.857146,-84.50504)">
    <g
       transform="matrix(0,-1,-1,0,373.50506,516.50504)"
       id="g4845"
       style="display:inline">
      <g
         inkscape:label="Layer 1"
         id="layer1-8"
         transform="matrix(0,-1,-1,0,1394.3622,441.36221)">
        <rect
           style="color:#000000;fill:none;stroke:none;stroke-width:7.5;marker:none;visibility:visible;display:inline;overflow:visible;enable-background:accumulate"
           id="rect4198"
           width="90"
           height="90"
           x="0"
           y="962.36218" />
        <g
           id="g4978"
           transform="translate(-60,548.00002)">
          <rect
             style="color:#000000;fill:none;stroke:none;stroke-width:6;marker:none;visibility:visible;display:inline;overflow:visible;enable-background:accumulate"
             id="rect3038"
             width="90"
             height="90"
             x="0"
             y="1.7382814e-05"
             transform="translate(60,414.36216)" />
          <path
             sodipodi:nodetypes="ccsssccc"
             inkscape:transform-center-y="0.008136639"
             inkscape:transform-center-x="-12.490282"
             inkscape:connector-curvature="0"
             id="path2194-83"
             d="m 122.004,452.36218 c 0,0 13.33454,-5.94407 24.996,-14.50813 0,-0.003 0,-0.006 -0.005,-0.009 0,-0.003 -0.005,-0.007 -0.006,-0.01 0,-0.003 -0.005,-0.007 -0.006,-0.01 0,-0.003 -0.005,-0.007 -0.005,-0.01 C 134.67816,428.97946 122,423.36218 122,423.36218 Z"
             style="color:#000000;fill:#808080;fill-opacity:1;fill-rule:nonzero;stroke:none;stroke-width:3;marker:none;visibility:visible;display:inline;overflow:visible;enable-background:accumulate" />
          <path
             style="font-size:15px;font-style:normal;font-variant:normal;font-weight:normal;font-stretch:normal;text-align:center;line-height:125%;letter-spacing:0px;word-spacing:0px;writing-mode:lr-tb;text-anchor:middle;fill:#0000ff;fill-opacity:0.5;stroke:none;display:inline;font-family:Ubuntu;-inkscape-font-specification:Ubuntu"
             d="m 178,433.36218 12.70648,0 41.29352,0 c 10,0 15,0 15,11.62715 l 0,28.74569 c 0,11.62716 -5,11.62716 -15,11.62716 l -54,0 c -10,0 -15,0 -15,-11.62716 l 0,-28.74569 c 0,-11.62715 5,-11.62715 15,-11.62715 z"
             id="path4237"
             inkscape:connector-curvature="0"
             sodipodi:nodetypes="cccccccccc" />
          <path
             style="font-style:normal;font-variant:normal;font-weight:normal;font-stretch:normal;text-indent:0;text-align:start;text-decoration:none;line-height:normal;letter-spacing:normal;word-spacing:normal;text-transform:none;direction:ltr;block-progression:tb;writing-mode:lr-tb;text-anchor:start;baseline-shift:baseline;color:#000000;color-interpolation:sRGB;color-interpolation-filters:linearRGB;fill:#808080;fill-opacity:1;stroke:none;stroke-width:9;marker:none;visibility:visible;display:inline;overflow:visible;enable-background:accumulate;clip-rule:nonzero;color-rendering:auto;image-rendering:auto;shape-rendering:auto;text-rendering:auto;font-family:sans-serif;-inkscape-font-specification:sans-serif"
             d="m 63.000003,433.36218 0,9.17578 10,0 c 7.253267,0 11.824479,4.13063 15.070312,8.76563 0.14643,0.2091 0.269548,0.41435 0.408204,0.62304 0.956194,-2.32027 2.468733,-5.4233 4.71875,-8.76172 -4.414984,-5.10845 -11.107707,-9.80273 -20.197266,-9.80273 l -10,0 z m 42.519527,33.44336 c -0.98206,2.37138 -2.5104,5.45969 -4.72265,8.75 4.4269,5.11286 11.12286,9.80664 20.20312,9.80664 l 10,0 0,-9.17578 -10,0 c -7.24673,0 -11.84098,-4.14653 -15.10547,-8.80469 -0.13501,-0.19265 -0.24654,-0.38382 -0.375,-0.57617 z"
             id="path4093"
             inkscape:connector-curvature="0" />
          <path
             style="font-style:normal;font-variant:normal;font-weight:normal;font-stretch:normal;text-indent:0;text-align:start;text-decoration:none;line-height:normal;letter-spacing:normal;word-spacing:normal;text-transform:none;direction:ltr;block-progression:tb;writing-mode:lr-tb;text-anchor:start;baseline-shift:baseline;color:#000000;color-interpolation:sRGB;color-interpolation-filters:linearRGB;fill:#808080;fill-opacity:1;stroke:none;stroke-width:9;marker:none;visibility:visible;display:inline;overflow:visible;enable-background:accumulate;clip-rule:nonzero;color-rendering:auto;image-rendering:auto;shape-rendering:auto;text-rendering:auto;font-family:sans-serif;-inkscape-font-specification:sans-serif"
             d="m 121,433.36218 c -10.75327,0 -18.17542,6.58073 -22.427731,12.64844 -4.252313,6.06771 -5.931641,12.12695 -5.931641,12.12695 l -0.002,0.004 0,0.004 c 0,0 -1.322524,4.64038 -4.56836,9.27539 -3.245834,4.635 -7.817046,8.76563 -15.070312,8.76563 l -10,0 0,9.17578 10,0 c 10.746734,0 18.157165,-6.55653 22.394531,-12.60742 4.233069,-6.04477 5.895066,-12.07565 5.898436,-12.08789 l 0.002,-0.008 c 0.003,-0.0122 1.33939,-4.66241 4.5996,-9.31446 3.26449,-4.65816 7.85874,-8.80664 15.10547,-8.80664 l 10,0 0,-9.17578 -10,0 z"
             id="path4091"
             inkscape:connector-curvature="0" />
          <path
             style="color:#000000;fill:#808080;fill-opacity:1;fill-rule:nonzero;stroke:none;stroke-width:3;marker:none;visibility:visible;display:inline;overflow:visible;enable-background:accumulate"
             d="m 122.004,495.36218 c 0,0 13.33454,-5.94407 24.996,-14.50813 0,-0.003 0,-0.006 -0.005,-0.009 0,-0.003 -0.005,-0.007 -0.006,-0.01 0,-0.003 -0.005,-0.007 -0.006,-0.01 0,-0.003 -0.005,-0.007 -0.005,-0.01 C 134.67816,471.97946 122,466.36218 122,466.36218 Z"
             id="path4282"
             inkscape:connector-curvature="0"
             inkscape:transform-center-x="-12.490282"
             inkscape:transform-center-y="0.008136639"
             sodipodi:nodetypes="ccsssccc" />
        </g>
      </g>
    </g>
  </g>
</svg>
