<?xml version="1.0" encoding="UTF-8" standalone="no"?>
<!-- Created with Inkscape (http://www.inkscape.org/) -->

<svg
   xmlns:dc="http://purl.org/dc/elements/1.1/"
   xmlns:cc="http://creativecommons.org/ns#"
   xmlns:rdf="http://www.w3.org/1999/02/22-rdf-syntax-ns#"
   xmlns:svg="http://www.w3.org/2000/svg"
   xmlns="http://www.w3.org/2000/svg"
   xmlns:sodipodi="http://sodipodi.sourceforge.net/DTD/sodipodi-0.dtd"
   xmlns:inkscape="http://www.inkscape.org/namespaces/inkscape"
   width="90"
   height="90"
   id="svg4874"
   version="1.1"
   inkscape:version="0.48+devel r"
   viewBox="0 0 90 90.000001"
   sodipodi:docname="merge05.svg">
  <defs
     id="defs4876" />
  <sodipodi:namedview
     id="base"
     pagecolor="#ffffff"
     bordercolor="#666666"
     borderopacity="1.0"
     inkscape:pageopacity="0.0"
     inkscape:pageshadow="2"
     inkscape:zoom="5.0931702"
     inkscape:cx="-2.6702466"
     inkscape:cy="45.67882"
     inkscape:document-units="px"
     inkscape:current-layer="g4281"
     showgrid="true"
     showborder="true"
     fit-margin-top="0"
     fit-margin-left="0"
     fit-margin-right="0"
     fit-margin-bottom="0"
     inkscape:snap-bbox="true"
     inkscape:bbox-paths="true"
     inkscape:bbox-nodes="true"
     inkscape:snap-bbox-edge-midpoints="true"
     inkscape:snap-bbox-midpoints="true"
     inkscape:object-paths="true"
     inkscape:snap-intersection-paths="true"
     inkscape:object-nodes="true"
     inkscape:snap-smooth-nodes="true"
     inkscape:snap-midpoints="true"
     inkscape:snap-object-midpoints="true"
     inkscape:snap-center="true"
     showguides="true"
     inkscape:guide-bbox="true">
    <inkscape:grid
       type="xygrid"
       id="grid5451"
       empspacing="6" />
    <sodipodi:guide
       orientation="1,0"
       position="9,71"
       id="guide4063" />
    <sodipodi:guide
       orientation="1,0"
       position="6,69"
       id="guide4065" />
    <sodipodi:guide
       orientation="0,1"
       position="64,87"
       id="guide4067" />
    <sodipodi:guide
       orientation="0,1"
       position="63,84"
       id="guide4069" />
    <sodipodi:guide
       orientation="0,1"
       position="78,3"
       id="guide4071" />
    <sodipodi:guide
       orientation="0,1"
       position="78,6"
       id="guide4073" />
    <sodipodi:guide
       orientation="1,0"
       position="84,75"
       id="guide4075" />
    <sodipodi:guide
       orientation="1,0"
       position="81,75"
       id="guide4077" />
    <sodipodi:guide
       orientation="0,1"
       position="72,81"
       id="guide4108" />
    <sodipodi:guide
       orientation="1,0"
       position="87,66"
       id="guide4110" />
    <sodipodi:guide
       orientation="1,0"
       position="3,65"
       id="guide4112" />
    <sodipodi:guide
       orientation="0,1"
       position="80,9"
       id="guide4114" />
  </sodipodi:namedview>
  <metadata
     id="metadata4879">
    <rdf:RDF>
      <cc:Work
         rdf:about="">
        <dc:format>image/svg+xml</dc:format>
        <dc:type
           rdf:resource="http://purl.org/dc/dcmitype/StillImage" />
        <dc:title></dc:title>
      </cc:Work>
    </rdf:RDF>
  </metadata>
  <g
     inkscape:label="Layer 1"
     inkscape:groupmode="layer"
     id="layer1"
     transform="translate(67.857146,-84.50504)">
    <g
       transform="translate(-241.85715,-577.86995)"
       id="g4281"
       inkscape:export-filename="save01.png"
       inkscape:export-xdpi="90"
       inkscape:export-ydpi="90">
      <rect
         style="color:#000000;fill:none;stroke:none;stroke-width:7.5;marker:none;visibility:visible;display:inline;overflow:visible;enable-background:accumulate"
         id="rect1803"
         width="90"
         height="90"
         x="174"
         y="662.36212" />
      <path
         inkscape:transform-center-y="17.994008"
         inkscape:transform-center-x="0.0125365"
         inkscape:connector-curvature="0"
         id="path1807"
         d="m 198.73271,701.37499 c 2.53742,-5.23845 5.27525,-10.54537 8.25196,-15.92879 3.88257,-6.93907 7.89784,-13.6356 12.02785,-20.07978 0.0142,0 0.0348,0.0233 0.05,0.0247 4.04361,6.43871 7.99887,13.12227 11.87782,20.05481 2.97488,5.38013 5.7402,10.69284 8.32698,15.92881 l -40.53464,2e-4 z"
         style="color:#000000;fill:#808080;fill-opacity:1;fill-rule:nonzero;stroke:none;stroke-width:3;marker:none;visibility:visible;display:inline;overflow:visible;enable-background:accumulate" />
      <rect
         y="662.36218"
         x="174"
         height="90"
         width="90"
         id="rect1813"
         style="color:#000000;fill:none;stroke:none;stroke-width:6;marker:none;visibility:visible;display:inline;overflow:visible;enable-background:accumulate" />
      <path
         style="font-size:15px;font-style:normal;font-variant:normal;font-weight:normal;font-stretch:normal;text-align:center;line-height:125%;letter-spacing:0px;word-spacing:0px;writing-mode:lr-tb;text-anchor:middle;fill:#808080;fill-opacity:1;stroke:none;font-family:Ubuntu;-inkscape-font-specification:Ubuntu"
         d="m 211.65946,698.20992 0,17.19549 c 0,3.9738 -0.32408,7.29562 -0.98672,9.94481 -0.74508,2.6492 -1.74872,4.76399 -2.99053,6.33696 -1.3246,1.57296 -2.88458,2.6858 -4.7059,3.3481 -1.82131,0.6623 -3.8605,0.98673 -6.09576,0.98673 -4.96724,0 -9.64735,-1.03555 -14.03507,-3.10522 l -2.84547,9.94481 c 2.31806,0.91066 4.71185,1.6974 7.19548,2.3597 2.48361,0.6623 5.55664,0.98672 9.19929,0.98672 3.9738,0 7.60317,-0.44745 10.91467,-1.35779 3.3115,-0.91067 6.16931,-2.58001 8.57015,-4.98085 1.16574,-1.16574 2.20558,-2.55038 3.1204,-4.15435 0.91483,1.60397 1.95467,2.98861 3.1204,4.15435 2.40084,2.40084 5.25866,4.07018 8.57016,4.98085 3.31149,0.91034 6.94086,1.35779 10.91466,1.35779 3.64265,0 6.71569,-0.32442 9.1993,-0.98672 2.48363,-0.6623 4.87742,-1.44904 7.19548,-2.3597 l -2.84547,-9.94481 c -4.38772,2.06967 -9.06784,3.10522 -14.03508,3.10522 -2.23526,0 -4.27444,-0.32443 -6.09575,-0.98673 -1.82132,-0.6623 -3.38131,-1.77514 -4.70591,-3.3481 -1.24181,-1.57297 -2.24544,-3.68776 -2.99052,-6.33696 -0.66264,-2.64919 -0.98673,-5.97101 -0.98673,-9.94481 l 0,-17.19549 -3.13558,0 -8.40992,0 z"
         id="path4102"
         inkscape:connector-curvature="0"
         sodipodi:nodetypes="csccssccsscscscssccssccscccc" />
    </g>
  </g>
</svg>
