<?xml version="1.0" encoding="UTF-8" standalone="no"?>
<!-- Created with Inkscape (http://www.inkscape.org/) -->

<svg
   xmlns:dc="http://purl.org/dc/elements/1.1/"
   xmlns:cc="http://creativecommons.org/ns#"
   xmlns:rdf="http://www.w3.org/1999/02/22-rdf-syntax-ns#"
   xmlns:svg="http://www.w3.org/2000/svg"
   xmlns="http://www.w3.org/2000/svg"
   xmlns:sodipodi="http://sodipodi.sourceforge.net/DTD/sodipodi-0.dtd"
   xmlns:inkscape="http://www.inkscape.org/namespaces/inkscape"
   width="90"
   height="90.000008"
   id="svg4829"
   version="1.1"
   inkscape:version="0.48+devel r12833"
   viewBox="0 0 90 90.000009"
   sodipodi:docname="star-unselected.svg">
  <defs
     id="defs4831" />
  <sodipodi:namedview
     id="base"
     pagecolor="#ffffff"
     bordercolor="#666666"
     borderopacity="1.0"
     inkscape:pageopacity="0.0"
     inkscape:pageshadow="2"
     inkscape:zoom="7.9580784"
     inkscape:cx="23.535833"
     inkscape:cy="40.097621"
     inkscape:document-units="px"
     inkscape:current-layer="g5007"
     showgrid="true"
     fit-margin-top="0"
     fit-margin-left="0"
     fit-margin-right="0"
     fit-margin-bottom="0"
     showguides="true"
     inkscape:guide-bbox="true"
     inkscape:snap-bbox="true"
     inkscape:bbox-paths="true"
     inkscape:bbox-nodes="true"
     inkscape:snap-bbox-edge-midpoints="true"
     inkscape:snap-bbox-midpoints="true"
     inkscape:object-paths="true"
     inkscape:snap-intersection-paths="true"
     inkscape:object-nodes="true"
     inkscape:snap-midpoints="true"
     inkscape:snap-smooth-nodes="true"
     inkscape:snap-object-midpoints="true"
     inkscape:snap-center="true">
    <inkscape:grid
       type="xygrid"
       id="grid5161"
       empspacing="6" />
    <sodipodi:guide
       orientation="0,1"
       position="55,87"
       id="guide4064" />
    <sodipodi:guide
       orientation="0,1"
       position="57,84"
       id="guide4066" />
    <sodipodi:guide
       orientation="0,1"
       position="58,81"
       id="guide4068" />
    <sodipodi:guide
       orientation="1,0"
       position="87,74"
       id="guide4070" />
    <sodipodi:guide
       orientation="1,0"
       position="84,72"
       id="guide4072" />
    <sodipodi:guide
       orientation="1,0"
       position="81,70"
       id="guide4074" />
    <sodipodi:guide
       orientation="1,0"
       position="3,48"
       id="guide4076" />
    <sodipodi:guide
       orientation="1,0"
       position="6,46"
       id="guide4078" />
    <sodipodi:guide
       orientation="1,0"
       position="9,44"
       id="guide4080" />
    <sodipodi:guide
       orientation="0,1"
       position="16,3"
       id="guide4082" />
    <sodipodi:guide
       orientation="0,1"
       position="19,6"
       id="guide4084" />
    <sodipodi:guide
       orientation="0,1"
       position="16,9"
       id="guide4086" />
  </sodipodi:namedview>
  <metadata
     id="metadata4834">
    <rdf:RDF>
      <cc:Work
         rdf:about="">
        <dc:format>image/svg+xml</dc:format>
        <dc:type
           rdf:resource="http://purl.org/dc/dcmitype/StillImage" />
        <dc:title></dc:title>
      </cc:Work>
    </rdf:RDF>
  </metadata>
  <g
     inkscape:label="Layer 1"
     inkscape:groupmode="layer"
     id="layer1"
     transform="translate(-289.28572,-458.79079)">
    <g
       id="g5007"
       transform="translate(121.28571,-2267.5714)">
      <path
         inkscape:connector-curvature="0"
         style="color:#000000;fill:#808080;fill-opacity:1;fill-rule:nonzero;stroke:none;stroke-width:3;marker:none;visibility:visible;display:inline;overflow:visible;enable-background:accumulate"
         d="m 212.9738,2732.368 c -0.006,0.01 0.004,0.028 0,0.028 l -0.029,0 c -6.06432,8.6932 -11.00557,17.5122 -14.44911,24.1689 -7.45889,1.1032 -17.08368,2.8711 -26.49004,5.6288 -0.005,0.014 -0.009,0.027 0,0.028 -0.005,0.014 0.029,0 0.029,0 0.0113,0.01 0,0.027 0,0.028 6.17855,8.5124 12.8444,16.0157 17.98886,21.4417 -1.09628,7.4214 -2.17171,16.9829 -2.26312,26.664 0.0115,0.011 0.0284,10e-5 0.029,0 0.0115,0.011 0.0282,4e-4 0.029,0 9.79173,-3.3887 18.75845,-7.5007 25.41651,-10.8223 6.76712,3.4171 15.7737,7.5626 25.18439,10.7642 0.008,-0.01 0.032,0.01 0.029,0 0.008,-0.01 2.8e-4,-0.028 0,-0.028 0.008,-0.01 2.8e-4,-0.027 0,-0.028 -0.14989,-10.2144 -1.20842,-19.8581 -2.2631,-27.1863 5.27155,-5.4686 11.95259,-12.9142 17.81476,-21.0064 -0.002,-0.01 -0.0189,0 -0.029,0 -0.0106,7e-4 -0.0278,-0.028 -0.029,-0.028 -9.78133,-2.8582 -19.29907,-4.7096 -26.6061,-5.8607 -3.50737,-6.7704 -8.47134,-15.5661 -14.33305,-23.7917 -0.006,-3e-4 -0.0246,-0.011 -0.029,0 z m 0.058,13.6947 c 2.95397,4.8228 5.65794,9.5445 7.71781,13.5206 l 1.71184,3.3367 3.71382,0.5802 c 4.28091,0.6745 9.44381,1.6989 14.85531,2.9304 -3.57363,4.2734 -7.10379,8.2654 -10.184,11.4607 l -2.52425,2.6113 0.52226,3.5978 c 0.62009,4.3084 1.1721,9.5682 1.59579,15.1163 -5.08907,-2.1344 -9.92536,-4.3337 -13.86883,-6.3251 l -3.30762,-1.6538 -3.33666,1.6538 c -3.94372,1.9675 -8.87966,4.1923 -14.12995,6.3832 0.41814,-5.2333 0.94019,-10.2651 1.56678,-14.5072 l 0.52226,-3.5687 -2.46621,-2.6113 c -3.08043,-3.2489 -6.72311,-7.4446 -10.44515,-11.9539 5.2438,-1.1444 10.30078,-2.0923 14.59419,-2.7273 l 3.77185,-0.5512 1.74086,-3.3657 c 2.06769,-3.997 4.873,-8.8775 7.9499,-13.9268 z"
         id="path5009"
         sodipodi:nodetypes="cscccccccccccccccccccccccccccccccccccccccccccc" />
      <g
         style="display:inline"
         transform="matrix(1.875,0,0,1.8750002,-372,933.18287)"
         id="g5011">
        <rect
           style="opacity:0.21171169;fill:none;stroke:none"
           id="rect5013"
           width="48"
           height="48"
           x="288"
           y="152"
           transform="translate(0,804.3622)" />
      </g>
    </g>
  </g>
</svg>
