<?xml version="1.0" encoding="UTF-8" standalone="no"?>
<!-- Created with Inkscape (http://www.inkscape.org/) -->

<svg
   xmlns:dc="http://purl.org/dc/elements/1.1/"
   xmlns:cc="http://creativecommons.org/ns#"
   xmlns:rdf="http://www.w3.org/1999/02/22-rdf-syntax-ns#"
   xmlns:svg="http://www.w3.org/2000/svg"
   xmlns="http://www.w3.org/2000/svg"
   xmlns:sodipodi="http://sodipodi.sourceforge.net/DTD/sodipodi-0.dtd"
   xmlns:inkscape="http://www.inkscape.org/namespaces/inkscape"
   width="90"
   height="90.000008"
   id="svg4829"
   version="1.1"
   inkscape:version="0.48+devel r"
   viewBox="0 0 90 90.000009"
   sodipodi:docname="non-starred.svg">
  <defs
     id="defs4831" />
  <sodipodi:namedview
     id="base"
     pagecolor="#ffffff"
     bordercolor="#666666"
     borderopacity="1.0"
     inkscape:pageopacity="0.0"
     inkscape:pageshadow="2"
     inkscape:zoom="9.947598"
     inkscape:cx="30.826538"
     inkscape:cy="55.96326"
     inkscape:document-units="px"
     inkscape:current-layer="g5007"
     showgrid="true"
     fit-margin-top="0"
     fit-margin-left="0"
     fit-margin-right="0"
     fit-margin-bottom="0"
     showguides="true"
     inkscape:guide-bbox="true"
     inkscape:snap-bbox="true"
     inkscape:bbox-paths="true"
     inkscape:bbox-nodes="true"
     inkscape:snap-bbox-edge-midpoints="true"
     inkscape:snap-bbox-midpoints="true"
     inkscape:object-paths="true"
     inkscape:snap-intersection-paths="true"
     inkscape:object-nodes="true"
     inkscape:snap-midpoints="true"
     inkscape:snap-smooth-nodes="true"
     inkscape:snap-object-midpoints="true"
     inkscape:snap-center="true">
    <inkscape:grid
       type="xygrid"
       id="grid5161"
       empspacing="6" />
    <sodipodi:guide
       orientation="0,1"
       position="55,87"
       id="guide4064" />
    <sodipodi:guide
       orientation="0,1"
       position="57,84"
       id="guide4066" />
    <sodipodi:guide
       orientation="0,1"
       position="58,81"
       id="guide4068" />
    <sodipodi:guide
       orientation="1,0"
       position="87,74"
       id="guide4070" />
    <sodipodi:guide
       orientation="1,0"
       position="84,72"
       id="guide4072" />
    <sodipodi:guide
       orientation="1,0"
       position="81,70"
       id="guide4074" />
    <sodipodi:guide
       orientation="1,0"
       position="3,48"
       id="guide4076" />
    <sodipodi:guide
       orientation="1,0"
       position="6,46"
       id="guide4078" />
    <sodipodi:guide
       orientation="1,0"
       position="9,44"
       id="guide4080" />
    <sodipodi:guide
       orientation="0,1"
       position="16,3"
       id="guide4082" />
    <sodipodi:guide
       orientation="0,1"
       position="19,6"
       id="guide4084" />
    <sodipodi:guide
       orientation="0,1"
       position="16,9"
       id="guide4086" />
  </sodipodi:namedview>
  <metadata
     id="metadata4834">
    <rdf:RDF>
      <cc:Work
         rdf:about="">
        <dc:format>image/svg+xml</dc:format>
        <dc:type
           rdf:resource="http://purl.org/dc/dcmitype/StillImage" />
        <dc:title></dc:title>
      </cc:Work>
    </rdf:RDF>
  </metadata>
  <g
     inkscape:label="Layer 1"
     inkscape:groupmode="layer"
     id="layer1"
     transform="translate(-289.28572,-458.79079)">
    <g
       id="g5007"
       transform="translate(121.28571,-2267.5714)">
      <path
         style="color:#000000;fill:#808080;fill-opacity:1;fill-rule:nonzero;stroke:none;stroke-width:3;marker:none;visibility:visible;display:inline;overflow:visible;enable-background:accumulate"
         d="M 44.974609 6.0058594 C 44.968609 6.0158594 44.978609 6.0332031 44.974609 6.0332031 L 44.945312 6.0332031 C 38.880993 14.726403 33.939634 23.546425 30.496094 30.203125 C 23.037204 31.306325 13.412219 33.074331 4.0058594 35.832031 C 4.0008594 35.846031 3.9968594 35.858375 4.0058594 35.859375 C 4.0008594 35.873375 4.0351562 35.859375 4.0351562 35.859375 C 4.0464562 35.869375 4.0351562 35.885719 4.0351562 35.886719 C 10.213706 44.399119 16.878978 51.904078 22.023438 57.330078 C 20.927158 64.751478 19.851176 74.313041 19.759766 83.994141 C 19.771266 84.005141 19.788463 83.994241 19.789062 83.994141 C 19.800562 84.005141 19.817559 83.994541 19.818359 83.994141 C 29.610089 80.605441 38.576315 76.493475 45.234375 73.171875 C 52.001495 76.588975 61.009232 80.733947 70.419922 83.935547 C 70.427922 83.925547 70.452219 83.945547 70.449219 83.935547 C 70.457219 83.925547 70.449499 83.90625 70.449219 83.90625 C 70.457219 83.89625 70.449499 83.879906 70.449219 83.878906 C 70.299329 73.664506 69.240227 64.021559 68.185547 56.693359 C 73.457097 51.224759 80.13783 43.777747 86 35.685547 C 85.998 35.675547 85.980803 35.685547 85.970703 35.685547 C 85.960103 35.686247 85.942606 35.658203 85.941406 35.658203 C 76.160076 32.800003 66.642967 30.947975 59.335938 29.796875 C 55.828568 23.026475 50.863663 14.231459 45.001953 6.0058594 C 44.995953 6.0055594 44.979009 5.9948594 44.974609 6.0058594 z M 45.029297 16.824219 L 45.029297 16.832031 L 46.310547 18.925781 C 49.279327 23.772781 51.998641 28.517563 54.082031 32.539062 L 55.447266 35.199219 L 58.408203 35.660156 C 62.736613 36.342156 67.925991 37.373928 73.363281 38.611328 L 75.753906 39.154297 L 74.181641 41.035156 C 70.591061 45.328756 67.041801 49.341819 63.925781 52.574219 L 61.912109 54.65625 L 62.330078 57.527344 C 62.956808 61.881944 63.509807 67.167188 63.935547 72.742188 L 64.123047 75.189453 L 61.859375 74.240234 C 56.746005 72.095634 51.886791 69.885947 47.900391 67.873047 L 45.261719 66.554688 L 42.597656 67.875 L 42.59375 67.875 C 38.60741 69.8637 33.64853 72.096275 28.375 74.296875 L 26.105469 75.244141 L 26.302734 72.794922 C 26.722634 67.539622 27.246929 62.481653 27.880859 58.189453 L 28.296875 55.339844 L 26.332031 53.257812 C 23.214191 49.969513 19.555469 45.754062 15.818359 41.226562 L 14.253906 39.332031 L 16.654297 38.806641 C 21.925787 37.656141 27.011109 36.702147 31.349609 36.060547 L 31.351562 36.060547 L 34.363281 35.621094 L 35.75 32.939453 C 37.84313 28.893253 40.66042 23.990122 43.75 18.919922 L 45.029297 16.824219 z "
         transform="translate(168.00001,2726.3622)"
         id="path4117" />
      <g
         style="display:inline"
         transform="matrix(1.875,0,0,1.8750002,-372,933.18287)"
         id="g5011">
        <rect
           style="opacity:0.21171169;fill:none;stroke:none"
           id="rect5013"
           width="48"
           height="48"
           x="288"
           y="152"
           transform="translate(0,804.3622)" />
      </g>
    </g>
  </g>
</svg>
