<?xml version="1.0" encoding="UTF-8" standalone="no"?>
<!-- Created with Inkscape (http://www.inkscape.org/) -->

<svg
   xmlns:dc="http://purl.org/dc/elements/1.1/"
   xmlns:cc="http://creativecommons.org/ns#"
   xmlns:rdf="http://www.w3.org/1999/02/22-rdf-syntax-ns#"
   xmlns:svg="http://www.w3.org/2000/svg"
   xmlns="http://www.w3.org/2000/svg"
   xmlns:sodipodi="http://sodipodi.sourceforge.net/DTD/sodipodi-0.dtd"
   xmlns:inkscape="http://www.inkscape.org/namespaces/inkscape"
   width="90"
   height="90"
   id="svg4874"
   version="1.1"
   inkscape:version="0.48+devel r"
   viewBox="0 0 90 90.000001"
   sodipodi:docname="new-private-tab.svg">
  <defs
     id="defs4876" />
  <sodipodi:namedview
     id="base"
     pagecolor="#ffffff"
     bordercolor="#666666"
     borderopacity="1.0"
     inkscape:pageopacity="0.0"
     inkscape:pageshadow="2"
     inkscape:zoom="7.9580786"
     inkscape:cx="45.023429"
     inkscape:cy="67.409488"
     inkscape:document-units="px"
     inkscape:current-layer="g4117"
     showgrid="true"
     showborder="true"
     fit-margin-top="0"
     fit-margin-left="0"
     fit-margin-right="0"
     fit-margin-bottom="0"
     inkscape:snap-bbox="true"
     inkscape:bbox-paths="true"
     inkscape:bbox-nodes="true"
     inkscape:snap-bbox-edge-midpoints="true"
     inkscape:snap-bbox-midpoints="true"
     inkscape:object-paths="true"
     inkscape:snap-intersection-paths="true"
     inkscape:object-nodes="true"
     inkscape:snap-smooth-nodes="true"
     inkscape:snap-midpoints="true"
     inkscape:snap-object-midpoints="true"
     inkscape:snap-center="true"
     showguides="true"
     inkscape:guide-bbox="true">
    <inkscape:grid
       type="xygrid"
       id="grid5451"
       empspacing="6" />
    <sodipodi:guide
       orientation="1,0"
       position="6,77"
       id="guide4063" />
    <sodipodi:guide
       orientation="1,0"
       position="3,78"
       id="guide4065" />
    <sodipodi:guide
       orientation="0,1"
       position="55,84"
       id="guide4067" />
    <sodipodi:guide
       orientation="0,1"
       position="53,87"
       id="guide4069" />
    <sodipodi:guide
       orientation="0,1"
       position="20,3"
       id="guide4071" />
    <sodipodi:guide
       orientation="0,1"
       position="20,6"
       id="guide4073" />
    <sodipodi:guide
       orientation="1,0"
       position="87,7"
       id="guide4075" />
    <sodipodi:guide
       orientation="1,0"
       position="84,7"
       id="guide4077" />
    <sodipodi:guide
       orientation="0,1"
       position="58,81"
       id="guide4074" />
    <sodipodi:guide
       orientation="1,0"
       position="9,74"
       id="guide4076" />
    <sodipodi:guide
       orientation="0,1"
       position="21,9"
       id="guide4078" />
    <sodipodi:guide
       orientation="1,0"
       position="81,4"
       id="guide4080" />
  </sodipodi:namedview>
  <metadata
     id="metadata4879">
    <rdf:RDF>
      <cc:Work
         rdf:about="">
        <dc:format>image/svg+xml</dc:format>
        <dc:type
           rdf:resource="http://purl.org/dc/dcmitype/StillImage" />
        <dc:title></dc:title>
      </cc:Work>
    </rdf:RDF>
  </metadata>
  <g
     inkscape:label="Layer 1"
     inkscape:groupmode="layer"
     id="layer1"
     transform="translate(67.857146,-84.50504)">
    <g
       transform="matrix(0,-1,-1,0,373.50506,516.50504)"
       id="g4845"
       style="display:inline">
      <g
         id="g4117">
        <rect
           transform="matrix(0,-1,-1,0,0,0)"
           y="-432"
           x="-441.36221"
           height="90"
           width="90"
           id="rect4674"
           style="opacity:0.21171169;fill:none;stroke:none" />
        <path
           style="color:#000000;fill:#808080;fill-opacity:1;fill-rule:nonzero;stroke:none;stroke-width:7.5;marker:none;visibility:visible;display:inline;overflow:visible;enable-background:accumulate"
           d="m 382.49995,375.36221 1.50004,-6 -41.99997,0 0,6 z"
           id="path4680"
           inkscape:connector-curvature="0"
           sodipodi:nodetypes="ccccc" />
        <rect
           transform="scale(-1,1)"
           style="color:#000000;fill:#808080;fill-opacity:1;fill-rule:nonzero;stroke:none;stroke-width:7.5;marker:none;visibility:visible;display:inline;overflow:visible;enable-background:accumulate"
           id="rect4682"
           width="5.9999876"
           height="42"
           x="-366"
           y="351.36221" />
        <path
           inkscape:connector-curvature="0"
           style="font-size:14.46281052px;font-style:normal;font-variant:normal;font-weight:normal;font-stretch:normal;text-align:center;line-height:125%;letter-spacing:0px;word-spacing:0px;writing-mode:lr-tb;text-anchor:middle;fill:#808080;fill-opacity:1;stroke:none;display:inline;font-family:Ubuntu;-inkscape-font-specification:Ubuntu"
           d="m 429,405.36221 c 0,7.0413 -0.9332,13.63561 -2.79844,19.78438 -1.90507,6.09916 -4.45425,11.50488 -7.55,16.21562 l -0.85156,0 -3.02812,0 -17.77189,0 -2.4,0 c -1.91463,-2.19835 -3.49052,-4.72091 -4.66875,-7.56719 -1.15361,-2.86941 -1.73124,-5.94686 -1.73124,-9.23281 0,-3.28595 0.57763,-6.35217 1.73124,-9.19845 1.17823,-2.86944 2.75412,-5.40322 4.66875,-7.60155 0.26103,-0.31407 0.4721,-0.67465 0.63282,-1.08127 0.15736,-0.40991 0.23594,-0.84932 0.23594,-1.31873 0,-0.46943 -0.0784,-0.90747 -0.23594,-1.31409 -0.16072,-0.40992 -0.37179,-0.77187 -0.63282,-1.08591 -1.91463,-2.19837 -3.49052,-4.72092 -4.66875,-7.5672 -1.15361,-2.86942 -1.73124,-5.94688 -1.73124,-9.2328 0,-3.28596 0.57763,-6.35218 1.73124,-9.19846 1.17823,-2.86943 2.75412,-5.40322 4.66875,-7.60154 l 2.4,0 17.77189,0 3.02812,0 0.85156,0 c 3.09575,4.71073 5.64493,10.14027 7.55,16.28905 C 428.0668,391.75043 429,398.32087 429,405.36221 Z m -16.87344,16.8 c 0,-2.34712 -0.39397,-4.53727 -1.18438,-6.57033 -0.80703,-2.04958 -1.86644,-3.85944 -3.17811,-5.42967 -1.3116,1.57023 -2.37101,3.38009 -3.17813,5.42967 -0.79032,2.03306 -1.18594,4.22321 -1.18594,6.57033 0,2.3471 0.39562,4.54572 1.18594,6.59531 0.80712,2.03306 1.86653,3.83444 3.17813,5.40469 1.31167,-1.57025 2.37108,-3.37163 3.17811,-5.40469 0.79041,-2.04959 1.18438,-4.24821 1.18438,-6.59531 z m 0,-33.6 c 0,-2.34713 -0.39397,-4.53728 -1.18438,-6.57034 -0.80703,-2.04959 -1.86644,-3.85943 -3.17811,-5.42966 -1.3116,1.57023 -2.37101,3.38007 -3.17813,5.42966 -0.79032,2.03306 -1.18594,4.22321 -1.18594,6.57034 0,2.3471 0.39562,4.54572 1.18594,6.59531 0.80712,2.03305 1.86653,3.83443 3.17813,5.40469 1.31167,-1.57026 2.37108,-3.37164 3.17811,-5.40469 0.79041,-2.04959 1.18438,-4.24821 1.18438,-6.59531 z"
           id="path4120" />
      </g>
    </g>
  </g>
</svg>
