<?xml version="1.0" encoding="UTF-8" standalone="no"?>
<!-- Created with Inkscape (http://www.inkscape.org/) -->

<svg
   xmlns:dc="http://purl.org/dc/elements/1.1/"
   xmlns:cc="http://creativecommons.org/ns#"
   xmlns:rdf="http://www.w3.org/1999/02/22-rdf-syntax-ns#"
   xmlns:svg="http://www.w3.org/2000/svg"
   xmlns="http://www.w3.org/2000/svg"
   xmlns:sodipodi="http://sodipodi.sourceforge.net/DTD/sodipodi-0.dtd"
   xmlns:inkscape="http://www.inkscape.org/namespaces/inkscape"
   width="90"
   height="90"
   id="svg4874"
   version="1.1"
   inkscape:version="0.48+devel r"
   viewBox="0 0 90 90.000001"
   sodipodi:docname="private-browsing.svg">
  <defs
     id="defs4876" />
  <sodipodi:namedview
     id="base"
     pagecolor="#ffffff"
     bordercolor="#666666"
     borderopacity="1.0"
     inkscape:pageopacity="0.0"
     inkscape:pageshadow="2"
     inkscape:zoom="7.9580786"
     inkscape:cx="38.696525"
     inkscape:cy="43.546944"
     inkscape:document-units="px"
     inkscape:current-layer="g1708"
     showgrid="true"
     showborder="true"
     fit-margin-top="0"
     fit-margin-left="0"
     fit-margin-right="0"
     fit-margin-bottom="0"
     inkscape:snap-bbox="true"
     inkscape:bbox-paths="true"
     inkscape:bbox-nodes="true"
     inkscape:snap-bbox-edge-midpoints="true"
     inkscape:snap-bbox-midpoints="true"
     inkscape:object-paths="true"
     inkscape:snap-intersection-paths="true"
     inkscape:object-nodes="true"
     inkscape:snap-smooth-nodes="true"
     inkscape:snap-midpoints="true"
     inkscape:snap-object-midpoints="true"
     inkscape:snap-center="true"
     showguides="true"
     inkscape:guide-bbox="true">
    <inkscape:grid
       type="xygrid"
       id="grid5451"
       empspacing="6" />
    <sodipodi:guide
       orientation="1,0"
       position="6,77"
       id="guide4063" />
    <sodipodi:guide
       orientation="1,0"
       position="3,78"
       id="guide4065" />
    <sodipodi:guide
       orientation="0,1"
       position="55,84"
       id="guide4067" />
    <sodipodi:guide
       orientation="0,1"
       position="53,87"
       id="guide4069" />
    <sodipodi:guide
       orientation="0,1"
       position="20,3"
       id="guide4071" />
    <sodipodi:guide
       orientation="0,1"
       position="20,6"
       id="guide4073" />
    <sodipodi:guide
       orientation="1,0"
       position="87,7"
       id="guide4075" />
    <sodipodi:guide
       orientation="1,0"
       position="84,7"
       id="guide4077" />
    <sodipodi:guide
       orientation="0,1"
       position="58,81"
       id="guide4074" />
    <sodipodi:guide
       orientation="1,0"
       position="9,74"
       id="guide4076" />
    <sodipodi:guide
       orientation="0,1"
       position="21,9"
       id="guide4078" />
    <sodipodi:guide
       orientation="1,0"
       position="81,4"
       id="guide4080" />
  </sodipodi:namedview>
  <metadata
     id="metadata4879">
    <rdf:RDF>
      <cc:Work
         rdf:about="">
        <dc:format>image/svg+xml</dc:format>
        <dc:type
           rdf:resource="http://purl.org/dc/dcmitype/StillImage" />
        <dc:title></dc:title>
      </cc:Work>
    </rdf:RDF>
  </metadata>
  <g
     inkscape:label="Layer 1"
     inkscape:groupmode="layer"
     id="layer1"
     transform="translate(67.857146,-84.50504)">
    <g
       transform="matrix(0,-1,-1,0,373.50506,516.50504)"
       id="g4845"
       style="display:inline">
      <g
         inkscape:label="Layer 1"
         id="g1708"
         transform="matrix(0,-1,-1,0,1394.3622,441.36221)"
         inkscape:export-filename="add01.png"
         inkscape:export-xdpi="90"
         inkscape:export-ydpi="90">
        <path
           style="font-size:14.46281052px;font-style:normal;font-variant:normal;font-weight:normal;font-stretch:normal;text-align:center;line-height:125%;letter-spacing:0px;word-spacing:0px;writing-mode:lr-tb;text-anchor:middle;fill:#808080;fill-opacity:1;stroke:none;font-family:Ubuntu;-inkscape-font-specification:Ubuntu"
           d="M 45 18 C 36.198348 18 27.955481 19.166507 20.269531 21.498047 C 12.645562 23.879387 5.8884283 27.065867 0 30.935547 L 0 32 L 0 35.785156 L 0 58 L 0 61 C 2.7479334 63.3933 5.901132 65.363138 9.4589844 66.835938 C 13.04576 68.277937 16.892562 69 21 69 C 25.107436 69 28.940193 68.277937 32.498047 66.835938 C 36.084826 65.363138 39.252066 63.3933 42 61 C 42.392562 60.6737 42.843303 60.409884 43.351562 60.208984 C 43.863958 60.012284 44.413223 59.914062 45 59.914062 C 45.586775 59.914062 46.134314 60.012084 46.642578 60.208984 C 47.154975 60.409884 47.607438 60.6737 48 61 C 50.747933 63.3933 53.901131 65.363138 57.458984 66.835938 C 61.04576 68.277937 64.892562 69 69 69 C 73.107436 69 76.940193 68.277937 80.498047 66.835938 C 84.084826 65.363138 87.252066 63.3933 90 61 L 90 58 L 90 35.785156 L 90 32 L 90 30.935547 C 84.111571 27.065867 77.324627 23.879387 69.638672 21.498047 C 62.014699 19.166507 53.801649 18 45 18 z M 24 39.091797 C 26.933883 39.091797 29.671568 39.584266 32.212891 40.572266 C 34.774877 41.581066 37.03719 42.905322 39 44.544922 C 37.03719 46.184422 34.774877 47.508678 32.212891 48.517578 C 29.671568 49.505478 26.933883 50 24 50 C 21.066116 50 18.317843 49.505478 15.755859 48.517578 C 13.214536 47.508678 10.962809 46.184422 9 44.544922 C 10.962809 42.905322 13.214536 41.581066 15.755859 40.572266 C 18.317843 39.584266 21.066116 39.091797 24 39.091797 z M 66 39.091797 C 68.933883 39.091797 71.671568 39.584266 74.212891 40.572266 C 76.774877 41.581066 79.03719 42.905322 81 44.544922 C 79.03719 46.184422 76.774877 47.508678 74.212891 48.517578 C 71.671568 49.505478 68.933883 50 66 50 C 63.066116 50 60.317843 49.505478 57.755859 48.517578 C 55.214536 47.508678 52.962809 46.184422 51 44.544922 C 52.962809 42.905322 55.214536 41.581066 57.755859 40.572266 C 60.317843 39.584266 63.066116 39.091797 66 39.091797 z "
           transform="translate(3.5e-6,962.3622)"
           id="path4120" />
        <rect
           style="color:#000000;fill:none;stroke:none;stroke-width:7.5;marker:none;visibility:visible;display:inline;overflow:visible;enable-background:accumulate"
           id="rect1710"
           width="90"
           height="90"
           x="0"
           y="962.36218" />
      </g>
    </g>
  </g>
</svg>
