<?xml version="1.0" encoding="UTF-8" standalone="no"?>
<!-- Created with Inkscape (http://www.inkscape.org/) -->

<svg
   xmlns:dc="http://purl.org/dc/elements/1.1/"
   xmlns:cc="http://creativecommons.org/ns#"
   xmlns:rdf="http://www.w3.org/1999/02/22-rdf-syntax-ns#"
   xmlns:svg="http://www.w3.org/2000/svg"
   xmlns="http://www.w3.org/2000/svg"
   xmlns:sodipodi="http://sodipodi.sourceforge.net/DTD/sodipodi-0.dtd"
   xmlns:inkscape="http://www.inkscape.org/namespaces/inkscape"
   width="90"
   height="90"
   id="svg4874"
   version="1.1"
   inkscape:version="0.48+devel r"
   viewBox="0 0 90 90.000001"
   sodipodi:docname="browser-alert02.svg">
  <defs
     id="defs4876" />
  <sodipodi:namedview
     id="base"
     pagecolor="#ffffff"
     bordercolor="#666666"
     borderopacity="1.0"
     inkscape:pageopacity="0.0"
     inkscape:pageshadow="2"
     inkscape:zoom="9.9475983"
     inkscape:cx="46.126712"
     inkscape:cy="47.142033"
     inkscape:document-units="px"
     inkscape:current-layer="g1311"
     showgrid="true"
     showborder="true"
     fit-margin-top="0"
     fit-margin-left="0"
     fit-margin-right="0"
     fit-margin-bottom="0"
     inkscape:snap-bbox="true"
     inkscape:bbox-paths="true"
     inkscape:bbox-nodes="true"
     inkscape:snap-bbox-edge-midpoints="true"
     inkscape:snap-bbox-midpoints="true"
     inkscape:object-paths="true"
     inkscape:snap-intersection-paths="true"
     inkscape:object-nodes="true"
     inkscape:snap-smooth-nodes="true"
     inkscape:snap-midpoints="true"
     inkscape:snap-object-midpoints="true"
     inkscape:snap-center="true"
     showguides="true"
     inkscape:guide-bbox="true">
    <inkscape:grid
       type="xygrid"
       id="grid5451"
       empspacing="6" />
    <sodipodi:guide
       orientation="1,0"
       position="6,77"
       id="guide4063" />
    <sodipodi:guide
       orientation="1,0"
       position="3,78"
       id="guide4065" />
    <sodipodi:guide
       orientation="0,1"
       position="55,84"
       id="guide4067" />
    <sodipodi:guide
       orientation="0,1"
       position="53,87"
       id="guide4069" />
    <sodipodi:guide
       orientation="0,1"
       position="20,3"
       id="guide4071" />
    <sodipodi:guide
       orientation="0,1"
       position="20,6"
       id="guide4073" />
    <sodipodi:guide
       orientation="1,0"
       position="87,7"
       id="guide4075" />
    <sodipodi:guide
       orientation="1,0"
       position="84,7"
       id="guide4077" />
    <sodipodi:guide
       orientation="0,1"
       position="58,81"
       id="guide4074" />
    <sodipodi:guide
       orientation="1,0"
       position="9,74"
       id="guide4076" />
    <sodipodi:guide
       orientation="0,1"
       position="21,9"
       id="guide4078" />
    <sodipodi:guide
       orientation="1,0"
       position="81,4"
       id="guide4080" />
  </sodipodi:namedview>
  <metadata
     id="metadata4879">
    <rdf:RDF>
      <cc:Work
         rdf:about="">
        <dc:format>image/svg+xml</dc:format>
        <dc:type
           rdf:resource="http://purl.org/dc/dcmitype/StillImage" />
        <dc:title></dc:title>
      </cc:Work>
    </rdf:RDF>
  </metadata>
  <g
     inkscape:label="Layer 1"
     inkscape:groupmode="layer"
     id="layer1"
     transform="translate(67.857146,-84.50504)">
    <g
       transform="matrix(0,-1,-1,0,373.50506,516.50504)"
       id="g4845"
       style="display:inline">
      <g
         transform="matrix(0,-1,-1,0,567.36222,615.36221)"
         id="g1311"
         inkscape:export-filename="envelope02.png"
         inkscape:export-xdpi="90"
         inkscape:export-ydpi="90">
        <g
           id="g1313"
           transform="matrix(1.875,0,0,1.875,-366,-1657.8169)">
          <rect
             transform="translate(0,804.3622)"
             y="152"
             x="288"
             height="48"
             width="48"
             id="rect1315"
             style="opacity:0.21171169;fill:none;stroke:none" />
        </g>
        <path
           style="color:#000000;display:inline;overflow:visible;visibility:visible;fill:#df382c;fill-opacity:1;fill-rule:nonzero;stroke:none;stroke-width:3;marker:none;enable-background:accumulate"
           d="m 215,162.36222 0,8.9668 c 0,2.63533 0.12502,5.07657 0.37305,7.32617 0.248,2.21747 0.5808,4.45146 0.99414,6.70117 l 5.32812,0 c 0.37204,-2.24971 0.68364,-4.4837 0.93164,-6.70117 C 222.87497,176.4376 223,173.99659 223,171.32902 l 0,-8.9668 -8,0 z m 4,27 c -1.23751,0 -2.30703,0.43478 -3.20703,1.30273 -0.86251,0.83022 -1.29297,1.904 -1.29297,3.22461 0,1.32094 0.43046,2.39635 1.29297,3.22657 0.9,0.83022 1.96952,1.24609 3.20703,1.24609 1.27501,0 2.34452,-0.41587 3.20703,-1.24609 0.86251,-0.83022 1.29297,-1.90563 1.29297,-3.22657 0,-1.32061 -0.43046,-2.39439 -1.29297,-3.22461 -0.86251,-0.86795 -1.93202,-1.30273 -3.20703,-1.30273 z"
           id="path4116"
           inkscape:connector-curvature="0" />
        <path
           style="color:#000000;display:inline;overflow:visible;visibility:visible;opacity:1;fill:#df382c;fill-opacity:1;fill-rule:nonzero;stroke:none;stroke-width:8;marker:none;enable-background:accumulate"
           d="M 45 0 C 45 0 35.356858 16.072266 9.6425781 16.072266 C 9.6425781 70.715115 45 90 45 90 C 45 90 80.357422 70.715115 80.357422 16.072266 C 54.643142 16.072266 45 0 45 0 z M 45 9.4726562 L 45.673828 10.085938 C 46.798488 11.110356 47.985902 12.142591 49.388672 13.144531 C 54.684312 16.927151 62.604557 20.501476 72.935547 21.759766 L 73.869141 21.873047 L 73.814453 22.810547 C 72.519263 44.972167 65.068544 59.989992 57.677734 69.732422 C 52.592794 76.435292 48.497251 79.867214 45.587891 81.976562 L 45 82.402344 L 44.412109 81.976562 C 41.502749 79.867214 37.407206 76.435292 32.322266 69.732422 C 24.931456 59.989992 17.480737 44.972167 16.185547 22.810547 L 16.130859 21.873047 L 17.064453 21.759766 C 27.395443 20.501476 35.315688 16.927151 40.611328 13.144531 C 42.014098 12.142591 43.201512 11.110356 44.326172 10.085938 L 45 9.4726562 z "
           transform="translate(174,135.36222)"
           id="path4155" />
      </g>
    </g>
  </g>
</svg>
