<?xml version="1.0" encoding="UTF-8" standalone="no"?>
<!-- Created with Inkscape (http://www.inkscape.org/) -->

<svg
   xmlns:dc="http://purl.org/dc/elements/1.1/"
   xmlns:cc="http://creativecommons.org/ns#"
   xmlns:rdf="http://www.w3.org/1999/02/22-rdf-syntax-ns#"
   xmlns:svg="http://www.w3.org/2000/svg"
   xmlns="http://www.w3.org/2000/svg"
   xmlns:sodipodi="http://sodipodi.sourceforge.net/DTD/sodipodi-0.dtd"
   xmlns:inkscape="http://www.inkscape.org/namespaces/inkscape"
   width="90"
   height="90"
   id="svg4874"
   version="1.1"
   inkscape:version="0.48+devel r12833"
   viewBox="0 0 90 90.000001"
   sodipodi:docname="share.svg">
  <defs
     id="defs4876" />
  <sodipodi:namedview
     id="base"
     pagecolor="#ffffff"
     bordercolor="#666666"
     borderopacity="1.0"
     inkscape:pageopacity="0.0"
     inkscape:pageshadow="2"
     inkscape:zoom="5.0931703"
     inkscape:cx="12.644382"
     inkscape:cy="59.147836"
     inkscape:document-units="px"
     inkscape:current-layer="g5521"
     showgrid="true"
     showborder="true"
     fit-margin-top="0"
     fit-margin-left="0"
     fit-margin-right="0"
     fit-margin-bottom="0"
     inkscape:snap-bbox="true"
     inkscape:bbox-paths="true"
     inkscape:bbox-nodes="true"
     inkscape:snap-bbox-edge-midpoints="true"
     inkscape:snap-bbox-midpoints="true"
     inkscape:object-paths="true"
     inkscape:snap-intersection-paths="true"
     inkscape:object-nodes="true"
     inkscape:snap-smooth-nodes="true"
     inkscape:snap-midpoints="true"
     inkscape:snap-object-midpoints="true"
     inkscape:snap-center="true"
     showguides="true"
     inkscape:guide-bbox="true">
    <inkscape:grid
       type="xygrid"
       id="grid5451"
       empspacing="6" />
    <sodipodi:guide
       orientation="1,0"
       position="6,77"
       id="guide4063" />
    <sodipodi:guide
       orientation="1,0"
       position="3,78"
       id="guide4065" />
    <sodipodi:guide
       orientation="0,1"
       position="55,84"
       id="guide4067" />
    <sodipodi:guide
       orientation="0,1"
       position="53,87"
       id="guide4069" />
    <sodipodi:guide
       orientation="0,1"
       position="20,3"
       id="guide4071" />
    <sodipodi:guide
       orientation="0,1"
       position="20,6"
       id="guide4073" />
    <sodipodi:guide
       orientation="1,0"
       position="87,7"
       id="guide4075" />
    <sodipodi:guide
       orientation="1,0"
       position="84,7"
       id="guide4077" />
    <sodipodi:guide
       orientation="0,1"
       position="58,81"
       id="guide4074" />
    <sodipodi:guide
       orientation="1,0"
       position="9,74"
       id="guide4076" />
    <sodipodi:guide
       orientation="0,1"
       position="21,9"
       id="guide4078" />
    <sodipodi:guide
       orientation="1,0"
       position="81,4"
       id="guide4080" />
  </sodipodi:namedview>
  <metadata
     id="metadata4879">
    <rdf:RDF>
      <cc:Work
         rdf:about="">
        <dc:format>image/svg+xml</dc:format>
        <dc:type
           rdf:resource="http://purl.org/dc/dcmitype/StillImage" />
        <dc:title></dc:title>
      </cc:Work>
    </rdf:RDF>
  </metadata>
  <g
     inkscape:label="Layer 1"
     inkscape:groupmode="layer"
     id="layer1"
     transform="translate(67.857146,-84.50504)">
    <g
       transform="matrix(0,-1,-1,0,373.50506,516.50504)"
       id="g4845"
       style="display:inline">
      <g
         transform="matrix(0,-1,-1,0,3680.3623,609.36221)"
         id="g5521">
        <path
           sodipodi:nodetypes="cccssccsczcsccssccsssccscccsccccccsc"
           inkscape:connector-curvature="0"
           id="path5486"
           d="m 229.50546,3251.3735 c -2.87921,0.126 -5.70529,1.2498 -7.88485,3.1354 l -4.99788,4.1907 0,3.0112 c 0,2.8601 -0.26746,5.4482 -0.80711,7.8227 -0.53964,2.3745 -1.5068,4.4115 -2.85593,6.0844 -1.29516,1.7269 -3.03365,3.056 -5.24622,3.9735 -2.21256,0.9713 -5.00466,1.4589 -8.35049,1.4589 -3.27173,0 -5.6367,-0.2148 -8.24185,-0.5897 -4.87797,2.861 -7.15962,7.2637 -7.15962,13.1 0,5.8364 2.78252,9.0981 7.15962,13.2862 2.32345,-0.2781 5.4239,-0.4035 8.24185,-0.4035 3.34583,0 6.13793,0.4876 8.35049,1.459 2.21257,0.9173 3.95106,2.2465 5.24622,3.9735 1.34913,1.6727 2.31629,3.6788 2.85593,6.0533 0.53965,2.3744 0.80711,4.9935 0.80711,7.8538 l 0,2.1729 4.84267,4.0977 c 2.56073,2.3164 6.07996,3.5387 9.52525,3.3085 3.44528,-0.2304 6.77053,-1.9102 9.00021,-4.5468 2.22968,-2.6366 3.33397,-6.1946 2.98888,-9.6303 -0.34507,-3.4356 -2.1349,-6.703 -4.8444,-8.8435 l -3.4147,-2.887 -8.90926,0 c -2.31782,0 -4.45876,-0.3229 -6.45689,-0.9623 -1.99812,-0.5994 -3.73656,-1.5681 -5.21517,-2.887 -1.43866,-1.2786 -2.57549,-2.9067 -3.4147,-4.9047 -0.83922,-1.9583 -1.27275,-4.2983 -1.27275,-7.0157 0,-2.7173 0.43353,-5.0795 1.27275,-7.0778 0.83921,-1.9979 1.97604,-3.6261 3.4147,-4.9046 1.47861,-1.279 3.21705,-2.2476 5.21517,-2.887 1.99813,-0.5994 4.13907,-0.9 6.45689,-0.9003 l 8.07111,0 4.31494,-3.601 c 4.19051,-3.3925 5.86102,-9.5719 3.95069,-14.6138 -1.91033,-5.0418 -7.25616,-8.5627 -12.64266,-8.3267 z"
           style="font-style:normal;font-variant:normal;font-weight:normal;font-stretch:normal;text-indent:0;text-align:start;text-decoration:none;line-height:normal;letter-spacing:normal;word-spacing:normal;text-transform:none;direction:ltr;block-progression:tb;writing-mode:lr-tb;text-anchor:start;baseline-shift:baseline;color:#000000;color-interpolation:sRGB;color-interpolation-filters:linearRGB;fill:#808080;fill-opacity:1;stroke:none;stroke-width:26;marker:none;visibility:visible;display:inline;overflow:visible;enable-background:accumulate;clip-rule:nonzero;color-rendering:auto;image-rendering:auto;shape-rendering:auto;text-rendering:auto;font-family:sans-serif;-inkscape-font-specification:sans-serif" />
        <rect
           y="3248.3623"
           x="168"
           height="90"
           width="90"
           id="rect2988-8-7"
           style="opacity:0.1;color:#000000;fill:none;stroke:none;stroke-width:4;marker:none;visibility:visible;display:inline;overflow:visible;enable-background:accumulate" />
      </g>
    </g>
  </g>
</svg>
