<?xml version="1.0" encoding="UTF-8" standalone="no"?>
<!-- Created with Inkscape (http://www.inkscape.org/) -->

<svg
   xmlns:dc="http://purl.org/dc/elements/1.1/"
   xmlns:cc="http://creativecommons.org/ns#"
   xmlns:rdf="http://www.w3.org/1999/02/22-rdf-syntax-ns#"
   xmlns:svg="http://www.w3.org/2000/svg"
   xmlns="http://www.w3.org/2000/svg"
   xmlns:sodipodi="http://sodipodi.sourceforge.net/DTD/sodipodi-0.dtd"
   xmlns:inkscape="http://www.inkscape.org/namespaces/inkscape"
   width="90"
   height="90.000008"
   id="svg4829"
   version="1.1"
   inkscape:version="0.48+devel r12833"
   viewBox="0 0 90 90.000009"
   sodipodi:docname="star-selected.svg">
  <defs
     id="defs4831" />
  <sodipodi:namedview
     id="base"
     pagecolor="#ffffff"
     bordercolor="#666666"
     borderopacity="1.0"
     inkscape:pageopacity="0.0"
     inkscape:pageshadow="2"
     inkscape:zoom="9.9475979"
     inkscape:cx="57.042061"
     inkscape:cy="48.024805"
     inkscape:document-units="px"
     inkscape:current-layer="g4976"
     showgrid="true"
     fit-margin-top="0"
     fit-margin-left="0"
     fit-margin-right="0"
     fit-margin-bottom="0"
     showguides="true"
     inkscape:guide-bbox="true"
     inkscape:snap-bbox="true"
     inkscape:bbox-paths="true"
     inkscape:bbox-nodes="true"
     inkscape:snap-bbox-edge-midpoints="true"
     inkscape:snap-bbox-midpoints="true"
     inkscape:object-paths="true"
     inkscape:snap-intersection-paths="true"
     inkscape:object-nodes="true"
     inkscape:snap-smooth-nodes="true"
     inkscape:snap-midpoints="true"
     inkscape:snap-object-midpoints="true"
     inkscape:snap-center="true">
    <inkscape:grid
       type="xygrid"
       id="grid5163"
       empspacing="6" />
    <sodipodi:guide
       orientation="0,1"
       position="48,87"
       id="guide4064" />
    <sodipodi:guide
       orientation="0,1"
       position="51,84"
       id="guide4066" />
    <sodipodi:guide
       orientation="0,1"
       position="53,81"
       id="guide4068" />
    <sodipodi:guide
       orientation="1,0"
       position="3,68"
       id="guide4070" />
    <sodipodi:guide
       orientation="1,0"
       position="6,64"
       id="guide4072" />
    <sodipodi:guide
       orientation="1,0"
       position="9,63"
       id="guide4074" />
    <sodipodi:guide
       orientation="0,1"
       position="38,3"
       id="guide4076" />
    <sodipodi:guide
       orientation="0,1"
       position="40,6"
       id="guide4078" />
    <sodipodi:guide
       orientation="0,1"
       position="43,9"
       id="guide4080" />
    <sodipodi:guide
       orientation="1,0"
       position="87,9"
       id="guide4082" />
    <sodipodi:guide
       orientation="1,0"
       position="84,9"
       id="guide4084" />
    <sodipodi:guide
       orientation="1,0"
       position="81,10"
       id="guide4086" />
  </sodipodi:namedview>
  <metadata
     id="metadata4834">
    <rdf:RDF>
      <cc:Work
         rdf:about="">
        <dc:format>image/svg+xml</dc:format>
        <dc:type
           rdf:resource="http://purl.org/dc/dcmitype/StillImage" />
        <dc:title></dc:title>
      </cc:Work>
    </rdf:RDF>
  </metadata>
  <g
     inkscape:label="Layer 1"
     inkscape:groupmode="layer"
     id="layer1"
     transform="translate(-193.35488,-375.71469)">
    <g
       transform="translate(25.354884,-2350.6475)"
       id="g4976">
      <path
         style="color:#000000;fill:#808080;fill-opacity:1;fill-rule:nonzero;stroke:none;stroke-width:3;marker:none;visibility:visible;display:inline;overflow:visible;enable-background:accumulate"
         d="m 212.97374,2732.3678 c -0.006,0.01 0.004,0.028 0,0.028 l -0.0289,0 c -6.06434,8.6931 -11.00559,17.5123 -14.44915,24.1687 -7.4589,1.1033 -17.08371,2.8713 -26.49009,5.629 -0.005,0.014 -0.009,0.027 0,0.028 -0.005,0.014 0.029,0 0.029,0 0.0113,0.011 0,0.027 0,0.028 6.17855,8.5123 12.84442,16.0157 17.9889,21.4417 -1.0963,7.4214 -2.17173,16.983 -2.26313,26.6642 0.0114,0.01 0.0284,1e-4 0.0291,0 0.0114,0.01 0.0281,3e-4 0.029,0 9.79175,-3.3888 18.75849,-7.5009 25.41657,-10.8224 6.76712,3.4172 15.77373,7.5625 25.18445,10.7643 0.008,-0.01 0.032,0.01 0.0289,0 0.008,-0.01 2.9e-4,-0.027 0,-0.028 0.008,-0.01 2.9e-4,-0.028 0,-0.028 -0.14989,-10.2144 -1.20841,-19.8583 -2.26311,-27.1864 5.27157,-5.4685 11.95263,-12.9142 17.81481,-21.0064 -0.002,-0.01 -0.0189,0 -0.0289,0 -0.0106,7e-4 -0.0278,-0.028 -0.0291,-0.028 -9.78134,-2.8584 -19.29911,-4.7097 -26.60615,-5.8608 -3.50737,-6.7704 -8.47136,-15.566 -14.33309,-23.7918 -0.006,-1e-4 -0.0246,-0.01 -0.029,-1e-4 z"
         id="path2194-8"
         inkscape:connector-curvature="0"
         sodipodi:nodetypes="cscccccccccccccccccccccc" />
      <g
         id="g4143-4-6"
         transform="matrix(1.875,0,0,1.8750002,-372,933.18287)"
         style="display:inline">
        <rect
           transform="translate(0,804.3622)"
           y="152"
           x="288"
           height="48"
           width="48"
           id="rect4145-0-9"
           style="opacity:0.21171169;fill:none;stroke:none" />
      </g>
    </g>
  </g>
</svg>
