<?xml version="1.0" encoding="UTF-8" standalone="no"?>
<!-- Created with Inkscape (http://www.inkscape.org/) -->

<svg
   xmlns:dc="http://purl.org/dc/elements/1.1/"
   xmlns:cc="http://creativecommons.org/ns#"
   xmlns:rdf="http://www.w3.org/1999/02/22-rdf-syntax-ns#"
   xmlns:svg="http://www.w3.org/2000/svg"
   xmlns="http://www.w3.org/2000/svg"
   xmlns:sodipodi="http://sodipodi.sourceforge.net/DTD/sodipodi-0.dtd"
   xmlns:inkscape="http://www.inkscape.org/namespaces/inkscape"
   width="90"
   height="90"
   id="svg4874"
   version="1.1"
   inkscape:version="0.48+devel r"
   viewBox="0 0 90 90.000001"
   sodipodi:docname="application.svg">
  <defs
     id="defs4876" />
  <sodipodi:namedview
     id="base"
     pagecolor="#ffffff"
     bordercolor="#666666"
     borderopacity="1.0"
     inkscape:pageopacity="0.0"
     inkscape:pageshadow="2"
     inkscape:zoom="9.9475982"
     inkscape:cx="42.145851"
     inkscape:cy="60.924254"
     inkscape:document-units="px"
     inkscape:current-layer="g1708"
     showgrid="true"
     showborder="true"
     fit-margin-top="0"
     fit-margin-left="0"
     fit-margin-right="0"
     fit-margin-bottom="0"
     inkscape:snap-bbox="true"
     inkscape:bbox-paths="true"
     inkscape:bbox-nodes="true"
     inkscape:snap-bbox-edge-midpoints="true"
     inkscape:snap-bbox-midpoints="true"
     inkscape:object-paths="true"
     inkscape:snap-intersection-paths="true"
     inkscape:object-nodes="true"
     inkscape:snap-smooth-nodes="true"
     inkscape:snap-midpoints="true"
     inkscape:snap-object-midpoints="true"
     inkscape:snap-center="true"
     showguides="true"
     inkscape:guide-bbox="true">
    <inkscape:grid
       type="xygrid"
       id="grid5451"
       empspacing="6" />
    <sodipodi:guide
       orientation="1,0"
       position="6,77"
       id="guide4063" />
    <sodipodi:guide
       orientation="1,0"
       position="3,78"
       id="guide4065" />
    <sodipodi:guide
       orientation="0,1"
       position="55,84"
       id="guide4067" />
    <sodipodi:guide
       orientation="0,1"
       position="53,87"
       id="guide4069" />
    <sodipodi:guide
       orientation="0,1"
       position="20,3"
       id="guide4071" />
    <sodipodi:guide
       orientation="0,1"
       position="20,6"
       id="guide4073" />
    <sodipodi:guide
       orientation="1,0"
       position="87,7"
       id="guide4075" />
    <sodipodi:guide
       orientation="1,0"
       position="84,7"
       id="guide4077" />
    <sodipodi:guide
       orientation="0,1"
       position="58,81"
       id="guide4074" />
    <sodipodi:guide
       orientation="1,0"
       position="9,74"
       id="guide4076" />
    <sodipodi:guide
       orientation="0,1"
       position="21,9"
       id="guide4078" />
    <sodipodi:guide
       orientation="1,0"
       position="81,4"
       id="guide4080" />
  </sodipodi:namedview>
  <metadata
     id="metadata4879">
    <rdf:RDF>
      <cc:Work
         rdf:about="">
        <dc:format>image/svg+xml</dc:format>
        <dc:type
           rdf:resource="http://purl.org/dc/dcmitype/StillImage" />
        <dc:title></dc:title>
      </cc:Work>
    </rdf:RDF>
  </metadata>
  <g
     inkscape:label="Layer 1"
     inkscape:groupmode="layer"
     id="layer1"
     transform="translate(67.857146,-84.50504)">
    <g
       transform="matrix(0,-1,-1,0,373.50506,516.50504)"
       id="g4845"
       style="display:inline">
      <g
         inkscape:label="Layer 1"
         id="g1708"
         transform="matrix(0,-1,-1,0,1394.3622,441.36221)"
         inkscape:export-filename="add01.png"
         inkscape:export-xdpi="90"
         inkscape:export-ydpi="90">
        <rect
           style="color:#000000;fill:none;stroke:none;stroke-width:7.5;marker:none;visibility:visible;display:inline;overflow:visible;enable-background:accumulate"
           id="rect1710"
           width="90"
           height="90"
           x="0"
           y="962.36218" />
        <path
           style="font-size:12.0041132px;font-style:normal;font-variant:normal;font-weight:500;font-stretch:normal;text-align:start;line-height:125%;letter-spacing:0px;word-spacing:0px;writing-mode:lr-tb;text-anchor:start;fill:#808080;fill-opacity:1;stroke:none;display:inline;font-family:Ubuntu;-inkscape-font-specification:Ubuntu Medium"
           d="m 37.919531,969.59968 -0.269947,0.57364 c -2.470265,5.23352 -4.819069,10.60749 -7.147958,15.98121 -2.328309,5.37372 -4.750084,11.15825 -7.147959,17.09467 -0.668357,1.7048 -1.347892,3.4814 -2.022724,5.2266 l 15.206987,0 c 1.232517,-3.2534 2.444502,-6.4118 3.573042,-9.37509 1.738852,-4.41419 3.284763,-7.98813 4.686571,-11.29463 1.341537,3.1954 2.699134,6.60886 4.416625,11.02655 1.177794,3.02917 2.379151,6.29727 3.60866,9.64317 l 15.542545,0 c -0.71173,-1.7472 -1.435604,-3.5225 -2.123954,-5.2266 -2.328678,-5.93992 -4.514447,-11.71731 -6.844268,-17.09467 -2.328962,-5.3737 -4.711506,-10.74857 -7.181703,-15.98121 l -0.269946,-0.57364 -14.025971,0 z m -25.288739,42.14542 c -4.7818752,0 -8.6307895,3.8507 -8.6307895,8.6326 0,4.7819 3.8489143,8.6308 8.6307895,8.6308 l 64.738422,0 c 4.781876,0 8.63079,-3.8489 8.63079,-8.6308 0,-4.7819 -3.848914,-8.6326 -8.63079,-8.6326 l -64.738422,0 z m 0,4.3154 37.764392,0 c 2.390962,0 4.315394,1.9263 4.315395,4.3172 0,2.391 -1.924433,4.3154 -4.315395,4.3154 l -37.764392,0 c -2.390961,0 -4.3153944,-1.9244 -4.3153944,-4.3154 0,-2.3909 1.9244334,-4.3172 4.3153944,-4.3172 z m -0.133098,16.2192 c -1.292892,3.6757 -2.6224164,7.4957 -4.0135799,11.4633 l -0.5398931,1.3817 15.94934,0 3.303095,-9.1032 c 0.452661,-1.2399 0.917292,-2.4876 1.349732,-3.7418 l -15.915596,0 c -0.04512,0 -0.08809,5e-4 -0.133098,0 z m 48.314801,0 c 0.427356,1.2706 0.859414,2.522 1.315989,3.7418 1.052685,2.8128 2.052266,5.6803 3.035023,8.5634 l 0.234329,0.5398 0.843583,0 15.98121,0 -0.571764,-1.3817 c -1.393471,-3.9739 -2.769541,-7.7925 -4.114808,-11.4633 -0.05624,8e-4 -0.11044,0 -0.166843,0 l -16.556719,0 z"
           id="path2996"
           inkscape:connector-curvature="0" />
      </g>
    </g>
  </g>
</svg>
