<?xml version="1.0" encoding="UTF-8" standalone="no"?>
<!-- Created with Inkscape (http://www.inkscape.org/) -->

<svg
   xmlns:dc="http://purl.org/dc/elements/1.1/"
   xmlns:cc="http://creativecommons.org/ns#"
   xmlns:rdf="http://www.w3.org/1999/02/22-rdf-syntax-ns#"
   xmlns:svg="http://www.w3.org/2000/svg"
   xmlns="http://www.w3.org/2000/svg"
   xmlns:sodipodi="http://sodipodi.sourceforge.net/DTD/sodipodi-0.dtd"
   xmlns:inkscape="http://www.inkscape.org/namespaces/inkscape"
   width="90"
   height="90"
   id="svg4874"
   version="1.1"
   inkscape:version="0.48+devel r12833"
   viewBox="0 0 90 90.000001"
   sodipodi:docname="torch-on.svg">
  <defs
     id="defs4876">
    <clipPath
       id="clipPath3861-7"
       clipPathUnits="userSpaceOnUse">
      <path
         inkscape:connector-curvature="0"
         id="path3863-9"
         d="m 45.000002,20.500001 c -13.530978,0 -24.500003,10.969025 -24.500003,24.500003 0,10.773437 6.960989,19.933134 16.625002,23.214847 l 0,-11.839845 15.750002,0 0,11.839845 c 9.664013,-3.281713 16.625002,-12.44141 16.625002,-23.214847 0,-13.530978 -10.969025,-24.500003 -24.500003,-24.500003 z"
         style="color:#000000;fill:#ff00ff;fill-opacity:1;fill-rule:nonzero;stroke:none;stroke-width:6;marker:none;visibility:visible;display:inline;overflow:visible;enable-background:accumulate" />
    </clipPath>
    <clipPath
       id="clipPath3839-5"
       clipPathUnits="userSpaceOnUse">
      <path
         inkscape:connector-curvature="0"
         id="path3841-7"
         d="m 18,44 0,42 54,0 0,-42 -6.03125,0 C 65.983934,44.327642 66,44.668604 66,45 66,56.597978 56.597978,66 45,66 33.402022,66 24,56.597978 24,45 c 0,-0.331396 0.01607,-0.672358 0.03125,-1 L 18,44 Z"
         style="color:#000000;fill:#ff00ff;fill-opacity:1;fill-rule:nonzero;stroke:none;stroke-width:6;marker:none;visibility:visible;display:inline;overflow:visible;enable-background:accumulate" />
    </clipPath>
  </defs>
  <sodipodi:namedview
     id="base"
     pagecolor="#ffffff"
     bordercolor="#666666"
     borderopacity="1.0"
     inkscape:pageopacity="0.0"
     inkscape:pageshadow="2"
     inkscape:zoom="9.9475982"
     inkscape:cx="51.449604"
     inkscape:cy="34.355026"
     inkscape:document-units="px"
     inkscape:current-layer="g4118"
     showgrid="true"
     showborder="true"
     fit-margin-top="0"
     fit-margin-left="0"
     fit-margin-right="0"
     fit-margin-bottom="0"
     inkscape:snap-bbox="true"
     inkscape:bbox-paths="true"
     inkscape:bbox-nodes="true"
     inkscape:snap-bbox-edge-midpoints="true"
     inkscape:snap-bbox-midpoints="true"
     inkscape:object-paths="true"
     inkscape:snap-intersection-paths="true"
     inkscape:object-nodes="true"
     inkscape:snap-smooth-nodes="true"
     inkscape:snap-midpoints="true"
     inkscape:snap-object-midpoints="true"
     inkscape:snap-center="true"
     showguides="true"
     inkscape:guide-bbox="true">
    <inkscape:grid
       type="xygrid"
       id="grid5451"
       empspacing="6" />
    <sodipodi:guide
       orientation="1,0"
       position="6,77"
       id="guide4063" />
    <sodipodi:guide
       orientation="1,0"
       position="3,78"
       id="guide4065" />
    <sodipodi:guide
       orientation="0,1"
       position="55,84"
       id="guide4067" />
    <sodipodi:guide
       orientation="0,1"
       position="53,87"
       id="guide4069" />
    <sodipodi:guide
       orientation="0,1"
       position="20,3"
       id="guide4071" />
    <sodipodi:guide
       orientation="0,1"
       position="20,6"
       id="guide4073" />
    <sodipodi:guide
       orientation="1,0"
       position="87,7"
       id="guide4075" />
    <sodipodi:guide
       orientation="1,0"
       position="84,7"
       id="guide4077" />
    <sodipodi:guide
       orientation="0,1"
       position="58,81"
       id="guide4074" />
    <sodipodi:guide
       orientation="1,0"
       position="9,74"
       id="guide4076" />
    <sodipodi:guide
       orientation="0,1"
       position="21,9"
       id="guide4078" />
    <sodipodi:guide
       orientation="1,0"
       position="81,4"
       id="guide4080" />
  </sodipodi:namedview>
  <metadata
     id="metadata4879">
    <rdf:RDF>
      <cc:Work
         rdf:about="">
        <dc:format>image/svg+xml</dc:format>
        <dc:type
           rdf:resource="http://purl.org/dc/dcmitype/StillImage" />
        <dc:title></dc:title>
      </cc:Work>
    </rdf:RDF>
  </metadata>
  <g
     inkscape:label="Layer 1"
     inkscape:groupmode="layer"
     id="layer1"
     transform="translate(67.857146,-84.50504)">
    <g
       transform="matrix(0,-1,-1,0,373.50506,516.50504)"
       id="g4845"
       style="display:inline">
      <g
         id="g4118">
        <rect
           transform="matrix(0,-1,-1,0,0,0)"
           y="-348.13641"
           x="-405.36221"
           height="6.1364355"
           width="18"
           id="rect4577"
           style="color:#000000;fill:#808080;fill-opacity:1;fill-rule:nonzero;stroke:none;stroke-width:1;marker:none;visibility:visible;display:inline;overflow:visible;enable-background:accumulate" />
        <path
           id="path3809"
           d="m 414.13642,396.36221 c 0,14.87615 -12.12382,27 -27,27 -11.72601,0 -21.72142,-7.52399 -25.4375,-18 l 6.46875,0 c 3.36027,7.10271 10.56242,12 18.96875,12 11.63354,0 21,-9.36649 21,-21 0,-11.63351 -9.36646,-21 -21,-21 -8.40633,0 -15.60848,4.89729 -18.96875,12 l -6.46875,0 c 3.71608,-10.47601 13.71149,-18 25.4375,-18 14.87618,0 27,12.12385 27,27 z"
           clip-path="none"
           style="font-style:normal;font-variant:normal;font-weight:normal;font-stretch:normal;text-indent:0;text-align:start;text-decoration:none;line-height:normal;letter-spacing:normal;word-spacing:normal;text-transform:none;direction:ltr;block-progression:tb;writing-mode:lr-tb;text-anchor:start;baseline-shift:baseline;color:#000000;color-interpolation:sRGB;color-interpolation-filters:linearRGB;fill:#808080;fill-opacity:1;stroke:none;stroke-width:5.25000048;marker:none;visibility:visible;display:inline;overflow:visible;enable-background:accumulate;clip-rule:nonzero;font-family:sans-serif;-inkscape-font-specification:sans-serif"
           inkscape:connector-curvature="0" />
        <path
           inkscape:connector-curvature="0"
           id="path3827"
           d="m 432.1236,399.36221 -12,0 0,-6 12,0 0,6 z m -4.53125,16.90625 -3,5.1875 -10.375,-6 3,-5.1875 10.375,6 z m 0,-39.8125 -10.375,6 -3,-5.1875 10.375,-6 3,5.1875 z m -15.34375,57.375 -5.21875,3 -6,-10.375 5.21875,-3 6,10.375 z m 0,-74.9375 -6,10.375 -5.21875,-3 6,-10.375 5.21875,3 z m -22.125,82.46875 -6,0 0,-12 6,0 0,12 z m 0,-78 -6,0 0,-12 6,0 0,12 z m -16.875,63.09375 -6,10.375 -5.2188,-3 6,-10.375 5.2188,3 z m 0,-60.1875 -5.2188,3 -6,-10.375 5.2188,-3 6,10.375 z"
           style="font-style:normal;font-variant:normal;font-weight:normal;font-stretch:normal;text-indent:0;text-align:start;text-decoration:none;line-height:normal;letter-spacing:normal;word-spacing:normal;text-transform:none;direction:ltr;block-progression:tb;writing-mode:lr-tb;text-anchor:start;baseline-shift:baseline;color:#000000;fill:#808080;fill-opacity:1;fill-rule:nonzero;stroke:none;stroke-width:6;marker:none;visibility:visible;display:inline;overflow:visible;enable-background:accumulate;font-family:Sans;-inkscape-font-specification:Sans" />
        <rect
           transform="matrix(0,-1,-1,0,0,0)"
           y="-432.13641"
           x="-441.36221"
           height="90"
           width="90"
           id="rect4198-5"
           style="color:#000000;fill:none;stroke:none;stroke-width:7.5;marker:none;visibility:visible;display:inline;overflow:visible;enable-background:accumulate" />
        <path
           sodipodi:nodetypes="cscsssscscccccccc"
           id="rect3829"
           d="m 372.3125,411.36221 -12.3125,0 c -1.6666,0 -3.0861,-0.10727 -4.4687,-0.59375 -1.3827,-0.48648 -2.7019,-1.55235 -3.4063,-2.84375 -1.4088,-2.58281 -1.125,-5.0625 -1.125,-8.5625 l 0,-6 c 0,-3.5 -0.2838,-5.9797 1.125,-8.5625 0.7044,-1.2914 2.0236,-2.35727 3.4063,-2.84375 1.3826,-0.48648 2.8021,-0.59375 4.4687,-0.59375 l 12.3125,0 c -1.7552,1.71923 -3.1817,3.75577 -4.25,6 l -8.0625,0 c -3,-1e-5 -3,1.99999 -3,6 l 0,6 c 0,3.99999 0,5.99999 3,6 l 8.0625,0 c 1.0683,2.24423 2.4948,4.28077 4.25,6 z"
           clip-path="none"
           style="font-style:normal;font-variant:normal;font-weight:normal;font-stretch:normal;text-indent:0;text-align:start;text-decoration:none;line-height:normal;letter-spacing:normal;word-spacing:normal;text-transform:none;direction:ltr;block-progression:tb;writing-mode:lr-tb;text-anchor:start;baseline-shift:baseline;color:#000000;color-interpolation:sRGB;color-interpolation-filters:linearRGB;fill:#808080;fill-opacity:1;stroke:none;stroke-width:6;marker:none;visibility:visible;display:inline;overflow:visible;enable-background:accumulate;clip-rule:nonzero;font-family:sans-serif;-inkscape-font-specification:sans-serif"
           inkscape:connector-curvature="0" />
        <path
           style="fill:#808080"
           id="path3851-2"
           sodipodi:nodetypes="ccccccc"
           inkscape:connector-curvature="0"
           d="m 369.1364,394.86281 21,9.59939 0,-7.28819 15.00002,0.6894 -21.00002,-9.60119 0,7.38899 z" />
        <circle
           clip-path="url(#clipPath3861-7)"
           transform="matrix(0,-1.142857,-1.142857,0,438.56501,447.79078)"
           id="path3809-7"
           style="color:#000000;fill:none;stroke:#808080;stroke-width:5.25000048;stroke-linecap:butt;stroke-linejoin:round;stroke-miterlimit:4;stroke-opacity:1;stroke-dasharray:none;stroke-dashoffset:0;marker:none;visibility:visible;display:none;overflow:visible;enable-background:accumulate"
           cx="45"
           cy="45.000015"
           r="21" />
        <path
           inkscape:connector-curvature="0"
           id="path3827-9"
           d="m 432.12362,399.36221 -12,0 0,-6 12,0 0,6 z m -4.53125,16.90625 -3,5.1875 -10.375,-6 3,-5.1875 10.375,6 z m 0,-39.8125 -10.375,6 -3,-5.1875 10.375,-6 3,5.1875 z m -15.34375,57.375 -5.21875,3 -6,-10.375 5.21875,-3 6,10.375 z m 0,-74.9375 -6,10.375 -5.21875,-3 6,-10.375 5.21875,3 z m -22.125,82.46875 -6,0 0,-12 6,0 0,12 z m 0,-78 -6,0 0,-12 6,0 0,12 z m -16.875,63.09375 -6,10.375 -5.2188,-3 6,-10.375 5.2188,3 z m 0,-60.1875 -5.2188,3 -6,-10.375 5.2188,-3 6,10.375 z"
           style="font-style:normal;font-variant:normal;font-weight:normal;font-stretch:normal;text-indent:0;text-align:start;text-decoration:none;line-height:normal;letter-spacing:normal;word-spacing:normal;text-transform:none;direction:ltr;block-progression:tb;writing-mode:lr-tb;text-anchor:start;baseline-shift:baseline;color:#000000;fill:#808080;fill-opacity:1;fill-rule:nonzero;stroke:none;stroke-width:6;marker:none;visibility:visible;display:none;overflow:visible;enable-background:accumulate;font-family:Sans;-inkscape-font-specification:Sans" />
        <rect
           transform="matrix(0,-1,-1,0,0,0)"
           y="-432.13644"
           x="-441.36221"
           height="90"
           width="90"
           id="rect4198-3"
           style="color:#000000;fill:none;stroke:none;stroke-width:7.5;marker:none;visibility:visible;display:none;overflow:visible;enable-background:accumulate" />
        <path
           transform="matrix(0,-1,-1,0,432.13644,441.36221)"
           clip-path="url(#clipPath3839-5)"
           sodipodi:nodetypes="sssssssss"
           inkscape:connector-curvature="0"
           id="rect3829-5"
           d="m 39.999998,50.000019 10.000004,0 C 53.878001,50.000019 57,53.122018 57,57.000017 l 0,15.000002 c 0,5.999998 -2,5.999998 -8.999998,5.999998 l -6.000004,0 C 35,78.000017 33,78.000017 33,72.000019 l 0,-15.000002 c 0,-3.877999 3.121999,-6.999998 6.999998,-6.999998 z"
           style="color:#000000;fill:none;stroke:#808080;stroke-width:6;stroke-linecap:butt;stroke-linejoin:round;stroke-miterlimit:4;stroke-opacity:1;stroke-dashoffset:0;marker:none;visibility:visible;display:none;overflow:visible;enable-background:accumulate" />
        <path
           style="fill:#808080;display:none"
           id="path3851-2-7"
           sodipodi:nodetypes="ccccccc"
           inkscape:connector-curvature="0"
           d="m 369.13642,394.86281 21,9.59939 0,-7.28819 15.00002,0.6894 -21.00002,-9.60119 0,7.38899 z" />
        <path
           id="rect3843-8"
           d="m 348.35519,405.29971 c -2.38044,-0.19605 -3.21875,-1.41154 -3.21875,-5.9375 l 0,-6 c 0,-4.52596 0.83831,-5.74145 3.21875,-5.9375 -0.29735,1.98286 -0.1875,3.93349 -0.1875,5.9375 l 0,6 c 0,2.00401 -0.10985,3.95464 0.1875,5.9375 z"
           style="color:#000000;fill:#808080;fill-opacity:1;fill-rule:nonzero;stroke:none;stroke-width:6;marker:none;visibility:visible;display:none;overflow:visible;enable-background:accumulate"
           inkscape:connector-curvature="0" />
      </g>
    </g>
  </g>
</svg>
