<?xml version="1.0" encoding="UTF-8" standalone="no"?>
<!-- Created with Inkscape (http://www.inkscape.org/) -->

<svg
   xmlns:dc="http://purl.org/dc/elements/1.1/"
   xmlns:cc="http://creativecommons.org/ns#"
   xmlns:rdf="http://www.w3.org/1999/02/22-rdf-syntax-ns#"
   xmlns:svg="http://www.w3.org/2000/svg"
   xmlns="http://www.w3.org/2000/svg"
   xmlns:sodipodi="http://sodipodi.sourceforge.net/DTD/sodipodi-0.dtd"
   xmlns:inkscape="http://www.inkscape.org/namespaces/inkscape"
   width="90"
   height="90"
   id="svg4874"
   version="1.1"
   inkscape:version="0.48+devel r12837"
   viewBox="0 0 90 90.000001"
   sodipodi:docname="favorite-unselected.svg">
  <defs
     id="defs4876" />
  <sodipodi:namedview
     id="base"
     pagecolor="#ffffff"
     bordercolor="#666666"
     borderopacity="1.0"
     inkscape:pageopacity="0.0"
     inkscape:pageshadow="2"
     inkscape:zoom="6.3664628"
     inkscape:cx="50.546119"
     inkscape:cy="47.349682"
     inkscape:document-units="px"
     inkscape:current-layer="g4845"
     showgrid="true"
     showborder="true"
     fit-margin-top="0"
     fit-margin-left="0"
     fit-margin-right="0"
     fit-margin-bottom="0"
     inkscape:snap-bbox="true"
     inkscape:bbox-paths="true"
     inkscape:bbox-nodes="true"
     inkscape:snap-bbox-edge-midpoints="true"
     inkscape:snap-bbox-midpoints="true"
     inkscape:object-paths="true"
     inkscape:snap-intersection-paths="true"
     inkscape:object-nodes="true"
     inkscape:snap-smooth-nodes="true"
     inkscape:snap-midpoints="true"
     inkscape:snap-object-midpoints="true"
     inkscape:snap-center="true"
     showguides="false"
     inkscape:guide-bbox="true">
    <inkscape:grid
       type="xygrid"
       id="grid5451"
       empspacing="6" />
    <sodipodi:guide
       orientation="1,0"
       position="9,76"
       id="guide4063" />
    <sodipodi:guide
       orientation="1,0"
       position="6,74"
       id="guide4065" />
    <sodipodi:guide
       orientation="0,1"
       position="44,81"
       id="guide4067" />
    <sodipodi:guide
       orientation="0,1"
       position="44,84"
       id="guide4069" />
    <sodipodi:guide
       orientation="0,1"
       position="23,3"
       id="guide4071" />
    <sodipodi:guide
       orientation="0,1"
       position="24,6"
       id="guide4073" />
    <sodipodi:guide
       orientation="1,0"
       position="87,14"
       id="guide4075" />
    <sodipodi:guide
       orientation="1,0"
       position="81,15"
       id="guide4077" />
    <sodipodi:guide
       orientation="0,1"
       position="47,87"
       id="guide4072" />
    <sodipodi:guide
       orientation="1,0"
       position="3,68"
       id="guide4074" />
    <sodipodi:guide
       orientation="0,1"
       position="23,9"
       id="guide4076" />
    <sodipodi:guide
       orientation="1,0"
       position="84,11"
       id="guide4078" />
  </sodipodi:namedview>
  <metadata
     id="metadata4879">
    <rdf:RDF>
      <cc:Work
         rdf:about="">
        <dc:format>image/svg+xml</dc:format>
        <dc:type
           rdf:resource="http://purl.org/dc/dcmitype/StillImage" />
        <dc:title></dc:title>
      </cc:Work>
    </rdf:RDF>
  </metadata>
  <g
     inkscape:label="Layer 1"
     inkscape:groupmode="layer"
     id="layer1"
     transform="translate(67.857146,-84.50504)">
    <g
       transform="matrix(0,-1,-1,0,373.50506,516.50504)"
       id="g4845"
       style="display:inline">
      <rect
         style="opacity:0.31000001;color:#000000;fill:none;stroke:none;stroke-width:4;marker:none;visibility:visible;display:inline;overflow:visible;enable-background:accumulate"
         id="rect4847"
         width="90"
         height="90"
         x="-432"
         y="351.36221"
         transform="scale(-1,1)" />
      <path
         style="color:#000000;fill:#808080;fill-opacity:1;fill-rule:nonzero;stroke:none;stroke-width:3;marker:none;visibility:visible;display:inline;overflow:visible;enable-background:accumulate;opacity:1"
         d="M 26.892578 6 C 15.509688 6 6.24811 15.104365 6 26.427734 C 6 31.682344 7.3771663 35.784899 8.7851562 39.574219 C 15.399276 55.231979 28.28571 68.31061 45 84 C 61.71429 68.31061 74.600724 55.231979 81.214844 39.574219 C 82.622834 35.784899 84 31.682344 84 26.427734 C 83.75189 15.104365 74.490312 6 63.107422 6 C 55.363782 6 48.60889 10.215899 45 16.474609 C 41.39111 10.215899 34.636218 6 26.892578 6 z M 26.892578 13.970703 C 35.990404 13.999969 41.987083 21.983051 44.990234 29.974609 C 47.99338 21.983051 53.990061 13.999972 63.087891 13.970703 C 70.187091 13.947903 75.79506 19.479439 76 26.505859 C 75.9864 30.259159 75.077577 33.116217 73.779297 36.623047 C 68.657812 48.644665 58.579887 59.823154 45 72.896484 L 45 72.916016 C 44.996598 72.912741 44.993636 72.909524 44.990234 72.90625 C 44.986833 72.909524 44.983871 72.912741 44.980469 72.916016 L 44.980469 72.896484 C 31.400581 59.823154 21.322657 48.644665 16.201172 36.623047 C 14.902892 33.116217 13.994049 30.259159 13.980469 26.505859 C 14.185409 19.479439 19.793375 13.947863 26.892578 13.970703 z "
         transform="matrix(0,-1,-1,0,432,441.36221)"
         id="path4104" />
    </g>
  </g>
</svg>
