<?xml version="1.0" encoding="UTF-8" standalone="no"?>
<!-- Created with Inkscape (http://www.inkscape.org/) -->

<svg
   xmlns:dc="http://purl.org/dc/elements/1.1/"
   xmlns:cc="http://creativecommons.org/ns#"
   xmlns:rdf="http://www.w3.org/1999/02/22-rdf-syntax-ns#"
   xmlns:svg="http://www.w3.org/2000/svg"
   xmlns="http://www.w3.org/2000/svg"
   xmlns:sodipodi="http://sodipodi.sourceforge.net/DTD/sodipodi-0.dtd"
   xmlns:inkscape="http://www.inkscape.org/namespaces/inkscape"
   width="90"
   height="90"
   id="svg4874"
   version="1.1"
   inkscape:version="0.48+devel r12833"
   viewBox="0 0 90 90.000001"
   sodipodi:docname="view-fullscreen.svg">
  <defs
     id="defs4876" />
  <sodipodi:namedview
     id="base"
     pagecolor="#ffffff"
     bordercolor="#666666"
     borderopacity="1.0"
     inkscape:pageopacity="0.0"
     inkscape:pageshadow="2"
     inkscape:zoom="6.366463"
     inkscape:cx="89.138977"
     inkscape:cy="72.371427"
     inkscape:document-units="px"
     inkscape:current-layer="g1311"
     showgrid="true"
     showborder="true"
     fit-margin-top="0"
     fit-margin-left="0"
     fit-margin-right="0"
     fit-margin-bottom="0"
     inkscape:snap-bbox="true"
     inkscape:bbox-paths="true"
     inkscape:bbox-nodes="true"
     inkscape:snap-bbox-edge-midpoints="true"
     inkscape:snap-bbox-midpoints="true"
     inkscape:object-paths="true"
     inkscape:snap-intersection-paths="true"
     inkscape:object-nodes="true"
     inkscape:snap-smooth-nodes="true"
     inkscape:snap-midpoints="true"
     inkscape:snap-object-midpoints="true"
     inkscape:snap-center="true"
     showguides="true"
     inkscape:guide-bbox="true">
    <inkscape:grid
       type="xygrid"
       id="grid5451"
       empspacing="6" />
    <sodipodi:guide
       orientation="1,0"
       position="6,77"
       id="guide4063" />
    <sodipodi:guide
       orientation="1,0"
       position="3,78"
       id="guide4065" />
    <sodipodi:guide
       orientation="0,1"
       position="55,84"
       id="guide4067" />
    <sodipodi:guide
       orientation="0,1"
       position="53,87"
       id="guide4069" />
    <sodipodi:guide
       orientation="0,1"
       position="20,3"
       id="guide4071" />
    <sodipodi:guide
       orientation="0,1"
       position="20,6"
       id="guide4073" />
    <sodipodi:guide
       orientation="1,0"
       position="87,7"
       id="guide4075" />
    <sodipodi:guide
       orientation="1,0"
       position="84,7"
       id="guide4077" />
    <sodipodi:guide
       orientation="0,1"
       position="58,81"
       id="guide4074" />
    <sodipodi:guide
       orientation="1,0"
       position="9,74"
       id="guide4076" />
    <sodipodi:guide
       orientation="0,1"
       position="21,9"
       id="guide4078" />
    <sodipodi:guide
       orientation="1,0"
       position="81,4"
       id="guide4080" />
  </sodipodi:namedview>
  <metadata
     id="metadata4879">
    <rdf:RDF>
      <cc:Work
         rdf:about="">
        <dc:format>image/svg+xml</dc:format>
        <dc:type
           rdf:resource="http://purl.org/dc/dcmitype/StillImage" />
        <dc:title></dc:title>
      </cc:Work>
    </rdf:RDF>
  </metadata>
  <g
     inkscape:label="Layer 1"
     inkscape:groupmode="layer"
     id="layer1"
     transform="translate(67.857146,-84.50504)">
    <g
       transform="matrix(0,-1,-1,0,373.50506,516.50504)"
       id="g4845"
       style="display:inline">
      <g
         transform="matrix(0,-1,-1,0,567.36222,615.36221)"
         id="g1311"
         inkscape:export-filename="envelope02.png"
         inkscape:export-xdpi="90"
         inkscape:export-ydpi="90">
        <g
           id="g1313"
           transform="matrix(1.875,0,0,1.875,-366,-1657.8169)">
          <rect
             transform="translate(0,804.3622)"
             y="152"
             x="288"
             height="48"
             width="48"
             id="rect1315"
             style="opacity:0.21171169;fill:none;stroke:none" />
        </g>
        <path
           style="font-size:15px;font-style:normal;font-variant:normal;font-weight:normal;font-stretch:normal;text-align:center;line-height:125%;letter-spacing:0px;word-spacing:0px;writing-mode:lr-tb;text-anchor:middle;fill:#808080;fill-opacity:1;stroke:none;display:inline;font-family:Ubuntu;-inkscape-font-specification:Ubuntu"
           d="m 204,144.36222 c -10,0 -15,-2e-4 -15,11.62695 l 0,12.37305 6,0 0,-9.80859 c 0,-8.19205 2.93449,-8.19141 10.86719,-8.19141 l 38.26562,0 c 7.9327,0 10.86719,-6.4e-4 10.86719,8.19141 l 0,31.61718 c 0,8.19205 -2.93449,8.19141 -10.86719,8.19141 l -7.13281,0 0,6 9,0 c 10,0 15,2.1e-4 15,-11.62695 l 0,-36.7461 c 0,-11.62715 -5,-11.62695 -15,-11.62695 l -42,0 z"
           id="path4129" />
        <path
           style="font-size:15px;font-style:normal;font-variant:normal;font-weight:normal;font-stretch:normal;text-align:center;line-height:125%;letter-spacing:0px;word-spacing:0px;writing-mode:lr-tb;text-anchor:middle;fill:#808080;fill-opacity:1;stroke:none;display:inline;font-family:Ubuntu;-inkscape-font-specification:Ubuntu"
           d="M 18 36 C 8.0000001 36 3 35.999803 3 47.626953 L 3 69.373047 C 3 81.000207 8.0000001 81 18 81 L 45 81 C 55 81 60 81.000207 60 69.373047 L 60 50.964844 L 54 56.964844 L 54 66.808594 C 54 75.000644 51.065512 75 43.132812 75 L 19.867188 75 C 11.934488 75 9 75.000644 9 66.808594 L 9 50.191406 C 9 41.999356 11.934488 42 19.867188 42 L 39.035156 42 L 45.035156 36 C 45.022672 36 45.012499 36 45 36 L 18 36 z "
           transform="translate(174,135.36222)"
           id="path4109" />
        <path
           style="color:#000000;fill:#808080;fill-opacity:1;fill-rule:nonzero;stroke:none;stroke-width:3;marker:none;visibility:visible;display:inline;overflow:visible;enable-background:accumulate"
           d="m 242.7172,179.39183 c 0,0 4.39987,-11.25055 6.30815,-23.02914 -8.1e-4,-8.2e-4 -0.001,-10e-4 -0.009,-10e-4 -8.2e-4,-8.2e-4 -0.006,-8.2e-4 -0.01,-0.002 -8.2e-4,-8.3e-4 -0.006,-8.3e-4 -0.01,-0.002 -8.1e-4,-8.2e-4 -0.006,-8.2e-4 -0.01,-0.002 C 236.67708,158.4811 226,162.68414 226,162.68414 Z"
           id="path2194-3"
           inkscape:connector-curvature="0"
           inkscape:transform-center-x="-3.3318527"
           inkscape:transform-center-y="-2.9841979"
           sodipodi:nodetypes="ccsssccc" />
        <path
           sodipodi:nodetypes="ssssssssssssssssss"
           inkscape:connector-curvature="0"
           id="path4117"
           d="m 304,144.36222 c -10,0 -15,-2e-4 -15,11.62695 l 0,36.7461 c 0,11.62716 5,11.62695 15,11.62695 l 42,0 c 10,0 15,2.1e-4 15,-11.62695 l 0,-36.7461 c 0,-11.62715 -5,-11.62695 -15,-11.62695 z m 1.86719,6 38.26562,0 c 7.9327,0 10.86719,-6.4e-4 10.86719,8.19141 l 0,31.61718 c 0,8.19205 -2.93449,8.19141 -10.86719,8.19141 l -38.26562,0 c -7.9327,0 -10.86719,6.4e-4 -10.86719,-8.19141 l 0,-31.61718 c 0,-8.19205 2.93449,-8.19141 10.86719,-8.19141 z"
           style="font-size:15px;font-style:normal;font-variant:normal;font-weight:normal;font-stretch:normal;text-align:center;line-height:125%;letter-spacing:0px;word-spacing:0px;writing-mode:lr-tb;text-anchor:middle;fill:#808080;fill-opacity:1;stroke:none;display:inline;font-family:Ubuntu;-inkscape-font-specification:Ubuntu" />
        <path
           style="font-size:15px;font-style:normal;font-variant:normal;font-weight:normal;font-stretch:normal;text-align:center;line-height:125%;letter-spacing:0px;word-spacing:0px;writing-mode:lr-tb;text-anchor:middle;fill:#808080;fill-opacity:1;stroke:none;display:inline;font-family:Ubuntu;-inkscape-font-specification:Ubuntu"
           d="m 292,171.36222 c -10,0 -15,-2e-4 -15,11.62695 l 0,21.7461 c 0,11.62716 5,11.62695 15,11.62695 l 27,0 c 10,0 15,2.1e-4 15,-11.62695 l 0,-21.7461 c 0,-11.62715 -5,-11.62695 -15,-11.62695 z m 1.86719,6 23.26562,0 c 7.9327,0 10.86719,-6.4e-4 10.86719,8.19141 l 0,16.61718 c 0,8.19205 -2.93449,8.19141 -10.86719,8.19141 l -23.26562,0 c -7.9327,0 -10.86719,6.4e-4 -10.86719,-8.19141 l 0,-16.61718 c 0,-8.19205 2.93449,-8.19141 10.86719,-8.19141 z"
           id="path4119"
           inkscape:connector-curvature="0"
           sodipodi:nodetypes="ssssssssssssssssss" />
        <path
           style="font-style:normal;font-variant:normal;font-weight:normal;font-stretch:normal;text-indent:0;text-align:start;text-decoration:none;line-height:normal;letter-spacing:normal;word-spacing:normal;text-transform:none;direction:ltr;block-progression:tb;writing-mode:lr-tb;text-anchor:start;baseline-shift:baseline;color:#000000;fill:#808080;fill-opacity:1;stroke:none;stroke-width:9;marker:none;visibility:visible;display:inline;overflow:visible;enable-background:accumulate;font-family:Sans;-inkscape-font-specification:Sans"
           d="m 235.8125,163.17473 -23,23 6.375,6.375 23,-23 z"
           id="path3789"
           inkscape:connector-curvature="0"
           sodipodi:nodetypes="ccccc" />
      </g>
    </g>
  </g>
</svg>
