<?xml version="1.0" encoding="UTF-8" standalone="no"?>
<!-- Created with Inkscape (http://www.inkscape.org/) -->
<svg
   xmlns:svg="http://www.w3.org/2000/svg"
   xmlns="http://www.w3.org/2000/svg"
   version="1.0"
   width="22"
   height="22"
   id="svg3215">
  <defs
     id="defs3217" />
  <g
     transform="translate(-1,-1)"
     id="g3195"
     style="opacity:0.3">
    <path
       d="M 12.5,5.3333332 L 12.5,8.6666663"
       id="path3193"
       style="opacity:1;fill:none;fill-opacity:1;fill-rule:evenodd;stroke:#000000;stroke-width:2;stroke-linecap:round;stroke-linejoin:miter;marker:none;marker-start:none;marker-mid:none;marker-end:none;stroke-miterlimit:4;stroke-dasharray:none;stroke-dashoffset:0;stroke-opacity:1;visibility:visible;display:inline;overflow:visible;enable-background:accumulate" />
    <rect
       width="13.5"
       height="8.5"
       rx="2.3"
       ry="3.3000903"
       x="-18.75"
       y="8.25"
       transform="matrix(0,-1,1,0,0,0)"
       id="rect3236"
       style="opacity:1;fill:none;fill-opacity:1;fill-rule:nonzero;stroke:#000000;stroke-width:0.49999994;stroke-linecap:round;stroke-linejoin:miter;marker:none;marker-start:none;marker-mid:none;marker-end:none;stroke-miterlimit:4;stroke-dasharray:none;stroke-dashoffset:0;stroke-opacity:1;visibility:visible;display:inline;overflow:visible;enable-background:accumulate" />
  </g>
  <rect
     width="12"
     height="17"
     rx="5"
     ry="4"
     x="5.5"
     y="2.5"
     id="rect3178"
     style="opacity:0.6;fill:none;fill-opacity:1;fill-rule:nonzero;stroke:#eae3d0;stroke-width:0.99999994;stroke-linecap:round;stroke-linejoin:miter;marker:none;marker-start:none;marker-mid:none;marker-end:none;stroke-miterlimit:4;stroke-dasharray:none;stroke-dashoffset:0;stroke-opacity:1;visibility:visible;display:inline;overflow:visible;enable-background:accumulate" />
  <path
     d="M 10.5,3.499999 L 12.5,3.499999 C 14.716,3.499999 16.5,4.837999 16.5,6.499999 L 16.5,15.5 C 16.5,17.162 14.716,18.5 12.5,18.5 L 10.5,18.5 C 8.2839999,18.5 6.5,17.162 6.5,15.5 L 6.5,6.499999 C 6.5,4.837999 8.2839999,3.499999 10.5,3.499999 z M 11.541885,3.5 L 11.541885,7.5"
     id="rect2406"
     style="fill:none;fill-opacity:1;fill-rule:evenodd;stroke:#dc0000;stroke-width:0.99999994;stroke-linecap:round;stroke-linejoin:miter;marker:none;marker-start:none;marker-mid:none;marker-end:none;stroke-miterlimit:4;stroke-dashoffset:0;stroke-opacity:1;visibility:visible;display:inline;overflow:visible;enable-background:accumulate" />
</svg>
