<?xml version="1.0" encoding="UTF-8" standalone="no"?>
<!-- Created with Inkscape (http://www.inkscape.org/) -->
<svg
   xmlns:svg="http://www.w3.org/2000/svg"
   xmlns="http://www.w3.org/2000/svg"
   version="1.0"
   width="22"
   height="22"
   id="svg3208">
  <defs
     id="defs3210" />
  <path
     d="M 10.301877,15.031717 C 9.3252915,15.015416 8.4293705,15.830418 8.3434426,16.801449 C 8.2848198,17.380785 8.4629903,18.008882 8.9162373,18.396078 C 9.2635337,18.743374 9.6108305,19.090671 9.9581265,19.437967 C 10.198741,19.60252 10.435313,19.790327 10.721966,19.87413 C 11.447679,20.124321 12.294787,19.869089 12.791911,19.291683 C 13.165477,18.910993 13.553826,18.542852 13.919414,18.155507 C 14.43757,17.422292 14.377354,16.336881 13.754347,15.682203 C 13.347766,15.223557 12.725169,14.989432 12.117307,15.031717 C 11.512163,15.031717 10.90702,15.031717 10.301877,15.031717 z"
     id="path3205"
     style="opacity:0.6;fill:#eae3d0;fill-opacity:1;fill-rule:evenodd;stroke:none;stroke-width:1.69999993;stroke-linecap:round;stroke-linejoin:miter;marker:none;marker-start:none;marker-mid:none;marker-end:none;stroke-miterlimit:4;stroke-dasharray:none;stroke-dashoffset:0;stroke-opacity:1;visibility:visible;display:inline;overflow:visible;enable-background:accumulate" />
  <path
     d="M 7.0726663,14.449915 C 7.0726663,14.449915 8.0911705,13.158913 11.211645,13.126007 C 14.293216,13.093507 15.472315,14.449915 15.472315,14.449915"
     id="path2399"
     style="opacity:0.6;fill:none;fill-opacity:1;fill-rule:nonzero;stroke:#eae3d0;stroke-width:3.70000005;stroke-linecap:round;stroke-linejoin:miter;marker:none;marker-start:none;marker-mid:none;marker-end:none;stroke-miterlimit:4;stroke-dasharray:none;stroke-dashoffset:0;stroke-opacity:1;visibility:visible;display:inline;overflow:visible;enable-background:accumulate" />
  <path
     d="M 4.3584876,11.453155 C 4.3584876,11.453155 6.5938592,9.0307699 11.282552,9.1169549 C 16.010134,9.2038549 18.206613,11.492061 18.206613,11.492061"
     id="path2397"
     style="opacity:0.6;fill:none;fill-opacity:1;fill-rule:nonzero;stroke:#eae3d0;stroke-width:3.70000005;stroke-linecap:round;stroke-linejoin:miter;marker:none;marker-start:none;marker-mid:none;marker-end:none;stroke-miterlimit:4;stroke-dasharray:none;stroke-dashoffset:0;stroke-opacity:1;visibility:visible;display:inline;overflow:visible;enable-background:accumulate" />
  <path
     d="M 7.0726663,14.449915 C 7.0726663,14.449915 8.0911705,13.158913 11.211645,13.126007 C 14.293216,13.093507 15.472315,14.449915 15.472315,14.449915"
     id="path2393"
     style="fill:none;fill-opacity:1;fill-rule:nonzero;stroke:#3a3935;stroke-width:1.70000005;stroke-linecap:round;stroke-linejoin:miter;marker:none;marker-start:none;marker-mid:none;marker-end:none;stroke-miterlimit:4;stroke-dasharray:none;stroke-dashoffset:0;stroke-opacity:1;visibility:visible;display:inline;overflow:visible;enable-background:accumulate" />
  <path
     d="M 4.3584876,11.453155 C 4.3584876,11.453155 6.5938592,9.0307699 11.282552,9.1169549 C 16.010134,9.2038549 18.206613,11.492061 18.206613,11.492061"
     id="path2391"
     style="fill:none;fill-opacity:1;fill-rule:nonzero;stroke:#3a3935;stroke-width:1.70000005;stroke-linecap:round;stroke-linejoin:miter;marker:none;marker-start:none;marker-mid:none;marker-end:none;stroke-miterlimit:4;stroke-dasharray:none;stroke-dashoffset:0;stroke-opacity:1;visibility:visible;display:inline;overflow:visible;enable-background:accumulate" />
  <g
     id="g2401"
     style="opacity:0.4">
    <path
       d="M 1.501,8.4142631 C 1.501,8.4142631 4.6048827,4.9834829 11.282552,4.9834829 C 17.927392,4.9834829 21.102755,8.4200853 21.102755,8.4200853"
       id="path3192"
       style="opacity:0.6;fill:none;fill-opacity:1;fill-rule:nonzero;stroke:#eae3d0;stroke-width:3.70000005;stroke-linecap:round;stroke-linejoin:miter;marker:none;marker-start:none;marker-mid:none;marker-end:none;stroke-miterlimit:4;stroke-dasharray:none;stroke-dashoffset:0;stroke-opacity:1;visibility:visible;display:inline;overflow:visible;enable-background:accumulate" />
    <path
       d="M 1.501,8.4142631 C 1.501,8.4142631 4.6048827,4.9834829 11.282552,4.9834829 C 17.927392,4.9834829 21.102755,8.4200853 21.102755,8.4200853"
       id="path3209"
       style="fill:none;fill-opacity:1;fill-rule:nonzero;stroke:#3a3935;stroke-width:1.70000005;stroke-linecap:round;stroke-linejoin:miter;marker:none;marker-start:none;marker-mid:none;marker-end:none;stroke-miterlimit:4;stroke-dasharray:none;stroke-dashoffset:0;stroke-opacity:1;visibility:visible;display:inline;overflow:visible;enable-background:accumulate" />
  </g>
  <path
     d="M 10.301877,16.000467 C 9.7498765,16.000467 9.3018765,16.448467 9.3018765,17.000467 C 9.3018765,17.205604 9.3637475,17.396379 9.4698355,17.555135 C 9.4698355,17.555135 10.648462,18.757293 10.648462,18.757293 C 10.823757,18.908795 11.052176,19.000467 11.301877,19.000467 C 11.598175,19.000467 11.864511,18.871386 12.047676,18.666428 C 12.047676,18.666428 13.101499,17.600832 13.101499,17.600832 C 13.227296,17.433601 13.301877,17.225691 13.301877,17.000467 C 13.301877,16.448467 12.853877,16.000467 12.301877,16.000467 C 12.301877,16.000467 10.301877,16.000467 10.301877,16.000467 z"
     id="path3196"
     style="fill:#3a3935;fill-opacity:1;fill-rule:evenodd;stroke:none;stroke-width:1.69999993;stroke-linecap:round;stroke-linejoin:miter;marker:none;marker-start:none;marker-mid:none;marker-end:none;stroke-miterlimit:4;stroke-dasharray:none;stroke-dashoffset:0;stroke-opacity:1;visibility:visible;display:inline;overflow:visible;enable-background:accumulate" />
</svg>
