<?xml version="1.0" encoding="UTF-8" standalone="no"?>
<!-- Created with Inkscape (http://www.inkscape.org/) -->
<svg
   xmlns:svg="http://www.w3.org/2000/svg"
   xmlns="http://www.w3.org/2000/svg"
   version="1.0"
   width="22"
   height="22"
   id="svg3215">
  <defs
     id="defs3217" />
  <path
     d="M 12.5,4 C 10.810544,4.0000001 9.363196,5.0625201 8.59375,6.59375 C 8.1604803,6.2333444 7.6072,6.0000001 7,6 C 5.6200001,6.0000001 4.5000001,7.1200002 4.5,8.5 C 4.5,8.809927 4.5530097,9.1010425 4.65625,9.375 C 3.0867423,10.07628 2,11.664032 2,13.5 C 2,15.993 4.007,18 6.5,18 L 15.5,18 C 17.993,18 20,15.993 20,13.5 C 20,11.525327 18.73127,9.858967 16.96875,9.25 C 16.972663,9.1645736 17,9.0865005 17,9 C 17,6.2399996 14.984,4 12.5,4 z"
     id="rect3193"
     style="fill:#3a3935;fill-opacity:1;fill-rule:evenodd;stroke:none;stroke-width:4;stroke-linecap:butt;stroke-linejoin:miter;marker:none;marker-start:none;marker-mid:none;marker-end:none;stroke-miterlimit:4;stroke-dasharray:none;stroke-dashoffset:0;stroke-opacity:1;visibility:visible;display:inline;overflow:visible;enable-background:accumulate" />
  <path
     d="M 12.497397,3.4865526 C 10.821011,3.4681694 9.2836169,4.5210213 8.4348969,5.9240526 C 6.9381419,4.901249 4.7395395,5.7943515 4.1809223,7.4603598 C 3.7243904,8.2471628 4.5287463,9.2846229 3.4348038,9.5950808 C 1.5622183,10.968886 0.94391695,13.717814 2.0456852,15.759752 C 2.9289165,17.543365 4.932622,18.635 6.9071969,18.486552 C 9.8984229,18.477169 12.890585,18.505555 15.881212,18.471929 C 18.360862,18.332859 20.484994,16.099636 20.495759,13.615289 C 20.578692,11.641726 19.290897,9.760171 17.497397,8.9865526 C 17.551421,6.4608386 15.720212,3.8768416 13.13507,3.5311198 C 12.923904,3.5013616 12.710646,3.4865402 12.497397,3.4865526 z"
     id="path3203"
     style="opacity:0.6;fill:none;fill-opacity:1;fill-rule:nonzero;stroke:#eae3d0;stroke-width:0.99999994;stroke-linecap:round;stroke-linejoin:miter;marker:none;marker-start:none;marker-mid:none;marker-end:none;stroke-miterlimit:4;stroke-dasharray:none;stroke-dashoffset:0;stroke-opacity:1;visibility:visible;display:inline;overflow:visible;enable-background:accumulate" />
  <path
     d="M 10.997397,6.9865526 C 10.443397,6.9865526 9.9973969,7.4325526 9.9973969,7.9865526 L 9.9973969,12.986552 C 9.9973969,13.540552 10.443397,13.986552 10.997397,13.986552 C 11.551397,13.986552 11.997397,13.540552 11.997397,12.986552 L 11.997397,7.9865526 C 11.997397,7.4325526 11.551397,6.9865526 10.997397,6.9865526 z M 10.997397,14.986552 C 10.445397,14.986552 9.9973969,15.434552 9.9973969,15.986552 C 9.9973969,16.538552 10.445397,16.986552 10.997397,16.986552 C 11.549397,16.986552 11.997397,16.538552 11.997397,15.986552 C 11.997397,15.434552 11.549397,14.986552 10.997397,14.986552 z"
     id="path3271"
     style="fill:none;fill-opacity:1;fill-rule:nonzero;stroke:none;stroke-width:0.99999994;stroke-linecap:round;stroke-linejoin:miter;marker:none;marker-start:none;marker-mid:none;marker-end:none;stroke-miterlimit:4;stroke-dasharray:none;stroke-dashoffset:0;stroke-opacity:1;visibility:visible;display:inline;overflow:visible;enable-background:accumulate" />
</svg>
