<?xml version="1.0" encoding="UTF-8" standalone="no"?>
<!-- Created with Inkscape (http://www.inkscape.org/) -->
<svg
   xmlns:dc="http://purl.org/dc/elements/1.1/"
   xmlns:cc="http://creativecommons.org/ns#"
   xmlns:rdf="http://www.w3.org/1999/02/22-rdf-syntax-ns#"
   xmlns:svg="http://www.w3.org/2000/svg"
   xmlns="http://www.w3.org/2000/svg"
   xmlns:sodipodi="http://sodipodi.sourceforge.net/DTD/sodipodi-0.dtd"
   xmlns:inkscape="http://www.inkscape.org/namespaces/inkscape"
   version="1.0"
   width="22"
   height="22"
   id="svg3171"
   sodipodi:version="0.32"
   inkscape:version="0.46"
   sodipodi:docname="stock_person-panel.svg"
   inkscape:output_extension="org.inkscape.output.svg.inkscape">
  <metadata
     id="metadata8">
    <rdf:RDF>
      <cc:Work
         rdf:about="">
        <dc:format>image/svg+xml</dc:format>
        <dc:type
           rdf:resource="http://purl.org/dc/dcmitype/StillImage" />
      </cc:Work>
    </rdf:RDF>
  </metadata>
  <sodipodi:namedview
     inkscape:window-height="781"
     inkscape:window-width="1440"
     inkscape:pageshadow="2"
     inkscape:pageopacity="0.0"
     guidetolerance="10.0"
     gridtolerance="10.0"
     objecttolerance="10.0"
     borderopacity="1.0"
     bordercolor="#666666"
     pagecolor="#ffffff"
     id="base"
     showgrid="false"
     inkscape:zoom="22.636364"
     inkscape:cx="11"
     inkscape:cy="11"
     inkscape:window-x="0"
     inkscape:window-y="24"
     inkscape:current-layer="svg3171" />
  <defs
     id="defs3173">
    <inkscape:perspective
       sodipodi:type="inkscape:persp3d"
       inkscape:vp_x="0 : 11 : 1"
       inkscape:vp_y="0 : 1000 : 0"
       inkscape:vp_z="22 : 11 : 1"
       inkscape:persp3d-origin="11 : 7.3333333 : 1"
       id="perspective10" />
    <inkscape:perspective
       sodipodi:type="inkscape:persp3d"
       inkscape:vp_x="0 : 16 : 1"
       inkscape:vp_y="0 : 1000 : 0"
       inkscape:vp_z="32 : 16 : 1"
       inkscape:persp3d-origin="16 : 10.666667 : 1"
       id="perspective2392" />
    <inkscape:perspective
       sodipodi:type="inkscape:persp3d"
       inkscape:vp_x="0 : 32 : 1"
       inkscape:vp_y="0 : 1000 : 0"
       inkscape:vp_z="64 : 32 : 1"
       inkscape:persp3d-origin="32 : 21.333333 : 1"
       id="perspective2388" />
    <inkscape:perspective
       id="perspective9"
       inkscape:persp3d-origin="24 : 16 : 1"
       inkscape:vp_z="48 : 24 : 1"
       inkscape:vp_y="0 : 1000 : 0"
       inkscape:vp_x="0 : 24 : 1"
       sodipodi:type="inkscape:persp3d" />
    <inkscape:perspective
       id="perspective2393"
       inkscape:persp3d-origin="12 : 8 : 1"
       inkscape:vp_z="24 : 12 : 1"
       inkscape:vp_y="0 : 1000 : 0"
       inkscape:vp_x="0 : 12 : 1"
       sodipodi:type="inkscape:persp3d" />
  </defs>
  <path
     style="opacity:0.59999999999999998;fill:none;fill-opacity:1;fill-rule:evenodd;stroke:#eae3d0;stroke-width:0.99999994000000003;stroke-linecap:round;stroke-linejoin:round;marker:none;marker-start:none;marker-mid:none;marker-end:none;stroke-miterlimit:4;stroke-dasharray:none;stroke-dashoffset:0;stroke-opacity:1;visibility:visible;display:inline;overflow:visible;enable-background:accumulate;color:#000000"
     id="path3167"
     d="M 10.937692,1.5010934 C 10.281454,1.4971794 9.6775545,1.6168885 9.1930722,1.9371821 C 9.0519538,2.0304761 9.0178779,2.0419942 8.9749947,2.0617788 C 8.9421568,2.0284784 8.9300713,2.0003833 8.8815329,1.9683312 C 8.7520974,1.882859 8.5317627,1.8406451 8.3519162,1.9060329 C 8.0465166,2.0170688 7.9447923,2.1746563 7.8846072,2.3421215 C 7.7997777,2.3016286 7.7377687,2.2589828 7.5107601,2.3109723 C 7.4300398,2.3294589 7.3245903,2.3956406 7.2303748,2.4978675 C 7.1361592,2.6000943 7.078346,2.7349673 7.0746051,2.8405086 C 7.0740439,2.8563398 7.0743657,2.8572375 7.0746051,2.8716578 C 6.9975722,2.9364451 6.9336705,3.0069839 6.8565276,3.0897021 C 6.6802009,3.2787723 6.4778069,3.5410784 6.2957569,3.8061335 C 6.0146887,4.2153513 5.8096904,4.5554178 5.7038323,5.0209519 C 5.5979741,5.4864861 5.5791473,6.0295675 5.5792166,6.8587542 C 5.5792554,7.3938395 5.6176067,7.9124083 5.6103705,8.2604678 C 5.6067524,8.4344975 5.5897095,8.5643838 5.5792166,8.6031089 C 5.5358844,8.6412504 5.4488593,8.6600286 5.4234469,8.6965564 C 5.3569181,8.7921853 5.3519786,8.8687824 5.3299851,8.9457499 C 5.2859983,9.0996851 5.2743709,9.2515561 5.2676773,9.4129878 C 5.25429,9.7358513 5.2533539,10.114444 5.2988312,10.503209 C 5.4165373,11.509442 5.6775314,12.158757 6.2334491,12.683653 C 6.5474358,12.980116 6.8710113,13.440445 7.105759,13.867322 C 7.3405068,14.2942 7.4484523,14.716305 7.4484523,14.864096 C 7.4484523,14.87925 7.3988066,15.0973 7.1680669,15.362483 C 6.9373273,15.627666 6.5550854,15.952192 6.0776794,16.296959 C 5.1228673,16.986494 3.7451362,17.754098 2.1211305,18.477402 L 0.81266556,19.069237 C 0.62610941,19.150357 0.50426534,19.333095 0.50112628,19.536475 L 0.50112628,20.969338 C 0.49800647,21.110712 0.55280279,21.247222 0.65280951,21.347214 C 0.75281624,21.447205 0.88934662,21.501993 1.0307431,21.498874 L 20.969257,21.498874 C 21.110653,21.501993 21.247184,21.447205 21.347191,21.347214 C 21.447197,21.247222 21.501993,21.110712 21.498874,20.969338 L 21.498874,19.256132 C 21.490526,19.045121 21.354955,18.860281 21.156181,18.788894 L 19.941177,18.290507 C 18.570098,17.714748 17.280568,16.978107 16.358476,16.296959 C 15.897429,15.956385 15.534895,15.633963 15.299242,15.362483 C 15.063589,15.091004 15.018857,14.857603 15.018857,14.864096 C 15.018857,14.709428 15.134231,14.262465 15.36155,13.836173 C 15.588869,13.409881 15.891949,12.977066 16.202706,12.683653 C 16.750312,12.166595 17.049497,11.520341 17.168478,10.503209 C 17.214034,10.113729 17.213844,9.7329397 17.199632,9.4129878 C 17.192526,9.2530118 17.179352,9.0962069 17.137324,8.9457499 C 17.108586,8.8428699 17.046495,8.721336 16.919246,8.6031089 C 16.903722,8.5446919 16.867968,8.4044581 16.856939,8.2293186 C 16.834882,7.8790396 16.856939,7.3731755 16.856939,6.8587542 C 16.856937,5.3741516 16.722498,4.6578918 16.296168,3.9618794 C 15.825447,3.1934038 14.96775,2.6428984 13.990777,2.2175248 C 13.013804,1.7921511 11.913527,1.5069136 10.937692,1.5010934 z" />
  <path
     style="fill:#3a3935;fill-opacity:1;fill-rule:evenodd;stroke:none;stroke-width:1.00213277000000001;stroke-linecap:round;stroke-linejoin:round;marker:none;marker-start:none;marker-mid:none;marker-end:none;stroke-miterlimit:4;stroke-dasharray:none;stroke-dashoffset:0;stroke-opacity:1;visibility:visible;display:inline;overflow:visible;enable-background:accumulate"
     id="rect2382"
     d="M 10.921875,2.0000799 C 10.332819,1.996566 9.8155936,2.108932 9.4635418,2.3417105 C 9.0093482,2.6420259 8.8090916,2.6801445 8.6822916,2.473107 C 8.5609725,2.2750264 8.4506375,2.2971565 8.34375,2.578224 C 8.2533625,2.8159259 8.0644021,2.9244431 7.8489584,2.8410169 C 7.6435458,2.7614733 7.5593125,2.7870968 7.640625,2.9198547 C 7.7187625,3.0474503 7.6805625,3.1563682 7.5625,3.1563682 C 7.4444375,3.1563682 7.0663292,3.5588983 6.7291666,4.0498638 C 6.1916977,4.832504 6.1040292,5.1902006 6.1041666,6.8354676 C 6.1042415,7.8677426 6.2066708,8.872868 5.8958334,8.9378106 C 5.7135272,8.9758987 5.7308834,9.6933879 5.8177084,10.435729 C 5.9312459,11.406472 6.1008355,11.882031 6.5729166,12.327837 C 7.3082105,13.022201 7.9791666,14.224162 7.9791666,14.876928 C 7.9791665,15.809738 5.63735,17.502399 2.328125,18.976496 L 1,19.554639 L 1,21 L 21,21 L 21,19.291847 L 19.776042,18.79254 C 16.950585,17.605862 14.489584,15.786546 14.489584,14.876928 C 14.489584,14.225739 15.135235,13.021504 15.869792,12.327837 C 16.341866,11.882031 16.537505,11.406472 16.651042,10.435729 C 16.73786,9.6933879 16.749597,8.9970517 16.572916,8.9378106 C 16.329465,8.8561789 16.338542,7.8592784 16.338542,6.8354676 C 16.338541,5.3679192 16.245979,4.8217836 15.869792,4.2075395 C 15.121232,2.9852916 12.689044,2.0106214 10.921875,2.0000799 z" />
</svg>
