<?xml version="1.0" encoding="UTF-8" standalone="no"?>
<!-- Created with Inkscape (http://www.inkscape.org/) -->

<svg
   xmlns:dc="http://purl.org/dc/elements/1.1/"
   xmlns:cc="http://creativecommons.org/ns#"
   xmlns:rdf="http://www.w3.org/1999/02/22-rdf-syntax-ns#"
   xmlns:svg="http://www.w3.org/2000/svg"
   xmlns="http://www.w3.org/2000/svg"
   xmlns:sodipodi="http://sodipodi.sourceforge.net/DTD/sodipodi-0.dtd"
   xmlns:inkscape="http://www.inkscape.org/namespaces/inkscape"
   version="1.0"
   width="22"
   height="22"
   id="svg3171"
   inkscape:version="0.48.0 r9654"
   sodipodi:docname="stock_person-panel.svg">
  <metadata
     id="metadata9">
    <rdf:RDF>
      <cc:Work
         rdf:about="">
        <dc:format>image/svg+xml</dc:format>
        <dc:type
           rdf:resource="http://purl.org/dc/dcmitype/StillImage" />
      </cc:Work>
    </rdf:RDF>
  </metadata>
  <sodipodi:namedview
     pagecolor="#ffffff"
     bordercolor="#666666"
     borderopacity="1"
     objecttolerance="10"
     gridtolerance="10"
     guidetolerance="10"
     inkscape:pageopacity="0"
     inkscape:pageshadow="2"
     inkscape:window-width="1280"
     inkscape:window-height="753"
     id="namedview7"
     showgrid="false"
     inkscape:zoom="13.227273"
     inkscape:cx="-0.49140893"
     inkscape:cy="11.793814"
     inkscape:window-x="0"
     inkscape:window-y="24"
     inkscape:window-maximized="1"
     inkscape:current-layer="svg3171" />
  <defs
     id="defs3173" />
  <path
     inkscape:connector-curvature="0"
     style="fill:#ffffff;fill-opacity:1;fill-rule:evenodd;stroke:none;stroke-width:1.00213277000000001;marker:none;visibility:visible;display:inline;overflow:visible;enable-background:accumulate;opacity:0.3"
     id="rect2382-7"
     d="M 10.921875,3.0000799 C 10.332819,2.996566 9.8155936,3.108932 9.4635418,3.3417105 9.0093482,3.6420259 8.8090916,3.6801445 8.6822916,3.473107 8.5609725,3.2750264 8.4506375,3.2971565 8.34375,3.578224 8.2533625,3.8159259 8.0644021,3.9244431 7.8489584,3.8410169 7.6435458,3.7614733 7.5593125,3.7870968 7.640625,3.9198547 7.7187625,4.0474503 7.6805625,4.1563682 7.5625,4.1563682 c -0.1180625,0 -0.4961708,0.4025301 -0.8333334,0.8934956 -0.5374689,0.7826402 -0.6251374,1.1403368 -0.625,2.7856038 7.49e-5,1.032275 0.1025042,2.0374004 -0.2083332,2.102343 -0.1823062,0.038088 -0.16495,0.7555774 -0.078125,1.4979184 0.1135375,0.970743 0.2831271,1.446302 0.7552082,1.892108 0.7352939,0.694364 1.40625,1.896325 1.40625,2.549091 -1e-7,0.93281 -2.3418166,2.625471 -5.6510416,4.099568 L 1,20.554639 1,22 21,22 21,20.291847 19.776042,19.79254 c -2.825457,-1.186678 -5.286458,-3.005994 -5.286458,-3.915612 0,-0.651189 0.645651,-1.855424 1.380208,-2.549091 0.472074,-0.445806 0.667713,-0.921365 0.78125,-1.892108 0.08682,-0.742341 0.09856,-1.4386773 -0.07813,-1.4979184 -0.243451,-0.081632 -0.234374,-1.0785322 -0.234374,-2.102343 -1e-6,-1.4675484 -0.09256,-2.013684 -0.46875,-2.6279281 C 15.121228,3.9852916 12.68904,3.0106214 10.921871,3.0000799 z" />
  <path
     inkscape:connector-curvature="0"
     style="fill:#3c3c3c;fill-opacity:1;fill-rule:evenodd;stroke:none;stroke-width:1.00213277;marker:none;visibility:visible;display:inline;overflow:visible;enable-background:accumulate"
     id="rect2382"
     d="M 10.921875,2.0000799 C 10.332819,1.996566 9.8155936,2.108932 9.4635418,2.3417105 9.0093482,2.6420259 8.8090916,2.6801445 8.6822916,2.473107 8.5609725,2.2750264 8.4506375,2.2971565 8.34375,2.578224 8.2533625,2.8159259 8.0644021,2.9244431 7.8489584,2.8410169 7.6435458,2.7614733 7.5593125,2.7870968 7.640625,2.9198547 7.7187625,3.0474503 7.6805625,3.1563682 7.5625,3.1563682 c -0.1180625,0 -0.4961708,0.4025301 -0.8333334,0.8934956 -0.5374689,0.7826402 -0.6251374,1.1403368 -0.625,2.7856038 7.49e-5,1.032275 0.1025042,2.0374004 -0.2083332,2.102343 -0.1823062,0.038088 -0.16495,0.7555773 -0.078125,1.4979184 0.1135375,0.970743 0.2831271,1.446302 0.7552082,1.892108 0.7352939,0.694364 1.40625,1.896325 1.40625,2.549091 -1e-7,0.93281 -2.3418166,2.625471 -5.6510416,4.099568 L 1,19.554639 1,21 21,21 21,19.291847 19.776042,18.79254 c -2.825457,-1.186678 -5.286458,-3.005994 -5.286458,-3.915612 0,-0.651189 0.645651,-1.855424 1.380208,-2.549091 0.472074,-0.445806 0.667713,-0.921365 0.78125,-1.892108 0.08682,-0.7423411 0.09856,-1.4386773 -0.07813,-1.4979184 -0.243451,-0.081632 -0.234374,-1.0785322 -0.234374,-2.102343 -1e-6,-1.4675484 -0.09256,-2.013684 -0.46875,-2.6279281 C 15.121228,2.9852916 12.68904,2.0106214 10.921871,2.0000799 z" />
</svg>
