<?xml version="1.0" encoding="UTF-8" standalone="no"?>
<!-- Created with Inkscape (http://www.inkscape.org/) -->

<svg
   xmlns:dc="http://purl.org/dc/elements/1.1/"
   xmlns:cc="http://creativecommons.org/ns#"
   xmlns:rdf="http://www.w3.org/1999/02/22-rdf-syntax-ns#"
   xmlns:svg="http://www.w3.org/2000/svg"
   xmlns="http://www.w3.org/2000/svg"
   xmlns:sodipodi="http://sodipodi.sourceforge.net/DTD/sodipodi-0.dtd"
   xmlns:inkscape="http://www.inkscape.org/namespaces/inkscape"
   version="1.0"
   width="24"
   height="24"
   id="svg3172"
   inkscape:version="0.47 r22583"
   sodipodi:docname="audio-volume-muted-panel.svg">
  <metadata
     id="metadata11">
    <rdf:RDF>
      <cc:Work
         rdf:about="">
        <dc:format>image/svg+xml</dc:format>
        <dc:type
           rdf:resource="http://purl.org/dc/dcmitype/StillImage" />
        <dc:title></dc:title>
      </cc:Work>
    </rdf:RDF>
  </metadata>
  <sodipodi:namedview
     pagecolor="#ffffff"
     bordercolor="#666666"
     borderopacity="1"
     objecttolerance="10"
     gridtolerance="10"
     guidetolerance="10"
     inkscape:pageopacity="0"
     inkscape:pageshadow="2"
     inkscape:window-width="640"
     inkscape:window-height="480"
     id="namedview9"
     showgrid="false"
     inkscape:zoom="12.708333"
     inkscape:cx="12"
     inkscape:cy="12"
     inkscape:window-x="0"
     inkscape:window-y="24"
     inkscape:window-maximized="0"
     inkscape:current-layer="svg3172" />
  <defs
     id="defs3174">
    <inkscape:perspective
       sodipodi:type="inkscape:persp3d"
       inkscape:vp_x="0 : 12 : 1"
       inkscape:vp_y="0 : 1000 : 0"
       inkscape:vp_z="24 : 12 : 1"
       inkscape:persp3d-origin="12 : 8 : 1"
       id="perspective13" />
  </defs>
  <path
     style="opacity:0.6;fill:#43423e;fill-opacity:1;fill-rule:evenodd;stroke:none;stroke-width:1.69999993;marker:none;visibility:visible;display:inline;overflow:visible;enable-background:accumulate"
     id="path3228"
     d="M 15,6 C 14.281706,5.9788098 13.662945,6.4198054 13.253987,6.9764677 12.679741,7.6509785 12.105496,8.3254892 11.53125,9 10.79514,9.0428118 10.03083,8.8921008 9.31784,9.1229015 8.4427803,9.4299794 7.8999336,10.372188 7.9985902,11.283157 c 0.011253,1.005727 -0.025826,2.01446 0.024783,3.018247 0.1412787,1.033379 1.1689297,1.804949 2.1980048,1.698596 0.447041,0 0.894081,0 1.341122,0 0.71306,0.820463 1.43678,1.633689 2.135657,2.464539 0.769733,0.799637 2.175485,0.662661 2.8407,-0.198063 C 16.998194,17.765234 17.021231,17.070859 17,16.430741 16.9982,13.586602 17.0035,10.742372 16.9974,7.8982899 16.958499,6.8680417 16.032382,5.9844595 15,6 z" />
  <path
     style="fill:#dfd8c8;fill-opacity:1;fill-rule:evenodd;stroke:none;stroke-width:1.69999993;marker:none;visibility:visible;display:inline;overflow:visible;enable-background:accumulate"
     id="rect3180"
     d="M 15,7 C 14.694777,7 14.433473,7.1279595 14.25,7.34375 L 12,10 c 0,0 -2,0 -2,0 -0.552,0 -1,0.448 -1,1 -0.00627,0.996071 0.00222,2.014549 0,3 0,0.552 0.4480001,1 1,1 l 2,0 2.15625,2.46875 C 14.327608,17.773669 14.625554,18 15,18 c 0.552,0 1,-0.448 1,-1 L 16,8 C 16,7.448 15.552,7 15,7 z" />
</svg>
