<?xml version="1.0" encoding="UTF-8" standalone="no"?>
<!-- Created with Inkscape (http://www.inkscape.org/) -->
<svg
   xmlns:dc="http://purl.org/dc/elements/1.1/"
   xmlns:cc="http://creativecommons.org/ns#"
   xmlns:rdf="http://www.w3.org/1999/02/22-rdf-syntax-ns#"
   xmlns:svg="http://www.w3.org/2000/svg"
   xmlns="http://www.w3.org/2000/svg"
   xmlns:sodipodi="http://sodipodi.sourceforge.net/DTD/sodipodi-0.dtd"
   xmlns:inkscape="http://www.inkscape.org/namespaces/inkscape"
   version="1.0"
   width="24"
   height="24"
   id="svg3240"
   sodipodi:version="0.32"
   inkscape:version="0.46"
   sodipodi:docname="battery-040-charging.svg"
   inkscape:output_extension="org.inkscape.output.svg.inkscape">
  <metadata
     id="metadata12">
    <rdf:RDF>
      <cc:Work
         rdf:about="">
        <dc:format>image/svg+xml</dc:format>
        <dc:type
           rdf:resource="http://purl.org/dc/dcmitype/StillImage" />
      </cc:Work>
    </rdf:RDF>
  </metadata>
  <sodipodi:namedview
     inkscape:window-height="781"
     inkscape:window-width="1440"
     inkscape:pageshadow="2"
     inkscape:pageopacity="0.0"
     guidetolerance="10.0"
     gridtolerance="10.0"
     objecttolerance="10.0"
     borderopacity="1.0"
     bordercolor="#666666"
     pagecolor="#ffffff"
     id="base"
     showgrid="false"
     inkscape:zoom="20.75"
     inkscape:cx="4.5301205"
     inkscape:cy="12"
     inkscape:window-x="0"
     inkscape:window-y="24"
     inkscape:current-layer="layer1" />
  <defs
     id="defs3242">
    <inkscape:perspective
       sodipodi:type="inkscape:persp3d"
       inkscape:vp_x="0 : 12 : 1"
       inkscape:vp_y="0 : 1000 : 0"
       inkscape:vp_z="24 : 12 : 1"
       inkscape:persp3d-origin="12 : 8 : 1"
       id="perspective14" />
  </defs>
  <g
     id="layer1">
    <rect
       width="14.5"
       height="7.5"
       rx="0.25"
       ry="0.25"
       x="4.25"
       y="8.25"
       id="rect3236"
       style="opacity:0.29999999999999999;fill:none;fill-opacity:1;fill-rule:nonzero;stroke:#ffffff;stroke-width:0.50000000000000000;stroke-linecap:round;stroke-linejoin:miter;marker:none;marker-start:none;marker-mid:none;marker-end:none;stroke-miterlimit:4;stroke-dasharray:none;stroke-dashoffset:0;stroke-opacity:1;visibility:visible;display:inline;overflow:visible;enable-background:accumulate" />
    <path
       d="M 4.5,6.5 C 3.392,6.5 2.5,7.392 2.5,8.5 L 2.5,15.5 C 2.5,16.608 3.3919998,17.5 4.5,17.5 L 18.5,17.5 C 19.608,17.5 20.500001,16.608 20.5,15.5 L 20.5,14.5 C 21.086861,14.465401 21.660328,14.262611 22.03125,13.78125 C 22.556463,13.206345 22.446061,12.592479 22.5,11.6875 C 22.553939,10.782521 21.530965,9.5237494 20.426211,9.5 L 20.5,8.5 C 20.5,7.392 19.608001,6.5 18.5,6.5 L 4.5,6.5 z"
       id="rect3225"
       style="opacity:0.59999999999999998;fill:none;fill-opacity:1;fill-rule:nonzero;stroke:#3a3935;stroke-width:0.99999994000000003;stroke-linecap:round;stroke-linejoin:miter;marker:none;marker-start:none;marker-mid:none;marker-end:none;stroke-miterlimit:4;stroke-dasharray:none;stroke-dashoffset:0;stroke-opacity:1;visibility:visible;display:inline;overflow:visible;enable-background:accumulate" />
    <rect
       width="6"
       height="5"
       rx="0.5"
       ry="0.49999994"
       x="9.0500002"
       y="-10"
       transform="matrix(0,1,-1,0,0,0)"
       id="rect3728"
       style="opacity:0.40000000000000002;fill:#eae3d0;fill-opacity:1;fill-rule:evenodd;stroke:none;stroke-width:1.69999992999999994;stroke-linecap:round;stroke-linejoin:miter;marker:none;marker-start:none;marker-mid:none;marker-end:none;stroke-miterlimit:4;stroke-dasharray:none;stroke-dashoffset:0;stroke-opacity:1;visibility:visible;display:inline;overflow:visible;enable-background:accumulate" />
    <path
       d="M 4.5,7.5 L 18.5,7.5 C 19.054,7.5 19.5,7.946 19.5,8.5 L 19.5,15.5 C 19.5,16.054 19.054,16.5 18.5,16.5 L 4.5,16.5 C 3.946,16.5 3.5,16.054 3.5,15.5 L 3.5,8.5 C 3.5,7.946 3.946,7.5 4.5,7.5 z M 19.618451,10.50264 C 19.946491,10.50334 20.274527,10.504168 20.602559,10.505144 C 21.200384,10.545901 21.579292,11.15474 21.500033,11.717338 C 21.4766,12.25026 21.624154,12.894234 21.136838,13.272203 C 20.69836,13.622964 20.115638,13.463608 19.599631,13.5"
       id="rect2442"
       style="fill:none;fill-opacity:1;fill-rule:nonzero;stroke:#eae3d0;stroke-width:1;stroke-linecap:round;stroke-linejoin:miter;marker:none;marker-start:none;marker-mid:none;marker-end:none;stroke-miterlimit:4;stroke-dashoffset:0;stroke-opacity:1;visibility:visible;display:inline;overflow:visible;enable-background:accumulate" />
    <path
       d="M 10.875,7.53125 C 10.680169,7.603156 10.55394,7.7925002 10.5625,8 L 10.5625,11.21875 L 5.25,8.5625 C 5.0256343,8.4157994 4.7248256,8.4787593 4.578125,8.703125 C 4.4314244,8.9274907 4.4943843,9.2282994 4.71875,9.375 L 12.71875,16.375 C 12.862531,16.492352 13.061193,16.516006 13.228508,16.435694 C 13.395824,16.355383 13.501629,16.185585 13.5,16 L 13.5,13.6875 L 17.84375,15.4375 C 18.05645,15.536457 18.309522,15.466667 18.441436,15.272677 C 18.57335,15.078686 18.545219,14.817678 18.375,14.65625 L 11.375,7.65625 C 11.24691,7.520746 11.051787,7.471965 10.875,7.53125 z"
       id="path3160"
       style="opacity:0.29999999999999999;fill:#ffffff;fill-opacity:1;fill-rule:evenodd;stroke:none" />
    <path
       d="M 18.039267,15 L 11.039268,8.0000001 L 11.039268,12 L 5.0392673,9.0000001 L 13.039268,16 L 13.039268,13 L 18.039267,15 z"
       id="path3172"
       style="fill:#eae3d0;fill-opacity:1;fill-rule:evenodd;stroke:none" />
  </g>
</svg>
