<?xml version="1.0" encoding="UTF-8" standalone="no"?>
<!-- Created with Inkscape (http://www.inkscape.org/) -->
<svg
   xmlns:svg="http://www.w3.org/2000/svg"
   xmlns="http://www.w3.org/2000/svg"
   version="1.0"
   width="24"
   height="24"
   id="svg3215">
  <defs
     id="defs3217" />
  <g
     id="g3195"
     style="opacity:0.3">
    <path
       d="M 12.5,5.3333332 L 12.5,8.6666663"
       id="path3193"
       style="opacity:1;fill:none;fill-opacity:1;fill-rule:evenodd;stroke:#ffffff;stroke-width:2;stroke-linecap:round;stroke-linejoin:miter;marker:none;marker-start:none;marker-mid:none;marker-end:none;stroke-miterlimit:4;stroke-dasharray:none;stroke-dashoffset:0;stroke-opacity:1;visibility:visible;display:inline;overflow:visible;enable-background:accumulate" />
    <rect
       width="13.5"
       height="8.5"
       rx="2.3"
       ry="3.3000903"
       x="-18.75"
       y="8.25"
       transform="matrix(0,-1,1,0,0,0)"
       id="rect3236"
       style="opacity:1;fill:none;fill-opacity:1;fill-rule:nonzero;stroke:#ffffff;stroke-width:0.49999994;stroke-linecap:round;stroke-linejoin:miter;marker:none;marker-start:none;marker-mid:none;marker-end:none;stroke-miterlimit:4;stroke-dasharray:none;stroke-dashoffset:0;stroke-opacity:1;visibility:visible;display:inline;overflow:visible;enable-background:accumulate" />
  </g>
  <path
     d="M 10.562725,6.2465282 C 9.6353419,6.5871892 9,7.2440955 9,8 L 9,16 C 9,17.108 10.338,18 12,18 L 13,18 C 14.662,18 16,17.108 16,16 L 16,8 C 16,7.244634 15.365563,6.5881251 14.439256,6.2472566 C 14.027254,6.0883419 14,6.3694637 14,6.46875 L 14,9 C 14,9.554 13.554,10 13,10 L 12,10 C 11.446,10 11,9.554 11,9 L 11,6.46875 C 11,6.269519 10.797319,6.1575525 10.562725,6.2465282 z"
     id="rect3728"
     style="opacity:1;fill:#dfd8c8;fill-opacity:1;fill-rule:evenodd;stroke:none;stroke-width:1.69999993;stroke-linecap:round;stroke-linejoin:miter;marker:none;marker-start:none;marker-mid:none;marker-end:none;stroke-miterlimit:4;stroke-dasharray:none;stroke-dashoffset:0;stroke-opacity:1;visibility:visible;display:inline;overflow:visible;enable-background:accumulate" />
  <rect
     width="12"
     height="17"
     rx="5"
     ry="4"
     x="6.5"
     y="3.5"
     id="rect3178"
     style="opacity:0.6;fill:none;fill-opacity:1;fill-rule:nonzero;stroke:#43423e;stroke-width:1;stroke-linecap:round;stroke-linejoin:miter;marker:none;marker-start:none;marker-mid:none;marker-end:none;stroke-miterlimit:4;stroke-dasharray:none;stroke-dashoffset:0;stroke-opacity:1;visibility:visible;display:inline;overflow:visible;enable-background:accumulate" />
  <path
     d="M 11.5,4.499999 L 13.5,4.499999 C 15.716,4.499999 17.5,5.837999 17.5,7.499999 L 17.5,16.5 C 17.5,18.162 15.716,19.5 13.5,19.5 L 11.5,19.5 C 9.2839999,19.5 7.5,18.162 7.5,16.5 L 7.5,7.499999 C 7.5,5.837999 9.2839999,4.499999 11.5,4.499999 z M 12.541885,4.5 L 12.541885,8.5"
     id="rect2406"
     style="opacity:1;fill:none;fill-opacity:1;fill-rule:nonzero;stroke:#dfd8c8;stroke-width:1;stroke-linecap:round;stroke-linejoin:miter;marker:none;marker-start:none;marker-mid:none;marker-end:none;stroke-miterlimit:4;stroke-dasharray:none;stroke-dashoffset:0;stroke-opacity:1;visibility:visible;display:inline;overflow:visible;enable-background:accumulate" />
</svg>
