<?xml version="1.0" encoding="UTF-8" standalone="no"?>
<!-- Created with Inkscape (http://www.inkscape.org/) -->
<svg
   xmlns:svg="http://www.w3.org/2000/svg"
   xmlns="http://www.w3.org/2000/svg"
   version="1.0"
   width="24"
   height="24"
   id="svg3200">
  <defs
     id="defs3202" />
  <g
     id="g2422"
     style="opacity:0.5">
    <path
       d="M 8,3 L 1,10 L 5,10 L 5,17 L 11,17 L 16,22 L 23,15 L 19,15 L 19,8 L 13,8 L 8,3 z M 11,10 L 13,10 L 13,15 L 11,15 L 11,10 z"
       id="path2427"
       style="opacity:0.6;fill:#43423e;fill-opacity:1;fill-rule:evenodd;stroke:none;stroke-width:1.69999993;stroke-linecap:round;stroke-linejoin:miter;marker:none;marker-start:none;marker-mid:none;marker-end:none;stroke-miterlimit:4;stroke-dasharray:none;stroke-dashoffset:0;stroke-opacity:1;visibility:visible;display:inline;overflow:visible;enable-background:accumulate" />
    <path
       d="M 21,16 L 16,21 L 11,16 L 14,16 L 14,9 L 18,9 L 18,16 L 21,16 z M 13,9 L 8,4 L 3,9 L 6,9 L 6,16 L 10,16 L 10,9 L 13,9 z"
       id="path4348-1"
       style="opacity:1;fill:#dfd8c8;fill-opacity:1;fill-rule:evenodd;stroke:none;stroke-width:1.69999993;stroke-linecap:round;stroke-linejoin:miter;marker:none;marker-start:none;marker-mid:none;marker-end:none;stroke-miterlimit:4;stroke-dasharray:none;stroke-dashoffset:0;stroke-opacity:1;visibility:visible;display:inline;overflow:visible;enable-background:accumulate" />
  </g>
</svg>
