<?xml version="1.0" encoding="UTF-8" standalone="no"?>
<!-- Created with Inkscape (http://www.inkscape.org/) -->
<svg
   xmlns:svg="http://www.w3.org/2000/svg"
   xmlns="http://www.w3.org/2000/svg"
   version="1.0"
   width="24"
   height="24"
   id="svg3340">
  <defs
     id="defs3342" />
  <g
     id="layer1">
    <path
       d="M 11.000462,2.9830522 C 8.7844624,2.9830522 7.0004624,4.7670522 7.0004624,6.9830522 L 7.0004624,9.9830522 L 6.0004624,9.9830522 C 5.4464624,9.9830522 5.0004624,10.429052 5.0004624,10.983052 L 5.0004624,19.983053 C 5.0004624,20.537053 5.4464624,20.983053 6.0004624,20.983053 L 18.000462,20.983053 C 18.554462,20.983053 19.000462,20.537053 19.000462,19.983053 L 19.000462,10.983052 C 19.000462,10.429052 18.554462,9.9830522 18.000462,9.9830522 L 17.000462,9.9830522 L 17.000462,6.9830522 C 17.000462,4.7670522 15.216462,2.9830522 13.000462,2.9830522 L 11.000462,2.9830522 z M 11.000462,4.9830522 L 13.000462,4.9830522 C 14.108462,4.9830522 15.000462,5.8750522 15.000462,6.9830522 L 15.000462,9.9830522 L 9.0004624,9.9830522 L 9.0004624,6.9830522 C 9.0004624,5.8750522 9.8924624,4.9830522 11.000462,4.9830522 z"
       id="rect2822"
       style="opacity:1;fill:#dfd8c8;fill-opacity:1;fill-rule:evenodd;stroke:none;stroke-width:1.69999993;stroke-linecap:round;stroke-linejoin:miter;marker:none;marker-start:none;marker-mid:none;marker-end:none;stroke-miterlimit:4;stroke-dasharray:none;stroke-dashoffset:0;stroke-opacity:1;visibility:visible;display:inline;overflow:visible;enable-background:accumulate" />
    <path
       d="M 11.000462,2.4830522 C 8.7218341,2.4285901 6.6353267,4.3612135 6.513581,6.6367597 C 6.4854336,7.5849342 6.5074438,8.534356 6.5004624,9.4830522 C 5.761406,9.4096888 4.9082275,9.6353839 4.6189967,10.401155 C 4.3982022,11.167786 4.5414419,11.985132 4.5004624,12.775928 C 4.5056162,15.229103 4.4901262,17.682805 4.508258,20.13565 C 4.5748684,21.045569 5.5064733,21.606467 6.3590374,21.483053 C 10.290311,21.477863 14.222116,21.493437 18.153059,21.475257 C 19.062978,21.408647 19.623876,20.477042 19.500462,19.624478 C 19.495296,16.693203 19.510815,13.7614 19.492666,10.830455 C 19.426056,9.9205363 18.494451,9.3596383 17.641887,9.4830522 C 17.340506,9.4640915 17.574159,8.9100971 17.500462,8.6634523 C 17.484671,7.3396235 17.6492,5.9209078 16.904367,4.7429349 C 16.06294,3.2268649 14.305676,2.3499032 12.590662,2.4830522 C 12.060595,2.4830522 11.530529,2.4830522 11.000462,2.4830522 z"
       id="path3330"
       style="opacity:0.6;fill:none;fill-opacity:1;fill-rule:nonzero;stroke:#43423e;stroke-width:1;stroke-linecap:round;stroke-linejoin:miter;marker:none;marker-start:none;marker-mid:none;marker-end:none;stroke-miterlimit:4;stroke-dasharray:none;stroke-dashoffset:0;stroke-opacity:1;visibility:visible;display:inline;overflow:visible;enable-background:accumulate" />
    <path
       d="M 11.000462,5.2018022 C 11.844611,5.2321182 12.702177,5.1287041 13.53455,5.2808687 C 14.440153,5.5248633 14.881917,6.4923722 14.781712,7.3689667 C 14.781712,8.1674119 14.781712,8.965857 14.781712,9.7643022 C 12.927545,9.7643022 11.073379,9.7643022 9.2192124,9.7643022 C 9.2380256,8.7168654 9.1785446,7.6645491 9.2549152,6.6206676 C 9.4030075,5.8054807 10.173603,5.1842324 11.000462,5.2018022 z"
       id="path3337"
       style="opacity:0.3;fill:none;fill-opacity:1;stroke:#ffffff;stroke-width:0.5;stroke-miterlimit:4;stroke-dasharray:none;stroke-opacity:1" />
  </g>
</svg>
