<?xml version="1.0" encoding="UTF-8" standalone="no"?>
<!-- Created with Inkscape (http://www.inkscape.org/) -->

<svg
   xmlns:dc="http://purl.org/dc/elements/1.1/"
   xmlns:cc="http://creativecommons.org/ns#"
   xmlns:rdf="http://www.w3.org/1999/02/22-rdf-syntax-ns#"
   xmlns:svg="http://www.w3.org/2000/svg"
   xmlns="http://www.w3.org/2000/svg"
   xmlns:sodipodi="http://sodipodi.sourceforge.net/DTD/sodipodi-0.dtd"
   xmlns:inkscape="http://www.inkscape.org/namespaces/inkscape"
   version="1.0"
   width="16"
   height="16"
   id="svg3239"
   inkscape:version="0.48.0 r9654"
   sodipodi:docname="gnome-do-symbolic.svg">
  <metadata
     id="metadata13">
    <rdf:RDF>
      <cc:Work
         rdf:about="">
        <dc:format>image/svg+xml</dc:format>
        <dc:type
           rdf:resource="http://purl.org/dc/dcmitype/StillImage" />
        <dc:title></dc:title>
      </cc:Work>
    </rdf:RDF>
  </metadata>
  <sodipodi:namedview
     pagecolor="#ffffff"
     bordercolor="#666666"
     borderopacity="1"
     objecttolerance="10"
     gridtolerance="10"
     guidetolerance="10"
     inkscape:pageopacity="0"
     inkscape:pageshadow="2"
     inkscape:window-width="1280"
     inkscape:window-height="753"
     id="namedview11"
     showgrid="false"
     inkscape:zoom="13.227273"
     inkscape:cx="-0.49140893"
     inkscape:cy="11.793814"
     inkscape:window-x="0"
     inkscape:window-y="24"
     inkscape:window-maximized="1"
     inkscape:current-layer="svg3239" />
  <defs
     id="defs3241" />
  <path
     inkscape:connector-curvature="0"
     style="opacity:0.3;fill:#ffffff;fill-opacity:1;fill-rule:nonzero;stroke:none;stroke-width:1;marker:none;visibility:visible;display:inline;overflow:visible;enable-background:accumulate"
     id="path3235"
     d="M 2,2 C 0.892,2 0,2.892 0,4 l 0,10 c 0,1.108 0.892,2 2,2 l 12,0 c 1.108,0 2,-0.892 2,-2 L 16,4 C 16,2.892 15.108,2 14,2 L 2,2 z m 6.5625,2 c 0.134251,0.023366 0.218751,0.1134665 0.21875,0.34375 l 0,1.46875 C 9.081169,5.889919 9.426506,6.03639 9.6875,6.1875 L 10.75,5.21875 c 0.335981,-0.419071 0.585882,-0.122791 0.90625,0.25 0.300156,0.349272 0.450602,0.4555809 0.125,0.78125 l -0.9375,1.0625 c 0.158474,0.262819 0.295269,0.63367 0.375,0.9375 l 1.40625,0 C 13.085469,8.25 13,8.539435 13,9 c 0,0.460567 0.02297,0.78125 -0.4375,0.78125 l -1.34375,0 c -0.07988,0.305823 -0.216043,0.642624 -0.375,0.90625 l 1,1.0625 c 0.371282,0.325669 0.06958,0.528902 -0.25,0.875 -0.325838,0.352876 -0.571623,0.527051 -0.90625,0.15625 l -1,-0.9375 C 9.426507,11.994858 9.081169,12.110081 8.78125,12.1875 L 8.8125,13.625 C 8.8125,14.085566 8.460471,14 8,14 7.539528,14 7.25,14.05432 7.25,13.59375 L 7.28125,12.1875 C 6.981332,12.110081 6.60474,11.994858 6.34375,11.84375 l -1,0.96875 c -0.325603,0.325668 -0.5241113,0.07949 -0.875,-0.21875 -0.348898,-0.296545 -0.6153081,-0.53094 -0.25,-0.90625 l 0.9375,-1 C 4.997775,10.424679 4.8609797,10.085075 4.78125,9.78125 l -1.40625,0 C 2.914529,9.78125 3.03125,9.460567 3.03125,9 c 0,-0.460565 -0.1479719,-0.75 0.3125,-0.75 l 1.4375,0 C 4.861134,7.944174 4.9972911,7.576126 5.15625,7.3125 L 4.21875,6.28125 c -0.270911,-0.265716 -0.166449,-0.4111272 0.25,-0.8125 0.184284,-0.177613 0.2875367,-0.3124997 0.5,-0.3125 0.212465,0 0.2434474,-0.037836 0.40625,0.125 L 6.34375,6.1875 C 6.604741,6.03639 6.950082,5.8899171 7.25,5.8125 l 0,-1.4375 C 7.25,3.914433 7.539528,4.0312502 8,4.03125 8.230236,4.03125 8.428249,3.976634 8.5625,4 z M 8,7.46875 C 7.152966,7.46875 6.46875,8.152792 6.46875,9 6.46875,9.847208 7.152966,10.53125 8,10.53125 8.847032,10.53125 9.53125,9.847208 9.53125,9 9.53125,8.152792 8.847031,7.46875 8,7.46875 z" />
  <path
     inkscape:connector-curvature="0"
     style="fill:#3c3c3c;fill-opacity:1;fill-rule:nonzero;stroke:none;stroke-width:1;marker:none;visibility:visible;display:inline;overflow:visible;enable-background:accumulate"
     id="rect2386"
     d="M 2,1 C 0.892,1 0,1.892 0,3 l 0,10 c 0,1.108 0.892,2 2,2 l 12,0 c 1.108,0 2,-0.892 2,-2 L 16,3 C 16,1.892 15.108,1 14,1 L 2,1 z m 6.5625,2 c 0.134251,0.023366 0.218751,0.1134665 0.21875,0.34375 l 0,1.46875 C 9.081169,4.889919 9.426506,5.0363897 9.6875,5.1875 L 10.75,4.21875 c 0.335981,-0.419071 0.585882,-0.122791 0.90625,0.25 0.300156,0.349272 0.450602,0.4555809 0.125,0.78125 l -0.9375,1.0625 c 0.158474,0.262819 0.295269,0.63367 0.375,0.9375 l 1.40625,0 C 13.085469,7.25 13,7.539435 13,8 c 0,0.460567 0.02297,0.78125 -0.4375,0.78125 l -1.34375,0 c -0.07988,0.305823 -0.216043,0.642624 -0.375,0.90625 l 1,1.0625 c 0.371282,0.325669 0.06958,0.528902 -0.25,0.875 -0.325838,0.352876 -0.571623,0.527051 -0.90625,0.15625 l -1,-0.9375 C 9.426507,10.994858 9.081169,11.110081 8.78125,11.1875 L 8.8125,12.625 C 8.8125,13.085566 8.460471,13 8,13 7.539528,13 7.25,13.05432 7.25,12.59375 L 7.28125,11.1875 C 6.981332,11.110081 6.60474,10.994858 6.34375,10.84375 l -1,0.96875 c -0.325603,0.325668 -0.5241113,0.07949 -0.875,-0.21875 -0.348898,-0.296545 -0.6153081,-0.53094 -0.25,-0.90625 l 0.9375,-1 C 4.997775,9.424679 4.8609797,9.085075 4.78125,8.78125 l -1.40625,0 C 2.914529,8.78125 3.03125,8.460567 3.03125,8 c 0,-0.460565 -0.1479719,-0.75 0.3125,-0.75 l 1.4375,0 C 4.861134,6.944174 4.9972911,6.576126 5.15625,6.3125 L 4.21875,5.28125 c -0.270911,-0.265716 -0.166449,-0.4111272 0.25,-0.8125 0.184284,-0.177613 0.2875367,-0.3124997 0.5,-0.3125 0.212465,0 0.2434474,-0.037836 0.40625,0.125 L 6.34375,5.1875 C 6.604741,5.03639 6.950082,4.8899171 7.25,4.8125 l 0,-1.4375 C 7.25,2.914433 7.539528,3.0312502 8,3.03125 8.230236,3.03125 8.428249,2.976634 8.5625,3 z M 8,6.46875 C 7.152966,6.46875 6.46875,7.152792 6.46875,8 6.46875,8.847208 7.152966,9.53125 8,9.53125 8.847032,9.53125 9.53125,8.847208 9.53125,8 9.53125,7.152792 8.847031,6.46875 8,6.46875 z" />
</svg>
