<?xml version="1.0" encoding="UTF-8" standalone="no"?>
<!-- Created with Inkscape (http://www.inkscape.org/) -->

<svg
   xmlns:dc="http://purl.org/dc/elements/1.1/"
   xmlns:cc="http://creativecommons.org/ns#"
   xmlns:rdf="http://www.w3.org/1999/02/22-rdf-syntax-ns#"
   xmlns:svg="http://www.w3.org/2000/svg"
   xmlns="http://www.w3.org/2000/svg"
   xmlns:sodipodi="http://sodipodi.sourceforge.net/DTD/sodipodi-0.dtd"
   xmlns:inkscape="http://www.inkscape.org/namespaces/inkscape"
   version="1.0"
   width="16"
   height="16"
   id="svg3212"
   inkscape:version="0.48.0 r9654"
   sodipodi:docname="gtg-panel.svg">
  <metadata
     id="metadata13">
    <rdf:RDF>
      <cc:Work
         rdf:about="">
        <dc:format>image/svg+xml</dc:format>
        <dc:type
           rdf:resource="http://purl.org/dc/dcmitype/StillImage" />
        <dc:title></dc:title>
      </cc:Work>
    </rdf:RDF>
  </metadata>
  <sodipodi:namedview
     pagecolor="#ffffff"
     bordercolor="#666666"
     borderopacity="1"
     objecttolerance="10"
     gridtolerance="10"
     guidetolerance="10"
     inkscape:pageopacity="0"
     inkscape:pageshadow="2"
     inkscape:window-width="1280"
     inkscape:window-height="753"
     id="namedview11"
     showgrid="false"
     inkscape:zoom="13.181818"
     inkscape:cx="-0.53103448"
     inkscape:cy="11.872414"
     inkscape:window-x="0"
     inkscape:window-y="24"
     inkscape:window-maximized="1"
     inkscape:current-layer="svg3212" />
  <defs
     id="defs3214" />
  <path
     inkscape:connector-curvature="0"
     style="opacity:0.3;fill:#ffffff;fill-opacity:1;fill-rule:nonzero;stroke:none;stroke-width:1;marker:none;visibility:visible;display:inline;overflow:visible;enable-background:accumulate"
     id="path3208"
     d="M 2,2 C 0.892,2 0,2.892 0,4 l 0,10 c 0,1.108 0.892,2 2,2 l 12,0 c 1.108,0 2,-0.892 2,-2 L 16,4 C 16,2.892 15.108,2 14,2 L 2,2 z m 9.03125,2 c 0.05517,0.0053 0.135626,0.03589 0.1875,0.0625 l 1.5625,0.78125 c 0.207499,0.106439 0.269632,0.367709 0.15625,0.5625 l -4.875,8.375 C 7.975693,13.930386 7.793876,14.020032 7.625,14 7.5733,13.9939 7.517381,13.9937 7.46875,13.96875 7.46355,13.96635 3.2187499,10.65625 3.21875,10.65625 3.0112529,10.549811 2.9491197,10.288537 3.0625,10.09375 l 1.03125,-1.25 C 4.2071332,8.648957 4.4800012,8.581059 4.6875,8.6875 L 7,10.4375 10.625,4.21875 C 10.710038,4.072657 10.865742,3.984232 11.03125,4 z" />
  <path
     inkscape:connector-curvature="0"
     style="fill:#3c3c3c;fill-opacity:1;fill-rule:nonzero;stroke:none;stroke-width:1;marker:none;visibility:visible;display:inline;overflow:visible;enable-background:accumulate"
     id="rect2386"
     d="M 2,1 C 0.892,1 0,1.892 0,3 l 0,10 c 0,1.108 0.892,2 2,2 l 12,0 c 1.108,0 2,-0.892 2,-2 L 16,3 C 16,1.892 15.108,1 14,1 L 2,1 z m 9.03125,2 c 0.05517,0.0053 0.135626,0.03589 0.1875,0.0625 l 1.5625,0.78125 c 0.207499,0.106439 0.269632,0.367709 0.15625,0.5625 l -4.875,8.375 C 7.975693,12.930386 7.793876,13.020032 7.625,13 7.5733,12.9939 7.517381,12.9937 7.46875,12.96875 7.46355,12.96635 3.2187499,9.65625 3.21875,9.65625 3.0112529,9.549811 2.9491197,9.288537 3.0625,9.09375 l 1.03125,-1.25 C 4.2071332,7.648957 4.4800012,7.581059 4.6875,7.6875 L 7,9.4375 10.625,3.21875 C 10.710038,3.072657 10.865742,2.984232 11.03125,3 z" />
</svg>
