<?xml version="1.0" encoding="UTF-8" standalone="no"?>
<!-- Created with Inkscape (http://www.inkscape.org/) -->

<svg
   xmlns:dc="http://purl.org/dc/elements/1.1/"
   xmlns:cc="http://creativecommons.org/ns#"
   xmlns:rdf="http://www.w3.org/1999/02/22-rdf-syntax-ns#"
   xmlns:svg="http://www.w3.org/2000/svg"
   xmlns="http://www.w3.org/2000/svg"
   xmlns:sodipodi="http://sodipodi.sourceforge.net/DTD/sodipodi-0.dtd"
   xmlns:inkscape="http://www.inkscape.org/namespaces/inkscape"
   version="1.1"
   width="16"
   height="16"
   id="svg3738"
   inkscape:version="0.48.0 r9654"
   sodipodi:docname="transmission-tray-icon.svg">
  <metadata
     id="metadata13">
    <rdf:RDF>
      <cc:Work
         rdf:about="">
        <dc:format>image/svg+xml</dc:format>
        <dc:type
           rdf:resource="http://purl.org/dc/dcmitype/StillImage" />
        <dc:title></dc:title>
      </cc:Work>
    </rdf:RDF>
  </metadata>
  <sodipodi:namedview
     pagecolor="#ffffff"
     bordercolor="#666666"
     borderopacity="1"
     objecttolerance="10"
     gridtolerance="10"
     guidetolerance="10"
     inkscape:pageopacity="0"
     inkscape:pageshadow="2"
     inkscape:window-width="1280"
     inkscape:window-height="753"
     id="namedview11"
     showgrid="false"
     inkscape:zoom="13.227273"
     inkscape:cx="-0.49140893"
     inkscape:cy="11.793814"
     inkscape:window-x="0"
     inkscape:window-y="24"
     inkscape:window-maximized="1"
     inkscape:current-layer="svg3738" />
  <defs
     id="defs3740" />
  <path
     inkscape:connector-curvature="0"
     style="opacity:0.3;color:#ffffff;fill:#ffffff;fill-opacity:1;fill-rule:evenodd;stroke:none;marker:none;visibility:visible;display:inline;overflow:visible;enable-background:accumulate"
     id="path3712-8"
     d="m 4.0625,1 c -0.554,0 -1,0.446 -1,1 0,0.554 0.446,1 1,1 L 7.09375,3 7.03125,7 2.875,7 1,15 l 0,1 14.0625,0 0,-0.9375 -1.75,-8.0625 -4.25,0 0,3 2,0 L 8.09375,13.0625 5.0625,10 l 1.96875,0 0.0625,-3 1.96875,0 0,-4 3,0 c 0.554,0 1,-0.446 1,-1 0,-0.554 -0.446,-1 -1,-1 l -8,0 z" />
  <path
     inkscape:connector-curvature="0"
     style="color:#ffffff;fill:#3c3c3c;fill-opacity:1;fill-rule:evenodd;stroke:none;marker:none;visibility:visible;display:inline;overflow:visible;enable-background:accumulate"
     id="path3712"
     d="m 4.0625,0 c -0.554,0 -1,0.446 -1,1 0,0.554 0.446,1 1,1 L 7.09375,2 7.03125,6 2.875,6 1,14 l 0,1 14.0625,0 0,-0.9375 -1.75,-8.0625 -4.25,0 0,3 2,0 L 8.09375,12.0625 5.0625,9 7.03125,9 7.09375,6 9.0625,6 l 0,-4 3,0 c 0.554,0 1,-0.446 1,-1 0,-0.554 -0.446,-1 -1,-1 l -8,0 z" />
</svg>
