<?xml version="1.0" encoding="UTF-8" standalone="no"?>
<!-- Created with Inkscape (http://www.inkscape.org/) -->

<svg
   xmlns:dc="http://purl.org/dc/elements/1.1/"
   xmlns:cc="http://creativecommons.org/ns#"
   xmlns:rdf="http://www.w3.org/1999/02/22-rdf-syntax-ns#"
   xmlns:svg="http://www.w3.org/2000/svg"
   xmlns="http://www.w3.org/2000/svg"
   xmlns:xlink="http://www.w3.org/1999/xlink"
   xmlns:sodipodi="http://sodipodi.sourceforge.net/DTD/sodipodi-0.dtd"
   xmlns:inkscape="http://www.inkscape.org/namespaces/inkscape"
   width="19"
   height="19"
   id="svg8552"
   version="1.1"
   inkscape:version="0.48+devel r"
   viewBox="0 0 19 19"
   sodipodi:docname="menu.svg">
  <defs
     id="defs8554">
    <linearGradient
       inkscape:collect="always"
       xlink:href="#linearGradient4666"
       id="linearGradient4672"
       x1="-6.0000091"
       y1="967.36224"
       x2="5.9999938"
       y2="967.36224"
       gradientUnits="userSpaceOnUse"
       gradientTransform="matrix(1.0833334,0,0,1.0833334,966.86225,-1057.4759)" />
    <linearGradient
       inkscape:collect="always"
       id="linearGradient4666">
      <stop
         style="stop-color:#191919;stop-opacity:0.4"
         offset="0"
         id="stop4668" />
      <stop
         id="stop4700"
         offset="0.5"
         style="stop-color:#595959;stop-opacity:0.10185185" />
      <stop
         style="stop-color:#ffffff;stop-opacity:0.24313726"
         offset="1"
         id="stop4670" />
    </linearGradient>
  </defs>
  <sodipodi:namedview
     id="base"
     pagecolor="#ffffff"
     bordercolor="#666666"
     borderopacity="1.0"
     inkscape:pageopacity="0.0"
     inkscape:pageshadow="2"
     inkscape:zoom="0.35"
     inkscape:cx="-565.5"
     inkscape:cy="-199.07143"
     inkscape:document-units="px"
     inkscape:current-layer="layer1"
     showgrid="false"
     fit-margin-top="0"
     fit-margin-left="0"
     fit-margin-right="0"
     fit-margin-bottom="0" />
  <metadata
     id="metadata8557">
    <rdf:RDF>
      <cc:Work
         rdf:about="">
        <dc:format>image/svg+xml</dc:format>
        <dc:type
           rdf:resource="http://purl.org/dc/dcmitype/StillImage" />
        <dc:title></dc:title>
      </cc:Work>
    </rdf:RDF>
  </metadata>
  <g
     inkscape:label="Layer 1"
     inkscape:groupmode="layer"
     id="layer1"
     transform="translate(-284.78572,-314.29076)">
    <g
       style="display:inline"
       id="g4722"
       transform="translate(284.78571,-643.07142)">
      <circle
         transform="matrix(0,1,-1,0,0,0)"
         style="color:#000000;fill:url(#linearGradient4672);fill-opacity:1;fill-rule:nonzero;stroke:none;stroke-width:1;marker:none;visibility:visible;display:inline;overflow:visible;enable-background:accumulate"
         id="circle4664"
         cx="966.86224"
         cy="-9.5000038"
         r="6.5"
         d="m 973.36224,-9.5000038 a 6.5,6.5 0 0 1 -6.5,6.5 6.5,6.5 0 0 1 -6.5,-6.5 6.5,6.5 0 0 1 6.5,-6.5000002 6.5,6.5 0 0 1 6.5,6.5000002 z" />
      <circle
         style="opacity:0.1;color:#000000;fill:#000000;fill-opacity:1;fill-rule:nonzero;stroke:none;stroke-width:1;marker:none;visibility:visible;display:inline;overflow:visible;enable-background:accumulate"
         id="circle5388"
         cx="9.5000029"
         cy="967.86218"
         r="3.4999948"
         d="m 12.999998,967.86218 a 3.4999948,3.4999948 0 0 1 -3.4999951,3.5 3.4999948,3.4999948 0 0 1 -3.4999948,-3.5 3.4999948,3.4999948 0 0 1 3.4999948,-3.49999 3.4999948,3.4999948 0 0 1 3.4999951,3.49999 z" />
      <circle
         r="3"
         cy="966.86218"
         cx="9.5000029"
         id="path4662"
         style="color:#000000;fill:#c6c2bb;fill-opacity:1;fill-rule:nonzero;stroke:#d3d0cb;stroke-width:1;stroke-opacity:1;marker:none;visibility:visible;display:inline;overflow:visible;enable-background:accumulate"
         d="m 12.500003,966.86218 a 3,3 0 0 1 -3.0000001,3 3,3 0 0 1 -3,-3 3,3 0 0 1 3,-3 3,3 0 0 1 3.0000001,3 z" />
      <path
         inkscape:connector-curvature="0"
         id="circle4682"
         d="m 9.5000035,960.36224 a 6.4999999,6.4999999 0 0 0 -6.5,6.5 6.4999999,6.4999999 0 0 0 0.023438,0.5293 6.4999999,6.4999999 0 0 1 6.476562,-6.0293 6.4999999,6.4999999 0 0 1 6.4765615,5.9707 6.4999999,6.4999999 0 0 0 0.02344,-0.4707 6.4999999,6.4999999 0 0 0 -6.4999995,-6.5 z"
         style="opacity:0.1;color:#000000;fill:#000000;fill-opacity:1;fill-rule:nonzero;stroke:none;stroke-width:1;marker:none;visibility:visible;display:inline;overflow:visible;enable-background:accumulate" />
      <path
         inkscape:connector-curvature="0"
         id="circle4691"
         d="m 15.976565,966.33294 a 6.4999999,6.4999999 0 0 1 -6.4765615,6.0293 6.4999999,6.4999999 0 0 1 -6.476562,-5.9707 6.4999999,6.4999999 0 0 0 -0.023438,0.4707 6.4999999,6.4999999 0 0 0 6.5,6.5 6.4999999,6.4999999 0 0 0 6.4999995,-6.5 6.4999999,6.4999999 0 0 0 -0.02344,-0.5293 z"
         style="opacity:0.2;color:#000000;fill:#ffffff;fill-opacity:1;fill-rule:nonzero;stroke:none;stroke-width:1;marker:none;visibility:visible;display:inline;overflow:visible;enable-background:accumulate" />
      <path
         inkscape:connector-curvature="0"
         id="circle4702"
         d="m 15.990237,966.56146 a 6.4999999,6.4999999 0 0 1 -6.4902335,6.30078 6.4999999,6.4999999 0 0 1 -6.490234,-6.19922 6.4999999,6.4999999 0 0 0 -0.00977,0.19922 6.4999999,6.4999999 0 0 0 6.5,6.5 6.4999999,6.4999999 0 0 0 6.4999995,-6.5 6.4999999,6.4999999 0 0 0 -0.0098,-0.30078 z"
         style="opacity:0.07000002;color:#000000;fill:#ffffff;fill-opacity:1;fill-rule:nonzero;stroke:none;stroke-width:1;marker:none;visibility:visible;display:inline;overflow:visible;enable-background:accumulate" />
      <path
         inkscape:connector-curvature="0"
         id="circle4711"
         d="m 9.5000035,960.36224 a 6.4999999,6.4999999 0 0 0 -6.5,6.5 6.4999999,6.4999999 0 0 0 0.00977,0.30078 6.4999999,6.4999999 0 0 1 6.490234,-6.30078 6.4999999,6.4999999 0 0 1 6.4902335,6.19922 6.4999999,6.4999999 0 0 0 0.0098,-0.19922 6.4999999,6.4999999 0 0 0 -6.4999995,-6.5 z"
         style="opacity:0.1;color:#000000;fill:#000000;fill-opacity:1;fill-rule:nonzero;stroke:none;stroke-width:1;marker:none;visibility:visible;display:inline;overflow:visible;enable-background:accumulate" />
      <rect
         y="957.36218"
         x="-2e-06"
         height="19"
         width="19"
         id="rect4720"
         style="opacity:0.1;color:#000000;fill:none;stroke:none;stroke-width:1;marker:none;visibility:visible;display:inline;overflow:visible;enable-background:accumulate" />
    </g>
  </g>
</svg>
