<?xml version="1.0" encoding="UTF-8" standalone="no"?>
<!-- Created with Inkscape (http://www.inkscape.org/) -->
<svg
   xmlns:dc="http://purl.org/dc/elements/1.1/"
   xmlns:cc="http://creativecommons.org/ns#"
   xmlns:rdf="http://www.w3.org/1999/02/22-rdf-syntax-ns#"
   xmlns:svg="http://www.w3.org/2000/svg"
   xmlns="http://www.w3.org/2000/svg"
   xmlns:sodipodi="http://sodipodi.sourceforge.net/DTD/sodipodi-0.dtd"
   xmlns:inkscape="http://www.inkscape.org/namespaces/inkscape"
   version="1.0"
   width="22"
   height="22"
   id="svg3172"
   sodipodi:version="0.32"
   inkscape:version="0.46"
   sodipodi:docname="audio-volume-medium.svg"
   inkscape:output_extension="org.inkscape.output.svg.inkscape">
  <metadata
     id="metadata14">
    <rdf:RDF>
      <cc:Work
         rdf:about="">
        <dc:format>image/svg+xml</dc:format>
        <dc:type
           rdf:resource="http://purl.org/dc/dcmitype/StillImage" />
      </cc:Work>
    </rdf:RDF>
  </metadata>
  <sodipodi:namedview
     inkscape:window-height="706"
     inkscape:window-width="640"
     inkscape:pageshadow="2"
     inkscape:pageopacity="0.0"
     guidetolerance="10.0"
     gridtolerance="10.0"
     objecttolerance="10.0"
     borderopacity="1.0"
     bordercolor="#666666"
     pagecolor="#ffffff"
     id="base"
     showgrid="false"
     inkscape:zoom="7.3362329"
     inkscape:cx="12"
     inkscape:cy="12"
     inkscape:window-x="399"
     inkscape:window-y="51"
     inkscape:current-layer="svg3172" />
  <defs
     id="defs3174">
    <inkscape:perspective
       sodipodi:type="inkscape:persp3d"
       inkscape:vp_x="0 : 12 : 1"
       inkscape:vp_y="0 : 1000 : 0"
       inkscape:vp_z="24 : 12 : 1"
       inkscape:persp3d-origin="12 : 8 : 1"
       id="perspective16" />
  </defs>
  <path
     d="M 13.892573,6.095476 C 13.892573,6.095476 15.737924,7.840277 15.672269,11.5 C 15.606069,15.190079 13.862934,16.904524 13.862934,16.904524"
     id="path2397"
     style="opacity:0.6;fill:none;stroke:#43423e;stroke-width:3.70000005;stroke-linecap:round;stroke-linejoin:miter;marker:none;stroke-miterlimit:4;stroke-dasharray:none;stroke-dashoffset:0;stroke-opacity:1;visibility:visible;display:inline;overflow:visible;enable-background:accumulate" />
  <path
     d="M 10.862934,8.221859 C 10.862934,8.221859 11.846408,9.016844 11.871475,11.452506 C 11.896235,13.857803 10.862934,14.778141 10.862934,14.778141"
     id="path3231"
     style="opacity:0.6;fill:none;stroke:#43423e;stroke-width:3.70000005;stroke-linecap:round;stroke-linejoin:miter;marker:none;stroke-miterlimit:4;stroke-dasharray:none;stroke-dashoffset:0;stroke-opacity:1;visibility:visible;display:inline;overflow:visible;enable-background:accumulate" />
  <g
     id="g2401"
     style="opacity:0.4"
     transform="translate(-0.9870662,-1)">
    <path
       d="M 17.854435,4.85 C 17.854435,4.85 20.467972,7.272712 20.467972,12.484915 C 20.467972,17.671495 17.85,20.15 17.85,20.15"
       id="path2399"
       style="opacity:0.6;fill:none;stroke:#43423e;stroke-width:3.70000005;stroke-linecap:round;stroke-linejoin:miter;marker:none;stroke-miterlimit:4;stroke-dasharray:none;stroke-dashoffset:0;stroke-opacity:1;visibility:visible;display:inline;overflow:visible;enable-background:accumulate" />
    <path
       d="M 17.854435,4.85 C 17.854435,4.85 20.467972,7.272712 20.467972,12.484915 C 20.467972,17.671495 17.85,20.15 17.85,20.15"
       id="path2393"
       style="fill:none;stroke:#dfd8c8;stroke-width:1.70000005;stroke-linecap:round;stroke-linejoin:miter;marker:none;stroke-miterlimit:4;stroke-dasharray:none;stroke-dashoffset:0;stroke-opacity:1;visibility:visible;display:inline;overflow:visible;enable-background:accumulate" />
  </g>
  <path
     d="M 13.892573,6.095476 C 13.892573,6.095476 15.737924,7.840277 15.672269,11.5 C 15.606069,15.190079 13.862934,16.904524 13.862934,16.904524"
     id="path2391"
     style="fill:none;stroke:#dfd8c8;stroke-width:1.70000005;stroke-linecap:round;stroke-linejoin:miter;marker:none;stroke-miterlimit:4;stroke-dasharray:none;stroke-dashoffset:0;stroke-opacity:1;visibility:visible;display:inline;overflow:visible;enable-background:accumulate" />
  <path
     d="M 10.862934,8.221859 C 10.862934,8.221859 11.846408,9.016844 11.871475,11.452506 C 11.896235,13.857803 10.862934,14.778141 10.862934,14.778141"
     id="path3209"
     style="fill:none;stroke:#dfd8c8;stroke-width:1.70000005;stroke-linecap:round;stroke-linejoin:miter;marker:none;stroke-miterlimit:4;stroke-dasharray:none;stroke-dashoffset:0;stroke-opacity:1;visibility:visible;display:inline;overflow:visible;enable-background:accumulate" />
  <path
     d="M 7.0129338,5 C 6.2946399,4.9788098 5.6758785,5.4198054 5.2669208,5.9764677 C 4.6926751,6.6509785 4.1184295,7.3254892 3.5441838,8 C 2.8080742,8.0428118 2.0437635,7.8921008 1.3307738,8.1229015 C 0.45571407,8.4299794 -0.087132646,9.372188 0.011523964,10.283157 C 0.022776574,11.288884 -0.014301606,12.297617 0.036306774,13.301404 C 0.17758567,14.334783 1.2052367,15.106353 2.2343122,15 C 2.6813528,15 3.1283933,15 3.5754338,15 C 4.288494,15.820463 5.0122136,16.633689 5.7110912,17.464539 C 6.4808237,18.264176 7.8865758,18.1272 8.5517905,17.266476 C 9.0111282,16.765234 9.0341648,16.070859 9.0129338,15.430741 C 9.0111775,12.586602 9.0164498,9.742372 9.0102924,6.8982899 C 8.9714328,5.8680417 8.0453156,4.9844595 7.0129338,5 z"
     id="path3228"
     style="opacity:0.6;fill:#43423e;fill-opacity:1;fill-rule:evenodd;stroke:none;stroke-width:1.69999993;stroke-linecap:round;stroke-linejoin:miter;marker:none;marker-start:none;marker-mid:none;marker-end:none;stroke-miterlimit:4;stroke-dasharray:none;stroke-dashoffset:0;stroke-opacity:1;visibility:visible;display:inline;overflow:visible;enable-background:accumulate" />
  <path
     d="M 7.0129338,6 C 6.7077103,6 6.4464065,6.1279595 6.2629338,6.34375 L 4.0129338,9 C 4.0129338,9 2.0129338,9 2.0129338,9 C 1.4609338,9 1.0129338,9.448 1.0129338,10 C 1.0066652,10.996071 1.015151,12.014549 1.0129338,13 C 1.0129338,13.552 1.4609339,14 2.0129338,14 L 4.0129338,14 L 6.1691838,16.46875 C 6.3405422,16.773669 6.6384882,17 7.0129338,17 C 7.5649338,17 8.0129342,16.552 8.0129338,16 L 8.0129338,7 C 8.0129338,6.448 7.5649335,6 7.0129338,6 z"
     id="rect3180"
     style="fill:#dfd8c8;fill-opacity:1;fill-rule:evenodd;stroke:none;stroke-width:1.69999993;stroke-linecap:round;stroke-linejoin:miter;marker:none;marker-start:none;marker-mid:none;marker-end:none;stroke-miterlimit:4;stroke-dasharray:none;stroke-dashoffset:0;stroke-opacity:1;visibility:visible;display:inline;overflow:visible;enable-background:accumulate" />
</svg>
