<?xml version="1.0" encoding="UTF-8" standalone="no"?>
<!-- Created with Inkscape (http://www.inkscape.org/) -->
<svg
   xmlns:svg="http://www.w3.org/2000/svg"
   xmlns="http://www.w3.org/2000/svg"
   version="1.0"
   width="22"
   height="22"
   id="svg3233">
  <defs
     id="defs3235" />
  <path
     d="M 10.511643,11.493682 L 12.512136,11.493682 M 14.511643,11.493682 L 16.512136,11.493682 M 18.511643,11.493682 L 20.512136,11.493682"
     id="path3210"
     style="opacity:0.6;fill:none;fill-opacity:1;fill-rule:nonzero;stroke:#43423e;stroke-width:3;stroke-linecap:round;stroke-linejoin:miter;marker:none;marker-start:none;marker-mid:none;marker-end:none;stroke-miterlimit:4;stroke-dasharray:none;stroke-dashoffset:0;stroke-opacity:1;visibility:visible;display:inline;overflow:visible;enable-background:accumulate" />
  <path
     d="M 7.011643,4.9968207 C 6.2933491,4.9756305 5.6706007,5.4089084 5.261643,5.9655707 C 4.6873975,6.6400816 4.1171387,7.3223099 3.542893,7.9968207 C 2.8067834,8.0396325 2.0371327,7.89102 1.324143,8.1218207 C 0.44908322,8.4288982 -0.087013591,9.3671017 0.011643019,10.278071 C 0.022895619,11.283798 -0.0077153606,12.305534 0.042893019,13.309321 C 0.18417192,14.3427 1.2013175,15.103174 2.230393,14.996821 C 2.6774337,14.996821 3.1271025,14.996821 3.574143,14.996821 C 4.2872032,15.817284 5.0002654,16.634721 5.699143,17.465571 C 6.4688756,18.265208 7.8776783,18.138795 8.542893,17.278071 C 9.0022309,16.776829 9.032874,16.074439 9.011643,15.434321 C 9.0098867,12.590183 9.0178,9.7471527 9.011643,6.9030707 C 8.9727837,5.8728227 8.0440248,4.9812802 7.011643,4.9968207 z M 6.980393,7.0593207 L 6.980393,15.809321 C 6.9702004,15.798683 6.9597814,15.788264 6.949143,15.778071 L 4.792893,13.309321 C 4.5942202,13.087454 4.3094417,12.962152 4.011643,12.965571 L 2.042893,12.965571 C 2.0448652,11.992792 2.0371148,10.993943 2.042893,10.028071 C 2.1034551,10.028071 4.011643,10.028071 4.011643,10.028071 C 4.3144442,10.023656 4.6000501,9.8865657 4.792893,9.6530707 L 6.980393,7.0593207 z"
     id="path3228"
     style="opacity:0.6;fill:#43423e;fill-opacity:1;fill-rule:evenodd;stroke:none;stroke-width:1.69999993;stroke-linecap:round;stroke-linejoin:miter;marker:none;marker-start:none;marker-mid:none;marker-end:none;stroke-miterlimit:4;stroke-dasharray:none;stroke-dashoffset:0;stroke-opacity:1;visibility:visible;display:inline;overflow:visible;enable-background:accumulate" />
  <path
     d="M 7.011643,5.9968207 C 6.7064195,5.9968207 6.4451157,6.1247802 6.261643,6.3405707 L 4.011643,8.9968207 C 4.011643,8.9968207 2.011643,8.9968207 2.011643,8.9968207 C 1.459643,8.9968207 1.011643,9.4448207 1.011643,9.9968207 C 1.0053744,10.992892 1.0138602,12.01137 1.011643,12.996821 C 1.011643,13.548821 1.4596431,13.996821 2.011643,13.996821 L 4.011643,13.996821 L 6.167893,16.465571 C 6.3392514,16.77049 6.6371974,16.996821 7.011643,16.996821 C 7.563643,16.996821 8.0116434,16.548821 8.011643,15.996821 L 8.011643,6.9968207 C 8.011643,6.4448207 7.5636427,5.9968207 7.011643,5.9968207 z M 6.980393,7.0593207 L 6.980393,15.809321 C 6.9702004,15.798683 6.9597814,15.788264 6.949143,15.778071 L 4.792893,13.309321 C 4.5942202,13.087454 4.3094417,12.962152 4.011643,12.965571 L 2.042893,12.965571 C 2.0448652,11.992792 2.0371148,10.993943 2.042893,10.028071 C 2.1034551,10.028071 4.011643,10.028071 4.011643,10.028071 C 4.3144442,10.023656 4.6000501,9.8865657 4.792893,9.6530707 L 6.980393,7.0593207 z"
     id="rect3180"
     style="opacity:1;fill:#dfd8c8;fill-opacity:1;fill-rule:evenodd;stroke:none;stroke-width:1.69999993;stroke-linecap:round;stroke-linejoin:miter;marker:none;marker-start:none;marker-mid:none;marker-end:none;stroke-miterlimit:4;stroke-dasharray:none;stroke-dashoffset:0;stroke-opacity:1;visibility:visible;display:inline;overflow:visible;enable-background:accumulate" />
  <path
     d="M 10.511643,11.493682 L 12.512136,11.493682 M 14.511643,11.493682 L 16.512136,11.493682 M 18.511643,11.493682 L 20.512136,11.493682"
     id="path3200"
     style="opacity:1;fill:none;fill-rule:evenodd;stroke:#dfd8c8;stroke-width:1.00000012px;stroke-linecap:round;stroke-linejoin:miter;stroke-opacity:1" />
  <path
     d="M 6.730393,7.7468207 L 4.980393,9.8093207 C 4.7425879,10.10102 4.3879539,10.272617 4.011643,10.278071 C 4.011643,10.278071 2.7083135,10.278071 2.292893,10.278071 C 2.2899138,11.081751 2.2932642,11.904391 2.292893,12.715571 L 4.011643,12.715571 C 4.3828882,12.713251 4.7366688,12.873023 4.980393,13.153071 L 6.730393,15.153071 L 6.730393,7.7468207 z"
     id="path3161"
     style="opacity:0.3;fill:none;fill-opacity:1;fill-rule:evenodd;stroke:#ffffff;stroke-width:0.5;stroke-linecap:round;stroke-linejoin:miter;marker:none;marker-start:none;marker-mid:none;marker-end:none;stroke-miterlimit:4;stroke-dasharray:none;stroke-dashoffset:0;stroke-opacity:1;visibility:visible;display:inline;overflow:visible;enable-background:accumulate" />
</svg>
