<?xml version="1.0" encoding="UTF-8" standalone="no"?>
<!-- Created with Inkscape (http://www.inkscape.org/) -->
<svg
   xmlns:svg="http://www.w3.org/2000/svg"
   xmlns="http://www.w3.org/2000/svg"
   version="1.0"
   width="22"
   height="22"
   id="svg3233">
  <defs
     id="defs3235" />
  <path
     d="M 10.512934,11.502407 L 12.513427,11.502407 M 14.512934,11.502407 L 16.513427,11.502407 M 18.512934,11.502407 L 20.513427,11.502407"
     id="path3210"
     style="opacity:0.6;fill:none;fill-opacity:1;fill-rule:nonzero;stroke:#43423e;stroke-width:3;stroke-linecap:round;stroke-linejoin:miter;marker:none;marker-start:none;marker-mid:none;marker-end:none;stroke-miterlimit:4;stroke-dasharray:none;stroke-dashoffset:0;stroke-opacity:1;visibility:visible;display:inline;overflow:visible;enable-background:accumulate" />
  <path
     d="M 7.0129338,5.0055461 C 6.2946399,4.9843559 5.6758785,5.4253515 5.2669208,5.9820138 C 4.6926751,6.6565246 4.1184295,7.3310353 3.5441838,8.0055461 C 2.8080742,8.0483579 2.0437635,7.8976469 1.3307738,8.1284476 C 0.45571407,8.4355255 -0.087132646,9.3777341 0.011523964,10.288703 C 0.022776574,11.29443 -0.014301606,12.303163 0.036306774,13.30695 C 0.17758567,14.340329 1.2052367,15.111899 2.2343122,15.005546 C 2.6813528,15.005546 3.1283933,15.005546 3.5754338,15.005546 C 4.288494,15.826009 5.0122136,16.639235 5.7110912,17.470085 C 6.4808237,18.269722 7.8865758,18.132746 8.5517905,17.272022 C 9.0111282,16.77078 9.0341648,16.076405 9.0129338,15.436287 C 9.0111775,12.592148 9.0164498,9.7479181 9.0102924,6.903836 C 8.9714328,5.8735878 8.0453156,4.9900056 7.0129338,5.0055461 z"
     id="path3228"
     style="opacity:0.6;fill:#43423e;fill-opacity:1;fill-rule:evenodd;stroke:none;stroke-width:1.69999993;stroke-linecap:round;stroke-linejoin:miter;marker:none;marker-start:none;marker-mid:none;marker-end:none;stroke-miterlimit:4;stroke-dasharray:none;stroke-dashoffset:0;stroke-opacity:1;visibility:visible;display:inline;overflow:visible;enable-background:accumulate" />
  <path
     d="M 7.0129338,6.0055461 C 6.7077103,6.0055461 6.4464065,6.1335056 6.2629338,6.3492961 L 4.0129338,9.0055461 C 4.0129338,9.0055461 2.0129338,9.0055461 2.0129338,9.0055461 C 1.4609338,9.0055461 1.0129338,9.4535461 1.0129338,10.005546 C 1.0066652,11.001617 1.015151,12.020095 1.0129338,13.005546 C 1.0129338,13.557546 1.4609339,14.005546 2.0129338,14.005546 L 4.0129338,14.005546 L 6.1691838,16.474296 C 6.3405422,16.779215 6.6384882,17.005546 7.0129338,17.005546 C 7.5649338,17.005546 8.0129342,16.557546 8.0129338,16.005546 L 8.0129338,7.0055461 C 8.0129338,6.4535461 7.5649335,6.0055461 7.0129338,6.0055461 z"
     id="rect3180"
     style="opacity:1;fill:#dc0000;fill-opacity:1;fill-rule:evenodd;stroke:none;stroke-width:1.69999993;stroke-linecap:round;stroke-linejoin:miter;marker:none;marker-start:none;marker-mid:none;marker-end:none;stroke-miterlimit:4;stroke-dasharray:none;stroke-dashoffset:0;stroke-opacity:1;visibility:visible;display:inline;overflow:visible;enable-background:accumulate" />
  <path
     d="M 10.512934,11.502407 L 12.513427,11.502407 M 14.512934,11.502407 L 16.513427,11.502407 M 18.512934,11.502407 L 20.513427,11.502407"
     id="path3200"
     style="opacity:1;fill:none;fill-rule:evenodd;stroke:#dc0000;stroke-width:1.00000012px;stroke-linecap:round;stroke-linejoin:miter;stroke-opacity:1" />
</svg>
