<?xml version="1.0" encoding="UTF-8" standalone="no"?>
<!-- Created with Inkscape (http://www.inkscape.org/) -->
<svg
   xmlns:dc="http://purl.org/dc/elements/1.1/"
   xmlns:cc="http://creativecommons.org/ns#"
   xmlns:rdf="http://www.w3.org/1999/02/22-rdf-syntax-ns#"
   xmlns:svg="http://www.w3.org/2000/svg"
   xmlns="http://www.w3.org/2000/svg"
   xmlns:sodipodi="http://sodipodi.sourceforge.net/DTD/sodipodi-0.dtd"
   xmlns:inkscape="http://www.inkscape.org/namespaces/inkscape"
   version="1.0"
   width="22"
   height="22"
   id="svg3240"
   sodipodi:version="0.32"
   inkscape:version="0.46"
   sodipodi:docname="battery-charged.svg"
   inkscape:output_extension="org.inkscape.output.svg.inkscape">
  <metadata
     id="metadata11">
    <rdf:RDF>
      <cc:Work
         rdf:about="">
        <dc:format>image/svg+xml</dc:format>
        <dc:type
           rdf:resource="http://purl.org/dc/dcmitype/StillImage" />
      </cc:Work>
    </rdf:RDF>
  </metadata>
  <sodipodi:namedview
     inkscape:window-height="781"
     inkscape:window-width="1440"
     inkscape:pageshadow="2"
     inkscape:pageopacity="0.0"
     guidetolerance="10.0"
     gridtolerance="10.0"
     objecttolerance="10.0"
     borderopacity="1.0"
     bordercolor="#666666"
     pagecolor="#ffffff"
     id="base"
     showgrid="false"
     inkscape:zoom="10.375"
     inkscape:cx="4.5301205"
     inkscape:cy="12"
     inkscape:window-x="0"
     inkscape:window-y="24"
     inkscape:current-layer="layer1" />
  <defs
     id="defs3242">
    <inkscape:perspective
       sodipodi:type="inkscape:persp3d"
       inkscape:vp_x="0 : 12 : 1"
       inkscape:vp_y="0 : 1000 : 0"
       inkscape:vp_z="24 : 12 : 1"
       inkscape:persp3d-origin="12 : 8 : 1"
       id="perspective13" />
  </defs>
  <g
     id="layer1">
    <path
       d="M 11.249059,8.2139183 C 11.250709,8.9350988 11.256733,9.656496 11.240509,10.376791 C 11.147002,10.867745 10.498985,11.074675 10.102691,10.770685 C 8.8497106,10.149206 7.5967303,9.527728 6.34375,8.90625 C 8.2415086,10.565643 10.102241,12.111442 12,13.770835 C 12,13.770835 12.815356,13.8 12.815356,13.8 C 12.810758,13.262529 12.791728,12.969494 12.84375,12.4375 C 12.997806,12.021907 13.571017,11.861574 13.902579,12.123804 C 15.018386,12.572119 16.134193,13.020435 17.25,13.46875 C 15.502857,11.721607 13.755715,9.974465 12.008572,8.2273222 C 12.008572,8.2273222 11.253763,8.2140013 11.249059,8.2139183 z"
       id="path3179"
       style="opacity:0.3;fill:none;fill-opacity:1;fill-rule:evenodd;stroke:#ffffff;stroke-width:0.5;stroke-miterlimit:4;stroke-dasharray:none;stroke-opacity:1" />
    <rect
       width="14.5"
       height="7.5"
       rx="0.25"
       ry="0.25"
       x="4.25"
       y="7.25"
       id="rect3236"
       style="opacity:0.3;fill:none;fill-opacity:1;fill-rule:nonzero;stroke:#ffffff;stroke-width:0.5;stroke-linecap:round;stroke-linejoin:miter;marker:none;marker-start:none;marker-mid:none;marker-end:none;stroke-miterlimit:4;stroke-dasharray:none;stroke-dashoffset:0;stroke-opacity:1;visibility:visible;display:inline;overflow:visible;enable-background:accumulate" />
    <path
       d="M 18.502042,5.5 C 19.610042,5.5 20.502042,6.392 20.502042,7.5 L 20.502042,14.5 C 20.502042,15.608 19.610042,16.5 18.502042,16.5 L 4.5020421,16.5 C 3.3940421,16.5 2.5020411,15.608 2.5020421,14.5 L 2.5020421,13.5 C 1.9151811,13.465401 1.3417141,13.262611 0.9707921,12.78125 C 0.4455791,12.206345 0.5559811,11.592479 0.5020421,10.6875 C 0.4481031,9.782521 1.4710771,8.5237494 2.5758311,8.5 L 2.5020421,7.5 C 2.5020421,6.392 3.3940411,5.5 4.5020421,5.5 L 18.502042,5.5 z"
       id="rect3225"
       style="opacity:0.6;fill:none;fill-opacity:1;fill-rule:nonzero;stroke:#3a3935;stroke-width:0.99999994;stroke-linecap:round;stroke-linejoin:miter;marker:none;marker-start:none;marker-mid:none;marker-end:none;stroke-miterlimit:4;stroke-dasharray:none;stroke-dashoffset:0;stroke-opacity:1;visibility:visible;display:inline;overflow:visible;enable-background:accumulate" />
    <path
       d="M 5.5,8.0625 C 5.4144559,8.0625 5.3515164,8.0874417 5.28125,8.125 L 11.03125,11 L 11.03125,8.0625 L 5.5,8.0625 z M 12.09375,8.0625 L 17.875,13.84375 C 17.93963,13.759511 18,13.677354 18,13.5625 L 18,8.5625 C 18,8.2855 17.777,8.0625 17.5,8.0625 L 12.09375,8.0625 z M 5.21875,8.15625 C 5.0962472,8.2472129 5,8.3975221 5,8.5625 L 5,13.5625 C 5,13.8395 5.223,14.0625 5.5,14.0625 L 11.96875,14.0625 L 5.21875,8.15625 z M 13.03125,12 L 13.03125,14.0625 L 17.5,14.0625 C 17.628316,14.0625 17.724159,13.985156 17.8125,13.90625 L 13.03125,12 z"
       id="rect3728"
       style="fill:#eae3d0;fill-opacity:1;fill-rule:evenodd;stroke:none;stroke-width:1.69999993;stroke-linecap:round;stroke-linejoin:miter;marker:none;marker-start:none;marker-mid:none;marker-end:none;stroke-miterlimit:4;stroke-dasharray:none;stroke-dashoffset:0;stroke-opacity:1;visibility:visible;display:inline;overflow:visible;enable-background:accumulate" />
    <path
       d="M 18.502042,6.5 L 4.5020421,6.5 C 3.9480421,6.5 3.5020421,6.946 3.5020421,7.5 L 3.5020421,14.5 C 3.5020421,15.054 3.9480421,15.5 4.5020421,15.5 L 18.502042,15.5 C 19.056042,15.5 19.502042,15.054 19.502042,14.5 L 19.502042,7.5 C 19.502042,6.946 19.056042,6.5 18.502042,6.5 z M 3.3835911,9.50264 C 3.0555511,9.50334 2.7275151,9.504168 2.3994831,9.505144 C 1.8016581,9.545901 1.4227501,10.15474 1.5020091,10.717338 C 1.5254421,11.25026 1.3778881,11.894234 1.8652041,12.272203 C 2.3036821,12.622964 2.8864041,12.463608 3.4024111,12.5"
       id="rect2442"
       style="fill:none;fill-opacity:1;fill-rule:nonzero;stroke:#eae3d0;stroke-width:1;stroke-linecap:round;stroke-linejoin:miter;marker:none;marker-start:none;marker-mid:none;marker-end:none;stroke-miterlimit:4;stroke-dashoffset:0;stroke-opacity:1;visibility:visible;display:inline;overflow:visible;enable-background:accumulate" />
  </g>
</svg>
