<?xml version="1.0" encoding="UTF-8" standalone="no"?>
<!-- Created with Inkscape (http://www.inkscape.org/) -->
<svg
   xmlns:dc="http://purl.org/dc/elements/1.1/"
   xmlns:cc="http://creativecommons.org/ns#"
   xmlns:rdf="http://www.w3.org/1999/02/22-rdf-syntax-ns#"
   xmlns:svg="http://www.w3.org/2000/svg"
   xmlns="http://www.w3.org/2000/svg"
   xmlns:sodipodi="http://sodipodi.sourceforge.net/DTD/sodipodi-0.dtd"
   xmlns:inkscape="http://www.inkscape.org/namespaces/inkscape"
   version="1.0"
   width="22"
   height="22"
   id="svg3240"
   sodipodi:version="0.32"
   inkscape:version="0.46"
   sodipodi:docname="battery-charged.svg"
   inkscape:output_extension="org.inkscape.output.svg.inkscape">
  <metadata
     id="metadata11">
    <rdf:RDF>
      <cc:Work
         rdf:about="">
        <dc:format>image/svg+xml</dc:format>
        <dc:type
           rdf:resource="http://purl.org/dc/dcmitype/StillImage" />
      </cc:Work>
    </rdf:RDF>
  </metadata>
  <sodipodi:namedview
     inkscape:window-height="781"
     inkscape:window-width="1440"
     inkscape:pageshadow="2"
     inkscape:pageopacity="0.0"
     guidetolerance="10.0"
     gridtolerance="10.0"
     objecttolerance="10.0"
     borderopacity="1.0"
     bordercolor="#666666"
     pagecolor="#ffffff"
     id="base"
     showgrid="false"
     inkscape:zoom="10.375"
     inkscape:cx="4.5301205"
     inkscape:cy="12"
     inkscape:window-x="0"
     inkscape:window-y="24"
     inkscape:current-layer="layer1" />
  <defs
     id="defs3242">
    <inkscape:perspective
       sodipodi:type="inkscape:persp3d"
       inkscape:vp_x="0 : 12 : 1"
       inkscape:vp_y="0 : 1000 : 0"
       inkscape:vp_z="24 : 12 : 1"
       inkscape:persp3d-origin="12 : 8 : 1"
       id="perspective13" />
  </defs>
  <g
     id="layer1">
    <path
       d="M 10.249059,8.2139183 C 10.250709,8.9350988 10.256733,9.656496 10.240509,10.376791 C 10.147002,10.867745 9.498985,11.074675 9.102691,10.770685 C 7.8497106,10.149206 6.5967303,9.527728 5.34375,8.90625 C 7.2415086,10.565643 9.102241,12.111442 11,13.770835 C 11,13.770835 11.815356,13.8 11.815356,13.8 C 11.810758,13.262529 11.791728,12.969494 11.84375,12.4375 C 11.997806,12.021907 12.571017,11.861574 12.902579,12.123804 C 14.018386,12.572119 15.134193,13.020435 16.25,13.46875 C 14.502857,11.721607 12.755715,9.974465 11.008572,8.2273222 C 11.008572,8.2273222 10.253763,8.2140013 10.249059,8.2139183 z"
       id="path3179"
       style="opacity:0.3;fill:none;fill-opacity:1;fill-rule:evenodd;stroke:#ffffff;stroke-width:0.5;stroke-miterlimit:4;stroke-dasharray:none;stroke-opacity:1" />
    <rect
       width="14.5"
       height="7.5"
       rx="0.25"
       ry="0.25"
       x="3.25"
       y="7.25"
       id="rect3236"
       style="opacity:0.3;fill:none;fill-opacity:1;fill-rule:nonzero;stroke:#ffffff;stroke-width:0.5;stroke-linecap:round;stroke-linejoin:miter;marker:none;marker-start:none;marker-mid:none;marker-end:none;stroke-miterlimit:4;stroke-dasharray:none;stroke-dashoffset:0;stroke-opacity:1;visibility:visible;display:inline;overflow:visible;enable-background:accumulate" />
    <path
       d="M 3.5,5.5 C 2.392,5.5 1.5,6.392 1.5,7.5 L 1.5,14.5 C 1.5,15.608 2.3919998,16.5 3.5,16.5 L 17.5,16.5 C 18.608,16.5 19.500001,15.608 19.5,14.5 L 19.5,13.5 C 20.086861,13.465401 20.660328,13.262611 21.03125,12.78125 C 21.556463,12.206345 21.446061,11.592479 21.5,10.6875 C 21.553939,9.782521 20.530965,8.5237494 19.426211,8.5 L 19.5,7.5 C 19.5,6.392 18.608001,5.5 17.5,5.5 L 3.5,5.5 z"
       id="rect3225"
       style="opacity:0.6;fill:none;fill-opacity:1;fill-rule:nonzero;stroke:#3a3935;stroke-width:0.99999994;stroke-linecap:round;stroke-linejoin:miter;marker:none;marker-start:none;marker-mid:none;marker-end:none;stroke-miterlimit:4;stroke-dasharray:none;stroke-dashoffset:0;stroke-opacity:1;visibility:visible;display:inline;overflow:visible;enable-background:accumulate" />
    <path
       d="M 4.5,8.0625 C 4.4144559,8.0625 4.3515164,8.0874417 4.28125,8.125 L 10.03125,11 L 10.03125,8.0625 L 4.5,8.0625 z M 11.09375,8.0625 L 16.875,13.84375 C 16.93963,13.759511 17,13.677354 17,13.5625 L 17,8.5625 C 17,8.2855 16.777,8.0625 16.5,8.0625 L 11.09375,8.0625 z M 4.21875,8.15625 C 4.0962472,8.2472129 4,8.3975221 4,8.5625 L 4,13.5625 C 4,13.8395 4.223,14.0625 4.5,14.0625 L 10.96875,14.0625 L 4.21875,8.15625 z M 12.03125,12 L 12.03125,14.0625 L 16.5,14.0625 C 16.628316,14.0625 16.724159,13.985156 16.8125,13.90625 L 12.03125,12 z"
       id="rect3728"
       style="fill:#eae3d0;fill-opacity:1;fill-rule:evenodd;stroke:none;stroke-width:1.69999993;stroke-linecap:round;stroke-linejoin:miter;marker:none;marker-start:none;marker-mid:none;marker-end:none;stroke-miterlimit:4;stroke-dasharray:none;stroke-dashoffset:0;stroke-opacity:1;visibility:visible;display:inline;overflow:visible;enable-background:accumulate" />
    <path
       d="M 3.5,6.5 L 17.5,6.5 C 18.054,6.5 18.5,6.946 18.5,7.5 L 18.5,14.5 C 18.5,15.054 18.054,15.5 17.5,15.5 L 3.5,15.5 C 2.946,15.5 2.5,15.054 2.5,14.5 L 2.5,7.5 C 2.5,6.946 2.946,6.5 3.5,6.5 z M 18.618451,9.50264 C 18.946491,9.50334 19.274527,9.504168 19.602559,9.505144 C 20.200384,9.545901 20.579292,10.15474 20.500033,10.717338 C 20.4766,11.25026 20.624154,11.894234 20.136838,12.272203 C 19.69836,12.622964 19.115638,12.463608 18.599631,12.5"
       id="rect2442"
       style="fill:none;fill-opacity:1;fill-rule:nonzero;stroke:#eae3d0;stroke-width:1;stroke-linecap:round;stroke-linejoin:miter;marker:none;marker-start:none;marker-mid:none;marker-end:none;stroke-miterlimit:4;stroke-dashoffset:0;stroke-opacity:1;visibility:visible;display:inline;overflow:visible;enable-background:accumulate" />
  </g>
</svg>
