<?xml version="1.0" encoding="UTF-8" standalone="no"?>
<!-- Created with Inkscape (http://www.inkscape.org/) -->
<svg
   xmlns:dc="http://purl.org/dc/elements/1.1/"
   xmlns:cc="http://creativecommons.org/ns#"
   xmlns:rdf="http://www.w3.org/1999/02/22-rdf-syntax-ns#"
   xmlns:svg="http://www.w3.org/2000/svg"
   xmlns="http://www.w3.org/2000/svg"
   xmlns:sodipodi="http://sodipodi.sourceforge.net/DTD/sodipodi-0.dtd"
   xmlns:inkscape="http://www.inkscape.org/namespaces/inkscape"
   version="1.0"
   width="32"
   height="22"
   id="svg3240"
   sodipodi:version="0.32"
   inkscape:version="0.46"
   sodipodi:docname="battery-040-charging.svg"
   inkscape:output_extension="org.inkscape.output.svg.inkscape">
  <metadata
     id="metadata12">
    <rdf:RDF>
      <cc:Work
         rdf:about="">
        <dc:format>image/svg+xml</dc:format>
        <dc:type
           rdf:resource="http://purl.org/dc/dcmitype/StillImage" />
      </cc:Work>
    </rdf:RDF>
  </metadata>
  <sodipodi:namedview
     inkscape:window-height="706"
     inkscape:window-width="1113"
     inkscape:pageshadow="2"
     inkscape:pageopacity="0.0"
     guidetolerance="10.0"
     gridtolerance="10.0"
     objecttolerance="10.0"
     borderopacity="1.0"
     bordercolor="#666666"
     pagecolor="#ffffff"
     id="base"
     showgrid="false"
     inkscape:zoom="17.375"
     inkscape:cx="6.2650497"
     inkscape:cy="11"
     inkscape:window-x="0"
     inkscape:window-y="46"
     inkscape:current-layer="svg3240" />
  <defs
     id="defs3242">
    <inkscape:perspective
       sodipodi:type="inkscape:persp3d"
       inkscape:vp_x="0 : 11 : 1"
       inkscape:vp_y="0 : 1000 : 0"
       inkscape:vp_z="32 : 11 : 1"
       inkscape:persp3d-origin="16 : 7.3333333 : 1"
       id="perspective14" />
  </defs>
  <path
     d="M 25,5 C 26.108,5 27,5.892 27,7 L 27,15 C 27,16.108 26.108,17 25,17 L 7,17 C 5.892,17 5,16.108 5,15 L 5,14 L 4,14 C 2.892,14 2,13.108 2,12 L 2,10 C 2,8.892 2.892,8 4,8 L 5,8 L 5,7 C 5,5.892 5.892,5 7,5 L 25,5 z M 25,6 L 7,6 C 6.446,6 6,6.446 6,7 L 6,15 C 6,15.554 6.446,16 7,16 L 25,16 C 25.554,16 26,15.554 26,15 L 26,7 C 26,6.446 25.554,6 25,6 z M 5,9 L 4,9 C 3.446,9 3,9.446 3,10 L 3,12 C 3,12.554 3.446,13 4,13 L 5,13 L 5,9 z"
     id="rect2401"
     style="opacity:1;fill:#eae3d1;fill-opacity:1;fill-rule:nonzero;stroke:none;stroke-width:1;stroke-linecap:round;stroke-linejoin:miter;marker:none;marker-start:none;marker-mid:none;marker-end:none;stroke-miterlimit:4;stroke-dasharray:none;stroke-dashoffset:0;stroke-opacity:1;visibility:visible;display:inline;overflow:visible;enable-background:accumulate" />
  <rect
     width="8"
     height="7"
     rx="0.5"
     ry="0.5"
     x="7"
     y="18"
     transform="matrix(0,1,1,0,0,0)"
     id="rect3190"
     style="opacity:0.40000000000000002;fill:#eae3d1;fill-opacity:1;fill-rule:evenodd;stroke:none;stroke-width:1.69999992999999994;stroke-linecap:round;stroke-linejoin:miter;marker:none;marker-start:none;marker-mid:none;marker-end:none;stroke-miterlimit:4;stroke-dasharray:none;stroke-dashoffset:0;stroke-opacity:1;visibility:visible;display:inline;overflow:visible;enable-background:accumulate" />
  <rect
     width="19.5"
     height="9.500001"
     rx="0.75"
     ry="0.75"
     x="-25.75"
     y="6.2499995"
     id="rect3192"
     style="opacity:0.29999999999999999;fill:none;fill-opacity:1;fill-rule:nonzero;stroke:#ffffff;stroke-width:0.49999993999999998;stroke-linecap:round;stroke-linejoin:miter;marker:none;marker-start:none;marker-mid:none;marker-end:none;stroke-miterlimit:4;stroke-dasharray:none;stroke-dashoffset:0;stroke-opacity:1;visibility:visible;display:inline;overflow:visible;enable-background:accumulate"
     transform="scale(-1,1)" />
  <path
     d="M 4,14 L 5,14 L 5,15 C 5,16.436187 6,17 7,17 L 25,17 C 26,17 27,16.191135 27,15 L 27,7 C 27,5.825202 26,5 25,5 L 7,5 C 5.825202,5 5,5.8366321 5,7 L 5,8 L 4,8 C 3,8 2,8.8039585 2,10 L 2,12 C 2,13.196607 3.00292,14 4,14 z M 25.477223,4 C 26.585223,4 28,5.4637876 28,6.5717876 L 28,15.477223 C 28,16.585223 26.568886,18 25.460886,18 L 6.473767,18 C 5.365767,18 4,17 4,15.54257 L 4,15 L 3.571788,15 C 2,15 1,13.65057 1,12.411876 L 1,9.5 C 1,8.392 2,7 3.5,7 L 4,7 L 4,6.4737669 C 4,5.2187358 5.235073,4 6.522777,4 L 25.477223,4 z"
     id="path3194"
     style="opacity:0.59999999999999998;fill:#3a3935;fill-opacity:1;fill-rule:nonzero;stroke:none;stroke-width:1;stroke-linecap:round;stroke-linejoin:miter;marker:none;marker-start:none;marker-mid:none;marker-end:none;stroke-miterlimit:4;stroke-dasharray:none;stroke-dashoffset:0;stroke-opacity:1;visibility:visible;display:inline;overflow:visible;enable-background:accumulate" />
  <path
     d="M 4.75,9.2244976 L 4.75,12.75 C 3.996828,12.75 3.25,12.79671 3.25,12 L 3.25,10 C 3.25,9.2098004 4.000182,9.2244976 4.75,9.2244976 z"
     id="path3196"
     style="opacity:0.29999999999999999;fill:none;fill-rule:evenodd;stroke:#ffffff;stroke-width:0.50000000000000000;stroke-linecap:butt;stroke-linejoin:miter;stroke-miterlimit:4;stroke-dasharray:none;stroke-opacity:1" />
  <path
     d="M 14.865601,6.5366347 C 14.67077,6.6085407 14.544541,6.7978849 14.553101,7.0053847 L 14.553101,10.224135 L 9.2406012,7.5678847 C 9.0162352,7.4211841 8.7154272,7.484144 8.5687262,7.7085097 C 8.4220252,7.9328754 8.4849852,8.2336841 8.7093512,8.3803847 L 16.709351,15.380385 C 16.853132,15.497737 17.051794,15.521391 17.219109,15.441079 C 17.386425,15.360768 17.49223,15.19097 17.490601,15.005385 L 17.490601,12.692885 L 21.834351,14.442885 C 22.047051,14.541842 22.300123,14.472052 22.432037,14.278062 C 22.563951,14.084071 22.53582,13.823063 22.365601,13.661635 L 15.365601,6.6616347 C 15.237511,6.5261307 15.042388,6.4773497 14.865601,6.5366347 z"
     id="path3160"
     style="opacity:0.29999999999999999;fill:#ffffff;fill-opacity:1;fill-rule:evenodd;stroke:none" />
  <path
     d="M 22.002212,14.005385 L 15.002213,7.0053848 L 15.002213,11.005385 L 9.0022119,8.0053848 L 17.002213,15.005385 L 17.002213,12.005385 L 22.002212,14.005385 z"
     id="path3172"
     style="fill:#eae3d1;fill-opacity:1;fill-rule:evenodd;stroke:none" />
</svg>
