<?xml version="1.0" encoding="UTF-8" standalone="no"?>
<!-- Created with Inkscape (http://www.inkscape.org/) -->
<svg
   xmlns:svg="http://www.w3.org/2000/svg"
   xmlns="http://www.w3.org/2000/svg"
   version="1.0"
   width="22"
   height="22"
   id="svg3194">
  <defs
     id="defs3196" />
  <g
     transform="translate(0,-1)"
     id="g3191"
     style="opacity:0.4">
    <rect
       width="3"
       height="17"
       rx="2"
       ry="2"
       x="18.5"
       y="3.5"
       id="rect2411"
       style="opacity:0.6;fill:none;fill-opacity:1;fill-rule:nonzero;stroke:#3a3935;stroke-width:1;stroke-linecap:round;stroke-linejoin:miter;marker:none;marker-start:none;marker-mid:none;marker-end:none;stroke-miterlimit:4;stroke-dasharray:none;stroke-dashoffset:0;stroke-opacity:1;visibility:visible;display:inline;overflow:visible;enable-background:accumulate" />
    <rect
       width="3"
       height="12"
       rx="2"
       ry="2"
       x="14.5"
       y="8.5"
       id="rect3183"
       style="opacity:0.6;fill:none;fill-opacity:1;fill-rule:nonzero;stroke:#3a3935;stroke-width:1;stroke-linecap:round;stroke-linejoin:miter;marker:none;marker-start:none;marker-mid:none;marker-end:none;stroke-miterlimit:4;stroke-dasharray:none;stroke-dashoffset:0;stroke-opacity:1;visibility:visible;display:inline;overflow:visible;enable-background:accumulate" />
    <rect
       width="3"
       height="8"
       rx="2"
       ry="2"
       x="10.5"
       y="12.5"
       id="rect3185"
       style="opacity:0.6;fill:none;fill-opacity:1;fill-rule:nonzero;stroke:#3a3935;stroke-width:1;stroke-linecap:round;stroke-linejoin:miter;marker:none;marker-start:none;marker-mid:none;marker-end:none;stroke-miterlimit:4;stroke-dasharray:none;stroke-dashoffset:0;stroke-opacity:1;visibility:visible;display:inline;overflow:visible;enable-background:accumulate" />
    <rect
       width="3"
       height="4"
       rx="2"
       ry="2"
       x="6.5"
       y="16.5"
       id="rect3187"
       style="opacity:0.6;fill:none;fill-opacity:1;fill-rule:nonzero;stroke:#3a3935;stroke-width:1;stroke-linecap:round;stroke-linejoin:miter;marker:none;marker-start:none;marker-mid:none;marker-end:none;stroke-miterlimit:4;stroke-dasharray:none;stroke-dashoffset:0;stroke-opacity:1;visibility:visible;display:inline;overflow:visible;enable-background:accumulate" />
    <path
       d="M 1.4375,11.5 C 1.3034421,11.512498 1.1838335,11.558446 1.0625,11.625 C 0.84349712,11.735889 0.68284917,11.92525 0.59375,12.15625 C 0.56092573,12.227964 0.54609076,12.298894 0.53125,12.375 C 0.52525116,12.419471 0.5,12.453833 0.5,12.5 C 0.5,12.510863 0.4996596,12.520473 0.5,12.53125 C 0.49173381,12.796431 0.57735012,13.046726 0.78125,13.25 L 3.5,15.96875 L 3.5,19.5 C 3.5,20.054 3.9459999,20.5 4.5,20.5 C 5.0539999,20.5 5.5,20.054 5.5,19.5 L 5.5,15.96875 L 8.25,13.25 C 8.5646816,12.936284 8.5969101,12.499285 8.40625,12.125 C 8.3702468,12.039596 8.338332,11.946242 8.28125,11.875 C 8.2714251,11.864333 8.2603741,11.854092 8.25,11.84375 L 8.21875,11.78125 C 8.212418,11.774918 8.1940002,11.78741 8.1875,11.78125 C 8.133324,11.72724 8.062051,11.695328 8,11.65625 C 7.9605988,11.632739 7.9177022,11.611752 7.875,11.59375 C 7.7725805,11.547159 7.6724212,11.510248 7.5625,11.5 C 7.5418366,11.498074 7.5207271,11.500642 7.5,11.5 L 7.46875,11.5 L 1.5,11.5 C 1.4782745,11.5 1.4588729,11.498649 1.4375,11.5 z"
       id="rect3193"
       style="opacity:0.6;fill:#3a3835;fill-opacity:1;fill-rule:nonzero;stroke:#3a3935;stroke-width:1;stroke-linecap:round;stroke-linejoin:miter;marker:none;marker-start:none;marker-mid:none;marker-end:none;stroke-miterlimit:4;stroke-dasharray:none;stroke-dashoffset:0;stroke-opacity:1;visibility:visible;display:inline;overflow:visible;enable-background:accumulate" />
    <rect
       width="2"
       height="16"
       rx="0.99999994"
       ry="1"
       x="19"
       y="4"
       id="rect3165"
       style="fill:#eae3d0;fill-opacity:1;fill-rule:nonzero;stroke:none;stroke-width:1;stroke-linecap:round;stroke-linejoin:miter;marker:none;marker-start:none;marker-mid:none;marker-end:none;stroke-miterlimit:4;stroke-dasharray:none;stroke-dashoffset:0;stroke-opacity:1;visibility:visible;display:inline;overflow:visible;enable-background:accumulate" />
    <rect
       width="2"
       height="11"
       rx="0.99999994"
       ry="1"
       x="15"
       y="9"
       id="rect3177"
       style="fill:#eae3d0;fill-opacity:1;fill-rule:nonzero;stroke:none;stroke-width:1;stroke-linecap:round;stroke-linejoin:miter;marker:none;marker-start:none;marker-mid:none;marker-end:none;stroke-miterlimit:4;stroke-dasharray:none;stroke-dashoffset:0;stroke-opacity:1;visibility:visible;display:inline;overflow:visible;enable-background:accumulate" />
    <rect
       width="2"
       height="7"
       rx="0.99999994"
       ry="1"
       x="11"
       y="13"
       id="rect3179"
       style="fill:#eae3d0;fill-opacity:1;fill-rule:nonzero;stroke:none;stroke-width:1;stroke-linecap:round;stroke-linejoin:miter;marker:none;marker-start:none;marker-mid:none;marker-end:none;stroke-miterlimit:4;stroke-dasharray:none;stroke-dashoffset:0;stroke-opacity:1;visibility:visible;display:inline;overflow:visible;enable-background:accumulate" />
    <rect
       width="2"
       height="3"
       rx="0.99999994"
       ry="1"
       x="7"
       y="17"
       id="rect3181"
       style="fill:#eae3d0;fill-opacity:1;fill-rule:nonzero;stroke:none;stroke-width:1;stroke-linecap:round;stroke-linejoin:miter;marker:none;marker-start:none;marker-mid:none;marker-end:none;stroke-miterlimit:4;stroke-dasharray:none;stroke-dashoffset:0;stroke-opacity:1;visibility:visible;display:inline;overflow:visible;enable-background:accumulate" />
    <path
       d="M 1.5,12 C 1.43075,12 1.3723594,12.006016 1.3125,12.03125 C 1.2553851,12.057471 1.1995429,12.113064 1.15625,12.15625 L 1.125,12.1875 C 1.0927971,12.225635 1.0509451,12.26578 1.03125,12.3125 C 0.93517537,12.495377 0.96743759,12.717827 1.125,12.875 L 4,15.75 L 4,19.5 C 4,19.777 4.223,20 4.5,20 C 4.777,20 5,19.777 5,19.5 L 5,15.75 L 7.875,12.875 C 8.0325625,12.717827 8.0648247,12.495377 7.96875,12.3125 C 7.9490549,12.26578 7.9072029,12.225635 7.875,12.1875 L 7.84375,12.15625 C 7.7527218,12.065447 7.6214455,12.006356 7.5,12 L 7.46875,12 L 4.5,12 L 1.53125,12 L 1.5,12 z M 2.71875,13 L 4,13 L 4,14.25 L 2.71875,13 z M 5,13 L 6.28125,13 L 5,14.28125 L 5,13 z"
       id="rect3184"
       style="fill:#eae3d0;fill-opacity:1;fill-rule:nonzero;stroke:none;stroke-width:1;stroke-linecap:round;stroke-linejoin:miter;marker:none;marker-start:none;marker-mid:none;marker-end:none;stroke-miterlimit:4;stroke-dasharray:none;stroke-dashoffset:0;stroke-opacity:1;visibility:visible;display:inline;overflow:visible;enable-background:accumulate" />
  </g>
</svg>
