<?xml version="1.0" encoding="UTF-8" standalone="no"?>
<!-- Created with Inkscape (http://www.inkscape.org/) -->

<svg
   xmlns:svg="http://www.w3.org/2000/svg"
   xmlns="http://www.w3.org/2000/svg"
   version="1.0"
   width="22"
   height="22"
   id="svg3225">
  <defs
     id="defs3227" />
  <g
     transform="translate(-1,-1)"
     id="layer1">
    <path
       d="M 10.8125,2 C 10.335582,2.0931654 9.9935645,2.5141101 10,3 L 10,5 4.21875,5 C 2.5020774,5 1,6.2946416 1,8 l 0,8 c 0,1.705358 1.5020775,3 3.21875,3 l 15.5625,0 C 21.497922,19 23,17.705359 23,16 L 23,8 C 23,6.2946415 21.497922,5 19.78125,5 L 18,5 18,4 C 17.997083,3.4489282 17.551072,3.0029173 17,3 17,3 15.888889,3 15,3 14.997083,2.4489282 14.551072,2.0029173 14,2 l -3,0 c -0.06236,-0.00584 -0.125136,-0.00584 -0.1875,0 l 0,0 z M 4.125,8 c 0,0.024458 -0.036244,0 0.09375,0 C 4.1918737,8.0658861 4.1422578,8.1177164 4.125,8.1875 L 4.125,8 z m 15.65625,0 c 0.129991,0 0.09375,0.024459 0.09375,0 l 0,0.1875 C 19.857742,8.1177164 19.808126,8.0658861 19.78125,8 z M 4.125,9.8125 C 4.1863144,10.06043 4.2371347,10.314878 4.40625,10.5 4.2371347,10.685122 4.1863144,10.93957 4.125,11.1875 l 0,-1.375 z m 15.75,0 0,1.375 C 19.813686,10.93957 19.762865,10.685122 19.59375,10.5 19.762865,10.314878 19.813686,10.06043 19.875,9.8125 z m -15.75,3 C 4.286915,13.467218 4.8030653,14 5.5,14 l 0.71875,0 C 6.1486094,14.171947 6,14.306139 6,14.5 l 0,1 c 0,0.193861 0.1486094,0.328053 0.21875,0.5 l -2,0 C 4.0887558,16 4.125,15.975543 4.125,16 l 0,-3.1875 z m 15.75,0 0,3.1875 c 0,-0.02446 0.03624,0 -0.09375,0 l -2,0 C 17.851391,15.828053 18,15.693861 18,15.5 l 0,-1 C 18,14.306139 17.851391,14.171947 17.78125,14 L 18.5,14 c 0.696935,0 1.213085,-0.532782 1.375,-1.1875 z"
       id="path3219"
       style="opacity:0.6;fill:#43423e;fill-opacity:1;fill-rule:evenodd;stroke:none;stroke-width:1.69999993;marker:none;visibility:visible;display:inline;overflow:visible;enable-background:accumulate" />
    <path
       d="M 11,3 11,6 4.21875,6 C 2.9876388,6 2,6.892 2,8 l 0,8 c 0,1.108 0.9876389,2 2.21875,2 l 15.5625,0 C 21.01236,18 22,17.108 22,16 L 22,8 C 22,6.892 21.012361,6 19.78125,6 L 12,6 l 0,-2 1,0 0,1 4,0 0,-1 c 0,0 -3,0 -3,0 L 14,3 11,3 z M 4.21875,7 19.78125,7 C 20.396804,7 20.875,7.446 20.875,8 l 0,8 c 0,0.554 -0.478195,1 -1.09375,1 L 4.21875,17 C 3.6031944,17 3.125,16.554 3.125,16 l 0,-8 C 3.1249999,7.446 3.6031945,7 4.21875,7 z M 5.5,8 C 5.223,8 5,8.223 5,8.5 l 0,1 C 5,9.777 5.223,10 5.5,10 l 1,0 C 6.777,10 7,9.777 7,9.5 l 0,-1 C 7,8.223 6.777,8 6.5,8 l -1,0 z m 3,0 C 8.223,8 8,8.223 8,8.5 l 0,1 C 8,9.777 8.223,10 8.5,10 l 1,0 C 9.777,10 10,9.777 10,9.5 l 0,-1 C 10,8.223 9.777,8 9.5,8 l -1,0 z m 3,0 C 11.223,8 11,8.223 11,8.5 l 0,1 c 0,0.277 0.223,0.5 0.5,0.5 l 1,0 C 12.777,10 13,9.777 13,9.5 l 0,-1 C 13,8.223 12.777,8 12.5,8 l -1,0 z m 3,0 C 14.223,8 14,8.223 14,8.5 l 0,1 c 0,0.277 0.223,0.5 0.5,0.5 l 1,0 C 15.777,10 16,9.777 16,9.5 l 0,-1 C 16,8.223 15.777,8 15.5,8 l -1,0 z m 3,0 C 17.223,8 17,8.223 17,8.5 l 0,1 c 0,0.277 0.223,0.5 0.5,0.5 l 1,0 C 18.777,10 19,9.777 19,9.5 l 0,-1 C 19,8.223 18.777,8 18.5,8 l -1,0 z m -12,3 C 5.223,11 5,11.223 5,11.5 l 0,1 C 5,12.777 5.223,13 5.5,13 l 1,0 C 6.777,13 7,12.777 7,12.5 l 0,-1 C 7,11.223 6.777,11 6.5,11 l -1,0 z m 3,0 C 8.223,11 8,11.223 8,11.5 l 0,1 C 8,12.777 8.223,13 8.5,13 l 1,0 C 9.777,13 10,12.777 10,12.5 l 0,-1 C 10,11.223 9.777,11 9.5,11 l -1,0 z m 3,0 C 11.223,11 11,11.223 11,11.5 l 0,1 c 0,0.277 0.223,0.5 0.5,0.5 l 1,0 c 0.277,0 0.5,-0.223 0.5,-0.5 l 0,-1 C 13,11.223 12.777,11 12.5,11 l -1,0 z m 3,0 C 14.223,11 14,11.223 14,11.5 l 0,1 c 0,0.277 0.223,0.5 0.5,0.5 l 1,0 c 0.277,0 0.5,-0.223 0.5,-0.5 l 0,-1 C 16,11.223 15.777,11 15.5,11 l -1,0 z m 3,0 C 17.223,11 17,11.223 17,11.5 l 0,1 c 0,0.277 0.223,0.5 0.5,0.5 l 1,0 c 0.277,0 0.5,-0.223 0.5,-0.5 l 0,-1 C 19,11.223 18.777,11 18.5,11 l -1,0 z m -10,3 C 7.223,14 7,14.223 7,14.5 l 0,1 C 7,15.777 7.223,16 7.5,16 l 9,0 c 0.277,0 0.5,-0.223 0.5,-0.5 l 0,-1 C 17,14.223 16.777,14 16.5,14 l -9,0 z"
       id="rect2396"
       style="fill:#dfd8c8;fill-opacity:1;fill-rule:evenodd;stroke:none;stroke-width:1.69999993;marker:none;visibility:visible;display:inline;overflow:visible;enable-background:accumulate" />
  </g>
</svg>
