<?xml version="1.0" encoding="UTF-8" standalone="no"?>
<!-- Created with Inkscape (http://www.inkscape.org/) -->

<svg
   xmlns:dc="http://purl.org/dc/elements/1.1/"
   xmlns:cc="http://creativecommons.org/ns#"
   xmlns:rdf="http://www.w3.org/1999/02/22-rdf-syntax-ns#"
   xmlns:svg="http://www.w3.org/2000/svg"
   xmlns="http://www.w3.org/2000/svg"
   xmlns:sodipodi="http://sodipodi.sourceforge.net/DTD/sodipodi-0.dtd"
   xmlns:inkscape="http://www.inkscape.org/namespaces/inkscape"
   width="22"
   height="22"
   id="svg4536"
   version="1.1"
   inkscape:version="0.48.3.1 r9886"
   sodipodi:docname="indicator-messages-invisible-new.svg">
  <defs
     id="defs4538" />
  <sodipodi:namedview
     id="base"
     pagecolor="#ffffff"
     bordercolor="#666666"
     borderopacity="1.0"
     inkscape:pageopacity="0.0"
     inkscape:pageshadow="2"
     inkscape:zoom="9.9475982"
     inkscape:cx="27.845917"
     inkscape:cy="4.2472564"
     inkscape:document-units="px"
     inkscape:current-layer="layer1"
     showgrid="false"
     inkscape:window-width="1920"
     inkscape:window-height="1030"
     inkscape:window-x="0"
     inkscape:window-y="22"
     inkscape:window-maximized="1" />
  <metadata
     id="metadata4541">
    <rdf:RDF>
      <cc:Work
         rdf:about="">
        <dc:format>image/svg+xml</dc:format>
        <dc:type
           rdf:resource="http://purl.org/dc/dcmitype/StillImage" />
        <dc:title />
      </cc:Work>
    </rdf:RDF>
  </metadata>
  <g
     inkscape:label="Layer 1"
     inkscape:groupmode="layer"
     id="layer1"
     transform="translate(0,-1030.3622)">
    <path
       id="path5662"
       d="m 2.3125,1036.3622 c -0.6094,0 -1.3125,0.7585 -1.3125,1.3125 l 0,9.3125 c 0,0.731 0.8042,1.375 1.4688,1.375 l 10.5312,0 0,-4 c 0,-0.372 0.1011,-0.7315 0.2813,-1.0312 L 13,1043.0497 l -2.2812,2.3125 -1.4375,0 -2.2813,-2.3125 -3.1562,3.1875 -0.6875,-0.7187 3.125,-3.1563 -4.125,-4.1562 0.6875,-0.6875 6.8437,6.8437 0.5938,0 6.875,-6.8437 0.6875,0.6875 -4.0938,4.1562 0.25,0.2813 c 0.2945,-0.1716 0.6376,-0.2813 1,-0.2813 l 4,0 0,-4.5625 c 0,-0.7756 -0.6862,-1.4375 -1.4062,-1.4375 l -15.2813,0 z"
       style="opacity:0.3;fill:#000000;enable-background:new"
       inkscape:connector-curvature="0" />
    <path
       inkscape:connector-curvature="0"
       style="fill:#19b6ee;fill-opacity:1;enable-background:new"
       d="m 2.3125,1035.3622 c -0.6094,0 -1.3125,0.7585 -1.3125,1.3125 l 0,9.3125 c 0,0.731 0.8042,1.375 1.4688,1.375 l 10.5312,0 0,-4 c 0,-0.372 0.1011,-0.7315 0.2813,-1.0312 L 13,1042.0497 l -2.2812,2.3125 -1.4375,0 -2.2813,-2.3125 -3.1562,3.1875 -0.6875,-0.7187 3.125,-3.1563 -4.125,-4.1562 0.6875,-0.6875 6.8437,6.8437 0.5938,0 6.875,-6.8437 0.6875,0.6875 -4.0938,4.1562 0.25,0.2813 c 0.2945,-0.1716 0.6376,-0.2813 1,-0.2813 l 4,0 0,-4.5625 c 0,-0.7756 -0.6862,-1.4375 -1.4062,-1.4375 l -15.2813,0 z"
       id="path5696" />
    <path
       inkscape:connector-curvature="0"
       id="path5698"
       d="m 15,1042.3622 c -0.554,0 -1,0.446 -1,1 l 0,5 c 0,0.554 0.446,1 1,1 l 5,0 c 0.554,0 1,-0.446 1,-1 l 0,-5 c 0,-0.554 -0.446,-1 -1,-1 l -5,0 z m 0,1 5,0 0,5 -5,0 0,-5 z"
       style="opacity:0.4;color:#000000;fill:#dfdbd2;fill-opacity:1;fill-rule:nonzero;stroke:none;stroke-width:2;marker:none;visibility:visible;display:inline;overflow:visible;enable-background:accumulate" />
  </g>
</svg>
