<?xml version="1.0" encoding="UTF-8" standalone="no"?>
<!-- Generator: Adobe Illustrator 15.0.0, SVG Export Plug-In . SVG Version: 6.00 Build 0)  -->

<svg
   xmlns:dc="http://purl.org/dc/elements/1.1/"
   xmlns:cc="http://creativecommons.org/ns#"
   xmlns:rdf="http://www.w3.org/1999/02/22-rdf-syntax-ns#"
   xmlns:svg="http://www.w3.org/2000/svg"
   xmlns="http://www.w3.org/2000/svg"
   xmlns:sodipodi="http://sodipodi.sourceforge.net/DTD/sodipodi-0.dtd"
   xmlns:inkscape="http://www.inkscape.org/namespaces/inkscape"
   version="1.1"
   id="Layer_1"
   x="0px"
   y="0px"
   width="22"
   height="22"
   viewBox="0 0 22 22"
   enable-background="new 0 0 26 22"
   xml:space="preserve"
   inkscape:version="0.48.3.1 r9886"
   sodipodi:docname="indicator-messages-available-new.svg"><metadata
   id="metadata3031"><rdf:RDF><cc:Work
       rdf:about=""><dc:format>image/svg+xml</dc:format><dc:type
         rdf:resource="http://purl.org/dc/dcmitype/StillImage" /></cc:Work></rdf:RDF></metadata><defs
   id="defs3029" /><sodipodi:namedview
   pagecolor="#ffffff"
   bordercolor="#666666"
   borderopacity="1"
   objecttolerance="10"
   gridtolerance="10"
   guidetolerance="10"
   inkscape:pageopacity="0"
   inkscape:pageshadow="2"
   inkscape:window-width="1535"
   inkscape:window-height="876"
   id="namedview3027"
   showgrid="true"
   inkscape:zoom="21.454545"
   inkscape:cx="15.877012"
   inkscape:cy="10.447876"
   inkscape:window-x="65"
   inkscape:window-y="24"
   inkscape:window-maximized="1"
   inkscape:current-layer="Layer_1"><inkscape:grid
     type="xygrid"
     id="grid3260"
     empspacing="5"
     visible="true"
     enabled="true"
     snapvisiblegridlinesonly="true" /></sodipodi:namedview>
<path
   id="path3"
   enable-background="new    "
   d="M 17.59,6 2.305,6.022 C 1.695,6.022 1,6.782 1,7.336 v 9.298 C 1,17.366 1.789,18 2.453,18 H 17.502 C 18.299,18 19,17.322 19,16.624 V 7.465 C 19,6.689 18.311,6 17.59,6 z m -3.84,6 3.094,3.156 -0.688,0.688 L 13,12.688 10.721,15 H 9.283 L 7,12.688 3.844,15.876 3.156,15.157 6.281,12 2.156,7.844 2.844,7.156 l 0,0 L 9.688,14 h 0.598 L 17.161,7.156 17.849,7.844 13.75,12 z"
   inkscape:connector-curvature="0"
   style="opacity:0.3;fill:#020202" />
<path
   id="path5"
   d="M 17.59,5 2.305,5.022 C 1.695,5.022 1,5.782 1,6.336 v 9.298 C 1,16.366 1.789,17 2.453,17 H 17.502 C 18.299,17 19,16.322 19,15.624 V 6.465 C 19,5.689 18.311,5 17.59,5 z m -3.84,6 3.094,3.156 -0.688,0.688 L 13,11.688 10.721,14 H 9.283 L 7,11.688 3.844,14.876 3.156,14.157 6.281,11 2.156,6.844 2.844,6.156 l 0,0 L 9.688,13 h 0.598 L 17.161,6.156 17.849,6.844 13.75,11 z"
   inkscape:connector-curvature="0"
   style="fill:#2eb5e9;fill-opacity:0.95290001" />
<circle
   id="circle5"
   enable-background="new    "
   cx="21.5"
   cy="16.5"
   r="3.5"
   sodipodi:cx="21.5"
   sodipodi:cy="16.5"
   sodipodi:rx="3.5"
   sodipodi:ry="3.5"
   style="opacity:0.3;fill:#020202"
   transform="translate(-3,0)" />
<linearGradient
   id="circle7_1_"
   gradientUnits="userSpaceOnUse"
   x1="-2906.9097"
   y1="2782.9541"
   x2="-2900.0024"
   y2="2783.0474"
   gradientTransform="matrix(0,-1,1,0,-2761.5,-2888)">
	<stop
   offset="0"
   style="stop-color:#2E8942"
   id="stop3014" />
	<stop
   offset="1"
   style="stop-color:#6CBF5A"
   id="stop3016" />
</linearGradient>
<circle
   id="circle7"
   cx="21.5"
   cy="15.5"
   r="3.5"
   sodipodi:cx="21.5"
   sodipodi:cy="15.5"
   sodipodi:rx="3.5"
   sodipodi:ry="3.5"
   style="fill:url(#circle7_1_)"
   transform="translate(-3,0)" />
<radialGradient
   id="path3798_1_"
   cx="2768.4912"
   cy="2764.085"
   r="3.5936"
   gradientTransform="matrix(1.1134,0,0,1.1134,-3063.9482,-3065.0479)"
   gradientUnits="userSpaceOnUse">
	<stop
   offset="0"
   style="stop-color:#FFFFFF"
   id="stop3020" />
	<stop
   offset="0.4375"
   style="stop-color:#FFFFFF;stop-opacity:0.498"
   id="stop3022" />
	<stop
   offset="1"
   style="stop-color:#FFFFFF;stop-opacity:0"
   id="stop3024" />
</radialGradient>
<path
   id="path3798"
   d="m 18.5,12 c -1.633,0 -2.988,1.113 -3.375,2.625 0.707,1.129 1.945,1.875 3.375,1.875 1.43,0 2.668,-0.746 3.375,-1.875 C 21.488,13.113 20.133,12 18.5,12 z"
   inkscape:connector-curvature="0"
   style="fill:url(#path3798_1_)" />
</svg>