<?xml version="1.0" encoding="UTF-8" standalone="no"?>
<!-- Generator: Adobe Illustrator 15.0.0, SVG Export Plug-In . SVG Version: 6.00 Build 0)  -->

<svg
   xmlns:dc="http://purl.org/dc/elements/1.1/"
   xmlns:cc="http://creativecommons.org/ns#"
   xmlns:rdf="http://www.w3.org/1999/02/22-rdf-syntax-ns#"
   xmlns:svg="http://www.w3.org/2000/svg"
   xmlns="http://www.w3.org/2000/svg"
   xmlns:xlink="http://www.w3.org/1999/xlink"
   xmlns:sodipodi="http://sodipodi.sourceforge.net/DTD/sodipodi-0.dtd"
   xmlns:inkscape="http://www.inkscape.org/namespaces/inkscape"
   version="1.1"
   id="Layer_1"
   x="0px"
   y="0px"
   width="26px"
   height="22px"
   viewBox="0 0 26 22"
   enable-background="new 0 0 26 22"
   xml:space="preserve"
   inkscape:version="0.48.2 r9819"
   sodipodi:docname="indicator-messages-new-invisible-mono-dark.svg"><metadata
   id="metadata3023"><rdf:RDF><cc:Work
       rdf:about=""><dc:format>image/svg+xml</dc:format><dc:type
         rdf:resource="http://purl.org/dc/dcmitype/StillImage" /><dc:title /></cc:Work></rdf:RDF></metadata><defs
   id="defs3021"><linearGradient
     inkscape:collect="always"
     xlink:href="#path10_1_"
     id="linearGradient3810"
     gradientUnits="userSpaceOnUse"
     gradientTransform="matrix(0,-1,1,0,-2478,-2473)"
     x1="-2490"
     y1="2498"
     x2="-2484"
     y2="2498" /></defs><sodipodi:namedview
   pagecolor="#ffffff"
   bordercolor="#666666"
   borderopacity="1"
   objecttolerance="10"
   gridtolerance="10"
   guidetolerance="10"
   inkscape:pageopacity="0"
   inkscape:pageshadow="2"
   inkscape:window-width="1440"
   inkscape:window-height="852"
   id="namedview3019"
   showgrid="false"
   inkscape:zoom="30.341309"
   inkscape:cx="13.583208"
   inkscape:cy="7.3696993"
   inkscape:window-x="0"
   inkscape:window-y="0"
   inkscape:window-maximized="1"
   inkscape:current-layer="Layer_1" />
<path
   id="path5_14_"
   opacity="0.3"
   fill="#020202"
   enable-background="new    "
   d="M20.59,6L5.305,6.022  C4.695,6.022,4,6.782,4,7.336v9.298C4,17.366,4.789,18,5.453,18h15.049C21.299,18,22,17.322,22,16.624V7.465  C22,6.689,21.311,6,20.59,6z M16.75,12l3.094,3.156l-0.688,0.688L16,12.688L13.721,15h-1.438L10,12.688l-3.156,3.188l-0.688-0.719  L9.281,12L5.156,7.844l0.688-0.688l0,0L12.688,14h0.599l6.875-6.844l0.688,0.688L16.75,12z" />
<path
   id="path5_13_"
   fill="#2EB5E9"
   fill-opacity="0.9529"
   d="M20.59,5L5.305,5.022C4.695,5.022,4,5.782,4,6.336v9.298  C4,16.366,4.789,17,5.453,17h15.049C21.299,17,22,16.322,22,15.624V6.465C22,5.689,21.311,5,20.59,5z M16.75,11l3.094,3.156  l-0.688,0.688L16,11.688L13.721,14h-1.438L10,11.688l-3.156,3.188l-0.688-0.719L9.281,11L5.156,6.844l0.688-0.688l0,0L12.688,13  h0.599l6.875-6.844l0.688,0.688L16.75,11z" />
<path
   style="opacity:0.3"
   d="M 20 14 C 19.447 14 19 14.447 19 15 L 19 19 C 19 19.553 19.447 20 20 20 L 24 20 C 24.553 20 25 19.553 25 19 L 25 15 C 25 14.447 24.553 14 24 14 L 20 14 z "
   id="path8_7_" />
<linearGradient
   id="path10_1_"
   gradientUnits="userSpaceOnUse"
   x1="-2490"
   y1="2498"
   x2="-2484"
   y2="2498"
   gradientTransform="matrix(0,-1,1,0,-2476,-2471)">
	<stop
   offset="0"
   style="stop-color:#676868;stop-opacity:1;"
   id="stop3006" />
	<stop
   offset="1"
   style="stop-color:#eaeaea;stop-opacity:1;"
   id="stop3008" />
</linearGradient>

<radialGradient
   id="path3789_1_"
   cx="2545.4092"
   cy="2404.4443"
   r="3.6299"
   gradientTransform="matrix(1.1033,0,0,1.1033,-2786.3604,-2639.835)"
   gradientUnits="userSpaceOnUse">
	<stop
   offset="0"
   style="stop-color:#FFFFFF"
   id="stop3012" />
	<stop
   offset="0.3958"
   style="stop-color:#FFFFFF;stop-opacity:0.498"
   id="stop3014" />
	<stop
   offset="1"
   style="stop-color:#FFFFFF;stop-opacity:0"
   id="stop3016" />
</radialGradient>

<path
   style="fill:#333333;fill-opacity:1;stroke:none"
   d="m 20,13 c -0.553,0 -1,0.447 -1,1 l 0,4 c 0,0.553 0.447,1 1,1 l 4,0 c 0.553,0 1,-0.447 1,-1 l 0,-4 c 0,-0.553 -0.447,-1 -1,-1 l -4,0 z"
   id="rect3803"
   inkscape:connector-curvature="0" /><path
   style="fill:url(#path10_1_)"
   d="M 20 13 C 19.447 13 19 13.447 19 14 L 19 18 C 19 18.553 19.447 19 20 19 L 24 19 C 24.553 19 25 18.553 25 18 L 25 14 C 25 13.447 24.553 13 24 13 L 20 13 z M 20 14 L 24 14 L 24 18 L 20 18 L 20 14 z "
   id="path10_7_" /><path
   style="fill:url(#path3789_1_)"
   d="M 20 13 C 19.447 13 19 13.447 19 14 L 19 15.65625 C 19.282487 15.975784 19.62828 16.222621 20 16.4375 L 20 14 L 24 14 L 24 16.4375 C 24.37172 16.222621 24.717513 15.975784 25 15.65625 L 25 14 C 25 13.447 24.553 13 24 13 L 20 13 z "
   id="path3789_2_" /></svg>