<?xml version="1.0" encoding="UTF-8" standalone="no"?>
<!-- Generator: Adobe Illustrator 15.0.0, SVG Export Plug-In . SVG Version: 6.00 Build 0)  -->

<svg
   xmlns:dc="http://purl.org/dc/elements/1.1/"
   xmlns:cc="http://creativecommons.org/ns#"
   xmlns:rdf="http://www.w3.org/1999/02/22-rdf-syntax-ns#"
   xmlns:svg="http://www.w3.org/2000/svg"
   xmlns="http://www.w3.org/2000/svg"
   xmlns:sodipodi="http://sodipodi.sourceforge.net/DTD/sodipodi-0.dtd"
   xmlns:inkscape="http://www.inkscape.org/namespaces/inkscape"
   version="1.1"
   id="Layer_1"
   x="0px"
   y="0px"
   width="22"
   height="22"
   viewBox="0 0 22 22"
   enable-background="new 0 0 26 22"
   xml:space="preserve"
   inkscape:version="0.48.3.1 r9886"
   sodipodi:docname="indicator-messages-offline.svg"><metadata
   id="metadata3228"><rdf:RDF><cc:Work
       rdf:about=""><dc:format>image/svg+xml</dc:format><dc:type
         rdf:resource="http://purl.org/dc/dcmitype/StillImage" /></cc:Work></rdf:RDF></metadata><defs
   id="defs3226" /><sodipodi:namedview
   pagecolor="#ffffff"
   bordercolor="#666666"
   borderopacity="1"
   objecttolerance="10"
   gridtolerance="10"
   guidetolerance="10"
   inkscape:pageopacity="0"
   inkscape:pageshadow="2"
   inkscape:window-width="640"
   inkscape:window-height="480"
   id="namedview3224"
   showgrid="false"
   inkscape:zoom="10.727273"
   inkscape:cx="13"
   inkscape:cy="10.033947"
   inkscape:window-x="65"
   inkscape:window-y="24"
   inkscape:window-maximized="0"
   inkscape:current-layer="Layer_1" />
<path
   id="path3_11_"
   enable-background="new    "
   d="M 17.59,6 2.305,6.021 C 1.695,6.021 1,6.782 1,7.334 v 9.298 c 0,0.731 0.789,1.366 1.453,1.366 h 15.049 c 0.797,0 1.498,-0.68 1.498,-1.376 V 7.463 C 19,6.689 18.311,6 17.59,6 z m -3.84,6 3.094,3.156 -0.688,0.688 L 13,12.688 11.457,14.219 H 8.544 L 7,12.688 3.844,15.876 3.156,15.157 6.281,12 2.156,7.844 2.844,7.156 l 0,0 L 9.029,11 h 1.953 L 17.16,7.156 17.848,7.844 13.75,12 z"
   inkscape:connector-curvature="0"
   style="opacity:0.3;fill:#020202" />
<path
   id="path5_17_"
   d="M 17.59,5 2.305,5.021 C 1.695,5.021 1,5.782 1,6.334 v 9.298 c 0,0.731 0.789,1.366 1.453,1.366 h 15.049 c 0.797,0 1.498,-0.68 1.498,-1.376 V 6.463 C 19,5.689 18.311,5 17.59,5 z m -3.84,6 3.094,3.156 -0.688,0.688 L 13,11.688 11.457,13.219 H 8.544 L 7,11.688 3.844,14.876 3.156,14.157 6.281,11 2.156,6.844 2.844,6.156 l 0,0 L 9.029,10 h 1.953 L 17.16,6.156 17.848,6.844 13.75,11 z"
   inkscape:connector-curvature="0"
   style="fill:#dfdbd2" />
<path
   id="path2997_2_"
   enable-background="new    "
   d="M 21.566,19.156 19.9,17.496 21.556,15.834 C 21.23,15.238 20.741,14.752 20.142,14.432 L 18.49,16.09 16.838,14.442 c -0.591,0.322 -1.072,0.811 -1.396,1.396 l 1.666,1.646 -1.674,1.682 c 0.322,0.598 0.812,1.086 1.406,1.41 l 1.686,-1.691 1.688,1.662 c 0.572,-0.332 1.04,-0.809 1.352,-1.391 z"
   inkscape:connector-curvature="0"
   style="opacity:0.3;fill:#020202" />
<linearGradient
   id="path2999_1_"
   gradientUnits="userSpaceOnUse"
   x1="-2498.5674"
   y1="2506.5049"
   x2="-2492.4326"
   y2="2506.5049"
   gradientTransform="matrix(0,-1,1,0,-2488.001,-2478.999)">
	<stop
   offset="0"
   style="stop-color:#676868"
   id="stop3211" />
	<stop
   offset="0.3958"
   style="stop-color:#AAA9A8"
   id="stop3213" />
	<stop
   offset="1"
   style="stop-color:#EAEAEA"
   id="stop3215" />
</linearGradient>
<path
   id="path2999_2_"
   d="M 20.154,13.434 18.495,15.1 16.833,13.444 c -0.597,0.328 -1.082,0.816 -1.401,1.416 l 1.657,1.652 -1.647,1.651 c 0.322,0.591 0.81,1.073 1.396,1.396 l 1.646,-1.666 1.683,1.676 c 0.599,-0.316 1.086,-0.812 1.409,-1.4 l -1.69,-1.688 1.662,-1.688 c -0.334,-0.578 -0.812,-1.046 -1.394,-1.359 z"
   inkscape:connector-curvature="0"
   style="fill:url(#path2999_1_)" />
<radialGradient
   id="path3783_1_"
   cx="3163.4209"
   cy="-3186.666"
   r="4.6171999"
   gradientTransform="matrix(0.8669,0,0,-0.8669,-2723.8706,-2749.0156)"
   gradientUnits="userSpaceOnUse">
	<stop
   offset="0"
   style="stop-color:#FFFFFF"
   id="stop3219" />
	<stop
   offset="1"
   style="stop-color:#FFFFFF;stop-opacity:0"
   id="stop3221" />
</radialGradient>
<path
   id="path3783_2_"
   d="m 16.844,13.438 c -0.596,0.328 -1.086,0.812 -1.406,1.406 l 1.656,1.656 -0.5,0.5 c 0.566,0.309 1.217,0.5 1.906,0.5 0.689,0 1.34,-0.191 1.906,-0.5 l -0.531,-0.531 1.656,-1.688 C 21.205,14.208 20.738,13.75 20.156,13.437 L 18.5,15.091 16.844,13.438 z"
   inkscape:connector-curvature="0"
   style="fill:url(#path3783_1_)" />
</svg>