<?xml version="1.0" encoding="UTF-8" standalone="no"?>
<!-- Generator: Adobe Illustrator 15.0.0, SVG Export Plug-In . SVG Version: 6.00 Build 0)  -->

<svg
   xmlns:dc="http://purl.org/dc/elements/1.1/"
   xmlns:cc="http://creativecommons.org/ns#"
   xmlns:rdf="http://www.w3.org/1999/02/22-rdf-syntax-ns#"
   xmlns:svg="http://www.w3.org/2000/svg"
   xmlns="http://www.w3.org/2000/svg"
   xmlns:xlink="http://www.w3.org/1999/xlink"
   xmlns:sodipodi="http://sodipodi.sourceforge.net/DTD/sodipodi-0.dtd"
   xmlns:inkscape="http://www.inkscape.org/namespaces/inkscape"
   version="1.1"
   id="Layer_1"
   x="0px"
   y="0px"
   width="22"
   height="22"
   viewBox="0 0 22 22"
   enable-background="new 0 0 26 22"
   xml:space="preserve"
   inkscape:version="0.48.3.1 r9886"
   sodipodi:docname="indicator-messages-invisible-new.svg"><metadata
   id="metadata3023"><rdf:RDF><cc:Work
       rdf:about=""><dc:format>image/svg+xml</dc:format><dc:type
         rdf:resource="http://purl.org/dc/dcmitype/StillImage" /><dc:title /></cc:Work></rdf:RDF></metadata><defs
   id="defs3021"><linearGradient
     inkscape:collect="always"
     xlink:href="#path10_1_"
     id="linearGradient3810"
     gradientUnits="userSpaceOnUse"
     gradientTransform="matrix(0,-1,1,0,-2478,-2473)"
     x1="-2490"
     y1="2498"
     x2="-2484"
     y2="2498" /><linearGradient
     inkscape:collect="always"
     xlink:href="#path10_1_"
     id="linearGradient3262"
     gradientUnits="userSpaceOnUse"
     gradientTransform="matrix(0,-1,1,0,-2479,-2471)"
     x1="-2490"
     y1="2498"
     x2="-2484"
     y2="2498" /></defs><sodipodi:namedview
   pagecolor="#ffffff"
   bordercolor="#666666"
   borderopacity="1"
   objecttolerance="10"
   gridtolerance="10"
   guidetolerance="10"
   inkscape:pageopacity="0"
   inkscape:pageshadow="2"
   inkscape:window-width="1535"
   inkscape:window-height="876"
   id="namedview3019"
   showgrid="false"
   inkscape:zoom="30.341309"
   inkscape:cx="13.583208"
   inkscape:cy="12.643038"
   inkscape:window-x="65"
   inkscape:window-y="24"
   inkscape:window-maximized="1"
   inkscape:current-layer="Layer_1" />
<path
   id="path5_14_"
   enable-background="new    "
   d="M 17.59,6 2.305,6.022 C 1.695,6.022 1,6.782 1,7.336 v 9.298 C 1,17.366 1.789,18 2.453,18 H 17.502 C 18.299,18 19,17.322 19,16.624 V 7.465 C 19,6.689 18.311,6 17.59,6 z m -3.84,6 3.094,3.156 -0.688,0.688 L 13,12.688 10.721,15 H 9.283 L 7,12.688 3.844,15.876 3.156,15.157 6.281,12 2.156,7.844 2.844,7.156 l 0,0 L 9.688,14 h 0.599 L 17.162,7.156 17.85,7.844 13.75,12 z"
   inkscape:connector-curvature="0"
   style="opacity:0.3;fill:#020202" />
<path
   id="path5_13_"
   d="M 17.59,5 2.305,5.022 C 1.695,5.022 1,5.782 1,6.336 v 9.298 C 1,16.366 1.789,17 2.453,17 H 17.502 C 18.299,17 19,16.322 19,15.624 V 6.465 C 19,5.689 18.311,5 17.59,5 z m -3.84,6 3.094,3.156 -0.688,0.688 L 13,11.688 10.721,14 H 9.283 L 7,11.688 3.844,14.876 3.156,14.157 6.281,11 2.156,6.844 2.844,6.156 l 0,0 L 9.688,13 h 0.599 L 17.162,6.156 17.85,6.844 13.75,11 z"
   inkscape:connector-curvature="0"
   style="fill:#2eb5e9;fill-opacity:0.95290001" />
<path
   style="opacity:0.3"
   d="m 17,14 c -0.553,0 -1,0.447 -1,1 l 0,4 c 0,0.553 0.447,1 1,1 l 4,0 c 0.553,0 1,-0.447 1,-1 l 0,-4 c 0,-0.553 -0.447,-1 -1,-1 l -4,0 z"
   id="path8_7_"
   inkscape:connector-curvature="0" />
<linearGradient
   id="path10_1_"
   gradientUnits="userSpaceOnUse"
   x1="-2490"
   y1="2498"
   x2="-2484"
   y2="2498"
   gradientTransform="matrix(0,-1,1,0,-2476,-2471)">
	<stop
   offset="0"
   style="stop-color:#676868;stop-opacity:1;"
   id="stop3006" />
	<stop
   offset="1"
   style="stop-color:#eaeaea;stop-opacity:1;"
   id="stop3008" />
</linearGradient>

<radialGradient
   id="path3789_1_"
   cx="2545.4092"
   cy="2404.4443"
   r="3.6299"
   gradientTransform="matrix(1.1033,0,0,1.1033,-2789.3604,-2639.835)"
   gradientUnits="userSpaceOnUse">
	<stop
   offset="0"
   style="stop-color:#FFFFFF"
   id="stop3012" />
	<stop
   offset="0.3958"
   style="stop-color:#FFFFFF;stop-opacity:0.498"
   id="stop3014" />
	<stop
   offset="1"
   style="stop-color:#FFFFFF;stop-opacity:0"
   id="stop3016" />
</radialGradient>

<path
   style="fill:#333333;fill-opacity:1;stroke:none"
   d="m 17,13 c -0.553,0 -1,0.447 -1,1 l 0,4 c 0,0.553 0.447,1 1,1 l 4,0 c 0.553,0 1,-0.447 1,-1 l 0,-4 c 0,-0.553 -0.447,-1 -1,-1 l -4,0 z"
   id="rect3803"
   inkscape:connector-curvature="0" /><path
   style="fill:url(#linearGradient3262)"
   d="m 17,13 c -0.553,0 -1,0.447 -1,1 l 0,4 c 0,0.553 0.447,1 1,1 l 4,0 c 0.553,0 1,-0.447 1,-1 l 0,-4 c 0,-0.553 -0.447,-1 -1,-1 l -4,0 z m 0,1 4,0 0,4 -4,0 0,-4 z"
   id="path10_7_"
   inkscape:connector-curvature="0" /><path
   style="fill:url(#path3789_1_)"
   d="m 17,13 c -0.553,0 -1,0.447 -1,1 l 0,1.65625 c 0.282487,0.319534 0.62828,0.566371 1,0.78125 L 17,14 l 4,0 0,2.4375 c 0.37172,-0.214879 0.717513,-0.461716 1,-0.78125 L 22,14 c 0,-0.553 -0.447,-1 -1,-1 l -4,0 z"
   id="path3789_2_"
   inkscape:connector-curvature="0" /></svg>