<?xml version="1.0" encoding="utf-8"?>
<!-- Generator: Adobe Illustrator 15.0.0, SVG Export Plug-In . SVG Version: 6.00 Build 0)  -->
<!DOCTYPE svg PUBLIC "-//W3C//DTD SVG 1.1//EN" "http://www.w3.org/Graphics/SVG/1.1/DTD/svg11.dtd">
<svg version="1.1" id="Layer_1" xmlns="http://www.w3.org/2000/svg" xmlns:xlink="http://www.w3.org/1999/xlink" x="0px" y="0px"
	 width="26px" height="22px" viewBox="0 0 26 22" enable-background="new 0 0 26 22" xml:space="preserve">
<path id="path3_8_" opacity="0.3" fill="#020202" enable-background="new    " d="M20.59,6L5.305,6.021C4.695,6.021,4,6.782,4,7.336
	v9.298C4,17.366,4.789,18,5.453,18h15.049C21.299,18,22,17.322,22,16.624V7.465C22,6.689,21.311,6,20.59,6z M16.75,12l3.094,3.156
	l-0.688,0.688L16,12.688l-1.543,1.531h-2.913L10,12.688l-3.156,3.188l-0.688-0.719L9.281,12L5.156,7.844l0.688-0.688l0,0L12.029,11
	h1.954l6.178-3.844l0.688,0.688L16.75,12z"/>
<path id="path5_8_" fill="#DFDBD2" d="M20.59,5L5.305,5.021C4.695,5.021,4,5.782,4,6.336v9.298C4,16.366,4.789,17,5.453,17h15.049
	C21.299,17,22,16.322,22,15.624V6.465C22,5.689,21.311,5,20.59,5z M16.75,11l3.094,3.156l-0.688,0.688L16,11.688l-1.543,1.531
	h-2.913L10,11.688l-3.156,3.188l-0.688-0.719L9.281,11L5.156,6.844l0.688-0.688l0,0L12.029,10h1.954l6.178-3.844l0.688,0.688
	L16.75,11z"/>
<circle id="circle5_2_" opacity="0.3" fill="#020202" enable-background="new    " cx="21.5" cy="16.5" r="3.5"/>
<linearGradient id="circle7_1_" gradientUnits="userSpaceOnUse" x1="-2087.9087" y1="2217.9541" x2="-2081.002" y2="2218.0474" gradientTransform="matrix(0 -1 1 0 -2196.5 -2069)">
	<stop  offset="0" style="stop-color:#2E8942"/>
	<stop  offset="1" style="stop-color:#6CBF5A"/>
</linearGradient>
<circle id="circle7_2_" fill="url(#circle7_1_)" cx="21.5" cy="15.5" r="3.5"/>
<radialGradient id="path3798_1_" cx="2263.7295" cy="2025.5" r="3.5929" gradientTransform="matrix(1.1134 0 0 1.1134 -2498.9482 -2242.708)" gradientUnits="userSpaceOnUse">
	<stop  offset="0" style="stop-color:#FFFFFF"/>
	<stop  offset="0.4375" style="stop-color:#FFFFFF;stop-opacity:0.498"/>
	<stop  offset="1" style="stop-color:#FFFFFF;stop-opacity:0"/>
</radialGradient>
<path id="path3798_2_" fill="url(#path3798_1_)" d="M21.5,12c-1.633,0-2.988,1.113-3.375,2.625C18.832,15.754,20.07,16.5,21.5,16.5
	s2.668-0.746,3.375-1.875C24.488,13.113,23.133,12,21.5,12z"/>
</svg>
