<?xml version="1.0" encoding="UTF-8" standalone="no"?>
<!-- Generator: Adobe Illustrator 15.0.0, SVG Export Plug-In . SVG Version: 6.00 Build 0)  -->

<svg
   xmlns:dc="http://purl.org/dc/elements/1.1/"
   xmlns:cc="http://creativecommons.org/ns#"
   xmlns:rdf="http://www.w3.org/1999/02/22-rdf-syntax-ns#"
   xmlns:svg="http://www.w3.org/2000/svg"
   xmlns="http://www.w3.org/2000/svg"
   xmlns:sodipodi="http://sodipodi.sourceforge.net/DTD/sodipodi-0.dtd"
   xmlns:inkscape="http://www.inkscape.org/namespaces/inkscape"
   version="1.1"
   id="Layer_1"
   x="0px"
   y="0px"
   width="22"
   height="22"
   viewBox="0 0 22 22"
   enable-background="new 0 0 26 22"
   xml:space="preserve"
   inkscape:version="0.48.3.1 r9886"
   sodipodi:docname="indicator-messages-mixed-new.svg"><metadata
   id="metadata3047"><rdf:RDF><cc:Work
       rdf:about=""><dc:format>image/svg+xml</dc:format><dc:type
         rdf:resource="http://purl.org/dc/dcmitype/StillImage" /><dc:title /></cc:Work></rdf:RDF></metadata><defs
   id="defs3045" /><sodipodi:namedview
   pagecolor="#ffffff"
   bordercolor="#666666"
   borderopacity="1"
   objecttolerance="10"
   gridtolerance="10"
   guidetolerance="10"
   inkscape:pageopacity="0"
   inkscape:pageshadow="2"
   inkscape:window-width="640"
   inkscape:window-height="480"
   id="namedview3043"
   showgrid="false"
   inkscape:zoom="10.727273"
   inkscape:cx="13"
   inkscape:cy="11"
   inkscape:window-x="101"
   inkscape:window-y="24"
   inkscape:window-maximized="0"
   inkscape:current-layer="Layer_1" />
<path
   id="path5_12_"
   enable-background="new    "
   d="M 17.59,6 2.305,6.022 C 1.695,6.022 1,6.782 1,7.336 v 9.298 C 1,17.366 1.789,18 2.453,18 H 17.502 C 18.299,18 19,17.322 19,16.624 V 7.465 C 19,6.689 18.311,6 17.59,6 z m -3.84,6 3.094,3.156 -0.688,0.688 L 13,12.688 10.721,15 H 9.283 L 7,12.688 3.844,15.876 3.156,15.157 6.281,12 2.156,7.844 2.844,7.156 l 0,0 L 9.688,14 h 0.598 L 17.161,7.156 17.849,7.844 13.75,12 z"
   inkscape:connector-curvature="0"
   style="opacity:0.3;fill:#020202" />
<path
   id="path5_11_"
   d="M 17.59,5 2.305,5.022 C 1.695,5.022 1,5.782 1,6.336 v 9.298 C 1,16.366 1.789,17 2.453,17 H 17.502 C 18.299,17 19,16.322 19,15.624 V 6.465 C 19,5.689 18.311,5 17.59,5 z m -3.84,6 3.094,3.156 -0.688,0.688 L 13,11.688 10.721,14 H 9.283 L 7,11.688 3.844,14.876 3.156,14.157 6.281,11 2.156,6.844 2.844,6.156 l 0,0 L 9.688,13 h 0.598 L 17.161,6.156 17.849,6.844 13.75,11 z"
   inkscape:connector-curvature="0"
   style="fill:#2eb5e9;fill-opacity:0.95290001" />
<path
   id="path8_6_"
   enable-background="new    "
   d="m 15,17.499 c 0,0.537 0.131,1.041 0.348,1.496 l 6.313,-0.017 C 21.873,18.527 22,18.029 22,17.499 22,16.962 21.869,16.46 21.652,16.005 l -6.314,0.019 C 15.127,16.473 15,16.971 15,17.499 z"
   inkscape:connector-curvature="0"
   style="opacity:0.3;fill:#020202" />
<linearGradient
   id="path10_1_"
   gradientUnits="userSpaceOnUse"
   x1="2494.9941"
   y1="-2360.9482"
   x2="2495.0071"
   y2="-2357.916"
   gradientTransform="matrix(1,0,0,-1,-2476.5,-2343)">
	<stop
   offset="0"
   style="stop-color:#676868"
   id="stop3030" />
	<stop
   offset="1"
   style="stop-color:#EAEAEA"
   id="stop3032" />
</linearGradient>
<path
   id="path10_6_"
   d="m 15,16.499 c 0,0.537 0.131,1.041 0.348,1.496 l 6.313,-0.017 C 21.873,17.527 22,17.029 22,16.499 22,15.962 21.869,15.46 21.652,15.005 l -6.314,0.019 C 15.127,15.473 15,15.971 15,16.499 z"
   inkscape:connector-curvature="0"
   style="fill:url(#path10_1_)" />
<radialGradient
   id="path4312_1_"
   cx="2038.7988"
   cy="1796.4443"
   r="3.1975"
   gradientTransform="matrix(1.2512,0,0,1.2512,-2532.4443,-2234.0068)"
   gradientUnits="userSpaceOnUse">
	<stop
   offset="0"
   style="stop-color:#FFFFFF"
   id="stop3036" />
	<stop
   offset="0.3"
   style="stop-color:#FFFFFF;stop-opacity:0.498"
   id="stop3038" />
	<stop
   offset="1"
   style="stop-color:#FFFFFF;stop-opacity:0"
   id="stop3040" />
</radialGradient>
<path
   id="path4312_2_"
   d="m 21.656,15 -6.312,0.031 c -0.109,0.234 -0.191,0.461 -0.25,0.719 0.7,1.161 1.951,1.938 3.406,1.938 1.455,0 2.706,-0.771 3.406,-1.938 -0.06,-0.26 -0.136,-0.514 -0.25,-0.75 z"
   inkscape:connector-curvature="0"
   style="fill:url(#path4312_1_)" />
</svg>