<?xml version="1.0" encoding="UTF-8" standalone="no"?>
<!-- Created with Inkscape (http://www.inkscape.org/) -->
<svg
   xmlns:svg="http://www.w3.org/2000/svg"
   xmlns="http://www.w3.org/2000/svg"
   version="1.0"
   width="22"
   height="22"
   id="svg3229">
  <defs
     id="defs3231" />
  <g
     transform="translate(-1,-1)"
     id="g3196"
     style="opacity:0.4">
    <g
       id="layer1">
      <path
         d="M 4.3050355,6.0221223 C 3.6956293,6.0221223 3,6.7823212 3,7.3363212 L 3,16.634982 C 3,17.36596 3.788896,18 4.4535077,18 L 19.502248,18 C 20.299593,18 21,17.322163 21,16.62392 L 21,7.4645688 C 21,6.68903 20.310739,6 19.590737,6 L 4.3050355,6.0221223 z"
         id="rect3170"
         style="opacity:1;fill:#eae3d0;fill-opacity:1;fill-rule:nonzero;stroke:none;stroke-width:1;stroke-linecap:butt;stroke-linejoin:miter;marker:none;marker-start:none;marker-mid:none;marker-end:none;stroke-miterlimit:4;stroke-dasharray:none;stroke-dashoffset:0;stroke-opacity:1;visibility:visible;display:inline;overflow:visible;enable-background:accumulate" />
      <rect
         width="19"
         height="13"
         rx="2"
         ry="2"
         x="2.5"
         y="5.5"
         id="rect3179"
         style="opacity:0.6;fill:none;fill-opacity:1;fill-rule:nonzero;stroke:#3a3935;stroke-width:1;stroke-linecap:round;stroke-linejoin:miter;marker:none;marker-start:none;marker-mid:none;marker-end:none;stroke-miterlimit:4;stroke-dasharray:none;stroke-dashoffset:0;stroke-opacity:1;visibility:visible;display:inline;overflow:visible;enable-background:accumulate" />
    </g>
    <path
       d="M 4.84375,7.28125 L 4.15625,7.96875 L 8.28125,12.125 L 5.15625,15.28125 L 5.84375,16 L 9,12.8125 L 11.28125,15.125 L 12.71875,15.125 L 15,12.8125 L 18.15625,15.96875 L 18.84375,15.28125 L 15.75,12.125 L 19.84375,7.96875 L 19.15625,7.28125 L 12.28125,14.125 L 11.6875,14.125 L 4.84375,7.28125 z"
       id="path2393"
       style="opacity:1;fill:#3a3835;fill-opacity:1;fill-rule:nonzero;stroke:none;stroke-width:1;stroke-linecap:butt;stroke-linejoin:miter;marker:none;marker-start:none;marker-mid:none;marker-end:none;stroke-miterlimit:4;stroke-dasharray:none;stroke-dashoffset:0;stroke-opacity:1;visibility:visible;display:inline;overflow:visible;enable-background:accumulate" />
  </g>
</svg>
