<?xml version="1.0" encoding="utf-8"?>
<!-- Generator: Adobe Illustrator 15.0.0, SVG Export Plug-In . SVG Version: 6.00 Build 0)  -->
<!DOCTYPE svg PUBLIC "-//W3C//DTD SVG 1.1//EN" "http://www.w3.org/Graphics/SVG/1.1/DTD/svg11.dtd">
<svg version="1.1" id="Layer_1" xmlns="http://www.w3.org/2000/svg" xmlns:xlink="http://www.w3.org/1999/xlink" x="0px" y="0px"
	 width="26px" height="22px" viewBox="0 0 26 22" enable-background="new 0 0 26 22" xml:space="preserve">
<path id="path5_16_" opacity="0.3" fill="#020202" enable-background="new    " d="M20.59,6L5.305,6.022
	C4.695,6.022,4,6.782,4,7.336v9.298C4,17.366,4.789,18,5.453,18h15.049C21.299,18,22,17.322,22,16.624V7.465
	C22,6.689,21.311,6,20.59,6z M16.75,12l3.094,3.156l-0.688,0.688L16,12.688L13.721,15h-1.438L10,12.688l-3.156,3.188l-0.688-0.719
	L9.281,12L5.156,7.844l0.688-0.688l0,0L12.688,14h0.598l6.875-6.844l0.688,0.688L16.75,12z"/>
<path id="path5_15_" fill="#2EB5E9" fill-opacity="0.9529" d="M20.59,5L5.305,5.022C4.695,5.022,4,5.782,4,6.336v9.298
	C4,16.366,4.789,17,5.453,17h15.049C21.299,17,22,16.322,22,15.624V6.465C22,5.689,21.311,5,20.59,5z M16.75,11l3.094,3.156
	l-0.688,0.688L16,11.688L13.721,14h-1.438L10,11.688l-3.156,3.188l-0.688-0.719L9.281,11L5.156,6.844l0.688-0.688l0,0L12.688,13
	h0.598l6.875-6.844l0.688,0.688L16.75,11z"/>
<path id="path8_8_" opacity="0.3" fill="#020202" enable-background="new    " d="M25,20c-0.21-0.479-0.469-1.016-0.773-1.602
	c-0.306-0.59-0.642-1.195-1.004-1.816c-0.363-0.622-0.736-1.236-1.117-1.85c-0.383-0.609-0.756-1.188-1.119-1.732
	c-0.355,0.546-0.729,1.129-1.11,1.75c-0.39,0.621-0.751,1.243-1.104,1.864c-0.354,0.62-0.688,1.228-0.989,1.815
	c-0.312,0.588-0.568,1.109-0.778,1.567L25,20L25,20z"/>
<linearGradient id="path10_1_" gradientUnits="userSpaceOnUse" x1="-2328.9976" y1="2673.9883" x2="-2329.0393" y2="2666.8037" gradientTransform="matrix(-1 0 0 1 -2308 -2655)">
	<stop  offset="0" style="stop-color:#D6942A"/>
	<stop  offset="1" style="stop-color:#F9D507"/>
</linearGradient>
<path id="path10_8_" fill="url(#path10_1_)" d="M17,19c0.21-0.479,0.469-1.016,0.773-1.602c0.306-0.59,0.642-1.195,1.004-1.816
	c0.363-0.622,0.736-1.236,1.117-1.85c0.383-0.609,0.756-1.188,1.119-1.732c0.355,0.546,0.729,1.129,1.11,1.75
	c0.39,0.621,0.751,1.243,1.104,1.864c0.354,0.62,0.688,1.228,0.989,1.815c0.312,0.588,0.568,1.109,0.778,1.567L17,19L17,19z"/>
<radialGradient id="path3767_1_" cx="2519.7891" cy="-2489.3789" r="3.5919" gradientTransform="matrix(1.1134 0 0 -1.1134 -2784.542 -2758.5869)" gradientUnits="userSpaceOnUse">
	<stop  offset="0" style="stop-color:#FFFFFF"/>
	<stop  offset="0.6042" style="stop-color:#FFFFFF;stop-opacity:0.498"/>
	<stop  offset="1" style="stop-color:#FFFFFF;stop-opacity:0"/>
</radialGradient>
<path id="path3767_2_" fill="url(#path3767_1_)" d="M21,12c-0.363,0.545-0.711,1.109-1.094,1.719
	c-0.383,0.613-0.762,1.254-1.125,1.875c-0.117,0.201-0.201,0.396-0.312,0.594c0.689,0.562,1.572,0.906,2.531,0.906
	s1.842-0.344,2.531-0.906c-0.104-0.188-0.174-0.373-0.281-0.562c-0.354-0.621-0.742-1.254-1.125-1.875
	C21.744,13.129,21.361,12.546,21,12z"/>
</svg>
