<?xml version="1.0" encoding="UTF-8" standalone="no"?>
<!-- Generator: Adobe Illustrator 15.0.0, SVG Export Plug-In . SVG Version: 6.00 Build 0)  -->

<svg
   xmlns:dc="http://purl.org/dc/elements/1.1/"
   xmlns:cc="http://creativecommons.org/ns#"
   xmlns:rdf="http://www.w3.org/1999/02/22-rdf-syntax-ns#"
   xmlns:svg="http://www.w3.org/2000/svg"
   xmlns="http://www.w3.org/2000/svg"
   xmlns:sodipodi="http://sodipodi.sourceforge.net/DTD/sodipodi-0.dtd"
   xmlns:inkscape="http://www.inkscape.org/namespaces/inkscape"
   version="1.1"
   id="Layer_1"
   x="0px"
   y="0px"
   width="22"
   height="22"
   viewBox="0 0 22 22"
   enable-background="new 0 0 26 22"
   xml:space="preserve"
   inkscape:version="0.48.3.1 r9886"
   sodipodi:docname="indicator-messages-away.svg"><metadata
   id="metadata3055"><rdf:RDF><cc:Work
       rdf:about=""><dc:format>image/svg+xml</dc:format><dc:type
         rdf:resource="http://purl.org/dc/dcmitype/StillImage" /></cc:Work></rdf:RDF></metadata><defs
   id="defs3053" /><sodipodi:namedview
   pagecolor="#ffffff"
   bordercolor="#666666"
   borderopacity="1"
   objecttolerance="10"
   gridtolerance="10"
   guidetolerance="10"
   inkscape:pageopacity="0"
   inkscape:pageshadow="2"
   inkscape:window-width="640"
   inkscape:window-height="480"
   id="namedview3051"
   showgrid="false"
   inkscape:zoom="10.727273"
   inkscape:cx="13"
   inkscape:cy="11"
   inkscape:window-x="65"
   inkscape:window-y="24"
   inkscape:window-maximized="0"
   inkscape:current-layer="Layer_1" />
<path
   id="path3_6_"
   enable-background="new    "
   d="M 17.59,6 2.305,6.021 C 1.695,6.021 1,6.782 1,7.334 v 9.298 C 1,17.366 1.789,18 2.453,18 H 17.502 C 18.299,18 19,17.322 19,16.624 V 7.465 C 19,6.689 18.311,6 17.59,6 z m -3.84,6 3.094,3.156 -0.688,0.688 L 13,12.688 11.457,14.219 H 8.544 L 7,12.688 3.844,15.876 3.156,15.157 6.281,12 2.156,7.844 2.844,7.156 l 0,0 L 9.029,11 h 1.953 L 17.16,7.156 17.848,7.844 13.75,12 z"
   inkscape:connector-curvature="0"
   style="opacity:0.3;fill:#020202" />
<path
   id="path5_6_"
   d="M 17.59,5 2.305,5.021 C 1.695,5.021 1,5.782 1,6.334 v 9.298 C 1,16.366 1.789,17 2.453,17 H 17.502 C 18.299,17 19,16.322 19,15.624 V 6.465 C 19,5.689 18.311,5 17.59,5 z m -3.84,6 3.094,3.156 -0.688,0.688 L 13,11.688 11.457,13.219 H 8.544 L 7,11.688 3.844,14.876 3.156,14.157 6.281,11 2.156,6.844 2.844,6.156 l 0,0 L 9.029,10 h 1.953 L 17.16,6.156 17.848,6.844 13.75,11 z"
   inkscape:connector-curvature="0"
   style="fill:#dfdbd2" />
<path
   id="path8_5_"
   enable-background="new    "
   d="M 22,20 C 21.79,19.521 21.531,18.984 21.227,18.398 20.921,17.808 20.585,17.203 20.223,16.582 19.86,15.96 19.487,15.346 19.106,14.732 18.723,14.123 18.35,13.544 17.987,13 c -0.355,0.546 -0.729,1.129 -1.11,1.75 -0.39,0.621 -0.751,1.243 -1.104,1.863 -0.354,0.621 -0.688,1.229 -0.989,1.816 -0.312,0.588 -0.568,1.109 -0.778,1.567 L 22,20 l 0,0 z"
   inkscape:connector-curvature="0"
   style="opacity:0.3;fill:#020202" />
<linearGradient
   id="path10_1_"
   gradientUnits="userSpaceOnUse"
   x1="-2330.9976"
   y1="2673.9922"
   x2="-2331.0396"
   y2="2666.8086"
   gradientTransform="matrix(-1,0,0,1,-2313,-2655)">
	<stop
   offset="0"
   style="stop-color:#D6942A"
   id="stop3038" />
	<stop
   offset="1"
   style="stop-color:#F9D507"
   id="stop3040" />
</linearGradient>
<path
   id="path10_5_"
   d="m 14,19 c 0.21,-0.479 0.469,-1.016 0.773,-1.602 0.306,-0.59 0.642,-1.195 1.004,-1.816 0.363,-0.622 0.736,-1.236 1.117,-1.85 0.383,-0.609 0.756,-1.188 1.119,-1.732 0.355,0.546 0.729,1.129 1.11,1.75 0.39,0.621 0.751,1.243 1.104,1.863 0.354,0.621 0.688,1.229 0.989,1.816 0.312,0.588 0.568,1.109 0.778,1.567 L 14,19 l 0,0 z"
   inkscape:connector-curvature="0"
   style="fill:url(#path10_1_)" />
<radialGradient
   id="path3767_2_"
   cx="2519.6865"
   cy="-2489.3774"
   r="3.5915999"
   gradientTransform="matrix(1.1134,0,0,-1.1134,-2787.4287,-2758.5869)"
   gradientUnits="userSpaceOnUse">
	<stop
   offset="0"
   style="stop-color:#FFFFFF"
   id="stop3044" />
	<stop
   offset="0.6042"
   style="stop-color:#FFFFFF;stop-opacity:0.498"
   id="stop3046" />
	<stop
   offset="1"
   style="stop-color:#FFFFFF;stop-opacity:0"
   id="stop3048" />
</radialGradient>
<path
   id="path3767_1_"
   d="m 18,12 c -0.363,0.545 -0.711,1.109 -1.094,1.719 -0.383,0.613 -0.762,1.254 -1.125,1.875 -0.117,0.201 -0.201,0.396 -0.312,0.594 0.689,0.562 1.572,0.906 2.531,0.906 0.959,0 1.842,-0.344 2.531,-0.906 C 20.427,16 20.357,15.815 20.25,15.626 19.896,15.005 19.508,14.372 19.125,13.751 18.744,13.129 18.361,12.546 18,12 z"
   inkscape:connector-curvature="0"
   style="fill:url(#path3767_2_)" />
</svg>