<?xml version="1.0" encoding="UTF-8" standalone="no"?>
<!-- Generator: Adobe Illustrator 15.0.0, SVG Export Plug-In . SVG Version: 6.00 Build 0)  -->

<svg
   xmlns:dc="http://purl.org/dc/elements/1.1/"
   xmlns:cc="http://creativecommons.org/ns#"
   xmlns:rdf="http://www.w3.org/1999/02/22-rdf-syntax-ns#"
   xmlns:svg="http://www.w3.org/2000/svg"
   xmlns="http://www.w3.org/2000/svg"
   xmlns:sodipodi="http://sodipodi.sourceforge.net/DTD/sodipodi-0.dtd"
   xmlns:inkscape="http://www.inkscape.org/namespaces/inkscape"
   version="1.1"
   id="Layer_1"
   x="0px"
   y="0px"
   width="26px"
   height="22px"
   viewBox="0 0 26 22"
   enable-background="new 0 0 26 22"
   xml:space="preserve"
   inkscape:version="0.48.2 r9819"
   sodipodi:docname="indicator-messages-unread-invisible-mono-dark.svg"><metadata
   id="metadata24"><rdf:RDF><cc:Work
       rdf:about=""><dc:format>image/svg+xml</dc:format><dc:type
         rdf:resource="http://purl.org/dc/dcmitype/StillImage" /><dc:title></dc:title></cc:Work></rdf:RDF></metadata><defs
   id="defs22" /><sodipodi:namedview
   pagecolor="#ffffff"
   bordercolor="#666666"
   borderopacity="1"
   objecttolerance="10"
   gridtolerance="10"
   guidetolerance="10"
   inkscape:pageopacity="0"
   inkscape:pageshadow="2"
   inkscape:window-width="640"
   inkscape:window-height="480"
   id="namedview20"
   showgrid="false"
   inkscape:zoom="10.727273"
   inkscape:cx="13"
   inkscape:cy="11"
   inkscape:window-x="11"
   inkscape:window-y="0"
   inkscape:window-maximized="0"
   inkscape:current-layer="Layer_1" />
<path
   id="path3_2_"
   opacity="0.3"
   fill="#020202"
   enable-background="new    "
   d="M20.59,6L5.305,6.021C4.695,6.021,4,6.782,4,7.334  v9.298c0,0.731,0.789,1.366,1.453,1.366h15.049c0.797,0,1.498-0.68,1.498-1.376V7.463C22,6.689,21.311,6,20.59,6z M16.75,12  l3.094,3.156l-0.688,0.688L16,12.688l-1.543,1.531h-2.913L10,12.688l-3.156,3.188l-0.688-0.719L9.281,12L5.156,7.844l0.688-0.688  l0,0L12.029,11h1.953l6.177-3.844l0.688,0.688L16.75,12z" />
<path
   id="path5_2_"
   fill="#DFDBD2"
   d="M20.59,5L5.305,5.021C4.695,5.021,4,5.782,4,6.334v9.298c0,0.731,0.789,1.366,1.453,1.366  h15.049c0.797,0,1.498-0.68,1.498-1.376V6.463C22,5.689,21.311,5,20.59,5z M16.75,11l3.094,3.156l-0.688,0.688L16,11.688  l-1.543,1.531h-2.913L10,11.688l-3.156,3.188l-0.688-0.719L9.281,11L5.156,6.844l0.688-0.688l0,0L12.029,10h1.953l6.177-3.844  l0.688,0.688L16.75,11z" />
<path
   id="path8_1_"
   opacity="0.3"
   fill="#020202"
   enable-background="new    "
   d="M18,17.499c0,0.537,0.131,1.041,0.348,1.496  l6.313-0.017C24.873,18.527,25,18.029,25,17.499c0-0.537-0.131-1.039-0.348-1.494l-6.314,0.019C18.127,16.473,18,16.971,18,17.499z" />
<linearGradient
   id="path10_2_"
   gradientUnits="userSpaceOnUse"
   x1="2775.4951"
   y1="2672.9541"
   x2="2775.5081"
   y2="2669.918"
   gradientTransform="matrix(1 0 0 1 -2754 -2655)">
	<stop
   offset="0"
   style="stop-color:#676868"
   id="stop7" />
	<stop
   offset="1"
   style="stop-color:#EAEAEA"
   id="stop9" />
</linearGradient>
<path
   id="path10_1_"
   fill="url(#path10_2_)"
   d="M18,16.499c0,0.537,0.131,1.041,0.348,1.496l6.313-0.017  C24.873,17.527,25,17.029,25,16.499c0-0.537-0.131-1.039-0.348-1.494l-6.314,0.019C18.127,15.473,18,15.971,18,16.499z" />
<radialGradient
   id="path4312_2_"
   cx="2262.2812"
   cy="-2221.2256"
   r="3.1997"
   gradientTransform="matrix(1.2512 0 0 -1.2512 -2809.0654 -2765.4971)"
   gradientUnits="userSpaceOnUse">
	<stop
   offset="0"
   style="stop-color:#FFFFFF"
   id="stop13" />
	<stop
   offset="0.3"
   style="stop-color:#FFFFFF;stop-opacity:0.498"
   id="stop15" />
	<stop
   offset="1"
   style="stop-color:#FFFFFF;stop-opacity:0"
   id="stop17" />
</radialGradient>
<path
   id="path4312_1_"
   fill="url(#path4312_2_)"
   d="M24.656,15l-6.312,0.031c-0.109,0.234-0.191,0.461-0.25,0.719  c0.7,1.161,1.951,1.938,3.406,1.938s2.706-0.771,3.406-1.938C24.846,15.49,24.77,15.236,24.656,15z" />
</svg>