<?xml version="1.0" encoding="UTF-8" standalone="no"?>
<!-- Created with Inkscape (http://www.inkscape.org/) -->
<svg
   xmlns:svg="http://www.w3.org/2000/svg"
   xmlns="http://www.w3.org/2000/svg"
   version="1.0"
   width="22"
   height="22"
   id="svg3229">
  <defs
     id="defs3231" />
  <path
     d="M 14.15625,5 L 3.3125,5.03125 C 2.7030937,5.0312499 2,5.78975 2,6.34375 L 2,15.625 C 2,16.355978 2.8041383,17 3.46875,17 L 18.5,17 C 19.297344,17 20,16.323243 20,15.625 L 20,9.4375 C 19.410914,9.779142 18.729554,10 18,10 C 17.349554,10 16.730568,9.838346 16.1875,9.5625 L 14.75,11 L 17.84375,14.15625 L 17.15625,14.84375 L 14,11.6875 L 11.71875,14 L 10.28125,14 L 8,11.6875 L 4.84375,14.875 L 4.15625,14.15625 L 7.28125,11 L 3.15625,6.84375 L 3.84375,6.15625 L 10.6875,13 L 11.28125,13 L 15.34375,8.96875 C 14.524277,8.2361016 14,7.1848966 14,6 C 14,5.6542272 14.073642,5.3200848 14.15625,5 z"
     id="path2387"
     style="opacity:1;fill:#eae3d0;fill-opacity:1;fill-rule:nonzero;stroke:none;stroke-width:1;stroke-linecap:butt;stroke-linejoin:miter;marker:none;marker-start:none;marker-mid:none;marker-end:none;stroke-miterlimit:4;stroke-dasharray:none;stroke-dashoffset:0;stroke-opacity:1;visibility:visible;display:inline;overflow:visible;enable-background:accumulate" />
  <path
     d="M 3.84375,6.15625 L 3.15625,6.84375 L 7.28125,11 L 4.15625,14.15625 L 4.84375,14.875 L 8,11.6875 L 10.28125,14 L 11.71875,14 L 14,11.6875 L 17.15625,14.84375 L 17.84375,14.15625 L 14.75,11 L 18.84375,6.84375 L 18.15625,6.15625 L 11.28125,13 L 10.6875,13 L 3.84375,6.15625 z"
     id="rect3170"
     style="opacity:0.6;fill:#3a3835;fill-opacity:1;fill-rule:nonzero;stroke:none;stroke-width:1;stroke-linecap:butt;stroke-linejoin:miter;marker:none;marker-start:none;marker-mid:none;marker-end:none;stroke-miterlimit:4;stroke-dasharray:none;stroke-dashoffset:0;stroke-opacity:1;visibility:visible;display:inline;overflow:visible;enable-background:accumulate" />
  <path
     d="M 3.5,4.5 L 18.5,4.5 C 19.608,4.5 20.5,5.392 20.5,6.5 L 20.5,15.5 C 20.5,16.608 19.608,17.5 18.5,17.5 L 3.5,17.5 C 2.392,17.5 1.5,16.608 1.5,15.5 L 1.5,6.5 C 1.5,5.392 2.392,4.5 3.5,4.5 z M 21.5,5.9999999 C 21.5,7.932 19.932,9.5 18,9.5 C 16.068001,9.5 14.500001,7.932 14.500001,5.9999999 C 14.500001,4.0679999 16.068001,2.4999998 18,2.4999998 C 19.932,2.4999998 21.5,4.0679999 21.5,5.9999999 z"
     id="rect3179"
     style="opacity:0.6;fill:none;fill-opacity:1;fill-rule:nonzero;stroke:#3a3935;stroke-width:1;stroke-linecap:round;stroke-linejoin:miter;marker:none;marker-start:none;marker-mid:none;marker-end:none;stroke-miterlimit:4;stroke-dasharray:none;stroke-dashoffset:0;stroke-opacity:1;visibility:visible;display:inline;overflow:visible;enable-background:accumulate" />
  <path
     d="M 20.999999,5.9999999 C 21.000935,7.6575156 19.657516,9.001694 18,9.001694 C 16.342483,9.001694 14.999064,7.6575156 15,5.9999999 C 14.999064,4.3424843 16.342483,2.9983058 18,2.9983058 C 19.657516,2.9983058 21.000935,4.3424843 20.999999,5.9999999 L 20.999999,5.9999999 z"
     id="path3156"
     style="opacity:1;fill:#58c10c;fill-opacity:1;fill-rule:evenodd;stroke:none;stroke-width:0.53752178;stroke-linecap:round;stroke-linejoin:round;marker:none;marker-start:none;marker-mid:none;marker-end:none;stroke-miterlimit:4;stroke-dasharray:none;stroke-dashoffset:0;stroke-opacity:1;visibility:visible;display:inline;overflow:visible;enable-background:accumulate" />
</svg>
