<?xml version="1.0" encoding="UTF-8" standalone="no"?>
<!-- Created with Inkscape (http://www.inkscape.org/) -->
<svg
   xmlns:svg="http://www.w3.org/2000/svg"
   xmlns="http://www.w3.org/2000/svg"
   version="1.0"
   width="22"
   height="22"
   id="svg3208">
  <defs
     id="defs3210" />
  <g
     transform="translate(-1.0000008,0)"
     id="g2384"
     style="opacity:0.5">
    <path
       d="M 11,15.03125 C 10.023415,15.014949 9.127494,15.829951 9.0415661,16.800982 C 8.9829433,17.380318 9.1611138,18.008415 9.6143608,18.395611 C 9.9616572,18.742907 10.308954,19.090204 10.65625,19.4375 C 10.896864,19.602053 11.133436,19.78986 11.420089,19.873663 C 12.145803,20.123854 12.99291,19.868622 13.490034,19.291216 C 13.8636,18.910526 14.25195,18.542385 14.617537,18.15504 C 15.135693,17.421825 15.075477,16.336414 14.45247,15.681736 C 14.045889,15.22309 13.423293,14.988965 12.81543,15.03125 C 12.210286,15.03125 11.605143,15.03125 11,15.03125 z"
       id="path3205"
       style="opacity:0.6;fill:#43423e;fill-opacity:1;fill-rule:evenodd;stroke:none;stroke-width:1.69999993;stroke-linecap:round;stroke-linejoin:miter;marker:none;marker-start:none;marker-mid:none;marker-end:none;stroke-miterlimit:4;stroke-dasharray:none;stroke-dashoffset:0;stroke-opacity:1;visibility:visible;display:inline;overflow:visible;enable-background:accumulate" />
    <path
       d="M 7.7707898,14.449448 C 7.7707898,14.449448 8.789294,13.158446 11.909768,13.12554 C 14.991339,13.09304 16.170439,14.449448 16.170439,14.449448 M 5.0566111,11.452688 C 5.0566111,11.452688 7.2919827,9.030303 11.980675,9.116488 C 16.708258,9.203388 18.904737,11.491594 18.904737,11.491594 M 2.1991235,8.4137962 C 2.1991235,8.4137962 5.3030062,4.983016 11.980675,4.983016 C 18.625516,4.983016 21.800878,8.4196184 21.800878,8.4196184"
       id="path3192"
       style="opacity:0.6;fill:none;fill-opacity:1;fill-rule:nonzero;stroke:#43423e;stroke-width:3.5;stroke-linecap:round;stroke-linejoin:miter;marker:none;marker-start:none;marker-mid:none;marker-end:none;stroke-miterlimit:4;stroke-dasharray:none;stroke-dashoffset:0;stroke-opacity:1;visibility:visible;display:inline;overflow:visible;enable-background:accumulate" />
    <path
       d="M 7.7707898,14.449448 C 7.7707898,14.449448 8.789294,13.158446 11.909768,13.12554 C 14.991339,13.09304 16.170439,14.449448 16.170439,14.449448 M 5.0566111,11.452688 C 5.0566111,11.452688 7.2919827,9.030303 11.980675,9.116488 C 16.708258,9.203388 18.904737,11.491594 18.904737,11.491594 M 2.1991235,8.4137962 C 2.1991235,8.4137962 5.3030062,4.983016 11.980675,4.983016 C 18.625516,4.983016 21.800878,8.4196184 21.800878,8.4196184"
       id="path3209"
       style="opacity:1;fill:none;fill-opacity:1;fill-rule:nonzero;stroke:#dfd8c8;stroke-width:1.5;stroke-linecap:round;stroke-linejoin:miter;marker:none;marker-start:none;marker-mid:none;marker-end:none;stroke-miterlimit:4;stroke-dasharray:none;stroke-dashoffset:0;stroke-opacity:1;visibility:visible;display:inline;overflow:visible;enable-background:accumulate" />
    <path
       d="M 11,16 C 10.448,16 10,16.448 10,17 C 10,17.205137 10.061871,17.395912 10.167959,17.554668 C 10.167959,17.554668 11.346585,18.756826 11.346585,18.756826 C 11.521881,18.908328 11.7503,19 12,19 C 12.296299,19 12.562634,18.870919 12.7458,18.665961 C 12.7458,18.665961 13.799623,17.600365 13.799623,17.600365 C 13.925419,17.433134 14,17.225224 14,17 C 14,16.448 13.552,16 13,16 C 13,16 11,16 11,16 z"
       id="path3196"
       style="opacity:1;fill:#dfd8c8;fill-opacity:1;fill-rule:evenodd;stroke:none;stroke-width:1.69999993;stroke-linecap:round;stroke-linejoin:miter;marker:none;marker-start:none;marker-mid:none;marker-end:none;stroke-miterlimit:4;stroke-dasharray:none;stroke-dashoffset:0;stroke-opacity:1;visibility:visible;display:inline;overflow:visible;enable-background:accumulate" />
  </g>
  <rect
     width="3.99631"
     height="11.904059"
     x="14"
     y="8.0959406"
     id="rect2950"
     style="opacity:0.4;fill:#43423e;fill-opacity:1;stroke:none" />
  <path
     d="M 14.996309,17 L 16.996309,17 L 16.996309,19 L 14.996309,19 L 14.996309,17 z M 14.996309,9 L 14.996309,14 L 15.496309,16 L 16.496309,16 L 16.996309,14 L 16.996309,9 L 14.996309,9 z"
     id="path3659"
     style="fill:#dc0000;fill-opacity:1;stroke:none" />
</svg>
