<?xml version="1.0" encoding="UTF-8" standalone="no"?>
<!-- Created with Inkscape (http://www.inkscape.org/) -->
<svg
   xmlns:dc="http://purl.org/dc/elements/1.1/"
   xmlns:cc="http://creativecommons.org/ns#"
   xmlns:rdf="http://www.w3.org/1999/02/22-rdf-syntax-ns#"
   xmlns:svg="http://www.w3.org/2000/svg"
   xmlns="http://www.w3.org/2000/svg"
   xmlns:sodipodi="http://sodipodi.sourceforge.net/DTD/sodipodi-0.dtd"
   xmlns:inkscape="http://www.inkscape.org/namespaces/inkscape"
   version="1.0"
   width="22"
   height="22"
   id="svg3208"
   sodipodi:version="0.32"
   inkscape:version="0.46"
   sodipodi:docname="nm-signal-75.svg"
   inkscape:output_extension="org.inkscape.output.svg.inkscape">
  <metadata
     id="metadata14">
    <rdf:RDF>
      <cc:Work
         rdf:about="">
        <dc:format>image/svg+xml</dc:format>
        <dc:type
           rdf:resource="http://purl.org/dc/dcmitype/StillImage" />
      </cc:Work>
    </rdf:RDF>
  </metadata>
  <sodipodi:namedview
     inkscape:window-height="706"
     inkscape:window-width="640"
     inkscape:pageshadow="2"
     inkscape:pageopacity="0.0"
     guidetolerance="10.0"
     gridtolerance="10.0"
     objecttolerance="10.0"
     borderopacity="1.0"
     bordercolor="#666666"
     pagecolor="#ffffff"
     id="base"
     showgrid="false"
     inkscape:zoom="10.375"
     inkscape:cx="12"
     inkscape:cy="12"
     inkscape:window-x="399"
     inkscape:window-y="51"
     inkscape:current-layer="svg3208" />
  <defs
     id="defs3210">
    <inkscape:perspective
       sodipodi:type="inkscape:persp3d"
       inkscape:vp_x="0 : 12 : 1"
       inkscape:vp_y="0 : 1000 : 0"
       inkscape:vp_z="24 : 12 : 1"
       inkscape:persp3d-origin="12 : 8 : 1"
       id="perspective16" />
  </defs>
  <path
     d="M 10.00107,15.061717 C 9.024485,15.045416 8.128564,15.860418 8.0426361,16.831449 C 7.9840133,17.410785 8.1621838,18.038882 8.6154308,18.426078 C 8.9627272,18.773374 9.310024,19.120671 9.65732,19.467967 C 9.897934,19.63252 10.134506,19.820327 10.421159,19.90413 C 11.146873,20.154321 11.99398,19.899089 12.491104,19.321683 C 12.86467,18.940993 13.25302,18.572852 13.618607,18.185507 C 14.136763,17.452292 14.076547,16.366881 13.45354,15.712203 C 13.046959,15.253557 12.424363,15.019432 11.8165,15.061717 C 11.211356,15.061717 10.606213,15.061717 10.00107,15.061717 z"
     id="path3205"
     style="opacity:0.6;fill:#43423e;fill-opacity:1;fill-rule:evenodd;stroke:none;stroke-width:1.69999993;stroke-linecap:round;stroke-linejoin:miter;marker:none;marker-start:none;marker-mid:none;marker-end:none;stroke-miterlimit:4;stroke-dasharray:none;stroke-dashoffset:0;stroke-opacity:1;visibility:visible;display:inline;overflow:visible;enable-background:accumulate" />
  <path
     d="M 6.8001754,14.479915 C 6.8001754,14.479915 7.8186796,13.188913 10.939154,13.156007 C 14.020725,13.123507 15.199825,14.479915 15.199825,14.479915"
     id="path2388"
     style="opacity:0.6;fill:none;fill-opacity:1;fill-rule:nonzero;stroke:#43423e;stroke-width:3.70000005;stroke-linecap:round;stroke-linejoin:miter;marker:none;marker-start:none;marker-mid:none;marker-end:none;stroke-miterlimit:4;stroke-dasharray:none;stroke-dashoffset:0;stroke-opacity:1;visibility:visible;display:inline;overflow:visible;enable-background:accumulate" />
  <path
     d="M 4.0759371,11.483155 C 4.0759371,11.483155 6.3113087,9.0607699 11.000001,9.1469549 C 15.727584,9.2338549 17.924063,11.522061 17.924063,11.522061"
     id="path2386"
     style="opacity:0.6;fill:none;fill-opacity:1;fill-rule:nonzero;stroke:#43423e;stroke-width:3.70000005;stroke-linecap:round;stroke-linejoin:miter;marker:none;marker-start:none;marker-mid:none;marker-end:none;stroke-miterlimit:4;stroke-dasharray:none;stroke-dashoffset:0;stroke-opacity:1;visibility:visible;display:inline;overflow:visible;enable-background:accumulate" />
  <path
     d="M 6.8001754,14.479915 C 6.8001754,14.479915 7.8186796,13.188913 10.939154,13.156007 C 14.020725,13.123507 15.199825,14.479915 15.199825,14.479915"
     id="path2394"
     style="opacity:1;fill:none;fill-opacity:1;fill-rule:nonzero;stroke:#dfd8c8;stroke-width:1.70000005;stroke-linecap:round;stroke-linejoin:miter;marker:none;marker-start:none;marker-mid:none;marker-end:none;stroke-miterlimit:4;stroke-dasharray:none;stroke-dashoffset:0;stroke-opacity:1;visibility:visible;display:inline;overflow:visible;enable-background:accumulate" />
  <path
     d="M 4.0759371,11.483155 C 4.0759371,11.483155 6.3113087,9.0607699 11.000001,9.1469549 C 15.727584,9.2338549 17.924063,11.522061 17.924063,11.522061"
     id="path2392"
     style="opacity:1;fill:none;fill-opacity:1;fill-rule:nonzero;stroke:#dfd8c8;stroke-width:1.70000005;stroke-linecap:round;stroke-linejoin:miter;marker:none;marker-start:none;marker-mid:none;marker-end:none;stroke-miterlimit:4;stroke-dasharray:none;stroke-dashoffset:0;stroke-opacity:1;visibility:visible;display:inline;overflow:visible;enable-background:accumulate" />
  <g
     id="g2396"
     style="opacity:0.4"
     transform="translate(-1.0000008,-0.9695331)">
    <path
       d="M 2.1991235,9.4137962 C 2.1991235,9.4137962 5.3030062,5.983016 11.980675,5.983016 C 18.625516,5.983016 21.800878,9.4196184 21.800878,9.4196184"
       id="path3192"
       style="opacity:0.6;fill:none;fill-opacity:1;fill-rule:nonzero;stroke:#43423e;stroke-width:3.70000005;stroke-linecap:round;stroke-linejoin:miter;marker:none;marker-start:none;marker-mid:none;marker-end:none;stroke-miterlimit:4;stroke-dasharray:none;stroke-dashoffset:0;stroke-opacity:1;visibility:visible;display:inline;overflow:visible;enable-background:accumulate" />
    <path
       d="M 2.1991235,9.4137962 C 2.1991235,9.4137962 5.3030062,5.983016 11.980675,5.983016 C 18.625516,5.983016 21.800878,9.4196184 21.800878,9.4196184"
       id="path3209"
       style="opacity:1;fill:none;fill-opacity:1;fill-rule:nonzero;stroke:#dfd8c8;stroke-width:1.70000005;stroke-linecap:round;stroke-linejoin:miter;marker:none;marker-start:none;marker-mid:none;marker-end:none;stroke-miterlimit:4;stroke-dasharray:none;stroke-dashoffset:0;stroke-opacity:1;visibility:visible;display:inline;overflow:visible;enable-background:accumulate" />
  </g>
  <path
     d="M 10,16.030467 C 9.448,16.030467 9,16.478467 9,17.030467 C 9,17.235604 9.061871,17.426379 9.167959,17.585135 C 9.167959,17.585135 10.346585,18.787293 10.346585,18.787293 C 10.521881,18.938795 10.7503,19.030467 11,19.030467 C 11.296299,19.030467 11.562634,18.901386 11.7458,18.696428 C 11.7458,18.696428 12.799623,17.630832 12.799623,17.630832 C 12.925419,17.463601 13,17.255691 13,17.030467 C 13,16.478467 12.552,16.030467 12,16.030467 C 12,16.030467 10,16.030467 10,16.030467 z"
     id="path3196"
     style="opacity:1;fill:#dfd8c8;fill-opacity:1;fill-rule:evenodd;stroke:none;stroke-width:1.69999993;stroke-linecap:round;stroke-linejoin:miter;marker:none;marker-start:none;marker-mid:none;marker-end:none;stroke-miterlimit:4;stroke-dasharray:none;stroke-dashoffset:0;stroke-opacity:1;visibility:visible;display:inline;overflow:visible;enable-background:accumulate" />
</svg>
