<?xml version="1.0" encoding="UTF-8" standalone="no"?>
<!-- Created with Inkscape (http://www.inkscape.org/) -->

<svg
   xmlns:dc="http://purl.org/dc/elements/1.1/"
   xmlns:cc="http://creativecommons.org/ns#"
   xmlns:rdf="http://www.w3.org/1999/02/22-rdf-syntax-ns#"
   xmlns:svg="http://www.w3.org/2000/svg"
   xmlns="http://www.w3.org/2000/svg"
   xmlns:sodipodi="http://sodipodi.sourceforge.net/DTD/sodipodi-0.dtd"
   xmlns:inkscape="http://www.inkscape.org/namespaces/inkscape"
   id="svg3215"
   height="22"
   width="22"
   version="1.0"
   inkscape:version="0.48.3.1 r9886"
   sodipodi:docname="ubuntuone-client-paused.svg">
  <defs
     id="defs8" />
  <sodipodi:namedview
     pagecolor="#ffffff"
     bordercolor="#666666"
     borderopacity="1"
     objecttolerance="10"
     gridtolerance="10"
     guidetolerance="10"
     inkscape:pageopacity="0"
     inkscape:pageshadow="2"
     inkscape:window-width="1920"
     inkscape:window-height="1030"
     id="namedview6"
     showgrid="false"
     inkscape:zoom="13.954545"
     inkscape:cx="-0.53745928"
     inkscape:cy="11"
     inkscape:window-x="0"
     inkscape:window-y="22"
     inkscape:window-maximized="1"
     inkscape:current-layer="svg3215" />
  <metadata
     id="metadata8">
    <rdf:RDF>
      <cc:Work
         rdf:about="">
        <dc:format>image/svg+xml</dc:format>
        <dc:type
           rdf:resource="http://purl.org/dc/dcmitype/StillImage" />
        <dc:title />
      </cc:Work>
    </rdf:RDF>
  </metadata>
  <path
     id="path3766"
     d="M 12.5,5 C 10.811,5 9.36325,6.06245 8.59375,7.59375 8.16055,7.23325 7.6072,7 7,7 5.62,7 4.5,8.12 4.5,9.5 4.5,9.8099 4.55305,10.101 4.65625,10.375 3.08675,11.076 2,12.664 2,14.5 2,16.993 4.007,19 6.5,19 l 9,0 C 17.993,19 20,16.993 20,14.5 20,12.525 18.73175,10.859 16.96875,10.25 16.97275,10.1646 17,10.0865 17,10 17,7.24 14.984,5 12.5,5 z m -4.5,5 2,0 0,6 -2,0 0,-6 z m 4,0 2,0 0,6 -2,0 0,-6 z"
     style="fill:#000000;fill-rule:evenodd;opacity:0.3"
     inkscape:connector-curvature="0" />
  <path
     style="fill-rule:evenodd;fill:#dfdbd2"
     d="M 12.5 4 C 10.811 4 9.36325 5.06245 8.59375 6.59375 C 8.16055 6.23325 7.6072 6 7 6 C 5.62 6 4.5 7.12 4.5 8.5 C 4.5 8.8099 4.55305 9.101 4.65625 9.375 C 3.08675 10.076 2 11.664 2 13.5 C 2 15.993 4.007 18 6.5 18 L 15.5 18 C 17.993 18 20 15.993 20 13.5 C 20 11.525 18.73175 9.859 16.96875 9.25 C 16.97275 9.1646 17 9.0865 17 9 C 17 6.24 14.984 4 12.5 4 z M 8 9 L 10 9 L 10 15 L 8 15 L 8 9 z M 12 9 L 14 9 L 14 15 L 12 15 L 12 9 z "
     id="rect3193" />
</svg>
