<?xml version="1.0" encoding="UTF-8" standalone="no"?>
<!-- Created with Inkscape (http://www.inkscape.org/) -->
<svg
   xmlns:dc="http://purl.org/dc/elements/1.1/"
   xmlns:cc="http://creativecommons.org/ns#"
   xmlns:rdf="http://www.w3.org/1999/02/22-rdf-syntax-ns#"
   xmlns:svg="http://www.w3.org/2000/svg"
   xmlns="http://www.w3.org/2000/svg"
   xmlns:sodipodi="http://sodipodi.sourceforge.net/DTD/sodipodi-0.dtd"
   xmlns:inkscape="http://www.inkscape.org/namespaces/inkscape"
   version="1.0"
   width="22"
   height="22"
   id="svg2403"
   sodipodi:version="0.32"
   inkscape:version="0.46"
   sodipodi:docname="ubuntuone-client-error.svg"
   inkscape:output_extension="org.inkscape.output.svg.inkscape">
  <metadata
     id="metadata8">
    <rdf:RDF>
      <cc:Work
         rdf:about="">
        <dc:format>image/svg+xml</dc:format>
        <dc:type
           rdf:resource="http://purl.org/dc/dcmitype/StillImage" />
      </cc:Work>
    </rdf:RDF>
  </metadata>
  <sodipodi:namedview
     inkscape:window-height="706"
     inkscape:window-width="640"
     inkscape:pageshadow="2"
     inkscape:pageopacity="0.0"
     guidetolerance="10.0"
     gridtolerance="10.0"
     objecttolerance="10.0"
     borderopacity="1.0"
     bordercolor="#666666"
     pagecolor="#ffffff"
     id="base"
     showgrid="false"
     inkscape:zoom="10.375"
     inkscape:cx="7.4988154"
     inkscape:cy="12"
     inkscape:window-x="399"
     inkscape:window-y="51"
     inkscape:current-layer="svg2403" />
  <defs
     id="defs2405">
    <inkscape:perspective
       sodipodi:type="inkscape:persp3d"
       inkscape:vp_x="0 : 12 : 1"
       inkscape:vp_y="0 : 1000 : 0"
       inkscape:vp_z="24 : 12 : 1"
       inkscape:persp3d-origin="12 : 8 : 1"
       id="perspective10" />
  </defs>
  <path
     style="fill:#dc0000;fill-opacity:1;fill-rule:evenodd;stroke:none;stroke-width:1.69999993;stroke-linecap:round;stroke-linejoin:miter;marker:none;marker-start:none;marker-mid:none;marker-end:none;stroke-miterlimit:4;stroke-dasharray:none;stroke-dashoffset:0;stroke-opacity:1;visibility:visible;display:inline;overflow:visible;enable-background:accumulate"
     id="rect3193"
     d="M 12.497397,3.9865526 C 10.807941,3.9865526 9.3605929,5.0490727 8.5911469,6.5803026 C 8.1578772,6.2198969 7.6045969,5.9865527 6.9973969,5.9865526 C 5.617397,5.9865526 4.497397,7.1065528 4.4973969,8.4865526 C 4.4973969,8.79648 4.5504066,9.0875953 4.6536469,9.3615523 C 3.0841392,10.062832 1.9973969,11.650584 1.9973969,13.486552 C 1.9973969,15.979552 4.0043969,17.986552 6.4973969,17.986552 L 15.497397,17.986552 C 17.990397,17.986552 19.997397,15.979552 19.997397,13.486552 C 19.997397,11.511879 18.728667,9.8455193 16.966147,9.2365523 C 16.97006,9.1511263 16.997397,9.0730533 16.997397,8.9865526 C 16.997397,6.2265526 14.981397,3.9865526 12.497397,3.9865526 z M 10.997397,6.9865526 C 11.551397,6.9865526 11.997397,7.4325526 11.997397,7.9865526 L 11.997397,12.986552 C 11.997397,13.540552 11.551397,13.986552 10.997397,13.986552 C 10.443397,13.986552 9.9973969,13.540552 9.9973969,12.986552 L 9.9973969,7.9865526 C 9.9973969,7.4325526 10.443397,6.9865526 10.997397,6.9865526 z M 10.497397,14.986552 L 10.997397,14.986552 L 11.497397,14.986552 C 11.774397,14.986552 11.997397,15.209552 11.997397,15.486552 L 11.997397,15.986552 L 11.997397,16.486552 C 11.997397,16.763552 11.774397,16.986552 11.497397,16.986552 L 10.997397,16.986552 L 10.497397,16.986552 C 10.220397,16.986552 9.9973969,16.763552 9.9973969,16.486552 L 9.9973969,15.986552 L 9.9973969,15.486552 C 9.9973969,15.209552 10.220397,14.986552 10.497397,14.986552 z" />
  <path
     style="opacity:0.6;fill:none;fill-opacity:1;fill-rule:nonzero;stroke:#3a3935;stroke-width:0.99999994;stroke-linecap:round;stroke-linejoin:miter;marker:none;marker-start:none;marker-mid:none;marker-end:none;stroke-miterlimit:4;stroke-dasharray:none;stroke-dashoffset:0;stroke-opacity:1;visibility:visible;display:inline;overflow:visible;enable-background:accumulate"
     id="path3203"
     d="M 12.497397,3.4865526 C 10.821011,3.4681694 9.2836169,4.5210213 8.4348969,5.9240526 C 6.9381419,4.901249 4.7395395,5.7943515 4.1809223,7.4603598 C 3.7243904,8.2471628 4.5287463,9.2846233 3.4348038,9.5950803 C 1.5622183,10.968885 0.94391695,13.717814 2.0456852,15.759752 C 2.9289165,17.543365 4.932622,18.635 6.9071969,18.486552 C 9.8984229,18.477169 12.890585,18.505555 15.881212,18.471929 C 18.360862,18.332859 20.484994,16.099636 20.495759,13.615289 C 20.578692,11.641726 19.290897,9.7601713 17.497397,8.9865526 C 17.551421,6.4608386 15.720212,3.8768416 13.13507,3.5311198 C 12.923904,3.5013616 12.710646,3.4865402 12.497397,3.4865526 z" />
</svg>
