<?xml version="1.0" encoding="UTF-8" standalone="no"?>
<!-- Created with Inkscape (http://www.inkscape.org/) -->

<svg
   xmlns:dc="http://purl.org/dc/elements/1.1/"
   xmlns:cc="http://creativecommons.org/ns#"
   xmlns:rdf="http://www.w3.org/1999/02/22-rdf-syntax-ns#"
   xmlns:svg="http://www.w3.org/2000/svg"
   xmlns="http://www.w3.org/2000/svg"
   xmlns:sodipodi="http://sodipodi.sourceforge.net/DTD/sodipodi-0.dtd"
   xmlns:inkscape="http://www.inkscape.org/namespaces/inkscape"
   version="1.0"
   width="22"
   height="22"
   id="svg2467"
   sodipodi:version="0.32"
   inkscape:version="0.48.0 r9654"
   sodipodi:docname="ubuntuone-client-updating.svg"
   inkscape:output_extension="org.inkscape.output.svg.inkscape">
  <metadata
     id="metadata8">
    <rdf:RDF>
      <cc:Work
         rdf:about="">
        <dc:format>image/svg+xml</dc:format>
        <dc:type
           rdf:resource="http://purl.org/dc/dcmitype/StillImage" />
        <dc:title></dc:title>
      </cc:Work>
    </rdf:RDF>
  </metadata>
  <sodipodi:namedview
     inkscape:window-height="753"
     inkscape:window-width="1280"
     inkscape:pageshadow="2"
     inkscape:pageopacity="0.0"
     guidetolerance="10.0"
     gridtolerance="10.0"
     objecttolerance="10.0"
     borderopacity="1.0"
     bordercolor="#666666"
     pagecolor="#ffffff"
     id="base"
     showgrid="false"
     inkscape:zoom="10.375"
     inkscape:cx="-10.120482"
     inkscape:cy="12"
     inkscape:window-x="0"
     inkscape:window-y="24"
     inkscape:current-layer="svg2467"
     inkscape:window-maximized="1" />
  <defs
     id="defs2469" />
  <path
     inkscape:connector-curvature="0"
     style="fill:#000000;fill-opacity:1;fill-rule:evenodd;stroke:none;stroke-width:4;marker:none;visibility:visible;display:inline;overflow:visible;enable-background:accumulate;opacity:0.3"
     id="rect3193-52"
     d="m 12.497397,5 c -1.689456,1e-7 -3.1368041,1.0625201 -3.9062501,2.59375 C 8.1578772,7.2333444 7.6045969,7.0000001 6.9973969,7 c -1.3799999,1e-7 -2.4999999,1.1200002 -2.5,2.5 0,0.309927 0.05301,0.601043 0.15625,0.875 -1.5695077,0.70128 -2.65625,2.289032 -2.65625,4.125 0,2.493 2.007,4.5 4.5,4.5 l 9.0000001,0 c 2.493,0 4.5,-2.007 4.5,-4.5 0,-1.974673 -1.26873,-3.641033 -3.03125,-4.25 0.0039,-0.08543 0.03125,-0.163499 0.03125,-0.25 0,-2.7600004 -2.016,-5 -4.5,-5 z m -1.5,4 c 1.482632,-2e-7 2.412772,0.5582913 3,1.25 l 0,-1.25 1,0 0,2 0,1 -1,0 -2,0 0,-1 1.3125,0 c -0.435352,-0.556717 -1.142452,-1 -2.3125,-1 -3.0000001,-2e-7 -3.0000001,3 -3.0000001,3 l -1,0 c 0,0 0,-4.0000004 4.0000001,-4 z m 3,4 1,0 c 0,0 0,4 -4,4 -1.4826321,0 -2.4127721,-0.558291 -3.0000001,-1.25 l 0,1.25 -1,0 0,-2 0,-1 1,0 2,0 0,1 -1.3125,0 c 0.435352,0.556717 1.142452,1 2.3125001,1 3,0 3,-3 3,-3 z" />
  <path
     inkscape:connector-curvature="0"
     style="fill:#dfdbd2;fill-opacity:1;fill-rule:evenodd;stroke:none;stroke-width:4;marker:none;visibility:visible;display:inline;overflow:visible;enable-background:accumulate"
     id="rect3193"
     d="m 12.497397,3.9870003 c -1.689456,10e-8 -3.1368041,1.0625201 -3.9062501,2.59375 -0.4332697,-0.3604056 -0.98655,-0.5937499 -1.59375,-0.59375 -1.3799999,1e-7 -2.4999999,1.1200002 -2.5,2.5 0,0.309927 0.05301,0.601043 0.15625,0.875 -1.5695077,0.7012797 -2.65625,2.2890317 -2.65625,4.1249997 0,2.493 2.007,4.5 4.5,4.5 l 9.0000001,0 c 2.493,0 4.5,-2.007 4.5,-4.5 0,-1.974673 -1.26873,-3.6410327 -3.03125,-4.2499997 0.0039,-0.085426 0.03125,-0.163499 0.03125,-0.25 0,-2.7600004 -2.016,-5 -4.5,-5 z m -1.5,4 c 1.482632,-2e-7 2.412772,0.5582913 3,1.25 l 0,-1.25 1,0 0,2 0,0.9999997 -1,0 -2,0 0,-0.9999997 1.3125,0 c -0.435352,-0.556717 -1.142452,-1 -2.3125,-1 C 7.9973969,8.9870001 7.9973969,11.987 7.9973969,11.987 l -1,0 c 0,0 0,-4.0000001 4.0000001,-3.9999997 z m 3,3.9999997 1,0 c 0,0 0,4 -4,4 -1.4826321,0 -2.4127721,-0.558291 -3.0000001,-1.25 l 0,1.25 -1,0 0,-2 0,-1 1,0 2,0 0,1 -1.3125,0 c 0.435352,0.556717 1.142452,1 2.3125001,1 3,0 3,-3 3,-3 z" />
</svg>
