<?xml version="1.0" encoding="UTF-8" standalone="no"?>
<!-- Created with Inkscape (http://www.inkscape.org/) -->

<svg
   xmlns:dc="http://purl.org/dc/elements/1.1/"
   xmlns:cc="http://creativecommons.org/ns#"
   xmlns:rdf="http://www.w3.org/1999/02/22-rdf-syntax-ns#"
   xmlns:svg="http://www.w3.org/2000/svg"
   xmlns="http://www.w3.org/2000/svg"
   version="1.0"
   width="22"
   height="22"
   id="svg3215">
  <metadata
     id="metadata8">
    <rdf:RDF>
      <cc:Work
         rdf:about="">
        <dc:format>image/svg+xml</dc:format>
        <dc:type
           rdf:resource="http://purl.org/dc/dcmitype/StillImage" />
        <dc:title></dc:title>
      </cc:Work>
    </rdf:RDF>
  </metadata>
  <defs
     id="defs3217" />
  <path
     d="m 12.497397,5.000001 c -1.689456,0 -3.1368041,1.0625201 -3.9062501,2.59375 -0.4332697,-0.3604057 -0.98655,-0.5937499 -1.59375,-0.59375 -1.3799999,0 -2.4999999,1.1200002 -2.5,2.5 0,0.3099274 0.05301,0.601043 0.15625,0.875 -1.5695077,0.701279 -2.65625,2.289031 -2.65625,4.124999 0,2.493 2.007,4.5 4.5,4.5 l 9.0000001,0 c 2.493,0 4.5,-2.007 4.5,-4.5 0,-1.974673 -1.26873,-3.641032 -3.03125,-4.249999 0.0039,-0.08543 0.03125,-0.163499 0.03125,-0.25 0,-2.76 -2.016,-5 -4.5,-5 z m -1.5,3 c 0.554,0 1,0.446 1,1 l 0,4.999999 c 0,0.554 -0.446,1 -1,1 -0.554,0 -1.0000001,-0.446 -1.0000001,-1 l 0,-4.999999 c 0,-0.554 0.4460001,-1 1.0000001,-1 z m -0.5,7.999999 0.5,0 0.5,0 c 0.277,0 0.5,0.223 0.5,0.5 l 0,0.5 0,0.5 c 0,0.277 -0.223,0.5 -0.5,0.5 l -0.5,0 -0.5,0 c -0.277,0 -0.5000001,-0.223 -0.5000001,-0.5 l 0,-0.5 0,-0.5 c 0,-0.277 0.2230001,-0.5 0.5000001,-0.5 z"
     id="rect3193-5"
     style="opacity:0.3;fill:#000000;fill-opacity:1;fill-rule:evenodd;stroke:none;stroke-width:1.69999993;marker:none;visibility:visible;display:inline;overflow:visible;enable-background:accumulate" />
  <path
     d="m 12.497397,3.9995526 c -1.689456,0 -3.1368041,1.0625201 -3.9062501,2.59375 -0.4332697,-0.3604057 -0.98655,-0.5937499 -1.59375,-0.59375 -1.3799999,0 -2.4999999,1.1200002 -2.5,2.5 0,0.3099274 0.05301,0.6010427 0.15625,0.8749997 -1.5695077,0.7012797 -2.65625,2.2890317 -2.65625,4.1249997 0,2.493 2.007,4.5 4.5,4.5 l 9.0000001,0 c 2.493,0 4.5,-2.007 4.5,-4.5 0,-1.974673 -1.26873,-3.6410327 -3.03125,-4.2499997 0.0039,-0.085426 0.03125,-0.163499 0.03125,-0.2499997 0,-2.76 -2.016,-5 -4.5,-5 z m -1.5,3 c 0.554,0 1,0.446 1,1 l 0,4.9999994 c 0,0.554 -0.446,1 -1,1 -0.554,0 -1.0000001,-0.446 -1.0000001,-1 l 0,-4.9999994 c 0,-0.554 0.4460001,-1 1.0000001,-1 z m -0.5,7.9999994 0.5,0 0.5,0 c 0.277,0 0.5,0.223 0.5,0.5 l 0,0.5 0,0.5 c 0,0.277 -0.223,0.5 -0.5,0.5 l -0.5,0 -0.5,0 c -0.277,0 -0.5000001,-0.223 -0.5000001,-0.5 l 0,-0.5 0,-0.5 c 0,-0.277 0.2230001,-0.5 0.5000001,-0.5 z"
     id="rect3193"
     style="fill:#dfdbd2;fill-opacity:1;fill-rule:evenodd;stroke:none;stroke-width:1.69999993;marker:none;visibility:visible;display:inline;overflow:visible;enable-background:accumulate" />
</svg>
