<?xml version="1.0" encoding="UTF-8" standalone="no"?>
<!-- Created with Inkscape (http://www.inkscape.org/) -->

<svg
   xmlns:svg="http://www.w3.org/2000/svg"
   xmlns="http://www.w3.org/2000/svg"
   version="1.0"
   width="22"
   height="22"
   id="svg2816"
   style="display:inline">
  <defs
     id="defs2818" />
  <path
     d="M 10.5,3 C 5.8201419,3 2.0000001,6.8201419 2,11.5 c 0,4.679858 3.820142,8.5 8.5,8.5 2.036607,0 3.879002,-0.801057 5.34375,-2 L 21,18 c 0.412848,0.01209 0.778153,-0.243952 0.9375,-0.625 0.159348,-0.381049 0.0798,-0.808344 -0.21875,-1.09375 l -3,-3 C 18.853483,12.705488 19,12.139671 19,11.5 19,6.8201419 15.179858,3.0000001 10.5,3 z m 0,2 c 2.484,0 6.5,4.016 6.5,6.5 0,0.979802 0.909191,2.383963 0,3.5 -1.395796,1.713347 -4.995802,3 -6.5,3 C 8.016,18 4,13.984 4,11.5 4,9.016 8.016,5 10.5,5 z"
     id="path3162"
     style="opacity:0.6;fill:#3a3935;fill-opacity:1;fill-rule:evenodd;stroke:none;stroke-width:1.69999993;marker:none;visibility:visible;display:inline;overflow:visible;enable-background:accumulate" />
  <path
     d="M 10.5,4 C 6.36,4 3.0000001,7.3599999 3,11.5 c 0,4.14 3.3600001,7.5 7.5,7.5 1.964788,0 3.756106,-0.76222 5.09375,-2 L 21,17 17.65625,13.65625 C 17.864192,12.968633 18,12.255184 18,11.5 18,7.36 14.64,4.0000001 10.5,4 z m 0,2 C 14,6 16,8 16,11.5 16,12.071386 15.9467,12.602795 15.842266,13.092051 17,15 17,16 14.477991,15.644704 13.543166,16.5292 12.198133,17 10.5,17 7,17 5,15 5,11.5 5,8 7,6 10.5,6 z"
     id="path2396"
     style="fill:#eae3d1;fill-opacity:1;fill-rule:evenodd;stroke:none;stroke-width:1;marker:none;visibility:visible;display:inline;overflow:visible;enable-background:accumulate" />
  <path
     d="m 15.75,11.499 c 1.3e-4,0.762933 -0.198724,1.554868 -0.29896,1.844327 -0.167916,0.484905 1.38166,0.573023 0.883561,1.823973 -0.669202,0.414449 -1.693609,0.02732 -1.876636,0.218802 C 13.42357,16.468284 11.71901,16.714213 10.499999,16.75 7.6506069,16.83365 5.249602,15.101245 5.25,11.499 5.334601,7.8326996 7.3307985,6.2509506 10.499999,6.249 c 2.682092,-0.0017 5.2504,1.3968046 5.250001,5.25 z"
     id="path3208"
     style="opacity:0.3;fill:none;stroke:#ffffff;stroke-width:0.5;stroke-linecap:round;stroke-linejoin:miter;stroke-miterlimit:4;stroke-opacity:1;stroke-dasharray:none;stroke-dashoffset:0;marker:none;visibility:visible;display:inline;overflow:visible;enable-background:accumulate" />
</svg>
