<?xml version="1.0" encoding="UTF-8" standalone="no"?>
<!-- Created with Inkscape (http://www.inkscape.org/) -->
<svg
   xmlns:svg="http://www.w3.org/2000/svg"
   xmlns="http://www.w3.org/2000/svg"
   version="1.0"
   width="22"
   height="22"
   id="svg2816"
   style="display:inline">
  <defs
     id="defs2818" />
  <path
     d="M 12.5,3.0315 C 9.951764,3.0315 7.6352076,3.8031059 5.90625,5.12525 C 4.1772924,6.4473941 3.0312499,8.3604148 3.03125,10.50025 C 3.03125,10.936671 3.1279529,11.323407 3.21875,11.719 L 0.375,14.1565 C 0.070480924,14.417743 -0.043511926,14.83852 0.087495501,15.217752 C 0.21850293,15.596984 0.56791211,15.857676 0.96875,15.87525 L 6.1875,15.969 C 7.8895944,17.191836 10.05847,17.969 12.5,17.969 C 15.048236,17.969 17.364792,17.197394 19.09375,15.87525 C 20.822708,14.553106 21.968751,12.640086 21.96875,10.50025 C 21.96875,8.3604147 20.822708,6.4473941 19.09375,5.12525 C 17.364792,3.8031059 15.048236,3.0314999 12.5,3.0315 z"
     id="path3189"
     style="opacity:0.6;fill:#43423e;fill-opacity:1;fill-rule:evenodd;stroke:none;stroke-width:1.69999993;stroke-linecap:round;stroke-linejoin:miter;marker:none;marker-start:none;marker-mid:none;marker-end:none;stroke-miterlimit:4;stroke-dasharray:none;stroke-dashoffset:0;stroke-opacity:1;visibility:visible;display:inline;overflow:visible;enable-background:accumulate" />
  <path
     d="M 12.5,4.00025 C 7.8079998,4.00025 3.9999999,6.9122503 4,10.50025 C 4,11.050588 4.1126247,11.583538 4.28125,12.094 L 1,14.9065 L 6.375,15.00025 C 7.9221381,16.23242 10.091504,17.00025 12.5,17.00025 C 17.192,17.00025 21.000001,14.08825 21,10.50025 C 21,6.9122501 17.192,4.0002499 12.5,4.00025 z"
     id="path2396"
     style="opacity:1;fill:#dfd8c8;fill-opacity:1;fill-rule:evenodd;stroke:none;stroke-width:1.69999993;stroke-linecap:round;stroke-linejoin:miter;marker:none;marker-start:none;marker-mid:none;marker-end:none;stroke-miterlimit:4;stroke-dasharray:none;stroke-dashoffset:0;stroke-opacity:1;visibility:visible;display:inline;overflow:visible;enable-background:accumulate" />
</svg>
