<?xml version="1.0" encoding="UTF-8" standalone="no"?>
<!-- Created with Inkscape (http://www.inkscape.org/) -->
<svg
   xmlns:svg="http://www.w3.org/2000/svg"
   xmlns="http://www.w3.org/2000/svg"
   version="1.0"
   width="22"
   height="22"
   id="svg2816"
   style="display:inline">
  <defs
     id="defs2818" />
  <path
     d="M 9.633508,4 C 11.956963,4 14.069175,4.7748344 15.645621,6.1025105 C 17.222067,7.4301865 18.267017,9.351211 18.267017,11.5 C 18.267017,11.938247 18.178844,12.326601 18.096056,12.723849 L 20.688958,15.171548 C 20.966615,15.433884 21.070552,15.856422 20.9511,16.237241 C 20.83165,16.618059 20.513062,16.879842 20.147582,16.89749 L 15.38918,16.991632 C 13.837228,18.219584 11.85967,19 9.633508,19 C 7.310053,19 5.1978412,18.225166 3.6213952,16.89749 C 2.0449492,15.569814 0.9999991,13.648789 1,11.5 C 1,9.351211 2.0449492,7.4301865 3.6213952,6.1025105 C 5.1978412,4.7748344 7.310053,3.9999999 9.633508,4 z"
     id="path3189"
     style="opacity:0.6;fill:#3a3935;fill-opacity:1;fill-rule:evenodd;stroke:none;stroke-width:1.69999993;stroke-linecap:round;stroke-linejoin:miter;marker:none;marker-start:none;marker-mid:none;marker-end:none;stroke-miterlimit:4;stroke-dasharray:none;stroke-dashoffset:0;stroke-opacity:1;visibility:visible;display:inline;overflow:visible;enable-background:accumulate" />
  <path
     d="M 9.65,5 C 13.8728,5 17.3,7.9120003 17.3,11.5 C 17.3,12.050338 17.198637,12.583288 17.046875,13.09375 L 20,15.90625 L 15.1625,16 C 13.770076,17.23217 11.817646,18 9.65,18 C 5.4272,18 1.9999991,15.088 2,11.5 C 2,7.9120001 5.4272,4.9999999 9.65,5 z"
     id="path2396"
     style="fill:#eae3d1;fill-opacity:1;fill-rule:evenodd;stroke:none;stroke-width:1;stroke-linecap:butt;stroke-linejoin:miter;marker:none;marker-start:none;marker-mid:none;marker-end:none;stroke-miterlimit:4;stroke-dasharray:none;stroke-dashoffset:0;stroke-opacity:1;visibility:visible;display:inline;overflow:visible;enable-background:accumulate" />
</svg>
