<?xml version="1.0" encoding="UTF-8" standalone="no"?>
<!-- Created with Inkscape (http://www.inkscape.org/) -->
<svg
   xmlns:svg="http://www.w3.org/2000/svg"
   xmlns="http://www.w3.org/2000/svg"
   version="1.0"
   width="22"
   height="22"
   id="svg3186">
  <defs
     id="defs3188" />
  <path
     d="M 9.896943,4.5121497 C 8.2068308,4.7957942 6.6985879,5.8077711 5.7108105,7.1983959 C 4.7189147,8.5949721 4.3053163,10.380774 4.5861778,12.071122 C 4.8663082,13.757048 5.8194262,15.290192 7.2103208,16.287903 C 8.6035868,17.287304 10.400091,17.694937 12.083729,17.412379 C 13.766503,17.129984 15.308065,16.155396 16.301102,14.757368 C 16.384583,14.639851 16.4574,14.511805 16.48854,14.351307 C 16.519681,14.190809 16.487005,14.000785 16.394821,13.851541 C 16.210452,13.553052 15.94194,13.49822 15.707546,13.44548 C 15.238757,13.34 14.658719,13.334017 14.051836,13.320538 C 13.444954,13.30706 12.832473,13.263462 12.396127,13.164361 C 12.177954,13.11481 12.012953,13.067875 11.92753,13.008184 C 11.842107,12.948493 11.84327,12.90894 11.833811,12.852007 L 11.802571,12.852007 C 11.808028,11.841145 11.504462,11.081307 11.115295,10.603057 C 10.707738,10.102206 10.232237,9.8077651 10.178101,9.7597005 C 10.085279,9.6772656 10.013094,9.4026485 10.084382,8.9163441 C 10.155671,8.4300398 10.331914,7.8201312 10.521739,7.2296314 C 10.711565,6.6391316 10.915476,6.1012728 10.959096,5.6053894 C 10.980907,5.3574477 10.969066,5.0876227 10.771658,4.8245039 C 10.574249,4.5613851 10.188933,4.4631494 9.896943,4.5121497 z M 12.024748,10.500126 C 10.877727,10.49033 9.825808,11.05134 9.245094,11.798941 C 8.2209806,11.253943 6.7166471,11.72983 6.3344286,12.617558 C 6.0220592,13.036804 6.5724177,13.589612 5.8239175,13.755038 C 4.5426522,14.487066 4.1195964,15.951825 4.8734511,17.039866 C 5.477778,17.99026 6.8487585,18.571935 8.1998073,18.492834 C 10.246472,18.487835 12.293777,18.50296 14.340031,18.485043 C 16.036664,18.410939 17.490043,17.220973 17.497409,15.897196 C 17.554153,14.845588 16.673015,13.843007 15.445861,13.430786 C 15.482826,12.084966 14.229871,10.70809 12.461059,10.523873 C 12.316574,10.508017 12.170658,10.500119 12.024748,10.500126 z"
     id="path3184"
     style="opacity:0.6;fill:none;fill-opacity:1;fill-rule:nonzero;stroke:#3a3835;stroke-width:1.00000012;stroke-linecap:round;stroke-linejoin:miter;marker:none;marker-start:none;marker-mid:none;marker-end:none;stroke-miterlimit:4;stroke-dasharray:none;stroke-dashoffset:0;stroke-opacity:1;visibility:visible;display:inline;overflow:visible;enable-background:accumulate" />
  <path
     d="M 10,4.9999992 C 8.4490246,5.2603294 7.0385869,6.1823919 6.125,7.4687492 C 5.2115131,8.7551068 4.8347702,10.409877 5.09375,11.968749 C 5.1731793,12.446851 5.3080346,12.89936 5.5,13.343749 C 5.5431454,13.314878 5.5810403,13.277744 5.625,13.249999 C 5.6250001,12.523617 6.0250789,11.904434 6.53125,11.531249 C 7.0374211,11.158064 7.6750457,10.968749 8.34375,10.968749 C 8.6369896,10.968749 8.8815455,11.112634 9.15625,11.187499 C 9.468398,10.889795 9.83353,10.64186 10.21875,10.437499 C 10.058596,10.313483 9.92724,10.199137 9.84375,10.124999 C 8.6654774,9.0784366 11.551076,4.7396691 10,4.9999992 z"
     id="path2876-6-6-4"
     style="fill:#eae3d1;fill-opacity:1;stroke:none;stroke-width:2;stroke-linecap:round;stroke-miterlimit:4;stroke-dasharray:none;stroke-dashoffset:0;stroke-opacity:1;display:inline" />
  <path
     d="M 12,10.999999 C 10.873696,10.999999 9.908797,11.531259 9.395833,12.296874 C 9.106987,12.116671 8.7381333,11.999999 8.3333333,11.999999 C 7.4133334,11.999999 6.6666667,12.559999 6.6666666,13.249999 C 6.6666666,13.404962 6.7020064,13.550521 6.7708333,13.687498 C 5.7244948,14.038139 5,14.832014 5,15.749998 C 5,16.996498 6.338,17.999999 8,17.999999 L 14,17.999999 C 15.662,17.999999 17,16.996498 17,15.749998 C 17,14.762662 16.15418,13.929482 14.979166,13.624999 C 14.981776,13.582286 15,13.54325 15,13.499999 C 15,12.119999 13.656,10.999999 12,10.999999 z"
     id="rect3193"
     style="fill:#eae3d1;fill-opacity:1;fill-rule:evenodd;stroke:none;stroke-width:4;stroke-linecap:butt;stroke-linejoin:miter;marker:none;marker-start:none;marker-mid:none;marker-end:none;stroke-miterlimit:4;stroke-dasharray:none;stroke-dashoffset:0;stroke-opacity:1;visibility:visible;display:inline;overflow:visible;enable-background:accumulate" />
</svg>
