<?xml version="1.0" encoding="UTF-8" standalone="no"?>
<!-- Created with Inkscape (http://www.inkscape.org/) -->
<svg
   xmlns:svg="http://www.w3.org/2000/svg"
   xmlns="http://www.w3.org/2000/svg"
   version="1.0"
   width="22"
   height="22"
   id="svg3186">
  <defs
     id="defs3188" />
  <path
     d="M 12.333742,12.950464 C 12.404819,10.986155 11.185602,10.435532 10.851641,10.138981 C 9.6733681,9.0924179 12.565592,4.7508989 11.014517,5.011229 C 9.4635414,5.2715592 8.0286915,6.1720094 7.1151046,7.4583667 C 6.2016178,8.7447241 5.8205061,10.401172 6.0794859,11.960044 C 6.3384656,13.518896 7.2344335,14.960984 8.5143161,15.879193 C 9.7941986,16.797391 11.442279,17.180401 12.993254,16.920071 C 14.54433,16.659741 15.97908,15.75929 16.892667,14.472933 C 17.806354,13.186566 12.592722,14.509356 12.333742,12.950464 L 12.333742,12.950464 z"
     id="path2876-6-6-4"
     style="fill:#eae3d0;fill-opacity:1;stroke:none;stroke-width:2;stroke-linecap:round;stroke-miterlimit:4;stroke-dasharray:none;stroke-dashoffset:0;stroke-opacity:1;display:inline" />
  <path
     d="M 10.896943,4.5121497 C 9.2068308,4.7957942 7.6985879,5.8077711 6.7108105,7.1983959 C 5.7189147,8.5949721 5.3053163,10.380774 5.5861778,12.071122 C 5.8663082,13.757048 6.8194262,15.290192 8.2103208,16.287903 C 9.6035868,17.287304 11.400091,17.694937 13.083729,17.412379 C 14.766503,17.129984 16.308065,16.155396 17.301102,14.757368 C 17.384583,14.639851 17.4574,14.511805 17.48854,14.351307 C 17.519681,14.190809 17.487005,14.000785 17.394821,13.851541 C 17.210452,13.553052 16.94194,13.49822 16.707546,13.44548 C 16.238757,13.34 15.658719,13.334017 15.051836,13.320538 C 14.444954,13.30706 13.832473,13.263462 13.396127,13.164361 C 13.177954,13.11481 13.012953,13.067875 12.92753,13.008184 C 12.842107,12.948494 12.84327,12.90894 12.833811,12.852007 L 12.802571,12.852007 C 12.808028,11.841145 12.504462,11.081308 12.115295,10.603057 C 11.707738,10.102206 11.232237,9.8077651 11.178101,9.7597005 C 11.085279,9.6772656 11.013094,9.4026485 11.084382,8.9163441 C 11.155671,8.4300398 11.331914,7.8201312 11.521739,7.2296314 C 11.711565,6.6391316 11.915476,6.1012728 11.959096,5.6053894 C 11.980907,5.3574477 11.969066,5.0876227 11.771658,4.8245039 C 11.574249,4.5613851 11.188933,4.4631494 10.896943,4.5121497 z"
     id="path3184"
     style="opacity:0.6;fill:none;fill-opacity:1;fill-rule:nonzero;stroke:#3a3935;stroke-width:1.00000012;stroke-linecap:round;stroke-linejoin:miter;marker:none;marker-start:none;marker-mid:none;marker-end:none;stroke-miterlimit:4;stroke-dasharray:none;stroke-dashoffset:0;stroke-opacity:1;visibility:visible;display:inline;overflow:visible;enable-background:accumulate" />
</svg>
