<?xml version="1.0" encoding="UTF-8" standalone="no"?>
<!-- Created with Inkscape (http://www.inkscape.org/) -->
<svg
   xmlns:svg="http://www.w3.org/2000/svg"
   xmlns="http://www.w3.org/2000/svg"
   version="1.0"
   width="22"
   height="22"
   id="svg3187">
  <defs
     id="defs3189" />
  <path
     d="M 15.9497,15.949748 L 15.384101,15.384049 M 15.454801,6.5452288 L 15.9497,6.0502487 M 6.6159,6.6159288 L 6.0503,6.0502487 M 4,10.999999 L 5,10.999999 M 17,10.999999 L 18,10.999999 M 11,4.9999989 L 11,3.9999988"
     id="path2480"
     style="opacity:0.6;fill:none;stroke:#6c6962;stroke-width:4;stroke-linecap:round;stroke-linejoin:miter;marker:none;stroke-miterlimit:4;stroke-dasharray:none;stroke-dashoffset:0;stroke-opacity:1;visibility:visible;display:inline;overflow:visible;enable-background:accumulate" />
  <path
     d="M 15.500033,10.999968 C 15.500033,8.5146757 13.485314,6.4999489 11.000033,6.4999489 C 8.5147511,6.4999489 6.5000323,8.5146757 6.5000323,10.999968 C 6.5000323,13.485259 8.5147511,15.499986 11.000033,15.499986 C 13.485314,15.499986 15.500033,13.485259 15.500033,10.999968 L 15.500033,10.999968 z M 9.2882411,11.50011 C 8.405912,11.491539 7.596738,11.982422 7.1500327,12.636573 C 6.362248,12.1597 5.2050613,12.576101 4.9110452,13.352863 C 4.6707596,13.719703 5.0941149,14.20341 4.518342,14.348158 C 3.5327472,14.988683 3.2073176,16.270347 3.7872094,17.222383 C 4.2520791,18.053977 5.306686,18.562943 6.3459609,18.49373 C 7.9203279,18.489356 9.4951878,18.50259 11.069239,18.486913 C 12.37435,18.422072 13.492341,17.380851 13.498006,16.222546 C 13.541656,15.302389 12.863854,14.425131 11.919883,14.064438 C 11.948318,12.886845 10.9845,11.682079 9.6238671,11.520889 C 9.5127241,11.507015 9.4004803,11.500104 9.2882411,11.50011 z"
     id="path3183"
     style="opacity:0.6;fill:none;fill-opacity:1;fill-rule:nonzero;stroke:#3a3935;stroke-width:1.00000024;stroke-linecap:round;stroke-linejoin:miter;marker:none;marker-start:none;marker-mid:none;marker-end:none;stroke-miterlimit:4;stroke-dasharray:none;stroke-dashoffset:0;stroke-opacity:1;visibility:visible;display:inline;overflow:visible;enable-background:accumulate" />
  <path
     d="M 15.9497,15.949748 L 15.384101,15.384049 M 15.454801,6.5452288 L 15.9497,6.0502487 M 6.6159,6.6159288 L 6.0503,6.0502487 M 4,10.999999 L 5,10.999999 M 17,10.999999 L 18,10.999999 M 11,4.9999989 L 11,3.9999988"
     id="path2496"
     style="fill:none;stroke:#eae3d1;stroke-width:2;stroke-linecap:round;stroke-linejoin:miter;marker:none;stroke-miterlimit:4;stroke-dasharray:none;stroke-dashoffset:0;stroke-opacity:1;visibility:visible;display:inline;overflow:visible;enable-background:accumulate" />
  <path
     d="M 11,6.9999989 C 8.7908711,6.9999988 7,8.7908605 7,10.999999 C 7,11.286745 7.0364069,11.574099 7.09375,11.843749 C 7.674795,11.316212 8.3949988,10.937499 9.25,10.937499 C 10.865109,10.937499 12.174891,12.124633 12.4375,13.656249 C 12.74553,13.832506 13.0034,14.067192 13.25,14.312499 C 13.255247,14.317718 13.276042,14.307248 13.28125,14.312499 C 14.333643,13.591923 15,12.371757 15,10.999999 C 15,8.7908603 13.209129,6.9999989 11,6.9999989 z M 9.2499995,11.999999 C 8.4052717,11.999999 7.6815977,12.455365 7.2968748,13.111606 C 7.0802399,12.957147 6.8035998,12.857142 6.4999999,12.857142 C 5.8099999,12.857142 5.25,13.337142 5.2499999,13.92857 C 5.2499999,14.061396 5.2765047,14.186161 5.3281249,14.30357 C 4.5433711,14.604119 4,15.284583 4,16.071427 C 4,17.139856 5.0035,17.999999 6.25,17.999999 L 10.75,17.999999 C 11.9965,17.999999 13,17.139856 13,16.071427 C 13,15.225139 12.365635,14.510985 11.484374,14.249999 C 11.486332,14.213388 11.5,14.179929 11.5,14.142856 C 11.5,12.959999 10.492,11.999999 9.2499995,11.999999 z"
     id="path2876-6-6-4-0"
     style="fill:#eae3d1;fill-opacity:1;fill-rule:nonzero;stroke:none;stroke-width:11.49051189;stroke-linecap:round;stroke-linejoin:miter;marker:none;marker-start:none;marker-mid:none;marker-end:none;stroke-miterlimit:4;stroke-dasharray:none;stroke-dashoffset:0;stroke-opacity:1;visibility:visible;display:inline;overflow:visible;enable-background:accumulate" />
</svg>
