<?xml version="1.0" encoding="UTF-8" standalone="no"?>
<!-- Created with Inkscape (http://www.inkscape.org/) -->
<svg
   xmlns:svg="http://www.w3.org/2000/svg"
   xmlns="http://www.w3.org/2000/svg"
   version="1.0"
   width="22"
   height="22"
   id="svg3187">
  <defs
     id="defs3189" />
  <path
     d="M 15.454801,6.545229 L 15.9497,6.0502489 M 6.6159,6.615929 L 6.0503,6.0502489 M 4,10.999999 L 5,10.999999 M 17,10.999999 L 18,10.999999 M 11,4.9999991 L 11,3.999999"
     id="path2476"
     style="opacity:0.6;fill:none;stroke:#3a3935;stroke-width:4;stroke-linecap:round;stroke-linejoin:miter;marker:none;stroke-miterlimit:4;stroke-dasharray:none;stroke-dashoffset:0;stroke-opacity:1;visibility:visible;display:inline;overflow:visible;enable-background:accumulate" />
  <path
     d="M 15.500033,10.999968 C 15.500033,8.5146759 13.485314,6.4999491 11.000033,6.4999491 C 8.5147511,6.4999491 6.5000323,8.5146759 6.5000323,10.999968 C 6.5000323,13.485259 8.5147511,15.499986 11.000033,15.499986 C 13.485314,15.499986 15.500033,13.485259 15.500033,10.999968 L 15.500033,10.999968 z M 13.024748,10.500126 C 11.877727,10.49033 10.825808,11.05134 10.245094,11.798941 C 9.2209806,11.253943 7.7166471,11.72983 7.3344286,12.617558 C 7.0220592,13.036804 7.5724177,13.589612 6.8239175,13.755038 C 5.5426522,14.487066 5.1195964,15.951825 5.8734511,17.039866 C 6.477778,17.99026 7.8487585,18.571935 9.1998073,18.492834 C 11.246472,18.487835 13.293777,18.50296 15.340031,18.485043 C 17.036664,18.410939 18.490043,17.220973 18.497409,15.897196 C 18.554153,14.845588 17.673015,13.843007 16.445861,13.430786 C 16.482826,12.084966 15.229871,10.70809 13.461059,10.523873 C 13.316574,10.508017 13.170658,10.500119 13.024748,10.500126 z"
     id="path3183"
     style="opacity:0.6;fill:none;fill-opacity:1;fill-rule:nonzero;stroke:#3a3935;stroke-width:1.00000024;stroke-linecap:round;stroke-linejoin:miter;marker:none;marker-start:none;marker-mid:none;marker-end:none;stroke-miterlimit:4;stroke-dasharray:none;stroke-dashoffset:0;stroke-opacity:1;visibility:visible;display:inline;overflow:visible;enable-background:accumulate" />
  <path
     d="M 15.454801,6.545229 L 15.9497,6.0502489 M 6.6159,6.615929 L 6.0503,6.0502489 M 4,10.999999 L 5,10.999999 M 17,10.999999 L 18,10.999999 M 11,4.9999991 L 11,3.999999"
     id="path2492"
     style="fill:none;fill-opacity:1;stroke:#eae3d1;stroke-width:2;stroke-linecap:round;stroke-linejoin:miter;marker:none;stroke-miterlimit:4;stroke-dasharray:none;stroke-dashoffset:0;stroke-opacity:1;visibility:visible;display:inline;overflow:visible;enable-background:accumulate" />
  <path
     d="M 11,6.9999991 C 8.7908711,6.999999 7,8.7908607 7,10.999999 C 7,11.32165 7.0533067,11.63782 7.125,11.937499 C 7.2512532,11.781954 7.3769525,11.645008 7.53125,11.531249 C 8.0374211,11.158064 8.6750457,10.968749 9.34375,10.968749 C 9.6369896,10.968749 9.8815455,11.112634 10.15625,11.187499 C 10.900192,10.477979 11.857704,9.9687491 13,9.9687491 C 13.703605,9.9687491 14.356392,10.138606 14.9375,10.437499 C 14.663873,8.4949241 13.018047,6.9999991 11,6.9999991 z M 13,10.999999 C 11.873696,10.999999 10.908797,11.531259 10.395833,12.296874 C 10.106987,12.116671 9.7381333,11.999999 9.3333333,11.999999 C 8.4133334,11.999999 7.6666667,12.559999 7.6666666,13.249999 C 7.6666666,13.404962 7.7020064,13.550521 7.7708333,13.687498 C 6.7244948,14.038139 6,14.832014 6,15.749998 C 6,16.996498 7.338,17.999999 9,17.999999 L 15,17.999999 C 16.662,17.999999 18,16.996498 18,15.749998 C 18,14.762662 17.15418,13.929482 15.979166,13.624999 C 15.981776,13.582286 16,13.54325 16,13.499999 C 16,12.119999 14.656,10.999999 13,10.999999 z"
     id="path2876-6-6-4-0"
     style="fill:#eae3d1;fill-opacity:1;fill-rule:nonzero;stroke:none;stroke-width:11.49051189;stroke-linecap:round;stroke-linejoin:miter;marker:none;marker-start:none;marker-mid:none;marker-end:none;stroke-miterlimit:4;stroke-dasharray:none;stroke-dashoffset:0;stroke-opacity:1;visibility:visible;display:inline;overflow:visible;enable-background:accumulate" />
</svg>
