<?xml version="1.0" encoding="UTF-8" standalone="no"?>
<!-- Created with Inkscape (http://www.inkscape.org/) -->
<svg
   xmlns:svg="http://www.w3.org/2000/svg"
   xmlns="http://www.w3.org/2000/svg"
   version="1.0"
   width="22"
   height="22"
   id="svg3187">
  <defs
     id="defs3189" />
  <path
     d="M 11.024667,3.5001417 C 9.8776462,3.4891218 8.8257265,4.1202573 8.2450131,4.9613089 C 7.2208995,4.348186 5.716566,4.8835592 5.3343475,5.8822532 C 5.0219781,6.3539048 5.5723366,6.9758138 4.8238364,7.1619181 C 3.5425712,7.9854491 3.1195154,9.6333031 3.8733701,10.857349 C 4.4776969,11.926543 5.8486774,12.580927 7.1997262,12.491938 C 9.2463907,12.486315 11.293696,12.50333 13.33995,12.483174 C 15.036583,12.399807 16.489962,11.061095 16.497328,9.5718461 C 16.554072,8.3887871 15.672934,7.2608831 14.44578,6.7971346 C 14.482745,5.283087 13.22979,3.7341016 11.460978,3.5268576 C 11.316493,3.509019 11.170577,3.5001342 11.024667,3.5001417 z M 13.024748,9.5001423 C 11.877727,9.4891224 10.825808,10.120258 10.245094,10.961309 C 9.2209806,10.348186 7.7166471,10.88356 7.3344286,11.882254 C 7.0220592,12.353905 7.5724177,12.975814 6.8239175,13.161919 C 5.5426522,13.98545 5.1195964,15.633304 5.8734511,16.85735 C 6.477778,17.926544 7.8487585,18.580928 9.1998073,18.491939 C 11.246472,18.486316 13.293777,18.503331 15.340031,18.483175 C 17.036664,18.399808 18.490043,17.061096 18.497409,15.571847 C 18.554153,14.388788 17.673015,13.260884 16.445861,12.797135 C 16.482826,11.283087 15.229871,9.7341022 13.461059,9.5268582 C 13.316574,9.5090196 13.170658,9.5001348 13.024748,9.5001423 z"
     id="path2395"
     style="opacity:0.6;fill:#3a3935;fill-opacity:1;fill-rule:nonzero;stroke:#3a3935;stroke-width:0.99999982;stroke-linecap:round;stroke-linejoin:miter;marker:none;marker-start:none;marker-mid:none;marker-end:none;stroke-miterlimit:4;stroke-dasharray:none;stroke-dashoffset:0;stroke-opacity:1;visibility:visible;display:inline;overflow:visible;enable-background:accumulate" />
  <path
     d="M 11,3.9999996 C 9.8736963,3.9999996 8.9192139,4.5937612 8.40625,5.4687496 C 8.1174033,5.2628037 7.74855,5.1562496 7.34375,5.1562496 C 6.4237499,5.1562497 5.6562501,5.7739282 5.65625,6.5624996 C 5.6562501,6.7396002 5.7124231,6.9059548 5.78125,7.0624996 C 4.7349115,7.4632317 4,8.3883756 4,9.4374996 C 4,10.7684 5.1786846,11.831357 6.6875,11.96875 C 6.9956974,10.829407 8.1473135,10.093749 9.34375,10.09375 C 9.6162075,10.09375 9.8616791,10.242098 10.125,10.3125 C 10.864399,9.5281272 11.826494,8.9374996 13,8.9374996 C 14.131647,8.9374996 15.146962,9.4080807 15.875,10.15625 C 15.954138,9.9250818 16,9.6911903 16,9.4374996 C 16,8.3091158 15.143764,7.3479796 13.96875,6.9999996 C 13.97136,6.9511848 14,6.8931793 14,6.8437496 C 14,5.2666067 12.656,3.9999996 11,3.9999996 z M 13,9.9999996 C 11.873696,9.9999996 10.908797,10.607154 10.395833,11.482142 C 10.106987,11.276196 9.7381333,11.142857 9.3333333,11.142857 C 8.4133334,11.142857 7.6666667,11.782857 7.6666666,12.571428 C 7.6666666,12.748529 7.7020064,12.914882 7.7708333,13.071427 C 6.7244948,13.472159 6,14.379446 6,15.42857 C 6,16.853141 7.338,18 9,18 L 15,18 C 16.662,18 18,16.853141 18,15.42857 C 18,14.300186 17.15418,13.34798 15.979166,13 C 15.981776,12.951185 16,12.906572 16,12.857142 C 16,11.28 14.656,9.9999996 13,9.9999996 z"
     id="path2397"
     style="fill:#eae3d1;fill-opacity:1;fill-rule:evenodd;stroke:none;stroke-width:4;stroke-linecap:butt;stroke-linejoin:miter;marker:none;marker-start:none;marker-mid:none;marker-end:none;stroke-miterlimit:4;stroke-dasharray:none;stroke-dashoffset:0;stroke-opacity:1;visibility:visible;display:inline;overflow:visible;enable-background:accumulate" />
</svg>
