<?xml version="1.0" encoding="UTF-8" standalone="no"?>
<!-- Created with Inkscape (http://www.inkscape.org/) -->

<svg
   xmlns:dc="http://purl.org/dc/elements/1.1/"
   xmlns:cc="http://creativecommons.org/ns#"
   xmlns:rdf="http://www.w3.org/1999/02/22-rdf-syntax-ns#"
   xmlns:svg="http://www.w3.org/2000/svg"
   xmlns="http://www.w3.org/2000/svg"
   version="1.0"
   width="16"
   height="22"
   id="svg3187">
  <metadata
     id="metadata10">
    <rdf:RDF>
      <cc:Work
         rdf:about="">
        <dc:format>image/svg+xml</dc:format>
        <dc:type
           rdf:resource="http://purl.org/dc/dcmitype/StillImage" />
        <dc:title></dc:title>
      </cc:Work>
    </rdf:RDF>
  </metadata>
  <defs
     id="defs3189" />
  <path
     d="m 9.0000403,5 c -1.126304,0 -2.0807861,0.5937616 -2.59375,1.46875 -0.2888464,-0.2059461 -0.6577,-0.3125 -1.0625,-0.3125 -0.9199998,-1e-7 -1.6874999,0.6176786 -1.6875,1.40625 -1e-7,0.1771007 0.056173,0.3434552 0.125,0.5 -1.0463384,0.4007319 -1.78125,1.325876 -1.78125,2.375 0,1.424571 1.338,2.5625 3,2.5625 l 1,0 0,-3.96875 c 0,-0.5118689 0.425631,-0.9375 0.9375,-0.9375 l 2.125,0 c 0.511869,0 0.9374997,0.425631 0.9374997,0.9375 l 0,3.96875 1,0 c 1.662,0 3,-1.137929 3,-2.5625 C 14.00004,9.309116 13.143804,8.34798 11.96879,8 11.97139,7.951185 12.00004,7.8931797 12.00004,7.84375 12.00004,6.2666071 10.65604,5 9.0000403,5 z m -1,4 c -0.554,0 -1,0.446 -1,1 l 0,5 c 0,0.554 0.446,1 1,1 0.554,0 1,-0.446 1,-1 l 0,-5 c 0,-0.554 -0.446,-1 -1,-1 z m -0.5,8 c -0.277,0 -0.5,0.223 -0.5,0.5 l 0,0.5 0,0.5 c 0,0.277 0.223,0.5 0.5,0.5 l 0.5,0 0.5,0 c 0.277,0 0.5,-0.223 0.5,-0.5 l 0,-0.5 0,-0.5 c 0,-0.277 -0.223,-0.5 -0.5,-0.5 l -0.5,0 -0.5,0 z"
     id="path2397-8"
     style="opacity:0.3;fill:#000000;fill-opacity:1;fill-rule:evenodd;stroke:none;stroke-width:4;marker:none;visibility:visible;display:inline;overflow:visible;enable-background:accumulate" />
  <path
     d="M 9.0000003,4 C 7.8736963,4 6.9192139,4.5937616 6.40625,5.46875 6.1174036,5.2628039 5.74855,5.15625 5.34375,5.15625 c -0.9199998,-1e-7 -1.6874999,0.6176786 -1.6875,1.40625 -10e-8,0.1771007 0.056173,0.3434552 0.125,0.5 C 2.7349116,7.4632319 2,8.388376 2,9.4375 2,10.862071 3.338,12 5,12 L 6,12 6,8.03125 C 6,7.5193811 6.425631,7.09375 6.9375,7.09375 l 2.1250003,0 C 9.5743693,7.09375 10,7.519381 10,8.03125 L 10,12 l 1,0 c 1.662,0 3,-1.137929 3,-2.5625 C 14,8.309116 13.143764,7.34798 11.96875,7 11.97136,6.9511852 12,6.8931797 12,6.84375 12,5.2666071 10.656,4 9.0000003,4 z"
     id="path2397"
     style="fill:#dfdbd2;fill-opacity:1;fill-rule:evenodd;stroke:none;stroke-width:4;marker:none;visibility:visible;display:inline;overflow:visible;enable-background:accumulate" />
  <path
     d="m 8.0000403,8 c -0.554,0 -1,0.446 -1,1 l 0,5 c 0,0.554 0.446,1 1,1 0.554,0 1,-0.446 1,-1 l 0,-5 c 0,-0.554 -0.446,-1 -1,-1 z m -0.5,8 c -0.277,0 -0.5,0.223 -0.5,0.5 l 0,0.5 0,0.5 c 0,0.277 0.223,0.5 0.5,0.5 l 0.5,0 0.5,0 c 0.277,0 0.5,-0.223 0.5,-0.5 l 0,-0.5 0,-0.5 c 0,-0.277 -0.223,-0.5 -0.5,-0.5 l -0.5,0 -0.5,0 z"
     id="path3160"
     style="fill:#df382c;fill-opacity:1;fill-rule:evenodd;stroke:none;stroke-width:1.69999993;marker:none;visibility:visible;display:inline;overflow:visible;enable-background:accumulate" />
</svg>
