<?xml version="1.0" encoding="UTF-8" standalone="no"?>
<!-- Created with Inkscape (http://www.inkscape.org/) -->

<svg
   xmlns:dc="http://purl.org/dc/elements/1.1/"
   xmlns:cc="http://creativecommons.org/ns#"
   xmlns:rdf="http://www.w3.org/1999/02/22-rdf-syntax-ns#"
   xmlns:svg="http://www.w3.org/2000/svg"
   xmlns="http://www.w3.org/2000/svg"
   version="1.0"
   width="16"
   height="22"
   id="svg3181">
  <metadata
     id="metadata8">
    <rdf:RDF>
      <cc:Work
         rdf:about="">
        <dc:format>image/svg+xml</dc:format>
        <dc:type
           rdf:resource="http://purl.org/dc/dcmitype/StillImage" />
        <dc:title></dc:title>
      </cc:Work>
    </rdf:RDF>
  </metadata>
  <defs
     id="defs3183" />
  <path
     d="m 2.5,16.000107 c 1.5,-1.499998 3.5,-1.499998 5.5,0 2.066895,1.550172 4,1.500002 5.5,2e-6 m -11,-4.000005 c 1.5,-1.499999 3.5,-1.499999 5.5,0 2.066895,1.550174 4,1.500004 5.5,10e-7 M 2.5,8.0001048 C 4,6.5001053 6,6.5001053 8,8.000105 c 2.066895,1.5501712 4,1.5000003 5.5,3e-7"
     id="path3645-5"
     style="opacity:0.3;fill:none;stroke:#000000;stroke-width:1.5;stroke-linecap:round;stroke-linejoin:miter;stroke-miterlimit:4;stroke-opacity:1;stroke-dasharray:none;stroke-dashoffset:0;marker:none;visibility:visible;display:inline;overflow:visible;enable-background:accumulate" />
  <path
     d="m 2.5,15.000107 c 1.5,-1.499998 3.5,-1.499998 5.5,0 2.066895,1.550172 4,1.500002 5.5,2e-6 m -11,-4.000005 c 1.5,-1.499999 3.5,-1.499999 5.5,0 2.066895,1.550174 4,1.500004 5.5,10e-7 M 2.5,7.0001045 C 4,5.500105 6,5.500105 8,7.0001047 c 2.066895,1.5501712 4,1.5000003 5.5,3e-7"
     id="path3645"
     style="fill:none;stroke:#dfdbd2;stroke-width:1.5;stroke-linecap:round;stroke-linejoin:miter;stroke-miterlimit:4;stroke-opacity:1;stroke-dasharray:none;stroke-dashoffset:0;marker:none;visibility:visible;display:inline;overflow:visible;enable-background:accumulate" />
</svg>
