<?xml version="1.0" encoding="UTF-8" standalone="no"?>
<!-- Created with Inkscape (http://www.inkscape.org/) -->
<svg
   xmlns:svg="http://www.w3.org/2000/svg"
   xmlns="http://www.w3.org/2000/svg"
   version="1.0"
   width="22"
   height="22"
   id="svg3181">
  <defs
     id="defs3183" />
  <path
     d="M 5.5,15.000107 C 7,13.500109 9,13.500109 11,15.000107 C 13.066895,16.550279 15,16.500109 16.5,15.000109 M 5.5,11.000104 C 7,9.500105 9,9.500105 11,11.000104 C 13.066895,12.550278 15,12.500108 16.5,11.000105 M 5.5,7.0001045 C 7,5.500105 9,5.500105 11,7.0001047 C 13.066895,8.5502759 15,8.500105 16.5,7.000105"
     id="path3179"
     style="opacity:0.6;fill:none;fill-opacity:1;fill-rule:nonzero;stroke:#3a3935;stroke-width:3.5;stroke-linecap:round;stroke-linejoin:miter;marker:none;marker-start:none;marker-mid:none;marker-end:none;stroke-miterlimit:4;stroke-dasharray:none;stroke-dashoffset:0;stroke-opacity:1;visibility:visible;display:inline;overflow:visible;enable-background:accumulate" />
  <path
     d="M 5.5,15.000107 C 7,13.500109 9,13.500109 11,15.000107 C 13.066895,16.550279 15,16.500109 16.5,15.000109 M 5.5,11.000104 C 7,9.500105 9,9.500105 11,11.000104 C 13.066895,12.550278 15,12.500108 16.5,11.000105 M 5.5,7.0001045 C 7,5.500105 9,5.500105 11,7.0001047 C 13.066895,8.5502759 15,8.500105 16.5,7.000105"
     id="path3645"
     style="fill:none;fill-opacity:1;fill-rule:nonzero;stroke:#eae3d0;stroke-width:1.5;stroke-linecap:round;stroke-linejoin:miter;marker:none;marker-start:none;marker-mid:none;marker-end:none;stroke-miterlimit:4;stroke-dasharray:none;stroke-dashoffset:0;stroke-opacity:1;visibility:visible;display:inline;overflow:visible;enable-background:accumulate" />
</svg>
