<?xml version="1.0" encoding="UTF-8" standalone="no"?>
<!-- Created with Inkscape (http://www.inkscape.org/) -->

<svg
   xmlns:dc="http://purl.org/dc/elements/1.1/"
   xmlns:cc="http://creativecommons.org/ns#"
   xmlns:rdf="http://www.w3.org/1999/02/22-rdf-syntax-ns#"
   xmlns:svg="http://www.w3.org/2000/svg"
   xmlns="http://www.w3.org/2000/svg"
   version="1.0"
   width="20"
   height="22"
   id="svg3187">
  <metadata
     id="metadata10">
    <rdf:RDF>
      <cc:Work
         rdf:about="">
        <dc:format>image/svg+xml</dc:format>
        <dc:type
           rdf:resource="http://purl.org/dc/dcmitype/StillImage" />
        <dc:title></dc:title>
      </cc:Work>
    </rdf:RDF>
  </metadata>
  <defs
     id="defs3189" />
  <path
     d="m 14.9497,16.95 -0.565599,-0.565699 m 0.0707,-8.83882 L 14.9497,7.0505009 M 5.6159,7.616181 5.0503,7.0505009 M 3,12.000251 l 1,0 m 12,0 1,0 M 10,6.0002511 10,5.000251"
     id="path2496-2"
     style="opacity:0.3;fill:none;stroke:#000000;stroke-width:2;stroke-linecap:round;stroke-linejoin:miter;stroke-miterlimit:4;stroke-opacity:1;stroke-dasharray:none;stroke-dashoffset:0;marker:none;visibility:visible;display:inline;overflow:visible;enable-background:accumulate" />
  <path
     d="m 10,8 c -2.2091289,-1e-7 -4,1.7908616 -4,4 0,0.286746 0.036407,0.5741 0.09375,0.84375 C 6.674795,12.316213 7.3949988,11.9375 8.25,11.9375 c 1.615109,0 2.924891,1.187134 3.1875,2.71875 0.30803,0.176257 0.5659,0.410943 0.8125,0.65625 0.0052,0.0052 0.02604,-0.0053 0.03125,0 C 13.333643,14.591924 14,13.371758 14,12 14,9.7908614 12.209129,8 10,8 z m -1.7500005,5 c -0.8447278,0 -1.5684018,0.455366 -1.9531247,1.111607 -0.2166349,-0.154459 -0.493275,-0.254464 -0.7968749,-0.254464 -0.69,0 -1.2499999,0.48 -1.25,1.071428 0,0.132826 0.026505,0.257591 0.078125,0.375 C 3.5433711,15.60412 3,16.284584 3,17.071428 3,18.139857 4.0035,19 5.25,19 l 4.5,0 C 10.9965,19 12,18.139857 12,17.071428 12,16.22514 11.365635,15.510986 10.484374,15.25 c 0.002,-0.03661 0.01563,-0.07007 0.01563,-0.107143 C 10.500004,13.96 9.492004,13 8.2500035,13 z"
     id="path2876-6-6-4-0-8"
     style="opacity:0.3;fill:#000000;fill-opacity:1;fill-rule:nonzero;stroke:none;stroke-width:11.49051189;marker:none;visibility:visible;display:inline;overflow:visible;enable-background:accumulate" />
  <path
     d="M 14.9497,15.949748 14.384101,15.384049 M 14.454801,6.5452288 14.9497,6.0502487 M 5.6159,6.6159288 5.0503,6.0502487 M 3,10.999999 l 1,0 m 12,0 1,0 M 10,4.9999989 10,3.9999988"
     id="path2496"
     style="fill:none;stroke:#dfdbd2;stroke-width:2;stroke-linecap:round;stroke-linejoin:miter;stroke-miterlimit:4;stroke-opacity:1;stroke-dasharray:none;stroke-dashoffset:0;marker:none;visibility:visible;display:inline;overflow:visible;enable-background:accumulate" />
  <path
     d="m 10,6.9999989 c -2.2091289,-10e-8 -4,1.7908616 -4,4.0000001 0,0.286746 0.036407,0.5741 0.09375,0.84375 0.581045,-0.527537 1.3012488,-0.90625 2.15625,-0.90625 1.615109,0 2.924891,1.187134 3.1875,2.71875 0.30803,0.176257 0.5659,0.410943 0.8125,0.65625 0.0052,0.0052 0.02604,-0.0053 0.03125,0 C 13.333643,13.591923 14,12.371757 14,10.999999 14,8.7908603 12.209129,6.9999989 10,6.9999989 z M 8.2499995,11.999999 c -0.8447278,0 -1.5684018,0.455366 -1.9531247,1.111607 -0.2166349,-0.154459 -0.493275,-0.254464 -0.7968749,-0.254464 -0.69,0 -1.2499999,0.48 -1.25,1.071428 0,0.132826 0.026505,0.257591 0.078125,0.375 C 3.5433711,14.604119 3,15.284583 3,16.071427 c 0,1.068429 1.0035,1.928572 2.25,1.928572 l 4.5,0 c 1.2465,0 2.25,-0.860143 2.25,-1.928572 0,-0.846288 -0.634365,-1.560442 -1.515626,-1.821428 0.002,-0.03661 0.01563,-0.07007 0.01563,-0.107143 0,-1.182857 -1.008,-2.142857 -2.2500005,-2.142857 z"
     id="path2876-6-6-4-0"
     style="fill:#dfdbd2;fill-opacity:1;fill-rule:nonzero;stroke:none;stroke-width:11.49051189;marker:none;visibility:visible;display:inline;overflow:visible;enable-background:accumulate" />
</svg>
