<?xml version="1.0" encoding="UTF-8" standalone="no"?>
<!-- Created with Inkscape (http://www.inkscape.org/) -->
<svg
   xmlns:svg="http://www.w3.org/2000/svg"
   xmlns="http://www.w3.org/2000/svg"
   version="1.0"
   width="22"
   height="22"
   id="svg3187">
  <defs
     id="defs3189" />
  <path
     d="M 5.5,17.514 L 6,16.514 M 9.5000001,17.514 L 10,16.514 M 13.5,17.514 L 14,16.514 M 7.0000001,14.514 L 7.5000001,13.514 M 11,14.514 L 11.5,13.514 M 15,14.514 L 15.5,13.514"
     id="path3372"
     style="opacity:0.6;fill:none;fill-opacity:1;fill-rule:nonzero;stroke:#3a3935;stroke-width:3;stroke-linecap:round;stroke-linejoin:miter;marker:none;marker-start:none;marker-mid:none;marker-end:none;stroke-miterlimit:4;stroke-dasharray:none;stroke-dashoffset:0;stroke-opacity:1;visibility:visible;display:inline;overflow:visible;enable-background:accumulate" />
  <path
     d="M 13.024748,3.500271 C 11.877727,3.4892511 10.825808,4.1203865 10.245094,4.9614381 C 9.2209807,4.3483152 7.7166472,4.8836884 7.3344287,5.8823824 C 7.0220593,6.354034 7.5724178,6.975943 6.8239176,7.1620473 C 5.5426523,7.9855783 5.1195965,9.6334323 5.8734512,10.857478 C 6.4777781,11.926672 7.8487586,12.581056 9.1998074,12.492067 C 11.246472,12.486444 13.293777,12.503459 15.340031,12.483303 C 17.036664,12.399936 18.490043,11.061224 18.497409,9.5719753 C 18.554153,8.3889163 17.673015,7.2610123 16.445861,6.7972638 C 16.482826,5.2832162 15.229871,3.7342309 13.461059,3.5269869 C 13.316574,3.5091483 13.170658,3.5002635 13.024748,3.500271 z"
     id="path2395"
     style="opacity:0.6;fill:#3a3935;fill-opacity:1;fill-rule:nonzero;stroke:#3a3835;stroke-width:0.99999982;stroke-linecap:round;stroke-linejoin:miter;marker:none;marker-start:none;marker-mid:none;marker-end:none;stroke-miterlimit:4;stroke-dasharray:none;stroke-dashoffset:0;stroke-opacity:1;visibility:visible;display:inline;overflow:visible;enable-background:accumulate" />
  <path
     d="M 13,4.0001283 C 11.873696,4.0001283 10.908797,4.6072827 10.395833,5.4822711 C 10.106987,5.2763251 9.7381334,5.1429855 9.3333334,5.1429855 C 8.4133335,5.1429855 7.6666668,5.7829855 7.6666667,6.5715569 C 7.6666667,6.7486575 7.7020065,6.9150105 7.7708334,7.0715553 C 6.7244949,7.4722873 6.0000001,8.3795743 6.0000001,9.4286983 C 6.0000001,10.853269 7.3380001,12.000128 9.0000001,12.000128 L 15,12.000128 C 16.662,12.000128 18,10.853269 18,9.4286983 C 18,8.3003143 17.15418,7.3481083 15.979166,7.0001283 C 15.981776,6.9513135 16,6.9067009 16,6.8572712 C 16,5.2801283 14.656,4.0001283 13,4.0001283 z"
     id="path2397"
     style="fill:#eae3d1;fill-opacity:1;fill-rule:evenodd;stroke:none;stroke-width:4;stroke-linecap:butt;stroke-linejoin:miter;marker:none;marker-start:none;marker-mid:none;marker-end:none;stroke-miterlimit:4;stroke-dasharray:none;stroke-dashoffset:0;stroke-opacity:1;visibility:visible;display:inline;overflow:visible;enable-background:accumulate" />
  <path
     d="M 5.5,17.514 L 6,16.514"
     id="path3350"
     style="fill:none;fill-rule:evenodd;stroke:#eae3d1;stroke-width:0.99999994px;stroke-linecap:round;stroke-linejoin:miter;stroke-opacity:1" />
  <path
     d="M 9.5000001,17.514 L 10,16.514"
     id="path3362"
     style="fill:none;fill-rule:evenodd;stroke:#eae3d1;stroke-width:0.99999994px;stroke-linecap:round;stroke-linejoin:miter;stroke-opacity:1" />
  <path
     d="M 13.5,17.514 L 14,16.514"
     id="path3364"
     style="fill:none;fill-rule:evenodd;stroke:#eae3d1;stroke-width:0.99999994px;stroke-linecap:round;stroke-linejoin:miter;stroke-opacity:1" />
  <path
     d="M 7.0000001,14.514 L 7.5000001,13.514"
     id="path3366"
     style="fill:none;fill-rule:evenodd;stroke:#eae3d1;stroke-width:0.99999994px;stroke-linecap:round;stroke-linejoin:miter;stroke-opacity:1" />
  <path
     d="M 11,14.514 L 11.5,13.514"
     id="path3368"
     style="fill:none;fill-rule:evenodd;stroke:#eae3d1;stroke-width:0.99999994px;stroke-linecap:round;stroke-linejoin:miter;stroke-opacity:1" />
  <path
     d="M 15,14.514 L 15.5,13.514"
     id="path3370"
     style="fill:none;fill-rule:evenodd;stroke:#eae3d1;stroke-width:0.99999994px;stroke-linecap:round;stroke-linejoin:miter;stroke-opacity:1" />
</svg>
