<?xml version="1.0" encoding="UTF-8" standalone="no"?>
<!-- Created with Inkscape (http://www.inkscape.org/) -->
<svg
   xmlns:svg="http://www.w3.org/2000/svg"
   xmlns="http://www.w3.org/2000/svg"
   version="1.0"
   width="22"
   height="22"
   id="svg3187">
  <defs
     id="defs3189" />
  <path
     d="M 12.024667,3.5001421 C 10.877646,3.4891222 9.825727,4.1202576 9.245013,4.9613092 C 8.2208996,4.3481863 6.7165661,4.8835595 6.3343476,5.8822535 C 6.0219782,6.3539051 6.5723367,6.9758141 5.8238365,7.1619184 C 4.5425712,7.9854494 4.1195154,9.6333034 4.8733701,10.857349 C 5.477697,11.926543 6.8486775,12.580927 8.1997263,12.491938 C 10.246391,12.486315 12.293696,12.50333 14.33995,12.483174 C 16.036583,12.399807 17.489962,11.061095 17.497328,9.5718464 C 17.554072,8.3887874 16.672934,7.2608834 15.44578,6.7971349 C 15.482745,5.2830873 14.22979,3.734102 12.460978,3.526858 C 12.316493,3.5090194 12.170577,3.5001346 12.024667,3.5001421 z M 7.4999189,11.500001 C 7.4999189,12.60457 8.3953494,13.5 9.499919,13.5 C 10.604488,13.5 11.499919,12.60457 11.499919,11.500001 C 11.499919,10.395431 10.604488,9.5000004 9.499919,9.5000004 C 8.3953494,9.5000004 7.4999189,10.395431 7.4999189,11.500001 L 7.4999189,11.500001 z M 10.499919,14.500001 C 10.499919,15.60457 11.395349,16.5 12.499918,16.5 C 13.604488,16.5 14.499918,15.60457 14.499918,14.500001 C 14.499918,13.395431 13.604488,12.500001 12.499918,12.500001 C 11.395349,12.500001 10.499919,13.395431 10.499919,14.500001 L 10.499919,14.500001 z M 6.4999189,16.500001 C 6.4999189,17.60457 7.3953494,18.5 8.4999188,18.5 C 9.604488,18.5 10.499919,17.60457 10.499919,16.500001 C 10.499919,15.395431 9.604488,14.5 8.4999188,14.5 C 7.3953494,14.5 6.4999189,15.395431 6.4999189,16.500001 L 6.4999189,16.500001 z"
     id="path2395"
     style="opacity:0.6;fill:none;fill-opacity:1;fill-rule:nonzero;stroke:#3a3935;stroke-width:0.99999982;stroke-linecap:round;stroke-linejoin:miter;marker:none;marker-start:none;marker-mid:none;marker-end:none;stroke-miterlimit:4;stroke-dasharray:none;stroke-dashoffset:0;stroke-opacity:1;visibility:visible;display:inline;overflow:visible;enable-background:accumulate" />
  <path
     d="M 11.999919,4.0000001 C 10.873615,4.0000001 9.919133,4.5937617 9.406169,5.4687501 C 9.117322,5.262804 8.748469,5.1562501 8.343669,5.1562501 C 7.4236689,5.15625 6.6561691,5.7739287 6.656169,6.5625001 C 6.6561691,6.7396008 6.7123421,6.9059553 6.781169,7.0625001 C 5.7348303,7.463232 4.999919,8.3883761 4.999919,9.4375001 C 4.999919,10.564587 5.8582779,11.494777 7.031169,11.84375 C 7.0153126,11.72996 6.999919,11.618157 6.999919,11.5 C 6.999919,10.119288 8.1192072,9.0000001 9.499919,9.0000001 C 10.880631,9.0000001 11.999919,10.119288 11.999919,11.5 C 11.999919,11.672589 11.970721,11.837256 11.937419,12 L 13.999919,12 C 15.661919,12 16.999919,10.862071 16.999919,9.4375001 C 16.999919,8.3091161 16.143683,7.3479801 14.968669,7.0000001 C 14.971279,6.9511853 14.999919,6.8931798 14.999919,6.8437501 C 14.999919,5.2666072 13.655919,4.0000001 11.999919,4.0000001 z M 10.99992,14.5 C 10.99992,15.328427 11.671493,16 12.499919,16 C 13.328348,16 13.99992,15.328427 13.99992,14.5 C 13.99992,13.671573 13.328348,13 12.499919,13 C 11.671493,13 10.99992,13.671573 10.99992,14.5 L 10.99992,14.5 z M 7.999919,11.5 C 7.999919,12.328427 8.6714919,13 9.499919,13 C 10.328346,13 10.999919,12.328427 10.999919,11.5 C 10.999919,10.671573 10.328346,10 9.499919,10 C 8.6714919,10 7.999919,10.671573 7.999919,11.5 L 7.999919,11.5 z M 6.999919,16.5 C 6.999919,17.328427 7.6714918,18 8.499919,18 C 9.328346,18 9.999919,17.328427 9.999919,16.5 C 9.999919,15.671573 9.328346,15 8.499919,15 C 7.6714918,15 6.999919,15.671573 6.999919,16.5 L 6.999919,16.5 z"
     id="path2397"
     style="fill:#eae3d1;fill-opacity:1;fill-rule:evenodd;stroke:none;stroke-width:4;stroke-linecap:butt;stroke-linejoin:miter;marker:none;marker-start:none;marker-mid:none;marker-end:none;stroke-miterlimit:4;stroke-dasharray:none;stroke-dashoffset:0;stroke-opacity:1;visibility:visible;display:inline;overflow:visible;enable-background:accumulate" />
</svg>
