<?xml version="1.0" encoding="UTF-8" standalone="no"?>
<!-- Created with Inkscape (http://www.inkscape.org/) -->

<svg
   xmlns:dc="http://purl.org/dc/elements/1.1/"
   xmlns:cc="http://creativecommons.org/ns#"
   xmlns:rdf="http://www.w3.org/1999/02/22-rdf-syntax-ns#"
   xmlns:svg="http://www.w3.org/2000/svg"
   xmlns="http://www.w3.org/2000/svg"
   version="1.0"
   width="16"
   height="22"
   id="svg3187">
  <metadata
     id="metadata10">
    <rdf:RDF>
      <cc:Work
         rdf:about="">
        <dc:format>image/svg+xml</dc:format>
        <dc:type
           rdf:resource="http://purl.org/dc/dcmitype/StillImage" />
        <dc:title></dc:title>
      </cc:Work>
    </rdf:RDF>
  </metadata>
  <defs
     id="defs3189" />
  <path
     d="M 9,5 C 7.873696,5 6.9192139,5.5937616 6.40625,6.46875 6.1174036,6.2628039 5.74855,6.15625 5.34375,6.15625 c -0.9199998,-1e-7 -1.6874999,0.6176786 -1.6875,1.40625 -10e-8,0.1771007 0.056173,0.3434552 0.125,0.5 C 2.7349116,8.4632319 2,9.388376 2,10.4375 c 0,0.941117 0.5892405,1.71788 1.46875,2.15625 L 9.75,6.3125 c 0.143143,-0.1472274 0.329019,-0.2456325 0.53125,-0.28125 0.351606,-0.059063 0.716366,0.06408 0.9375,0.34375 0.221134,0.2796697 0.263557,0.6714922 0.125,1 l -1.46875,3.65625 1.5625,0 c 0.387717,-0.0072 0.743746,0.210409 0.90625,0.5625 0.162504,0.352091 0.100744,0.772105 -0.15625,1.0625 l -0.15625,0.1875 C 13.17335,12.483254 14,11.545732 14,10.4375 14,9.309116 13.143764,8.34798 11.96875,8 11.97136,7.9511852 12,7.8931797 12,7.84375 12,6.2666071 10.656,5 9,5 z m 1.4375,2 -7,7 4,0 -3,6 7,-8 -3,0 2,-5 z"
     id="path2397-2"
     style="opacity:0.3;fill:#000000;fill-opacity:1;fill-rule:evenodd;stroke:none;stroke-width:4;marker:none;visibility:visible;display:inline;overflow:visible;enable-background:accumulate" />
  <path
     d="M 9,4 C 7.873696,4 6.9192139,4.5937616 6.40625,5.46875 6.1174036,5.2628039 5.74855,5.15625 5.34375,5.15625 c -0.9199998,-1e-7 -1.6874999,0.6176786 -1.6875,1.40625 -10e-8,0.1771007 0.056173,0.3434552 0.125,0.5 C 2.7349116,7.4632319 2,8.388376 2,9.4375 c 0,0.941117 0.5892405,1.71788 1.46875,2.15625 L 9.75,5.3125 c 0.143143,-0.1472274 0.329019,-0.2456325 0.53125,-0.28125 0.351606,-0.059063 0.716366,0.06408 0.9375,0.34375 0.221134,0.2796697 0.263557,0.6714922 0.125,1 l -1.46875,3.65625 1.5625,0 c 0.387717,-0.0072 0.743746,0.210409 0.90625,0.5625 0.162504,0.352091 0.100744,0.772105 -0.15625,1.0625 l -0.15625,0.1875 C 13.17335,11.483254 14,10.545732 14,9.4375 14,8.309116 13.143764,7.34798 11.96875,7 11.97136,6.9511852 12,6.8931797 12,6.84375 12,5.2666071 10.656,4 9,4 z m 1.4375,2 -7,7 4,0 -3,6 7,-8 -3,0 2,-5 z"
     id="path2397"
     style="fill:#dfdbd2;fill-opacity:1;fill-rule:evenodd;stroke:none;stroke-width:4;marker:none;visibility:visible;display:inline;overflow:visible;enable-background:accumulate" />
</svg>
