<?xml version="1.0" encoding="UTF-8" standalone="no"?>
<!-- Created with Inkscape (http://www.inkscape.org/) -->

<svg
   xmlns:dc="http://purl.org/dc/elements/1.1/"
   xmlns:cc="http://creativecommons.org/ns#"
   xmlns:rdf="http://www.w3.org/1999/02/22-rdf-syntax-ns#"
   xmlns:svg="http://www.w3.org/2000/svg"
   xmlns="http://www.w3.org/2000/svg"
   version="1.0"
   width="17"
   height="22"
   id="svg3186">
  <metadata
     id="metadata9">
    <rdf:RDF>
      <cc:Work
         rdf:about="">
        <dc:format>image/svg+xml</dc:format>
        <dc:type
           rdf:resource="http://purl.org/dc/dcmitype/StillImage" />
        <dc:title></dc:title>
      </cc:Work>
    </rdf:RDF>
  </metadata>
  <defs
     id="defs3188" />
  <path
     d="M 9,5.9999997 C 7.4490248,6.2603299 6.0385869,7.1823924 5.125,8.4687497 4.2417569,9.7125184 3.8529615,11.299488 4.0625,12.8125 4.2033131,12.786662 4.3537654,12.78125 4.5,12.78125 c 0.2115101,0 0.3204114,0.105916 0.5,0.15625 0.5975807,-0.573754 1.346862,-1 2.25,-1 1.615109,0 2.924891,1.187134 3.1875,2.71875 0.891321,0.510019 1.625,1.305903 1.625,2.40625 0,0.195054 -0.02459,0.380361 -0.0625,0.5625 1.149381,-0.414251 2.196317,-1.156643 2.90625,-2.15625 0.913687,-1.286367 -4.30352,0.02764 -4.5625,-1.53125 0.07108,-1.964308 -1.166039,-2.515949 -1.5,-2.8125 C 7.6654776,10.078437 10.551076,5.7396696 9,5.9999997 z M 7.25,13 C 6.4052722,13 5.6972229,13.468759 5.3125,14.125 5.0958651,13.970541 4.8035999,13.84375 4.5,13.84375 c -0.69,0 -1.2499999,0.502322 -1.25,1.09375 0,0.132826 0.04213,0.257591 0.09375,0.375 C 2.5589962,15.613049 2,16.275656 2,17.0625 2,18.130929 3.0035,19 4.25,19 l 4.5,0 C 9.9965,19 11,18.130929 11,17.0625 11,16.216212 10.350011,15.510986 9.46875,15.25 9.470708,15.213389 9.5,15.193323 9.5,15.15625 9.5,13.973393 8.492,13 7.25,13 z"
     id="rect3193-4"
     style="opacity:0.3;fill:#000000;fill-opacity:1;fill-rule:evenodd;stroke:none;stroke-width:4;marker:none;visibility:visible;display:inline;overflow:visible;enable-background:accumulate" />
  <path
     d="M 9,5 C 7.4490248,5.2603302 6.0385869,6.1823927 5.125,7.46875 4.2417569,8.7125187 3.8529615,10.299488 4.0625,11.8125 4.2033131,11.786662 4.3537654,11.78125 4.5,11.78125 c 0.2115101,0 0.3204114,0.105916 0.5,0.15625 0.5975807,-0.573754 1.346862,-1 2.25,-1 1.615109,0 2.924891,1.187134 3.1875,2.71875 0.891321,0.510019 1.625,1.305903 1.625,2.40625 0,0.195054 -0.02459,0.380361 -0.0625,0.5625 1.149381,-0.414251 2.196317,-1.156643 2.90625,-2.15625 0.913687,-1.286367 -4.30352,0.02764 -4.5625,-1.53125 0.07108,-1.964308 -1.166039,-2.515949 -1.5,-2.8125 C 7.6654776,9.0784374 10.551076,4.7396699 9,5 z M 7.25,12 C 6.4052722,12 5.6972229,12.468759 5.3125,13.125 5.0958651,12.970541 4.8035999,12.84375 4.5,12.84375 c -0.69,0 -1.2499999,0.502322 -1.25,1.09375 0,0.132826 0.04213,0.257591 0.09375,0.375 C 2.5589962,14.613049 2,15.275656 2,16.0625 2,17.130929 3.0035,18 4.25,18 l 4.5,0 C 9.9965,18 11,17.130929 11,16.0625 11,15.216212 10.350011,14.510986 9.46875,14.25 9.470708,14.213389 9.5,14.193323 9.5,14.15625 9.5,12.973393 8.492,12 7.25,12 z"
     id="rect3193"
     style="fill:#dfdbd2;fill-opacity:1;fill-rule:evenodd;stroke:none;stroke-width:4;marker:none;visibility:visible;display:inline;overflow:visible;enable-background:accumulate" />
</svg>
