<?xml version="1.0" encoding="UTF-8" standalone="no"?>
<!-- Created with Inkscape (http://www.inkscape.org/) -->

<svg
   xmlns:dc="http://purl.org/dc/elements/1.1/"
   xmlns:cc="http://creativecommons.org/ns#"
   xmlns:rdf="http://www.w3.org/1999/02/22-rdf-syntax-ns#"
   xmlns:svg="http://www.w3.org/2000/svg"
   xmlns="http://www.w3.org/2000/svg"
   version="1.0"
   width="20"
   height="22"
   id="svg3187">
  <metadata
     id="metadata10">
    <rdf:RDF>
      <cc:Work
         rdf:about="">
        <dc:format>image/svg+xml</dc:format>
        <dc:type
           rdf:resource="http://purl.org/dc/dcmitype/StillImage" />
        <dc:title></dc:title>
      </cc:Work>
    </rdf:RDF>
  </metadata>
  <defs
     id="defs3189" />
  <path
     d="M 14.454801,7.54523 14.9497,7.0502499 M 5.6159,7.61593 5.0503,7.0502499 M 3,12 4,12 m 12,0 1,0 M 10,6.0000001 10,5"
     id="path2492-2"
     style="opacity:0.3;fill:none;stroke:#000000;stroke-width:2;stroke-linecap:round;stroke-linejoin:miter;stroke-miterlimit:4;stroke-opacity:1;stroke-dasharray:none;stroke-dashoffset:0;marker:none;visibility:visible;display:inline;overflow:visible;enable-background:accumulate" />
  <path
     d="m 10,8 c -2.2091289,-1e-7 -4,1.7908616 -4,4 0,0.321651 0.053307,0.637821 0.125,0.9375 0.1262532,-0.155545 0.2519525,-0.292491 0.40625,-0.40625 0.5061711,-0.373185 1.1437957,-0.5625 1.8125,-0.5625 0.2932396,0 0.5377955,0.143885 0.8125,0.21875 0.743942,-0.70952 1.701454,-1.21875 2.84375,-1.21875 0.703605,0 1.356392,0.169857 1.9375,0.46875 C 13.663873,9.494925 12.018047,8 10,8 z m 2,4 C 10.873696,12 9.908797,12.53126 9.395833,13.296875 9.106987,13.116672 8.7381333,13 8.3333333,13 c -0.9199999,0 -1.6666666,0.56 -1.6666667,1.25 0,0.154963 0.03534,0.300522 0.1041667,0.437499 C 5.7244948,15.03814 5,15.832015 5,16.749999 5,17.996499 6.338,19 8,19 l 6,0 c 1.662,0 3,-1.003501 3,-2.250001 0,-0.987336 -0.84582,-1.820516 -2.020834,-2.124999 0.0026,-0.04271 0.02083,-0.08175 0.02083,-0.125 0,-1.38 -1.344,-2.5 -3,-2.5 z"
     id="path2876-6-6-4-0-6"
     style="opacity:0.3;fill:#000000;fill-opacity:1;fill-rule:nonzero;stroke:none;stroke-width:11.49051189;marker:none;visibility:visible;display:inline;overflow:visible;enable-background:accumulate" />
  <path
     d="M 14.454801,6.545229 14.9497,6.0502489 M 5.6159,6.615929 5.0503,6.0502489 M 3,10.999999 l 1,0 m 12,0 1,0 M 10,4.9999991 10,3.999999"
     id="path2492"
     style="fill:none;stroke:#dfdbd2;stroke-width:2;stroke-linecap:round;stroke-linejoin:miter;stroke-miterlimit:4;stroke-opacity:1;stroke-dasharray:none;stroke-dashoffset:0;marker:none;visibility:visible;display:inline;overflow:visible;enable-background:accumulate" />
  <path
     d="m 10,6.9999991 c -2.2091289,-1e-7 -4,1.7908616 -4,3.9999999 0,0.321651 0.053307,0.637821 0.125,0.9375 0.1262532,-0.155545 0.2519525,-0.292491 0.40625,-0.40625 0.5061711,-0.373185 1.1437957,-0.5625 1.8125,-0.5625 0.2932396,0 0.5377955,0.143885 0.8125,0.21875 C 9.900192,10.477979 10.857704,9.9687491 12,9.9687491 c 0.703605,0 1.356392,0.1698569 1.9375,0.4687499 C 13.663873,8.4949241 12.018047,6.9999991 10,6.9999991 z m 2,3.9999999 c -1.126304,0 -2.091203,0.53126 -2.604167,1.296875 -0.288846,-0.180203 -0.6576997,-0.296875 -1.0624997,-0.296875 -0.9199999,0 -1.6666666,0.56 -1.6666667,1.25 0,0.154963 0.03534,0.300522 0.1041667,0.437499 C 5.7244948,14.038139 5,14.832014 5,15.749998 c 0,1.2465 1.338,2.250001 3,2.250001 l 6,0 c 1.662,0 3,-1.003501 3,-2.250001 0,-0.987336 -0.84582,-1.820516 -2.020834,-2.124999 0.0026,-0.04271 0.02083,-0.08175 0.02083,-0.125 0,-1.38 -1.344,-2.5 -3,-2.5 z"
     id="path2876-6-6-4-0"
     style="fill:#dfdbd2;fill-opacity:1;fill-rule:nonzero;stroke:none;stroke-width:11.49051189;marker:none;visibility:visible;display:inline;overflow:visible;enable-background:accumulate" />
</svg>
