<?xml version="1.0" encoding="UTF-8" standalone="no"?>
<!-- Created with Inkscape (http://www.inkscape.org/) -->
<svg
   xmlns:svg="http://www.w3.org/2000/svg"
   xmlns="http://www.w3.org/2000/svg"
   version="1.0"
   width="22"
   height="22"
   id="svg3186">
  <defs
     id="defs3188" />
  <path
     d="M 10.896943,4.5121495 C 9.206831,4.795794 7.6985881,5.8077709 6.7108107,7.1983957 C 5.7189149,8.5949719 5.3053165,10.380774 5.586178,12.071121 C 5.8663084,13.757048 6.8194264,15.290192 8.210321,16.287903 C 9.603587,17.287304 11.400091,17.694937 13.083729,17.412379 C 14.766503,17.129984 16.308065,16.155396 17.301102,14.757368 C 17.384583,14.639851 17.4574,14.511805 17.48854,14.351307 C 17.519681,14.190809 17.487005,14.000785 17.394821,13.851541 C 17.210452,13.553052 16.94194,13.49822 16.707546,13.44548 C 16.238757,13.34 15.658719,13.334017 15.051836,13.320538 C 14.444954,13.30706 13.832473,13.263462 13.396127,13.164361 C 13.177954,13.11481 13.012953,13.067875 12.92753,13.008184 C 12.842107,12.948493 12.84327,12.90894 12.833811,12.852007 L 12.802571,12.852007 C 12.808028,11.841145 12.504462,11.081307 12.115296,10.603057 C 11.707739,10.102206 11.232237,9.8077649 11.178102,9.7597003 C 11.085279,9.6772654 11.013094,9.4026483 11.084382,8.9163439 C 11.155671,8.4300396 11.331914,7.820131 11.521739,7.2296312 C 11.711565,6.6391314 11.915476,6.1012726 11.959097,5.6053892 C 11.980907,5.3574475 11.969066,5.0876225 11.771658,4.8245037 C 11.574249,4.5613849 11.188933,4.4631492 10.896943,4.5121495 z M 9.2882413,11.50011 C 8.4059122,11.491539 7.5967382,11.982422 7.1500329,12.636573 C 6.3622482,12.1597 5.2050615,12.576101 4.9110454,13.352863 C 4.6707598,13.719703 5.0941151,14.20341 4.5183422,14.348158 C 3.5327474,14.988683 3.2073178,16.270347 3.7872096,17.222383 C 4.2520793,18.053977 5.3066862,18.562943 6.3459611,18.49373 C 7.9203281,18.489356 9.495188,18.50259 11.069239,18.486913 C 12.37435,18.422072 13.492341,17.380851 13.498006,16.222546 C 13.541656,15.302389 12.863854,14.425131 11.919883,14.064438 C 11.948318,12.886845 10.9845,11.682079 9.6238673,11.520889 C 9.5127243,11.507015 9.4004805,11.500104 9.2882413,11.50011 z"
     id="path3184"
     style="opacity:0.6;fill:none;fill-opacity:1;fill-rule:nonzero;stroke:#3a3935;stroke-width:1.00000012;stroke-linecap:round;stroke-linejoin:miter;marker:none;marker-start:none;marker-mid:none;marker-end:none;stroke-miterlimit:4;stroke-dasharray:none;stroke-dashoffset:0;stroke-opacity:1;visibility:visible;display:inline;overflow:visible;enable-background:accumulate" />
  <path
     d="M 9.2499997,11.999999 C 8.4052719,11.999999 7.6815979,12.455365 7.296875,13.111606 C 7.0802401,12.957147 6.8036,12.857142 6.5000001,12.857142 C 5.8100001,12.857142 5.2500002,13.337142 5.2500001,13.92857 C 5.2500001,14.061396 5.2765049,14.186161 5.3281251,14.30357 C 4.5433713,14.604119 4.0000002,15.284583 4.0000002,16.071427 C 4.0000002,17.139856 5.0035002,17.999999 6.2500002,17.999999 L 10.75,17.999999 C 11.9965,17.999999 13,17.139856 13,16.071427 C 13,15.225139 12.365635,14.510985 11.484374,14.249999 C 11.486332,14.213388 11.5,14.179929 11.5,14.142856 C 11.5,12.959999 10.492,11.999999 9.2499997,11.999999 z"
     id="rect3193"
     style="fill:#eae3d1;fill-opacity:1;fill-rule:evenodd;stroke:none;stroke-width:4;stroke-linecap:butt;stroke-linejoin:miter;marker:none;marker-start:none;marker-mid:none;marker-end:none;stroke-miterlimit:4;stroke-dasharray:none;stroke-dashoffset:0;stroke-opacity:1;visibility:visible;display:inline;overflow:visible;enable-background:accumulate" />
  <path
     d="M 11,4.999999 C 9.4490248,5.2603292 8.0385871,6.1823917 7.1250002,7.468749 C 6.2417571,8.7125177 5.8529617,10.299487 6.0625002,11.812499 C 6.2033133,11.786661 6.3537656,11.781249 6.5000002,11.781249 C 6.7115103,11.781249 6.8204116,11.887165 7.0000002,11.937499 C 7.5975809,11.363745 8.3468622,10.937499 9.2500002,10.937499 C 10.865109,10.937499 12.174891,12.124633 12.4375,13.656249 C 13.328821,14.166268 14.0625,14.962152 14.0625,16.062499 C 14.0625,16.257553 14.037905,16.44286 14,16.624999 C 15.149381,16.210748 16.196317,15.468356 16.90625,14.468749 C 17.819937,13.182382 12.60273,14.496391 12.34375,12.937499 C 12.414827,10.973191 11.177711,10.42155 10.84375,10.124999 C 9.6654776,9.0784364 12.551076,4.7396689 11,4.999999 z"
     id="path2876-6-6-4"
     style="fill:#eae3d1;fill-opacity:1;stroke:none;stroke-width:2;stroke-linecap:round;stroke-miterlimit:4;stroke-dasharray:none;stroke-dashoffset:0;stroke-opacity:1;display:inline" />
</svg>
