<?xml version="1.0" encoding="UTF-8" standalone="no"?>
<!-- Created with Inkscape (http://www.inkscape.org/) -->

<svg
   xmlns:dc="http://purl.org/dc/elements/1.1/"
   xmlns:cc="http://creativecommons.org/ns#"
   xmlns:rdf="http://www.w3.org/1999/02/22-rdf-syntax-ns#"
   xmlns:svg="http://www.w3.org/2000/svg"
   xmlns="http://www.w3.org/2000/svg"
   xmlns:xlink="http://www.w3.org/1999/xlink"
   xmlns:sodipodi="http://sodipodi.sourceforge.net/DTD/sodipodi-0.dtd"
   xmlns:inkscape="http://www.inkscape.org/namespaces/inkscape"
   width="64"
   height="64"
   id="svg4383"
   version="1.1"
   inkscape:version="0.48.2 r9819"
   sodipodi:docname="show-desktop.svg">
  <defs
     id="defs4385">
    <filter
       color-interpolation-filters="sRGB"
       inkscape:collect="always"
       id="filter4184"
       x="-0.071984246"
       width="1.1439685"
       y="-1.727622"
       height="4.4552441">
      <feGaussianBlur
         inkscape:collect="always"
         stdDeviation="2.87937"
         id="feGaussianBlur4186" />
    </filter>
    <filter
       color-interpolation-filters="sRGB"
       inkscape:collect="always"
       id="filter4180">
      <feGaussianBlur
         inkscape:collect="always"
         stdDeviation="2.87937"
         id="feGaussianBlur4182" />
    </filter>
    <filter
       color-interpolation-filters="sRGB"
       inkscape:collect="always"
       id="filter4188">
      <feGaussianBlur
         inkscape:collect="always"
         stdDeviation="1.2"
         id="feGaussianBlur4190" />
    </filter>
  </defs>
  <sodipodi:namedview
     id="base"
     pagecolor="#ffffff"
     bordercolor="#666666"
     borderopacity="1.0"
     inkscape:pageopacity="0.0"
     inkscape:pageshadow="2"
     inkscape:zoom="5.6844756"
     inkscape:cx="32"
     inkscape:cy="15.340137"
     inkscape:document-units="px"
     inkscape:current-layer="layer1"
     showgrid="true"
     inkscape:window-width="1400"
     inkscape:window-height="1026"
     inkscape:window-x="0"
     inkscape:window-y="24"
     inkscape:window-maximized="1">
    <inkscape:grid
       type="xygrid"
       id="grid4635"
       empspacing="5"
       visible="true"
       enabled="true"
       snapvisiblegridlinesonly="true" />
  </sodipodi:namedview>
  <metadata
     id="metadata4388">
    <rdf:RDF>
      <cc:Work
         rdf:about="">
        <dc:format>image/svg+xml</dc:format>
        <dc:type
           rdf:resource="http://purl.org/dc/dcmitype/StillImage" />
        <dc:title></dc:title>
      </cc:Work>
    </rdf:RDF>
  </metadata>
  <g
     inkscape:label="Layer 1"
     inkscape:groupmode="layer"
     id="layer1"
     transform="translate(0,-988.36217)">
    <g
       id="g4686"
       transform="translate(-7,-66.00003)">
      <image
         width="42"
         height="26"
         xlink:href="file:///usr/share/backgrounds/warty-final-ubuntu.png"
         id="image4458"
         x="18"
         y="1073.3622" />
      <path
         id="path4494"
         style="opacity:0.5;fill:#ffffff;fill-opacity:1;stroke:none;filter:url(#filter4188)"
         d="M 58,1077.3622 H 20 v -2 h 38 v 2 z m 2,-7 H 18 c -1.656,0 -3,1.343 -3,3 v 26 c 0,1.657 1.344,3 3,3 h 42 c 1.656,0 3,-1.343 3,-3 v -26 c 0,-1.656 -1.344,-3 -3,-3 z m 0,29 H 18 v -26 h 42 v 26 z"
         inkscape:connector-curvature="0" />
      <path
         d="M 58,1077.3622 H 20 v -2 h 38 v 2 z m 2,-7 H 18 c -1.656,0 -3,1.343 -3,3 v 26 c 0,1.657 1.344,3 3,3 h 42 c 1.656,0 3,-1.343 3,-3 v -26 c 0,-1.656 -1.344,-3 -3,-3 z m 0,29 H 18 v -26 h 42 v 26 z"
         style="fill:#ffffff;fill-opacity:1;stroke:none"
         id="path4530"
         inkscape:connector-curvature="0" />
    </g>
  </g>
</svg>
