<?xml version="1.0" encoding="UTF-8" standalone="no"?>
<!-- Created with Inkscape (http://www.inkscape.org/) -->

<svg
   xmlns:dc="http://purl.org/dc/elements/1.1/"
   xmlns:cc="http://creativecommons.org/ns#"
   xmlns:rdf="http://www.w3.org/1999/02/22-rdf-syntax-ns#"
   xmlns:svg="http://www.w3.org/2000/svg"
   xmlns="http://www.w3.org/2000/svg"
   xmlns:sodipodi="http://sodipodi.sourceforge.net/DTD/sodipodi-0.dtd"
   xmlns:inkscape="http://www.inkscape.org/namespaces/inkscape"
   width="90"
   height="90"
   id="svg4479"
   version="1.1"
   inkscape:version="0.48+devel r"
   viewBox="0 0 90 90.000001"
   sodipodi:docname="calendar-app-symbolic.svg">
  <defs
     id="defs4481" />
  <sodipodi:namedview
     id="base"
     pagecolor="#ffffff"
     bordercolor="#666666"
     borderopacity="1.0"
     inkscape:pageopacity="0.0"
     inkscape:pageshadow="2"
     inkscape:zoom="6.3664629"
     inkscape:cx="40.831151"
     inkscape:cy="39.315393"
     inkscape:document-units="px"
     inkscape:current-layer="layer1"
     showgrid="true"
     fit-margin-top="0"
     fit-margin-left="0"
     fit-margin-right="0"
     fit-margin-bottom="0"
     showguides="true"
     inkscape:guide-bbox="true"
     inkscape:snap-bbox="true"
     inkscape:bbox-paths="true"
     inkscape:bbox-nodes="true"
     inkscape:snap-bbox-edge-midpoints="true"
     inkscape:snap-bbox-midpoints="true"
     inkscape:object-paths="true"
     inkscape:snap-intersection-paths="true"
     inkscape:object-nodes="true"
     inkscape:snap-smooth-nodes="true"
     inkscape:snap-midpoints="true"
     inkscape:snap-object-midpoints="true"
     inkscape:snap-center="true">
    <inkscape:grid
       type="xygrid"
       id="grid5053"
       empspacing="6" />
    <sodipodi:guide
       orientation="1,0"
       position="3,47"
       id="guide5055" />
    <sodipodi:guide
       orientation="1,0"
       position="6,42"
       id="guide5057" />
    <sodipodi:guide
       orientation="1,0"
       position="9,39"
       id="guide5059" />
    <sodipodi:guide
       orientation="0,1"
       position="35,87"
       id="guide5061" />
    <sodipodi:guide
       orientation="0,1"
       position="37,84"
       id="guide5063" />
    <sodipodi:guide
       orientation="0,1"
       position="39,81"
       id="guide5065" />
    <sodipodi:guide
       orientation="1,0"
       position="87,72"
       id="guide5067" />
    <sodipodi:guide
       orientation="1,0"
       position="84,70"
       id="guide5069" />
    <sodipodi:guide
       orientation="1,0"
       position="81,66"
       id="guide5071" />
    <sodipodi:guide
       orientation="0,1"
       position="92,3"
       id="guide5073" />
    <sodipodi:guide
       orientation="0,1"
       position="93,6"
       id="guide5075" />
    <sodipodi:guide
       orientation="0,1"
       position="94,9"
       id="guide5077" />
  </sodipodi:namedview>
  <metadata
     id="metadata4484">
    <rdf:RDF>
      <cc:Work
         rdf:about="">
        <dc:format>image/svg+xml</dc:format>
        <dc:type
           rdf:resource="http://purl.org/dc/dcmitype/StillImage" />
        <dc:title></dc:title>
      </cc:Work>
    </rdf:RDF>
  </metadata>
  <g
     inkscape:label="Layer 1"
     inkscape:groupmode="layer"
     id="layer1"
     transform="translate(833.57146,-695.93359)">
    <rect
       style="fill:none;stroke:none"
       id="rect4682"
       width="90"
       height="90"
       x="-833.57147"
       y="695.93359" />
    <path
       style="font-size:15px;font-style:normal;font-variant:normal;font-weight:normal;font-stretch:normal;text-align:center;line-height:125%;letter-spacing:0px;word-spacing:0px;writing-mode:lr-tb;text-anchor:middle;fill:#808080;fill-opacity:1;stroke:none;display:inline;font-family:Ubuntu;-inkscape-font-specification:Ubuntu"
       d="M 18 9 C 8.0000001 9 3 8.9998033 3 20.626953 L 3 44 L 27.466797 44 C 27.647662 43.820774 27.845855 43.632662 28.023438 43.455078 C 28.894986 42.583538 29.6474 41.732321 30.28125 40.900391 C 30.95472 40.028841 31.490559 39.156696 31.886719 38.285156 C 32.282879 37.373986 32.480469 36.442956 32.480469 35.492188 C 32.480469 33.432168 31.885736 31.967253 30.697266 31.095703 C 29.508796 30.224163 28.062855 29.787109 26.359375 29.787109 C 25.250135 29.787109 24.220311 29.946742 23.269531 30.263672 C 22.318761 30.580592 21.467544 30.956808 20.714844 31.392578 C 20.001764 31.828348 19.36712 32.282424 18.8125 32.757812 C 18.25788 33.193582 17.841763 33.550815 17.564453 33.828125 L 14 28.777344 C 15.66386 27.192724 17.605739 25.925379 19.824219 24.974609 C 22.081731 23.984473 24.497986 23.488535 27.072266 23.488281 L 27.074219 23.488281 C 31.470529 23.488602 34.700061 24.539353 36.759766 26.638672 C 38.859396 28.698682 39.908203 31.529736 39.908203 35.134766 C 39.908203 36.560926 39.611818 37.968919 39.017578 39.355469 C 38.423348 40.702399 37.649989 42.028618 36.699219 43.335938 C 36.538875 43.559021 36.350581 43.778149 36.181641 44 L 53.320312 44 C 51.964062 42.933019 50.896248 41.803373 50.150391 40.603516 C 49.278851 39.098126 48.84375 37.274016 48.84375 35.134766 C 48.84375 33.589756 49.140135 32.124831 49.734375 30.738281 C 50.368225 29.312121 51.259353 28.063771 52.408203 26.994141 C 53.557063 25.924521 54.944109 25.073303 56.568359 24.439453 C 58.192599 23.805603 59.995775 23.488281 61.976562 23.488281 C 64.313882 23.488281 66.293719 23.824587 67.917969 24.498047 C 69.581829 25.171517 70.928984 26.043651 71.958984 27.113281 C 73.028614 28.182901 73.801954 29.372368 74.277344 30.679688 C 74.752734 31.987005 74.990234 33.254332 74.990234 34.482422 C 74.990234 36.661282 74.395501 38.601218 73.207031 40.304688 C 72.124309 41.820498 70.886365 43.04298 69.507812 44 L 87 44 L 87 20.626953 C 87 8.9998033 82 9 72 9 L 18 9 z M 61.976562 29.371094 C 60.906936 29.371094 59.975904 29.54971 59.183594 29.90625 C 58.430894 30.22317 57.817177 30.658271 57.341797 31.212891 C 56.866407 31.727901 56.509174 32.30365 56.271484 32.9375 C 56.033784 33.53174 55.914062 34.126473 55.914062 34.720703 C 55.914062 36.226103 56.468885 37.651107 57.578125 38.998047 C 58.726985 40.344977 60.628943 41.414711 63.283203 42.207031 C 64.748983 41.295871 65.898549 40.266034 66.730469 39.117188 C 67.562399 37.928718 67.978516 36.423882 67.978516 34.601562 C 67.978516 34.086566 67.858784 33.53174 67.621094 32.9375 C 67.423014 32.30365 67.065781 31.727901 66.550781 31.212891 C 66.075391 30.697891 65.461674 30.26279 64.708984 29.90625 C 63.956284 29.54971 63.046182 29.371094 61.976562 29.371094 z M 3 46 L 3 69.373047 C 3 81.000247 8.0000001 81 18 81 L 72 81 C 82 81 87 81.000247 87 69.373047 L 87 46 L 71.707031 46 C 72.761449 46.830535 73.6349 47.719928 74.277344 48.683594 C 75.426194 50.347454 76 52.308306 76 54.566406 C 76 56.269876 75.703615 57.854535 75.109375 59.320312 C 74.515145 60.786092 73.622064 62.05538 72.433594 63.125 C 71.245114 64.19463 69.761226 65.024901 67.978516 65.619141 C 66.235426 66.213371 64.213726 66.511719 61.916016 66.511719 C 59.222146 66.511719 56.983882 66.135512 55.201172 65.382812 C 53.418472 64.630115 51.993458 63.678147 50.923828 62.529297 C 49.854208 61.380437 49.080859 60.153023 48.605469 58.845703 C 48.169689 57.498773 47.951172 56.231439 47.951172 55.042969 C 47.951172 53.854499 48.110804 52.763825 48.427734 51.773438 C 48.784274 50.743428 49.259286 49.812399 49.853516 48.980469 C 50.447756 48.108929 51.1223 47.318559 51.875 46.605469 C 52.100819 46.391536 52.337608 46.19977 52.570312 46 L 34.527344 46 C 34.205086 46.360559 33.896479 46.722855 33.550781 47.080078 C 32.362311 48.268548 31.172845 49.437078 29.984375 50.585938 C 29.350515 51.180166 28.638023 51.892679 27.845703 52.724609 C 27.053393 53.556539 26.300971 54.388773 25.587891 55.220703 C 24.874811 56.052633 24.261094 56.86393 23.746094 57.65625 C 23.231094 58.40895 22.953662 59.043594 22.914062 59.558594 L 41.214844 59.558594 L 41.214844 65.619141 L 15.009766 65.619141 C 14.970166 65.302211 14.951172 64.926014 14.951172 64.490234 L 14.951172 63.421875 C 14.951172 61.520325 15.247567 59.776036 15.841797 58.191406 C 16.475647 56.567166 17.288907 55.062341 18.279297 53.675781 C 19.269687 52.289241 20.377379 50.981996 21.605469 49.753906 C 22.833549 48.525826 24.062936 47.317376 25.291016 46.128906 C 25.336698 46.085127 25.376376 46.043687 25.421875 46 L 3 46 z M 59.777344 47.019531 C 58.351174 47.930691 57.201618 49.040336 56.330078 50.347656 C 55.458528 51.615356 55.023437 53.141118 55.023438 54.923828 C 55.023436 55.518068 55.143169 56.152712 55.380859 56.826172 C 55.618549 57.499642 56.013739 58.113349 56.568359 58.667969 C 57.122979 59.222589 57.835491 59.69759 58.707031 60.09375 C 59.578581 60.45029 60.669246 60.628906 61.976562 60.628906 C 63.165032 60.628906 64.194856 60.469264 65.066406 60.152344 C 65.937946 59.835414 66.650458 59.419307 67.205078 58.904297 C 67.759698 58.349677 68.175815 57.73597 68.453125 57.0625 C 68.730435 56.34942 68.869141 55.636908 68.869141 54.923828 C 68.869141 53.814588 68.650614 52.843649 68.214844 52.011719 C 67.779064 51.179789 67.146383 50.467277 66.314453 49.873047 C 65.522143 49.239187 64.570174 48.703348 63.460938 48.267578 C 62.351698 47.792188 61.124274 47.376071 59.777344 47.019531 z "
       transform="translate(-833.57146,695.93359)"
       id="path4684" />
  </g>
</svg>
