<?xml version="1.0" encoding="UTF-8" standalone="no"?>
<!-- Created with Inkscape (http://www.inkscape.org/) -->

<svg
   xmlns:dc="http://purl.org/dc/elements/1.1/"
   xmlns:cc="http://creativecommons.org/ns#"
   xmlns:rdf="http://www.w3.org/1999/02/22-rdf-syntax-ns#"
   xmlns:svg="http://www.w3.org/2000/svg"
   xmlns="http://www.w3.org/2000/svg"
   xmlns:sodipodi="http://sodipodi.sourceforge.net/DTD/sodipodi-0.dtd"
   xmlns:inkscape="http://www.inkscape.org/namespaces/inkscape"
   width="90"
   height="90"
   id="svg4479"
   version="1.1"
   inkscape:version="0.48+devel r"
   viewBox="0 0 90 90.000001"
   sodipodi:docname="phone-app-symbolic.svg">
  <defs
     id="defs4481" />
  <sodipodi:namedview
     id="base"
     pagecolor="#ffffff"
     bordercolor="#666666"
     borderopacity="1.0"
     inkscape:pageopacity="0.0"
     inkscape:pageshadow="2"
     inkscape:zoom="5.0931703"
     inkscape:cx="54.9854"
     inkscape:cy="25.544009"
     inkscape:document-units="px"
     inkscape:current-layer="layer1"
     showgrid="true"
     fit-margin-top="0"
     fit-margin-left="0"
     fit-margin-right="0"
     fit-margin-bottom="0"
     showguides="true"
     inkscape:guide-bbox="true">
    <inkscape:grid
       type="xygrid"
       id="grid5053"
       empspacing="6" />
    <sodipodi:guide
       orientation="1,0"
       position="3,47"
       id="guide5055" />
    <sodipodi:guide
       orientation="1,0"
       position="6,42"
       id="guide5057" />
    <sodipodi:guide
       orientation="1,0"
       position="9,39"
       id="guide5059" />
    <sodipodi:guide
       orientation="0,1"
       position="35,87"
       id="guide5061" />
    <sodipodi:guide
       orientation="0,1"
       position="37,84"
       id="guide5063" />
    <sodipodi:guide
       orientation="0,1"
       position="39,81"
       id="guide5065" />
    <sodipodi:guide
       orientation="1,0"
       position="87,72"
       id="guide5067" />
    <sodipodi:guide
       orientation="1,0"
       position="84,70"
       id="guide5069" />
    <sodipodi:guide
       orientation="1,0"
       position="81,66"
       id="guide5071" />
    <sodipodi:guide
       orientation="0,1"
       position="92,3"
       id="guide5073" />
    <sodipodi:guide
       orientation="0,1"
       position="93,6"
       id="guide5075" />
    <sodipodi:guide
       orientation="0,1"
       position="94,9"
       id="guide5077" />
  </sodipodi:namedview>
  <metadata
     id="metadata4484">
    <rdf:RDF>
      <cc:Work
         rdf:about="">
        <dc:format>image/svg+xml</dc:format>
        <dc:type
           rdf:resource="http://purl.org/dc/dcmitype/StillImage" />
        <dc:title></dc:title>
      </cc:Work>
    </rdf:RDF>
  </metadata>
  <g
     inkscape:label="Layer 1"
     inkscape:groupmode="layer"
     id="layer1"
     transform="translate(833.57146,-695.93359)">
    <rect
       style="fill:none;stroke:none"
       id="rect4213"
       width="90"
       height="90"
       x="-833.57147"
       y="695.93359" />
    <path
       style="color:#000000;fill:#808080;fill-opacity:1;fill-rule:nonzero;stroke:none;stroke-width:12;marker:none;visibility:visible;display:inline;overflow:visible;enable-background:accumulate"
       d="m -828.5594,762.7461 c 1.76697,7.80448 4.39502,21.14485 16.27261,17.59943 15.09577,-4.50621 26.83379,-15.20868 37.34728,-25.71835 l 2.6e-4,3.1e-4 c 0.0104,-0.0154 0.0209,-0.0215 0.0312,-0.0308 0.0103,-0.0155 0.0209,-0.0215 0.0312,-0.0308 l -2.9e-4,-3e-4 c 10.50948,-10.51342 21.21207,-22.25143 25.71822,-37.34722 3.54551,-11.87758 -9.79493,-14.50562 -17.59943,-16.27261 l -11.08529,25.20875 5.32639,8.87785 c -2.33212,3.65538 -6.18409,7.96725 -10.08503,11.87063 -3.90332,3.90095 -8.21526,7.75284 -11.87064,10.08495 l -8.87783,-5.32632 -25.20876,11.08524 z"
       id="path4217"
       inkscape:connector-curvature="0"
       inkscape:transform-center-x="-0.262362"
       inkscape:transform-center-y="0.25285592" />
    <path
       style="color:#000000;fill:#808080;fill-opacity:1;fill-rule:nonzero;stroke:none;stroke-width:10;marker:none;visibility:visible;display:inline;overflow:visible;enable-background:accumulate"
       d="m -822.68977,701.9336 c -3.25392,0 -4.88167,-6e-5 -4.88167,3.79022 l 0,4.55192 c 0,3.79027 1.62775,3.78972 4.88167,3.78972 l 2.36952,0 c 3.25391,0 4.88068,5.5e-4 4.88068,-3.78972 l 0,-4.55192 c 0,-3.65491 -1.62677,-3.79022 -4.88068,-3.79022 l -2.36952,0 z m 16.93407,0 c -3.25392,0 -4.88167,-6e-5 -4.88167,3.79022 l 0,4.55192 c 0,3.79027 1.62775,3.78972 4.88167,3.78972 l 2.36951,0 c 3.25392,0 4.88069,5.5e-4 4.88069,-3.78972 l 0,-4.55192 c 0,-3.65491 -1.62677,-3.79022 -4.88069,-3.79022 l -2.36951,0 z m 16.93408,0 c -3.25393,0 -4.88168,-6e-5 -4.88168,3.79022 l 0,4.55192 c 0,3.79027 1.62775,3.78972 4.88168,3.78972 l 2.3695,0 c 3.25392,0 4.8807,5.5e-4 4.8807,-3.78972 l 0,-4.55192 c 0,-3.65491 -1.62678,-3.79022 -4.8807,-3.79022 l -2.3695,0 z m -33.86815,16.93406 c -3.25392,0 -4.88167,-5e-5 -4.88167,3.79023 l 0,4.55191 c 0,3.79028 1.62775,3.78974 4.88167,3.78974 l 2.36952,0 c 3.25391,0 4.88068,5.4e-4 4.88068,-3.78974 l 0,-4.55191 c 0,-3.65491 -1.62677,-3.79023 -4.88068,-3.79023 l -2.36952,0 z m 16.93407,0 c -3.25392,0 -4.88167,-5e-5 -4.88167,3.79023 l 0,4.55191 c 0,3.79028 1.62775,3.78974 4.88167,3.78974 l 2.36951,0 c 3.25392,0 4.88069,5.4e-4 4.88069,-3.78974 l 0,-4.55191 c 0,-3.65491 -1.62677,-3.79023 -4.88069,-3.79023 l -2.36951,0 z m -16.93407,16.93407 c -3.25392,0 -4.88167,-5e-5 -4.88167,3.79022 l 0,4.55192 c 0,3.79028 1.62775,3.78974 4.88167,3.78974 l 2.36952,0 c 3.25391,0 4.88068,5.4e-4 4.88068,-3.78974 l 0,-4.55192 c 0,-3.65489 -1.62677,-3.79022 -4.88068,-3.79022 l -2.36952,0 z"
       id="path4245"
       inkscape:connector-curvature="0" />
  </g>
</svg>
