<?xml version="1.0" encoding="UTF-8" standalone="no"?>
<!-- Created with Inkscape (http://www.inkscape.org/) -->

<svg
   xmlns:dc="http://purl.org/dc/elements/1.1/"
   xmlns:cc="http://creativecommons.org/ns#"
   xmlns:rdf="http://www.w3.org/1999/02/22-rdf-syntax-ns#"
   xmlns:svg="http://www.w3.org/2000/svg"
   xmlns="http://www.w3.org/2000/svg"
   xmlns:sodipodi="http://sodipodi.sourceforge.net/DTD/sodipodi-0.dtd"
   xmlns:inkscape="http://www.inkscape.org/namespaces/inkscape"
   width="90"
   height="90"
   id="svg4479"
   version="1.1"
   inkscape:version="0.48+devel r"
   viewBox="0 0 90 90.000001"
   sodipodi:docname="ebay-symbolic.svg">
  <defs
     id="defs4481" />
  <sodipodi:namedview
     id="base"
     pagecolor="#ffffff"
     bordercolor="#666666"
     borderopacity="1.0"
     inkscape:pageopacity="0.0"
     inkscape:pageshadow="2"
     inkscape:zoom="6.3664629"
     inkscape:cx="40.831151"
     inkscape:cy="39.315393"
     inkscape:document-units="px"
     inkscape:current-layer="layer1"
     showgrid="true"
     fit-margin-top="0"
     fit-margin-left="0"
     fit-margin-right="0"
     fit-margin-bottom="0"
     showguides="true"
     inkscape:guide-bbox="true"
     inkscape:snap-bbox="true"
     inkscape:bbox-paths="true"
     inkscape:bbox-nodes="true"
     inkscape:snap-bbox-edge-midpoints="true"
     inkscape:snap-bbox-midpoints="true"
     inkscape:object-paths="true"
     inkscape:snap-intersection-paths="true"
     inkscape:object-nodes="true"
     inkscape:snap-smooth-nodes="true"
     inkscape:snap-midpoints="true"
     inkscape:snap-object-midpoints="true"
     inkscape:snap-center="true">
    <inkscape:grid
       type="xygrid"
       id="grid5053"
       empspacing="6" />
    <sodipodi:guide
       orientation="1,0"
       position="3,47"
       id="guide5055" />
    <sodipodi:guide
       orientation="1,0"
       position="6,42"
       id="guide5057" />
    <sodipodi:guide
       orientation="1,0"
       position="9,39"
       id="guide5059" />
    <sodipodi:guide
       orientation="0,1"
       position="35,87"
       id="guide5061" />
    <sodipodi:guide
       orientation="0,1"
       position="37,84"
       id="guide5063" />
    <sodipodi:guide
       orientation="0,1"
       position="39,81"
       id="guide5065" />
    <sodipodi:guide
       orientation="1,0"
       position="87,72"
       id="guide5067" />
    <sodipodi:guide
       orientation="1,0"
       position="84,70"
       id="guide5069" />
    <sodipodi:guide
       orientation="1,0"
       position="81,66"
       id="guide5071" />
    <sodipodi:guide
       orientation="0,1"
       position="92,3"
       id="guide5073" />
    <sodipodi:guide
       orientation="0,1"
       position="93,6"
       id="guide5075" />
    <sodipodi:guide
       orientation="0,1"
       position="94,9"
       id="guide5077" />
  </sodipodi:namedview>
  <metadata
     id="metadata4484">
    <rdf:RDF>
      <cc:Work
         rdf:about="">
        <dc:format>image/svg+xml</dc:format>
        <dc:type
           rdf:resource="http://purl.org/dc/dcmitype/StillImage" />
        <dc:title></dc:title>
      </cc:Work>
    </rdf:RDF>
  </metadata>
  <g
     inkscape:label="Layer 1"
     inkscape:groupmode="layer"
     id="layer1"
     transform="translate(833.57146,-695.93359)">
    <rect
       y="695.93359"
       x="-833.57147"
       height="90"
       width="90"
       id="rect4969"
       style="fill:none;stroke:none" />
    <path
       style="font-size:15px;font-style:normal;font-variant:normal;font-weight:normal;font-stretch:normal;text-align:center;line-height:125%;letter-spacing:0px;word-spacing:0px;writing-mode:lr-tb;text-anchor:middle;fill:#808080;fill-opacity:1;stroke:none;display:inline;font-family:Ubuntu;-inkscape-font-specification:Ubuntu"
       d="M 21 6 C 11 6 6 5.9997533 6 17.626953 L 6 45.568359 C 6 38.526659 10.584488 36.191406 16.085938 36.191406 C 23.429247 36.191406 25.537463 41.033744 25.601562 44.277344 L 25.601562 29.373047 L 29.578125 29.373047 L 29.578125 39.175781 C 29.578125 39.175781 31.263683 36.246094 36.689453 36.246094 C 42.483323 36.246094 45.914062 40.337581 45.914062 45.425781 C 45.914062 46.057781 45.862425 46.667153 45.765625 47.251953 C 46.691435 44.604353 49.937296 43.294922 55.291016 43.294922 L 60.121094 43.294922 L 60.121094 42.443359 C 60.121094 40.048659 58.012446 38.802734 55.291016 38.802734 C 51.103366 38.802734 50.886719 41.449219 50.886719 41.449219 L 46.767578 41.449219 C 46.767578 40.724919 47.297729 36.191406 55.574219 36.191406 C 58.403059 36.191406 61.497903 36.786953 63.064453 39.126953 L 61.878906 36.902344 L 66.513672 36.902344 L 73.166016 50.228516 L 79.800781 36.902344 L 84 36.902344 L 84 17.626953 C 84 5.9997533 79 6 69 6 L 21 6 z M 84 36.902344 L 71.912109 60.626953 L 67.507812 60.626953 L 70.996094 54.013672 L 63.572266 40.080078 C 63.906236 40.884178 64.097656 41.842881 64.097656 42.988281 L 64.097656 51.552734 C 64.097656 52.543434 64.240234 54.091797 64.240234 54.091797 L 60.578125 54.091797 C 60.578125 54.091797 60.480469 52.841719 60.480469 51.574219 C 60.480469 51.574219 58.621996 54.761719 52.853516 54.761719 C 48.620936 54.761719 45.488281 52.722562 45.488281 48.976562 C 45.488281 48.761063 45.501738 48.552809 45.523438 48.349609 C 44.431188 52.207509 41.135141 54.712891 36.681641 54.712891 C 31.459941 54.712891 29.539062 51.708984 29.539062 51.708984 C 29.539062 52.846984 29.400391 54.091797 29.400391 54.091797 L 25.513672 54.091797 C 25.513672 54.091797 25.601562 52.357647 25.601562 51.123047 L 25.601562 46.488281 L 10.029297 46.488281 C 10.029297 49.764781 12.519609 52.101562 15.980469 52.101562 C 20.229579 52.101562 21.101562 49.119141 21.101562 49.119141 L 25.177734 49.119141 C 25.177734 49.119141 24.638896 54.660156 16.228516 54.660156 C 9.0831757 54.660156 6 51.147159 6 45.568359 L 6 72.373047 C 6 84.000247 11 84 21 84 L 69 84 C 79 84 84 84.000247 84 72.373047 L 84 36.902344 z M 15.943359 38.820312 C 13.050429 38.820312 10.119141 40.652181 10.119141 43.863281 L 21.484375 43.863281 C 21.484375 40.838681 19.237649 38.820312 15.943359 38.820312 z M 35.6875 38.935547 C 31.50823 38.935547 29.578125 42.246838 29.578125 45.460938 C 29.578125 48.910237 31.727611 52.023438 35.712891 52.023438 C 39.052301 52.023438 41.794922 49.413581 41.794922 45.425781 C 41.794922 41.706681 39.4215 38.935547 35.6875 38.935547 z M 60.121094 45.851562 C 53.866244 45.851562 49.607422 45.871363 49.607422 48.976562 C 49.607422 50.683462 50.871803 52.15625 53.820312 52.15625 C 59.204922 52.15625 60.121094 48.470581 60.121094 46.988281 L 60.121094 45.851562 z "
       transform="translate(-833.57146,695.93359)"
       id="path4971" />
  </g>
</svg>
