<?xml version="1.0" encoding="UTF-8" standalone="no"?>
<!-- Created with Inkscape (http://www.inkscape.org/) -->

<svg
   xmlns:dc="http://purl.org/dc/elements/1.1/"
   xmlns:cc="http://creativecommons.org/ns#"
   xmlns:rdf="http://www.w3.org/1999/02/22-rdf-syntax-ns#"
   xmlns:svg="http://www.w3.org/2000/svg"
   xmlns="http://www.w3.org/2000/svg"
   xmlns:sodipodi="http://sodipodi.sourceforge.net/DTD/sodipodi-0.dtd"
   xmlns:inkscape="http://www.inkscape.org/namespaces/inkscape"
   width="90"
   height="90"
   id="svg4479"
   version="1.1"
   inkscape:version="0.48+devel r"
   viewBox="0 0 90 90.000001"
   sodipodi:docname="evernote-symbolic.svg">
  <defs
     id="defs4481" />
  <sodipodi:namedview
     id="base"
     pagecolor="#ffffff"
     bordercolor="#666666"
     borderopacity="1.0"
     inkscape:pageopacity="0.0"
     inkscape:pageshadow="2"
     inkscape:zoom="6.3664629"
     inkscape:cx="40.831151"
     inkscape:cy="39.315393"
     inkscape:document-units="px"
     inkscape:current-layer="layer1"
     showgrid="true"
     fit-margin-top="0"
     fit-margin-left="0"
     fit-margin-right="0"
     fit-margin-bottom="0"
     showguides="true"
     inkscape:guide-bbox="true"
     inkscape:snap-bbox="true"
     inkscape:bbox-paths="true"
     inkscape:bbox-nodes="true"
     inkscape:snap-bbox-edge-midpoints="true"
     inkscape:snap-bbox-midpoints="true"
     inkscape:object-paths="true"
     inkscape:snap-intersection-paths="true"
     inkscape:object-nodes="true"
     inkscape:snap-smooth-nodes="true"
     inkscape:snap-midpoints="true"
     inkscape:snap-object-midpoints="true"
     inkscape:snap-center="true">
    <inkscape:grid
       type="xygrid"
       id="grid5053"
       empspacing="6" />
    <sodipodi:guide
       orientation="1,0"
       position="3,47"
       id="guide5055" />
    <sodipodi:guide
       orientation="1,0"
       position="6,42"
       id="guide5057" />
    <sodipodi:guide
       orientation="1,0"
       position="9,39"
       id="guide5059" />
    <sodipodi:guide
       orientation="0,1"
       position="35,87"
       id="guide5061" />
    <sodipodi:guide
       orientation="0,1"
       position="37,84"
       id="guide5063" />
    <sodipodi:guide
       orientation="0,1"
       position="39,81"
       id="guide5065" />
    <sodipodi:guide
       orientation="1,0"
       position="87,72"
       id="guide5067" />
    <sodipodi:guide
       orientation="1,0"
       position="84,70"
       id="guide5069" />
    <sodipodi:guide
       orientation="1,0"
       position="81,66"
       id="guide5071" />
    <sodipodi:guide
       orientation="0,1"
       position="92,3"
       id="guide5073" />
    <sodipodi:guide
       orientation="0,1"
       position="93,6"
       id="guide5075" />
    <sodipodi:guide
       orientation="0,1"
       position="94,9"
       id="guide5077" />
  </sodipodi:namedview>
  <metadata
     id="metadata4484">
    <rdf:RDF>
      <cc:Work
         rdf:about="">
        <dc:format>image/svg+xml</dc:format>
        <dc:type
           rdf:resource="http://purl.org/dc/dcmitype/StillImage" />
        <dc:title></dc:title>
      </cc:Work>
    </rdf:RDF>
  </metadata>
  <g
     inkscape:label="Layer 1"
     inkscape:groupmode="layer"
     id="layer1"
     transform="translate(833.57146,-695.93359)">
    <rect
       y="695.93359"
       x="-833.57147"
       height="90"
       width="90"
       id="rect4801"
       style="fill:none;stroke:none" />
    <path
       style="fill:#808080;fill-opacity:1;display:inline"
       d="m -794.88498,699.00019 c -0.41175,-10e-4 -0.81243,0 -1.19793,0.018 -1.85033,0.059 -3.34273,0.2707 -4.0625,0.473 -1.52508,0.4278 -3.23198,1.3057 -4.17151,2.6564 -0.63008,0.9021 -1.0122,2.0612 -1.01536,3.6759 0,0.9138 0.0128,3.0367 0.036,4.9495 0.0231,1.9187 0.0365,3.6642 0.0365,3.6759 -10e-4,1.7082 -1.37305,3.0912 -3.08313,3.0933 l -7.83507,0 c -1.67331,0 -2.94085,0.2825 -3.91752,0.7276 -0.97815,0.4456 -1.68637,1.0365 -2.21275,1.7471 -1.0477,1.4113 -1.23768,3.1359 -1.23335,4.9131 0,0 0.0141,1.4831 0.36296,4.294 0.29,2.1749 2.6641,17.3606 4.89692,21.9813 0.86579,1.798 1.41824,2.556 3.1191,3.3484 3.78962,1.6277 12.44756,3.4119 16.50455,3.9304 4.04965,0.52 6.61029,1.6217 8.12502,-1.5647 0.007,-0.012 0.27903,-0.7772 0.68943,-1.9287 1.31507,-3.9982 1.52331,-7.5504 1.52331,-10.1175 0,-0.261 0.36244,-0.273 0.36244,0 0,1.8124 -0.33086,8.215 4.49796,9.9355 1.90627,0.6783 5.84822,1.2743 9.86633,1.7467 3.63317,0.4188 6.27524,1.8572 6.27524,11.2092 0,5.6898 -1.20924,6.4777 -7.43612,6.4777 -5.04764,0 -6.96414,0.1296 -6.96414,-3.894 0,-3.2517 3.21007,-2.9113 5.58582,-2.9113 1.06111,0 0.29048,-0.796 0.29048,-2.8022 0,-1.9957 1.24906,-3.137 0.0725,-3.1664 -8.21511,-0.2267 -13.05844,-0.011 -13.05844,10.2996 0,9.3578 3.57522,11.0998 15.23467,11.0998 9.14166,0 12.36694,-0.2957 16.14158,-12.0463 0.7472,-2.3197 2.57034,-9.4035 3.66355,-21.2899 0.69133,-7.5152 -0.67565,-30.1947 -1.74077,-35.9198 -0.62304,-3.3462 -2.59674,-5.0293 -4.3895,-5.6777 -1.9342,-0.7013 -5.84488,-1.4189 -10.77268,-2.0017 -3.96451,-0.4684 -8.64796,-0.4148 -11.46265,-0.3275 -0.3378,-2.3215 -1.9561,-4.4333 -3.77203,-5.1675 -2.64596,-1.0686 -6.07665,-1.4293 -8.95889,-1.4369 z m -11.94806,2.2713 c -0.0301,0 -0.0603,0.02 -0.0902,0.05 l -15.24005,15.1621 c -0.0297,0.025 -0.0485,0.057 -0.0569,0.09 0.31518,-0.1565 0.74608,-0.3705 0.80702,-0.3974 1.32692,-0.6006 2.93608,-0.9298 4.86201,-0.9299 l 10e-4,0 0.005,0 6.96038,0 c 1.09946,0 1.6946,-0.7082 1.6946,-1.6973 0,0 -0.0951,-5.8645 -0.0951,-7.74 l 0,-0.023 c 0,-1.5404 0.32202,-2.8833 0.88327,-4.0088 l 0.26846,-0.5052 z m 36.44284,32.5661 c 0.10383,10e-4 0.20999,0 0.31519,0.011 3.72668,0.1286 4.23074,3.6479 4.24399,6.0416 -1.57133,-0.703 -3.50356,-1.163 -5.62232,-1.2376 -1.12939,-0.039 -2.21512,0.056 -3.2281,0.2185 0.26726,-2.1657 1.11063,-4.8005 3.99003,-5.0225 0.096,-0.011 0.19736,-0.011 0.30121,-0.011 z"
       id="path4185-2"
       inkscape:connector-curvature="0" />
  </g>
</svg>
