<?xml version="1.0" encoding="UTF-8" standalone="no"?>
<!-- Created with Inkscape (http://www.inkscape.org/) -->

<svg
   xmlns:dc="http://purl.org/dc/elements/1.1/"
   xmlns:cc="http://creativecommons.org/ns#"
   xmlns:rdf="http://www.w3.org/1999/02/22-rdf-syntax-ns#"
   xmlns:svg="http://www.w3.org/2000/svg"
   xmlns="http://www.w3.org/2000/svg"
   xmlns:sodipodi="http://sodipodi.sourceforge.net/DTD/sodipodi-0.dtd"
   xmlns:inkscape="http://www.inkscape.org/namespaces/inkscape"
   width="90"
   height="90"
   id="svg4479"
   version="1.1"
   inkscape:version="0.48+devel r"
   viewBox="0 0 90 90.000001"
   sodipodi:docname="googleplus-symbolic.svg">
  <defs
     id="defs4481">
    <clipPath
       clipPathUnits="userSpaceOnUse"
       id="clipPath40">
      <path
         inkscape:connector-curvature="0"
         d="M 0,500 1024,500 1024,0 0,0 0,500 Z"
         id="path42" />
    </clipPath>
  </defs>
  <sodipodi:namedview
     id="base"
     pagecolor="#ffffff"
     bordercolor="#666666"
     borderopacity="1.0"
     inkscape:pageopacity="0.0"
     inkscape:pageshadow="2"
     inkscape:zoom="6.3664629"
     inkscape:cx="47.512308"
     inkscape:cy="51.119435"
     inkscape:document-units="px"
     inkscape:current-layer="layer1"
     showgrid="true"
     fit-margin-top="0"
     fit-margin-left="0"
     fit-margin-right="0"
     fit-margin-bottom="0"
     showguides="true"
     inkscape:guide-bbox="true"
     inkscape:snap-bbox="true"
     inkscape:bbox-paths="true"
     inkscape:bbox-nodes="true"
     inkscape:snap-bbox-edge-midpoints="true"
     inkscape:snap-bbox-midpoints="true"
     inkscape:object-paths="true"
     inkscape:snap-intersection-paths="true"
     inkscape:object-nodes="true"
     inkscape:snap-smooth-nodes="true"
     inkscape:snap-midpoints="true"
     inkscape:snap-object-midpoints="true"
     inkscape:snap-center="true">
    <inkscape:grid
       type="xygrid"
       id="grid5053"
       empspacing="6" />
    <sodipodi:guide
       orientation="1,0"
       position="3,47"
       id="guide5055" />
    <sodipodi:guide
       orientation="1,0"
       position="6,42"
       id="guide5057" />
    <sodipodi:guide
       orientation="1,0"
       position="9,39"
       id="guide5059" />
    <sodipodi:guide
       orientation="0,1"
       position="35,87"
       id="guide5061" />
    <sodipodi:guide
       orientation="0,1"
       position="37,84"
       id="guide5063" />
    <sodipodi:guide
       orientation="0,1"
       position="39,81"
       id="guide5065" />
    <sodipodi:guide
       orientation="1,0"
       position="87,72"
       id="guide5067" />
    <sodipodi:guide
       orientation="1,0"
       position="84,70"
       id="guide5069" />
    <sodipodi:guide
       orientation="1,0"
       position="81,66"
       id="guide5071" />
    <sodipodi:guide
       orientation="0,1"
       position="92,3"
       id="guide5073" />
    <sodipodi:guide
       orientation="0,1"
       position="93,6"
       id="guide5075" />
  </sodipodi:namedview>
  <metadata
     id="metadata4484">
    <rdf:RDF>
      <cc:Work
         rdf:about="">
        <dc:format>image/svg+xml</dc:format>
        <dc:type
           rdf:resource="http://purl.org/dc/dcmitype/StillImage" />
        <dc:title></dc:title>
      </cc:Work>
    </rdf:RDF>
  </metadata>
  <g
     inkscape:label="Layer 1"
     inkscape:groupmode="layer"
     id="layer1"
     transform="translate(833.57146,-695.93359)">
    <rect
       style="fill:none;stroke:none"
       id="rect4807"
       width="90"
       height="90"
       x="-833.57147"
       y="695.93359" />
    <path
       inkscape:connector-curvature="0"
       style="fill:#808080;fill-opacity:1"
       d="m -821.89665,701.93849 c -2.10797,0 -5.67154,2.8097 -5.67154,4.9176 l 0,6.2792 c 0.009,-0.013 0.0164,-0.018 0.0274,-0.029 6.66093,-5.5401 13.96854,-6.4645 20.09707,-6.5794 l 24.69836,0 -6.56143,5.3177 -7.16069,0 c 2.86845,2.4983 7.1478,6.9676 7.1478,14.9273 0,8.718 -4.57226,12.8497 -9.48037,16.7317 -1.5189,1.5294 -3.27064,3.1835 -3.27064,5.7797 0,2.5887 1.75145,4.003 3.03432,5.0644 l 4.21205,3.2925 c 5.13886,4.3627 11.85471,8.3735 11.8527,16.5044 0,2.1792 -0.35578,3.5586 -1.04167,5.7835 l -6.99042,0 35.53627,0 c 3.12295,0 5.89275,-3.5056 5.89275,-6.6801 l 0,-45.7778 -12.91117,0 0,14.8876 -6.32398,0 0,-14.8876 -14.75597,0 0,-6.1917 14.75597,0 0,-14.756 6.32398,0 0,14.756 12.91117,0 0,-14.4273 c 0,-2.1079 -2.75935,-4.9177 -4.86732,-4.9177 l -67.45467,0 z m 30.89297,77.9946 c 0.0234,-0.3318 0.0224,-0.5519 0.0224,-1.1878 0,-6.0198 -5.7122,-9.1927 -14.59803,-15.5591 -0.93144,-0.1195 -1.51591,-0.1195 -2.67811,-0.1195 -1.05635,0 -7.36792,0.2356 -12.27498,1.8874 -1.6869,0.6189 -4.62483,1.0137 -7.03579,4.305 l 0,3.9987 c 10e-6,2.9111 3.81444,6.6757 6.72554,6.6757 l 29.83897,0 z m -22.433,-69.4193 c -3.04097,0 -6.30814,1.5305 -8.18163,3.8884 -1.98674,2.4759 -2.2928,5.6515 -2.2928,8.722 0,7.8906 4.12561,19.5651 14.17575,19.5651 2.91925,0 5.91385,-0.7476 7.83497,-2.9481 2.19313,-2.5238 3.05277,-5.8453 3.05277,-7.5449 0,-8.4861 -4.89562,-21.6825 -14.58906,-21.6825 z m -14.13151,33.0659 c 0.0184,3.875 0.019,19.5024 0.019,19.5024 6.67153,-2.8791 13.53466,-3.0141 18.00139,-3.3172 -1.6385,-2.125 -3.50585,-4.3596 -3.50585,-8.0096 0,-2.0028 0.58559,-3.1825 1.1688,-4.5991 -1.28815,0.1168 -2.56873,0.2375 -3.73938,0.2375 -5.30294,0 -8.74109,-1.1381 -11.944,-3.814 z"
       id="path28" />
  </g>
</svg>
