<?xml version="1.0" encoding="UTF-8" standalone="no"?>
<!-- Created with Inkscape (http://www.inkscape.org/) -->

<svg
   xmlns:dc="http://purl.org/dc/elements/1.1/"
   xmlns:cc="http://creativecommons.org/ns#"
   xmlns:rdf="http://www.w3.org/1999/02/22-rdf-syntax-ns#"
   xmlns:svg="http://www.w3.org/2000/svg"
   xmlns="http://www.w3.org/2000/svg"
   xmlns:sodipodi="http://sodipodi.sourceforge.net/DTD/sodipodi-0.dtd"
   xmlns:inkscape="http://www.inkscape.org/namespaces/inkscape"
   width="90"
   height="90"
   id="svg4479"
   version="1.1"
   inkscape:version="0.48+devel r"
   viewBox="0 0 90 90.000001"
   sodipodi:docname="music-app-symbolic.svg">
  <defs
     id="defs4481" />
  <sodipodi:namedview
     id="base"
     pagecolor="#ffffff"
     bordercolor="#666666"
     borderopacity="1.0"
     inkscape:pageopacity="0.0"
     inkscape:pageshadow="2"
     inkscape:zoom="5.0931703"
     inkscape:cx="54.9854"
     inkscape:cy="25.544009"
     inkscape:document-units="px"
     inkscape:current-layer="layer1"
     showgrid="true"
     fit-margin-top="0"
     fit-margin-left="0"
     fit-margin-right="0"
     fit-margin-bottom="0"
     showguides="true"
     inkscape:guide-bbox="true">
    <inkscape:grid
       type="xygrid"
       id="grid5053"
       empspacing="6" />
    <sodipodi:guide
       orientation="1,0"
       position="3,47"
       id="guide5055" />
    <sodipodi:guide
       orientation="1,0"
       position="6,42"
       id="guide5057" />
    <sodipodi:guide
       orientation="1,0"
       position="9,39"
       id="guide5059" />
    <sodipodi:guide
       orientation="0,1"
       position="35,87"
       id="guide5061" />
    <sodipodi:guide
       orientation="0,1"
       position="37,84"
       id="guide5063" />
    <sodipodi:guide
       orientation="0,1"
       position="39,81"
       id="guide5065" />
    <sodipodi:guide
       orientation="1,0"
       position="87,72"
       id="guide5067" />
    <sodipodi:guide
       orientation="1,0"
       position="84,70"
       id="guide5069" />
    <sodipodi:guide
       orientation="1,0"
       position="81,66"
       id="guide5071" />
    <sodipodi:guide
       orientation="0,1"
       position="92,3"
       id="guide5073" />
    <sodipodi:guide
       orientation="0,1"
       position="93,6"
       id="guide5075" />
    <sodipodi:guide
       orientation="0,1"
       position="94,9"
       id="guide5077" />
  </sodipodi:namedview>
  <metadata
     id="metadata4484">
    <rdf:RDF>
      <cc:Work
         rdf:about="">
        <dc:format>image/svg+xml</dc:format>
        <dc:type
           rdf:resource="http://purl.org/dc/dcmitype/StillImage" />
        <dc:title></dc:title>
      </cc:Work>
    </rdf:RDF>
  </metadata>
  <g
     inkscape:label="Layer 1"
     inkscape:groupmode="layer"
     id="layer1"
     transform="translate(833.57146,-695.93359)">
    <rect
       y="695.93359"
       x="-833.57147"
       height="90"
       width="90"
       id="rect4236"
       style="fill:none;stroke:none" />
    <path
       inkscape:connector-curvature="0"
       id="path4240"
       d="m -773.90377,698.93373 c -10.8796,0.0331 -23.17343,1.97966 -33.46372,9.57643 l 0,52.11436 c -2.75856,-1.84708 -5.76387,-3.19202 -9.75577,-3.19202 -9.98042,0 -12.33817,7.79851 -12.33817,12.73262 0,5.98286 4.07126,12.76854 13.73696,12.76869 5.42113,0 9.35278,-1.52959 11.585,-4.59093 1.73861,-2.38437 2.67864,-5.53424 3.0128,-9.36124 0.047,-0.46667 0.0817,-0.94407 0.10764,-1.4347 0.005,-0.07 -0.005,-0.14467 0,-0.21529 0.0264,-0.56809 0.0359,-1.15765 0.0359,-1.75732 l 0,-39.52531 c 15.44255,-9.77368 39.81215,-5.34416 39.81215,-5.34416 l 0,32.1366 c -2.69087,-1.75878 -5.67147,-3.0128 -9.54057,-3.0128 -9.98044,0 -12.30231,7.79844 -12.30231,12.73286 0,5.98253 4.07127,12.76854 13.73697,12.76854 5.42112,0 9.35278,-1.52959 11.58497,-4.59094 1.75996,-2.41378 2.68975,-5.61341 3.01283,-9.50466 0.0448,-0.53963 0.0863,-1.08299 0.10765,-1.64999 0.0243,-0.52173 0.0341,-1.06556 0.0359,-1.61405 1.6e-4,-0.0498 0,-0.0949 0,-0.14312 l 0,-47.05723 -0.0359,0 0,-9.97096 c 1.3e-4,0 -8.36497,-1.89848 -19.33205,-1.86507 z"
       style="font-size:15px;font-style:normal;font-variant:normal;font-weight:normal;font-stretch:normal;text-align:center;line-height:125%;letter-spacing:0px;word-spacing:0px;writing-mode:lr-tb;text-anchor:middle;fill:#808080;fill-opacity:1;stroke:none;display:inline;enable-background:new;font-family:Ubuntu;-inkscape-font-specification:Ubuntu" />
  </g>
</svg>
