<?xml version="1.0" encoding="UTF-8" standalone="no"?>
<!-- Created with Inkscape (http://www.inkscape.org/) -->

<svg
   xmlns:dc="http://purl.org/dc/elements/1.1/"
   xmlns:cc="http://creativecommons.org/ns#"
   xmlns:rdf="http://www.w3.org/1999/02/22-rdf-syntax-ns#"
   xmlns:svg="http://www.w3.org/2000/svg"
   xmlns="http://www.w3.org/2000/svg"
   xmlns:sodipodi="http://sodipodi.sourceforge.net/DTD/sodipodi-0.dtd"
   xmlns:inkscape="http://www.inkscape.org/namespaces/inkscape"
   width="90"
   height="90"
   id="svg4479"
   version="1.1"
   inkscape:version="0.48+devel r"
   viewBox="0 0 90 90.000001"
   sodipodi:docname="pinterest-symbolic.svg">
  <defs
     id="defs4481">
    <clipPath
       clipPathUnits="userSpaceOnUse"
       id="clipPath40">
      <path
         inkscape:connector-curvature="0"
         d="M 0,500 1024,500 1024,0 0,0 0,500 Z"
         id="path42" />
    </clipPath>
    <clipPath
       clipPathUnits="userSpaceOnUse"
       id="clipPath18">
      <path
         inkscape:connector-curvature="0"
         d="M 0,2743.88 0,0 l 2743.81,0 0,2743.88 -2743.81,0 z"
         id="path20" />
    </clipPath>
  </defs>
  <sodipodi:namedview
     id="base"
     pagecolor="#ffffff"
     bordercolor="#666666"
     borderopacity="1.0"
     inkscape:pageopacity="0.0"
     inkscape:pageshadow="2"
     inkscape:zoom="6.3664629"
     inkscape:cx="47.512308"
     inkscape:cy="51.119435"
     inkscape:document-units="px"
     inkscape:current-layer="layer1"
     showgrid="true"
     fit-margin-top="0"
     fit-margin-left="0"
     fit-margin-right="0"
     fit-margin-bottom="0"
     showguides="true"
     inkscape:guide-bbox="true"
     inkscape:snap-bbox="true"
     inkscape:bbox-paths="true"
     inkscape:bbox-nodes="true"
     inkscape:snap-bbox-edge-midpoints="true"
     inkscape:snap-bbox-midpoints="true"
     inkscape:object-paths="true"
     inkscape:snap-intersection-paths="true"
     inkscape:object-nodes="true"
     inkscape:snap-smooth-nodes="true"
     inkscape:snap-midpoints="true"
     inkscape:snap-object-midpoints="true"
     inkscape:snap-center="true">
    <inkscape:grid
       type="xygrid"
       id="grid5053"
       empspacing="6" />
    <sodipodi:guide
       orientation="1,0"
       position="3,47"
       id="guide5055" />
    <sodipodi:guide
       orientation="1,0"
       position="6,42"
       id="guide5057" />
    <sodipodi:guide
       orientation="1,0"
       position="9,39"
       id="guide5059" />
    <sodipodi:guide
       orientation="0,1"
       position="35,87"
       id="guide5061" />
    <sodipodi:guide
       orientation="0,1"
       position="37,84"
       id="guide5063" />
    <sodipodi:guide
       orientation="0,1"
       position="39,81"
       id="guide5065" />
    <sodipodi:guide
       orientation="1,0"
       position="87,72"
       id="guide5067" />
    <sodipodi:guide
       orientation="1,0"
       position="84,70"
       id="guide5069" />
    <sodipodi:guide
       orientation="1,0"
       position="81,66"
       id="guide5071" />
    <sodipodi:guide
       orientation="0,1"
       position="92,3"
       id="guide5073" />
    <sodipodi:guide
       orientation="0,1"
       position="93,6"
       id="guide5075" />
  </sodipodi:namedview>
  <metadata
     id="metadata4484">
    <rdf:RDF>
      <cc:Work
         rdf:about="">
        <dc:format>image/svg+xml</dc:format>
        <dc:type
           rdf:resource="http://purl.org/dc/dcmitype/StillImage" />
        <dc:title></dc:title>
      </cc:Work>
    </rdf:RDF>
  </metadata>
  <g
     inkscape:label="Layer 1"
     inkscape:groupmode="layer"
     id="layer1"
     transform="translate(833.57146,-695.93359)">
    <rect
       y="695.93359"
       x="-833.57147"
       height="90"
       width="90"
       id="rect4809"
       style="fill:none;stroke:none" />
    <g
       id="g12"
       transform="matrix(0.02988464,0,0,-0.02988464,-829.57032,781.93349)"
       style="fill:#808080">
      <g
         id="g14"
         style="fill:#808080">
        <g
           id="g16"
           clip-path="url(#clipPath18)"
           style="fill:#808080">
          <path
             inkscape:connector-curvature="0"
             d="M 1371.95,2743.88 C 614.285,2743.88 0,2129.65 0,1371.95 0,810.18 337.809,327.578 821.199,115.391 c -3.859,95.8 -0.691,210.8 23.879,315.031 26.375,111.379 176.532,747.558 176.532,747.558 0,0 -43.837,87.59 -43.837,217.07 0,203.3 117.847,355.14 264.587,355.14 124.79,0 185.07,-93.73 185.07,-205.96 0,-125.45 -80,-313.09 -121.15,-486.88 -34.37,-145.53 72.97,-264.229 216.54,-264.229 259.93,0 435,333.849 435,729.409 0,300.68 -202.52,525.74 -570.86,525.74 -416.159,0 -675.421,-310.35 -675.421,-657.01 0,-119.52 35.242,-203.82 90.441,-269.08 25.383,-29.98 28.911,-42.05 19.719,-76.47 -6.578,-25.24 -21.695,-86.011 -27.949,-110.101 -9.137,-34.738 -37.285,-47.16 -68.691,-34.328 -191.68,78.25 -280.957,288.159 -280.957,524.129 0,389.71 328.679,857.02 980.518,857.02 523.79,0 868.51,-379.03 868.51,-785.9 0,-538.178 -299.19,-940.249 -740.24,-940.249 -148.11,0 -287.44,80.071 -335.16,171 0,0 -79.65,-316.09 -96.52,-377.133 C 1092.13,244.371 1035.19,138.66 983.129,56.2617 1106.52,19.8281 1236.86,0 1371.95,0 c 757.6,0 1371.86,614.238 1371.86,1371.95 0,757.7 -614.26,1371.93 -1371.86,1371.93"
             style="fill:#808080;fill-opacity:1;fill-rule:nonzero;stroke:none"
             id="path22" />
        </g>
      </g>
    </g>
  </g>
</svg>
