<?xml version="1.0" encoding="UTF-8" standalone="no"?>
<!-- Created with Inkscape (http://www.inkscape.org/) -->

<svg
   xmlns:dc="http://purl.org/dc/elements/1.1/"
   xmlns:cc="http://creativecommons.org/ns#"
   xmlns:rdf="http://www.w3.org/1999/02/22-rdf-syntax-ns#"
   xmlns:svg="http://www.w3.org/2000/svg"
   xmlns="http://www.w3.org/2000/svg"
   xmlns:sodipodi="http://sodipodi.sourceforge.net/DTD/sodipodi-0.dtd"
   xmlns:inkscape="http://www.inkscape.org/namespaces/inkscape"
   width="90"
   height="90"
   id="svg4479"
   version="1.1"
   inkscape:version="0.48+devel r"
   viewBox="0 0 90 90.000001"
   sodipodi:docname="preferences-desktop-accessibility-symbolic.svg">
  <defs
     id="defs4481">
    <inkscape:perspective
       sodipodi:type="inkscape:persp3d"
       inkscape:vp_x="0 : 45 : 1"
       inkscape:vp_y="0 : 1000 : 0"
       inkscape:vp_z="90 : 45 : 1"
       inkscape:persp3d-origin="45 : 30 : 1"
       id="perspective4105" />
  </defs>
  <sodipodi:namedview
     id="base"
     pagecolor="#ffffff"
     bordercolor="#666666"
     borderopacity="1.0"
     inkscape:pageopacity="0.0"
     inkscape:pageshadow="2"
     inkscape:zoom="5.0931703"
     inkscape:cx="3.7278378"
     inkscape:cy="34.568763"
     inkscape:document-units="px"
     inkscape:current-layer="g4519"
     showgrid="true"
     fit-margin-top="0"
     fit-margin-left="0"
     fit-margin-right="0"
     fit-margin-bottom="0"
     showguides="true"
     inkscape:guide-bbox="true"
     inkscape:snap-bbox="true"
     inkscape:bbox-paths="true"
     inkscape:bbox-nodes="true"
     inkscape:snap-bbox-edge-midpoints="true"
     inkscape:snap-bbox-midpoints="true"
     inkscape:object-paths="true"
     inkscape:snap-intersection-paths="true"
     inkscape:object-nodes="true"
     inkscape:snap-smooth-nodes="true"
     inkscape:snap-midpoints="true"
     inkscape:snap-object-midpoints="true"
     inkscape:snap-center="true">
    <inkscape:grid
       type="xygrid"
       id="grid5053"
       empspacing="6" />
    <sodipodi:guide
       orientation="1,0"
       position="3,47"
       id="guide5055" />
    <sodipodi:guide
       orientation="1,0"
       position="6,42"
       id="guide5057" />
    <sodipodi:guide
       orientation="1,0"
       position="9,39"
       id="guide5059" />
    <sodipodi:guide
       orientation="0,1"
       position="35,87"
       id="guide5061" />
    <sodipodi:guide
       orientation="0,1"
       position="37,84"
       id="guide5063" />
    <sodipodi:guide
       orientation="0,1"
       position="39,81"
       id="guide5065" />
    <sodipodi:guide
       orientation="1,0"
       position="87,72"
       id="guide5067" />
    <sodipodi:guide
       orientation="1,0"
       position="84,70"
       id="guide5069" />
    <sodipodi:guide
       orientation="1,0"
       position="81,66"
       id="guide5071" />
    <sodipodi:guide
       orientation="0,1"
       position="92,3"
       id="guide5073" />
    <sodipodi:guide
       orientation="0,1"
       position="93,6"
       id="guide5075" />
    <sodipodi:guide
       orientation="0,1"
       position="94,9"
       id="guide5077" />
  </sodipodi:namedview>
  <metadata
     id="metadata4484">
    <rdf:RDF>
      <cc:Work
         rdf:about="">
        <dc:format>image/svg+xml</dc:format>
        <dc:type
           rdf:resource="http://purl.org/dc/dcmitype/StillImage" />
        <dc:title></dc:title>
      </cc:Work>
    </rdf:RDF>
  </metadata>
  <g
     inkscape:label="Layer 1"
     inkscape:groupmode="layer"
     id="layer1"
     transform="translate(833.57146,-695.93359)">
    <g
       style="display:inline"
       id="g4519"
       transform="translate(-893.57146,753.57142)">
      <rect
         style="opacity:0.1;color:#000000;fill:none;stroke:none;stroke-width:1.10000002;marker:none;visibility:visible;display:inline;overflow:visible;enable-background:accumulate"
         id="rect4521"
         width="89.999992"
         height="89.999992"
         x="60"
         y="-57.637817" />
      <path
         inkscape:connector-curvature="0"
         id="path4525"
         d="m 105.0017,-40.63781 c 2.13791,1.9e-4 4.20443,0.902947 5.71583,2.494033 1.51164,1.591329 2.36908,3.765954 2.36908,6.0164 l 0,0.0069 c -0.003,0.866549 -0.0813,1.864536 -0.48969,2.875647 -0.99115,2.454273 -2.44088,4.378601 -3.81281,5.911711 l 19.97081,0 0,5.506452 -4.41225,0 c -1.99463,0 -3.65042,0.290542 -4.96949,0.869619 -1.31902,0.546924 -2.36524,1.334522 -3.13738,2.364004 -0.80428,0.99733 -1.36684,2.203069 -1.68857,3.618626 -0.32171,1.4155737 -0.48294,2.9773176 -0.48294,4.6824301 l 0,21.6543199 -5.88976,0 0,-13.8260789 0.005,0 c 0,-0.5104055 -0.063,-0.97856035 -0.18912,-1.40489684 -0.13211,-0.42632784 -0.32774,-0.79301025 -0.58593,-1.09926048 -0.26421,-0.30624158 -0.59489,-0.54276568 -0.9912,-0.71089508 -0.40231,-0.168164 -0.87292,-0.2515933 -1.41334,-0.2515933 -0.54042,0 -1.00859,0.083516 -1.4049,0.2515933 -0.40232,0.1681294 -0.73299,0.4046535 -0.99119,0.71089508 -0.26421,0.30625023 -0.45984,0.67292399 -0.58594,1.09926048 -0.13211,0.42633649 -0.19756,0.89449134 -0.19756,1.40489684 l 0,13.8260789 -5.88301,0 0,-21.6543199 c -0.106054,-1.70181 -0.16123,-3.2668564 -0.482938,-4.6824301 -0.321735,-1.415557 -0.88429,-2.621296 -1.688574,-3.618626 -0.772131,-1.029482 -1.818352,-1.81708 -3.137381,-2.364004 -1.319064,-0.579077 -2.974845,-0.869619 -4.969479,-0.869619 l -4.413944,0 0,-5.506452 19.972506,0 c -1.371689,-1.53317 -2.820176,-3.457922 -3.811126,-5.911711 -0.408371,-1.011223 -0.486232,-2.009348 -0.489691,-2.875647 l 0,-0.0069 c 0,-2.250057 0.85557,-4.424872 2.367386,-6.0164 1.511591,-1.591285 3.579611,-2.493843 5.717531,-2.494033 z"
         style="font-size:15px;font-style:normal;font-variant:normal;font-weight:normal;font-stretch:normal;text-align:center;line-height:125%;letter-spacing:0px;word-spacing:0px;writing-mode:lr-tb;text-anchor:middle;fill:#808080;fill-opacity:1;stroke:none;display:inline;font-family:Ubuntu;-inkscape-font-specification:Ubuntu" />
      <circle
         style="color:#000000;display:inline;overflow:visible;visibility:visible;fill:none;stroke:#808080;stroke-width:6;stroke-linecap:round;stroke-linejoin:round;stroke-miterlimit:4;stroke-dasharray:none;stroke-dashoffset:0;stroke-opacity:1;marker:none;enable-background:accumulate"
         id="path4116"
         cx="104.99998"
         cy="-12.637826"
         r="38" />
    </g>
  </g>
</svg>
