<?xml version="1.0" encoding="UTF-8" standalone="no"?>
<!-- Created with Inkscape (http://www.inkscape.org/) -->

<svg
   xmlns:dc="http://purl.org/dc/elements/1.1/"
   xmlns:cc="http://creativecommons.org/ns#"
   xmlns:rdf="http://www.w3.org/1999/02/22-rdf-syntax-ns#"
   xmlns:svg="http://www.w3.org/2000/svg"
   xmlns="http://www.w3.org/2000/svg"
   xmlns:sodipodi="http://sodipodi.sourceforge.net/DTD/sodipodi-0.dtd"
   xmlns:inkscape="http://www.inkscape.org/namespaces/inkscape"
   width="90"
   height="90"
   id="svg4479"
   version="1.1"
   inkscape:version="0.48+devel r"
   viewBox="0 0 90 90.000001"
   sodipodi:docname="preferences-desktop-sounds-symbolic.svg">
  <defs
     id="defs4481">
    <inkscape:perspective
       sodipodi:type="inkscape:persp3d"
       inkscape:vp_x="0 : 45 : 1"
       inkscape:vp_y="0 : 1000 : 0"
       inkscape:vp_z="90 : 45 : 1"
       inkscape:persp3d-origin="45 : 30 : 1"
       id="perspective4105" />
  </defs>
  <sodipodi:namedview
     id="base"
     pagecolor="#ffffff"
     bordercolor="#666666"
     borderopacity="1.0"
     inkscape:pageopacity="0.0"
     inkscape:pageshadow="2"
     inkscape:zoom="6.3664629"
     inkscape:cx="36.737277"
     inkscape:cy="41.202564"
     inkscape:document-units="px"
     inkscape:current-layer="layer1"
     showgrid="true"
     fit-margin-top="0"
     fit-margin-left="0"
     fit-margin-right="0"
     fit-margin-bottom="0"
     showguides="true"
     inkscape:guide-bbox="true"
     inkscape:snap-bbox="true"
     inkscape:bbox-paths="true"
     inkscape:bbox-nodes="true"
     inkscape:snap-bbox-edge-midpoints="true"
     inkscape:snap-bbox-midpoints="true"
     inkscape:object-paths="true"
     inkscape:snap-intersection-paths="true"
     inkscape:object-nodes="true"
     inkscape:snap-smooth-nodes="true"
     inkscape:snap-midpoints="true"
     inkscape:snap-object-midpoints="true"
     inkscape:snap-center="true">
    <inkscape:grid
       type="xygrid"
       id="grid5053"
       empspacing="6" />
    <sodipodi:guide
       orientation="1,0"
       position="3,47"
       id="guide5055" />
    <sodipodi:guide
       orientation="1,0"
       position="6,42"
       id="guide5057" />
    <sodipodi:guide
       orientation="1,0"
       position="9,39"
       id="guide5059" />
    <sodipodi:guide
       orientation="0,1"
       position="35,87"
       id="guide5061" />
    <sodipodi:guide
       orientation="0,1"
       position="37,84"
       id="guide5063" />
    <sodipodi:guide
       orientation="0,1"
       position="39,81"
       id="guide5065" />
    <sodipodi:guide
       orientation="1,0"
       position="87,72"
       id="guide5067" />
    <sodipodi:guide
       orientation="1,0"
       position="84,70"
       id="guide5069" />
    <sodipodi:guide
       orientation="1,0"
       position="81,66"
       id="guide5071" />
    <sodipodi:guide
       orientation="0,1"
       position="92,3"
       id="guide5073" />
    <sodipodi:guide
       orientation="0,1"
       position="93,6"
       id="guide5075" />
    <sodipodi:guide
       orientation="0,1"
       position="94,9"
       id="guide5077" />
  </sodipodi:namedview>
  <metadata
     id="metadata4484">
    <rdf:RDF>
      <cc:Work
         rdf:about="">
        <dc:format>image/svg+xml</dc:format>
        <dc:type
           rdf:resource="http://purl.org/dc/dcmitype/StillImage" />
        <dc:title></dc:title>
      </cc:Work>
    </rdf:RDF>
  </metadata>
  <g
     inkscape:label="Layer 1"
     inkscape:groupmode="layer"
     id="layer1"
     transform="translate(833.57146,-695.93359)">
    <g
       style="display:inline"
       id="g4925"
       transform="translate(-1073.5715,93.571408)">
      <rect
         transform="matrix(0,1,-1,0,0,0)"
         y="-330"
         x="602.36218"
         height="90"
         width="90"
         id="rect4847"
         style="opacity:0.11199999;color:#000000;fill:none;stroke:none;stroke-width:4;marker:none;visibility:visible;display:inline;overflow:visible;enable-background:accumulate" />
      <path
         style="fill:#808080;fill-opacity:1;stroke:none;display:inline;enable-background:new"
         d="m 509.19727,1323.8242 c -4.94389,0.015 -10.52327,0.8996 -15.19922,4.3516 C 493.41958,1328.7353 493,1329.2 493,1329.2 l 0,22.0715 c -0.99078,-0.5179 -2.08743,-0.8633 -3.43555,-0.8633 -4.53573,0 -5.60742,3.5467 -5.60742,5.7891 0,2.7189 1.84949,5.8026 6.24219,5.8027 2.46368,0 4.44656,-0.6967 5.46094,-2.0879 0.79014,-1.0837 1.21729,-2.5146 1.36914,-4.2539 0.0215,-0.212 0.0397,-0.4274 0.0508,-0.6504 0.002,-0.032 -0.002,-0.066 0,-0.098 0.0101,-0.2582 0.0137,-0.5283 0.0137,-0.8008 l 0,-17.9629 c 5.80663,-3.6751 14.16322,-2.9368 16.90625,-2.5703 l 0,14.1875 c -0.19645,-0.098 -0.39151,-0.1981 -0.59766,-0.2813 -0.0233,-0.01 -0.0469,-0.019 -0.0703,-0.027 -0.0473,-0.018 -0.0947,-0.037 -0.14258,-0.055 -0.0478,-0.018 -0.0963,-0.034 -0.14453,-0.051 -0.0288,-0.01 -0.0568,-0.02 -0.0859,-0.029 -0.0668,-0.022 -0.13532,-0.044 -0.20312,-0.064 -0.01,0 -0.0203,0 -0.0293,-0.01 -0.53916,-0.1596 -1.11932,-0.2622 -1.7539,-0.2871 -0.1016,0 -0.20411,-0.01 -0.3086,-0.01 l -0.006,0 -0.01,0 c -4.26359,0 -5.45089,3.1308 -5.57813,5.3691 -0.008,0.143 -0.0137,0.2814 -0.0137,0.416 0,2.719 1.85143,5.8027 6.24414,5.8028 2.4637,0 4.24921,-0.6947 5.26367,-2.086 0.05,-0.069 0.0994,-0.1396 0.14649,-0.2109 0.0471,-0.071 0.0926,-0.1428 0.13672,-0.2168 l 0.002,0 c 0.61013,-1.0224 0.9534,-2.3045 1.08594,-3.8223 0.0213,-0.212 0.0358,-0.4293 0.0469,-0.6523 0.002,-0.032 -0.002,-0.068 0,-0.1 0.0116,-0.2582 0.0176,-0.5243 0.0176,-0.7969 9e-5,-0.022 0,-0.044 0,-0.066 l 0,-21.3848 -0.0176,0 0,-4.5332 c 7e-5,0 -3.80008,-0.8605 -8.7832,-0.8457 z"
         transform="translate(-192,-699.63781)"
         id="path4073"
         inkscape:connector-curvature="0"
         sodipodi:nodetypes="ccccsscccccscccccccccccscscscccccccccsccccc" />
      <path
         sodipodi:nodetypes="cccscccc"
         inkscape:transform-center-x="-19"
         inkscape:connector-curvature="0"
         id="path6178"
         d="m 284,609.36167 -19.00052,19.00052 -15.8329,0 c 0,0 -3.16658,4.75032 -3.16658,19.00052 0,14.25011 3.16658,18.99947 3.16658,18.99947 l 15.8329,0 L 284,685.3627 Z"
         style="fill:#808080;fill-opacity:1;stroke:none;display:inline" />
    </g>
  </g>
</svg>
