<?xml version="1.0" encoding="UTF-8" standalone="no"?>
<!-- Created with Inkscape (http://www.inkscape.org/) -->

<svg
   xmlns:dc="http://purl.org/dc/elements/1.1/"
   xmlns:cc="http://creativecommons.org/ns#"
   xmlns:rdf="http://www.w3.org/1999/02/22-rdf-syntax-ns#"
   xmlns:svg="http://www.w3.org/2000/svg"
   xmlns="http://www.w3.org/2000/svg"
   xmlns:sodipodi="http://sodipodi.sourceforge.net/DTD/sodipodi-0.dtd"
   xmlns:inkscape="http://www.inkscape.org/namespaces/inkscape"
   width="90"
   height="90"
   id="svg4479"
   version="1.1"
   inkscape:version="0.48+devel r"
   viewBox="0 0 90 90.000001"
   sodipodi:docname="preferences-desktop-locale-symbolic.svg">
  <defs
     id="defs4481">
    <inkscape:perspective
       sodipodi:type="inkscape:persp3d"
       inkscape:vp_x="0 : 45 : 1"
       inkscape:vp_y="0 : 1000 : 0"
       inkscape:vp_z="90 : 45 : 1"
       inkscape:persp3d-origin="45 : 30 : 1"
       id="perspective4105" />
  </defs>
  <sodipodi:namedview
     id="base"
     pagecolor="#ffffff"
     bordercolor="#666666"
     borderopacity="1.0"
     inkscape:pageopacity="0.0"
     inkscape:pageshadow="2"
     inkscape:zoom="3.259629"
     inkscape:cx="-50.147881"
     inkscape:cy="33.213779"
     inkscape:document-units="px"
     inkscape:current-layer="layer1"
     showgrid="true"
     fit-margin-top="0"
     fit-margin-left="0"
     fit-margin-right="0"
     fit-margin-bottom="0"
     showguides="true"
     inkscape:guide-bbox="true"
     inkscape:snap-bbox="true"
     inkscape:bbox-paths="true"
     inkscape:bbox-nodes="true"
     inkscape:snap-bbox-edge-midpoints="true"
     inkscape:snap-bbox-midpoints="true"
     inkscape:object-paths="true"
     inkscape:snap-intersection-paths="true"
     inkscape:object-nodes="true"
     inkscape:snap-smooth-nodes="true"
     inkscape:snap-midpoints="true"
     inkscape:snap-object-midpoints="true"
     inkscape:snap-center="true">
    <inkscape:grid
       type="xygrid"
       id="grid5053"
       empspacing="6" />
    <sodipodi:guide
       orientation="1,0"
       position="3,47"
       id="guide5055" />
    <sodipodi:guide
       orientation="1,0"
       position="6,42"
       id="guide5057" />
    <sodipodi:guide
       orientation="1,0"
       position="9,39"
       id="guide5059" />
    <sodipodi:guide
       orientation="0,1"
       position="35,87"
       id="guide5061" />
    <sodipodi:guide
       orientation="0,1"
       position="37,84"
       id="guide5063" />
    <sodipodi:guide
       orientation="0,1"
       position="39,81"
       id="guide5065" />
    <sodipodi:guide
       orientation="1,0"
       position="87,72"
       id="guide5067" />
    <sodipodi:guide
       orientation="1,0"
       position="84,70"
       id="guide5069" />
    <sodipodi:guide
       orientation="1,0"
       position="81,66"
       id="guide5071" />
    <sodipodi:guide
       orientation="0,1"
       position="92,3"
       id="guide5073" />
    <sodipodi:guide
       orientation="0,1"
       position="93,6"
       id="guide5075" />
    <sodipodi:guide
       orientation="0,1"
       position="94,9"
       id="guide5077" />
  </sodipodi:namedview>
  <metadata
     id="metadata4484">
    <rdf:RDF>
      <cc:Work
         rdf:about="">
        <dc:format>image/svg+xml</dc:format>
        <dc:type
           rdf:resource="http://purl.org/dc/dcmitype/StillImage" />
        <dc:title></dc:title>
      </cc:Work>
    </rdf:RDF>
  </metadata>
  <g
     inkscape:label="Layer 1"
     inkscape:groupmode="layer"
     id="layer1"
     transform="translate(833.57146,-695.93359)">
    <g
       style="display:inline"
       id="g5607"
       transform="translate(-1313.5715,621.57142)">
      <rect
         y="74.362183"
         x="480"
         height="89.999992"
         width="89.999992"
         id="rect4501"
         style="opacity:0.1;color:#000000;fill:none;stroke:none;stroke-width:1.10000002;marker:none;visibility:visible;display:inline;overflow:visible;enable-background:accumulate" />
      <path
         sodipodi:nodetypes="sssscccsssssccsccccscccccscsccccccc"
         inkscape:connector-curvature="0"
         id="path4596"
         d="m 497,82.36219 c -9.33329,0 -14,-4.2e-4 -14,10.85156 l 0,36.29688 c 0,10.85198 4.66671,10.85156 14,10.85156 l 3.85352,0 12.01367,9.33398 12.01172,-9.33398 28.12109,0 c 9.33329,0 14,4.2e-4 14,-10.85156 l 0,-36.29688 c 0,-10.85198 -4.66671,-10.85156 -14,-10.85156 z m 12.58789,9 6.69922,0 c 1.31315,2.77631 2.58806,5.58995 3.82617,8.44141 1.2381,2.85137 2.47674,5.85425 3.71484,9.00586 1.27561,3.15151 2.5677,6.49084 3.88086,10.01757 1.35066,3.52672 2.75944,7.37066 4.22266,11.53516 l -7.6543,0 c -0.52525,-1.53823 -1.06808,-3.05589 -1.63086,-4.55664 -0.56278,-1.50073 -1.10755,-3.03943 -1.63281,-4.61524 l -16.43359,0 c -0.52526,1.5758 -1.06809,3.1317 -1.63086,4.66993 l -1.57617,4.50195 -7.37305,0 c 1.46322,-4.1645 2.85091,-8.00844 4.16406,-11.53516 1.31314,-3.52673 2.59002,-6.86606 3.82813,-10.01757 1.27562,-3.15161 2.53142,-6.15449 3.76953,-9.00586 1.23812,-2.85146 2.51302,-5.6651 3.82617,-8.44141 z m 3.20899,7.54102 c -0.86293,1.9885 -1.85884,4.40841 -2.98438,7.25976 -1.08804,2.85137 -2.23105,5.94604 -3.43164,9.28516 l 12.83008,0 c -1.20061,-3.33912 -2.36274,-6.45092 -3.48828,-9.33985 -1.12557,-2.88885 -2.10038,-5.29164 -2.92578,-7.20507 z"
         style="font-size:15px;font-style:normal;font-variant:normal;font-weight:normal;font-stretch:normal;text-align:center;line-height:125%;letter-spacing:0px;word-spacing:0px;writing-mode:lr-tb;text-anchor:middle;fill:#808080;fill-opacity:1;stroke:none;font-family:Ubuntu;-inkscape-font-specification:Ubuntu" />
      <path
         inkscape:connector-curvature="0"
         id="path1652"
         d="M 562.50036,148.36223 A 4.5001216,4.5001216 0 0 0 558,152.86265 a 4.5001216,4.5001216 0 0 0 4.50036,4.49954 4.5001216,4.5001216 0 0 0 4.49964,-4.49954 4.5001216,4.5001216 0 0 0 -4.49964,-4.50042 z"
         style="font-size:15px;font-style:normal;font-variant:normal;font-weight:normal;font-stretch:normal;text-align:center;line-height:125%;letter-spacing:0px;word-spacing:0px;writing-mode:lr-tb;text-anchor:middle;fill:#808080;fill-opacity:1;stroke:none;font-family:Ubuntu;-inkscape-font-specification:Ubuntu" />
      <path
         style="font-size:15px;font-style:normal;font-variant:normal;font-weight:normal;font-stretch:normal;text-align:center;line-height:125%;letter-spacing:0px;word-spacing:0px;writing-mode:lr-tb;text-anchor:middle;fill:#808080;fill-opacity:1;stroke:none;font-family:Ubuntu;-inkscape-font-specification:Ubuntu"
         d="M 547.50036,148.36223 A 4.5001216,4.5001216 0 0 0 543,152.86265 a 4.5001216,4.5001216 0 0 0 4.50036,4.49954 4.5001216,4.5001216 0 0 0 4.49964,-4.49954 4.5001216,4.5001216 0 0 0 -4.49964,-4.50042 z"
         id="path4599"
         inkscape:connector-curvature="0" />
      <path
         inkscape:connector-curvature="0"
         id="path4601"
         d="M 532.50036,148.36223 A 4.5001216,4.5001216 0 0 0 528,152.86265 a 4.5001216,4.5001216 0 0 0 4.50036,4.49954 4.5001216,4.5001216 0 0 0 4.49964,-4.49954 4.5001216,4.5001216 0 0 0 -4.49964,-4.50042 z"
         style="font-size:15px;font-style:normal;font-variant:normal;font-weight:normal;font-stretch:normal;text-align:center;line-height:125%;letter-spacing:0px;word-spacing:0px;writing-mode:lr-tb;text-anchor:middle;fill:#808080;fill-opacity:1;stroke:none;font-family:Ubuntu;-inkscape-font-specification:Ubuntu" />
    </g>
  </g>
</svg>
