<?xml version="1.0" encoding="UTF-8" standalone="no"?>
<!-- Created with Inkscape (http://www.inkscape.org/) -->

<svg
   xmlns:dc="http://purl.org/dc/elements/1.1/"
   xmlns:cc="http://creativecommons.org/ns#"
   xmlns:rdf="http://www.w3.org/1999/02/22-rdf-syntax-ns#"
   xmlns:svg="http://www.w3.org/2000/svg"
   xmlns="http://www.w3.org/2000/svg"
   xmlns:sodipodi="http://sodipodi.sourceforge.net/DTD/sodipodi-0.dtd"
   xmlns:inkscape="http://www.inkscape.org/namespaces/inkscape"
   width="139.0049"
   height="90"
   id="svg4966"
   version="1.1"
   inkscape:version="0.91pre2 r"
   viewBox="0 0 139.00489 90.000001"
   sodipodi:docname="preferences-system-battery-100-charging-symbolic.svg">
  <defs
     id="defs4968" />
  <sodipodi:namedview
     id="base"
     pagecolor="#ffffff"
     bordercolor="#666666"
     borderopacity="1.0"
     inkscape:pageopacity="0.0"
     inkscape:pageshadow="2"
     inkscape:zoom="2.6077032"
     inkscape:cx="94.844303"
     inkscape:cy="15.43504"
     inkscape:document-units="px"
     inkscape:current-layer="layer1"
     showgrid="false"
     fit-margin-top="0"
     fit-margin-left="0"
     fit-margin-right="0"
     fit-margin-bottom="0" />
  <metadata
     id="metadata4971">
    <rdf:RDF>
      <cc:Work
         rdf:about="">
        <dc:format>image/svg+xml</dc:format>
        <dc:type
           rdf:resource="http://purl.org/dc/dcmitype/StillImage" />
        <dc:title></dc:title>
      </cc:Work>
    </rdf:RDF>
  </metadata>
  <g
     inkscape:label="Layer 1"
     inkscape:groupmode="layer"
     id="layer1"
     transform="translate(-149.78334,-484.50513)">
    <g
       inkscape:label="Layer 1"
       id="g5120"
       transform="translate(-433.7881,125.71445)">
      <g
         transform="translate(169.57144,223.42822)"
         id="g5122"
         inkscape:export-filename="envelope02.png"
         inkscape:export-xdpi="90"
         inkscape:export-ydpi="90" />
      <g
         inkscape:export-ydpi="90"
         inkscape:export-xdpi="90"
         inkscape:export-filename="battery02.png"
         id="g5124"
         transform="translate(409.57145,223.42846)">
        <g
           style="fill:none"
           transform="matrix(2.1875001,0,0,1.875,-456.00004,-1657.8169)"
           id="g5126">
          <rect
             style="opacity:0.21171169;fill:none;stroke:none"
             id="rect5128"
             width="48"
             height="48"
             x="288"
             y="152"
             transform="translate(0,804.3622)" />
        </g>
        <path
           inkscape:connector-curvature="0"
           style="font-style:normal;font-variant:normal;font-weight:normal;font-stretch:normal;font-size:15px;line-height:125%;font-family:Ubuntu;-inkscape-font-specification:Ubuntu;text-align:center;letter-spacing:0px;word-spacing:0px;writing-mode:lr-tb;text-anchor:middle;opacity:1;fill:#808080;fill-opacity:1;stroke:none"
           d="M 86,15 10.84375,15.01172 C 3.0000002,15.000019 0,17 0,27 L 0,45 0,63 C 0,73 3.0000002,74.999981 10.84375,74.988281 L 86,75 c 7.84375,0.01172 11,-2.36328 11,-12 l 0,-4.011719 8,0 L 105,45 l 0,-13.988281 -8,0 L 97,27 C 97,17.36328 93.84375,14.98828 86,15 Z m -75,6 c 21.618834,0.0096 48.955672,0.0081 75,0 4,0 5,1 5,6 l 0,18 0,18 c 0,5 -1,6 -5,6 C 59.95567,68.992 32.61883,68.99 11,69 7,69 6,68 6,63 L 6,45 6,27 c 0,-5 0.9999995,-6 5,-6 z"
           transform="translate(173.99999,135.36222)"
           id="path5130" />
        <path
           sodipodi:nodetypes="ccccccccc"
           inkscape:connector-curvature="0"
           id="path5132"
           transform="translate(-861.00001,-534.63778)"
           d="m 1051,697 c -3,0 -4,0 -4,5 l 0,26 c 0,5 1,5 4,5 l 65,0 c 3,0 4,0 4,-5 l 0,-26 c 0,-5 -1,-5 -4,-5 z"
           style="font-style:normal;font-variant:normal;font-weight:normal;font-stretch:normal;font-size:15px;line-height:125%;font-family:Ubuntu;-inkscape-font-specification:Ubuntu;text-align:center;letter-spacing:0px;word-spacing:0px;writing-mode:lr-tb;text-anchor:middle;opacity:1;fill:#808080;fill-opacity:1;stroke:none" />
        <path
           style="display:inline;fill:#808080;fill-opacity:1;stroke:none"
           d="m 298.99569,150.36222 -13.9957,35 14.0002,0 0,25 14.0047,-35 -14.0002,0 z"
           id="path3847-0"
           inkscape:connector-curvature="0"
           sodipodi:nodetypes="ccccccc" />
      </g>
    </g>
  </g>
</svg>
