<?xml version="1.0" encoding="UTF-8" standalone="no"?>
<!-- Created with Inkscape (http://www.inkscape.org/) -->

<svg
   xmlns:dc="http://purl.org/dc/elements/1.1/"
   xmlns:cc="http://creativecommons.org/ns#"
   xmlns:rdf="http://www.w3.org/1999/02/22-rdf-syntax-ns#"
   xmlns:svg="http://www.w3.org/2000/svg"
   xmlns="http://www.w3.org/2000/svg"
   xmlns:sodipodi="http://sodipodi.sourceforge.net/DTD/sodipodi-0.dtd"
   xmlns:inkscape="http://www.inkscape.org/namespaces/inkscape"
   width="90"
   height="90"
   id="svg4479"
   version="1.1"
   inkscape:version="0.48+devel r"
   viewBox="0 0 90 90.000001"
   sodipodi:docname="preferences-system-time-symbolic.svg">
  <defs
     id="defs4481">
    <inkscape:perspective
       sodipodi:type="inkscape:persp3d"
       inkscape:vp_x="0 : 45 : 1"
       inkscape:vp_y="0 : 1000 : 0"
       inkscape:vp_z="90 : 45 : 1"
       inkscape:persp3d-origin="45 : 30 : 1"
       id="perspective4105" />
  </defs>
  <sodipodi:namedview
     id="base"
     pagecolor="#ffffff"
     bordercolor="#666666"
     borderopacity="1.0"
     inkscape:pageopacity="0.0"
     inkscape:pageshadow="2"
     inkscape:zoom="5.0931703"
     inkscape:cx="17.628806"
     inkscape:cy="22.18944"
     inkscape:document-units="px"
     inkscape:current-layer="g5279"
     showgrid="true"
     fit-margin-top="0"
     fit-margin-left="0"
     fit-margin-right="0"
     fit-margin-bottom="0"
     showguides="true"
     inkscape:guide-bbox="true"
     inkscape:snap-bbox="true"
     inkscape:bbox-paths="true"
     inkscape:bbox-nodes="true"
     inkscape:snap-bbox-edge-midpoints="true"
     inkscape:snap-bbox-midpoints="true"
     inkscape:object-paths="true"
     inkscape:snap-intersection-paths="true"
     inkscape:object-nodes="true"
     inkscape:snap-smooth-nodes="true"
     inkscape:snap-midpoints="true"
     inkscape:snap-object-midpoints="true"
     inkscape:snap-center="true">
    <inkscape:grid
       type="xygrid"
       id="grid5053"
       empspacing="6" />
    <sodipodi:guide
       orientation="1,0"
       position="3,47"
       id="guide5055" />
    <sodipodi:guide
       orientation="1,0"
       position="6,42"
       id="guide5057" />
    <sodipodi:guide
       orientation="1,0"
       position="9,39"
       id="guide5059" />
    <sodipodi:guide
       orientation="0,1"
       position="35,87"
       id="guide5061" />
    <sodipodi:guide
       orientation="0,1"
       position="37,84"
       id="guide5063" />
    <sodipodi:guide
       orientation="0,1"
       position="39,81"
       id="guide5065" />
    <sodipodi:guide
       orientation="1,0"
       position="87,72"
       id="guide5067" />
    <sodipodi:guide
       orientation="1,0"
       position="84,70"
       id="guide5069" />
    <sodipodi:guide
       orientation="1,0"
       position="81,66"
       id="guide5071" />
    <sodipodi:guide
       orientation="0,1"
       position="92,3"
       id="guide5073" />
    <sodipodi:guide
       orientation="0,1"
       position="93,6"
       id="guide5075" />
    <sodipodi:guide
       orientation="0,1"
       position="94,9"
       id="guide5077" />
  </sodipodi:namedview>
  <metadata
     id="metadata4484">
    <rdf:RDF>
      <cc:Work
         rdf:about="">
        <dc:format>image/svg+xml</dc:format>
        <dc:type
           rdf:resource="http://purl.org/dc/dcmitype/StillImage" />
        <dc:title></dc:title>
      </cc:Work>
    </rdf:RDF>
  </metadata>
  <g
     inkscape:label="Layer 1"
     inkscape:groupmode="layer"
     id="layer1"
     transform="translate(833.57146,-695.93359)">
    <g
       style="display:inline"
       id="g4496"
       transform="translate(-863.57145,-110.42859)">
      <g
         style="display:inline"
         id="g5279"
         transform="translate(-690.00001,84.000006)">
        <rect
           style="opacity:0.1;color:#000000;fill:none;stroke:none;stroke-width:1.10000002;marker:none;visibility:visible;display:inline;overflow:visible;enable-background:accumulate"
           id="rect5232"
           width="89.999992"
           height="89.999992"
           x="720"
           y="722.36218" />
        <path
           style="font-style:normal;font-variant:normal;font-weight:normal;font-stretch:normal;text-indent:0;text-align:start;text-decoration:none;line-height:normal;letter-spacing:normal;word-spacing:normal;text-transform:none;direction:ltr;block-progression:tb;writing-mode:lr-tb;text-anchor:start;baseline-shift:baseline;color:#000000;color-interpolation:sRGB;color-interpolation-filters:linearRGB;fill:#808080;fill-opacity:1;stroke:none;stroke-width:3.99999976;marker:none;visibility:visible;display:inline;overflow:visible;enable-background:accumulate;clip-rule:nonzero;color-rendering:auto;image-rendering:auto;shape-rendering:auto;text-rendering:auto;font-family:sans-serif;-inkscape-font-specification:sans-serif"
           d="M 6.0019531 51 L 6.0019531 84 L 45 84 L 45 51 L 6.0019531 51 z M 19.025391 58.908203 C 20.907791 58.908203 22.381132 59.69192 23.447266 61.257812 C 24.513412 62.807046 25.046875 65.039858 25.046875 67.955078 C 25.046875 70.870305 24.513412 73.109895 23.447266 74.675781 C 22.381132 76.225015 20.907791 77 19.025391 77 C 17.142991 77 15.667702 76.225015 14.601562 74.675781 C 13.535424 73.109895 13.001953 70.870305 13.001953 67.955078 C 13.001953 66.505798 13.13581 65.221582 13.402344 64.105469 C 13.685537 62.972689 14.08515 62.024092 14.601562 61.257812 C 15.134629 60.491527 15.767033 59.907612 16.5 59.507812 C 17.249633 59.108007 18.092517 58.908203 19.025391 58.908203 z M 33.876953 59.308594 L 36 59.308594 L 36 76.625 L 32.976562 76.625 L 32.976562 63.357422 C 32.52679 63.707249 31.960344 64.047693 31.277344 64.380859 C 30.59435 64.714026 29.935754 64.988518 29.302734 65.205078 L 28.378906 62.90625 C 29.345093 62.523103 30.311157 62.033294 31.277344 61.433594 C 32.26019 60.833887 33.12732 60.124847 33.876953 59.308594 z M 19.025391 61.533203 C 18.475664 61.533203 18.008147 61.700036 17.625 62.033203 C 17.258513 62.36637 16.957823 62.823203 16.724609 63.40625 C 16.508049 63.972643 16.349953 64.648701 16.25 65.431641 C 16.166707 66.214587 16.125 67.055525 16.125 67.955078 C 16.125 68.854631 16.166707 69.695562 16.25 70.478516 C 16.349953 71.261456 16.508049 71.944297 16.724609 72.527344 C 16.957823 73.093724 17.258513 73.54378 17.625 73.876953 C 18.008147 74.21012 18.475664 74.376953 19.025391 74.376953 C 19.575117 74.376953 20.031951 74.21012 20.398438 73.876953 C 20.764923 73.54378 21.056884 73.093724 21.273438 72.527344 C 21.506656 71.944297 21.673484 71.261456 21.773438 70.478516 C 21.873383 69.695562 21.923828 68.854631 21.923828 67.955078 C 21.923828 67.055525 21.873383 66.214587 21.773438 65.431641 C 21.673484 64.648701 21.506656 63.972643 21.273438 63.40625 C 21.056884 62.823203 20.764923 62.36637 20.398438 62.033203 C 20.031951 61.700036 19.575117 61.533203 19.025391 61.533203 z "
           transform="translate(720,722.36217)"
           id="path5234" />
        <path
           style="font-style:normal;font-variant:normal;font-weight:normal;font-stretch:normal;text-indent:0;text-align:start;text-decoration:none;line-height:normal;letter-spacing:normal;word-spacing:normal;text-transform:none;direction:ltr;block-progression:tb;writing-mode:lr-tb;text-anchor:start;baseline-shift:baseline;color:#000000;color-interpolation:sRGB;color-interpolation-filters:linearRGB;fill:#808080;fill-opacity:1;stroke:none;stroke-width:9;marker:none;visibility:visible;display:inline;overflow:visible;isolation:auto;mix-blend-mode:normal;enable-background:accumulate;clip-rule:nonzero;color-rendering:auto;image-rendering:auto;shape-rendering:auto;text-rendering:auto;font-family:sans-serif;-inkscape-font-specification:sans-serif"
           d="m 719.62891,1426.0039 c -0.49771,0 -0.99514,0.021 -1.49219,0.045 -7.95287,0.39 -15.78288,3.2684 -22.2461,8.5723 -10.59316,8.6931 -15.50742,22.2609 -13.41601,35.3789 l 8.16406,0 A 30,30 0 0 1 690,1464 a 30,30 0 0 1 30,-30 30,30 0 0 1 30,30 30,30 0 0 1 -29.99805,30 l 0,8.0098 c 16.72253,0 31.51741,-10.9727 36.3711,-26.9746 4.85366,-16.0019 -1.35217,-33.3427 -15.25586,-42.6329 -6.51736,-4.3547 -14.02264,-6.4722 -21.48828,-6.3984 z"
           transform="translate(48,-699.63781)"
           id="path5244"
           inkscape:connector-curvature="0" />
        <rect
           style="color:#000000;fill:#808080;stroke:none;stroke-width:6;marker:none;visibility:visible;display:inline;overflow:visible;enable-background:accumulate"
           id="rect5246"
           width="6"
           height="26.999992"
           x="-771.00238"
           y="740.36218"
           transform="scale(-1,1)" />
        <rect
           y="761.36218"
           x="-786.00238"
           height="5.9999843"
           width="21"
           id="rect5248"
           style="color:#000000;fill:#808080;stroke:none;stroke-width:6;marker:none;visibility:visible;display:inline;overflow:visible;enable-background:accumulate"
           transform="scale(-1,1)" />
      </g>
    </g>
  </g>
</svg>
