<?xml version="1.0" encoding="UTF-8" standalone="no"?>
<!-- Created with Inkscape (http://www.inkscape.org/) -->

<svg
   xmlns:dc="http://purl.org/dc/elements/1.1/"
   xmlns:cc="http://creativecommons.org/ns#"
   xmlns:rdf="http://www.w3.org/1999/02/22-rdf-syntax-ns#"
   xmlns:svg="http://www.w3.org/2000/svg"
   xmlns="http://www.w3.org/2000/svg"
   xmlns:sodipodi="http://sodipodi.sourceforge.net/DTD/sodipodi-0.dtd"
   xmlns:inkscape="http://www.inkscape.org/namespaces/inkscape"
   width="90"
   height="90"
   id="svg4479"
   version="1.1"
   inkscape:version="0.48+devel r"
   viewBox="0 0 90 90.000001"
   sodipodi:docname="preferences-system-updates-symbolic.svg">
  <defs
     id="defs4481">
    <inkscape:perspective
       sodipodi:type="inkscape:persp3d"
       inkscape:vp_x="0 : 45 : 1"
       inkscape:vp_y="0 : 1000 : 0"
       inkscape:vp_z="90 : 45 : 1"
       inkscape:persp3d-origin="45 : 30 : 1"
       id="perspective4105" />
  </defs>
  <sodipodi:namedview
     id="base"
     pagecolor="#ffffff"
     bordercolor="#666666"
     borderopacity="1.0"
     inkscape:pageopacity="0.0"
     inkscape:pageshadow="2"
     inkscape:zoom="5.0931703"
     inkscape:cx="-27.431537"
     inkscape:cy="22.18944"
     inkscape:document-units="px"
     inkscape:current-layer="g5428"
     showgrid="true"
     fit-margin-top="0"
     fit-margin-left="0"
     fit-margin-right="0"
     fit-margin-bottom="0"
     showguides="true"
     inkscape:guide-bbox="true"
     inkscape:snap-bbox="true"
     inkscape:bbox-paths="true"
     inkscape:bbox-nodes="true"
     inkscape:snap-bbox-edge-midpoints="true"
     inkscape:snap-bbox-midpoints="true"
     inkscape:object-paths="true"
     inkscape:snap-intersection-paths="true"
     inkscape:object-nodes="true"
     inkscape:snap-smooth-nodes="true"
     inkscape:snap-midpoints="true"
     inkscape:snap-object-midpoints="true"
     inkscape:snap-center="true">
    <inkscape:grid
       type="xygrid"
       id="grid5053"
       empspacing="6" />
    <sodipodi:guide
       orientation="1,0"
       position="3,47"
       id="guide5055" />
    <sodipodi:guide
       orientation="1,0"
       position="6,42"
       id="guide5057" />
    <sodipodi:guide
       orientation="1,0"
       position="9,39"
       id="guide5059" />
    <sodipodi:guide
       orientation="0,1"
       position="35,87"
       id="guide5061" />
    <sodipodi:guide
       orientation="0,1"
       position="37,84"
       id="guide5063" />
    <sodipodi:guide
       orientation="0,1"
       position="39,81"
       id="guide5065" />
    <sodipodi:guide
       orientation="1,0"
       position="87,72"
       id="guide5067" />
    <sodipodi:guide
       orientation="1,0"
       position="84,70"
       id="guide5069" />
    <sodipodi:guide
       orientation="1,0"
       position="81,66"
       id="guide5071" />
    <sodipodi:guide
       orientation="0,1"
       position="92,3"
       id="guide5073" />
    <sodipodi:guide
       orientation="0,1"
       position="93,6"
       id="guide5075" />
    <sodipodi:guide
       orientation="0,1"
       position="94,9"
       id="guide5077" />
  </sodipodi:namedview>
  <metadata
     id="metadata4484">
    <rdf:RDF>
      <cc:Work
         rdf:about="">
        <dc:format>image/svg+xml</dc:format>
        <dc:type
           rdf:resource="http://purl.org/dc/dcmitype/StillImage" />
        <dc:title></dc:title>
      </cc:Work>
    </rdf:RDF>
  </metadata>
  <g
     inkscape:label="Layer 1"
     inkscape:groupmode="layer"
     id="layer1"
     transform="translate(833.57146,-695.93359)">
    <g
       style="display:inline"
       id="g4496"
       transform="translate(-863.57145,-110.42859)">
      <g
         style="display:inline"
         id="g5428"
         transform="translate(-210,-36.000002)">
        <rect
           style="opacity:0.05;color:#000000;fill:none;stroke:none;stroke-width:2;marker:none;visibility:visible;display:inline;overflow:visible;enable-background:accumulate"
           id="rect5430"
           width="90"
           height="90.000015"
           x="842.36218"
           y="239.99998"
           transform="matrix(0,1,1,0,0,0)" />
        <path
           style="font-style:normal;font-variant:normal;font-weight:normal;font-stretch:normal;text-indent:0;text-align:start;text-decoration:none;line-height:normal;letter-spacing:normal;word-spacing:normal;text-transform:none;direction:ltr;block-progression:tb;writing-mode:lr-tb;text-anchor:start;baseline-shift:baseline;color:#000000;color-interpolation:sRGB;color-interpolation-filters:linearRGB;fill:#808080;fill-opacity:1;stroke:none;stroke-width:15.00000286;marker:none;visibility:visible;display:inline;overflow:visible;isolation:auto;mix-blend-mode:normal;enable-background:accumulate;clip-rule:nonzero;color-rendering:auto;image-rendering:auto;shape-rendering:auto;text-rendering:auto;font-family:sans-serif;-inkscape-font-specification:sans-serif"
           d="M 44.119141 4.0117188 C 30.249836 4.3287102 16.839093 11.635271 9.4433594 24.457031 C -1.8263405 43.994941 4.9671827 69.240873 24.507812 80.533203 C 44.048442 91.825513 69.286941 85.090644 80.556641 65.552734 C 91.82633 46.014815 85.032797 20.770825 65.492188 9.4785156 C 58.775096 5.5967772 51.384014 3.8456756 44.119141 4.0117188 z M 61.96875 15.800781 C 61.96875 15.800781 67.957814 26.499976 71.990234 39.197266 C 71.987934 39.198266 71.989231 39.206081 71.988281 39.207031 C 71.987101 39.209031 71.987288 39.215837 71.986328 39.216797 C 71.985128 39.218797 71.987288 39.225594 71.986328 39.226562 C 71.988438 39.232562 71.985335 39.235368 71.984375 39.236328 C 59.269755 38.786428 46.751953 35.638672 46.751953 35.638672 L 51.904297 28.921875 C 42.20833 24.531124 29.925457 29.360835 26.783203 41.087891 L 18.953125 38.990234 C 21.757855 28.522874 30.095729 21.90942 39.380859 20.0625 C 45.214416 18.902125 51.420097 19.626576 56.865234 22.455078 L 61.96875 15.800781 z M 63.216797 48.921875 L 71.046875 51.019531 C 68.242155 61.486891 59.904271 68.100336 50.619141 69.947266 C 44.786121 71.107521 38.581492 70.382536 33.136719 67.554688 L 28.03125 74.208984 C 28.03125 74.208984 22.044269 63.5102 18.011719 50.8125 C 18.014019 50.8115 18.012882 50.803684 18.013672 50.802734 C 18.014792 50.800734 18.012852 50.793929 18.013672 50.792969 C 18.014792 50.790969 18.012862 50.784163 18.013672 50.783203 C 18.011472 50.777203 18.014825 50.776351 18.015625 50.775391 C 30.730595 51.225301 43.25 54.371094 43.25 54.371094 L 38.095703 61.089844 C 47.79154 65.480096 60.074543 60.64893 63.216797 48.921875 z "
           transform="translate(239.99999,842.36218)"
           id="path5432" />
      </g>
    </g>
  </g>
</svg>
