<?xml version="1.0" encoding="UTF-8" standalone="no"?>
<!-- Created with Inkscape (http://www.inkscape.org/) -->

<svg
   xmlns:dc="http://purl.org/dc/elements/1.1/"
   xmlns:cc="http://creativecommons.org/ns#"
   xmlns:rdf="http://www.w3.org/1999/02/22-rdf-syntax-ns#"
   xmlns:svg="http://www.w3.org/2000/svg"
   xmlns="http://www.w3.org/2000/svg"
   xmlns:sodipodi="http://sodipodi.sourceforge.net/DTD/sodipodi-0.dtd"
   xmlns:inkscape="http://www.inkscape.org/namespaces/inkscape"
   width="90"
   height="90"
   id="svg4479"
   version="1.1"
   inkscape:version="0.48+devel r"
   viewBox="0 0 90 90.000001"
   sodipodi:docname="preferences-desktop-wallpaper-symbolic.svg">
  <defs
     id="defs4481">
    <inkscape:perspective
       sodipodi:type="inkscape:persp3d"
       inkscape:vp_x="0 : 45 : 1"
       inkscape:vp_y="0 : 1000 : 0"
       inkscape:vp_z="90 : 45 : 1"
       inkscape:persp3d-origin="45 : 30 : 1"
       id="perspective4105" />
  </defs>
  <sodipodi:namedview
     id="base"
     pagecolor="#ffffff"
     bordercolor="#666666"
     borderopacity="1.0"
     inkscape:pageopacity="0.0"
     inkscape:pageshadow="2"
     inkscape:zoom="3.259629"
     inkscape:cx="-50.147881"
     inkscape:cy="33.213779"
     inkscape:document-units="px"
     inkscape:current-layer="layer1"
     showgrid="true"
     fit-margin-top="0"
     fit-margin-left="0"
     fit-margin-right="0"
     fit-margin-bottom="0"
     showguides="true"
     inkscape:guide-bbox="true"
     inkscape:snap-bbox="true"
     inkscape:bbox-paths="true"
     inkscape:bbox-nodes="true"
     inkscape:snap-bbox-edge-midpoints="true"
     inkscape:snap-bbox-midpoints="true"
     inkscape:object-paths="true"
     inkscape:snap-intersection-paths="true"
     inkscape:object-nodes="true"
     inkscape:snap-smooth-nodes="true"
     inkscape:snap-midpoints="true"
     inkscape:snap-object-midpoints="true"
     inkscape:snap-center="true">
    <inkscape:grid
       type="xygrid"
       id="grid5053"
       empspacing="6" />
    <sodipodi:guide
       orientation="1,0"
       position="3,47"
       id="guide5055" />
    <sodipodi:guide
       orientation="1,0"
       position="6,42"
       id="guide5057" />
    <sodipodi:guide
       orientation="1,0"
       position="9,39"
       id="guide5059" />
    <sodipodi:guide
       orientation="0,1"
       position="35,87"
       id="guide5061" />
    <sodipodi:guide
       orientation="0,1"
       position="37,84"
       id="guide5063" />
    <sodipodi:guide
       orientation="0,1"
       position="39,81"
       id="guide5065" />
    <sodipodi:guide
       orientation="1,0"
       position="87,72"
       id="guide5067" />
    <sodipodi:guide
       orientation="1,0"
       position="84,70"
       id="guide5069" />
    <sodipodi:guide
       orientation="1,0"
       position="81,66"
       id="guide5071" />
    <sodipodi:guide
       orientation="0,1"
       position="92,3"
       id="guide5073" />
    <sodipodi:guide
       orientation="0,1"
       position="93,6"
       id="guide5075" />
    <sodipodi:guide
       orientation="0,1"
       position="94,9"
       id="guide5077" />
  </sodipodi:namedview>
  <metadata
     id="metadata4484">
    <rdf:RDF>
      <cc:Work
         rdf:about="">
        <dc:format>image/svg+xml</dc:format>
        <dc:type
           rdf:resource="http://purl.org/dc/dcmitype/StillImage" />
        <dc:title></dc:title>
      </cc:Work>
    </rdf:RDF>
  </metadata>
  <g
     inkscape:label="Layer 1"
     inkscape:groupmode="layer"
     id="layer1"
     transform="translate(833.57146,-695.93359)">
    <g
       style="display:inline"
       id="g4442"
       transform="translate(-1313.5715,861.57142)">
      <rect
         y="-165.63782"
         x="480"
         height="89.999992"
         width="89.999992"
         id="rect4444"
         style="opacity:0.1;color:#000000;fill:none;stroke:none;stroke-width:1.10000002;marker:none;visibility:visible;display:inline;overflow:visible;enable-background:accumulate" />
      <g
         id="g4460"
         transform="matrix(0.9188034,0.9188034,-0.9188034,0.9188034,-62.436438,-485.08171)">
        <path
           sodipodi:nodetypes="ccccssccccccccccccccssccccc"
           inkscape:connector-curvature="0"
           id="path4446"
           d="m 512,-111.63781 0,3.12109 c 0.16495,0.0326 0.33308,0.0603 0.49023,0.10743 0.50698,0.16223 0.94906,0.406 1.32422,0.73046 0.36502,0.32447 0.65231,0.73913 0.86524,1.2461 0.21293,0.50697 0.32031,1.10544 0.32031,1.79492 0,0.68948 -0.10738,1.28246 -0.32031,1.7793 -0.21293,0.50697 -0.50022,0.92358 -0.86524,1.24804 -0.37516,0.33461 -0.81724,0.57643 -1.32422,0.72852 -0.15706,0.0503 -0.32538,0.0785 -0.49023,0.11328 l 0,0.66992 0,7.69336 0,10.76758 12,0 0,-10.76758 0,-7.69336 0,-0.64648 c -0.19895,-0.038 -0.39812,-0.0766 -0.58594,-0.13672 -0.50698,-0.15209 -0.9471,-0.39391 -1.32226,-0.72852 -0.36502,-0.32446 -0.65426,-0.74107 -0.86719,-1.24804 -0.21293,-0.49684 -0.32031,-1.08982 -0.32031,-1.7793 0,-0.68948 0.10738,-1.28795 0.32031,-1.79492 0.21293,-0.50697 0.50217,-0.92163 0.86719,-1.2461 0.37516,-0.32446 0.81528,-0.56823 1.32226,-0.73046 0.18775,-0.0563 0.38707,-0.0914 0.58594,-0.12696 l 0,-3.10156 z"
           style="color:#000000;fill:#808080;fill-opacity:1;fill-rule:nonzero;stroke:none;stroke-width:2;marker:none;visibility:visible;display:inline;overflow:visible;enable-background:accumulate" />
        <rect
           style="color:#000000;fill:#808080;fill-opacity:1;fill-rule:nonzero;stroke:none;stroke-width:2;marker:none;visibility:visible;display:inline;overflow:visible;enable-background:accumulate"
           id="rect4448"
           width="4.0000625"
           height="11.844928"
           x="515.99994"
           y="-120.63774" />
        <path
           sodipodi:nodetypes="cccccccccsccccccccccccccscccc"
           style="color:#000000;fill:#808080;fill-opacity:1;fill-rule:nonzero;stroke:none;stroke-width:2;marker:none;visibility:visible;display:inline;overflow:visible;enable-background:accumulate"
           d="m 493.91783,-137.70154 c -1.52243,0 -2.79273,0.22792 -3.81563,0.68142 -1.02289,0.42828 -1.83367,1.04351 -2.42832,1.84968 -0.61847,0.78111 -1.04657,1.74085 -1.28443,2.87451 -0.26168,1.10859 -0.38947,2.33031 -0.38947,3.66572 l 0,2.92124 c 0,1.3354 0.12738,2.55699 0.38947,3.66572 0.23786,1.13366 0.66596,2.09325 1.28443,2.87437 0.59465,0.80631 1.40543,1.42139 2.42832,1.84968 1.0229,0.45349 2.2932,0.68141 3.81563,0.68141 0.13569,0 0.25711,-0.0138 0.38933,-0.0138 l 0,0.0138 25.69284,0 0,-4.00002 -25.84641,0 0,-0.0139 c -0.88014,0 -1.48768,-0.0498 -2.08496,-0.32637 -0.50979,-0.23623 -0.92861,-0.54073 -1.2141,-1.01928 -0.3093,-0.45349 -0.52183,-1.05999 -0.6409,-1.81577 C 490.0702,-124.54328 490,-125.43821 490,-126.49626 l 0,-1.28259 c 0,-1.05819 0.0706,-1.95243 0.21363,-2.683 0.11907,-0.75605 0.3316,-1.36255 0.6409,-1.8159 0.28549,-0.47869 0.69075,-0.81753 1.2141,-1.01914 0.49954,-0.22682 1.11787,-0.34092 1.85513,-0.34092 0.46326,0 1.10834,0.0429 1.60566,0.0942 l 0.16227,-4.09438 c -0.57638,-0.0318 -1.15594,-0.0651 -1.77386,-0.0651 z"
           id="path4450"
           inkscape:connector-curvature="0" />
        <path
           sodipodi:nodetypes="sccssccss"
           inkscape:connector-curvature="0"
           id="path4452"
           d="m 504.71485,-146.63781 c -7.14286,0 -10.71485,-4.5e-4 -10.71485,8.64867 l 0,4.70266 c 0,8.64912 3.57199,8.64867 10.71485,8.64867 l 26.57031,0 c 7.14286,0 10.71484,4.5e-4 10.71484,-8.64867 l 0,-4.70266 c 0,-8.64912 -3.57198,-8.64867 -10.71484,-8.64867 z"
           style="font-size:15px;font-style:normal;font-variant:normal;font-weight:normal;font-stretch:normal;text-align:center;line-height:125%;letter-spacing:0px;word-spacing:0px;writing-mode:lr-tb;text-anchor:middle;fill:#808080;fill-opacity:1;stroke:none;display:inline;font-family:Ubuntu;-inkscape-font-specification:Ubuntu" />
      </g>
      <path
         style="color:#000000;fill:#808080;fill-opacity:1;fill-rule:nonzero;stroke:none;stroke-width:3;marker:none;visibility:visible;display:inline;overflow:visible;enable-background:accumulate"
         d="m 548.98032,-78.63794 c -3.30285,0 -5.98032,-2.57056 -5.98032,-5.74158 0,-0.62963 0.11052,-1.23371 0.30564,-1.80058 0.0199,-0.0576 0.0358,-0.11706 0.0574,-0.17389 0.15233,-0.48392 2.38489,-7.51676 5.62359,-13.82362 7.3e-4,0 0.002,4.8e-4 0.003,0.001 10e-4,7.2e-4 0.002,0.002 0.003,0.004 0.001,0.001 0.002,0.002 0.004,0.004 10e-4,7.2e-4 0.002,0.001 0.003,0.001 3.46036,6.88818 5.66009,13.98817 5.66009,13.98817 l -0.002,0 c 0.19482,0.56653 0.30174,1.17133 0.30174,1.80056 0,3.17102 -2.67747,5.74157 -5.98031,5.74157 z"
         id="path4420-2"
         inkscape:connector-curvature="0" />
    </g>
  </g>
</svg>
