<?xml version="1.0" encoding="UTF-8" standalone="no"?>
<!-- Created with Inkscape (http://www.inkscape.org/) -->

<svg
   xmlns:dc="http://purl.org/dc/elements/1.1/"
   xmlns:cc="http://creativecommons.org/ns#"
   xmlns:rdf="http://www.w3.org/1999/02/22-rdf-syntax-ns#"
   xmlns:svg="http://www.w3.org/2000/svg"
   xmlns="http://www.w3.org/2000/svg"
   xmlns:sodipodi="http://sodipodi.sourceforge.net/DTD/sodipodi-0.dtd"
   xmlns:inkscape="http://www.inkscape.org/namespaces/inkscape"
   width="90"
   height="90"
   id="svg4479"
   version="1.1"
   inkscape:version="0.48+devel r"
   viewBox="0 0 90 90.000001"
   sodipodi:docname="soundcloud-symbolic.svg">
  <defs
     id="defs4481">
    <clipPath
       clipPathUnits="userSpaceOnUse"
       id="clipPath40">
      <path
         inkscape:connector-curvature="0"
         d="M 0,500 1024,500 1024,0 0,0 0,500 Z"
         id="path42" />
    </clipPath>
    <clipPath
       clipPathUnits="userSpaceOnUse"
       id="clipPath18">
      <path
         inkscape:connector-curvature="0"
         d="M 0,2743.88 0,0 l 2743.81,0 0,2743.88 -2743.81,0 z"
         id="path20" />
    </clipPath>
  </defs>
  <sodipodi:namedview
     id="base"
     pagecolor="#ffffff"
     bordercolor="#666666"
     borderopacity="1.0"
     inkscape:pageopacity="0.0"
     inkscape:pageshadow="2"
     inkscape:zoom="6.3664629"
     inkscape:cx="47.512308"
     inkscape:cy="51.119435"
     inkscape:document-units="px"
     inkscape:current-layer="layer1"
     showgrid="true"
     fit-margin-top="0"
     fit-margin-left="0"
     fit-margin-right="0"
     fit-margin-bottom="0"
     showguides="true"
     inkscape:guide-bbox="true"
     inkscape:snap-bbox="true"
     inkscape:bbox-paths="true"
     inkscape:bbox-nodes="true"
     inkscape:snap-bbox-edge-midpoints="true"
     inkscape:snap-bbox-midpoints="true"
     inkscape:object-paths="true"
     inkscape:snap-intersection-paths="true"
     inkscape:object-nodes="true"
     inkscape:snap-smooth-nodes="true"
     inkscape:snap-midpoints="true"
     inkscape:snap-object-midpoints="true"
     inkscape:snap-center="true">
    <inkscape:grid
       type="xygrid"
       id="grid5053"
       empspacing="6" />
    <sodipodi:guide
       orientation="1,0"
       position="3,47"
       id="guide5055" />
    <sodipodi:guide
       orientation="1,0"
       position="6,42"
       id="guide5057" />
    <sodipodi:guide
       orientation="1,0"
       position="9,39"
       id="guide5059" />
    <sodipodi:guide
       orientation="0,1"
       position="35,87"
       id="guide5061" />
    <sodipodi:guide
       orientation="0,1"
       position="37,84"
       id="guide5063" />
    <sodipodi:guide
       orientation="0,1"
       position="39,81"
       id="guide5065" />
    <sodipodi:guide
       orientation="1,0"
       position="87,72"
       id="guide5067" />
    <sodipodi:guide
       orientation="1,0"
       position="84,70"
       id="guide5069" />
    <sodipodi:guide
       orientation="1,0"
       position="81,66"
       id="guide5071" />
    <sodipodi:guide
       orientation="0,1"
       position="92,3"
       id="guide5073" />
    <sodipodi:guide
       orientation="0,1"
       position="93,6"
       id="guide5075" />
  </sodipodi:namedview>
  <metadata
     id="metadata4484">
    <rdf:RDF>
      <cc:Work
         rdf:about="">
        <dc:format>image/svg+xml</dc:format>
        <dc:type
           rdf:resource="http://purl.org/dc/dcmitype/StillImage" />
        <dc:title></dc:title>
      </cc:Work>
    </rdf:RDF>
  </metadata>
  <g
     inkscape:label="Layer 1"
     inkscape:groupmode="layer"
     id="layer1"
     transform="translate(833.57146,-695.93359)">
    <rect
       y="695.93359"
       x="-833.57147"
       height="90"
       width="90"
       id="rect4813"
       style="fill:none;stroke:none" />
    <path
       sodipodi:nodetypes="scccsccccccscscccscccccccsccccccscccscccsscccscccsscccccscccscccccscccccscccscccsscccscccsccccsccccccscccscccsccccscccscccccsccccssccccccscccccc"
       inkscape:connector-curvature="0"
       d="m -832.55214,744.79269 c -0.1886,0 -0.3368,0.1454 -0.3611,0.3545 l -0.6582,5.0319 0.6582,4.9452 c 0.025,0.2091 0.1727,0.3536 0.3611,0.3536 0.1818,0 0.33,-0.1432 0.3591,-0.3518 l 0,0 0,0 0,0 0.78,-4.947 -0.78,-5.0328 c -0.027,-0.2068 -0.1773,-0.3536 -0.3591,-0.3536 z m 3.7012,-2.7491 c -0.032,-0.2159 -0.1841,-0.3655 -0.3746,-0.3655 -0.1909,0 -0.3484,0.1546 -0.3745,0.3655 0,0 -0.8848,8.1355 -0.8848,8.1355 l 0.8848,7.9554 c 0.025,0.2136 0.184,0.3671 0.3745,0.3671 0.1886,0 0.3425,-0.15 0.3736,-0.3653 l 1.0066,-7.9572 z m 13.9415,-7.5043 c -0.3629,0 -0.6629,0.2991 -0.6804,0.6788 l -0.7046,14.9678 0.7046,9.6729 c 0.023,0.378 0.3175,0.6759 0.6804,0.6759 0.3612,0 0.6603,-0.2988 0.6814,-0.6779 l 0,0 0.7966,-9.6741 -0.7966,-14.9675 c -0.023,-0.38 -0.3202,-0.6791 -0.6814,-0.6791 z m -7.2156,5.2023 c -0.2787,0 -0.5062,0.225 -0.5284,0.5229 l -0.7937,9.9175 0.7937,9.595 c 0.023,0.2971 0.2497,0.5211 0.5284,0.5211 0.2759,0 0.5034,-0.225 0.5275,-0.5211 l 0.902,-9.595 -0.902,-9.9193 c -0.025,-0.2971 -0.2516,-0.5211 -0.5275,-0.5211 z m 14.5484,20.7922 c 0.4502,0 0.8161,-0.3652 0.8343,-0.8327 l 0.6911,-9.5105 -0.69,-19.9272 c -0.023,-0.4675 -0.3843,-0.833 -0.8343,-0.833 -0.4541,0 -0.8209,0.3664 -0.8354,0.8341 0,0 -0.6126,19.9252 -0.6126,19.9252 l 0.6126,9.5141 c 0.023,0.4639 0.3813,0.83 0.8343,0.83 z m 15.0122,0.043 c 0.6194,0 1.1305,-0.5134 1.1421,-1.1445 l 0,0 0,0 0.482,-9.2375 -0.482,-23.0146 c 0,-0.6304 -0.5227,-1.1448 -1.1421,-1.1448 -0.6204,0 -1.1325,0.5135 -1.1422,1.1457 l -0.4307,23.0057 c 0,0.023 0.4307,9.2511 0.4307,9.2511 0,0.6255 0.5227,1.1389 1.1422,1.1389 z m -7.5631,-0.036 c 0.5391,0 0.9736,-0.4356 0.9881,-0.9909 l 0,0 0.5866,-9.3659 -0.5875,-20.0716 c -0.023,-0.5552 -0.4491,-0.9897 -0.9884,-0.9897 -0.5429,0 -0.9775,0.4345 -0.9891,0.9897 l -0.5216,20.0725 0.5225,9.3641 c 0.023,0.5493 0.4464,0.985 0.9894,0.985 z m -18.4037,-0.089 c 0.3203,0 0.5798,-0.2579 0.6039,-0.5979 l 0.8498,-9.6748 -0.8498,-9.2034 c -0.023,-0.34 -0.2825,-0.5962 -0.6039,-0.5962 -0.3252,0 -0.5845,0.2582 -0.605,0.6003 l -0.7482,9.1993 0.7482,9.6738 c 0.023,0.341 0.2798,0.5991 0.605,0.5991 z m -7.1586,-0.5298 c 0.2343,0 0.4239,-0.1863 0.4511,-0.4431 l 0.9543,-9.3019 -0.9534,-9.6525 c -0.027,-0.2581 -0.2181,-0.4441 -0.452,-0.4441 -0.2371,0 -0.4268,0.1864 -0.4509,0.4441 0,0 -0.8402,9.6525 -0.8402,9.6525 l 0.8402,9.2998 c 0.023,0.2582 0.2136,0.4452 0.4509,0.4452 z m 29.3293,-30.1379 c -0.5857,0 -1.055,0.4686 -1.0666,1.0686 l -0.4763,19.3389 0.4763,9.3057 c 0.023,0.5922 0.48,1.0609 1.0666,1.0609 0.5846,0 1.0511,-0.4678 1.0646,-1.0678 l 0,0 0.5343,-9.3056 -0.5343,-19.3412 c -0.023,-0.5979 -0.48,-1.0666 -1.0646,-1.0666 z m -14.8959,30.7663 c 0.4045,0 0.7384,-0.3322 0.7577,-0.7561 l 0.7434,-9.6086 -0.7434,-18.3909 c -0.023,-0.4248 -0.3532,-0.7559 -0.7577,-0.7559 -0.4086,0 -0.7416,0.332 -0.7589,0.7559 0,0 -0.6581,18.3909 -0.6581,18.3909 l 0.659,9.6125 c 0.023,0.42 0.3494,0.7522 0.758,0.7522 z m 8.3007,-0.907 0,0 0.6386,-9.4498 -0.6386,-20.5986 c -0.023,-0.5114 -0.4164,-0.9127 -0.9109,-0.9127 -0.4975,0 -0.8982,0.4004 -0.9118,0.9127 l -0.5671,20.5977 0.5682,9.4546 c 0.023,0.5066 0.4141,0.907 0.9107,0.907 0.4957,0 0.8943,-0.4004 0.9109,-0.91 l 0,0 z m 48.3154,-21.3282 c -1.5165,0 -2.9636,0.3087 -4.282,0.865 -0.8807,-10.042 -9.2473,-17.9195 -19.4527,-17.9195 -2.4973,0 -4.9314,0.495 -7.0812,1.3318 -0.8352,0.3254 -1.0579,0.6604 -1.0657,1.3102 l 0,35.3637 c 0,0.682 0.5344,1.25 1.1955,1.317 0.027,0 30.4877,0.023 30.6852,0.023 6.1132,0 11.0698,-4.9888 11.0698,-11.1429 0,-6.1541 -4.9557,-11.1439 -11.0689,-11.1439 z m -34.1445,-14.4429 c -0.665,0 -1.2109,0.5495 -1.2205,1.2245 l -0.4995,25.1005 0.5004,9.1097 c 0,0.6653 0.5546,1.2139 1.2196,1.2139 0.6629,0 1.2089,-0.5486 1.2186,-1.2236 l 0,0 0.543,-9.1109 -0.543,-25.1023 c 0,-0.6732 -0.5557,-1.2225 -1.2186,-1.2225 z"
       id="path2465"
       style="fill:#808080;fill-opacity:1" />
  </g>
</svg>
