<?xml version="1.0" encoding="UTF-8" standalone="no"?>
<!-- Created with Inkscape (http://www.inkscape.org/) -->

<svg
   xmlns:dc="http://purl.org/dc/elements/1.1/"
   xmlns:cc="http://creativecommons.org/ns#"
   xmlns:rdf="http://www.w3.org/1999/02/22-rdf-syntax-ns#"
   xmlns:svg="http://www.w3.org/2000/svg"
   xmlns="http://www.w3.org/2000/svg"
   xmlns:sodipodi="http://sodipodi.sourceforge.net/DTD/sodipodi-0.dtd"
   xmlns:inkscape="http://www.inkscape.org/namespaces/inkscape"
   width="90"
   height="90"
   id="svg4479"
   version="1.1"
   inkscape:version="0.48+devel r"
   viewBox="0 0 90 90.000001"
   sodipodi:docname="spotify-symbolic.svg">
  <defs
     id="defs4481">
    <clipPath
       clipPathUnits="userSpaceOnUse"
       id="clipPath40">
      <path
         inkscape:connector-curvature="0"
         d="M 0,500 1024,500 1024,0 0,0 0,500 Z"
         id="path42" />
    </clipPath>
    <clipPath
       clipPathUnits="userSpaceOnUse"
       id="clipPath18">
      <path
         inkscape:connector-curvature="0"
         d="M 0,2743.88 0,0 l 2743.81,0 0,2743.88 -2743.81,0 z"
         id="path20" />
    </clipPath>
  </defs>
  <sodipodi:namedview
     id="base"
     pagecolor="#ffffff"
     bordercolor="#666666"
     borderopacity="1.0"
     inkscape:pageopacity="0.0"
     inkscape:pageshadow="2"
     inkscape:zoom="6.3664629"
     inkscape:cx="47.512308"
     inkscape:cy="51.119435"
     inkscape:document-units="px"
     inkscape:current-layer="layer1"
     showgrid="true"
     fit-margin-top="0"
     fit-margin-left="0"
     fit-margin-right="0"
     fit-margin-bottom="0"
     showguides="true"
     inkscape:guide-bbox="true"
     inkscape:snap-bbox="true"
     inkscape:bbox-paths="true"
     inkscape:bbox-nodes="true"
     inkscape:snap-bbox-edge-midpoints="true"
     inkscape:snap-bbox-midpoints="true"
     inkscape:object-paths="true"
     inkscape:snap-intersection-paths="true"
     inkscape:object-nodes="true"
     inkscape:snap-smooth-nodes="true"
     inkscape:snap-midpoints="true"
     inkscape:snap-object-midpoints="true"
     inkscape:snap-center="true">
    <inkscape:grid
       type="xygrid"
       id="grid5053"
       empspacing="6" />
    <sodipodi:guide
       orientation="1,0"
       position="3,47"
       id="guide5055" />
    <sodipodi:guide
       orientation="1,0"
       position="6,42"
       id="guide5057" />
    <sodipodi:guide
       orientation="1,0"
       position="9,39"
       id="guide5059" />
    <sodipodi:guide
       orientation="0,1"
       position="35,87"
       id="guide5061" />
    <sodipodi:guide
       orientation="0,1"
       position="37,84"
       id="guide5063" />
    <sodipodi:guide
       orientation="0,1"
       position="39,81"
       id="guide5065" />
    <sodipodi:guide
       orientation="1,0"
       position="87,72"
       id="guide5067" />
    <sodipodi:guide
       orientation="1,0"
       position="84,70"
       id="guide5069" />
    <sodipodi:guide
       orientation="1,0"
       position="81,66"
       id="guide5071" />
    <sodipodi:guide
       orientation="0,1"
       position="92,3"
       id="guide5073" />
    <sodipodi:guide
       orientation="0,1"
       position="93,6"
       id="guide5075" />
  </sodipodi:namedview>
  <metadata
     id="metadata4484">
    <rdf:RDF>
      <cc:Work
         rdf:about="">
        <dc:format>image/svg+xml</dc:format>
        <dc:type
           rdf:resource="http://purl.org/dc/dcmitype/StillImage" />
        <dc:title></dc:title>
      </cc:Work>
    </rdf:RDF>
  </metadata>
  <g
     inkscape:label="Layer 1"
     inkscape:groupmode="layer"
     id="layer1"
     transform="translate(833.57146,-695.93359)">
    <rect
       y="695.93359"
       x="-833.57147"
       height="90"
       width="90"
       id="rect4821"
       style="fill:none;stroke:none" />
    <path
       inkscape:connector-curvature="0"
       id="circle4113-5"
       d="m -788.56854,699.93059 c -22.6448,0 -41.0029,18.3581 -41.0029,41.003 0,22.6449 18.3581,41.003 41.0029,41.003 22.645,0 40.9971,-18.3581 40.9971,-41.003 0,-22.6449 -18.3521,-41.003 -40.9971,-41.003 z m -6.3914,19.413 c 12.5971,0 24.9736,3.3577 35.7873,9.7094 1.6046,0.9425 2.1418,3.0115 1.1992,4.616 -0.6281,1.0689 -1.7547,1.6591 -2.9105,1.6591 -0.5793,0 -1.1693,-0.1444 -1.7056,-0.46 -9.7796,-5.7441 -20.9723,-8.7838 -32.3704,-8.7838 -6.1581,0 -12.2578,0.8787 -18.1266,2.6079 -1.787,0.526 -3.6587,-0.4971 -4.1852,-2.2819 -0.5255,-1.785 0.4968,-3.6593 2.2818,-4.1853 6.4877,-1.9115 13.2268,-2.8814 20.03,-2.8814 z m 0,13.9644 c 10.6887,0 21.1108,2.9824 30.141,8.6268 1.4207,0.8876 1.854,2.7594 0.9662,4.1795 -0.5753,0.9201 -1.5676,1.4261 -2.5787,1.4261 -0.5492,0 -1.1009,-0.1475 -1.6006,-0.4598 -8.0651,-5.0409 -17.3768,-7.707 -26.9279,-7.707 -5.3065,0 -10.5426,0.8178 -15.5595,2.4274 -1.5948,0.5106 -3.3009,-0.367 -3.8127,-1.9618 -0.5116,-1.5946 0.3671,-3.3008 1.9617,-3.8127 5.6165,-1.8014 11.4745,-2.7185 17.4105,-2.7185 z m 0,13.8191 c 8.8197,0 17.3096,2.653 24.5471,7.672 1.2238,0.8485 1.523,2.5254 0.6751,3.7488 -0.5234,0.7548 -1.3635,1.1582 -2.2178,1.1582 -0.5297,0 -1.0621,-0.1537 -1.5308,-0.4771 -6.3316,-4.3911 -13.7569,-6.7116 -21.4736,-6.7116 -4.4635,0 -8.8307,0.7731 -12.9809,2.2934 -1.3979,0.5123 -2.9451,-0.2093 -3.4575,-1.6065 -0.5122,-1.3982 0.2026,-2.9456 1.6007,-3.4577 4.7463,-1.739 9.7392,-2.6195 14.8377,-2.6195 z"
       style="fill:#808080" />
  </g>
</svg>
