<?xml version="1.0" encoding="UTF-8" standalone="no"?>
<!-- Created with Inkscape (http://www.inkscape.org/) -->

<svg
   xmlns:dc="http://purl.org/dc/elements/1.1/"
   xmlns:cc="http://creativecommons.org/ns#"
   xmlns:rdf="http://www.w3.org/1999/02/22-rdf-syntax-ns#"
   xmlns:svg="http://www.w3.org/2000/svg"
   xmlns="http://www.w3.org/2000/svg"
   xmlns:sodipodi="http://sodipodi.sourceforge.net/DTD/sodipodi-0.dtd"
   xmlns:inkscape="http://www.inkscape.org/namespaces/inkscape"
   width="90"
   height="90"
   id="svg4479"
   version="1.1"
   inkscape:version="0.48+devel r"
   viewBox="0 0 90 90.000001"
   sodipodi:docname="ubuntu-logo-symbolic.svg">
  <defs
     id="defs4481">
    <clipPath
       clipPathUnits="userSpaceOnUse"
       id="clipPath40">
      <path
         inkscape:connector-curvature="0"
         d="M 0,500 1024,500 1024,0 0,0 0,500 Z"
         id="path42" />
    </clipPath>
    <clipPath
       clipPathUnits="userSpaceOnUse"
       id="clipPath18">
      <path
         inkscape:connector-curvature="0"
         d="M 0,2743.88 0,0 l 2743.81,0 0,2743.88 -2743.81,0 z"
         id="path20" />
    </clipPath>
  </defs>
  <sodipodi:namedview
     id="base"
     pagecolor="#ffffff"
     bordercolor="#666666"
     borderopacity="1.0"
     inkscape:pageopacity="0.0"
     inkscape:pageshadow="2"
     inkscape:zoom="4.0745363"
     inkscape:cx="58.223889"
     inkscape:cy="27.046019"
     inkscape:document-units="px"
     inkscape:current-layer="layer1"
     showgrid="true"
     fit-margin-top="0"
     fit-margin-left="0"
     fit-margin-right="0"
     fit-margin-bottom="0"
     showguides="true"
     inkscape:guide-bbox="true"
     inkscape:snap-bbox="true"
     inkscape:bbox-paths="true"
     inkscape:bbox-nodes="true"
     inkscape:snap-bbox-edge-midpoints="true"
     inkscape:snap-bbox-midpoints="true"
     inkscape:object-paths="true"
     inkscape:snap-intersection-paths="true"
     inkscape:object-nodes="true"
     inkscape:snap-smooth-nodes="true"
     inkscape:snap-midpoints="true"
     inkscape:snap-object-midpoints="true"
     inkscape:snap-center="true">
    <inkscape:grid
       type="xygrid"
       id="grid5053"
       empspacing="6" />
    <sodipodi:guide
       orientation="1,0"
       position="3,47"
       id="guide5055" />
    <sodipodi:guide
       orientation="1,0"
       position="6,42"
       id="guide5057" />
    <sodipodi:guide
       orientation="1,0"
       position="9,39"
       id="guide5059" />
    <sodipodi:guide
       orientation="0,1"
       position="35,87"
       id="guide5061" />
    <sodipodi:guide
       orientation="0,1"
       position="37,84"
       id="guide5063" />
    <sodipodi:guide
       orientation="0,1"
       position="39,81"
       id="guide5065" />
    <sodipodi:guide
       orientation="1,0"
       position="87,72"
       id="guide5067" />
    <sodipodi:guide
       orientation="1,0"
       position="84,70"
       id="guide5069" />
    <sodipodi:guide
       orientation="1,0"
       position="81,66"
       id="guide5071" />
    <sodipodi:guide
       orientation="0,1"
       position="92,3"
       id="guide5073" />
    <sodipodi:guide
       orientation="0,1"
       position="93,6"
       id="guide5075" />
  </sodipodi:namedview>
  <metadata
     id="metadata4484">
    <rdf:RDF>
      <cc:Work
         rdf:about="">
        <dc:format>image/svg+xml</dc:format>
        <dc:type
           rdf:resource="http://purl.org/dc/dcmitype/StillImage" />
        <dc:title></dc:title>
      </cc:Work>
    </rdf:RDF>
  </metadata>
  <g
     inkscape:label="Layer 1"
     inkscape:groupmode="layer"
     id="layer1"
     transform="translate(833.57146,-695.93359)">
    <rect
       y="695.93359"
       x="-833.57147"
       height="90"
       width="90"
       id="rect4821"
       style="fill:none;stroke:none" />
    <path
       style="fill:#808080"
       d="M 45 4.0019531 C 22.35641 4.0019531 4.0019531 22.35665 4.0019531 45 C 4.0019531 67.6419 22.35617 85.998047 45 85.998047 C 67.64334 85.998047 86 67.6419 86 45 C 86 22.35665 67.64359 4.0019531 45 4.0019531 z M 59.085938 15.382812 C 59.968098 15.405509 60.857603 15.643206 61.675781 16.115234 C 64.294181 17.627654 65.189904 20.973627 63.677734 23.591797 C 62.167244 26.209957 58.821285 27.10568 56.203125 25.59375 C 53.586645 24.08326 52.688969 20.737804 54.199219 18.121094 C 55.239172 16.321102 57.145183 15.332879 59.085938 15.382812 z M 45 21.220703 C 47.20113 21.220703 49.330536 21.527638 51.353516 22.085938 C 51.710286 24.285617 53.016096 26.310519 55.097656 27.511719 C 57.175596 28.709559 59.578836 28.831272 61.660156 28.044922 C 65.707566 32.025322 68.340849 37.437137 68.724609 43.466797 L 60.925781 43.582031 C 60.206461 35.414641 53.35276 29.009766 45 29.009766 C 42.59373 29.009766 40.311755 29.545847 38.265625 30.498047 L 34.462891 23.681641 C 37.639351 22.109441 41.21606 21.220703 45 21.220703 z M 31.808594 25.214844 L 35.810547 31.917969 C 31.699247 34.811899 29.011719 39.59059 29.011719 45 C 29.011719 50.40965 31.699247 55.189781 35.810547 58.082031 L 31.808594 64.785156 C 27.017514 61.583866 23.453519 56.691917 21.974609 50.960938 C 23.702539 49.550968 24.808594 47.40458 24.808594 45 C 24.808594 42.59397 23.702539 40.447079 21.974609 39.037109 C 23.455449 33.307819 27.019434 28.416144 31.808594 25.214844 z M 17.123047 39.525391 C 20.145957 39.525391 22.595703 41.97565 22.595703 45 C 22.595703 48.02291 20.145957 50.474609 17.123047 50.474609 C 14.098457 50.474609 11.648438 48.02291 11.648438 45 C 11.648438 41.97565 14.098457 39.525391 17.123047 39.525391 z M 60.923828 46.417969 L 68.726562 46.53125 C 68.342793 52.56091 65.707566 57.974678 61.660156 61.955078 C 59.578836 61.168738 57.177046 61.286568 55.097656 62.486328 C 53.016576 63.689698 51.710286 65.714373 51.353516 67.914062 C 49.330776 68.474042 47.20113 68.779297 45 68.779297 C 41.21582 68.779297 37.639361 67.890526 34.462891 66.316406 L 38.265625 59.501953 C 40.311505 60.453903 42.59373 60.988281 45 60.988281 C 53.35301 60.988281 60.206188 54.587519 60.923828 46.417969 z M 58.794922 63.671875 C 60.735473 63.621831 62.641226 64.60938 63.679688 66.408203 C 65.191857 69.026613 64.293701 72.372333 61.675781 73.882812 C 59.057611 75.394992 55.711662 74.497066 54.201172 71.878906 C 52.688752 69.262186 53.586908 65.916477 56.205078 64.404297 C 57.02265 63.932272 57.912853 63.694622 58.794922 63.671875 z "
       transform="translate(-833.57146,695.93359)"
       id="path3" />
  </g>
</svg>
