<?xml version="1.0" encoding="UTF-8" standalone="no"?>
<!-- Created with Inkscape (http://www.inkscape.org/) -->

<svg
   xmlns:dc="http://purl.org/dc/elements/1.1/"
   xmlns:cc="http://creativecommons.org/ns#"
   xmlns:rdf="http://www.w3.org/1999/02/22-rdf-syntax-ns#"
   xmlns:svg="http://www.w3.org/2000/svg"
   xmlns="http://www.w3.org/2000/svg"
   xmlns:sodipodi="http://sodipodi.sourceforge.net/DTD/sodipodi-0.dtd"
   xmlns:inkscape="http://www.inkscape.org/namespaces/inkscape"
   width="90"
   height="90"
   id="svg4479"
   version="1.1"
   inkscape:version="0.48+devel r"
   viewBox="0 0 90 90.000001"
   sodipodi:docname="ubuntu-sdk-symbolic.svg">
  <defs
     id="defs4481" />
  <sodipodi:namedview
     id="base"
     pagecolor="#ffffff"
     bordercolor="#666666"
     borderopacity="1.0"
     inkscape:pageopacity="0.0"
     inkscape:pageshadow="2"
     inkscape:zoom="6.3664629"
     inkscape:cx="40.831151"
     inkscape:cy="39.315393"
     inkscape:document-units="px"
     inkscape:current-layer="layer1"
     showgrid="true"
     fit-margin-top="0"
     fit-margin-left="0"
     fit-margin-right="0"
     fit-margin-bottom="0"
     showguides="true"
     inkscape:guide-bbox="true"
     inkscape:snap-bbox="true"
     inkscape:bbox-paths="true"
     inkscape:bbox-nodes="true"
     inkscape:snap-bbox-edge-midpoints="true"
     inkscape:snap-bbox-midpoints="true"
     inkscape:object-paths="true"
     inkscape:snap-intersection-paths="true"
     inkscape:object-nodes="true"
     inkscape:snap-smooth-nodes="true"
     inkscape:snap-midpoints="true"
     inkscape:snap-object-midpoints="true"
     inkscape:snap-center="true">
    <inkscape:grid
       type="xygrid"
       id="grid5053"
       empspacing="6" />
    <sodipodi:guide
       orientation="1,0"
       position="3,47"
       id="guide5055" />
    <sodipodi:guide
       orientation="1,0"
       position="6,42"
       id="guide5057" />
    <sodipodi:guide
       orientation="1,0"
       position="9,39"
       id="guide5059" />
    <sodipodi:guide
       orientation="0,1"
       position="35,87"
       id="guide5061" />
    <sodipodi:guide
       orientation="0,1"
       position="37,84"
       id="guide5063" />
    <sodipodi:guide
       orientation="0,1"
       position="39,81"
       id="guide5065" />
    <sodipodi:guide
       orientation="1,0"
       position="87,72"
       id="guide5067" />
    <sodipodi:guide
       orientation="1,0"
       position="84,70"
       id="guide5069" />
    <sodipodi:guide
       orientation="1,0"
       position="81,66"
       id="guide5071" />
    <sodipodi:guide
       orientation="0,1"
       position="92,3"
       id="guide5073" />
    <sodipodi:guide
       orientation="0,1"
       position="93,6"
       id="guide5075" />
    <sodipodi:guide
       orientation="0,1"
       position="94,9"
       id="guide5077" />
  </sodipodi:namedview>
  <metadata
     id="metadata4484">
    <rdf:RDF>
      <cc:Work
         rdf:about="">
        <dc:format>image/svg+xml</dc:format>
        <dc:type
           rdf:resource="http://purl.org/dc/dcmitype/StillImage" />
        <dc:title></dc:title>
      </cc:Work>
    </rdf:RDF>
  </metadata>
  <g
     inkscape:label="Layer 1"
     inkscape:groupmode="layer"
     id="layer1"
     transform="translate(833.57146,-695.93359)">
    <rect
       y="695.93359"
       x="-833.57147"
       height="90"
       width="90"
       id="rect4326"
       style="fill:none;stroke:none" />
    <path
       style="fill:#808080;fill-opacity:1;stroke:none;display:inline;enable-background:new"
       d="m -763.50004,748.9336 c -5.6721,4e-5 -10.6208,3.11901 -13.2707,7.75152 l -42.7071,-2e-5 c -4.4841,9e-5 -8.0937,3.45574 -8.0936,7.74815 0,4.29257 3.6095,7.74833 8.0936,7.74837 l 42.7066,-9e-5 c 2.6497,4.63272 7.5986,7.75261 13.2711,7.75207 6.1781,7e-5 11.5034,-3.71561 13.9287,-9.04174 l -11.3745,-2e-5 10e-5,-12.91654 11.3744,1e-5 c -2.4252,-5.32597 -7.7505,-9.0416 -13.9286,-9.04171 z m -56.3033,12.47208 a 2.993515,3.027646 0 0 1 2.9937,3.02753 2.993515,3.027646 0 0 1 -2.9937,3.02785 2.993515,3.027646 0 0 1 -2.9937,-3.02782 2.993515,3.027646 0 0 1 2.9937,-3.02756 z"
       id="path4328"
       inkscape:connector-curvature="0" />
    <path
       style="font-size:50.14705658px;font-style:normal;font-variant:normal;font-weight:500;font-stretch:normal;text-align:center;line-height:125%;letter-spacing:0px;word-spacing:0px;writing-mode:lr-tb;text-anchor:middle;fill:#808080;fill-opacity:1;stroke:none;font-family:Ubuntu;-inkscape-font-specification:Ubuntu Medium"
       d="M 53.074219 6 L 47.005859 7.0039062 L 47.005859 19.589844 C 46.303799 19.222104 45.467554 18.888777 44.498047 18.587891 C 43.52854 18.287011 42.409065 18.134766 41.138672 18.134766 C 39.266512 18.134766 37.611375 18.470045 36.173828 19.138672 C 34.736275 19.773865 33.516612 20.692951 32.513672 21.896484 C 31.510732 23.100011 30.741931 24.554766 30.207031 26.259766 C 29.705558 27.931339 29.455078 29.80226 29.455078 31.875 C 29.455078 33.98118 29.755655 35.886797 30.357422 37.591797 C 30.992615 39.263364 31.878958 40.702723 33.015625 41.90625 C 34.185725 43.07635 35.590376 43.978088 37.228516 44.613281 C 38.866649 45.248481 40.722175 45.566406 42.794922 45.566406 C 44.800802 45.566406 46.704472 45.416114 48.509766 45.115234 C 50.348492 44.814348 51.870685 44.479075 53.074219 44.111328 L 53.074219 6 z M 66.849609 6 L 60.78125 7.0039062 L 60.78125 44.914062 L 66.849609 44.914062 L 66.849609 32.878906 C 67.752256 33.547533 68.671342 34.366424 69.607422 35.335938 C 70.543502 36.272017 71.462588 37.275903 72.365234 38.345703 C 73.267881 39.41551 74.104127 40.51763 74.873047 41.654297 C 75.6754 42.790964 76.376749 43.877689 76.978516 44.914062 L 84 44.914062 C 83.39824 43.777396 82.646787 42.540378 81.744141 41.203125 C 80.841494 39.865865 79.870358 38.52866 78.833984 37.191406 C 77.797611 35.854153 76.728233 34.599787 75.625 33.429688 C 74.52176 32.226161 73.469737 31.20688 72.466797 30.371094 C 74.338957 28.465507 76.194483 26.509786 78.033203 24.503906 C 79.905363 22.49802 81.67609 20.559653 83.347656 18.6875 L 76.177734 18.6875 C 75.642834 19.322693 74.989623 20.074146 74.220703 20.943359 C 73.48521 21.779146 72.701014 22.665483 71.865234 23.601562 C 71.029448 24.504209 70.175854 25.423295 69.306641 26.359375 C 68.437421 27.262022 67.618529 28.115615 66.849609 28.917969 L 66.849609 6 z M 16.416016 18.035156 C 13.373762 18.035156 10.965219 18.736505 9.1933594 20.140625 C 7.4214927 21.511312 6.5351562 23.401534 6.5351562 25.808594 C 6.5351563 27.045554 6.720144 28.097584 7.0878906 28.966797 C 7.489064 29.802584 8.0247327 30.52128 8.6933594 31.123047 C 9.3619927 31.724807 10.146181 32.260476 11.048828 32.728516 C 11.984901 33.163122 13.004182 33.581242 14.107422 33.982422 C 15.912715 34.651049 17.19983 35.269557 17.96875 35.837891 C 18.771103 36.406224 19.173828 37.124927 19.173828 37.994141 C 19.173828 38.930221 18.805806 39.59882 18.070312 40 C 17.334826 40.36774 16.165254 40.550781 14.560547 40.550781 C 12.95584 40.550781 11.516487 40.385095 10.246094 40.050781 C 9.0091338 39.716468 7.939756 39.36384 7.0371094 38.996094 L 5.984375 44.0625 C 6.5527083 44.29652 7.5392394 44.597104 8.9433594 44.964844 C 10.347479 45.366024 12.203006 45.566406 14.509766 45.566406 C 17.953199 45.566406 20.594867 44.93055 22.433594 43.660156 C 24.305747 42.356336 25.240234 40.450713 25.240234 37.943359 C 25.240234 36.773259 25.089942 35.771334 24.789062 34.935547 C 24.488183 34.099767 24.004571 33.363716 23.335938 32.728516 C 22.700744 32.059889 21.881846 31.474123 20.878906 30.972656 C 19.875966 30.43775 18.65435 29.904041 17.216797 29.369141 C 16.347584 29.068261 15.613485 28.783078 15.011719 28.515625 C 14.409959 28.214745 13.924387 27.931516 13.556641 27.664062 C 13.188894 27.363183 12.92106 27.045251 12.753906 26.710938 C 12.62018 26.376624 12.554688 25.991254 12.554688 25.556641 C 12.554688 24.687427 12.938111 24.053517 13.707031 23.652344 C 14.475951 23.21773 15.479837 23 16.716797 23 C 18.087484 23 19.289799 23.132937 20.326172 23.400391 C 21.362545 23.634411 22.216139 23.902245 22.884766 24.203125 L 23.986328 19.289062 C 23.284268 19.021609 22.232245 18.753775 20.828125 18.486328 C 19.424012 18.185441 17.953862 18.035156 16.416016 18.035156 z M 42.041016 23.351562 C 43.043962 23.351562 43.980396 23.517249 44.849609 23.851562 C 45.752256 24.152449 46.470959 24.487729 47.005859 24.855469 L 47.005859 39.900391 C 46.571253 40.000684 46.002841 40.100879 45.300781 40.201172 C 44.632155 40.268039 43.813257 40.300781 42.84375 40.300781 C 40.603843 40.300781 38.848512 39.549335 37.578125 38.044922 C 36.307732 36.507082 35.673828 34.399123 35.673828 31.724609 C 35.673828 29.150396 36.174794 27.111835 37.177734 25.607422 C 38.214108 24.103009 39.834549 23.351562 42.041016 23.351562 z "
       transform="translate(-833.57146,695.93359)"
       id="path5570" />
  </g>
</svg>
