<?xml version="1.0" encoding="UTF-8" standalone="no"?>
<!-- Created with Inkscape (http://www.inkscape.org/) -->

<svg
   xmlns:dc="http://purl.org/dc/elements/1.1/"
   xmlns:cc="http://creativecommons.org/ns#"
   xmlns:rdf="http://www.w3.org/1999/02/22-rdf-syntax-ns#"
   xmlns:svg="http://www.w3.org/2000/svg"
   xmlns="http://www.w3.org/2000/svg"
   xmlns:sodipodi="http://sodipodi.sourceforge.net/DTD/sodipodi-0.dtd"
   xmlns:inkscape="http://www.inkscape.org/namespaces/inkscape"
   width="90"
   height="90"
   id="svg4479"
   version="1.1"
   inkscape:version="0.48+devel r"
   viewBox="0 0 90 90.000001"
   sodipodi:docname="wikipedia-symbolic.svg">
  <defs
     id="defs4481">
    <clipPath
       clipPathUnits="userSpaceOnUse"
       id="clipPath40">
      <path
         inkscape:connector-curvature="0"
         d="M 0,500 1024,500 1024,0 0,0 0,500 Z"
         id="path42" />
    </clipPath>
    <clipPath
       clipPathUnits="userSpaceOnUse"
       id="clipPath18">
      <path
         inkscape:connector-curvature="0"
         d="M 0,2743.88 0,0 l 2743.81,0 0,2743.88 -2743.81,0 z"
         id="path20" />
    </clipPath>
  </defs>
  <sodipodi:namedview
     id="base"
     pagecolor="#ffffff"
     bordercolor="#666666"
     borderopacity="1.0"
     inkscape:pageopacity="0.0"
     inkscape:pageshadow="2"
     inkscape:zoom="6.3664629"
     inkscape:cx="47.512308"
     inkscape:cy="51.119435"
     inkscape:document-units="px"
     inkscape:current-layer="layer1"
     showgrid="true"
     fit-margin-top="0"
     fit-margin-left="0"
     fit-margin-right="0"
     fit-margin-bottom="0"
     showguides="true"
     inkscape:guide-bbox="true"
     inkscape:snap-bbox="true"
     inkscape:bbox-paths="true"
     inkscape:bbox-nodes="true"
     inkscape:snap-bbox-edge-midpoints="true"
     inkscape:snap-bbox-midpoints="true"
     inkscape:object-paths="true"
     inkscape:snap-intersection-paths="true"
     inkscape:object-nodes="true"
     inkscape:snap-smooth-nodes="true"
     inkscape:snap-midpoints="true"
     inkscape:snap-object-midpoints="true"
     inkscape:snap-center="true">
    <inkscape:grid
       type="xygrid"
       id="grid5053"
       empspacing="6" />
    <sodipodi:guide
       orientation="1,0"
       position="3,47"
       id="guide5055" />
    <sodipodi:guide
       orientation="1,0"
       position="6,42"
       id="guide5057" />
    <sodipodi:guide
       orientation="1,0"
       position="9,39"
       id="guide5059" />
    <sodipodi:guide
       orientation="0,1"
       position="35,87"
       id="guide5061" />
    <sodipodi:guide
       orientation="0,1"
       position="37,84"
       id="guide5063" />
    <sodipodi:guide
       orientation="0,1"
       position="39,81"
       id="guide5065" />
    <sodipodi:guide
       orientation="1,0"
       position="87,72"
       id="guide5067" />
    <sodipodi:guide
       orientation="1,0"
       position="84,70"
       id="guide5069" />
    <sodipodi:guide
       orientation="1,0"
       position="81,66"
       id="guide5071" />
    <sodipodi:guide
       orientation="0,1"
       position="92,3"
       id="guide5073" />
    <sodipodi:guide
       orientation="0,1"
       position="93,6"
       id="guide5075" />
  </sodipodi:namedview>
  <metadata
     id="metadata4484">
    <rdf:RDF>
      <cc:Work
         rdf:about="">
        <dc:format>image/svg+xml</dc:format>
        <dc:type
           rdf:resource="http://purl.org/dc/dcmitype/StillImage" />
        <dc:title></dc:title>
      </cc:Work>
    </rdf:RDF>
  </metadata>
  <g
     inkscape:label="Layer 1"
     inkscape:groupmode="layer"
     id="layer1"
     transform="translate(833.57146,-695.93359)">
    <rect
       style="fill:none;stroke:none"
       id="rect4817"
       width="90"
       height="90"
       x="-833.57147"
       y="695.93359" />
    <path
       d="m -762.94084,713.10149 -0.231,0.1623 0,1.5906 c 0,0.1884 0.083,0.3434 0.2494,0.4616 0.1694,0.1277 0.345,0.1932 0.5303,0.1932 l 1.5095,0.075 c 1.8649,0.077 2.3782,0.4502 3.1,1.0729 0.7186,0.642 0.8022,1.7353 0.2434,3.2747 l -16.0993,38.199 -0.6174,-0.1682 -10.2173,-20.9084 c 0.011,-0.019 0.237,-0.4927 0.237,-0.4927 l 8.3584,-15.6377 c 0.974,-1.6542 1.9131,-3.1278 2.389,-3.8113 0.8718,-1.255 1.3602,-1.4911 3.7425,-1.6031 0.4855,0 0.7299,-0.2173 0.7299,-0.6549 l 0,-1.5843 -0.1809,-0.1622 c 0,0 -10.2289,-0.032 -14.7831,0 l -0.2243,0.1622 0,1.5843 c 0,0.1949 0.083,0.3436 0.2493,0.4616 0.1693,0.1247 0.3387,0.1932 0.524,0.1932 l 0.7297,0.075 c 1.862,0.074 2.7199,0.5699 2.9754,0.8734 0.4439,0.5429 0.6646,1.1269 -0.4117,3.4743 l -6.431,12.8308 -5.8135,-11.8953 c -1.9097,-3.8035 -2.3815,-4.9785 0.4928,-5.202 l 1.1351,-0.1623 c 0.5526,0 0.8234,-0.1999 0.8234,-0.5801 l 0,-1.6591 -0.4117,-0.1375 c 0,0 -10.8235,-10e-5 -15.6875,0.011 l -0.231,0.1623 0,1.6716 c 0,0.3737 0.3942,0.4686 1.1479,0.5677 2.6921,0.3577 2.6323,0.6372 5.2958,5.9133 0.3992,0.7919 1.5717,3.1749 1.5717,3.1749 l 6.0631,11.9138 c 0,0 1.3076,2.8856 1.765,3.8985 l -8.8196,17.5899 -0.4991,-0.1309 c 0,0 -13.6799,-28.841 -17.6399,-38.4921 -0.4121,-0.9964 -0.599,-1.7391 -0.599,-2.1958 0,-0.9805 0.8879,-1.5107 2.6572,-1.5843 l 2.0648,-0.087 c 0.5462,0 0.8233,-0.2113 0.8233,-0.6487 l 0,-1.5844 -0.187,-0.1624 c 0,0 -16.3817,-0.018 -19.767,0 l -0.1871,0.1624 0,1.6654 c 0,0.3001 0.378,0.4846 1.1413,0.5677 2.0792,0.112 3.4464,0.4455 4.1044,0.9979 0.6548,0.5589 1.3506,1.9725 2.2706,4.173 4.9725,11.9442 15.5326,33.2582 20.6776,45.3973 1.4819,3.3149 3.3466,3.8253 5.6075,-0.1062 2.5329,-4.6959 6.9825,-13.8243 10.4355,-20.9646 3.2339,7.1291 7.3828,16.22 9.6684,20.9271 1.6767,3.4587 3.5816,3.798 5.5203,0.1062 5.0651,-11.2639 19.8666,-45.1478 19.8666,-45.1478 0.642,-1.667 1.5358,-2.9441 2.6822,-3.8736 1.1434,-0.9228 2.907,-1.4352 5.2896,-1.5406 0.4854,0 0.7359,-0.2175 0.7359,-0.6487 l 0,-1.5905 -0.1871,-0.1623 -18.1826,0 z"
       id="path3898"
       inkscape:connector-curvature="0"
       style="fill:#808080" />
  </g>
</svg>
