<?xml version="1.0" encoding="UTF-8" standalone="no"?>
<!-- Created with Inkscape (http://www.inkscape.org/) -->

<svg
   xmlns:dc="http://purl.org/dc/elements/1.1/"
   xmlns:cc="http://creativecommons.org/ns#"
   xmlns:rdf="http://www.w3.org/1999/02/22-rdf-syntax-ns#"
   xmlns:svg="http://www.w3.org/2000/svg"
   xmlns="http://www.w3.org/2000/svg"
   xmlns:sodipodi="http://sodipodi.sourceforge.net/DTD/sodipodi-0.dtd"
   xmlns:inkscape="http://www.inkscape.org/namespaces/inkscape"
   width="90"
   height="90"
   id="svg4479"
   version="1.1"
   inkscape:version="0.48+devel r"
   viewBox="0 0 90 90.000001"
   sodipodi:docname="youtube-symbolic.svg">
  <defs
     id="defs4481">
    <clipPath
       clipPathUnits="userSpaceOnUse"
       id="clipPath40">
      <path
         inkscape:connector-curvature="0"
         d="M 0,500 1024,500 1024,0 0,0 0,500 Z"
         id="path42" />
    </clipPath>
    <clipPath
       clipPathUnits="userSpaceOnUse"
       id="clipPath18">
      <path
         inkscape:connector-curvature="0"
         d="M 0,2743.88 0,0 l 2743.81,0 0,2743.88 -2743.81,0 z"
         id="path20" />
    </clipPath>
  </defs>
  <sodipodi:namedview
     id="base"
     pagecolor="#ffffff"
     bordercolor="#666666"
     borderopacity="1.0"
     inkscape:pageopacity="0.0"
     inkscape:pageshadow="2"
     inkscape:zoom="6.3664629"
     inkscape:cx="47.512308"
     inkscape:cy="51.119435"
     inkscape:document-units="px"
     inkscape:current-layer="layer1"
     showgrid="true"
     fit-margin-top="0"
     fit-margin-left="0"
     fit-margin-right="0"
     fit-margin-bottom="0"
     showguides="true"
     inkscape:guide-bbox="true"
     inkscape:snap-bbox="true"
     inkscape:bbox-paths="true"
     inkscape:bbox-nodes="true"
     inkscape:snap-bbox-edge-midpoints="true"
     inkscape:snap-bbox-midpoints="true"
     inkscape:object-paths="true"
     inkscape:snap-intersection-paths="true"
     inkscape:object-nodes="true"
     inkscape:snap-smooth-nodes="true"
     inkscape:snap-midpoints="true"
     inkscape:snap-object-midpoints="true"
     inkscape:snap-center="true">
    <inkscape:grid
       type="xygrid"
       id="grid5053"
       empspacing="6" />
    <sodipodi:guide
       orientation="1,0"
       position="3,47"
       id="guide5055" />
    <sodipodi:guide
       orientation="1,0"
       position="6,42"
       id="guide5057" />
    <sodipodi:guide
       orientation="1,0"
       position="9,39"
       id="guide5059" />
    <sodipodi:guide
       orientation="0,1"
       position="35,87"
       id="guide5061" />
    <sodipodi:guide
       orientation="0,1"
       position="37,84"
       id="guide5063" />
    <sodipodi:guide
       orientation="0,1"
       position="39,81"
       id="guide5065" />
    <sodipodi:guide
       orientation="1,0"
       position="87,72"
       id="guide5067" />
    <sodipodi:guide
       orientation="1,0"
       position="84,70"
       id="guide5069" />
    <sodipodi:guide
       orientation="1,0"
       position="81,66"
       id="guide5071" />
    <sodipodi:guide
       orientation="0,1"
       position="92,3"
       id="guide5073" />
    <sodipodi:guide
       orientation="0,1"
       position="93,6"
       id="guide5075" />
  </sodipodi:namedview>
  <metadata
     id="metadata4484">
    <rdf:RDF>
      <cc:Work
         rdf:about="">
        <dc:format>image/svg+xml</dc:format>
        <dc:type
           rdf:resource="http://purl.org/dc/dcmitype/StillImage" />
        <dc:title></dc:title>
      </cc:Work>
    </rdf:RDF>
  </metadata>
  <g
     inkscape:label="Layer 1"
     inkscape:groupmode="layer"
     id="layer1"
     transform="translate(833.57146,-695.93359)">
    <rect
       y="695.93359"
       x="-833.57147"
       height="90"
       width="90"
       id="rect4819"
       style="fill:none;stroke:none" />
    <g
       transform="matrix(1.4957638,0,0,-1.4957638,-1130.3558,1016.4723)"
       id="g392"
       style="fill:#808080">
      <g
         id="g394"
         style="fill:#808080">
        <g
           id="g400"
           style="fill:#808080">
          <g
             id="g402"
             style="fill:#808080">
            <path
               inkscape:connector-curvature="0"
               d="m 220.462,212.292 -2.144,-8.244 -2.233,8.244 -3.307,0 c 0.662,-1.945 1.353,-3.902 2.016,-5.85 l 0,0 c 1.008,-2.928 1.637,-5.135 1.921,-6.642 l 0,0 0,-8.502 3.144,0 0,8.502 3.782,12.492 -3.179,0 z m 4.093,-6.763 c -0.603,-0.792 -0.888,-2.015 -0.888,-3.686 l 0,0 0,-5.481 c 0,-1.661 0.285,-2.894 0.888,-3.679 l 0,0 c 0.784,-1.067 1.889,-1.602 3.301,-1.602 l 0,0 c 1.421,0 2.522,0.535 3.307,1.602 l 0,0 c 0.594,0.785 0.88,2.018 0.88,3.679 l 0,0 0,5.481 c 0,1.671 -0.286,2.894 -0.88,3.686 l 0,0 c -0.785,1.068 -1.886,1.602 -3.307,1.602 l 0,0 c -1.412,0 -2.517,-0.534 -3.301,-1.602 m 1.947,-9.7 0,6.582 c 0,1.447 0.438,2.168 1.354,2.168 l 0,0 c 0.913,0 1.351,-0.721 1.351,-2.168 l 0,0 0,-6.582 c 0,-1.447 -0.438,-2.171 -1.351,-2.171 l 0,0 c -0.916,0 -1.354,0.724 -1.354,2.171 m 13.19,11.113 0,-11.957 c -0.629,-0.888 -1.224,-1.327 -1.79,-1.327 l 0,0 c -0.381,0 -0.604,0.224 -0.666,0.664 l 0,0 c -0.034,0.091 -0.034,0.437 -0.034,1.103 l 0,0 0,11.517 -2.826,0 0,-12.371 c 0,-1.103 0.095,-1.853 0.251,-2.326 l 0,0 c 0.283,-0.793 0.913,-1.164 1.826,-1.164 l 0,0 c 1.034,0 2.111,0.629 3.239,1.924 l 0,0 0,-1.707 2.835,0 0,15.644 -2.835,0 z"
               style="fill:#808080;stroke:none"
               id="path412" />
          </g>
        </g>
      </g>
    </g>
    <path
       style="fill:#808080;stroke:none"
       d="m -788.56164,734.54019 c -8.6769,0 -17.3924,-4e-4 -26.002,0.9628 -3.6347,0.4054 -6.6538,3.1304 -7.5019,6.8204 -1.2101,5.2606 -1.2227,10.9984 -1.2227,16.416 0,5.4117 0,11.1524 1.209,16.4101 0.8481,3.693 3.8672,6.4155 7.5019,6.8223 8.6096,0.9603 17.3231,0.9669 26,0.9609 8.6755,0.01 17.3909,-6e-4 26.002,-0.9609 3.6347,-0.4068 6.6552,-3.1293 7.5019,-6.8223 1.2115,-5.2577 1.2188,-10.9984 1.2188,-16.4101 0,-5.4176 0.011,-11.1554 -1.2031,-16.416 -0.8496,-3.69 -3.8707,-6.415 -7.5039,-6.8204 -8.119,-0.9079 -16.328,-0.9629 -24.5098,-0.9628 l -1.4902,0 z m -29.5528,8.1386 14.6289,0 0,4.377 -5.0254,0 0,26.7051 -4.666,0 0,-26.7051 -4.9375,0 0,-4.377 z m 30.9395,0 4.1973,0 0,10.1524 c 1.355,-1.6678 2.7903,-2.5118 4.3339,-2.5118 1.6723,0 2.7946,0.8782 3.3555,2.6133 0.2782,0.9318 0.4219,2.463 0.4219,4.6543 l 0,9.2227 c 0,2.1419 -0.1437,3.6847 -0.4219,4.666 -0.5609,1.7231 -1.6832,2.6016 -3.3555,2.6016 -1.4928,0 -2.934,-0.8275 -4.3339,-2.5625 l 0,2.2461 -4.1973,0 0,-31.0821 z m 21.8984,7.6406 c 2.1031,0 3.7736,0.7879 4.9492,2.375 0.878,1.1711 1.2969,2.9777 1.2969,5.4532 l 0,4.7968 -8.3887,0 0,4.1055 c 0,2.1449 0.7022,3.2129 2.1426,3.2129 1.0321,0 1.6338,-0.5618 1.8731,-1.6836 0.039,-0.2274 0.092,-1.1591 0.092,-2.8418 l 4.2812,0 0,0.6133 c 0,1.3507 -0.049,2.2813 -0.088,2.7031 -0.1406,0.9289 -0.4719,1.7703 -0.9804,2.5137 -1.1622,1.6812 -2.8845,2.5098 -5.0743,2.5098 -2.1973,0 -3.8669,-0.7901 -5.08,-2.3711 -0.8914,-1.1562 -1.3477,-2.9862 -1.3477,-5.4453 l 0,-8.1133 c 0,-2.4755 0.4039,-4.2821 1.2969,-5.4532 1.2101,-1.5871 2.8854,-2.375 5.0273,-2.375 z m -37.5957,0.2832 4.1934,0 0,17.0469 c 0,0.9812 0,1.4963 0.041,1.6309 0.1002,0.6521 0.4195,0.9824 0.9805,0.9824 0.8406,0 1.722,-0.6482 2.6523,-1.9629 l 0,-17.6973 4.1992,0 0,23.1583 -4.1992,0 0,-2.5274 c -1.6662,1.913 -3.2527,2.8438 -4.7949,2.8438 -1.3536,0 -2.2824,-0.5486 -2.7012,-1.7227 -0.2319,-0.7015 -0.3711,-1.8046 -0.3711,-3.4394 l 0,-18.3126 z m 21.9844,3.4942 c -0.6911,0 -1.3884,0.3299 -2.0898,1.0195 l 0,14.1153 c 0.7014,0.7015 1.3987,1.0312 2.0898,1.0312 1.21,0 1.8262,-1.0304 1.8262,-3.123 l 0,-9.8829 c 0,-2.0896 -0.6162,-3.1601 -1.8262,-3.1601 z m 15.5703,0 c -1.4001,0 -2.1016,1.0709 -2.1016,3.2129 l 0,2.1406 4.1934,0 0,-2.1406 c 0,-2.142 -0.7023,-3.2129 -2.0918,-3.2129 z"
       id="path434"
       inkscape:connector-curvature="0" />
  </g>
</svg>
