<?xml version="1.0" encoding="UTF-8" standalone="no"?>
<!-- Created with Inkscape (http://www.inkscape.org/) -->
<svg
   xmlns:svg="http://www.w3.org/2000/svg"
   xmlns="http://www.w3.org/2000/svg"
   version="1.0"
   width="24"
   height="24"
   id="svg3245">
  <defs
     id="defs3247" />
  <path
     d="M 7.000581,3.0718345 L 8.7934205,5.2594648"
     id="path3221"
     style="opacity:0.6;fill:none;fill-opacity:0.29803922;fill-rule:evenodd;stroke:#3a3935;stroke-width:3;stroke-linecap:round;stroke-linejoin:miter;stroke-miterlimit:4;stroke-dasharray:none;stroke-opacity:1" />
  <path
     d="M 10.190353,5.3596399 L 10.486446,2.3742873"
     id="path3223"
     style="opacity:0.6;fill:none;fill-opacity:0.29803922;fill-rule:evenodd;stroke:#3a3935;stroke-width:3;stroke-linecap:round;stroke-linejoin:miter;stroke-miterlimit:4;stroke-dasharray:none;stroke-opacity:1" />
  <path
     d="M 11.547821,5.9248528 L 13.4918,3.7009912"
     id="path3225"
     style="opacity:0.6;fill:none;fill-opacity:0.29803922;fill-rule:evenodd;stroke:#3a3935;stroke-width:3;stroke-linecap:round;stroke-linejoin:miter;stroke-miterlimit:4;stroke-dasharray:none;stroke-opacity:1" />
  <path
     d="M 10.933434,6.6187583 C 10.493369,6.5403708 10.05112,6.7447705 9.825676,7.130745 C 9.8217687,7.1143601 9.797658,6.9938281 9.797658,6.9938281 C 9.6994892,6.5533594 9.3346775,6.2223813 8.8867623,6.1674115 C 8.24479,6.0948958 7.5951473,6.0868451 7.0006914,6.0826213 C 6.977725,6.0865419 6.9548932,6.091214 6.932233,6.0966303 C 4.5523152,6.2800793 2.3131522,7.6339961 1.0941846,9.7734156 C -0.65364286,12.642085 -0.29437003,16.522688 2.0776761,18.901493 C 4.2862484,21.274338 7.9658924,21.64758 10.724222,19.956585 L 10.746319,19.994858 C 10.783113,19.981334 10.7952,19.935263 10.830954,19.920479 C 10.87543,19.892178 10.931998,19.891712 10.975959,19.862276 L 10.953861,19.824003 C 11.570455,19.528682 12.062585,19.09556 12.499382,18.523447 C 12.994309,17.875198 13.426423,17.093691 13.758221,16.24021 C 14.178393,15.159406 14.317008,13.979437 14.225319,12.806606 C 16.473133,13.416465 22.216304,14.980136 22.216304,14.980136 C 22.782813,15.129763 23.363921,14.79426 23.517595,14.228835 C 23.762114,13.348628 24.086366,12.194353 24.332326,11.308961 C 24.481952,10.742451 24.146449,10.161344 23.581025,10.00767 C 19.717363,8.972534 14.887617,7.6782783 11.023989,6.6430225 C 10.994174,6.6336108 10.96396,6.6255149 10.933434,6.6187583 L 10.933434,6.6187583 z"
     id="path3219"
     style="opacity:0.6;fill:#3a3935;fill-opacity:1;fill-rule:nonzero;stroke:none;stroke-width:3;stroke-linecap:round;stroke-linejoin:miter;marker:none;marker-start:none;marker-mid:none;marker-end:none;stroke-miterlimit:4;stroke-dasharray:none;stroke-dashoffset:0;stroke-opacity:1;visibility:visible;display:inline;overflow:visible;enable-background:accumulate" />
  <path
     d="M 10.749861,7.6660818 L 10.911555,9.3694463 L 9.0266775,9.3391144 C 9.0266775,9.3391144 8.7477819,7.2444337 8.7477819,7.2444337 C 8.1712832,7.1793137 7.5896701,7.1524329 7.0063183,7.1482881 C 4.9895397,7.3037455 3.053188,8.4925347 2.0183698,10.308752 C 0.53486851,12.743589 0.85095729,16.14117 2.8343338,18.130198 C 4.7254347,20.16196 8.0466413,20.540379 10.369949,18.984675 C 12.032899,18.373418 14.285395,13.789806 12.871181,11.340316 C 12.871181,11.340316 21.688897,13.739746 21.688897,13.739746 C 22.436847,13.920843 22.449204,13.925794 22.735537,13.07744 C 22.853393,12.728254 22.937696,12.354265 23.037466,11.99718 C 23.28576,11.00225 23.166675,11.016119 22.273235,10.753788 C 18.606528,9.7713774 14.275869,8.6108727 10.749861,7.6660818 z"
     id="path2387"
     style="fill:#eae3d1;fill-opacity:1;fill-rule:nonzero;stroke:none;stroke-width:3;stroke-linecap:round;stroke-linejoin:miter;marker:none;marker-start:none;marker-mid:none;marker-end:none;stroke-miterlimit:4;stroke-dasharray:none;stroke-dashoffset:0;stroke-opacity:1;visibility:visible;display:inline;overflow:visible;enable-background:accumulate" />
  <path
     d="M 7.000581,3.0718345 L 8.7934205,5.2594648"
     id="path3211"
     style="fill:none;fill-rule:evenodd;stroke:#eae3d1;stroke-width:1px;stroke-linecap:round;stroke-linejoin:miter;stroke-opacity:1" />
  <path
     d="M 10.286096,5.4075115 L 10.582189,2.4221589"
     id="path3213"
     style="fill:none;fill-rule:evenodd;stroke:#eae3d1;stroke-width:1px;stroke-linecap:round;stroke-linejoin:miter;stroke-opacity:1" />
  <path
     d="M 11.778772,5.555558 L 13.66357,3.2813218"
     id="path3215"
     style="fill:none;fill-rule:evenodd;stroke:#eae3d1;stroke-width:1px;stroke-linecap:round;stroke-linejoin:miter;stroke-opacity:1" />
</svg>
