<?xml version="1.0" encoding="UTF-8" standalone="no"?>
<!-- Created with Inkscape (http://www.inkscape.org/) -->
<svg
   xmlns:svg="http://www.w3.org/2000/svg"
   xmlns="http://www.w3.org/2000/svg"
   version="1.0"
   width="24"
   height="24"
   id="svg2816"
   style="display:inline">
  <defs
     id="defs2818" />
  <path
     d="M 11.500145,4 C 9.6393581,4 7.9616587,4.7018058 6.5626447,5.71875 C 5.76916,5.3784613 4.5577111,4.96146 2.9688947,5 C 2.6278757,5.0065879 2.3024896,5.1773977 2.1251447,5.46875 C 1.9477998,5.7601024 1.9431131,6.1315551 2.0938947,6.4375 C 2.0938947,6.4375 2.9908806,8.2627218 3.5313947,9.34375 C 2.4395257,9.6167172 0.75014466,10.03125 0.75014466,10.03125 C 0.42593557,10.110926 0.17572815,10.342129 0.062644662,10.65625 C -0.050438808,10.970371 -0.011386008,11.325708 0.18764466,11.59375 C 0.18764466,11.59375 0.60731692,12.174409 1.2501447,12.75 C 1.7359786,13.185018 2.4216427,13.59722 3.2188947,13.8125 C 3.8660139,17.856052 7.28057,21 11.500145,21 C 13.536536,21 15.379303,20.198815 16.843895,19 L 22.000145,19 C 22.413455,19.01309 22.778107,18.756503 22.937645,18.375 C 23.097182,17.993497 23.018484,17.566282 22.718895,17.28125 L 19.718895,14.28125 C 19.853615,13.705545 20.000145,13.139591 20.000145,12.5 C 20.000145,7.8206352 16.17951,4.0000001 11.500145,4 z M 8.0001447,8 C 8.5526332,7.9998671 9.0001447,8.4477767 9.0001447,9 C 9.0001447,9.5523553 8.5524913,10 8.0001447,10 C 7.4479116,10 7.0001447,9.5522218 7.0001447,9 C 7.0001447,8.4477767 7.4480535,8 8.0001447,8 z M 11.125145,11 C 12.120227,10.995811 13.115691,11.365824 13.875145,12.125 C 14.887449,13.137381 15.219445,14.584413 14.875145,15.875 C 13.584775,16.219379 12.137599,15.88753 11.125145,14.875 C 10.112762,13.862471 9.7808438,12.415292 10.125145,11.125 C 10.447755,11.038887 10.793451,11.001396 11.125145,11 z"
     id="path3249"
     style="opacity:0.6;fill:#3a3935;fill-opacity:1;fill-rule:evenodd;stroke:none;stroke-width:1;stroke-linecap:butt;stroke-linejoin:miter;marker:none;marker-start:none;marker-mid:none;marker-end:none;stroke-miterlimit:4;stroke-dasharray:none;stroke-dashoffset:0;stroke-opacity:1;visibility:visible;display:inline;overflow:visible;enable-background:accumulate" />
  <path
     d="M 11.500145,5 C 9.6405679,5 7.9361724,5.6905051 6.6251447,6.8125 C 6.004479,6.5122059 4.649263,5.9599973 3.0001447,6 C 3.0001447,6 4.2426984,8.4851074 4.6876447,9.375 C 4.570379,9.629114 4.4638458,9.8877778 4.3751447,10.15625 C 3.4852521,10.378723 1.0001447,11 1.0001447,11 C 1.0001447,11 2.4673969,13 4.0001447,13 C 4.0001447,13 4.024695,12.995771 4.0313947,13 C 4.2856951,16.910326 7.5258936,20 11.500145,20 C 13.464933,20 15.256251,19.23778 16.593895,18 L 22.000145,18 L 18.656395,14.65625 C 18.864337,13.968633 19.000145,13.255184 19.000145,12.5 C 19.000145,8.36 15.640145,5.0000001 11.500145,5 z M 8.0001447,8 C 8.5526332,7.9998671 9.0001447,8.4477767 9.0001447,9 C 9.0001447,9.5523553 8.5524913,10 8.0001447,10 C 7.4479116,10 7.0001447,9.5522218 7.0001447,9 C 7.0001447,8.4477767 7.4480535,8 8.0001447,8 z M 11.125145,11 C 12.120227,10.995811 13.115691,11.365824 13.875145,12.125 C 14.887449,13.137381 15.219445,14.584413 14.875145,15.875 C 13.584775,16.219379 12.137599,15.88753 11.125145,14.875 C 10.112762,13.862471 9.7808438,12.415292 10.125145,11.125 C 10.447755,11.038887 10.793451,11.001396 11.125145,11 z"
     id="path2396"
     style="fill:#eae3d1;fill-opacity:1;fill-rule:evenodd;stroke:none;stroke-width:1;stroke-linecap:butt;stroke-linejoin:miter;marker:none;marker-start:none;marker-mid:none;marker-end:none;stroke-miterlimit:4;stroke-dasharray:none;stroke-dashoffset:0;stroke-opacity:1;visibility:visible;display:inline;overflow:visible;enable-background:accumulate" />
</svg>
