<?xml version="1.0" encoding="utf-8"?>
<!-- Generator: Adobe Illustrator 15.0.0, SVG Export Plug-In . SVG Version: 6.00 Build 0)  -->
<!DOCTYPE svg PUBLIC "-//W3C//DTD SVG 1.1//EN" "http://www.w3.org/Graphics/SVG/1.1/DTD/svg11.dtd">
<svg version="1.1" id="Layer_1" xmlns="http://www.w3.org/2000/svg" xmlns:xlink="http://www.w3.org/1999/xlink" x="0px" y="0px"
	 width="22px" height="22px" viewBox="0 0 22 22" enable-background="new 0 0 22 22" xml:space="preserve">
<path fill="#363636" d="M8.622,8.622L5.206,8.883L2.248,5.927C1.659,7.834,2.118,10,3.63,11.511c1.727,1.731,4.309,2.08,6.388,1.063
	l-0.009,0.007l4.917,6.55c1.159,1.159,3.042,1.159,4.203,0c1.161-1.16,1.159-3.041,0-4.204l-6.548-4.918l-0.01,0.011
	c1.018-2.079,0.666-4.66-1.062-6.389C9.999,2.119,7.835,1.659,5.927,2.248l2.958,2.96L8.622,8.622z M17.799,16.226
	c0.435,0.433,0.435,1.139,0,1.575c-0.436,0.434-1.143,0.434-1.574,0c-0.438-0.437-0.438-1.143,0-1.575
	C16.656,15.788,17.363,15.788,17.799,16.226z"/>
</svg>
