<?xml version="1.0" encoding="UTF-8" standalone="no"?>
<!-- Created with Inkscape (http://www.inkscape.org/) -->

<svg
   xmlns:dc="http://purl.org/dc/elements/1.1/"
   xmlns:cc="http://creativecommons.org/ns#"
   xmlns:rdf="http://www.w3.org/1999/02/22-rdf-syntax-ns#"
   xmlns:svg="http://www.w3.org/2000/svg"
   xmlns="http://www.w3.org/2000/svg"
   xmlns:xlink="http://www.w3.org/1999/xlink"
   xmlns:sodipodi="http://sodipodi.sourceforge.net/DTD/sodipodi-0.dtd"
   xmlns:inkscape="http://www.inkscape.org/namespaces/inkscape"
   width="128"
   height="128"
   id="svg4383"
   version="1.1"
   inkscape:version="0.48.2 r9819"
   sodipodi:docname="New document 9">
  <defs
     id="defs4385">
    <filter
       color-interpolation-filters="sRGB"
       inkscape:collect="always"
       id="filter4184"
       x="-0.071984246"
       width="1.1439685"
       y="-1.727622"
       height="4.4552441">
      <feGaussianBlur
         inkscape:collect="always"
         stdDeviation="2.87937"
         id="feGaussianBlur4186" />
    </filter>
    <filter
       color-interpolation-filters="sRGB"
       inkscape:collect="always"
       id="filter4180">
      <feGaussianBlur
         inkscape:collect="always"
         stdDeviation="2.87937"
         id="feGaussianBlur4182" />
    </filter>
  </defs>
  <sodipodi:namedview
     id="base"
     pagecolor="#ffffff"
     bordercolor="#666666"
     borderopacity="1.0"
     inkscape:pageopacity="0.0"
     inkscape:pageshadow="2"
     inkscape:zoom="4"
     inkscape:cx="59.705628"
     inkscape:cy="85.000001"
     inkscape:document-units="px"
     inkscape:current-layer="layer1"
     showgrid="true"
     inkscape:window-width="1400"
     inkscape:window-height="1026"
     inkscape:window-x="0"
     inkscape:window-y="24"
     inkscape:window-maximized="1">
    <inkscape:grid
       type="xygrid"
       id="grid4635"
       empspacing="5"
       visible="true"
       enabled="true"
       snapvisiblegridlinesonly="true" />
  </sodipodi:namedview>
  <metadata
     id="metadata4388">
    <rdf:RDF>
      <cc:Work
         rdf:about="">
        <dc:format>image/svg+xml</dc:format>
        <dc:type
           rdf:resource="http://purl.org/dc/dcmitype/StillImage" />
        <dc:title></dc:title>
      </cc:Work>
    </rdf:RDF>
  </metadata>
  <g
     inkscape:label="Layer 1"
     inkscape:groupmode="layer"
     id="layer1"
     transform="translate(0,-924.36217)">
    <g
       id="g4628"
       transform="translate(8.1385627,-40.665495)">
      <image
         y="994.02759"
         x="4.8824348"
         id="image4456"
         xlink:href="file:///usr/share/backgrounds/warty-final-ubuntu.png"
         height="69.946548"
         width="102" />
      <path
         d="m 106.84044,989.02763 -101.9580052,0 c -2.7620001,0 -5.00000012,2.238 -5.00000012,5 l 0,70.00007 c 0,2.762 2.23800002,5 5.00000012,5 l 101.9580052,0 c 2.762,0 5,-2.238 5,-5 l 0,-70.00007 c 0,-2.762 -2.238,-5 -5,-5 z m 0.042,75.00007 -102.0000052,0 0,-70.00007 102.0000052,0 z"
         id="path4490"
         inkscape:connector-curvature="0"
         style="opacity:0.5;fill:#ffffff;stroke:none;filter:url(#filter4180)"
         sodipodi:nodetypes="sssssssssccccc" />
      <path
         d="M 103.88244,1001.0276 H 7.8824348 v -3.99997 H 103.88244 v 3.99997 z"
         id="path4492"
         inkscape:connector-curvature="0"
         style="opacity:0.5;fill:#ffffff;stroke:none;filter:url(#filter4184)" />
      <path
         sodipodi:nodetypes="sssssssssccccc"
         style="fill:#ffffff;stroke:none"
         inkscape:connector-curvature="0"
         id="path4526"
         d="m 106.84044,989.02763 -101.9580052,0 c -2.7620001,0 -5.00000012,2.238 -5.00000012,5 l 0,70.00007 c 0,2.762 2.23800002,5 5.00000012,5 l 101.9580052,0 c 2.762,0 5,-2.238 5,-5 l 0,-70.00007 c 0,-2.762 -2.238,-5 -5,-5 z m 0.042,75.00007 -102.0000052,0 0,-70.00007 102.0000052,0 z" />
      <path
         style="fill:#ffffff;stroke:none"
         inkscape:connector-curvature="0"
         id="path4528"
         d="M 103.88244,1001.0276 H 7.8824348 v -3.99997 H 103.88244 v 3.99997 z" />
    </g>
  </g>
</svg>
