<?xml version="1.0" encoding="UTF-8" standalone="no"?>
<!-- Created with Inkscape (http://www.inkscape.org/) -->
<svg
   xmlns:dc="http://purl.org/dc/elements/1.1/"
   xmlns:cc="http://creativecommons.org/ns#"
   xmlns:rdf="http://www.w3.org/1999/02/22-rdf-syntax-ns#"
   xmlns:svg="http://www.w3.org/2000/svg"
   xmlns="http://www.w3.org/2000/svg"
   xmlns:sodipodi="http://sodipodi.sourceforge.net/DTD/sodipodi-0.dtd"
   xmlns:inkscape="http://www.inkscape.org/namespaces/inkscape"
   version="1.0"
   width="24"
   height="24"
   id="svg3208"
   sodipodi:version="0.32"
   inkscape:version="0.46"
   sodipodi:docname="nm-stage01-connecting01.svg"
   inkscape:output_extension="org.inkscape.output.svg.inkscape">
  <metadata
     id="metadata17">
    <rdf:RDF>
      <cc:Work
         rdf:about="">
        <dc:format>image/svg+xml</dc:format>
        <dc:type
           rdf:resource="http://purl.org/dc/dcmitype/StillImage" />
      </cc:Work>
    </rdf:RDF>
  </metadata>
  <sodipodi:namedview
     inkscape:window-height="781"
     inkscape:window-width="1440"
     inkscape:pageshadow="2"
     inkscape:pageopacity="0.0"
     guidetolerance="10.0"
     gridtolerance="10.0"
     objecttolerance="10.0"
     borderopacity="1.0"
     bordercolor="#666666"
     pagecolor="#ffffff"
     id="base"
     showgrid="false"
     inkscape:zoom="23.875"
     inkscape:cx="5.5078534"
     inkscape:cy="12"
     inkscape:window-x="0"
     inkscape:window-y="24"
     inkscape:current-layer="g2413" />
  <defs
     id="defs3210">
    <inkscape:perspective
       sodipodi:type="inkscape:persp3d"
       inkscape:vp_x="0 : 12 : 1"
       inkscape:vp_y="0 : 1000 : 0"
       inkscape:vp_z="24 : 12 : 1"
       inkscape:persp3d-origin="12 : 8 : 1"
       id="perspective19" />
  </defs>
  <g
     id="g2409"
     style="opacity:0.40000000000000002;stroke:#3a3935;stroke-opacity:1">
    <path
       d="M 7.7707898,15.449448 C 7.7707898,15.449448 8.789294,14.158446 11.909768,14.12554 C 14.991339,14.09304 16.170439,15.449448 16.170439,15.449448"
       id="path2393"
       style="opacity:0.59999999999999998;fill:none;fill-opacity:1;fill-rule:nonzero;stroke:#3a3935;stroke-width:3.70000004999999987;stroke-linecap:round;stroke-linejoin:miter;marker:none;marker-start:none;marker-mid:none;marker-end:none;stroke-miterlimit:4;stroke-dasharray:none;stroke-dashoffset:0;stroke-opacity:1;visibility:visible;display:inline;overflow:visible;enable-background:accumulate" />
    <path
       d="M 7.7707898,15.449448 C 7.7707898,15.449448 8.789294,14.158446 11.909768,14.12554 C 14.991339,14.09304 16.170439,15.449448 16.170439,15.449448"
       id="path2399"
       style="fill:none;fill-opacity:1;fill-rule:nonzero;stroke:#eae3d1;stroke-width:1.70000005000000010;stroke-linecap:round;stroke-linejoin:miter;marker:none;marker-start:none;marker-mid:none;marker-end:none;stroke-miterlimit:4;stroke-dasharray:none;stroke-dashoffset:0;stroke-opacity:1;visibility:visible;display:inline;overflow:visible;enable-background:accumulate" />
  </g>
  <g
     id="g2405"
     style="opacity:0.40000000000000002;stroke:#3a3935;stroke-opacity:1">
    <path
       d="M 5.0566111,12.452688 C 5.0566111,12.452688 7.2919827,10.030303 11.980675,10.116488 C 16.708258,10.203388 18.904737,12.491594 18.904737,12.491594"
       id="path2391"
       style="opacity:0.59999999999999998;fill:none;fill-opacity:1;fill-rule:nonzero;stroke:#3a3935;stroke-width:3.70000004999999987;stroke-linecap:round;stroke-linejoin:miter;marker:none;marker-start:none;marker-mid:none;marker-end:none;stroke-miterlimit:4;stroke-dasharray:none;stroke-dashoffset:0;stroke-opacity:1;visibility:visible;display:inline;overflow:visible;enable-background:accumulate" />
    <path
       d="M 5.0566111,12.452688 C 5.0566111,12.452688 7.2919827,10.030303 11.980675,10.116488 C 16.708258,10.203388 18.904737,12.491594 18.904737,12.491594"
       id="path2397"
       style="fill:none;fill-opacity:1;fill-rule:nonzero;stroke:#eae3d1;stroke-width:1.70000005000000010;stroke-linecap:round;stroke-linejoin:miter;marker:none;marker-start:none;marker-mid:none;marker-end:none;stroke-miterlimit:4;stroke-dasharray:none;stroke-dashoffset:0;stroke-opacity:1;visibility:visible;display:inline;overflow:visible;enable-background:accumulate" />
  </g>
  <g
     id="g2401"
     style="opacity:0.4">
    <path
       d="M 2.1991235,9.4137962 C 2.1991235,9.4137962 5.3030062,5.983016 11.980675,5.983016 C 18.625516,5.983016 21.800878,9.4196184 21.800878,9.4196184"
       id="path3192"
       style="opacity:0.59999999999999998;fill:none;fill-opacity:1;fill-rule:nonzero;stroke:#3a3935;stroke-width:3.70000004999999987;stroke-linecap:round;stroke-linejoin:miter;marker:none;marker-start:none;marker-mid:none;marker-end:none;stroke-miterlimit:4;stroke-dasharray:none;stroke-dashoffset:0;stroke-opacity:1;visibility:visible;display:inline;overflow:visible;enable-background:accumulate" />
    <path
       d="M 2.1991235,9.4137962 C 2.1991235,9.4137962 5.3030062,5.983016 11.980675,5.983016 C 18.625516,5.983016 21.800878,9.4196184 21.800878,9.4196184"
       id="path3209"
       style="fill:none;fill-opacity:1;fill-rule:nonzero;stroke:#eae3d1;stroke-width:1.70000005000000010;stroke-linecap:round;stroke-linejoin:miter;marker:none;marker-start:none;marker-mid:none;marker-end:none;stroke-miterlimit:4;stroke-dasharray:none;stroke-dashoffset:0;stroke-opacity:1;visibility:visible;display:inline;overflow:visible;enable-background:accumulate" />
  </g>
  <g
     id="g2413"
     style="opacity:1;fill:#ebe4d2;fill-opacity:1">
    <path
       d="M 11,16.03125 C 10.023415,16.014949 9.127494,16.829951 9.0415661,17.800982 C 8.9829433,18.380318 9.1611138,19.008415 9.6143608,19.395611 C 9.9616572,19.742907 10.308954,20.090204 10.65625,20.4375 C 10.896864,20.602053 11.133436,20.78986 11.420089,20.873663 C 12.145803,21.123854 12.99291,20.868622 13.490034,20.291216 C 13.8636,19.910526 14.25195,19.542385 14.617537,19.15504 C 15.135693,18.421825 15.075477,17.336414 14.45247,16.681736 C 14.045889,16.22309 13.423293,15.988965 12.81543,16.03125 C 12.210286,16.03125 11.605143,16.03125 11,16.03125 z"
       id="path3205"
       style="opacity:0.59999999999999998;fill:#3a3a36;fill-opacity:1;fill-rule:evenodd;stroke:none;stroke-width:1.69999992999999994;stroke-linecap:round;stroke-linejoin:miter;marker:none;marker-start:none;marker-mid:none;marker-end:none;stroke-miterlimit:4;stroke-dasharray:none;stroke-dashoffset:0;stroke-opacity:1;visibility:visible;display:inline;overflow:visible;enable-background:accumulate" />
    <path
       d="M 11,17 C 10.448,17 10,17.448 10,18 C 10,18.205137 10.061871,18.395912 10.167959,18.554668 C 10.167959,18.554668 11.346585,19.756826 11.346585,19.756826 C 11.521881,19.908328 11.7503,20 12,20 C 12.296299,20 12.562634,19.870919 12.7458,19.665961 C 12.7458,19.665961 13.799623,18.600365 13.799623,18.600365 C 13.925419,18.433134 14,18.225224 14,18 C 14,17.448 13.552,17 13,17 C 13,17 11,17 11,17 z"
       id="path3196"
       style="fill:#ebe4d2;fill-opacity:1;fill-rule:evenodd;stroke:none;stroke-width:1.69999992999999994;stroke-linecap:round;stroke-linejoin:miter;marker:none;marker-start:none;marker-mid:none;marker-end:none;stroke-miterlimit:4;stroke-dasharray:none;stroke-dashoffset:0;stroke-opacity:1;visibility:visible;display:inline;overflow:visible;enable-background:accumulate" />
  </g>
</svg>
