<?xml version="1.0" encoding="UTF-8" standalone="no"?>
<!-- Created with Inkscape (http://www.inkscape.org/) -->

<svg
   xmlns:dc="http://purl.org/dc/elements/1.1/"
   xmlns:cc="http://creativecommons.org/ns#"
   xmlns:rdf="http://www.w3.org/1999/02/22-rdf-syntax-ns#"
   xmlns:svg="http://www.w3.org/2000/svg"
   xmlns="http://www.w3.org/2000/svg"
   version="1.0"
   width="24"
   height="24"
   id="svg3172">
  <metadata
     id="metadata10">
    <rdf:RDF>
      <cc:Work
         rdf:about="">
        <dc:format>image/svg+xml</dc:format>
        <dc:type
           rdf:resource="http://purl.org/dc/dcmitype/StillImage" />
        <dc:title></dc:title>
      </cc:Work>
    </rdf:RDF>
  </metadata>
  <defs
     id="defs3174" />
  <path
     d="m 12,6 c -3.8639999,0 -7,3.136001 -7,7 0,3.864 3.1359999,6.999999 7,7 3.864,0 7,-3.136 7,-7 0,-3.864 -3.136,-6.9999998 -7,-7 z m 3,2 2,2 -5.5,7.5 -4,-3.5 2,-2 2,2 3.5,-6 z"
     id="path2396-7"
     style="opacity:0.3;fill:#ffffff;fill-opacity:1;fill-rule:nonzero;stroke:none;stroke-width:3;marker:none;visibility:visible;display:inline;overflow:visible;enable-background:accumulate" />
  <path
     d="m 12,4.9991931 c -3.8639999,0 -7,3.1360005 -7,6.9999999 0,3.864 3.1359999,6.999999 7,7 3.864,0 7,-3.136 7,-7 0,-3.8639998 -3.136,-6.9999997 -7,-6.9999999 z m 3,2 2,2 -5.5,7.4999999 -4,-3.5 2,-2 2,2 3.5,-5.9999999 z"
     id="path2396"
     style="fill:#3c3c3c;fill-opacity:1;fill-rule:nonzero;stroke:none;stroke-width:3;marker:none;visibility:visible;display:inline;overflow:visible;enable-background:accumulate" />
  <path
     d="M 7.8544493,12.999193 9.5,11.353642 l 2.054531,2.054531 3.5,-5.9999999 1.618285,1.6182849 -5.200081,7.118286 -3.6182857,-3.145551 z"
     id="path3170"
     style="opacity:0.3;fill:none;stroke:#ffffff;stroke-width:0.5;stroke-linecap:butt;stroke-linejoin:miter;stroke-miterlimit:4;stroke-opacity:1;stroke-dasharray:none" />
</svg>
