<?xml version="1.0" encoding="UTF-8" standalone="no"?>
<!-- Created with Inkscape (http://www.inkscape.org/) -->
<svg
   xmlns:dc="http://purl.org/dc/elements/1.1/"
   xmlns:cc="http://creativecommons.org/ns#"
   xmlns:rdf="http://www.w3.org/1999/02/22-rdf-syntax-ns#"
   xmlns:svg="http://www.w3.org/2000/svg"
   xmlns="http://www.w3.org/2000/svg"
   xmlns:sodipodi="http://sodipodi.sourceforge.net/DTD/sodipodi-0.dtd"
   xmlns:inkscape="http://www.inkscape.org/namespaces/inkscape"
   version="1.0"
   width="24"
   height="24"
   id="svg3240"
   sodipodi:version="0.32"
   inkscape:version="0.46"
   sodipodi:docname="battery-020.svg"
   inkscape:output_extension="org.inkscape.output.svg.inkscape">
  <metadata
     id="metadata10">
    <rdf:RDF>
      <cc:Work
         rdf:about="">
        <dc:format>image/svg+xml</dc:format>
        <dc:type
           rdf:resource="http://purl.org/dc/dcmitype/StillImage" />
      </cc:Work>
    </rdf:RDF>
  </metadata>
  <sodipodi:namedview
     inkscape:window-height="706"
     inkscape:window-width="640"
     inkscape:pageshadow="2"
     inkscape:pageopacity="0.0"
     guidetolerance="10.0"
     gridtolerance="10.0"
     objecttolerance="10.0"
     borderopacity="1.0"
     bordercolor="#666666"
     pagecolor="#ffffff"
     id="base"
     showgrid="false"
     inkscape:zoom="20.75"
     inkscape:cx="12"
     inkscape:cy="12"
     inkscape:window-x="0"
     inkscape:window-y="24"
     inkscape:current-layer="svg3240" />
  <defs
     id="defs3242">
    <inkscape:perspective
       sodipodi:type="inkscape:persp3d"
       inkscape:vp_x="0 : 12 : 1"
       inkscape:vp_y="0 : 1000 : 0"
       inkscape:vp_z="24 : 12 : 1"
       inkscape:persp3d-origin="12 : 8 : 1"
       id="perspective12" />
  </defs>
  <rect
     style="opacity:0.3;fill:none;fill-opacity:1;fill-rule:nonzero;stroke:#000000;stroke-width:0.5;stroke-linecap:round;stroke-linejoin:miter;marker:none;marker-start:none;marker-mid:none;marker-end:none;stroke-miterlimit:4;stroke-dasharray:none;stroke-dashoffset:0;stroke-opacity:1;visibility:visible;display:inline;overflow:visible;enable-background:accumulate"
     id="rect3236"
     y="8.25"
     x="-19.752043"
     ry="0.25"
     rx="0.25"
     height="7.5"
     width="14.5"
     transform="scale(-1,1)" />
  <path
     style="opacity:0.6;fill:none;fill-opacity:1;fill-rule:nonzero;stroke:#eae3d0;stroke-width:0.99999994;stroke-linecap:round;stroke-linejoin:miter;marker:none;marker-start:none;marker-mid:none;marker-end:none;stroke-miterlimit:4;stroke-dasharray:none;stroke-dashoffset:0;stroke-opacity:1;visibility:visible;display:inline;overflow:visible;enable-background:accumulate"
     id="rect3225"
     d="M 19.502042,6.5 C 20.610042,6.5 21.502042,7.392 21.502042,8.5 L 21.502042,15.5 C 21.502042,16.608 20.610042,17.5 19.502042,17.5 L 5.502042,17.5 C 4.394042,17.5 3.502041,16.608 3.502042,15.5 L 3.502042,14.5 C 2.915181,14.465401 2.341714,14.262611 1.970792,13.78125 C 1.445579,13.206345 1.555981,12.592479 1.502042,11.6875 C 1.448103,10.782521 2.471077,9.5237494 3.575831,9.5 L 3.502042,8.5 C 3.502042,7.392 4.394041,6.5 5.502042,6.5 L 19.502042,6.5 z" />
  <rect
     style="fill:#dc0000;fill-opacity:1;fill-rule:evenodd;stroke:none;stroke-width:1.69999993;stroke-linecap:round;stroke-linejoin:miter;marker:none;marker-start:none;marker-mid:none;marker-end:none;stroke-miterlimit:4;stroke-dasharray:none;stroke-dashoffset:0;stroke-opacity:1;visibility:visible;display:inline;overflow:visible;enable-background:accumulate"
     id="rect3728"
     transform="matrix(0,1,1,0,0,0)"
     y="6"
     x="9.0500002"
     ry="0.49999994"
     rx="0.5"
     height="3"
     width="6" />
  <path
     style="fill:none;fill-opacity:1;fill-rule:nonzero;stroke:#3a3935;stroke-width:1;stroke-linecap:round;stroke-linejoin:miter;marker:none;marker-start:none;marker-mid:none;marker-end:none;stroke-miterlimit:4;stroke-dashoffset:0;stroke-opacity:1;visibility:visible;display:inline;overflow:visible;enable-background:accumulate"
     id="rect2442"
     d="M 19.502042,7.5 L 5.502042,7.5 C 4.948042,7.5 4.502042,7.946 4.502042,8.5 L 4.502042,15.5 C 4.502042,16.054 4.948042,16.5 5.502042,16.5 L 19.502042,16.5 C 20.056042,16.5 20.502042,16.054 20.502042,15.5 L 20.502042,8.5 C 20.502042,7.946 20.056042,7.5 19.502042,7.5 z M 4.383591,10.50264 C 4.055551,10.50334 3.727515,10.504168 3.399483,10.505144 C 2.801658,10.545901 2.42275,11.15474 2.502009,11.717338 C 2.525442,12.25026 2.377888,12.894234 2.865204,13.272203 C 3.303682,13.622964 3.886404,13.463608 4.402411,13.5" />
</svg>
