<?xml version="1.0" encoding="UTF-8" standalone="no"?>
<!-- Created with Inkscape (http://www.inkscape.org/) -->

<svg
   xmlns:dc="http://purl.org/dc/elements/1.1/"
   xmlns:cc="http://creativecommons.org/ns#"
   xmlns:rdf="http://www.w3.org/1999/02/22-rdf-syntax-ns#"
   xmlns:svg="http://www.w3.org/2000/svg"
   xmlns="http://www.w3.org/2000/svg"
   version="1.1"
   width="32"
   height="24"
   id="svg3014">
  <defs
     id="defs3016" />
  <metadata
     id="metadata3019">
    <rdf:RDF>
      <cc:Work
         rdf:about="">
        <dc:format>image/svg+xml</dc:format>
        <dc:type
           rdf:resource="http://purl.org/dc/dcmitype/StillImage" />
        <dc:title></dc:title>
      </cc:Work>
    </rdf:RDF>
  </metadata>
  <path
     d="M 7.5,9 C 7.223,9 7,9.223 7,9.5 l 0,7 C 7,16.777 7.223,17 7.5,17 l 10.5,0 -8,-7 6,3 0,-4 -8.5,0 z m 8.5,0 7,7 -5,-2 0,3 6.5,0 c 0.277,0 0.5,-0.223 0.5,-0.5 l 0,-7 C 25,9.223 24.777,9 24.5,9 L 16,9 z"
     id="rect3190-8"
     style="opacity:0.3;fill:#ffffff;fill-opacity:1;fill-rule:evenodd;stroke:none;stroke-width:1.69999993;marker:none;visibility:visible;display:inline;overflow:visible;enable-background:accumulate" />
  <path
     d="M 7,7 C 5.892,7 5,7.892 5,9 l 0,8 c 0,1.108 0.892,2 2,2 l 18,0 c 1.108,0 2,-0.892 2,-2 l 0,-1 0.384328,0 C 28.492328,16 29,15.108 29,14 l 0,-2 c 0,-1.108 -0.425582,-2 -1.533582,-2 L 27,10 27,9 C 27,7.892 26.108,7 25,7 z m 0,1 18,0 c 0.554,0 1,0.446 1,1 l 0,8 c 0,0.554 -0.446,1 -1,1 L 7,18 C 6.446,18 6,17.554 6,17 L 6,9 C 6,8.446 6.446,8 7,8 z m 20,3 c 0.597415,0 1,0.051 1,1 l 0,2 c 0,0.9914 -0.406448,1 -1,1 z"
     id="rect2401-5"
     style="opacity:0.3;fill:#ffffff;fill-opacity:1;fill-rule:nonzero;stroke:none;stroke-width:1;marker:none;visibility:visible;display:inline;overflow:visible;enable-background:accumulate" />
  <path
     d="M 7,6 C 5.892,6 5,6.892 5,8 l 0,8 c 0,1.108 0.892,2 2,2 l 18,0 c 1.108,0 2,-0.892 2,-2 l 0,-1 0.384328,0 C 28.492328,15 29,14.108 29,13 l 0,-2 C 29,9.892 28.574418,9 27.466418,9 L 27,9 27,8 C 27,6.892 26.108,6 25,6 z m 0,1 18,0 c 0.554,0 1,0.446 1,1 l 0,8 c 0,0.554 -0.446,1 -1,1 L 7,17 C 6.446,17 6,16.554 6,16 L 6,8 C 6,7.446 6.446,7 7,7 z m 20,3 c 0.597415,0 1,0.051 1,1 l 0,2 c 0,0.9914 -0.406448,1 -1,1 z"
     id="rect2401"
     style="fill:#3c3c3c;fill-opacity:1;fill-rule:nonzero;stroke:none;stroke-width:1;marker:none;visibility:visible;display:inline;overflow:visible;enable-background:accumulate" />
  <rect
     width="19.5"
     height="9.500001"
     rx="0.75"
     ry="0.75"
     x="6.25"
     y="7.25"
     id="rect3192"
     style="opacity:0.3;fill:none;stroke:#3c3c3c;stroke-width:0.49999994;stroke-linecap:round;stroke-linejoin:miter;stroke-miterlimit:4;stroke-opacity:1;stroke-dasharray:none;stroke-dashoffset:0;marker:none;visibility:visible;display:inline;overflow:visible;enable-background:accumulate" />
  <path
     d="M 7.5,8 C 7.223,8 7,8.223 7,8.5 l 0,7 C 7,15.777 7.223,16 7.5,16 L 18,16 10,9 16,12 16,8 7.5,8 z m 8.5,0 7,7 -5,-2 0,3 6.5,0 c 0.277,0 0.5,-0.223 0.5,-0.5 l 0,-7 C 25,8.223 24.777,8 24.5,8 L 16,8 z"
     id="rect3190"
     style="fill:#3c3c3c;fill-opacity:1;fill-rule:evenodd;stroke:none;stroke-width:1.69999993;marker:none;visibility:visible;display:inline;overflow:visible;enable-background:accumulate" />
</svg>
