<?xml version="1.0" encoding="UTF-8" standalone="no"?>
<!-- Created with Inkscape (http://www.inkscape.org/) -->

<svg
   xmlns:dc="http://purl.org/dc/elements/1.1/"
   xmlns:cc="http://creativecommons.org/ns#"
   xmlns:rdf="http://www.w3.org/1999/02/22-rdf-syntax-ns#"
   xmlns:svg="http://www.w3.org/2000/svg"
   xmlns="http://www.w3.org/2000/svg"
   version="1.1"
   width="24"
   height="24"
   id="svg3809">
  <defs
     id="defs3811" />
  <metadata
     id="metadata3814">
    <rdf:RDF>
      <cc:Work
         rdf:about="">
        <dc:format>image/svg+xml</dc:format>
        <dc:type
           rdf:resource="http://purl.org/dc/dcmitype/StillImage" />
        <dc:title></dc:title>
      </cc:Work>
    </rdf:RDF>
  </metadata>
  <path
     d="m 4,5.9999999 c -0.554,0 -1,0.446 -1,1 L 3,20 c 0,0.554 0.446,1 1,1 l 6,0 c 0.554,0 1,-0.446 1,-1 L 11,6.9999999 c 0,-0.554 -0.446,-1 -1,-1 l -6,0 z m 0.5,1 5,0 c 0.277,0 0.5,0.223 0.5,0.5 L 10,14.5 C 10,14.777 9.777,15 9.5,15 l -5,0 C 4.223,15 4,14.777 4,14.5 L 4,7.4999999 c 0,-0.277 0.223,-0.5 0.5,-0.5 z M 4.5,17 C 4.777,17 5,17.223 5,17.5 5,17.777 4.777,18 4.5,18 4.223,18 4,17.777 4,17.5 4,17.223 4.223,17 4.5,17 z m 2,0 C 6.777,17 7,17.223 7,17.5 7,17.223 7.223,17 7.5,17 7.777,17 8,17.223 8,17.5 8,17.777 7.777,18 7.5,18 7.223,18 7,17.777 7,17.5 7,17.777 6.777,18 6.5,18 6.223,18 6,17.777 6,17.5 6,17.223 6.223,17 6.5,17 z m 3,0 C 9.777,17 10,17.223 10,17.5 10,17.777 9.777,18 9.5,18 9.223,18 9,17.777 9,17.5 9,17.223 9.223,17 9.5,17 z m -5,2 C 4.777,19 5,19.223 5,19.5 5,19.777 4.777,20 4.5,20 4.223,20 4,19.777 4,19.5 4,19.223 4.223,19 4.5,19 z m 2,0 C 6.777,19 7,19.223 7,19.5 7,19.223 7.223,19 7.5,19 7.777,19 8,19.223 8,19.5 8,19.777 7.777,20 7.5,20 7.223,20 7,19.777 7,19.5 7,19.777 6.777,20 6.5,20 6.223,20 6,19.777 6,19.5 6,19.223 6.223,19 6.5,19 z m 3,0 C 9.777,19 10,19.223 10,19.5 10,19.777 9.777,20 9.5,20 9.223,20 9,19.777 9,19.5 9,19.223 9.223,19 9.5,19 z m 6.000001,-2 c -0.277,0 -0.5,0.223 -0.5,0.5 l 0,1 c 0,0.277 0.223,0.5 0.5,0.5 L 18.5,19 c 0.277,0 0.5,-0.223 0.5,-0.5 l 0,-1 C 19,17.223 18.777,17 18.5,17 l -2.999999,0 z"
     id="rect2397-6"
     style="opacity:0.3;fill:#ffffff;fill-opacity:1;fill-rule:evenodd;stroke:none;stroke-width:1.69999993;marker:none;visibility:visible;display:inline;overflow:visible;enable-background:accumulate" />
  <path
     d="m 4,4.9999999 c -0.554,0 -1,0.446 -1,1 L 3,19 c 0,0.554 0.446,1 1,1 l 6,0 c 0.554,0 1,-0.446 1,-1 L 11,5.9999999 c 0,-0.554 -0.446,-1 -1,-1 l -6,0 z m 0.5,1 5,0 c 0.277,0 0.5,0.223 0.5,0.5 L 10,13.5 C 10,13.777 9.777,14 9.5,14 l -5,0 C 4.223,14 4,13.777 4,13.5 L 4,6.4999999 c 0,-0.277 0.223,-0.5 0.5,-0.5 z M 4.5,16 C 4.777,16 5,16.223 5,16.5 5,16.777 4.777,17 4.5,17 4.223,17 4,16.777 4,16.5 4,16.223 4.223,16 4.5,16 z m 2,0 C 6.777,16 7,16.223 7,16.5 7,16.223 7.223,16 7.5,16 7.777,16 8,16.223 8,16.5 8,16.777 7.777,17 7.5,17 7.223,17 7,16.777 7,16.5 7,16.777 6.777,17 6.5,17 6.223,17 6,16.777 6,16.5 6,16.223 6.223,16 6.5,16 z m 3,0 C 9.777,16 10,16.223 10,16.5 10,16.777 9.777,17 9.5,17 9.223,17 9,16.777 9,16.5 9,16.223 9.223,16 9.5,16 z m -5,2 C 4.777,18 5,18.223 5,18.5 5,18.777 4.777,19 4.5,19 4.223,19 4,18.777 4,18.5 4,18.223 4.223,18 4.5,18 z m 2,0 C 6.777,18 7,18.223 7,18.5 7,18.223 7.223,18 7.5,18 7.777,18 8,18.223 8,18.5 8,18.777 7.777,19 7.5,19 7.223,19 7,18.777 7,18.5 7,18.777 6.777,19 6.5,19 6.223,19 6,18.777 6,18.5 6,18.223 6.223,18 6.5,18 z m 3,0 C 9.777,18 10,18.223 10,18.5 10,18.777 9.777,19 9.5,19 9.223,19 9,18.777 9,18.5 9,18.223 9.223,18 9.5,18 z"
     id="rect2397"
     style="fill:#3c3c3c;fill-opacity:1;fill-rule:evenodd;stroke:none;stroke-width:1.69999993;marker:none;visibility:visible;display:inline;overflow:visible;enable-background:accumulate" />
  <path
     d="m 4.25,13.500001 0,-7.0000006 c 0,-0.1385 0.1115,-0.25 0.25,-0.25 l 4.9999995,0 c 0.1385,0 0.25,0.1115 0.25,0.25 l 0,7.0000006 c 0,0.1385 -0.1115,0.25 -0.25,0.25 l -4.9999995,0 c -0.1385,0 -0.25,-0.1115 -0.25,-0.25 z"
     id="rect3236"
     style="opacity:0.3;fill:none;stroke:#ffffff;stroke-width:0.5;stroke-linecap:round;stroke-linejoin:miter;stroke-miterlimit:4;stroke-opacity:1;stroke-dashoffset:0;marker:none;visibility:visible;display:inline;overflow:visible;enable-background:accumulate" />
  <path
     d="m 13.500001,19.5 0,-12.0000006 c 0,-0.554 0.445999,-1 1,-1 l 4.999999,0 c 0.553999,0 1,0.446 1,1 L 20.5,19.5 c 0,0.554 -0.446001,1 -1,1 l -4.999998,0 c -0.554001,0 -1,-0.446 -1,-1 z M 15.50264,6.3815484 c 7e-4,-0.32804 0.0015,-0.656076 0.0025,-0.984108 0.04076,-0.597825 0.649595,-0.976733 1.212193,-0.897474 0.532922,0.023433 1.176896,-0.124121 1.554865,0.363195 0.35076,0.438478 0.191405,1.0212 0.227796,1.537207"
     id="rect2442-9"
     style="opacity:0.3;fill:none;stroke:#ffffff;stroke-width:1;stroke-linecap:round;stroke-linejoin:miter;stroke-miterlimit:4;stroke-opacity:1;stroke-dashoffset:0;marker:none;visibility:visible;display:inline;overflow:visible;enable-background:accumulate" />
  <rect
     width="12.5"
     height="5.4999995"
     rx="0.25"
     ry="0.24999999"
     x="-18.75"
     y="14.25"
     transform="matrix(0,-1,1,0,0,0)"
     id="rect3236-9"
     style="opacity:0.3;fill:none;stroke:#ffffff;stroke-width:0.5;stroke-linecap:round;stroke-linejoin:miter;stroke-miterlimit:4;stroke-opacity:1;stroke-dasharray:none;stroke-dashoffset:0;marker:none;visibility:visible;display:inline;overflow:visible;enable-background:accumulate" />
  <path
     d="m 13.500001,18.5 0,-12.0000003 c 0,-0.554 0.445999,-1 1,-1 l 4.999999,0 c 0.553999,0 1,0.446 1,1 L 20.5,18.5 c 0,0.554 -0.446001,1 -1,1 l -4.999999,0 c -0.554001,0 -1,-0.446 -1,-1 z M 15.50264,5.3815487 c 7e-4,-0.32804 0.0015,-0.656076 0.0025,-0.984108 0.04076,-0.597825 0.649595,-0.976733 1.212193,-0.897474 0.532922,0.023433 1.176896,-0.124121 1.554865,0.363195 0.35076,0.438478 0.191405,1.0212 0.227796,1.537207"
     id="rect2442"
     style="fill:none;stroke:#3c3c3c;stroke-width:1;stroke-linecap:round;stroke-linejoin:miter;stroke-miterlimit:4;stroke-opacity:1;stroke-dashoffset:0;marker:none;visibility:visible;display:inline;overflow:visible;enable-background:accumulate" />
  <rect
     width="4"
     height="2"
     rx="0.5"
     ry="0.5"
     x="15"
     y="16"
     id="rect3728"
     style="fill:#df382c;fill-opacity:1;fill-rule:evenodd;stroke:none;stroke-width:1.69999993;marker:none;visibility:visible;display:inline;overflow:visible;enable-background:accumulate" />
</svg>
