<?xml version="1.0" encoding="UTF-8" standalone="no"?>
<!-- Created with Inkscape (http://www.inkscape.org/) -->

<svg
   xmlns:dc="http://purl.org/dc/elements/1.1/"
   xmlns:cc="http://creativecommons.org/ns#"
   xmlns:rdf="http://www.w3.org/1999/02/22-rdf-syntax-ns#"
   xmlns:svg="http://www.w3.org/2000/svg"
   xmlns="http://www.w3.org/2000/svg"
   xmlns:sodipodi="http://sodipodi.sourceforge.net/DTD/sodipodi-0.dtd"
   xmlns:inkscape="http://www.inkscape.org/namespaces/inkscape"
   version="1.0"
   width="24"
   height="24"
   id="svg3194"
   inkscape:version="0.48.0 r9654"
   sodipodi:docname="gsm-3g-none.svg">
  <metadata
     id="metadata16">
    <rdf:RDF>
      <cc:Work
         rdf:about="">
        <dc:format>image/svg+xml</dc:format>
        <dc:type
           rdf:resource="http://purl.org/dc/dcmitype/StillImage" />
        <dc:title></dc:title>
      </cc:Work>
    </rdf:RDF>
  </metadata>
  <sodipodi:namedview
     pagecolor="#ffffff"
     bordercolor="#666666"
     borderopacity="1"
     objecttolerance="10"
     gridtolerance="10"
     guidetolerance="10"
     inkscape:pageopacity="0"
     inkscape:pageshadow="2"
     inkscape:window-width="1280"
     inkscape:window-height="753"
     id="namedview14"
     showgrid="false"
     inkscape:zoom="13.227273"
     inkscape:cx="-2.7881787"
     inkscape:cy="11.144663"
     inkscape:window-x="0"
     inkscape:window-y="24"
     inkscape:window-maximized="1"
     inkscape:current-layer="svg3194" />
  <defs
     id="defs3196" />
  <path
     style="opacity:0.3;fill:#ffffff;fill-opacity:1;fill-rule:nonzero;stroke:none;stroke-width:1;marker:none;visibility:visible;display:inline;overflow:visible;enable-background:accumulate"
     d="m 2.5233085,13 c -0.06925,0 -0.1276406,0.006 -0.1875,0.03125 -0.057115,0.02622 -0.1129571,0.08181 -0.15625,0.125 l -0.03125,0.03125 c -0.032203,0.03814 -0.074055,0.07828 -0.09375,0.125 -0.096075,0.182877 -0.063812,0.405327 0.09375,0.5625 l 2.875,2.875 0,3.75 c 0,0.277 0.223,0.5 0.5,0.5 0.277,0 0.5,-0.223 0.5,-0.5 l 0,-3.75 2.875,-2.875 c 0.1575625,-0.157173 0.1898247,-0.379623 0.09375,-0.5625 -0.019695,-0.04672 -0.061547,-0.08686 -0.09375,-0.125 l -0.03125,-0.03125 C 8.7760303,13.065447 8.644754,13.006356 8.5233085,13 l -0.03125,0 -2.96875,0 -2.96875,0 -0.03125,0 z"
     id="path3829"
     inkscape:connector-curvature="0" />
  <g
     id="g4017"
     style="opacity:0.4"
     transform="translate(1.0233085,1)">
    <path
       id="path3833"
       d="m 20,4 c -0.554,0 -1,0.446 -1,1 l 0,14 c 0,0.554 0.446,1 1,1 0.554,0 1,-0.446 1,-1 L 21,5 C 21,4.446 20.554,4 20,4 z m -4,5 c -0.554,0 -1,0.446 -1,1 l 0,9 c 0,0.554 0.446,1 1,1 0.554,0 1,-0.446 1,-1 l 0,-9 C 17,9.446 16.554,9 16,9 z m -4,4 c -0.554,0 -1,0.446 -1,1 l 0,5 c 0,0.554 0.446,1 1,1 0.554,0 1,-0.446 1,-1 l 0,-5 c 0,-0.554 -0.446,-1 -1,-1 z m -4,4 c -0.554,0 -1,0.446 -1,1 l 0,1 c 0,0.554 0.446,1 1,1 0.554,0 1,-0.446 1,-1 L 9,18 C 9,17.446 8.554,17 8,17 z"
       style="opacity:0.3;fill:#ffffff;fill-opacity:1;fill-rule:nonzero;stroke:none;stroke-width:1;marker:none;visibility:visible;display:inline;overflow:visible;enable-background:accumulate"
       inkscape:connector-curvature="0" />
    <path
       id="rect3165"
       d="m 20,3 c -0.554,0 -1,0.446 -1,1 l 0,14 c 0,0.554 0.446,1 1,1 0.554,0 1,-0.446 1,-1 L 21,4 C 21,3.446 20.554,3 20,3 z m -4,5 c -0.554,0 -1,0.446 -1,1 l 0,9 c 0,0.554 0.446,1 1,1 0.554,0 1,-0.446 1,-1 L 17,9 C 17,8.446 16.554,8 16,8 z m -4,4 c -0.554,0 -1,0.446 -1,1 l 0,5 c 0,0.554 0.446,1 1,1 0.554,0 1,-0.446 1,-1 l 0,-5 c 0,-0.554 -0.446,-1 -1,-1 z m -4,4 c -0.554,0 -1,0.446 -1,1 l 0,1 c 0,0.554 0.446,1 1,1 0.554,0 1,-0.446 1,-1 L 9,17 C 9,16.446 8.554,16 8,16 z"
       style="fill:#3c3c3c;fill-opacity:1;fill-rule:nonzero;stroke:none;stroke-width:1;marker:none;visibility:visible;display:inline;overflow:visible;enable-background:accumulate"
       inkscape:connector-curvature="0" />
  </g>
  <path
     d="m 2.5228523,12 c -0.06925,0 -0.1276406,0.006 -0.1875,0.03125 -0.057115,0.02622 -0.1129571,0.08181 -0.15625,0.125 l -0.03125,0.03125 c -0.032203,0.03814 -0.074055,0.07828 -0.09375,0.125 -0.096075,0.182877 -0.063812,0.405327 0.09375,0.5625 l 2.875,2.875 0,3.75 c 0,0.277 0.223,0.5 0.5,0.5 0.277,0 0.5,-0.223 0.5,-0.5 l 0,-3.75 2.875,-2.875 c 0.1575625,-0.157173 0.1898247,-0.379623 0.09375,-0.5625 -0.019695,-0.04672 -0.061547,-0.08686 -0.09375,-0.125 l -0.03125,-0.03125 C 8.7755741,12.065447 8.6442978,12.006356 8.5228523,12 l -0.03125,0 -2.96875,0 -2.96875,0 -0.03125,0 z m 1.21875,1 1.28125,0 0,1.25 -1.28125,-1.25 z m 2.28125,0 1.28125,0 -1.28125,1.28125 0,-1.28125 z"
     id="rect3184"
     style="fill:#3c3c3c;fill-opacity:1;fill-rule:nonzero;stroke:none;stroke-width:1;marker:none;visibility:visible;display:inline;overflow:visible;enable-background:accumulate"
     inkscape:connector-curvature="0" />
</svg>
