<?xml version="1.0" encoding="utf-8"?>
<!-- Generator: Adobe Illustrator 15.0.0, SVG Export Plug-In . SVG Version: 6.00 Build 0)  -->
<!DOCTYPE svg PUBLIC "-//W3C//DTD SVG 1.1//EN" "http://www.w3.org/Graphics/SVG/1.1/DTD/svg11.dtd">
<svg version="1.1" id="Layer_1" xmlns="http://www.w3.org/2000/svg" xmlns:xlink="http://www.w3.org/1999/xlink" x="0px" y="0px"
	 width="26px" height="24px" viewBox="0 0 26 24" enable-background="new 0 0 26 24" xml:space="preserve">
<path id="path5_25_" opacity="0.3" fill="#FFFFFF" enable-background="new    " d="M20.59,7.924L5.305,7.945
	C4.695,7.945,4,8.706,4,9.259v9.298c0,0.732,0.789,1.366,1.453,1.366h15.049c0.797,0,1.498-0.678,1.498-1.376V9.389
	C22,8.613,21.311,7.924,20.59,7.924z M16.75,13.924l3.094,3.156l-0.688,0.688L16,14.611l-2.279,2.312h-1.438L10,14.611l-3.156,3.188
	L6.156,17.08l3.125-3.157L5.156,9.768l0.688-0.688l0,0l6.844,6.844h0.599l6.875-6.844l0.688,0.688L16.75,13.924z"/>
<path id="path5_24_" fill="#2EB5E9" fill-opacity="0.9529" d="M20.59,6.924L5.305,6.945C4.695,6.945,4,7.706,4,8.259v9.298
	c0,0.732,0.789,1.366,1.453,1.366h15.049c0.797,0,1.498-0.678,1.498-1.376V8.389C22,7.613,21.311,6.924,20.59,6.924z M16.75,12.924
	l3.094,3.156l-0.688,0.688L16,13.611l-2.279,2.312h-1.438L10,13.611l-3.156,3.188L6.156,16.08l3.125-3.157L5.156,8.768l0.688-0.688
	l0,0l6.844,6.844h0.599l6.875-6.844l0.688,0.688L16.75,12.924z"/>
<path id="path2997_3_" opacity="0.3" fill="#FFFFFF" enable-background="new    " d="M24.566,21.08L22.9,19.42l1.656-1.662
	c-0.326-0.596-0.815-1.082-1.414-1.402l-1.652,1.658l-1.652-1.647c-0.591,0.321-1.072,0.81-1.396,1.396l1.666,1.646l-1.674,1.682
	c0.322,0.598,0.812,1.086,1.406,1.41l1.686-1.691l1.688,1.662C23.786,22.139,24.254,21.662,24.566,21.08z"/>
<linearGradient id="path2999_1_" gradientUnits="userSpaceOnUse" x1="-2490.4912" y1="2498.5049" x2="-2484.3564" y2="2498.5049" gradientTransform="matrix(0 -1 1 0 -2477.001 -2468.999)">
	<stop  offset="0" style="stop-color:#676868"/>
	<stop  offset="0.3958" style="stop-color:#AAA9A8"/>
	<stop  offset="1" style="stop-color:#EAEAEA"/>
</linearGradient>
<path id="path2999_3_" fill="url(#path2999_1_)" d="M23.154,15.357l-1.659,1.666l-1.662-1.656c-0.597,0.328-1.082,0.816-1.401,1.416
	l1.657,1.65l-1.647,1.652c0.322,0.591,0.81,1.073,1.396,1.396l1.646-1.666l1.683,1.676c0.599-0.317,1.086-0.812,1.409-1.401
	l-1.69-1.688l1.662-1.688C24.214,16.139,23.736,15.671,23.154,15.357z"/>
<radialGradient id="path3783_1_" cx="3172.4238" cy="-3195.7305" r="4.618" gradientTransform="matrix(0.8669 0 0 -0.8669 -2728.6733 -2754.9517)" gradientUnits="userSpaceOnUse">
	<stop  offset="0" style="stop-color:#FFFFFF"/>
	<stop  offset="1" style="stop-color:#FFFFFF;stop-opacity:0"/>
</radialGradient>
<path id="path3783_3_" fill="url(#path3783_1_)" d="M19.844,15.361c-0.596,0.328-1.086,0.812-1.406,1.406l1.656,1.655l-0.5,0.5
	c0.566,0.31,1.217,0.5,1.906,0.5s1.34-0.19,1.906-0.5l-0.531-0.53l1.656-1.688c-0.326-0.573-0.793-1.031-1.375-1.345L21.5,17.014
	L19.844,15.361z"/>
</svg>
