<?xml version="1.0" encoding="UTF-8" standalone="no"?>
<!-- Generator: Adobe Illustrator 15.0.0, SVG Export Plug-In . SVG Version: 6.00 Build 0)  -->

<svg
   xmlns:dc="http://purl.org/dc/elements/1.1/"
   xmlns:cc="http://creativecommons.org/ns#"
   xmlns:rdf="http://www.w3.org/1999/02/22-rdf-syntax-ns#"
   xmlns:svg="http://www.w3.org/2000/svg"
   xmlns="http://www.w3.org/2000/svg"
   xmlns:sodipodi="http://sodipodi.sourceforge.net/DTD/sodipodi-0.dtd"
   xmlns:inkscape="http://www.inkscape.org/namespaces/inkscape"
   version="1.1"
   id="Layer_1"
   x="0px"
   y="0px"
   width="26px"
   height="24px"
   viewBox="0 0 26 24"
   enable-background="new 0 0 26 24"
   xml:space="preserve"
   inkscape:version="0.48.2 r9819"
   sodipodi:docname="indicator-messages-unread-invisible-mono-light.svg"><metadata
   id="metadata3152"><rdf:RDF><cc:Work
       rdf:about=""><dc:format>image/svg+xml</dc:format><dc:type
         rdf:resource="http://purl.org/dc/dcmitype/StillImage" /><dc:title /></cc:Work></rdf:RDF></metadata><defs
   id="defs3150" /><sodipodi:namedview
   pagecolor="#ffffff"
   bordercolor="#666666"
   borderopacity="1"
   objecttolerance="10"
   gridtolerance="10"
   guidetolerance="10"
   inkscape:pageopacity="0"
   inkscape:pageshadow="2"
   inkscape:window-width="1440"
   inkscape:window-height="852"
   id="namedview3148"
   showgrid="false"
   inkscape:zoom="27.812867"
   inkscape:cx="16.166663"
   inkscape:cy="12"
   inkscape:window-x="0"
   inkscape:window-y="0"
   inkscape:window-maximized="1"
   inkscape:current-layer="Layer_1" />
<path
   id="path3_3_"
   opacity="0.3"
   fill="#FFFFFF"
   enable-background="new    "
   d="M20.59,7L5.305,7.021C4.695,7.021,4,7.782,4,8.333  v9.298c0,0.732,0.789,1.366,1.453,1.366h15.049c0.797,0,1.498-0.681,1.498-1.376V8.462C22,7.689,21.311,7,20.59,7z M16.75,13  l3.094,3.156l-0.688,0.688L16,13.688l-1.543,1.531h-2.913L10,13.688l-3.156,3.188l-0.688-0.719L9.281,13L5.156,8.844l0.688-0.688  l0,0L12.029,12h1.953l6.178-3.844l0.688,0.688L16.75,13z" />
<path
   id="path5_3_"
   fill="#3E3E34"
   d="M20.59,6L5.305,6.021C4.695,6.021,4,6.782,4,7.333v9.298c0,0.732,0.789,1.366,1.453,1.366  h15.049c0.797,0,1.498-0.681,1.498-1.376V7.462C22,6.689,21.311,6,20.59,6z M16.75,12l3.094,3.156l-0.688,0.688L16,12.688  l-1.543,1.531h-2.913L10,12.688l-3.156,3.188l-0.688-0.719L9.281,12L5.156,7.844l0.688-0.688l0,0L12.029,11h1.953l6.178-3.844  l0.688,0.688L16.75,12z" />
<path
   style="opacity:0.3;fill:#ffffff;fill-opacity:1"
   d="m 20,15 c -0.553,0 -1,0.447 -1,1 l 0,4 c 0,0.553 0.447,1 1,1 l 4,0 c 0.553,0 1,-0.447 1,-1 l 0,-4 c 0,-0.553 -0.447,-1 -1,-1 l -4,0 z"
   id="path8_2_"
   inkscape:connector-curvature="0" />
<linearGradient
   id="path10_1_"
   gradientUnits="userSpaceOnUse"
   x1="-1675"
   y1="1942"
   x2="-1669"
   y2="1942"
   gradientTransform="matrix(0,-1,1,0,-1920,-1655)">
	<stop
   offset="0"
   style="stop-color:#413f3b;stop-opacity:1;"
   id="stop3135" />
	<stop
   offset="1"
   style="stop-color:#58564d;stop-opacity:1;"
   id="stop3137" />
</linearGradient>

<radialGradient
   id="path3789_1_"
   cx="2028.4043"
   cy="1672.1289"
   r="3.6296"
   gradientTransform="matrix(1.1033,0,0,1.1033,-2215.9463,-1830.8682)"
   gradientUnits="userSpaceOnUse">
	<stop
   offset="0"
   style="stop-color:#FFFFFF"
   id="stop3141" />
	<stop
   offset="0.3958"
   style="stop-color:#FFFFFF;stop-opacity:0.498"
   id="stop3143" />
	<stop
   offset="1"
   style="stop-color:#FFFFFF;stop-opacity:0"
   id="stop3145" />
</radialGradient>

<path
   style="fill:#ede8e5;fill-opacity:1"
   d="m 20,14 c -0.553,0 -1,0.447 -1,1 l 0,4 c 0,0.553 0.447,1 1,1 l 4,0 c 0.553,0 1,-0.447 1,-1 l 0,-4 c 0,-0.553 -0.447,-1 -1,-1 l -4,0 z"
   id="path3038"
   inkscape:connector-curvature="0" /><path
   style="fill:url(#path10_1_)"
   d="M 20 14 C 19.447 14 19 14.447 19 15 L 19 19 C 19 19.553 19.447 20 20 20 L 24 20 C 24.553 20 25 19.553 25 19 L 25 15 C 25 14.447 24.553 14 24 14 L 20 14 z M 20 15 L 24 15 L 24 19 L 20 19 L 20 15 z "
   id="path10_2_" /><path
   style="fill:url(#path3789_1_)"
   d="M 20 14 C 19.447 14 19 14.447 19 15 L 19 16.65625 C 19.282487 16.975784 19.62828 17.222621 20 17.4375 L 20 15 L 24 15 L 24 17.4375 C 24.37172 17.222621 24.717513 16.975784 25 16.65625 L 25 15 C 25 14.447 24.553 14 24 14 L 20 14 z "
   id="path3789" /></svg>