<?xml version="1.0" encoding="utf-8"?>
<!-- Generator: Adobe Illustrator 15.0.0, SVG Export Plug-In . SVG Version: 6.00 Build 0)  -->
<!DOCTYPE svg PUBLIC "-//W3C//DTD SVG 1.1//EN" "http://www.w3.org/Graphics/SVG/1.1/DTD/svg11.dtd">
<svg version="1.1"
	 id="svg3229" xmlns:rdf="http://www.w3.org/1999/02/22-rdf-syntax-ns#" xmlns:cc="http://creativecommons.org/ns#" xmlns:dc="http://purl.org/dc/elements/1.1/"
	 xmlns="http://www.w3.org/2000/svg" xmlns:xlink="http://www.w3.org/1999/xlink" x="0px" y="0px" width="24px" height="24px"
	 viewBox="0 0 24 24" enable-background="new 0 0 24 24" xml:space="preserve">
<path id="rect3170-2" opacity="0.3" fill="#FFFFFF" enable-background="new    " d="M4.305,7.022C3.696,7.022,3,7.782,3,8.336v9.298
	C3,18.366,3.789,19,4.454,19h15.048C20.299,19,21,18.322,21,17.624V8.465C21,7.689,20.311,7,19.59,7L4.305,7.022L4.305,7.022z
	 M4.844,8.156L11.688,15h0.594l6.875-6.844l0.688,0.688L15.75,13l3.094,3.156l-0.688,0.688L15,13.688L12.72,16h-1.438L9,13.688
	l-3.156,3.188l-0.688-0.719L8.282,13L4.157,8.844L4.844,8.156L4.844,8.156z"/>
<path id="rect3170" fill="#19B6EE" d="M4.305,6.022C3.696,6.022,3,6.782,3,7.336v9.298C3,17.366,3.789,18,4.454,18h15.048
	C20.299,18,21,17.322,21,16.624V7.465C21,6.689,20.311,6,19.59,6L4.305,6.022L4.305,6.022z M4.844,7.156L11.688,14h0.594
	l6.875-6.844l0.688,0.688L15.75,12l3.094,3.156l-0.688,0.688L15,12.688L12.72,15h-1.438L9,12.688l-3.156,3.188l-0.688-0.719
	L8.282,12L4.157,7.844L4.844,7.156L4.844,7.156z"/>
</svg>
