<?xml version="1.0" encoding="UTF-8" standalone="no"?>
<!-- Created with Inkscape (http://www.inkscape.org/) -->

<svg
   xmlns:dc="http://purl.org/dc/elements/1.1/"
   xmlns:cc="http://creativecommons.org/ns#"
   xmlns:rdf="http://www.w3.org/1999/02/22-rdf-syntax-ns#"
   xmlns:svg="http://www.w3.org/2000/svg"
   xmlns="http://www.w3.org/2000/svg"
   xmlns:sodipodi="http://sodipodi.sourceforge.net/DTD/sodipodi-0.dtd"
   xmlns:inkscape="http://www.inkscape.org/namespaces/inkscape"
   width="24"
   height="24"
   id="svg4654"
   version="1.1"
   inkscape:version="0.48.3.1 r9886"
   sodipodi:docname="indicator-messages-mixed-new.svg">
  <defs
     id="defs4656" />
  <sodipodi:namedview
     id="base"
     pagecolor="#ffffff"
     bordercolor="#666666"
     borderopacity="1.0"
     inkscape:pageopacity="0.0"
     inkscape:pageshadow="2"
     inkscape:zoom="12.434498"
     inkscape:cx="12.666374"
     inkscape:cy="0.86453029"
     inkscape:document-units="px"
     inkscape:current-layer="layer1"
     showgrid="false"
     inkscape:window-width="1920"
     inkscape:window-height="1030"
     inkscape:window-x="0"
     inkscape:window-y="22"
     inkscape:window-maximized="1" />
  <metadata
     id="metadata4659">
    <rdf:RDF>
      <cc:Work
         rdf:about="">
        <dc:format>image/svg+xml</dc:format>
        <dc:type
           rdf:resource="http://purl.org/dc/dcmitype/StillImage" />
        <dc:title />
      </cc:Work>
    </rdf:RDF>
  </metadata>
  <g
     inkscape:label="Layer 1"
     inkscape:groupmode="layer"
     id="layer1"
     transform="translate(0,-1028.3622)">
    <path
       inkscape:connector-curvature="0"
       style="opacity:0.29999999999999999;fill:#ffffff;enable-background:new"
       d="m 4.3125,1035.3622 c -0.6094,0 -1.3125,0.7585 -1.3125,1.3125 l 0,9.3125 c 0,0.731 0.8042,1.375 1.4688,1.375 l 10.5312,0 0,-1 a 1.0063982,1.0063982 0 0 1 0.8125,-1 1.0063982,1.0063982 0 0 1 0.1875,0 l 5,0 0,-8.5625 c 0,-0.7756 -0.6862,-1.4375 -1.4062,-1.4375 l -15.2813,0 z m 0.5313,1.1563 6.8437,6.8437 0.5938,0 6.875,-6.8437 0.6875,0.6875 -4.0938,4.1562 3.0938,3.1563 -0.6875,0.6875 -3.1563,-3.1563 -2.2812,2.3125 -1.4375,0 -2.2813,-2.3125 -3.1562,3.1875 -0.6875,-0.7187 3.125,-3.1563 -4.125,-4.1562 0.6875,-0.6875 z"
       id="path5682" />
    <path
       inkscape:connector-curvature="0"
       id="path5684"
       d="m 4.3125,1034.3622 c -0.6094,0 -1.3125,0.7585 -1.3125,1.3125 l 0,9.3125 c 0,0.731 0.8042,1.375 1.4688,1.375 l 10.5312,0 0,-1 a 1.0063982,1.0063982 0 0 1 0.8125,-1 1.0063982,1.0063982 0 0 1 0.1875,0 l 5,0 0,-8.5625 c 0,-0.7756 -0.6862,-1.4375 -1.4062,-1.4375 l -15.2813,0 z m 0.5313,1.1563 6.8437,6.8437 0.5938,0 6.875,-6.8437 0.6875,0.6875 -4.0938,4.1562 3.0938,3.1563 -0.6875,0.6875 -3.1563,-3.1563 -2.2812,2.3125 -1.4375,0 -2.2813,-2.3125 -3.1562,3.1875 -0.6875,-0.7187 3.125,-3.1563 -4.125,-4.1562 0.6875,-0.6875 z"
       style="fill:#19b6ee;fill-opacity:1;enable-background:new" />
    <rect
       y="1045.3494"
       x="16.000011"
       height="2"
       width="7"
       id="rect5702"
       style="opacity:0.40000000000000002;color:#000000;fill:#3c3c3c;fill-opacity:1;fill-rule:nonzero;stroke:none;stroke-width:2;marker:none;visibility:visible;display:inline;overflow:visible;enable-background:accumulate" />
  </g>
</svg>
