<?xml version="1.0" encoding="utf-8"?>
<!-- Generator: Adobe Illustrator 15.0.0, SVG Export Plug-In . SVG Version: 6.00 Build 0)  -->
<!DOCTYPE svg PUBLIC "-//W3C//DTD SVG 1.1//EN" "http://www.w3.org/Graphics/SVG/1.1/DTD/svg11.dtd">
<svg version="1.1" id="Layer_1" xmlns="http://www.w3.org/2000/svg" xmlns:xlink="http://www.w3.org/1999/xlink" x="0px" y="0px"
	 width="26px" height="24px" viewBox="0 0 26 24" enable-background="new 0 0 26 24" xml:space="preserve">
<path id="path3_7_" opacity="0.3" fill="#FFFFFF" enable-background="new    " d="M20.59,7L5.305,7.021C4.694,7.021,4,7.782,4,8.334
	v9.298c0,0.731,0.789,1.366,1.453,1.366h15.049c0.797,0,1.498-0.68,1.498-1.376V8.463C22,7.689,21.311,7,20.59,7z M16.75,13
	l3.094,3.156l-0.688,0.688L16,13.688l-1.543,1.531h-2.914L10,13.688l-3.156,3.188l-0.688-0.719L9.281,13L5.156,8.844l0.688-0.688
	l0,0L12.028,12h1.954l6.178-3.844l0.688,0.688L16.75,13z"/>
<path id="path5_7_" fill="#3E3E34" d="M20.59,6L5.305,6.021C4.694,6.021,4,6.782,4,7.334v9.298c0,0.731,0.789,1.366,1.453,1.366
	h15.049c0.797,0,1.498-0.68,1.498-1.376V7.463C22,6.689,21.311,6,20.59,6z M16.75,12l3.094,3.156l-0.688,0.688L16,12.688
	l-1.543,1.531h-2.914L10,12.688l-3.156,3.188l-0.688-0.719L9.281,12L5.156,7.844l0.688-0.688l0,0L12.028,11h1.954l6.178-3.844
	l0.688,0.688L16.75,12z"/>
<circle id="circle5_1_" opacity="0.3" fill="#FFFFFF" enable-background="new    " cx="21.5" cy="17.5" r="3.5"/>
<linearGradient id="circle7_2_" gradientUnits="userSpaceOnUse" x1="-2087.9087" y1="2218.9551" x2="-2081.001" y2="2219.0481" gradientTransform="matrix(0 -1 1 0 -2197.5 -2068)">
	<stop  offset="0" style="stop-color:#2E8942"/>
	<stop  offset="1" style="stop-color:#6CBF5A"/>
</linearGradient>
<circle id="circle7_1_" fill="url(#circle7_2_)" cx="21.5" cy="16.5" r="3.5"/>
<radialGradient id="path3798_2_" cx="2263.7295" cy="2026.501" r="3.5937" gradientTransform="matrix(1.1134 0 0 1.1134 -2498.9482 -2242.8223)" gradientUnits="userSpaceOnUse">
	<stop  offset="0" style="stop-color:#FFFFFF"/>
	<stop  offset="0.4375" style="stop-color:#FFFFFF;stop-opacity:0.498"/>
	<stop  offset="1" style="stop-color:#FFFFFF;stop-opacity:0"/>
</radialGradient>
<path id="path3798_1_" fill="url(#path3798_2_)" d="M21.5,13c-1.633,0-2.988,1.113-3.375,2.625C18.832,16.754,20.07,17.5,21.5,17.5
	s2.668-0.746,3.375-1.875C24.488,14.113,23.133,13,21.5,13z"/>
</svg>
