<?xml version="1.0" encoding="utf-8"?>
<!-- Generator: Adobe Illustrator 15.0.0, SVG Export Plug-In . SVG Version: 6.00 Build 0)  -->
<!DOCTYPE svg PUBLIC "-//W3C//DTD SVG 1.1//EN" "http://www.w3.org/Graphics/SVG/1.1/DTD/svg11.dtd">
<svg version="1.1" id="Layer_1" xmlns="http://www.w3.org/2000/svg" xmlns:xlink="http://www.w3.org/1999/xlink" x="0px" y="0px"
	 width="26px" height="24px" viewBox="0 0 26 24" enable-background="new 0 0 26 24" xml:space="preserve">
<path id="path3_1_" opacity="0.3" fill="#FFFFFF" enable-background="new    " d="M20.59,7L5.305,7.021C4.695,7.021,4,7.782,4,8.333
	v9.298c0,0.732,0.789,1.366,1.453,1.366h15.049c0.797,0,1.498-0.681,1.498-1.376V8.462C22,7.689,21.311,7,20.59,7z M16.75,13
	l3.094,3.156l-0.688,0.688L16,13.688l-1.543,1.531h-2.913L10,13.688l-3.156,3.188l-0.688-0.719L9.281,13L5.156,8.844l0.688-0.688
	l0,0L12.029,12h1.953l6.177-3.844l0.688,0.688L16.75,13z"/>
<path id="path5_1_" fill="#3E3E34" d="M20.59,6L5.305,6.021C4.695,6.021,4,6.782,4,7.333v9.298c0,0.732,0.789,1.366,1.453,1.366
	h15.049c0.797,0,1.498-0.681,1.498-1.376V7.462C22,6.689,21.311,6,20.59,6z M16.75,12l3.094,3.156l-0.688,0.688L16,12.688
	l-1.543,1.531h-2.913L10,12.688l-3.156,3.188l-0.688-0.719L9.281,12L5.156,7.844l0.688-0.688l0,0L12.029,11h1.953l6.177-3.844
	l0.688,0.688L16.75,12z"/>
<path id="path8" opacity="0.3" fill="#FFFFFF" enable-background="new    " d="M18,18.499c0,0.537,0.131,1.041,0.348,1.496
	l6.313-0.017C24.873,19.527,25,19.029,25,18.499c0-0.537-0.131-1.039-0.348-1.494l-6.314,0.019C18.127,17.473,18,17.971,18,18.499z"
	/>
<linearGradient id="path10_1_" gradientUnits="userSpaceOnUse" x1="2214.4932" y1="1854.9492" x2="2214.5059" y2="1851.918" gradientTransform="matrix(1 0 0 1 -2193 -1836)">
	<stop  offset="0" style="stop-color:#676868"/>
	<stop  offset="1" style="stop-color:#EAEAEA"/>
</linearGradient>
<path id="path10" fill="url(#path10_1_)" d="M18,17.499c0,0.537,0.131,1.041,0.348,1.496l6.313-0.017
	C24.873,18.527,25,18.029,25,17.499c0-0.537-0.131-1.039-0.348-1.494l-6.314,0.019C18.127,16.473,18,16.971,18,17.499z"/>
<radialGradient id="path4312_1_" cx="1814.916" cy="-1565.6562" r="3.1985" gradientTransform="matrix(1.2512 0 0 -1.2512 -2249.3213 -1944.2461)" gradientUnits="userSpaceOnUse">
	<stop  offset="0" style="stop-color:#FFFFFF"/>
	<stop  offset="0.3" style="stop-color:#FFFFFF;stop-opacity:0.498"/>
	<stop  offset="1" style="stop-color:#FFFFFF;stop-opacity:0"/>
</radialGradient>
<path id="path4312" fill="url(#path4312_1_)" d="M24.656,16l-6.312,0.031c-0.109,0.234-0.191,0.461-0.25,0.719
	c0.7,1.161,1.951,1.938,3.406,1.938s2.706-0.771,3.406-1.938C24.846,16.49,24.77,16.236,24.656,16z"/>
</svg>
