<?xml version="1.0" encoding="UTF-8" standalone="no"?>
<!-- Generator: Adobe Illustrator 15.0.0, SVG Export Plug-In . SVG Version: 6.00 Build 0)  -->

<svg
   xmlns:dc="http://purl.org/dc/elements/1.1/"
   xmlns:cc="http://creativecommons.org/ns#"
   xmlns:rdf="http://www.w3.org/1999/02/22-rdf-syntax-ns#"
   xmlns:svg="http://www.w3.org/2000/svg"
   xmlns="http://www.w3.org/2000/svg"
   xmlns:sodipodi="http://sodipodi.sourceforge.net/DTD/sodipodi-0.dtd"
   xmlns:inkscape="http://www.inkscape.org/namespaces/inkscape"
   version="1.1"
   id="Layer_1"
   x="0px"
   y="0px"
   width="26px"
   height="24px"
   viewBox="0 0 26 24"
   enable-background="new 0 0 26 24"
   xml:space="preserve"
   inkscape:version="0.48.2 r9819"
   sodipodi:docname="indicator-messages-new-offline-mono-light.svg"><metadata
   id="metadata3071"><rdf:RDF><cc:Work
       rdf:about=""><dc:format>image/svg+xml</dc:format><dc:type
         rdf:resource="http://purl.org/dc/dcmitype/StillImage" /></cc:Work></rdf:RDF></metadata><defs
   id="defs3069" /><sodipodi:namedview
   pagecolor="#ffffff"
   bordercolor="#666666"
   borderopacity="1"
   objecttolerance="10"
   gridtolerance="10"
   guidetolerance="10"
   inkscape:pageopacity="0"
   inkscape:pageshadow="2"
   inkscape:window-width="1440"
   inkscape:window-height="852"
   id="namedview3067"
   showgrid="false"
   inkscape:zoom="9.8333333"
   inkscape:cx="-5"
   inkscape:cy="9.913371"
   inkscape:window-x="0"
   inkscape:window-y="0"
   inkscape:window-maximized="1"
   inkscape:current-layer="Layer_1" />
<path
   id="path5_25_"
   enable-background="new    "
   d="M 20.59,7.423 5.305,7.444 C 4.695,7.444 4,8.205 4,8.758 v 9.298 c 0,0.732 0.789,1.366 1.453,1.366 H 20.502 C 21.299,19.422 22,18.744 22,18.046 V 8.888 C 22,8.112 21.311,7.423 20.59,7.423 z m -3.84,6 3.094,3.156 -0.688,0.688 L 16,14.11 13.721,16.422 H 12.283 L 10,14.11 6.844,17.298 6.156,16.579 9.281,13.422 5.156,9.267 5.844,8.579 l 0,0 6.844,6.844 h 0.599 l 6.875,-6.844 0.688,0.688 -4.1,4.156 z"
   inkscape:connector-curvature="0"
   style="opacity:0.3;fill:#ffffff" />
<path
   id="path5_24_"
   d="M 20.59,6.423 5.305,6.444 C 4.695,6.444 4,7.205 4,7.758 v 9.298 c 0,0.732 0.789,1.366 1.453,1.366 H 20.502 C 21.299,18.422 22,17.744 22,17.046 V 7.888 C 22,7.112 21.311,6.423 20.59,6.423 z m -3.84,6 3.094,3.156 -0.688,0.688 L 16,13.11 13.721,15.422 H 12.283 L 10,13.11 6.844,16.298 6.156,15.579 9.281,12.422 5.156,8.267 5.844,7.579 l 0,0 6.844,6.844 h 0.599 l 6.875,-6.844 0.688,0.688 -4.1,4.156 z"
   inkscape:connector-curvature="0"
   style="fill:#2eb5e9;fill-opacity:0.95290001" />
<path
   id="path2997_3_"
   enable-background="new    "
   d="M 24.566,20.579 22.9,18.919 24.556,17.257 C 24.23,16.661 23.741,16.175 23.142,15.855 l -1.652,1.658 -1.652,-1.647 c -0.591,0.321 -1.072,0.81 -1.396,1.396 l 1.666,1.646 -1.674,1.682 c 0.322,0.598 0.812,1.086 1.406,1.41 l 1.686,-1.691 1.688,1.662 c 0.572,-0.333 1.04,-0.81 1.352,-1.392 z"
   inkscape:connector-curvature="0"
   style="opacity:0.3;fill:#ffffff" />
<linearGradient
   id="path2999_1_"
   gradientUnits="userSpaceOnUse"
   x1="-2490.4912"
   y1="2498.5049"
   x2="-2484.3564"
   y2="2498.5049"
   gradientTransform="matrix(0,-1,1,0,-2477.001,-2469.5)">
	<stop
   offset="0"
   style="stop-color:#413f3b;stop-opacity:1;"
   id="stop3054" />
	
	<stop
   offset="1"
   style="stop-color:#58564d;stop-opacity:1;"
   id="stop3058" />
</linearGradient>
<path
   id="path2999_3_"
   d="m 23.154,14.856 -1.659,1.666 -1.662,-1.656 c -0.597,0.328 -1.082,0.816 -1.401,1.416 l 1.657,1.65 -1.647,1.652 c 0.322,0.591 0.81,1.073 1.396,1.396 l 1.646,-1.666 1.683,1.676 c 0.599,-0.317 1.086,-0.812 1.409,-1.401 l -1.69,-1.688 1.662,-1.688 C 24.214,15.638 23.736,15.17 23.154,14.856 z"
   style="fill:url(#path2999_1_)"
   inkscape:connector-curvature="0" />
<radialGradient
   id="path3783_1_"
   cx="3172.4238"
   cy="-3195.7305"
   r="4.618"
   gradientTransform="matrix(0.8669,0,0,-0.8669,-2728.6733,-2755.4527)"
   gradientUnits="userSpaceOnUse">
	<stop
   offset="0"
   style="stop-color:#FFFFFF"
   id="stop3062" />
	<stop
   offset="1"
   style="stop-color:#FFFFFF;stop-opacity:0"
   id="stop3064" />
</radialGradient>
<path
   id="path3783_3_"
   d="m 19.844,14.86 c -0.596,0.328 -1.086,0.812 -1.406,1.406 l 1.656,1.655 -0.5,0.5 c 0.566,0.31 1.217,0.5 1.906,0.5 0.689,0 1.34,-0.19 1.906,-0.5 l -0.531,-0.53 1.656,-1.688 C 24.205,15.63 23.738,15.172 23.156,14.858 L 21.5,16.513 19.844,14.86 z"
   style="fill:url(#path3783_1_)"
   inkscape:connector-curvature="0" />
</svg>