<?xml version="1.0" encoding="utf-8"?>
<!-- Generator: Adobe Illustrator 15.0.0, SVG Export Plug-In . SVG Version: 6.00 Build 0)  -->
<!DOCTYPE svg PUBLIC "-//W3C//DTD SVG 1.1//EN" "http://www.w3.org/Graphics/SVG/1.1/DTD/svg11.dtd">
<svg version="1.1" id="Layer_1" xmlns="http://www.w3.org/2000/svg" xmlns:xlink="http://www.w3.org/1999/xlink" x="0px" y="0px"
	 width="26px" height="24px" viewBox="0 0 26 24" enable-background="new 0 0 26 24" xml:space="preserve">
<path id="path2992" opacity="0.3" fill="#FFFFFF" enable-background="new    " d="M20.59,7L5.305,7.021C4.695,7.021,4,7.782,4,8.333
	v9.298c0,0.732,0.789,1.366,1.453,1.366h15.049c0.797,0,1.498-0.681,1.498-1.376V8.462C22,7.689,21.311,7,20.59,7z M16.75,13
	l3.094,3.156l-0.688,0.688L16,13.688l-1.543,1.531h-2.913L10,13.688l-3.156,3.188l-0.688-0.719L9.281,13L5.156,8.844l0.688-0.688
	l0,0L12.029,12h1.953l6.178-3.844l0.688,0.688L16.75,13z"/>
<path id="path2994" fill="#3E3E34" d="M20.59,6L5.305,6.021C4.695,6.021,4,6.782,4,7.333v9.298c0,0.732,0.789,1.366,1.453,1.366
	h15.049c0.797,0,1.498-0.681,1.498-1.376V7.462C22,6.689,21.311,6,20.59,6z M16.75,12l3.094,3.156l-0.688,0.688L16,12.688
	l-1.543,1.531h-2.913L10,12.688l-3.156,3.188l-0.688-0.719L9.281,12L5.156,7.844l0.688-0.688l0,0L12.029,11h1.953l6.178-3.844
	l0.688,0.688L16.75,12z"/>
<path id="path2997_1_" opacity="0.3" fill="#FFFFFF" enable-background="new    " d="M24.566,20.156l-1.666-1.66l1.656-1.662
	c-0.326-0.596-0.815-1.082-1.414-1.402L21.49,17.09l-1.652-1.648c-0.591,0.322-1.072,0.809-1.396,1.396l1.666,1.646l-1.674,1.682
	c0.322,0.598,0.812,1.086,1.406,1.41l1.686-1.691l1.688,1.662C23.786,21.215,24.254,20.738,24.566,20.156z"/>
<linearGradient id="path2999_2_" gradientUnits="userSpaceOnUse" x1="-1674.5674" y1="1941.5049" x2="-1668.4326" y2="1941.5049" gradientTransform="matrix(0 -1 1 0 -1920.001 -1653.999)">
	<stop  offset="0" style="stop-color:#676868"/>
	<stop  offset="0.3958" style="stop-color:#AAA9A8"/>
	<stop  offset="1" style="stop-color:#EAEAEA"/>
</linearGradient>
<path id="path2999_1_" fill="url(#path2999_2_)" d="M23.154,14.434L21.495,16.1l-1.662-1.656c-0.597,0.328-1.082,0.816-1.401,1.416
	l1.657,1.652l-1.647,1.651c0.322,0.591,0.808,1.073,1.396,1.396l1.646-1.666l1.683,1.676c0.599-0.318,1.086-0.812,1.409-1.402
	l-1.69-1.688l1.662-1.688C24.214,15.215,23.736,14.747,23.154,14.434z"/>
<radialGradient id="path3783_2_" cx="2515.5225" cy="-2240.916" r="4.6147" gradientTransform="matrix(0.8669 0 0 -0.8669 -2159.2046 -1928.1489)" gradientUnits="userSpaceOnUse">
	<stop  offset="0" style="stop-color:#FFFFFF"/>
	<stop  offset="1" style="stop-color:#FFFFFF;stop-opacity:0"/>
</radialGradient>
<path id="path3783_1_" fill="url(#path3783_2_)" d="M19.844,14.438c-0.596,0.328-1.086,0.812-1.406,1.406l1.656,1.656l-0.5,0.5
	c0.566,0.309,1.217,0.5,1.906,0.5s1.34-0.191,1.906-0.5l-0.531-0.531l1.656-1.688c-0.326-0.573-0.793-1.031-1.375-1.344L21.5,16.091
	L19.844,14.438z"/>
</svg>
