<?xml version="1.0" encoding="UTF-8" standalone="no"?>
<!-- Created with Inkscape (http://www.inkscape.org/) -->

<svg
   xmlns:dc="http://purl.org/dc/elements/1.1/"
   xmlns:cc="http://creativecommons.org/ns#"
   xmlns:rdf="http://www.w3.org/1999/02/22-rdf-syntax-ns#"
   xmlns:svg="http://www.w3.org/2000/svg"
   xmlns="http://www.w3.org/2000/svg"
   xmlns:xlink="http://www.w3.org/1999/xlink"
   xmlns:sodipodi="http://sodipodi.sourceforge.net/DTD/sodipodi-0.dtd"
   xmlns:inkscape="http://www.inkscape.org/namespaces/inkscape"
   width="24"
   height="24"
   id="svg4444"
   version="1.1"
   inkscape:version="0.48.3.1 r9886"
   sodipodi:docname="indicator-messages-busy-new.svg">
  <defs
     id="defs4446">
    <linearGradient
       inkscape:collect="always"
       xlink:href="#linearGradient4241-1"
       id="linearGradient5738"
       gradientUnits="userSpaceOnUse"
       gradientTransform="matrix(0,0.7532525,-0.69975886,0,725.1116,867.32539)"
       x1="231"
       y1="1008.3622"
       x2="236"
       y2="1008.3622" />
    <linearGradient
       inkscape:collect="always"
       id="linearGradient4241-1">
      <stop
         style="stop-color:#ffffff;stop-opacity:1;"
         offset="0"
         id="stop4243-7" />
      <stop
         style="stop-color:#ffffff;stop-opacity:0;"
         offset="1"
         id="stop4245-4" />
    </linearGradient>
    <linearGradient
       inkscape:collect="always"
       xlink:href="#linearGradient5693"
       id="linearGradient5732"
       gradientUnits="userSpaceOnUse"
       gradientTransform="translate(-224,271.9872)"
       x1="243"
       y1="769.36218"
       x2="243"
       y2="776.36218" />
    <linearGradient
       id="linearGradient5693">
      <stop
         id="stop5695"
         offset="0"
         style="stop-color:#bb271c;stop-opacity:1;" />
      <stop
         id="stop5697"
         offset="1"
         style="stop-color:#e55d53;stop-opacity:1;" />
    </linearGradient>
  </defs>
  <sodipodi:namedview
     id="base"
     pagecolor="#ffffff"
     bordercolor="#666666"
     borderopacity="1.0"
     inkscape:pageopacity="0.0"
     inkscape:pageshadow="2"
     inkscape:zoom="7.9580786"
     inkscape:cx="11.152189"
     inkscape:cy="6.6913136"
     inkscape:document-units="px"
     inkscape:current-layer="layer1"
     showgrid="false"
     inkscape:window-width="1920"
     inkscape:window-height="1030"
     inkscape:window-x="0"
     inkscape:window-y="22"
     inkscape:window-maximized="1" />
  <metadata
     id="metadata4449">
    <rdf:RDF>
      <cc:Work
         rdf:about="">
        <dc:format>image/svg+xml</dc:format>
        <dc:type
           rdf:resource="http://purl.org/dc/dcmitype/StillImage" />
        <dc:title />
      </cc:Work>
    </rdf:RDF>
  </metadata>
  <g
     inkscape:label="Layer 1"
     inkscape:groupmode="layer"
     id="layer1"
     transform="translate(0,-1028.3622)">
    <path
       inkscape:connector-curvature="0"
       id="path5674"
       d="m 4.3125,1035.3622 c -0.6094,0 -1.3125,0.7585 -1.3125,1.3125 l 0,9.3125 c 0,0.731 0.80415,1.375 1.46875,1.375 l 10.53125,0 0,-4 c 0,-0.372 0.10114,-0.7315 0.28125,-1.0312 L 15,1042.0497 l -2.28125,2.3125 -1.4375,0 L 9,1042.0497 l -3.15625,3.1875 -0.6875,-0.7187 3.125,-3.1563 -4.125,-4.1562 0.6875,-0.6875 6.84375,6.8437 0.59375,0 6.875,-6.8437 0.6875,0.6875 -4.09375,4.1562 0.25,0.2813 c 0.29453,-0.1716 0.63757,-0.2813 1,-0.2813 l 4,0 0,-4.5625 c 0,-0.7756 -0.68625,-1.4375 -1.40625,-1.4375 z"
       style="opacity:0.29999999999999999;fill:#ffffff;enable-background:new"
       sodipodi:nodetypes="sssscsccccccccccccccccscsss" />
    <path
       inkscape:connector-curvature="0"
       id="path5676"
       d="m 4.3125,1034.3622 c -0.6094,0 -1.3125,0.7585 -1.3125,1.3125 l 0,9.3125 c 0,0.731 0.80415,1.375 1.46875,1.375 l 10.53125,0 0,-4 c 0,-0.372 0.10114,-0.7315 0.28125,-1.0312 L 15,1041.0497 l -2.28125,2.3125 -1.4375,0 L 9,1041.0497 l -3.15625,3.1875 -0.6875,-0.7187 3.125,-3.1563 -4.125,-4.1562 0.6875,-0.6875 6.84375,6.8437 0.59375,0 6.875,-6.8437 0.6875,0.6875 -4.09375,4.1562 0.25,0.2813 c 0.29453,-0.1716 0.63757,-0.2813 1,-0.2813 l 4,0 0,-4.5625 c 0,-0.7756 -0.68625,-1.4375 -1.40625,-1.4375 l -15.28125,0 z"
       style="fill:#19b6ee;fill-opacity:1;enable-background:new" />
    <path
       transform="translate(-224,271.9872)"
       sodipodi:type="inkscape:offset"
       inkscape:radius="1.0043244"
       inkscape:original="M 241 769.375 C 240.446 769.375 240 769.821 240 770.375 L 240 775.375 C 240 775.929 240.446 776.375 241 776.375 L 246 776.375 C 246.554 776.375 247 775.929 247 775.375 L 247 770.375 C 247 769.821 246.554 769.375 246 769.375 L 241 769.375 z "
       style="opacity:0.1;color:#000000;fill:#000000;fill-opacity:1;fill-rule:nonzero;stroke:none;stroke-width:2;marker:none;visibility:visible;display:inline;overflow:visible;enable-background:accumulate"
       id="path5690"
       d="m 241,768.375 c -1.09302,0 -2,0.90698 -2,2 l 0,5 c 0,1.09302 0.90698,2 2,2 l 5,0 c 1.09302,0 2,-0.90698 2,-2 l 0,-5 c 0,-1.09302 -0.90698,-2 -2,-2 l -5,0 z" />
    <rect
       style="opacity:0.6;color:#000000;fill:#000000;fill-opacity:1;fill-rule:nonzero;stroke:none;stroke-width:2;marker:none;visibility:visible;display:inline;overflow:visible;enable-background:accumulate"
       id="rect5692"
       width="7"
       height="7"
       x="16"
       y="1042.3494"
       ry="1" />
    <rect
       ry="1"
       y="1041.3494"
       x="16"
       height="7"
       width="7"
       id="rect5694"
       style="color:#000000;fill:url(#linearGradient5732);fill-opacity:1;fill-rule:nonzero;stroke:none;stroke-width:2;marker:none;visibility:visible;display:inline;overflow:visible;enable-background:accumulate" />
    <path
       inkscape:connector-curvature="0"
       style="opacity:0.7;color:#000000;fill:url(#linearGradient5738);fill-opacity:1;fill-rule:nonzero;stroke:none;stroke-width:2;marker:none;visibility:visible;display:inline;overflow:visible;enable-background:accumulate"
       d="m 17,1041.3494 c -0.554,0 -1,0.446 -1,1 l 0,0.4687 c -0.0117,0.1079 -0.0118,0.2193 0,0.3125 0.17634,1.3986 2.84398,1.2097 3.5,1.2188 0.69975,0.01 3.5,0.2667 3.5,-1.5 l 0,-0.5 c 0,-0.554 -0.446,-1 -1,-1 l -5,0 z"
       id="path5714" />
  </g>
</svg>
