<?xml version="1.0" encoding="UTF-8" standalone="no"?>
<!-- Created with Inkscape (http://www.inkscape.org/) -->

<svg
   xmlns:dc="http://purl.org/dc/elements/1.1/"
   xmlns:cc="http://creativecommons.org/ns#"
   xmlns:rdf="http://www.w3.org/1999/02/22-rdf-syntax-ns#"
   xmlns:svg="http://www.w3.org/2000/svg"
   xmlns="http://www.w3.org/2000/svg"
   xmlns:sodipodi="http://sodipodi.sourceforge.net/DTD/sodipodi-0.dtd"
   xmlns:inkscape="http://www.inkscape.org/namespaces/inkscape"
   version="1.0"
   width="24"
   height="24"
   id="svg3294"
   inkscape:version="0.48.0 r9654"
   sodipodi:docname="nm-adhoc.svg">
  <metadata
     id="metadata15">
    <rdf:RDF>
      <cc:Work
         rdf:about="">
        <dc:format>image/svg+xml</dc:format>
        <dc:type
           rdf:resource="http://purl.org/dc/dcmitype/StillImage" />
        <dc:title></dc:title>
      </cc:Work>
    </rdf:RDF>
  </metadata>
  <sodipodi:namedview
     pagecolor="#ffffff"
     bordercolor="#666666"
     borderopacity="1"
     objecttolerance="10"
     gridtolerance="10"
     guidetolerance="10"
     inkscape:pageopacity="0"
     inkscape:pageshadow="2"
     inkscape:window-width="1280"
     inkscape:window-height="753"
     id="namedview13"
     showgrid="false"
     inkscape:zoom="8.7263404"
     inkscape:cx="11"
     inkscape:cy="11"
     inkscape:window-x="0"
     inkscape:window-y="24"
     inkscape:window-maximized="1"
     inkscape:current-layer="svg3294"
     showborder="false" />
  <defs
     id="defs3296" />
  <path
     inkscape:connector-curvature="0"
     style="opacity:0.3;fill:none;stroke:#ffffff;stroke-width:1px;stroke-linecap:round;stroke-linejoin:miter;stroke-opacity:1"
     id="path3445-6"
     d="m 9.5026178,11.934554 c 0,0 0.4973822,-0.999999 2.4973822,-0.999999 2,0 2.497382,1.041884 2.497382,1.041884 M 8,10.442408 c 0,0 0.9817579,-1.5499926 4,-1.5078531 3.018242,0.04214 4,1.5078531 4,1.5078531 M 11.434555,13.5 c 0,0 -0.02094,-0.565445 0.565445,-0.565445 0.576517,0 0.481675,0.565445 0.481675,0.565445" />
  <path
     inkscape:connector-curvature="0"
     style="opacity:0.3;fill:#ffffff;fill-opacity:1;fill-rule:nonzero;stroke:none;stroke-width:1;marker:none;visibility:visible;display:inline;overflow:visible;enable-background:accumulate"
     d="M 5,5 C 4.446,5 4,5.4893865 4,6.09375 l 0,9.8125 C 4,16.510614 4.446,17 5,17 l 14,0 c 0.554,0 1,-0.489386 1,-1.09375 l 0,-9.8125 C 20,5.4893863 19.554,5 19,5 L 5,5 z m 1,2 12,0 0,8 -12,0 0,-8 z m 3,11 0,1 -2,0 0,2 10,0 0,-2 -2,0 0,-1 -6,0 z"
     id="rect2722-3" />
  <path
     style="fill:#3c3c3c;fill-opacity:1;fill-rule:nonzero;stroke:none;stroke-width:1;marker:none;visibility:visible;display:inline;overflow:visible;enable-background:accumulate"
     d="M 5,4 C 4.446,4 4,4.4893865 4,5.09375 l 0,9.8125 C 4,15.510614 4.446,16 5,16 l 14,0 c 0.554,0 1,-0.489386 1,-1.09375 l 0,-9.8125 C 20,4.4893863 19.554,4 19,4 L 5,4 z m 1,2 12,0 0,8 -12,0 0,-8 z m 3,11 0,1 -2,0 0,2 10,0 0,-2 -2,0 0,-1 -6,0 z"
     id="rect2722"
     inkscape:connector-curvature="0" />
  <path
     inkscape:connector-curvature="0"
     style="fill:none;stroke:#3c3c3c;stroke-width:1px;stroke-linecap:round;stroke-linejoin:miter;stroke-opacity:1"
     id="path3445"
     d="M 9.5026178,10.999999 C 9.5026178,10.999999 10,10 12,10 c 2,0 2.497382,1.041884 2.497382,1.041884 M 8,9.507853 c 0,0 0.9817579,-1.5499926 4,-1.5078531 3.018242,0.04214 4,1.5078531 4,1.5078531 m -4.565445,3.057592 C 11.434555,12.565445 11.413613,12 12,12 c 0.576517,0 0.481675,0.565445 0.481675,0.565445" />
</svg>
