<?xml version="1.0" encoding="UTF-8" standalone="no"?>
<!-- Created with Inkscape (http://www.inkscape.org/) -->

<svg
   xmlns:dc="http://purl.org/dc/elements/1.1/"
   xmlns:cc="http://creativecommons.org/ns#"
   xmlns:rdf="http://www.w3.org/1999/02/22-rdf-syntax-ns#"
   xmlns:svg="http://www.w3.org/2000/svg"
   xmlns="http://www.w3.org/2000/svg"
   xmlns:sodipodi="http://sodipodi.sourceforge.net/DTD/sodipodi-0.dtd"
   xmlns:inkscape="http://www.inkscape.org/namespaces/inkscape"
   version="1.0"
   width="24"
   height="24"
   id="svg2816"
   style="display:inline"
   inkscape:version="0.48.0 r9654"
   sodipodi:docname="user-idle-panel.svg">
  <metadata
     id="metadata10">
    <rdf:RDF>
      <cc:Work
         rdf:about="">
        <dc:format>image/svg+xml</dc:format>
        <dc:type
           rdf:resource="http://purl.org/dc/dcmitype/StillImage" />
        <dc:title></dc:title>
      </cc:Work>
    </rdf:RDF>
  </metadata>
  <sodipodi:namedview
     pagecolor="#ffffff"
     bordercolor="#666666"
     borderopacity="1"
     objecttolerance="10"
     gridtolerance="10"
     guidetolerance="10"
     inkscape:pageopacity="0"
     inkscape:pageshadow="2"
     inkscape:window-width="1280"
     inkscape:window-height="753"
     id="namedview8"
     showgrid="false"
     inkscape:zoom="12.340909"
     inkscape:cx="-1.3167587"
     inkscape:cy="11"
     inkscape:window-x="0"
     inkscape:window-y="24"
     inkscape:window-maximized="1"
     inkscape:current-layer="svg2816" />
  <defs
     id="defs2818" />
  <path
     inkscape:connector-curvature="0"
     d="m 13.262048,13.49928 -1.762048,0 0,-2.499999"
     id="path2817-1"
     style="opacity:0.3;fill:none;stroke:#ffffff;stroke-width:1px;stroke-linecap:round;stroke-linejoin:round;stroke-opacity:1;display:inline" />
  <path
     inkscape:connector-curvature="0"
     d="M 11.5,6 C 7.36,6 4.0000001,9.36 4,13.5 c 0,4.14 3.3600001,7.5 7.5,7.5 1.964788,0 3.756106,-0.76222 5.09375,-2 L 22,19 18.65625,15.65625 C 18.864192,14.968633 19,14.255184 19,13.5 19,9.36 15.64,6.0000001 11.5,6 z m 0,3 C 13.984,9 16,11.016 16,13.5 16,15.984 13.984,18 11.5,18 9.016,18 7,15.984 7,13.5 7,11.016 9.016,9 11.5,9 z"
     id="path2396-1"
     style="opacity:0.3;fill:#ffffff;fill-opacity:1;fill-rule:evenodd;stroke:none;stroke-width:1;marker:none;visibility:visible;display:inline;overflow:visible;enable-background:accumulate" />
  <path
     d="M 11.5,5 C 7.36,5 4.0000001,8.3599999 4,12.5 c 0,4.14 3.3600001,7.5 7.5,7.5 1.964788,0 3.756106,-0.76222 5.09375,-2 L 22,18 18.65625,14.65625 C 18.864192,13.968633 19,13.255184 19,12.5 19,8.36 15.64,5.0000001 11.5,5 z m 0,3 C 13.984,8 16,10.016 16,12.5 16,14.984 13.984,17 11.5,17 9.016,17 7,14.984 7,12.5 7,10.016 9.016,8 11.5,8 z"
     id="path2396"
     style="fill:#3c3c3c;fill-opacity:1;fill-rule:evenodd;stroke:none;stroke-width:1;marker:none;visibility:visible;display:inline;overflow:visible;enable-background:accumulate"
     inkscape:connector-curvature="0" />
  <path
     d="m 13.262048,12.49928 -1.762048,0 0,-2.499999"
     id="path2817"
     style="fill:none;stroke:#3c3c3c;stroke-width:1px;stroke-linecap:round;stroke-linejoin:round;stroke-opacity:1;display:inline"
     inkscape:connector-curvature="0" />
  <path
     d="M 15.75,12.49928 C 15.750399,14.846772 13.847491,16.75 11.499999,16.75 9.152508,16.75 7.249602,14.846772 7.25,12.49928 7.249602,10.151788 9.152508,8.248559 11.499999,8.248559 c 2.347492,0 4.2504,1.903229 4.250001,4.250721 z"
     id="path3208"
     style="opacity:0.3;fill:none;stroke:#ffffff;stroke-width:0.5;stroke-linecap:round;stroke-linejoin:miter;stroke-miterlimit:4;stroke-opacity:1;stroke-dasharray:none;stroke-dashoffset:0;marker:none;visibility:visible;display:inline;overflow:visible;enable-background:accumulate"
     inkscape:connector-curvature="0" />
</svg>
