<?xml version="1.0" encoding="UTF-8" standalone="no"?>
<!-- Created with Inkscape (http://www.inkscape.org/) -->
<svg
   xmlns:svg="http://www.w3.org/2000/svg"
   xmlns="http://www.w3.org/2000/svg"
   version="1.0"
   width="24"
   height="24"
   id="svg2816"
   style="display:inline">
  <defs
     id="defs2818" />
  <path
     d="M 11.5,4 C 6.8201419,4 3.0000001,7.8201419 3,12.5 C 3,17.179858 6.820142,21 11.5,21 C 13.536607,21 15.379002,20.198943 16.84375,19 L 22,19 C 22.412848,19.012088 22.778153,18.756048 22.9375,18.375 C 23.096848,17.993951 23.017301,17.566656 22.71875,17.28125 L 19.71875,14.28125 C 19.853483,13.705488 20,13.139671 20,12.5 C 20,7.8201419 16.179858,4.0000001 11.5,4 z M 16,14 L 7,14 L 7,12 L 16,12 L 16,14 z"
     id="path3162"
     style="opacity:0.6;fill:#eae3d0;fill-opacity:1;fill-rule:evenodd;stroke:none;stroke-width:1.69999993;stroke-linecap:round;stroke-linejoin:miter;marker:none;marker-start:none;marker-mid:none;marker-end:none;stroke-miterlimit:4;stroke-dasharray:none;stroke-dashoffset:0;stroke-opacity:1;visibility:visible;display:inline;overflow:visible;enable-background:accumulate" />
  <path
     d="M 11.5,5 C 7.36,5 4.0000001,8.3599999 4,12.5 C 4,16.64 7.3600001,20 11.5,20 C 13.464788,20 15.256106,19.23778 16.59375,18 L 22,18 L 18.65625,14.65625 C 18.864192,13.968633 19,13.255184 19,12.5 C 19,8.36 15.64,5.0000001 11.5,5 z M 16,14 L 7,14 L 7,12 L 16,12 L 16,14 z"
     id="path2396"
     style="fill:#3a3935;fill-opacity:1;fill-rule:evenodd;stroke:none;stroke-width:1;stroke-linecap:butt;stroke-linejoin:miter;marker:none;marker-start:none;marker-mid:none;marker-end:none;stroke-miterlimit:4;stroke-dasharray:none;stroke-dashoffset:0;stroke-opacity:1;visibility:visible;display:inline;overflow:visible;enable-background:accumulate" />
</svg>
