<?xml version="1.0" encoding="UTF-8" standalone="no"?>
<!-- Created with Inkscape (http://www.inkscape.org/) -->
<svg
   xmlns:dc="http://purl.org/dc/elements/1.1/"
   xmlns:cc="http://creativecommons.org/ns#"
   xmlns:rdf="http://www.w3.org/1999/02/22-rdf-syntax-ns#"
   xmlns:svg="http://www.w3.org/2000/svg"
   xmlns="http://www.w3.org/2000/svg"
   xmlns:xlink="http://www.w3.org/1999/xlink"
   xmlns:sodipodi="http://sodipodi.sourceforge.net/DTD/sodipodi-0.dtd"
   xmlns:inkscape="http://www.inkscape.org/namespaces/inkscape"
   version="1.0"
   width="24"
   height="24"
   id="svg3477"
   sodipodi:version="0.32"
   inkscape:version="0.46"
   sodipodi:docname="user-offline.svg"
   inkscape:output_extension="org.inkscape.output.svg.inkscape">
  <metadata
     id="metadata49">
    <rdf:RDF>
      <cc:Work
         rdf:about="">
        <dc:format>image/svg+xml</dc:format>
        <dc:type
           rdf:resource="http://purl.org/dc/dcmitype/StillImage" />
      </cc:Work>
    </rdf:RDF>
  </metadata>
  <sodipodi:namedview
     inkscape:window-height="781"
     inkscape:window-width="1440"
     inkscape:pageshadow="2"
     inkscape:pageopacity="0.0"
     guidetolerance="10.0"
     gridtolerance="10.0"
     objecttolerance="10.0"
     borderopacity="1.0"
     bordercolor="#666666"
     pagecolor="#ffffff"
     id="base"
     showgrid="false"
     inkscape:zoom="20.75"
     inkscape:cx="4.5301205"
     inkscape:cy="12"
     inkscape:window-x="0"
     inkscape:window-y="24"
     inkscape:current-layer="svg3477" />
  <defs
     id="defs3479">
    <linearGradient
       id="linearGradient2372-991">
      <stop
         id="stop3792"
         style="stop-color:#ffffff;stop-opacity:1"
         offset="0" />
      <stop
         id="stop3794"
         style="stop-color:#ffffff;stop-opacity:0.34482759"
         offset="1" />
    </linearGradient>
    <linearGradient
       x1="61.792175"
       y1="31.976439"
       x2="61.792175"
       y2="45.029675"
       id="linearGradient3315"
       xlink:href="#linearGradient2372-991"
       gradientUnits="userSpaceOnUse"
       gradientTransform="translate(-46.792175,-27.976439)" />
    <radialGradient
       cx="17.058823"
       cy="41.058823"
       r="5.7384715"
       fx="14.68769"
       fy="37.45607"
       id="radialGradient3318"
       xlink:href="#linearGradient2867-449-88-871-390-598-476-591-434-148-905-902-285-933"
       gradientUnits="userSpaceOnUse"
       gradientTransform="matrix(1.7075397,-0.2043855,-0.1841325,1.2847731,-9.3486575,-37.89206)" />
    <linearGradient
       x1="10"
       y1="19"
       x2="10"
       y2="4"
       id="linearGradient3320"
       xlink:href="#linearGradient3707-319-631-477-589-201-606"
       gradientUnits="userSpaceOnUse" />
    <linearGradient
       id="linearGradient2867-449-88-871-390-598-476-591-434-148-905-902-285-933">
      <stop
         id="stop4146"
         style="stop-color:#ffffff;stop-opacity:1"
         offset="0" />
      <stop
         id="stop4148"
         style="stop-color:#ffffff;stop-opacity:1"
         offset="0.26238" />
      <stop
         id="stop4150"
         style="stop-color:#cfd3d6;stop-opacity:1"
         offset="0.704952" />
      <stop
         id="stop4152"
         style="stop-color:#919dab;stop-opacity:1"
         offset="1" />
    </linearGradient>
    <linearGradient
       id="linearGradient3707-319-631-477-589-201-606">
      <stop
         id="stop4156"
         style="stop-color:#898989;stop-opacity:1"
         offset="0" />
      <stop
         id="stop4158"
         style="stop-color:#aaaaaa;stop-opacity:1"
         offset="0.5" />
      <stop
         id="stop4160"
         style="stop-color:#d2d2d2;stop-opacity:1"
         offset="1" />
    </linearGradient>
  </defs>
  <path
     d="M 12.5,4.5 C 10.052482,4.5 7.8216051,5.2503901 6.1875,6.5 C 4.5533949,7.7496099 3.4999999,9.5323991 3.5,11.5 C 3.5,11.995966 3.62463,12.455803 3.75,12.90625 L 0.6875,15.53125 C 0.52300537,15.661907 0.45991088,15.882769 0.53056524,16.080602 C 0.60121961,16.278434 0.78995247,16.409358 1,16.40625 L 6.25,16.5 C 7.878723,17.728471 10.075487,18.5 12.5,18.5 C 14.947518,18.5 17.178395,17.74961 18.8125,16.5 C 20.446605,15.25039 21.500001,13.467601 21.5,11.5 C 21.5,9.532399 20.446605,7.7496098 18.8125,6.5 C 17.178395,5.2503902 14.947518,4.4999999 12.5,4.5 z"
     id="path3453"
     style="fill:url(#radialGradient3318);fill-opacity:1;fill-rule:nonzero;stroke:url(#linearGradient3320);stroke-width:1;stroke-linecap:butt;stroke-linejoin:miter;marker:none;marker-start:none;marker-mid:none;marker-end:none;stroke-miterlimit:4;stroke-dasharray:none;stroke-dashoffset:0;stroke-opacity:1;visibility:visible;display:inline;overflow:visible;enable-background:accumulate" />
  <path
     d="M 12.5,5.5 C 10.260963,5.5 8.2521867,6.211563 6.8125,7.3125 C 5.376813,8.4103784 4.4999999,9.8970541 4.5,11.5 C 4.5,11.826349 4.5954439,12.213209 4.71875,12.65625 C 4.8229621,13.015945 4.7139309,13.403611 4.4375,13.65625 L 2.375,15.4375 L 6.25,15.5 C 6.4523203,15.503168 6.6487431,15.568642 6.8125,15.6875 C 8.2515405,16.791243 10.255462,17.5 12.5,17.5 C 14.739037,17.5 16.747813,16.788437 18.1875,15.6875 C 19.623187,14.589622 20.500001,13.102946 20.5,11.5 C 20.5,9.897054 19.623187,8.4103783 18.1875,7.3125 C 16.747813,6.2115631 14.739037,5.4999999 12.5,5.5 z"
     id="path3463"
     style="opacity:0.4;fill:none;fill-opacity:1;fill-rule:nonzero;stroke:url(#linearGradient3315);stroke-width:1;stroke-linecap:round;stroke-linejoin:round;marker:none;marker-start:none;marker-mid:none;marker-end:none;stroke-miterlimit:4;stroke-dasharray:none;stroke-dashoffset:0;stroke-opacity:1;visibility:visible;display:inline;overflow:visible;enable-background:accumulate" />
  <path
     d="M 10.302342,9 L 9.0334687,10.249919 L 11.240605,12.490524 L 9,14.697659 L 10.24992,15.966532 L 12.490523,13.759396 L 14.697659,16 L 15.966532,14.750082 L 13.759396,12.509478 L 16,10.302342 L 14.750082,9.0334687 L 12.509477,11.240604 L 10.302342,9 z"
     id="path3646"
     style="opacity:0.4;fill:#ffffff;fill-opacity:1;fill-rule:evenodd;stroke:none" />
  <path
     d="M 10.302342,8 L 9.0334687,9.2499192 L 11.240605,11.490524 L 9,13.697659 L 10.24992,14.966532 L 12.490523,12.759396 L 14.697659,15 L 15.966532,13.750082 L 13.759396,11.509478 L 16,9.3023416 L 14.750082,8.0334687 L 12.509477,10.240604 L 10.302342,8 z"
     id="path5116"
     style="fill:#787878;fill-opacity:1;fill-rule:evenodd;stroke:none" />
</svg>
