<?xml version="1.0" encoding="UTF-8" standalone="no"?>
<!-- Created with Inkscape (http://www.inkscape.org/) -->

<svg
   xmlns:dc="http://purl.org/dc/elements/1.1/"
   xmlns:cc="http://creativecommons.org/ns#"
   xmlns:rdf="http://www.w3.org/1999/02/22-rdf-syntax-ns#"
   xmlns:svg="http://www.w3.org/2000/svg"
   xmlns="http://www.w3.org/2000/svg"
   xmlns:sodipodi="http://sodipodi.sourceforge.net/DTD/sodipodi-0.dtd"
   xmlns:inkscape="http://www.inkscape.org/namespaces/inkscape"
   version="1.0"
   width="24"
   height="24"
   id="svg3181"
   inkscape:version="0.48.0 r9654"
   sodipodi:docname="weather-fog.svg">
  <metadata
     id="metadata8">
    <rdf:RDF>
      <cc:Work
         rdf:about="">
        <dc:format>image/svg+xml</dc:format>
        <dc:type
           rdf:resource="http://purl.org/dc/dcmitype/StillImage" />
        <dc:title></dc:title>
      </cc:Work>
    </rdf:RDF>
  </metadata>
  <sodipodi:namedview
     pagecolor="#ffffff"
     bordercolor="#666666"
     borderopacity="1"
     objecttolerance="10"
     gridtolerance="10"
     guidetolerance="10"
     inkscape:pageopacity="0"
     inkscape:pageshadow="2"
     inkscape:window-width="1280"
     inkscape:window-height="753"
     id="namedview6"
     showgrid="false"
     inkscape:zoom="4.6765472"
     inkscape:cx="-0.49140893"
     inkscape:cy="11.793814"
     inkscape:window-x="0"
     inkscape:window-y="24"
     inkscape:window-maximized="1"
     inkscape:current-layer="svg3181" />
  <defs
     id="defs3183" />
  <path
     inkscape:connector-curvature="0"
     d="m 6.5,17.000107 c 1.5,-1.499998 3.5,-1.499998 5.5,0 2.066895,1.550172 4,1.500002 5.5,2e-6 m -11,-4.000005 c 1.5,-1.499999 3.5,-1.499999 5.5,0 2.066895,1.550174 4,1.500004 5.5,10e-7 M 6.5,9.0001052 c 1.5,-1.5 3.5,-1.5 5.5,0 2.066895,1.5501708 4,1.4999998 5.5,0"
     id="path3645-5"
     style="opacity:0.3;fill:none;stroke:#ffffff;stroke-width:1.5;stroke-linecap:round;stroke-linejoin:miter;stroke-miterlimit:4;stroke-opacity:1;stroke-dasharray:none;stroke-dashoffset:0;marker:none;visibility:visible;display:inline;overflow:visible;enable-background:accumulate" />
  <path
     d="m 6.5,16.000107 c 1.5,-1.499998 3.5,-1.499998 5.5,0 2.066895,1.550172 4,1.500002 5.5,2e-6 m -11,-4.000005 c 1.5,-1.499999 3.5,-1.499999 5.5,0 2.066895,1.550174 4,1.500004 5.5,10e-7 M 6.5,8.0001042 c 1.5,-1.499999 3.5,-1.499999 5.5,10e-7 2.066895,1.550171 4,1.5 5.5,0"
     id="path3645"
     style="fill:none;stroke:#3c3c3c;stroke-width:1.5;stroke-linecap:round;stroke-linejoin:miter;stroke-miterlimit:4;stroke-opacity:1;stroke-dasharray:none;stroke-dashoffset:0;marker:none;visibility:visible;display:inline;overflow:visible;enable-background:accumulate"
     inkscape:connector-curvature="0" />
</svg>
