<?xml version="1.0" encoding="UTF-8" standalone="no"?>
<!-- Created with Inkscape (http://www.inkscape.org/) -->

<svg
   xmlns:dc="http://purl.org/dc/elements/1.1/"
   xmlns:cc="http://creativecommons.org/ns#"
   xmlns:rdf="http://www.w3.org/1999/02/22-rdf-syntax-ns#"
   xmlns:svg="http://www.w3.org/2000/svg"
   xmlns="http://www.w3.org/2000/svg"
   xmlns:sodipodi="http://sodipodi.sourceforge.net/DTD/sodipodi-0.dtd"
   xmlns:inkscape="http://www.inkscape.org/namespaces/inkscape"
   version="1.0"
   width="24"
   height="24"
   id="svg3187"
   inkscape:version="0.48.0 r9654"
   sodipodi:docname="weather-few-clouds.svg">
  <metadata
     id="metadata10">
    <rdf:RDF>
      <cc:Work
         rdf:about="">
        <dc:format>image/svg+xml</dc:format>
        <dc:type
           rdf:resource="http://purl.org/dc/dcmitype/StillImage" />
        <dc:title></dc:title>
      </cc:Work>
    </rdf:RDF>
  </metadata>
  <sodipodi:namedview
     pagecolor="#ffffff"
     bordercolor="#666666"
     borderopacity="1"
     objecttolerance="10"
     gridtolerance="10"
     guidetolerance="10"
     inkscape:pageopacity="0"
     inkscape:pageshadow="2"
     inkscape:window-width="1280"
     inkscape:window-height="753"
     id="namedview8"
     showgrid="false"
     inkscape:zoom="13.227273"
     inkscape:cx="-0.49140893"
     inkscape:cy="11.793814"
     inkscape:window-x="0"
     inkscape:window-y="24"
     inkscape:window-maximized="1"
     inkscape:current-layer="svg3187" />
  <defs
     id="defs3189" />
  <path
     inkscape:connector-curvature="0"
     d="m 16.9497,17.95 -0.565599,-0.565699 m 0.0707,-8.83882 L 16.9497,8.0505009 M 7.6159,8.616181 7.0503,8.0505009 M 5,13.000251 l 1,0 m 12,0 1,0 M 12,7.0002511 12,6.000251"
     id="path2496-2"
     style="opacity:0.3;fill:none;stroke:#ffffff;stroke-width:2;stroke-linecap:round;stroke-linejoin:miter;stroke-miterlimit:4;stroke-opacity:1;stroke-dasharray:none;stroke-dashoffset:0;marker:none;visibility:visible;display:inline;overflow:visible;enable-background:accumulate" />
  <path
     inkscape:connector-curvature="0"
     d="m 12,9 c -2.2091289,-10e-8 -4,1.790862 -4,4 0,0.286746 0.036407,0.5741 0.09375,0.84375 0.581045,-0.527537 1.3012488,-0.90625 2.15625,-0.90625 1.615109,0 2.924891,1.187134 3.1875,2.71875 0.30803,0.176257 0.5659,0.410943 0.8125,0.65625 0.0052,0.0052 0.02604,-0.0053 0.03125,0 C 15.333643,15.591924 16,14.371758 16,13 16,10.790861 14.209129,9 12,9 z m -1.75,5 c -0.8447283,0 -1.5684023,0.455366 -1.9531252,1.111607 -0.2166349,-0.154459 -0.493275,-0.254464 -0.7968749,-0.254464 -0.69,0 -1.2499999,0.48 -1.25,1.071428 0,0.132826 0.026505,0.257591 0.078125,0.375 C 5.5433711,16.60412 5,17.284584 5,18.071428 5,19.139857 6.0035,20 7.25,20 l 4.5,0 C 12.9965,20 14,19.139857 14,18.071428 14,17.22514 13.365635,16.510986 12.484374,16.25 c 0.002,-0.03661 0.01563,-0.07007 0.01563,-0.107143 C 12.500004,14.96 11.492004,14 10.250004,14 z"
     id="path2876-6-6-4-0-8"
     style="opacity:0.3;fill:#ffffff;fill-opacity:1;fill-rule:nonzero;stroke:none;stroke-width:11.49051189;marker:none;visibility:visible;display:inline;overflow:visible;enable-background:accumulate" />
  <path
     d="M 16.9497,16.949748 16.384101,16.384049 M 16.454801,7.5452288 16.9497,7.0502487 M 7.6159,7.6159288 7.0503,7.0502487 M 5,11.999999 l 1,0 m 12,0 1,0 M 12,5.9999989 12,4.9999988"
     id="path2496"
     style="fill:none;stroke:#3c3c3c;stroke-width:2;stroke-linecap:round;stroke-linejoin:miter;stroke-miterlimit:4;stroke-opacity:1;stroke-dasharray:none;stroke-dashoffset:0;marker:none;visibility:visible;display:inline;overflow:visible;enable-background:accumulate"
     inkscape:connector-curvature="0" />
  <path
     d="m 12,7.9999989 c -2.2091289,-10e-8 -4,1.7908611 -4,4.0000001 0,0.286746 0.036407,0.5741 0.09375,0.84375 0.581045,-0.527537 1.3012488,-0.90625 2.15625,-0.90625 1.615109,0 2.924891,1.187134 3.1875,2.71875 0.30803,0.176257 0.5659,0.410943 0.8125,0.65625 0.0052,0.0052 0.02604,-0.0053 0.03125,0 C 15.333643,14.591923 16,13.371757 16,11.999999 16,9.79086 14.209129,7.9999989 12,7.9999989 z m -1.75,5.0000001 c -0.8447283,0 -1.5684023,0.455366 -1.9531252,1.111607 -0.2166349,-0.154459 -0.493275,-0.254464 -0.7968749,-0.254464 -0.69,0 -1.2499999,0.48 -1.25,1.071428 0,0.132826 0.026505,0.257591 0.078125,0.375 C 5.5433711,15.604119 5,16.284583 5,17.071427 c 0,1.068429 1.0035,1.928572 2.25,1.928572 l 4.5,0 c 1.2465,0 2.25,-0.860143 2.25,-1.928572 0,-0.846288 -0.634365,-1.560442 -1.515626,-1.821428 0.002,-0.03661 0.01563,-0.07007 0.01563,-0.107143 0,-1.182857 -1.008,-2.142857 -2.25,-2.142857 z"
     id="path2876-6-6-4-0"
     style="fill:#3c3c3c;fill-opacity:1;fill-rule:nonzero;stroke:none;stroke-width:11.49051189;marker:none;visibility:visible;display:inline;overflow:visible;enable-background:accumulate"
     inkscape:connector-curvature="0" />
</svg>
