<?xml version="1.0" encoding="UTF-8" standalone="no"?>
<!-- Created with Inkscape (http://www.inkscape.org/) -->

<svg
   xmlns:dc="http://purl.org/dc/elements/1.1/"
   xmlns:cc="http://creativecommons.org/ns#"
   xmlns:rdf="http://www.w3.org/1999/02/22-rdf-syntax-ns#"
   xmlns:svg="http://www.w3.org/2000/svg"
   xmlns="http://www.w3.org/2000/svg"
   version="1.0"
   width="24"
   height="24"
   id="svg3187">
  <metadata
     id="metadata8">
    <rdf:RDF>
      <cc:Work
         rdf:about="">
        <dc:format>image/svg+xml</dc:format>
        <dc:type
           rdf:resource="http://purl.org/dc/dcmitype/StillImage" />
        <dc:title></dc:title>
      </cc:Work>
    </rdf:RDF>
  </metadata>
  <defs
     id="defs3189" />
  <path
     d="M 12,6 C 10.873696,6 9.9192139,6.5937616 9.40625,7.46875 9.1174033,7.2628041 8.74855,7.15625 8.34375,7.15625 c -0.9200001,1e-7 -1.6874999,0.6176786 -1.6875,1.40625 1e-7,0.1771006 0.056173,0.3434552 0.125,0.5 C 5.7349115,9.463232 5,10.388376 5,11.4375 c 0,1.3309 1.1786846,2.393857 2.6875,2.53125 0.3081974,-1.139343 1.4598135,-1.875001 2.65625,-1.875 0.272458,0 0.517929,0.148348 0.78125,0.21875 0.739399,-0.784372 1.701494,-1.375 2.875,-1.375 1.131647,0 2.146962,0.470581 2.875,1.21875 C 16.954138,11.925082 17,11.691191 17,11.4375 17,10.309116 16.143764,9.34798 14.96875,9 14.97136,8.9511852 15,8.8931797 15,8.84375 15,7.2666071 13.656,6 12,6 z m 2,6 c -1.126304,0 -2.091203,0.607154 -2.604167,1.482142 -0.288846,-0.205946 -0.6577,-0.339285 -1.0625,-0.339285 -0.9199996,0 -1.6666663,0.64 -1.6666664,1.428571 0,0.177101 0.03534,0.343454 0.1041667,0.499999 C 7.7244948,15.472159 7,16.379446 7,17.42857 7,18.853141 8.338,20 10,20 l 6,0 c 1.662,0 3,-1.146859 3,-2.57143 C 19,16.300186 18.15418,15.34798 16.979166,15 16.981776,14.951185 17,14.906572 17,14.857142 17,13.28 15.656,12 14,12 z"
     id="path2397-9"
     style="opacity:0.3;fill:#ffffff;fill-opacity:1;fill-rule:evenodd;stroke:none;stroke-width:4;marker:none;visibility:visible;display:inline;overflow:visible;enable-background:accumulate" />
  <path
     d="m 12,4.9999996 c -1.126304,0 -2.0807861,0.5937616 -2.59375,1.46875 -0.2888467,-0.2059459 -0.6577,-0.3125 -1.0625,-0.3125 -0.9200001,1e-7 -1.6874999,0.6176786 -1.6875,1.40625 1e-7,0.1771006 0.056173,0.3434552 0.125,0.5 C 5.7349115,8.4632317 5,9.388376 5,10.4375 c 0,1.3309 1.1786846,2.393857 2.6875,2.53125 0.3081974,-1.139343 1.4598135,-1.875001 2.65625,-1.875 0.272458,0 0.517929,0.148348 0.78125,0.21875 0.739399,-0.784373 1.701494,-1.375 2.875,-1.375 1.131647,0 2.146962,0.470581 2.875,1.21875 C 16.954138,10.925082 17,10.69119 17,10.4375 17,9.309116 16.143764,8.3479796 14.96875,7.9999996 14.97136,7.9511848 15,7.8931793 15,7.8437496 15,6.2666067 13.656,4.9999996 12,4.9999996 z M 14,11 c -1.126304,0 -2.091203,0.607154 -2.604167,1.482142 -0.288846,-0.205946 -0.6577,-0.339285 -1.0625,-0.339285 -0.9199996,0 -1.6666663,0.64 -1.6666664,1.428571 0,0.177101 0.03534,0.343454 0.1041667,0.499999 C 7.7244948,14.472159 7,15.379446 7,16.42857 7,17.853141 8.338,19 10,19 l 6,0 c 1.662,0 3,-1.146859 3,-2.57143 C 19,15.300186 18.15418,14.34798 16.979166,14 16.981776,13.951185 17,13.906572 17,13.857142 17,12.28 15.656,11 14,11 z"
     id="path2397"
     style="fill:#3c3c3c;fill-opacity:1;fill-rule:evenodd;stroke:none;stroke-width:4;marker:none;visibility:visible;display:inline;overflow:visible;enable-background:accumulate" />
</svg>
