<?xml version="1.0" encoding="UTF-8" standalone="no"?>
<!-- Created with Inkscape (http://www.inkscape.org/) -->
<svg
   xmlns:svg="http://www.w3.org/2000/svg"
   xmlns="http://www.w3.org/2000/svg"
   version="1.0"
   width="24"
   height="24"
   id="svg3187">
  <defs
     id="defs3189" />
  <path
     d="M 12.024667,4.5001409 C 10.877646,4.489121 9.8257265,5.1202565 9.2450131,5.9613081 C 8.2208995,5.3481852 6.716566,5.8835584 6.3343475,6.8822524 C 6.0219781,7.353904 6.5723366,7.975813 5.8238364,8.1619173 C 4.5425712,8.9854483 4.1195154,10.633302 4.8733701,11.857349 C 5.4776969,12.926543 6.8486774,13.580927 8.1997262,13.491938 C 10.246391,13.486315 12.293696,13.50333 14.33995,13.483174 C 16.036583,13.399807 17.489962,12.061095 17.497328,10.571845 C 17.554072,9.3887863 16.672934,8.2608823 15.44578,7.7971338 C 15.482745,6.2830862 14.22979,4.7341008 12.460978,4.5268568 C 12.316493,4.5090182 12.170577,4.5001334 12.024667,4.5001409 z M 14.024748,10.500141 C 12.877727,10.489122 11.825808,11.120257 11.245094,11.961309 C 10.220981,11.348186 8.7166471,11.883559 8.3344286,12.882253 C 8.0220592,13.353905 8.5724177,13.975814 7.8239175,14.161919 C 6.5426522,14.98545 6.1195964,16.633304 6.8734511,17.85735 C 7.477778,18.926544 8.8487585,19.580928 10.199807,19.491939 C 12.246472,19.486316 14.293777,19.503331 16.340031,19.483175 C 18.036664,19.399808 19.490043,18.061096 19.497409,16.571847 C 19.554153,15.388788 18.673015,14.260884 17.445861,13.797135 C 17.482826,12.283087 16.229871,10.734101 14.461059,10.526857 C 14.316574,10.509019 14.170658,10.500134 14.024748,10.500141 z"
     id="path2395"
     style="opacity:0.6;fill:none;fill-opacity:1;fill-rule:nonzero;stroke:#eae3d0;stroke-width:0.99999982;stroke-linecap:round;stroke-linejoin:miter;marker:none;marker-start:none;marker-mid:none;marker-end:none;stroke-miterlimit:4;stroke-dasharray:none;stroke-dashoffset:0;stroke-opacity:1;visibility:visible;display:inline;overflow:visible;enable-background:accumulate" />
  <path
     d="M 12,4.9999988 C 10.873696,4.9999988 9.9192139,5.5937604 9.40625,6.4687488 C 9.1174033,6.2628029 8.74855,6.1562488 8.34375,6.1562488 C 7.4237499,6.1562489 6.6562501,6.7739274 6.65625,7.5624988 C 6.6562501,7.7395994 6.7124231,7.905954 6.78125,8.0624988 C 5.7349115,8.4632309 5,9.3883748 5,10.437499 C 5,11.7684 6.1786846,12.831357 7.6875,12.968749 C 7.9956974,11.829406 9.1473135,11.093749 10.34375,11.093749 C 10.616207,11.093749 10.861679,11.242098 11.125,11.312499 C 11.864399,10.528126 12.826494,9.9374988 14,9.9374988 C 15.131647,9.9374988 16.146962,10.40808 16.875,11.156249 C 16.954138,10.925081 17,10.691189 17,10.437499 C 17,9.309115 16.143764,8.3479788 14.96875,7.9999988 C 14.97136,7.951184 15,7.8931785 15,7.8437488 C 15,6.2666059 13.656,4.9999988 12,4.9999988 z M 14,10.999999 C 12.873696,10.999999 11.908797,11.607154 11.395833,12.482142 C 11.106987,12.276196 10.738133,12.142856 10.333333,12.142856 C 9.4133334,12.142856 8.6666667,12.782856 8.6666666,13.571428 C 8.6666666,13.748528 8.7020064,13.914882 8.7708333,14.071427 C 7.7244948,14.472159 7,15.379446 7,16.42857 C 7,17.853141 8.338,19 10,19 L 16,19 C 17.662,19 19,17.853141 19,16.42857 C 19,15.300186 18.15418,14.34798 16.979166,14 C 16.981776,13.951185 17,13.906572 17,13.857142 C 17,12.279999 15.656,10.999999 14,10.999999 z"
     id="path2397"
     style="fill:#3a3935;fill-opacity:1;fill-rule:evenodd;stroke:none;stroke-width:4;stroke-linecap:butt;stroke-linejoin:miter;marker:none;marker-start:none;marker-mid:none;marker-end:none;stroke-miterlimit:4;stroke-dasharray:none;stroke-dashoffset:0;stroke-opacity:1;visibility:visible;display:inline;overflow:visible;enable-background:accumulate" />
</svg>
