<?xml version="1.0" encoding="UTF-8" standalone="no"?>
<!-- Created with Inkscape (http://www.inkscape.org/) -->
<svg
   xmlns:svg="http://www.w3.org/2000/svg"
   xmlns="http://www.w3.org/2000/svg"
   version="1.0"
   width="24"
   height="24"
   id="svg3187">
  <defs
     id="defs3189" />
  <path
     d="M 16.9497,16.949748 L 16.384101,16.384049"
     id="path2480"
     style="opacity:0.6;fill:none;stroke:#eae3d0;stroke-width:4;stroke-linecap:round;stroke-linejoin:miter;marker:none;stroke-miterlimit:4;stroke-dasharray:none;stroke-dashoffset:0;stroke-opacity:1;visibility:visible;display:inline;overflow:visible;enable-background:accumulate" />
  <path
     d="M 16.454801,7.5452293 L 16.9497,7.0502492"
     id="path2476"
     style="opacity:0.6;fill:none;stroke:#eae3d0;stroke-width:4;stroke-linecap:round;stroke-linejoin:miter;marker:none;stroke-miterlimit:4;stroke-dasharray:none;stroke-dashoffset:0;stroke-opacity:1;visibility:visible;display:inline;overflow:visible;enable-background:accumulate" />
  <path
     d="M 7.6159,7.6159293 L 7.0503,7.0502492"
     id="path2474"
     style="opacity:0.6;fill:none;stroke:#eae3d0;stroke-width:4;stroke-linecap:round;stroke-linejoin:miter;marker:none;stroke-miterlimit:4;stroke-dasharray:none;stroke-dashoffset:0;stroke-opacity:1;visibility:visible;display:inline;overflow:visible;enable-background:accumulate" />
  <path
     d="M 5,11.999999 L 6,11.999999"
     id="path2470"
     style="opacity:0.6;fill:none;stroke:#eae3d0;stroke-width:4;stroke-linecap:round;stroke-linejoin:miter;marker:none;stroke-miterlimit:4;stroke-dasharray:none;stroke-dashoffset:0;stroke-opacity:1;visibility:visible;display:inline;overflow:visible;enable-background:accumulate" />
  <path
     d="M 18,11.999999 L 19,11.999999"
     id="path2468"
     style="opacity:0.6;fill:none;stroke:#eae3d0;stroke-width:4;stroke-linecap:round;stroke-linejoin:miter;marker:none;stroke-miterlimit:4;stroke-dasharray:none;stroke-dashoffset:0;stroke-opacity:1;visibility:visible;display:inline;overflow:visible;enable-background:accumulate" />
  <path
     d="M 12,5.9999994 L 12,4.9999993"
     id="path3185"
     style="opacity:0.6;fill:none;stroke:#eae3d0;stroke-width:4;stroke-linecap:round;stroke-linejoin:miter;marker:none;stroke-miterlimit:4;stroke-dasharray:none;stroke-dashoffset:0;stroke-opacity:1;visibility:visible;display:inline;overflow:visible;enable-background:accumulate" />
  <path
     d="M 12,7.9999994 C 9.7908711,7.9999993 8,9.790861 8,11.999999 C 8,12.286745 8.0364069,12.574099 8.09375,12.843749 C 8.674795,12.316212 9.3949988,11.937499 10.25,11.937499 C 11.865109,11.937499 13.174891,13.124633 13.4375,14.656249 C 13.74553,14.832506 14.0034,15.067192 14.25,15.312499 C 14.255247,15.317718 14.276042,15.307248 14.28125,15.312499 C 15.333643,14.591923 16,13.371757 16,11.999999 C 16,9.7908608 14.209129,7.9999994 12,7.9999994 z"
     id="path2876-6-6-4-0"
     style="fill:#3a3935;fill-opacity:1;fill-rule:nonzero;stroke:none;stroke-width:11.49051189;stroke-linecap:round;stroke-linejoin:miter;marker:none;marker-start:none;marker-mid:none;marker-end:none;stroke-miterlimit:4;stroke-dasharray:none;stroke-dashoffset:0;stroke-opacity:1;visibility:visible;display:inline;overflow:visible;enable-background:accumulate" />
  <path
     d="M 16.9497,16.949748 L 16.384101,16.384049"
     id="path2496"
     style="fill:none;stroke:#3a3935;stroke-width:2;stroke-linecap:round;stroke-linejoin:miter;marker:none;stroke-miterlimit:4;stroke-dasharray:none;stroke-dashoffset:0;stroke-opacity:1;visibility:visible;display:inline;overflow:visible;enable-background:accumulate" />
  <path
     d="M 16.454801,7.5452293 L 16.9497,7.0502492"
     id="path2492"
     style="fill:none;stroke:#3a3935;stroke-width:2;stroke-linecap:round;stroke-linejoin:miter;marker:none;stroke-miterlimit:4;stroke-dasharray:none;stroke-dashoffset:0;stroke-opacity:1;visibility:visible;display:inline;overflow:visible;enable-background:accumulate" />
  <path
     d="M 7.6159,7.6159293 L 7.0503,7.0502492"
     id="path2490"
     style="fill:none;stroke:#3a3935;stroke-width:2;stroke-linecap:round;stroke-linejoin:miter;marker:none;stroke-miterlimit:4;stroke-dasharray:none;stroke-dashoffset:0;stroke-opacity:1;visibility:visible;display:inline;overflow:visible;enable-background:accumulate" />
  <path
     d="M 5,11.999999 L 6,11.999999"
     id="path2486"
     style="fill:none;stroke:#3a3935;stroke-width:2;stroke-linecap:round;stroke-linejoin:miter;marker:none;stroke-miterlimit:4;stroke-dasharray:none;stroke-dashoffset:0;stroke-opacity:1;visibility:visible;display:inline;overflow:visible;enable-background:accumulate" />
  <path
     d="M 18,11.999999 L 19,11.999999"
     id="path2484"
     style="fill:none;stroke:#3a3935;stroke-width:2;stroke-linecap:round;stroke-linejoin:miter;marker:none;stroke-miterlimit:4;stroke-dasharray:none;stroke-dashoffset:0;stroke-opacity:1;visibility:visible;display:inline;overflow:visible;enable-background:accumulate" />
  <path
     d="M 12,5.9999994 L 12,4.9999993"
     id="path2826"
     style="fill:none;stroke:#3a3935;stroke-width:2;stroke-linecap:round;stroke-linejoin:miter;marker:none;stroke-miterlimit:4;stroke-dasharray:none;stroke-dashoffset:0;stroke-opacity:1;visibility:visible;display:inline;overflow:visible;enable-background:accumulate" />
  <g
     transform="matrix(1.1250049,0,0,1.1250048,-1685.6335,-197.25094)"
     id="g3181"
     style="opacity:0.6;fill:none;fill-opacity:1;fill-rule:nonzero;stroke:#eae3d0;stroke-width:0.88888514;stroke-linecap:round;stroke-linejoin:miter;marker:none;marker-start:none;marker-mid:none;marker-end:none;stroke-miterlimit:4;stroke-dasharray:none;stroke-dashoffset:0;stroke-opacity:1;visibility:visible;display:inline;overflow:visible;enable-background:accumulate">
    <path
       d="M -2.8284264,179.43886 C -2.8284263,192.1309 -13.117357,202.41983 -25.809397,202.41983 C -38.501436,202.41983 -48.790367,192.1309 -48.790367,179.43886 C -48.790367,166.74682 -38.501436,156.45789 -25.809397,156.45789 C -13.117357,156.45789 -2.8284264,166.74682 -2.8284264,179.43886 L -2.8284264,179.43886 z"
       transform="matrix(0.1740563,0,0,-0.174057,1513.4933,217.23261)"
       id="path3183"
       style="fill:none;fill-opacity:1;fill-rule:nonzero;stroke:#eae3d0;stroke-width:5.10687256;stroke-linecap:round;stroke-linejoin:miter;marker:none;marker-start:none;marker-mid:none;marker-end:none;stroke-miterlimit:4;stroke-dasharray:none;stroke-dashoffset:0;stroke-opacity:1;visibility:visible;display:inline;overflow:visible;enable-background:accumulate" />
  </g>
  <path
     d="M 10.288241,12.50011 C 9.405912,12.491539 8.596738,12.982422 8.1500327,13.636573 C 7.362248,13.1597 6.2050613,13.576101 5.9110452,14.352863 C 5.6707596,14.719703 6.0941149,15.20341 5.518342,15.348158 C 4.5327472,15.988683 4.2073176,17.270347 4.7872094,18.222383 C 5.2520791,19.053977 6.306686,19.562943 7.3459609,19.49373 C 8.9203279,19.489356 10.495188,19.50259 12.069239,19.486913 C 13.37435,19.422072 14.492341,18.380851 14.498006,17.222546 C 14.541656,16.302389 13.863854,15.425131 12.919883,15.064438 C 12.948318,13.886845 11.9845,12.682079 10.623867,12.520889 C 10.512724,12.507015 10.40048,12.500104 10.288241,12.50011 z"
     id="path3203"
     style="opacity:0.6;fill:none;fill-opacity:1;fill-rule:nonzero;stroke:#eae3d0;stroke-width:0.99999976;stroke-linecap:round;stroke-linejoin:miter;marker:none;marker-start:none;marker-mid:none;marker-end:none;stroke-miterlimit:4;stroke-dasharray:none;stroke-dashoffset:0;stroke-opacity:1;visibility:visible;display:inline;overflow:visible;enable-background:accumulate" />
  <path
     d="M 10.249999,12.999999 C 9.4052717,12.999999 8.6815977,13.455365 8.2968748,14.111606 C 8.0802399,13.957147 7.8035998,13.857142 7.4999999,13.857142 C 6.8099999,13.857142 6.25,14.337142 6.2499999,14.92857 C 6.2499999,15.061396 6.2765047,15.186161 6.3281249,15.30357 C 5.5433711,15.604119 5,16.284583 5,17.071427 C 5,18.139856 6.0035,18.999999 7.25,18.999999 L 11.75,18.999999 C 12.9965,18.999999 14,18.139856 14,17.071427 C 14,16.225139 13.365635,15.510985 12.484374,15.249999 C 12.486332,15.213388 12.5,15.179929 12.5,15.142856 C 12.5,13.959999 11.492,12.999999 10.249999,12.999999 z"
     id="rect3193"
     style="fill:#3a3935;fill-opacity:1;fill-rule:evenodd;stroke:none;stroke-width:4;stroke-linecap:butt;stroke-linejoin:miter;marker:none;marker-start:none;marker-mid:none;marker-end:none;stroke-miterlimit:4;stroke-dasharray:none;stroke-dashoffset:0;stroke-opacity:1;visibility:visible;display:inline;overflow:visible;enable-background:accumulate" />
</svg>
