<?xml version="1.0" encoding="UTF-8" standalone="no"?>
<!-- Created with Inkscape (http://www.inkscape.org/) -->
<svg
   xmlns:svg="http://www.w3.org/2000/svg"
   xmlns="http://www.w3.org/2000/svg"
   version="1.0"
   width="24"
   height="24"
   id="svg3186">
  <defs
     id="defs3188" />
  <path
     d="M 12,5.9999996 C 10.449025,6.2603298 9.0385869,7.1823923 8.125,8.4687496 C 7.2115131,9.7551072 6.8347702,11.409877 7.09375,12.968749 C 7.1731793,13.446851 7.3080346,13.89936 7.5,14.343749 C 7.5431454,14.314878 7.5810403,14.277744 7.625,14.249999 C 7.6250001,13.523617 8.0250789,12.904435 8.53125,12.531249 C 9.0374211,12.158064 9.6750457,11.968749 10.34375,11.968749 C 10.63699,11.968749 10.881545,12.112634 11.15625,12.187499 C 11.468398,11.889795 11.83353,11.64186 12.21875,11.437499 C 12.058596,11.313484 11.92724,11.199137 11.84375,11.124999 C 10.665477,10.078437 13.551076,5.7396695 12,5.9999996 z"
     id="path2876-6-6-4"
     style="fill:#3a3935;fill-opacity:1;stroke:none;stroke-width:2;stroke-linecap:round;stroke-miterlimit:4;stroke-dasharray:none;stroke-dashoffset:0;stroke-opacity:1;display:inline" />
  <path
     d="M 11.896943,5.5121501 C 10.206831,5.7957946 8.6985879,6.8077715 7.7108105,8.1983963 C 6.7189147,9.5949725 6.3053163,11.380774 6.5861778,13.071122 C 6.8663082,14.757048 7.8194262,16.290192 9.2103208,17.287903 C 10.603587,18.287304 12.400091,18.694937 14.083729,18.412379 C 15.766503,18.129984 17.308065,17.155396 18.301102,15.757368 C 18.384583,15.639851 18.4574,15.511805 18.48854,15.351307 C 18.519681,15.190809 18.487005,15.000785 18.394821,14.851541 C 18.210452,14.553052 17.94194,14.49822 17.707546,14.44548 C 17.238757,14.34 16.658719,14.334017 16.051836,14.320538 C 15.444954,14.30706 14.832473,14.263462 14.396127,14.164361 C 14.177954,14.11481 14.012953,14.067875 13.92753,14.008184 C 13.842107,13.948494 13.84327,13.90894 13.833811,13.852007 L 13.802571,13.852007 C 13.808028,12.841145 13.504462,12.081308 13.115295,11.603057 C 12.707738,11.102206 12.232237,10.807766 12.178101,10.759701 C 12.085279,10.677266 12.013094,10.402649 12.084382,9.9163445 C 12.155671,9.4300402 12.331914,8.8201316 12.521739,8.2296318 C 12.711565,7.639132 12.915476,7.1012732 12.959096,6.6053898 C 12.980907,6.3574481 12.969066,6.0876231 12.771658,5.8245043 C 12.574249,5.5613855 12.188933,5.4631498 11.896943,5.5121501 z"
     id="path3184"
     style="opacity:0.6;fill:none;fill-opacity:1;fill-rule:nonzero;stroke:#eae3d0;stroke-width:1.00000012;stroke-linecap:round;stroke-linejoin:miter;marker:none;marker-start:none;marker-mid:none;marker-end:none;stroke-miterlimit:4;stroke-dasharray:none;stroke-dashoffset:0;stroke-opacity:1;visibility:visible;display:inline;overflow:visible;enable-background:accumulate" />
  <path
     d="M 14.024748,11.500126 C 12.877727,11.490331 11.825808,12.05134 11.245094,12.798941 C 10.220981,12.253943 8.7166471,12.72983 8.3344286,13.617558 C 8.0220592,14.036804 8.5724177,14.589612 7.8239175,14.755038 C 6.5426522,15.487066 6.1195964,16.951825 6.8734511,18.039866 C 7.477778,18.99026 8.8487585,19.571935 10.199807,19.492834 C 12.246472,19.487835 14.293777,19.50296 16.340031,19.485043 C 18.036664,19.410939 19.490043,18.220973 19.497409,16.897196 C 19.554153,15.845588 18.673015,14.843007 17.445861,14.430786 C 17.482826,13.084966 16.229871,11.70809 14.461059,11.523874 C 14.316574,11.508017 14.170658,11.500119 14.024748,11.500126 z"
     id="path3203"
     style="opacity:0.6;fill:none;fill-opacity:1;fill-rule:nonzero;stroke:#eae3d0;stroke-width:0.99999982;stroke-linecap:round;stroke-linejoin:miter;marker:none;marker-start:none;marker-mid:none;marker-end:none;stroke-miterlimit:4;stroke-dasharray:none;stroke-dashoffset:0;stroke-opacity:1;visibility:visible;display:inline;overflow:visible;enable-background:accumulate" />
  <path
     d="M 14,11.999999 C 12.873696,11.999999 11.908797,12.531259 11.395833,13.296874 C 11.106987,13.116672 10.738133,12.999999 10.333333,12.999999 C 9.4133334,12.999999 8.6666667,13.559999 8.6666666,14.249999 C 8.6666666,14.404962 8.7020064,14.550521 8.7708333,14.687498 C 7.7244948,15.038139 7,15.832014 7,16.749998 C 7,17.996498 8.338,18.999999 10,18.999999 L 16,18.999999 C 17.662,18.999999 19,17.996498 19,16.749998 C 19,15.762662 18.15418,14.929482 16.979166,14.624999 C 16.981776,14.582286 17,14.54325 17,14.499999 C 17,13.119999 15.656,11.999999 14,11.999999 z"
     id="rect3193"
     style="fill:#3a3935;fill-opacity:1;fill-rule:evenodd;stroke:none;stroke-width:4;stroke-linecap:butt;stroke-linejoin:miter;marker:none;marker-start:none;marker-mid:none;marker-end:none;stroke-miterlimit:4;stroke-dasharray:none;stroke-dashoffset:0;stroke-opacity:1;visibility:visible;display:inline;overflow:visible;enable-background:accumulate" />
</svg>
