<?xml version="1.0" encoding="UTF-8" standalone="no"?>
<!-- Created with Inkscape (http://www.inkscape.org/) -->
<svg
   xmlns:svg="http://www.w3.org/2000/svg"
   xmlns="http://www.w3.org/2000/svg"
   version="1.0"
   width="24"
   height="24"
   id="svg3187">
  <defs
     id="defs3189" />
  <path
     d="M 14.28121,6.0313724 C 14.078979,6.0669899 13.893103,6.165395 13.74996,6.3126224 L 6.7499597,13.312623 C 6.4794675,13.592727 6.4010403,14.006667 6.5503237,14.366304 C 6.699607,14.725942 7.0481194,14.962661 7.4374597,14.968873 L 9.8749597,14.968873 L 7.5624597,19.562623 C 7.260429,20.011354 7.3793533,20.619967 7.8280847,20.921998 C 8.2768161,21.224029 8.885429,21.105104 9.1874597,20.656373 L 16.18746,12.656373 C 16.444454,12.365978 16.505468,11.951115 16.342965,11.599024 C 16.180461,11.246933 15.825177,11.024209 15.43746,11.031373 L 13.87496,11.031373 L 15.34371,7.3751224 C 15.482267,7.0466146 15.430958,6.6687227 15.209823,6.389053 C 14.988689,6.1093834 14.632816,5.9723092 14.28121,6.0313724 z"
     id="path3532"
     style="opacity:0.6;fill:#eae3d0;fill-opacity:1;fill-rule:evenodd;stroke:none" />
  <path
     d="M 13.024667,4.5002644 C 11.877646,4.4892445 10.825727,5.1203799 10.245013,5.9614315 C 9.2208996,5.3483086 7.7165661,5.8836818 7.3343476,6.8823758 C 7.0219782,7.3540274 7.5723367,7.9759364 6.8238365,8.1620407 C 5.5425712,8.9855717 5.1195154,10.633426 5.8733701,11.857472 C 6.477697,12.926666 7.8486775,13.58105 9.1997263,13.492061 C 11.246391,13.486438 13.293696,13.503453 15.33995,13.483297 C 17.036583,13.39993 18.489962,12.061218 18.497328,10.571969 C 18.554072,9.3889097 17.672934,8.2610057 16.44578,7.7972572 C 16.482745,6.2832096 15.22979,4.7342243 13.460978,4.5269803 C 13.316493,4.5091417 13.170577,4.5002569 13.024667,4.5002644 z"
     id="path2395"
     style="opacity:0.6;fill:none;fill-opacity:1;fill-rule:nonzero;stroke:#eae3d0;stroke-width:0.99999982;stroke-linecap:round;stroke-linejoin:miter;marker:none;marker-start:none;marker-mid:none;marker-end:none;stroke-miterlimit:4;stroke-dasharray:none;stroke-dashoffset:0;stroke-opacity:1;visibility:visible;display:inline;overflow:visible;enable-background:accumulate" />
  <path
     d="M 12.99996,5.0001224 C 11.873656,5.0001224 10.919174,5.593884 10.40621,6.4688724 C 10.117363,6.2629263 9.7485097,6.1563724 9.3437097,6.1563724 C 8.4237099,6.1563723 7.6562098,6.774051 7.6562097,7.5626224 C 7.6562096,7.7397231 7.7123828,7.9060776 7.7812097,8.0626224 C 6.7348713,8.4633543 5.9999597,9.3884984 5.9999597,10.437622 C 5.9999597,11.37874 6.5892002,12.155503 7.4687097,12.593873 L 13.74996,6.3126224 C 13.893103,6.165395 14.078979,6.0669899 14.28121,6.0313724 C 14.632816,5.9723092 14.997576,6.0954528 15.21871,6.3751224 C 15.439844,6.6547921 15.482267,7.0466146 15.34371,7.3751224 L 13.87496,11.031373 L 15.43746,11.031373 C 15.825177,11.024209 16.181206,11.241782 16.34371,11.593873 C 16.506214,11.945964 16.444454,12.365978 16.18746,12.656373 L 16.03121,12.843873 C 17.17331,12.483377 17.99996,11.545855 17.99996,10.437622 C 17.99996,9.3092384 17.143724,8.3481024 15.96871,8.0001224 C 15.97132,7.9513076 15.99996,7.8933021 15.99996,7.8438724 C 15.99996,6.2667295 14.65596,5.0001224 12.99996,5.0001224 z"
     id="path2397"
     style="fill:#3a3935;fill-opacity:1;fill-rule:evenodd;stroke:none;stroke-width:4;stroke-linecap:butt;stroke-linejoin:miter;marker:none;marker-start:none;marker-mid:none;marker-end:none;stroke-miterlimit:4;stroke-dasharray:none;stroke-dashoffset:0;stroke-opacity:1;visibility:visible;display:inline;overflow:visible;enable-background:accumulate" />
  <path
     d="M 14.43746,7.0001224 L 7.4374597,14.000123 L 11.43746,14.000123 L 8.4374597,20.000123 L 15.43746,12.000123 L 12.43746,12.000123 L 14.43746,7.0001224 z"
     id="path3528"
     style="fill:#3a3935;fill-opacity:1;fill-rule:evenodd;stroke:none" />
</svg>
