<?xml version="1.0" encoding="UTF-8" standalone="no"?>
<!-- Created with Inkscape (http://www.inkscape.org/) -->

<svg
   xmlns:dc="http://purl.org/dc/elements/1.1/"
   xmlns:cc="http://creativecommons.org/ns#"
   xmlns:rdf="http://www.w3.org/1999/02/22-rdf-syntax-ns#"
   xmlns:svg="http://www.w3.org/2000/svg"
   xmlns="http://www.w3.org/2000/svg"
   version="1.1"
   width="24"
   height="24"
   id="svg3797">
  <defs
     id="defs3799" />
  <metadata
     id="metadata3802">
    <rdf:RDF>
      <cc:Work
         rdf:about="">
        <dc:format>image/svg+xml</dc:format>
        <dc:type
           rdf:resource="http://purl.org/dc/dcmitype/StillImage" />
        <dc:title></dc:title>
      </cc:Work>
    </rdf:RDF>
  </metadata>
  <g
     transform="translate(0,8)"
     id="layer1">
    <path
       d="M 11,-1.0000006 C 9.4490246,-0.7396704 8.0385869,0.1823921 7.125,1.4687494 6.2115131,2.755107 5.8347702,4.4098777 6.09375,5.9687497 c 0.079429,0.478102 0.2142846,0.930611 0.40625,1.375 0.043145,-0.02887 0.08104,-0.06601 0.125,-0.09375 1e-7,-0.726382 0.4000789,-1.345565 0.90625,-1.71875 0.5061711,-0.373185 1.1437957,-0.5625 1.8125,-0.5625 0.2932396,0 0.5377955,0.143885 0.8125,0.21875 0.312148,-0.297704 0.67728,-0.545639 1.0625,-0.75 -0.160154,-0.124016 -0.29151,-0.238362 -0.375,-0.3125 C 9.6654774,3.0784367 12.551076,-1.2603307 11,-1.0000006 z m 2,6.0000003 c -1.126304,0 -2.080786,0.515635 -2.59375,1.28125 -0.288846,-0.180203 -0.6577,-0.28125 -1.0625,-0.28125 -0.9199999,0 -1.6874999,0.56 -1.6875,1.25 0,0.154963 0.056173,0.300523 0.125,0.4375 C 6.7349115,8.038141 6,8.832016 6,9.75 6,10.9965 7.338,12 9,12 l 6,0 c 1.662,0 3,-1.0035 3,-2.25 C 18,8.762664 17.143764,7.9294827 15.96875,7.6249997 15.97136,7.5822867 16,7.5432507 16,7.4999997 c 0,-1.38 -1.344,-2.5 -3,-2.5 z"
       id="path2876-6-6-4-6"
       style="opacity:0.3;fill:#ffffff;fill-opacity:1;stroke:none;display:inline" />
    <path
       d="m 11,-2.0000003 c -1.5509754,0.2603302 -2.9614131,1.1823927 -3.875,2.46875 -0.9134869,1.2863576 -1.2902298,2.941128 -1.03125,4.5 0.079429,0.478102 0.2142846,0.930611 0.40625,1.375 0.043145,-0.02887 0.08104,-0.06601 0.125,-0.09375 1e-7,-0.726382 0.4000789,-1.345565 0.90625,-1.71875 0.5061711,-0.373185 1.1437957,-0.5625 1.8125,-0.5625 0.2932396,0 0.5377955,0.143885 0.8125,0.21875 0.312148,-0.297704 0.67728,-0.545639 1.0625,-0.75 -0.160154,-0.124016 -0.29151,-0.238362 -0.375,-0.3125 -1.1782726,-1.0465624 1.707326,-5.3853301 0.15625,-5.125 z m 2,6 c -1.126304,0 -2.080786,0.515635 -2.59375,1.28125 -0.288846,-0.180203 -0.6577,-0.28125 -1.0625,-0.28125 -0.9199999,0 -1.6874999,0.56 -1.6875,1.25 0,0.154963 0.056173,0.300523 0.125,0.4375 C 6.7349115,7.0381407 6,7.8320157 6,8.75 6,9.9965 7.338,11 9,11 l 6,0 C 16.662,11 18,9.9965 18,8.75 18,7.7626637 17.143764,6.9294827 15.96875,6.6249997 15.97136,6.5822867 16,6.5432507 16,6.4999997 c 0,-1.38 -1.344,-2.5 -3,-2.5 z"
       id="path2876-6-6-4"
       style="fill:#3c3c3c;fill-opacity:1;stroke:none;display:inline" />
  </g>
</svg>
