<?xml version="1.0" encoding="UTF-8" standalone="no"?>
<!-- Created with Inkscape (http://www.inkscape.org/) -->

<svg
   xmlns:dc="http://purl.org/dc/elements/1.1/"
   xmlns:cc="http://creativecommons.org/ns#"
   xmlns:rdf="http://www.w3.org/1999/02/22-rdf-syntax-ns#"
   xmlns:svg="http://www.w3.org/2000/svg"
   xmlns="http://www.w3.org/2000/svg"
   version="1.0"
   width="24"
   height="24"
   id="svg3187">
  <metadata
     id="metadata15">
    <rdf:RDF>
      <cc:Work
         rdf:about="">
        <dc:format>image/svg+xml</dc:format>
        <dc:type
           rdf:resource="http://purl.org/dc/dcmitype/StillImage" />
        <dc:title></dc:title>
      </cc:Work>
    </rdf:RDF>
  </metadata>
  <defs
     id="defs3189" />
  <path
     d="m 16,16.5 0.5,-1 m -4.5,1 0.5,-1 m -4.4999999,1 0.5,-1 M 14.5,19.5 15,18.5 m -4.5,1 0.5,-1 m -4.5,1 0.5,-1"
     id="path3370-0"
     style="opacity:0.3;fill:none;stroke:#ffffff;stroke-width:0.99999994px;stroke-linecap:round;stroke-linejoin:miter;stroke-opacity:1" />
  <path
     d="m 14,5.986 c -1.126304,0 -2.091203,0.6071544 -2.604167,1.4821428 -0.288846,-0.205946 -0.6577,-0.3392856 -1.0625,-0.3392856 -0.9199995,0 -1.6666662,0.64 -1.6666663,1.4285714 0,0.1771006 0.03534,0.3434536 0.1041667,0.4999984 -1.0463385,0.400732 -1.7708333,1.308019 -1.7708333,2.357143 0,1.424571 1.338,2.57143 2.9999999,2.57143 l 6,0 c 1.662,0 3,-1.146859 3,-2.57143 C 19,10.286186 18.15418,9.33398 16.979166,8.986 16.981776,8.9371852 17,8.8925726 17,8.8431429 17,7.266 15.656,5.986 14,5.986 z"
     id="path2397-3"
     style="opacity:0.3;fill:#ffffff;fill-opacity:1;fill-rule:evenodd;stroke:none;stroke-width:4;marker:none;visibility:visible;display:inline;overflow:visible;enable-background:accumulate" />
  <path
     d="m 14,4.9861283 c -1.126304,0 -2.091203,0.6071544 -2.604167,1.4821428 -0.288846,-0.205946 -0.6577,-0.3392856 -1.0625,-0.3392856 -0.9199995,0 -1.6666662,0.64 -1.6666663,1.4285714 0,0.1771006 0.03534,0.3434536 0.1041667,0.4999984 -1.0463385,0.400732 -1.7708333,1.3080187 -1.7708333,2.3571427 0,1.424571 1.338,2.57143 2.9999999,2.57143 l 6,0 c 1.662,0 3,-1.146859 3,-2.57143 C 19,9.286314 18.15418,8.3341083 16.979166,7.9861283 16.981776,7.9373135 17,7.8927009 17,7.8432712 17,6.2661283 15.656,4.9861283 14,4.9861283 z"
     id="path2397"
     style="fill:#3c3c3c;fill-opacity:1;fill-rule:evenodd;stroke:none;stroke-width:4;marker:none;visibility:visible;display:inline;overflow:visible;enable-background:accumulate" />
  <path
     d="m 16,15.5 0.5,-1 m -4.5,1 0.5,-1 m -4.4999999,1 0.5,-1 M 14.5,18.5 15,17.5 m -4.5,1 0.5,-1 m -4.5,1 0.5,-1"
     id="path3370"
     style="fill:none;stroke:#3c3c3c;stroke-width:0.99999994px;stroke-linecap:round;stroke-linejoin:miter;stroke-opacity:1" />
</svg>
