<?xml version="1.0" encoding="UTF-8" standalone="no"?>
<!-- Created with Inkscape (http://www.inkscape.org/) -->
<svg
   xmlns:svg="http://www.w3.org/2000/svg"
   xmlns="http://www.w3.org/2000/svg"
   version="1.0"
   width="24"
   height="24"
   id="svg3186">
  <defs
     id="defs3188" />
  <path
     d="M 12,5.9999994 C 10.449025,6.2603296 9.0385869,7.1823921 8.125,8.4687494 C 7.2417569,9.7125181 6.8529615,11.299487 7.0625,12.812499 C 7.2033131,12.786661 7.3537654,12.781249 7.5,12.781249 C 7.7115101,12.781249 7.8204114,12.887165 8,12.937499 C 8.5975807,12.363745 9.346862,11.937499 10.25,11.937499 C 11.865109,11.937499 13.174891,13.124633 13.4375,14.656249 C 14.328821,15.166268 15.0625,15.962152 15.0625,17.062499 C 15.0625,17.257553 15.037905,17.44286 15,17.624999 C 16.149381,17.210748 17.196317,16.468356 17.90625,15.468749 C 18.819937,14.182382 13.60273,15.496391 13.34375,13.937499 C 13.414827,11.973191 12.177711,11.421551 11.84375,11.124999 C 10.665477,10.078437 13.551076,5.7396693 12,5.9999994 z"
     id="path2876-6-6-4"
     style="fill:#3a3935;fill-opacity:1;stroke:none;stroke-width:2;stroke-linecap:round;stroke-miterlimit:4;stroke-dasharray:none;stroke-dashoffset:0;stroke-opacity:1;display:inline" />
  <path
     d="M 11.896943,5.5121499 C 10.206831,5.7957944 8.6985879,6.8077713 7.7108105,8.1983961 C 6.7189147,9.5949723 6.3053163,11.380774 6.5861778,13.071122 C 6.8663082,14.757048 7.8194262,16.290192 9.2103208,17.287903 C 10.603587,18.287304 12.400091,18.694937 14.083729,18.412379 C 15.766503,18.129984 17.308065,17.155396 18.301102,15.757368 C 18.384583,15.639851 18.4574,15.511805 18.48854,15.351307 C 18.519681,15.190809 18.487005,15.000785 18.394821,14.851541 C 18.210452,14.553052 17.94194,14.49822 17.707546,14.44548 C 17.238757,14.34 16.658719,14.334017 16.051836,14.320538 C 15.444954,14.30706 14.832473,14.263462 14.396127,14.164361 C 14.177954,14.11481 14.012953,14.067875 13.92753,14.008184 C 13.842107,13.948493 13.84327,13.90894 13.833811,13.852007 L 13.802571,13.852007 C 13.808028,12.841145 13.504462,12.081307 13.115295,11.603057 C 12.707739,11.102206 12.232237,10.807765 12.178102,10.759701 C 12.085279,10.677266 12.013094,10.402649 12.084382,9.9163443 C 12.155671,9.43004 12.331914,8.8201314 12.521739,8.2296316 C 12.711565,7.6391318 12.915476,7.101273 12.959096,6.6053896 C 12.980907,6.3574479 12.969066,6.0876229 12.771658,5.8245041 C 12.574249,5.5613853 12.188933,5.4631496 11.896943,5.5121499 z"
     id="path3184"
     style="opacity:0.6;fill:none;fill-opacity:1;fill-rule:nonzero;stroke:#eae3d0;stroke-width:1.00000012;stroke-linecap:round;stroke-linejoin:miter;marker:none;marker-start:none;marker-mid:none;marker-end:none;stroke-miterlimit:4;stroke-dasharray:none;stroke-dashoffset:0;stroke-opacity:1;visibility:visible;display:inline;overflow:visible;enable-background:accumulate" />
  <path
     d="M 10.288241,12.50011 C 9.405912,12.491539 8.596738,12.982422 8.1500327,13.636573 C 7.362248,13.1597 6.2050613,13.576101 5.9110452,14.352863 C 5.6707596,14.719703 6.0941149,15.20341 5.518342,15.348158 C 4.5327472,15.988683 4.2073176,17.270347 4.7872095,18.222383 C 5.2520791,19.053977 6.306686,19.562943 7.3459609,19.49373 C 8.9203279,19.489356 10.495188,19.50259 12.069239,19.486913 C 13.37435,19.422072 14.492341,18.380851 14.498006,17.222546 C 14.541656,16.302389 13.863854,15.425131 12.919883,15.064438 C 12.948318,13.886845 11.9845,12.682079 10.623867,12.520889 C 10.512724,12.507015 10.40048,12.500104 10.288241,12.50011 z"
     id="path3203"
     style="opacity:0.6;fill:none;fill-opacity:1;fill-rule:nonzero;stroke:#eae3d0;stroke-width:0.99999976;stroke-linecap:round;stroke-linejoin:miter;marker:none;marker-start:none;marker-mid:none;marker-end:none;stroke-miterlimit:4;stroke-dasharray:none;stroke-dashoffset:0;stroke-opacity:1;visibility:visible;display:inline;overflow:visible;enable-background:accumulate" />
  <path
     d="M 10.25,12.999999 C 9.4052717,12.999999 8.6815977,13.455365 8.2968748,14.111606 C 8.0802399,13.957147 7.8035998,13.857142 7.4999999,13.857142 C 6.8099999,13.857142 6.25,14.337142 6.2499999,14.92857 C 6.2499999,15.061396 6.2765047,15.186161 6.3281249,15.30357 C 5.5433711,15.604119 5,16.284583 5,17.071427 C 5,18.139856 6.0035,18.999999 7.25,18.999999 L 11.75,18.999999 C 12.9965,18.999999 14,18.139856 14,17.071427 C 14,16.225139 13.365635,15.510985 12.484374,15.249999 C 12.486332,15.213388 12.5,15.179929 12.5,15.142856 C 12.5,13.959999 11.492,12.999999 10.25,12.999999 z"
     id="rect3193"
     style="fill:#3a3935;fill-opacity:1;fill-rule:evenodd;stroke:none;stroke-width:4;stroke-linecap:butt;stroke-linejoin:miter;marker:none;marker-start:none;marker-mid:none;marker-end:none;stroke-miterlimit:4;stroke-dasharray:none;stroke-dashoffset:0;stroke-opacity:1;visibility:visible;display:inline;overflow:visible;enable-background:accumulate" />
</svg>
