<?xml version="1.0" encoding="UTF-8" standalone="no"?>
<!-- Created with Inkscape (http://www.inkscape.org/) -->

<svg
   xmlns:dc="http://purl.org/dc/elements/1.1/"
   xmlns:cc="http://creativecommons.org/ns#"
   xmlns:rdf="http://www.w3.org/1999/02/22-rdf-syntax-ns#"
   xmlns:svg="http://www.w3.org/2000/svg"
   xmlns="http://www.w3.org/2000/svg"
   version="1.0"
   width="24"
   height="24"
   id="svg3187">
  <metadata
     id="metadata8">
    <rdf:RDF>
      <cc:Work
         rdf:about="">
        <dc:format>image/svg+xml</dc:format>
        <dc:type
           rdf:resource="http://purl.org/dc/dcmitype/StillImage" />
        <dc:title></dc:title>
      </cc:Work>
    </rdf:RDF>
  </metadata>
  <defs
     id="defs3189" />
  <path
     d="m 13,6 c -1.126304,0 -2.080786,0.5937616 -2.59375,1.46875 -0.288847,-0.2059461 -0.6577,-0.3125 -1.0625,-0.3125 -0.9200001,-1e-7 -1.6874999,0.6176786 -1.6875,1.40625 1e-7,0.1771007 0.056173,0.3434552 0.125,0.5 C 6.7349113,9.463232 6,10.388376 6,11.4375 6,12.564587 6.8583589,13.494777 8.03125,13.84375 8.015394,13.72996 8,13.618157 8,13.5 8,12.119288 9.1192882,11 10.5,11 c 1.380712,0 2.5,1.119288 2.5,2.5 0,0.172589 -0.0292,0.337256 -0.0625,0.5 L 15,14 c 1.662,0 3,-1.137929 3,-2.5625 C 18,10.309116 17.143764,9.34798 15.96875,9 15.97135,8.951185 16,8.8931797 16,8.84375 16,7.2666071 14.656,6 13,6 z m -0.999999,10.5 c 0,0.828427 0.671573,1.5 1.499999,1.5 0.828429,0 1.500001,-0.671573 1.500001,-1.5 0,-0.828427 -0.671572,-1.5 -1.500001,-1.5 -0.828426,0 -1.499999,0.671573 -1.499999,1.5 l 0,0 z M 9,13.5 C 9,14.328427 9.6715729,15 10.5,15 11.328427,15 12,14.328427 12,13.5 12,12.671573 11.328427,12 10.5,12 9.6715729,12 9,12.671573 9,13.5 l 0,0 z m -1,5 C 8,19.328427 8.6715728,20 9.5,20 10.328427,20 11,19.328427 11,18.5 11,17.671573 10.328427,17 9.5,17 8.6715728,17 8,17.671573 8,18.5 l 0,0 z"
     id="path2397-5"
     style="opacity:0.3;fill:#ffffff;fill-opacity:1;fill-rule:evenodd;stroke:none;stroke-width:4;marker:none;visibility:visible;display:inline;overflow:visible;enable-background:accumulate" />
  <path
     d="m 13,5.0000001 c -1.126304,0 -2.080786,0.5937616 -2.59375,1.46875 -0.288847,-0.2059461 -0.6577,-0.3125 -1.0625,-0.3125 -0.9200001,-1e-7 -1.6874999,0.6176786 -1.6875,1.40625 1e-7,0.1771007 0.056173,0.3434552 0.125,0.5 C 6.7349113,8.463232 6,9.388376 6,10.4375 6,11.564587 6.8583589,12.494777 8.03125,12.84375 8.015394,12.72996 8,12.618157 8,12.5 8,11.119288 9.1192882,10 10.5,10 c 1.380712,0 2.5,1.119288 2.5,2.5 0,0.172589 -0.0292,0.337256 -0.0625,0.5 L 15,13 c 1.662,0 3,-1.137929 3,-2.5625 C 18,9.309116 17.143764,8.3479801 15.96875,8.0000001 15.97135,7.9511851 16,7.8931798 16,7.8437501 16,6.2666072 14.656,5.0000001 13,5.0000001 z M 12.000001,15.5 c 0,0.828427 0.671573,1.5 1.499999,1.5 0.828429,0 1.500001,-0.671573 1.500001,-1.5 0,-0.828427 -0.671572,-1.5 -1.500001,-1.5 -0.828426,0 -1.499999,0.671573 -1.499999,1.5 l 0,0 z M 9,12.5 C 9,13.328427 9.6715729,14 10.5,14 11.328427,14 12,13.328427 12,12.5 12,11.671573 11.328427,11 10.5,11 9.6715729,11 9,11.671573 9,12.5 l 0,0 z m -1,5 C 8,18.328427 8.6715728,19 9.5,19 10.328427,19 11,18.328427 11,17.5 11,16.671573 10.328427,16 9.5,16 8.6715728,16 8,16.671573 8,17.5 l 0,0 z"
     id="path2397"
     style="fill:#3c3c3c;fill-opacity:1;fill-rule:evenodd;stroke:none;stroke-width:4;marker:none;visibility:visible;display:inline;overflow:visible;enable-background:accumulate" />
</svg>
