<?xml version="1.0" encoding="UTF-8" standalone="no"?>
<!-- Created with Inkscape (http://www.inkscape.org/) -->

<svg
   xmlns:dc="http://purl.org/dc/elements/1.1/"
   xmlns:cc="http://creativecommons.org/ns#"
   xmlns:rdf="http://www.w3.org/1999/02/22-rdf-syntax-ns#"
   xmlns:svg="http://www.w3.org/2000/svg"
   xmlns="http://www.w3.org/2000/svg"
   version="1.0"
   width="24"
   height="24"
   id="svg3187">
  <metadata
     id="metadata10">
    <rdf:RDF>
      <cc:Work
         rdf:about="">
        <dc:format>image/svg+xml</dc:format>
        <dc:type
           rdf:resource="http://purl.org/dc/dcmitype/StillImage" />
        <dc:title></dc:title>
      </cc:Work>
    </rdf:RDF>
  </metadata>
  <defs
     id="defs3189" />
  <path
     d="m 13,6 c -1.126304,0 -2.080786,0.5937616 -2.59375,1.46875 -0.288846,-0.2059461 -0.6577,-0.3125 -1.0625,-0.3125 -0.9199998,-1e-7 -1.6874999,0.6176786 -1.6875,1.40625 -1e-7,0.1771007 0.056173,0.3434552 0.125,0.5 C 6.7349116,9.463232 6,10.388376 6,11.4375 c 0,0.941117 0.5892405,1.71788 1.46875,2.15625 L 13.75,7.3125 c 0.143143,-0.1472274 0.329019,-0.2456325 0.53125,-0.28125 0.351606,-0.059063 0.716366,0.06408 0.9375,0.34375 0.221134,0.2796697 0.263557,0.6714922 0.125,1 l -1.46875,3.65625 1.5625,0 c 0.387717,-0.0072 0.743746,0.210409 0.90625,0.5625 0.162504,0.352091 0.100744,0.772105 -0.15625,1.0625 l -0.15625,0.1875 C 17.17335,13.483254 18,12.545732 18,11.4375 18,10.309116 17.143764,9.34798 15.96875,9 15.97136,8.9511852 16,8.8931797 16,8.84375 16,7.2666071 14.656,6 13,6 z m 1.4375,2 -7,7 4,0 -3,6 7,-8 -3,0 2,-5 z"
     id="path2397-2"
     style="opacity:0.3;fill:#ffffff;fill-opacity:1;fill-rule:evenodd;stroke:none;stroke-width:4;marker:none;visibility:visible;display:inline;overflow:visible;enable-background:accumulate" />
  <path
     d="m 13,5 c -1.126304,0 -2.080786,0.5937616 -2.59375,1.46875 -0.288846,-0.2059461 -0.6577,-0.3125 -1.0625,-0.3125 -0.9199998,-1e-7 -1.6874999,0.6176786 -1.6875,1.40625 -1e-7,0.1771007 0.056173,0.3434552 0.125,0.5 C 6.7349116,8.4632319 6,9.388376 6,10.4375 c 0,0.941117 0.5892405,1.71788 1.46875,2.15625 L 13.75,6.3125 c 0.143143,-0.1472274 0.329019,-0.2456325 0.53125,-0.28125 0.351606,-0.059063 0.716366,0.06408 0.9375,0.34375 0.221134,0.2796697 0.263557,0.6714922 0.125,1 l -1.46875,3.65625 1.5625,0 c 0.387717,-0.0072 0.743746,0.210409 0.90625,0.5625 0.162504,0.352091 0.100744,0.772105 -0.15625,1.0625 l -0.15625,0.1875 C 17.17335,12.483254 18,11.545732 18,10.4375 18,9.309116 17.143764,8.34798 15.96875,8 15.97136,7.9511852 16,7.8931797 16,7.84375 16,6.2666071 14.656,5 13,5 z m 1.4375,2 -7,7 4,0 -3,6 7,-8 -3,0 2,-5 z"
     id="path2397"
     style="fill:#3c3c3c;fill-opacity:1;fill-rule:evenodd;stroke:none;stroke-width:4;marker:none;visibility:visible;display:inline;overflow:visible;enable-background:accumulate" />
</svg>
