<?xml version="1.0" encoding="UTF-8" standalone="no"?>
<!-- Created with Inkscape (http://www.inkscape.org/) -->
<svg
   xmlns:svg="http://www.w3.org/2000/svg"
   xmlns="http://www.w3.org/2000/svg"
   version="1.0"
   width="24"
   height="24"
   id="svg3181">
  <defs
     id="defs3183" />
  <g
     transform="translate(4.0000001,3.9999989)"
     id="layer1">
    <path
       d="M 2.4999999,12.000108 C 3.9999999,10.50011 5.9999999,10.50011 7.9999999,12.000108 C 10.066895,13.55028 12,13.50011 13.5,12.00011 M 2.4999999,8.0001055 C 3.9999999,6.500106 5.9999999,6.500106 7.9999999,8.0001055 C 10.066895,9.5502795 12,9.5001095 13.5,8.0001065 M 2.4999999,4.0001055 C 3.9999999,2.500106 5.9999999,2.500106 7.9999999,4.0001057 C 10.066895,5.5502769 12,5.500106 13.5,4.000106"
       id="path3179"
       style="opacity:0.6;fill:none;fill-opacity:1;fill-rule:nonzero;stroke:#eae3d0;stroke-width:3.5;stroke-linecap:round;stroke-linejoin:miter;marker:none;marker-start:none;marker-mid:none;marker-end:none;stroke-miterlimit:4;stroke-dasharray:none;stroke-dashoffset:0;stroke-opacity:1;visibility:visible;display:inline;overflow:visible;enable-background:accumulate" />
    <path
       d="M 2.4999999,12.000108 C 3.9999999,10.50011 5.9999999,10.50011 7.9999999,12.000108 C 10.066895,13.55028 12,13.50011 13.5,12.00011 M 2.4999999,8.0001055 C 3.9999999,6.500106 5.9999999,6.500106 7.9999999,8.0001055 C 10.066895,9.5502795 12,9.5001095 13.5,8.0001065 M 2.4999999,4.0001055 C 3.9999999,2.500106 5.9999999,2.500106 7.9999999,4.0001057 C 10.066895,5.5502769 12,5.500106 13.5,4.000106"
       id="path3645"
       style="opacity:1;fill:none;fill-opacity:1;fill-rule:nonzero;stroke:#3a3935;stroke-width:1.5;stroke-linecap:round;stroke-linejoin:miter;marker:none;marker-start:none;marker-mid:none;marker-end:none;stroke-miterlimit:4;stroke-dasharray:none;stroke-dashoffset:0;stroke-opacity:1;visibility:visible;display:inline;overflow:visible;enable-background:accumulate" />
  </g>
</svg>
