<?xml version="1.0" encoding="UTF-8" standalone="no"?>
<!-- Created with Inkscape (http://www.inkscape.org/) -->

<svg
   xmlns:dc="http://purl.org/dc/elements/1.1/"
   xmlns:cc="http://creativecommons.org/ns#"
   xmlns:rdf="http://www.w3.org/1999/02/22-rdf-syntax-ns#"
   xmlns:svg="http://www.w3.org/2000/svg"
   xmlns="http://www.w3.org/2000/svg"
   xmlns:sodipodi="http://sodipodi.sourceforge.net/DTD/sodipodi-0.dtd"
   xmlns:inkscape="http://www.inkscape.org/namespaces/inkscape"
   width="24"
   height="24"
   id="svg3856"
   version="1.1"
   inkscape:version="0.48.0 r9654"
   sodipodi:docname="xfpm-mouse-030.svg">
  <defs
     id="defs3858" />
  <sodipodi:namedview
     id="base"
     pagecolor="#ffffff"
     bordercolor="#666666"
     borderopacity="1.0"
     inkscape:pageopacity="0.0"
     inkscape:pageshadow="2"
     inkscape:zoom="12.340909"
     inkscape:cx="11"
     inkscape:cy="11"
     inkscape:current-layer="layer1"
     showgrid="true"
     inkscape:grid-bbox="true"
     inkscape:document-units="px"
     inkscape:window-width="1280"
     inkscape:window-height="749"
     inkscape:window-x="0"
     inkscape:window-y="24"
     inkscape:window-maximized="1" />
  <metadata
     id="metadata3861">
    <rdf:RDF>
      <cc:Work
         rdf:about="">
        <dc:format>image/svg+xml</dc:format>
        <dc:type
           rdf:resource="http://purl.org/dc/dcmitype/StillImage" />
        <dc:title></dc:title>
      </cc:Work>
    </rdf:RDF>
  </metadata>
  <g
     id="layer1"
     inkscape:label="Layer 1"
     inkscape:groupmode="layer"
     transform="translate(0,8)">
    <path
       inkscape:connector-curvature="0"
       d="M 10,6 C 9.446,6 9,6.446 9,7 l 0,2 c 0,1.108 1.338,2 3,2 l 1,0 c 1.662,0 3,-0.892 3,-2 L 16,7 C 16,6.446 15.554,6 15,6 l -5,0 z"
       id="path3324-2"
       style="opacity:0.3;fill:#ffffff;fill-opacity:1;fill-rule:evenodd;stroke:none;stroke-width:1.69999993;marker:none;visibility:visible;display:inline;overflow:visible;enable-background:accumulate" />
    <path
       inkscape:connector-curvature="0"
       d="m 11.5,-2.500001 2,0 c 2.216,0 4,1.338 4,3 L 17.5,9.5 c 0,1.662 -1.784,3 -4,3 l -2,0 c -2.2160001,0 -4,-1.338 -4,-3 l 0,-9.000001 c 0,-1.662 1.7839999,-3 4,-3 z m 1.041885,1e-6 0,4"
       id="rect2406-4"
       style="opacity:0.3;fill:none;stroke:#ffffff;stroke-width:1;stroke-linecap:round;stroke-linejoin:miter;stroke-miterlimit:4;stroke-opacity:1;stroke-dasharray:none;stroke-dashoffset:0;marker:none;visibility:visible;display:inline;overflow:visible;enable-background:accumulate" />
    <g
       id="g3195"
       style="opacity:0.3;fill:none;stroke:#3c3c3c;stroke-opacity:1"
       transform="translate(0,-8)">
      <path
         inkscape:connector-curvature="0"
         d="m 12.5,5.3333332 0,3.3333331"
         id="path3193"
         style="fill:none;stroke:#3c3c3c;stroke-width:2;stroke-linecap:round;stroke-linejoin:miter;stroke-miterlimit:4;stroke-opacity:1;stroke-dasharray:none;stroke-dashoffset:0;marker:none;visibility:visible;display:inline;overflow:visible;enable-background:accumulate" />
      <rect
         width="13.5"
         height="8.5"
         rx="2.3"
         ry="3.3000903"
         x="-18.75"
         y="8.25"
         transform="matrix(0,-1,1,0,0,0)"
         id="rect3236"
         style="fill:none;stroke:#3c3c3c;stroke-width:0.49999994;stroke-linecap:round;stroke-linejoin:miter;stroke-miterlimit:4;stroke-opacity:1;stroke-dasharray:none;stroke-dashoffset:0;marker:none;visibility:visible;display:inline;overflow:visible;enable-background:accumulate" />
    </g>
    <path
       inkscape:connector-curvature="0"
       d="m 11.5,-3.500001 2,0 c 2.216,0 4,1.338 4,3 L 17.5,8.5 c 0,1.662 -1.784,3 -4,3 l -2,0 c -2.2160001,0 -4,-1.338 -4,-3 l 0,-9.000001 c 0,-1.662 1.7839999,-3 4,-3 z m 1.041885,1e-6 0,4"
       id="rect2406"
       style="fill:none;stroke:#3c3c3c;stroke-width:1;stroke-linecap:round;stroke-linejoin:miter;stroke-miterlimit:4;stroke-opacity:1;stroke-dasharray:none;stroke-dashoffset:0;marker:none;visibility:visible;display:inline;overflow:visible;enable-background:accumulate" />
    <path
       inkscape:connector-curvature="0"
       d="M 10,6 C 9.446,6 9,6.446 9,7 l 0,1 c 0,1.108 1.338,2 3,2 l 1,0 c 1.662,0 3,-0.892 3,-2 L 16,7 C 16,6.446 15.554,6 15,6 z"
       id="path3324"
       style="fill:#3c3c3c;fill-opacity:1;fill-rule:evenodd;stroke:none;stroke-width:1.69999993;marker:none;visibility:visible;display:inline;overflow:visible;enable-background:accumulate"
       sodipodi:nodetypes="sssssssss" />
  </g>
</svg>
