<?xml version="1.0" encoding="UTF-8" standalone="no"?>
<!-- Created with Inkscape (http://www.inkscape.org/) -->
<svg
   xmlns:svg="http://www.w3.org/2000/svg"
   xmlns="http://www.w3.org/2000/svg"
   version="1.0"
   width="22"
   height="22"
   id="svg3459">
  <defs
     id="defs3461" />
  <rect
     width="11.5"
     height="7.5"
     rx="0.25"
     ry="0.25"
     x="5.25"
     y="5.2504568"
     id="rect3236"
     style="opacity:0.3;fill:none;fill-opacity:1;fill-rule:nonzero;stroke:#000000;stroke-width:0.5;stroke-linecap:round;stroke-linejoin:miter;marker:none;marker-start:none;marker-mid:none;marker-end:none;stroke-miterlimit:4;stroke-dasharray:none;stroke-dashoffset:0;stroke-opacity:1;visibility:visible;display:inline;overflow:visible;enable-background:accumulate" />
  <path
     d="M 3.9999998,3.0004567 C 3.4459999,3.0004567 2.9999998,3.4464567 2.9999998,4.0004567 L 2.9999998,14.000457 C 2.9999998,14.554457 3.4459997,15.000457 3.9999998,15.000457 L 18,15.000457 C 18.554,15.000457 19,14.554457 19,14.000457 L 19,4.0004567 C 19,3.4464567 18.554,3.0004567 18,3.0004567 L 3.9999998,3.0004567 z M 5.4999998,5.0004567 L 16.5,5.0004567 C 16.777,5.0004567 17,5.2234567 17,5.5004567 L 17,12.500457 C 17,12.777457 16.777,13.000457 16.5,13.000457 L 5.4999998,13.000457 C 5.2229998,13.000457 4.9999998,12.777457 4.9999998,12.500457 L 4.9999998,5.5004567 C 4.9999998,5.2234567 5.2229998,5.0004567 5.4999998,5.0004567 z M 8.9999998,16.000457 C 8.4459998,16.000457 7.9999998,16.446457 7.9999998,17.000457 L 6.9999998,17.000457 C 6.4459998,17.000457 5.9999998,17.446457 5.9999998,18.000457 C 5.9999998,18.554457 6.4459998,19.000457 6.9999998,19.000457 L 8.9999998,19.000457 L 13,19.000457 L 15,19.000457 C 15.554,19.000457 16,18.554457 16,18.000457 C 16,17.446457 15.554,17.000457 15,17.000457 L 14,17.000457 C 14,16.446457 13.554,16.000457 13,16.000457 L 8.9999998,16.000457 z"
     id="rect2419"
     style="fill:#3a3935;fill-opacity:1;fill-rule:evenodd;stroke:none;stroke-width:1.69999993;stroke-linecap:round;stroke-linejoin:miter;marker:none;marker-start:none;marker-mid:none;marker-end:none;stroke-miterlimit:4;stroke-dasharray:none;stroke-dashoffset:0;stroke-opacity:1;visibility:visible;display:inline;overflow:visible;enable-background:accumulate" />
  <path
     d="M 4,2.5004565 L 18,2.5004565 C 18.831,2.5004565 19.5,3.1694565 19.5,4.0004565 L 19.5,14.000456 C 19.5,14.831456 18.831,15.500456 18,15.500456 L 4,15.500456 C 3.169,15.500456 2.5,14.831456 2.5,14.000456 L 2.5,4.0004565 C 2.5,3.1694565 3.169,2.5004565 4,2.5004565 z M 8.9999998,15.500457 C 8.3996975,15.485084 7.7407115,16.010002 7.6092946,16.500457 C 7.0605893,16.510367 6.5622447,16.421636 6.1046086,16.799879 C 5.3806663,17.304289 5.2948772,18.456669 5.9411574,19.0593 C 6.3044587,19.455045 6.8558057,19.52925 7.3639998,19.500457 C 9.9349128,19.499151 12.505892,19.503072 15.076763,19.498491 C 15.988092,19.479324 16.710604,18.504311 16.452476,17.627201 C 16.281767,16.909578 15.591926,16.500457 14.489634,16.500457 C 14.497751,16.000457 13.318493,15.442061 12.896,15.500457 C 11.597333,15.500457 10.298667,15.500457 8.9999998,15.500457 z"
     id="rect2430"
     style="opacity:0.6;fill:none;fill-opacity:1;fill-rule:nonzero;stroke:#eae3d0;stroke-width:0.99999994;stroke-linecap:round;stroke-linejoin:miter;marker:none;marker-start:none;marker-mid:none;marker-end:none;stroke-miterlimit:4;stroke-dashoffset:0;stroke-opacity:1;visibility:visible;display:inline;overflow:visible;enable-background:accumulate" />
</svg>
