<?xml version="1.0" encoding="UTF-8" standalone="no"?>
<!-- Created with Inkscape (http://www.inkscape.org/) -->
<svg
   xmlns:svg="http://www.w3.org/2000/svg"
   xmlns="http://www.w3.org/2000/svg"
   version="1.0"
   width="22"
   height="22"
   id="svg3215">
  <defs
     id="defs3217" />
  <path
     d="M 7.5,3 C 6.669,3 6,3.669 6,4.5 L 6,17.5 C 6,18.331 6.669,19 7.5,19 L 15.5,19 C 16.331,19 17,18.331 17,17.5 L 17,4.5 C 17,3.669 16.331,3 15.5,3 L 7.5,3 z M 11.5,5 C 13.433374,5 15.000462,6.5671386 15,8.5 C 15.000462,10.432862 13.433374,12 11.5,12 C 9.566626,12 7.999538,10.432862 8,8.5 C 7.9995376,6.5671389 9.566626,5 11.5,5 z M 9,15 C 9.552428,15 10.000202,15.447775 10,16 C 10.000202,16.552225 9.552428,17 9,17 C 8.4475722,17 7.999798,16.552225 8,16 C 7.9997981,15.447775 8.4475726,15 9,15 z M 14,15 C 14.552428,15 15.000202,15.447775 15,16 C 15.000202,16.552225 14.552428,17 14,17 C 13.447572,17 12.999798,16.552225 13,16 C 12.999798,15.447775 13.447572,15 14,15 z"
     id="rect2406"
     style="fill:#3a3935;fill-opacity:1;fill-rule:evenodd;stroke:none;stroke-width:0.99999994;stroke-linecap:round;stroke-linejoin:miter;marker:none;marker-start:none;marker-mid:none;marker-end:none;stroke-miterlimit:4;stroke-dasharray:none;stroke-dashoffset:0;stroke-opacity:1;visibility:visible;display:inline;overflow:visible;enable-background:accumulate" />
  <rect
     width="12"
     height="17"
     rx="2"
     ry="2"
     x="5.5"
     y="2.5"
     id="rect3178"
     style="opacity:0.6;fill:none;fill-opacity:1;fill-rule:nonzero;stroke:#eae3d0;stroke-width:0.99999994;stroke-linecap:round;stroke-linejoin:miter;marker:none;marker-start:none;marker-mid:none;marker-end:none;stroke-miterlimit:4;stroke-dasharray:none;stroke-dashoffset:0;stroke-opacity:1;visibility:visible;display:inline;overflow:visible;enable-background:accumulate" />
  <path
     d="M 13,8.5 C 13,9.3284265 12.328427,10.000001 11.5,10.000001 C 10.671573,10.000001 10,9.3284265 10,8.5 C 10,7.6715729 10.671573,6.9999999 11.5,6.9999999 C 12.328427,6.9999999 13,7.6715729 13,8.5 z"
     id="path3194"
     style="opacity:1;fill:#3a3935;fill-opacity:1;fill-rule:evenodd;stroke:none;stroke-width:0.99999994;stroke-linecap:round;stroke-linejoin:miter;marker:none;marker-start:none;marker-mid:none;marker-end:none;stroke-miterlimit:4;stroke-dasharray:none;stroke-dashoffset:0;stroke-opacity:1;visibility:visible;display:inline;overflow:visible;enable-background:accumulate" />
  <path
     d="M 14.75,8.5000001 C 14.75,10.294925 13.294926,11.750001 11.5,11.750001 C 9.705075,11.750001 8.2500001,10.294925 8.2500001,8.5000001 C 8.2500001,6.7050746 9.705075,5.2499999 11.5,5.2499999 C 13.294926,5.2499999 14.75,6.7050746 14.75,8.5000001 L 14.75,8.5000001 z"
     id="path3201"
     style="opacity:0.3;fill:none;fill-opacity:1;fill-rule:evenodd;stroke:#000000;stroke-width:0.5;stroke-linecap:round;stroke-linejoin:miter;marker:none;marker-start:none;marker-mid:none;marker-end:none;stroke-miterlimit:4;stroke-dasharray:none;stroke-dashoffset:0;stroke-opacity:1;visibility:visible;display:inline;overflow:visible;enable-background:accumulate" />
  <path
     d="M 13.25,8.5000001 C 13.25,9.4664983 12.466499,10.25 11.5,10.25 C 10.533502,10.25 9.75,9.4664983 9.75,8.5000001 C 9.75,7.5335018 10.533502,6.75 11.5,6.75 C 12.466499,6.75 13.25,7.5335018 13.25,8.5000001 L 13.25,8.5000001 z"
     id="path3203"
     style="opacity:0.3;fill:none;fill-opacity:1;fill-rule:evenodd;stroke:#000000;stroke-width:0.49999997;stroke-linecap:round;stroke-linejoin:miter;marker:none;marker-start:none;marker-mid:none;marker-end:none;stroke-miterlimit:4;stroke-dasharray:none;stroke-dashoffset:0;stroke-opacity:1;visibility:visible;display:inline;overflow:visible;enable-background:accumulate" />
</svg>
