<?xml version="1.0" encoding="UTF-8" standalone="no"?>
<!-- Created with Inkscape (http://www.inkscape.org/) -->

<svg
   xmlns:dc="http://purl.org/dc/elements/1.1/"
   xmlns:cc="http://creativecommons.org/ns#"
   xmlns:rdf="http://www.w3.org/1999/02/22-rdf-syntax-ns#"
   xmlns:svg="http://www.w3.org/2000/svg"
   xmlns="http://www.w3.org/2000/svg"
   xmlns:sodipodi="http://sodipodi.sourceforge.net/DTD/sodipodi-0.dtd"
   xmlns:inkscape="http://www.inkscape.org/namespaces/inkscape"
   version="1.0"
   width="22"
   height="22"
   id="svg3215"
   inkscape:version="0.48.0 r9654"
   sodipodi:docname="rhythmbox-notplaying.svg">
  <metadata
     id="metadata12">
    <rdf:RDF>
      <cc:Work
         rdf:about="">
        <dc:format>image/svg+xml</dc:format>
        <dc:type
           rdf:resource="http://purl.org/dc/dcmitype/StillImage" />
        <dc:title></dc:title>
      </cc:Work>
    </rdf:RDF>
  </metadata>
  <sodipodi:namedview
     pagecolor="#ffffff"
     bordercolor="#666666"
     borderopacity="1"
     objecttolerance="10"
     gridtolerance="10"
     guidetolerance="10"
     inkscape:pageopacity="0"
     inkscape:pageshadow="2"
     inkscape:window-width="1280"
     inkscape:window-height="753"
     id="namedview10"
     showgrid="false"
     inkscape:zoom="13.227273"
     inkscape:cx="-0.49140893"
     inkscape:cy="11.793814"
     inkscape:window-x="0"
     inkscape:window-y="24"
     inkscape:window-maximized="1"
     inkscape:current-layer="svg3215" />
  <defs
     id="defs3217" />
  <g
     id="g3828"
     style="opacity:0.4">
    <path
       id="rect2406-8"
       d="M 7.5,4 C 6.669,4 6,4.669 6,5.5 l 0,13 C 6,19.331 6.669,20 7.5,20 l 8,0 c 0.831,0 1.5,-0.669 1.5,-1.5 l 0,-13 C 17,4.669 16.331,4 15.5,4 l -8,0 z m 4,2 C 13.433374,6 15.000462,7.5671386 15,9.5 15.000462,11.432862 13.433374,13 11.5,13 9.566626,13 7.999538,11.432862 8,9.5 7.9995376,7.5671389 9.566626,6 11.5,6 z m 0,2 C 10.671573,8 10,8.6715729 10,9.5 10,10.328427 10.671573,11 11.5,11 12.328427,11 13,10.328427 13,9.5 13,8.6715729 12.328427,8 11.5,8 z M 9,16 c 0.552428,0 1.000202,0.447775 1,1 2.02e-4,0.552225 -0.447572,1 -1,1 -0.5524278,0 -1.000202,-0.447775 -1,-1 -2.019e-4,-0.552225 0.4475726,-1 1,-1 z m 5,0 c 0.552428,0 1.000202,0.447775 1,1 2.02e-4,0.552225 -0.447572,1 -1,1 -0.552428,0 -1.000202,-0.447775 -1,-1 -2.02e-4,-0.552225 0.447572,-1 1,-1 z"
       style="fill:#ffffff;fill-opacity:1;fill-rule:evenodd;stroke:none;stroke-width:1.69999992999999994;marker:none;visibility:visible;display:inline;overflow:visible;enable-background:accumulate;opacity:0.29999999999999999"
       inkscape:connector-curvature="0" />
    <path
       id="rect2406"
       d="M 7.5 3 C 6.669 3 6 3.669 6 4.5 L 6 17.5 C 6 18.331 6.669 19 7.5 19 L 15.5 19 C 16.331 19 17 18.331 17 17.5 L 17 4.5 C 17 3.669 16.331 3 15.5 3 L 7.5 3 z M 11.5 5 C 13.433374 5 15.000462 6.5671386 15 8.5 C 15.000462 10.432862 13.433374 12 11.5 12 C 9.566626 12 7.999538 10.432862 8 8.5 C 7.9995376 6.5671389 9.566626 5 11.5 5 z M 11.5 7 C 10.671573 7 10 7.6715729 10 8.5 C 10 9.3284265 10.671573 10 11.5 10 C 12.328427 10 13 9.3284265 13 8.5 C 13 7.6715729 12.328427 7 11.5 7 z M 9 15 C 9.552428 15 10.000202 15.447775 10 16 C 10.000202 16.552225 9.552428 17 9 17 C 8.4475722 17 7.999798 16.552225 8 16 C 7.9997981 15.447775 8.4475726 15 9 15 z M 14 15 C 14.552428 15 15.000202 15.447775 15 16 C 15.000202 16.552225 14.552428 17 14 17 C 13.447572 17 12.999798 16.552225 13 16 C 12.999798 15.447775 13.447572 15 14 15 z "
       style="fill:#3c3c3c;fill-opacity:1;fill-rule:evenodd;stroke:none;stroke-width:1.69999992999999994;marker:none;visibility:visible;display:inline;overflow:visible;enable-background:accumulate" />
    <path
       d="m 14.75,8.5000001 c 0,1.7949249 -1.455074,3.2500009 -3.25,3.2500009 -1.7949254,0 -3.2499999,-1.455076 -3.2499999,-3.2500009 0,-1.7949255 1.4550745,-3.2500002 3.2499999,-3.2500002 1.794926,0 3.25,1.4550747 3.25,3.2500002 l 0,0 z"
       id="path3201"
       style="opacity:0.29999999999999999;fill:none;stroke:#ffffff;stroke-width:0.50000000000000000;stroke-linecap:round;stroke-linejoin:miter;stroke-miterlimit:4;stroke-opacity:1;stroke-dasharray:none;stroke-dashoffset:0;marker:none;visibility:visible;display:inline;overflow:visible;enable-background:accumulate"
       inkscape:connector-curvature="0" />
  </g>
</svg>
