<?xml version="1.0" encoding="UTF-8" standalone="no"?>
<!-- Created with Inkscape (http://www.inkscape.org/) -->
<svg
   xmlns:svg="http://www.w3.org/2000/svg"
   xmlns="http://www.w3.org/2000/svg"
   version="1.0"
   width="22"
   height="22"
   id="svg3191">
  <defs
     id="defs3193" />
  <g
     id="layer1">
    <path
       d="M 19.625,0.34375 C 19.104027,0.34375 18.581865,0.5431352 18.1875,0.9375 L 17.125,2 L 4,2 C 2.892,2 2,2.892 2,4 L 2,18 C 2,19.108 2.892,20 4,20 L 18,20 C 19.108,20 20,19.108 20,18 L 20,4.875 L 21.0625,3.8125 C 21.85123,3.0237704 21.85123,1.7262296 21.0625,0.9375 C 20.668136,0.5431352 20.145973,0.34375 19.625,0.34375 z"
       id="rect3228"
       style="opacity:0.6;fill:#eae3d0;fill-opacity:1;fill-rule:nonzero;stroke:none;stroke-width:3;stroke-linecap:round;stroke-linejoin:miter;marker:none;marker-start:none;marker-mid:none;marker-end:none;stroke-miterlimit:4;stroke-dasharray:none;stroke-dashoffset:0;stroke-opacity:1;visibility:visible;display:inline;overflow:visible;enable-background:accumulate" />
    <path
       d="M 3.03125,4.21875 C 3.0240713,4.2595875 3.0033956,4.3020006 3,4.34375 C 2.9848535,7.9456989 2.9999879,11.553921 3,15.15625 C 3.004375,11.507265 3.0232656,7.8676453 3.03125,4.21875 z M 19,4.8125 C 18.99997,8.4198911 18.983905,12.017989 18.96875,15.625 C 18.907909,16.51597 17.996037,17.117273 17.15625,17 C 12.885445,16.994871 8.6142329,16.986723 4.34375,16.96875 C 3.5648303,16.915469 3.0428972,16.237287 3,15.5 C 2.9999123,16.062211 3.0006746,16.625304 3,17.1875 C 2.8826064,18.028886 3.451861,18.939043 4.34375,19 C 8.6223656,19.017992 12.908562,18.994865 17.1875,19 C 18.028886,19.117394 18.939043,18.54814 19,17.65625 C 19.017992,13.377635 18.994865,9.091438 19,4.8125 z"
       id="rect3226"
       style="opacity:1;fill:#3a3935;fill-opacity:1;fill-rule:nonzero;stroke:none;stroke-width:3;stroke-linecap:round;stroke-linejoin:miter;marker:none;marker-start:none;marker-mid:none;marker-end:none;stroke-miterlimit:4;stroke-dasharray:none;stroke-dashoffset:0;stroke-opacity:1;visibility:visible;display:inline;overflow:visible;enable-background:accumulate" />
    <path
       d="M 4.5,3 C 3.7518446,2.987086 3.0918979,3.4873613 3.03125,4.09375 C 3.0132923,7.5665375 3.005125,11.026951 3,14.5 C 2.8828296,15.18292 3.453556,15.919275 4.34375,15.96875 C 8.6142329,15.983353 12.885445,15.995833 17.15625,16 C 17.996037,16.095285 18.907909,15.630164 18.96875,14.90625 C 18.984289,11.90135 18.9995,8.8802079 19,5.875 L 13.96875,10.90625 C 13.593756,11.281244 13.132192,11.415841 12.65625,11.4375 C 12.425598,11.626267 12.19715,11.809283 11.90625,11.90625 C 11.511756,12.037748 10.901176,12.088677 10.40625,11.59375 C 9.911323,11.098823 9.962252,10.488244 10.09375,10.09375 C 10.190716,9.80285 10.373734,9.574402 10.5625,9.34375 C 10.584159,8.8678078 10.718756,8.4062434 11.09375,8.03125 L 16.125,3 C 12.258274,2.9921484 8.3668545,3.0036828 4.5,3 z"
       id="path2397"
       style="opacity:1;fill:#3a3935;fill-opacity:1;fill-rule:nonzero;stroke:none;stroke-width:3;stroke-linecap:round;stroke-linejoin:miter;marker:none;marker-start:none;marker-mid:none;marker-end:none;stroke-miterlimit:4;stroke-dasharray:none;stroke-dashoffset:0;stroke-opacity:1;visibility:visible;display:inline;overflow:visible;enable-background:accumulate" />
    <path
       d="M 11.836221,8.7495661 C 11.57735,9.008438 11.509885,9.370071 11.593153,9.699741 L 11.482667,9.810227 C 11.09093,10.201964 10.933245,10.675018 11.129114,10.870887 C 11.324983,11.066756 11.798037,10.909071 12.189774,10.517334 L 12.30026,10.406848 C 12.62993,10.490116 12.991563,10.422651 13.250434,10.16378 L 20.321502,3.0927119 C 20.713239,2.7009747 20.713239,2.0702355 20.321502,1.6784983 C 19.929765,1.2867612 19.299026,1.2867612 18.907289,1.6784983 L 11.836221,8.7495661 z"
       id="rect2408"
       style="opacity:1;fill:#3a3935;fill-opacity:1;fill-rule:nonzero;stroke:none;stroke-width:3;stroke-linecap:round;stroke-linejoin:miter;marker:none;marker-start:none;marker-mid:none;marker-end:none;stroke-miterlimit:4;stroke-dasharray:none;stroke-dashoffset:0;stroke-opacity:1;visibility:visible;display:inline;overflow:visible;enable-background:accumulate" />
  </g>
</svg>
