<?xml version="1.0" encoding="UTF-8" standalone="no"?>
<!-- Created with Inkscape (http://www.inkscape.org/) -->

<svg
   xmlns:dc="http://purl.org/dc/elements/1.1/"
   xmlns:cc="http://creativecommons.org/ns#"
   xmlns:rdf="http://www.w3.org/1999/02/22-rdf-syntax-ns#"
   xmlns:svg="http://www.w3.org/2000/svg"
   xmlns="http://www.w3.org/2000/svg"
   xmlns:sodipodi="http://sodipodi.sourceforge.net/DTD/sodipodi-0.dtd"
   xmlns:inkscape="http://www.inkscape.org/namespaces/inkscape"
   version="1.0"
   width="24"
   height="24"
   id="svg3356"
   inkscape:version="0.48.0 r9654"
   sodipodi:docname="apport.svg">
  <metadata
     id="metadata8">
    <rdf:RDF>
      <cc:Work
         rdf:about="">
        <dc:format>image/svg+xml</dc:format>
        <dc:type
           rdf:resource="http://purl.org/dc/dcmitype/StillImage" />
        <dc:title></dc:title>
      </cc:Work>
    </rdf:RDF>
  </metadata>
  <sodipodi:namedview
     pagecolor="#ffffff"
     bordercolor="#666666"
     borderopacity="1"
     objecttolerance="10"
     gridtolerance="10"
     guidetolerance="10"
     inkscape:pageopacity="0"
     inkscape:pageshadow="2"
     inkscape:window-width="1280"
     inkscape:window-height="753"
     id="namedview6"
     showgrid="false"
     inkscape:zoom="13.227273"
     inkscape:cx="-0.49140893"
     inkscape:cy="11.793814"
     inkscape:window-x="0"
     inkscape:window-y="24"
     inkscape:window-maximized="1"
     inkscape:current-layer="svg3356" />
  <defs
     id="defs3358" />
  <path
     inkscape:connector-curvature="0"
     d="m 8.9071906,3.95273 c -0.3700053,0.011021 -0.6624412,0.3173824 -0.65625,0.6875 l 0.03125,3.375 -4.09375,-0.875 C 3.9007162,7.083873 3.6120771,7.227684 3.4696906,7.48398 3.3273041,7.7402757 3.3635849,8.0507092 3.5634406,8.26523 l 3.3125,3.28125 -3.09375,0.96875 c -0.3010764,0.07534 -0.5,0.34589 -0.5,0.65625 0,0.31036 0.1989236,0.580908 0.5,0.65625 l 2.6875,0.875 -3.34375,4.5 c -0.1620051,0.236216 -0.1684716,0.549601 0,0.78125 0.1684717,0.231649 0.4753603,0.331344 0.75,0.25 l 4.75,-1.71875 0.125,2.40625 c 0.00327,0.272492 0.1849525,0.522616 0.4375,0.625 0.2525476,0.102384 0.5266473,0.03704 0.71875,-0.15625 l 2.2500004,-2.09375 1.125,1.75 c 0.154976,0.249958 0.464678,0.38383 0.75,0.3125 0.285322,-0.07133 0.480884,-0.331519 0.5,-0.625 l 0.125,-1.5 4.34375,2.65625 c 0.255582,0.138117 0.568868,0.104473 0.78125,-0.09375 0.212381,-0.198223 0.276434,-0.516761 0.15625,-0.78125 l -2.15625,-4.125 1.53125,-0.03125 c 0.281306,-0.0024 0.527748,-0.173529 0.625,-0.4375 0.09725,-0.263971 0.02501,-0.565674 -0.1875,-0.75 l -1.375,-1.28125 2.34375,-1.5 c 0.223745,-0.140096 0.34607,-0.394407 0.3125,-0.65625 -0.03357,-0.261843 -0.2169,-0.483378 -0.46875,-0.5625 l -2.28125,-0.75 2.65625,-5.875 C 21.058625,4.7819907 20.994571,4.4634534 20.782191,4.26523 20.569808,4.0670066 20.256523,4.0333629 20.000941,4.17148 l -5.03125,2.6875 -0.40625,-1.375 c -0.07195,-0.2448159 -0.280302,-0.4225228 -0.53125,-0.46875 -0.250947,-0.046227 -0.501787,0.046892 -0.65625,0.25 L 12.282191,6.73398 9.3759406,4.14023 C 9.2497405,4.0195827 9.0817819,3.9523993 8.9071906,3.95273 z m 3.0937504,4.03125 c 0.554,-1e-7 1,0.446 1,1 l 0,5 c 0,0.554 -0.446,1 -1,1 -0.554,0 -1,-0.446 -1,-1 l 0,-5 c 0,-0.5540001 0.446,-1 1,-1 z m -0.5,8 0.5,0 0.5,0 c 0.277,0 0.5,0.223 0.5,0.5 l 0,0.5 0,0.5 c 0,0.277 -0.223,0.5 -0.5,0.5 l -0.5,0 -0.5,0 c -0.277,0 -0.5,-0.223 -0.5,-0.5 l 0,-0.5 0,-0.5 c 0,-0.277 0.223,-0.5 0.5,-0.5 z"
     id="path3186-7"
     style="opacity:0.3;fill:#000000;fill-opacity:1;fill-rule:evenodd;stroke:none;stroke-width:1.69999993;marker:none;visibility:visible;display:inline;overflow:visible;enable-background:accumulate" />
  <path
     d="m 8.9071906,2.95273 c -0.3700053,0.011021 -0.6624412,0.3173824 -0.65625,0.6875 l 0.03125,3.375 -4.09375,-0.875 C 3.9007162,6.083873 3.6120771,6.227684 3.4696906,6.48398 3.3273041,6.7402757 3.3635849,7.0507092 3.5634406,7.26523 l 3.3125,3.28125 -3.09375,0.96875 c -0.3010764,0.07534 -0.5,0.34589 -0.5,0.65625 0,0.31036 0.1989236,0.580908 0.5,0.65625 l 2.6875,0.875 -3.34375,4.5 c -0.1620051,0.236216 -0.1684716,0.549601 0,0.78125 0.1684717,0.231649 0.4753603,0.331344 0.75,0.25 l 4.75,-1.71875 0.125,2.40625 c 0.00327,0.272492 0.1849525,0.522616 0.4375,0.625 0.2525476,0.102384 0.5266473,0.03704 0.71875,-0.15625 l 2.2500004,-2.09375 1.125,1.75 c 0.154976,0.249958 0.464678,0.38383 0.75,0.3125 0.285322,-0.07133 0.480884,-0.331519 0.5,-0.625 l 0.125,-1.5 4.34375,2.65625 c 0.255582,0.138117 0.568868,0.104473 0.78125,-0.09375 0.212381,-0.198223 0.276434,-0.516761 0.15625,-0.78125 l -2.15625,-4.125 1.53125,-0.03125 c 0.281306,-0.0024 0.527748,-0.173529 0.625,-0.4375 0.09725,-0.263971 0.02501,-0.565674 -0.1875,-0.75 l -1.375,-1.28125 2.34375,-1.5 c 0.223745,-0.140096 0.34607,-0.394407 0.3125,-0.65625 -0.03357,-0.261843 -0.2169,-0.483378 -0.46875,-0.5625 L 18.282191,9.9214799 20.938441,4.04648 C 21.058625,3.7819907 20.994571,3.4634534 20.782191,3.26523 20.569808,3.0670066 20.256523,3.0333629 20.000941,3.17148 l -5.03125,2.6875 -0.40625,-1.375 c -0.07195,-0.2448159 -0.280302,-0.4225228 -0.53125,-0.46875 -0.250947,-0.046227 -0.501787,0.046892 -0.65625,0.25 L 12.282191,5.73398 9.3759406,3.14023 C 9.2497405,3.0195827 9.0817819,2.9523993 8.9071906,2.95273 z m 3.0937504,4.03125 c 0.554,-1e-7 1,0.446 1,1 l 0,5 c 0,0.554 -0.446,1 -1,1 -0.554,0 -1,-0.446 -1,-1 l 0,-5 c 0,-0.5540001 0.446,-1 1,-1 z m -0.5,8 0.5,0 0.5,0 c 0.277,0 0.5,0.223 0.5,0.5 l 0,0.5 0,0.5 c 0,0.277 -0.223,0.5 -0.5,0.5 l -0.5,0 -0.5,0 c -0.277,0 -0.5,-0.223 -0.5,-0.5 l 0,-0.5 0,-0.5 c 0,-0.277 0.223,-0.5 0.5,-0.5 z"
     id="path3186"
     style="fill:#df382c;fill-opacity:1;fill-rule:evenodd;stroke:none;stroke-width:1.69999993;marker:none;visibility:visible;display:inline;overflow:visible;enable-background:accumulate"
     inkscape:connector-curvature="0" />
</svg>
