<?xml version="1.0" encoding="UTF-8" standalone="no"?>
<!-- Created with Inkscape (http://www.inkscape.org/) -->
<svg
   xmlns:svg="http://www.w3.org/2000/svg"
   xmlns="http://www.w3.org/2000/svg"
   version="1.0"
   width="24"
   height="24"
   id="svg3857">
  <defs
     id="defs3859" />
  <g
     transform="translate(4.0001129,3.9999996)"
     id="layer1">
    <g
       id="g3853"
       style="opacity:0.6">
      <path
         d="M 7,-1 L 7,9 L 14.5,4 L 7,-1 z"
         id="path3849"
         style="opacity:1;fill:#3a3935;fill-opacity:1;fill-rule:evenodd;stroke:none;stroke-width:1px;stroke-linecap:butt;stroke-linejoin:miter;stroke-opacity:1" />
      <path
         d="M 12.99929,8.992707 C 13.04394,11.300654 11.27356,13.466265 9.00657,13.891065 C 6.82557,14.378735 4.42876,13.186855 3.49261,11.159794 C 2.4871,9.157307 3.0653,6.529623 4.81942,5.134924 C 5.70391,4.399756 6.84908,3.98794 7.9993,3.992707"
         id="path3847"
         style="opacity:1;fill:#666666;fill-opacity:0;fill-rule:nonzero;stroke:#3a3935;stroke-width:4;stroke-linecap:butt;stroke-linejoin:round;marker:none;marker-start:none;marker-mid:none;marker-end:none;stroke-miterlimit:4;stroke-dasharray:none;stroke-dashoffset:0;stroke-opacity:1;visibility:visible;display:inline;overflow:visible;enable-background:accumulate" />
    </g>
    <path
       d="M 12.99929,8.992707 C 13.04394,11.300654 11.27356,13.466265 9.00657,13.891065 C 6.82557,14.378735 4.42876,13.186855 3.49261,11.159794 C 2.4871,9.157307 3.0653,6.529623 4.81942,5.134924 C 5.70391,4.399756 6.84908,3.98794 7.9993,3.992707"
       id="path4197"
       style="opacity:1;fill:#666666;fill-opacity:0;fill-rule:nonzero;stroke:#dc0000;stroke-width:2;stroke-linecap:butt;stroke-linejoin:round;marker:none;marker-start:none;marker-mid:none;marker-end:none;stroke-miterlimit:4;stroke-dasharray:none;stroke-dashoffset:0;stroke-opacity:1;visibility:visible;display:inline;overflow:visible;enable-background:accumulate" />
    <path
       d="M 7.99212,0.999999 L 7.99212,6.999999 L 12.99212,3.999999 L 7.99212,0.999999 z"
       id="path4199"
       style="opacity:1;fill:#dc0000;fill-opacity:1;fill-rule:evenodd;stroke:none;stroke-width:1px;stroke-linecap:butt;stroke-linejoin:miter;stroke-opacity:1" />
  </g>
</svg>
