<?xml version="1.0" encoding="UTF-8" standalone="no"?>
<!-- Created with Inkscape (http://www.inkscape.org/) -->

<svg
   xmlns:dc="http://purl.org/dc/elements/1.1/"
   xmlns:cc="http://creativecommons.org/ns#"
   xmlns:rdf="http://www.w3.org/1999/02/22-rdf-syntax-ns#"
   xmlns:svg="http://www.w3.org/2000/svg"
   xmlns="http://www.w3.org/2000/svg"
   xmlns:xlink="http://www.w3.org/1999/xlink"
   xmlns:sodipodi="http://sodipodi.sourceforge.net/DTD/sodipodi-0.dtd"
   xmlns:inkscape="http://www.inkscape.org/namespaces/inkscape"
   width="90"
   height="90"
   id="svg3289"
   version="1.1"
   inkscape:version="0.48+devel r12221"
   sodipodi:docname="battery-000.svg">
  <defs
     id="defs3291">
    <linearGradient
       id="linearGradient3992">
      <stop
         style="stop-color:#b5b5b5;stop-opacity:1"
         offset="0"
         id="stop3994" />
      <stop
         style="stop-color:#dbdbdb;stop-opacity:1"
         offset="1"
         id="stop3996" />
    </linearGradient>
    <linearGradient
       id="linearGradient3992-5">
      <stop
         style="stop-color:#b5b5b5;stop-opacity:1"
         offset="0"
         id="stop3994-3" />
      <stop
         style="stop-color:#dbdbdb;stop-opacity:1"
         offset="1"
         id="stop3996-0" />
    </linearGradient>
    <linearGradient
       id="linearGradient3382">
      <stop
         style="stop-color:#b5b5b5;stop-opacity:1"
         offset="0"
         id="stop3384" />
      <stop
         style="stop-color:#dbdbdb;stop-opacity:1"
         offset="1"
         id="stop3386" />
    </linearGradient>
    <linearGradient
       id="linearGradient4091">
      <stop
         id="stop4093"
         offset="0"
         style="stop-color:#dbdbdb;stop-opacity:1;" />
      <stop
         id="stop4095"
         offset="1"
         style="stop-color:#b5b5b5;stop-opacity:1;" />
    </linearGradient>
    <linearGradient
       id="linearGradient3468">
      <stop
         id="stop3470"
         offset="0"
         style="stop-color:#dbdbdb;stop-opacity:1;" />
      <stop
         id="stop3472"
         offset="1"
         style="stop-color:#b5b5b5;stop-opacity:1;" />
    </linearGradient>
    <linearGradient
       inkscape:collect="always"
       xlink:href="#linearGradient3992-7"
       id="linearGradient4732"
       gradientUnits="userSpaceOnUse"
       gradientTransform="matrix(2,0,0,2,-392,-396.72437)"
       x1="208"
       y1="215.86218"
       x2="208"
       y2="204.86218" />
    <linearGradient
       id="linearGradient3992-7">
      <stop
         style="stop-color:#b5b5b5;stop-opacity:1"
         offset="0"
         id="stop3994-6" />
      <stop
         style="stop-color:#dbdbdb;stop-opacity:1"
         offset="1"
         id="stop3996-7" />
    </linearGradient>
    <linearGradient
       inkscape:collect="always"
       xlink:href="#linearGradient3775"
       id="linearGradient4158"
       gradientUnits="userSpaceOnUse"
       gradientTransform="matrix(2,0,0,1.9861112,-1983,-647.30555)"
       x1="1001.1268"
       y1="332"
       x2="1001.1268"
       y2="344" />
    <linearGradient
       id="linearGradient3992-54">
      <stop
         style="stop-color:#b5b5b5;stop-opacity:1"
         offset="0"
         id="stop3994-9" />
      <stop
         style="stop-color:#dbdbdb;stop-opacity:1"
         offset="1"
         id="stop3996-5" />
    </linearGradient>
    <linearGradient
       id="linearGradient3613">
      <stop
         style="stop-color:#b5b5b5;stop-opacity:1"
         offset="0"
         id="stop3615" />
      <stop
         style="stop-color:#dbdbdb;stop-opacity:1"
         offset="1"
         id="stop3617" />
    </linearGradient>
    <linearGradient
       inkscape:collect="always"
       xlink:href="#linearGradient3775"
       id="linearGradient3773"
       gradientUnits="userSpaceOnUse"
       gradientTransform="matrix(1,0,0,-1,799.5,596)"
       x1="76"
       y1="41"
       x2="76"
       y2="7" />
    <linearGradient
       id="linearGradient3775">
      <stop
         id="stop3777"
         offset="0"
         style="stop-color:#494949;stop-opacity:1" />
      <stop
         id="stop3779"
         offset="1"
         style="stop-color:#575757;stop-opacity:1" />
    </linearGradient>
    <linearGradient
       y2="7"
       x2="76"
       y1="41"
       x1="76"
       gradientTransform="matrix(0.5,0,0,-0.5,998.6795,340.48099)"
       gradientUnits="userSpaceOnUse"
       id="linearGradient3796"
       xlink:href="#linearGradient3775"
       inkscape:collect="always" />
    <clipPath
       clipPathUnits="userSpaceOnUse"
       id="clipPath3076">
      <rect
         style="opacity:0.5;color:#000000;fill:#ff00ff;fill-opacity:1;fill-rule:nonzero;stroke:none;stroke-width:6;marker:none;visibility:visible;display:inline;overflow:visible;enable-background:accumulate"
         id="rect3078"
         width="6.5"
         height="32.5"
         x="951.5"
         y="312" />
    </clipPath>
    <clipPath
       clipPathUnits="userSpaceOnUse"
       id="clipPath3973-1">
      <path
         inkscape:connector-curvature="0"
         style="opacity:0.6756757;color:#000000;fill:#ff00ff;fill-opacity:1;fill-rule:nonzero;stroke:none;stroke-width:6;marker:none;visibility:visible;display:inline;overflow:visible;enable-background:accumulate"
         d="m 984.4688,351.53125 c 0.021,0.44727 0.031,0.9286 0.031,1.46875 l 0,9 c 0,0.54015 -0.01,1.02147 -0.031,1.46875 0.392,-0.0184 0.7323,-0.0501 1.0312,-0.0937 l 0,-11.75 C 985.2011,351.58135 984.8608,351.54975 984.4688,351.53135 Z"
         id="path3975-3" />
    </clipPath>
    <clipPath
       clipPathUnits="userSpaceOnUse"
       id="clipPath3969-1">
      <path
         inkscape:connector-curvature="0"
         style="opacity:0.6756757;color:#000000;fill:#ff00ff;fill-opacity:1;fill-rule:nonzero;stroke:none;stroke-width:6;marker:none;visibility:visible;display:inline;overflow:visible;enable-background:accumulate"
         d="m 958.8594,349 c -5.3594,0.0547 -5.3594,0.5 -5.3594,4 l 0,9 c 0,4 0,4 8,4 l 13,0 c 8,0 8,0 8,-4 l 0,-9 c 0,-4 0,-4 -8,-4 l -13,0 C 960.5,349 959.625,348.992 958.8594,349 Z"
         id="path3971-5" />
    </clipPath>
  </defs>
  <sodipodi:namedview
     id="base"
     pagecolor="#000000"
     bordercolor="#666666"
     borderopacity="1.0"
     inkscape:pageopacity="1"
     inkscape:pageshadow="2"
     inkscape:zoom="4.7683716"
     inkscape:cx="54.082065"
     inkscape:cy="41.656096"
     inkscape:document-units="px"
     inkscape:current-layer="layer1"
     showgrid="true"
     inkscape:window-width="1920"
     inkscape:window-height="1029"
     inkscape:window-x="0"
     inkscape:window-y="24"
     inkscape:window-maximized="1"
     showguides="true"
     inkscape:guide-bbox="true"
     fit-margin-top="0"
     fit-margin-left="0"
     fit-margin-right="0"
     fit-margin-bottom="0">
    <inkscape:grid
       type="xygrid"
       id="grid3799"
       empspacing="8"
       visible="true"
       enabled="true"
       snapvisiblegridlinesonly="true"
       originx="0px"
       originy="0px" />
  </sodipodi:namedview>
  <metadata
     id="metadata3294">
    <rdf:RDF>
      <cc:Work
         rdf:about="">
        <dc:format>image/svg+xml</dc:format>
        <dc:type
           rdf:resource="http://purl.org/dc/dcmitype/StillImage" />
        <dc:title />
      </cc:Work>
    </rdf:RDF>
  </metadata>
  <g
     inkscape:label="Layer 1"
     inkscape:groupmode="layer"
     id="layer1"
     transform="translate(0,-962.3622)">
    <path
       style="opacity:0.25;fill:#df382c;fill-opacity:1;stroke:none;display:inline"
       clip-path="none"
       d="m 23.71875,990.3622 c -10.7188,0.1094 -10.71875,1 -10.71875,8 l 0,18 c 0,8 0,8 16,8 l 26,0 c 16,0 16,0 16,-8 l 0,-18 c 0,-8 0,-8 -16,-8 l -26,0 C 27,990.3622 25.24995,990.3462 23.71875,990.3622 Z"
       id="path3967"
       inkscape:connector-curvature="0" />
    <rect
       y="962.36218"
       x="-90"
       height="90"
       width="90"
       id="rect4403-3"
       style="fill:none;stroke:none;display:inline"
       transform="scale(-1,1)" />
    <path
       style="opacity:0.5;fill:#df382c;fill-opacity:1;stroke:none;display:inline"
       clip-path="none"
       d="m 74.9375,995.4247 c 0.042,0.8945 0.0625,1.8572 0.0625,2.9375 l 0,18 c 0,1.0803 -0.0205,2.0429 -0.0625,2.9375 0.660475,-0.031 1.254284,-0.091 1.78125,-0.1562 0.09864,-0.012 0.186988,-0.017 0.28125,-0.031 l 0,-23.5 c -0.08658,-0.013 -0.191134,-0.02 -0.28125,-0.031 C 76.191784,995.5153 75.597975,995.4557 74.9375,995.4247 Z"
       id="path3804"
       inkscape:connector-curvature="0" />
    <path
       style="fill:#df382c;fill-opacity:1;stroke:none;display:inline"
       clip-path="none"
       d="m 29,986.3622 c -18,0 -20,0 -20,12 l 0,18 c 0,12 2,12 20,12 l 26,0 c 18,0 20,0 20,-12 l 0,-18 c 0,-12 -2,-12 -20,-12 L 29,986.3622 z m -5.2812,4 c 1.5312,-0.016 3.2812,0 5.2812,0 l 26,0 c 16,0 16,0 16,8 l 0,18 c 0,8 0,8 -16,8 l -26,0 c -16,0 -16,0 -16,-8 l 0,-18 C 13,991.3622 13,990.47158 23.7188,990.3622 Z"
       id="path3810"
       inkscape:connector-curvature="0" />
    <path
       style="fill:#df382c;fill-opacity:1;stroke:none;display:inline"
       d="m 77,995.6122 0,23.5 c 3.431,-0.5014 4,-2.0079 4,-6.5938 l 0,-10.3125 C 81,997.62014 80.431,996.11362 77,995.6122 Z"
       id="path3820"
       inkscape:connector-curvature="0" />
  </g>
  <g
     inkscape:groupmode="layer"
     id="layer3"
     inkscape:label="Shapes"
     sodipodi:insensitive="true"
     style="display:none">
    <path
       sodipodi:nodetypes="csscsscsssssssss"
       transform="matrix(2,0,0,2,-1894,-670)"
       clip-path="url(#clipPath3969-1)"
       inkscape:connector-curvature="0"
       d="m 984.4688,351.53125 c 0.021,0.44727 0.031,0.9286 0.031,1.46875 l 0,9 c 0,0.54015 -0.01,1.02148 -0.031,1.46875 2.6419,-0.12411 3.0312,-0.69816 3.0312,-3.39063 l 0,-5.15625 C 987.5,352.22941 987.1107,351.65536 984.4688,351.53125 Z M 961.5,347 c -9,0 -10,0 -10,6 l 0,9 c 0,6 1,6 10,6 l 13,0 c 9,0 10,0 10,-6 l 0,-9 C 984.5,347 983.5,347 974.5,347 Z"
       style="opacity:0.25;fill:#df382c;fill-opacity:1;stroke:none;display:inline"
       id="path3967-1" />
    <path
       id="path3804-5"
       style="opacity:0.5;fill:#df382c;fill-opacity:1;stroke:none;display:inline"
       d="m 984.4688,351.53125 c 0.021,0.44727 0.031,0.9286 0.031,1.46875 l 0,9 c 0,0.54015 -0.01,1.02148 -0.031,1.46875 2.6419,-0.12411 3.0312,-0.69816 3.0312,-3.39063 l 0,-5.15625 C 987.5,352.22941 987.1107,351.65536 984.4688,351.53125 Z M 961.5,347 c -9,0 -10,0 -10,6 l 0,9 c 0,6 1,6 10,6 l 13,0 c 9,0 10,0 10,-6 l 0,-9 C 984.5,347 983.5,347 974.5,347 Z"
       inkscape:connector-curvature="0"
       clip-path="url(#clipPath3973-1)"
       transform="matrix(2,0,0,2,-1894,-670)"
       sodipodi:nodetypes="csscsscsssssssss" />
    <path
       style="fill:#df382c;fill-opacity:1;stroke:none;display:inline"
       clip-path="none"
       d="M 29,24 C 11,24 9,24 9,36 l 0,18 c 0,12 2,12 20,12 l 26,0 c 18,0 20,0 20,-12 L 75,36 C 75,24 73,24 55,24 L 29,24 z m -5.2812,4 C 25.25,27.984 27,28 29,28 l 26,0 c 16,0 16,0 16,8 l 0,18 c 0,8 0,8 -16,8 L 29,62 C 13,62 13,62 13,54 L 13,36 C 13,29 13,28.10938 23.7188,28 Z"
       id="path3810-6"
       inkscape:connector-curvature="0" />
    <path
       style="fill:#df382c;fill-opacity:1;stroke:none;display:inline"
       d="m 77,33.25 0,23.5 c 3.431,-0.50142 4,-2.00792 4,-6.59376 l 0,-10.3125 C 81,35.25794 80.431,33.75142 77,33.25 Z"
       id="path3820-8"
       inkscape:connector-curvature="0" />
  </g>
</svg>
