<?xml version="1.0" encoding="UTF-8" standalone="no"?>
<!-- Created with Inkscape (http://www.inkscape.org/) -->

<svg
   xmlns:dc="http://purl.org/dc/elements/1.1/"
   xmlns:cc="http://creativecommons.org/ns#"
   xmlns:rdf="http://www.w3.org/1999/02/22-rdf-syntax-ns#"
   xmlns:svg="http://www.w3.org/2000/svg"
   xmlns="http://www.w3.org/2000/svg"
   xmlns:xlink="http://www.w3.org/1999/xlink"
   xmlns:sodipodi="http://sodipodi.sourceforge.net/DTD/sodipodi-0.dtd"
   xmlns:inkscape="http://www.inkscape.org/namespaces/inkscape"
   width="48"
   height="48"
   id="svg3289"
   version="1.1"
   inkscape:version="0.48.3.1 r9886"
   sodipodi:docname="battery-caution@18.svg">
  <defs
     id="defs3291">
    <linearGradient
       id="linearGradient3992">
      <stop
         style="stop-color:#b5b5b5;stop-opacity:1"
         offset="0"
         id="stop3994" />
      <stop
         style="stop-color:#dbdbdb;stop-opacity:1"
         offset="1"
         id="stop3996" />
    </linearGradient>
    <linearGradient
       id="linearGradient3992-5">
      <stop
         style="stop-color:#b5b5b5;stop-opacity:1"
         offset="0"
         id="stop3994-3" />
      <stop
         style="stop-color:#dbdbdb;stop-opacity:1"
         offset="1"
         id="stop3996-0" />
    </linearGradient>
    <linearGradient
       id="linearGradient3382">
      <stop
         style="stop-color:#b5b5b5;stop-opacity:1"
         offset="0"
         id="stop3384" />
      <stop
         style="stop-color:#dbdbdb;stop-opacity:1"
         offset="1"
         id="stop3386" />
    </linearGradient>
    <linearGradient
       id="linearGradient4091">
      <stop
         id="stop4093"
         offset="0"
         style="stop-color:#dbdbdb;stop-opacity:1;" />
      <stop
         id="stop4095"
         offset="1"
         style="stop-color:#b5b5b5;stop-opacity:1;" />
    </linearGradient>
    <linearGradient
       id="linearGradient3468">
      <stop
         id="stop3470"
         offset="0"
         style="stop-color:#dbdbdb;stop-opacity:1;" />
      <stop
         id="stop3472"
         offset="1"
         style="stop-color:#b5b5b5;stop-opacity:1;" />
    </linearGradient>
    <linearGradient
       inkscape:collect="always"
       xlink:href="#linearGradient3992-7"
       id="linearGradient4732"
       gradientUnits="userSpaceOnUse"
       gradientTransform="matrix(2,0,0,2,-392,-396.72437)"
       x1="208"
       y1="215.86218"
       x2="208"
       y2="204.86218" />
    <linearGradient
       id="linearGradient3992-7">
      <stop
         style="stop-color:#b5b5b5;stop-opacity:1"
         offset="0"
         id="stop3994-6" />
      <stop
         style="stop-color:#dbdbdb;stop-opacity:1"
         offset="1"
         id="stop3996-7" />
    </linearGradient>
    <linearGradient
       inkscape:collect="always"
       xlink:href="#linearGradient3775"
       id="linearGradient4158"
       gradientUnits="userSpaceOnUse"
       gradientTransform="matrix(2,0,0,1.9861112,-1983,-647.30555)"
       x1="1001.1268"
       y1="332"
       x2="1001.1268"
       y2="344" />
    <linearGradient
       id="linearGradient3992-54">
      <stop
         style="stop-color:#b5b5b5;stop-opacity:1"
         offset="0"
         id="stop3994-9" />
      <stop
         style="stop-color:#dbdbdb;stop-opacity:1"
         offset="1"
         id="stop3996-5" />
    </linearGradient>
    <linearGradient
       id="linearGradient3613">
      <stop
         style="stop-color:#b5b5b5;stop-opacity:1"
         offset="0"
         id="stop3615" />
      <stop
         style="stop-color:#dbdbdb;stop-opacity:1"
         offset="1"
         id="stop3617" />
    </linearGradient>
    <linearGradient
       inkscape:collect="always"
       xlink:href="#linearGradient3775"
       id="linearGradient3773"
       gradientUnits="userSpaceOnUse"
       gradientTransform="matrix(1,0,0,-1,799.5,596)"
       x1="76"
       y1="41"
       x2="76"
       y2="7" />
    <linearGradient
       id="linearGradient3775">
      <stop
         id="stop3777"
         offset="0"
         style="stop-color:#494949;stop-opacity:1" />
      <stop
         id="stop3779"
         offset="1"
         style="stop-color:#575757;stop-opacity:1" />
    </linearGradient>
    <linearGradient
       y2="7"
       x2="76"
       y1="41"
       x1="76"
       gradientTransform="matrix(0.5,0,0,-0.5,998.6795,340.48099)"
       gradientUnits="userSpaceOnUse"
       id="linearGradient3796"
       xlink:href="#linearGradient3775"
       inkscape:collect="always" />
  </defs>
  <sodipodi:namedview
     id="base"
     pagecolor="#000000"
     bordercolor="#666666"
     borderopacity="1.0"
     inkscape:pageopacity="1"
     inkscape:pageshadow="2"
     inkscape:zoom="28.421709"
     inkscape:cx="24.793842"
     inkscape:cy="27.680663"
     inkscape:document-units="px"
     inkscape:current-layer="g4401"
     showgrid="true"
     inkscape:window-width="1920"
     inkscape:window-height="1029"
     inkscape:window-x="0"
     inkscape:window-y="24"
     inkscape:window-maximized="1">
    <inkscape:grid
       type="xygrid"
       id="grid3799"
       empspacing="8"
       visible="true"
       enabled="true"
       snapvisiblegridlinesonly="true" />
  </sodipodi:namedview>
  <metadata
     id="metadata3294">
    <rdf:RDF>
      <cc:Work
         rdf:about="">
        <dc:format>image/svg+xml</dc:format>
        <dc:type
           rdf:resource="http://purl.org/dc/dcmitype/StillImage" />
        <dc:title />
      </cc:Work>
    </rdf:RDF>
  </metadata>
  <g
     inkscape:label="Layer 1"
     inkscape:groupmode="layer"
     id="layer1"
     transform="translate(0,-1004.3622)">
    <g
       style="display:inline"
       transform="translate(-789,604.3622)"
       id="g4451">
      <g
         transform="matrix(2,0,0,2,-1195,-252)"
         id="g4401"
         style="display:inline">
        <path
           inkscape:connector-curvature="0"
           style="opacity:0.25;fill:#df382c;fill-opacity:1;stroke:none;display:inline"
           d="M 997.34375,333.5 C 996.00391,333.54785 996,333.9375 996,337 l 0,2 c 0,3.5 0,3.5 2,3.5 l 1.5,0 10,0 c 0.3087,0 0.545,-0.002 0.7656,-0.0156 0.1181,-0.007 0.2321,-0.0311 0.3281,-0.0469 0.019,-0.003 0.044,0.004 0.062,0 0.023,-0.005 0.04,-0.0106 0.062,-0.0156 0.096,-0.0237 0.1761,-0.0523 0.25,-0.0937 0.074,-0.0415 0.1336,-0.0919 0.1875,-0.15625 0.055,-0.0642 0.1027,-0.14247 0.1407,-0.23437 0.035,-0.0838 0.071,-0.18615 0.094,-0.29688 l 0,-0.0312 c 0.012,-0.06 0.021,-0.13631 0.031,-0.20312 0.01,-0.0713 0.024,-0.13762 0.031,-0.21875 9e-4,-0.0145 -8e-4,-0.0324 0,-0.0469 0.012,-0.22199 0.021,-0.44364 0.031,-0.71875 0.016,-0.38877 0.016,-0.82637 0.016,-1.3125 l 0,-0.10937 0,-2 0,-0.1875 c 0,-0.48493 0,-0.91308 -0.016,-1.29688 -0.01,-0.25786 -0.018,-0.46011 -0.031,-0.67187 -0.012,-0.14453 -0.027,-0.27519 -0.047,-0.39063 -0.01,-0.0324 -0.01,-0.0619 -0.016,-0.0937 -0.01,-0.0454 -0.02,-0.0843 -0.031,-0.125 -0.01,-0.027 -0.021,-0.053 -0.031,-0.0781 -0.049,-0.15142 -0.1042,-0.27006 -0.1875,-0.35938 -0.01,-0.006 -0.01,-0.0103 -0.016,-0.0156 -0.01,-0.0106 -0.02,-0.0213 -0.031,-0.0312 -0.01,-0.008 -0.022,-0.009 -0.031,-0.0156 -0.03,-0.0213 -0.06,-0.0439 -0.094,-0.0625 -0.038,-0.0214 -0.082,-0.0461 -0.125,-0.0625 -0.059,-0.0214 -0.1171,-0.0332 -0.1875,-0.0469 -0.1406,-0.0274 -0.3085,-0.0557 -0.5,-0.0625 -0.1914,-0.007 -0.4062,0 -0.6562,0 l -10,0 -1.5,0 c -0.25,0 -0.46484,-0.007 -0.65625,0 z m 15.10935,1.5 c 8e-4,0.0107 -7e-4,0.0204 0,0.0312 0.023,0.32381 0.037,0.67459 0.047,1.07812 0.01,0.41921 0,0.87657 0,1.39063 l 0,1 c 0,0.5 0.01,0.94922 0,1.35937 -10e-5,0.009 10e-5,0.0222 0,0.0312 -0.01,0.39628 -0.024,0.75923 -0.047,1.07813 -6e-4,0.009 7e-4,0.0222 0,0.0312 0.182,-0.003 0.365,-0.0106 0.5469,-0.0156 l 0,-5.96875 c -0.1819,-0.005 -0.3649,-0.0126 -0.5469,-0.0156 z"
           id="path4405-0" />
        <path
           style="fill:#df382c;fill-opacity:1;stroke:none;display:inline"
           d="m 998,332.5 c -3,0 -3,1 -3,5 l 0,1 c 0,4 0,5 3,5 l 11.5,0 c 3,0 3,-1 3,-5 l 0,-1 c 0,-4 0,-5 -3,-5 z m -0.65625,1 c 0.19141,-0.007 0.40625,0 0.65625,0 l 11.5,0 c 2,0 2,0 2,3.5 l 0,2 c 0,3.5 0,3.5 -2,3.5 l -11.5,0 c -2,0 -2,0 -2,-3.5 l 0,-2 c 0,-3.0625 0.004,-3.45215 1.34375,-3.5 z"
           id="path4394"
           inkscape:connector-curvature="0"
           sodipodi:nodetypes="cssccssccsccssccsss" />
        <path
           inkscape:connector-curvature="0"
           style="opacity:0.5;color:#000000;fill:#df382c;fill-opacity:1;fill-rule:nonzero;stroke:none;stroke-width:2;marker:none;visibility:visible;display:inline;overflow:visible;enable-background:accumulate"
           d="M 1013.1562,335.01562 C 1013.7187,335.06252 1014,335.25 1014,336 l 0,4 c 0,0.80949 -0.3447,0.955 -1,0.98437 l 0,-5.96875 c 0.048,0.002 0.1116,-0.004 0.1562,0 z"
           id="rect4419" />
        <rect
           y="326"
           x="-1016"
           height="24"
           width="24"
           id="rect4403"
           style="fill:none;stroke:none"
           transform="scale(-1,1)" />
        <path
           style="fill:#df382c;fill-opacity:1;stroke:none"
           d="m 1003.5,334.5 1,0 c 0.277,0 0.5,0.223 0.5,0.5 l 0,3 c 0,0.277 -0.223,0.5 -0.5,0.5 l -1,0 c -0.277,0 -0.5,-0.223 -0.5,-0.5 l 0,-3 c 0,-0.277 0.223,-0.5 0.5,-0.5 z"
           id="path3022"
           inkscape:connector-curvature="0"
           sodipodi:nodetypes="sssssssss" />
        <path
           style="fill:#df382c;fill-opacity:1;stroke:none"
           d="m 1003.5,339.5 1,0 c 0.277,0 0.5,0.223 0.5,0.5 l 0,1 c 0,0.277 -0.223,0.5 -0.5,0.5 l -1,0 c -0.277,0 -0.5,-0.223 -0.5,-0.5 l 0,-1 c 0,-0.277 0.223,-0.5 0.5,-0.5 z"
           id="path4413"
           inkscape:connector-curvature="0" />
      </g>
    </g>
  </g>
</svg>
