<?xml version="1.0" encoding="UTF-8" standalone="no"?>
<!-- Created with Inkscape (http://www.inkscape.org/) -->

<svg
   xmlns:dc="http://purl.org/dc/elements/1.1/"
   xmlns:cc="http://creativecommons.org/ns#"
   xmlns:rdf="http://www.w3.org/1999/02/22-rdf-syntax-ns#"
   xmlns:svg="http://www.w3.org/2000/svg"
   xmlns="http://www.w3.org/2000/svg"
   xmlns:xlink="http://www.w3.org/1999/xlink"
   xmlns:sodipodi="http://sodipodi.sourceforge.net/DTD/sodipodi-0.dtd"
   xmlns:inkscape="http://www.inkscape.org/namespaces/inkscape"
   width="90"
   height="90"
   id="svg3289"
   version="1.1"
   inkscape:version="0.48+devel r12221"
   sodipodi:docname="battery-020.svg">
  <defs
     id="defs3291">
    <linearGradient
       id="linearGradient3992">
      <stop
         style="stop-color:#b5b5b5;stop-opacity:1"
         offset="0"
         id="stop3994" />
      <stop
         style="stop-color:#dbdbdb;stop-opacity:1"
         offset="1"
         id="stop3996" />
    </linearGradient>
    <linearGradient
       id="linearGradient3992-5">
      <stop
         style="stop-color:#b5b5b5;stop-opacity:1"
         offset="0"
         id="stop3994-3" />
      <stop
         style="stop-color:#dbdbdb;stop-opacity:1"
         offset="1"
         id="stop3996-0" />
    </linearGradient>
    <linearGradient
       id="linearGradient3382">
      <stop
         style="stop-color:#b5b5b5;stop-opacity:1"
         offset="0"
         id="stop3384" />
      <stop
         style="stop-color:#dbdbdb;stop-opacity:1"
         offset="1"
         id="stop3386" />
    </linearGradient>
    <linearGradient
       id="linearGradient4091">
      <stop
         id="stop4093"
         offset="0"
         style="stop-color:#dbdbdb;stop-opacity:1;" />
      <stop
         id="stop4095"
         offset="1"
         style="stop-color:#b5b5b5;stop-opacity:1;" />
    </linearGradient>
    <linearGradient
       id="linearGradient3468">
      <stop
         id="stop3470"
         offset="0"
         style="stop-color:#dbdbdb;stop-opacity:1;" />
      <stop
         id="stop3472"
         offset="1"
         style="stop-color:#b5b5b5;stop-opacity:1;" />
    </linearGradient>
    <linearGradient
       inkscape:collect="always"
       xlink:href="#linearGradient3992-7"
       id="linearGradient4732"
       gradientUnits="userSpaceOnUse"
       gradientTransform="matrix(2,0,0,2,-392,-396.72437)"
       x1="208"
       y1="215.86218"
       x2="208"
       y2="204.86218" />
    <linearGradient
       id="linearGradient3992-7">
      <stop
         style="stop-color:#b5b5b5;stop-opacity:1"
         offset="0"
         id="stop3994-6" />
      <stop
         style="stop-color:#dbdbdb;stop-opacity:1"
         offset="1"
         id="stop3996-7" />
    </linearGradient>
    <linearGradient
       inkscape:collect="always"
       xlink:href="#linearGradient3775"
       id="linearGradient4158"
       gradientUnits="userSpaceOnUse"
       gradientTransform="matrix(2,0,0,1.9861112,-1983,-647.30555)"
       x1="1001.1268"
       y1="332"
       x2="1001.1268"
       y2="344" />
    <linearGradient
       id="linearGradient3992-54">
      <stop
         style="stop-color:#b5b5b5;stop-opacity:1"
         offset="0"
         id="stop3994-9" />
      <stop
         style="stop-color:#dbdbdb;stop-opacity:1"
         offset="1"
         id="stop3996-5" />
    </linearGradient>
    <linearGradient
       id="linearGradient3613">
      <stop
         style="stop-color:#b5b5b5;stop-opacity:1"
         offset="0"
         id="stop3615" />
      <stop
         style="stop-color:#dbdbdb;stop-opacity:1"
         offset="1"
         id="stop3617" />
    </linearGradient>
    <linearGradient
       inkscape:collect="always"
       xlink:href="#linearGradient3775"
       id="linearGradient3773"
       gradientUnits="userSpaceOnUse"
       gradientTransform="matrix(1,0,0,-1,799.5,596)"
       x1="76"
       y1="41"
       x2="76"
       y2="7" />
    <linearGradient
       id="linearGradient3775">
      <stop
         id="stop3777"
         offset="0"
         style="stop-color:#494949;stop-opacity:1" />
      <stop
         id="stop3779"
         offset="1"
         style="stop-color:#575757;stop-opacity:1" />
    </linearGradient>
    <linearGradient
       y2="7"
       x2="76"
       y1="41"
       x1="76"
       gradientTransform="matrix(0.5,0,0,-0.5,998.6795,340.48099)"
       gradientUnits="userSpaceOnUse"
       id="linearGradient3796"
       xlink:href="#linearGradient3775"
       inkscape:collect="always" />
    <clipPath
       clipPathUnits="userSpaceOnUse"
       id="clipPath3076-5">
      <rect
         style="opacity:0.5;color:#000000;fill:#ff00ff;fill-opacity:1;fill-rule:nonzero;stroke:none;stroke-width:6;marker:none;visibility:visible;display:inline;overflow:visible;enable-background:accumulate"
         id="rect3078-7"
         width="6.5"
         height="32.5"
         x="951.5"
         y="312" />
    </clipPath>
    <clipPath
       clipPathUnits="userSpaceOnUse"
       id="clipPath3158-5">
      <rect
         style="opacity:0.6756757;color:#000000;fill:#ff00ff;fill-opacity:1;fill-rule:nonzero;stroke:none;stroke-width:6;marker:none;visibility:visible;display:inline;overflow:visible;enable-background:accumulate"
         id="rect3160-5"
         width="25.5"
         height="27"
         x="1005"
         y="314" />
    </clipPath>
    <clipPath
       clipPathUnits="userSpaceOnUse"
       id="clipPath867-3">
      <path
         style="opacity:0.6756757;color:#000000;fill:#ff00ff;fill-opacity:1;fill-rule:nonzero;stroke:none;stroke-width:6;marker:none;visibility:visible;display:inline;overflow:visible;enable-background:accumulate"
         d="m 1003,292 0,2.01562 c -4.43969,0.10526 -4.5,0.69727 -4.5,3.98438 l 0,9 c 0,3.28343 0.0752,3.86338 4.5,3.96875 l 0,2.03125 2,0 0,-2 c 0.4902,10e-4 0.932,0 1.5,0 l 13,0 c 8,0 8,0 8,-4 l 0,-9 c 0,-4 0,-4 -8,-4 l -13,0 c -0.568,0 -1.0098,7.6e-4 -1.5,0 l 0,-2 L 1003,292 z m 26.4688,4.53125 c 0.021,0.44727 0.031,0.9286 0.031,1.46875 l 0,9 c 0,0.54015 -0.01,1.02147 -0.031,1.46875 0.392,-0.0184 0.7323,-0.0501 1.0312,-0.0937 l 0,-11.75 C 1030.2011,296.5813 1029.8608,296.54965 1029.4688,296.53125 Z"
         id="path869-2"
         inkscape:connector-curvature="0" />
    </clipPath>
  </defs>
  <sodipodi:namedview
     id="base"
     pagecolor="#000000"
     bordercolor="#666666"
     borderopacity="1.0"
     inkscape:pageopacity="1"
     inkscape:pageshadow="2"
     inkscape:zoom="4.7683716"
     inkscape:cx="-8.0775165"
     inkscape:cy="42.411071"
     inkscape:document-units="px"
     inkscape:current-layer="g4401"
     showgrid="true"
     inkscape:window-width="1920"
     inkscape:window-height="1029"
     inkscape:window-x="0"
     inkscape:window-y="24"
     inkscape:window-maximized="1"
     showguides="true"
     inkscape:guide-bbox="true"
     fit-margin-top="0"
     fit-margin-left="0"
     fit-margin-right="0"
     fit-margin-bottom="0">
    <inkscape:grid
       type="xygrid"
       id="grid3799"
       empspacing="8"
       visible="true"
       enabled="true"
       snapvisiblegridlinesonly="true"
       originx="0px"
       originy="0px" />
  </sodipodi:namedview>
  <metadata
     id="metadata3294">
    <rdf:RDF>
      <cc:Work
         rdf:about="">
        <dc:format>image/svg+xml</dc:format>
        <dc:type
           rdf:resource="http://purl.org/dc/dcmitype/StillImage" />
        <dc:title />
      </cc:Work>
    </rdf:RDF>
  </metadata>
  <g
     inkscape:label="Layer 1"
     inkscape:groupmode="layer"
     id="layer1"
     transform="translate(0,-962.3622)">
    <g
       style="display:inline"
       transform="translate(-789,604.3622)"
       id="g4451">
      <g
         transform="matrix(2,0,0,2,-1195,-252)"
         id="g4401"
         style="display:inline">
        <rect
           y="305"
           x="-1037"
           height="45"
           width="45"
           id="rect4403-3"
           style="fill:none;stroke:none;display:inline"
           transform="scale(-1,1)" />
        <path
           style="opacity:0.25;fill:#cccccc;fill-opacity:1;stroke:none;display:inline"
           clip-path="none"
           d="m 1005,317 c -0.6992,0.002 -1.4108,0.0196 -2,0.0312 l 0,1.98437 c -4.43969,0.10526 -4.5,0.69727 -4.5,3.98438 l 0,9 c 0,3.28343 0.0752,3.86338 4.5,3.96875 l 0,2 c 0.5892,0.0116 1.3008,0.0292 2,0.0312 l 0,-2 c 0.4902,10e-4 0.932,0 1.5,0 l 13,0 c 8,0 8,0 8,-4 l 0,-9 c 0,-4 0,-4 -8,-4 l -13,0 c -0.568,0 -1.0098,7.6e-4 -1.5,0 L 1005,317 z m 24.4688,4.53125 c 0.021,0.44727 0.031,0.9286 0.031,1.46875 l 0,9 c 0,0.54015 -0.01,1.02147 -0.031,1.46875 0.3302,-0.0155 0.6271,-0.0453 0.8906,-0.0781 0.049,-0.006 0.093,-0.009 0.1406,-0.0156 l 0,-11.75 c -0.043,-0.006 -0.096,-0.01 -0.1406,-0.0156 C 1030.0959,321.57654 1029.799,321.54676 1029.4688,321.53125 Z"
           id="path3804"
           inkscape:connector-curvature="0" />
        <path
           style="opacity:0.5;fill:#cccccc;fill-opacity:1;stroke:none;display:inline"
           clip-path="none"
           d="M 26 24 L 26 28 C 26.980475 28.001527 27.863905 28 29 28 L 55 28 C 71 28 71 28 71 36 L 71 54 C 71 62 71 62 55 62 L 29 62 C 27.863905 62 26.980484 62.002864 26 62 L 26 66 C 26.998804 66.002884 27.880859 66 29 66 L 55 66 C 73 66 75 66 75 54 L 75 36 C 75 24 73 24 55 24 L 29 24 C 27.880859 24 26.998804 23.997116 26 24 z "
           transform="matrix(0.5,0,0,0.5,992,305)"
           id="path3810" />
        <path
           style="opacity:0.5;fill:#cccccc;fill-opacity:1;stroke:none;display:inline"
           d="m 1030.5,321.625 0,11.75 c 1.7155,-0.25071 2,-1.00396 2,-3.29688 l 0,-5.15625 C 1032.5,322.62897 1032.2155,321.87571 1030.5,321.625 Z"
           id="path3820"
           inkscape:connector-curvature="0" />
        <path
           style="fill:#df382c;fill-opacity:1;stroke:none;display:inline"
           clip-path="none"
           d="M 22 24.0625 C 10.48337 24.289837 9 25.790678 9 36 L 9 54 C 9 64.209322 10.48337 65.710163 22 65.9375 L 22 24.0625 z "
           transform="matrix(0.5,0,0,0.5,992,305)"
           id="path3837" />
      </g>
    </g>
  </g>
  <g
     inkscape:groupmode="layer"
     id="layer4"
     inkscape:label="Shapes"
     sodipodi:insensitive="true"
     style="display:none">
    <path
       id="path3804-3"
       style="opacity:0.25;fill:#cccccc;fill-opacity:1;stroke:none;display:inline"
       d="m 1029.4688,296.53125 c 0.021,0.44727 0.031,0.9286 0.031,1.46875 l 0,9 c 0,0.54015 -0.01,1.02148 -0.031,1.46875 2.6419,-0.12411 3.0312,-0.69816 3.0312,-3.39063 l 0,-5.15625 C 1032.5,297.22941 1032.1107,296.65536 1029.4688,296.53125 Z M 1006.5,292 c -9,0 -10,0 -10,6 l 0,9 c 0,6 1,6 10,6 l 13,0 c 9,0 10,0 10,-6 l 0,-9 C 1029.5,292 1028.5,292 1019.5,292 Z"
       inkscape:connector-curvature="0"
       clip-path="url(#clipPath867-3)"
       sodipodi:nodetypes="csscsscsssssssss"
       transform="matrix(2,0,0,2,-1984,-560)" />
    <path
       transform="matrix(2,0,0,2,-1984,-610)"
       style="opacity:0.5;fill:#cccccc;fill-opacity:1;stroke:none;display:inline"
       clip-path="url(#clipPath3158-5)"
       d="m 1006.5,317 c -9,0 -10,0 -10,6 l 0,9 c 0,6 1,6 10,6 l 13,0 c 9,0 10,0 10,-6 l 0,-9 c 0,-6 -1,-6 -10,-6 L 1006.5,317 z m -2.6406,2 c 0.7656,-0.008 1.6406,0 2.6406,0 l 13,0 c 8,0 8,0 8,4 l 0,9 c 0,4 0,4 -8,4 l -13,0 c -8,0 -8,0 -8,-4 l 0,-9 C 998.5,319.5 998.5,319.05469 1003.8594,319 Z"
       id="path3810-6"
       inkscape:connector-curvature="0" />
    <path
       style="opacity:0.5;fill:#cccccc;fill-opacity:1;stroke:none;display:inline"
       d="m 77,33.25 0,23.5 c 3.431,-0.50142 4,-2.00792 4,-6.59376 l 0,-10.3125 C 81,35.25794 80.431,33.75142 77,33.25 Z"
       id="path3820-6"
       inkscape:connector-curvature="0" />
    <path
       style="fill:#df382c;fill-opacity:1;stroke:none;display:inline"
       d="m 961.5,317 c -9,0 -10,0 -10,6 l 0,9 c 0,6 1,6 10,6 l 13,0 c 9,0 10,0 10,-6 l 0,-9 C 984.5,317 983.5,317 974.5,317 Z"
       id="path3837-8"
       inkscape:connector-curvature="0"
       sodipodi:nodetypes="ccccccccc"
       clip-path="url(#clipPath3076-5)"
       transform="matrix(2,0,0,2,-1894,-610)" />
  </g>
</svg>
