<?xml version="1.0" encoding="UTF-8" standalone="no"?>
<!-- Created with Inkscape (http://www.inkscape.org/) -->

<svg
   xmlns:dc="http://purl.org/dc/elements/1.1/"
   xmlns:cc="http://creativecommons.org/ns#"
   xmlns:rdf="http://www.w3.org/1999/02/22-rdf-syntax-ns#"
   xmlns:svg="http://www.w3.org/2000/svg"
   xmlns="http://www.w3.org/2000/svg"
   xmlns:xlink="http://www.w3.org/1999/xlink"
   xmlns:sodipodi="http://sodipodi.sourceforge.net/DTD/sodipodi-0.dtd"
   xmlns:inkscape="http://www.inkscape.org/namespaces/inkscape"
   width="90"
   height="90"
   id="svg3289"
   version="1.1"
   inkscape:version="0.48+devel r12221"
   sodipodi:docname="battery-caution.svg">
  <defs
     id="defs3291">
    <linearGradient
       id="linearGradient3992">
      <stop
         style="stop-color:#b5b5b5;stop-opacity:1"
         offset="0"
         id="stop3994" />
      <stop
         style="stop-color:#dbdbdb;stop-opacity:1"
         offset="1"
         id="stop3996" />
    </linearGradient>
    <linearGradient
       id="linearGradient3992-5">
      <stop
         style="stop-color:#b5b5b5;stop-opacity:1"
         offset="0"
         id="stop3994-3" />
      <stop
         style="stop-color:#dbdbdb;stop-opacity:1"
         offset="1"
         id="stop3996-0" />
    </linearGradient>
    <linearGradient
       id="linearGradient3382">
      <stop
         style="stop-color:#b5b5b5;stop-opacity:1"
         offset="0"
         id="stop3384" />
      <stop
         style="stop-color:#dbdbdb;stop-opacity:1"
         offset="1"
         id="stop3386" />
    </linearGradient>
    <linearGradient
       id="linearGradient4091">
      <stop
         id="stop4093"
         offset="0"
         style="stop-color:#dbdbdb;stop-opacity:1;" />
      <stop
         id="stop4095"
         offset="1"
         style="stop-color:#b5b5b5;stop-opacity:1;" />
    </linearGradient>
    <linearGradient
       id="linearGradient3468">
      <stop
         id="stop3470"
         offset="0"
         style="stop-color:#dbdbdb;stop-opacity:1;" />
      <stop
         id="stop3472"
         offset="1"
         style="stop-color:#b5b5b5;stop-opacity:1;" />
    </linearGradient>
    <linearGradient
       inkscape:collect="always"
       xlink:href="#linearGradient3992-7"
       id="linearGradient4732"
       gradientUnits="userSpaceOnUse"
       gradientTransform="matrix(2,0,0,2,-392,-396.72437)"
       x1="208"
       y1="215.86218"
       x2="208"
       y2="204.86218" />
    <linearGradient
       id="linearGradient3992-7">
      <stop
         style="stop-color:#b5b5b5;stop-opacity:1"
         offset="0"
         id="stop3994-6" />
      <stop
         style="stop-color:#dbdbdb;stop-opacity:1"
         offset="1"
         id="stop3996-7" />
    </linearGradient>
    <linearGradient
       inkscape:collect="always"
       xlink:href="#linearGradient3775"
       id="linearGradient4158"
       gradientUnits="userSpaceOnUse"
       gradientTransform="matrix(2,0,0,1.9861112,-1983,-647.30555)"
       x1="1001.1268"
       y1="332"
       x2="1001.1268"
       y2="344" />
    <linearGradient
       id="linearGradient3992-54">
      <stop
         style="stop-color:#b5b5b5;stop-opacity:1"
         offset="0"
         id="stop3994-9" />
      <stop
         style="stop-color:#dbdbdb;stop-opacity:1"
         offset="1"
         id="stop3996-5" />
    </linearGradient>
    <linearGradient
       id="linearGradient3613">
      <stop
         style="stop-color:#b5b5b5;stop-opacity:1"
         offset="0"
         id="stop3615" />
      <stop
         style="stop-color:#dbdbdb;stop-opacity:1"
         offset="1"
         id="stop3617" />
    </linearGradient>
    <linearGradient
       inkscape:collect="always"
       xlink:href="#linearGradient3775"
       id="linearGradient3773"
       gradientUnits="userSpaceOnUse"
       gradientTransform="matrix(1,0,0,-1,799.5,596)"
       x1="76"
       y1="41"
       x2="76"
       y2="7" />
    <linearGradient
       id="linearGradient3775">
      <stop
         id="stop3777"
         offset="0"
         style="stop-color:#494949;stop-opacity:1" />
      <stop
         id="stop3779"
         offset="1"
         style="stop-color:#575757;stop-opacity:1" />
    </linearGradient>
    <linearGradient
       y2="7"
       x2="76"
       y1="41"
       x1="76"
       gradientTransform="matrix(0.5,0,0,-0.5,998.6795,340.48099)"
       gradientUnits="userSpaceOnUse"
       id="linearGradient3796"
       xlink:href="#linearGradient3775"
       inkscape:collect="always" />
    <clipPath
       clipPathUnits="userSpaceOnUse"
       id="clipPath3076">
      <rect
         style="opacity:0.5;color:#000000;fill:#ff00ff;fill-opacity:1;fill-rule:nonzero;stroke:none;stroke-width:6;marker:none;visibility:visible;display:inline;overflow:visible;enable-background:accumulate"
         id="rect3078"
         width="6.5"
         height="32.5"
         x="951.5"
         y="312" />
    </clipPath>
    <clipPath
       clipPathUnits="userSpaceOnUse"
       id="clipPath3973-1">
      <path
         inkscape:connector-curvature="0"
         style="opacity:0.6756757;color:#000000;fill:#ff00ff;fill-opacity:1;fill-rule:nonzero;stroke:none;stroke-width:6;marker:none;visibility:visible;display:inline;overflow:visible;enable-background:accumulate"
         d="m 984.4688,351.53125 c 0.021,0.44727 0.031,0.9286 0.031,1.46875 l 0,9 c 0,0.54015 -0.01,1.02147 -0.031,1.46875 0.392,-0.0184 0.7323,-0.0501 1.0312,-0.0937 l 0,-11.75 C 985.2011,351.58135 984.8608,351.54975 984.4688,351.53135 Z"
         id="path3975-0" />
    </clipPath>
    <clipPath
       clipPathUnits="userSpaceOnUse"
       id="clipPath3969-6">
      <path
         inkscape:connector-curvature="0"
         style="opacity:0.6756757;color:#000000;fill:#ff00ff;fill-opacity:1;fill-rule:nonzero;stroke:none;stroke-width:6;marker:none;visibility:visible;display:inline;overflow:visible;enable-background:accumulate"
         d="m 958.8594,349 c -5.3594,0.0547 -5.3594,0.5 -5.3594,4 l 0,9 c 0,4 0,4 8,4 l 13,0 c 8,0 8,0 8,-4 l 0,-9 c 0,-4 0,-4 -8,-4 l -13,0 C 960.5,349 959.625,348.992 958.8594,349 Z"
         id="path3971-0" />
    </clipPath>
  </defs>
  <sodipodi:namedview
     id="base"
     pagecolor="#000000"
     bordercolor="#666666"
     borderopacity="1.0"
     inkscape:pageopacity="1"
     inkscape:pageshadow="2"
     inkscape:zoom="5.9604645"
     inkscape:cx="60.948754"
     inkscape:cy="23.896083"
     inkscape:document-units="px"
     inkscape:current-layer="g4451"
     showgrid="true"
     inkscape:window-width="1920"
     inkscape:window-height="1029"
     inkscape:window-x="0"
     inkscape:window-y="24"
     inkscape:window-maximized="1"
     showguides="true"
     inkscape:guide-bbox="true"
     fit-margin-top="0"
     fit-margin-left="0"
     fit-margin-right="0"
     fit-margin-bottom="0">
    <inkscape:grid
       type="xygrid"
       id="grid3799"
       empspacing="8"
       visible="true"
       enabled="true"
       snapvisiblegridlinesonly="true"
       originx="0px"
       originy="0px" />
  </sodipodi:namedview>
  <metadata
     id="metadata3294">
    <rdf:RDF>
      <cc:Work
         rdf:about="">
        <dc:format>image/svg+xml</dc:format>
        <dc:type
           rdf:resource="http://purl.org/dc/dcmitype/StillImage" />
        <dc:title />
      </cc:Work>
    </rdf:RDF>
  </metadata>
  <g
     inkscape:label="Layer 1"
     inkscape:groupmode="layer"
     id="layer1"
     transform="translate(0,-962.3622)">
    <g
       style="display:inline"
       transform="translate(-789,604.3622)"
       id="g4451">
      <g
         transform="matrix(2,0,0,2,-1195,-252)"
         id="g4401"
         style="display:inline">
        <path
           style="opacity:0.25;fill:#df382c;fill-opacity:1;stroke:none;display:inline"
           clip-path="none"
           d="M 23.71875 28 C 12.99995 28.1094 13 29 13 36 L 13 54 C 13 62 13 62 29 62 L 55 62 C 71 62 71 62 71 54 L 71 36 C 71 28 71 28 55 28 L 29 28 C 27 28 25.24995 27.984 23.71875 28 z "
           transform="matrix(0.5,0,0,0.5,992,305)"
           id="path3967" />
        <rect
           y="305"
           x="-1037"
           height="45"
           width="45"
           id="rect4403-3"
           style="fill:none;stroke:none;display:inline"
           transform="scale(-1,1)" />
        <path
           style="opacity:0.5;fill:#df382c;fill-opacity:1;stroke:none;display:inline"
           clip-path="none"
           d="m 1029.4688,321.53125 c 0.021,0.44727 0.031,0.9286 0.031,1.46875 l 0,9 c 0,0.54015 -0.01,1.02147 -0.031,1.46875 0.3302,-0.0155 0.6271,-0.0453 0.8906,-0.0781 0.049,-0.006 0.093,-0.009 0.1406,-0.0156 l 0,-11.75 c -0.043,-0.006 -0.096,-0.01 -0.1406,-0.0156 C 1030.0959,321.57654 1029.799,321.54676 1029.4688,321.53125 Z"
           id="path3804"
           inkscape:connector-curvature="0" />
        <path
           style="opacity:1;fill:#df382c;fill-opacity:1;stroke:none;display:inline"
           clip-path="none"
           d="m 1006.5,317 c -9,0 -10,0 -10,6 l 0,9 c 0,6 1,6 10,6 l 13,0 c 9,0 10,0 10,-6 l 0,-9 c 0,-6 -1,-6 -10,-6 l -13,0 z m -2.6406,2 c 0.7656,-0.008 1.6406,0 2.6406,0 l 13,0 c 8,0 8,0 8,4 l 0,9 c 0,4 0,4 -8,4 l -13,0 c -8,0 -8,0 -8,-4 l 0,-9 c 0,-3.5 0,-3.94531 5.3594,-4 z"
           id="path3810"
           inkscape:connector-curvature="0" />
        <path
           style="opacity:1;fill:#df382c;fill-opacity:1;stroke:none;display:inline"
           d="m 1030.5,321.625 0,11.75 c 1.7155,-0.25071 2,-1.00396 2,-3.29688 l 0,-5.15625 c 0,-2.2929 -0.2845,-3.04616 -2,-3.29687 z"
           id="path3820"
           inkscape:connector-curvature="0" />
        <path
           style="color:#000000;fill:#df382c;fill-opacity:1;fill-rule:nonzero;stroke:none;stroke-width:6;marker:none;visibility:visible;display:inline;overflow:visible;enable-background:accumulate"
           d="M 39 32 L 39 48 L 45 48 L 45 32 L 39 32 z M 39 52 L 39 58 L 45 58 L 45 52 L 39 52 z "
           transform="matrix(0.5,0,0,0.5,992,305)"
           id="rect3996" />
      </g>
    </g>
  </g>
  <g
     inkscape:groupmode="layer"
     id="layer2"
     inkscape:label="Shapes"
     sodipodi:insensitive="true"
     style="display:none">
    <path
       sodipodi:nodetypes="csscsscsssssssss"
       transform="matrix(2,0,0,2,-1894,-670)"
       clip-path="url(#clipPath3969-6)"
       inkscape:connector-curvature="0"
       d="m 984.4688,351.53125 c 0.021,0.44727 0.031,0.9286 0.031,1.46875 l 0,9 c 0,0.54015 -0.01,1.02148 -0.031,1.46875 2.6419,-0.12411 3.0312,-0.69816 3.0312,-3.39063 l 0,-5.15625 C 987.5,352.22941 987.1107,351.65536 984.4688,351.53125 Z M 961.5,347 c -9,0 -10,0 -10,6 l 0,9 c 0,6 1,6 10,6 l 13,0 c 9,0 10,0 10,-6 l 0,-9 C 984.5,347 983.5,347 974.5,347 Z"
       style="opacity:0.25;fill:#df382c;fill-opacity:1;stroke:none;display:inline"
       id="path3967-7" />
    <path
       id="path3804-6"
       style="opacity:0.5;fill:#df382c;fill-opacity:1;stroke:none;display:inline"
       d="m 984.4688,351.53125 c 0.021,0.44727 0.031,0.9286 0.031,1.46875 l 0,9 c 0,0.54015 -0.01,1.02148 -0.031,1.46875 2.6419,-0.12411 3.0312,-0.69816 3.0312,-3.39063 l 0,-5.15625 C 987.5,352.22941 987.1107,351.65536 984.4688,351.53125 Z M 961.5,347 c -9,0 -10,0 -10,6 l 0,9 c 0,6 1,6 10,6 l 13,0 c 9,0 10,0 10,-6 l 0,-9 C 984.5,347 983.5,347 974.5,347 Z"
       inkscape:connector-curvature="0"
       clip-path="url(#clipPath3973-1)"
       transform="matrix(2,0,0,2,-1894,-670)"
       sodipodi:nodetypes="csscsscsssssssss" />
    <path
       style="fill:#df382c;fill-opacity:1;stroke:none;display:inline"
       clip-path="none"
       d="M 29,24 C 11,24 9,24 9,36 l 0,18 c 0,12 2,12 20,12 l 26,0 c 18,0 20,0 20,-12 L 75,36 C 75,24 73,24 55,24 L 29,24 z m -5.2812,4 C 25.25,27.984 27,28 29,28 l 26,0 c 16,0 16,0 16,8 l 0,18 c 0,8 0,8 -16,8 L 29,62 C 13,62 13,62 13,54 L 13,36 C 13,29 13,28.10938 23.7188,28 Z"
       id="path3810-5"
       inkscape:connector-curvature="0" />
    <path
       style="fill:#df382c;fill-opacity:1;stroke:none;display:inline"
       d="m 77,33.25 0,23.5 c 3.431,-0.50142 4,-2.00792 4,-6.59376 l 0,-10.3125 C 81,35.25794 80.431,33.75142 77,33.25 Z"
       id="path3820-6"
       inkscape:connector-curvature="0" />
    <path
       inkscape:connector-curvature="0"
       style="color:#000000;fill:#df382c;fill-opacity:1;fill-rule:nonzero;stroke:none;stroke-width:6;marker:none;visibility:visible;display:inline;overflow:visible;enable-background:accumulate"
       d="m 39,32 0,16 6,0 L 45,32 39,32 z m 0,20 0,6 6,0 0,-6 L 39,52 Z"
       id="rect3996-9" />
  </g>
</svg>
