<?xml version="1.0" encoding="UTF-8" standalone="no"?>
<!-- Created with Inkscape (http://www.inkscape.org/) -->

<svg
   xmlns:dc="http://purl.org/dc/elements/1.1/"
   xmlns:cc="http://creativecommons.org/ns#"
   xmlns:rdf="http://www.w3.org/1999/02/22-rdf-syntax-ns#"
   xmlns:svg="http://www.w3.org/2000/svg"
   xmlns="http://www.w3.org/2000/svg"
   xmlns:xlink="http://www.w3.org/1999/xlink"
   xmlns:sodipodi="http://sodipodi.sourceforge.net/DTD/sodipodi-0.dtd"
   xmlns:inkscape="http://www.inkscape.org/namespaces/inkscape"
   width="90"
   height="90"
   id="svg3289"
   version="1.1"
   inkscape:version="0.48+devel r12221"
   sodipodi:docname="battery-080-charging.svg">
  <defs
     id="defs3291">
    <linearGradient
       id="linearGradient3992">
      <stop
         style="stop-color:#b5b5b5;stop-opacity:1"
         offset="0"
         id="stop3994" />
      <stop
         style="stop-color:#dbdbdb;stop-opacity:1"
         offset="1"
         id="stop3996" />
    </linearGradient>
    <linearGradient
       id="linearGradient3992-5">
      <stop
         style="stop-color:#b5b5b5;stop-opacity:1"
         offset="0"
         id="stop3994-3" />
      <stop
         style="stop-color:#dbdbdb;stop-opacity:1"
         offset="1"
         id="stop3996-0" />
    </linearGradient>
    <linearGradient
       id="linearGradient3382">
      <stop
         style="stop-color:#b5b5b5;stop-opacity:1"
         offset="0"
         id="stop3384" />
      <stop
         style="stop-color:#dbdbdb;stop-opacity:1"
         offset="1"
         id="stop3386" />
    </linearGradient>
    <linearGradient
       id="linearGradient4091">
      <stop
         id="stop4093"
         offset="0"
         style="stop-color:#dbdbdb;stop-opacity:1;" />
      <stop
         id="stop4095"
         offset="1"
         style="stop-color:#b5b5b5;stop-opacity:1;" />
    </linearGradient>
    <linearGradient
       id="linearGradient3468">
      <stop
         id="stop3470"
         offset="0"
         style="stop-color:#dbdbdb;stop-opacity:1;" />
      <stop
         id="stop3472"
         offset="1"
         style="stop-color:#b5b5b5;stop-opacity:1;" />
    </linearGradient>
    <linearGradient
       inkscape:collect="always"
       xlink:href="#linearGradient3992-7"
       id="linearGradient4732"
       gradientUnits="userSpaceOnUse"
       gradientTransform="matrix(2,0,0,2,-392,-396.72437)"
       x1="208"
       y1="215.86218"
       x2="208"
       y2="204.86218" />
    <linearGradient
       id="linearGradient3992-7">
      <stop
         style="stop-color:#b5b5b5;stop-opacity:1"
         offset="0"
         id="stop3994-6" />
      <stop
         style="stop-color:#dbdbdb;stop-opacity:1"
         offset="1"
         id="stop3996-7" />
    </linearGradient>
    <linearGradient
       inkscape:collect="always"
       xlink:href="#linearGradient3775"
       id="linearGradient4158"
       gradientUnits="userSpaceOnUse"
       gradientTransform="matrix(2,0,0,1.9861112,-1983,-647.30555)"
       x1="1001.1268"
       y1="332"
       x2="1001.1268"
       y2="344" />
    <linearGradient
       id="linearGradient3992-54">
      <stop
         style="stop-color:#b5b5b5;stop-opacity:1"
         offset="0"
         id="stop3994-9" />
      <stop
         style="stop-color:#dbdbdb;stop-opacity:1"
         offset="1"
         id="stop3996-5" />
    </linearGradient>
    <linearGradient
       id="linearGradient3613">
      <stop
         style="stop-color:#b5b5b5;stop-opacity:1"
         offset="0"
         id="stop3615" />
      <stop
         style="stop-color:#dbdbdb;stop-opacity:1"
         offset="1"
         id="stop3617" />
    </linearGradient>
    <linearGradient
       inkscape:collect="always"
       xlink:href="#linearGradient3775"
       id="linearGradient3773"
       gradientUnits="userSpaceOnUse"
       gradientTransform="matrix(1,0,0,-1,799.5,596)"
       x1="76"
       y1="41"
       x2="76"
       y2="7" />
    <linearGradient
       id="linearGradient3775">
      <stop
         id="stop3777"
         offset="0"
         style="stop-color:#494949;stop-opacity:1" />
      <stop
         id="stop3779"
         offset="1"
         style="stop-color:#575757;stop-opacity:1" />
    </linearGradient>
    <linearGradient
       y2="7"
       x2="76"
       y1="41"
       x1="76"
       gradientTransform="matrix(0.5,0,0,-0.5,998.6795,340.48099)"
       gradientUnits="userSpaceOnUse"
       id="linearGradient3796"
       xlink:href="#linearGradient3775"
       inkscape:collect="always" />
  </defs>
  <sodipodi:namedview
     id="base"
     pagecolor="#000000"
     bordercolor="#666666"
     borderopacity="1.0"
     inkscape:pageopacity="1"
     inkscape:pageshadow="2"
     inkscape:zoom="9.3132258"
     inkscape:cx="48.719252"
     inkscape:cy="36.816647"
     inkscape:document-units="px"
     inkscape:current-layer="g4401"
     showgrid="true"
     inkscape:window-width="1920"
     inkscape:window-height="1029"
     inkscape:window-x="0"
     inkscape:window-y="24"
     inkscape:window-maximized="1"
     showguides="true"
     inkscape:guide-bbox="true"
     fit-margin-top="0"
     fit-margin-left="0"
     fit-margin-right="0"
     fit-margin-bottom="0">
    <inkscape:grid
       type="xygrid"
       id="grid3799"
       empspacing="8"
       visible="true"
       enabled="true"
       snapvisiblegridlinesonly="true"
       originx="0px"
       originy="0px" />
  </sodipodi:namedview>
  <metadata
     id="metadata3294">
    <rdf:RDF>
      <cc:Work
         rdf:about="">
        <dc:format>image/svg+xml</dc:format>
        <dc:type
           rdf:resource="http://purl.org/dc/dcmitype/StillImage" />
        <dc:title />
      </cc:Work>
    </rdf:RDF>
  </metadata>
  <g
     inkscape:label="Layer 1"
     inkscape:groupmode="layer"
     id="layer1"
     transform="translate(0,-962.3622)">
    <g
       style="display:inline"
       transform="translate(-789,604.3622)"
       id="g4451">
      <g
         transform="matrix(2,0,0,2,-1195,-252)"
         id="g4401"
         style="display:inline">
        <rect
           y="305"
           x="-1037"
           height="45"
           width="45"
           id="rect4403-3"
           style="fill:none;stroke:none;display:inline"
           transform="scale(-1,1)" />
        <path
           style="opacity:0.25;fill:#cccccc;fill-opacity:1;stroke:none;display:inline"
           clip-path="none"
           d="M 62 24.0625 L 62 28.0625 C 60.0686 28.0165 57.8662 28 55 28 L 29 28 C 27 28 25.24995 27.984 23.71875 28 C 12.99989 28.1094 13 29 13 36 L 13 54 C 13 62 13 62 29 62 L 55 62 C 57.8662 62 60.0686 61.9839 62 61.9375 L 62 65.9375 C 63.489157 65.908104 64.828906 65.869964 66 65.78125 L 66 61.71875 C 70.9938 61.15725 71 59.42662 71 54 L 71 36 C 71 30.57338 71 28.84277 66 28.28125 L 66 24.21875 C 64.828906 24.130036 63.489157 24.091896 62 24.0625 z M 74.9375 33.0625 C 74.9795 33.95704 75 34.9197 75 36 L 75 54 C 75 55.0803 74.9795 56.04294 74.9375 56.9375 C 75.597975 56.906473 76.191784 56.846916 76.71875 56.78125 C 76.817387 56.768959 76.905738 56.763776 77 56.75 L 77 33.25 C 76.91342 33.237327 76.808866 33.2304 76.71875 33.21875 C 76.191784 33.153084 75.597975 33.093527 74.9375 33.0625 z "
           transform="matrix(0.5,0,0,0.5,992,305)"
           id="path3804" />
        <path
           style="opacity:0.6756757;color:#000000;fill:#ff00ff;fill-opacity:1;fill-rule:nonzero;stroke:none;stroke-width:6;marker:none;visibility:visible;display:inline;overflow:visible;enable-background:accumulate"
           d="m 1030.5156,321.62495 c 0.2078,0.0309 0.395,0.0772 0.5625,0.125 -0.1669,-0.0475 -0.3556,-0.0942 -0.5625,-0.125 z"
           id="path3906" />
        <path
           style="opacity:0.6756757;color:#000000;fill:#ff00ff;fill-opacity:1;fill-rule:nonzero;stroke:none;stroke-width:6;marker:none;visibility:visible;display:inline;overflow:visible;enable-background:accumulate"
           d="m 1032.4375,323.68745 c 0.014,0.1415 0.039,0.27697 0.047,0.4375 -0.01,-0.15962 -0.033,-0.29681 -0.047,-0.4375 z"
           id="path3904" />
        <path
           style="opacity:0.6756757;color:#000000;fill:#ff00ff;fill-opacity:1;fill-rule:nonzero;stroke:none;stroke-width:6;marker:none;visibility:visible;display:inline;overflow:visible;enable-background:accumulate"
           d="m 1032.4845,330.87495 c -0.01,0.16053 -0.033,0.29599 -0.047,0.4375 0.014,-0.14069 0.039,-0.27788 0.047,-0.4375 z"
           id="path3902" />
        <path
           style="opacity:0.6756757;color:#000000;fill:#ff00ff;fill-opacity:1;fill-rule:nonzero;stroke:none;stroke-width:6;marker:none;visibility:visible;display:inline;overflow:visible;enable-background:accumulate"
           d="m 1031.0783,333.24995 c -0.1676,0.0478 -0.3548,0.0941 -0.5625,0.125 0.2068,-0.0308 0.3956,-0.0775 0.5625,-0.125 z"
           id="path3868" />
        <path
           style="opacity:0.5;fill:#cccccc;fill-opacity:1;stroke:none;display:inline"
           clip-path="none"
           d="M 66 24.21875 L 66 28.28125 C 70.993871 28.842761 71 30.573384 71 36 L 71 54 C 71 59.426616 70.993871 61.157239 66 61.71875 L 66 65.78125 C 73.885744 65.183881 75 62.889207 75 54 L 75 36 C 75 27.110793 73.885744 24.816119 66 24.21875 z "
           transform="matrix(0.5,0,0,0.5,992,305)"
           id="path3810" />
        <path
           style="opacity:0.5;fill:#cccccc;fill-opacity:1;stroke:none;display:inline"
           d="m 1030.5,321.625 0,11.75 c 1.7155,-0.25071 2,-1.00396 2,-3.29688 l 0,-5.15625 c 0,-2.2929 -0.2845,-3.04616 -2,-3.29687 z"
           id="path3820"
           inkscape:connector-curvature="0" />
        <path
           style="fill:#cccccc;fill-opacity:1;stroke:none;display:inline"
           clip-path="none"
           d="M 29 24 C 11 24 9 24 9 36 L 9 54 C 9 66 11 66 29 66 L 55 66 C 57.686017 66 59.980025 65.977374 62 65.9375 L 62 24.0625 C 59.980025 24.022626 57.686017 24 55 24 L 29 24 z "
           transform="matrix(0.5,0,0,0.5,992,305)"
           id="path3837" />
        <g
           style="display:inline"
           id="g4038">
          <path
             style="opacity:0.12999998;fill:none;stroke:#000000;stroke-width:2;stroke-linecap:butt;stroke-linejoin:round;stroke-miterlimit:4;stroke-dasharray:none;display:inline"
             d="M 1024.5,327.49823 1011,322 l 0,5.5 -9.5,-0.002 13.5,5.50177 0,-5.5 z"
             id="path4036"
             inkscape:connector-curvature="0"
             sodipodi:nodetypes="ccccccc" />
          <path
             sodipodi:nodetypes="ccccccc"
             inkscape:connector-curvature="0"
             id="path4034"
             d="M 1024.5,327.49823 1011,322 l 0,5.5 -9.5,-0.002 13.5,5.50177 0,-5.5 z"
             style="opacity:0.12999998;fill:none;stroke:#000000;stroke-linecap:butt;stroke-linejoin:round;display:inline" />
          <path
             style="fill:#ffffff;fill-opacity:1;stroke:none;display:inline"
             d="M 1024.5,327.49823 1011,322 l 0,5.5 -9.5,-0.002 13.5,5.50177 0,-5.5 z"
             id="path3847"
             inkscape:connector-curvature="0"
             sodipodi:nodetypes="ccccccc" />
        </g>
      </g>
    </g>
  </g>
</svg>
