<?xml version="1.0" encoding="UTF-8" standalone="no"?>
<!-- Created with Inkscape (http://www.inkscape.org/) -->

<svg
   xmlns:dc="http://purl.org/dc/elements/1.1/"
   xmlns:cc="http://creativecommons.org/ns#"
   xmlns:rdf="http://www.w3.org/1999/02/22-rdf-syntax-ns#"
   xmlns:svg="http://www.w3.org/2000/svg"
   xmlns="http://www.w3.org/2000/svg"
   xmlns:xlink="http://www.w3.org/1999/xlink"
   xmlns:sodipodi="http://sodipodi.sourceforge.net/DTD/sodipodi-0.dtd"
   xmlns:inkscape="http://www.inkscape.org/namespaces/inkscape"
   width="48"
   height="48"
   id="svg3289"
   version="1.1"
   inkscape:version="0.48.3.1 r9886"
   sodipodi:docname="battery-020-charging@18.svg">
  <defs
     id="defs3291">
    <linearGradient
       id="linearGradient3992">
      <stop
         style="stop-color:#b5b5b5;stop-opacity:1"
         offset="0"
         id="stop3994" />
      <stop
         style="stop-color:#dbdbdb;stop-opacity:1"
         offset="1"
         id="stop3996" />
    </linearGradient>
    <linearGradient
       id="linearGradient3992-5">
      <stop
         style="stop-color:#b5b5b5;stop-opacity:1"
         offset="0"
         id="stop3994-3" />
      <stop
         style="stop-color:#dbdbdb;stop-opacity:1"
         offset="1"
         id="stop3996-0" />
    </linearGradient>
    <linearGradient
       id="linearGradient3382">
      <stop
         style="stop-color:#b5b5b5;stop-opacity:1"
         offset="0"
         id="stop3384" />
      <stop
         style="stop-color:#dbdbdb;stop-opacity:1"
         offset="1"
         id="stop3386" />
    </linearGradient>
    <linearGradient
       id="linearGradient4091">
      <stop
         id="stop4093"
         offset="0"
         style="stop-color:#dbdbdb;stop-opacity:1;" />
      <stop
         id="stop4095"
         offset="1"
         style="stop-color:#b5b5b5;stop-opacity:1;" />
    </linearGradient>
    <linearGradient
       id="linearGradient3468">
      <stop
         id="stop3470"
         offset="0"
         style="stop-color:#dbdbdb;stop-opacity:1;" />
      <stop
         id="stop3472"
         offset="1"
         style="stop-color:#b5b5b5;stop-opacity:1;" />
    </linearGradient>
    <linearGradient
       inkscape:collect="always"
       xlink:href="#linearGradient3992-7"
       id="linearGradient4732"
       gradientUnits="userSpaceOnUse"
       gradientTransform="matrix(2,0,0,2,-392,-396.72437)"
       x1="208"
       y1="215.86218"
       x2="208"
       y2="204.86218" />
    <linearGradient
       id="linearGradient3992-7">
      <stop
         style="stop-color:#b5b5b5;stop-opacity:1"
         offset="0"
         id="stop3994-6" />
      <stop
         style="stop-color:#dbdbdb;stop-opacity:1"
         offset="1"
         id="stop3996-7" />
    </linearGradient>
    <linearGradient
       id="linearGradient3992-54">
      <stop
         style="stop-color:#b5b5b5;stop-opacity:1"
         offset="0"
         id="stop3994-9" />
      <stop
         style="stop-color:#dbdbdb;stop-opacity:1"
         offset="1"
         id="stop3996-5" />
    </linearGradient>
    <linearGradient
       id="linearGradient3613">
      <stop
         style="stop-color:#b5b5b5;stop-opacity:1"
         offset="0"
         id="stop3615" />
      <stop
         style="stop-color:#dbdbdb;stop-opacity:1"
         offset="1"
         id="stop3617" />
    </linearGradient>
    <linearGradient
       inkscape:collect="always"
       xlink:href="#linearGradient3775"
       id="linearGradient3773"
       gradientUnits="userSpaceOnUse"
       gradientTransform="matrix(1,0,0,-1,799.5,596)"
       x1="76"
       y1="41"
       x2="76"
       y2="7" />
    <linearGradient
       id="linearGradient3775">
      <stop
         id="stop3777"
         offset="0"
         style="stop-color:#494949;stop-opacity:1" />
      <stop
         id="stop3779"
         offset="1"
         style="stop-color:#575757;stop-opacity:1" />
    </linearGradient>
    <linearGradient
       y2="7"
       x2="76"
       y1="41"
       x1="76"
       gradientTransform="matrix(0.5,0,0,-0.5,998.6795,340.48099)"
       gradientUnits="userSpaceOnUse"
       id="linearGradient3796"
       xlink:href="#linearGradient3775"
       inkscape:collect="always" />
  </defs>
  <sodipodi:namedview
     id="base"
     pagecolor="#000000"
     bordercolor="#666666"
     borderopacity="1.0"
     inkscape:pageopacity="1"
     inkscape:pageshadow="2"
     inkscape:zoom="4.7683716"
     inkscape:cx="103.06105"
     inkscape:cy="2.1876941"
     inkscape:document-units="px"
     inkscape:current-layer="g4401"
     showgrid="true"
     inkscape:window-width="1920"
     inkscape:window-height="1029"
     inkscape:window-x="0"
     inkscape:window-y="24"
     inkscape:window-maximized="1"
     showguides="true"
     inkscape:guide-bbox="true"
     inkscape:snap-global="true">
    <inkscape:grid
       type="xygrid"
       id="grid3799"
       empspacing="8"
       visible="true"
       enabled="true"
       snapvisiblegridlinesonly="true" />
  </sodipodi:namedview>
  <metadata
     id="metadata3294">
    <rdf:RDF>
      <cc:Work
         rdf:about="">
        <dc:format>image/svg+xml</dc:format>
        <dc:type
           rdf:resource="http://purl.org/dc/dcmitype/StillImage" />
        <dc:title></dc:title>
      </cc:Work>
    </rdf:RDF>
  </metadata>
  <g
     inkscape:label="Layer 1"
     inkscape:groupmode="layer"
     id="layer1"
     transform="translate(0,-1004.3622)">
    <g
       style="display:inline"
       transform="translate(-789,604.3622)"
       id="g4451">
      <g
         transform="matrix(2,0,0,2,-1195,-252)"
         id="g4401"
         style="display:inline">
        <rect
           y="326"
           x="-1016"
           height="24"
           width="24"
           id="rect4403"
           style="fill:none;stroke:none"
           transform="scale(-1,1)" />
        <path
           style="opacity:0.25;fill:#cccccc;fill-opacity:1;stroke:none;display:inline"
           d="m 999.5,332.5 0,1 5.5,0 4.5,0 c 0.25,0 0.4648,-0.007 0.6562,0 0.2872,0.0102 0.5103,0.0453 0.6875,0.10937 0.043,0.0164 0.087,0.0411 0.125,0.0625 0.044,0.0243 0.088,0.046 0.125,0.0781 0.011,0.01 0.021,0.0206 0.031,0.0312 0.092,0.091 0.151,0.21442 0.2031,0.375 0.01,0.0251 0.024,0.0511 0.031,0.0781 0.017,0.0644 0.034,0.14244 0.047,0.21875 0.02,0.11544 0.035,0.2461 0.047,0.39063 0.013,0.21176 0.023,0.41401 0.031,0.67187 0.012,0.3838 0.016,0.81195 0.016,1.29688 0,0.0681 0,0.11655 0,0.1875 l 0,2 0,0.10937 c 0,0.48613 0,0.92373 -0.016,1.3125 -0.01,0.27511 -0.019,0.49675 -0.031,0.71875 -8e-4,0.0145 9e-4,0.0324 0,0.0469 -0.014,0.16198 -0.038,0.2974 -0.062,0.42187 0,0.009 0,0.0226 0,0.0312 -0.023,0.11072 -0.059,0.21308 -0.094,0.29688 -0.038,0.0919 -0.086,0.17013 -0.1407,0.23437 -0.054,0.0643 -0.1138,0.11472 -0.1875,0.15625 -0.074,0.0415 -0.1542,0.07 -0.25,0.0937 -0.022,0.005 -0.039,0.0111 -0.062,0.0156 -0.018,0.004 -0.043,-0.003 -0.062,0 -0.096,0.0158 -0.21,0.0402 -0.3281,0.0469 -0.2206,0.0141 -0.4569,0.0156 -0.7656,0.0156 l -4.5,0 -5.5,0 0,1 -1.5,0 c -3,0 -3,-1 -3,-5 l 0,-1 c 0,-4 0,-5 3,-5 l 1.5,0 z m 12.9531,2.5 c 0.182,0.003 0.365,0.0107 0.5469,0.0156 l 0,5.96875 c -0.1819,0.005 -0.3649,0.0126 -0.5469,0.0156 7e-4,-0.009 -6e-4,-0.0219 0,-0.0312 0.023,-0.3189 0.041,-0.68185 0.047,-1.07813 10e-5,-0.009 -10e-5,-0.0219 0,-0.0312 0.01,-0.41015 0,-0.85937 0,-1.35937 l 0,-1 c 0,-0.51406 0.01,-0.97142 0,-1.39063 -0.01,-0.40353 -0.024,-0.75431 -0.047,-1.07812 -7e-4,-0.0108 8e-4,-0.0205 0,-0.0312 z"
           id="path4405-0"
           inkscape:connector-curvature="0"
           sodipodi:nodetypes="cccsccccccccccsscsccccccccccccscccsssscccccccccsscccc" />
        <path
           style="fill:#df382c;fill-opacity:1;stroke:none;display:inline"
           d="M 12 13 C 6 13 6 15 6 23 L 6 25 C 6 33 6 35 12 35 L 13 35 L 13 13 L 12 13 z "
           transform="matrix(0.5,0,0,0.5,992,326)"
           id="path4413-4" />
        <path
           inkscape:connector-curvature="0"
           style="opacity:0.5;fill:#cccccc;fill-opacity:1;stroke:none;display:inline"
           d="m 1009.5,332.5 c 3,0 3,1 3,5 l 0,1 c 0,4 0,5 -3,5 l -10,0 0,-1 10,0 c 2,0 2,0 2,-3.5 l 0,-2 c 0,-3.5 0,-3.5 -2,-3.5 l -10,0 0,-1 z"
           id="path4394"
           sodipodi:nodetypes="sssscccsscccs" />
        <path
           inkscape:connector-curvature="0"
           style="opacity:0.5;color:#000000;fill:#cccccc;fill-opacity:1;fill-rule:nonzero;stroke:none;stroke-width:2;marker:none;visibility:visible;display:inline;overflow:visible;enable-background:accumulate"
           d="M 1013.1562,335.01562 C 1013.7187,335.06252 1014,335.25 1014,336 l 0,4 c 0,0.80949 -0.3447,0.955 -1,0.98437 l 0,-5.96875 c 0.048,0.002 0.1116,-0.004 0.1562,0 z"
           id="rect4419" />
        <path
           sodipodi:type="inkscape:offset"
           inkscape:radius="0.48657581"
           inkscape:original="M 1003 335.5 L 1003 338 L 998.5 338 L 1004.5 340.5 L 1004.5 338 L 1009 338 L 1003 335.5 z "
           style="opacity:0.25;fill:#000000;fill-opacity:1;stroke:none;display:inline"
           id="path3049"
           d="m 1003,335 a 0.48662447,0.48662447 0 0 0 -0.5,0.5 l 0,2 -4,0 a 0.48662447,0.48662447 0 0 0 -0.1875,0.9375 l 6,2.5 A 0.48662447,0.48662447 0 0 0 1005,340.5 l 0,-2 4,0 a 0.48662447,0.48662447 0 0 0 0.1875,-0.9375 l -6,-2.5 A 0.48662447,0.48662447 0 0 0 1003,335 z" />
        <path
           sodipodi:nodetypes="ccccccc"
           inkscape:connector-curvature="0"
           id="path3847"
           d="m 1009,338 -6,-2.5 0,2.5 -4.49999,0 5.99999,2.5 0,-2.5 z"
           style="fill:#ffffff;fill-opacity:1;stroke:none;display:inline" />
      </g>
    </g>
  </g>
</svg>
