<?xml version="1.0" encoding="UTF-8" standalone="no"?>
<!-- Created with Inkscape (http://www.inkscape.org/) -->

<svg
   xmlns:dc="http://purl.org/dc/elements/1.1/"
   xmlns:cc="http://creativecommons.org/ns#"
   xmlns:rdf="http://www.w3.org/1999/02/22-rdf-syntax-ns#"
   xmlns:svg="http://www.w3.org/2000/svg"
   xmlns="http://www.w3.org/2000/svg"
   xmlns:xlink="http://www.w3.org/1999/xlink"
   xmlns:sodipodi="http://sodipodi.sourceforge.net/DTD/sodipodi-0.dtd"
   xmlns:inkscape="http://www.inkscape.org/namespaces/inkscape"
   width="90"
   height="90"
   id="svg3289"
   version="1.1"
   inkscape:version="0.48.3.1 r9886"
   sodipodi:docname="battery-100@30.svg">
  <defs
     id="defs3291">
    <linearGradient
       id="linearGradient3992">
      <stop
         style="stop-color:#b5b5b5;stop-opacity:1"
         offset="0"
         id="stop3994" />
      <stop
         style="stop-color:#dbdbdb;stop-opacity:1"
         offset="1"
         id="stop3996" />
    </linearGradient>
    <linearGradient
       id="linearGradient3992-5">
      <stop
         style="stop-color:#b5b5b5;stop-opacity:1"
         offset="0"
         id="stop3994-3" />
      <stop
         style="stop-color:#dbdbdb;stop-opacity:1"
         offset="1"
         id="stop3996-0" />
    </linearGradient>
    <linearGradient
       id="linearGradient3382">
      <stop
         style="stop-color:#b5b5b5;stop-opacity:1"
         offset="0"
         id="stop3384" />
      <stop
         style="stop-color:#dbdbdb;stop-opacity:1"
         offset="1"
         id="stop3386" />
    </linearGradient>
    <linearGradient
       id="linearGradient4091">
      <stop
         id="stop4093"
         offset="0"
         style="stop-color:#dbdbdb;stop-opacity:1;" />
      <stop
         id="stop4095"
         offset="1"
         style="stop-color:#b5b5b5;stop-opacity:1;" />
    </linearGradient>
    <linearGradient
       id="linearGradient3468">
      <stop
         id="stop3470"
         offset="0"
         style="stop-color:#dbdbdb;stop-opacity:1;" />
      <stop
         id="stop3472"
         offset="1"
         style="stop-color:#b5b5b5;stop-opacity:1;" />
    </linearGradient>
    <linearGradient
       inkscape:collect="always"
       xlink:href="#linearGradient3992-7"
       id="linearGradient4732"
       gradientUnits="userSpaceOnUse"
       gradientTransform="matrix(2,0,0,2,-392,-396.72437)"
       x1="208"
       y1="215.86218"
       x2="208"
       y2="204.86218" />
    <linearGradient
       id="linearGradient3992-7">
      <stop
         style="stop-color:#b5b5b5;stop-opacity:1"
         offset="0"
         id="stop3994-6" />
      <stop
         style="stop-color:#dbdbdb;stop-opacity:1"
         offset="1"
         id="stop3996-7" />
    </linearGradient>
    <linearGradient
       inkscape:collect="always"
       xlink:href="#linearGradient3775"
       id="linearGradient4158"
       gradientUnits="userSpaceOnUse"
       gradientTransform="matrix(2,0,0,1.9861112,-1983,-647.30555)"
       x1="1001.1268"
       y1="332"
       x2="1001.1268"
       y2="344" />
    <linearGradient
       id="linearGradient3992-54">
      <stop
         style="stop-color:#b5b5b5;stop-opacity:1"
         offset="0"
         id="stop3994-9" />
      <stop
         style="stop-color:#dbdbdb;stop-opacity:1"
         offset="1"
         id="stop3996-5" />
    </linearGradient>
    <linearGradient
       id="linearGradient3613">
      <stop
         style="stop-color:#b5b5b5;stop-opacity:1"
         offset="0"
         id="stop3615" />
      <stop
         style="stop-color:#dbdbdb;stop-opacity:1"
         offset="1"
         id="stop3617" />
    </linearGradient>
    <linearGradient
       inkscape:collect="always"
       xlink:href="#linearGradient3775"
       id="linearGradient3773"
       gradientUnits="userSpaceOnUse"
       gradientTransform="matrix(1,0,0,-1,799.5,596)"
       x1="76"
       y1="41"
       x2="76"
       y2="7" />
    <linearGradient
       id="linearGradient3775">
      <stop
         id="stop3777"
         offset="0"
         style="stop-color:#494949;stop-opacity:1" />
      <stop
         id="stop3779"
         offset="1"
         style="stop-color:#575757;stop-opacity:1" />
    </linearGradient>
    <linearGradient
       y2="7"
       x2="76"
       y1="41"
       x1="76"
       gradientTransform="matrix(0.5,0,0,-0.5,998.6795,340.48099)"
       gradientUnits="userSpaceOnUse"
       id="linearGradient3796"
       xlink:href="#linearGradient3775"
       inkscape:collect="always" />
    <clipPath
       clipPathUnits="userSpaceOnUse"
       id="clipPath3895">
      <rect
         y="314"
         x="1025"
         height="27"
         width="5.5"
         id="rect3897"
         style="opacity:0.6756757;color:#000000;fill:#ff00ff;fill-opacity:1;fill-rule:nonzero;stroke:none;stroke-width:6;marker:none;visibility:visible;display:inline;overflow:visible;enable-background:accumulate" />
    </clipPath>
    <clipPath
       clipPathUnits="userSpaceOnUse"
       id="clipPath3922">
      <g
         id="g3924"
         transform="translate(-45,30)">
        <path
           inkscape:connector-curvature="0"
           id="path3926"
           d="m 1023,335.5 2,0 0,2.5 -2,0 z"
           style="opacity:0.6756757;color:#000000;fill:#ff00ff;fill-opacity:1;fill-rule:nonzero;stroke:none;stroke-width:6;marker:none;visibility:visible;display:inline;overflow:visible;enable-background:accumulate" />
        <path
           inkscape:connector-curvature="0"
           id="path3928"
           d="m 1023,317 2,0 0,2.5 -2,0 z"
           style="opacity:0.6756757;color:#000000;fill:#ff00ff;fill-opacity:1;fill-rule:nonzero;stroke:none;stroke-width:6;marker:none;visibility:visible;display:inline;overflow:visible;enable-background:accumulate" />
        <path
           id="path3930"
           d="m 1003.8594,319 c -5.3594,0.0547 -5.3594,0.5 -5.3594,4 l 0,9 c 0,4 0,4 8,4 l 13,0 c 8,0 8,0 8,-4 l 0,-9 c 0,-4 0,-4 -8,-4 l -13,0 c -1,0 -1.875,-0.008 -2.6406,0 z"
           style="opacity:0.6756757;color:#000000;fill:#ff00ff;fill-opacity:1;fill-rule:nonzero;stroke:none;stroke-width:6;marker:none;visibility:visible;display:inline;overflow:visible;enable-background:accumulate"
           inkscape:connector-curvature="0" />
        <path
           id="path3932"
           d="m 1029.4688,321.53125 c 0.021,0.44727 0.031,0.9286 0.031,1.46875 l 0,9 c 0,0.54015 -0.01,1.02147 -0.031,1.46875 0.392,-0.0184 0.7323,-0.0501 1.0312,-0.0937 l 0,-11.75 c -0.2989,-0.0437 -0.6392,-0.0753 -1.0312,-0.0937 z"
           style="opacity:0.6756757;color:#000000;fill:#ff00ff;fill-opacity:1;fill-rule:nonzero;stroke:none;stroke-width:6;marker:none;visibility:visible;display:inline;overflow:visible;enable-background:accumulate"
           inkscape:connector-curvature="0" />
      </g>
    </clipPath>
  </defs>
  <sodipodi:namedview
     id="base"
     pagecolor="#000000"
     bordercolor="#666666"
     borderopacity="1.0"
     inkscape:pageopacity="1"
     inkscape:pageshadow="2"
     inkscape:zoom="9.3132258"
     inkscape:cx="43.849832"
     inkscape:cy="58.490126"
     inkscape:document-units="px"
     inkscape:current-layer="g4401"
     showgrid="true"
     inkscape:window-width="1920"
     inkscape:window-height="1029"
     inkscape:window-x="0"
     inkscape:window-y="24"
     inkscape:window-maximized="1"
     showguides="true"
     inkscape:guide-bbox="true"
     fit-margin-top="0"
     fit-margin-left="0"
     fit-margin-right="0"
     fit-margin-bottom="0">
    <inkscape:grid
       type="xygrid"
       id="grid3799"
       empspacing="8"
       visible="true"
       enabled="true"
       snapvisiblegridlinesonly="true"
       originx="0px"
       originy="0px" />
  </sodipodi:namedview>
  <metadata
     id="metadata3294">
    <rdf:RDF>
      <cc:Work
         rdf:about="">
        <dc:format>image/svg+xml</dc:format>
        <dc:type
           rdf:resource="http://purl.org/dc/dcmitype/StillImage" />
        <dc:title></dc:title>
      </cc:Work>
    </rdf:RDF>
  </metadata>
  <g
     inkscape:label="Layer 1"
     inkscape:groupmode="layer"
     id="layer1"
     transform="translate(0,-962.3622)">
    <g
       style="display:inline"
       transform="translate(-789,604.3622)"
       id="g4451">
      <g
         transform="matrix(2,0,0,2,-1195,-252)"
         id="g4401"
         style="display:inline">
        <rect
           y="305"
           x="-1037"
           height="45"
           width="45"
           id="rect4403-3"
           style="fill:none;stroke:none;display:inline"
           transform="scale(-1,1)" />
        <path
           id="path3804"
           style="opacity:0.5;fill:#cccccc;fill-opacity:1;stroke:none;display:inline"
           d="m 984.4688,351.53125 c 0.021,0.44727 0.031,0.9286 0.031,1.46875 l 0,9 c 0,0.54015 -0.01,1.02148 -0.031,1.46875 2.6419,-0.12411 3.0312,-0.69816 3.0312,-3.39063 l 0,-5.15625 c 0,-2.69246 -0.3893,-3.26651 -3.0312,-3.39062 z M 961.5,347 c -9,0 -10,0 -10,6 l 0,9 c 0,6 1,6 10,6 l 13,0 c 9,0 10,0 10,-6 l 0,-9 c 0,-6 -1,-6 -10,-6 z"
           inkscape:connector-curvature="0"
           clip-path="url(#clipPath3922)"
           transform="translate(45,-30)" />
        <path
           style="opacity:0.6756757;color:#000000;fill:#ff00ff;fill-opacity:1;fill-rule:nonzero;stroke:none;stroke-width:6;marker:none;visibility:visible;display:inline;overflow:visible;enable-background:accumulate"
           d="m 1030.5156,321.62495 c 0.2078,0.0309 0.395,0.0772 0.5625,0.125 -0.1669,-0.0475 -0.3556,-0.0942 -0.5625,-0.125 z"
           id="path3906" />
        <path
           style="opacity:0.6756757;color:#000000;fill:#ff00ff;fill-opacity:1;fill-rule:nonzero;stroke:none;stroke-width:6;marker:none;visibility:visible;display:inline;overflow:visible;enable-background:accumulate"
           d="m 1032.4375,323.68745 c 0.014,0.1415 0.039,0.27697 0.047,0.4375 -0.01,-0.15962 -0.033,-0.29681 -0.047,-0.4375 z"
           id="path3904" />
        <path
           style="opacity:0.6756757;color:#000000;fill:#ff00ff;fill-opacity:1;fill-rule:nonzero;stroke:none;stroke-width:6;marker:none;visibility:visible;display:inline;overflow:visible;enable-background:accumulate"
           d="m 1032.4845,330.87495 c -0.01,0.16053 -0.033,0.29599 -0.047,0.4375 0.014,-0.14069 0.039,-0.27788 0.047,-0.4375 z"
           id="path3902" />
        <path
           style="opacity:0.6756757;color:#000000;fill:#ff00ff;fill-opacity:1;fill-rule:nonzero;stroke:none;stroke-width:6;marker:none;visibility:visible;display:inline;overflow:visible;enable-background:accumulate"
           d="m 1031.0783,333.24995 c -0.1676,0.0478 -0.3548,0.0941 -0.5625,0.125 0.2068,-0.0308 0.3956,-0.0775 0.5625,-0.125 z"
           id="path3868" />
        <path
           style="opacity:0.5;fill:#cccccc;fill-opacity:1;stroke:none;display:inline"
           clip-path="url(#clipPath3895)"
           d="m 1006.5,317 c -9,0 -10,0 -10,6 l 0,9 c 0,6 1,6 10,6 l 13,0 c 9,0 10,0 10,-6 l 0,-9 c 0,-6 -1,-6 -10,-6 l -13,0 z m -2.6406,2 c 0.7656,-0.008 1.6406,0 2.6406,0 l 13,0 c 8,0 8,0 8,4 l 0,9 c 0,4 0,4 -8,4 l -13,0 c -8,0 -8,0 -8,-4 l 0,-9 c 0,-3.5 0,-3.94531 5.3594,-4 z"
           id="path3810"
           inkscape:connector-curvature="0" />
        <path
           style="opacity:1;fill:#cccccc;fill-opacity:1;stroke:none;display:inline"
           d="m 1030.5,321.625 0,11.75 c 1.7155,-0.25071 2,-1.00396 2,-3.29688 l 0,-5.15625 c 0,-2.2929 -0.2845,-3.04616 -2,-3.29687 z"
           id="path3820"
           inkscape:connector-curvature="0" />
        <path
           style="fill:#cccccc;fill-opacity:1;stroke:none;display:inline"
           d="m 961.5,317 c -9,0 -10,0 -10,6 l 0,9 c 0,6 1,6 10,6 l 13,0 c 9,0 10,0 10,-6 l 0,-9 c 0,-6 -1,-6 -10,-6 z"
           id="path3837"
           inkscape:connector-curvature="0"
           sodipodi:nodetypes="ccccccccc"
           clip-path="none"
           transform="translate(45,0)" />
        <g
           style="display:inline"
           id="g4038">
          <path
             style="opacity:0.12999998;fill:none;stroke:#000000;stroke-width:2;stroke-linecap:butt;stroke-linejoin:round;stroke-miterlimit:4;stroke-dasharray:none;display:inline"
             d="M 1024.5,327.49823 1011,322 l 0,5.5 -9.5,-0.002 13.5,5.50177 0,-5.5 z"
             id="path4036"
             inkscape:connector-curvature="0"
             sodipodi:nodetypes="ccccccc" />
          <path
             sodipodi:nodetypes="ccccccc"
             inkscape:connector-curvature="0"
             id="path4034"
             d="M 1024.5,327.49823 1011,322 l 0,5.5 -9.5,-0.002 13.5,5.50177 0,-5.5 z"
             style="opacity:0.12999998;fill:none;stroke:#000000;stroke-linecap:butt;stroke-linejoin:round;display:inline" />
          <path
             style="fill:#ffffff;fill-opacity:1;stroke:none;display:inline"
             d="M 1024.5,327.49823 1011,322 l 0,5.5 -9.5,-0.002 13.5,5.50177 0,-5.5 z"
             id="path3847"
             inkscape:connector-curvature="0"
             sodipodi:nodetypes="ccccccc" />
        </g>
      </g>
    </g>
  </g>
</svg>
