<?xml version="1.0" encoding="UTF-8" standalone="no"?>
<!-- Created with Inkscape (http://www.inkscape.org/) -->

<svg
   xmlns:dc="http://purl.org/dc/elements/1.1/"
   xmlns:cc="http://creativecommons.org/ns#"
   xmlns:rdf="http://www.w3.org/1999/02/22-rdf-syntax-ns#"
   xmlns:svg="http://www.w3.org/2000/svg"
   xmlns="http://www.w3.org/2000/svg"
   xmlns:xlink="http://www.w3.org/1999/xlink"
   xmlns:sodipodi="http://sodipodi.sourceforge.net/DTD/sodipodi-0.dtd"
   xmlns:inkscape="http://www.inkscape.org/namespaces/inkscape"
   width="90"
   height="90"
   id="svg3289"
   version="1.1"
   inkscape:version="0.48+devel r12504"
   sodipodi:docname="bluetooth.svg">
  <defs
     id="defs3291">
    <linearGradient
       id="linearGradient3992">
      <stop
         style="stop-color:#b5b5b5;stop-opacity:1"
         offset="0"
         id="stop3994" />
      <stop
         style="stop-color:#dbdbdb;stop-opacity:1"
         offset="1"
         id="stop3996" />
    </linearGradient>
    <linearGradient
       id="linearGradient3992-5">
      <stop
         style="stop-color:#b5b5b5;stop-opacity:1"
         offset="0"
         id="stop3994-3" />
      <stop
         style="stop-color:#dbdbdb;stop-opacity:1"
         offset="1"
         id="stop3996-0" />
    </linearGradient>
    <linearGradient
       id="linearGradient3382">
      <stop
         style="stop-color:#b5b5b5;stop-opacity:1"
         offset="0"
         id="stop3384" />
      <stop
         style="stop-color:#dbdbdb;stop-opacity:1"
         offset="1"
         id="stop3386" />
    </linearGradient>
    <radialGradient
       inkscape:collect="always"
       xlink:href="#linearGradient4091"
       id="radialGradient4450"
       gradientUnits="userSpaceOnUse"
       cx="155.69038"
       cy="203.5215"
       fx="155.69038"
       fy="203.5215"
       r="2" />
    <linearGradient
       id="linearGradient4091">
      <stop
         id="stop4093"
         offset="0"
         style="stop-color:#dbdbdb;stop-opacity:1;" />
      <stop
         id="stop4095"
         offset="1"
         style="stop-color:#b5b5b5;stop-opacity:1;" />
    </linearGradient>
    <linearGradient
       inkscape:collect="always"
       xlink:href="#linearGradient4091"
       id="linearGradient4452"
       gradientUnits="userSpaceOnUse"
       gradientTransform="matrix(1.5000015,0,0,1.5000015,-397.00123,-108.1814)"
       x1="793"
       y1="217.28406"
       x2="795"
       y2="217.28406" />
    <linearGradient
       id="linearGradient3468">
      <stop
         id="stop3470"
         offset="0"
         style="stop-color:#dbdbdb;stop-opacity:1;" />
      <stop
         id="stop3472"
         offset="1"
         style="stop-color:#b5b5b5;stop-opacity:1;" />
    </linearGradient>
    <linearGradient
       id="linearGradient3992-7">
      <stop
         style="stop-color:#b5b5b5;stop-opacity:1"
         offset="0"
         id="stop3994-6" />
      <stop
         style="stop-color:#dbdbdb;stop-opacity:1"
         offset="1"
         id="stop3996-7" />
    </linearGradient>
    <clipPath
       clipPathUnits="userSpaceOnUse"
       id="clipPath3824-3">
      <path
         style="opacity:0.58108108;color:#000000;fill:#ff0000;fill-opacity:1;fill-rule:nonzero;stroke:none;stroke-width:4;marker:none;visibility:visible;display:inline;overflow:visible;enable-background:accumulate"
         d="m 205,183.36218 0,33 27,0 0,-33 L 205,183.36218 z m 12.5625,4.40625 1.60937,1.57812 4.6875,4.6875 0.64063,0.67188 -0.64063,0.67187 -4.42187,4.42188 0,0.125 4.42187,4.42187 0.64063,0.67188 -0.64063,0.67187 -4.6875,4.6875 -1.60937,1.57813 0,-2.25 0,-8.03125 -4.01563,4.01562 -1.34375,-1.34375 4.48438,-4.48437 -4.48438,-4.48438 1.34375,-1.34375 4.01563,4.01563 0,-8.03125 L 217.5625,187.76843 z m 1.875,4.53125 0,4.8125 2.40625,-2.40625 L 219.4375,192.29968 z m 0,10.3125 0,4.8125 2.40625,-2.40625 L 219.4375,202.61218 Z"
         id="path3826-8"
         inkscape:connector-curvature="0" />
    </clipPath>
    <clipPath
       id="clipPath3824-3-5"
       clipPathUnits="userSpaceOnUse">
      <path
         inkscape:connector-curvature="0"
         id="path3826-8-8"
         d="m 205,183.36218 0,33 27,0 0,-33 -27,0 z m 12.5625,4.40625 1.60937,1.57812 4.6875,4.6875 0.64063,0.67188 -0.64063,0.67187 -4.42187,4.42188 0,0.125 4.42187,4.42187 0.64063,0.67188 -0.64063,0.67187 -4.6875,4.6875 -1.60937,1.57813 0,-2.25 0,-8.03125 -4.01563,4.01562 -1.34375,-1.34375 4.48438,-4.48437 -4.48438,-4.48438 1.34375,-1.34375 4.01563,4.01563 0,-8.03125 0,-2.25 z m 1.875,4.53125 0,4.8125 2.40625,-2.40625 -2.40625,-2.40625 z m 0,10.3125 0,4.8125 2.40625,-2.40625 -2.40625,-2.40625 z"
         style="opacity:0.58108108;color:#000000;fill:#ff0000;fill-opacity:1;fill-rule:nonzero;stroke:none;stroke-width:4;marker:none;visibility:visible;display:inline;overflow:visible;enable-background:accumulate" />
    </clipPath>
  </defs>
  <sodipodi:namedview
     id="base"
     pagecolor="#ffffff"
     bordercolor="#666666"
     borderopacity="1.0"
     inkscape:pageopacity="0.0"
     inkscape:pageshadow="2"
     inkscape:zoom="7.9580788"
     inkscape:cx="2.8461663"
     inkscape:cy="34.2545"
     inkscape:document-units="px"
     inkscape:current-layer="layer1"
     showgrid="true"
     inkscape:window-width="1920"
     inkscape:window-height="1029"
     inkscape:window-x="0"
     inkscape:window-y="24"
     inkscape:window-maximized="1"
     fit-margin-top="0"
     fit-margin-left="0"
     fit-margin-right="0"
     fit-margin-bottom="0">
    <inkscape:grid
       type="xygrid"
       id="grid3774"
       empspacing="6"
       visible="true"
       enabled="true"
       snapvisiblegridlinesonly="true"
       originx="0px"
       originy="3.4375034e-08px" />
  </sodipodi:namedview>
  <metadata
     id="metadata3294">
    <rdf:RDF>
      <cc:Work
         rdf:about="">
        <dc:format>image/svg+xml</dc:format>
        <dc:type
           rdf:resource="http://purl.org/dc/dcmitype/StillImage" />
        <dc:title></dc:title>
      </cc:Work>
    </rdf:RDF>
  </metadata>
  <g
     inkscape:label="Layer 1"
     inkscape:groupmode="layer"
     id="layer1"
     transform="translate(0,-962.3622)">
    <g
       style="display:inline"
       id="g4662"
       transform="translate(-136.00002,900.00003)">
      <rect
         style="fill:none;stroke:none"
         id="rect4509-13"
         width="90"
         height="90"
         x="136.00002"
         y="62.362175" />
      <path
         style="fill:#cccccc;fill-opacity:1;stroke:none"
         d="m 179.125,83.173828 0,4.5 0,16.062502 -8.03125,-8.031252 -2.6875,2.6875 8.96875,8.968752 -8.96875,8.96875 2.6875,2.6875 8.03125,-8.03125 0,16.0625 0,4.5 3.21875,-3.15625 9.375,-9.375 1.28125,-1.34375 -1.28125,-1.34375 -8.84375,-8.84375 0,-0.25 8.84375,-8.843752 1.28125,-1.34375 -1.28125,-1.34375 -9.375,-9.375 -3.21875,-3.15625 z m 3.75,9.0625 4.8125,4.8125 -4.8125,4.812502 0,-9.625002 z m 0,20.625002 4.8125,4.8125 -4.8125,4.8125 0,-9.625 z"
         id="path4671"
         inkscape:connector-curvature="0" />
      <path
         transform="matrix(2,0,0,2,-255.99999,-292.36218)"
         style="fill:#cccccc;fill-opacity:1;stroke:none;display:none"
         d="m 218,184.86218 c -9,0 -10,0 -10,6 l 0,18 c 0,6 1,6 10,6 l 1,0 c 9,0 10,0 10,-6 l 0,-18 c 0,-6 -1,-6 -10,-6 z"
         id="path3011-0-7"
         inkscape:connector-curvature="0"
         sodipodi:nodetypes="ccccccccc"
         clip-path="url(#clipPath3824-3-5)" />
    </g>
  </g>
  <g
     inkscape:groupmode="layer"
     id="layer2"
     inkscape:label="Clips"
     style="display:none"
     sodipodi:insensitive="true">
    <path
       transform="matrix(2,0,0,2,-392,-354.72436)"
       style="fill:#cccccc;fill-opacity:1;stroke:none;display:inline"
       d="m 218,184.86218 c -9,0 -10,0 -10,6 l 0,18 c 0,6 1,6 10,6 l 1,0 c 9,0 10,0 10,-6 l 0,-18 C 229,184.86218 228,184.86218 219,184.86218 Z"
       id="path3011-0"
       inkscape:connector-curvature="0"
       sodipodi:nodetypes="ccccccccc"
       clip-path="url(#clipPath3824-3)" />
  </g>
</svg>
