<?xml version="1.0" encoding="UTF-8" standalone="no"?>
<!-- Created with Inkscape (http://www.inkscape.org/) -->

<svg
   xmlns:dc="http://purl.org/dc/elements/1.1/"
   xmlns:cc="http://creativecommons.org/ns#"
   xmlns:rdf="http://www.w3.org/1999/02/22-rdf-syntax-ns#"
   xmlns:svg="http://www.w3.org/2000/svg"
   xmlns="http://www.w3.org/2000/svg"
   xmlns:xlink="http://www.w3.org/1999/xlink"
   xmlns:sodipodi="http://sodipodi.sourceforge.net/DTD/sodipodi-0.dtd"
   xmlns:inkscape="http://www.inkscape.org/namespaces/inkscape"
   width="90"
   height="90"
   id="svg3289"
   version="1.1"
   inkscape:version="0.48+devel r12221"
   sodipodi:docname="messages-new.svg">
  <defs
     id="defs3291">
    <linearGradient
       id="linearGradient3992">
      <stop
         style="stop-color:#b5b5b5;stop-opacity:1"
         offset="0"
         id="stop3994" />
      <stop
         style="stop-color:#dbdbdb;stop-opacity:1"
         offset="1"
         id="stop3996" />
    </linearGradient>
    <linearGradient
       id="linearGradient3992-5">
      <stop
         style="stop-color:#b5b5b5;stop-opacity:1"
         offset="0"
         id="stop3994-3" />
      <stop
         style="stop-color:#dbdbdb;stop-opacity:1"
         offset="1"
         id="stop3996-0" />
    </linearGradient>
    <linearGradient
       id="linearGradient3382">
      <stop
         style="stop-color:#b5b5b5;stop-opacity:1"
         offset="0"
         id="stop3384" />
      <stop
         style="stop-color:#dbdbdb;stop-opacity:1"
         offset="1"
         id="stop3386" />
    </linearGradient>
    <linearGradient
       id="linearGradient4091">
      <stop
         id="stop4093"
         offset="0"
         style="stop-color:#dbdbdb;stop-opacity:1;" />
      <stop
         id="stop4095"
         offset="1"
         style="stop-color:#b5b5b5;stop-opacity:1;" />
    </linearGradient>
    <linearGradient
       id="linearGradient3468">
      <stop
         id="stop3470"
         offset="0"
         style="stop-color:#dbdbdb;stop-opacity:1;" />
      <stop
         id="stop3472"
         offset="1"
         style="stop-color:#b5b5b5;stop-opacity:1;" />
    </linearGradient>
    <linearGradient
       id="linearGradient3992-7">
      <stop
         style="stop-color:#b5b5b5;stop-opacity:1"
         offset="0"
         id="stop3994-6" />
      <stop
         style="stop-color:#dbdbdb;stop-opacity:1"
         offset="1"
         id="stop3996-7" />
    </linearGradient>
    <linearGradient
       inkscape:collect="always"
       xlink:href="#linearGradient3992-54"
       id="linearGradient4158"
       gradientUnits="userSpaceOnUse"
       gradientTransform="matrix(2,0,0,1.9861112,-1031,-247.30555)"
       x1="1001.1268"
       y1="332"
       x2="1001.1268"
       y2="344" />
    <linearGradient
       id="linearGradient3992-54">
      <stop
         style="stop-color:#b5b5b5;stop-opacity:1"
         offset="0"
         id="stop3994-9" />
      <stop
         style="stop-color:#dbdbdb;stop-opacity:1"
         offset="1"
         id="stop3996-5" />
    </linearGradient>
    <linearGradient
       inkscape:collect="always"
       xlink:href="#linearGradient3992-54"
       id="linearGradient4428"
       gradientUnits="userSpaceOnUse"
       gradientTransform="matrix(2,0,0,1.9861112,-1031,-247.30555)"
       x1="1010"
       y1="344"
       x2="1010"
       y2="332" />
    <linearGradient
       id="linearGradient3613">
      <stop
         style="stop-color:#b5b5b5;stop-opacity:1"
         offset="0"
         id="stop3615" />
      <stop
         style="stop-color:#dbdbdb;stop-opacity:1"
         offset="1"
         id="stop3617" />
    </linearGradient>
    <linearGradient
       id="linearGradient4091-5">
      <stop
         id="stop4093-8"
         offset="0"
         style="stop-color:#dbdbdb;stop-opacity:1;" />
      <stop
         id="stop4095-6"
         offset="1"
         style="stop-color:#b5b5b5;stop-opacity:1;" />
    </linearGradient>
    <linearGradient
       id="linearGradient3747">
      <stop
         id="stop3749"
         offset="0"
         style="stop-color:#dbdbdb;stop-opacity:1;" />
      <stop
         id="stop3751"
         offset="1"
         style="stop-color:#b5b5b5;stop-opacity:1;" />
    </linearGradient>
  </defs>
  <sodipodi:namedview
     id="base"
     pagecolor="#000000"
     bordercolor="#666666"
     borderopacity="1.0"
     inkscape:pageopacity="1"
     inkscape:pageshadow="2"
     inkscape:zoom="11.258999"
     inkscape:cx="23.154239"
     inkscape:cy="52.144534"
     inkscape:document-units="px"
     inkscape:current-layer="g4451"
     showgrid="true"
     inkscape:window-width="1920"
     inkscape:window-height="1029"
     inkscape:window-x="0"
     inkscape:window-y="24"
     inkscape:window-maximized="1"
     fit-margin-top="0"
     fit-margin-left="0"
     fit-margin-right="0"
     fit-margin-bottom="0"
     inkscape:snap-grids="false"
     showguides="true"
     inkscape:guide-bbox="true">
    <inkscape:grid
       type="xygrid"
       id="grid3020"
       empspacing="8"
       visible="true"
       enabled="true"
       snapvisiblegridlinesonly="true"
       originx="0px"
       originy="0px" />
  </sodipodi:namedview>
  <metadata
     id="metadata3294">
    <rdf:RDF>
      <cc:Work
         rdf:about="">
        <dc:format>image/svg+xml</dc:format>
        <dc:type
           rdf:resource="http://purl.org/dc/dcmitype/StillImage" />
        <dc:title />
      </cc:Work>
    </rdf:RDF>
  </metadata>
  <g
     inkscape:label="Layer 1"
     inkscape:groupmode="layer"
     id="layer1"
     transform="translate(0,-962.3622)">
    <g
       style="display:inline"
       transform="translate(-789,604.3622)"
       id="g4451">
      <path
         style="opacity:0.25000000000000000;fill:#19b6ee;fill-opacity:1;stroke:none;display:inline"
         d="m 804.59375,387.03125 c -0.21156,0.75197 -0.34449,1.63151 -0.4375,2.625 l 25.83637,23.78873 c 2.36853,2.40214 5.55435,2.45126 8.33909,-0.0135 L 863.8437,389.875 c -0.0845,-0.9996 -0.20949,-1.86321 -0.40625,-2.625 l -26.09375,24.09375 c -1.94411,1.59628 -4.33186,1.62741 -6.37495,0 z"
         id="path3871"
         inkscape:connector-curvature="0"
         sodipodi:nodetypes="ccccccccc" />
      <rect
         style="fill:none;stroke:none"
         id="rect3332"
         width="90"
         height="90"
         x="789"
         y="358" />
      <path
         style="fill:#19b6ee;fill-opacity:1;stroke:none;display:inline"
         clip-path="none"
         d="M 35 24 C 21.526921 24 17.009533 23.998975 15.59375 29.03125 L 41.96875 53.34375 C 44.06731 55.01811 46.16215 55.19869 48.34375 53.34375 L 74.4375 29.28125 C 73.093905 24.017223 68.67681 24 55 24 L 35 24 z M 15.03125 33.96875 C 15.013988 34.602566 15 35.283081 15 36 L 15 54 C 15 66 17 66 35 66 L 55 66 C 73 66 75 66 75 54 L 75 36 C 75 35.393351 74.980782 34.828112 74.96875 34.28125 L 61.15625 47 L 73.84375 61.65625 L 58.75 49.21875 L 51.09375 56.25 L 51.03125 56.28125 C 49.34789 57.94287 47.34631 59.31751 45.21875 59.3125 C 43.07287 59.3085 41.04899 57.93476 39.28125 56.28125 L 31.59375 49.21875 L 16.5 61.65625 L 29.15625 47 L 15.03125 33.96875 z "
         transform="translate(789,358)"
         id="path3011" />
      <path
         style="opacity:0.50000000000000000;color:#000000;fill:#19b6ee;fill-opacity:1;fill-rule:nonzero;stroke:none;stroke-width:6;marker:none;visibility:visible;display:inline;overflow:visible;enable-background:accumulate"
         d="M 15.1875 31.6875 C 15.118804 32.386821 15.054131 33.128653 15.03125 33.96875 L 29.15625 47 L 16.5 61.65625 L 31.59375 49.21875 L 39.28125 56.28125 C 41.04899 57.93476 43.07287 59.3085 45.21875 59.3125 C 45.48469 59.31313 45.73837 59.2903 46 59.25 C 47.30816 59.04823 48.57471 58.3749 49.71875 57.46875 C 50.17636 57.10629 50.61041 56.69666 51.03125 56.28125 L 51.09375 56.25 L 58.75 49.21875 L 73.84375 61.65625 L 61.15625 47 L 74.96875 34.28125 C 74.94985 33.4243 74.90505 32.65395 74.84375 31.9375 L 74.4375 32.28125 L 57.53125 47.875 L 49.9375 54.875 L 49.34375 55.4375 C 46.55901 57.90226 43.36853 57.83964 41 55.4375 L 15.59375 32.03125 L 15.1875 31.6875 z "
         transform="translate(789,358)"
         id="path3851" />
    </g>
  </g>
  <g
     inkscape:groupmode="layer"
     id="layer2"
     inkscape:label="Shapes"
     style="display:none"
     sodipodi:insensitive="true">
    <path
       transform="matrix(2,0,0,2,-392,-354.72436)"
       style="fill:#ff00ff;fill-opacity:1;stroke:none;display:inline"
       d="m 213.5,189.36218 c -9,0 -10,0 -10,6 l 0,9 c 0,6 1,6 10,6 l 10,0 c 9,0 10,0 10,-6 l 0,-9 C 233.5,189.36218 232.5,189.36218 223.5,189.36218 Z"
       id="path3011-4"
       inkscape:connector-curvature="0"
       sodipodi:nodetypes="ccccccccc"
       clip-path="none" />
    <path
       sodipodi:nodetypes="cccccccccccccccccccccc"
       inkscape:connector-curvature="0"
       id="path3804-1"
       d="m 5.5,19 0,52 79,0 L 84.5,19 z m 7.03124,7.1875 29.4375,27.15626 c 2.09856,1.67436 4.19326,1.85494 6.37486,0 L 77.81234,26.1875 80.5311,29.15626 61.1561,47 73.8436,61.65626 58.74984,49.21876 51.0936,56.25 51.0312,56.2812 c -1.68336,1.66162 -3.68494,3.03626 -5.8125,3.03126 -2.14588,-0.004 -4.16976,-1.37774 -5.9375,-3.03126 L 31.5937,49.2187 16.5,61.65626 29.15624,47 9.8125,29.15626 Z"
       style="color:#000000;fill:#0000ff;fill-opacity:1;fill-rule:nonzero;stroke:none;stroke-width:6;marker:none;visibility:visible;display:inline;overflow:visible;enable-background:accumulate" />
  </g>
</svg>
