<?xml version="1.0" encoding="UTF-8" standalone="no"?>
<!-- Created with Inkscape (http://www.inkscape.org/) -->

<svg
   xmlns:dc="http://purl.org/dc/elements/1.1/"
   xmlns:cc="http://creativecommons.org/ns#"
   xmlns:rdf="http://www.w3.org/1999/02/22-rdf-syntax-ns#"
   xmlns:svg="http://www.w3.org/2000/svg"
   xmlns="http://www.w3.org/2000/svg"
   xmlns:xlink="http://www.w3.org/1999/xlink"
   xmlns:sodipodi="http://sodipodi.sourceforge.net/DTD/sodipodi-0.dtd"
   xmlns:inkscape="http://www.inkscape.org/namespaces/inkscape"
   width="48"
   height="48"
   id="svg3289"
   version="1.1"
   inkscape:version="0.48.3.1 r9886"
   sodipodi:docname="indicator_new-message_48x48px.svg">
  <defs
     id="defs3291">
    <linearGradient
       id="linearGradient3992">
      <stop
         style="stop-color:#b5b5b5;stop-opacity:1"
         offset="0"
         id="stop3994" />
      <stop
         style="stop-color:#dbdbdb;stop-opacity:1"
         offset="1"
         id="stop3996" />
    </linearGradient>
    <linearGradient
       id="linearGradient3992-5">
      <stop
         style="stop-color:#b5b5b5;stop-opacity:1"
         offset="0"
         id="stop3994-3" />
      <stop
         style="stop-color:#dbdbdb;stop-opacity:1"
         offset="1"
         id="stop3996-0" />
    </linearGradient>
    <linearGradient
       id="linearGradient3382">
      <stop
         style="stop-color:#b5b5b5;stop-opacity:1"
         offset="0"
         id="stop3384" />
      <stop
         style="stop-color:#dbdbdb;stop-opacity:1"
         offset="1"
         id="stop3386" />
    </linearGradient>
    <linearGradient
       id="linearGradient4091">
      <stop
         id="stop4093"
         offset="0"
         style="stop-color:#dbdbdb;stop-opacity:1;" />
      <stop
         id="stop4095"
         offset="1"
         style="stop-color:#b5b5b5;stop-opacity:1;" />
    </linearGradient>
    <linearGradient
       id="linearGradient3468">
      <stop
         id="stop3470"
         offset="0"
         style="stop-color:#dbdbdb;stop-opacity:1;" />
      <stop
         id="stop3472"
         offset="1"
         style="stop-color:#b5b5b5;stop-opacity:1;" />
    </linearGradient>
    <linearGradient
       id="linearGradient3992-7">
      <stop
         style="stop-color:#b5b5b5;stop-opacity:1"
         offset="0"
         id="stop3994-6" />
      <stop
         style="stop-color:#dbdbdb;stop-opacity:1"
         offset="1"
         id="stop3996-7" />
    </linearGradient>
    <linearGradient
       inkscape:collect="always"
       xlink:href="#linearGradient3992-54"
       id="linearGradient4158"
       gradientUnits="userSpaceOnUse"
       gradientTransform="matrix(2,0,0,1.9861112,-1031,-247.30555)"
       x1="1001.1268"
       y1="332"
       x2="1001.1268"
       y2="344" />
    <linearGradient
       id="linearGradient3992-54">
      <stop
         style="stop-color:#b5b5b5;stop-opacity:1"
         offset="0"
         id="stop3994-9" />
      <stop
         style="stop-color:#dbdbdb;stop-opacity:1"
         offset="1"
         id="stop3996-5" />
    </linearGradient>
    <linearGradient
       inkscape:collect="always"
       xlink:href="#linearGradient3992-54"
       id="linearGradient4428"
       gradientUnits="userSpaceOnUse"
       gradientTransform="matrix(2,0,0,1.9861112,-1031,-247.30555)"
       x1="1010"
       y1="344"
       x2="1010"
       y2="332" />
    <linearGradient
       id="linearGradient3613">
      <stop
         style="stop-color:#b5b5b5;stop-opacity:1"
         offset="0"
         id="stop3615" />
      <stop
         style="stop-color:#dbdbdb;stop-opacity:1"
         offset="1"
         id="stop3617" />
    </linearGradient>
    <linearGradient
       id="linearGradient4091-5">
      <stop
         id="stop4093-8"
         offset="0"
         style="stop-color:#dbdbdb;stop-opacity:1;" />
      <stop
         id="stop4095-6"
         offset="1"
         style="stop-color:#b5b5b5;stop-opacity:1;" />
    </linearGradient>
    <linearGradient
       id="linearGradient3747">
      <stop
         id="stop3749"
         offset="0"
         style="stop-color:#dbdbdb;stop-opacity:1;" />
      <stop
         id="stop3751"
         offset="1"
         style="stop-color:#b5b5b5;stop-opacity:1;" />
    </linearGradient>
  </defs>
  <sodipodi:namedview
     id="base"
     pagecolor="#000000"
     bordercolor="#666666"
     borderopacity="1.0"
     inkscape:pageopacity="1"
     inkscape:pageshadow="2"
     inkscape:zoom="9.3132257"
     inkscape:cx="28.904294"
     inkscape:cy="2.248186"
     inkscape:document-units="px"
     inkscape:current-layer="g4451"
     showgrid="false"
     inkscape:window-width="1920"
     inkscape:window-height="1029"
     inkscape:window-x="0"
     inkscape:window-y="24"
     inkscape:window-maximized="1" />
  <metadata
     id="metadata3294">
    <rdf:RDF>
      <cc:Work
         rdf:about="">
        <dc:format>image/svg+xml</dc:format>
        <dc:type
           rdf:resource="http://purl.org/dc/dcmitype/StillImage" />
        <dc:title />
      </cc:Work>
    </rdf:RDF>
  </metadata>
  <g
     inkscape:label="Layer 1"
     inkscape:groupmode="layer"
     id="layer1"
     transform="translate(0,-1004.3622)">
    <g
       style="display:inline"
       transform="translate(-789,604.3622)"
       id="g4451">
      <path
         style="color:#000000;fill:#cccccc;fill-opacity:1;fill-rule:nonzero;stroke:none;stroke-width:1;marker:none;visibility:visible;display:inline;overflow:visible;enable-background:accumulate"
         d="m 803,413 c -3.5797,0 -5.01127,0.72034 -5.59375,2.78125 5.39997,5.03167 11.09052,10.48955 12.71875,11.8125 0.96835,0.78678 1.53653,1.14375 1.875,1.28125 0.33847,0.13745 0.5,0.21875 1,0.21875 0.5,0 0.66153,-0.0813 1,-0.21875 0.33847,-0.1375 0.90665,-0.49447 1.875,-1.28125 1.62813,-1.32286 7.32327,-6.78302 12.71875,-11.8125 C 828.01127,413.72034 826.5797,413 823,413 l -20,0 z m -5.9375,5 C 796.9914,419.10572 797,420.41417 797,422 l 0,4.125 c 0,6.98302 0,8.875 6,8.875 l 20,0 c 3.16237,0 4.63642,-0.56249 5.34375,-2.09375 l -7.96875,-6.875 c -2.04995,1.91059 -3.7482,3.45166 -4.5,4.0625 -0.96835,0.78678 -1.53653,1.14375 -1.875,1.28125 -0.33847,0.13745 -0.5,0.21875 -1,0.21875 -0.5,0 -0.66153,-0.0813 -1,-0.21875 -0.33847,-0.1375 -0.90665,-0.49447 -1.875,-1.28125 -0.74959,-0.60905 -2.42824,-2.16056 -4.46875,-4.0625 l -7.96875,6.90625 6.875,-7.90625 c -2.27875,-2.13147 -4.89604,-4.60735 -7.5,-7.03125 z m 31.28125,14.90625 C 828.97844,431.53223 829,429.37994 829,426.125 L 829,422 c 0,-1.58583 0.009,-2.89428 -0.0625,-4 -2.56806,2.39152 -5.14629,4.82341 -7.40625,6.9375 l 6.8125,7.96875 z M 808.1875,427.375 c 0.83356,0.76054 1.54355,1.39867 1.9375,1.71875 -0.41388,-0.33628 -1.07437,-0.92842 -1.9375,-1.71875 z"
         id="path3330"
         inkscape:connector-curvature="0" />
      <rect
         style="fill:none;stroke:none"
         id="rect3332"
         width="48"
         height="48"
         x="789"
         y="400" />
      <path
         inkscape:connector-curvature="0"
         id="path3334"
         d="m 803,413 c -3.65367,0 -5.06627,0.7161 -5.625,2.84375 5.7355,5.32454 11.0142,10.33965 12.75,11.75 0.96835,0.78678 1.53653,1.14375 1.875,1.28125 0.33847,0.1375 0.5,0.21875 1,0.21875 0.5,0 0.66153,-0.0813 1,-0.21875 0.33847,-0.1375 0.90665,-0.49447 1.875,-1.28125 1.73569,-1.41025 7.02075,-6.42851 12.75,-11.75 C 828.05702,413.74803 826.625,413 823,413 l -20,0 z"
         style="color:#000000;fill:#cccccc;fill-opacity:1;fill-rule:nonzero;stroke:none;stroke-width:1;marker:none;visibility:visible;display:inline;overflow:visible;enable-background:accumulate" />
      <path
         inkscape:connector-curvature="0"
         id="path3336"
         d="m 797.40625,415.78125 c -0.10753,0.38044 -0.19317,0.80486 -0.25,1.28125 5.50775,5.12837 11.31324,10.68614 12.96875,12.03125 0.96835,0.78678 1.53653,1.14375 1.875,1.28125 0.33847,0.1375 0.5,0.21875 1,0.21875 0.5,0 0.66153,-0.0813 1,-0.21875 0.33847,-0.1375 0.90665,-0.49447 1.875,-1.28125 1.6554,-1.34502 7.46589,-6.90526 12.96875,-12.03125 -0.0568,-0.47639 -0.14247,-0.90081 -0.25,-1.28125 -5.39548,5.02948 -11.09062,10.48964 -12.71875,11.8125 -0.96835,0.78678 -1.53653,1.14375 -1.875,1.28125 -0.33847,0.13745 -0.5,0.21875 -1,0.21875 -0.5,0 -0.66153,-0.0813 -1,-0.21875 -0.33847,-0.1375 -0.90665,-0.49447 -1.875,-1.28125 -1.62823,-1.32295 -7.31878,-6.78083 -12.71875,-11.8125 z"
         style="opacity:0.2;color:#000000;fill:#c8c8c8;fill-opacity:1;fill-rule:nonzero;stroke:none;stroke-width:1;marker:none;visibility:visible;display:inline;overflow:visible;enable-background:accumulate" />
      <path
         style="opacity:0.5;fill:#cccccc;stroke:none;display:inline;fill-opacity:1"
         d="M 8.15625 17.0625 C 8.11585 17.36444 8.0837 17.6604 8.0625 18 C 10.666461 20.423901 13.283754 22.899785 15.5625 25.03125 L 8.6875 32.9375 L 16.65625 26.03125 C 18.696763 27.933191 20.375407 29.484703 21.125 30.09375 C 22.09335 30.88053 22.66153 31.2375 23 31.375 C 23.33847 31.5125 23.5 31.59375 24 31.59375 C 24.5 31.59375 24.66153 31.51245 25 31.375 C 25.33847 31.2375 25.90665 30.88053 26.875 30.09375 C 27.626796 29.482914 29.325046 27.941841 31.375 26.03125 L 39.34375 32.90625 L 32.53125 24.9375 C 34.791206 22.823407 37.369436 20.391519 39.9375 18 C 39.9162 17.6604 39.88415 17.36444 39.84375 17.0625 C 37.14278 19.578491 34.383987 22.199566 32.0625 24.375 L 30.8125 25.53125 C 29.038084 27.185444 27.5554 28.540922 26.875 29.09375 C 25.90665 29.88053 25.33847 30.2375 25 30.375 C 24.66153 30.51245 24.5 30.59375 24 30.59375 C 23.5 30.59375 23.33847 30.51245 23 30.375 C 22.66153 30.2375 22.09335 29.88053 21.125 29.09375 C 20.448883 28.544402 18.976274 27.200926 17.21875 25.5625 L 16.1875 24.59375 C 16.14146 24.550631 16.108918 24.512241 16.0625 24.46875 C 13.721364 22.275235 10.898942 19.616272 8.15625 17.0625 z "
         transform="translate(789,400)"
         id="path3338" />
    </g>
  </g>
</svg>
