<?xml version="1.0" encoding="UTF-8" standalone="no"?>
<!-- Created with Inkscape (http://www.inkscape.org/) -->

<svg
   xmlns:dc="http://purl.org/dc/elements/1.1/"
   xmlns:cc="http://creativecommons.org/ns#"
   xmlns:rdf="http://www.w3.org/1999/02/22-rdf-syntax-ns#"
   xmlns:svg="http://www.w3.org/2000/svg"
   xmlns="http://www.w3.org/2000/svg"
   xmlns:xlink="http://www.w3.org/1999/xlink"
   xmlns:sodipodi="http://sodipodi.sourceforge.net/DTD/sodipodi-0.dtd"
   xmlns:inkscape="http://www.inkscape.org/namespaces/inkscape"
   width="48"
   height="48"
   id="svg3289"
   version="1.1"
   inkscape:version="0.48.3.1 r9886"
   sodipodi:docname="indicator_3g_48x48px.svg">
  <defs
     id="defs3291">
    <linearGradient
       id="linearGradient3992">
      <stop
         style="stop-color:#b5b5b5;stop-opacity:1"
         offset="0"
         id="stop3994" />
      <stop
         style="stop-color:#dbdbdb;stop-opacity:1"
         offset="1"
         id="stop3996" />
    </linearGradient>
    <linearGradient
       id="linearGradient3992-5">
      <stop
         style="stop-color:#b5b5b5;stop-opacity:1"
         offset="0"
         id="stop3994-3" />
      <stop
         style="stop-color:#dbdbdb;stop-opacity:1"
         offset="1"
         id="stop3996-0" />
    </linearGradient>
    <linearGradient
       id="linearGradient3382">
      <stop
         style="stop-color:#b5b5b5;stop-opacity:1"
         offset="0"
         id="stop3384" />
      <stop
         style="stop-color:#dbdbdb;stop-opacity:1"
         offset="1"
         id="stop3386" />
    </linearGradient>
    <radialGradient
       inkscape:collect="always"
       xlink:href="#linearGradient4091"
       id="radialGradient4450"
       gradientUnits="userSpaceOnUse"
       cx="155.69038"
       cy="203.5215"
       fx="155.69038"
       fy="203.5215"
       r="2" />
    <linearGradient
       id="linearGradient4091">
      <stop
         id="stop4093"
         offset="0"
         style="stop-color:#dbdbdb;stop-opacity:1;" />
      <stop
         id="stop4095"
         offset="1"
         style="stop-color:#b5b5b5;stop-opacity:1;" />
    </linearGradient>
    <linearGradient
       inkscape:collect="always"
       xlink:href="#linearGradient4091"
       id="linearGradient4452"
       gradientUnits="userSpaceOnUse"
       gradientTransform="matrix(1.5000015,0,0,1.5000015,-397.00123,-108.1814)"
       x1="793"
       y1="217.28406"
       x2="795"
       y2="217.28406" />
    <linearGradient
       id="linearGradient3468">
      <stop
         id="stop3470"
         offset="0"
         style="stop-color:#dbdbdb;stop-opacity:1;" />
      <stop
         id="stop3472"
         offset="1"
         style="stop-color:#b5b5b5;stop-opacity:1;" />
    </linearGradient>
    <linearGradient
       id="linearGradient3992-7">
      <stop
         style="stop-color:#b5b5b5;stop-opacity:1"
         offset="0"
         id="stop3994-6" />
      <stop
         style="stop-color:#dbdbdb;stop-opacity:1"
         offset="1"
         id="stop3996-7" />
    </linearGradient>
  </defs>
  <sodipodi:namedview
     id="base"
     pagecolor="#ffffff"
     bordercolor="#666666"
     borderopacity="1.0"
     inkscape:pageopacity="0.0"
     inkscape:pageshadow="2"
     inkscape:zoom="6.3664629"
     inkscape:cx="22.846282"
     inkscape:cy="17.552918"
     inkscape:document-units="px"
     inkscape:current-layer="g4507"
     showgrid="false"
     inkscape:window-width="1920"
     inkscape:window-height="1029"
     inkscape:window-x="0"
     inkscape:window-y="24"
     inkscape:window-maximized="1" />
  <metadata
     id="metadata3294">
    <rdf:RDF>
      <cc:Work
         rdf:about="">
        <dc:format>image/svg+xml</dc:format>
        <dc:type
           rdf:resource="http://purl.org/dc/dcmitype/StillImage" />
        <dc:title />
      </cc:Work>
    </rdf:RDF>
  </metadata>
  <g
     inkscape:label="Layer 1"
     inkscape:groupmode="layer"
     id="layer1"
     transform="translate(0,-1004.3622)">
    <g
       style="display:inline"
       transform="translate(-789,604.3622)"
       id="g4451">
      <g
         style="display:inline"
         inkscape:label="#g3962"
         transform="matrix(2,0,0,2,397,3.2756348)"
         id="g4507">
        <rect
           style="fill:none;stroke:none"
           id="rect4509"
           width="24"
           height="24"
           x="196"
           y="198.36218" />
        <path
           style="fill:#cccccc;fill-opacity:1;stroke:none"
           d="M 13.8125 13 C 13.51039 13.002 13.20898 13.01845 12.9375 13.03125 C 8.65283 13.23426 8.07617 14.81849 8 19.5 C 7.995 20.0492 8 20.60833 8 21.25 C 7.99979 21.46882 8 21.6453 8 21.875 L 8 26 L 8 26.75 C 8.00078 27.31914 7.992 27.90749 8 28.40625 C 8.0762 33.11621 8.65283 34.7561 12.9375 34.96875 C 13.23414 34.97875 13.47864 35 13.8125 35 C 13.8772 35.00049 13.93388 35 14 35 L 34.1875 35 C 34.48961 34.998 34.79102 34.98215 35.0625 34.96875 C 39.34717 34.7561 39.92383 33.11621 40 28.40625 C 40.0117 27.68164 40 26.875 40 26 L 40 21.875 C 40 21.0147 40.0117 20.2446 40 19.53125 C 39.9238 14.89444 39.34717 13.24352 35.0625 13.03125 C 34.79102 13.01785 34.48961 13.0022 34.1875 13 L 13.8125 13 z M 29.8125 17.90625 C 30.36002 17.90627 30.81424 17.9841 31.25 18.0625 C 31.69698 18.1295 32.12464 18.21174 32.4375 18.3125 C 32.76156 18.4017 32.98636 18.46196 33.1875 18.5625 C 33.3998 18.6631 33.59808 18.78789 33.6875 18.84375 L 32.9375 20.90625 C 32.57994 20.71625 32.18805 20.5716 31.71875 20.4375 C 31.26057 20.2923 30.73502 20.25 30.1875 20.25 C 28.96952 20.25002 28.04752 20.53713 27.5 21.21875 C 26.96364 21.88919 26.71875 22.82674 26.71875 24 C 26.71875 24.5699 26.80334 25.0932 26.9375 25.5625 C 27.0715 26.02064 27.23182 26.41476 27.5 26.75 C 27.76816 27.08522 28.12897 27.34131 28.53125 27.53125 C 28.93353 27.71005 29.43239 27.78125 29.96875 27.78125 C 30.25925 27.78125 30.45505 27.79325 30.65625 27.78125 C 30.86851 27.76925 31.06229 27.75255 31.21875 27.71875 L 31.21875 23.65625 L 33.875 23.65625 L 33.875 29.40625 C 33.56212 29.52925 33.06782 29.70963 32.375 29.84375 C 31.6822 29.98895 30.79813 30.03125 29.78125 30.03125 C 28.90967 30.03125 28.15264 29.92441 27.4375 29.65625 C 26.73352 29.38807 26.06534 28.98275 25.5625 28.46875 C 25.05962 27.95475 24.68561 27.31112 24.40625 26.5625 C 24.13811 25.8138 24 24.96096 24 24 C 24 23.02784 24.16705 22.15491 24.46875 21.40625 C 24.77045 20.65761 25.19355 20.01404 25.71875 19.5 C 26.24395 18.97482 26.82727 18.61193 27.53125 18.34375 C 28.24637 18.07557 29.00794 17.90625 29.8125 17.90625 z M 16.90625 17.9375 C 17.07365 17.9255 17.25398 17.9375 17.4375 17.9375 C 18.11596 17.93752 18.72939 18.05207 19.21875 18.21875 C 19.71923 18.37455 20.11494 18.60595 20.4375 18.90625 C 20.76 19.19545 21.00055 19.50585 21.15625 19.90625 C 21.31205 20.29551 21.375 20.7829 21.375 21.25 C 21.375 21.70604 21.25604 22.12876 21 22.5625 C 20.7442 22.98514 20.40249 23.30883 19.96875 23.53125 C 20.56931 23.77595 21.05246 24.10437 21.375 24.59375 C 21.70866 25.07199 21.84373 25.66533 21.84375 26.34375 C 21.84373 26.87761 21.77163 27.38775 21.59375 27.84375 C 21.41575 28.28863 21.12816 28.69761 20.75 29.03125 C 20.37184 29.35381 19.90196 29.59215 19.3125 29.78125 C 18.73416 29.95925 18.05078 30.03125 17.25 30.03125 C 16.94968 30.03125 16.61489 30.0436 16.28125 30 C 15.94757 29.9666 15.62394 29.8793 15.3125 29.8125 C 15.0011 29.7459 14.75582 29.703 14.5 29.625 C 14.24418 29.5472 14.01956 29.47315 13.875 29.40625 L 14.34375 27.3125 C 14.63291 27.4347 15.02385 27.57415 15.46875 27.71875 C 15.92473 27.85235 16.52018 27.9375 17.1875 27.9375 C 17.9549 27.9375 18.45658 27.78902 18.8125 27.5 C 19.16838 27.21082 19.375 26.83313 19.375 26.34375 C 19.375 26.04347 19.3211 25.79397 19.1875 25.59375 C 19.0653 25.38243 18.87867 25.21609 18.65625 25.09375 C 18.43379 24.96015 18.12392 24.82573 17.8125 24.78125 C 17.51218 24.72565 17.21978 24.71875 16.875 24.71875 L 15.875 24.71875 L 15.875 22.75 L 17.03125 22.75 C 17.27593 22.75 17.46506 22.6696 17.6875 22.625 C 17.92104 22.5806 18.16577 22.5377 18.34375 22.4375 C 18.52175 22.3263 18.6499 22.17796 18.75 22 C 18.8612 21.811 18.875 21.55931 18.875 21.28125 C 18.875 21.06993 18.839 20.9057 18.75 20.75 C 18.661 20.5942 18.55089 20.47512 18.40625 20.375 C 18.27265 20.2746 18.15781 20.1695 17.96875 20.125 C 17.79075 20.0694 17.59533 20.0625 17.40625 20.0625 C 16.92801 20.06252 16.44275 20.13675 16.03125 20.28125 C 15.63085 20.42565 15.27114 20.6012 14.9375 20.8125 L 14.0625 18.96875 C 14.2405 18.85735 14.45394 18.77871 14.6875 18.65625 C 14.93218 18.53405 15.17955 18.4126 15.46875 18.3125 C 15.75791 18.2125 16.08371 18.09801 16.40625 18.03125 C 16.57305 17.99765 16.73883 17.9481 16.90625 17.9375 z "
           transform="matrix(0.5,0,0,0.5,196,198.36218)"
           id="path4511" />
      </g>
    </g>
  </g>
</svg>
