<?xml version="1.0" encoding="UTF-8" standalone="no"?>
<!-- Created with Inkscape (http://www.inkscape.org/) -->

<svg
   xmlns:dc="http://purl.org/dc/elements/1.1/"
   xmlns:cc="http://creativecommons.org/ns#"
   xmlns:rdf="http://www.w3.org/1999/02/22-rdf-syntax-ns#"
   xmlns:svg="http://www.w3.org/2000/svg"
   xmlns="http://www.w3.org/2000/svg"
   xmlns:sodipodi="http://sodipodi.sourceforge.net/DTD/sodipodi-0.dtd"
   xmlns:inkscape="http://www.inkscape.org/namespaces/inkscape"
   width="48"
   height="48"
   id="svg3289"
   version="1.1"
   inkscape:version="0.48.3.1 r9886"
   sodipodi:docname="network-signal-50@18.svg">
  <defs
     id="defs3291">
    <linearGradient
       id="linearGradient3992">
      <stop
         style="stop-color:#b5b5b5;stop-opacity:1"
         offset="0"
         id="stop3994" />
      <stop
         style="stop-color:#dbdbdb;stop-opacity:1"
         offset="1"
         id="stop3996" />
    </linearGradient>
    <linearGradient
       id="linearGradient3775">
      <stop
         id="stop3777"
         offset="0"
         style="stop-color:#494949;stop-opacity:1" />
      <stop
         id="stop3779"
         offset="1"
         style="stop-color:#575757;stop-opacity:1" />
    </linearGradient>
  </defs>
  <sodipodi:namedview
     id="base"
     pagecolor="#000000"
     bordercolor="#666666"
     borderopacity="1.0"
     inkscape:pageopacity="1"
     inkscape:pageshadow="2"
     inkscape:zoom="7.4505806"
     inkscape:cx="-38.99746"
     inkscape:cy="45.560817"
     inkscape:document-units="px"
     inkscape:current-layer="g4143"
     showgrid="true"
     inkscape:window-width="1920"
     inkscape:window-height="1029"
     inkscape:window-x="0"
     inkscape:window-y="24"
     inkscape:window-maximized="1">
    <inkscape:grid
       type="xygrid"
       id="grid3061"
       empspacing="8"
       visible="true"
       enabled="true"
       snapvisiblegridlinesonly="true" />
  </sodipodi:namedview>
  <metadata
     id="metadata3294">
    <rdf:RDF>
      <cc:Work
         rdf:about="">
        <dc:format>image/svg+xml</dc:format>
        <dc:type
           rdf:resource="http://purl.org/dc/dcmitype/StillImage" />
        <dc:title />
      </cc:Work>
    </rdf:RDF>
  </metadata>
  <g
     inkscape:label="Layer 1"
     inkscape:groupmode="layer"
     id="layer1"
     transform="translate(0,-1004.3622)">
    <g
       style="display:inline"
       transform="translate(-789,604.3622)"
       id="g4451">
      <g
         transform="translate(501,-556.3622)"
         id="g4143">
        <rect
           style="opacity:0.21171169;fill:none;stroke:none"
           id="rect4145"
           width="48"
           height="48"
           x="288"
           y="152"
           transform="translate(0,804.3622)" />
        <path
           sodipodi:nodetypes="scczccs"
           inkscape:connector-curvature="0"
           id="path4202"
           d="m 297.5,984.3622 c -2.5,0 -2.5,1.00002 -2.5,3 l 0,4 c 0,2 0,3 2.5,3 2.5,0 2.5,-1 2.5,-3 l 0,-4 c 0,-1.99998 0,-3 -2.5,-3 z"
           style="fill:#cccccc;fill-opacity:1;stroke:none" />
        <path
           style="fill:#cccccc;fill-opacity:1;stroke:none"
           d="m 306.5,978.3622 c -2.5,0 -2.5,1.00002 -2.5,3 l 0,10 c 0,2 0,3 2.5,3 2.5,0 2.5,-1 2.5,-3 l 0,-10 c 0,-1.99998 0,-3 -2.5,-3 z"
           id="path3843"
           inkscape:connector-curvature="0"
           sodipodi:nodetypes="scczccs" />
        <path
           sodipodi:nodetypes="scczccs"
           inkscape:connector-curvature="0"
           id="path3849"
           d="m 315.5,972.3622 c -2.5,0 -2.5,1.00002 -2.5,3 l 0,16 c 0,2 0,3 2.5,3 2.5,0 2.5,-1 2.5,-3 l 0,-16 c 0,-1.99998 0,-3 -2.5,-3 z"
           style="opacity:0.5;fill:#cccccc;fill-opacity:1;stroke:none" />
        <path
           style="opacity:0.5;fill:#cccccc;fill-opacity:1;stroke:none"
           d="m 325.5,966.3622 c -2.5,0 -2.5,1.00002 -2.5,3 l 0,22 c 0,2 0,3 2.5,3 2.5,0 2.5,-1 2.5,-3 l 0,-22 c 0,-1.99998 0,-3 -2.5,-3 z"
           id="path3853"
           inkscape:connector-curvature="0"
           sodipodi:nodetypes="scczccs" />
      </g>
    </g>
  </g>
</svg>
