<?xml version="1.0" encoding="UTF-8" standalone="no"?>
<!-- Created with Inkscape (http://www.inkscape.org/) -->

<svg
   xmlns:dc="http://purl.org/dc/elements/1.1/"
   xmlns:cc="http://creativecommons.org/ns#"
   xmlns:rdf="http://www.w3.org/1999/02/22-rdf-syntax-ns#"
   xmlns:svg="http://www.w3.org/2000/svg"
   xmlns="http://www.w3.org/2000/svg"
   xmlns:xlink="http://www.w3.org/1999/xlink"
   xmlns:sodipodi="http://sodipodi.sourceforge.net/DTD/sodipodi-0.dtd"
   xmlns:inkscape="http://www.inkscape.org/namespaces/inkscape"
   width="90"
   height="90"
   id="svg3289"
   version="1.1"
   inkscape:version="0.48+devel r12504"
   sodipodi:docname="network-secure.svg">
  <defs
     id="defs3291">
    <linearGradient
       id="linearGradient3992">
      <stop
         style="stop-color:#b5b5b5;stop-opacity:1"
         offset="0"
         id="stop3994" />
      <stop
         style="stop-color:#dbdbdb;stop-opacity:1"
         offset="1"
         id="stop3996" />
    </linearGradient>
    <linearGradient
       id="linearGradient3992-5">
      <stop
         style="stop-color:#b5b5b5;stop-opacity:1"
         offset="0"
         id="stop3994-3" />
      <stop
         style="stop-color:#dbdbdb;stop-opacity:1"
         offset="1"
         id="stop3996-0" />
    </linearGradient>
    <linearGradient
       id="linearGradient3382">
      <stop
         style="stop-color:#b5b5b5;stop-opacity:1"
         offset="0"
         id="stop3384" />
      <stop
         style="stop-color:#dbdbdb;stop-opacity:1"
         offset="1"
         id="stop3386" />
    </linearGradient>
    <linearGradient
       id="linearGradient4091">
      <stop
         id="stop4093"
         offset="0"
         style="stop-color:#dbdbdb;stop-opacity:1;" />
      <stop
         id="stop4095"
         offset="1"
         style="stop-color:#b5b5b5;stop-opacity:1;" />
    </linearGradient>
    <linearGradient
       id="linearGradient3468">
      <stop
         id="stop3470"
         offset="0"
         style="stop-color:#dbdbdb;stop-opacity:1;" />
      <stop
         id="stop3472"
         offset="1"
         style="stop-color:#b5b5b5;stop-opacity:1;" />
    </linearGradient>
    <linearGradient
       id="linearGradient3992-7">
      <stop
         style="stop-color:#b5b5b5;stop-opacity:1"
         offset="0"
         id="stop3994-6" />
      <stop
         style="stop-color:#dbdbdb;stop-opacity:1"
         offset="1"
         id="stop3996-7" />
    </linearGradient>
    <linearGradient
       inkscape:collect="always"
       xlink:href="#linearGradient3992-54"
       id="linearGradient4158"
       gradientUnits="userSpaceOnUse"
       gradientTransform="matrix(2,0,0,1.9861112,-1031,-247.30555)"
       x1="1001.1268"
       y1="332"
       x2="1001.1268"
       y2="344" />
    <linearGradient
       id="linearGradient3992-54">
      <stop
         style="stop-color:#b5b5b5;stop-opacity:1"
         offset="0"
         id="stop3994-9" />
      <stop
         style="stop-color:#dbdbdb;stop-opacity:1"
         offset="1"
         id="stop3996-5" />
    </linearGradient>
    <linearGradient
       inkscape:collect="always"
       xlink:href="#linearGradient3992-54"
       id="linearGradient4428"
       gradientUnits="userSpaceOnUse"
       gradientTransform="matrix(2,0,0,1.9861112,-1031,-247.30555)"
       x1="1010"
       y1="344"
       x2="1010"
       y2="332" />
    <linearGradient
       id="linearGradient3613">
      <stop
         style="stop-color:#b5b5b5;stop-opacity:1"
         offset="0"
         id="stop3615" />
      <stop
         style="stop-color:#dbdbdb;stop-opacity:1"
         offset="1"
         id="stop3617" />
    </linearGradient>
    <linearGradient
       id="linearGradient4091-5">
      <stop
         id="stop4093-8"
         offset="0"
         style="stop-color:#dbdbdb;stop-opacity:1;" />
      <stop
         id="stop4095-6"
         offset="1"
         style="stop-color:#b5b5b5;stop-opacity:1;" />
    </linearGradient>
    <linearGradient
       id="linearGradient3747">
      <stop
         id="stop3749"
         offset="0"
         style="stop-color:#dbdbdb;stop-opacity:1;" />
      <stop
         id="stop3751"
         offset="1"
         style="stop-color:#b5b5b5;stop-opacity:1;" />
    </linearGradient>
    <clipPath
       id="clipPath3824-3"
       clipPathUnits="userSpaceOnUse">
      <path
         inkscape:connector-curvature="0"
         id="path3826-8"
         d="m 205,183.36218 0,33 27,0 0,-33 -27,0 z m 12.5625,4.40625 1.60937,1.57812 4.6875,4.6875 0.64063,0.67188 -0.64063,0.67187 -4.42187,4.42188 0,0.125 4.42187,4.42187 0.64063,0.67188 -0.64063,0.67187 -4.6875,4.6875 -1.60937,1.57813 0,-2.25 0,-8.03125 -4.01563,4.01562 -1.34375,-1.34375 4.48438,-4.48437 -4.48438,-4.48438 1.34375,-1.34375 4.01563,4.01563 0,-8.03125 0,-2.25 z m 1.875,4.53125 0,4.8125 2.40625,-2.40625 -2.40625,-2.40625 z m 0,10.3125 0,4.8125 2.40625,-2.40625 -2.40625,-2.40625 z"
         style="opacity:0.58108108;color:#000000;fill:#ff0000;fill-opacity:1;fill-rule:nonzero;stroke:none;stroke-width:4;marker:none;visibility:visible;display:inline;overflow:visible;enable-background:accumulate" />
    </clipPath>
    <clipPath
       id="clipPath3824-3-5"
       clipPathUnits="userSpaceOnUse">
      <path
         inkscape:connector-curvature="0"
         id="path3826-8-9"
         d="m 205,183.36218 0,33 27,0 0,-33 -27,0 z m 12.5625,4.40625 1.60937,1.57812 4.6875,4.6875 0.64063,0.67188 -0.64063,0.67187 -4.42187,4.42188 0,0.125 4.42187,4.42187 0.64063,0.67188 -0.64063,0.67187 -4.6875,4.6875 -1.60937,1.57813 0,-2.25 0,-8.03125 -4.01563,4.01562 -1.34375,-1.34375 4.48438,-4.48437 -4.48438,-4.48438 1.34375,-1.34375 4.01563,4.01563 0,-8.03125 0,-2.25 z m 1.875,4.53125 0,4.8125 2.40625,-2.40625 -2.40625,-2.40625 z m 0,10.3125 0,4.8125 2.40625,-2.40625 -2.40625,-2.40625 z"
         style="opacity:0.58108108;color:#000000;fill:#ff0000;fill-opacity:1;fill-rule:nonzero;stroke:none;stroke-width:4;marker:none;visibility:visible;display:inline;overflow:visible;enable-background:accumulate" />
    </clipPath>
  </defs>
  <sodipodi:namedview
     id="base"
     pagecolor="#000000"
     bordercolor="#666666"
     borderopacity="1.0"
     inkscape:pageopacity="1"
     inkscape:pageshadow="2"
     inkscape:zoom="4.611686"
     inkscape:cx="-13.543086"
     inkscape:cy="56.399171"
     inkscape:document-units="px"
     inkscape:current-layer="g5165"
     showgrid="true"
     inkscape:window-width="1920"
     inkscape:window-height="1029"
     inkscape:window-x="0"
     inkscape:window-y="24"
     inkscape:window-maximized="1"
     fit-margin-top="0"
     fit-margin-left="0"
     fit-margin-right="0"
     fit-margin-bottom="0"
     inkscape:snap-grids="false"
     inkscape:snap-bbox="true"
     inkscape:bbox-nodes="true"
     inkscape:snap-bbox-edge-midpoints="true"
     inkscape:snap-bbox-midpoints="true"
     inkscape:bbox-paths="true"
     inkscape:object-paths="true"
     inkscape:snap-intersection-paths="true"
     inkscape:snap-smooth-nodes="true"
     inkscape:snap-midpoints="true"
     inkscape:object-nodes="true"
     inkscape:snap-object-midpoints="true"
     inkscape:snap-center="true">
    <inkscape:grid
       type="xygrid"
       id="grid3020"
       empspacing="8"
       visible="true"
       enabled="true"
       snapvisiblegridlinesonly="true"
       originx="0px"
       originy="0px" />
  </sodipodi:namedview>
  <metadata
     id="metadata3294">
    <rdf:RDF>
      <cc:Work
         rdf:about="">
        <dc:format>image/svg+xml</dc:format>
        <dc:type
           rdf:resource="http://purl.org/dc/dcmitype/StillImage" />
        <dc:title></dc:title>
      </cc:Work>
    </rdf:RDF>
  </metadata>
  <g
     inkscape:label="Layer 1"
     inkscape:groupmode="layer"
     id="layer1"
     transform="translate(0,-962.3622)">
    <g
       transform="translate(-62,486.00002)"
       id="g5165">
      <rect
         y="476.36218"
         x="62"
         height="90"
         width="90"
         id="rect5167"
         style="fill:none;stroke:none" />
      <path
         clip-path="url(#clipPath3824-3-5)"
         sodipodi:nodetypes="ccccccccc"
         inkscape:connector-curvature="0"
         id="path5169"
         d="m 218,184.86218 c -9,0 -10,0 -10,6 l 0,18 c 0,6 1,6 10,6 l 1,0 c 9,0 10,0 10,-6 l 0,-18 c 0,-6 -1,-6 -10,-6 z"
         style="fill:#cccccc;fill-opacity:1;stroke:none;display:none"
         transform="matrix(2,0,0,2,-330,121.63782)" />
      <path
         style="fill:#cccccc;fill-opacity:1;display:inline"
         d="M 41 38 C 26.7044 38 25.0733 38.074999 25 47.099609 L 25 55 L 25 62.900391 C 25.0733 71.924991 26.7044 72 41 72 L 49 72 C 63.2956 72 64.9268 71.925001 65 62.900391 L 65 55 L 65 47.099609 C 64.9268 38.074999 63.2956 38 49 38 L 41 38 z M 45 45 C 48.31371 45 51 47.68629 51 51 C 51 53.21934 49.79139 55.151513 48 56.189453 L 48 64 L 42 64 L 42 56.189453 C 40.20861 55.151513 39 53.21934 39 51 C 39 47.68629 41.68629 45 45 45 z "
         transform="translate(62,476.36218)"
         id="path5182" />
      <path
         style="font-style:normal;font-variant:normal;font-weight:normal;font-stretch:normal;text-indent:0;text-align:start;text-decoration:none;line-height:normal;letter-spacing:normal;word-spacing:normal;text-transform:none;direction:ltr;block-progression:tb;writing-mode:lr-tb;text-anchor:start;baseline-shift:baseline;color:#000000;color-interpolation:sRGB;color-interpolation-filters:linearRGB;fill:#cccccc;fill-opacity:1;stroke:none;stroke-width:5;marker:none;visibility:visible;display:inline;overflow:visible;enable-background:accumulate;clip-rule:nonzero;color-rendering:auto;image-rendering:auto;shape-rendering:auto;text-rendering:auto;font-family:sans-serif;-inkscape-font-specification:sans-serif"
         d="M 45 18 C 37.841245 18 32 23.84124 32 31 L 32 42.5 C 32 42.719103 32.022389 42.931932 32.033203 43.148438 L 37.03125 43.148438 C 37.014593 42.933801 37 42.719514 37 42.5 L 37 31 C 37 26.52476 40.52476 23 45 23 C 49.47524 23 53 26.52476 53 31 L 53 42.5 C 53 42.719514 52.985407 42.933801 52.96875 43.148438 L 57.966797 43.148438 C 57.977611 42.931932 58 42.719103 58 42.5 L 58 31 C 58 23.84124 52.15876 18 45 18 z "
         transform="translate(62,476.36218)"
         id="rect5190" />
    </g>
  </g>
  <g
     inkscape:groupmode="layer"
     id="layer3"
     inkscape:label="Shapes"
     sodipodi:insensitive="true"
     style="display:none">
    <path
       transform="matrix(2,0,0,2,-392,-354.72436)"
       style="opacity:0.5;fill:#ff00ff;fill-opacity:1;stroke:none;display:inline"
       d="m 213.5,189.36218 c -9,0 -10,0 -10,6 l 0,9 c 0,6 1,6 10,6 l 10,0 c 9,0 10,0 10,-6 l 0,-9 C 233.5,189.36218 232.5,189.36218 223.5,189.36218 Z"
       id="path3011-1"
       inkscape:connector-curvature="0"
       sodipodi:nodetypes="ccccccccc"
       clip-path="none" />
    <path
       sodipodi:nodetypes="cccccccccccccccccccccc"
       inkscape:connector-curvature="0"
       id="path3804-0"
       d="m 5.5,19 0,52 79,0 L 84.5,19 z m 7.03124,7.1875 29.4375,27.15626 c 2.09856,1.67436 4.19326,1.85494 6.37486,0 L 77.81234,26.1875 80.5311,29.15626 61.1561,47 73.8436,61.65626 58.74984,49.21876 51.0936,56.25 51.0312,56.2812 c -1.68336,1.66162 -3.68494,3.03626 -5.8125,3.03126 -2.14588,-0.004 -4.16976,-1.37774 -5.9375,-3.03126 L 31.5937,49.2187 16.5,61.65626 29.15624,47 9.8125,29.15626 Z"
       style="color:#000000;fill:#0000ff;fill-opacity:1;fill-rule:nonzero;stroke:none;stroke-width:6;marker:none;visibility:visible;display:inline;overflow:visible;enable-background:accumulate" />
  </g>
</svg>
