<?xml version="1.0" encoding="UTF-8" standalone="no"?>
<!-- Created with Inkscape (http://www.inkscape.org/) -->

<svg
   xmlns:dc="http://purl.org/dc/elements/1.1/"
   xmlns:cc="http://creativecommons.org/ns#"
   xmlns:rdf="http://www.w3.org/1999/02/22-rdf-syntax-ns#"
   xmlns:svg="http://www.w3.org/2000/svg"
   xmlns="http://www.w3.org/2000/svg"
   xmlns:xlink="http://www.w3.org/1999/xlink"
   xmlns:sodipodi="http://sodipodi.sourceforge.net/DTD/sodipodi-0.dtd"
   xmlns:inkscape="http://www.inkscape.org/namespaces/inkscape"
   width="90"
   height="90"
   id="svg3289"
   version="1.1"
   inkscape:version="0.48+devel r12504"
   sodipodi:docname="network-cellular-2g.svg">
  <defs
     id="defs3291">
    <linearGradient
       id="linearGradient3992">
      <stop
         style="stop-color:#b5b5b5;stop-opacity:1"
         offset="0"
         id="stop3994" />
      <stop
         style="stop-color:#dbdbdb;stop-opacity:1"
         offset="1"
         id="stop3996" />
    </linearGradient>
    <linearGradient
       id="linearGradient3992-5">
      <stop
         style="stop-color:#b5b5b5;stop-opacity:1"
         offset="0"
         id="stop3994-3" />
      <stop
         style="stop-color:#dbdbdb;stop-opacity:1"
         offset="1"
         id="stop3996-0" />
    </linearGradient>
    <linearGradient
       id="linearGradient3382">
      <stop
         style="stop-color:#b5b5b5;stop-opacity:1"
         offset="0"
         id="stop3384" />
      <stop
         style="stop-color:#dbdbdb;stop-opacity:1"
         offset="1"
         id="stop3386" />
    </linearGradient>
    <radialGradient
       inkscape:collect="always"
       xlink:href="#linearGradient4091"
       id="radialGradient4450"
       gradientUnits="userSpaceOnUse"
       cx="155.69038"
       cy="203.5215"
       fx="155.69038"
       fy="203.5215"
       r="2" />
    <linearGradient
       id="linearGradient4091">
      <stop
         id="stop4093"
         offset="0"
         style="stop-color:#dbdbdb;stop-opacity:1;" />
      <stop
         id="stop4095"
         offset="1"
         style="stop-color:#b5b5b5;stop-opacity:1;" />
    </linearGradient>
    <linearGradient
       inkscape:collect="always"
       xlink:href="#linearGradient4091"
       id="linearGradient4452"
       gradientUnits="userSpaceOnUse"
       gradientTransform="matrix(1.5000015,0,0,1.5000015,-397.00123,-108.1814)"
       x1="793"
       y1="217.28406"
       x2="795"
       y2="217.28406" />
    <linearGradient
       id="linearGradient3468">
      <stop
         id="stop3470"
         offset="0"
         style="stop-color:#dbdbdb;stop-opacity:1;" />
      <stop
         id="stop3472"
         offset="1"
         style="stop-color:#b5b5b5;stop-opacity:1;" />
    </linearGradient>
    <linearGradient
       id="linearGradient3992-7">
      <stop
         style="stop-color:#b5b5b5;stop-opacity:1"
         offset="0"
         id="stop3994-6" />
      <stop
         style="stop-color:#dbdbdb;stop-opacity:1"
         offset="1"
         id="stop3996-7" />
    </linearGradient>
    <clipPath
       clipPathUnits="userSpaceOnUse"
       id="clipPath3017-4">
      <path
         style="color:#000000;fill:#ff00ff;fill-opacity:1;fill-rule:nonzero;stroke:none;stroke-width:6;marker:none;visibility:visible;display:inline;overflow:visible;enable-background:accumulate"
         d="m 199,186.36218 0,27 39,0 0,-27 L 199,186.36218 z m 25.14062,7.5 c 0.53199,1e-5 0.98285,0.0788 1.40625,0.15625 0.43428,0.0665 0.85228,0.1503 1.15625,0.25 0.31487,0.0883 0.52331,0.15051 0.71875,0.25 0.20629,0.0995 0.3975,0.21035 0.48438,0.26562 l -0.71875,2.04688 c -0.34742,-0.18802 -0.73152,-0.33605 -1.1875,-0.46875 -0.44518,-0.14367 -0.95236,-0.1875 -1.48438,-0.1875 -1.1834,2e-5 -2.0774,0.29423 -2.60937,0.96875 -0.52114,0.66344 -0.76563,1.58898 -0.76563,2.75 0,0.56396 0.0883,1.08247 0.21875,1.54687 0.13021,0.45338 0.2863,0.84012 0.54688,1.17188 0.26054,0.33171 0.60914,0.5933 1,0.78125 0.39089,0.17694 0.86949,0.23437 1.39062,0.23437 0.28227,0 0.47638,0.0119 0.67188,0 0.20624,-0.0118 0.39486,-0.029 0.54687,-0.0625 l 0,-4.01562 2.57813,0 0,5.6875 c -0.30401,0.12179 -0.77997,0.30476 -1.45313,0.4375 -0.67315,0.14368 -1.5276,0.1875 -2.51562,0.1875 -0.84687,0 -1.58638,-0.10962 -2.28125,-0.375 -0.684,-0.2654 -1.33954,-0.66323 -1.82813,-1.17188 -0.48862,-0.50864 -0.85358,-1.14981 -1.125,-1.89062 -0.26054,-0.74088 -0.39062,-1.58031 -0.39062,-2.53125 0,-0.96201 0.15999,-1.82166 0.45312,-2.5625 0.29316,-0.74084 0.70844,-1.38195 1.21875,-1.89063 0.51031,-0.5197 1.08162,-0.87523 1.76563,-1.14062 C 222.63232,194.03429 223.35888,193.86218 224.14062,193.86218 z m -11.95312,0.0312 c 0.16265,-0.0119 0.35294,0 0.53125,0 0.65923,2e-5 1.24329,0.11625 1.71875,0.28125 0.48629,0.15417 0.87409,0.3747 1.1875,0.67187 0.31336,0.28617 0.55183,0.60379 0.70312,1 0.15137,0.3852 0.20313,0.8659 0.20313,1.32813 0,0.45128 -0.11057,0.86764 -0.35938,1.29687 -0.24855,0.41823 -0.57856,0.73303 -1,0.95313 0.58353,0.24213 1.04599,0.57822 1.35938,1.0625 0.32418,0.47325 0.46874,1.04741 0.46875,1.71875 -1e-5,0.52829 -0.0772,1.03315 -0.25,1.48437 -0.17294,0.44026 -0.44508,0.85733 -0.8125,1.1875 -0.36744,0.31919 -0.8335,0.54724 -1.40625,0.73438 -0.56193,0.17614 -1.22194,0.25 -2,0.25 -0.29181,0 -0.61332,0.0114 -0.9375,-0.0312 -0.32423,-0.033 -0.65054,-0.12135 -0.95313,-0.1875 -0.30257,-0.0659 -0.53269,-0.11021 -0.78125,-0.1875 -0.24856,-0.077 -0.46891,-0.15257 -0.60937,-0.21875 l 0.45312,-2.0625 c 0.28095,0.12087 0.6615,0.24753 1.09375,0.39062 0.44307,0.13221 1.0235,0.21875 1.67188,0.21875 0.74564,0 1.2323,-0.13585 1.57812,-0.42187 0.34578,-0.28617 0.54688,-0.67198 0.54688,-1.15625 0,-0.29717 -0.0577,-0.53625 -0.1875,-0.73438 -0.11866,-0.20911 -0.29951,-0.37891 -0.51563,-0.5 -0.21615,-0.13219 -0.5099,-0.26849 -0.8125,-0.3125 -0.29178,-0.0549 -0.57125,-0.0625 -0.90625,-0.0625 l -0.98437,0 0,-1.9375 1.125,0 c 0.23775,0 0.42449,-0.0808 0.64062,-0.125 0.2269,-0.044 0.4677,-0.0885 0.64063,-0.1875 0.17295,-0.11003 0.29336,-0.26138 0.39062,-0.4375 0.10805,-0.18702 0.125,-0.42798 0.125,-0.70312 0,-0.20913 -0.0387,-0.37719 -0.125,-0.53125 -0.0864,-0.15419 -0.18757,-0.27592 -0.32812,-0.375 -0.12981,-0.0994 -0.23818,-0.19035 -0.42188,-0.23438 -0.17296,-0.0549 -0.36315,-0.0625 -0.54687,-0.0625 -0.46469,3e-5 -0.94393,0.0601 -1.34375,0.20313 -0.38903,0.14289 -0.73834,0.32216 -1.0625,0.53125 l -0.84375,-1.82813 c 0.17295,-0.11026 0.38242,-0.17568 0.60937,-0.29687 0.23773,-0.12084 0.46902,-0.24468 0.75,-0.34375 0.28097,-0.0989 0.59286,-0.2152 0.90625,-0.28125 C 211.86518,193.95398 212.02483,193.90388 212.1875,193.89348 Z"
         id="path3019-4"
         inkscape:connector-curvature="0" />
    </clipPath>
    <clipPath
       id="clipPath3017-4-8"
       clipPathUnits="userSpaceOnUse">
      <path
         inkscape:connector-curvature="0"
         id="path3019-4-1"
         d="m 199,186.36218 0,27 39,0 0,-27 -39,0 z m 25.14062,7.5 c 0.53199,1e-5 0.98285,0.0788 1.40625,0.15625 0.43428,0.0665 0.85228,0.1503 1.15625,0.25 0.31487,0.0883 0.52331,0.15051 0.71875,0.25 0.20629,0.0995 0.3975,0.21035 0.48438,0.26562 l -0.71875,2.04688 c -0.34742,-0.18802 -0.73152,-0.33605 -1.1875,-0.46875 -0.44518,-0.14367 -0.95236,-0.1875 -1.48438,-0.1875 -1.1834,2e-5 -2.0774,0.29423 -2.60937,0.96875 -0.52114,0.66344 -0.76563,1.58898 -0.76563,2.75 0,0.56396 0.0883,1.08247 0.21875,1.54687 0.13021,0.45338 0.2863,0.84012 0.54688,1.17188 0.26054,0.33171 0.60914,0.5933 1,0.78125 0.39089,0.17694 0.86949,0.23437 1.39062,0.23437 0.28227,0 0.47638,0.0119 0.67188,0 0.20624,-0.0118 0.39486,-0.029 0.54687,-0.0625 l 0,-4.01562 2.57813,0 0,5.6875 c -0.30401,0.12179 -0.77997,0.30476 -1.45313,0.4375 -0.67315,0.14368 -1.5276,0.1875 -2.51562,0.1875 -0.84687,0 -1.58638,-0.10962 -2.28125,-0.375 -0.684,-0.2654 -1.33954,-0.66323 -1.82813,-1.17188 -0.48862,-0.50864 -0.85358,-1.14981 -1.125,-1.89062 -0.26054,-0.74088 -0.39062,-1.58031 -0.39062,-2.53125 0,-0.96201 0.15999,-1.82166 0.45312,-2.5625 0.29316,-0.74084 0.70844,-1.38195 1.21875,-1.89063 0.51031,-0.5197 1.08162,-0.87523 1.76563,-1.14062 0.69482,-0.26539 1.42138,-0.4375 2.20312,-0.4375 z m -11.95312,0.0312 c 0.16265,-0.0119 0.35294,0 0.53125,0 0.65923,2e-5 1.24329,0.11625 1.71875,0.28125 0.48629,0.15417 0.87409,0.3747 1.1875,0.67187 0.31336,0.28617 0.55183,0.60379 0.70312,1 0.15137,0.3852 0.20313,0.8659 0.20313,1.32813 0,0.45128 -0.11057,0.86764 -0.35938,1.29687 -0.24855,0.41823 -0.57856,0.73303 -1,0.95313 0.58353,0.24213 1.04599,0.57822 1.35938,1.0625 0.32418,0.47325 0.46874,1.04741 0.46875,1.71875 -1e-5,0.52829 -0.0772,1.03315 -0.25,1.48437 -0.17294,0.44026 -0.44508,0.85733 -0.8125,1.1875 -0.36744,0.31919 -0.8335,0.54724 -1.40625,0.73438 -0.56193,0.17614 -1.22194,0.25 -2,0.25 -0.29181,0 -0.61332,0.0114 -0.9375,-0.0312 -0.32423,-0.033 -0.65054,-0.12135 -0.95313,-0.1875 -0.30257,-0.0659 -0.53269,-0.11021 -0.78125,-0.1875 -0.24856,-0.077 -0.46891,-0.15257 -0.60937,-0.21875 l 0.45312,-2.0625 c 0.28095,0.12087 0.6615,0.24753 1.09375,0.39062 0.44307,0.13221 1.0235,0.21875 1.67188,0.21875 0.74564,0 1.2323,-0.13585 1.57812,-0.42187 0.34578,-0.28617 0.54688,-0.67198 0.54688,-1.15625 0,-0.29717 -0.0577,-0.53625 -0.1875,-0.73438 -0.11866,-0.20911 -0.29951,-0.37891 -0.51563,-0.5 -0.21615,-0.13219 -0.5099,-0.26849 -0.8125,-0.3125 -0.29178,-0.0549 -0.57125,-0.0625 -0.90625,-0.0625 l -0.98437,0 0,-1.9375 1.125,0 c 0.23775,0 0.42449,-0.0808 0.64062,-0.125 0.2269,-0.044 0.4677,-0.0885 0.64063,-0.1875 0.17295,-0.11003 0.29336,-0.26138 0.39062,-0.4375 0.10805,-0.18702 0.125,-0.42798 0.125,-0.70312 0,-0.20913 -0.0387,-0.37719 -0.125,-0.53125 -0.0864,-0.15419 -0.18757,-0.27592 -0.32812,-0.375 -0.12981,-0.0994 -0.23818,-0.19035 -0.42188,-0.23438 -0.17296,-0.0549 -0.36315,-0.0625 -0.54687,-0.0625 -0.46469,3e-5 -0.94393,0.0601 -1.34375,0.20313 -0.38903,0.14289 -0.73834,0.32216 -1.0625,0.53125 l -0.84375,-1.82813 c 0.17295,-0.11026 0.38242,-0.17568 0.60937,-0.29687 0.23773,-0.12084 0.46902,-0.24468 0.75,-0.34375 0.28097,-0.0989 0.59286,-0.2152 0.90625,-0.28125 0.16206,-0.0332 0.32171,-0.0833 0.48438,-0.0937 z"
         style="color:#000000;fill:#ff00ff;fill-opacity:1;fill-rule:nonzero;stroke:none;stroke-width:6;marker:none;visibility:visible;display:inline;overflow:visible;enable-background:accumulate" />
    </clipPath>
    <clipPath
       id="clipPath3017-4-5"
       clipPathUnits="userSpaceOnUse">
      <path
         inkscape:connector-curvature="0"
         id="path3019-4-1-9"
         d="m 199,186.36218 0,27 39,0 0,-27 -39,0 z m 25.14062,7.5 c 0.53199,1e-5 0.98285,0.0788 1.40625,0.15625 0.43428,0.0665 0.85228,0.1503 1.15625,0.25 0.31487,0.0883 0.52331,0.15051 0.71875,0.25 0.20629,0.0995 0.3975,0.21035 0.48438,0.26562 l -0.71875,2.04688 c -0.34742,-0.18802 -0.73152,-0.33605 -1.1875,-0.46875 -0.44518,-0.14367 -0.95236,-0.1875 -1.48438,-0.1875 -1.1834,2e-5 -2.0774,0.29423 -2.60937,0.96875 -0.52114,0.66344 -0.76563,1.58898 -0.76563,2.75 0,0.56396 0.0883,1.08247 0.21875,1.54687 0.13021,0.45338 0.2863,0.84012 0.54688,1.17188 0.26054,0.33171 0.60914,0.5933 1,0.78125 0.39089,0.17694 0.86949,0.23437 1.39062,0.23437 0.28227,0 0.47638,0.0119 0.67188,0 0.20624,-0.0118 0.39486,-0.029 0.54687,-0.0625 l 0,-4.01562 2.57813,0 0,5.6875 c -0.30401,0.12179 -0.77997,0.30476 -1.45313,0.4375 -0.67315,0.14368 -1.5276,0.1875 -2.51562,0.1875 -0.84687,0 -1.58638,-0.10962 -2.28125,-0.375 -0.684,-0.2654 -1.33954,-0.66323 -1.82813,-1.17188 -0.48862,-0.50864 -0.85358,-1.14981 -1.125,-1.89062 -0.26054,-0.74088 -0.39062,-1.58031 -0.39062,-2.53125 0,-0.96201 0.15999,-1.82166 0.45312,-2.5625 0.29316,-0.74084 0.70844,-1.38195 1.21875,-1.89063 0.51031,-0.5197 1.08162,-0.87523 1.76563,-1.14062 0.69482,-0.26539 1.42138,-0.4375 2.20312,-0.4375 z m -11.95312,0.0312 c 0.16265,-0.0119 0.35294,0 0.53125,0 0.65923,2e-5 1.24329,0.11625 1.71875,0.28125 0.48629,0.15417 0.87409,0.3747 1.1875,0.67187 0.31336,0.28617 0.55183,0.60379 0.70312,1 0.15137,0.3852 0.20313,0.8659 0.20313,1.32813 0,0.45128 -0.11057,0.86764 -0.35938,1.29687 -0.24855,0.41823 -0.57856,0.73303 -1,0.95313 0.58353,0.24213 1.04599,0.57822 1.35938,1.0625 0.32418,0.47325 0.46874,1.04741 0.46875,1.71875 -1e-5,0.52829 -0.0772,1.03315 -0.25,1.48437 -0.17294,0.44026 -0.44508,0.85733 -0.8125,1.1875 -0.36744,0.31919 -0.8335,0.54724 -1.40625,0.73438 -0.56193,0.17614 -1.22194,0.25 -2,0.25 -0.29181,0 -0.61332,0.0114 -0.9375,-0.0312 -0.32423,-0.033 -0.65054,-0.12135 -0.95313,-0.1875 -0.30257,-0.0659 -0.53269,-0.11021 -0.78125,-0.1875 -0.24856,-0.077 -0.46891,-0.15257 -0.60937,-0.21875 l 0.45312,-2.0625 c 0.28095,0.12087 0.6615,0.24753 1.09375,0.39062 0.44307,0.13221 1.0235,0.21875 1.67188,0.21875 0.74564,0 1.2323,-0.13585 1.57812,-0.42187 0.34578,-0.28617 0.54688,-0.67198 0.54688,-1.15625 0,-0.29717 -0.0577,-0.53625 -0.1875,-0.73438 -0.11866,-0.20911 -0.29951,-0.37891 -0.51563,-0.5 -0.21615,-0.13219 -0.5099,-0.26849 -0.8125,-0.3125 -0.29178,-0.0549 -0.57125,-0.0625 -0.90625,-0.0625 l -0.98437,0 0,-1.9375 1.125,0 c 0.23775,0 0.42449,-0.0808 0.64062,-0.125 0.2269,-0.044 0.4677,-0.0885 0.64063,-0.1875 0.17295,-0.11003 0.29336,-0.26138 0.39062,-0.4375 0.10805,-0.18702 0.125,-0.42798 0.125,-0.70312 0,-0.20913 -0.0387,-0.37719 -0.125,-0.53125 -0.0864,-0.15419 -0.18757,-0.27592 -0.32812,-0.375 -0.12981,-0.0994 -0.23818,-0.19035 -0.42188,-0.23438 -0.17296,-0.0549 -0.36315,-0.0625 -0.54687,-0.0625 -0.46469,3e-5 -0.94393,0.0601 -1.34375,0.20313 -0.38903,0.14289 -0.73834,0.32216 -1.0625,0.53125 l -0.84375,-1.82813 c 0.17295,-0.11026 0.38242,-0.17568 0.60937,-0.29687 0.23773,-0.12084 0.46902,-0.24468 0.75,-0.34375 0.28097,-0.0989 0.59286,-0.2152 0.90625,-0.28125 0.16206,-0.0332 0.32171,-0.0833 0.48438,-0.0937 z"
         style="color:#000000;fill:#ff00ff;fill-opacity:1;fill-rule:nonzero;stroke:none;stroke-width:6;marker:none;visibility:visible;display:inline;overflow:visible;enable-background:accumulate" />
    </clipPath>
  </defs>
  <sodipodi:namedview
     id="base"
     pagecolor="#ffffff"
     bordercolor="#666666"
     borderopacity="1.0"
     inkscape:pageopacity="0.0"
     inkscape:pageshadow="2"
     inkscape:zoom="6.366463"
     inkscape:cx="42.598849"
     inkscape:cy="30.550717"
     inkscape:document-units="px"
     inkscape:current-layer="g4451"
     showgrid="true"
     inkscape:window-width="1920"
     inkscape:window-height="1029"
     inkscape:window-x="0"
     inkscape:window-y="24"
     inkscape:window-maximized="1"
     fit-margin-top="0"
     fit-margin-left="0"
     fit-margin-right="0"
     fit-margin-bottom="0">
    <inkscape:grid
       type="xygrid"
       id="grid3774"
       empspacing="6"
       visible="true"
       enabled="true"
       snapvisiblegridlinesonly="true"
       originx="0px"
       originy="3.4375034e-08px" />
  </sodipodi:namedview>
  <metadata
     id="metadata3294">
    <rdf:RDF>
      <cc:Work
         rdf:about="">
        <dc:format>image/svg+xml</dc:format>
        <dc:type
           rdf:resource="http://purl.org/dc/dcmitype/StillImage" />
        <dc:title></dc:title>
      </cc:Work>
    </rdf:RDF>
  </metadata>
  <g
     inkscape:label="Layer 1"
     inkscape:groupmode="layer"
     id="layer1"
     transform="translate(0,-962.3622)">
    <g
       style="display:inline"
       transform="translate(-789,604.3622)"
       id="g4451">
      <g
         id="g5052"
         transform="translate(623.00002,-614.36218)">
        <rect
           y="972.36218"
           x="165.99998"
           height="90"
           width="90"
           id="rect5027"
           style="fill:none;stroke:none" />
        <path
           style="fill:#cccccc;fill-opacity:1;stroke:none"
           d="m 201,1144 c -18,0 -20,0 -20,12 l 0,18 c 0,12 2,12 20,12 l 20,0 c 18,0 20,0 20,-12 l 0,-18 c 0,-12 -2,-12 -20,-12 l -20,0 z m -1.22852,9 c 2.47931,0 4.39411,0.5954 5.64454,1.8652 1.2502,1.2264 1.86914,2.93 1.86914,4.9942 l 0,0.5 -0.10547,0 c -0.0568,0.6749 -0.1425,1.3488 -0.42188,2 l -0.002,0 c -0.33982,0.7695 -0.7811,1.5232 -1.31836,2.2617 l -0.002,0 c -0.51285,0.7124 -1.10182,1.4105 -1.76563,2.0957 l -0.002,0 -0.004,0 c -0.65141,0.6507 -1.30161,1.2907 -1.95312,1.9199 l -0.004,0 -0.002,0 c -0.33727,0.3159 -0.72235,0.6994 -1.15039,1.1485 -0.42723,0.4481 -0.83113,0.8965 -1.21485,1.3437 -0.37732,0.4398 -0.69927,0.8642 -0.96679,1.2754 l -0.004,0.01 -0.004,0 c -0.082,0.1198 -0.0665,0.1558 -0.11914,0.2558 l 9.75391,0 0,4.3086 -15.26172,0 -0.0547,-0.4375 c -0.0251,-0.201 -0.0371,-0.4247 -0.0371,-0.6777 l 0,-0.584 c 0,-1.0902 0.17171,-2.1046 0.51954,-3.0313 l 0.002,0 c 0.36094,-0.924 0.82504,-1.7831 1.39062,-2.5742 0.55746,-0.7796 1.18293,-1.5137 1.87305,-2.2031 0.673,-0.6724 1.34447,-1.3337 2.01758,-1.9844 l 0.002,0 c 0.51715,-0.4951 1.01275,-0.9799 1.48633,-1.4531 0.46286,-0.4623 0.85903,-0.9105 1.18945,-1.3437 l 0.002,0 c 0.34576,-0.447 0.61647,-0.8869 0.81445,-1.3204 0.1905,-0.4384 0.2832,-0.8733 0.2832,-1.3222 0,-1.0283 -0.2716,-1.6334 -0.76953,-1.9981 -0.55757,-0.4086 -1.22852,-0.6172 -2.07422,-0.6172 -0.55856,0 -1.06699,0.08 -1.53125,0.2344 -0.4874,0.1622 -0.91759,0.3524 -1.29297,0.5684 l -0.002,0 c -0.36882,0.2253 -0.69329,0.458 -0.97266,0.6972 l -0.01,0.01 -0.008,0.012 c -0.29442,0.2311 -0.51043,0.4188 -0.63672,0.5449 l -0.41992,0.418 -2.53907,-3.5937 0.3125,-0.2989 c 0.95281,-0.9065 2.06605,-1.6311 3.32813,-2.1718 l 0.002,0 c 1.29685,-0.5676 2.68848,-0.8516 4.1582,-0.8516 z m 22.50977,0 c 1.06398,0 1.9657,0.1576 2.8125,0.3125 0.86856,0.133 1.70456,0.3006 2.3125,0.5 0.62974,0.1766 1.04662,0.301 1.4375,0.5 0.41258,0.199 0.79499,0.4207 0.96875,0.5313 l -1.4375,4.0937 c -0.69484,-0.3761 -1.46304,-0.6721 -2.375,-0.9375 -0.89036,-0.2874 -1.90471,-0.375 -2.96875,-0.375 -2.3668,0 -4.15481,0.5884 -5.21875,1.9375 -1.04228,1.3268 -1.53125,3.1779 -1.53125,5.5 0,1.1279 0.1766,2.165 0.4375,3.0937 0.26042,0.9069 0.57259,1.6803 1.09375,2.3438 0.52108,0.6634 1.21828,1.1866 2,1.5625 0.78178,0.3539 1.73899,0.4687 2.78125,0.4687 0.56454,0 0.95275,0.024 1.34375,0 0.41248,-0.024 0.78973,-0.058 1.09375,-0.125 l 0,-8.0312 5.15625,0 0,11.375 c -0.60802,0.2436 -1.55993,0.6095 -2.90625,0.875 -1.3463,0.2873 -3.05521,0.375 -5.03125,0.375 -1.69374,0 -3.17276,-0.2193 -4.5625,-0.75 -1.368,-0.5308 -2.67907,-1.3263 -3.65625,-2.3438 -0.97724,-1.0171 -1.70716,-2.2996 -2.25,-3.7812 -0.52108,-1.4818 -0.78125,-3.1607 -0.78125,-5.0625 0,-1.9241 0.31999,-3.6434 0.90625,-5.125 0.58632,-1.4817 1.41688,-2.7638 2.4375,-3.7813 1.02062,-1.0392 2.16323,-1.7504 3.53125,-2.2812 1.38964,-0.5308 2.84277,-0.875 4.40625,-0.875 z"
           transform="translate(0,-147.63782)"
           id="path5061"
           inkscape:connector-curvature="0" />
        <path
           clip-path="url(#clipPath3017-4-5)"
           sodipodi:nodetypes="ccccccccc"
           inkscape:connector-curvature="0"
           id="path5033"
           d="m 213.5,189.36218 c -9,0 -10,0 -10,6 l 0,9 c 0,6 1,6 10,6 l 10,0 c 9,0 10,0 10,-6 l 0,-9 c 0,-6 -1,-6 -10,-6 z"
           style="fill:#cccccc;fill-opacity:1;stroke:none;display:none"
           transform="matrix(2,0,0,2,-226.00002,617.63782)" />
      </g>
    </g>
  </g>
  <g
     inkscape:groupmode="layer"
     id="layer2"
     inkscape:label="Clips"
     style="display:none"
     sodipodi:insensitive="true">
    <path
       transform="matrix(2,0,0,2,-392,-354.72436)"
       style="fill:#cccccc;fill-opacity:1;stroke:none;display:inline"
       d="m 213.5,189.36218 c -9,0 -10,0 -10,6 l 0,9 c 0,6 1,6 10,6 l 10,0 c 9,0 10,0 10,-6 l 0,-9 C 233.5,189.36218 232.5,189.36218 223.5,189.36218 Z"
       id="path3011-3"
       inkscape:connector-curvature="0"
       sodipodi:nodetypes="ccccccccc"
       clip-path="url(#clipPath3017-4)" />
  </g>
</svg>
