<?xml version="1.0" encoding="UTF-8" standalone="no"?>
<!-- Created with Inkscape (http://www.inkscape.org/) -->

<svg
   xmlns:dc="http://purl.org/dc/elements/1.1/"
   xmlns:cc="http://creativecommons.org/ns#"
   xmlns:rdf="http://www.w3.org/1999/02/22-rdf-syntax-ns#"
   xmlns:svg="http://www.w3.org/2000/svg"
   xmlns="http://www.w3.org/2000/svg"
   xmlns:xlink="http://www.w3.org/1999/xlink"
   xmlns:sodipodi="http://sodipodi.sourceforge.net/DTD/sodipodi-0.dtd"
   xmlns:inkscape="http://www.inkscape.org/namespaces/inkscape"
   sodipodi:docname="network-cellular-roaming03.svg"
   inkscape:version="0.48+devel r12667"
   version="1.1"
   id="svg3289"
   height="89.999916"
   width="90">
  <defs
     id="defs3291">
    <linearGradient
       id="linearGradient3992">
      <stop
         style="stop-color:#b5b5b5;stop-opacity:1"
         offset="0"
         id="stop3994" />
      <stop
         style="stop-color:#dbdbdb;stop-opacity:1"
         offset="1"
         id="stop3996" />
    </linearGradient>
    <linearGradient
       id="linearGradient3992-5">
      <stop
         style="stop-color:#b5b5b5;stop-opacity:1"
         offset="0"
         id="stop3994-3" />
      <stop
         style="stop-color:#dbdbdb;stop-opacity:1"
         offset="1"
         id="stop3996-0" />
    </linearGradient>
    <linearGradient
       id="linearGradient3382">
      <stop
         style="stop-color:#b5b5b5;stop-opacity:1"
         offset="0"
         id="stop3384" />
      <stop
         style="stop-color:#dbdbdb;stop-opacity:1"
         offset="1"
         id="stop3386" />
    </linearGradient>
    <linearGradient
       id="linearGradient4091">
      <stop
         id="stop4093"
         offset="0"
         style="stop-color:#dbdbdb;stop-opacity:1;" />
      <stop
         id="stop4095"
         offset="1"
         style="stop-color:#b5b5b5;stop-opacity:1;" />
    </linearGradient>
    <linearGradient
       id="linearGradient3468">
      <stop
         id="stop3470"
         offset="0"
         style="stop-color:#dbdbdb;stop-opacity:1;" />
      <stop
         id="stop3472"
         offset="1"
         style="stop-color:#b5b5b5;stop-opacity:1;" />
    </linearGradient>
    <linearGradient
       inkscape:collect="always"
       xlink:href="#linearGradient3775"
       id="linearGradient3773"
       gradientUnits="userSpaceOnUse"
       gradientTransform="matrix(1,0,0,-1,799.5,596)"
       x1="76"
       y1="41"
       x2="76"
       y2="7" />
    <linearGradient
       id="linearGradient3775">
      <stop
         id="stop3777"
         offset="0"
         style="stop-color:#494949;stop-opacity:1" />
      <stop
         id="stop3779"
         offset="1"
         style="stop-color:#575757;stop-opacity:1" />
    </linearGradient>
    <linearGradient
       y2="7"
       x2="76"
       y1="41"
       x1="76"
       gradientTransform="matrix(1,0,0,-1,754.92288,435.08782)"
       gradientUnits="userSpaceOnUse"
       id="linearGradient3796"
       xlink:href="#linearGradient3775"
       inkscape:collect="always" />
    <linearGradient
       inkscape:collect="always"
       xlink:href="#linearGradient3775-4"
       id="linearGradient3773-5"
       gradientUnits="userSpaceOnUse"
       gradientTransform="matrix(1,0,0,-1,799.5,596)"
       x1="76"
       y1="41"
       x2="76"
       y2="7" />
    <linearGradient
       id="linearGradient3775-4">
      <stop
         id="stop3777-2"
         offset="0"
         style="stop-color:#494949;stop-opacity:1" />
      <stop
         id="stop3779-8"
         offset="1"
         style="stop-color:#575757;stop-opacity:1" />
    </linearGradient>
    <linearGradient
       y2="7"
       x2="76"
       y1="41"
       x1="76"
       gradientTransform="matrix(0.75000002,0,0,-0.75000002,784.60555,225.74634)"
       gradientUnits="userSpaceOnUse"
       id="linearGradient3796-1"
       xlink:href="#linearGradient3775-4"
       inkscape:collect="always" />
  </defs>
  <sodipodi:namedview
     id="base"
     pagecolor="#000000"
     bordercolor="#666666"
     borderopacity="1.0"
     inkscape:pageopacity="1"
     inkscape:pageshadow="2"
     inkscape:zoom="7.9580787"
     inkscape:cx="29.774756"
     inkscape:cy="45.03729"
     inkscape:document-units="px"
     inkscape:current-layer="layer1"
     showgrid="true"
     inkscape:window-width="1920"
     inkscape:window-height="1029"
     inkscape:window-x="0"
     inkscape:window-y="24"
     inkscape:window-maximized="1"
     fit-margin-top="0"
     fit-margin-left="0"
     fit-margin-right="0"
     fit-margin-bottom="0"
     showguides="false"
     inkscape:snap-global="true"
     inkscape:snap-bbox="true"
     inkscape:bbox-paths="true"
     inkscape:bbox-nodes="true"
     inkscape:snap-bbox-edge-midpoints="true"
     inkscape:snap-bbox-midpoints="true"
     inkscape:snap-intersection-paths="true"
     inkscape:object-paths="true"
     inkscape:object-nodes="true"
     inkscape:snap-smooth-nodes="true"
     inkscape:snap-midpoints="true"
     inkscape:snap-center="true"
     inkscape:snap-object-midpoints="true">
    <inkscape:grid
       type="xygrid"
       id="grid4109"
       empspacing="6" />
  </sodipodi:namedview>
  <metadata
     id="metadata3294">
    <rdf:RDF>
      <cc:Work
         rdf:about="">
        <dc:format>image/svg+xml</dc:format>
        <dc:type
           rdf:resource="http://purl.org/dc/dcmitype/StillImage" />
        <dc:title></dc:title>
      </cc:Work>
    </rdf:RDF>
  </metadata>
  <g
     inkscape:label="Layer 1"
     inkscape:groupmode="layer"
     id="layer1"
     transform="translate(-4.0800001e-5,-962.36218)">
    <rect
       style="fill:none;stroke:none"
       id="rect4431"
       width="90"
       height="89.999916"
       x="4.0800001e-05"
       y="962.36218" />
    <path
       style="color:#000000;fill:#cccccc;fill-opacity:1;fill-rule:nonzero;stroke:none;stroke-width:1.58514225;marker:none;visibility:visible;display:inline;overflow:visible;enable-background:accumulate"
       d="M 44.798828 21.626953 A 3.7898567 3.8185351 0 0 0 41.720703 23.53125 L 19.306641 62.648438 A 3.7898567 3.8185351 0 0 0 22.585938 68.378906 L 67.414062 68.378906 A 3.7898567 3.8185351 0 0 0 70.693359 62.648438 L 48.279297 23.53125 A 3.7898567 3.8185351 0 0 0 44.798828 21.626953 z M 44.001953 40 C 47.144802 40 49.543984 40.576116 51.199219 41.728516 C 52.875405 42.880916 53.714844 44.642166 53.714844 47.009766 C 53.714844 49.964032 52.258077 51.964052 49.345703 53.011719 C 49.743798 53.493585 50.19441 54.080018 50.697266 54.771484 C 51.200122 55.462884 51.71252 56.218023 52.236328 57.035156 C 52.760136 57.831356 53.26419 58.658511 53.746094 59.517578 C 54.227997 60.355645 54.658014 61.182867 55.035156 62 L 50.603516 62 C 50.205422 61.245733 49.775404 60.492548 49.314453 59.738281 C 48.853502 58.963015 48.382295 58.218259 47.900391 57.505859 C 47.439439 56.772526 46.978529 56.091424 46.517578 55.462891 C 46.056627 54.813357 45.62661 54.237242 45.228516 53.734375 C 44.935183 53.755042 44.684133 53.765625 44.474609 53.765625 L 43.876953 53.765625 L 41.960938 53.765625 L 41.960938 62 L 38 62 L 38 40.533203 C 38.963807 40.32367 39.990557 40.187867 41.080078 40.125 C 42.169599 40.0412 43.142907 40 44.001953 40 z M 44.285156 43.425781 C 43.447063 43.425781 42.673317 43.456865 41.960938 43.519531 L 41.960938 50.560547 L 43.689453 50.560547 C 44.65326 50.560547 45.501044 50.507077 46.234375 50.402344 C 46.967706 50.29761 47.574737 50.110291 48.056641 49.837891 C 48.559497 49.565491 48.938025 49.197261 49.189453 48.736328 C 49.440881 48.275395 49.566406 47.688962 49.566406 46.976562 C 49.566406 46.306096 49.440881 45.74023 49.189453 45.279297 C 48.938025 44.818297 48.569795 44.452021 48.087891 44.179688 C 47.626939 43.907288 47.071397 43.718081 46.421875 43.613281 C 45.772353 43.487548 45.060393 43.425781 44.285156 43.425781 z "
       transform="translate(4.0800001e-5,962.36218)"
       id="path4046" />
  </g>
</svg>
