<?xml version="1.0" encoding="UTF-8" standalone="no"?>
<!-- Created with Inkscape (http://www.inkscape.org/) -->

<svg
   xmlns:dc="http://purl.org/dc/elements/1.1/"
   xmlns:cc="http://creativecommons.org/ns#"
   xmlns:rdf="http://www.w3.org/1999/02/22-rdf-syntax-ns#"
   xmlns:svg="http://www.w3.org/2000/svg"
   xmlns="http://www.w3.org/2000/svg"
   xmlns:xlink="http://www.w3.org/1999/xlink"
   xmlns:sodipodi="http://sodipodi.sourceforge.net/DTD/sodipodi-0.dtd"
   xmlns:inkscape="http://www.inkscape.org/namespaces/inkscape"
   width="90"
   height="90"
   id="svg3289"
   version="1.1"
   inkscape:version="0.48+devel r12221"
   sodipodi:docname="network-3g.svg">
  <defs
     id="defs3291">
    <linearGradient
       id="linearGradient3992">
      <stop
         style="stop-color:#b5b5b5;stop-opacity:1"
         offset="0"
         id="stop3994" />
      <stop
         style="stop-color:#dbdbdb;stop-opacity:1"
         offset="1"
         id="stop3996" />
    </linearGradient>
    <linearGradient
       id="linearGradient3992-5">
      <stop
         style="stop-color:#b5b5b5;stop-opacity:1"
         offset="0"
         id="stop3994-3" />
      <stop
         style="stop-color:#dbdbdb;stop-opacity:1"
         offset="1"
         id="stop3996-0" />
    </linearGradient>
    <linearGradient
       id="linearGradient3382">
      <stop
         style="stop-color:#b5b5b5;stop-opacity:1"
         offset="0"
         id="stop3384" />
      <stop
         style="stop-color:#dbdbdb;stop-opacity:1"
         offset="1"
         id="stop3386" />
    </linearGradient>
    <radialGradient
       inkscape:collect="always"
       xlink:href="#linearGradient4091"
       id="radialGradient4450"
       gradientUnits="userSpaceOnUse"
       cx="155.69038"
       cy="203.5215"
       fx="155.69038"
       fy="203.5215"
       r="2" />
    <linearGradient
       id="linearGradient4091">
      <stop
         id="stop4093"
         offset="0"
         style="stop-color:#dbdbdb;stop-opacity:1;" />
      <stop
         id="stop4095"
         offset="1"
         style="stop-color:#b5b5b5;stop-opacity:1;" />
    </linearGradient>
    <linearGradient
       inkscape:collect="always"
       xlink:href="#linearGradient4091"
       id="linearGradient4452"
       gradientUnits="userSpaceOnUse"
       gradientTransform="matrix(1.5000015,0,0,1.5000015,-397.00123,-108.1814)"
       x1="793"
       y1="217.28406"
       x2="795"
       y2="217.28406" />
    <linearGradient
       id="linearGradient3468">
      <stop
         id="stop3470"
         offset="0"
         style="stop-color:#dbdbdb;stop-opacity:1;" />
      <stop
         id="stop3472"
         offset="1"
         style="stop-color:#b5b5b5;stop-opacity:1;" />
    </linearGradient>
    <linearGradient
       id="linearGradient3992-7">
      <stop
         style="stop-color:#b5b5b5;stop-opacity:1"
         offset="0"
         id="stop3994-6" />
      <stop
         style="stop-color:#dbdbdb;stop-opacity:1"
         offset="1"
         id="stop3996-7" />
    </linearGradient>
    <clipPath
       clipPathUnits="userSpaceOnUse"
       id="clipPath3017-4">
      <path
         style="color:#000000;fill:#ff00ff;fill-opacity:1;fill-rule:nonzero;stroke:none;stroke-width:6;marker:none;visibility:visible;display:inline;overflow:visible;enable-background:accumulate"
         d="m 199,186.36218 0,27 39,0 0,-27 L 199,186.36218 z m 25.14062,7.5 c 0.53199,1e-5 0.98285,0.0788 1.40625,0.15625 0.43428,0.0665 0.85228,0.1503 1.15625,0.25 0.31487,0.0883 0.52331,0.15051 0.71875,0.25 0.20629,0.0995 0.3975,0.21035 0.48438,0.26562 l -0.71875,2.04688 c -0.34742,-0.18802 -0.73152,-0.33605 -1.1875,-0.46875 -0.44518,-0.14367 -0.95236,-0.1875 -1.48438,-0.1875 -1.1834,2e-5 -2.0774,0.29423 -2.60937,0.96875 -0.52114,0.66344 -0.76563,1.58898 -0.76563,2.75 0,0.56396 0.0883,1.08247 0.21875,1.54687 0.13021,0.45338 0.2863,0.84012 0.54688,1.17188 0.26054,0.33171 0.60914,0.5933 1,0.78125 0.39089,0.17694 0.86949,0.23437 1.39062,0.23437 0.28227,0 0.47638,0.0119 0.67188,0 0.20624,-0.0118 0.39486,-0.029 0.54687,-0.0625 l 0,-4.01562 2.57813,0 0,5.6875 c -0.30401,0.12179 -0.77997,0.30476 -1.45313,0.4375 -0.67315,0.14368 -1.5276,0.1875 -2.51562,0.1875 -0.84687,0 -1.58638,-0.10962 -2.28125,-0.375 -0.684,-0.2654 -1.33954,-0.66323 -1.82813,-1.17188 -0.48862,-0.50864 -0.85358,-1.14981 -1.125,-1.89062 -0.26054,-0.74088 -0.39062,-1.58031 -0.39062,-2.53125 0,-0.96201 0.15999,-1.82166 0.45312,-2.5625 0.29316,-0.74084 0.70844,-1.38195 1.21875,-1.89063 0.51031,-0.5197 1.08162,-0.87523 1.76563,-1.14062 C 222.63232,194.03429 223.35888,193.86218 224.14062,193.86218 z m -11.95312,0.0312 c 0.16265,-0.0119 0.35294,0 0.53125,0 0.65923,2e-5 1.24329,0.11625 1.71875,0.28125 0.48629,0.15417 0.87409,0.3747 1.1875,0.67187 0.31336,0.28617 0.55183,0.60379 0.70312,1 0.15137,0.3852 0.20313,0.8659 0.20313,1.32813 0,0.45128 -0.11057,0.86764 -0.35938,1.29687 -0.24855,0.41823 -0.57856,0.73303 -1,0.95313 0.58353,0.24213 1.04599,0.57822 1.35938,1.0625 0.32418,0.47325 0.46874,1.04741 0.46875,1.71875 -1e-5,0.52829 -0.0772,1.03315 -0.25,1.48437 -0.17294,0.44026 -0.44508,0.85733 -0.8125,1.1875 -0.36744,0.31919 -0.8335,0.54724 -1.40625,0.73438 -0.56193,0.17614 -1.22194,0.25 -2,0.25 -0.29181,0 -0.61332,0.0114 -0.9375,-0.0312 -0.32423,-0.033 -0.65054,-0.12135 -0.95313,-0.1875 -0.30257,-0.0659 -0.53269,-0.11021 -0.78125,-0.1875 -0.24856,-0.077 -0.46891,-0.15257 -0.60937,-0.21875 l 0.45312,-2.0625 c 0.28095,0.12087 0.6615,0.24753 1.09375,0.39062 0.44307,0.13221 1.0235,0.21875 1.67188,0.21875 0.74564,0 1.2323,-0.13585 1.57812,-0.42187 0.34578,-0.28617 0.54688,-0.67198 0.54688,-1.15625 0,-0.29717 -0.0577,-0.53625 -0.1875,-0.73438 -0.11866,-0.20911 -0.29951,-0.37891 -0.51563,-0.5 -0.21615,-0.13219 -0.5099,-0.26849 -0.8125,-0.3125 -0.29178,-0.0549 -0.57125,-0.0625 -0.90625,-0.0625 l -0.98437,0 0,-1.9375 1.125,0 c 0.23775,0 0.42449,-0.0808 0.64062,-0.125 0.2269,-0.044 0.4677,-0.0885 0.64063,-0.1875 0.17295,-0.11003 0.29336,-0.26138 0.39062,-0.4375 0.10805,-0.18702 0.125,-0.42798 0.125,-0.70312 0,-0.20913 -0.0387,-0.37719 -0.125,-0.53125 -0.0864,-0.15419 -0.18757,-0.27592 -0.32812,-0.375 -0.12981,-0.0994 -0.23818,-0.19035 -0.42188,-0.23438 -0.17296,-0.0549 -0.36315,-0.0625 -0.54687,-0.0625 -0.46469,3e-5 -0.94393,0.0601 -1.34375,0.20313 -0.38903,0.14289 -0.73834,0.32216 -1.0625,0.53125 l -0.84375,-1.82813 c 0.17295,-0.11026 0.38242,-0.17568 0.60937,-0.29687 0.23773,-0.12084 0.46902,-0.24468 0.75,-0.34375 0.28097,-0.0989 0.59286,-0.2152 0.90625,-0.28125 C 211.86518,193.95398 212.02483,193.90388 212.1875,193.89348 Z"
         id="path3019-4"
         inkscape:connector-curvature="0" />
    </clipPath>
  </defs>
  <sodipodi:namedview
     id="base"
     pagecolor="#ffffff"
     bordercolor="#666666"
     borderopacity="1.0"
     inkscape:pageopacity="0.0"
     inkscape:pageshadow="2"
     inkscape:zoom="6.366463"
     inkscape:cx="26.325452"
     inkscape:cy="30.527156"
     inkscape:document-units="px"
     inkscape:current-layer="g4507"
     showgrid="true"
     inkscape:window-width="1920"
     inkscape:window-height="1029"
     inkscape:window-x="0"
     inkscape:window-y="24"
     inkscape:window-maximized="1"
     fit-margin-top="0"
     fit-margin-left="0"
     fit-margin-right="0"
     fit-margin-bottom="0">
    <inkscape:grid
       type="xygrid"
       id="grid3774"
       empspacing="6"
       visible="true"
       enabled="true"
       snapvisiblegridlinesonly="true"
       originx="0px"
       originy="3.4375034e-08px" />
  </sodipodi:namedview>
  <metadata
     id="metadata3294">
    <rdf:RDF>
      <cc:Work
         rdf:about="">
        <dc:format>image/svg+xml</dc:format>
        <dc:type
           rdf:resource="http://purl.org/dc/dcmitype/StillImage" />
        <dc:title />
      </cc:Work>
    </rdf:RDF>
  </metadata>
  <g
     inkscape:label="Layer 1"
     inkscape:groupmode="layer"
     id="layer1"
     transform="translate(0,-962.3622)">
    <g
       style="display:inline"
       transform="translate(-789,604.3622)"
       id="g4451">
      <g
         style="display:inline"
         inkscape:label="#g3962"
         transform="matrix(2,0,0,2,397,3.2756348)"
         id="g4507">
        <rect
           style="fill:none;stroke:none"
           id="rect4509"
           width="45"
           height="45"
           x="196"
           y="177.36218" />
        <path
           style="fill:#cccccc;fill-opacity:1;stroke:none"
           clip-path="none"
           d="M 35 24 C 17 24 15 24 15 36 L 15 54 C 15 66 17 66 35 66 L 55 66 C 73 66 75 66 75 54 L 75 36 C 75 24 73 24 55 24 L 35 24 z M 56.28125 33 C 57.34523 33.00002 58.24695 33.1576 59.09375 33.3125 C 59.96231 33.4455 60.79831 33.6131 61.40625 33.8125 C 62.03599 33.9891 62.45287 34.11352 62.84375 34.3125 C 63.25633 34.5115 63.63874 34.73321 63.8125 34.84375 L 62.375 38.9375 C 61.68016 38.56146 60.91196 38.2654 60 38 C 59.10964 37.71266 58.09529 37.625 57.03125 37.625 C 54.66445 37.62504 52.87644 38.21346 51.8125 39.5625 C 50.77022 40.88938 50.28125 42.74046 50.28125 45.0625 C 50.28125 46.19042 50.45785 47.22745 50.71875 48.15625 C 50.97917 49.06301 51.29134 49.83648 51.8125 50.5 C 52.33358 51.16342 53.03078 51.6866 53.8125 52.0625 C 54.59428 52.41638 55.55149 52.53125 56.59375 52.53125 C 57.15829 52.53125 57.5465 52.55505 57.9375 52.53125 C 58.34998 52.50765 58.72723 52.47325 59.03125 52.40625 L 59.03125 44.375 L 64.1875 44.375 L 64.1875 55.75 C 63.57948 55.99358 62.62757 56.35952 61.28125 56.625 C 59.93495 56.91236 58.22604 57 56.25 57 C 54.55626 57 53.07724 56.78076 51.6875 56.25 C 50.3195 55.7192 49.00843 54.92355 48.03125 53.90625 C 47.05401 52.88897 46.32409 51.60662 45.78125 50.125 C 45.26017 48.64324 45 46.96438 45 45.0625 C 45 43.13848 45.31999 41.41918 45.90625 39.9375 C 46.49257 38.45582 47.32313 37.17361 48.34375 36.15625 C 49.36437 35.11685 50.50698 34.40578 51.875 33.875 C 53.26464 33.34422 54.71777 33 56.28125 33 z M 32.375 33.0625 C 32.7003 33.0387 33.08088 33.0625 33.4375 33.0625 C 34.75596 33.06254 35.92408 33.295 36.875 33.625 C 37.84758 33.93334 38.62318 34.37441 39.25 34.96875 C 39.87672 35.54109 40.35367 36.17633 40.65625 36.96875 C 40.95899 37.73915 41.0625 38.70054 41.0625 39.625 C 41.0625 40.52756 40.84137 41.36029 40.34375 42.21875 C 39.84665 43.05521 39.18663 43.6848 38.34375 44.125 C 39.51081 44.60926 40.43572 45.28144 41.0625 46.25 C 41.71086 47.1965 41.99998 48.34482 42 49.6875 C 41.99998 50.74408 41.8456 51.75381 41.5 52.65625 C 41.15412 53.53677 40.60984 54.37091 39.875 55.03125 C 39.14012 55.66963 38.208 56.12572 37.0625 56.5 C 35.93864 56.85228 34.61862 57 33.0625 57 C 32.47888 57 31.83586 57.0227 31.1875 56.9375 C 30.53904 56.8715 29.88643 56.6948 29.28125 56.5625 C 28.67611 56.4307 28.21587 56.34208 27.71875 56.1875 C 27.22163 56.0335 26.78092 55.88236 26.5 55.75 L 27.40625 51.625 C 27.96815 51.86674 28.72925 52.12007 29.59375 52.40625 C 30.47989 52.67067 31.64074 52.84375 32.9375 52.84375 C 34.42878 52.84375 35.40211 52.57204 36.09375 52 C 36.78531 51.42766 37.1875 50.65604 37.1875 49.6875 C 37.1875 49.09316 37.0721 48.61501 36.8125 48.21875 C 36.57518 47.80053 36.21349 47.46093 35.78125 47.21875 C 35.34895 46.95437 34.76145 46.68177 34.15625 46.59375 C 33.57269 46.48395 33.01375 46.46875 32.34375 46.46875 L 30.375 46.46875 L 30.375 42.59375 L 32.625 42.59375 C 33.1005 42.59375 33.47399 42.43215 33.90625 42.34375 C 34.36005 42.25575 34.84164 42.16675 35.1875 41.96875 C 35.5334 41.74869 35.77423 41.44599 35.96875 41.09375 C 36.18485 40.71971 36.21875 40.23778 36.21875 39.6875 C 36.21875 39.26924 36.14135 38.93312 35.96875 38.625 C 35.79595 38.31662 35.5936 38.07316 35.3125 37.875 C 35.05288 37.6762 34.83615 37.49431 34.46875 37.40625 C 34.12283 37.29645 33.74244 37.28125 33.375 37.28125 C 32.44562 37.28131 31.48714 37.40144 30.6875 37.6875 C 29.90944 37.97328 29.21082 38.33182 28.5625 38.75 L 26.875 35.09375 C 27.2209 34.87323 27.63985 34.74238 28.09375 34.5 C 28.56921 34.25832 29.03179 34.01064 29.59375 33.8125 C 30.15569 33.6147 30.77947 33.3821 31.40625 33.25 C 31.73037 33.1836 32.04966 33.0833 32.375 33.0625 z "
           transform="matrix(0.5,0,0,0.5,196,177.36218)"
           id="path3011" />
      </g>
    </g>
  </g>
  <g
     inkscape:groupmode="layer"
     id="layer2"
     inkscape:label="Clips"
     style="display:none"
     sodipodi:insensitive="true">
    <path
       transform="matrix(2,0,0,2,-392,-354.72436)"
       style="fill:#cccccc;fill-opacity:1;stroke:none;display:inline"
       d="m 213.5,189.36218 c -9,0 -10,0 -10,6 l 0,9 c 0,6 1,6 10,6 l 10,0 c 9,0 10,0 10,-6 l 0,-9 C 233.5,189.36218 232.5,189.36218 223.5,189.36218 Z"
       id="path3011-3"
       inkscape:connector-curvature="0"
       sodipodi:nodetypes="ccccccccc"
       clip-path="url(#clipPath3017-4)" />
  </g>
</svg>
