<?xml version="1.0" encoding="UTF-8" standalone="no"?>
<!-- Created with Inkscape (http://www.inkscape.org/) -->

<svg
   xmlns:dc="http://purl.org/dc/elements/1.1/"
   xmlns:cc="http://creativecommons.org/ns#"
   xmlns:rdf="http://www.w3.org/1999/02/22-rdf-syntax-ns#"
   xmlns:svg="http://www.w3.org/2000/svg"
   xmlns="http://www.w3.org/2000/svg"
   xmlns:xlink="http://www.w3.org/1999/xlink"
   xmlns:sodipodi="http://sodipodi.sourceforge.net/DTD/sodipodi-0.dtd"
   xmlns:inkscape="http://www.inkscape.org/namespaces/inkscape"
   width="90"
   height="90"
   id="svg3289"
   version="1.1"
   inkscape:version="0.48+devel r12504"
   sodipodi:docname="nm-adhoc.svg">
  <defs
     id="defs3291">
    <linearGradient
       id="linearGradient3992">
      <stop
         style="stop-color:#b5b5b5;stop-opacity:1"
         offset="0"
         id="stop3994" />
      <stop
         style="stop-color:#dbdbdb;stop-opacity:1"
         offset="1"
         id="stop3996" />
    </linearGradient>
    <linearGradient
       id="linearGradient3992-5">
      <stop
         style="stop-color:#b5b5b5;stop-opacity:1"
         offset="0"
         id="stop3994-3" />
      <stop
         style="stop-color:#dbdbdb;stop-opacity:1"
         offset="1"
         id="stop3996-0" />
    </linearGradient>
    <linearGradient
       id="linearGradient3382">
      <stop
         style="stop-color:#b5b5b5;stop-opacity:1"
         offset="0"
         id="stop3384" />
      <stop
         style="stop-color:#dbdbdb;stop-opacity:1"
         offset="1"
         id="stop3386" />
    </linearGradient>
    <linearGradient
       id="linearGradient4091">
      <stop
         id="stop4093"
         offset="0"
         style="stop-color:#dbdbdb;stop-opacity:1;" />
      <stop
         id="stop4095"
         offset="1"
         style="stop-color:#b5b5b5;stop-opacity:1;" />
    </linearGradient>
    <linearGradient
       id="linearGradient3468">
      <stop
         id="stop3470"
         offset="0"
         style="stop-color:#dbdbdb;stop-opacity:1;" />
      <stop
         id="stop3472"
         offset="1"
         style="stop-color:#b5b5b5;stop-opacity:1;" />
    </linearGradient>
    <linearGradient
       id="linearGradient3992-7">
      <stop
         style="stop-color:#b5b5b5;stop-opacity:1"
         offset="0"
         id="stop3994-6" />
      <stop
         style="stop-color:#dbdbdb;stop-opacity:1"
         offset="1"
         id="stop3996-7" />
    </linearGradient>
    <linearGradient
       inkscape:collect="always"
       xlink:href="#linearGradient3992-54"
       id="linearGradient4158"
       gradientUnits="userSpaceOnUse"
       gradientTransform="matrix(2,0,0,1.9861112,-1031,-247.30555)"
       x1="1001.1268"
       y1="332"
       x2="1001.1268"
       y2="344" />
    <linearGradient
       id="linearGradient3992-54">
      <stop
         style="stop-color:#b5b5b5;stop-opacity:1"
         offset="0"
         id="stop3994-9" />
      <stop
         style="stop-color:#dbdbdb;stop-opacity:1"
         offset="1"
         id="stop3996-5" />
    </linearGradient>
    <linearGradient
       inkscape:collect="always"
       xlink:href="#linearGradient3992-54"
       id="linearGradient4428"
       gradientUnits="userSpaceOnUse"
       gradientTransform="matrix(2,0,0,1.9861112,-1031,-247.30555)"
       x1="1010"
       y1="344"
       x2="1010"
       y2="332" />
    <linearGradient
       id="linearGradient3613">
      <stop
         style="stop-color:#b5b5b5;stop-opacity:1"
         offset="0"
         id="stop3615" />
      <stop
         style="stop-color:#dbdbdb;stop-opacity:1"
         offset="1"
         id="stop3617" />
    </linearGradient>
    <linearGradient
       id="linearGradient4091-5">
      <stop
         id="stop4093-8"
         offset="0"
         style="stop-color:#dbdbdb;stop-opacity:1;" />
      <stop
         id="stop4095-6"
         offset="1"
         style="stop-color:#b5b5b5;stop-opacity:1;" />
    </linearGradient>
    <linearGradient
       id="linearGradient3747">
      <stop
         id="stop3749"
         offset="0"
         style="stop-color:#dbdbdb;stop-opacity:1;" />
      <stop
         id="stop3751"
         offset="1"
         style="stop-color:#b5b5b5;stop-opacity:1;" />
    </linearGradient>
    <clipPath
       id="clipPath3824-3"
       clipPathUnits="userSpaceOnUse">
      <path
         inkscape:connector-curvature="0"
         id="path3826-8"
         d="m 205,183.36218 0,33 27,0 0,-33 -27,0 z m 12.5625,4.40625 1.60937,1.57812 4.6875,4.6875 0.64063,0.67188 -0.64063,0.67187 -4.42187,4.42188 0,0.125 4.42187,4.42187 0.64063,0.67188 -0.64063,0.67187 -4.6875,4.6875 -1.60937,1.57813 0,-2.25 0,-8.03125 -4.01563,4.01562 -1.34375,-1.34375 4.48438,-4.48437 -4.48438,-4.48438 1.34375,-1.34375 4.01563,4.01563 0,-8.03125 0,-2.25 z m 1.875,4.53125 0,4.8125 2.40625,-2.40625 -2.40625,-2.40625 z m 0,10.3125 0,4.8125 2.40625,-2.40625 -2.40625,-2.40625 z"
         style="opacity:0.58108108;color:#000000;fill:#ff0000;fill-opacity:1;fill-rule:nonzero;stroke:none;stroke-width:4;marker:none;visibility:visible;display:inline;overflow:visible;enable-background:accumulate" />
    </clipPath>
  </defs>
  <sodipodi:namedview
     id="base"
     pagecolor="#000000"
     bordercolor="#666666"
     borderopacity="1.0"
     inkscape:pageopacity="1"
     inkscape:pageshadow="2"
     inkscape:zoom="3.6893488"
     inkscape:cx="31.399454"
     inkscape:cy="101.10057"
     inkscape:document-units="px"
     inkscape:current-layer="layer1"
     showgrid="true"
     inkscape:window-width="1920"
     inkscape:window-height="1029"
     inkscape:window-x="0"
     inkscape:window-y="24"
     inkscape:window-maximized="1"
     fit-margin-top="0"
     fit-margin-left="0"
     fit-margin-right="0"
     fit-margin-bottom="0"
     inkscape:snap-grids="false">
    <inkscape:grid
       type="xygrid"
       id="grid3020"
       empspacing="8"
       visible="true"
       enabled="true"
       snapvisiblegridlinesonly="true"
       originx="0px"
       originy="0px" />
  </sodipodi:namedview>
  <metadata
     id="metadata3294">
    <rdf:RDF>
      <cc:Work
         rdf:about="">
        <dc:format>image/svg+xml</dc:format>
        <dc:type
           rdf:resource="http://purl.org/dc/dcmitype/StillImage" />
        <dc:title></dc:title>
      </cc:Work>
    </rdf:RDF>
  </metadata>
  <g
     inkscape:label="Layer 1"
     inkscape:groupmode="layer"
     id="layer1"
     transform="translate(0,-962.3622)">
    <g
       id="g5197"
       transform="translate(-62,486.00002)">
      <rect
         y="476.36218"
         x="62"
         height="90"
         width="90"
         id="rect5199"
         style="opacity:0.22400004;fill:none;stroke:none" />
      <path
         clip-path="url(#clipPath3824-3)"
         sodipodi:nodetypes="ccccccccc"
         inkscape:connector-curvature="0"
         id="path5201"
         d="m 218,184.86218 c -9,0 -10,0 -10,6 l 0,18 c 0,6 1,6 10,6 l 1,0 c 9,0 10,0 10,-6 l 0,-18 c 0,-6 -1,-6 -10,-6 z"
         style="fill:#cccccc;fill-opacity:1;stroke:none;display:none"
         transform="matrix(2,0,0,2,-330,121.63782)" />
      <path
         style="fill:#cccccc;fill-opacity:1;display:inline"
         d="M 37.0625 18 C 16.293199 18 14 17.99995 14 31.84375 L 14 47.15625 C 14 61.00255 16.293199 61 37.0625 61 L 52.9375 61 C 73.7068 61 76 61.00005 76 47.15625 L 76 31.84375 C 76 17.99755 73.7068 18 52.9375 18 L 37.0625 18 z M 37.058594 23 L 52.941406 23 C 69.999356 23 71 22.999651 71 31.832031 L 71 47.167969 C 71 56.000349 69.999356 56 52.941406 56 L 37.058594 56 C 20.000644 56 19 56.000349 19 47.167969 L 19 31.832031 C 19 22.999651 20.000644 23 37.058594 23 z "
         transform="translate(62,476.36218)"
         id="path5211" />
      <path
         style="color:#000000;fill:#cccccc;fill-opacity:1;fill-rule:nonzero;stroke:none;stroke-width:3;marker:none;visibility:visible;display:inline;overflow:visible;enable-background:accumulate"
         d="m 102,552 0,2.58398 0,0.45508 c -2.786407,0.0932 -12,0.57987 -12,3.29492 L 90,560 l 34,0 0,-1.66602 c 0,-2.79895 -9.48558,-3.22708 -12,-3.29882 l 0,-0.45118 L 112,552 Z"
         transform="translate(0,-11.6379)"
         id="rect4660"
         inkscape:connector-curvature="0"
         sodipodi:nodetypes="cccsccscccc" />
      <path
         sodipodi:type="arc"
         style="color:#000000;fill:none;stroke:#cccccc;stroke-width:5.26324034;stroke-linecap:butt;stroke-linejoin:round;stroke-miterlimit:4;stroke-opacity:1;stroke-dasharray:none;stroke-dashoffset:0;marker:none;visibility:visible;display:inline;overflow:visible;enable-background:accumulate"
         id="path6501"
         sodipodi:cx="37"
         sodipodi:cy="45"
         sodipodi:rx="35.413769"
         sodipodi:ry="35.413769"
         d="m 65.095631,23.441462 c 9.757517,12.716243 9.757517,30.400832 0,43.117075"
         transform="matrix(0,-0.77654794,0.74378141,0,73.529837,562.63393)"
         sodipodi:start="5.6286868"
         sodipodi:end="6.9376838"
         sodipodi:open="true" />
      <path
         transform="matrix(0,-0.54345028,0.52051495,0,83.576841,554.00582)"
         d="m 65.095631,23.441462 c 9.757517,12.716243 9.757517,30.400832 0,43.117075"
         sodipodi:ry="35.413769"
         sodipodi:rx="35.413769"
         sodipodi:cy="45"
         sodipodi:cx="37"
         id="path6503"
         style="color:#000000;fill:none;stroke:#cccccc;stroke-width:7.5207901;stroke-linecap:butt;stroke-linejoin:round;stroke-miterlimit:4;stroke-opacity:1;stroke-dasharray:none;stroke-dashoffset:0;marker:none;visibility:visible;display:inline;overflow:visible;enable-background:accumulate"
         sodipodi:type="arc"
         sodipodi:start="5.6286868"
         sodipodi:end="6.9376838"
         sodipodi:open="true" />
      <path
         sodipodi:type="arc"
         style="color:#000000;fill:none;stroke:#cccccc;stroke-width:12.99521923;stroke-linecap:butt;stroke-linejoin:round;stroke-miterlimit:4;stroke-opacity:1;stroke-dasharray:none;stroke-dashoffset:0;marker:none;visibility:visible;display:inline;overflow:visible;enable-background:accumulate"
         id="path6505"
         sodipodi:cx="37"
         sodipodi:cy="45"
         sodipodi:rx="35.413769"
         sodipodi:ry="35.413769"
         d="m 65.095631,23.441462 c 9.757517,12.716243 9.757517,30.400832 0,43.117075"
         transform="matrix(0,-0.31446825,0.30128394,0,93.442252,545.66952)"
         sodipodi:start="5.6286868"
         sodipodi:end="6.9376838"
         sodipodi:open="true" />
    </g>
  </g>
  <g
     inkscape:groupmode="layer"
     id="layer3"
     inkscape:label="Shapes"
     sodipodi:insensitive="true"
     style="display:none">
    <path
       transform="matrix(2,0,0,2,-392,-354.72436)"
       style="opacity:0.5;fill:#ff00ff;fill-opacity:1;stroke:none;display:inline"
       d="m 213.5,189.36218 c -9,0 -10,0 -10,6 l 0,9 c 0,6 1,6 10,6 l 10,0 c 9,0 10,0 10,-6 l 0,-9 C 233.5,189.36218 232.5,189.36218 223.5,189.36218 Z"
       id="path3011-1"
       inkscape:connector-curvature="0"
       sodipodi:nodetypes="ccccccccc"
       clip-path="none" />
    <path
       sodipodi:nodetypes="cccccccccccccccccccccc"
       inkscape:connector-curvature="0"
       id="path3804-0"
       d="m 5.5,19 0,52 79,0 L 84.5,19 z m 7.03124,7.1875 29.4375,27.15626 c 2.09856,1.67436 4.19326,1.85494 6.37486,0 L 77.81234,26.1875 80.5311,29.15626 61.1561,47 73.8436,61.65626 58.74984,49.21876 51.0936,56.25 51.0312,56.2812 c -1.68336,1.66162 -3.68494,3.03626 -5.8125,3.03126 -2.14588,-0.004 -4.16976,-1.37774 -5.9375,-3.03126 L 31.5937,49.2187 16.5,61.65626 29.15624,47 9.8125,29.15626 Z"
       style="color:#000000;fill:#0000ff;fill-opacity:1;fill-rule:nonzero;stroke:none;stroke-width:6;marker:none;visibility:visible;display:inline;overflow:visible;enable-background:accumulate" />
  </g>
</svg>
