<?xml version="1.0" encoding="UTF-8" standalone="no"?>
<!-- Created with Inkscape (http://www.inkscape.org/) -->

<svg
   xmlns:dc="http://purl.org/dc/elements/1.1/"
   xmlns:cc="http://creativecommons.org/ns#"
   xmlns:rdf="http://www.w3.org/1999/02/22-rdf-syntax-ns#"
   xmlns:svg="http://www.w3.org/2000/svg"
   xmlns="http://www.w3.org/2000/svg"
   xmlns:xlink="http://www.w3.org/1999/xlink"
   xmlns:sodipodi="http://sodipodi.sourceforge.net/DTD/sodipodi-0.dtd"
   xmlns:inkscape="http://www.inkscape.org/namespaces/inkscape"
   width="48"
   height="48"
   id="svg3289"
   version="1.1"
   inkscape:version="0.48.3.1 r9886"
   sodipodi:docname="indicator_sync-idle_48x48px.svg">
  <defs
     id="defs3291">
    <linearGradient
       id="linearGradient3775">
      <stop
         id="stop3777"
         offset="0"
         style="stop-color:#494949;stop-opacity:1" />
      <stop
         id="stop3779"
         offset="1"
         style="stop-color:#575757;stop-opacity:1" />
    </linearGradient>
    <linearGradient
       y2="7"
       x2="76"
       y1="41"
       x1="76"
       gradientTransform="matrix(1,0,0,-1,747.5,458)"
       gradientUnits="userSpaceOnUse"
       id="linearGradient3796"
       xlink:href="#linearGradient3775"
       inkscape:collect="always" />
  </defs>
  <sodipodi:namedview
     id="base"
     pagecolor="#ffffff"
     bordercolor="#666666"
     borderopacity="1.0"
     inkscape:pageopacity="0.0"
     inkscape:pageshadow="2"
     inkscape:zoom="24.286129"
     inkscape:cx="13.541912"
     inkscape:cy="29.671258"
     inkscape:document-units="px"
     inkscape:current-layer="g3840"
     showgrid="true"
     inkscape:window-width="1920"
     inkscape:window-height="1029"
     inkscape:window-x="0"
     inkscape:window-y="24"
     inkscape:window-maximized="1">
    <inkscape:grid
       type="xygrid"
       id="grid3037" />
  </sodipodi:namedview>
  <metadata
     id="metadata3294">
    <rdf:RDF>
      <cc:Work
         rdf:about="">
        <dc:format>image/svg+xml</dc:format>
        <dc:type
           rdf:resource="http://purl.org/dc/dcmitype/StillImage" />
        <dc:title />
      </cc:Work>
    </rdf:RDF>
  </metadata>
  <g
     inkscape:label="Layer 1"
     inkscape:groupmode="layer"
     id="layer1"
     transform="translate(0,-1004.3622)">
    <g
       style="display:inline"
       transform="translate(-789,604.3622)"
       id="g4451">
      <rect
         ry="7.5"
         y="420"
         x="847"
         height="15"
         width="32"
         id="rect3045"
         style="color:#000000;fill:#ff00ff;fill-opacity:1;fill-rule:nonzero;stroke:none;stroke-width:3;marker:none;visibility:visible;display:inline;overflow:visible;enable-background:accumulate" />
      <path
         transform="matrix(0.94117647,0,0,0.94117647,841.05882,401.64706)"
         d="M 35,19.5 C 35,24.19442 31.19442,28 26.5,28 21.80558,28 18,24.19442 18,19.5 18,14.80558 21.80558,11 26.5,11 c 4.69442,0 8.5,3.80558 8.5,8.5 z"
         sodipodi:ry="8.5"
         sodipodi:rx="8.5"
         sodipodi:cy="19.5"
         sodipodi:cx="26.5"
         id="path3047"
         style="color:#000000;fill:#ff00ff;fill-opacity:1;fill-rule:nonzero;stroke:none;stroke-width:3;marker:none;visibility:visible;display:inline;overflow:visible;enable-background:accumulate"
         sodipodi:type="arc" />
      <path
         transform="matrix(1.1428571,0,0,1.1428571,837.14286,396.71429)"
         d="M 20,19.5 C 20,21.432997 18.432997,23 16.5,23 14.567003,23 13,21.432997 13,19.5 13,17.567003 14.567003,16 16.5,16 c 1.932997,0 3.5,1.567003 3.5,3.5 z"
         sodipodi:ry="3.5"
         sodipodi:rx="3.5"
         sodipodi:cy="19.5"
         sodipodi:cx="16.5"
         id="path3049"
         style="color:#000000;fill:#ff00ff;fill-opacity:1;fill-rule:nonzero;stroke:none;stroke-width:3;marker:none;visibility:visible;display:inline;overflow:visible;enable-background:accumulate"
         sodipodi:type="arc" />
      <g
         id="g3840">
        <path
           id="rect3039"
           transform="translate(789,400)"
           d="M 27 12 C 23.93733 12 21.281893 13.722303 19.9375 16.25 C 19.207561 15.469904 18.152635 15 17 15 C 14.790861 15 13 16.790861 13 19 C 13 19.471872 13.099961 19.923422 13.25 20.34375 C 10.19327 21.290519 8 24.124063 8 27.5 C 8 31.655 11.345 35 15.5 35 L 32.5 35 C 36.655 35 40 31.655 40 27.5 C 40 24.208414 37.906935 21.452089 34.96875 20.4375 C 34.976779 20.290624 35 20.14888 35 20 C 35 15.581722 31.418278 12 27 12 z "
           style="color:#000000;fill:#cccccc;fill-opacity:1;fill-rule:nonzero;stroke:none;stroke-width:3;marker:none;visibility:visible;display:inline;overflow:visible;enable-background:accumulate;opacity:0.5" />
        <rect
           transform="translate(789,400)"
           y="0"
           x="0"
           height="48"
           width="48"
           id="rect3838"
           style="color:#000000;fill:none;fill-opacity:1;fill-rule:nonzero;stroke:none;stroke-width:3;marker:none;visibility:visible;display:inline;overflow:visible;enable-background:accumulate" />
      </g>
    </g>
  </g>
</svg>
