<?xml version="1.0" encoding="UTF-8" standalone="no"?>
<!-- Created with Inkscape (http://www.inkscape.org/) -->

<svg
   xmlns:dc="http://purl.org/dc/elements/1.1/"
   xmlns:cc="http://creativecommons.org/ns#"
   xmlns:rdf="http://www.w3.org/1999/02/22-rdf-syntax-ns#"
   xmlns:svg="http://www.w3.org/2000/svg"
   xmlns="http://www.w3.org/2000/svg"
   xmlns:sodipodi="http://sodipodi.sourceforge.net/DTD/sodipodi-0.dtd"
   xmlns:inkscape="http://www.inkscape.org/namespaces/inkscape"
   width="90"
   height="90"
   id="svg3140"
   version="1.1"
   inkscape:version="0.48.3.1 r9886"
   sodipodi:docname="camera@30.svg">
  <defs
     id="defs3142" />
  <sodipodi:namedview
     id="base"
     pagecolor="#ffffff"
     bordercolor="#666666"
     borderopacity="1.0"
     inkscape:pageopacity="0.0"
     inkscape:pageshadow="2"
     inkscape:zoom="6.3664628"
     inkscape:cx="49.06178"
     inkscape:cy="60.86578"
     inkscape:document-units="px"
     inkscape:current-layer="g4978"
     showgrid="true"
     inkscape:window-width="1920"
     inkscape:window-height="1029"
     inkscape:window-x="0"
     inkscape:window-y="24"
     inkscape:window-maximized="1"
     showguides="true"
     inkscape:guide-bbox="true"
     fit-margin-top="0"
     fit-margin-left="0"
     fit-margin-right="0"
     fit-margin-bottom="0">
    <inkscape:grid
       type="xygrid"
       id="grid3178"
       empspacing="6"
       visible="true"
       enabled="true"
       snapvisiblegridlinesonly="true"
       originx="0px"
       originy="-1.7382813e-05px"
       color="#ff0000"
       opacity="0.27843137"
       empcolor="#ff0000"
       empopacity="0.45882353" />
  </sodipodi:namedview>
  <metadata
     id="metadata3145">
    <rdf:RDF>
      <cc:Work
         rdf:about="">
        <dc:format>image/svg+xml</dc:format>
        <dc:type
           rdf:resource="http://purl.org/dc/dcmitype/StillImage" />
        <dc:title />
      </cc:Work>
    </rdf:RDF>
  </metadata>
  <g
     inkscape:label="Layer 1"
     inkscape:groupmode="layer"
     id="layer1"
     transform="translate(0,-962.36218)">
    <rect
       style="color:#000000;fill:none;stroke:none;stroke-width:7.5;marker:none;visibility:visible;display:inline;overflow:visible;enable-background:accumulate"
       id="rect4198"
       width="89.688538"
       height="90"
       x="0"
       y="962.36218" />
    <g
       id="g4978"
       transform="translate(-60,548.00002)">
      <path
         style="fill:#808080;fill-opacity:1"
         d="M 30,12 C 3,12 0,12 0,30 l 0,30 c 0,18 3,18 30,18 l 30,0 c 27,0 30,0 30,-18 L 90,30 C 90,12 87,12 60,12 z m -16.6875,6 c 0.505859,-0.0078 1.0625,0 1.6875,0 l 6,0 c 5,0 6,0 6,4 l 0,4 c 0,4 -1,4 -6,4 l -6,0 c -5,0 -6,0 -6,-4 l 0,-4 c 0,-3.5 0.7714844,-3.945312 4.3125,-4 z M 57,18 C 71.9117,18 84,30.08831 84,45 84,59.91169 71.9117,72 57,72 42.08832,72 30,59.91169 30,45 30,30.08831 42.08832,18 57,18 z m 0,6 C 45.40203,24 36,33.40203 36,45 36,56.59798 45.40203,66 57,66 68.59799,66 78,56.59798 78,45 78,33.40203 68.59799,24 57,24 z m 0,6 c 8.28428,0 15,6.71573 15,15 0,8.28427 -6.71572,15 -15,15 -8.28427,0 -15,-6.71573 -15,-15 0,-8.28427 6.71573,-15 15,-15 z m -4.5,6 C 50.0147,36 48,37.92605 48,40.4375 48,42.94896 50.0147,45 52.5,45 54.98528,45 57,42.94896 57,40.4375 57,37.92605 54.98528,36 52.5,36 z"
         transform="translate(60,414.36216)"
         id="path3777"
         inkscape:connector-curvature="0"
         sodipodi:nodetypes="sssssssssssssssssssssssssssssssssssssss" />
      <path
         style="fill:#808080;fill-opacity:1"
         d="m 69,426.36218 0,3 18,0 0,-3 c 0,-3 -1,-3.00002 -5,-3.00002 l -8,0 c -4,2e-5 -5,2e-5 -5,3.00002 z"
         id="path3779"
         inkscape:connector-curvature="0"
         sodipodi:nodetypes="cccsscc" />
      <rect
         style="color:#000000;fill:none;stroke:none;stroke-width:6;marker:none;visibility:visible;display:inline;overflow:visible;enable-background:accumulate"
         id="rect3034"
         width="90"
         height="90"
         x="0"
         y="1.7382814e-05"
         transform="translate(60,414.36216)" />
    </g>
  </g>
</svg>
