<?xml version="1.0" encoding="UTF-8" standalone="no"?>
<!-- Created with Inkscape (http://www.inkscape.org/) -->

<svg
   xmlns:dc="http://purl.org/dc/elements/1.1/"
   xmlns:cc="http://creativecommons.org/ns#"
   xmlns:rdf="http://www.w3.org/1999/02/22-rdf-syntax-ns#"
   xmlns:svg="http://www.w3.org/2000/svg"
   xmlns="http://www.w3.org/2000/svg"
   xmlns:sodipodi="http://sodipodi.sourceforge.net/DTD/sodipodi-0.dtd"
   xmlns:inkscape="http://www.inkscape.org/namespaces/inkscape"
   width="90"
   height="89.999954"
   id="svg3140"
   version="1.1"
   inkscape:version="0.48.3.1 r9886"
   sodipodi:docname="gallery@30.svg">
  <defs
     id="defs3142" />
  <sodipodi:namedview
     id="base"
     pagecolor="#ffffff"
     bordercolor="#666666"
     borderopacity="1.0"
     inkscape:pageopacity="0.0"
     inkscape:pageshadow="2"
     inkscape:zoom="2.0861626"
     inkscape:cx="155.76446"
     inkscape:cy="15.866262"
     inkscape:document-units="px"
     inkscape:current-layer="g4978"
     showgrid="true"
     inkscape:window-width="1920"
     inkscape:window-height="1029"
     inkscape:window-x="0"
     inkscape:window-y="24"
     inkscape:window-maximized="1"
     showguides="true"
     inkscape:guide-bbox="true"
     fit-margin-top="0"
     fit-margin-left="0"
     fit-margin-right="0"
     fit-margin-bottom="0">
    <inkscape:grid
       type="xygrid"
       id="grid3178"
       empspacing="6"
       visible="true"
       enabled="true"
       snapvisiblegridlinesonly="true"
       originx="0px"
       originy="-6.315918e-05px"
       color="#ff0000"
       opacity="0.2627451"
       empcolor="#ff0000"
       empopacity="0.45882353" />
  </sodipodi:namedview>
  <metadata
     id="metadata3145">
    <rdf:RDF>
      <cc:Work
         rdf:about="">
        <dc:format>image/svg+xml</dc:format>
        <dc:type
           rdf:resource="http://purl.org/dc/dcmitype/StillImage" />
        <dc:title></dc:title>
      </cc:Work>
    </rdf:RDF>
  </metadata>
  <g
     inkscape:label="Layer 1"
     inkscape:groupmode="layer"
     id="layer1"
     transform="translate(0,-962.36218)">
    <rect
       style="color:#000000;fill:none;stroke:none;stroke-width:7.5;marker:none;visibility:visible;display:inline;overflow:visible;enable-background:accumulate"
       id="rect4198"
       width="89.999954"
       height="89.999954"
       x="0"
       y="962.36218" />
    <g
       id="g4978"
       transform="translate(-60,548.00002)">
      <path
         d="m 84,456.36213 0,30 c 0,18 3,18 30,18 l 6,0 c 27,0 30,0 30,-18 l 0,-30 c 0,-18 -3,-18 -30,-18 l -6,0 c -27,0 -30,0 -30,18 z m 30,-12 6,0 c 24,0 24,0 24,12 l 0,21 c 0,12 0,12 -24,12 l -6,0 c -24,0 -24,0 -24,-12 l 0,-21 c 0,-12 0,-12 24,-12 z"
         id="path3759"
         style="fill:#808080;fill-opacity:1"
         inkscape:connector-curvature="0"
         sodipodi:nodetypes="cssssssccccccccccc"
         clip-path="none" />
      <path
         d="m 96,477.90763 0,-11.63636 10.5,-10.90909 13.125,13.63636 5.25,-5.45454 13.125,13.63636 0,0.72727 c 0,5.45455 -0.875,5.45455 -10.5,5.45455 l -21,0 c -9.625,0 -10.5,0 -10.5,-5.45455 z"
         inkscape:connector-curvature="0"
         sodipodi:nodetypes="cccccccccc"
         id="path4072"
         style="fill:#808080;fill-opacity:1" />
      <path
         sodipodi:type="arc"
         style="color:#000000;fill:#808080;stroke:none;stroke-width:6;marker:none;visibility:visible;display:inline;overflow:visible;enable-background:accumulate"
         id="path3011"
         sodipodi:cx="73.5"
         sodipodi:cy="34.500019"
         sodipodi:rx="4.5"
         sodipodi:ry="4.5"
         d="m 78,34.500019 a 4.5,4.5 0 1 1 -9,0 4.5,4.5 0 1 1 9,0 z"
         transform="matrix(1.3333333,0,0,1.3333333,34,410.36215)" />
      <path
         style="fill:#808080;fill-opacity:1"
         clip-path="none"
         d="M 42 12 C 15 12 12 12 12 30 L 12 60 C 12 69.757796 12.891298 74.235307 18 76.28125 L 18 51 L 18 36 L 18 30 C 18 19.133864 18.180606 18.128264 36 18.03125 L 36 18 L 42 18 L 48 18 L 76.53125 18 C 73.885661 12.002316 66.718346 12 48 12 L 42 12 z "
         transform="translate(60,414.36216)"
         id="path3015" />
      <path
         id="path3023"
         d="m 90,414.36216 c -27,0 -30,0 -30,18 l 0,30 c 0,9.7578 0.891298,14.23531 6,16.28125 l 0,-25.28125 0,-15 0,-6 c 0,-10.86614 0.180606,-11.87174 18,-11.96875 l 0,-0.0312 6,0 6,0 28.53125,0 c -2.64559,-5.99768 -9.8129,-6 -28.53125,-6 l -6,0 z"
         clip-path="none"
         style="fill:#808080;fill-opacity:1"
         inkscape:connector-curvature="0" />
    </g>
  </g>
</svg>
