<?xml version="1.0" encoding="UTF-8" standalone="no"?>
<!-- Created with Inkscape (http://www.inkscape.org/) -->
<svg
   xmlns:svg="http://www.w3.org/2000/svg"
   xmlns="http://www.w3.org/2000/svg"
   version="1.0"
   width="24"
   height="24"
   id="svg3341">
  <defs
     id="defs3343" />
  <g
     id="layer1">
    <path
       d="M 12,2 C 6.4850059,2 2,6.4850059 2,12 C 2,17.514994 6.4850059,22 12,22 C 17.514994,22 22,17.514994 22,12 C 22,6.4850059 17.514994,2 12,2 z M 9.875,7.53125 C 9.8652329,7.6148108 9.78125,7.6639774 9.78125,7.75 C 9.78125,8.0491429 9.9864136,8.2668638 10.09375,8.53125 L 8.71875,8.3125 C 9.0660882,8.0038988 9.4504082,7.7336735 9.875,7.53125 z M 14.3125,7.65625 C 14.659218,7.8415161 14.990004,8.053735 15.28125,8.3125 L 14.03125,8.5 C 14.131669,8.243187 14.34375,8.038841 14.34375,7.75 C 14.34375,7.7143621 14.314205,7.6914913 14.3125,7.65625 z M 7.25,10.8125 L 9.65625,11.5625 L 9.625,13.0625 L 8.8125,15.53125 C 7.7896027,14.629073 7,13.474425 7,12 C 7,11.576258 7.1515899,11.204774 7.25,10.8125 z M 16.75,10.84375 C 16.843657,11.227055 17,11.586937 17,12 C 17,13.504489 16.295782,14.805717 15.25,15.71875 L 14.40625,13.0625 L 14.375,11.6875 L 16.75,10.84375 z M 12,15.65625 L 12.59375,16.875 C 12.388989,16.90036 12.211871,17 12,17 C 11.79133,17 11.609232,16.87381 11.40625,16.84375 L 12,15.65625 z"
       id="path3339"
       style="opacity:0.6;fill:#eae3d0;fill-opacity:1;fill-rule:evenodd;stroke:none;stroke-width:1.69999993;stroke-linecap:round;stroke-linejoin:miter;marker:none;marker-start:none;marker-mid:none;marker-end:none;stroke-miterlimit:4;stroke-dasharray:none;stroke-dashoffset:0;stroke-opacity:1;visibility:visible;display:inline;overflow:visible;enable-background:accumulate" />
    <path
       d="M 12,3 C 7.032,3 3,7.032 3,12 C 3,16.968 7.032,21 12,21 C 16.968,21 21,16.968 21,12 C 21,7.032 16.968,3 12,3 z M 12,6 C 15.312,6 18,8.688 18,12 C 18,15.312 15.312,18 12,18 C 8.688,18 6,15.312 6,12 C 6,8.688 8.688,6 12,6 z M 12.0625,6.5 C 11.349478,6.5 10.78125,7.0547083 10.78125,7.75 C 10.78125,8.4452914 11.349478,9.03125 12.0625,9.03125 C 12.775523,9.03125 13.34375,8.4452915 13.34375,7.75 C 13.34375,7.0547082 12.775523,6.4999998 12.0625,6.5 z M 7.40625,9.09375 C 7.3363503,9.0851603 7.28213,9.0952161 7.21875,9.125 C 7.0919902,9.1845674 7.001748,9.3031529 7,9.4375 C 6.9984011,9.5718659 7.093565,9.6874782 7.21875,9.75 L 10.65625,10.8125 L 10.625,13.28125 L 9.40625,16.9375 C 9.2893816,17.104044 9.324704,17.295219 9.5,17.40625 C 9.675304,17.517298 9.9456201,17.479063 10.0625,17.3125 L 12,13.375 L 13.9375,17.3125 C 14.041388,17.485242 14.255704,17.536206 14.4375,17.4375 C 14.619297,17.338794 14.697634,17.141494 14.59375,16.96875 L 13.40625,13.28125 L 13.34375,11 L 16.84375,9.75 C 16.984645,9.6561236 17.029775,9.4653529 16.96875,9.3125 C 16.907723,9.1596301 16.73347,9.0752272 16.5625,9.09375 C 16.502755,9.1031896 16.454633,9.1216368 16.40625,9.15625 L 12,9.84375 L 7.625,9.15625 C 7.5682781,9.1161332 7.4761497,9.1023397 7.40625,9.09375 z"
       id="path3157"
       style="opacity:1;fill:#3a3935;fill-opacity:1;fill-rule:evenodd;stroke:none;stroke-width:1.69999993;stroke-linecap:round;stroke-linejoin:miter;marker:none;marker-start:none;marker-mid:none;marker-end:none;stroke-miterlimit:4;stroke-dasharray:none;stroke-dashoffset:0;stroke-opacity:1;visibility:visible;display:inline;overflow:visible;enable-background:accumulate" />
  </g>
</svg>
