<?xml version="1.0" encoding="UTF-8" standalone="no"?>
<!-- Created with Inkscape (http://www.inkscape.org/) -->
<svg
   xmlns:svg="http://www.w3.org/2000/svg"
   xmlns="http://www.w3.org/2000/svg"
   version="1.0"
   width="24"
   height="24"
   id="svg3252">
  <defs
     id="defs3254" />
  <g
     id="layer1">
    <path
       d="M 12,2 C 6.4986278,2 2,6.4986278 2,12 C 2,17.501372 6.4986278,22 12,22 C 17.501372,22 22,17.501372 22,12 C 22,6.4986278 17.501372,2 12,2 z M 15.53125,6.03125 C 17.594752,7.2503569 19,9.4214339 19,12 C 19,12.15252 18.947073,12.287514 18.9375,12.4375 C 18.879239,12.299355 18.884515,12.075886 18.8125,11.96875 C 18.58181,11.625553 18.1875,11.40625 18.1875,11.40625 C 17.411322,10.453259 16.279556,10.03125 15.375,10.03125 C 14.671158,10.03125 14.432949,10.160949 14.09375,10.25 L 12.3125,8.46875 C 13.747369,7.6822915 14.840543,6.8311409 15.53125,6.03125 z M 6.40625,7.96875 C 6.4428299,8.0172376 6.467056,8.0451594 6.5,8.09375 C 6.7343517,8.4394057 6.875,8.71875 6.875,8.71875 L 6.90625,8.6875 C 6.9802115,8.9021708 7.0458983,9.1624535 7.15625,9.3125 C 7.3379547,9.5595661 7.5465378,9.7576779 7.78125,9.96875 C 8.2506743,10.390894 8.8103156,10.80969 9.375,11.1875 C 10.210606,11.746575 10.657746,12.005635 11.03125,12.21875 C 10.681467,13.748633 10.86678,15.043964 11.46875,15.78125 C 11.945053,16.364621 12.43381,16.606724 12.78125,16.75 C 12.791258,16.750744 12.792537,16.722354 12.78125,16.84375 C 12.7662,17.005611 12.676839,17.324103 12.5,17.65625 C 12.236855,18.150498 11.864578,18.540475 11.5625,18.90625 C 7.8985436,18.66732 5,15.725875 5,12 C 5,10.465394 5.5740371,9.1209988 6.40625,7.96875 z"
       id="path3250"
       style="opacity:0.6;fill:#eae3d0;fill-opacity:1;fill-rule:evenodd;stroke:none;stroke-width:1.69999993;stroke-linecap:round;stroke-linejoin:miter;marker:none;marker-start:none;marker-mid:none;marker-end:none;stroke-miterlimit:4;stroke-dasharray:none;stroke-dashoffset:0;stroke-opacity:1;visibility:visible;display:inline;overflow:visible;enable-background:accumulate" />
    <path
       d="M 12,3 C 7.032,3 3,7.032 3,12 C 3,16.968 7.032,21 12,21 C 16.968,21 21,16.968 21,12 C 21,7.032 16.968,3 12,3 z M 15.375,4.75 C 18.107718,6.0228835 20,8.7883636 20,12 C 20,14.970846 18.374976,17.557677 15.96875,18.9375 C 19.654831,13.253815 17.75,12.28125 17.75,12.28125 C 16.75,10.28125 13.75,11.28125 13.75,11.28125 L 10.75,8.28125 C 13,7.53125 14.671875,5.6406249 15.375,4.75 z M 6.25,6.4375 C 7.0620731,6.8979306 7.75,8.2812502 7.75,8.28125 C 7.75,9.28125 12.09375,11.6875 12.09375,11.6875 C 10.684821,15.232739 13.4375,15.96875 13.4375,15.96875 C 14.569268,16.964346 12.603317,19.325588 12,20 C 7.584,20 4,16.416 4,12 C 4,9.8392757 4.8562893,7.8774741 6.25,6.4375 z"
       id="path3157"
       style="fill:#3a3935;fill-opacity:1;fill-rule:evenodd;stroke:none;stroke-width:1.69999993;stroke-linecap:round;stroke-linejoin:miter;marker:none;marker-start:none;marker-mid:none;marker-end:none;stroke-miterlimit:4;stroke-dasharray:none;stroke-dashoffset:0;stroke-opacity:1;visibility:visible;display:inline;overflow:visible;enable-background:accumulate" />
  </g>
</svg>
