<?xml version="1.0" encoding="UTF-8" standalone="no"?>
<!-- Created with Inkscape (http://www.inkscape.org/) -->
<svg
   xmlns:svg="http://www.w3.org/2000/svg"
   xmlns="http://www.w3.org/2000/svg"
   version="1.0"
   width="24"
   height="24"
   id="svg2407">
  <defs
     id="defs2409" />
  <g
     id="layer1">
    <path
       d="M 12.0625,1 C 11.208412,1 10.5,1.7084127 10.5,2.5625 L 10.5,10.0625 C 10.5,10.916587 11.208412,11.625 12.0625,11.625 C 12.916588,11.625 13.625,10.916588 13.625,10.0625 L 13.625,2.5625 C 13.625,1.7084121 12.916588,1 12.0625,1 z M 16.28125,3.5625 C 16.163071,3.5798771 16.053559,3.634633 15.96875,3.71875 C 15.148797,3.7278048 14.335205,4.0906481 14.03125,4.90625 C 13.752899,5.6531425 14.063926,6.3875715 14.5625,6.9375 C 14.568238,6.9438296 14.556682,6.9624872 14.5625,6.96875 C 14.578025,7.0128658 14.599022,7.0548603 14.625,7.09375 C 14.667325,7.1817893 14.73197,7.2572082 14.8125,7.3125 C 14.822501,7.3233243 14.832926,7.3337491 14.84375,7.34375 C 14.973178,7.4219455 15.060649,7.4867777 15.125,7.53125 C 15.121984,7.5291508 15.163376,7.5669841 15.28125,7.65625 C 15.329123,7.6921193 15.381067,7.7301187 15.40625,7.75 C 15.481027,7.8098024 15.57718,7.8986202 15.6875,8 C 15.687775,8.000249 15.698038,8.0136335 15.75,8.0625 C 15.84366,8.1518864 15.927358,8.2334244 16,8.3125 C 16.087246,8.4061141 16.118892,8.4616729 16.125,8.46875 C 16.216706,8.5762176 16.258582,8.5800301 16.21875,8.53125 C 16.256646,8.5771847 16.324091,8.6462851 16.375,8.71875 C 16.377847,8.7287695 16.374949,8.7498591 16.375,8.75 C 16.399131,8.7843906 16.411126,8.8067696 16.4375,8.84375 C 16.441924,8.852282 16.437448,8.8749258 16.4375,8.875 C 16.546133,9.0284987 16.658709,9.147553 16.71875,9.25 C 16.747356,9.2988098 16.777709,9.4021503 16.84375,9.53125 C 16.893654,9.6290263 16.937874,9.6812933 16.96875,9.75 C 17.009874,9.8412586 17.038507,9.8921292 17.03125,9.875 C 17.083978,9.9997294 17.114975,10.128638 17.15625,10.25 C 17.193165,10.358539 17.244378,10.515044 17.28125,10.65625 C 17.331956,10.85043 17.349008,10.989605 17.375,11.15625 C 17.402804,11.334512 17.427716,11.509728 17.4375,11.6875 C 17.44692,11.858604 17.445456,12.03642 17.4375,12.21875 C 17.43513,12.273611 17.418196,12.373768 17.40625,12.5 C 17.397513,12.59299 17.385989,12.672613 17.375,12.75 C 17.350737,12.920122 17.352617,12.93265 17.375,12.78125 C 17.351405,12.941423 17.347627,13.101583 17.3125,13.25 C 17.304636,13.283312 17.276248,13.342208 17.25,13.4375 C 17.21193,13.575439 17.205583,13.636919 17.21875,13.59375 C 17.190105,13.68763 17.158493,13.751544 17.125,13.84375 C 17.143048,13.793886 17.096505,13.837105 17.03125,14 C 16.962086,14.172124 16.936501,14.312744 16.90625,14.375 C 16.882766,14.405142 16.866364,14.3926 16.84375,14.4375 C 16.761038,14.601399 16.695166,14.761892 16.625,14.875 C 16.550464,14.995427 16.4615,15.110075 16.40625,15.1875 C 16.392837,15.202353 16.388618,15.200435 16.375,15.21875 C 16.303806,15.315089 16.236658,15.409204 16.1875,15.46875 C 16.133486,15.533765 16.07702,15.605826 16.03125,15.65625 C 15.933703,15.764256 15.868987,15.818452 15.84375,15.84375 C 15.818446,15.868992 15.764252,15.933707 15.65625,16.03125 C 15.592779,16.088776 15.540454,16.128678 15.46875,16.1875 C 15.356231,16.279695 15.266317,16.350008 15.1875,16.40625 C 15.116621,16.456773 15.062796,16.4998 15.0625,16.5 C 14.984643,16.552723 14.861686,16.636143 14.71875,16.71875 C 14.617919,16.776873 14.586093,16.771425 14.625,16.75 C 14.476874,16.831789 14.379097,16.924034 14.28125,16.96875 C 14.311159,16.955152 14.239259,16.939689 14.09375,17 C 13.986105,17.044834 13.893714,17.096352 13.8125,17.125 C 13.797011,17.128942 13.797478,17.119396 13.78125,17.125 C 13.615605,17.182349 13.482199,17.253409 13.375,17.28125 C 13.364585,17.280959 13.354165,17.280959 13.34375,17.28125 C 13.216266,17.31454 13.090678,17.312425 12.90625,17.34375 C 12.712257,17.37701 12.685222,17.394452 12.8125,17.375 C 12.753592,17.383873 12.648199,17.394571 12.53125,17.40625 C 12.259646,17.433979 12.039443,17.448938 11.78125,17.4375 C 11.707935,17.4343 11.683372,17.435583 11.71875,17.4375 C 11.745392,17.438966 11.675428,17.4191 11.53125,17.40625 C 11.369543,17.391909 11.266875,17.387365 11.1875,17.375 C 11.032213,17.350779 10.850255,17.344199 10.71875,17.3125 C 10.756619,17.321668 10.761753,17.308877 10.65625,17.28125 C 10.599913,17.266539 10.538996,17.25218 10.53125,17.25 C 10.404815,17.214374 10.260932,17.14378 10.125,17.09375 C 10.107357,17.086111 10.114894,17.10163 10.09375,17.09375 C 10.068173,17.081408 10.096189,17.075279 10.0625,17.0625 C 9.8567592,16.984464 9.7243241,16.954505 9.625,16.90625 C 9.5948986,16.882737 9.6071081,16.866264 9.5625,16.84375 C 9.422017,16.772855 9.2928572,16.717227 9.1875,16.65625 C 9.1699405,16.646087 9.1411588,16.635024 9.125,16.625 C 9.1130768,16.616426 9.1393927,16.602823 9.125,16.59375 C 8.9563961,16.487477 8.8044122,16.402952 8.6875,16.3125 C 8.5779744,16.227765 8.4952397,16.17547 8.4375,16.125 C 8.3277539,16.029472 8.2670866,15.989777 8.3125,16.03125 C 8.2710196,15.993191 8.2289753,15.91665 8.15625,15.84375 C 8.0833447,15.771019 8.0068022,15.728974 7.96875,15.6875 C 7.9002632,15.612508 7.8087972,15.469853 7.6875,15.3125 C 7.5970497,15.195589 7.5125266,15.043606 7.40625,14.875 C 7.3955643,14.858048 7.3841614,14.888073 7.375,14.875 C 7.3401224,14.818924 7.3593903,14.828122 7.34375,14.8125 C 7.2631501,14.680431 7.1923978,14.542956 7.125,14.40625 C 7.1322055,14.420866 7.1130539,14.391667 7.0625,14.28125 C 7.0203812,14.189088 6.9945458,14.064396 6.96875,14 C 6.9152656,13.866898 6.8901127,13.862949 6.90625,13.90625 C 6.9003665,13.874906 6.9193219,13.880003 6.90625,13.84375 C 6.8915366,13.802792 6.8633427,13.716414 6.84375,13.65625 C 6.7938604,13.503051 6.736668,13.41378 6.71875,13.34375 C 6.6846829,13.210606 6.6767218,13.080351 6.65625,12.96875 C 6.631256,12.832356 6.6053655,12.725326 6.59375,12.625 C 6.5953621,12.638925 6.6063118,12.537617 6.59375,12.34375 C 6.5829405,12.177303 6.562838,12.096249 6.5625,12.0625 C 6.5614791,11.939543 6.5799913,11.741144 6.59375,11.5625 C 6.6050275,11.41607 6.6309009,11.280895 6.65625,11.125 C 6.6898955,10.91808 6.6840499,10.789141 6.71875,10.65625 C 6.7092232,10.692732 6.7243625,10.65461 6.75,10.5625 C 6.7744146,10.474863 6.8479992,10.318358 6.90625,10.15625 C 6.9163669,10.127995 6.9014606,10.122795 6.90625,10.09375 C 6.8933102,10.128471 6.9375106,10.088967 7,9.9375 C 7.0593392,9.7935828 7.0487678,9.7110193 7.03125,9.75 C 7.0821315,9.6370905 7.1559434,9.5226956 7.21875,9.40625 C 7.2645542,9.3210307 7.3053783,9.2372274 7.375,9.125 C 7.422336,9.0486969 7.5032019,8.9600262 7.5625,8.875 C 7.6116702,8.8051978 7.660442,8.7306157 7.71875,8.65625 C 7.7603751,8.6025277 7.8031284,8.5487514 7.84375,8.5 C 7.9547016,8.3684338 7.9449454,8.357631 7.875,8.4375 C 7.9252662,8.3801031 8.0477721,8.2962527 8.15625,8.1875 C 8.2575032,8.0859906 8.3476185,8.0091918 8.46875,7.90625 C 8.5756548,7.8153976 8.6524376,7.7143091 8.6875,7.6875 C 8.8402716,7.5694803 8.8681386,7.5361649 8.75,7.625 C 8.8155043,7.5762416 8.8899391,7.5412656 9,7.46875 C 9.2085519,7.3300925 9.2257284,7.3012822 9.0625,7.40625 C 9.0196098,7.4335973 9.0343027,7.4174253 9.15625,7.34375 C 9.1777143,7.3346462 9.1985884,7.3242092 9.21875,7.3125 C 9.6052398,6.9935522 9.8725075,6.5859275 9.96875,6.1875 C 10.064993,5.7890725 10.03148,5.4446107 10,5.0625 C 9.9970939,5.0091922 9.9865705,4.956575 9.96875,4.90625 C 9.6458352,4.0397752 8.7792363,3.6352239 7.90625,3.6875 C 7.8454203,3.651914 7.7820136,3.6048234 7.71875,3.59375 C 7.5948369,3.5720608 7.5955102,3.6367193 7.53125,3.65625 C 7.4815249,3.671363 7.4017412,3.6390659 7.375,3.65625 C 7.3641757,3.6662509 7.3537509,3.6766757 7.34375,3.6875 C 7.3391924,3.6904336 7.3165143,3.6851512 7.3125,3.6875 C 7.2575354,3.7196603 7.2171451,3.7198165 7.21875,3.71875 C 7.1255438,3.7597432 7.0460177,3.8266928 6.96875,3.875 C 6.3982591,4.2301292 5.8563654,4.6282029 5.375,5.09375 C 4.9709123,5.4845592 4.5774723,5.9218193 4.25,6.375 C 4.1064446,6.5736629 4.0168528,6.7588513 3.90625,6.9375 C 3.8104883,7.0902301 3.7325191,7.2020632 3.6875,7.28125 C 3.6346122,7.3751561 3.556608,7.5127169 3.46875,7.6875 C 3.4404261,7.7435657 3.4093659,7.8030005 3.375,7.875 C 3.258066,8.1207474 3.1481247,8.3667398 3.0625,8.59375 C 3.0593482,8.6021062 3.0656482,8.6166583 3.0625,8.625 C 3.050143,8.6510321 3.0440772,8.6218296 3.03125,8.65625 C 3.0311403,8.6565445 3.0000712,8.7495802 3,8.75 C 2.9966083,8.762674 2.9999788,8.781376 3,8.78125 C 2.9984796,8.7932263 3.0004951,8.8055843 3,8.8125 C 2.9985495,8.8239606 3.0004507,8.8373871 3,8.84375 C 2.9573313,8.9758485 2.9098584,9.1041615 2.875,9.21875 C 2.7818705,9.5250796 2.6607679,9.8700674 2.59375,10.21875 C 2.5659355,10.363354 2.5690263,10.428374 2.5625,10.46875 C 2.5443799,10.58094 2.5397778,10.685746 2.53125,10.75 C 2.5062011,10.938675 2.4833783,11.129776 2.46875,11.34375 C 2.4537685,11.560697 2.4362444,11.78091 2.4375,12.03125 C 2.4386725,12.265026 2.4529587,12.47768 2.46875,12.6875 C 2.4776068,12.80582 2.4888582,12.929868 2.5,13.03125 C 2.5180266,13.19476 2.5303593,13.370925 2.5625,13.5625 C 2.5835203,13.688235 2.6005055,13.724691 2.59375,13.6875 C 2.6312628,13.893279 2.7036127,14.094172 2.75,14.28125 C 2.7881199,14.435187 2.8096239,14.602828 2.875,14.8125 C 2.9278093,14.981686 2.9830777,15.149947 3.03125,15.28125 C 3.0337358,15.29224 3.0277804,15.30319 3.03125,15.3125 C 3.0863675,15.460395 3.1384866,15.58154 3.15625,15.625 C 3.2056713,15.745825 3.2735669,15.880167 3.34375,16.03125 C 3.4350021,16.227923 3.5205823,16.363643 3.59375,16.5 C 3.6838757,16.667755 3.7907834,16.845788 3.90625,17.03125 C 3.8693781,16.971962 3.8709987,17.02012 3.9375,17.125 C 4.0548397,17.309867 4.1865292,17.48461 4.3125,17.65625 C 4.4553558,17.850834 4.5835235,18.028327 4.71875,18.1875 C 4.6643757,18.123314 4.701851,18.154131 4.8125,18.28125 C 4.8794651,18.357941 4.901471,18.373473 4.875,18.34375 C 5.0201991,18.506784 5.1421622,18.642279 5.25,18.75 C 5.3577193,18.857835 5.493216,18.9798 5.65625,19.125 C 5.7430814,19.202112 5.7885132,19.260931 5.8125,19.28125 C 5.9749476,19.41926 6.1596046,19.562127 6.375,19.71875 C 6.3858552,19.726637 6.4508818,19.797856 6.5625,19.875 C 6.7416548,19.998917 6.9268417,20.10147 7.125,20.21875 C 7.2631548,20.300474 7.3484923,20.360359 7.375,20.375 C 7.5753131,20.485623 7.7703579,20.564201 7.96875,20.65625 C 8.1198326,20.726434 8.254169,20.794328 8.375,20.84375 C 8.4184662,20.861516 8.5396044,20.913633 8.6875,20.96875 C 8.6968088,20.972219 8.7077612,20.966265 8.71875,20.96875 C 8.9110061,21.039286 9.0992952,21.07914 9.25,21.125 C 9.3886967,21.167166 9.562493,21.22831 9.78125,21.28125 C 10.071932,21.351593 10.335151,21.426689 10.625,21.46875 C 10.655641,21.473209 10.742858,21.487453 10.84375,21.5 C 11.093636,21.530916 11.335967,21.551511 11.59375,21.5625 C 11.86581,21.574096 12.13536,21.574321 12.40625,21.5625 C 12.664032,21.551511 12.906365,21.530916 13.15625,21.5 C 13.285402,21.484022 13.362169,21.466143 13.34375,21.46875 C 13.224017,21.485757 13.261948,21.50105 13.46875,21.46875 C 13.739501,21.426519 14.000688,21.341663 14.25,21.28125 C 14.468019,21.228418 14.643364,21.166919 14.78125,21.125 C 14.948422,21.074128 15.114967,21.029512 15.28125,20.96875 C 15.471747,20.89914 15.618161,20.806458 15.75,20.75 C 15.769466,20.74168 15.854688,20.723207 16,20.65625 C 16.238046,20.54656 16.504894,20.451858 16.75,20.3125 C 16.722311,20.328246 16.738612,20.29285 16.8125,20.25 C 17.043566,20.115994 17.234505,19.992609 17.40625,19.875 C 17.479422,19.824893 17.59251,19.750146 17.71875,19.65625 C 17.76267,19.62367 17.793733,19.601071 17.84375,19.5625 C 18.049009,19.403696 18.223692,19.229528 18.375,19.09375 C 18.39465,19.076172 18.461075,19.033065 18.5625,18.9375 C 18.623089,18.88025 18.688625,18.842118 18.71875,18.8125 C 18.84639,18.687399 18.972012,18.545583 19.125,18.375 C 19.246617,18.239393 19.329505,18.117508 19.375,18.0625 C 19.498152,17.913593 19.57952,17.803998 19.6875,17.65625 C 19.736952,17.58859 19.788181,17.521543 19.78125,17.53125 C 19.699662,17.645584 19.74082,17.631638 19.875,17.4375 C 19.998913,17.258348 20.101468,17.073159 20.21875,16.875 C 20.252189,16.818497 20.239349,16.814238 20.25,16.78125 C 20.303915,16.687992 20.31663,16.669913 20.3125,16.6875 C 20.391111,16.554064 20.47943,16.417924 20.5625,16.25 C 20.56848,16.237869 20.578503,16.219022 20.59375,16.1875 C 20.72897,15.908794 20.863776,15.593809 20.96875,15.3125 C 21.061542,15.063836 21.120361,14.829407 21.1875,14.59375 C 21.200032,14.566198 21.209683,14.564236 21.21875,14.53125 C 21.223266,14.514798 21.215866,14.515536 21.21875,14.5 C 21.223382,14.482873 21.216021,14.484669 21.21875,14.46875 C 21.25532,14.33652 21.305486,14.177355 21.34375,14 C 21.385881,13.804137 21.441144,13.618259 21.46875,13.4375 C 21.49813,13.24514 21.486734,13.217057 21.46875,13.34375 C 21.486512,13.218686 21.514301,13.057903 21.53125,12.875 C 21.545137,12.724661 21.555641,12.564216 21.5625,12.40625 C 21.565195,12.344536 21.562787,12.335522 21.5625,12.34375 C 21.570407,12.116369 21.570896,11.85315 21.5625,11.625 C 21.562324,11.62021 21.568258,11.574779 21.5625,11.46875 C 21.558952,11.404249 21.542206,11.413034 21.53125,11.375 C 21.527841,11.323035 21.538465,11.337719 21.53125,11.3125 C 21.520439,11.288172 21.502935,11.224998 21.5,11.21875 C 21.485742,11.05871 21.488996,10.902492 21.46875,10.75 C 21.47849,10.823372 21.50226,10.745978 21.46875,10.53125 C 21.428175,10.271103 21.34087,10.048374 21.28125,9.8125 C 21.280179,9.8244335 21.29094,9.8167145 21.25,9.65625 C 21.248297,9.6239055 21.267153,9.6282214 21.25,9.5625 C 21.195324,9.3531191 21.123318,9.1997029 21.0625,9.03125 C 21.062131,9.0254791 21.063293,9.0078158 21.0625,9 C 21.062093,8.9936855 21.063349,8.9770609 21.0625,8.96875 C 21.061496,8.9622172 21.065606,8.9501893 21.0625,8.9375 C 21.058996,8.9148343 21.031348,8.8440313 21.03125,8.84375 C 21.016742,8.8020531 21.002762,8.7475143 20.96875,8.65625 C 20.89985,8.4713732 20.810393,8.3257366 20.75,8.1875 C 20.716957,8.1118605 20.703642,8.091072 20.71875,8.125 C 20.713484,8.1096194 20.725745,8.1093746 20.71875,8.09375 C 20.631018,7.8987685 20.5498,7.7533144 20.5,7.65625 C 20.413887,7.4874364 20.304655,7.290663 20.1875,7.09375 C 20.061396,6.8817991 19.958384,6.6528991 19.78125,6.40625 C 19.750872,6.3639465 19.762718,6.3902638 19.75,6.375 C 19.710188,6.3198487 19.725864,6.3511318 19.71875,6.34375 C 19.717268,6.3435031 19.718859,6.3110359 19.71875,6.3125 C 19.52541,6.0468035 19.353198,5.8742652 19.21875,5.71875 C 19.054362,5.5286027 18.851049,5.3123709 18.625,5.09375 C 18.407691,4.8835823 18.192519,4.7187328 18,4.5625 C 17.717674,4.3333875 17.421531,4.0984961 17.0625,3.875 C 17.052085,3.8747089 17.041665,3.8747089 17.03125,3.875 C 17.002183,3.8510641 16.970774,3.8301245 16.9375,3.8125 C 16.917338,3.8007908 16.896464,3.7903538 16.875,3.78125 C 16.842055,3.7644503 16.815509,3.7338919 16.78125,3.71875 C 16.867989,3.7685843 16.836201,3.7245902 16.65625,3.625 C 16.542382,3.56102 16.409713,3.5389085 16.28125,3.5625 z"
       id="path2405"
       style="opacity:0.6;fill:#eae3d0;fill-opacity:1;fill-rule:evenodd;stroke:none;stroke-width:1.69999993;stroke-linecap:round;stroke-linejoin:miter;marker:none;marker-start:none;marker-mid:none;marker-end:none;stroke-miterlimit:4;stroke-dasharray:none;stroke-dashoffset:0;stroke-opacity:1;visibility:visible;display:inline;overflow:visible;enable-background:accumulate" />
    <path
       d="M 12.051994,1.5594406 C 11.497697,1.5594406 11.051459,2.005679 11.051459,2.559975 L 11.051459,10.063984 C 11.051459,10.61828 11.497697,11.064519 12.051994,11.064519 C 12.60629,11.064519 13.052528,10.61828 13.052528,10.063984 L 13.052528,2.559975 C 13.052528,2.005679 12.60629,1.5594406 12.051994,1.5594406 z M 7.5026883,4.2171103 C 7.4056525,4.2532732 7.3214565,4.3049597 7.2369213,4.3578105 C 7.2368388,4.357679 7.2369213,4.3421771 7.2369213,4.3421771 C 6.6950929,4.6794638 6.1998273,5.0813284 5.7517529,5.5146785 C 5.3701021,5.8837881 5.0278192,6.2767631 4.7199517,6.7028132 C 4.5938468,6.8773265 4.473483,7.0516675 4.3603846,7.2343471 C 4.2932542,7.3414129 4.235668,7.4520379 4.1727844,7.5626475 C 4.102835,7.6868474 4.033539,7.810551 3.9695508,7.937848 C 3.9396359,7.9970631 3.9044531,8.0496808 3.8757507,8.1098148 C 3.76754,8.3372294 3.6676846,8.5775818 3.5787171,8.8133157 C 3.5746018,8.8242291 3.5671604,8.833643 3.5630837,8.8445824 C 3.5613278,8.8492939 3.5648311,8.8555033 3.5630837,8.8602157 C 3.4997388,9.0308104 3.4441412,9.2018117 3.3911169,9.3761164 C 3.2981817,9.6818071 3.2157791,9.990671 3.1566165,10.298484 C 3.139716,10.386347 3.1240146,10.475793 3.1097165,10.564251 C 3.0962894,10.647384 3.0894842,10.731244 3.0784498,10.814385 C 3.0533709,11.003286 3.0289699,11.186247 3.0159164,11.377185 C 3.0006817,11.597797 2.9991825,11.814371 3.000283,12.033786 C 3.0013351,12.243555 3.0158994,12.451172 3.0315498,12.65912 C 3.0392684,12.762236 3.0358385,12.86856 3.0471831,12.971787 C 3.0657365,13.140077 3.0974289,13.305631 3.1253498,13.472054 C 3.1322635,13.513409 3.1334737,13.555779 3.1409832,13.597121 C 3.1748553,13.782929 3.2207148,13.961454 3.26605,14.144289 C 3.308984,14.317666 3.352971,14.48771 3.4067502,14.660189 C 3.4509188,14.801693 3.4964401,14.943252 3.5474504,15.08229 C 3.5531895,15.097949 3.5572521,15.113542 3.5630837,15.12919 C 3.5965401,15.218963 3.6365239,15.306895 3.6725171,15.394957 C 3.7258591,15.525367 3.7851329,15.658025 3.844484,15.78579 C 3.9183945,15.945087 3.9968394,16.101704 4.0789842,16.254791 C 4.1702005,16.424576 4.2584027,16.591255 4.3603846,16.755058 C 4.37414,16.777176 4.3933547,16.795623 4.4072846,16.817592 C 4.5162534,16.989272 4.6306415,17.153568 4.7512184,17.317859 C 4.876752,17.48885 5.0057744,17.657717 5.1420522,17.818127 C 5.1681032,17.848879 5.1937368,17.881503 5.220219,17.911927 C 5.2394117,17.933906 5.263363,17.952689 5.2827523,17.97446 C 5.3988063,18.10477 5.5194633,18.226937 5.6423194,18.34966 C 5.765042,18.472516 5.8872103,18.593173 6.0175199,18.709228 C 6.0699664,18.755805 6.1204038,18.80465 6.1738534,18.849927 C 6.3445491,18.994945 6.5227202,19.139203 6.7053873,19.272028 C 6.7628016,19.313743 6.819022,19.356779 6.8773542,19.397095 C 7.0499039,19.516443 7.2264997,19.633081 7.4088882,19.741028 C 7.4856782,19.786452 7.5653288,19.822981 7.6433884,19.866095 C 7.8267959,19.967382 8.0136868,20.058179 8.2061891,20.147495 C 8.3339549,20.206847 8.4666117,20.266121 8.5970229,20.319462 C 8.6850844,20.355456 8.7730169,20.395439 8.8627898,20.428895 C 8.8784392,20.434728 8.8940291,20.43879 8.9096899,20.444529 C 9.0689775,20.502969 9.2318255,20.551414 9.3943238,20.600863 C 9.5616442,20.651731 9.7264848,20.700881 9.8945911,20.741563 C 10.16799,20.807725 10.433303,20.873737 10.707525,20.91353 C 10.769104,20.922491 10.833298,20.921474 10.895125,20.929163 C 11.134192,20.95874 11.375941,20.981538 11.61426,20.991697 C 11.872016,21.002683 12.124667,21.002852 12.380294,20.991697 C 12.618613,20.981538 12.860362,20.95874 13.099428,20.929163 C 13.151242,20.922753 13.203943,20.920865 13.255762,20.91353 C 13.296983,20.907675 13.339725,20.904317 13.380829,20.897897 C 13.624611,20.859874 13.872537,20.800461 14.115596,20.741563 C 14.28282,20.701041 14.449418,20.651465 14.615863,20.600863 C 14.77462,20.552552 14.929167,20.501422 15.084863,20.444529 C 15.238943,20.388226 15.38751,20.321473 15.538231,20.256929 C 15.616024,20.223679 15.696331,20.198333 15.772732,20.163129 C 16.007015,20.055174 16.23977,19.944751 16.460599,19.819196 C 16.482864,19.806536 16.501007,19.785126 16.523132,19.772295 C 16.7175,19.659572 16.902559,19.538301 17.085933,19.412728 C 17.182156,19.346835 17.274216,19.278755 17.367334,19.209495 C 17.412461,19.176021 17.463504,19.150034 17.508033,19.115695 C 17.68038,18.982356 17.847314,18.838057 18.008301,18.693594 C 18.065907,18.642062 18.123918,18.590353 18.180267,18.53726 C 18.223308,18.496591 18.263176,18.453642 18.305334,18.412194 C 18.442171,18.278078 18.583202,18.149117 18.711802,18.005727 C 18.791319,17.917064 18.854471,17.816457 18.930669,17.724326 C 19.043943,17.587364 19.15339,17.446688 19.258969,17.302226 C 19.278417,17.275615 19.302323,17.25092 19.321502,17.224059 C 19.347784,17.187229 19.373958,17.151826 19.399669,17.114626 C 19.519017,16.942075 19.635655,16.76548 19.743603,16.583091 C 19.759153,16.556817 19.775197,16.5314 19.790503,16.504925 C 19.888276,16.335748 19.985328,16.164032 20.071903,15.989024 C 20.081969,15.968606 20.093244,15.947013 20.10317,15.926491 C 20.227912,15.669381 20.331518,15.397041 20.43147,15.12919 C 20.515423,14.904215 20.584435,14.672643 20.650338,14.441323 C 20.658003,14.414415 20.674186,14.390141 20.681604,14.363155 C 20.684661,14.352019 20.694224,14.343029 20.697237,14.331889 C 20.738071,14.181091 20.773661,14.031525 20.806671,13.878521 C 20.84481,13.701215 20.873346,13.524594 20.900471,13.346988 C 20.905245,13.315731 20.911667,13.284446 20.916104,13.253188 C 20.936554,13.10919 20.949542,12.960728 20.963004,12.815454 C 20.976403,12.670386 20.987987,12.522449 20.994271,12.37772 C 20.995409,12.351635 20.99336,12.325665 20.994271,12.299553 C 21.001718,12.085369 21.002099,11.87131 20.994271,11.658586 C 20.992349,11.606354 20.997101,11.554367 20.994271,11.502252 C 20.992552,11.471022 20.980687,11.439701 20.978637,11.408452 C 20.965571,11.207056 20.942544,11.013533 20.916104,10.814385 C 20.907076,10.746386 20.911034,10.678838 20.900471,10.611151 C 20.856865,10.331573 20.799614,10.045473 20.728504,9.76695 C 20.724386,9.750809 20.717077,9.7361657 20.712871,9.7200501 C 20.653885,9.4941594 20.587206,9.2719677 20.509637,9.047816 C 20.508076,9.0433121 20.511205,9.036684 20.509637,9.0321826 C 20.48769,8.9691024 20.470544,8.9074785 20.447104,8.8445824 C 20.389068,8.6888562 20.309566,8.54159 20.24387,8.3912153 C 20.235455,8.3719524 20.236775,8.347856 20.228237,8.3286817 C 20.223456,8.3178905 20.217426,8.3081878 20.212603,8.2974151 C 20.149994,8.1582677 20.078319,8.0253347 20.00937,7.8909479 C 19.920125,7.7159919 19.828476,7.543977 19.72797,7.3750473 C 19.59542,7.1522624 19.457443,6.9295043 19.305869,6.7184465 C 19.301612,6.7125199 19.294506,6.7087298 19.290235,6.7028132 C 19.283461,6.6935557 19.28141,6.6807734 19.274602,6.6715465 C 19.126908,6.4685771 18.954778,6.2837478 18.789968,6.0931125 C 18.616169,5.8920796 18.434974,5.7005363 18.242801,5.5146785 C 18.05751,5.3354757 17.866121,5.1625054 17.664367,4.9987779 C 17.378237,4.7665778 17.091033,4.5399862 16.773266,4.3421771 C 16.773266,4.3421771 16.757715,4.357679 16.757633,4.3578105 C 16.676982,4.307388 16.599115,4.2523019 16.507499,4.2171103 C 16.50364,4.2148858 16.495728,4.2193291 16.491865,4.2171103 C 16.449016,4.1924922 16.410027,4.1628672 16.366799,4.1389436 L 16.351166,4.1858436 C 15.615453,3.9937296 14.840186,4.3804423 14.568964,5.1082113 C 14.326272,5.7594212 14.589398,6.4602056 15.131764,6.8435134 L 15.116131,6.8747801 C 15.223167,6.9394472 15.325822,7.0068477 15.428798,7.0780136 C 15.494442,7.1237006 15.552953,7.1706671 15.616398,7.2187138 C 15.657167,7.2492601 15.701446,7.2809206 15.741465,7.312514 C 15.848429,7.3980577 15.953954,7.4862212 16.054132,7.5782809 C 16.081669,7.6032262 16.105202,7.6309651 16.132299,7.6564477 C 16.227381,7.7471916 16.325208,7.8258866 16.413699,7.9222146 C 16.464887,7.9771399 16.50518,8.0371541 16.554399,8.0941815 C 16.582597,8.1272256 16.620755,8.1543727 16.648199,8.1879817 C 16.735605,8.2939277 16.817935,8.4191847 16.898332,8.5319153 C 16.902514,8.5378386 16.909807,8.5416116 16.913966,8.5475488 C 17.010498,8.6839501 17.094161,8.8236402 17.179733,8.9696492 C 17.236443,9.0664119 17.300094,9.1658015 17.3517,9.266683 C 17.397129,9.3556915 17.435812,9.4413173 17.476766,9.5324499 C 17.495288,9.5735493 17.505993,9.6157979 17.523667,9.6575167 C 17.580189,9.791224 17.633221,9.926439 17.68,10.063984 C 17.726816,10.201634 17.768266,10.34515 17.805067,10.486084 C 17.856298,10.682274 17.899406,10.867507 17.930134,11.064519 C 17.960862,11.26153 17.98185,11.46205 17.992667,11.658586 C 18.003486,11.855121 18.001166,12.05789 17.992667,12.252653 C 17.988302,12.35367 17.986618,12.448417 17.977034,12.549687 C 17.968175,12.643978 17.959043,12.737605 17.945768,12.831087 C 17.944313,12.841289 17.947276,12.852153 17.945768,12.862353 C 17.920579,13.033345 17.87598,13.195112 17.836334,13.362621 C 17.819384,13.434425 17.80916,13.509869 17.789433,13.581488 C 17.775123,13.633337 17.758215,13.686411 17.742534,13.737822 C 17.7118,13.838551 17.685101,13.934738 17.648734,14.034855 C 17.625607,14.09875 17.595825,14.159402 17.570566,14.222456 C 17.517335,14.354929 17.460106,14.48671 17.3986,14.613289 C 17.385459,14.64038 17.365245,14.664562 17.3517,14.691456 C 17.272106,14.849176 17.193351,15.012497 17.101566,15.160456 C 17.032314,15.272345 16.959283,15.381435 16.882699,15.488757 C 16.863054,15.516136 16.840231,15.539937 16.820166,15.566923 C 16.756329,15.653307 16.685482,15.73402 16.616932,15.817057 C 16.561199,15.884141 16.50334,15.955981 16.444966,16.020291 C 16.378758,16.093596 16.311733,16.168988 16.241732,16.239158 C 16.171562,16.309158 16.096171,16.376184 16.022865,16.442391 C 15.950511,16.507967 15.879854,16.567764 15.803998,16.629992 C 15.700535,16.714767 15.599894,16.802656 15.491331,16.880125 C 15.451435,16.908563 15.406981,16.93076 15.366265,16.958292 C 15.247579,17.038663 15.130584,17.121194 15.006697,17.192792 C 14.972919,17.212264 14.931527,17.220824 14.897263,17.239692 C 14.763453,17.313577 14.629748,17.395058 14.490796,17.458559 C 14.428894,17.486703 14.366458,17.510504 14.303196,17.536725 C 14.200006,17.579703 14.096011,17.60895 13.990529,17.646159 C 13.979748,17.649952 13.970052,17.658066 13.959263,17.661792 C 13.808912,17.713847 13.660203,17.762417 13.505895,17.802493 C 13.336128,17.846823 13.176075,17.882977 13.005628,17.911927 C 12.969886,17.918054 12.932077,17.922076 12.896194,17.92756 C 12.797686,17.942398 12.697616,17.948994 12.599161,17.958826 C 12.31204,17.988139 12.031374,18.003031 11.739327,17.990093 C 11.718409,17.98918 11.697683,17.991225 11.676794,17.990093 C 11.609756,17.986403 11.540702,17.980444 11.47356,17.97446 C 11.341892,17.962784 11.212794,17.947822 11.082725,17.92756 C 10.922556,17.902578 10.757799,17.872256 10.598092,17.833759 C 10.561869,17.824989 10.524689,17.811928 10.488658,17.802493 C 10.451962,17.79291 10.415866,17.781538 10.379225,17.771226 C 10.222102,17.726954 10.062986,17.671644 9.9102244,17.614893 C 9.8991235,17.610756 9.8900197,17.603455 9.8789577,17.599259 C 9.7076917,17.534298 9.5403848,17.474583 9.3786905,17.396026 C 9.3513969,17.382766 9.3275376,17.362759 9.3005237,17.349125 C 9.1428035,17.269531 8.9794822,17.190776 8.8315232,17.098992 C 8.8193822,17.09146 8.8123299,17.075336 8.8002565,17.067725 C 8.6378502,16.965357 8.4812265,16.855452 8.3312559,16.739424 C 8.2369906,16.666495 8.1390372,16.598511 8.0498556,16.520558 C 8.0139954,16.489343 7.9755794,16.458865 7.9404221,16.426758 C 7.8754995,16.367191 7.814826,16.301311 7.7528219,16.239158 C 7.6906687,16.177154 7.624788,16.11648 7.5652217,16.051557 C 7.4525605,15.928195 7.3540939,15.792445 7.2525546,15.660723 C 7.1365277,15.510753 7.0266225,15.354129 6.9242542,15.191723 C 6.9179154,15.181667 6.9149053,15.17056 6.9086209,15.160456 C 6.805693,14.994977 6.7148234,14.822245 6.6272206,14.644556 C 6.601801,14.592995 6.5731177,14.540781 6.5490538,14.488222 C 6.5091335,14.400871 6.4753409,14.311628 6.4396204,14.222456 C 6.4204251,14.174686 6.3951686,14.130273 6.3770869,14.081755 C 6.3694739,14.061328 6.3688296,14.039678 6.3614536,14.019222 C 6.3410062,13.962302 6.3176583,13.904795 6.2989202,13.847255 C 6.2589129,13.724402 6.2059366,13.597446 6.1738534,13.472054 C 6.1395806,13.338106 6.1207045,13.20197 6.0956867,13.065587 C 6.0719585,12.9361 6.0481488,12.804274 6.0331532,12.674753 C 6.0215905,12.574882 6.0239798,12.477416 6.0175199,12.37772 C 6.0104686,12.269141 6.0029812,12.158729 6.0018865,12.04942 C 6.0004768,11.879642 6.0045775,11.701564 6.0175199,11.533519 C 6.0304623,11.365473 6.0531474,11.198722 6.0800533,11.033252 C 6.1103935,10.84666 6.1419173,10.66826 6.1894867,10.486084 C 6.1976166,10.454951 6.2120988,10.423378 6.2207534,10.392284 C 6.2603221,10.250251 6.311674,10.108717 6.3614536,9.970184 C 6.3703084,9.945454 6.3678871,9.916704 6.3770869,9.892017 C 6.4014445,9.826659 6.4288746,9.768357 6.4552538,9.7044168 C 6.4792811,9.6461426 6.5075857,9.5899376 6.5334205,9.5324499 C 6.5917562,9.4029992 6.6545682,9.2804547 6.7210207,9.1572495 C 6.7801728,9.0471962 6.8426812,8.9352413 6.9086209,8.8289491 C 6.9655314,8.7372121 7.0343686,8.651871 7.0962211,8.5631821 C 7.1542917,8.4807446 7.206354,8.3919111 7.268188,8.3130484 C 7.3116953,8.2568969 7.347703,8.1957498 7.3932548,8.1410815 C 7.416953,8.1129805 7.4472462,8.09052 7.4714215,8.0629148 C 7.5560898,7.9662357 7.6469048,7.8720269 7.7371886,7.7815144 C 7.853251,7.6651583 7.9721206,7.5591332 8.0967556,7.453214 C 8.1759294,7.3859292 8.2488849,7.3129622 8.3312559,7.2499805 C 8.3517024,7.234185 8.3731083,7.2186318 8.3937894,7.2030805 C 8.4872042,7.1335469 8.5780773,7.0638311 8.6751896,6.9998469 C 8.7004486,6.9830535 8.7277898,6.9693881 8.7533564,6.9529469 C 8.7950616,6.9263547 8.8360996,6.9003502 8.8784232,6.8747801 C 9.5112513,6.3525431 9.5028253,5.8559503 9.4412238,5.1082113 C 9.1709129,4.3828876 8.3925326,3.9982899 7.6590218,4.1858436 C 7.6382837,4.0978791 7.5552659,4.2065948 7.5026883,4.2171103 z"
       id="path2404"
       style="fill:#3a3935;fill-opacity:1;fill-rule:evenodd;stroke:none;stroke-width:1.69999993;stroke-linecap:round;stroke-linejoin:miter;marker:none;marker-start:none;marker-mid:none;marker-end:none;stroke-miterlimit:4;stroke-dasharray:none;stroke-dashoffset:0;stroke-opacity:1;visibility:visible;display:inline;overflow:visible;enable-background:accumulate" />
  </g>
</svg>
