<?xml version="1.0" encoding="UTF-8" standalone="no"?>
<!-- Created with Inkscape (http://www.inkscape.org/) -->
<svg
   xmlns:svg="http://www.w3.org/2000/svg"
   xmlns="http://www.w3.org/2000/svg"
   version="1.0"
   width="22"
   height="22"
   id="svg2822">
  <defs
     id="defs2824" />
  <path
     d="M 9.4060148,2.0314852 C 8.9066899,2.0774951 8.5261395,2.4988187 8.5310148,3.0002352 L 8.5310148,4.5627352 C 8.4167942,4.6088666 8.2969823,4.6363405 8.1872648,4.6877352 L 7.0935148,3.5939852 C 6.9123504,3.4094556 6.6646104,3.3127352 6.4060148,3.3127352 C 6.1474192,3.3127354 5.8996792,3.4094556 5.7185148,3.5939852 L 3.5935148,5.7189852 C 3.4089852,5.9001496 3.3122648,6.1478896 3.3122648,6.4064852 C 3.312265,6.6650808 3.4089852,6.9128208 3.5935148,7.0939852 L 4.6872648,8.1877352 C 4.6358701,8.2974527 4.6083962,8.4172646 4.5622648,8.5314852 L 2.9997648,8.5314852 C 2.7424035,8.5300647 2.4942495,8.6307505 2.3122648,8.8127352 C 2.1302801,8.9947201 2.0295943,9.2428742 2.0310148,9.5002352 L 2.0310148,12.500235 C 2.0295943,12.757596 2.1302801,13.00575 2.3122648,13.187735 C 2.4942495,13.369719 2.7424035,13.470405 2.9997648,13.468985 L 4.5622648,13.468985 C 4.6083962,13.583206 4.6358701,13.703017 4.6872648,13.812735 L 3.5935148,14.906485 C 3.4089852,15.087649 3.3122648,15.335389 3.3122648,15.593985 C 3.312265,15.852581 3.4089852,16.100321 3.5935148,16.281485 L 5.7185148,18.406485 C 5.8996792,18.591015 6.1474192,18.687735 6.4060148,18.687735 C 6.6646104,18.687735 6.9123504,18.591015 7.0935148,18.406485 L 8.1872648,17.312735 C 8.2969824,17.36413 8.4167941,17.391604 8.5310148,17.437735 L 8.5310148,19.000235 C 8.5295943,19.257596 8.6302801,19.50575 8.8122648,19.687735 C 8.9942497,19.86972 9.2424038,19.970405 9.4997648,19.968985 L 12.499765,19.968985 C 12.757126,19.970405 13.00528,19.86972 13.187265,19.687735 C 13.369249,19.505751 13.469935,19.257596 13.468515,19.000235 L 13.468515,17.437735 C 13.582736,17.391604 13.702547,17.36413 13.812265,17.312735 L 14.906015,18.406485 C 15.087179,18.591015 15.334919,18.687735 15.593515,18.687735 C 15.852111,18.687735 16.099851,18.591015 16.281015,18.406485 L 18.406015,16.281485 C 18.590545,16.100321 18.687265,15.852581 18.687265,15.593985 C 18.687265,15.335389 18.590545,15.087649 18.406015,14.906485 L 17.312265,13.812735 C 17.36366,13.703017 17.391134,13.583206 17.437265,13.468985 L 18.999765,13.468985 C 19.257126,13.470405 19.50528,13.36972 19.687265,13.187735 C 19.86925,13.00575 19.969935,12.757596 19.968515,12.500235 L 19.968515,9.5002352 C 19.969935,9.2428742 19.86925,8.9947199 19.687265,8.8127352 C 19.505281,8.6307507 19.257126,8.5300647 18.999765,8.5314852 L 17.437265,8.5314852 C 17.391134,8.4172645 17.36366,8.2974528 17.312265,8.1877352 L 18.406015,7.0939852 C 18.590545,6.9128208 18.687265,6.6650808 18.687265,6.4064852 C 18.687265,6.1478896 18.590545,5.9001496 18.406015,5.7189852 L 16.281015,3.5939852 C 16.099851,3.4094556 15.852111,3.3127352 15.593515,3.3127352 C 15.334919,3.3127354 15.087179,3.4094556 14.906015,3.5939852 L 13.812265,4.6877352 C 13.702547,4.6363405 13.582736,4.6088666 13.468515,4.5627352 L 13.468515,3.0002352 C 13.469935,2.7428739 13.36925,2.4947199 13.187265,2.3127352 C 13.00528,2.1307505 12.757126,2.0300647 12.499765,2.0314852 L 9.4997648,2.0314852 C 9.4685338,2.0299639 9.4372458,2.0299639 9.4060148,2.0314852 z M 10.999765,9.0002352 C 12.103765,9.0002352 12.999765,9.8962352 12.999765,11.000235 C 12.999765,12.104235 12.103765,13.000235 10.999765,13.000235 C 9.8957648,13.000235 8.9997648,12.104235 8.9997648,11.000235 C 8.9997648,9.8962352 9.8957648,9.0002352 10.999765,9.0002352 z"
     id="path3200"
     style="opacity:0.6;fill:#eae3d0;fill-opacity:1;fill-rule:evenodd;stroke:none;stroke-width:1.69999993;stroke-linecap:round;stroke-linejoin:miter;marker:none;marker-start:none;marker-mid:none;marker-end:none;stroke-miterlimit:4;stroke-dasharray:none;stroke-dashoffset:0;stroke-opacity:1;visibility:visible;display:inline;overflow:visible;enable-background:accumulate" />
  <path
     d="M 9.4997648,3.0002352 L 9.4997648,5.1877352 C 8.9458616,5.3299357 8.4486004,5.5596135 7.9685148,5.8439852 L 6.4060148,4.2814852 L 4.2810148,6.4064852 L 5.8435148,7.9689852 C 5.5591431,8.4490708 5.3294653,8.946332 5.1872648,9.5002352 L 2.9997648,9.5002352 L 2.9997648,12.500235 L 5.1872648,12.500235 C 5.3294653,13.054138 5.5591431,13.551399 5.8435148,14.031485 L 4.2810148,15.593985 L 6.4060148,17.718985 L 7.9685148,16.156485 C 8.4486004,16.440857 8.9458616,16.670535 9.4997648,16.812735 L 9.4997648,19.000235 L 12.499765,19.000235 L 12.499765,16.812735 C 13.053668,16.670535 13.550929,16.440857 14.031015,16.156485 L 15.593515,17.718985 L 17.718515,15.593985 L 16.156015,14.031485 C 16.440387,13.551399 16.670065,13.054138 16.812265,12.500235 L 18.999765,12.500235 L 18.999765,9.5002352 L 16.812265,9.5002352 C 16.670065,8.946332 16.440387,8.4490708 16.156015,7.9689852 L 17.718515,6.4064852 L 15.593515,4.2814852 L 14.031015,5.8439852 C 13.550929,5.5596135 13.053668,5.3299357 12.499765,5.1877352 L 12.499765,3.0002352 L 9.4997648,3.0002352 z M 10.999765,9.0002352 C 12.103765,9.0002351 12.999765,9.8962352 12.999765,11.000235 C 12.999765,12.104235 12.103765,13.000235 10.999765,13.000235 C 9.8957648,13.000235 8.9997648,12.104235 8.9997648,11.000235 C 8.9997647,9.8962352 9.8957648,9.0002352 10.999765,9.0002352 z"
     id="path3276"
     style="opacity:1;fill:#3a3935;fill-opacity:1;fill-rule:evenodd;stroke:none;stroke-width:1;stroke-linecap:butt;stroke-linejoin:miter;marker:none;marker-start:none;marker-mid:none;marker-end:none;stroke-miterlimit:4;stroke-dasharray:none;stroke-dashoffset:0;stroke-opacity:1;visibility:visible;display:inline;overflow:visible;enable-background:accumulate" />
</svg>
