<?xml version="1.0" encoding="UTF-8" standalone="no"?>
<!-- Created with Inkscape (http://www.inkscape.org/) -->

<svg
   xmlns:dc="http://purl.org/dc/elements/1.1/"
   xmlns:cc="http://creativecommons.org/ns#"
   xmlns:rdf="http://www.w3.org/1999/02/22-rdf-syntax-ns#"
   xmlns:svg="http://www.w3.org/2000/svg"
   xmlns="http://www.w3.org/2000/svg"
   xmlns:sodipodi="http://sodipodi.sourceforge.net/DTD/sodipodi-0.dtd"
   xmlns:inkscape="http://www.inkscape.org/namespaces/inkscape"
   version="1.0"
   width="22"
   height="22"
   id="svg3233"
   inkscape:version="0.47 r22583"
   sodipodi:docname="audio-volume-low-panel.svg">
  <metadata
     id="metadata11">
    <rdf:RDF>
      <cc:Work
         rdf:about="">
        <dc:format>image/svg+xml</dc:format>
        <dc:type
           rdf:resource="http://purl.org/dc/dcmitype/StillImage" />
        <dc:title></dc:title>
      </cc:Work>
    </rdf:RDF>
  </metadata>
  <sodipodi:namedview
     pagecolor="#ffffff"
     bordercolor="#666666"
     borderopacity="1"
     objecttolerance="10"
     gridtolerance="10"
     guidetolerance="10"
     inkscape:pageopacity="0"
     inkscape:pageshadow="2"
     inkscape:window-width="640"
     inkscape:window-height="480"
     id="namedview9"
     showgrid="false"
     inkscape:zoom="15.409091"
     inkscape:cx="11"
     inkscape:cy="11"
     inkscape:window-x="0"
     inkscape:window-y="24"
     inkscape:window-maximized="0"
     inkscape:current-layer="svg3233" />
  <defs
     id="defs3235">
    <inkscape:perspective
       sodipodi:type="inkscape:persp3d"
       inkscape:vp_x="0 : 11 : 1"
       inkscape:vp_y="0 : 1000 : 0"
       inkscape:vp_z="22 : 11 : 1"
       inkscape:persp3d-origin="11 : 7.3333333 : 1"
       id="perspective13" />
  </defs>
  <path
     style="opacity:0.6;fill:#eae3d0;fill-opacity:1;fill-rule:evenodd;stroke:none;stroke-width:1.69999993;marker:none;visibility:visible;display:inline;overflow:visible;enable-background:accumulate"
     id="path3228"
     d="M 7.0129338,5.0055461 C 6.2946399,4.9843559 5.6758785,5.4253515 5.2669208,5.9820138 4.6926751,6.6565246 4.1184295,7.3310353 3.5441838,8.0055461 2.8080742,8.0483579 2.0437635,7.8976469 1.3307738,8.1284476 0.4557141,8.4355255 -0.08713262,9.3777341 0.01152399,10.288703 c 0.01125261,1.005727 -0.02582557,2.01446 0.02478281,3.018247 0.1412789,1.033379 1.1689299,1.804949 2.1980054,1.698596 0.4470406,0 0.8940811,0 1.3411216,0 0.7130602,0.820463 1.4367798,1.633689 2.1356574,2.464539 0.7697325,0.799637 2.1754846,0.662661 2.8406993,-0.198063 0.4593377,-0.501242 0.4823743,-1.195617 0.4611433,-1.835735 -0.00176,-2.844139 0.00352,-5.6883689 -0.00264,-8.532451 C 8.9714328,5.8735878 8.0453156,4.9900056 7.0129338,5.0055461 z" />
  <path
     style="fill:#3a3935;fill-opacity:1;fill-rule:evenodd;stroke:none;stroke-width:1.69999993;marker:none;visibility:visible;display:inline;overflow:visible;enable-background:accumulate"
     id="rect3180"
     d="m 7.0129338,6.0055461 c -0.3052235,0 -0.5665273,0.1279595 -0.75,0.34375 l -2.25,2.65625 c 0,0 -2,0 -2,0 -0.552,0 -1,0.448 -1,0.9999999 -0.00627,0.996071 0.00222,2.014549 0,3 0,0.552 0.4480001,1 1,1 l 2,0 2.15625,2.46875 c 0.1713584,0.304919 0.4693044,0.53125 0.84375,0.53125 0.552,0 1.0000004,-0.448 1,-1 l 0,-8.9999999 c 0,-0.552 -0.4480003,-1 -1,-1 z" />
</svg>
