<?xml version="1.0" encoding="UTF-8" standalone="no"?>
<!-- Created with Inkscape (http://www.inkscape.org/) -->

<svg
   xmlns:dc="http://purl.org/dc/elements/1.1/"
   xmlns:cc="http://creativecommons.org/ns#"
   xmlns:rdf="http://www.w3.org/1999/02/22-rdf-syntax-ns#"
   xmlns:svg="http://www.w3.org/2000/svg"
   xmlns="http://www.w3.org/2000/svg"
   xmlns:xlink="http://www.w3.org/1999/xlink"
   version="1.1"
   width="14"
   height="22"
   id="svg3330">
  <defs
     id="defs3332">
    <linearGradient
       x1="97.04393"
       y1="12.760073"
       x2="97.04393"
       y2="34.770058"
       id="linearGradient3300"
       xlink:href="#linearGradient3587-6-5-3-0"
       gradientUnits="userSpaceOnUse"
       gradientTransform="matrix(0.4101105,0,0,0.5452071,-31.798735,-4.9568823)" />
    <linearGradient
       id="linearGradient3587-6-5-3-0">
      <stop
         id="stop3589-9-2-2-7"
         style="stop-color:#ffffff;stop-opacity:1"
         offset="0" />
      <stop
         id="stop3591-7-4-73-6"
         style="stop-color:#363636;stop-opacity:1"
         offset="1" />
    </linearGradient>
  </defs>
  <metadata
     id="metadata3335">
    <rdf:RDF>
      <cc:Work
         rdf:about="">
        <dc:format>image/svg+xml</dc:format>
        <dc:type
           rdf:resource="http://purl.org/dc/dcmitype/StillImage" />
        <dc:title></dc:title>
      </cc:Work>
    </rdf:RDF>
  </metadata>
  <g
     transform="translate(0,6)"
     id="layer1">
    <g
       id="g3788"
       style="opacity:0.4">
      <path
         d="m 7,-4 c -1.662,0 -3,1.338 -3,3 l 0,8 c 0,1.662 1.338,3 3,3 1.662,0 3,-1.338 3,-3 l 0,-8 C 10,-2.662 8.662,-4 7,-4 z M 1,3 1,4 2,4 2,7 c 0,2.42375 1.717481,4.441543 4,4.90625 L 6,14 5,14 5,15 9,15 9,14 8,14 8,11.90625 C 10.28252,11.441543 12,9.42375 12,7 l 0,-3 1,0 0,-1 -1,0 -1,0 0,4 C 11,9.216 9.216,11 7,11 4.784,11 3,9.216 3,7 L 3,3 2,3 1,3 z"
         id="path3122-6"
         style="opacity:0.3;color:#ffffff;fill:#ffffff;fill-opacity:1;fill-rule:nonzero;stroke:none;stroke-width:1;marker:none;visibility:visible;display:inline;overflow:visible;enable-background:accumulate" />
      <path
         d="M 7,1 C 5.338,1 4,2.338 4,4 l 0,8 c 0,1.662 1.338,3 3,3 1.662,0 3,-1.338 3,-3 L 10,4 C 10,2.338 8.662,1 7,1 z m -6,7 0,1 1,0 0,3 c 0,2.42375 1.717481,4.441543 4,4.90625 L 6,19 5,19 5,20 9,20 9,19 8,19 8,16.90625 C 10.28252,16.441543 12,14.42375 12,12 l 0,-3 1,0 0,-1 -1,0 -1,0 0,4 C 11,14.216 9.216,16 7,16 4.784,16 3,14.216 3,12 L 3,8 2,8 1,8 z"
         transform="translate(0,-6)"
         id="path3122"
         style="color:#ffffff;fill:#3c3c3c;fill-opacity:1;fill-rule:nonzero;stroke:none;stroke-width:1;marker:none;visibility:visible;display:inline;overflow:visible;enable-background:accumulate" />
    </g>
  </g>
</svg>
