<?xml version="1.0" encoding="UTF-8" standalone="no"?>
<!-- Created with Inkscape (http://www.inkscape.org/) -->

<svg
   xmlns:dc="http://purl.org/dc/elements/1.1/"
   xmlns:cc="http://creativecommons.org/ns#"
   xmlns:rdf="http://www.w3.org/1999/02/22-rdf-syntax-ns#"
   xmlns:svg="http://www.w3.org/2000/svg"
   xmlns="http://www.w3.org/2000/svg"
   xmlns:sodipodi="http://sodipodi.sourceforge.net/DTD/sodipodi-0.dtd"
   xmlns:inkscape="http://www.inkscape.org/namespaces/inkscape"
   version="1.0"
   width="32"
   height="22"
   id="svg3240"
   sodipodi:version="0.32"
   inkscape:version="0.47 r22583"
   sodipodi:docname="battery-charged.svg"
   inkscape:output_extension="org.inkscape.output.svg.inkscape">
  <metadata
     id="metadata11">
    <rdf:RDF>
      <cc:Work
         rdf:about="">
        <dc:format>image/svg+xml</dc:format>
        <dc:type
           rdf:resource="http://purl.org/dc/dcmitype/StillImage" />
      </cc:Work>
    </rdf:RDF>
  </metadata>
  <sodipodi:namedview
     inkscape:window-height="706"
     inkscape:window-width="640"
     inkscape:pageshadow="2"
     inkscape:pageopacity="0.0"
     guidetolerance="10.0"
     gridtolerance="10.0"
     objecttolerance="10.0"
     borderopacity="1.0"
     bordercolor="#666666"
     pagecolor="#ffffff"
     id="base"
     showgrid="false"
     inkscape:zoom="6.1429902"
     inkscape:cx="16.389986"
     inkscape:cy="10.884892"
     inkscape:window-x="0"
     inkscape:window-y="24"
     inkscape:current-layer="svg3240"
     showguides="true"
     inkscape:guide-bbox="true"
     inkscape:window-maximized="0" />
  <defs
     id="defs3242" />
  <path
     d="M 7,5 C 5.892,5 5,5.892 5,7 l 0,8 c 0,1.108 0.892,2 2,2 l 18,0 c 1.108,0 2,-0.892 2,-2 l 0,-1 1,0 c 1.108,0 2,-0.892 2,-2 l 0,-2 C 30,8.892 29.108,8 28,8 L 27,8 27,7 C 27,5.892 26.108,5 25,5 L 7,5 z m 0,1 18,0 c 0.554,0 1,0.446 1,1 l 0,8 c 0,0.554 -0.446,1 -1,1 L 7,16 C 6.446,16 6,15.554 6,15 L 6,7 C 6,6.446 6.446,6 7,6 z m 20,3 1,0 c 0.554,0 1,0.446 1,1 l 0,2 c 0,0.554 -0.446,1 -1,1 l -1,0 0,-4 z"
     id="rect2401"
     style="fill:#3a3935;fill-opacity:1;fill-rule:nonzero;stroke:none;stroke-width:1;marker:none;visibility:visible;display:inline;overflow:visible;enable-background:accumulate" />
  <rect
     width="19.5"
     height="9.500001"
     rx="0.75"
     ry="0.75"
     x="6.25"
     y="6.2499995"
     id="rect3192"
     style="opacity:0.3;fill:none;stroke:#000000;stroke-width:0.49999994;stroke-linecap:round;stroke-linejoin:miter;stroke-miterlimit:4;stroke-opacity:1;stroke-dasharray:none;stroke-dashoffset:0;marker:none;visibility:visible;display:inline;overflow:visible;enable-background:accumulate" />
  <path
     d="m 28,14 -1,0 0,1 c 0,1.436187 -1,2 -2,2 L 7,17 C 6,17 5,16.191135 5,15 L 5,7 C 5,5.825202 6,5 7,5 l 18,0 c 1.174798,0 2,0.8366321 2,2 l 0,1 1,0 c 1,0 2,0.8039585 2,2 l 0,2 c 0,1.196607 -1.00292,2 -2,2 z M 6.522777,4 C 5.414777,4 4,5.4637876 4,6.5717876 L 4,15.477223 C 4,16.585223 5.431114,18 6.539114,18 l 18.987119,0 C 26.634233,18 28,17 28,15.54257 L 28,15 28.428212,15 C 30,15 31,13.65057 31,12.411876 L 31,9.5 C 31,8.392 30,7 28.5,7 L 28,7 28,6.4737669 C 28,5.2187358 26.764927,4 25.477223,4 L 6.522777,4 z"
     id="path3194"
     style="opacity:0.6;fill:#eae3d0;fill-opacity:1;fill-rule:nonzero;stroke:none;stroke-width:1;marker:none;visibility:visible;display:inline;overflow:visible;enable-background:accumulate" />
  <path
     d="m 27.25,9.2244976 0,3.5255024 c 0.753172,0 1.5,0.04671 1.5,-0.75 l 0,-2 c 0,-0.7901996 -0.750182,-0.7755024 -1.5,-0.7755024 z"
     id="path3196"
     style="opacity:0.3;fill:none;stroke:#000000;stroke-width:0.5;stroke-linecap:butt;stroke-linejoin:miter;stroke-miterlimit:4;stroke-opacity:1;stroke-dasharray:none" />
  <g
     id="g2386">
    <path
       style="fill:#3a3935;fill-opacity:1;fill-rule:evenodd;stroke:none;stroke-width:1.69999993;marker:none;visibility:visible;display:inline;overflow:visible;enable-background:accumulate"
       id="rect3190"
       d="M 7.5,7 C 7.223,7 7,7.223 7,7.5 l 0,7 C 7,14.777 7.223,15 7.5,15 L 17,15 9,8 15,11 15,7 7.5,7 z m 7.5,0 7,7 -5,-2 0,3 7.5,0 c 0.277,0 0.5,-0.223 0.5,-0.5 l 0,-7 C 25,7.223 24.777,7 24.5,7 L 15,7 z" />
    <path
       style="opacity:0.3;fill:none;stroke:#000000;stroke-width:0.5;stroke-miterlimit:4;stroke-opacity:1;stroke-dasharray:none"
       id="path3179"
       d="m 15.243508,7.5963627 c 0.0016,0.7211806 0.0077,2.0531744 -0.0085,2.7734693 -0.09351,0.490954 -0.723019,0.771906 -1.119313,0.467916 0,0 -3.536876,-1.7904139 -3.536876,-1.7904139 2.073063,1.7980989 6.194025,5.4233799 6.194025,5.4233799 0,0 0.01683,-2.040173 0.01683,-2.040173 0,-0.367842 0.686455,-0.507978 0.961688,-0.410837 0,0 3.234058,1.312549 3.234058,1.312549 0,0 -3.82551,-3.8263443 -5.741866,-5.7358903 z" />
  </g>
</svg>
