<?xml version="1.0" encoding="UTF-8" standalone="no"?>
<!-- Created with Inkscape (http://www.inkscape.org/) -->
<svg
   xmlns:dc="http://purl.org/dc/elements/1.1/"
   xmlns:cc="http://creativecommons.org/ns#"
   xmlns:rdf="http://www.w3.org/1999/02/22-rdf-syntax-ns#"
   xmlns:svg="http://www.w3.org/2000/svg"
   xmlns="http://www.w3.org/2000/svg"
   xmlns:sodipodi="http://sodipodi.sourceforge.net/DTD/sodipodi-0.dtd"
   xmlns:inkscape="http://www.inkscape.org/namespaces/inkscape"
   version="1.0"
   width="22"
   height="22"
   id="svg3240"
   sodipodi:version="0.32"
   inkscape:version="0.46"
   sodipodi:docname="battery-020.svg"
   inkscape:output_extension="org.inkscape.output.svg.inkscape">
  <metadata
     id="metadata10">
    <rdf:RDF>
      <cc:Work
         rdf:about="">
        <dc:format>image/svg+xml</dc:format>
        <dc:type
           rdf:resource="http://purl.org/dc/dcmitype/StillImage" />
      </cc:Work>
    </rdf:RDF>
  </metadata>
  <sodipodi:namedview
     inkscape:window-height="706"
     inkscape:window-width="640"
     inkscape:pageshadow="2"
     inkscape:pageopacity="0.0"
     guidetolerance="10.0"
     gridtolerance="10.0"
     objecttolerance="10.0"
     borderopacity="1.0"
     bordercolor="#666666"
     pagecolor="#ffffff"
     id="base"
     showgrid="false"
     inkscape:zoom="8.0031631"
     inkscape:cx="11"
     inkscape:cy="11"
     inkscape:window-x="0"
     inkscape:window-y="24"
     inkscape:current-layer="svg3240" />
  <defs
     id="defs3242">
    <inkscape:perspective
       sodipodi:type="inkscape:persp3d"
       inkscape:vp_x="0 : 11 : 1"
       inkscape:vp_y="0 : 1000 : 0"
       inkscape:vp_z="22 : 11 : 1"
       inkscape:persp3d-origin="11 : 7.3333333 : 1"
       id="perspective12" />
  </defs>
  <rect
     style="opacity:0.3;fill:none;fill-opacity:1;fill-rule:nonzero;stroke:#000000;stroke-width:0.5;stroke-linecap:round;stroke-linejoin:miter;marker:none;marker-start:none;marker-mid:none;marker-end:none;stroke-miterlimit:4;stroke-dasharray:none;stroke-dashoffset:0;stroke-opacity:1;visibility:visible;display:inline;overflow:visible;enable-background:accumulate"
     id="rect3236"
     y="7.25"
     x="4.25"
     ry="0.25"
     rx="0.25"
     height="7.5"
     width="14.5" />
  <path
     style="opacity:0.6;fill:none;fill-opacity:1;fill-rule:nonzero;stroke:#eae3d0;stroke-width:0.99999994;stroke-linecap:round;stroke-linejoin:miter;marker:none;marker-start:none;marker-mid:none;marker-end:none;stroke-miterlimit:4;stroke-dasharray:none;stroke-dashoffset:0;stroke-opacity:1;visibility:visible;display:inline;overflow:visible;enable-background:accumulate"
     id="rect3225"
     d="M 18.502042,5.5 C 19.610042,5.5 20.502042,6.392 20.502042,7.5 L 20.502042,14.5 C 20.502042,15.608 19.610042,16.5 18.502042,16.5 L 4.5020421,16.5 C 3.3940421,16.5 2.5020411,15.608 2.5020421,14.5 L 2.5020421,13.5 C 1.9151811,13.465401 1.3417141,13.262611 0.9707921,12.78125 C 0.4455791,12.206345 0.5559811,11.592479 0.5020421,10.6875 C 0.4481031,9.782521 1.4710771,8.5237494 2.5758311,8.5 L 2.5020421,7.5 C 2.5020421,6.392 3.3940411,5.5 4.5020421,5.5 L 18.502042,5.5 z" />
  <rect
     style="fill:#dc0000;fill-opacity:1;fill-rule:evenodd;stroke:none;stroke-width:1.69999993;stroke-linecap:round;stroke-linejoin:miter;marker:none;marker-start:none;marker-mid:none;marker-end:none;stroke-miterlimit:4;stroke-dasharray:none;stroke-dashoffset:0;stroke-opacity:1;visibility:visible;display:inline;overflow:visible;enable-background:accumulate"
     id="rect3728"
     transform="matrix(0,1,-1,0,0,0)"
     y="-8"
     x="8.0500002"
     ry="0.49999994"
     rx="0.5"
     height="3"
     width="6" />
  <path
     style="fill:none;fill-opacity:1;fill-rule:nonzero;stroke:#3a3935;stroke-width:1;stroke-linecap:round;stroke-linejoin:miter;marker:none;marker-start:none;marker-mid:none;marker-end:none;stroke-miterlimit:4;stroke-dashoffset:0;stroke-opacity:1;visibility:visible;display:inline;overflow:visible;enable-background:accumulate"
     id="rect2442"
     d="M 18.502042,6.5 L 4.5020421,6.5 C 3.9480421,6.5 3.5020421,6.946 3.5020421,7.5 L 3.5020421,14.5 C 3.5020421,15.054 3.9480421,15.5 4.5020421,15.5 L 18.502042,15.5 C 19.056042,15.5 19.502042,15.054 19.502042,14.5 L 19.502042,7.5 C 19.502042,6.946 19.056042,6.5 18.502042,6.5 z M 3.3835911,9.50264 C 3.0555511,9.50334 2.7275151,9.504168 2.3994831,9.505144 C 1.8016581,9.545901 1.4227501,10.15474 1.5020091,10.717338 C 1.5254421,11.25026 1.3778881,11.894234 1.8652041,12.272203 C 2.3036821,12.622964 2.8864041,12.463608 3.4024111,12.5" />
</svg>
