<?xml version="1.0" encoding="UTF-8" standalone="no"?>
<!-- Created with Inkscape (http://www.inkscape.org/) -->

<svg
   xmlns:dc="http://purl.org/dc/elements/1.1/"
   xmlns:cc="http://creativecommons.org/ns#"
   xmlns:rdf="http://www.w3.org/1999/02/22-rdf-syntax-ns#"
   xmlns:svg="http://www.w3.org/2000/svg"
   xmlns="http://www.w3.org/2000/svg"
   version="1.0"
   width="16"
   height="22"
   id="svg3213">
  <metadata
     id="metadata12">
    <rdf:RDF>
      <cc:Work
         rdf:about="">
        <dc:format>image/svg+xml</dc:format>
        <dc:type
           rdf:resource="http://purl.org/dc/dcmitype/StillImage" />
        <dc:title></dc:title>
      </cc:Work>
    </rdf:RDF>
  </metadata>
  <defs
     id="defs3215" />
  <g
     transform="translate(-6,-1.4e-6)"
     id="g3790"
     style="opacity:0.3;stroke:#ffffff;stroke-opacity:1">
    <path
       d="M 11.788737,19.294254 15.294253,15.55392 8.7057475,8.9228633 m -10e-8,6.0660797 6.5885056,-6.6310579 -3.55157,-3.6521367"
       id="path3367-2"
       style="fill:none;stroke:#ffffff;stroke-width:1.41149473;stroke-linecap:round;stroke-linejoin:round;stroke-miterlimit:4;stroke-opacity:1;stroke-dasharray:none" />
    <path
       d="m 11.507463,4.8748905 0.08824,14.1558385"
       id="path3590-1"
       style="fill:none;stroke:#ffffff;stroke-width:1px;stroke-linecap:round;stroke-linejoin:miter;stroke-opacity:1" />
  </g>
  <path
     d="M 5.788737,18.294 9.2942534,14.553666 2.7057475,7.9226089 m -1e-7,6.0660801 L 9.2942534,7.3576307 5.742683,3.705494"
     id="path3367"
     style="fill:none;stroke:#3c3c3c;stroke-width:1.41149473;stroke-linecap:round;stroke-linejoin:round;stroke-miterlimit:4;stroke-opacity:1;stroke-dasharray:none" />
  <path
     d="M 5.507463,3.8746361 5.595703,18.030475"
     id="path3590"
     style="fill:none;stroke:#3c3c3c;stroke-width:1px;stroke-linecap:round;stroke-linejoin:miter;stroke-opacity:1" />
  <path
     d="m 12.999747,14 c -1.108,0 -2,0.910763 -2,2.03125 l 0,0.96875 c -0.554,0 -0.9999996,0.446 -0.9999996,1 l 0,3 c 0,0.554 0.4459996,1 0.9999996,1 l 4,0 c 0.554,0 1,-0.446 1,-1 l 0,-3 c 0,-0.554 -0.446,-1 -1,-1 l 0,-0.96875 c 0,-1.120486 -0.892,-2.03125 -2,-2.03125 z m 0,1 c 0.554,0 1,0.442363 1,1 l 0,1 -2,0 0,-1 c 0,-0.557637 0.446,-1 1,-1 z"
     id="path2441"
     style="opacity:0.3;fill:#ffffff;fill-opacity:1;fill-rule:nonzero;stroke:none;stroke-width:1;marker:none;visibility:visible;display:inline;overflow:visible;enable-background:accumulate" />
  <path
     d="m 12.999747,13 c -1.108,0 -2,0.910763 -2,2.03125 l 0,0.96875 c -0.554,0 -0.9999996,0.446 -0.9999996,1 l 0,3 c 0,0.554 0.4459996,1 0.9999996,1 l 4,0 c 0.554,0 1,-0.446 1,-1 l 0,-3 c 0,-0.554 -0.446,-1 -1,-1 l 0,-0.96875 c 0,-1.120486 -0.892,-2.03125 -2,-2.03125 z m 0,1 c 0.554,0 1,0.442363 1,1 l 0,1 -2,0 0,-1 c 0,-0.557637 0.446,-1 1,-1 z"
     id="rect2822"
     style="fill:#3c3c3c;fill-opacity:1;fill-rule:nonzero;stroke:none;stroke-width:1;marker:none;visibility:visible;display:inline;overflow:visible;enable-background:accumulate" />
</svg>
