<?xml version="1.0" encoding="UTF-8" standalone="no"?>
<!-- Created with Inkscape (http://www.inkscape.org/) -->
<svg
   xmlns:svg="http://www.w3.org/2000/svg"
   xmlns="http://www.w3.org/2000/svg"
   version="1.0"
   width="22"
   height="22"
   id="svg3215">
  <defs
     id="defs3217" />
  <g
     transform="translate(-1,-1)"
     id="g3195"
     style="opacity:0.3">
    <path
       d="M 12.5,5.3333332 L 12.5,8.6666663"
       id="path3193"
       style="opacity:1;fill:none;fill-opacity:1;fill-rule:evenodd;stroke:#000000;stroke-width:2;stroke-linecap:round;stroke-linejoin:miter;marker:none;marker-start:none;marker-mid:none;marker-end:none;stroke-miterlimit:4;stroke-dasharray:none;stroke-dashoffset:0;stroke-opacity:1;visibility:visible;display:inline;overflow:visible;enable-background:accumulate" />
    <rect
       width="13.5"
       height="8.5"
       rx="2.3"
       ry="3.3000903"
       x="-18.75"
       y="8.25"
       transform="matrix(0,-1,1,0,0,0)"
       id="rect3236"
       style="opacity:1;fill:none;fill-opacity:1;fill-rule:nonzero;stroke:#000000;stroke-width:0.49999994;stroke-linecap:round;stroke-linejoin:miter;marker:none;marker-start:none;marker-mid:none;marker-end:none;stroke-miterlimit:4;stroke-dasharray:none;stroke-dashoffset:0;stroke-opacity:1;visibility:visible;display:inline;overflow:visible;enable-background:accumulate" />
  </g>
  <path
     d="M 9.562725,5.2465282 C 8.6353419,5.5871892 8,6.2440955 8,7 L 8,15 C 8,16.108 9.338,17 11,17 L 12,17 C 13.662,17 15,16.108 15,15 L 15,7 C 15,6.244634 14.365563,5.5881251 13.439256,5.2472566 C 13.027254,5.0883419 13,5.3694637 13,5.46875 L 13,8 C 13,8.554 12.554,9 12,9 L 11,9 C 10.446,9 10,8.554 10,8 L 10,5.46875 C 10,5.269519 9.797319,5.1575525 9.562725,5.2465282 z"
     id="rect3728"
     style="fill:#3a3935;fill-opacity:1;fill-rule:evenodd;stroke:none;stroke-width:1.69999993;stroke-linecap:round;stroke-linejoin:miter;marker:none;marker-start:none;marker-mid:none;marker-end:none;stroke-miterlimit:4;stroke-dasharray:none;stroke-dashoffset:0;stroke-opacity:1;visibility:visible;display:inline;overflow:visible;enable-background:accumulate" />
  <rect
     width="10"
     height="15.000001"
     rx="3.9999998"
     ry="3"
     x="6.5"
     y="3.499999"
     id="rect2406"
     style="fill:none;fill-opacity:1;fill-rule:evenodd;stroke:#3a3935;stroke-width:0.99999994;stroke-linecap:round;stroke-linejoin:miter;marker:none;marker-start:none;marker-mid:none;marker-end:none;stroke-miterlimit:4;stroke-dasharray:none;stroke-dashoffset:0;stroke-opacity:1;visibility:visible;display:inline;overflow:visible;enable-background:accumulate" />
  <rect
     width="12"
     height="17"
     rx="5"
     ry="4"
     x="5.5"
     y="2.5"
     id="rect3178"
     style="opacity:0.6;fill:none;fill-opacity:1;fill-rule:nonzero;stroke:#eae3d0;stroke-width:0.99999994;stroke-linecap:round;stroke-linejoin:miter;marker:none;marker-start:none;marker-mid:none;marker-end:none;stroke-miterlimit:4;stroke-dasharray:none;stroke-dashoffset:0;stroke-opacity:1;visibility:visible;display:inline;overflow:visible;enable-background:accumulate" />
  <path
     d="M 11.541885,3.5 L 11.541885,7.5"
     id="path3182"
     style="fill:none;fill-opacity:1;fill-rule:evenodd;stroke:#3a3935;stroke-width:0.99999994;stroke-linecap:round;stroke-linejoin:miter;marker:none;marker-start:none;marker-mid:none;marker-end:none;stroke-miterlimit:4;stroke-dasharray:none;stroke-dashoffset:0;stroke-opacity:1;visibility:visible;display:inline;overflow:visible;enable-background:accumulate" />
</svg>
