<?xml version="1.0" encoding="UTF-8" standalone="no"?>
<!-- Created with Inkscape (http://www.inkscape.org/) -->

<svg
   xmlns:dc="http://purl.org/dc/elements/1.1/"
   xmlns:cc="http://creativecommons.org/ns#"
   xmlns:rdf="http://www.w3.org/1999/02/22-rdf-syntax-ns#"
   xmlns:svg="http://www.w3.org/2000/svg"
   xmlns="http://www.w3.org/2000/svg"
   version="1.0"
   width="22"
   height="22"
   id="svg3194">
  <metadata
     id="metadata16">
    <rdf:RDF>
      <cc:Work
         rdf:about="">
        <dc:format>image/svg+xml</dc:format>
        <dc:type
           rdf:resource="http://purl.org/dc/dcmitype/StillImage" />
        <dc:title></dc:title>
      </cc:Work>
    </rdf:RDF>
  </metadata>
  <defs
     id="defs3196" />
  <path
     d="m 0.50030854,12 c -0.06925,0 -0.1276406,0.006 -0.1875,0.03125 -0.057115,0.02622 -0.1129571,0.08181 -0.15625,0.125 l -0.03125,0.03125 c -0.032203,0.03814 -0.074055,0.07828 -0.09375,0.125 -0.0960746,0.182877 -0.0638124,0.405327 0.09375,0.5625 l 2.87499996,2.875 0,3.75 c 0,0.277 0.223,0.5 0.5,0.5 0.277,0 0.5,-0.223 0.5,-0.5 l 0,-3.75 2.875,-2.875 c 0.1575625,-0.157173 0.1898247,-0.379623 0.09375,-0.5625 -0.019695,-0.04672 -0.061547,-0.08686 -0.09375,-0.125 l -0.03125,-0.03125 C 6.7530303,12.065447 6.621754,12.006356 6.5003085,12 l -0.03125,0 -2.96875,0 -2.96874996,0 -0.03125,0 z"
     id="path3829"
     style="opacity:0.3;fill:#ffffff;fill-opacity:1;fill-rule:nonzero;stroke:none;stroke-width:1;marker:none;visibility:visible;display:inline;overflow:visible;enable-background:accumulate" />
  <path
     d="m 7.0003085,17 c -0.554,0 -1,0.446 -1,1 l 0,1 c 0,0.554 0.446,1 1,1 0.554,0 1,-0.446 1,-1 l 0,-1 c 0,-0.554 -0.446,-1 -1,-1 z"
     id="rect3165-9"
     style="opacity:0.3;fill:#ffffff;fill-opacity:1;fill-rule:nonzero;stroke:none;stroke-width:1;marker:none;visibility:visible;display:inline;overflow:visible;enable-background:accumulate" />
  <g
     transform="translate(-0.99969146,0)"
     id="g3835"
     style="opacity:0.4">
    <path
       d="m 20,4 c -0.554,0 -1,0.446 -1,1 l 0,14 c 0,0.554 0.446,1 1,1 0.554,0 1,-0.446 1,-1 L 21,5 C 21,4.446 20.554,4 20,4 z"
       id="path3833"
       style="opacity:0.3;fill:#ffffff;fill-opacity:1;fill-rule:nonzero;stroke:none;stroke-width:1;marker:none;visibility:visible;display:inline;overflow:visible;enable-background:accumulate" />
    <rect
       width="2"
       height="16"
       rx="0.99999994"
       ry="1"
       x="19"
       y="3"
       id="rect3165"
       style="fill:#3c3c3c;fill-opacity:1;fill-rule:nonzero;stroke:none;stroke-width:1;marker:none;visibility:visible;display:inline;overflow:visible;enable-background:accumulate" />
  </g>
  <g
     transform="translate(-0.99969146,0)"
     id="g3894"
     style="opacity:0.4">
    <path
       d="m 16,9 c -0.554,0 -1,0.446 -1,1 l 0,9 c 0,0.554 0.446,1 1,1 0.554,0 1,-0.446 1,-1 l 0,-9 C 17,9.446 16.554,9 16,9 z"
       id="path3831"
       style="opacity:0.3;fill:#ffffff;fill-opacity:1;fill-rule:nonzero;stroke:none;stroke-width:1;marker:none;visibility:visible;display:inline;overflow:visible;enable-background:accumulate" />
    <rect
       width="2"
       height="11"
       rx="0.99999994"
       ry="1"
       x="15"
       y="8"
       id="rect3177"
       style="fill:#3c3c3c;fill-opacity:1;fill-rule:nonzero;stroke:none;stroke-width:1;marker:none;visibility:visible;display:inline;overflow:visible;enable-background:accumulate" />
  </g>
  <g
     transform="translate(-0.99969146,0)"
     id="g3954"
     style="opacity:0.4">
    <path
       d="m 12,13 c -0.554,0 -1,0.446 -1,1 l 0,5 c 0,0.554 0.446,1 1,1 0.554,0 1,-0.446 1,-1 l 0,-5 c 0,-0.554 -0.446,-1 -1,-1 z"
       id="path3823"
       style="opacity:0.3;fill:#ffffff;fill-opacity:1;fill-rule:nonzero;stroke:none;stroke-width:1;marker:none;visibility:visible;display:inline;overflow:visible;enable-background:accumulate" />
    <rect
       width="2"
       height="7"
       rx="0.99999994"
       ry="1"
       x="11"
       y="12"
       id="rect3179"
       style="fill:#3c3c3c;fill-opacity:1;fill-rule:nonzero;stroke:none;stroke-width:1;marker:none;visibility:visible;display:inline;overflow:visible;enable-background:accumulate" />
  </g>
  <rect
     width="2"
     height="3"
     rx="0.99999994"
     ry="1"
     x="6.0003085"
     y="16"
     id="rect3181"
     style="fill:#3c3c3c;fill-opacity:1;fill-rule:nonzero;stroke:none;stroke-width:1;marker:none;visibility:visible;display:inline;overflow:visible;enable-background:accumulate" />
  <path
     d="m 0.49985234,11 c -0.06925,0 -0.1276406,0.006 -0.1875,0.03125 -0.057115,0.02622 -0.1129571,0.08181 -0.15625,0.125 l -0.03125,0.03125 c -0.032203,0.03814 -0.074055,0.07828 -0.09375,0.125 -0.0960746,0.182877 -0.0638124,0.405327 0.09375,0.5625 l 2.87499996,2.875 0,3.75 c 0,0.277 0.223,0.5 0.5,0.5 0.277,0 0.5,-0.223 0.5,-0.5 l 0,-3.75 2.875,-2.875 c 0.1575625,-0.157173 0.1898247,-0.379623 0.09375,-0.5625 -0.019695,-0.04672 -0.061547,-0.08686 -0.09375,-0.125 l -0.03125,-0.03125 C 6.7525741,11.065447 6.6212978,11.006356 6.4998523,11 l -0.03125,0 -2.96875,0 -2.96874996,0 -0.03125,0 z m 1.21874996,1 1.28125,0 0,1.25 -1.28125,-1.25 z m 2.28125,0 1.28125,0 -1.28125,1.28125 0,-1.28125 z"
     id="rect3184"
     style="fill:#3c3c3c;fill-opacity:1;fill-rule:nonzero;stroke:none;stroke-width:1;marker:none;visibility:visible;display:inline;overflow:visible;enable-background:accumulate" />
</svg>
