<?xml version="1.0" encoding="UTF-8" standalone="no"?>
<!-- Created with Inkscape (http://www.inkscape.org/) -->
<svg
   xmlns:svg="http://www.w3.org/2000/svg"
   xmlns="http://www.w3.org/2000/svg"
   version="1.0"
   width="22"
   height="22"
   id="svg3194">
  <defs
     id="defs3196" />
  <rect
     width="3"
     height="4"
     rx="2"
     ry="2"
     x="6.5"
     y="15.5"
     id="rect3187"
     style="opacity:0.6;fill:none;fill-opacity:1;fill-rule:nonzero;stroke:#eae3d0;stroke-width:0.99999994;stroke-linecap:round;stroke-linejoin:miter;marker:none;marker-start:none;marker-mid:none;marker-end:none;stroke-miterlimit:4;stroke-dasharray:none;stroke-dashoffset:0;stroke-opacity:1;visibility:visible;display:inline;overflow:visible;enable-background:accumulate" />
  <path
     d="M 1.4375,10.5 C 1.3034421,10.512498 1.1838335,10.558446 1.0625,10.625 C 0.84349712,10.735889 0.68284917,10.92525 0.59375,11.15625 C 0.56092573,11.227964 0.54609076,11.298894 0.53125,11.375 C 0.52525116,11.419471 0.5,11.453833 0.5,11.5 C 0.5,11.510863 0.4996596,11.520473 0.5,11.53125 C 0.49173381,11.796431 0.57735012,12.046726 0.78125,12.25 L 3.5,14.96875 L 3.5,18.5 C 3.5,19.054 3.9459999,19.5 4.5,19.5 C 5.0539999,19.5 5.5,19.054 5.5,18.5 L 5.5,14.96875 L 8.25,12.25 C 8.5646816,11.936284 8.5969101,11.499285 8.40625,11.125 C 8.3702468,11.039596 8.338332,10.946242 8.28125,10.875 C 8.2714251,10.864333 8.2603741,10.854092 8.25,10.84375 L 8.21875,10.78125 C 8.212418,10.774918 8.1940002,10.78741 8.1875,10.78125 C 8.133324,10.72724 8.062051,10.695328 8,10.65625 C 7.9605988,10.632739 7.9177022,10.611752 7.875,10.59375 C 7.7725805,10.547159 7.6724212,10.510248 7.5625,10.5 C 7.5418366,10.498074 7.5207271,10.500642 7.5,10.5 L 7.46875,10.5 L 1.5,10.5 C 1.4782745,10.5 1.4588729,10.498649 1.4375,10.5 z"
     id="rect3193"
     style="opacity:0.6;fill:#eae3d0;fill-opacity:1;fill-rule:nonzero;stroke:#eae3d0;stroke-width:0.99999994;stroke-linecap:round;stroke-linejoin:miter;marker:none;marker-start:none;marker-mid:none;marker-end:none;stroke-miterlimit:4;stroke-dasharray:none;stroke-dashoffset:0;stroke-opacity:1;visibility:visible;display:inline;overflow:visible;enable-background:accumulate" />
  <g
     id="g3249"
     style="opacity:0.4">
    <rect
       width="3"
       height="17"
       rx="2"
       ry="2"
       x="18.5"
       y="2.5"
       id="rect2411"
       style="opacity:0.6;fill:none;fill-opacity:1;fill-rule:nonzero;stroke:#eae3d0;stroke-width:1;stroke-linecap:round;stroke-linejoin:miter;marker:none;marker-start:none;marker-mid:none;marker-end:none;stroke-miterlimit:4;stroke-dasharray:none;stroke-dashoffset:0;stroke-opacity:1;visibility:visible;display:inline;overflow:visible;enable-background:accumulate" />
    <rect
       width="3"
       height="12"
       rx="2"
       ry="2"
       x="14.5"
       y="7.5"
       id="rect3183"
       style="opacity:0.6;fill:none;fill-opacity:1;fill-rule:nonzero;stroke:#eae3d0;stroke-width:0.99999994;stroke-linecap:round;stroke-linejoin:miter;marker:none;marker-start:none;marker-mid:none;marker-end:none;stroke-miterlimit:4;stroke-dasharray:none;stroke-dashoffset:0;stroke-opacity:1;visibility:visible;display:inline;overflow:visible;enable-background:accumulate" />
    <rect
       width="2"
       height="16"
       rx="0.99999994"
       ry="1"
       x="19"
       y="3"
       id="rect3165"
       style="fill:#3a3935;fill-opacity:1;fill-rule:nonzero;stroke:none;stroke-width:1;stroke-linecap:round;stroke-linejoin:miter;marker:none;marker-start:none;marker-mid:none;marker-end:none;stroke-miterlimit:4;stroke-dasharray:none;stroke-dashoffset:0;stroke-opacity:1;visibility:visible;display:inline;overflow:visible;enable-background:accumulate" />
    <rect
       width="2"
       height="11"
       rx="0.99999994"
       ry="1"
       x="15"
       y="8"
       id="rect3177"
       style="fill:#3a3935;fill-opacity:1;fill-rule:nonzero;stroke:none;stroke-width:1;stroke-linecap:round;stroke-linejoin:miter;marker:none;marker-start:none;marker-mid:none;marker-end:none;stroke-miterlimit:4;stroke-dasharray:none;stroke-dashoffset:0;stroke-opacity:1;visibility:visible;display:inline;overflow:visible;enable-background:accumulate" />
  </g>
  <g
     id="g3289"
     style="opacity:0.4">
    <rect
       width="3"
       height="8"
       rx="2"
       ry="2"
       x="10.5"
       y="11.5"
       id="rect3185"
       style="opacity:0.6;fill:none;fill-opacity:1;fill-rule:nonzero;stroke:#eae3d0;stroke-width:1;stroke-linecap:round;stroke-linejoin:miter;marker:none;marker-start:none;marker-mid:none;marker-end:none;stroke-miterlimit:4;stroke-dasharray:none;stroke-dashoffset:0;stroke-opacity:1;visibility:visible;display:inline;overflow:visible;enable-background:accumulate" />
    <rect
       width="2"
       height="7"
       rx="0.99999994"
       ry="1"
       x="11"
       y="12"
       id="rect3179"
       style="fill:#3a3935;fill-opacity:1;fill-rule:nonzero;stroke:none;stroke-width:1;stroke-linecap:round;stroke-linejoin:miter;marker:none;marker-start:none;marker-mid:none;marker-end:none;stroke-miterlimit:4;stroke-dasharray:none;stroke-dashoffset:0;stroke-opacity:1;visibility:visible;display:inline;overflow:visible;enable-background:accumulate" />
  </g>
  <rect
     width="2"
     height="3"
     rx="0.99999994"
     ry="1"
     x="7"
     y="16"
     id="rect3181"
     style="fill:#3a3935;fill-opacity:1;fill-rule:nonzero;stroke:none;stroke-width:1;stroke-linecap:round;stroke-linejoin:miter;marker:none;marker-start:none;marker-mid:none;marker-end:none;stroke-miterlimit:4;stroke-dasharray:none;stroke-dashoffset:0;stroke-opacity:1;visibility:visible;display:inline;overflow:visible;enable-background:accumulate" />
  <path
     d="M 1.5,11 C 1.43075,11 1.3723594,11.006016 1.3125,11.03125 C 1.2553851,11.057471 1.1995429,11.113064 1.15625,11.15625 L 1.125,11.1875 C 1.0927971,11.225635 1.0509451,11.26578 1.03125,11.3125 C 0.93517537,11.495377 0.96743759,11.717827 1.125,11.875 L 4,14.75 L 4,18.5 C 4,18.777 4.223,19 4.5,19 C 4.777,19 5,18.777 5,18.5 L 5,14.75 L 7.875,11.875 C 8.0325625,11.717827 8.0648247,11.495377 7.96875,11.3125 C 7.9490549,11.26578 7.9072029,11.225635 7.875,11.1875 L 7.84375,11.15625 C 7.7527218,11.065447 7.6214455,11.006356 7.5,11 L 7.46875,11 L 4.5,11 L 1.53125,11 L 1.5,11 z M 2.71875,12 L 4,12 L 4,13.25 L 2.71875,12 z M 5,12 L 6.28125,12 L 5,13.28125 L 5,12 z"
     id="rect3184"
     style="fill:#3a3935;fill-opacity:1;fill-rule:nonzero;stroke:none;stroke-width:1;stroke-linecap:round;stroke-linejoin:miter;marker:none;marker-start:none;marker-mid:none;marker-end:none;stroke-miterlimit:4;stroke-dasharray:none;stroke-dashoffset:0;stroke-opacity:1;visibility:visible;display:inline;overflow:visible;enable-background:accumulate" />
</svg>
