<?xml version="1.0" encoding="utf-8"?>
<!-- Generator: Adobe Illustrator 15.0.0, SVG Export Plug-In . SVG Version: 6.00 Build 0)  -->
<!DOCTYPE svg PUBLIC "-//W3C//DTD SVG 1.1//EN" "http://www.w3.org/Graphics/SVG/1.1/DTD/svg11.dtd">
<svg version="1.1" id="Layer_1" xmlns="http://www.w3.org/2000/svg" xmlns:xlink="http://www.w3.org/1999/xlink" x="0px" y="0px"
	 width="26px" height="22px" viewBox="0 0 26 22" enable-background="new 0 0 26 22" xml:space="preserve">
<path id="path3_5_" opacity="0.3" fill="#FFFFFF" enable-background="new    " d="M20.59,6L5.305,6.021C4.695,6.021,4,6.782,4,7.333
	v9.298c0,0.732,0.789,1.366,1.453,1.366h15.049c0.797,0,1.498-0.681,1.498-1.376V7.462C22,6.689,21.311,6,20.59,6z M16.75,12
	l3.094,3.156l-0.688,0.688L16,12.688l-1.543,1.531h-2.913L10,12.688l-3.156,3.188l-0.688-0.719L9.281,12L5.156,7.844l0.688-0.688
	l0,0L12.029,11h1.953l6.177-3.844l0.688,0.688L16.75,12z"/>
<path id="path5_5_" fill="#3E3E34" d="M20.59,5L5.305,5.021C4.695,5.021,4,5.782,4,6.333v9.298c0,0.732,0.789,1.366,1.453,1.366
	h15.049c0.797,0,1.498-0.681,1.498-1.376V6.462C22,5.689,21.311,5,20.59,5z M16.75,11l3.094,3.156l-0.688,0.688L16,11.688
	l-1.543,1.531h-2.913L10,11.688l-3.156,3.188l-0.688-0.719L9.281,11L5.156,6.844l0.688-0.688l0,0L12.029,10h1.953l6.177-3.844
	l0.688,0.688L16.75,11z"/>
<path id="path8_4_" opacity="0.3" fill="#FFFFFF" enable-background="new    " d="M25,20c-0.21-0.479-0.469-1.016-0.773-1.602
	c-0.306-0.59-0.642-1.195-1.004-1.816c-0.363-0.622-0.736-1.236-1.117-1.85c-0.383-0.609-0.756-1.188-1.119-1.732
	c-0.357,0.546-0.731,1.129-1.112,1.75c-0.388,0.621-0.751,1.243-1.104,1.863c-0.354,0.621-0.687,1.229-0.99,1.816
	c-0.311,0.588-0.565,1.109-0.775,1.567L25,20L25,20z"/>
<linearGradient id="path10_1_" gradientUnits="userSpaceOnUse" x1="-1759.9985" y1="1854.9932" x2="-1760.0406" y2="1847.8097" gradientTransform="matrix(-1 0 0 1 -1739 -1836)">
	<stop  offset="0" style="stop-color:#D6942A"/>
	<stop  offset="1" style="stop-color:#F9D507"/>
</linearGradient>
<path id="path10_4_" fill="url(#path10_1_)" d="M17,19c0.21-0.479,0.469-1.016,0.773-1.602c0.306-0.59,0.642-1.195,1.004-1.816
	c0.363-0.622,0.736-1.236,1.117-1.85c0.383-0.609,0.756-1.188,1.119-1.732c0.357,0.546,0.731,1.129,1.112,1.75
	c0.388,0.621,0.751,1.243,1.104,1.863c0.354,0.621,0.687,1.229,0.99,1.816c0.311,0.588,0.565,1.109,0.775,1.567L17,19L17,19z"/>
<radialGradient id="path3767_1_" cx="2016.334" cy="-1753.792" r="3.5927" gradientTransform="matrix(1.1134 0 0 -1.1134 -2223.9951 -1939.5869)" gradientUnits="userSpaceOnUse">
	<stop  offset="0" style="stop-color:#FFFFFF"/>
	<stop  offset="0.6042" style="stop-color:#FFFFFF;stop-opacity:0.498"/>
	<stop  offset="1" style="stop-color:#FFFFFF;stop-opacity:0"/>
</radialGradient>
<path id="path3767" fill="url(#path3767_1_)" d="M21,12c-0.363,0.545-0.711,1.109-1.094,1.719c-0.383,0.613-0.762,1.254-1.125,1.875
	c-0.117,0.201-0.201,0.396-0.312,0.594c0.689,0.562,1.572,0.906,2.531,0.906s1.842-0.344,2.531-0.906
	c-0.104-0.188-0.174-0.373-0.281-0.562c-0.354-0.621-0.742-1.254-1.125-1.875C21.744,13.129,21.361,12.546,21,12z"/>
</svg>
