<?xml version="1.0" encoding="UTF-8" standalone="no"?>
<!-- Generator: Adobe Illustrator 15.0.0, SVG Export Plug-In . SVG Version: 6.00 Build 0)  -->

<svg
   xmlns:dc="http://purl.org/dc/elements/1.1/"
   xmlns:cc="http://creativecommons.org/ns#"
   xmlns:rdf="http://www.w3.org/1999/02/22-rdf-syntax-ns#"
   xmlns:svg="http://www.w3.org/2000/svg"
   xmlns="http://www.w3.org/2000/svg"
   xmlns:sodipodi="http://sodipodi.sourceforge.net/DTD/sodipodi-0.dtd"
   xmlns:inkscape="http://www.inkscape.org/namespaces/inkscape"
   version="1.1"
   id="Layer_1"
   x="0px"
   y="0px"
   width="22"
   height="22"
   viewBox="0 0 22 22"
   enable-background="new 0 0 26 22"
   xml:space="preserve"
   inkscape:version="0.48.3.1 r9886"
   sodipodi:docname="indicator-messages-away-new.svg"><metadata
   id="metadata3100"><rdf:RDF><cc:Work
       rdf:about=""><dc:format>image/svg+xml</dc:format><dc:type
         rdf:resource="http://purl.org/dc/dcmitype/StillImage" /></cc:Work></rdf:RDF></metadata><defs
   id="defs3098" /><sodipodi:namedview
   pagecolor="#ffffff"
   bordercolor="#666666"
   borderopacity="1"
   objecttolerance="10"
   gridtolerance="10"
   guidetolerance="10"
   inkscape:pageopacity="0"
   inkscape:pageshadow="2"
   inkscape:window-width="640"
   inkscape:window-height="480"
   id="namedview3096"
   showgrid="false"
   inkscape:zoom="10.727273"
   inkscape:cx="13"
   inkscape:cy="11"
   inkscape:window-x="65"
   inkscape:window-y="24"
   inkscape:window-maximized="0"
   inkscape:current-layer="Layer_1" />
<path
   id="path5_19_"
   enable-background="new    "
   d="M 17.59,5.924 2.305,5.945 C 1.695,5.945 1,6.706 1,7.259 v 9.298 c 0,0.732 0.789,1.366 1.453,1.366 H 17.502 C 18.299,17.923 19,17.245 19,16.547 V 7.389 C 19,6.613 18.311,5.924 17.59,5.924 z m -3.84,6 3.094,3.156 -0.688,0.688 L 13,12.611 10.721,14.923 H 9.283 L 7,12.611 3.844,15.799 3.156,15.08 6.281,11.923 2.156,7.768 2.844,7.08 l 0,0 6.844,6.844 h 0.598 l 6.875,-6.844 0.688,0.688 -4.099,4.156 z"
   inkscape:connector-curvature="0"
   style="opacity:0.3;fill:#ffffff" />
<path
   id="path5_18_"
   d="M 17.59,4.924 2.305,4.945 C 1.695,4.945 1,5.706 1,6.259 v 9.298 c 0,0.732 0.789,1.366 1.453,1.366 H 17.502 C 18.299,16.923 19,16.245 19,15.547 V 6.389 C 19,5.613 18.311,4.924 17.59,4.924 z m -3.84,6 3.094,3.156 -0.688,0.688 L 13,11.611 10.721,13.923 H 9.283 L 7,11.611 3.844,14.799 3.156,14.08 6.281,10.923 2.156,6.768 2.844,6.08 l 0,0 6.844,6.844 h 0.598 l 6.875,-6.844 0.688,0.688 -4.099,4.156 z"
   inkscape:connector-curvature="0"
   style="fill:#2eb5e9;fill-opacity:0.95290001" />
<path
   id="path8_9_"
   enable-background="new    "
   d="m 22,19.924 c -0.21,-0.479 -0.469,-1.016 -0.773,-1.602 -0.306,-0.59 -0.642,-1.195 -1.004,-1.816 -0.363,-0.622 -0.736,-1.236 -1.117,-1.85 -0.383,-0.609 -0.756,-1.188 -1.119,-1.732 -0.355,0.547 -0.729,1.129 -1.11,1.75 -0.39,0.621 -0.751,1.243 -1.104,1.864 -0.354,0.62 -0.688,1.228 -0.989,1.815 -0.312,0.588 -0.568,1.109 -0.778,1.567 l 7.994,0.004 0,0 z"
   inkscape:connector-curvature="0"
   style="opacity:0.3;fill:#ffffff" />
<linearGradient
   id="path10_1_"
   gradientUnits="userSpaceOnUse"
   x1="-2328.9971"
   y1="2673.9141"
   x2="-2329.0388"
   y2="2666.7295"
   gradientTransform="matrix(-1,0,0,1,-2311,-2655)">
	<stop
   offset="0"
   style="stop-color:#D6942A"
   id="stop3083" />
	<stop
   offset="1"
   style="stop-color:#F9D507"
   id="stop3085" />
</linearGradient>
<path
   id="path10_11_"
   d="m 14,18.924 c 0.21,-0.479 0.469,-1.016 0.773,-1.602 0.306,-0.59 0.642,-1.195 1.004,-1.816 0.363,-0.622 0.736,-1.236 1.117,-1.85 0.383,-0.609 0.756,-1.188 1.119,-1.732 0.355,0.547 0.729,1.129 1.11,1.75 0.39,0.621 0.751,1.243 1.104,1.864 0.354,0.62 0.688,1.228 0.989,1.815 0.312,0.588 0.568,1.109 0.778,1.567 L 14,18.924 l 0,0 z"
   style="fill:url(#path10_1_)"
   inkscape:connector-curvature="0" />
<radialGradient
   id="path3767_1_"
   cx="2519.7891"
   cy="-2489.311"
   r="3.5922"
   gradientTransform="matrix(1.1134,0,0,-1.1134,-2787.542,-2758.5869)"
   gradientUnits="userSpaceOnUse">
	<stop
   offset="0"
   style="stop-color:#FFFFFF"
   id="stop3089" />
	<stop
   offset="0.6042"
   style="stop-color:#FFFFFF;stop-opacity:0.498"
   id="stop3091" />
	<stop
   offset="1"
   style="stop-color:#FFFFFF;stop-opacity:0"
   id="stop3093" />
</radialGradient>
<path
   id="path3767_3_"
   d="m 18,11.924 c -0.363,0.545 -0.711,1.109 -1.094,1.719 -0.383,0.613 -0.762,1.254 -1.125,1.875 -0.117,0.201 -0.201,0.396 -0.312,0.594 0.689,0.562 1.572,0.906 2.531,0.906 0.959,0 1.842,-0.344 2.531,-0.906 C 20.427,15.924 20.357,15.739 20.25,15.55 19.896,14.93 19.508,14.296 19.125,13.675 18.744,13.053 18.361,12.471 18,11.924 z"
   style="fill:url(#path3767_1_)"
   inkscape:connector-curvature="0" />
</svg>