<?xml version="1.0" encoding="UTF-8" standalone="no"?>
<!-- Generator: Adobe Illustrator 15.0.0, SVG Export Plug-In . SVG Version: 6.00 Build 0)  -->

<svg
   xmlns:dc="http://purl.org/dc/elements/1.1/"
   xmlns:cc="http://creativecommons.org/ns#"
   xmlns:rdf="http://www.w3.org/1999/02/22-rdf-syntax-ns#"
   xmlns:svg="http://www.w3.org/2000/svg"
   xmlns="http://www.w3.org/2000/svg"
   xmlns:sodipodi="http://sodipodi.sourceforge.net/DTD/sodipodi-0.dtd"
   xmlns:inkscape="http://www.inkscape.org/namespaces/inkscape"
   version="1.1"
   id="Layer_1"
   x="0px"
   y="0px"
   width="22"
   height="22"
   viewBox="0 0 22 22"
   enable-background="new 0 0 26 22"
   xml:space="preserve"
   inkscape:version="0.48.3.1 r9886"
   sodipodi:docname="indicator-messages-offline-new.svg"><metadata
   id="metadata3071"><rdf:RDF><cc:Work
       rdf:about=""><dc:format>image/svg+xml</dc:format><dc:type
         rdf:resource="http://purl.org/dc/dcmitype/StillImage" /></cc:Work></rdf:RDF></metadata><defs
   id="defs3069" /><sodipodi:namedview
   pagecolor="#ffffff"
   bordercolor="#666666"
   borderopacity="1"
   objecttolerance="10"
   gridtolerance="10"
   guidetolerance="10"
   inkscape:pageopacity="0"
   inkscape:pageshadow="2"
   inkscape:window-width="913"
   inkscape:window-height="668"
   id="namedview3067"
   showgrid="false"
   inkscape:zoom="10.727273"
   inkscape:cx="7.9770648"
   inkscape:cy="10.661105"
   inkscape:window-x="220"
   inkscape:window-y="24"
   inkscape:window-maximized="0"
   inkscape:current-layer="Layer_1" />
<path
   id="path5_25_"
   enable-background="new    "
   d="M 17.59,5.924 2.305,5.945 C 1.695,5.945 1,6.706 1,7.259 v 9.298 c 0,0.732 0.789,1.366 1.453,1.366 H 17.502 C 18.299,17.923 19,17.245 19,16.547 V 7.389 C 19,6.613 18.311,5.924 17.59,5.924 z m -3.84,6 3.094,3.156 -0.688,0.688 L 13,12.611 10.721,14.923 H 9.283 L 7,12.611 3.844,15.799 3.156,15.08 6.281,11.923 2.156,7.768 2.844,7.08 l 0,0 6.844,6.844 h 0.599 l 6.875,-6.844 0.688,0.688 -4.1,4.156 z"
   inkscape:connector-curvature="0"
   style="opacity:0.3;fill:#ffffff" />
<path
   id="path5_24_"
   d="M 17.59,4.924 2.305,4.945 C 1.695,4.945 1,5.706 1,6.259 v 9.298 c 0,0.732 0.789,1.366 1.453,1.366 H 17.502 C 18.299,16.923 19,16.245 19,15.547 V 6.389 C 19,5.613 18.311,4.924 17.59,4.924 z m -3.84,6 3.094,3.156 -0.688,0.688 L 13,11.611 10.721,13.923 H 9.283 L 7,11.611 3.844,14.799 3.156,14.08 6.281,10.923 2.156,6.768 2.844,6.08 l 0,0 6.844,6.844 h 0.599 l 6.875,-6.844 0.688,0.688 -4.1,4.156 z"
   inkscape:connector-curvature="0"
   style="fill:#2eb5e9;fill-opacity:0.95290001" />
<path
   id="path2997_3_"
   enable-background="new    "
   d="M 21.566,19.08 19.9,17.42 21.556,15.758 C 21.23,15.162 20.741,14.676 20.142,14.356 l -1.652,1.658 -1.652,-1.647 c -0.591,0.321 -1.072,0.81 -1.396,1.396 l 1.666,1.646 -1.674,1.682 c 0.322,0.598 0.812,1.086 1.406,1.41 l 1.686,-1.691 1.688,1.662 c 0.572,-0.333 1.04,-0.81 1.352,-1.392 z"
   inkscape:connector-curvature="0"
   style="opacity:0.3;fill:#ffffff" />
<linearGradient
   id="path2999_1_"
   gradientUnits="userSpaceOnUse"
   x1="-2489.4912"
   y1="2497.5049"
   x2="-2483.3564"
   y2="2497.5049"
   gradientTransform="matrix(0,-1,1,0,-2479.001,-2469.999)">
	<stop
   offset="0"
   style="stop-color:#413f3b;stop-opacity:1;"
   id="stop3054" />
	
	<stop
   offset="1"
   style="stop-color:#58564d;stop-opacity:1;"
   id="stop3058" />
</linearGradient>
<path
   id="path2999_3_"
   d="m 20.154,13.357 -1.659,1.666 -1.662,-1.656 c -0.597,0.328 -1.082,0.816 -1.401,1.416 l 1.657,1.65 -1.647,1.652 c 0.322,0.591 0.81,1.073 1.396,1.396 l 1.646,-1.666 1.683,1.676 c 0.599,-0.317 1.086,-0.812 1.409,-1.401 l -1.69,-1.688 1.662,-1.688 c -0.334,-0.575 -0.812,-1.043 -1.394,-1.357 z"
   inkscape:connector-curvature="0"
   style="fill:url(#path2999_1_)" />
<radialGradient
   id="path3783_1_"
   cx="3172.4238"
   cy="-3195.5771"
   r="4.618"
   gradientTransform="matrix(0.8669,0,0,-0.8669,-2731.6733,-2756.8184)"
   gradientUnits="userSpaceOnUse">
	<stop
   offset="0"
   style="stop-color:#FFFFFF"
   id="stop3062" />
	<stop
   offset="1"
   style="stop-color:#FFFFFF;stop-opacity:0"
   id="stop3064" />
</radialGradient>
<path
   id="path3783_3_"
   d="m 16.844,13.361 c -0.596,0.328 -1.086,0.812 -1.406,1.406 l 1.656,1.655 -0.5,0.5 c 0.566,0.31 1.217,0.5 1.906,0.5 0.689,0 1.34,-0.19 1.906,-0.5 l -0.531,-0.53 1.656,-1.688 C 21.205,14.131 20.738,13.673 20.156,13.359 L 18.5,15.014 16.844,13.361 z"
   inkscape:connector-curvature="0"
   style="fill:url(#path3783_1_)" />
</svg>