<?xml version="1.0" encoding="UTF-8" standalone="no"?>
<!-- Created with Inkscape (http://www.inkscape.org/) -->

<svg
   xmlns:dc="http://purl.org/dc/elements/1.1/"
   xmlns:cc="http://creativecommons.org/ns#"
   xmlns:rdf="http://www.w3.org/1999/02/22-rdf-syntax-ns#"
   xmlns:svg="http://www.w3.org/2000/svg"
   xmlns="http://www.w3.org/2000/svg"
   xmlns:sodipodi="http://sodipodi.sourceforge.net/DTD/sodipodi-0.dtd"
   xmlns:inkscape="http://www.inkscape.org/namespaces/inkscape"
   version="1.0"
   width="22"
   height="22"
   id="svg3229"
   inkscape:version="0.47 r22583"
   sodipodi:docname="indicator-messages_alt.svg">
  <metadata
     id="metadata9">
    <rdf:RDF>
      <cc:Work
         rdf:about="">
        <dc:format>image/svg+xml</dc:format>
        <dc:type
           rdf:resource="http://purl.org/dc/dcmitype/StillImage" />
        <dc:title></dc:title>
      </cc:Work>
    </rdf:RDF>
  </metadata>
  <sodipodi:namedview
     pagecolor="#ffffff"
     bordercolor="#666666"
     borderopacity="1"
     objecttolerance="10"
     gridtolerance="10"
     guidetolerance="10"
     inkscape:pageopacity="0"
     inkscape:pageshadow="2"
     inkscape:window-width="640"
     inkscape:window-height="480"
     id="namedview7"
     showgrid="false"
     inkscape:zoom="16.045455"
     inkscape:cx="11"
     inkscape:cy="11"
     inkscape:window-x="0"
     inkscape:window-y="24"
     inkscape:window-maximized="0"
     inkscape:current-layer="svg3229" />
  <defs
     id="defs3231">
    <inkscape:perspective
       sodipodi:type="inkscape:persp3d"
       inkscape:vp_x="0 : 11 : 1"
       inkscape:vp_y="0 : 1000 : 0"
       inkscape:vp_z="22 : 11 : 1"
       inkscape:persp3d-origin="11 : 7.3333333 : 1"
       id="perspective11" />
  </defs>
  <path
     d="M 2.604398,6.3075068 C 2.2613654,6.5794564 1.99962,6.9968721 1.99962,7.336701 l 0,9.298661 c 0,0.730978 0.788896,1.365018 1.4535077,1.365018 l 15.0487403,0 c 0.797345,0 1.497752,-0.677837 1.497752,-1.37608 l 0,-9.1593514 c 0,-0.460058 -0.24255,-0.8896736 -0.590185,-1.1630704 L 12.007288,2.6356077 c 0,0 -0.668825,-0.3936335 -1.007668,-0.3852279 -0.338843,0.00841 -1,0.4350757 -1,0.4350757 0,0 -7.395222,3.6220513 -7.395222,3.6220513 z"
     id="path2387"
     style="fill:#3a3935;fill-opacity:1;fill-rule:nonzero;stroke:none;stroke-width:1;marker:none;visibility:visible;display:inline;overflow:visible;enable-background:accumulate"
     sodipodi:nodetypes="cccccccccscc" />
  <path
     d="m 3.84337,15.87538 -0.6875,-0.6875 4.125,-4.15625 -3.125,-3.1562502 0.6875,-0.71875 3.15625,3.1875002 2.28125,-2.3125002 1.4375,0 2.28125,2.3125002 3.15625,-3.1562502 0.6875,0.6875 -3.09375,3.1562502 4.09375,4.15625 -0.6875,0.6875 -6.875,-6.8437502 -0.59375,0 -6.84375,6.8437502 z"
     id="rect3170"
     style="fill:#eae3d1;fill-opacity:1;fill-rule:nonzero;stroke:none;stroke-width:1;marker:none;visibility:visible;display:inline;overflow:visible;enable-background:accumulate" />
  <path
     d="m 9.9996199,2.093011 c 0,0 0.6467861,-0.3410061 1.0000001,-0.3555787 0.353214,-0.014573 1,0.3144806 1,0.3144806 0,0 7.755759,3.8661492 7.755759,3.8661492 0.5324,0.4375712 0.832702,1.1630403 0.744241,1.8752749 -0.0068,2.970593 0.01366,5.942042 -0.01029,8.912097 -0.08097,1.116571 -1.197192,1.929764 -2.282669,1.794946 C 13.236069,18.49358 8.2646177,18.51408 3.2945643,18.49009 2.1779952,18.409118 1.3648023,17.2929 1.49962,16.207423 1.50644,13.23683 1.48596,10.265381 1.509908,7.2953261 1.576977,6.4907454 1.9157574,5.8045226 2.568945,5.5786909 c 0,0 7.4306749,-3.4856799 7.4306749,-3.4856799 z"
     id="rect3179"
     style="opacity:0.6;fill:none;stroke:#eae3d0;stroke-width:1;stroke-linecap:round;stroke-linejoin:miter;stroke-miterlimit:4;stroke-opacity:1;stroke-dasharray:none;stroke-dashoffset:0;marker:none;visibility:visible;display:inline;overflow:visible;enable-background:accumulate"
     sodipodi:nodetypes="cscccccccccc" />
</svg>
