<?xml version="1.0" encoding="UTF-8" standalone="no"?>
<!-- Created with Inkscape (http://www.inkscape.org/) -->
<svg
   xmlns:dc="http://purl.org/dc/elements/1.1/"
   xmlns:cc="http://creativecommons.org/ns#"
   xmlns:rdf="http://www.w3.org/1999/02/22-rdf-syntax-ns#"
   xmlns:svg="http://www.w3.org/2000/svg"
   xmlns="http://www.w3.org/2000/svg"
   xmlns:sodipodi="http://sodipodi.sourceforge.net/DTD/sodipodi-0.dtd"
   xmlns:inkscape="http://www.inkscape.org/namespaces/inkscape"
   version="1.0"
   width="22"
   height="22"
   id="svg3229"
   sodipodi:version="0.32"
   inkscape:version="0.46"
   sodipodi:docname="indicator-messages-new.svg"
   inkscape:output_extension="org.inkscape.output.svg.inkscape">
  <metadata
     id="metadata9">
    <rdf:RDF>
      <cc:Work
         rdf:about="">
        <dc:format>image/svg+xml</dc:format>
        <dc:type
           rdf:resource="http://purl.org/dc/dcmitype/StillImage" />
      </cc:Work>
    </rdf:RDF>
  </metadata>
  <sodipodi:namedview
     inkscape:window-height="781"
     inkscape:window-width="1440"
     inkscape:pageshadow="2"
     inkscape:pageopacity="0.0"
     guidetolerance="10.0"
     gridtolerance="10.0"
     objecttolerance="10.0"
     borderopacity="1.0"
     bordercolor="#666666"
     pagecolor="#ffffff"
     id="base"
     showgrid="false"
     showborder="true"
     inkscape:zoom="1"
     inkscape:cx="11"
     inkscape:cy="11"
     inkscape:window-x="0"
     inkscape:window-y="24"
     inkscape:current-layer="svg3229" />
  <defs
     id="defs3231" />
  <path
     style="opacity:1;fill:#3a3935;fill-opacity:1;fill-rule:nonzero;stroke:none;stroke-width:1;stroke-linecap:butt;stroke-linejoin:miter;marker:none;marker-start:none;marker-mid:none;marker-end:none;stroke-miterlimit:4;stroke-dasharray:none;stroke-dashoffset:0;stroke-opacity:1;visibility:visible;display:inline;overflow:visible;enable-background:accumulate"
     d="M 14.15625 5 L 3.3125 5.03125 C 2.7030937 5.0312499 2 5.78975 2 6.34375 L 2 15.625 C 2 16.355978 2.8041383 17 3.46875 17 L 18.5 17 C 19.297344 17 20 16.323243 20 15.625 L 20 9.4375 C 19.410914 9.7791419 18.729554 10 18 10 C 17.349554 10 16.730568 9.8383461 16.1875 9.5625 L 14.75 11 L 17.84375 14.15625 L 17.15625 14.84375 L 14 11.6875 L 11.71875 14 L 10.28125 14 L 8 11.6875 L 4.84375 14.875 L 4.15625 14.15625 L 7.28125 11 L 3.15625 6.84375 L 3.84375 6.15625 L 10.6875 13 L 11.28125 13 L 15.34375 8.96875 C 14.524277 8.2361016 14 7.1848966 14 6 C 14 5.6542272 14.073642 5.3200848 14.15625 5 z "
     id="path2387" />
  <path
     style="opacity:0.6;fill:#eae3d1;fill-opacity:1;fill-rule:nonzero;stroke:none;stroke-width:1;stroke-linecap:butt;stroke-linejoin:miter;marker:none;marker-start:none;marker-mid:none;marker-end:none;stroke-miterlimit:4;stroke-dasharray:none;stroke-dashoffset:0;stroke-opacity:1;visibility:visible;display:inline;overflow:visible;enable-background:accumulate"
     id="rect3170"
     d="M 3.84375,6.15625 L 3.15625,6.84375 L 7.28125,11 L 4.15625,14.15625 L 4.84375,14.875 L 8,11.6875 L 10.28125,14 L 11.71875,14 L 14,11.6875 L 17.15625,14.84375 L 17.84375,14.15625 L 14.75,11 L 18.84375,6.84375 L 18.15625,6.15625 L 11.28125,13 L 10.6875,13 L 3.84375,6.15625 z" />
  <path
     id="rect3179"
     style="opacity:0.6;fill:none;fill-opacity:1;fill-rule:nonzero;stroke:#eae3d0;stroke-width:1;stroke-linecap:round;stroke-linejoin:miter;stroke-miterlimit:4;stroke-dashoffset:0;stroke-opacity:1;marker:none;marker-start:none;marker-mid:none;marker-end:none;visibility:visible;display:inline;overflow:visible;enable-background:accumulate"
     d="M 3.5,4.5 L 18.5,4.5 C 19.608,4.5 20.5,5.392 20.5,6.5 L 20.5,15.5 C 20.5,16.608 19.608,17.5 18.5,17.5 L 3.5,17.5 C 2.392,17.5 1.5,16.608 1.5,15.5 L 1.5,6.5 C 1.5,5.392 2.392,4.5 3.5,4.5 zM 21.5,5.9999999 C 21.5,7.932 19.932,9.5000001 18,9.5000001 C 16.068001,9.5000001 14.500001,7.932 14.500001,5.9999999 C 14.500001,4.0679999 16.068001,2.4999998 18,2.4999998 C 19.932,2.4999998 21.5,4.0679999 21.5,5.9999999 z" />
  <path
     sodipodi:type="arc"
     style="opacity:1;fill:#58c10c;fill-opacity:1;fill-rule:evenodd;stroke:none;stroke-width:0.53752178;stroke-linecap:round;stroke-linejoin:round;marker:none;marker-start:none;marker-mid:none;marker-end:none;stroke-miterlimit:4;stroke-dasharray:none;stroke-dashoffset:0;stroke-opacity:1;visibility:visible;display:inline;overflow:visible;enable-background:accumulate"
     id="path3156"
     sodipodi:cx="19.581152"
     sodipodi:cy="5.1832461"
     sodipodi:rx="1.8813263"
     sodipodi:ry="1.8813263"
     d="M 21.462478,5.1832461 A 1.8813263,1.8813263 0 1 1 17.699826,5.1832461 A 1.8813263,1.8813263 0 1 1 21.462478,5.1832461 z"
     transform="matrix(1.5946197,0,0,1.5946197,-13.224491,-2.2653064)" />
</svg>
