<?xml version="1.0" encoding="UTF-8" standalone="no"?>
<!-- Created with Inkscape (http://www.inkscape.org/) -->

<svg
   xmlns:dc="http://purl.org/dc/elements/1.1/"
   xmlns:cc="http://creativecommons.org/ns#"
   xmlns:rdf="http://www.w3.org/1999/02/22-rdf-syntax-ns#"
   xmlns:svg="http://www.w3.org/2000/svg"
   xmlns="http://www.w3.org/2000/svg"
   xmlns:sodipodi="http://sodipodi.sourceforge.net/DTD/sodipodi-0.dtd"
   xmlns:inkscape="http://www.inkscape.org/namespaces/inkscape"
   width="22"
   height="22"
   id="svg4315"
   version="1.1"
   inkscape:version="0.48.3.1 r9886"
   sodipodi:docname="indicator-messages-offline.svg">
  <defs
     id="defs4317" />
  <sodipodi:namedview
     id="base"
     pagecolor="#ffffff"
     bordercolor="#666666"
     borderopacity="1.0"
     inkscape:pageopacity="0.0"
     inkscape:pageshadow="2"
     inkscape:zoom="15.543122"
     inkscape:cx="-3.3937848"
     inkscape:cy="9.2484635"
     inkscape:document-units="px"
     inkscape:current-layer="layer1"
     showgrid="false"
     inkscape:window-width="1920"
     inkscape:window-height="1030"
     inkscape:window-x="0"
     inkscape:window-y="22"
     inkscape:window-maximized="1" />
  <metadata
     id="metadata4320">
    <rdf:RDF>
      <cc:Work
         rdf:about="">
        <dc:format>image/svg+xml</dc:format>
        <dc:type
           rdf:resource="http://purl.org/dc/dcmitype/StillImage" />
        <dc:title />
      </cc:Work>
    </rdf:RDF>
  </metadata>
  <g
     inkscape:label="Layer 1"
     inkscape:groupmode="layer"
     id="layer1"
     transform="translate(0,-1030.3622)">
    <path
       id="path5554"
       d="M 2.3125,1036.375 C 1.7031,1036.375 1,1037.1335 1,1037.6875 L 1,1047 c 0,0.731 0.80415,1.375 1.4687501,1.375 L 13,1048.375 A 1.0684611,1.0684611 0 0 1 13.25,1048 l 1.125,-1.125 -1.125,-1.125 a 1.0684611,1.0684611 0 0 1 -0.187499,-1.25 c 0.15482,-0.2912 0.35444,-0.5569 0.562499,-0.8125 l -0.625,-0.625 -2.28125,2.3125 -1.4375,0 L 7,1043.0625 l -3.1562499,3.1875 -0.6875,-0.7187 3.125,-3.1563 -4.1250002,-4.1562 0.6875002,-0.6875 6.8437499,6.8437 0.59375,0 6.875,-6.8437 0.6875,0.6875 -4.09375,4.1562 0.59375,0.5938 c 0.236709,-0.1938 0.479181,-0.3825 0.75,-0.5313 a 1.0684611,1.0684611 0 0 1 0.375,-0.125 1.0684611,1.0684611 0 0 1 0.875,0.3125 l 1.15625,1.1563 1.125,-1.1563 a 1.0684611,1.0684611 0 0 1 0.375,-0.25 l 0,-4.5625 c 0,-0.7756 -0.68625,-1.4375 -1.40625,-1.4375 l -15.28125,0 z"
       style="opacity:0.29999999999999999;fill:#ffffff;enable-background:new"
       inkscape:connector-curvature="0" />
    <path
       style="fill:#3c3c3c;fill-opacity:1;enable-background:new"
       d="M 2.3125,1035.375 C 1.7031,1035.375 1,1036.1335 1,1036.6875 L 1,1046 c 0,0.731 0.80415,1.375 1.4687501,1.375 L 13,1047.375 A 1.0684611,1.0684611 0 0 1 13.25,1047 l 1.125,-1.125 -1.125,-1.125 a 1.0684611,1.0684611 0 0 1 -0.187499,-1.25 c 0.15482,-0.2912 0.35444,-0.5569 0.562499,-0.8125 l -0.625,-0.625 -2.28125,2.3125 -1.4375,0 L 7,1042.0625 l -3.1562499,3.1875 -0.6875,-0.7187 3.125,-3.1563 -4.1250002,-4.1562 0.6875002,-0.6875 6.8437499,6.8437 0.59375,0 6.875,-6.8437 0.6875,0.6875 -4.09375,4.1562 0.59375,0.5938 c 0.236709,-0.1938 0.479181,-0.3825 0.75,-0.5313 a 1.0684611,1.0684611 0 0 1 0.375,-0.125 1.0684611,1.0684611 0 0 1 0.875,0.3125 l 1.15625,1.1563 1.125,-1.1563 a 1.0684611,1.0684611 0 0 1 0.375,-0.25 l 0,-4.5625 c 0,-0.7756 -0.68625,-1.4375 -1.40625,-1.4375 l -15.28125,0 z"
       id="path5556"
       inkscape:connector-curvature="0" />
    <path
       id="path5576"
       d="m 19.379879,1042.3736 -1.890129,1.8981 -1.89356,-1.8867 c -0.68017,0.3737 -1.23275,0.9297 -1.59619,1.6133 l 1.887859,1.8798 -1.876469,1.8822 c 0.366869,0.6733 0.92285,1.2225 1.590499,1.5905 l 1.875321,-1.8981 1.917479,1.9095 C 20.07715,1049.001 20.632,1048.4371 21,1047.766 l -1.925459,-1.9232 1.89356,-1.9232 c -0.380531,-0.6551 -0.925131,-1.1883 -1.588222,-1.546 z"
       style="opacity:0.40000000000000002;fill:#3c3c3c;fill-opacity:1;enable-background:new"
       inkscape:connector-curvature="0" />
  </g>
</svg>
