<?xml version="1.0" encoding="UTF-8" standalone="no"?>
<!-- Generator: Adobe Illustrator 15.0.0, SVG Export Plug-In . SVG Version: 6.00 Build 0)  -->

<svg
   xmlns:dc="http://purl.org/dc/elements/1.1/"
   xmlns:cc="http://creativecommons.org/ns#"
   xmlns:rdf="http://www.w3.org/1999/02/22-rdf-syntax-ns#"
   xmlns:svg="http://www.w3.org/2000/svg"
   xmlns="http://www.w3.org/2000/svg"
   xmlns:sodipodi="http://sodipodi.sourceforge.net/DTD/sodipodi-0.dtd"
   xmlns:inkscape="http://www.inkscape.org/namespaces/inkscape"
   version="1.1"
   id="Layer_1"
   x="0px"
   y="0px"
   width="22"
   height="22"
   viewBox="0 0 22 22"
   enable-background="new 0 0 26 22"
   xml:space="preserve"
   inkscape:version="0.48.3.1 r9886"
   sodipodi:docname="indicator-messages-mixed.svg"><metadata
   id="metadata3176"><rdf:RDF><cc:Work
       rdf:about=""><dc:format>image/svg+xml</dc:format><dc:type
         rdf:resource="http://purl.org/dc/dcmitype/StillImage" /><dc:title /></cc:Work></rdf:RDF></metadata><defs
   id="defs3174" /><sodipodi:namedview
   pagecolor="#ffffff"
   bordercolor="#666666"
   borderopacity="1"
   objecttolerance="10"
   gridtolerance="10"
   guidetolerance="10"
   inkscape:pageopacity="0"
   inkscape:pageshadow="2"
   inkscape:window-width="901"
   inkscape:window-height="583"
   id="namedview3172"
   showgrid="false"
   inkscape:zoom="10.727273"
   inkscape:cx="16.425857"
   inkscape:cy="11"
   inkscape:window-x="65"
   inkscape:window-y="263"
   inkscape:window-maximized="0"
   inkscape:current-layer="Layer_1" />
<path
   id="path3_1_"
   enable-background="new    "
   d="M 17.59,6 2.305,6.021 C 1.695,6.021 1,6.782 1,7.333 v 9.298 c 0,0.732 0.789,1.366 1.453,1.366 H 17.502 C 18.299,17.997 19,17.316 19,16.621 V 7.462 C 19,6.689 18.311,6 17.59,6 z m -3.84,6 3.094,3.156 -0.688,0.688 L 13,12.688 11.457,14.219 H 8.544 L 7,12.688 3.844,15.876 3.156,15.157 6.281,12 2.156,7.844 2.844,7.156 l 0,0 L 9.029,11 h 1.953 L 17.159,7.156 17.847,7.844 13.75,12 z"
   inkscape:connector-curvature="0"
   style="opacity:0.3;fill:#ffffff" />
<path
   id="path5_1_"
   d="M 17.59,5 2.305,5.021 C 1.695,5.021 1,5.782 1,6.333 v 9.298 c 0,0.732 0.789,1.366 1.453,1.366 H 17.502 C 18.299,16.997 19,16.316 19,15.621 V 6.462 C 19,5.689 18.311,5 17.59,5 z m -3.84,6 3.094,3.156 -0.688,0.688 L 13,11.688 11.457,13.219 H 8.544 L 7,11.688 3.844,14.876 3.156,14.157 6.281,11 2.156,6.844 2.844,6.156 l 0,0 L 9.029,10 h 1.953 L 17.159,6.156 17.847,6.844 13.75,11 z"
   inkscape:connector-curvature="0"
   style="fill:#3e3e34" />
<path
   id="path8"
   enable-background="new    "
   d="m 15,17.499 c 0,0.537 0.131,1.041 0.348,1.496 l 6.313,-0.017 C 21.873,18.527 22,18.029 22,17.499 22,16.962 21.869,16.46 21.652,16.005 l -6.314,0.019 C 15.127,16.473 15,16.971 15,17.499 z"
   inkscape:connector-curvature="0"
   style="opacity:0.3;fill:#ffffff" />
<linearGradient
   id="path10_1_"
   gradientUnits="userSpaceOnUse"
   x1="2214.4932"
   y1="1853.9492"
   x2="2214.5059"
   y2="1850.918"
   gradientTransform="translate(-2196,-1836)">
	<stop
   offset="0"
   style="stop-color:#413f3b;stop-opacity:1;"
   id="stop3159" />
	<stop
   offset="1"
   style="stop-color:#58564d;stop-opacity:1;"
   id="stop3161" />
</linearGradient>
<path
   id="path10"
   d="m 15,16.499 c 0,0.537 0.131,1.041 0.348,1.496 l 6.313,-0.017 C 21.873,17.527 22,17.029 22,16.499 22,15.962 21.869,15.46 21.652,15.005 l -6.314,0.019 C 15.127,15.473 15,15.971 15,16.499 z"
   style="fill:url(#path10_1_)"
   inkscape:connector-curvature="0" />
<radialGradient
   id="path4312_1_"
   cx="1814.916"
   cy="-1566.6562"
   r="3.1984999"
   gradientTransform="matrix(1.2512,0,0,-1.2512,-2252.3213,-1946.4971)"
   gradientUnits="userSpaceOnUse">
	<stop
   offset="0"
   style="stop-color:#FFFFFF"
   id="stop3165" />
	<stop
   offset="0.3"
   style="stop-color:#FFFFFF;stop-opacity:0.498"
   id="stop3167" />
	<stop
   offset="1"
   style="stop-color:#FFFFFF;stop-opacity:0"
   id="stop3169" />
</radialGradient>
<path
   id="path4312"
   d="m 21.656,15 -6.312,0.031 c -0.109,0.234 -0.191,0.461 -0.25,0.719 0.7,1.161 1.951,1.938 3.406,1.938 1.455,0 2.706,-0.771 3.406,-1.938 -0.06,-0.26 -0.136,-0.514 -0.25,-0.75 z"
   style="fill:url(#path4312_1_)"
   inkscape:connector-curvature="0" />
</svg>