<?xml version="1.0" encoding="UTF-8" standalone="no"?>
<!-- Generator: Adobe Illustrator 15.0.0, SVG Export Plug-In . SVG Version: 6.00 Build 0)  -->

<svg
   xmlns:dc="http://purl.org/dc/elements/1.1/"
   xmlns:cc="http://creativecommons.org/ns#"
   xmlns:rdf="http://www.w3.org/1999/02/22-rdf-syntax-ns#"
   xmlns:svg="http://www.w3.org/2000/svg"
   xmlns="http://www.w3.org/2000/svg"
   xmlns:sodipodi="http://sodipodi.sourceforge.net/DTD/sodipodi-0.dtd"
   xmlns:inkscape="http://www.inkscape.org/namespaces/inkscape"
   version="1.1"
   id="Layer_1"
   x="0px"
   y="0px"
   width="22"
   height="22"
   viewBox="0 0 22 22"
   enable-background="new 0 0 26 22"
   xml:space="preserve"
   inkscape:version="0.48.3.1 r9886"
   sodipodi:docname="indicator-messages-available-new.svg"><metadata
   id="metadata3052"><rdf:RDF><cc:Work
       rdf:about=""><dc:format>image/svg+xml</dc:format><dc:type
         rdf:resource="http://purl.org/dc/dcmitype/StillImage" /></cc:Work></rdf:RDF></metadata><defs
   id="defs3050" /><sodipodi:namedview
   pagecolor="#ffffff"
   bordercolor="#666666"
   borderopacity="1"
   objecttolerance="10"
   gridtolerance="10"
   guidetolerance="10"
   inkscape:pageopacity="0"
   inkscape:pageshadow="2"
   inkscape:window-width="640"
   inkscape:window-height="480"
   id="namedview3048"
   showgrid="false"
   inkscape:zoom="10.727273"
   inkscape:cx="13"
   inkscape:cy="11"
   inkscape:window-x="65"
   inkscape:window-y="24"
   inkscape:window-maximized="0"
   inkscape:current-layer="Layer_1" />
<path
   id="path3_12_"
   enable-background="new    "
   d="M 17.59,5.924 2.305,5.945 C 1.695,5.945 1,6.706 1,7.259 v 9.298 c 0,0.732 0.789,1.366 1.453,1.366 H 17.502 C 18.299,17.923 19,17.245 19,16.547 V 7.389 C 19,6.613 18.311,5.924 17.59,5.924 z m -3.84,6 3.094,3.156 -0.688,0.688 L 13,12.611 10.721,14.923 H 9.283 L 7,12.611 3.844,15.8 3.156,15.081 6.281,11.924 2.156,7.768 2.844,7.08 l 0,0 6.844,6.844 h 0.598 l 6.875,-6.844 0.688,0.688 -4.099,4.156 z"
   inkscape:connector-curvature="0"
   style="opacity:0.3;fill:#ffffff" />
<path
   id="path5_26_"
   d="M 17.59,4.924 2.305,4.945 C 1.695,4.945 1,5.706 1,6.259 v 9.298 c 0,0.732 0.789,1.366 1.453,1.366 H 17.502 C 18.299,16.923 19,16.245 19,15.547 V 6.389 C 19,5.613 18.311,4.924 17.59,4.924 z m -3.84,6 3.094,3.156 -0.688,0.688 L 13,11.611 10.721,13.923 H 9.283 L 7,11.611 3.844,14.8 3.156,14.081 6.281,10.924 2.156,6.768 2.844,6.08 l 0,0 6.844,6.844 h 0.598 l 6.875,-6.844 0.688,0.688 -4.099,4.156 z"
   inkscape:connector-curvature="0"
   style="fill:#2eb5e9;fill-opacity:0.95290001" />
<circle
   id="circle5_3_"
   enable-background="new    "
   cx="21.5"
   cy="16.424"
   r="3.5"
   sodipodi:cx="21.5"
   sodipodi:cy="16.424"
   sodipodi:rx="3.5"
   sodipodi:ry="3.5"
   transform="translate(-3,0)"
   style="opacity:0.3;fill:#ffffff" />
<linearGradient
   id="circle7_1_"
   gradientUnits="userSpaceOnUse"
   x1="-2906.8335"
   y1="2782.9531"
   x2="-2899.9258"
   y2="2783.0464"
   gradientTransform="matrix(0,-1,1,0,-2761.5,-2888)">
	<stop
   offset="0"
   style="stop-color:#2E8942"
   id="stop3035" />
	<stop
   offset="1"
   style="stop-color:#6CBF5A"
   id="stop3037" />
</linearGradient>
<circle
   id="circle7_3_"
   cx="21.5"
   cy="15.424"
   r="3.5"
   style="fill:url(#circle7_1_)"
   sodipodi:cx="21.5"
   sodipodi:cy="15.424"
   sodipodi:rx="3.5"
   sodipodi:ry="3.5"
   transform="translate(-3,0)" />
<radialGradient
   id="path3798_1_"
   cx="2768.4912"
   cy="2764.0166"
   r="3.5936"
   gradientTransform="matrix(1.1134,0,0,1.1134,-3063.9482,-3065.0479)"
   gradientUnits="userSpaceOnUse">
	<stop
   offset="0"
   style="stop-color:#FFFFFF"
   id="stop3041" />
	<stop
   offset="0.4375"
   style="stop-color:#FFFFFF;stop-opacity:0.498"
   id="stop3043" />
	<stop
   offset="1"
   style="stop-color:#FFFFFF;stop-opacity:0"
   id="stop3045" />
</radialGradient>
<path
   id="path3798_3_"
   d="m 18.5,11.924 c -1.633,0 -2.988,1.113 -3.375,2.625 0.707,1.129 1.945,1.875 3.375,1.875 1.43,0 2.668,-0.746 3.375,-1.875 -0.387,-1.512 -1.742,-2.625 -3.375,-2.625 z"
   style="fill:url(#path3798_1_)"
   inkscape:connector-curvature="0" />
</svg>