<?xml version="1.0" encoding="UTF-8" standalone="no"?>
<!-- Generator: Adobe Illustrator 15.0.0, SVG Export Plug-In . SVG Version: 6.00 Build 0)  -->

<svg
   xmlns:dc="http://purl.org/dc/elements/1.1/"
   xmlns:cc="http://creativecommons.org/ns#"
   xmlns:rdf="http://www.w3.org/1999/02/22-rdf-syntax-ns#"
   xmlns:svg="http://www.w3.org/2000/svg"
   xmlns="http://www.w3.org/2000/svg"
   xmlns:xlink="http://www.w3.org/1999/xlink"
   xmlns:sodipodi="http://sodipodi.sourceforge.net/DTD/sodipodi-0.dtd"
   xmlns:inkscape="http://www.inkscape.org/namespaces/inkscape"
   version="1.1"
   id="Layer_1"
   x="0px"
   y="0px"
   width="26px"
   height="22px"
   viewBox="0 0 26 22"
   enable-background="new 0 0 26 22"
   xml:space="preserve"
   inkscape:version="0.48.2 r9819"
   sodipodi:docname="indicator-messages-new-invisible-mono-light.svg"><metadata
   id="metadata3023"><rdf:RDF><cc:Work
       rdf:about=""><dc:format>image/svg+xml</dc:format><dc:type
         rdf:resource="http://purl.org/dc/dcmitype/StillImage" /><dc:title /></cc:Work></rdf:RDF></metadata><defs
   id="defs3021"><linearGradient
     inkscape:collect="always"
     xlink:href="#path10_1_"
     id="linearGradient3806"
     gradientUnits="userSpaceOnUse"
     gradientTransform="matrix(0,-1,1,0,-2478,-2472.924)"
     x1="-2489.9238"
     y1="2498"
     x2="-2483.9238"
     y2="2498" /></defs><sodipodi:namedview
   pagecolor="#ffffff"
   bordercolor="#666666"
   borderopacity="1"
   objecttolerance="10"
   gridtolerance="10"
   guidetolerance="10"
   inkscape:pageopacity="0"
   inkscape:pageshadow="2"
   inkscape:window-width="1440"
   inkscape:window-height="852"
   id="namedview3019"
   showgrid="false"
   inkscape:zoom="30.341309"
   inkscape:cx="10.383587"
   inkscape:cy="11"
   inkscape:window-x="0"
   inkscape:window-y="0"
   inkscape:window-maximized="1"
   inkscape:current-layer="Layer_1" />
<path
   id="path5_21_"
   opacity="0.3"
   fill="#FFFFFF"
   enable-background="new    "
   d="M20.59,5.924L5.305,5.945  C4.695,5.945,4,6.706,4,7.259v9.298c0,0.732,0.789,1.366,1.453,1.366h15.049c0.797,0,1.498-0.678,1.498-1.376V7.389  C22,6.613,21.311,5.924,20.59,5.924z M16.75,11.924l3.094,3.156l-0.688,0.688L16,12.611l-2.279,2.312h-1.438L10,12.611l-3.156,3.188  L6.156,15.08l3.125-3.157L5.156,7.768l0.688-0.688l0,0l6.844,6.844h0.599l6.875-6.844l0.688,0.688L16.75,11.924z" />
<path
   id="path5_20_"
   fill="#2EB5E9"
   fill-opacity="0.9529"
   d="M20.59,4.924L5.305,4.945C4.695,4.945,4,5.706,4,6.259v9.298  c0,0.732,0.789,1.366,1.453,1.366h15.049c0.797,0,1.498-0.678,1.498-1.376V6.389C22,5.613,21.311,4.924,20.59,4.924z M16.75,10.924  l3.094,3.156l-0.688,0.688L16,11.611l-2.279,2.312h-1.438L10,11.611l-3.156,3.188L6.156,14.08l3.125-3.157L5.156,6.768l0.688-0.688  l0,0l6.844,6.844h0.599l6.875-6.844l0.688,0.688L16.75,10.924z" />
<path
   style="opacity:0.3;fill:#ffffff"
   d="M 20 14 C 19.447 14 19 14.447 19 15 L 19 19 C 19 19.553 19.447 20 20 20 L 24 20 C 24.553 20 25 19.553 25 19 L 25 15 C 25 14.447 24.553 14 24 14 L 20 14 z "
   id="path8_10_" />
<linearGradient
   id="path10_1_"
   gradientUnits="userSpaceOnUse"
   x1="-2489.9238"
   y1="2498"
   x2="-2483.9238"
   y2="2498"
   gradientTransform="matrix(0,-1,1,0,-2476,-2470.924)">
	<stop
   offset="0"
   style="stop-color:#413f3b;stop-opacity:1;"
   id="stop3006" />
	<stop
   offset="1"
   style="stop-color:#58564d;stop-opacity:1;"
   id="stop3008" />
</linearGradient>

<radialGradient
   id="path3789_1_"
   cx="2545.4092"
   cy="2404.3789"
   r="3.6274"
   gradientTransform="matrix(1.1033,0,0,1.1033,-2786.3604,-2639.759)"
   gradientUnits="userSpaceOnUse">
	<stop
   offset="0"
   style="stop-color:#FFFFFF"
   id="stop3012" />
	<stop
   offset="0.3958"
   style="stop-color:#FFFFFF;stop-opacity:0.498"
   id="stop3014" />
	<stop
   offset="1"
   style="stop-color:#FFFFFF;stop-opacity:0"
   id="stop3016" />
</radialGradient>

<path
   style="fill:#ede8e5;fill-opacity:1"
   d="m 20,13 c -0.553,0 -1,0.447 -1,1 l 0,4 c 0,0.553 0.447,1 1,1 l 4,0 c 0.553,0 1,-0.447 1,-1 l 0,-4 c 0,-0.553 -0.447,-1 -1,-1 l -4,0 z"
   id="path3804"
   inkscape:connector-curvature="0" /><path
   style="fill:url(#path10_1_)"
   d="M 20 13 C 19.447 13 19 13.447 19 14 L 19 18 C 19 18.553 19.447 19 20 19 L 24 19 C 24.553 19 25 18.553 25 18 L 25 14 C 25 13.447 24.553 13 24 13 L 20 13 z M 20 14 L 24 14 L 24 18 L 20 18 L 20 14 z "
   id="path10_12_" /><path
   style="fill:url(#path3789_1_)"
   d="M 20 13 C 19.447 13 19 13.447 19 14 L 19 15.65625 C 19.282487 15.975784 19.62828 16.222621 20 16.4375 L 20 14 L 24 14 L 24 16.4375 C 24.37172 16.222621 24.717513 15.975784 25 15.65625 L 25 14 C 25 13.447 24.553 13 24 13 L 20 13 z "
   id="path3789_3_" /></svg>