<?xml version="1.0" encoding="utf-8"?>
<!-- Generator: Adobe Illustrator 15.0.0, SVG Export Plug-In . SVG Version: 6.00 Build 0)  -->
<!DOCTYPE svg PUBLIC "-//W3C//DTD SVG 1.1//EN" "http://www.w3.org/Graphics/SVG/1.1/DTD/svg11.dtd">
<svg version="1.1"
	 id="svg3229" xmlns:rdf="http://www.w3.org/1999/02/22-rdf-syntax-ns#" xmlns:cc="http://creativecommons.org/ns#" xmlns:dc="http://purl.org/dc/elements/1.1/"
	 xmlns="http://www.w3.org/2000/svg" xmlns:xlink="http://www.w3.org/1999/xlink" x="0px" y="0px" width="22px" height="22px"
	 viewBox="0 0 22 22" enable-background="new 0 0 22 22" xml:space="preserve">
<path id="rect3170-2" opacity="0.3" fill="#FFFFFF" enable-background="new    " d="M3.305,6.022C2.696,6.022,2,6.782,2,7.336v9.298
	C2,17.366,2.789,18,3.454,18h15.048C19.299,18,20,17.322,20,16.624V7.465C20,6.689,19.311,6,18.59,6L3.305,6.022L3.305,6.022z
	 M3.844,7.156L10.688,14h0.594l6.875-6.844l0.688,0.688L14.75,12l3.094,3.156l-0.688,0.688L14,12.688L11.72,15h-1.438L8,12.688
	l-3.156,3.188l-0.688-0.719L7.282,12L3.157,7.844L3.844,7.156L3.844,7.156z"/>
<path id="rect3170" fill="#19B6EE" d="M3.305,5.022C2.696,5.022,2,5.782,2,6.336v9.298C2,16.366,2.789,17,3.454,17h15.048
	C19.299,17,20,16.322,20,15.624V6.465C20,5.689,19.311,5,18.59,5L3.305,5.022L3.305,5.022z M3.844,6.156L10.688,13h0.594
	l6.875-6.844l0.688,0.688L14.75,11l3.094,3.156l-0.688,0.688L14,11.688L11.72,14h-1.438L8,11.688l-3.156,3.188l-0.688-0.719
	L7.282,11L3.157,6.844L3.844,6.156L3.844,6.156z"/>
</svg>
