<?xml version="1.0" encoding="UTF-8" standalone="no"?>
<!-- Generator: Adobe Illustrator 15.0.0, SVG Export Plug-In . SVG Version: 6.00 Build 0)  -->

<svg
   xmlns:dc="http://purl.org/dc/elements/1.1/"
   xmlns:cc="http://creativecommons.org/ns#"
   xmlns:rdf="http://www.w3.org/1999/02/22-rdf-syntax-ns#"
   xmlns:svg="http://www.w3.org/2000/svg"
   xmlns="http://www.w3.org/2000/svg"
   xmlns:xlink="http://www.w3.org/1999/xlink"
   xmlns:sodipodi="http://sodipodi.sourceforge.net/DTD/sodipodi-0.dtd"
   xmlns:inkscape="http://www.inkscape.org/namespaces/inkscape"
   version="1.1"
   id="Layer_1"
   x="0px"
   y="0px"
   width="22"
   height="22"
   viewBox="0 0 22 22"
   enable-background="new 0 0 26 22"
   xml:space="preserve"
   inkscape:version="0.48.3.1 r9886"
   sodipodi:docname="indicator-messages-invisible-new.svg"><metadata
   id="metadata3023"><rdf:RDF><cc:Work
       rdf:about=""><dc:format>image/svg+xml</dc:format><dc:type
         rdf:resource="http://purl.org/dc/dcmitype/StillImage" /><dc:title /></cc:Work></rdf:RDF></metadata><defs
   id="defs3021"><linearGradient
     inkscape:collect="always"
     xlink:href="#path10_1_"
     id="linearGradient3806"
     gradientUnits="userSpaceOnUse"
     gradientTransform="matrix(0,-1,1,0,-2478,-2472.924)"
     x1="-2489.9238"
     y1="2498"
     x2="-2483.9238"
     y2="2498" /><linearGradient
     inkscape:collect="always"
     xlink:href="#path10_1_"
     id="linearGradient3257"
     gradientUnits="userSpaceOnUse"
     gradientTransform="matrix(0,-1,1,0,-2479,-2470.924)"
     x1="-2489.9238"
     y1="2498"
     x2="-2483.9238"
     y2="2498" /></defs><sodipodi:namedview
   pagecolor="#ffffff"
   bordercolor="#666666"
   borderopacity="1"
   objecttolerance="10"
   gridtolerance="10"
   guidetolerance="10"
   inkscape:pageopacity="0"
   inkscape:pageshadow="2"
   inkscape:window-width="1535"
   inkscape:window-height="876"
   id="namedview3019"
   showgrid="false"
   inkscape:zoom="30.341309"
   inkscape:cx="10.383587"
   inkscape:cy="11"
   inkscape:window-x="65"
   inkscape:window-y="24"
   inkscape:window-maximized="1"
   inkscape:current-layer="Layer_1" />
<path
   id="path5_21_"
   enable-background="new    "
   d="M 17.59,5.924 2.305,5.945 C 1.695,5.945 1,6.706 1,7.259 v 9.298 c 0,0.732 0.789,1.366 1.453,1.366 H 17.502 C 18.299,17.923 19,17.245 19,16.547 V 7.389 C 19,6.613 18.311,5.924 17.59,5.924 z m -3.84,6 3.094,3.156 -0.688,0.688 L 13,12.611 10.721,14.923 H 9.283 L 7,12.611 3.844,15.799 3.156,15.08 6.281,11.923 2.156,7.768 2.844,7.08 l 0,0 6.844,6.844 h 0.599 l 6.875,-6.844 0.688,0.688 -4.1,4.156 z"
   inkscape:connector-curvature="0"
   style="opacity:0.3;fill:#ffffff" />
<path
   id="path5_20_"
   d="M 17.59,4.924 2.305,4.945 C 1.695,4.945 1,5.706 1,6.259 v 9.298 c 0,0.732 0.789,1.366 1.453,1.366 H 17.502 C 18.299,16.923 19,16.245 19,15.547 V 6.389 C 19,5.613 18.311,4.924 17.59,4.924 z m -3.84,6 3.094,3.156 -0.688,0.688 L 13,11.611 10.721,13.923 H 9.283 L 7,11.611 3.844,14.799 3.156,14.08 6.281,10.923 2.156,6.768 2.844,6.08 l 0,0 6.844,6.844 h 0.599 l 6.875,-6.844 0.688,0.688 -4.1,4.156 z"
   inkscape:connector-curvature="0"
   style="fill:#2eb5e9;fill-opacity:0.95290001" />
<path
   style="opacity:0.3;fill:#ffffff"
   d="m 17,14 c -0.553,0 -1,0.447 -1,1 l 0,4 c 0,0.553 0.447,1 1,1 l 4,0 c 0.553,0 1,-0.447 1,-1 l 0,-4 c 0,-0.553 -0.447,-1 -1,-1 l -4,0 z"
   id="path8_10_"
   inkscape:connector-curvature="0" />
<linearGradient
   id="path10_1_"
   gradientUnits="userSpaceOnUse"
   x1="-2489.9238"
   y1="2498"
   x2="-2483.9238"
   y2="2498"
   gradientTransform="matrix(0,-1,1,0,-2476,-2470.924)">
	<stop
   offset="0"
   style="stop-color:#413f3b;stop-opacity:1;"
   id="stop3006" />
	<stop
   offset="1"
   style="stop-color:#58564d;stop-opacity:1;"
   id="stop3008" />
</linearGradient>

<radialGradient
   id="path3789_1_"
   cx="2545.4092"
   cy="2404.3789"
   r="3.6273999"
   gradientTransform="matrix(1.1033,0,0,1.1033,-2789.3604,-2639.759)"
   gradientUnits="userSpaceOnUse">
	<stop
   offset="0"
   style="stop-color:#FFFFFF"
   id="stop3012" />
	<stop
   offset="0.3958"
   style="stop-color:#FFFFFF;stop-opacity:0.498"
   id="stop3014" />
	<stop
   offset="1"
   style="stop-color:#FFFFFF;stop-opacity:0"
   id="stop3016" />
</radialGradient>

<path
   style="fill:#ede8e5;fill-opacity:1"
   d="m 17,13 c -0.553,0 -1,0.447 -1,1 l 0,4 c 0,0.553 0.447,1 1,1 l 4,0 c 0.553,0 1,-0.447 1,-1 l 0,-4 c 0,-0.553 -0.447,-1 -1,-1 l -4,0 z"
   id="path3804"
   inkscape:connector-curvature="0" /><path
   style="fill:url(#linearGradient3257)"
   d="m 17,13 c -0.553,0 -1,0.447 -1,1 l 0,4 c 0,0.553 0.447,1 1,1 l 4,0 c 0.553,0 1,-0.447 1,-1 l 0,-4 c 0,-0.553 -0.447,-1 -1,-1 l -4,0 z m 0,1 4,0 0,4 -4,0 0,-4 z"
   id="path10_12_"
   inkscape:connector-curvature="0" /><path
   style="fill:url(#path3789_1_)"
   d="m 17,13 c -0.553,0 -1,0.447 -1,1 l 0,1.65625 c 0.282487,0.319534 0.62828,0.566371 1,0.78125 L 17,14 l 4,0 0,2.4375 c 0.37172,-0.214879 0.717513,-0.461716 1,-0.78125 L 22,14 c 0,-0.553 -0.447,-1 -1,-1 l -4,0 z"
   id="path3789_3_"
   inkscape:connector-curvature="0" /></svg>