<?xml version="1.0" encoding="utf-8"?>
<!-- Generator: Adobe Illustrator 15.0.0, SVG Export Plug-In . SVG Version: 6.00 Build 0)  -->
<!DOCTYPE svg PUBLIC "-//W3C//DTD SVG 1.1//EN" "http://www.w3.org/Graphics/SVG/1.1/DTD/svg11.dtd">
<svg version="1.1" id="Layer_1" xmlns="http://www.w3.org/2000/svg" xmlns:xlink="http://www.w3.org/1999/xlink" x="0px" y="0px"
	 width="26px" height="22px" viewBox="0 0 26 22" enable-background="new 0 0 26 22" xml:space="preserve">
<path id="path5_19_" opacity="0.3" fill="#FFFFFF" enable-background="new    " d="M20.59,5.924L5.305,5.945
	C4.695,5.945,4,6.706,4,7.259v9.298c0,0.732,0.789,1.366,1.453,1.366h15.049c0.797,0,1.498-0.678,1.498-1.376V7.389
	C22,6.613,21.311,5.924,20.59,5.924z M16.75,11.924l3.094,3.156l-0.688,0.688L16,12.611l-2.279,2.312h-1.438L10,12.611l-3.156,3.188
	L6.156,15.08l3.125-3.157L5.156,7.768l0.688-0.688l0,0l6.844,6.844h0.598l6.875-6.844l0.688,0.688L16.75,11.924z"/>
<path id="path5_18_" fill="#2EB5E9" fill-opacity="0.9529" d="M20.59,4.924L5.305,4.945C4.695,4.945,4,5.706,4,6.259v9.298
	c0,0.732,0.789,1.366,1.453,1.366h15.049c0.797,0,1.498-0.678,1.498-1.376V6.389C22,5.613,21.311,4.924,20.59,4.924z M16.75,10.924
	l3.094,3.156l-0.688,0.688L16,11.611l-2.279,2.312h-1.438L10,11.611l-3.156,3.188L6.156,14.08l3.125-3.157L5.156,6.768l0.688-0.688
	l0,0l6.844,6.844h0.598l6.875-6.844l0.688,0.688L16.75,10.924z"/>
<path id="path8_9_" opacity="0.3" fill="#FFFFFF" enable-background="new    " d="M25,19.924c-0.21-0.479-0.469-1.016-0.773-1.602
	c-0.306-0.59-0.642-1.195-1.004-1.816c-0.363-0.622-0.736-1.236-1.117-1.85c-0.383-0.609-0.756-1.188-1.119-1.732
	c-0.355,0.547-0.729,1.129-1.11,1.75c-0.39,0.621-0.751,1.243-1.104,1.864c-0.354,0.62-0.688,1.228-0.989,1.815
	c-0.312,0.588-0.568,1.109-0.778,1.567L25,19.924L25,19.924z"/>
<linearGradient id="path10_1_" gradientUnits="userSpaceOnUse" x1="-2328.9971" y1="2673.9141" x2="-2329.0388" y2="2666.7295" gradientTransform="matrix(-1 0 0 1 -2308 -2655)">
	<stop  offset="0" style="stop-color:#D6942A"/>
	<stop  offset="1" style="stop-color:#F9D507"/>
</linearGradient>
<path id="path10_11_" fill="url(#path10_1_)" d="M17,18.924c0.21-0.479,0.469-1.016,0.773-1.602c0.306-0.59,0.642-1.195,1.004-1.816
	c0.363-0.622,0.736-1.236,1.117-1.85c0.383-0.609,0.756-1.188,1.119-1.732c0.355,0.547,0.729,1.129,1.11,1.75
	c0.39,0.621,0.751,1.243,1.104,1.864c0.354,0.62,0.688,1.228,0.989,1.815c0.312,0.588,0.568,1.109,0.778,1.567L17,18.924L17,18.924z
	"/>
<radialGradient id="path3767_1_" cx="2519.7891" cy="-2489.311" r="3.5922" gradientTransform="matrix(1.1134 0 0 -1.1134 -2784.542 -2758.5869)" gradientUnits="userSpaceOnUse">
	<stop  offset="0" style="stop-color:#FFFFFF"/>
	<stop  offset="0.6042" style="stop-color:#FFFFFF;stop-opacity:0.498"/>
	<stop  offset="1" style="stop-color:#FFFFFF;stop-opacity:0"/>
</radialGradient>
<path id="path3767_3_" fill="url(#path3767_1_)" d="M21,11.924c-0.363,0.545-0.711,1.109-1.094,1.719
	c-0.383,0.613-0.762,1.254-1.125,1.875c-0.117,0.201-0.201,0.396-0.312,0.594c0.689,0.562,1.572,0.906,2.531,0.906
	s1.842-0.344,2.531-0.906c-0.104-0.188-0.174-0.373-0.281-0.562c-0.354-0.62-0.742-1.254-1.125-1.875
	C21.744,13.053,21.361,12.471,21,11.924z"/>
</svg>
