<?xml version="1.0" encoding="UTF-8" standalone="no"?>
<!-- Created with Inkscape (http://www.inkscape.org/) -->

<svg
   xmlns:dc="http://purl.org/dc/elements/1.1/"
   xmlns:cc="http://creativecommons.org/ns#"
   xmlns:rdf="http://www.w3.org/1999/02/22-rdf-syntax-ns#"
   xmlns:svg="http://www.w3.org/2000/svg"
   xmlns="http://www.w3.org/2000/svg"
   xmlns:sodipodi="http://sodipodi.sourceforge.net/DTD/sodipodi-0.dtd"
   xmlns:inkscape="http://www.inkscape.org/namespaces/inkscape"
   version="1.0"
   width="22"
   height="22"
   id="svg3229"
   inkscape:version="0.48.0 r9654"
   sodipodi:docname="indicator-messages-new.svg">
  <metadata
     id="metadata9">
    <rdf:RDF>
      <cc:Work
         rdf:about="">
        <dc:format>image/svg+xml</dc:format>
        <dc:type
           rdf:resource="http://purl.org/dc/dcmitype/StillImage" />
        <dc:title></dc:title>
      </cc:Work>
    </rdf:RDF>
  </metadata>
  <sodipodi:namedview
     pagecolor="#ffffff"
     bordercolor="#666666"
     borderopacity="1"
     objecttolerance="10"
     gridtolerance="10"
     guidetolerance="10"
     inkscape:pageopacity="0"
     inkscape:pageshadow="2"
     inkscape:window-width="1280"
     inkscape:window-height="749"
     id="namedview7"
     showgrid="false"
     inkscape:zoom="1.5227273"
     inkscape:cx="11"
     inkscape:cy="58.039989"
     inkscape:window-x="0"
     inkscape:window-y="24"
     inkscape:window-maximized="1"
     inkscape:current-layer="svg3229" />
  <defs
     id="defs3231" />
  <path
     inkscape:connector-curvature="0"
     style="fill:#ffffff;fill-opacity:1;fill-rule:nonzero;stroke:none;stroke-width:1;marker:none;visibility:visible;display:inline;overflow:visible;enable-background:accumulate;opacity:0.3"
     id="rect3170-2"
     d="M 3.3050355,6.0221223 C 2.6956293,6.0221223 2,6.7823212 2,7.3363212 L 2,16.634982 C 2,17.36596 2.788896,18 3.4535077,18 L 18.502248,18 C 19.299593,18 20,17.322163 20,16.62392 L 20,7.4645688 C 20,6.68903 19.310739,6 18.590737,6 L 3.3050355,6.0221223 z M 3.84375,7.15625 10.6875,14 l 0.59375,0 6.875,-6.84375 0.6875,0.6875 L 14.75,12 l 3.09375,3.15625 -0.6875,0.6875 L 14,12.6875 11.71875,15 10.28125,15 8,12.6875 4.84375,15.875 4.15625,15.15625 7.28125,12 3.15625,7.84375 3.84375,7.15625 z" />
  <path
     inkscape:connector-curvature="0"
     style="fill:#19b6ee;fill-opacity:1;fill-rule:nonzero;stroke:none;stroke-width:1;marker:none;visibility:visible;display:inline;overflow:visible;enable-background:accumulate"
     id="rect3170"
     d="M 3.3050355,5.0221223 C 2.6956293,5.0221223 2,5.7823212 2,6.3363212 L 2,15.634982 C 2,16.36596 2.788896,17 3.4535077,17 L 18.502248,17 C 19.299593,17 20,16.322163 20,15.62392 L 20,6.4645688 C 20,5.68903 19.310739,5 18.590737,5 L 3.3050355,5.0221223 z M 3.84375,6.15625 10.6875,13 l 0.59375,0 6.875,-6.84375 0.6875,0.6875 L 14.75,11 l 3.09375,3.15625 -0.6875,0.6875 L 14,11.6875 11.71875,14 10.28125,14 8,11.6875 4.84375,14.875 4.15625,14.15625 7.28125,11 3.15625,6.84375 3.84375,6.15625 z" />
</svg>
