<?xml version="1.0" encoding="UTF-8" standalone="no"?>
<!-- Created with Inkscape (http://www.inkscape.org/) -->
<svg
   xmlns:svg="http://www.w3.org/2000/svg"
   xmlns="http://www.w3.org/2000/svg"
   version="1.0"
   width="22"
   height="22"
   id="svg3229">
  <defs
     id="defs3231" />
  <path
     d="M 18.59375,5 L 3.3125,5.03125 C 2.7030937,5.0312499 2,5.78975 2,6.34375 L 2,15.625 C 2,16.355979 2.8041383,17 3.46875,17 L 18.5,17 C 19.297344,17 20,16.323243 20,15.625 L 20,6.46875 C 20,5.6932114 19.313752,5 18.59375,5 z M 3.84375,6.15625 L 10.6875,13 L 11.28125,13 L 18.15625,6.15625 L 18.84375,6.84375 L 14.75,11 L 17.84375,14.15625 L 17.15625,14.84375 L 14,11.6875 L 11.71875,14 L 10.28125,14 L 8,11.6875 L 4.84375,14.875 L 4.15625,14.15625 L 7.28125,11 L 3.15625,6.84375 L 3.84375,6.15625 z"
     id="path2387"
     style="fill:#58c10c;fill-opacity:1;fill-rule:nonzero;stroke:none;stroke-width:1;stroke-linecap:butt;stroke-linejoin:miter;marker:none;marker-start:none;marker-mid:none;marker-end:none;stroke-miterlimit:4;stroke-dasharray:none;stroke-dashoffset:0;stroke-opacity:1;visibility:visible;display:inline;overflow:visible;enable-background:accumulate" />
  <rect
     width="19"
     height="13"
     rx="2"
     ry="2"
     x="1.5"
     y="4.5"
     id="rect3179"
     style="opacity:0.6;fill:none;fill-opacity:1;fill-rule:nonzero;stroke:#eae3d0;stroke-width:1;stroke-linecap:round;stroke-linejoin:miter;marker:none;marker-start:none;marker-mid:none;marker-end:none;stroke-miterlimit:4;stroke-dasharray:none;stroke-dashoffset:0;stroke-opacity:1;visibility:visible;display:inline;overflow:visible;enable-background:accumulate" />
  <path
     d="M 3.84375,6.15625 L 3.15625,6.84375 L 7.28125,11 L 4.15625,14.15625 L 4.84375,14.875 L 8,11.6875 L 10.28125,14 L 11.71875,14 L 14,11.6875 L 17.15625,14.84375 L 17.84375,14.15625 L 14.75,11 L 18.84375,6.84375 L 18.15625,6.15625 L 11.28125,13 L 10.6875,13 L 3.84375,6.15625 z"
     id="rect3170"
     style="opacity:0.6;fill:#eae3d1;fill-opacity:1;fill-rule:nonzero;stroke:none;stroke-width:1;stroke-linecap:butt;stroke-linejoin:miter;marker:none;marker-start:none;marker-mid:none;marker-end:none;stroke-miterlimit:4;stroke-dasharray:none;stroke-dashoffset:0;stroke-opacity:1;visibility:visible;display:inline;overflow:visible;enable-background:accumulate" />
</svg>
