<?xml version="1.0" encoding="UTF-8" standalone="no"?>
<!-- Created with Inkscape (http://www.inkscape.org/) -->

<svg
   xmlns:dc="http://purl.org/dc/elements/1.1/"
   xmlns:cc="http://creativecommons.org/ns#"
   xmlns:rdf="http://www.w3.org/1999/02/22-rdf-syntax-ns#"
   xmlns:svg="http://www.w3.org/2000/svg"
   xmlns="http://www.w3.org/2000/svg"
   xmlns:sodipodi="http://sodipodi.sourceforge.net/DTD/sodipodi-0.dtd"
   xmlns:inkscape="http://www.inkscape.org/namespaces/inkscape"
   width="22"
   height="22"
   id="svg4595"
   version="1.1"
   inkscape:version="0.48.3.1 r9886"
   sodipodi:docname="indicator-messages-offline-new.svg">
  <defs
     id="defs4597" />
  <sodipodi:namedview
     id="base"
     pagecolor="#ffffff"
     bordercolor="#666666"
     borderopacity="1.0"
     inkscape:pageopacity="0.0"
     inkscape:pageshadow="2"
     inkscape:zoom="7.9580786"
     inkscape:cx="8.1049709"
     inkscape:cy="22.838427"
     inkscape:document-units="px"
     inkscape:current-layer="layer1"
     showgrid="false"
     inkscape:window-width="1920"
     inkscape:window-height="1030"
     inkscape:window-x="0"
     inkscape:window-y="22"
     inkscape:window-maximized="1" />
  <metadata
     id="metadata4600">
    <rdf:RDF>
      <cc:Work
         rdf:about="">
        <dc:format>image/svg+xml</dc:format>
        <dc:type
           rdf:resource="http://purl.org/dc/dcmitype/StillImage" />
        <dc:title />
      </cc:Work>
    </rdf:RDF>
  </metadata>
  <g
     inkscape:label="Layer 1"
     inkscape:groupmode="layer"
     id="layer1"
     transform="translate(0,-1030.3622)">
    <path
       inkscape:connector-curvature="0"
       style="opacity:0.29999999999999999;fill:#ffffff;enable-background:new"
       d="M 2.3125,1036.375 C 1.7031,1036.375 1,1037.1335 1,1037.6875 L 1,1047 c 0,0.731 0.80415,1.375 1.46875,1.375 l 10.53125,0 A 1.0684611,1.0684611 0 0 1 13.25,1048 l 1.125,-1.125 -1.125,-1.125 a 1.0684611,1.0684611 0 0 1 -0.1875,-1.25 c 0.15482,-0.2912 0.35444,-0.5569 0.5625,-0.8125 l -0.625,-0.625 -2.28125,2.3125 -1.4375,0 L 7,1043.0625 l -3.15625,3.1875 -0.6875,-0.7187 3.125,-3.1563 -4.125,-4.1562 0.6875,-0.6875 6.84375,6.8437 0.59375,0 6.875,-6.8437 0.6875,0.6875 -4.09375,4.1562 0.59375,0.5938 c 0.23671,-0.1938 0.47918,-0.3825 0.75,-0.5313 a 1.0684611,1.0684611 0 0 1 0.375,-0.125 1.0684611,1.0684611 0 0 1 0.875,0.3125 l 1.15625,1.1563 1.125,-1.1563 a 1.0684611,1.0684611 0 0 1 0.375,-0.25 l 0,-4.5625 c 0,-0.7756 -0.68625,-1.4375 -1.40625,-1.4375 l -15.28125,0 z"
       id="path5678" />
    <path
       inkscape:connector-curvature="0"
       id="path5680"
       d="M 2.3125,1035.375 C 1.7031,1035.375 1,1036.1335 1,1036.6875 L 1,1046 c 0,0.731 0.80415,1.375 1.46875,1.375 l 10.53125,0 A 1.0684611,1.0684611 0 0 1 13.25,1047 l 1.125,-1.125 -1.125,-1.125 a 1.0684611,1.0684611 0 0 1 -0.1875,-1.25 c 0.15482,-0.2912 0.35444,-0.5569 0.5625,-0.8125 l -0.625,-0.625 -2.28125,2.3125 -1.4375,0 L 7,1042.0625 l -3.15625,3.1875 -0.6875,-0.7187 3.125,-3.1563 -4.125,-4.1562 0.6875,-0.6875 6.84375,6.8437 0.59375,0 6.875,-6.8437 0.6875,0.6875 -4.09375,4.1562 0.59375,0.5938 c 0.23671,-0.1938 0.47918,-0.3825 0.75,-0.5313 a 1.0684611,1.0684611 0 0 1 0.375,-0.125 1.0684611,1.0684611 0 0 1 0.875,0.3125 l 1.15625,1.1563 1.125,-1.1563 a 1.0684611,1.0684611 0 0 1 0.375,-0.25 l 0,-4.5625 c 0,-0.7756 -0.68625,-1.4375 -1.40625,-1.4375 l -15.28125,0 z"
       style="fill:#19b6ee;fill-opacity:1;enable-background:new" />
    <path
       inkscape:connector-curvature="0"
       style="opacity:0.40000000000000002;fill:#3c3c3c;fill-opacity:1;enable-background:new"
       d="m 19.37988,1042.3736 -1.89013,1.8981 -1.89356,-1.8867 c -0.68017,0.3737 -1.23275,0.9297 -1.59619,1.6133 l 1.88786,1.8798 -1.87647,1.8822 c 0.36687,0.6733 0.92285,1.2225 1.5905,1.5905 l 1.87532,-1.8981 1.91748,1.9095 C 20.07715,1049.001 20.632,1048.4371 21,1047.766 l -1.92546,-1.9232 1.89356,-1.9232 c -0.38053,-0.6551 -0.92513,-1.1883 -1.58822,-1.546 z"
       id="path5700" />
  </g>
</svg>
