<?xml version="1.0" encoding="UTF-8" standalone="no"?>
<!-- Generator: Adobe Illustrator 15.0.0, SVG Export Plug-In . SVG Version: 6.00 Build 0)  -->

<svg
   xmlns:dc="http://purl.org/dc/elements/1.1/"
   xmlns:cc="http://creativecommons.org/ns#"
   xmlns:rdf="http://www.w3.org/1999/02/22-rdf-syntax-ns#"
   xmlns:svg="http://www.w3.org/2000/svg"
   xmlns="http://www.w3.org/2000/svg"
   xmlns:sodipodi="http://sodipodi.sourceforge.net/DTD/sodipodi-0.dtd"
   xmlns:inkscape="http://www.inkscape.org/namespaces/inkscape"
   version="1.1"
   id="Layer_1"
   x="0px"
   y="0px"
   width="22"
   height="22"
   viewBox="0 0 22 22"
   enable-background="new 0 0 26 22"
   xml:space="preserve"
   inkscape:version="0.48.3.1 r9886"
   sodipodi:docname="indicator-messages-away.svg"><metadata
   id="metadata3076"><rdf:RDF><cc:Work
       rdf:about=""><dc:format>image/svg+xml</dc:format><dc:type
         rdf:resource="http://purl.org/dc/dcmitype/StillImage" /></cc:Work></rdf:RDF></metadata><defs
   id="defs3074" /><sodipodi:namedview
   pagecolor="#ffffff"
   bordercolor="#666666"
   borderopacity="1"
   objecttolerance="10"
   gridtolerance="10"
   guidetolerance="10"
   inkscape:pageopacity="0"
   inkscape:pageshadow="2"
   inkscape:window-width="640"
   inkscape:window-height="480"
   id="namedview3072"
   showgrid="false"
   inkscape:zoom="10.727273"
   inkscape:cx="13"
   inkscape:cy="11"
   inkscape:window-x="65"
   inkscape:window-y="24"
   inkscape:window-maximized="0"
   inkscape:current-layer="Layer_1" />
<path
   id="path3_5_"
   enable-background="new    "
   d="M 17.59,6 2.305,6.021 C 1.695,6.021 1,6.782 1,7.333 v 9.298 c 0,0.732 0.789,1.366 1.453,1.366 H 17.502 C 18.299,17.997 19,17.316 19,16.621 V 7.462 C 19,6.689 18.311,6 17.59,6 z m -3.84,6 3.094,3.156 -0.688,0.688 L 13,12.688 11.457,14.219 H 8.544 L 7,12.688 3.844,15.876 3.156,15.157 6.281,12 2.156,7.844 2.844,7.156 l 0,0 L 9.029,11 h 1.953 L 17.159,7.156 17.847,7.844 13.75,12 z"
   inkscape:connector-curvature="0"
   style="opacity:0.3;fill:#ffffff" />
<path
   id="path5_5_"
   d="M 17.59,5 2.305,5.021 C 1.695,5.021 1,5.782 1,6.333 v 9.298 c 0,0.732 0.789,1.366 1.453,1.366 H 17.502 C 18.299,16.997 19,16.316 19,15.621 V 6.462 C 19,5.689 18.311,5 17.59,5 z m -3.84,6 3.094,3.156 -0.688,0.688 L 13,11.688 11.457,13.219 H 8.544 L 7,11.688 3.844,14.876 3.156,14.157 6.281,11 2.156,6.844 2.844,6.156 l 0,0 L 9.029,10 h 1.953 L 17.159,6.156 17.847,6.844 13.75,11 z"
   inkscape:connector-curvature="0"
   style="fill:#3e3e34" />
<path
   id="path8_4_"
   enable-background="new    "
   d="M 22,20 C 21.79,19.521 21.531,18.984 21.227,18.398 20.921,17.808 20.585,17.203 20.223,16.582 19.86,15.96 19.487,15.346 19.106,14.732 18.723,14.123 18.35,13.544 17.987,13 c -0.357,0.546 -0.731,1.129 -1.112,1.75 -0.388,0.621 -0.751,1.243 -1.104,1.863 -0.354,0.621 -0.687,1.229 -0.99,1.816 -0.311,0.588 -0.565,1.109 -0.775,1.567 L 22,20 l 0,0 z"
   inkscape:connector-curvature="0"
   style="opacity:0.3;fill:#ffffff" />
<linearGradient
   id="path10_1_"
   gradientUnits="userSpaceOnUse"
   x1="-1759.9985"
   y1="1854.9932"
   x2="-1760.0406"
   y2="1847.8097"
   gradientTransform="matrix(-1,0,0,1,-1742,-1836)">
	<stop
   offset="0"
   style="stop-color:#D6942A"
   id="stop3059" />
	<stop
   offset="1"
   style="stop-color:#F9D507"
   id="stop3061" />
</linearGradient>
<path
   id="path10_4_"
   d="m 14,19 c 0.21,-0.479 0.469,-1.016 0.773,-1.602 0.306,-0.59 0.642,-1.195 1.004,-1.816 0.363,-0.622 0.736,-1.236 1.117,-1.85 0.383,-0.609 0.756,-1.188 1.119,-1.732 0.357,0.546 0.731,1.129 1.112,1.75 0.388,0.621 0.751,1.243 1.104,1.863 0.354,0.621 0.687,1.229 0.99,1.816 0.311,0.588 0.565,1.109 0.775,1.567 L 14,19 l 0,0 z"
   style="fill:url(#path10_1_)"
   inkscape:connector-curvature="0" />
<radialGradient
   id="path3767_1_"
   cx="2016.334"
   cy="-1753.792"
   r="3.5927"
   gradientTransform="matrix(1.1134,0,0,-1.1134,-2226.9951,-1939.5869)"
   gradientUnits="userSpaceOnUse">
	<stop
   offset="0"
   style="stop-color:#FFFFFF"
   id="stop3065" />
	<stop
   offset="0.6042"
   style="stop-color:#FFFFFF;stop-opacity:0.498"
   id="stop3067" />
	<stop
   offset="1"
   style="stop-color:#FFFFFF;stop-opacity:0"
   id="stop3069" />
</radialGradient>
<path
   id="path3767"
   d="m 18,12 c -0.363,0.545 -0.711,1.109 -1.094,1.719 -0.383,0.613 -0.762,1.254 -1.125,1.875 -0.117,0.201 -0.201,0.396 -0.312,0.594 0.689,0.562 1.572,0.906 2.531,0.906 0.959,0 1.842,-0.344 2.531,-0.906 C 20.427,16 20.357,15.815 20.25,15.626 19.896,15.005 19.508,14.372 19.125,13.751 18.744,13.129 18.361,12.546 18,12 z"
   style="fill:url(#path3767_1_)"
   inkscape:connector-curvature="0" />
</svg>