<?xml version="1.0" encoding="utf-8"?>
<!-- Generator: Adobe Illustrator 15.0.0, SVG Export Plug-In . SVG Version: 6.00 Build 0)  -->
<!DOCTYPE svg PUBLIC "-//W3C//DTD SVG 1.1//EN" "http://www.w3.org/Graphics/SVG/1.1/DTD/svg11.dtd">
<svg version="1.1" id="Layer_1" xmlns="http://www.w3.org/2000/svg" xmlns:xlink="http://www.w3.org/1999/xlink" x="0px" y="0px"
	 width="26px" height="22px" viewBox="0 0 26 22" enable-background="new 0 0 26 22" xml:space="preserve">
<path id="path5_23_" opacity="0.3" fill="#FFFFFF" enable-background="new    " d="M20.59,5.924L5.305,5.945
	C4.695,5.945,4,6.706,4,7.259v9.298c0,0.732,0.789,1.366,1.453,1.366h15.049c0.797,0,1.498-0.678,1.498-1.376V7.389
	C22,6.613,21.311,5.924,20.59,5.924z M16.75,11.924l3.094,3.156l-0.688,0.688L16,12.611l-2.279,2.312h-1.438L10,12.611l-3.156,3.188
	L6.156,15.08l3.125-3.157L5.156,7.768l0.688-0.688l0,0l6.844,6.844h0.598l6.875-6.844l0.688,0.688L16.75,11.924z"/>
<path id="path5_22_" fill="#2EB5E9" fill-opacity="0.9529" d="M20.59,4.924L5.305,4.945C4.695,4.945,4,5.706,4,6.259v9.298
	c0,0.732,0.789,1.366,1.453,1.366h15.049c0.797,0,1.498-0.678,1.498-1.376V6.389C22,5.613,21.311,4.924,20.59,4.924z M16.75,10.924
	l3.094,3.156l-0.688,0.688L16,11.611l-2.279,2.312h-1.438L10,11.611l-3.156,3.188L6.156,14.08l3.125-3.157L5.156,6.768l0.688-0.688
	l0,0l6.844,6.844h0.598l6.875-6.844l0.688,0.688L16.75,10.924z"/>
<path id="path8_11_" opacity="0.3" fill="#FFFFFF" enable-background="new    " d="M18,17.423c0,0.537,0.131,1.041,0.348,1.496
	l6.313-0.017C24.873,18.451,25,17.953,25,17.423c0-0.536-0.131-1.039-0.348-1.493l-6.314,0.019C18.127,16.396,18,16.895,18,17.423z"
	/>
<linearGradient id="path10_1_" gradientUnits="userSpaceOnUse" x1="2494.9951" y1="-2360.874" x2="2495.0081" y2="-2357.8408" gradientTransform="matrix(1 0 0 -1 -2473.5 -2343)">
	<stop  offset="0" style="stop-color:#676868"/>
	<stop  offset="1" style="stop-color:#EAEAEA"/>
</linearGradient>
<path id="path10_13_" fill="url(#path10_1_)" d="M18,16.423c0,0.537,0.131,1.041,0.348,1.496l6.313-0.017
	C24.873,17.451,25,16.953,25,16.423c0-0.536-0.131-1.039-0.348-1.493l-6.314,0.019C18.127,15.396,18,15.895,18,16.423z"/>
<radialGradient id="path4312_1_" cx="2038.7988" cy="1796.3838" r="3.1975" gradientTransform="matrix(1.2512 0 0 1.2512 -2529.4443 -2234.0068)" gradientUnits="userSpaceOnUse">
	<stop  offset="0" style="stop-color:#FFFFFF"/>
	<stop  offset="0.3" style="stop-color:#FFFFFF;stop-opacity:0.498"/>
	<stop  offset="1" style="stop-color:#FFFFFF;stop-opacity:0"/>
</radialGradient>
<path id="path4312_3_" fill="url(#path4312_1_)" d="M24.656,14.924l-6.312,0.031c-0.109,0.234-0.191,0.461-0.25,0.719
	c0.7,1.161,1.951,1.938,3.406,1.938s2.706-0.771,3.406-1.938C24.846,15.414,24.77,15.16,24.656,14.924z"/>
</svg>
