<?xml version="1.0" encoding="UTF-8" standalone="no"?>
<!-- Generator: Adobe Illustrator 15.0.0, SVG Export Plug-In . SVG Version: 6.00 Build 0)  -->

<svg
   xmlns:dc="http://purl.org/dc/elements/1.1/"
   xmlns:cc="http://creativecommons.org/ns#"
   xmlns:rdf="http://www.w3.org/1999/02/22-rdf-syntax-ns#"
   xmlns:svg="http://www.w3.org/2000/svg"
   xmlns="http://www.w3.org/2000/svg"
   xmlns:sodipodi="http://sodipodi.sourceforge.net/DTD/sodipodi-0.dtd"
   xmlns:inkscape="http://www.inkscape.org/namespaces/inkscape"
   version="1.1"
   id="Layer_1"
   x="0px"
   y="0px"
   width="26px"
   height="22px"
   viewBox="0 0 26 22"
   enable-background="new 0 0 26 22"
   xml:space="preserve"
   inkscape:version="0.48.2 r9819"
   sodipodi:docname="indicator-messages-new-offline-mono-light.svg"><metadata
   id="metadata3071"><rdf:RDF><cc:Work
       rdf:about=""><dc:format>image/svg+xml</dc:format><dc:type
         rdf:resource="http://purl.org/dc/dcmitype/StillImage" /></cc:Work></rdf:RDF></metadata><defs
   id="defs3069" /><sodipodi:namedview
   pagecolor="#ffffff"
   bordercolor="#666666"
   borderopacity="1"
   objecttolerance="10"
   gridtolerance="10"
   guidetolerance="10"
   inkscape:pageopacity="0"
   inkscape:pageshadow="2"
   inkscape:window-width="913"
   inkscape:window-height="668"
   id="namedview3067"
   showgrid="false"
   inkscape:zoom="10.727273"
   inkscape:cx="13"
   inkscape:cy="11"
   inkscape:window-x="220"
   inkscape:window-y="0"
   inkscape:window-maximized="0"
   inkscape:current-layer="Layer_1" />
<path
   id="path5_25_"
   opacity="0.3"
   fill="#FFFFFF"
   enable-background="new    "
   d="M20.59,5.924L5.305,5.945  C4.695,5.945,4,6.706,4,7.259v9.298c0,0.732,0.789,1.366,1.453,1.366h15.049c0.797,0,1.498-0.678,1.498-1.376V7.389  C22,6.613,21.311,5.924,20.59,5.924z M16.75,11.924l3.094,3.156l-0.688,0.688L16,12.611l-2.279,2.312h-1.438L10,12.611l-3.156,3.188  L6.156,15.08l3.125-3.157L5.156,7.768l0.688-0.688l0,0l6.844,6.844h0.599l6.875-6.844l0.688,0.688L16.75,11.924z" />
<path
   id="path5_24_"
   fill="#2EB5E9"
   fill-opacity="0.9529"
   d="M20.59,4.924L5.305,4.945C4.695,4.945,4,5.706,4,6.259v9.298  c0,0.732,0.789,1.366,1.453,1.366h15.049c0.797,0,1.498-0.678,1.498-1.376V6.389C22,5.613,21.311,4.924,20.59,4.924z M16.75,10.924  l3.094,3.156l-0.688,0.688L16,11.611l-2.279,2.312h-1.438L10,11.611l-3.156,3.188L6.156,14.08l3.125-3.157L5.156,6.768l0.688-0.688  l0,0l6.844,6.844h0.599l6.875-6.844l0.688,0.688L16.75,10.924z" />
<path
   id="path2997_3_"
   opacity="0.3"
   fill="#FFFFFF"
   enable-background="new    "
   d="M24.566,19.08L22.9,17.42l1.656-1.662  c-0.326-0.596-0.815-1.082-1.414-1.402l-1.652,1.658l-1.652-1.647c-0.591,0.321-1.072,0.81-1.396,1.396l1.666,1.646l-1.674,1.682  c0.322,0.598,0.812,1.086,1.406,1.41l1.686-1.691l1.688,1.662C23.786,20.139,24.254,19.662,24.566,19.08z" />
<linearGradient
   id="path2999_1_"
   gradientUnits="userSpaceOnUse"
   x1="-2489.4912"
   y1="2497.5049"
   x2="-2483.3564"
   y2="2497.5049"
   gradientTransform="matrix(0 -1 1 0 -2476.001 -2469.999)">
	<stop
   offset="0"
   style="stop-color:#413f3b;stop-opacity:1;"
   id="stop3054" />
	
	<stop
   offset="1"
   style="stop-color:#58564d;stop-opacity:1;"
   id="stop3058" />
</linearGradient>
<path
   id="path2999_3_"
   fill="url(#path2999_1_)"
   d="M23.154,13.357l-1.659,1.666l-1.662-1.656c-0.597,0.328-1.082,0.816-1.401,1.416  l1.657,1.65l-1.647,1.652c0.322,0.591,0.81,1.073,1.396,1.396l1.646-1.666l1.683,1.676c0.599-0.317,1.086-0.812,1.409-1.401  l-1.69-1.688l1.662-1.688C24.214,14.139,23.736,13.671,23.154,13.357z" />
<radialGradient
   id="path3783_1_"
   cx="3172.4238"
   cy="-3195.5771"
   r="4.618"
   gradientTransform="matrix(0.8669 0 0 -0.8669 -2728.6733 -2756.8184)"
   gradientUnits="userSpaceOnUse">
	<stop
   offset="0"
   style="stop-color:#FFFFFF"
   id="stop3062" />
	<stop
   offset="1"
   style="stop-color:#FFFFFF;stop-opacity:0"
   id="stop3064" />
</radialGradient>
<path
   id="path3783_3_"
   fill="url(#path3783_1_)"
   d="M19.844,13.361c-0.596,0.328-1.086,0.812-1.406,1.406l1.656,1.655l-0.5,0.5  c0.566,0.31,1.217,0.5,1.906,0.5s1.34-0.19,1.906-0.5l-0.531-0.53l1.656-1.688c-0.326-0.573-0.793-1.031-1.375-1.345L21.5,15.014  L19.844,13.361z" />
</svg>