<?xml version="1.0" encoding="UTF-8" standalone="no"?>
<!-- Created with Inkscape (http://www.inkscape.org/) -->
<svg
   xmlns:svg="http://www.w3.org/2000/svg"
   xmlns="http://www.w3.org/2000/svg"
   version="1.0"
   width="22"
   height="22"
   id="svg3208">
  <defs
     id="defs3210" />
  <path
     d="M 10.00107,15.061717 C 9.0244853,15.045416 8.1285638,15.860418 8.0426359,16.831449 C 7.9840131,17.410785 8.1621836,18.038882 8.6154306,18.426078 C 8.962727,18.773374 9.3100243,19.120671 9.6573203,19.467967 C 9.8979343,19.63252 10.134506,19.820327 10.421159,19.90413 C 11.146873,20.154321 11.99398,19.899089 12.491104,19.321683 C 12.86467,18.940993 13.25302,18.572852 13.618607,18.185507 C 14.136763,17.452292 14.076547,16.366881 13.45354,15.712203 C 13.046959,15.253557 12.424363,15.019432 11.8165,15.061717 C 11.211356,15.061717 10.606213,15.061717 10.00107,15.061717 z"
     id="path3205"
     style="opacity:0.6;fill:#eae3d0;fill-opacity:1;fill-rule:evenodd;stroke:none;stroke-width:1.69999993;stroke-linecap:round;stroke-linejoin:miter;marker:none;marker-start:none;marker-mid:none;marker-end:none;stroke-miterlimit:4;stroke-dasharray:none;stroke-dashoffset:0;stroke-opacity:1;visibility:visible;display:inline;overflow:visible;enable-background:accumulate" />
  <path
     d="M 6.7707888,14.479915 C 6.7707888,14.479915 7.789293,13.188913 10.909767,13.156007 C 13.991338,13.123507 15.170438,14.479915 15.170438,14.479915"
     id="path2412"
     style="opacity:0.6;fill:none;fill-opacity:1;fill-rule:nonzero;stroke:#eae3d0;stroke-width:3.5;stroke-linecap:round;stroke-linejoin:miter;marker:none;marker-start:none;marker-mid:none;marker-end:none;stroke-miterlimit:4;stroke-dasharray:none;stroke-dashoffset:0;stroke-opacity:1;visibility:visible;display:inline;overflow:visible;enable-background:accumulate" />
  <path
     d="M 4.0566101,11.483155 C 4.0566101,11.483155 6.2919817,9.0607699 10.980674,9.1469549 C 15.708257,9.2338549 17.904735,11.522061 17.904735,11.522061"
     id="path2410"
     style="opacity:0.6;fill:none;fill-opacity:1;fill-rule:nonzero;stroke:#eae3d0;stroke-width:3.5;stroke-linecap:round;stroke-linejoin:miter;marker:none;marker-start:none;marker-mid:none;marker-end:none;stroke-miterlimit:4;stroke-dasharray:none;stroke-dashoffset:0;stroke-opacity:1;visibility:visible;display:inline;overflow:visible;enable-background:accumulate" />
  <path
     d="M 6.7707888,14.479915 C 6.7707888,14.479915 7.789293,13.188913 10.909767,13.156007 C 13.991338,13.123507 15.170438,14.479915 15.170438,14.479915"
     id="path2406"
     style="fill:none;fill-opacity:1;fill-rule:nonzero;stroke:#3a3935;stroke-width:1.5;stroke-linecap:round;stroke-linejoin:miter;marker:none;marker-start:none;marker-mid:none;marker-end:none;stroke-miterlimit:4;stroke-dasharray:none;stroke-dashoffset:0;stroke-opacity:1;visibility:visible;display:inline;overflow:visible;enable-background:accumulate" />
  <path
     d="M 4.0566101,11.483155 C 4.0566101,11.483155 6.2919817,9.0607699 10.980674,9.1469549 C 15.708257,9.2338549 17.904735,11.522061 17.904735,11.522061"
     id="path2404"
     style="fill:none;fill-opacity:1;fill-rule:nonzero;stroke:#3a3935;stroke-width:1.5;stroke-linecap:round;stroke-linejoin:miter;marker:none;marker-start:none;marker-mid:none;marker-end:none;stroke-miterlimit:4;stroke-dasharray:none;stroke-dashoffset:0;stroke-opacity:1;visibility:visible;display:inline;overflow:visible;enable-background:accumulate" />
  <g
     id="g3184"
     style="opacity:0.4">
    <path
       d="M 1.1991225,8.4442631 C 1.1991225,8.4442631 4.3030052,5.0134829 10.980674,5.0134829 C 17.625514,5.0134829 20.800877,8.4500853 20.800877,8.4500853"
       id="path3192"
       style="opacity:0.6;fill:none;fill-opacity:1;fill-rule:nonzero;stroke:#eae3d0;stroke-width:3.5;stroke-linecap:round;stroke-linejoin:miter;marker:none;marker-start:none;marker-mid:none;marker-end:none;stroke-miterlimit:4;stroke-dasharray:none;stroke-dashoffset:0;stroke-opacity:1;visibility:visible;display:inline;overflow:visible;enable-background:accumulate" />
    <path
       d="M 1.1991225,8.4442631 C 1.1991225,8.4442631 4.3030052,5.0134829 10.980674,5.0134829 C 17.625514,5.0134829 20.800877,8.4500853 20.800877,8.4500853"
       id="path3209"
       style="fill:none;fill-opacity:1;fill-rule:nonzero;stroke:#3a3935;stroke-width:1.5;stroke-linecap:round;stroke-linejoin:miter;marker:none;marker-start:none;marker-mid:none;marker-end:none;stroke-miterlimit:4;stroke-dasharray:none;stroke-dashoffset:0;stroke-opacity:1;visibility:visible;display:inline;overflow:visible;enable-background:accumulate" />
  </g>
  <path
     d="M 10,16.030467 C 9.4479993,16.030467 8.9999998,16.478467 8.9999998,17.030467 C 8.9999998,17.235604 9.0618703,17.426379 9.1679593,17.585135 C 9.1679593,17.585135 10.346585,18.787293 10.346585,18.787293 C 10.521881,18.938795 10.7503,19.030467 11,19.030467 C 11.296299,19.030467 11.562634,18.901386 11.7458,18.696428 C 11.7458,18.696428 12.799623,17.630832 12.799623,17.630832 C 12.925419,17.463601 13,17.255691 13,17.030467 C 13,16.478467 12.552,16.030467 12,16.030467 C 12,16.030467 10,16.030467 10,16.030467 z"
     id="path3196"
     style="fill:#3a3935;fill-opacity:1;fill-rule:evenodd;stroke:none;stroke-width:1.69999993;stroke-linecap:round;stroke-linejoin:miter;marker:none;marker-start:none;marker-mid:none;marker-end:none;stroke-miterlimit:4;stroke-dasharray:none;stroke-dashoffset:0;stroke-opacity:1;visibility:visible;display:inline;overflow:visible;enable-background:accumulate" />
</svg>
