<?xml version="1.0" encoding="UTF-8" standalone="no"?>
<!-- Created with Inkscape (http://www.inkscape.org/) -->

<svg
   xmlns:dc="http://purl.org/dc/elements/1.1/"
   xmlns:cc="http://creativecommons.org/ns#"
   xmlns:rdf="http://www.w3.org/1999/02/22-rdf-syntax-ns#"
   xmlns:svg="http://www.w3.org/2000/svg"
   xmlns="http://www.w3.org/2000/svg"
   version="1.0"
   width="18"
   height="22"
   id="svg3187">
  <metadata
     id="metadata8">
    <rdf:RDF>
      <cc:Work
         rdf:about="">
        <dc:format>image/svg+xml</dc:format>
        <dc:type
           rdf:resource="http://purl.org/dc/dcmitype/StillImage" />
        <dc:title></dc:title>
      </cc:Work>
    </rdf:RDF>
  </metadata>
  <defs
     id="defs3189" />
  <path
     d="M 9,5 C 7.8736963,5 6.9192139,5.5937616 6.40625,6.46875 6.1174033,6.2628041 5.74855,6.15625 5.34375,6.15625 c -0.9200001,1e-7 -1.6874999,0.6176786 -1.6875,1.40625 10e-8,0.1771006 0.056173,0.3434552 0.125,0.5 C 2.7349115,8.4632321 2,9.388376 2,10.4375 c 0,1.3309 1.1786846,2.393857 2.6875,2.53125 0.3081974,-1.139343 1.4598135,-1.875001 2.65625,-1.875 0.2724575,0 0.5179291,0.148348 0.78125,0.21875 0.739399,-0.784372 1.701494,-1.375 2.875,-1.375 1.131647,0 2.146962,0.470581 2.875,1.21875 C 13.954138,10.925082 14,10.691191 14,10.4375 14,9.3091162 13.143764,8.34798 11.96875,8 11.97136,7.9511852 12,7.8931797 12,7.84375 12,6.2666071 10.656,5 9,5 z m 2,6 C 9.873696,11 8.908797,11.607154 8.395833,12.482142 8.106987,12.276196 7.7381333,12.142857 7.3333333,12.142857 c -0.9199999,0 -1.6666666,0.64 -1.6666667,1.428571 0,0.177101 0.03534,0.343454 0.1041667,0.499999 C 4.7244948,14.472159 4,15.379446 4,16.42857 4,17.853141 5.338,19 7,19 l 6,0 c 1.662,0 3,-1.146859 3,-2.57143 C 16,15.300186 15.15418,14.34798 13.979166,14 13.981776,13.951185 14,13.906572 14,13.857142 14,12.28 12.656,11 11,11 z"
     id="path2397-9"
     style="opacity:0.3;fill:#ffffff;fill-opacity:1;fill-rule:evenodd;stroke:none;stroke-width:4;marker:none;visibility:visible;display:inline;overflow:visible;enable-background:accumulate" />
  <path
     d="m 9,3.9999996 c -1.1263037,0 -2.0807861,0.5937616 -2.59375,1.46875 -0.2888467,-0.2059459 -0.6577,-0.3125 -1.0625,-0.3125 -0.9200001,1e-7 -1.6874999,0.6176786 -1.6875,1.40625 10e-8,0.1771006 0.056173,0.3434552 0.125,0.5 C 2.7349115,7.4632317 2,8.3883756 2,9.4374996 2,10.7684 3.1786846,11.831357 4.6875,11.96875 c 0.3081974,-1.139343 1.4598135,-1.875001 2.65625,-1.875 0.2724575,0 0.5179291,0.148348 0.78125,0.21875 C 8.864399,9.5281272 9.826494,8.9374996 11,8.9374996 c 1.131647,0 2.146962,0.4705811 2.875,1.2187504 C 13.954138,9.9250818 14,9.6911903 14,9.4374996 14,8.3091158 13.143764,7.3479796 11.96875,6.9999996 11.97136,6.9511848 12,6.8931793 12,6.8437496 12,5.2666067 10.656,3.9999996 9,3.9999996 z m 2,6 c -1.126304,0 -2.091203,0.6071544 -2.604167,1.4821424 -0.288846,-0.205946 -0.6576997,-0.339285 -1.0624997,-0.339285 -0.9199999,0 -1.6666666,0.64 -1.6666667,1.428571 0,0.177101 0.03534,0.343454 0.1041667,0.499999 C 4.7244948,13.472159 4,14.379446 4,15.42857 4,16.853141 5.338,18 7,18 l 6,0 c 1.662,0 3,-1.146859 3,-2.57143 C 16,14.300186 15.15418,13.34798 13.979166,13 13.981776,12.951185 14,12.906572 14,12.857142 14,11.28 12.656,9.9999996 11,9.9999996 z"
     id="path2397"
     style="fill:#3c3c3c;fill-opacity:1;fill-rule:evenodd;stroke:none;stroke-width:4;marker:none;visibility:visible;display:inline;overflow:visible;enable-background:accumulate" />
</svg>
