<?xml version="1.0" encoding="UTF-8" standalone="no"?>
<!-- Created with Inkscape (http://www.inkscape.org/) -->

<svg
   xmlns:dc="http://purl.org/dc/elements/1.1/"
   xmlns:cc="http://creativecommons.org/ns#"
   xmlns:rdf="http://www.w3.org/1999/02/22-rdf-syntax-ns#"
   xmlns:svg="http://www.w3.org/2000/svg"
   xmlns="http://www.w3.org/2000/svg"
   version="1.0"
   width="16"
   height="22"
   id="svg3187">
  <metadata
     id="metadata11">
    <rdf:RDF>
      <cc:Work
         rdf:about="">
        <dc:format>image/svg+xml</dc:format>
        <dc:type
           rdf:resource="http://purl.org/dc/dcmitype/StillImage" />
        <dc:title></dc:title>
      </cc:Work>
    </rdf:RDF>
  </metadata>
  <defs
     id="defs3189" />
  <path
     d="m 0.49999997,18.514 2.00000013,-4 m 2,4 1.9999999,-4 m 2,4 2,-4 m -8.017452,4 2.0000001,-4 m 1.9999999,4 2,-4 m 2,4 2,-4"
     id="path3350-8"
     style="opacity:0.3;fill:none;stroke:#ffffff;stroke-width:0.99999994px;stroke-linecap:round;stroke-linejoin:miter;stroke-opacity:1" />
  <path
     d="M 9,5 C 7.873696,5 6.908797,5.6071544 6.395833,6.4821428 6.106987,6.2761968 5.7381333,6.1428572 5.3333333,6.1428572 c -0.9199999,0 -1.6666666,0.64 -1.6666667,1.4285714 0,0.1771006 0.03534,0.3434536 0.1041667,0.4999984 C 2.7244948,8.472159 2,9.379446 2,10.42857 2,11.853141 3.338,13 5,13 l 6,0 c 1.662,0 3,-1.146859 3,-2.57143 C 14,9.300186 13.15418,8.34798 11.979166,8 11.981776,7.9511852 12,7.9065726 12,7.8571429 12,6.28 10.656,5 9,5 z"
     id="path2397-0"
     style="opacity:0.3;fill:#ffffff;fill-opacity:1;fill-rule:evenodd;stroke:none;stroke-width:4;marker:none;visibility:visible;display:inline;overflow:visible;enable-background:accumulate" />
  <path
     d="m 9,4.0001283 c -1.126304,0 -2.091203,0.6071544 -2.604167,1.4821428 C 6.106987,5.2763251 5.7381333,5.1429855 5.3333333,5.1429855 c -0.9199999,0 -1.6666666,0.64 -1.6666667,1.4285714 0,0.1771006 0.03534,0.3434536 0.1041667,0.4999984 C 2.7244948,7.4722873 2,8.3795743 2,9.4286983 2,10.853269 3.338,12.000128 5,12.000128 l 6,0 c 1.662,0 3,-1.146859 3,-2.5714297 0,-1.128384 -0.84582,-2.08059 -2.020834,-2.42857 C 11.981776,6.9513135 12,6.9067009 12,6.8572712 12,5.2801283 10.656,4.0001283 9,4.0001283 z"
     id="path2397"
     style="fill:#3c3c3c;fill-opacity:1;fill-rule:evenodd;stroke:none;stroke-width:4;marker:none;visibility:visible;display:inline;overflow:visible;enable-background:accumulate" />
  <path
     d="m 0.49999997,17.514 2.00000013,-4 m 2,4 1.9999999,-4 m 2,4 2,-4 m -8.017452,4 2.0000001,-4 m 1.9999999,4 2,-4 m 2,4 2,-4"
     id="path3350"
     style="fill:none;stroke:#3c3c3c;stroke-width:0.99999994px;stroke-linecap:round;stroke-linejoin:miter;stroke-opacity:1" />
</svg>
