<?xml version="1.0" encoding="UTF-8" standalone="no"?>
<!-- Created with Inkscape (http://www.inkscape.org/) -->

<svg
   xmlns:dc="http://purl.org/dc/elements/1.1/"
   xmlns:cc="http://creativecommons.org/ns#"
   xmlns:rdf="http://www.w3.org/1999/02/22-rdf-syntax-ns#"
   xmlns:svg="http://www.w3.org/2000/svg"
   xmlns="http://www.w3.org/2000/svg"
   version="1.0"
   width="16"
   height="22"
   id="svg3187">
  <metadata
     id="metadata8">
    <rdf:RDF>
      <cc:Work
         rdf:about="">
        <dc:format>image/svg+xml</dc:format>
        <dc:type
           rdf:resource="http://purl.org/dc/dcmitype/StillImage" />
        <dc:title></dc:title>
      </cc:Work>
    </rdf:RDF>
  </metadata>
  <defs
     id="defs3189" />
  <path
     d="M 9,5 C 7.873696,5 6.919214,5.5937616 6.40625,6.46875 6.117403,6.2628039 5.74855,6.15625 5.34375,6.15625 c -0.9200001,-1e-7 -1.6874999,0.6176786 -1.6875,1.40625 10e-8,0.1771007 0.056173,0.3434552 0.125,0.5 C 2.7349113,8.4632319 2,9.388376 2,10.4375 2,11.564587 2.8583589,12.494777 4.03125,12.84375 4.015394,12.72996 4,12.618157 4,12.5 4,11.119288 5.1192882,10 6.5,10 7.880712,10 9,11.119288 9,12.5 9,12.672589 8.9708,12.837256 8.9375,13 L 11,13 c 1.662,0 3,-1.137929 3,-2.5625 C 14,9.309116 13.143764,8.34798 11.96875,8 11.97135,7.951185 12,7.8931797 12,7.84375 12,6.2666071 10.656,5 9,5 z M 8.000001,15.5 c 0,0.828427 0.671573,1.5 1.499999,1.5 0.828429,0 1.500001,-0.671573 1.500001,-1.5 0,-0.828427 -0.671572,-1.5 -1.500001,-1.5 -0.828426,0 -1.499999,0.671573 -1.499999,1.5 l 0,0 z M 5,12.5 C 5,13.328427 5.6715729,14 6.5,14 7.328427,14 8,13.328427 8,12.5 8,11.671573 7.328427,11 6.5,11 5.6715729,11 5,11.671573 5,12.5 l 0,0 z m -1,5 C 4,18.328427 4.6715728,19 5.5,19 6.328427,19 7,18.328427 7,17.5 7,16.671573 6.328427,16 5.5,16 4.6715728,16 4,16.671573 4,17.5 l 0,0 z"
     id="path2397-5"
     style="opacity:0.3;fill:#ffffff;fill-opacity:1;fill-rule:evenodd;stroke:none;stroke-width:4;marker:none;visibility:visible;display:inline;overflow:visible;enable-background:accumulate" />
  <path
     d="m 9,4.0000001 c -1.126304,0 -2.080786,0.5937616 -2.59375,1.46875 -0.288847,-0.2059461 -0.6577,-0.3125 -1.0625,-0.3125 -0.9200001,-1e-7 -1.6874999,0.6176786 -1.6875,1.40625 10e-8,0.1771007 0.056173,0.3434552 0.125,0.5 C 2.7349113,7.463232 2,8.3883761 2,9.4375001 2,10.564587 2.8583589,11.494777 4.03125,11.84375 4.0153936,11.72996 4,11.618157 4,11.5 4,10.119288 5.1192882,9.0000001 6.5,9.0000001 7.880712,9.0000001 9,10.119288 9,11.5 9,11.672589 8.970802,11.837256 8.9375,12 L 11,12 c 1.662,0 3,-1.137929 3,-2.5624999 0,-1.128384 -0.856236,-2.08952 -2.03125,-2.4375 C 11.97136,6.9511853 12,6.8931798 12,6.8437501 12,5.2666072 10.656,4.0000001 9,4.0000001 z M 8.000001,14.5 c 0,0.828427 0.671573,1.5 1.499999,1.5 0.828429,0 1.500001,-0.671573 1.500001,-1.5 0,-0.828427 -0.671572,-1.5 -1.500001,-1.5 -0.828426,0 -1.499999,0.671573 -1.499999,1.5 l 0,0 z M 5,11.5 C 5,12.328427 5.6715729,13 6.5,13 7.328427,13 8,12.328427 8,11.5 8,10.671573 7.328427,10 6.5,10 5.6715729,10 5,10.671573 5,11.5 l 0,0 z m -1,5 C 4,17.328427 4.6715728,18 5.5,18 6.328427,18 7,17.328427 7,16.5 7,15.671573 6.328427,15 5.5,15 4.6715728,15 4,15.671573 4,16.5 l 0,0 z"
     id="path2397"
     style="fill:#3c3c3c;fill-opacity:1;fill-rule:evenodd;stroke:none;stroke-width:4;marker:none;visibility:visible;display:inline;overflow:visible;enable-background:accumulate" />
</svg>
