<?xml version="1.0" encoding="UTF-8" standalone="no"?>
<!-- Generator: Adobe Illustrator 14.0.0, SVG Export Plug-In . SVG Version: 6.00 Build 43363)  -->

<svg
   xmlns:dc="http://purl.org/dc/elements/1.1/"
   xmlns:cc="http://creativecommons.org/ns#"
   xmlns:rdf="http://www.w3.org/1999/02/22-rdf-syntax-ns#"
   xmlns:svg="http://www.w3.org/2000/svg"
   xmlns="http://www.w3.org/2000/svg"
   xmlns:sodipodi="http://sodipodi.sourceforge.net/DTD/sodipodi-0.dtd"
   xmlns:inkscape="http://www.inkscape.org/namespaces/inkscape"
   version="1.1"
   x="0px"
   y="0px"
   width="22px"
   height="22px"
   viewBox="0 0 22 22"
   enable-background="new 0 0 22 22"
   xml:space="preserve"
   id="svg2"
   inkscape:version="0.48.1 r9760"
   sodipodi:docname="power_cog_light.svg"><metadata
   id="metadata17"><rdf:RDF><cc:Work
       rdf:about=""><dc:format>image/svg+xml</dc:format><dc:type
         rdf:resource="http://purl.org/dc/dcmitype/StillImage" /><dc:title></dc:title></cc:Work></rdf:RDF></metadata><defs
   id="defs15" /><sodipodi:namedview
   pagecolor="#ffffff"
   bordercolor="#666666"
   borderopacity="1"
   objecttolerance="10"
   gridtolerance="10"
   guidetolerance="10"
   inkscape:pageopacity="0"
   inkscape:pageshadow="2"
   inkscape:window-width="840"
   inkscape:window-height="688"
   id="namedview13"
   showgrid="false"
   inkscape:zoom="13.090909"
   inkscape:cx="13.334442"
   inkscape:cy="4.1340744"
   inkscape:window-x="314"
   inkscape:window-y="37"
   inkscape:window-maximized="0"
   inkscape:current-layer="svg3194" />
<g
   id="Layer_3">
</g>
<g
   id="svg3194">
	
	<path
   d="M 10.008591,18 C 6.7925911,17.598 4.7895911,15.184 4.2005911,12.789 c -0.721,-2.928 0.537,-5.724 3.205,-7.121 0.465,-0.245 1.039,-0.064 1.282,0.4 0.244,0.465 0.064,1.039 -0.4,1.282 -2.265,1.187 -2.643,3.353 -2.241,4.985 0.41,1.665 1.764,3.343 3.937,3.736 M 15.924591,10.06 c -0.337,-1.088 -1.13,-2.04 -2.32,-2.728 -0.455,-0.262 -0.61,-0.843 -0.349,-1.297 0.264,-0.455 0.846,-0.61 1.298,-0.348 1.812,1.045 2.967,2.602 3.332,4.366 m -6.932,0.956 c -0.525,0 -0.95,-0.425 -0.95,-0.95 V 4.053 c 0,-0.525 0.425,-0.95 0.95,-0.95 0.525,0 0.95,0.425 0.95,0.95 v 6.006 c -0.001,0.525 -0.426,0.95 -0.95,0.95 l 0,0 z"
   id="path8"
   inkscape:connector-curvature="0"
   style="fill:#ffffff;fill-opacity:1;opacity:0.3" />
	<path
   d="M 20,16.109 V 14.89 h -1.031115 c -0.101011,-0.576 -0.348038,-1.107 -0.713079,-1.566 l 0.740082,-0.742 -0.863095,-0.861 -0.785088,0.785 C 16.969663,12.272 16.551617,12.11 16.110568,12.033 V 11 h -1.221136 v 1.034 c -0.441049,0.076 -0.858095,0.236 -1.236137,0.473 l -0.786088,-0.785 -0.862095,0.861 0.740082,0.74 c -0.366041,0.461 -0.613068,0.992 -0.714079,1.568 H 11 v 1.219 h 1.031115 c 0.07701,0.441 0.238026,0.859 0.474052,1.238 l -0.785087,0.785 0.862096,0.863 0.740082,-0.74 c 0.460051,0.365 0.99211,0.613 1.567174,0.713 V 20 h 1.221136 v -1.031 c 0.575064,-0.1 1.106123,-0.348 1.567174,-0.713 l 0.741082,0.74 0.862096,-0.865 -0.786087,-0.783 c 0.235026,-0.379 0.396044,-0.795 0.474052,-1.238 H 20 z m -4.5005,1.69 c -1.271141,0 -2.300256,-1.029 -2.300256,-2.299 0,-1.271 1.029115,-2.301 2.300256,-2.301 1.271141,0 2.300256,1.029 2.300256,2.301 -10e-4,1.27 -1.030115,2.299 -2.300256,2.299 z"
   id="path10"
   inkscape:connector-curvature="0"
   style="fill:#ffffff;fill-opacity:1;opacity:0.3" />
<path
   d="M 10.008591,17 C 6.7925912,16.598 4.7895911,14.184 4.2005911,11.789 c -0.721,-2.9279996 0.537,-5.7239996 3.2050001,-7.1209996 0.465,-0.245 1.039,-0.064 1.2819997,0.4 0.2439995,0.465 0.064,1.039 -0.3999997,1.282 -2.265,1.187 -2.643,3.353 -2.241,4.9849996 0.41,1.665 1.764,3.343 3.9369992,3.736 M 15.924591,9.0600004 c -0.337,-1.088 -1.13,-2.04 -2.32,-2.728 -0.455,-0.262 -0.61,-0.843 -0.349,-1.297 0.264,-0.455 0.846,-0.61 1.298,-0.348 1.812,1.045 2.967,2.602 3.332,4.366 m -6.932,0.9559996 c -0.525,0 -0.95,-0.4249996 -0.95,-0.9499996 v -6.006 c 0,-0.5249995 0.425,-0.9499995 0.95,-0.9499995 0.525,0 0.95,0.425 0.95,0.9499995 v 6.006 c -0.001,0.525 -0.426,0.9499996 -0.95,0.9499996 l 0,0 z"
   id="path8-3"
   inkscape:connector-curvature="0"
   style="fill:#3c3c3c" /><path
   d="M 20,15.109 V 13.89 h -1.031115 c -0.101011,-0.576 -0.348038,-1.107 -0.713079,-1.566 l 0.740082,-0.742 -0.863095,-0.861 -0.785088,0.785 C 16.969663,11.272 16.551617,11.11 16.110568,11.033 V 10 h -1.221136 v 1.034 c -0.441049,0.076 -0.858095,0.236 -1.236137,0.473 l -0.786088,-0.785 -0.862095,0.861 0.740082,0.74 c -0.366041,0.461 -0.613068,0.992 -0.714079,1.568 H 11 v 1.219 h 1.031115 c 0.07701,0.441 0.238026,0.859 0.474052,1.238 l -0.785087,0.785 0.862096,0.863 0.740082,-0.74 c 0.460051,0.365 0.99211,0.613 1.567174,0.713 V 19 h 1.221136 v -1.031 c 0.575064,-0.1 1.106123,-0.348 1.567174,-0.713 l 0.741082,0.74 0.862096,-0.865 -0.786087,-0.783 c 0.235026,-0.379 0.396044,-0.795 0.474052,-1.238 H 20 z m -4.5005,1.69 c -1.271141,0 -2.300256,-1.029 -2.300256,-2.299 0,-1.271 1.029115,-2.301 2.300256,-2.301 1.271141,0 2.300256,1.029 2.300256,2.301 -10e-4,1.27 -1.030115,2.299 -2.300256,2.299 z"
   id="path10-2"
   inkscape:connector-curvature="0"
   style="fill:#3c3c3c" /></g>
<g
   id="Layer_2">
</g>
</svg>