<?xml version="1.0" encoding="UTF-8" standalone="no"?>
<!-- Created with Inkscape (http://www.inkscape.org/) -->

<svg
   xmlns:dc="http://purl.org/dc/elements/1.1/"
   xmlns:cc="http://creativecommons.org/ns#"
   xmlns:rdf="http://www.w3.org/1999/02/22-rdf-syntax-ns#"
   xmlns:svg="http://www.w3.org/2000/svg"
   xmlns="http://www.w3.org/2000/svg"
   xmlns:sodipodi="http://sodipodi.sourceforge.net/DTD/sodipodi-0.dtd"
   xmlns:inkscape="http://www.inkscape.org/namespaces/inkscape"
   version="1.0"
   width="22"
   height="22"
   id="svg3194"
   inkscape:version="0.48.2 r9819"
   sodipodi:docname="system-devices-panel.svg">
  <sodipodi:namedview
     pagecolor="#ffffff"
     bordercolor="#666666"
     borderopacity="1"
     objecttolerance="10"
     gridtolerance="10"
     guidetolerance="10"
     inkscape:pageopacity="0"
     inkscape:pageshadow="2"
     inkscape:window-width="1400"
     inkscape:window-height="1026"
     id="namedview7"
     showgrid="true"
     inkscape:zoom="16.469695"
     inkscape:cx="6.960441"
     inkscape:cy="12"
     inkscape:window-x="0"
     inkscape:window-y="24"
     inkscape:window-maximized="1"
     inkscape:current-layer="svg3194">
    <inkscape:grid
       type="xygrid"
       id="grid2984"
       empspacing="5"
       visible="true"
       enabled="true"
       snapvisiblegridlinesonly="true" />
  </sodipodi:namedview>
  <metadata
     id="metadata8">
    <rdf:RDF>
      <cc:Work
         rdf:about="">
        <dc:format>image/svg+xml</dc:format>
        <dc:type
           rdf:resource="http://purl.org/dc/dcmitype/StillImage" />
        <dc:title></dc:title>
      </cc:Work>
    </rdf:RDF>
  </metadata>
  <defs
     id="defs3196" />
  <path
     inkscape:connector-curvature="0"
     style="opacity:0.3;fill:#3c3c3c;fill-opacity:1;fill-rule:nonzero;stroke:none;stroke-width:1;marker:none;visibility:visible;display:inline;overflow:visible;enable-background:accumulate"
     d="m 11,3.991601 c -0.554,0 -1,0.446 -1,1 l 0,6 c 0,0.554 0.446,1 1,1 0.554,0 1,-0.446 1,-1 l 0,-6 c 0,-0.554 -0.446,-1 -1,-1 z M 5.9375,5.835351 C 5.6610286,5.912352 5.4690908,6.2442648 5.25,6.429101 4.9705152,6.6567093 4.6644114,7.0719781 5,7.397851 5.1482377,7.5460887 5.4851741,8.373578 5.75,9.054101 5.5386628,9.432312 5.3761835,9.849832 5.25,10.272851 l -1.75,0.71875 -0.09375,0 -0.09375,0.03125 c -0.4381081,0.202371 -0.2802045,0.744174 -0.3125,1.125 -0.036682,0.358569 0.032276,0.850619 0.5,0.84375 0.2151484,0 1.0809882,0.35996 1.75,0.65625 0.120906,0.421032 0.2636373,0.841172 0.46875,1.21875 0.00426,0.0078 -0.0043,0.02342 0,0.03125 L 5,16.585351 l -0.0625,0.09375 -0.0625,0.0625 c -0.1666913,0.452887 0.3160517,0.707879 0.5625,1 0.2276083,0.279485 0.6428771,0.585588 0.96875,0.25 0.1482377,-0.148238 0.975727,-0.485174 1.65625,-0.75 0.3782111,0.211337 0.7957309,0.373817 1.21875,0.5 l 0.75,1.9375 c 0.202371,0.438108 0.744174,0.2802 1.125,0.3125 0.358569,0.03668 0.85065,-0.03228 0.84375,-0.5 l 0.71875,-1.75 c 0.399782,-0.119252 0.796211,-0.273165 1.15625,-0.46875 l 1.875,0.84375 c 0.452887,0.166692 0.707876,-0.316055 1,-0.5625 0.279489,-0.227608 0.585609,-0.642898 0.25,-0.96875 l -0.71875,-1.6875 0,-0.03125 c 0.195585,-0.360039 0.349498,-0.756468 0.46875,-1.15625 l 1.9375,-0.75 c 0.438108,-0.202371 0.2802,-0.744174 0.3125,-1.125 0.03668,-0.358569 -0.03228,-0.85065 -0.5,-0.84375 l -1.75,-0.71875 C 16.630748,9.873069 16.476835,9.47664 16.28125,9.116601 l 0.84375,-1.875 c 0.166692,-0.452887 -0.316055,-0.7078758 -0.5625,-1 -0.227608,-0.2794844 -0.642898,-0.5856098 -0.96875,-0.25 l -1.6875,0.71875 -0.03125,0 C 13.599263,6.5605616 13.303585,6.4394059 13,6.335351 l 0,3.4375 c 0.608906,0.549074 1,1.334282 1,2.21875 0,1.656854 -1.343146,3 -3,3 -1.656854,0 -3,-1.343146 -3,-3 0,-0.884468 0.3910945,-1.669676 1,-2.21875 l 0,-3.4375 c -0.3035063,0.098765 -0.6004765,0.2258699 -0.875,0.375 l -0.03125,0 L 6.40625,5.991601 6.3125,5.929101 6.25,5.866601 C 6.1367782,5.8249282 6.0296571,5.8096841 5.9375,5.835351 z"
     id="path2997-8" />
  <path
     style="fill:#3c3c3c;fill-opacity:1;fill-rule:nonzero;stroke:none;stroke-width:1;marker:none;visibility:visible;display:inline;overflow:visible;enable-background:accumulate"
     d="m 11,3 c -0.554,0 -1,0.446 -1,1 l 0,6 c 0,0.554 0.446,1 1,1 0.554,0 1,-0.446 1,-1 L 12,4 C 12,3.446 11.554,3 11,3 z M 5.9375,4.84375 C 5.6610286,4.9207508 5.4690908,5.2526638 5.25,5.4375 4.9705152,5.6651083 4.6644114,6.0803771 5,6.40625 5.1482377,6.5544877 5.4851741,7.381977 5.75,8.0625 5.5386628,8.4407111 5.3761835,8.8582309 5.25,9.28125 L 3.5,10 3.40625,10 3.3125,10.03125 C 2.8743919,10.233621 3.0322955,10.775424 3,11.15625 2.9633178,11.514819 3.0322761,12.006869 3.5,12 c 0.2151484,0 1.0809882,0.35996 1.75,0.65625 0.120906,0.421032 0.2636373,0.841172 0.46875,1.21875 0.00426,0.0078 -0.0043,0.02342 0,0.03125 L 5,15.59375 4.9375,15.6875 4.875,15.75 c -0.1666913,0.452887 0.3160517,0.707879 0.5625,1 0.2276083,0.279485 0.6428771,0.585588 0.96875,0.25 0.1482377,-0.148238 0.975727,-0.485174 1.65625,-0.75 0.3782111,0.211337 0.7957309,0.373817 1.21875,0.5 l 0.75,1.9375 c 0.202371,0.438108 0.744174,0.2802 1.125,0.3125 C 11.514819,19.03668 12.0069,18.96772 12,18.5 l 0.71875,-1.75 c 0.399782,-0.119252 0.796211,-0.273165 1.15625,-0.46875 L 15.75,17.125 c 0.452887,0.166692 0.707876,-0.316055 1,-0.5625 0.279489,-0.227608 0.585609,-0.642898 0.25,-0.96875 l -0.71875,-1.6875 0,-0.03125 c 0.195585,-0.360039 0.349498,-0.756468 0.46875,-1.15625 l 1.9375,-0.75 C 19.125608,11.766379 18.9677,11.224576 19,10.84375 19.036682,10.485181 18.967724,9.9931 18.5,10 L 16.75,9.28125 C 16.630748,8.8814679 16.476835,8.485039 16.28125,8.125 L 17.125,6.25 C 17.291692,5.797113 16.808945,5.5421242 16.5625,5.25 16.334892,4.9705156 15.919602,4.6643902 15.59375,5 l -1.6875,0.71875 -0.03125,0 C 13.599263,5.5689606 13.303585,5.4478049 13,5.34375 l 0,3.4375 c 0.608906,0.549074 1,1.334282 1,2.21875 0,1.656854 -1.343146,3 -3,3 C 9.343146,14 8,12.656854 8,11 8,10.115532 8.3910945,9.330324 9,8.78125 L 9,5.34375 C 8.6964937,5.442515 8.3995235,5.5696199 8.125,5.71875 l -0.03125,0 L 6.40625,5 6.3125,4.9375 6.25,4.875 C 6.1367782,4.8333272 6.0296571,4.8180831 5.9375,4.84375 z"
     id="path2997"
     inkscape:connector-curvature="0" />
</svg>
