<?xml version="1.0" encoding="UTF-8" standalone="no"?>
<!-- Created with Inkscape (http://www.inkscape.org/) -->
<svg
   xmlns:svg="http://www.w3.org/2000/svg"
   xmlns="http://www.w3.org/2000/svg"
   version="1.0"
   width="22"
   height="22"
   id="svg3215">
  <defs
     id="defs3217" />
  <g
     transform="translate(0,1.0000003)"
     id="g2385">
    <path
       d="M 12.5,3.0000003 C 10.810544,3.0000003 9.363196,4.0625204 8.59375,5.5937503 C 8.1604803,5.2333446 7.6072,5.0000004 7,5.0000003 C 5.6200001,5.0000003 4.5000001,6.1200005 4.5,7.5000003 C 4.5,7.8099277 4.5530097,8.1010428 4.65625,8.3750003 C 3.0867423,9.0762803 2,10.664032 2,12.5 C 2,14.993 4.007,17 6.5,17 L 15.5,17 C 17.993,17 20,14.993 20,12.5 C 20,10.525327 18.73127,8.8589673 16.96875,8.2500003 C 16.972663,8.1645743 17,8.0865008 17,8.0000003 C 17,5.2400003 14.984,3.0000003 12.5,3.0000003 z M 11,6.0000003 C 11.554,6.0000003 12,6.4460003 12,7.0000003 L 12,12 C 12,12.554 11.554,13 11,13 C 10.446,13 10,12.554 10,12 L 10,7.0000003 C 10,6.4460003 10.446,6.0000003 11,6.0000003 z M 10.5,14 L 11,14 L 11.5,14 C 11.777,14 12,14.223 12,14.5 L 12,15 L 12,15.5 C 12,15.777 11.777,16 11.5,16 L 11,16 L 10.5,16 C 10.223,16 10,15.777 10,15.5 L 10,15 L 10,14.5 C 10,14.223 10.223,14 10.5,14 z"
       id="rect3193"
       style="opacity:1;fill:#3a3935;fill-opacity:1;fill-rule:evenodd;stroke:none;stroke-width:4;stroke-linecap:butt;stroke-linejoin:miter;marker:none;marker-start:none;marker-mid:none;marker-end:none;stroke-miterlimit:4;stroke-dasharray:none;stroke-dashoffset:0;stroke-opacity:1;visibility:visible;display:inline;overflow:visible;enable-background:accumulate" />
    <path
       d="M 12.497397,2.4865523 C 10.821011,2.4681691 9.2836169,3.521021 8.4348969,4.9240523 C 6.9381419,3.9012487 4.7395395,4.7943512 4.1809223,6.4603595 C 3.7243904,7.2471625 4.5287463,8.2846226 3.4348038,8.5950805 C 1.5622183,9.9688853 0.94391695,12.717814 2.0456852,14.759752 C 2.9289165,16.543365 4.932622,17.635 6.9071969,17.486552 C 9.8984229,17.477169 12.890585,17.505555 15.881212,17.471929 C 18.360862,17.332859 20.484994,15.099636 20.495759,12.615289 C 20.578692,10.641726 19.290897,8.7601707 17.497397,7.9865523 C 17.551421,5.4608383 15.720212,2.8768413 13.13507,2.5311195 C 12.923904,2.5013613 12.710646,2.4865399 12.497397,2.4865523 z"
       id="path3203"
       style="opacity:0.6;fill:none;fill-opacity:1;fill-rule:nonzero;stroke:#eae3d0;stroke-width:0.99999994;stroke-linecap:round;stroke-linejoin:miter;marker:none;marker-start:none;marker-mid:none;marker-end:none;stroke-miterlimit:4;stroke-dasharray:none;stroke-dashoffset:0;stroke-opacity:1;visibility:visible;display:inline;overflow:visible;enable-background:accumulate" />
    <path
       d="M 10.997397,5.9865523 C 10.443397,5.9865523 9.9973969,6.4325523 9.9973969,6.9865523 L 9.9973969,11.986552 C 9.9973969,12.540552 10.443397,12.986552 10.997397,12.986552 C 11.551397,12.986552 11.997397,12.540552 11.997397,11.986552 L 11.997397,6.9865523 C 11.997397,6.4325523 11.551397,5.9865523 10.997397,5.9865523 z M 10.997397,13.986552 C 10.445397,13.986552 9.9973969,14.434552 9.9973969,14.986552 C 9.9973969,15.538552 10.445397,15.986552 10.997397,15.986552 C 11.549397,15.986552 11.997397,15.538552 11.997397,14.986552 C 11.997397,14.434552 11.549397,13.986552 10.997397,13.986552 z"
       id="path3271"
       style="opacity:1;fill:none;fill-opacity:1;fill-rule:nonzero;stroke:none;stroke-width:0.99999994;stroke-linecap:round;stroke-linejoin:miter;marker:none;marker-start:none;marker-mid:none;marker-end:none;stroke-miterlimit:4;stroke-dasharray:none;stroke-dashoffset:0;stroke-opacity:1;visibility:visible;display:inline;overflow:visible;enable-background:accumulate" />
  </g>
</svg>
