<?xml version="1.0" encoding="UTF-8" standalone="no"?>
<!-- Created with Inkscape (http://www.inkscape.org/) -->
<svg
   xmlns:dc="http://purl.org/dc/elements/1.1/"
   xmlns:cc="http://creativecommons.org/ns#"
   xmlns:rdf="http://www.w3.org/1999/02/22-rdf-syntax-ns#"
   xmlns:svg="http://www.w3.org/2000/svg"
   xmlns="http://www.w3.org/2000/svg"
   xmlns:sodipodi="http://sodipodi.sourceforge.net/DTD/sodipodi-0.dtd"
   xmlns:inkscape="http://www.inkscape.org/namespaces/inkscape"
   version="1.0"
   width="22"
   height="22"
   id="svg2816"
   style="display:inline"
   sodipodi:version="0.32"
   inkscape:version="0.46"
   sodipodi:docname="user-available-panel.svg"
   inkscape:output_extension="org.inkscape.output.svg.inkscape">
  <metadata
     id="metadata7">
    <rdf:RDF>
      <cc:Work
         rdf:about="">
        <dc:format>image/svg+xml</dc:format>
        <dc:type
           rdf:resource="http://purl.org/dc/dcmitype/StillImage" />
      </cc:Work>
    </rdf:RDF>
  </metadata>
  <sodipodi:namedview
     inkscape:window-height="706"
     inkscape:window-width="640"
     inkscape:pageshadow="2"
     inkscape:pageopacity="0.0"
     guidetolerance="10.0"
     gridtolerance="10.0"
     objecttolerance="10.0"
     borderopacity="1.0"
     bordercolor="#666666"
     pagecolor="#ffffff"
     id="base"
     showgrid="false"
     inkscape:zoom="10.375"
     inkscape:cx="12"
     inkscape:cy="12"
     inkscape:window-x="399"
     inkscape:window-y="51"
     inkscape:current-layer="svg2816" />
  <defs
     id="defs2818">
    <inkscape:perspective
       sodipodi:type="inkscape:persp3d"
       inkscape:vp_x="0 : 12 : 1"
       inkscape:vp_y="0 : 1000 : 0"
       inkscape:vp_z="24 : 12 : 1"
       inkscape:persp3d-origin="12 : 8 : 1"
       id="perspective9" />
  </defs>
  <path
     d="M 12.4,3.0315 C 9.851764,3.0315 7.5352076,3.8031059 5.80625,5.12525 C 4.0772924,6.4473941 2.9312499,8.3604148 2.93125,10.50025 C 2.93125,10.936671 3.0279529,11.323407 3.11875,11.719 L 0.275,14.1565 C -0.029519076,14.417743 -0.14351193,14.83852 -0.012504499,15.217752 C 0.11850293,15.596984 0.46791211,15.857676 0.86875,15.87525 L 6.0875,15.969 C 7.7895944,17.191836 9.95847,17.969 12.4,17.969 C 14.948236,17.969 17.264792,17.197394 18.99375,15.87525 C 20.722708,14.553106 21.868751,12.640086 21.86875,10.50025 C 21.86875,8.3604147 20.722708,6.4473941 18.99375,5.12525 C 17.264792,3.8031059 14.948236,3.0314999 12.4,3.0315 z"
     id="path3189"
     style="opacity:0.6;fill:#eae3d0;fill-opacity:1;fill-rule:evenodd;stroke:none;stroke-width:1.69999993;stroke-linecap:round;stroke-linejoin:miter;marker:none;marker-start:none;marker-mid:none;marker-end:none;stroke-miterlimit:4;stroke-dasharray:none;stroke-dashoffset:0;stroke-opacity:1;visibility:visible;display:inline;overflow:visible;enable-background:accumulate" />
  <path
     d="M 12.4,4.00025 C 7.7079998,4.00025 3.8999999,6.9122503 3.9,10.50025 C 3.9,11.050588 4.0126247,11.583538 4.18125,12.094 L 0.9,14.9065 L 6.275,15.00025 C 7.8221381,16.23242 9.991504,17.00025 12.4,17.00025 C 17.092,17.00025 20.900001,14.08825 20.9,10.50025 C 20.9,6.9122501 17.092,4.0002499 12.4,4.00025 z"
     id="path2396"
     style="opacity:1;fill:#3a3935;fill-opacity:1;fill-rule:evenodd;stroke:none;stroke-width:1;stroke-linecap:butt;stroke-linejoin:miter;marker:none;marker-start:none;marker-mid:none;marker-end:none;stroke-miterlimit:4;stroke-dasharray:none;stroke-dashoffset:0;stroke-opacity:1;visibility:visible;display:inline;overflow:visible;enable-background:accumulate" />
</svg>
