<?xml version="1.0" encoding="UTF-8" standalone="no"?>
<!-- Created with Inkscape (http://www.inkscape.org/) -->

<svg
   xmlns:dc="http://purl.org/dc/elements/1.1/"
   xmlns:cc="http://creativecommons.org/ns#"
   xmlns:rdf="http://www.w3.org/1999/02/22-rdf-syntax-ns#"
   xmlns:svg="http://www.w3.org/2000/svg"
   xmlns="http://www.w3.org/2000/svg"
   version="1.1"
   width="20"
   height="22"
   id="svg3795">
  <defs
     id="defs3797" />
  <metadata
     id="metadata3800">
    <rdf:RDF>
      <cc:Work
         rdf:about="">
        <dc:format>image/svg+xml</dc:format>
        <dc:type
           rdf:resource="http://purl.org/dc/dcmitype/StillImage" />
        <dc:title></dc:title>
      </cc:Work>
    </rdf:RDF>
  </metadata>
  <g
     transform="translate(-1,6)"
     id="layer1">
    <g
       id="g2984"
       style="opacity:0.4">
      <path
         d="M 10.5,-1 C 6.36,-1 3.0000001,2.3599999 3,6.5 c 0,4.14 3.3600001,7.5 7.5,7.5 1.964788,0 3.756106,-0.76222 5.09375,-2 L 21,12 17.65625,8.65625 C 17.864192,7.968633 18,7.255184 18,6.5 18,2.36 14.64,-0.9999999 10.5,-1 z"
         id="path2396-2"
         style="opacity:0.3;fill:#ffffff;fill-opacity:1;fill-rule:evenodd;stroke:none;stroke-width:1;marker:none;visibility:visible;display:inline;overflow:visible;enable-background:accumulate" />
      <path
         d="M 10.5,-2 C 6.36,-2 3.0000001,1.3599999 3,5.5 3,9.64 6.3600001,13 10.5,13 c 1.964788,0 3.756106,-0.76222 5.09375,-2 L 21,11 17.65625,7.65625 C 17.864192,6.968633 18,6.255184 18,5.5 18,1.36 14.64,-1.9999999 10.5,-2 z"
         id="path2396"
         style="fill:#3c3c3c;fill-opacity:1;fill-rule:evenodd;stroke:none;stroke-width:1;marker:none;visibility:visible;display:inline;overflow:visible;enable-background:accumulate" />
    </g>
  </g>
</svg>
