<?xml version="1.0" encoding="UTF-8" standalone="no"?>
<!-- Created with Inkscape (http://www.inkscape.org/) -->
<svg
   xmlns:svg="http://www.w3.org/2000/svg"
   xmlns="http://www.w3.org/2000/svg"
   version="1.0"
   width="22"
   height="22"
   id="svg2816"
   style="display:inline">
  <defs
     id="defs2818" />
  <g
     transform="translate(-1,0)"
     id="g3174"
     style="opacity:0.4">
    <path
       d="M 10.633508,4 C 12.956963,4 15.069175,4.7748344 16.645621,6.1025105 C 18.222067,7.4301865 19.267017,9.3512115 19.267017,11.5 C 19.267017,11.938247 19.178844,12.326601 19.096056,12.723849 L 21.688958,15.171548 C 21.966615,15.433884 22.070552,15.856422 21.9511,16.237241 C 21.83165,16.618059 21.513062,16.879842 21.147582,16.89749 L 16.38918,16.991632 C 14.837228,18.219584 12.85967,19 10.633508,19 C 8.310053,19 6.1978412,18.225166 4.6213952,16.89749 C 3.0449492,15.569814 1.9999991,13.648789 2,11.5 C 2,9.3512114 3.0449492,7.4301865 4.6213952,6.1025105 C 6.1978412,4.7748344 8.310053,3.9999999 10.633508,4 z"
       id="path3189"
       style="opacity:0.6;fill:#eae3d0;fill-opacity:1;fill-rule:evenodd;stroke:none;stroke-width:1.69999993;stroke-linecap:round;stroke-linejoin:miter;marker:none;marker-start:none;marker-mid:none;marker-end:none;stroke-miterlimit:4;stroke-dasharray:none;stroke-dashoffset:0;stroke-opacity:1;visibility:visible;display:inline;overflow:visible;enable-background:accumulate" />
    <path
       d="M 10.65,5 C 14.8728,5 18.3,7.9120003 18.3,11.5 C 18.3,12.050338 18.198637,12.583288 18.046875,13.09375 L 21,15.90625 L 16.1625,16 C 14.770076,17.23217 12.817646,18 10.65,18 C 6.4272,18 2.9999991,15.088 3,11.5 C 3,7.9120001 6.4272,4.9999999 10.65,5 z"
       id="path2396"
       style="fill:#3a3935;fill-opacity:1;fill-rule:evenodd;stroke:none;stroke-width:1;stroke-linecap:butt;stroke-linejoin:miter;marker:none;marker-start:none;marker-mid:none;marker-end:none;stroke-miterlimit:4;stroke-dasharray:none;stroke-dashoffset:0;stroke-opacity:1;visibility:visible;display:inline;overflow:visible;enable-background:accumulate" />
  </g>
</svg>
