<?xml version="1.0" encoding="UTF-8" standalone="no"?>
<!-- Created with Inkscape (http://www.inkscape.org/) -->
<svg
   xmlns:dc="http://purl.org/dc/elements/1.1/"
   xmlns:cc="http://creativecommons.org/ns#"
   xmlns:rdf="http://www.w3.org/1999/02/22-rdf-syntax-ns#"
   xmlns:svg="http://www.w3.org/2000/svg"
   xmlns="http://www.w3.org/2000/svg"
   xmlns:sodipodi="http://sodipodi.sourceforge.net/DTD/sodipodi-0.dtd"
   xmlns:inkscape="http://www.inkscape.org/namespaces/inkscape"
   version="1.0"
   width="22"
   height="22"
   id="svg3195"
   sodipodi:version="0.32"
   inkscape:version="0.46"
   sodipodi:docname="user-idle.svg"
   inkscape:output_extension="org.inkscape.output.svg.inkscape">
  <metadata
     id="metadata10">
    <rdf:RDF>
      <cc:Work
         rdf:about="">
        <dc:format>image/svg+xml</dc:format>
        <dc:type
           rdf:resource="http://purl.org/dc/dcmitype/StillImage" />
      </cc:Work>
    </rdf:RDF>
  </metadata>
  <sodipodi:namedview
     inkscape:window-height="706"
     inkscape:window-width="640"
     inkscape:pageshadow="2"
     inkscape:pageopacity="0.0"
     guidetolerance="10.0"
     gridtolerance="10.0"
     objecttolerance="10.0"
     borderopacity="1.0"
     bordercolor="#666666"
     pagecolor="#ffffff"
     id="base"
     showgrid="false"
     inkscape:zoom="7.3362329"
     inkscape:cx="12"
     inkscape:cy="12"
     inkscape:window-x="399"
     inkscape:window-y="51"
     inkscape:current-layer="svg3195" />
  <defs
     id="defs3197">
    <inkscape:perspective
       sodipodi:type="inkscape:persp3d"
       inkscape:vp_x="0 : 12 : 1"
       inkscape:vp_y="0 : 1000 : 0"
       inkscape:vp_z="24 : 12 : 1"
       inkscape:persp3d-origin="12 : 8 : 1"
       id="perspective12" />
  </defs>
  <g
     id="layer1"
     transform="translate(-3.8934363e-2,-0.99975)">
    <path
       d="M 12.5,4.03125 C 9.951764,4.03125 7.6352076,4.8028559 5.90625,6.125 C 4.1772924,7.4471441 3.0312499,9.3601648 3.03125,11.5 C 3.03125,11.936421 3.1279529,12.323157 3.21875,12.71875 L 0.375,15.15625 C 0.070480924,15.417493 -0.037257427,15.839518 0.09375,16.21875 C 0.22475743,16.597981 0.56791211,16.857426 0.96875,16.875 L 6.1875,16.96875 C 7.8895944,18.191586 10.05847,18.96875 12.5,18.96875 C 15.048236,18.96875 17.364792,18.197144 19.09375,16.875 C 20.822708,15.552856 21.968751,13.639836 21.96875,11.5 C 21.96875,9.3601647 20.822708,7.4471441 19.09375,6.125 C 17.364792,4.8028559 15.048236,4.0312499 12.5,4.03125 z M 12.5,7 C 14.984,7 17,9.016 17,11.5 C 17,13.984 14.984,16 12.5,16 C 10.016,16 8,13.984 8,11.5 C 7.9999998,9.016 10.016,7 12.5,7 z"
       id="path3189"
       style="opacity:0.6;fill:#eae3d0;fill-opacity:1;fill-rule:evenodd;stroke:none;stroke-width:1.69999993;stroke-linecap:round;stroke-linejoin:miter;marker:none;marker-start:none;marker-mid:none;marker-end:none;stroke-miterlimit:4;stroke-dasharray:none;stroke-dashoffset:0;stroke-opacity:1;visibility:visible;display:inline;overflow:visible;enable-background:accumulate" />
    <path
       d="M 12.5,5 C 7.8079998,5 3.9999999,7.9120003 4,11.5 C 4,12.050338 4.1126247,12.583288 4.28125,13.09375 L 1,15.90625 L 6.375,16 C 7.9221381,17.23217 10.091504,18 12.5,18 C 17.192,18 21.000001,15.088 21,11.5 C 21,7.9120001 17.192,4.9999999 12.5,5 z M 12.5,7 C 14.984,7 17,9.016 17,11.5 C 17,13.984 14.984,16 12.5,16 C 10.016,16 8,13.984 8,11.5 C 7.9999998,9.016 10.016,7 12.5,7 z"
       id="path2396"
       style="opacity:1;fill:#3a3935;fill-opacity:1;fill-rule:evenodd;stroke:none;stroke-width:1;stroke-linecap:butt;stroke-linejoin:miter;marker:none;marker-start:none;marker-mid:none;marker-end:none;stroke-miterlimit:4;stroke-dasharray:none;stroke-dashoffset:0;stroke-opacity:1;visibility:visible;display:inline;overflow:visible;enable-background:accumulate" />
    <path
       d="M 14.262048,11.5 L 12.5,11.5 L 12.5,9.0000012"
       id="path2817"
       style="opacity:1;fill:none;stroke:#3a3935;stroke-width:1px;stroke-linecap:round;stroke-linejoin:round;stroke-opacity:1;display:inline" />
    <path
       d="M 15.790577,11.937173 C 15.790903,13.857388 14.234352,15.414202 12.314137,15.414202 C 10.393922,15.414202 8.837372,13.857388 8.8376977,11.937173 C 8.837372,10.016958 10.393922,8.4601437 12.314137,8.4601437 C 14.234352,8.4601437 15.790903,10.016958 15.790577,11.937173 z"
       transform="matrix(1.2225151,0,0,1.2225151,-2.5542189,-3.0933742)"
       id="path3208"
       style="opacity:0.3;fill:none;fill-opacity:1;fill-rule:evenodd;stroke:#000000;stroke-width:0.40899292;stroke-linecap:round;stroke-linejoin:miter;marker:none;marker-start:none;marker-mid:none;marker-end:none;stroke-miterlimit:4;stroke-dasharray:none;stroke-dashoffset:0;stroke-opacity:1;visibility:visible;display:inline;overflow:visible;enable-background:accumulate" />
  </g>
</svg>
