<?xml version="1.0" encoding="UTF-8" standalone="no"?>
<!-- Created with Inkscape (http://www.inkscape.org/) -->
<svg
   xmlns:svg="http://www.w3.org/2000/svg"
   xmlns="http://www.w3.org/2000/svg"
   version="1.0"
   width="22"
   height="22"
   id="svg3187">
  <defs
     id="defs3189" />
  <path
     d="M 13.28121,5.0313727 C 13.078979,5.0669902 12.893103,5.1653953 12.74996,5.3126227 L 5.7499597,12.312623 C 5.4794675,12.592727 5.4010403,13.006667 5.5503237,13.366304 C 5.699607,13.725942 6.0481194,13.962661 6.4374597,13.968873 L 8.8749597,13.968873 L 6.5624597,18.562623 C 6.260429,19.011354 6.3793533,19.619967 6.8280847,19.921998 C 7.2768161,20.224029 7.885429,20.105104 8.1874597,19.656373 L 15.18746,11.656373 C 15.444454,11.365978 15.505468,10.951115 15.342965,10.599024 C 15.180461,10.246933 14.825177,10.024209 14.43746,10.031373 L 12.87496,10.031373 L 14.34371,6.3751227 C 14.482267,6.0466149 14.430958,5.668723 14.209823,5.3890533 C 13.988689,5.1093837 13.632816,4.9723095 13.28121,5.0313727 z"
     id="path3532"
     style="opacity:0.6;fill:#eae3d0;fill-opacity:1;fill-rule:evenodd;stroke:none" />
  <path
     d="M 12.024667,3.5002647 C 10.877646,3.4892448 9.8257266,4.1203802 9.2450132,4.9614318 C 8.2208996,4.3483089 6.7165661,4.8836821 6.3343476,5.8823761 C 6.0219782,6.3540277 6.5723367,6.9759367 5.8238365,7.162041 C 4.5425712,7.985572 4.1195154,9.633426 4.8733701,10.857472 C 5.477697,11.926666 6.8486775,12.58105 8.1997263,12.492061 C 10.246391,12.486438 12.293696,12.503453 14.33995,12.483297 C 16.036583,12.39993 17.489962,11.061218 17.497328,9.571969 C 17.554072,8.38891 16.672934,7.261006 15.44578,6.7972575 C 15.482745,5.2832099 14.22979,3.7342246 12.460978,3.5269806 C 12.316493,3.509142 12.170577,3.5002572 12.024667,3.5002647 z"
     id="path2395"
     style="opacity:0.6;fill:none;fill-opacity:1;fill-rule:nonzero;stroke:#eae3d0;stroke-width:0.99999982;stroke-linecap:round;stroke-linejoin:miter;marker:none;marker-start:none;marker-mid:none;marker-end:none;stroke-miterlimit:4;stroke-dasharray:none;stroke-dashoffset:0;stroke-opacity:1;visibility:visible;display:inline;overflow:visible;enable-background:accumulate" />
  <path
     d="M 11.99996,4.0001227 C 10.873656,4.0001227 9.9191736,4.5938843 9.4062097,5.4688727 C 9.1173633,5.2629266 8.7485097,5.1563727 8.3437097,5.1563727 C 7.4237099,5.1563726 6.6562098,5.7740513 6.6562097,6.5626227 C 6.6562096,6.7397234 6.7123828,6.9060779 6.7812097,7.0626227 C 5.7348713,7.4633546 4.9999597,8.3884987 4.9999597,9.4376227 C 4.9999597,10.37874 5.5892002,11.155503 6.4687097,11.593873 L 12.74996,5.3126227 C 12.893103,5.1653953 13.078979,5.0669902 13.28121,5.0313727 C 13.632816,4.9723095 13.997576,5.0954531 14.21871,5.3751227 C 14.439844,5.6547924 14.482267,6.0466149 14.34371,6.3751227 L 12.87496,10.031373 L 14.43746,10.031373 C 14.825177,10.024209 15.181206,10.241782 15.34371,10.593873 C 15.506214,10.945964 15.444454,11.365978 15.18746,11.656373 L 15.03121,11.843873 C 16.17331,11.483377 16.99996,10.545855 16.99996,9.4376227 C 16.99996,8.3092387 16.143724,7.3481027 14.96871,7.0001227 C 14.97132,6.9513079 14.99996,6.8933024 14.99996,6.8438727 C 14.99996,5.2667298 13.65596,4.0001227 11.99996,4.0001227 z"
     id="path2397"
     style="fill:#3a3935;fill-opacity:1;fill-rule:evenodd;stroke:none;stroke-width:4;stroke-linecap:butt;stroke-linejoin:miter;marker:none;marker-start:none;marker-mid:none;marker-end:none;stroke-miterlimit:4;stroke-dasharray:none;stroke-dashoffset:0;stroke-opacity:1;visibility:visible;display:inline;overflow:visible;enable-background:accumulate" />
  <path
     d="M 13.43746,6.0001227 L 6.4374597,13.000123 L 10.43746,13.000123 L 7.4374597,19.000123 L 14.43746,11.000123 L 11.43746,11.000123 L 13.43746,6.0001227 z"
     id="path3528"
     style="fill:#3a3935;fill-opacity:1;fill-rule:evenodd;stroke:none" />
</svg>
