<?xml version="1.0" encoding="UTF-8" standalone="no"?>
<!-- Created with Inkscape (http://www.inkscape.org/) -->
<svg
   xmlns:svg="http://www.w3.org/2000/svg"
   xmlns="http://www.w3.org/2000/svg"
   version="1.0"
   width="22"
   height="22"
   id="svg3186">
  <defs
     id="defs3188" />
  <path
     d="M 11,4.9999993 C 9.4490246,5.2603295 8.0385869,6.182392 7.125,7.4687493 C 6.2115131,8.7551069 5.8347702,10.409877 6.09375,11.968749 C 6.1731793,12.446851 6.3080346,12.89936 6.5,13.343749 C 6.5431454,13.314878 6.5810403,13.277744 6.625,13.249999 C 6.6250001,12.523617 7.0250789,11.904435 7.53125,11.531249 C 8.0374211,11.158064 8.6750457,10.968749 9.34375,10.968749 C 9.6369896,10.968749 9.8815455,11.112634 10.15625,11.187499 C 10.468398,10.889795 10.83353,10.64186 11.21875,10.437499 C 11.058596,10.313484 10.92724,10.199137 10.84375,10.124999 C 9.6654774,9.0784367 12.551076,4.7396692 11,4.9999993 z"
     id="path2876-6-6-4"
     style="fill:#3a3935;fill-opacity:1;stroke:none;stroke-width:2;stroke-linecap:round;stroke-miterlimit:4;stroke-dasharray:none;stroke-dashoffset:0;stroke-opacity:1;display:inline" />
  <path
     d="M 10.896943,4.5121498 C 9.2068308,4.7957943 7.6985879,5.8077712 6.7108105,7.198396 C 5.7189147,8.5949722 5.3053163,10.380774 5.5861778,12.071122 C 5.8663082,13.757048 6.8194262,15.290192 8.2103208,16.287903 C 9.6035868,17.287304 11.400091,17.694937 13.083729,17.412379 C 14.766503,17.129984 16.308065,16.155396 17.301102,14.757368 C 17.384583,14.639851 17.4574,14.511805 17.48854,14.351307 C 17.519681,14.190809 17.487005,14.000785 17.394821,13.851541 C 17.210452,13.553052 16.94194,13.49822 16.707546,13.44548 C 16.238757,13.34 15.658719,13.334017 15.051836,13.320538 C 14.444954,13.30706 13.832473,13.263462 13.396127,13.164361 C 13.177954,13.11481 13.012953,13.067875 12.92753,13.008184 C 12.842107,12.948494 12.84327,12.90894 12.833811,12.852007 L 12.802571,12.852007 C 12.808028,11.841145 12.504462,11.081308 12.115295,10.603057 C 11.707738,10.102206 11.232237,9.8077652 11.178101,9.7597006 C 11.085279,9.6772657 11.013094,9.4026486 11.084382,8.9163442 C 11.155671,8.4300399 11.331914,7.8201313 11.521739,7.2296315 C 11.711565,6.6391317 11.915476,6.1012729 11.959096,5.6053895 C 11.980907,5.3574478 11.969066,5.0876228 11.771658,4.824504 C 11.574249,4.5613852 11.188933,4.4631495 10.896943,4.5121498 z"
     id="path3184"
     style="opacity:0.6;fill:none;fill-opacity:1;fill-rule:nonzero;stroke:#eae3d0;stroke-width:1.00000012;stroke-linecap:round;stroke-linejoin:miter;marker:none;marker-start:none;marker-mid:none;marker-end:none;stroke-miterlimit:4;stroke-dasharray:none;stroke-dashoffset:0;stroke-opacity:1;visibility:visible;display:inline;overflow:visible;enable-background:accumulate" />
  <path
     d="M 13.024748,10.500126 C 11.877727,10.490331 10.825808,11.05134 10.245094,11.798941 C 9.2209806,11.253943 7.7166471,11.72983 7.3344286,12.617558 C 7.0220592,13.036804 7.5724177,13.589612 6.8239175,13.755038 C 5.5426522,14.487066 5.1195964,15.951825 5.8734511,17.039866 C 6.477778,17.99026 7.8487585,18.571935 9.1998073,18.492834 C 11.246472,18.487835 13.293777,18.50296 15.340031,18.485043 C 17.036664,18.410939 18.490043,17.220973 18.497409,15.897196 C 18.554153,14.845588 17.673015,13.843007 16.445861,13.430786 C 16.482826,12.084966 15.229871,10.70809 13.461059,10.523874 C 13.316574,10.508017 13.170658,10.500119 13.024748,10.500126 z"
     id="path3203"
     style="opacity:0.6;fill:none;fill-opacity:1;fill-rule:nonzero;stroke:#eae3d0;stroke-width:0.99999982;stroke-linecap:round;stroke-linejoin:miter;marker:none;marker-start:none;marker-mid:none;marker-end:none;stroke-miterlimit:4;stroke-dasharray:none;stroke-dashoffset:0;stroke-opacity:1;visibility:visible;display:inline;overflow:visible;enable-background:accumulate" />
  <path
     d="M 13,10.999999 C 11.873696,10.999999 10.908797,11.531259 10.395833,12.296874 C 10.106987,12.116672 9.7381333,11.999999 9.3333333,11.999999 C 8.4133334,11.999999 7.6666667,12.559999 7.6666666,13.249999 C 7.6666666,13.404962 7.7020064,13.550521 7.7708333,13.687498 C 6.7244948,14.038139 6,14.832014 6,15.749998 C 6,16.996498 7.338,17.999999 9,17.999999 L 15,17.999999 C 16.662,17.999999 18,16.996498 18,15.749998 C 18,14.762662 17.15418,13.929482 15.979166,13.624999 C 15.981776,13.582286 16,13.54325 16,13.499999 C 16,12.119999 14.656,10.999999 13,10.999999 z"
     id="rect3193"
     style="fill:#3a3935;fill-opacity:1;fill-rule:evenodd;stroke:none;stroke-width:4;stroke-linecap:butt;stroke-linejoin:miter;marker:none;marker-start:none;marker-mid:none;marker-end:none;stroke-miterlimit:4;stroke-dasharray:none;stroke-dashoffset:0;stroke-opacity:1;visibility:visible;display:inline;overflow:visible;enable-background:accumulate" />
</svg>
