<?xml version="1.0" encoding="UTF-8" standalone="no"?>
<!-- Created with Inkscape (http://www.inkscape.org/) -->
<svg
   xmlns:svg="http://www.w3.org/2000/svg"
   xmlns="http://www.w3.org/2000/svg"
   version="1.0"
   width="22"
   height="22"
   id="svg3187">
  <defs
     id="defs3189" />
  <path
     d="M 15.9497,15.949748 L 15.384101,15.384049"
     id="path2480"
     style="opacity:0.6;fill:none;stroke:#eae3d0;stroke-width:4;stroke-linecap:round;stroke-linejoin:miter;marker:none;stroke-miterlimit:4;stroke-dasharray:none;stroke-dashoffset:0;stroke-opacity:1;visibility:visible;display:inline;overflow:visible;enable-background:accumulate" />
  <path
     d="M 15.454801,6.5452291 L 15.9497,6.050249"
     id="path2476"
     style="opacity:0.6;fill:none;stroke:#eae3d0;stroke-width:4;stroke-linecap:round;stroke-linejoin:miter;marker:none;stroke-miterlimit:4;stroke-dasharray:none;stroke-dashoffset:0;stroke-opacity:1;visibility:visible;display:inline;overflow:visible;enable-background:accumulate" />
  <path
     d="M 6.6159,6.6159291 L 6.0503,6.050249"
     id="path2474"
     style="opacity:0.6;fill:none;stroke:#eae3d0;stroke-width:4;stroke-linecap:round;stroke-linejoin:miter;marker:none;stroke-miterlimit:4;stroke-dasharray:none;stroke-dashoffset:0;stroke-opacity:1;visibility:visible;display:inline;overflow:visible;enable-background:accumulate" />
  <path
     d="M 4,10.999999 L 5,10.999999"
     id="path2470"
     style="opacity:0.6;fill:none;stroke:#eae3d0;stroke-width:4;stroke-linecap:round;stroke-linejoin:miter;marker:none;stroke-miterlimit:4;stroke-dasharray:none;stroke-dashoffset:0;stroke-opacity:1;visibility:visible;display:inline;overflow:visible;enable-background:accumulate" />
  <path
     d="M 17,10.999999 L 18,10.999999"
     id="path2468"
     style="opacity:0.6;fill:none;stroke:#eae3d0;stroke-width:4;stroke-linecap:round;stroke-linejoin:miter;marker:none;stroke-miterlimit:4;stroke-dasharray:none;stroke-dashoffset:0;stroke-opacity:1;visibility:visible;display:inline;overflow:visible;enable-background:accumulate" />
  <path
     d="M 11,4.9999992 L 11,3.9999991"
     id="path3185"
     style="opacity:0.6;fill:none;stroke:#eae3d0;stroke-width:4;stroke-linecap:round;stroke-linejoin:miter;marker:none;stroke-miterlimit:4;stroke-dasharray:none;stroke-dashoffset:0;stroke-opacity:1;visibility:visible;display:inline;overflow:visible;enable-background:accumulate" />
  <path
     d="M 11,6.9999992 C 8.7908711,6.9999991 7,8.7908608 7,10.999999 C 7,11.286745 7.0364069,11.574099 7.09375,11.843749 C 7.674795,11.316212 8.3949988,10.937499 9.25,10.937499 C 10.865109,10.937499 12.174891,12.124633 12.4375,13.656249 C 12.74553,13.832506 13.0034,14.067192 13.25,14.312499 C 13.255247,14.317718 13.276042,14.307248 13.28125,14.312499 C 14.333643,13.591923 15,12.371757 15,10.999999 C 15,8.7908606 13.209129,6.9999992 11,6.9999992 z"
     id="path2876-6-6-4-0"
     style="fill:#3a3935;fill-opacity:1;fill-rule:nonzero;stroke:none;stroke-width:11.49051189;stroke-linecap:round;stroke-linejoin:miter;marker:none;marker-start:none;marker-mid:none;marker-end:none;stroke-miterlimit:4;stroke-dasharray:none;stroke-dashoffset:0;stroke-opacity:1;visibility:visible;display:inline;overflow:visible;enable-background:accumulate" />
  <path
     d="M 15.9497,15.949748 L 15.384101,15.384049"
     id="path2496"
     style="fill:none;stroke:#3a3935;stroke-width:2;stroke-linecap:round;stroke-linejoin:miter;marker:none;stroke-miterlimit:4;stroke-dasharray:none;stroke-dashoffset:0;stroke-opacity:1;visibility:visible;display:inline;overflow:visible;enable-background:accumulate" />
  <path
     d="M 15.454801,6.5452291 L 15.9497,6.050249"
     id="path2492"
     style="fill:none;stroke:#3a3935;stroke-width:2;stroke-linecap:round;stroke-linejoin:miter;marker:none;stroke-miterlimit:4;stroke-dasharray:none;stroke-dashoffset:0;stroke-opacity:1;visibility:visible;display:inline;overflow:visible;enable-background:accumulate" />
  <path
     d="M 6.6159,6.6159291 L 6.0503,6.050249"
     id="path2490"
     style="fill:none;stroke:#3a3935;stroke-width:2;stroke-linecap:round;stroke-linejoin:miter;marker:none;stroke-miterlimit:4;stroke-dasharray:none;stroke-dashoffset:0;stroke-opacity:1;visibility:visible;display:inline;overflow:visible;enable-background:accumulate" />
  <path
     d="M 4,10.999999 L 5,10.999999"
     id="path2486"
     style="fill:none;stroke:#3a3935;stroke-width:2;stroke-linecap:round;stroke-linejoin:miter;marker:none;stroke-miterlimit:4;stroke-dasharray:none;stroke-dashoffset:0;stroke-opacity:1;visibility:visible;display:inline;overflow:visible;enable-background:accumulate" />
  <path
     d="M 17,10.999999 L 18,10.999999"
     id="path2484"
     style="fill:none;stroke:#3a3935;stroke-width:2;stroke-linecap:round;stroke-linejoin:miter;marker:none;stroke-miterlimit:4;stroke-dasharray:none;stroke-dashoffset:0;stroke-opacity:1;visibility:visible;display:inline;overflow:visible;enable-background:accumulate" />
  <path
     d="M 11,4.9999992 L 11,3.9999991"
     id="path2826"
     style="fill:none;stroke:#3a3935;stroke-width:2;stroke-linecap:round;stroke-linejoin:miter;marker:none;stroke-miterlimit:4;stroke-dasharray:none;stroke-dashoffset:0;stroke-opacity:1;visibility:visible;display:inline;overflow:visible;enable-background:accumulate" />
  <g
     transform="matrix(1.1250049,0,0,1.1250048,-1686.6335,-198.25094)"
     id="g3181"
     style="opacity:0.6;fill:none;fill-opacity:1;fill-rule:nonzero;stroke:#eae3d0;stroke-width:0.88888514;stroke-linecap:round;stroke-linejoin:miter;marker:none;marker-start:none;marker-mid:none;marker-end:none;stroke-miterlimit:4;stroke-dasharray:none;stroke-dashoffset:0;stroke-opacity:1;visibility:visible;display:inline;overflow:visible;enable-background:accumulate">
    <path
       d="M -2.8284264,179.43886 C -2.8284263,192.1309 -13.117357,202.41983 -25.809397,202.41983 C -38.501436,202.41983 -48.790367,192.1309 -48.790367,179.43886 C -48.790367,166.74682 -38.501436,156.45789 -25.809397,156.45789 C -13.117357,156.45789 -2.8284264,166.74682 -2.8284264,179.43886 L -2.8284264,179.43886 z"
       transform="matrix(0.1740563,0,0,-0.174057,1513.4933,217.23261)"
       id="path3183"
       style="fill:none;fill-opacity:1;fill-rule:nonzero;stroke:#eae3d0;stroke-width:5.10687256;stroke-linecap:round;stroke-linejoin:miter;marker:none;marker-start:none;marker-mid:none;marker-end:none;stroke-miterlimit:4;stroke-dasharray:none;stroke-dashoffset:0;stroke-opacity:1;visibility:visible;display:inline;overflow:visible;enable-background:accumulate" />
  </g>
  <path
     d="M 9.2882411,11.50011 C 8.405912,11.491539 7.596738,11.982422 7.1500327,12.636573 C 6.362248,12.1597 5.2050613,12.576101 4.9110452,13.352863 C 4.6707596,13.719703 5.0941149,14.20341 4.518342,14.348158 C 3.5327472,14.988683 3.2073176,16.270347 3.7872094,17.222383 C 4.2520791,18.053977 5.306686,18.562943 6.3459609,18.49373 C 7.9203279,18.489356 9.4951878,18.50259 11.069239,18.486913 C 12.37435,18.422072 13.492341,17.380851 13.498006,16.222546 C 13.541656,15.302389 12.863854,14.425131 11.919883,14.064438 C 11.948318,12.886845 10.9845,11.682079 9.6238671,11.520889 C 9.5127241,11.507015 9.4004803,11.500104 9.2882411,11.50011 z"
     id="path3203"
     style="opacity:0.6;fill:none;fill-opacity:1;fill-rule:nonzero;stroke:#eae3d0;stroke-width:0.99999976;stroke-linecap:round;stroke-linejoin:miter;marker:none;marker-start:none;marker-mid:none;marker-end:none;stroke-miterlimit:4;stroke-dasharray:none;stroke-dashoffset:0;stroke-opacity:1;visibility:visible;display:inline;overflow:visible;enable-background:accumulate" />
  <path
     d="M 9.2499995,11.999999 C 8.4052717,11.999999 7.6815977,12.455365 7.2968748,13.111606 C 7.0802399,12.957147 6.8035998,12.857142 6.4999999,12.857142 C 5.8099999,12.857142 5.25,13.337142 5.2499999,13.92857 C 5.2499999,14.061396 5.2765047,14.186161 5.3281249,14.30357 C 4.5433711,14.604119 4,15.284583 4,16.071427 C 4,17.139856 5.0035,17.999999 6.25,17.999999 L 10.75,17.999999 C 11.9965,17.999999 13,17.139856 13,16.071427 C 13,15.225139 12.365635,14.510985 11.484374,14.249999 C 11.486332,14.213388 11.5,14.179929 11.5,14.142856 C 11.5,12.959999 10.492,11.999999 9.2499995,11.999999 z"
     id="rect3193"
     style="fill:#3a3935;fill-opacity:1;fill-rule:evenodd;stroke:none;stroke-width:4;stroke-linecap:butt;stroke-linejoin:miter;marker:none;marker-start:none;marker-mid:none;marker-end:none;stroke-miterlimit:4;stroke-dasharray:none;stroke-dashoffset:0;stroke-opacity:1;visibility:visible;display:inline;overflow:visible;enable-background:accumulate" />
</svg>
