<?xml version="1.0" encoding="UTF-8" standalone="no"?>
<!-- Created with Inkscape (http://www.inkscape.org/) -->
<svg
   xmlns:svg="http://www.w3.org/2000/svg"
   xmlns="http://www.w3.org/2000/svg"
   version="1.0"
   width="22"
   height="22"
   id="svg3187">
  <defs
     id="defs3189" />
  <path
     d="M 11.024667,3.5001413 C 9.8776462,3.4891214 8.8257265,4.1202569 8.2450131,4.9613085 C 7.2208995,4.3481856 5.716566,4.8835588 5.3343475,5.8822528 C 5.0219781,6.3539044 5.5723366,6.9758134 4.8238364,7.1619177 C 3.5425712,7.9854487 3.1195154,9.6333027 3.8733701,10.857349 C 4.4776969,11.926543 5.8486774,12.580927 7.1997262,12.491938 C 9.2463907,12.486315 11.293696,12.50333 13.33995,12.483174 C 15.036583,12.399807 16.489962,11.061095 16.497328,9.5718457 C 16.554072,8.3887867 15.672934,7.2608827 14.44578,6.7971342 C 14.482745,5.2830866 13.22979,3.7341012 11.460978,3.5268572 C 11.316493,3.5090186 11.170577,3.5001338 11.024667,3.5001413 z M 13.024748,9.5001419 C 11.877727,9.489122 10.825808,10.120257 10.245094,10.961309 C 9.2209806,10.348186 7.7166471,10.883559 7.3344286,11.882253 C 7.0220592,12.353905 7.5724177,12.975814 6.8239175,13.161919 C 5.5426522,13.98545 5.1195964,15.633304 5.8734511,16.85735 C 6.477778,17.926544 7.8487585,18.580928 9.1998073,18.491939 C 11.246472,18.486316 13.293777,18.503331 15.340031,18.483175 C 17.036664,18.399808 18.490043,17.061096 18.497409,15.571847 C 18.554153,14.388788 17.673015,13.260884 16.445861,12.797135 C 16.482826,11.283087 15.229871,9.7341018 13.461059,9.5268578 C 13.316574,9.5090192 13.170658,9.5001344 13.024748,9.5001419 z"
     id="path2395"
     style="opacity:0.6;fill:none;fill-opacity:1;fill-rule:nonzero;stroke:#eae3d0;stroke-width:0.99999982;stroke-linecap:round;stroke-linejoin:miter;marker:none;marker-start:none;marker-mid:none;marker-end:none;stroke-miterlimit:4;stroke-dasharray:none;stroke-dashoffset:0;stroke-opacity:1;visibility:visible;display:inline;overflow:visible;enable-background:accumulate" />
  <path
     d="M 11,3.9999992 C 9.8736963,3.9999992 8.9192139,4.5937608 8.40625,5.4687492 C 8.1174033,5.2628033 7.74855,5.1562492 7.34375,5.1562492 C 6.4237499,5.1562493 5.6562501,5.7739278 5.65625,6.5624992 C 5.6562501,6.7395998 5.7124231,6.9059544 5.78125,7.0624992 C 4.7349115,7.4632313 4,8.3883752 4,9.4374992 C 4,10.7684 5.1786846,11.831357 6.6875,11.968749 C 6.9956974,10.829406 8.1473135,10.093749 9.34375,10.093749 C 9.6162075,10.093749 9.8616791,10.242098 10.125,10.312499 C 10.864399,9.5281268 11.826494,8.9374992 13,8.9374992 C 14.131647,8.9374992 15.146962,9.4080803 15.875,10.156249 C 15.954138,9.9250814 16,9.6911899 16,9.4374992 C 16,8.3091154 15.143764,7.3479792 13.96875,6.9999992 C 13.97136,6.9511844 14,6.8931789 14,6.8437492 C 14,5.2666063 12.656,3.9999992 11,3.9999992 z M 13,9.9999992 C 11.873696,9.9999992 10.908797,10.607154 10.395833,11.482142 C 10.106987,11.276196 9.7381333,11.142856 9.3333333,11.142856 C 8.4133334,11.142856 7.6666667,11.782856 7.6666666,12.571428 C 7.6666666,12.748528 7.7020064,12.914882 7.7708333,13.071427 C 6.7244948,13.472159 6,14.379446 6,15.42857 C 6,16.853141 7.338,18 9,18 L 15,18 C 16.662,18 18,16.853141 18,15.42857 C 18,14.300186 17.15418,13.34798 15.979166,13 C 15.981776,12.951185 16,12.906572 16,12.857142 C 16,11.279999 14.656,9.9999992 13,9.9999992 z"
     id="path2397"
     style="fill:#3a3935;fill-opacity:1;fill-rule:evenodd;stroke:none;stroke-width:4;stroke-linecap:butt;stroke-linejoin:miter;marker:none;marker-start:none;marker-mid:none;marker-end:none;stroke-miterlimit:4;stroke-dasharray:none;stroke-dashoffset:0;stroke-opacity:1;visibility:visible;display:inline;overflow:visible;enable-background:accumulate" />
</svg>
