<?xml version="1.0" encoding="UTF-8" standalone="no"?>
<!-- Created with Inkscape (http://www.inkscape.org/) -->

<svg
   xmlns:dc="http://purl.org/dc/elements/1.1/"
   xmlns:cc="http://creativecommons.org/ns#"
   xmlns:rdf="http://www.w3.org/1999/02/22-rdf-syntax-ns#"
   xmlns:svg="http://www.w3.org/2000/svg"
   xmlns="http://www.w3.org/2000/svg"
   version="1.1"
   width="24"
   height="22"
   id="svg3830">
  <defs
     id="defs3832" />
  <metadata
     id="metadata3835">
    <rdf:RDF>
      <cc:Work
         rdf:about="">
        <dc:format>image/svg+xml</dc:format>
        <dc:type
           rdf:resource="http://purl.org/dc/dcmitype/StillImage" />
        <dc:title></dc:title>
      </cc:Work>
    </rdf:RDF>
  </metadata>
  <g
     transform="translate(0,-10)"
     id="layer1">
    <g
       transform="translate(1.0023544,0)"
       id="g2988"
       style="opacity:0.4">
      <path
         d="M 7,7 C 6.6947765,7 6.4334727,7.127959 6.25,7.34375 L 4,10 2,10 c -0.552,0 -1,0.448 -1,1 -0.00627,0.996071 0.00222,2.014549 0,3 0,0.552 0.4480001,1 1,1 l 2,0 2.15625,2.46875 C 6.3276084,17.773669 6.6255544,18 7,18 7.552,18 8.0000004,17.552 8,17 L 8,8 C 8,7.448 7.5519997,7 7,7 z M 16.6875,9 14.5,11.25 12.25,9.03125 11,10.3125 13.25,12.5 11.03125,14.75 12.3125,16 14.5,13.75 16.75,15.96875 18,14.6875 15.75,12.5 17.96875,10.25 16.6875,9 z"
         transform="translate(0,10)"
         id="path2396-0"
         style="opacity:0.3;fill:#ffffff;fill-opacity:1;fill-rule:nonzero;stroke:none;stroke-width:1;marker:none;visibility:visible;display:inline;overflow:visible;enable-background:accumulate" />
      <path
         d="M 7,6 C 6.6947765,6 6.4334727,6.127959 6.25,6.34375 L 4,9 2,9 c -0.552,0 -1,0.448 -1,1 -0.00627,0.996071 0.00222,2.014549 0,3 0,0.552 0.4480001,1 1,1 l 2,0 2.15625,2.46875 C 6.3276084,16.773669 6.6255544,17 7,17 7.552,17 8.0000004,16.552 8,16 L 8,7 C 8,6.448 7.5519997,6 7,6 z M 16.6875,8 14.5,10.25 12.25,8.03125 11,9.3125 13.25,11.5 11.03125,13.75 12.3125,15 14.5,12.75 16.75,14.96875 18,13.6875 15.75,11.5 17.96875,9.25 16.6875,8 z"
         transform="translate(0,10)"
         id="rect3180"
         style="fill:#3c3c3c;fill-opacity:1;fill-rule:evenodd;stroke:none;stroke-width:1.69999993;marker:none;visibility:visible;display:inline;overflow:visible;enable-background:accumulate" />
    </g>
  </g>
</svg>
