<?xml version="1.0" encoding="UTF-8" standalone="no"?>
<!-- Created with Inkscape (http://www.inkscape.org/) -->

<svg
   xmlns:dc="http://purl.org/dc/elements/1.1/"
   xmlns:cc="http://creativecommons.org/ns#"
   xmlns:rdf="http://www.w3.org/1999/02/22-rdf-syntax-ns#"
   xmlns:svg="http://www.w3.org/2000/svg"
   xmlns="http://www.w3.org/2000/svg"
   version="1.1"
   width="14"
   height="22"
   id="svg3330">
  <defs
     id="defs3332" />
  <metadata
     id="metadata3335">
    <rdf:RDF>
      <cc:Work
         rdf:about="">
        <dc:format>image/svg+xml</dc:format>
        <dc:type
           rdf:resource="http://purl.org/dc/dcmitype/StillImage" />
        <dc:title></dc:title>
      </cc:Work>
    </rdf:RDF>
  </metadata>
  <g
     transform="translate(-4,6)"
     id="layer1">
    <path
       d="m 11,-4 c -1.662,0 -3,1.338 -3,3 l 0,8 c 0,1.662 1.338,3 3,3 1.662,0 3,-1.338 3,-3 l 0,-8 c 0,-1.662 -1.338,-3 -3,-3 z M 5,3 5,4 6,4 6,7 c 0,2.42375 1.717481,4.441543 4,4.90625 L 10,14 l -1,0 0,1 4,0 0,-1 -1,0 0,-2.09375 C 14.28252,11.441543 16,9.42375 16,7 l 0,-3 1,0 0,-1 -1,0 -1,0 0,4 c 0,2.216 -1.784,4 -4,4 C 8.784,11 7,9.216 7,7 L 7,3 6,3 5,3 z"
       id="path3122-6"
       style="opacity:0.3;color:#ffffff;fill:#ffffff;fill-opacity:1;fill-rule:nonzero;stroke:none;stroke-width:1;marker:none;visibility:visible;display:inline;overflow:visible;enable-background:accumulate" />
    <path
       d="M 11,1 C 9.338,1 8,2.338 8,4 l 0,8 c 0,1.662 1.338,3 3,3 1.662,0 3,-1.338 3,-3 L 14,4 C 14,2.338 12.662,1 11,1 z m -6,7 0,1 1,0 0,3 c 0,2.42375 1.717481,4.441543 4,4.90625 L 10,19 l -1,0 0,1 4,0 0,-1 -1,0 0,-2.09375 C 14.28252,16.441543 16,14.42375 16,12 l 0,-3 1,0 0,-1 -1,0 -1,0 0,4 c 0,2.216 -1.784,4 -4,4 C 8.784,16 7,14.216 7,12 L 7,8 6,8 5,8 z"
       transform="translate(0,-6)"
       id="path3122"
       style="color:#ffffff;fill:#3c3c3c;fill-opacity:1;fill-rule:nonzero;stroke:none;stroke-width:1;marker:none;visibility:visible;display:inline;overflow:visible;enable-background:accumulate" />
  </g>
</svg>
