<?xml version="1.0" encoding="UTF-8" standalone="no"?>
<!-- Created with Inkscape (http://www.inkscape.org/) -->

<svg
   xmlns:dc="http://purl.org/dc/elements/1.1/"
   xmlns:cc="http://creativecommons.org/ns#"
   xmlns:rdf="http://www.w3.org/1999/02/22-rdf-syntax-ns#"
   xmlns:svg="http://www.w3.org/2000/svg"
   xmlns="http://www.w3.org/2000/svg"
   version="1.0"
   width="15"
   height="22"
   id="svg3215">
  <metadata
     id="metadata10">
    <rdf:RDF>
      <cc:Work
         rdf:about="">
        <dc:format>image/svg+xml</dc:format>
        <dc:type
           rdf:resource="http://purl.org/dc/dcmitype/StillImage" />
        <dc:title></dc:title>
      </cc:Work>
    </rdf:RDF>
  </metadata>
  <defs
     id="defs3217" />
  <path
     d="m 6.5,4.499999 2,0 c 2.216,0 4,1.338 4,3 L 12.5,16.5 c 0,1.662 -1.784,3 -4,3 l -2,0 c -2.2160001,0 -4,-1.338 -4,-3 l 0,-9.000001 c 0,-1.662 1.7839999,-3 4,-3 z m 1.041885,1e-6 0,4"
     id="rect2406-4"
     style="opacity:0.3;fill:none;stroke:#ffffff;stroke-width:1;stroke-linecap:round;stroke-linejoin:miter;stroke-miterlimit:4;stroke-opacity:1;stroke-dasharray:none;stroke-dashoffset:0;marker:none;visibility:visible;display:inline;overflow:visible;enable-background:accumulate" />
  <g
     transform="translate(-5,-1)"
     id="g3195"
     style="opacity:0.3;stroke:#df382c;stroke-opacity:1">
    <path
       d="m 12.5,5.3333332 0,3.3333331"
       id="path3193"
       style="fill:none;stroke:#df382c;stroke-width:2;stroke-linecap:round;stroke-linejoin:miter;stroke-miterlimit:4;stroke-opacity:1;stroke-dasharray:none;stroke-dashoffset:0;marker:none;visibility:visible;display:inline;overflow:visible;enable-background:accumulate" />
    <rect
       width="13.5"
       height="8.5"
       rx="2.3"
       ry="3.3000903"
       x="-18.75"
       y="8.25"
       transform="matrix(0,-1,1,0,0,0)"
       id="rect3236"
       style="fill:none;stroke:#df382c;stroke-width:0.49999994;stroke-linecap:round;stroke-linejoin:miter;stroke-miterlimit:4;stroke-opacity:1;stroke-dasharray:none;stroke-dashoffset:0;marker:none;visibility:visible;display:inline;overflow:visible;enable-background:accumulate" />
  </g>
  <path
     d="m 6.5,3.499999 2,0 c 2.216,0 4,1.338 4,3 L 12.5,15.5 c 0,1.662 -1.784,3 -4,3 l -2,0 c -2.2160001,0 -4,-1.338 -4,-3 l 0,-9.000001 c 0,-1.662 1.7839999,-3 4,-3 z m 1.041885,1e-6 0,4"
     id="rect2406"
     style="fill:none;stroke:#df382c;stroke-width:1;stroke-linecap:round;stroke-linejoin:miter;stroke-miterlimit:4;stroke-opacity:1;stroke-dasharray:none;stroke-dashoffset:0;marker:none;visibility:visible;display:inline;overflow:visible;enable-background:accumulate" />
</svg>
