<?xml version="1.0" encoding="UTF-8" standalone="no"?>
<!-- Created with Inkscape (http://www.inkscape.org/) -->

<svg
   xmlns:dc="http://purl.org/dc/elements/1.1/"
   xmlns:cc="http://creativecommons.org/ns#"
   xmlns:rdf="http://www.w3.org/1999/02/22-rdf-syntax-ns#"
   xmlns:svg="http://www.w3.org/2000/svg"
   xmlns="http://www.w3.org/2000/svg"
   version="1.1"
   width="26"
   height="22"
   id="svg3014">
  <defs
     id="defs3016" />
  <metadata
     id="metadata3019">
    <rdf:RDF>
      <cc:Work
         rdf:about="">
        <dc:format>image/svg+xml</dc:format>
        <dc:type
           rdf:resource="http://purl.org/dc/dcmitype/StillImage" />
        <dc:title></dc:title>
      </cc:Work>
    </rdf:RDF>
  </metadata>
  <g
     transform="matrix(0.77777778,0,0,1,-1.4444445,0)"
     id="g3076"
     style="opacity:0.4">
    <rect
       width="8"
       height="18"
       rx="0.5"
       ry="0.64285713"
       x="8"
       y="-25"
       transform="matrix(0,1,-1,0,0,0)"
       id="rect3190-4"
       style="opacity:0.3;fill:#ffffff;fill-opacity:1;fill-rule:evenodd;stroke:none;stroke-width:1.69999993;marker:none;visibility:visible;display:inline;overflow:visible;enable-background:accumulate" />
    <rect
       width="8"
       height="18"
       rx="0.5"
       ry="0.64285713"
       x="7"
       y="-25"
       transform="matrix(0,1,-1,0,0,0)"
       id="rect3190"
       style="fill:#3c3c3c;fill-opacity:1;fill-rule:evenodd;stroke:none;stroke-width:1.69999993;marker:none;visibility:visible;display:inline;overflow:visible;enable-background:accumulate" />
  </g>
  <path
     d="M 4,6 C 2.892,6 2,6.892 2,8 l 0,8 c 0,1.108 0.892,2 2,2 l 18,0 c 1.108,0 2,-0.892 2,-2 l 0,-1 0.384328,0 C 25.492328,15 26,14.108 26,13 l 0,-2 C 26,9.892 25.574418,9 24.466418,9 L 24,9 24,8 C 24,6.892 23.108,6 22,6 z m 0,1 18,0 c 0.554,0 1,0.446 1,1 l 0,8 c 0,0.554 -0.446,1 -1,1 L 4,17 C 3.446,17 3,16.554 3,16 L 3,8 C 3,7.446 3.446,7 4,7 z m 20,3 c 0.597415,0 1,0.051 1,1 l 0,2 c 0,0.9914 -0.406448,1 -1,1 z"
     id="rect2401-5"
     style="opacity:0.3;fill:#ffffff;fill-opacity:1;fill-rule:nonzero;stroke:none;stroke-width:1;marker:none;visibility:visible;display:inline;overflow:visible;enable-background:accumulate" />
  <path
     d="M 4,5 C 2.892,5 2,5.892 2,7 l 0,8 c 0,1.108 0.892,2 2,2 l 18,0 c 1.108,0 2,-0.892 2,-2 l 0,-1 0.384328,0 C 25.492328,14 26,13.108 26,12 l 0,-2 C 26,8.892 25.574418,8 24.466418,8 L 24,8 24,7 C 24,5.892 23.108,5 22,5 z m 0,1 18,0 c 0.554,0 1,0.446 1,1 l 0,8 c 0,0.554 -0.446,1 -1,1 L 4,16 C 3.446,16 3,15.554 3,15 L 3,7 C 3,6.446 3.446,6 4,6 z m 20,3 c 0.597415,0 1,0.051 1,1 l 0,2 c 0,0.9914 -0.406448,1 -1,1 z"
     id="rect2401"
     style="fill:#3c3c3c;fill-opacity:1;fill-rule:nonzero;stroke:none;stroke-width:1;marker:none;visibility:visible;display:inline;overflow:visible;enable-background:accumulate" />
  <rect
     width="19.5"
     height="9.500001"
     rx="0.75"
     ry="0.75"
     x="3.25"
     y="6.25"
     id="rect3192"
     style="opacity:0.3;fill:none;stroke:#3c3c3c;stroke-width:0.49999994;stroke-linecap:round;stroke-linejoin:miter;stroke-miterlimit:4;stroke-opacity:1;stroke-dasharray:none;stroke-dashoffset:0;marker:none;visibility:visible;display:inline;overflow:visible;enable-background:accumulate" />
  <path
     d="m 19.997788,15 -6.999999,-7 0,4 -6.0000007,-3 8.0000007,7 0,-3 4.999999,2 z"
     id="path3172-8"
     style="opacity:0.3;fill:#ffffff;fill-opacity:1;fill-rule:evenodd;stroke:none" />
  <path
     d="m 19.997788,14.005385 -6.999999,-7 0,4 -6.0000007,-3 8.0000007,7 0,-3 4.999999,2 z"
     id="path3172"
     style="fill:#3c3c3c;fill-opacity:1;fill-rule:evenodd;stroke:none" />
</svg>
