<?xml version="1.0" encoding="UTF-8" standalone="no"?>
<!-- Created with Inkscape (http://www.inkscape.org/) -->
<svg
   xmlns:dc="http://purl.org/dc/elements/1.1/"
   xmlns:cc="http://creativecommons.org/ns#"
   xmlns:rdf="http://www.w3.org/1999/02/22-rdf-syntax-ns#"
   xmlns:svg="http://www.w3.org/2000/svg"
   xmlns="http://www.w3.org/2000/svg"
   xmlns:sodipodi="http://sodipodi.sourceforge.net/DTD/sodipodi-0.dtd"
   xmlns:inkscape="http://www.inkscape.org/namespaces/inkscape"
   version="1.0"
   width="24"
   height="24"
   id="svg3172"
   sodipodi:version="0.32"
   inkscape:version="0.46"
   sodipodi:docname="stock_person-panel.svg"
   inkscape:output_extension="org.inkscape.output.svg.inkscape">
  <metadata
     id="metadata8">
    <rdf:RDF>
      <cc:Work
         rdf:about="">
        <dc:format>image/svg+xml</dc:format>
        <dc:type
           rdf:resource="http://purl.org/dc/dcmitype/StillImage" />
      </cc:Work>
    </rdf:RDF>
  </metadata>
  <sodipodi:namedview
     inkscape:window-height="781"
     inkscape:window-width="1440"
     inkscape:pageshadow="2"
     inkscape:pageopacity="0.0"
     guidetolerance="10.0"
     gridtolerance="10.0"
     objecttolerance="10.0"
     borderopacity="1.0"
     bordercolor="#666666"
     pagecolor="#ffffff"
     id="base"
     showgrid="false"
     inkscape:zoom="14.672466"
     inkscape:cx="1.6745371"
     inkscape:cy="12"
     inkscape:window-x="0"
     inkscape:window-y="24"
     inkscape:current-layer="svg3172" />
  <defs
     id="defs3174">
    <inkscape:perspective
       sodipodi:type="inkscape:persp3d"
       inkscape:vp_x="0 : 12 : 1"
       inkscape:vp_y="0 : 1000 : 0"
       inkscape:vp_z="24 : 12 : 1"
       inkscape:persp3d-origin="12 : 8 : 1"
       id="perspective10" />
    <inkscape:perspective
       sodipodi:type="inkscape:persp3d"
       inkscape:vp_x="0 : 24 : 1"
       inkscape:vp_y="0 : 1000 : 0"
       inkscape:vp_z="48 : 24 : 1"
       inkscape:persp3d-origin="24 : 16 : 1"
       id="perspective9" />
    <inkscape:perspective
       id="perspective2388"
       inkscape:persp3d-origin="32 : 21.333333 : 1"
       inkscape:vp_z="64 : 32 : 1"
       inkscape:vp_y="0 : 1000 : 0"
       inkscape:vp_x="0 : 32 : 1"
       sodipodi:type="inkscape:persp3d" />
    <inkscape:perspective
       id="perspective2392"
       inkscape:persp3d-origin="16 : 10.666667 : 1"
       inkscape:vp_z="32 : 16 : 1"
       inkscape:vp_y="0 : 1000 : 0"
       inkscape:vp_x="0 : 16 : 1"
       sodipodi:type="inkscape:persp3d" />
  </defs>
  <path
     style="opacity:0.59999999999999998;fill:none;fill-opacity:1;fill-rule:evenodd;stroke:#eae3d0;stroke-width:0.99999994000000003;stroke-linecap:round;stroke-linejoin:round;marker:none;marker-start:none;marker-mid:none;marker-end:none;stroke-miterlimit:4;stroke-dasharray:none;stroke-dashoffset:0;stroke-opacity:1;visibility:visible;display:inline;overflow:visible;enable-background:accumulate;color:#000000"
     id="path3170"
     d="M 11.906259,1.501164 C 11.195357,1.4969032 10.540306,1.6317978 10.031449,1.9698644 C 9.8608801,2.0831847 9.807868,2.1008178 9.7502278,2.1260978 C 9.7202875,2.0912768 9.6999703,2.0670931 9.6564873,2.0323578 C 9.5529563,1.9496546 9.3529069,1.8696783 9.156538,1.907371 C 8.9601692,1.9450637 8.8235154,2.0594426 8.7503292,2.1573445 C 8.6771431,2.2552465 8.6335173,2.3344059 8.5940951,2.4385648 C 8.5558983,2.4269752 8.5119885,2.4149688 8.4691077,2.4073181 C 8.3833462,2.3920166 8.300118,2.3638637 8.1253926,2.4385648 C 7.957912,2.5101685 7.7853924,2.7713946 7.7816775,2.9385118 C 7.7796864,2.9403901 7.7836957,2.9679109 7.7816775,2.9697585 C 7.776632,2.9743774 7.7557315,2.965373 7.7504306,2.9697585 C 7.6581956,3.0460675 7.5926834,3.1485147 7.500456,3.2509787 C 7.3160011,3.4559067 7.1029463,3.7138624 6.9067662,4.0008993 C 6.5993756,4.4506484 6.3960205,4.8432043 6.2818296,5.344507 C 6.1676386,5.8458097 6.1255191,6.426498 6.1255954,7.3442952 C 6.1256374,7.9278422 6.1436312,8.4862669 6.1255954,8.875383 C 6.1165775,9.0699411 6.1116513,9.2241535 6.0943486,9.28159 C 6.1173382,9.2517834 6.1992597,9.2051833 6.2818296,9.1878499 C 6.1035347,9.2252785 5.9713008,9.3391177 5.9068676,9.4378235 C 5.8424344,9.5365292 5.8014459,9.6075869 5.7818803,9.687797 C 5.7427491,9.8482171 5.7520459,10.014477 5.7506334,10.187744 C 5.7478086,10.534278 5.7642456,10.955191 5.8131271,11.375118 C 5.941718,12.479821 6.1740578,13.173228 6.7817789,13.749867 C 7.139234,14.089038 7.5151956,14.586365 7.7816775,15.062228 C 8.0481593,15.53809 8.1878863,16.028323 8.1878863,16.218355 C 8.1878863,16.27177 8.1050105,16.509954 7.8441711,16.812042 C 7.5833318,17.11413 7.1864376,17.488984 6.6567915,17.87443 C 5.5974993,18.645321 4.0776591,19.508076 2.2822352,20.311672 L 0.81363409,20.967852 C 0.63167524,21.038459 0.50894198,21.210285 0.50116578,21.405306 L 0.50116578,22.998887 C 0.49848065,23.132286 0.55029103,23.261016 0.64463806,23.355362 C 0.7389851,23.449709 0.86771524,23.501519 1.0011151,23.498834 L 22.998884,23.498834 C 23.132284,23.501519 23.261015,23.449709 23.355361,23.355362 C 23.449709,23.261016 23.501518,23.132286 23.498834,22.998887 L 23.498834,21.124086 C 23.491057,20.929064 23.368324,20.757239 23.186365,20.686632 L 21.842752,20.124192 C 20.325309,19.483826 18.899156,18.64092 17.874404,17.87443 C 17.362028,17.491185 16.953736,17.122697 16.687024,16.812042 C 16.420312,16.501388 16.343309,16.249923 16.343309,16.218355 C 16.343309,16.015606 16.466901,15.536824 16.718271,15.062228 C 16.969642,14.587631 17.334633,14.084136 17.686923,13.749867 C 18.280389,13.186746 18.587307,12.498477 18.718068,11.375118 C 18.767734,10.948419 18.793201,10.533689 18.780562,10.187744 C 18.774243,10.014771 18.760113,9.8440419 18.718068,9.687797 C 18.676024,9.531552 18.605358,9.297258 18.280613,9.1878499 C 18.498382,9.2612193 18.457202,9.3565947 18.436847,9.28159 C 18.416492,9.2065853 18.387762,9.0406593 18.374353,8.8441363 C 18.347535,8.4510904 18.374353,7.9125947 18.374353,7.3442952 C 18.374352,5.698781 18.209118,4.9425749 17.749417,4.1883794 C 17.245274,3.361281 16.319845,2.7459535 15.24967,2.2823313 C 14.179496,1.8187091 12.9671,1.5075225 11.906259,1.501164 z" />
  <path
     style="fill:#3a3935;fill-opacity:1;fill-rule:evenodd;stroke:none;stroke-width:1.00213277000000001;stroke-linecap:round;stroke-linejoin:round;marker:none;marker-start:none;marker-mid:none;marker-end:none;stroke-miterlimit:4;stroke-dasharray:none;stroke-dashoffset:0;stroke-opacity:1;visibility:visible;display:inline;overflow:visible;enable-background:accumulate"
     id="rect2382"
     d="M 11.914062,2.0000883 C 11.266101,1.9962046 10.697153,2.1203986 10.309896,2.37768 C 9.8102832,2.7096076 9.5900008,2.7517387 9.4505208,2.5229077 C 9.3170697,2.3039766 9.1957012,2.3284362 9.078125,2.6390897 C 8.9786988,2.9018128 8.7708423,3.0217529 8.5338542,2.929545 C 8.3079004,2.8416284 8.2152437,2.8699491 8.3046875,3.0166816 C 8.3906387,3.1577083 8.3486187,3.2780913 8.21875,3.2780913 C 8.0888812,3.2780913 7.6729621,3.7229928 7.3020833,4.2656389 C 6.7108675,5.1306623 6.6144321,5.5260111 6.6145833,7.3444641 C 6.6146656,8.4853997 6.7273379,9.5963281 6.3854167,9.6681059 C 6.1848799,9.7102039 6.2039717,10.503218 6.2994792,11.323701 C 6.4243705,12.396628 6.610919,12.922246 7.1302083,13.414978 C 7.9390316,14.182433 8.6770833,15.510916 8.6770833,16.232394 C 8.6770832,17.263395 6.101085,19.13423 2.4609375,20.763495 L 1,21.402496 L 1,23 L 23,23 L 23,21.112041 L 21.653646,20.560176 C 18.545643,19.248584 15.838542,17.237762 15.838542,16.232394 C 15.838542,15.512659 16.548758,14.181662 17.356771,13.414978 C 17.876053,12.922246 18.091255,12.396628 18.216146,11.323701 C 18.311646,10.503218 18.324557,9.7335833 18.130208,9.6681059 C 17.862412,9.5778817 17.872396,8.4760445 17.872396,7.3444641 C 17.872395,5.722437 17.770577,5.1188134 17.356771,4.4399121 C 16.533355,3.0890065 13.857948,2.0117395 11.914062,2.0000883 z" />
</svg>
