<?xml version="1.0" encoding="UTF-8" standalone="no"?>
<!-- Created with Inkscape (http://www.inkscape.org/) -->

<svg
   xmlns:dc="http://purl.org/dc/elements/1.1/"
   xmlns:cc="http://creativecommons.org/ns#"
   xmlns:rdf="http://www.w3.org/1999/02/22-rdf-syntax-ns#"
   xmlns:svg="http://www.w3.org/2000/svg"
   xmlns="http://www.w3.org/2000/svg"
   xmlns:sodipodi="http://sodipodi.sourceforge.net/DTD/sodipodi-0.dtd"
   xmlns:inkscape="http://www.inkscape.org/namespaces/inkscape"
   version="1.0"
   width="24"
   height="24"
   id="svg3172"
   inkscape:version="0.48.0 r9654"
   sodipodi:docname="stock_person-panel.svg">
  <metadata
     id="metadata9">
    <rdf:RDF>
      <cc:Work
         rdf:about="">
        <dc:format>image/svg+xml</dc:format>
        <dc:type
           rdf:resource="http://purl.org/dc/dcmitype/StillImage" />
      </cc:Work>
    </rdf:RDF>
  </metadata>
  <sodipodi:namedview
     pagecolor="#ffffff"
     bordercolor="#666666"
     borderopacity="1"
     objecttolerance="10"
     gridtolerance="10"
     guidetolerance="10"
     inkscape:pageopacity="0"
     inkscape:pageshadow="2"
     inkscape:window-width="932"
     inkscape:window-height="611"
     id="namedview7"
     showgrid="false"
     inkscape:zoom="12.125"
     inkscape:cx="-0.53608247"
     inkscape:cy="12.865979"
     inkscape:window-x="0"
     inkscape:window-y="24"
     inkscape:window-maximized="0"
     inkscape:current-layer="svg3172" />
  <defs
     id="defs3174" />
  <path
     inkscape:connector-curvature="0"
     style="fill:#ffffff;fill-opacity:1;fill-rule:evenodd;stroke:none;stroke-width:1.00213277000000001;marker:none;visibility:visible;display:inline;overflow:visible;enable-background:accumulate;opacity:0.3"
     id="rect2382-4"
     d="M 11.914062,3.0000883 C 11.266101,2.9962046 10.697153,3.1203986 10.309896,3.37768 9.8102832,3.7096076 9.5900008,3.7517387 9.4505208,3.5229077 9.3170697,3.3039766 9.1957012,3.3284362 9.078125,3.6390897 8.9786988,3.9018128 8.7708423,4.0217529 8.5338542,3.929545 8.3079004,3.8416284 8.2152437,3.8699491 8.3046875,4.0166816 c 0.085951,0.1410267 0.043931,0.2614097 -0.085937,0.2614097 -0.1298688,0 -0.5457879,0.4449015 -0.9166667,0.9875476 -0.5912158,0.8650234 -0.6876512,1.2603722 -0.6875,3.0788252 8.23e-5,1.1409356 0.1127546,2.2518639 -0.2291666,2.3236419 -0.2005368,0.0421 -0.181445,0.835112 -0.085937,1.655595 0.1248913,1.072927 0.3114398,1.598545 0.8307291,2.091277 0.8088233,0.767455 1.546875,2.095938 1.546875,2.817416 -1e-7,1.031001 -2.5759983,2.901836 -6.2161458,4.531101 L 1,22.402496 1,24 l 22,0 0,-1.887959 -1.346354,-0.551865 c -3.108003,-1.311592 -5.815104,-3.322414 -5.815104,-4.327782 0,-0.719735 0.710216,-2.050732 1.518229,-2.817416 0.519282,-0.492732 0.734484,-1.01835 0.859375,-2.091277 0.0955,-0.820483 0.108411,-1.590118 -0.08594,-1.655595 -0.267794,-0.09022 -0.25781,-1.1920615 -0.25781,-2.3236419 C 17.872395,6.722437 17.770577,6.1188134 17.356771,5.4399121 16.533355,4.0890065 13.857948,3.0117395 11.914062,3.0000883 z" />
  <path
     inkscape:connector-curvature="0"
     style="fill:#3c3c3c;fill-opacity:1;fill-rule:evenodd;stroke:none;stroke-width:1.00213277;marker:none;visibility:visible;display:inline;overflow:visible;enable-background:accumulate"
     id="rect2382"
     d="M 11.914062,2.0000883 C 11.266101,1.9962046 10.697153,2.1203986 10.309896,2.37768 9.8102832,2.7096076 9.5900008,2.7517387 9.4505208,2.5229077 9.3170697,2.3039766 9.1957012,2.3284362 9.078125,2.6390897 8.9786988,2.9018128 8.7708423,3.0217529 8.5338542,2.929545 8.3079004,2.8416284 8.2152437,2.8699491 8.3046875,3.0166816 c 0.085951,0.1410267 0.043931,0.2614097 -0.085937,0.2614097 -0.1298688,0 -0.5457879,0.4449015 -0.9166667,0.9875476 -0.5912158,0.8650234 -0.6876512,1.2603722 -0.6875,3.0788252 8.23e-5,1.1409356 0.1127546,2.251864 -0.2291666,2.3236418 -0.2005368,0.042098 -0.181445,0.8351121 -0.085937,1.6555951 0.1248913,1.072927 0.3114398,1.598545 0.8307291,2.091277 0.8088233,0.767455 1.546875,2.095938 1.546875,2.817416 -1e-7,1.031001 -2.5759983,2.901836 -6.2161458,4.531101 L 1,21.402496 1,23 l 22,0 0,-1.887959 -1.346354,-0.551865 c -3.108003,-1.311592 -5.815104,-3.322414 -5.815104,-4.327782 0,-0.719735 0.710216,-2.050732 1.518229,-2.817416 0.519282,-0.492732 0.734484,-1.01835 0.859375,-2.091277 0.0955,-0.820483 0.108411,-1.5901177 -0.08594,-1.6555951 C 17.862412,9.5778817 17.872396,8.4760445 17.872396,7.3444641 17.872395,5.722437 17.770577,5.1188134 17.356771,4.4399121 16.533355,3.0890065 13.857948,2.0117395 11.914062,2.0000883 z" />
</svg>
