<?xml version="1.0" encoding="UTF-8" standalone="no"?>
<!-- Created with Inkscape (http://www.inkscape.org/) -->

<svg
   xmlns:dc="http://purl.org/dc/elements/1.1/"
   xmlns:cc="http://creativecommons.org/ns#"
   xmlns:rdf="http://www.w3.org/1999/02/22-rdf-syntax-ns#"
   xmlns:svg="http://www.w3.org/2000/svg"
   xmlns="http://www.w3.org/2000/svg"
   version="1.0"
   width="24"
   height="24"
   id="svg3211">
  <metadata
     id="metadata14">
    <rdf:RDF>
      <cc:Work
         rdf:about="">
        <dc:format>image/svg+xml</dc:format>
        <dc:type
           rdf:resource="http://purl.org/dc/dcmitype/StillImage" />
        <dc:title></dc:title>
      </cc:Work>
    </rdf:RDF>
  </metadata>
  <defs
     id="defs3213" />
  <path
     d="m 12,6 0,2 c -3.312,0 -6,2.688 -6,6 0,3.312 2.688,6 6,6 3.312,0 6,-2.688 6,-6 l -2,0 c 0,2.208 -1.792,4 -4,4 -2.2079999,0 -4,-1.792 -4,-4 0,-2.208 1.7919999,-4 4,-4 l 0,2 5,-3 -5,-3 z"
     id="path3224"
     style="opacity:0.3;fill:#ffffff;fill-opacity:1;fill-rule:evenodd;stroke:none" />
  <path
     d="m 12,5 0,2 c -3.312,0 -6,2.688 -6,6 0,3.312 2.688,6 6,6 3.312,0 6,-2.688 6,-6 l -2,0 c 0,2.208 -1.792,4 -4,4 C 9.7920001,17 8,15.208 8,13 8,10.792 9.7919999,9 12,9 l 0,2 5,-3 -5,-3 z"
     id="path4199"
     style="fill:#df382c;fill-opacity:1;fill-rule:evenodd;stroke:none" />
</svg>
