<?xml version="1.0" encoding="UTF-8" standalone="no"?>
<!-- Created with Inkscape (http://www.inkscape.org/) -->
<svg
   xmlns:svg="http://www.w3.org/2000/svg"
   xmlns="http://www.w3.org/2000/svg"
   version="1.0"
   width="24"
   height="24"
   id="svg3206">
  <defs
     id="defs3208" />
  <g
     id="layer1">
    <rect
       width="12.5"
       height="5.4999995"
       rx="0.25"
       ry="0.24999999"
       x="-18.75"
       y="14.25"
       transform="matrix(0,-1,1,0,0,0)"
       id="rect3236"
       style="opacity:0.3;fill:none;fill-opacity:1;fill-rule:nonzero;stroke:#000000;stroke-width:0.5;stroke-linecap:round;stroke-linejoin:miter;marker:none;marker-start:none;marker-mid:none;marker-end:none;stroke-miterlimit:4;stroke-dasharray:none;stroke-dashoffset:0;stroke-opacity:1;visibility:visible;display:inline;overflow:visible;enable-background:accumulate" />
    <path
       d="M 12.5,18.5 C 12.5,19.608 13.392,20.5 14.5,20.5 L 19.5,20.5 C 20.608,20.5 21.5,19.608 21.5,18.5 L 21.5,6.5 C 21.5,5.197903 20.949517,4.5963187 19.5,4.5 C 19.465401,3.913139 19.262611,3.339672 18.78125,2.96875 C 18.206345,2.443537 17.592479,2.553939 16.6875,2.5 C 15.782521,2.446061 14.523749,3.469035 14.5,4.573789 C 13.364936,4.573789 12.543704,4.9287747 12.5,6.5 L 12.5,18.5 z"
       id="rect3225"
       style="opacity:0.6;fill:none;fill-opacity:1;fill-rule:nonzero;stroke:#eae3d0;stroke-width:0.99999994;stroke-linecap:round;stroke-linejoin:miter;marker:none;marker-start:none;marker-mid:none;marker-end:none;stroke-miterlimit:4;stroke-dasharray:none;stroke-dashoffset:0;stroke-opacity:1;visibility:visible;display:inline;overflow:visible;enable-background:accumulate" />
    <rect
       width="4"
       height="4"
       rx="0.5"
       ry="0.5"
       x="15"
       y="14"
       id="rect3728"
       style="fill:#3a3935;fill-opacity:1;fill-rule:evenodd;stroke:none;stroke-width:1.69999993;stroke-linecap:round;stroke-linejoin:miter;marker:none;marker-start:none;marker-mid:none;marker-end:none;stroke-miterlimit:4;stroke-dasharray:none;stroke-dashoffset:0;stroke-opacity:1;visibility:visible;display:inline;overflow:visible;enable-background:accumulate" />
    <path
       d="M 13.5,18.5 L 13.5,6.5 C 13.5,5.946 13.946,5.5 14.5,5.5 L 19.5,5.5 C 20.054,5.5 20.5,5.946 20.5,6.5 L 20.5,18.5 C 20.5,19.054 20.054,19.5 19.5,19.5 L 14.5,19.5 C 13.946,19.5 13.5,19.054 13.5,18.5 z M 15.50264,5.381549 C 15.50334,5.053509 15.504168,4.725473 15.505144,4.397441 C 15.545901,3.799616 16.15474,3.420708 16.717338,3.499967 C 17.25026,3.5234 17.894234,3.375846 18.272203,3.863162 C 18.622964,4.30164 18.463608,4.884362 18.5,5.400369"
       id="rect2442"
       style="fill:none;fill-opacity:1;fill-rule:nonzero;stroke:#3a3935;stroke-width:1;stroke-linecap:round;stroke-linejoin:miter;marker:none;marker-start:none;marker-mid:none;marker-end:none;stroke-miterlimit:4;stroke-dashoffset:0;stroke-opacity:1;visibility:visible;display:inline;overflow:visible;enable-background:accumulate" />
    <path
       d="M 4,5 C 3.446,5 3,5.446 3,6 L 3,19 C 3,19.554 3.446,20 4,20 L 10,20 C 10.554,20 11,19.554 11,19 L 11,6 C 11,5.446 10.554,5 10,5 L 4,5 z M 4.5,6 L 9.5,6 C 9.777,6 10,6.223 10,6.5 L 10,13.5 C 10,13.777 9.777,14 9.5,14 L 4.5,14 C 4.223,14 4,13.777 4,13.5 L 4,6.5 C 4,6.223 4.223,6 4.5,6 z M 4.5,16 C 4.777,16 5,16.223 5,16.5 C 5,16.777 4.777,17 4.5,17 C 4.223,17 4,16.777 4,16.5 C 4,16.223 4.223,16 4.5,16 z M 6.5,16 C 6.777,16 7,16.223 7,16.5 C 7,16.223 7.223,16 7.5,16 C 7.777,16 8,16.223 8,16.5 C 8,16.777 7.777,17 7.5,17 C 7.223,17 7,16.777 7,16.5 C 7,16.777 6.777,17 6.5,17 C 6.223,17 6,16.777 6,16.5 C 6,16.223 6.223,16 6.5,16 z M 9.5,16 C 9.777,16 10,16.223 10,16.5 C 10,16.777 9.777,17 9.5,17 C 9.223,17 9,16.777 9,16.5 C 9,16.223 9.223,16 9.5,16 z M 4.5,18 C 4.777,18 5,18.223 5,18.5 C 5,18.777 4.777,19 4.5,19 C 4.223,19 4,18.777 4,18.5 C 4,18.223 4.223,18 4.5,18 z M 6.5,18 C 6.777,18 7,18.223 7,18.5 C 7,18.223 7.223,18 7.5,18 C 7.777,18 8,18.223 8,18.5 C 8,18.777 7.777,19 7.5,19 C 7.223,19 7,18.777 7,18.5 C 7,18.777 6.777,19 6.5,19 C 6.223,19 6,18.777 6,18.5 C 6,18.223 6.223,18 6.5,18 z M 9.5,18 C 9.777,18 10,18.223 10,18.5 C 10,18.777 9.777,19 9.5,19 C 9.223,19 9,18.777 9,18.5 C 9,18.223 9.223,18 9.5,18 z"
       id="rect2397"
       style="opacity:1;fill:#3a3935;fill-opacity:1;fill-rule:evenodd;stroke:none;stroke-width:1.69999993;stroke-linecap:round;stroke-linejoin:miter;marker:none;marker-start:none;marker-mid:none;marker-end:none;stroke-miterlimit:4;stroke-dasharray:none;stroke-dashoffset:0;stroke-opacity:1;visibility:visible;display:inline;overflow:visible;enable-background:accumulate" />
    <rect
       width="7.5000005"
       height="5.4999995"
       rx="0.25"
       ry="0.24999999"
       x="-13.750001"
       y="4.25"
       transform="matrix(0,-1,1,0,0,0)"
       id="rect3204"
       style="opacity:0.3;fill:none;fill-opacity:1;fill-rule:nonzero;stroke:#000000;stroke-width:0.5;stroke-linecap:round;stroke-linejoin:miter;marker:none;marker-start:none;marker-mid:none;marker-end:none;stroke-miterlimit:4;stroke-dasharray:none;stroke-dashoffset:0;stroke-opacity:1;visibility:visible;display:inline;overflow:visible;enable-background:accumulate" />
    <rect
       width="9"
       height="16"
       rx="1.5"
       ry="1.5"
       x="2.5000005"
       y="4.5"
       id="rect3322"
       style="opacity:0.6;fill:none;fill-opacity:1;fill-rule:nonzero;stroke:#eae3d0;stroke-width:0.99999994;stroke-linecap:round;stroke-linejoin:miter;marker:none;marker-start:none;marker-mid:none;marker-end:none;stroke-miterlimit:4;stroke-dasharray:none;stroke-dashoffset:0;stroke-opacity:1;visibility:visible;display:inline;overflow:visible;enable-background:accumulate" />
  </g>
</svg>
