<?xml version="1.0" encoding="UTF-8" standalone="no"?>
<!-- Created with Inkscape (http://www.inkscape.org/) -->

<svg
   xmlns:dc="http://purl.org/dc/elements/1.1/"
   xmlns:cc="http://creativecommons.org/ns#"
   xmlns:rdf="http://www.w3.org/1999/02/22-rdf-syntax-ns#"
   xmlns:svg="http://www.w3.org/2000/svg"
   xmlns="http://www.w3.org/2000/svg"
   xmlns:sodipodi="http://sodipodi.sourceforge.net/DTD/sodipodi-0.dtd"
   xmlns:inkscape="http://www.inkscape.org/namespaces/inkscape"
   width="90"
   height="90"
   id="svg4874"
   version="1.1"
   inkscape:version="0.48+devel r"
   viewBox="0 0 90 90.000001"
   sodipodi:docname="text-css-symbolic.svg">
  <defs
     id="defs4876" />
  <sodipodi:namedview
     id="base"
     pagecolor="#ffffff"
     bordercolor="#666666"
     borderopacity="1.0"
     inkscape:pageopacity="0.0"
     inkscape:pageshadow="2"
     inkscape:zoom="5.0931703"
     inkscape:cx="25.161142"
     inkscape:cy="58.450824"
     inkscape:document-units="px"
     inkscape:current-layer="g5283"
     showgrid="true"
     showborder="true"
     fit-margin-top="0"
     fit-margin-left="0"
     fit-margin-right="0"
     fit-margin-bottom="0"
     inkscape:snap-bbox="true"
     inkscape:bbox-paths="true"
     inkscape:bbox-nodes="true"
     inkscape:snap-bbox-edge-midpoints="true"
     inkscape:snap-bbox-midpoints="true"
     inkscape:object-paths="true"
     inkscape:snap-intersection-paths="true"
     inkscape:object-nodes="true"
     inkscape:snap-smooth-nodes="true"
     inkscape:snap-midpoints="true"
     inkscape:snap-object-midpoints="true"
     inkscape:snap-center="true"
     showguides="true"
     inkscape:guide-bbox="true">
    <inkscape:grid
       type="xygrid"
       id="grid5451"
       empspacing="6" />
    <sodipodi:guide
       orientation="1,0"
       position="6,77"
       id="guide4063" />
    <sodipodi:guide
       orientation="1,0"
       position="3,78"
       id="guide4065" />
    <sodipodi:guide
       orientation="0,1"
       position="55,84"
       id="guide4067" />
    <sodipodi:guide
       orientation="0,1"
       position="53,87"
       id="guide4069" />
    <sodipodi:guide
       orientation="0,1"
       position="20,3"
       id="guide4071" />
    <sodipodi:guide
       orientation="0,1"
       position="20,6"
       id="guide4073" />
    <sodipodi:guide
       orientation="1,0"
       position="87,7"
       id="guide4075" />
    <sodipodi:guide
       orientation="1,0"
       position="84,7"
       id="guide4077" />
    <sodipodi:guide
       orientation="0,1"
       position="58,81"
       id="guide4074" />
    <sodipodi:guide
       orientation="1,0"
       position="9,74"
       id="guide4076" />
    <sodipodi:guide
       orientation="0,1"
       position="21,9"
       id="guide4078" />
    <sodipodi:guide
       orientation="1,0"
       position="81,4"
       id="guide4080" />
  </sodipodi:namedview>
  <metadata
     id="metadata4879">
    <rdf:RDF>
      <cc:Work
         rdf:about="">
        <dc:format>image/svg+xml</dc:format>
        <dc:type
           rdf:resource="http://purl.org/dc/dcmitype/StillImage" />
        <dc:title></dc:title>
      </cc:Work>
    </rdf:RDF>
  </metadata>
  <g
     inkscape:label="Layer 1"
     inkscape:groupmode="layer"
     id="layer1"
     transform="translate(67.857146,-84.50504)">
    <g
       transform="matrix(0,-1,-1,0,373.50506,516.50504)"
       id="g4845"
       style="display:inline">
      <g
         id="g5283"
         transform="matrix(0,-1,-1,0,-293.63782,2219.3622)">
        <rect
           y="-725.63782"
           x="1778"
           height="90"
           width="90"
           id="rect5285"
           style="fill:none;stroke:none" />
        <path
           style="color:#000000;display:inline;overflow:visible;visibility:visible;fill:#808080;fill-opacity:1;fill-rule:nonzero;stroke:none;stroke-width:4;marker:none;enable-background:accumulate"
           d="m 9,3 0,84 51,0 3,0 18,-18 0,-3 0,-63 z m 6,6 60,0 0,57 -15,0 0,15 -45,0 z"
           transform="translate(1778,-725.63782)"
           id="path5289"
           inkscape:connector-curvature="0"
           sodipodi:nodetypes="ccccccccccccccc" />
        <path
           inkscape:connector-curvature="0"
           id="path4154"
           style="font-style:normal;font-variant:normal;font-weight:500;font-stretch:normal;font-size:medium;line-height:125%;font-family:Ubuntu;-inkscape-font-specification:'Ubuntu Medium';text-align:center;letter-spacing:0px;word-spacing:0px;writing-mode:lr-tb;text-anchor:middle;fill:#808080;fill-opacity:1;stroke:none;stroke-width:1px;stroke-linecap:butt;stroke-linejoin:miter;stroke-opacity:1"
           d="m 1807.0574,-682.67712 q 1.9358,0 2.8196,-1.21488 0.9258,-1.25826 0.9258,-2.95041 l 0,-6.37809 q 0,-2.03926 0.3787,-3.60124 0.3788,-1.60537 1.3467,-2.64669 0.9679,-1.08471 2.6934,-1.60537 1.7254,-0.56405 4.4187,-0.56405 l 0.2947,0 0,4.16528 q -1.2205,0 -2.0622,0.17356 -0.8417,0.17355 -1.3466,0.65082 -0.505,0.43389 -0.7575,1.21488 -0.2105,0.7376 -0.2105,1.90909 l 0,6.20454 q 0,2.60331 -0.6733,4.16529 -0.6312,1.51859 -2.1884,2.51653 1.5572,0.99793 2.1884,2.55991 0.6733,1.56198 0.6733,4.12189 l 0,6.24793 q 0,1.17149 0.2105,1.9091 0.2525,0.7376 0.7575,1.17148 0.5049,0.47727 1.3466,0.65083 0.8417,0.17355 2.0622,0.17355 l 0,4.16528 q -2.8197,0 -4.5872,-0.52065 -1.7675,-0.52066 -2.7775,-1.60537 -1.01,-1.04133 -1.3888,-2.60331 -0.3787,-1.56198 -0.3787,-3.64462 l 0,-6.42149 q 0,-1.64875 -0.9258,-2.86363 -0.8838,-1.25827 -2.8196,-1.25827 l 0,-4.12189 z" />
        <path
           inkscape:connector-curvature="0"
           id="path4156"
           style="font-style:normal;font-variant:normal;font-weight:500;font-stretch:normal;font-size:medium;line-height:125%;font-family:Ubuntu;-inkscape-font-specification:'Ubuntu Medium';text-align:center;letter-spacing:0px;word-spacing:0px;writing-mode:lr-tb;text-anchor:middle;fill:#808080;fill-opacity:1;stroke:none;stroke-width:1px;stroke-linecap:butt;stroke-linejoin:miter;stroke-opacity:1"
           d="m 1839,-678.55523 q -1.9359,0 -2.8617,1.25827 -0.8838,1.21488 -0.8838,2.86363 l 0,6.42149 q 0,2.08264 -0.3788,3.64462 -0.3786,1.56198 -1.3887,2.60331 -1.01,1.08471 -2.7775,1.60537 -1.7675,0.52065 -4.5871,0.52065 l 0,-4.16528 q 2.4409,0 3.4088,-0.82438 0.9679,-0.78099 0.9679,-3.08058 l 0,-6.24793 q 0,-2.55991 0.6313,-4.12189 0.6733,-1.56198 2.2304,-2.55991 -1.5571,-0.99794 -2.2304,-2.51653 -0.6313,-1.56198 -0.6313,-4.16529 l 0,-6.20454 q 0,-1.17149 -0.2525,-1.90909 -0.2104,-0.78099 -0.7154,-1.21488 -0.5051,-0.47727 -1.3467,-0.65082 -0.8417,-0.17356 -2.0621,-0.17356 l 0,-4.16528 0.2946,0 q 2.6933,0 4.4188,0.56405 1.7254,0.52066 2.6933,1.60537 0.968,1.04132 1.3466,2.64669 0.3788,1.56198 0.3788,3.60124 l 0,6.37809 q 0,1.69215 0.8838,2.95041 0.9258,1.21488 2.8617,1.21488 l 0,4.12189 z" />
      </g>
    </g>
  </g>
</svg>
