<?xml version="1.0" encoding="UTF-8" standalone="no"?>
<!-- Created with Inkscape (http://www.inkscape.org/) -->

<svg
   xmlns:dc="http://purl.org/dc/elements/1.1/"
   xmlns:cc="http://creativecommons.org/ns#"
   xmlns:rdf="http://www.w3.org/1999/02/22-rdf-syntax-ns#"
   xmlns:svg="http://www.w3.org/2000/svg"
   xmlns="http://www.w3.org/2000/svg"
   xmlns:sodipodi="http://sodipodi.sourceforge.net/DTD/sodipodi-0.dtd"
   xmlns:inkscape="http://www.inkscape.org/namespaces/inkscape"
   width="24"
   height="24"
   id="svg4008"
   version="1.1"
   inkscape:version="0.48.0 r9654"
   sodipodi:docname="playlist-automatic24.svg">
  <defs
     id="defs4010" />
  <sodipodi:namedview
     id="base"
     pagecolor="#ffffff"
     bordercolor="#666666"
     borderopacity="1.0"
     inkscape:pageopacity="0.0"
     inkscape:pageshadow="2"
     inkscape:zoom="22.625"
     inkscape:cx="10.107735"
     inkscape:cy="12"
     inkscape:current-layer="layer1"
     showgrid="false"
     inkscape:grid-bbox="true"
     inkscape:document-units="px"
     inkscape:window-width="1280"
     inkscape:window-height="753"
     inkscape:window-x="0"
     inkscape:window-y="24"
     inkscape:window-maximized="1">
    <inkscape:grid
       type="xygrid"
       id="grid3012"
       empspacing="5"
       visible="true"
       enabled="true"
       snapvisiblegridlinesonly="true" />
  </sodipodi:namedview>
  <metadata
     id="metadata4013">
    <rdf:RDF>
      <cc:Work
         rdf:about="">
        <dc:format>image/svg+xml</dc:format>
        <dc:type
           rdf:resource="http://purl.org/dc/dcmitype/StillImage" />
        <dc:title />
      </cc:Work>
    </rdf:RDF>
  </metadata>
  <g
     id="layer1"
     inkscape:label="Layer 1"
     inkscape:groupmode="layer"
     transform="translate(0,-8)">
    <path
       style="opacity:0.3;color:#ffffff;fill:#ffffff;fill-opacity:1;fill-rule:nonzero;stroke:none;stroke-width:1;marker:none;visibility:visible;display:inline;overflow:visible;enable-background:accumulate"
       d="M 11.53125,11 C 11.238861,11 11,11.238861 11,11.53125 l 0,1.625 C 10.046871,13.351288 9.1590135,13.730761 8.375,14.25 L 7.21875,13.09375 c -0.2067502,-0.20675 -0.5432498,-0.20675 -0.75,0 l -1.375,1.375 c -0.2067502,0.20675 -0.2067502,0.54325 0,0.75 L 6.25,16.375 C 5.7307609,17.159013 5.3512885,18.046871 5.15625,19 l -1.625,0 C 3.2388611,19 3,19.238861 3,19.53125 l 0,1.9375 C 3,21.761139 3.2388611,22 3.53125,22 l 1.625,0 c 0.1950385,0.953129 0.5745109,1.840987 1.09375,2.625 l -1.15625,1.15625 c -0.2067502,0.20675 -0.2067502,0.54325 0,0.75 l 1.375,1.375 c 0.2067502,0.20675 0.5432498,0.20675 0.75,0 L 8.375,26.75 c 0.7840135,0.519239 1.671871,0.898712 2.625,1.09375 l 0,1.625 C 11,29.761139 11.238861,30 11.53125,30 l 1.9375,0 C 13.761139,30 14,29.761139 14,29.46875 l 0,-1.625 c 0.953129,-0.195038 1.840987,-0.574511 2.625,-1.09375 l 1.15625,1.15625 c 0.20675,0.20675 0.54325,0.20675 0.75,0 l 1.375,-1.375 c 0.20675,-0.20675 0.20675,-0.54325 0,-0.75 L 18.75,24.625 C 19.269239,23.840987 19.648712,22.953129 19.84375,22 l 1.625,0 C 21.761139,22 22,21.761139 22,21.46875 l 0,-1.9375 C 22,19.238861 21.761139,19 21.46875,19 l -1.625,0 C 19.648712,18.046871 19.269239,17.159013 18.75,16.375 l 1.15625,-1.15625 c 0.20675,-0.20675 0.20675,-0.54325 0,-0.75 l -1.375,-1.375 c -0.20675,-0.20675 -0.54325,-0.20675 -0.75,0 L 16.625,14.25 C 15.840987,13.730761 14.953129,13.351288 14,13.15625 l 0,-1.625 C 14,11.238861 13.761139,11 13.46875,11 l -1.9375,0 z M 12.5,17 C 14.432997,17 16,18.567003 16,20.5 16,22.432997 14.432997,24 12.5,24 10.567003,24 9,22.432997 9,20.5 9,18.567003 10.567003,17 12.5,17 z"
       id="rect2985-7"
       inkscape:connector-curvature="0" />
    <path
       inkscape:connector-curvature="0"
       style="color:#ffffff;fill:#3c3c3c;fill-opacity:1;fill-rule:nonzero;stroke:none;stroke-width:1;marker:none;visibility:visible;display:inline;overflow:visible;enable-background:accumulate"
       d="M 11.53125,10 C 11.238861,10 11,10.238861 11,10.53125 l 0,1.625 C 10.046871,12.351288 9.1590135,12.730761 8.375,13.25 L 7.21875,12.09375 c -0.2067502,-0.20675 -0.5432498,-0.20675 -0.75,0 l -1.375,1.375 c -0.2067502,0.20675 -0.2067502,0.54325 0,0.75 L 6.25,15.375 C 5.7307609,16.159014 5.3512885,17.046871 5.15625,18 l -1.625,0 C 3.2388611,18 3,18.238861 3,18.53125 l 0,1.9375 C 3,20.761139 3.2388611,21 3.53125,21 l 1.625,0 c 0.1950385,0.953129 0.5745109,1.840987 1.09375,2.625 l -1.15625,1.15625 c -0.2067502,0.20675 -0.2067502,0.54325 0,0.75 l 1.375,1.375 c 0.2067502,0.20675 0.5432498,0.20675 0.75,0 L 8.375,25.75 c 0.7840135,0.519239 1.671871,0.898712 2.625,1.09375 l 0,1.625 C 11,28.761139 11.238861,29 11.53125,29 l 1.9375,0 C 13.761139,29 14,28.761139 14,28.46875 l 0,-1.625 c 0.953129,-0.195038 1.840987,-0.574511 2.625,-1.09375 l 1.15625,1.15625 c 0.20675,0.20675 0.54325,0.20675 0.75,0 l 1.375,-1.375 c 0.20675,-0.20675 0.20675,-0.54325 0,-0.75 L 18.75,23.625 C 19.269239,22.840987 19.648712,21.953129 19.84375,21 l 1.625,0 C 21.761139,21 22,20.761139 22,20.46875 l 0,-1.9375 C 22,18.238861 21.761139,18 21.46875,18 l -1.625,0 C 19.648712,17.046871 19.269239,16.159014 18.75,15.375 l 1.15625,-1.15625 c 0.20675,-0.20675 0.20675,-0.54325 0,-0.75 l -1.375,-1.375 c -0.20675,-0.20675 -0.54325,-0.20675 -0.75,0 L 16.625,13.25 C 15.840987,12.730761 14.953129,12.351288 14,12.15625 l 0,-1.625 C 14,10.238861 13.761139,10 13.46875,10 l -1.9375,0 z M 12.5,16 C 14.432997,16 16,17.567003 16,19.5 16,21.432997 14.432997,23 12.5,23 10.567003,23 9,21.432997 9,19.5 9,17.567003 10.567003,16 12.5,16 z"
       id="rect2985-7-7" />
  </g>
</svg>
