<?xml version="1.0" encoding="UTF-8" standalone="no"?>
<!-- Created with Inkscape (http://www.inkscape.org/) -->

<svg
   xmlns:dc="http://purl.org/dc/elements/1.1/"
   xmlns:cc="http://creativecommons.org/ns#"
   xmlns:rdf="http://www.w3.org/1999/02/22-rdf-syntax-ns#"
   xmlns:svg="http://www.w3.org/2000/svg"
   xmlns="http://www.w3.org/2000/svg"
   version="1.0"
   width="22"
   height="22"
   id="svg3211">
  <metadata
     id="metadata14">
    <rdf:RDF>
      <cc:Work
         rdf:about="">
        <dc:format>image/svg+xml</dc:format>
        <dc:type
           rdf:resource="http://purl.org/dc/dcmitype/StillImage" />
        <dc:title></dc:title>
      </cc:Work>
    </rdf:RDF>
  </metadata>
  <defs
     id="defs3213" />
  <path
     d="m 11,5 0,2 c -3.312,0 -6,2.688 -6,6 0,3.312 2.688,6 6,6 3.312,0 6,-2.688 6,-6 l -2,0 c 0,2.208 -1.792,4 -4,4 C 8.7920001,17 7,15.208 7,13 7,10.792 8.7919999,9 11,9 l 0,2 5,-3 -5,-3 z"
     id="path3224"
     style="opacity:0.3;fill:#ffffff;fill-opacity:1;fill-rule:evenodd;stroke:none" />
  <path
     d="m 11,4 0,2 c -3.312,0 -6,2.6879996 -6,6 0,3.312 2.688,6 6,6 3.312,0 6,-2.688 6,-6 l -2,0 c 0,2.208 -1.792,4 -4,4 C 8.7920001,16 7,14.208 7,12 7,9.792 8.7919999,8 11,8 l 0,2 5,-3 -5,-3 z"
     id="path4199"
     style="fill:#df382c;fill-opacity:1;fill-rule:evenodd;stroke:none" />
</svg>
