<?xml version="1.0" encoding="UTF-8" standalone="no"?>
<!-- Created with Inkscape (http://www.inkscape.org/) -->

<svg
   xmlns:dc="http://purl.org/dc/elements/1.1/"
   xmlns:cc="http://creativecommons.org/ns#"
   xmlns:rdf="http://www.w3.org/1999/02/22-rdf-syntax-ns#"
   xmlns:svg="http://www.w3.org/2000/svg"
   xmlns="http://www.w3.org/2000/svg"
   xmlns:sodipodi="http://sodipodi.sourceforge.net/DTD/sodipodi-0.dtd"
   xmlns:inkscape="http://www.inkscape.org/namespaces/inkscape"
   width="138.99989"
   height="90"
   id="svg4966"
   version="1.1"
   inkscape:version="0.48+devel r"
   viewBox="0 0 138.99989 90.000001"
   sodipodi:docname="battery-000-charging.svg">
  <defs
     id="defs4968" />
  <sodipodi:namedview
     id="base"
     pagecolor="#ffffff"
     bordercolor="#666666"
     borderopacity="1.0"
     inkscape:pageopacity="0.0"
     inkscape:pageshadow="2"
     inkscape:zoom="0.35"
     inkscape:cx="1247.7143"
     inkscape:cy="751.42855"
     inkscape:document-units="px"
     inkscape:current-layer="layer1"
     showgrid="false"
     fit-margin-top="0"
     fit-margin-left="0"
     fit-margin-right="0"
     fit-margin-bottom="0" />
  <metadata
     id="metadata4971">
    <rdf:RDF>
      <cc:Work
         rdf:about="">
        <dc:format>image/svg+xml</dc:format>
        <dc:type
           rdf:resource="http://purl.org/dc/dcmitype/StillImage" />
        <dc:title></dc:title>
      </cc:Work>
    </rdf:RDF>
  </metadata>
  <g
     inkscape:label="Layer 1"
     inkscape:groupmode="layer"
     id="layer1"
     transform="translate(1571.2858,-1193.7908)">
    <g
       transform="translate(-1854.8572,835.00008)"
       id="g5134"
       inkscape:label="Layer 1">
      <g
         inkscape:export-ydpi="90"
         inkscape:export-xdpi="90"
         inkscape:export-filename="envelope02.png"
         id="g5136"
         transform="translate(169.57144,223.42822)" />
      <g
         transform="translate(109.57145,223.42846)"
         id="g5138"
         inkscape:export-filename="battery02.png"
         inkscape:export-xdpi="90"
         inkscape:export-ydpi="90">
        <g
           id="g5140"
           transform="matrix(2.1875001,0,0,1.875,-456.00004,-1657.8169)"
           style="fill:none">
          <rect
             transform="translate(0,804.3622)"
             y="152"
             x="288"
             height="48"
             width="48"
             id="rect5142"
             style="opacity:0.21171169;fill:none;stroke:none" />
        </g>
        <path
           class="error"
           inkscape:connector-curvature="0"
           id="path5144"
           d="m 259.99999,150.36222 -75.15625,0.0117 c -7.84375,-0.0117 -10.84375,1.98828 -10.84375,11.98828 l 0,18 0,18 c 0,10 3,11.99998 10.84375,11.98828 l 75.15625,0.0117 c 7.84375,0.0117 11,-2.36328 11,-12 l 0,-4.01172 8,0 0,-13.98828 0,-13.98828 -8,0 0,-4.01172 c 0,-9.63672 -3.15625,-12.01172 -11,-12 z m -75,6 c 21.61883,0.01 48.95567,0.008 75,0 4,0 5,1 5,6 l 0,18 0,18 c 0,5 -1,6 -5,6 -26.04433,-0.008 -53.38117,-0.01 -75,0 -4,0 -5,-1 -5,-6 l 0,-18 0,-18 c 0,-5 1,-6 5,-6 z"
           style="font-style:normal;font-variant:normal;font-weight:normal;font-stretch:normal;font-size:15px;line-height:125%;font-family:Ubuntu;-inkscape-font-specification:Ubuntu;text-align:center;letter-spacing:0px;word-spacing:0px;writing-mode:lr-tb;text-anchor:middle;fill:#38b44a;fill-opacity:1;stroke:none" />
        <path
           style="display:inline;fill:#808080;fill-opacity:1;stroke:none"
           d="m 298.99567,150.36222 -13.99568,35 14.0002,0 -0.005,25 14.00469,-35 -14.00019,0 z"
           id="path3847-06-9"
           inkscape:connector-curvature="0"
           sodipodi:nodetypes="ccccccc" />
      </g>
    </g>
  </g>
</svg>
