<?xml version="1.0" encoding="UTF-8" standalone="no"?>
<!-- Created with Inkscape (http://www.inkscape.org/) -->

<svg
   xmlns:dc="http://purl.org/dc/elements/1.1/"
   xmlns:cc="http://creativecommons.org/ns#"
   xmlns:rdf="http://www.w3.org/1999/02/22-rdf-syntax-ns#"
   xmlns:svg="http://www.w3.org/2000/svg"
   xmlns="http://www.w3.org/2000/svg"
   xmlns:sodipodi="http://sodipodi.sourceforge.net/DTD/sodipodi-0.dtd"
   xmlns:inkscape="http://www.inkscape.org/namespaces/inkscape"
   width="105"
   height="90"
   id="svg4966"
   version="1.1"
   inkscape:version="0.48+devel r"
   viewBox="0 0 105 90.000001"
   sodipodi:docname="battery-caution.svg">
  <defs
     id="defs4968" />
  <sodipodi:namedview
     id="base"
     pagecolor="#ffffff"
     bordercolor="#666666"
     borderopacity="1.0"
     inkscape:pageopacity="0.0"
     inkscape:pageshadow="2"
     inkscape:zoom="0.35"
     inkscape:cx="732.50003"
     inkscape:cy="420.71427"
     inkscape:document-units="px"
     inkscape:current-layer="layer1"
     showgrid="false"
     fit-margin-top="0"
     fit-margin-left="0"
     fit-margin-right="0"
     fit-margin-bottom="0" />
  <metadata
     id="metadata4971">
    <rdf:RDF>
      <cc:Work
         rdf:about="">
        <dc:format>image/svg+xml</dc:format>
        <dc:type
           rdf:resource="http://purl.org/dc/dcmitype/StillImage" />
        <dc:title></dc:title>
      </cc:Work>
    </rdf:RDF>
  </metadata>
  <g
     inkscape:label="Layer 1"
     inkscape:groupmode="layer"
     id="layer1"
     transform="translate(1056.0715,-863.07648)">
    <g
       inkscape:label="Layer 1"
       id="g4932"
       transform="translate(-1339.6429,504.28579)">
      <g
         transform="translate(169.57144,223.42822)"
         id="g4934"
         inkscape:export-filename="envelope02.png"
         inkscape:export-xdpi="90"
         inkscape:export-ydpi="90" />
      <g
         inkscape:export-ydpi="90"
         inkscape:export-xdpi="90"
         inkscape:export-filename="battery02.png"
         id="g4936"
         transform="translate(109.57145,223.42846)">
        <g
           style="fill:none"
           transform="matrix(2.1875001,0,0,1.875,-456.00004,-1657.8169)"
           id="g4938">
          <rect
             style="opacity:0.21171169;fill:none;stroke:none"
             id="rect4940"
             width="48"
             height="48"
             x="288"
             y="152"
             transform="translate(0,804.3622)" />
        </g>
        <path
           style="font-style:normal;font-variant:normal;font-weight:normal;font-stretch:normal;font-size:15px;line-height:125%;font-family:Ubuntu;-inkscape-font-specification:Ubuntu;text-align:center;letter-spacing:0px;word-spacing:0px;writing-mode:lr-tb;text-anchor:middle;fill:#df382c;fill-opacity:1;stroke:none"
           d="m 219.03999,162.2978 7.92,0 0,8.87764 c 0,2.64092 -0.12408,5.0575 -0.36963,7.25298 -0.24553,2.19548 -0.55237,4.40742 -0.92069,6.63471 l -5.27719,0 c -0.40923,-2.22729 -0.73732,-4.43923 -0.98286,-6.63471 -0.24555,-2.22729 -0.36963,-4.64387 -0.36963,-7.25298 l 0,-8.87764 z"
           id="path4942"
           inkscape:connector-curvature="0" />
        <path
           style="font-style:normal;font-variant:normal;font-weight:normal;font-stretch:normal;font-size:15px;line-height:125%;font-family:Ubuntu;-inkscape-font-specification:Ubuntu;text-align:center;letter-spacing:0px;word-spacing:0px;writing-mode:lr-tb;text-anchor:middle;fill:#df382c;fill-opacity:1;stroke:none"
           d="m 222.99999,189.51876 c 1.26203,0 2.31998,0.42953 3.1737,1.28863 0.85374,0.82175 1.28024,1.88487 1.28024,3.19219 0,1.30733 -0.4265,2.37213 -1.28024,3.19387 -0.85372,0.82174 -1.91167,1.23319 -3.1737,1.23319 -1.22491,0 -2.28286,-0.41145 -3.1737,-1.23319 -0.85374,-0.82174 -1.28024,-1.88654 -1.28024,-3.19387 0,-1.30732 0.4265,-2.37044 1.28024,-3.19219 0.89084,-0.8591 1.94879,-1.28863 3.1737,-1.28863 z"
           id="path4944"
           inkscape:connector-curvature="0" />
        <path
           style="font-style:normal;font-variant:normal;font-weight:normal;font-stretch:normal;font-size:15px;line-height:125%;font-family:Ubuntu;-inkscape-font-specification:Ubuntu;text-align:center;letter-spacing:0px;word-spacing:0px;writing-mode:lr-tb;text-anchor:middle;fill:#df382c;fill-opacity:1;stroke:none"
           d="m 259.99999,150.36222 -75.15625,0.0117 c -7.84375,-0.0117 -10.84375,1.98828 -10.84375,11.98828 l 0,18 0,18 c 0,10 3,11.99998 10.84375,11.98828 l 75.15625,0.0117 c 7.84375,0.0117 11,-2.36328 11,-12 l 0,-4.01172 8,0 0,-13.98828 0,-13.98828 -8,0 0,-4.01172 c 0,-9.63672 -3.15625,-12.01172 -11,-12 z m -75,6 c 21.61883,0.01 48.95567,0.008 75,0 4,0 5,1 5,6 l 0,18 0,18 c 0,5 -1,6 -5,6 -26.04433,-0.008 -53.38117,-0.01 -75,0 -4,0 -5,-1 -5,-6 l 0,-18 0,-18 c 0,-5 1,-6 5,-6 z"
           id="path4946"
           inkscape:connector-curvature="0"
           class="error" />
      </g>
    </g>
  </g>
</svg>
