<?xml version="1.0" encoding="UTF-8" standalone="no"?>
<!-- Created with Inkscape (http://www.inkscape.org/) -->

<svg
   xmlns:dc="http://purl.org/dc/elements/1.1/"
   xmlns:cc="http://creativecommons.org/ns#"
   xmlns:rdf="http://www.w3.org/1999/02/22-rdf-syntax-ns#"
   xmlns:svg="http://www.w3.org/2000/svg"
   xmlns="http://www.w3.org/2000/svg"
   xmlns:sodipodi="http://sodipodi.sourceforge.net/DTD/sodipodi-0.dtd"
   xmlns:inkscape="http://www.inkscape.org/namespaces/inkscape"
   width="105"
   height="90"
   id="svg4966"
   version="1.1"
   inkscape:version="0.48+devel r"
   viewBox="0 0 105 90.000001"
   sodipodi:docname="battery-040.svg">
  <defs
     id="defs4968" />
  <sodipodi:namedview
     id="base"
     pagecolor="#ffffff"
     bordercolor="#666666"
     borderopacity="1.0"
     inkscape:pageopacity="0.0"
     inkscape:pageshadow="2"
     inkscape:zoom="0.35"
     inkscape:cx="611.07142"
     inkscape:cy="480.71428"
     inkscape:document-units="px"
     inkscape:current-layer="layer1"
     showgrid="false"
     fit-margin-top="0"
     fit-margin-left="0"
     fit-margin-right="0"
     fit-margin-bottom="0" />
  <metadata
     id="metadata4971">
    <rdf:RDF>
      <cc:Work
         rdf:about="">
        <dc:format>image/svg+xml</dc:format>
        <dc:type
           rdf:resource="http://purl.org/dc/dcmitype/StillImage" />
        <dc:title></dc:title>
      </cc:Work>
    </rdf:RDF>
  </metadata>
  <g
     inkscape:label="Layer 1"
     inkscape:groupmode="layer"
     id="layer1"
     transform="translate(934.64286,-923.07648)">
    <g
       inkscape:label="Layer 1"
       id="g4798"
       transform="translate(-1218.2143,564.2858)">
      <g
         transform="translate(169.57144,223.42822)"
         id="g4800"
         inkscape:export-filename="envelope02.png"
         inkscape:export-xdpi="90"
         inkscape:export-ydpi="90" />
      <g
         inkscape:export-ydpi="90"
         inkscape:export-xdpi="90"
         inkscape:export-filename="battery02.png"
         id="g4802"
         transform="translate(109.57145,223.42846)">
        <g
           style="fill:none"
           transform="matrix(2.1875001,0,0,1.875,-456.00004,-1657.8169)"
           id="g4804">
          <rect
             style="opacity:0.21171169;fill:none;stroke:none"
             id="rect4806"
             width="48"
             height="48"
             x="288"
             y="152"
             transform="translate(0,804.3622)" />
        </g>
        <path
           style="font-style:normal;font-variant:normal;font-weight:normal;font-stretch:normal;font-size:15px;line-height:125%;font-family:Ubuntu;-inkscape-font-specification:Ubuntu;text-align:center;letter-spacing:0px;word-spacing:0px;writing-mode:lr-tb;text-anchor:middle;opacity:1;fill:#808080;fill-opacity:1;stroke:none"
           d="m 671,685 -75.15625,0.0117 C 588,685.00002 585,687 585,697 l 0,18 0,18 c 0,10 3,11.99998 10.84375,11.98828 L 671,745 c 7.84375,0.0117 11,-2.36328 11,-12 l 0,-4.01172 8,0 0,-13.98828 0,-13.98828 -8,0 L 682,697 c 0,-9.63672 -3.15625,-12.01172 -11,-12 z m -75,6 c 21.61883,0.01 48.95567,0.008 75,0 4,0 5,1 5,6 l 0,18 0,18 c 0,5 -1,6 -5,6 -26.04433,-0.008 -53.38117,-0.01 -75,0 -4,0 -5,-1 -5,-6 l 0,-18 0,-18 c 0,-5 1,-6 5,-6 z"
           transform="translate(-411.00001,-534.63778)"
           id="path4998"
           inkscape:connector-curvature="0" />
        <path
           style="font-style:normal;font-variant:normal;font-weight:normal;font-stretch:normal;font-size:15px;line-height:125%;font-family:Ubuntu;-inkscape-font-specification:Ubuntu;text-align:center;letter-spacing:0px;word-spacing:0px;writing-mode:lr-tb;text-anchor:middle;fill:#808080;fill-opacity:1;stroke:none"
           d="m 601,697 c -3,0 -4,0 -4,5 l 0,13 0,13 c 0,5 1,5 4,5 l 27,0 0,-36 z"
           transform="translate(-411.00001,-534.63778)"
           id="path4810"
           inkscape:connector-curvature="0"
           sodipodi:nodetypes="cscscccc" />
      </g>
    </g>
  </g>
</svg>
