<?xml version="1.0" encoding="UTF-8" standalone="no"?>
<!-- Created with Inkscape (http://www.inkscape.org/) -->

<svg
   xmlns:dc="http://purl.org/dc/elements/1.1/"
   xmlns:cc="http://creativecommons.org/ns#"
   xmlns:rdf="http://www.w3.org/1999/02/22-rdf-syntax-ns#"
   xmlns:svg="http://www.w3.org/2000/svg"
   xmlns="http://www.w3.org/2000/svg"
   xmlns:sodipodi="http://sodipodi.sourceforge.net/DTD/sodipodi-0.dtd"
   xmlns:inkscape="http://www.inkscape.org/namespaces/inkscape"
   width="90"
   height="90"
   id="svg6138"
   version="1.1"
   inkscape:version="0.48+devel r"
   viewBox="0 0 90 90.000001"
   sodipodi:docname="bluetooth-disabled.svg">
  <defs
     id="defs6140" />
  <sodipodi:namedview
     id="base"
     pagecolor="#ffffff"
     bordercolor="#666666"
     borderopacity="1.0"
     inkscape:pageopacity="0.0"
     inkscape:pageshadow="2"
     inkscape:zoom="6.3664629"
     inkscape:cx="22.885549"
     inkscape:cy="45.26846"
     inkscape:document-units="px"
     inkscape:current-layer="g5937"
     showgrid="true"
     fit-margin-top="0"
     fit-margin-left="0"
     fit-margin-right="0"
     fit-margin-bottom="0"
     inkscape:snap-global="true"
     inkscape:snap-bbox="true"
     inkscape:bbox-paths="true"
     inkscape:snap-bbox-midpoints="true"
     inkscape:snap-bbox-edge-midpoints="true"
     inkscape:bbox-nodes="true"
     inkscape:object-paths="true"
     inkscape:snap-intersection-paths="true"
     inkscape:object-nodes="true"
     inkscape:snap-smooth-nodes="true"
     inkscape:snap-midpoints="true"
     inkscape:snap-others="true"
     inkscape:snap-object-midpoints="true"
     inkscape:snap-center="true"
     showguides="true"
     inkscape:guide-bbox="true">
    <inkscape:grid
       type="xygrid"
       id="grid6700"
       empspacing="6" />
    <sodipodi:guide
       orientation="0,1"
       position="90,87"
       id="guide4064" />
    <sodipodi:guide
       orientation="0,1"
       position="89,84"
       id="guide4066" />
    <sodipodi:guide
       orientation="1,0"
       position="3,69"
       id="guide4068" />
    <sodipodi:guide
       orientation="1,0"
       position="6,60"
       id="guide4070" />
    <sodipodi:guide
       orientation="1,0"
       position="87,58"
       id="guide4072" />
    <sodipodi:guide
       orientation="1,0"
       position="84,47"
       id="guide4074" />
    <sodipodi:guide
       orientation="0,1"
       position="77,3"
       id="guide4076" />
    <sodipodi:guide
       orientation="0,1"
       position="81,6"
       id="guide4078" />
    <sodipodi:guide
       orientation="1,0"
       position="81,25"
       id="guide4080" />
    <sodipodi:guide
       orientation="0,1"
       position="78,9"
       id="guide4082" />
    <sodipodi:guide
       orientation="0,1"
       position="79,81"
       id="guide4084" />
    <sodipodi:guide
       orientation="1,0"
       position="9,39"
       id="guide4086" />
  </sodipodi:namedview>
  <metadata
     id="metadata6143">
    <rdf:RDF>
      <cc:Work
         rdf:about="">
        <dc:format>image/svg+xml</dc:format>
        <dc:type
           rdf:resource="http://purl.org/dc/dcmitype/StillImage" />
        <dc:title></dc:title>
      </cc:Work>
    </rdf:RDF>
  </metadata>
  <g
     inkscape:label="Layer 1"
     inkscape:groupmode="layer"
     id="layer1"
     transform="translate(-283.57144,-358.79068)">
    <g
       transform="translate(169.57144,223.42822)"
       id="g5937"
       inkscape:export-filename="envelope02.png"
       inkscape:export-xdpi="90"
       inkscape:export-ydpi="90">
      <g
         id="g5939"
         transform="matrix(1.875,0,0,1.875,-426,-1657.8169)"
         style="fill:none">
        <rect
           transform="translate(0,804.3622)"
           y="152"
           x="288"
           height="48"
           width="48"
           id="rect5941"
           style="opacity:0.21171169;fill:none;stroke:none" />
      </g>
      <path
         style="font-size:15px;font-style:normal;font-variant:normal;font-weight:normal;font-stretch:normal;text-align:center;line-height:125%;letter-spacing:0px;word-spacing:0px;writing-mode:lr-tb;text-anchor:middle;fill:#808080;fill-opacity:1;stroke:none;font-family:Ubuntu;-inkscape-font-specification:Ubuntu;opacity:0.5"
         d="m 156,147.36246 0,6.1398 0,21.91211 -10.9569,-10.95521 -3.66588,3.66589 12.23546,12.23546 -12.23546,12.23546 3.66588,3.66588 10.9569,-10.9552 0,21.9121 0,6.1398 4.39091,-4.30601 12.79069,-12.79069 1.74719,-1.83209 -1.74719,-1.83379 -12.06566,-12.06567 0,-0.33959 12.06566,-12.06566 1.74719,-1.83379 -1.74719,-1.8321 L 160.39091,151.66847 156,147.36246 Z m 5.11594,12.3645 6.56598,6.5643 -6.56598,6.56599 0,-13.13029 z m 0,28.13681 6.56598,6.56599 -6.56598,6.56429 0,-13.13028 z"
         id="path4092"
         inkscape:connector-curvature="0" />
      <path
         inkscape:connector-curvature="0"
         style="font-size:15px;font-style:normal;font-variant:normal;font-weight:normal;font-stretch:normal;text-align:center;line-height:125%;letter-spacing:0px;word-spacing:0px;writing-mode:lr-tb;text-anchor:middle;fill:#808080;fill-opacity:1;stroke:none;display:inline;font-family:Ubuntu;-inkscape-font-specification:Ubuntu;opacity:0.5"
         d="m 146,138.36246 c -10,0 -15,-2e-4 -15,11.62695 l 0,60.7461 c 0,11.62716 5,11.62695 15,11.62695 l 26,0 c 10,0 15,2.1e-4 15,-11.62695 l 0,-60.7461 c 0,-11.62715 -5,-11.62695 -15,-11.62695 z m 1.86719,6 22.26562,0 c 7.9327,0 10.86719,-6.4e-4 10.86719,8.19141 l 0,55.61718 c 0,8.19205 -2.93449,8.19141 -10.86719,8.19141 l -22.26562,0 c -7.9327,0 -10.86719,6.4e-4 -10.86719,-8.19141 l 0,-55.61718 c 0,-8.19205 2.93449,-8.19141 10.86719,-8.19141 z"
         id="path4098"
         sodipodi:nodetypes="ssssssssssssssssss" />
    </g>
  </g>
</svg>
