<?xml version="1.0" encoding="UTF-8" standalone="no"?>
<!-- Created with Inkscape (http://www.inkscape.org/) -->

<svg
   xmlns:dc="http://purl.org/dc/elements/1.1/"
   xmlns:cc="http://creativecommons.org/ns#"
   xmlns:rdf="http://www.w3.org/1999/02/22-rdf-syntax-ns#"
   xmlns:svg="http://www.w3.org/2000/svg"
   xmlns="http://www.w3.org/2000/svg"
   xmlns:sodipodi="http://sodipodi.sourceforge.net/DTD/sodipodi-0.dtd"
   xmlns:inkscape="http://www.inkscape.org/namespaces/inkscape"
   width="90"
   height="90"
   id="svg6138"
   version="1.1"
   inkscape:version="0.91pre2 r"
   viewBox="0 0 90 90.000001"
   sodipodi:docname="dialog-warning-symbolic.svg">
  <defs
     id="defs6140" />
  <sodipodi:namedview
     id="base"
     pagecolor="#ffffff"
     bordercolor="#666666"
     borderopacity="1.0"
     inkscape:pageopacity="0.0"
     inkscape:pageshadow="2"
     inkscape:zoom="7.9580785"
     inkscape:cx="53.712715"
     inkscape:cy="44.897769"
     inkscape:document-units="px"
     inkscape:current-layer="g6442"
     showgrid="true"
     fit-margin-top="0"
     fit-margin-left="0"
     fit-margin-right="0"
     fit-margin-bottom="0"
     inkscape:snap-global="true"
     inkscape:snap-bbox="true"
     inkscape:bbox-paths="true"
     inkscape:snap-bbox-midpoints="true"
     inkscape:snap-bbox-edge-midpoints="true"
     inkscape:bbox-nodes="true"
     inkscape:object-paths="true"
     inkscape:snap-intersection-paths="true"
     inkscape:object-nodes="true"
     inkscape:snap-smooth-nodes="true"
     inkscape:snap-midpoints="true"
     inkscape:snap-others="true"
     inkscape:snap-object-midpoints="true"
     inkscape:snap-center="true"
     showguides="true"
     inkscape:guide-bbox="true">
    <inkscape:grid
       type="xygrid"
       id="grid6700"
       empspacing="6" />
    <sodipodi:guide
       orientation="0,1"
       position="90,87"
       id="guide4064" />
    <sodipodi:guide
       orientation="0,1"
       position="89,84"
       id="guide4066" />
    <sodipodi:guide
       orientation="1,0"
       position="3,69"
       id="guide4068" />
    <sodipodi:guide
       orientation="1,0"
       position="6,60"
       id="guide4070" />
    <sodipodi:guide
       orientation="1,0"
       position="87,58"
       id="guide4072" />
    <sodipodi:guide
       orientation="1,0"
       position="84,47"
       id="guide4074" />
    <sodipodi:guide
       orientation="0,1"
       position="77,3"
       id="guide4076" />
    <sodipodi:guide
       orientation="0,1"
       position="81,6"
       id="guide4078" />
    <sodipodi:guide
       orientation="1,0"
       position="81,25"
       id="guide4080" />
    <sodipodi:guide
       orientation="0,1"
       position="78,9"
       id="guide4082" />
    <sodipodi:guide
       orientation="0,1"
       position="79,81"
       id="guide4084" />
    <sodipodi:guide
       orientation="1,0"
       position="9,39"
       id="guide4086" />
  </sodipodi:namedview>
  <metadata
     id="metadata6143">
    <rdf:RDF>
      <cc:Work
         rdf:about="">
        <dc:format>image/svg+xml</dc:format>
        <dc:type
           rdf:resource="http://purl.org/dc/dcmitype/StillImage" />
        <dc:title></dc:title>
      </cc:Work>
    </rdf:RDF>
  </metadata>
  <g
     inkscape:label="Layer 1"
     inkscape:groupmode="layer"
     id="layer1"
     transform="translate(-283.57144,-358.79068)">
    <g
       transform="translate(169.57144,223.42822)"
       id="g5937"
       inkscape:export-filename="envelope02.png"
       inkscape:export-xdpi="90"
       inkscape:export-ydpi="90" />
    <g
       id="g6442"
       transform="translate(-753.45981,336.4283)">
      <rect
         style="fill:none;stroke:none"
         id="rect1687"
         width="90"
         height="90"
         x="1037.0312"
         y="22.362379" />
      <path
         style="color:#000000;display:inline;overflow:visible;visibility:visible;fill:#808080;fill-opacity:1;fill-rule:nonzero;stroke:none;stroke-width:1.30533755;marker:none;enable-background:accumulate"
         d="M 44.677734 6.0839844 A 6.0747471 6.1189588 0 0 0 39.742188 9.1367188 L 3.8144531 71.820312 A 6.0747471 6.1189588 0 0 0 9.0722656 81 L 80.927734 81 A 6.0747471 6.1189588 0 0 0 86.185547 71.820312 L 50.257812 9.1367188 A 6.0747471 6.1189588 0 0 0 44.677734 6.0839844 z M 41.136719 28.984375 L 48.923828 28.984375 L 48.923828 40.208984 C 48.923828 43.548316 48.8039 46.606743 48.5625 49.382812 C 48.320967 52.158881 48.01845 54.95518 47.65625 57.771484 L 42.464844 57.771484 C 42.06251 54.95518 41.739647 52.158881 41.498047 49.382812 C 41.256514 46.56651 41.136719 43.508083 41.136719 40.208984 L 41.136719 28.984375 z M 45 61.996094 C 46.3684 61.996094 47.515806 62.459409 48.441406 63.384766 C 49.367006 64.26989 49.830078 65.416067 49.830078 66.824219 C 49.830078 68.232371 49.367006 69.378547 48.441406 70.263672 C 47.515806 71.148797 46.3684 71.591797 45 71.591797 C 43.672067 71.591797 42.524527 71.148797 41.558594 70.263672 C 40.63286 69.378547 40.169922 68.232371 40.169922 66.824219 C 40.169922 65.416067 40.63286 64.26989 41.558594 63.384766 C 42.524527 62.459409 43.672067 61.996094 45 61.996094 z "
         transform="translate(1037.0312,22.36238)"
         id="path17" />
    </g>
  </g>
</svg>
