<?xml version="1.0" encoding="UTF-8" standalone="no"?>
<!-- Created with Inkscape (http://www.inkscape.org/) -->

<svg
   xmlns:dc="http://purl.org/dc/elements/1.1/"
   xmlns:cc="http://creativecommons.org/ns#"
   xmlns:rdf="http://www.w3.org/1999/02/22-rdf-syntax-ns#"
   xmlns:svg="http://www.w3.org/2000/svg"
   xmlns="http://www.w3.org/2000/svg"
   xmlns:sodipodi="http://sodipodi.sourceforge.net/DTD/sodipodi-0.dtd"
   xmlns:inkscape="http://www.inkscape.org/namespaces/inkscape"
   width="90"
   height="90"
   id="svg6138"
   version="1.1"
   inkscape:version="0.48+devel r"
   viewBox="0 0 90 90.000001"
   sodipodi:docname="messages.svg">
  <defs
     id="defs6140">
    <clipPath
       id="clipPath3017-4-5"
       clipPathUnits="userSpaceOnUse">
      <path
         inkscape:connector-curvature="0"
         id="path3019-4-1"
         d="m 199,186.36218 0,27 39,0 0,-27 -39,0 z m 25.14062,7.5 c 0.53199,1e-5 0.98285,0.0788 1.40625,0.15625 0.43428,0.0665 0.85228,0.1503 1.15625,0.25 0.31487,0.0883 0.52331,0.15051 0.71875,0.25 0.20629,0.0995 0.3975,0.21035 0.48438,0.26562 l -0.71875,2.04688 c -0.34742,-0.18802 -0.73152,-0.33605 -1.1875,-0.46875 -0.44518,-0.14367 -0.95236,-0.1875 -1.48438,-0.1875 -1.1834,2e-5 -2.0774,0.29423 -2.60937,0.96875 -0.52114,0.66344 -0.76563,1.58898 -0.76563,2.75 0,0.56396 0.0883,1.08247 0.21875,1.54687 0.13021,0.45338 0.2863,0.84012 0.54688,1.17188 0.26054,0.33171 0.60914,0.5933 1,0.78125 0.39089,0.17694 0.86949,0.23437 1.39062,0.23437 0.28227,0 0.47638,0.0119 0.67188,0 0.20624,-0.0118 0.39486,-0.029 0.54687,-0.0625 l 0,-4.01562 2.57813,0 0,5.6875 c -0.30401,0.12179 -0.77997,0.30476 -1.45313,0.4375 -0.67315,0.14368 -1.5276,0.1875 -2.51562,0.1875 -0.84687,0 -1.58638,-0.10962 -2.28125,-0.375 -0.684,-0.2654 -1.33954,-0.66323 -1.82813,-1.17188 -0.48862,-0.50864 -0.85358,-1.14981 -1.125,-1.89062 -0.26054,-0.74088 -0.39062,-1.58031 -0.39062,-2.53125 0,-0.96201 0.15999,-1.82166 0.45312,-2.5625 0.29316,-0.74084 0.70844,-1.38195 1.21875,-1.89063 0.51031,-0.5197 1.08162,-0.87523 1.76563,-1.14062 0.69482,-0.26539 1.42138,-0.4375 2.20312,-0.4375 z m -11.95312,0.0312 c 0.16265,-0.0119 0.35294,0 0.53125,0 0.65923,2e-5 1.24329,0.11625 1.71875,0.28125 0.48629,0.15417 0.87409,0.3747 1.1875,0.67187 0.31336,0.28617 0.55183,0.60379 0.70312,1 0.15137,0.3852 0.20313,0.8659 0.20313,1.32813 0,0.45128 -0.11057,0.86764 -0.35938,1.29687 -0.24855,0.41823 -0.57856,0.73303 -1,0.95313 0.58353,0.24213 1.04599,0.57822 1.35938,1.0625 0.32418,0.47325 0.46874,1.04741 0.46875,1.71875 -1e-5,0.52829 -0.0772,1.03315 -0.25,1.48437 -0.17294,0.44026 -0.44508,0.85733 -0.8125,1.1875 -0.36744,0.31919 -0.8335,0.54724 -1.40625,0.73438 -0.56193,0.17614 -1.22194,0.25 -2,0.25 -0.29181,0 -0.61332,0.0114 -0.9375,-0.0312 -0.32423,-0.033 -0.65054,-0.12135 -0.95313,-0.1875 -0.30257,-0.0659 -0.53269,-0.11021 -0.78125,-0.1875 -0.24856,-0.077 -0.46891,-0.15257 -0.60937,-0.21875 l 0.45312,-2.0625 c 0.28095,0.12087 0.6615,0.24753 1.09375,0.39062 0.44307,0.13221 1.0235,0.21875 1.67188,0.21875 0.74564,0 1.2323,-0.13585 1.57812,-0.42187 0.34578,-0.28617 0.54688,-0.67198 0.54688,-1.15625 0,-0.29717 -0.0577,-0.53625 -0.1875,-0.73438 -0.11866,-0.20911 -0.29951,-0.37891 -0.51563,-0.5 -0.21615,-0.13219 -0.5099,-0.26849 -0.8125,-0.3125 -0.29178,-0.0549 -0.57125,-0.0625 -0.90625,-0.0625 l -0.98437,0 0,-1.9375 1.125,0 c 0.23775,0 0.42449,-0.0808 0.64062,-0.125 0.2269,-0.044 0.4677,-0.0885 0.64063,-0.1875 0.17295,-0.11003 0.29336,-0.26138 0.39062,-0.4375 0.10805,-0.18702 0.125,-0.42798 0.125,-0.70312 0,-0.20913 -0.0387,-0.37719 -0.125,-0.53125 -0.0864,-0.15419 -0.18757,-0.27592 -0.32812,-0.375 -0.12981,-0.0994 -0.23818,-0.19035 -0.42188,-0.23438 -0.17296,-0.0549 -0.36315,-0.0625 -0.54687,-0.0625 -0.46469,3e-5 -0.94393,0.0601 -1.34375,0.20313 -0.38903,0.14289 -0.73834,0.32216 -1.0625,0.53125 l -0.84375,-1.82813 c 0.17295,-0.11026 0.38242,-0.17568 0.60937,-0.29687 0.23773,-0.12084 0.46902,-0.24468 0.75,-0.34375 0.28097,-0.0989 0.59286,-0.2152 0.90625,-0.28125 0.16206,-0.0332 0.32171,-0.0833 0.48438,-0.0937 z"
         style="color:#000000;fill:#ff00ff;fill-opacity:1;fill-rule:nonzero;stroke:none;stroke-width:6;marker:none;visibility:visible;display:inline;overflow:visible;enable-background:accumulate" />
    </clipPath>
  </defs>
  <sodipodi:namedview
     id="base"
     pagecolor="#ffffff"
     bordercolor="#666666"
     borderopacity="1.0"
     inkscape:pageopacity="0.0"
     inkscape:pageshadow="2"
     inkscape:zoom="7.9580785"
     inkscape:cx="24.899226"
     inkscape:cy="38.288133"
     inkscape:document-units="px"
     inkscape:current-layer="g1311"
     showgrid="true"
     fit-margin-top="0"
     fit-margin-left="0"
     fit-margin-right="0"
     fit-margin-bottom="0"
     inkscape:snap-global="true"
     inkscape:snap-bbox="true"
     inkscape:bbox-paths="true"
     inkscape:snap-bbox-midpoints="true"
     inkscape:snap-bbox-edge-midpoints="true"
     inkscape:bbox-nodes="true"
     inkscape:object-paths="true"
     inkscape:snap-intersection-paths="true"
     inkscape:object-nodes="true"
     inkscape:snap-smooth-nodes="true"
     inkscape:snap-midpoints="true"
     inkscape:snap-others="true"
     inkscape:snap-object-midpoints="true"
     inkscape:snap-center="true"
     showguides="true"
     inkscape:guide-bbox="true">
    <inkscape:grid
       type="xygrid"
       id="grid6700"
       empspacing="6" />
    <sodipodi:guide
       orientation="0,1"
       position="90,87"
       id="guide4064" />
    <sodipodi:guide
       orientation="0,1"
       position="89,84"
       id="guide4066" />
    <sodipodi:guide
       orientation="1,0"
       position="3,69"
       id="guide4068" />
    <sodipodi:guide
       orientation="1,0"
       position="6,60"
       id="guide4070" />
    <sodipodi:guide
       orientation="1,0"
       position="87,58"
       id="guide4072" />
    <sodipodi:guide
       orientation="1,0"
       position="84,47"
       id="guide4074" />
    <sodipodi:guide
       orientation="0,1"
       position="77,3"
       id="guide4076" />
    <sodipodi:guide
       orientation="0,1"
       position="81,6"
       id="guide4078" />
    <sodipodi:guide
       orientation="1,0"
       position="81,25"
       id="guide4080" />
    <sodipodi:guide
       orientation="0,1"
       position="78,9"
       id="guide4082" />
    <sodipodi:guide
       orientation="0,1"
       position="79,81"
       id="guide4084" />
    <sodipodi:guide
       orientation="1,0"
       position="9,39"
       id="guide4086" />
  </sodipodi:namedview>
  <metadata
     id="metadata6143">
    <rdf:RDF>
      <cc:Work
         rdf:about="">
        <dc:format>image/svg+xml</dc:format>
        <dc:type
           rdf:resource="http://purl.org/dc/dcmitype/StillImage" />
        <dc:title></dc:title>
      </cc:Work>
    </rdf:RDF>
  </metadata>
  <g
     inkscape:label="Layer 1"
     inkscape:groupmode="layer"
     id="layer1"
     transform="translate(-283.57144,-358.79068)">
    <g
       transform="translate(169.57144,223.42822)"
       id="g5937"
       inkscape:export-filename="envelope02.png"
       inkscape:export-xdpi="90"
       inkscape:export-ydpi="90" />
    <g
       inkscape:export-ydpi="90"
       inkscape:export-xdpi="90"
       inkscape:export-filename="envelope02.png"
       id="g1311"
       transform="translate(109.57214,223.42846)">
      <g
         transform="matrix(1.875,0,0,1.875,-366,-1657.8169)"
         id="g1313">
        <rect
           style="opacity:0.21171169;fill:none;stroke:none"
           id="rect1315"
           width="48"
           height="48"
           x="288"
           y="152"
           transform="translate(0,804.3622)" />
      </g>
      <path
         inkscape:connector-curvature="0"
         id="path4608"
         d="m 218.98896,138.53038 a 6.9719043,6.9719043 0 0 0 -6.9718,6.97179 6.9719043,6.9719043 0 0 0 1.29509,4.0378 c -1.90559,0.32651 -3.66538,0.81769 -5.27085,1.49672 -3.09273,1.30797 -5.63097,3.0829 -7.61029,5.32514 -1.97933,2.30451 -3.46174,5.01567 -4.4514,8.12989 -0.92779,3.11421 -1.39332,6.47682 -1.39332,10.08932 l 0,18.04084 c 0,2.05283 -0.19176,3.93187 -0.57905,5.63535 -0.38729,1.70424 -1.06601,3.15503 -2.03441,4.35575 -0.92953,1.23943 -2.18851,2.19022 -3.77672,2.84869 -1.54776,0.67951 -3.49069,1.01832 -5.81111,1.03401 l 0,0.0103 12.20129,0 48.80255,0 12.253,0 0,-0.0103 c -2.3302,-0.0157 -4.28001,-0.3542 -5.8344,-1.03659 -1.59481,-0.66127 -2.85885,-1.61431 -3.79222,-2.85903 -0.97258,-1.20584 -1.65331,-2.66753 -2.04216,-4.37903 -0.38904,-1.71075 -0.58422,-3.59704 -0.58422,-5.6586 l 0,-17.98139 c 0,-3.6125 -0.49413,-6.97511 -1.4838,-10.08932 -0.92778,-3.11422 -2.4102,-5.82538 -4.4514,-8.12989 -1.97949,-2.24224 -4.51755,-4.01717 -7.61029,-5.32514 -1.56746,-0.67642 -3.29866,-1.16754 -5.18037,-1.49414 a 6.9719043,6.9719043 0 0 0 1.29768,-4.04038 6.9719043,6.9719043 0 0 0 -6.9718,-6.97179 z m -10.98892,72.83289 a 11.000001,11.000001 0 0 0 21.99851,0 l -10.99925,0 -10.99926,0 z"
         style="font-style:normal;font-variant:normal;font-weight:normal;font-stretch:normal;font-size:15px;line-height:125%;font-family:Ubuntu;-inkscape-font-specification:Ubuntu;text-align:center;letter-spacing:0px;word-spacing:0px;writing-mode:lr-tb;text-anchor:middle;fill:#808080;fill-opacity:1;stroke:none" />
    </g>
  </g>
</svg>
