<?xml version="1.0" encoding="UTF-8" standalone="no"?>
<!-- Created with Inkscape (http://www.inkscape.org/) -->

<svg
   xmlns:dc="http://purl.org/dc/elements/1.1/"
   xmlns:cc="http://creativecommons.org/ns#"
   xmlns:rdf="http://www.w3.org/1999/02/22-rdf-syntax-ns#"
   xmlns:svg="http://www.w3.org/2000/svg"
   xmlns="http://www.w3.org/2000/svg"
   xmlns:sodipodi="http://sodipodi.sourceforge.net/DTD/sodipodi-0.dtd"
   xmlns:inkscape="http://www.inkscape.org/namespaces/inkscape"
   width="90"
   height="90"
   id="svg6138"
   version="1.1"
   inkscape:version="0.48+devel r"
   viewBox="0 0 90 90.000001"
   sodipodi:docname="network-cellular-none.svg">
  <defs
     id="defs6140">
    <clipPath
       id="clipPath3017-4-5"
       clipPathUnits="userSpaceOnUse">
      <path
         inkscape:connector-curvature="0"
         id="path3019-4-1"
         d="m 199,186.36218 0,27 39,0 0,-27 -39,0 z m 25.14062,7.5 c 0.53199,1e-5 0.98285,0.0788 1.40625,0.15625 0.43428,0.0665 0.85228,0.1503 1.15625,0.25 0.31487,0.0883 0.52331,0.15051 0.71875,0.25 0.20629,0.0995 0.3975,0.21035 0.48438,0.26562 l -0.71875,2.04688 c -0.34742,-0.18802 -0.73152,-0.33605 -1.1875,-0.46875 -0.44518,-0.14367 -0.95236,-0.1875 -1.48438,-0.1875 -1.1834,2e-5 -2.0774,0.29423 -2.60937,0.96875 -0.52114,0.66344 -0.76563,1.58898 -0.76563,2.75 0,0.56396 0.0883,1.08247 0.21875,1.54687 0.13021,0.45338 0.2863,0.84012 0.54688,1.17188 0.26054,0.33171 0.60914,0.5933 1,0.78125 0.39089,0.17694 0.86949,0.23437 1.39062,0.23437 0.28227,0 0.47638,0.0119 0.67188,0 0.20624,-0.0118 0.39486,-0.029 0.54687,-0.0625 l 0,-4.01562 2.57813,0 0,5.6875 c -0.30401,0.12179 -0.77997,0.30476 -1.45313,0.4375 -0.67315,0.14368 -1.5276,0.1875 -2.51562,0.1875 -0.84687,0 -1.58638,-0.10962 -2.28125,-0.375 -0.684,-0.2654 -1.33954,-0.66323 -1.82813,-1.17188 -0.48862,-0.50864 -0.85358,-1.14981 -1.125,-1.89062 -0.26054,-0.74088 -0.39062,-1.58031 -0.39062,-2.53125 0,-0.96201 0.15999,-1.82166 0.45312,-2.5625 0.29316,-0.74084 0.70844,-1.38195 1.21875,-1.89063 0.51031,-0.5197 1.08162,-0.87523 1.76563,-1.14062 0.69482,-0.26539 1.42138,-0.4375 2.20312,-0.4375 z m -11.95312,0.0312 c 0.16265,-0.0119 0.35294,0 0.53125,0 0.65923,2e-5 1.24329,0.11625 1.71875,0.28125 0.48629,0.15417 0.87409,0.3747 1.1875,0.67187 0.31336,0.28617 0.55183,0.60379 0.70312,1 0.15137,0.3852 0.20313,0.8659 0.20313,1.32813 0,0.45128 -0.11057,0.86764 -0.35938,1.29687 -0.24855,0.41823 -0.57856,0.73303 -1,0.95313 0.58353,0.24213 1.04599,0.57822 1.35938,1.0625 0.32418,0.47325 0.46874,1.04741 0.46875,1.71875 -1e-5,0.52829 -0.0772,1.03315 -0.25,1.48437 -0.17294,0.44026 -0.44508,0.85733 -0.8125,1.1875 -0.36744,0.31919 -0.8335,0.54724 -1.40625,0.73438 -0.56193,0.17614 -1.22194,0.25 -2,0.25 -0.29181,0 -0.61332,0.0114 -0.9375,-0.0312 -0.32423,-0.033 -0.65054,-0.12135 -0.95313,-0.1875 -0.30257,-0.0659 -0.53269,-0.11021 -0.78125,-0.1875 -0.24856,-0.077 -0.46891,-0.15257 -0.60937,-0.21875 l 0.45312,-2.0625 c 0.28095,0.12087 0.6615,0.24753 1.09375,0.39062 0.44307,0.13221 1.0235,0.21875 1.67188,0.21875 0.74564,0 1.2323,-0.13585 1.57812,-0.42187 0.34578,-0.28617 0.54688,-0.67198 0.54688,-1.15625 0,-0.29717 -0.0577,-0.53625 -0.1875,-0.73438 -0.11866,-0.20911 -0.29951,-0.37891 -0.51563,-0.5 -0.21615,-0.13219 -0.5099,-0.26849 -0.8125,-0.3125 -0.29178,-0.0549 -0.57125,-0.0625 -0.90625,-0.0625 l -0.98437,0 0,-1.9375 1.125,0 c 0.23775,0 0.42449,-0.0808 0.64062,-0.125 0.2269,-0.044 0.4677,-0.0885 0.64063,-0.1875 0.17295,-0.11003 0.29336,-0.26138 0.39062,-0.4375 0.10805,-0.18702 0.125,-0.42798 0.125,-0.70312 0,-0.20913 -0.0387,-0.37719 -0.125,-0.53125 -0.0864,-0.15419 -0.18757,-0.27592 -0.32812,-0.375 -0.12981,-0.0994 -0.23818,-0.19035 -0.42188,-0.23438 -0.17296,-0.0549 -0.36315,-0.0625 -0.54687,-0.0625 -0.46469,3e-5 -0.94393,0.0601 -1.34375,0.20313 -0.38903,0.14289 -0.73834,0.32216 -1.0625,0.53125 l -0.84375,-1.82813 c 0.17295,-0.11026 0.38242,-0.17568 0.60937,-0.29687 0.23773,-0.12084 0.46902,-0.24468 0.75,-0.34375 0.28097,-0.0989 0.59286,-0.2152 0.90625,-0.28125 0.16206,-0.0332 0.32171,-0.0833 0.48438,-0.0937 z"
         style="color:#000000;fill:#ff00ff;fill-opacity:1;fill-rule:nonzero;stroke:none;stroke-width:6;marker:none;visibility:visible;display:inline;overflow:visible;enable-background:accumulate" />
    </clipPath>
    <clipPath
       id="clipPath3017-4-5-0"
       clipPathUnits="userSpaceOnUse">
      <path
         inkscape:connector-curvature="0"
         id="path3019-4-1-8"
         d="m 199,186.36218 0,27 39,0 0,-27 -39,0 z m 25.14062,7.5 c 0.53199,1e-5 0.98285,0.0788 1.40625,0.15625 0.43428,0.0665 0.85228,0.1503 1.15625,0.25 0.31487,0.0883 0.52331,0.15051 0.71875,0.25 0.20629,0.0995 0.3975,0.21035 0.48438,0.26562 l -0.71875,2.04688 c -0.34742,-0.18802 -0.73152,-0.33605 -1.1875,-0.46875 -0.44518,-0.14367 -0.95236,-0.1875 -1.48438,-0.1875 -1.1834,2e-5 -2.0774,0.29423 -2.60937,0.96875 -0.52114,0.66344 -0.76563,1.58898 -0.76563,2.75 0,0.56396 0.0883,1.08247 0.21875,1.54687 0.13021,0.45338 0.2863,0.84012 0.54688,1.17188 0.26054,0.33171 0.60914,0.5933 1,0.78125 0.39089,0.17694 0.86949,0.23437 1.39062,0.23437 0.28227,0 0.47638,0.0119 0.67188,0 0.20624,-0.0118 0.39486,-0.029 0.54687,-0.0625 l 0,-4.01562 2.57813,0 0,5.6875 c -0.30401,0.12179 -0.77997,0.30476 -1.45313,0.4375 -0.67315,0.14368 -1.5276,0.1875 -2.51562,0.1875 -0.84687,0 -1.58638,-0.10962 -2.28125,-0.375 -0.684,-0.2654 -1.33954,-0.66323 -1.82813,-1.17188 -0.48862,-0.50864 -0.85358,-1.14981 -1.125,-1.89062 -0.26054,-0.74088 -0.39062,-1.58031 -0.39062,-2.53125 0,-0.96201 0.15999,-1.82166 0.45312,-2.5625 0.29316,-0.74084 0.70844,-1.38195 1.21875,-1.89063 0.51031,-0.5197 1.08162,-0.87523 1.76563,-1.14062 0.69482,-0.26539 1.42138,-0.4375 2.20312,-0.4375 z m -11.95312,0.0312 c 0.16265,-0.0119 0.35294,0 0.53125,0 0.65923,2e-5 1.24329,0.11625 1.71875,0.28125 0.48629,0.15417 0.87409,0.3747 1.1875,0.67187 0.31336,0.28617 0.55183,0.60379 0.70312,1 0.15137,0.3852 0.20313,0.8659 0.20313,1.32813 0,0.45128 -0.11057,0.86764 -0.35938,1.29687 -0.24855,0.41823 -0.57856,0.73303 -1,0.95313 0.58353,0.24213 1.04599,0.57822 1.35938,1.0625 0.32418,0.47325 0.46874,1.04741 0.46875,1.71875 -1e-5,0.52829 -0.0772,1.03315 -0.25,1.48437 -0.17294,0.44026 -0.44508,0.85733 -0.8125,1.1875 -0.36744,0.31919 -0.8335,0.54724 -1.40625,0.73438 -0.56193,0.17614 -1.22194,0.25 -2,0.25 -0.29181,0 -0.61332,0.0114 -0.9375,-0.0312 -0.32423,-0.033 -0.65054,-0.12135 -0.95313,-0.1875 -0.30257,-0.0659 -0.53269,-0.11021 -0.78125,-0.1875 -0.24856,-0.077 -0.46891,-0.15257 -0.60937,-0.21875 l 0.45312,-2.0625 c 0.28095,0.12087 0.6615,0.24753 1.09375,0.39062 0.44307,0.13221 1.0235,0.21875 1.67188,0.21875 0.74564,0 1.2323,-0.13585 1.57812,-0.42187 0.34578,-0.28617 0.54688,-0.67198 0.54688,-1.15625 0,-0.29717 -0.0577,-0.53625 -0.1875,-0.73438 -0.11866,-0.20911 -0.29951,-0.37891 -0.51563,-0.5 -0.21615,-0.13219 -0.5099,-0.26849 -0.8125,-0.3125 -0.29178,-0.0549 -0.57125,-0.0625 -0.90625,-0.0625 l -0.98437,0 0,-1.9375 1.125,0 c 0.23775,0 0.42449,-0.0808 0.64062,-0.125 0.2269,-0.044 0.4677,-0.0885 0.64063,-0.1875 0.17295,-0.11003 0.29336,-0.26138 0.39062,-0.4375 0.10805,-0.18702 0.125,-0.42798 0.125,-0.70312 0,-0.20913 -0.0387,-0.37719 -0.125,-0.53125 -0.0864,-0.15419 -0.18757,-0.27592 -0.32812,-0.375 -0.12981,-0.0994 -0.23818,-0.19035 -0.42188,-0.23438 -0.17296,-0.0549 -0.36315,-0.0625 -0.54687,-0.0625 -0.46469,3e-5 -0.94393,0.0601 -1.34375,0.20313 -0.38903,0.14289 -0.73834,0.32216 -1.0625,0.53125 l -0.84375,-1.82813 c 0.17295,-0.11026 0.38242,-0.17568 0.60937,-0.29687 0.23773,-0.12084 0.46902,-0.24468 0.75,-0.34375 0.28097,-0.0989 0.59286,-0.2152 0.90625,-0.28125 0.16206,-0.0332 0.32171,-0.0833 0.48438,-0.0937 z"
         style="color:#000000;fill:#ff00ff;fill-opacity:1;fill-rule:nonzero;stroke:none;stroke-width:6;marker:none;visibility:visible;display:inline;overflow:visible;enable-background:accumulate" />
    </clipPath>
    <clipPath
       id="clipPath3017-4-5-9"
       clipPathUnits="userSpaceOnUse">
      <path
         inkscape:connector-curvature="0"
         id="path3019-4-1-2"
         d="m 199,186.36218 0,27 39,0 0,-27 -39,0 z m 25.14062,7.5 c 0.53199,1e-5 0.98285,0.0788 1.40625,0.15625 0.43428,0.0665 0.85228,0.1503 1.15625,0.25 0.31487,0.0883 0.52331,0.15051 0.71875,0.25 0.20629,0.0995 0.3975,0.21035 0.48438,0.26562 l -0.71875,2.04688 c -0.34742,-0.18802 -0.73152,-0.33605 -1.1875,-0.46875 -0.44518,-0.14367 -0.95236,-0.1875 -1.48438,-0.1875 -1.1834,2e-5 -2.0774,0.29423 -2.60937,0.96875 -0.52114,0.66344 -0.76563,1.58898 -0.76563,2.75 0,0.56396 0.0883,1.08247 0.21875,1.54687 0.13021,0.45338 0.2863,0.84012 0.54688,1.17188 0.26054,0.33171 0.60914,0.5933 1,0.78125 0.39089,0.17694 0.86949,0.23437 1.39062,0.23437 0.28227,0 0.47638,0.0119 0.67188,0 0.20624,-0.0118 0.39486,-0.029 0.54687,-0.0625 l 0,-4.01562 2.57813,0 0,5.6875 c -0.30401,0.12179 -0.77997,0.30476 -1.45313,0.4375 -0.67315,0.14368 -1.5276,0.1875 -2.51562,0.1875 -0.84687,0 -1.58638,-0.10962 -2.28125,-0.375 -0.684,-0.2654 -1.33954,-0.66323 -1.82813,-1.17188 -0.48862,-0.50864 -0.85358,-1.14981 -1.125,-1.89062 -0.26054,-0.74088 -0.39062,-1.58031 -0.39062,-2.53125 0,-0.96201 0.15999,-1.82166 0.45312,-2.5625 0.29316,-0.74084 0.70844,-1.38195 1.21875,-1.89063 0.51031,-0.5197 1.08162,-0.87523 1.76563,-1.14062 0.69482,-0.26539 1.42138,-0.4375 2.20312,-0.4375 z m -11.95312,0.0312 c 0.16265,-0.0119 0.35294,0 0.53125,0 0.65923,2e-5 1.24329,0.11625 1.71875,0.28125 0.48629,0.15417 0.87409,0.3747 1.1875,0.67187 0.31336,0.28617 0.55183,0.60379 0.70312,1 0.15137,0.3852 0.20313,0.8659 0.20313,1.32813 0,0.45128 -0.11057,0.86764 -0.35938,1.29687 -0.24855,0.41823 -0.57856,0.73303 -1,0.95313 0.58353,0.24213 1.04599,0.57822 1.35938,1.0625 0.32418,0.47325 0.46874,1.04741 0.46875,1.71875 -1e-5,0.52829 -0.0772,1.03315 -0.25,1.48437 -0.17294,0.44026 -0.44508,0.85733 -0.8125,1.1875 -0.36744,0.31919 -0.8335,0.54724 -1.40625,0.73438 -0.56193,0.17614 -1.22194,0.25 -2,0.25 -0.29181,0 -0.61332,0.0114 -0.9375,-0.0312 -0.32423,-0.033 -0.65054,-0.12135 -0.95313,-0.1875 -0.30257,-0.0659 -0.53269,-0.11021 -0.78125,-0.1875 -0.24856,-0.077 -0.46891,-0.15257 -0.60937,-0.21875 l 0.45312,-2.0625 c 0.28095,0.12087 0.6615,0.24753 1.09375,0.39062 0.44307,0.13221 1.0235,0.21875 1.67188,0.21875 0.74564,0 1.2323,-0.13585 1.57812,-0.42187 0.34578,-0.28617 0.54688,-0.67198 0.54688,-1.15625 0,-0.29717 -0.0577,-0.53625 -0.1875,-0.73438 -0.11866,-0.20911 -0.29951,-0.37891 -0.51563,-0.5 -0.21615,-0.13219 -0.5099,-0.26849 -0.8125,-0.3125 -0.29178,-0.0549 -0.57125,-0.0625 -0.90625,-0.0625 l -0.98437,0 0,-1.9375 1.125,0 c 0.23775,0 0.42449,-0.0808 0.64062,-0.125 0.2269,-0.044 0.4677,-0.0885 0.64063,-0.1875 0.17295,-0.11003 0.29336,-0.26138 0.39062,-0.4375 0.10805,-0.18702 0.125,-0.42798 0.125,-0.70312 0,-0.20913 -0.0387,-0.37719 -0.125,-0.53125 -0.0864,-0.15419 -0.18757,-0.27592 -0.32812,-0.375 -0.12981,-0.0994 -0.23818,-0.19035 -0.42188,-0.23438 -0.17296,-0.0549 -0.36315,-0.0625 -0.54687,-0.0625 -0.46469,3e-5 -0.94393,0.0601 -1.34375,0.20313 -0.38903,0.14289 -0.73834,0.32216 -1.0625,0.53125 l -0.84375,-1.82813 c 0.17295,-0.11026 0.38242,-0.17568 0.60937,-0.29687 0.23773,-0.12084 0.46902,-0.24468 0.75,-0.34375 0.28097,-0.0989 0.59286,-0.2152 0.90625,-0.28125 0.16206,-0.0332 0.32171,-0.0833 0.48438,-0.0937 z"
         style="color:#000000;fill:#ff00ff;fill-opacity:1;fill-rule:nonzero;stroke:none;stroke-width:6;marker:none;visibility:visible;display:inline;overflow:visible;enable-background:accumulate" />
    </clipPath>
    <clipPath
       id="clipPath3017-4-5-3"
       clipPathUnits="userSpaceOnUse">
      <path
         inkscape:connector-curvature="0"
         id="path3019-4-1-5"
         d="m 199,186.36218 0,27 39,0 0,-27 -39,0 z m 25.14062,7.5 c 0.53199,1e-5 0.98285,0.0788 1.40625,0.15625 0.43428,0.0665 0.85228,0.1503 1.15625,0.25 0.31487,0.0883 0.52331,0.15051 0.71875,0.25 0.20629,0.0995 0.3975,0.21035 0.48438,0.26562 l -0.71875,2.04688 c -0.34742,-0.18802 -0.73152,-0.33605 -1.1875,-0.46875 -0.44518,-0.14367 -0.95236,-0.1875 -1.48438,-0.1875 -1.1834,2e-5 -2.0774,0.29423 -2.60937,0.96875 -0.52114,0.66344 -0.76563,1.58898 -0.76563,2.75 0,0.56396 0.0883,1.08247 0.21875,1.54687 0.13021,0.45338 0.2863,0.84012 0.54688,1.17188 0.26054,0.33171 0.60914,0.5933 1,0.78125 0.39089,0.17694 0.86949,0.23437 1.39062,0.23437 0.28227,0 0.47638,0.0119 0.67188,0 0.20624,-0.0118 0.39486,-0.029 0.54687,-0.0625 l 0,-4.01562 2.57813,0 0,5.6875 c -0.30401,0.12179 -0.77997,0.30476 -1.45313,0.4375 -0.67315,0.14368 -1.5276,0.1875 -2.51562,0.1875 -0.84687,0 -1.58638,-0.10962 -2.28125,-0.375 -0.684,-0.2654 -1.33954,-0.66323 -1.82813,-1.17188 -0.48862,-0.50864 -0.85358,-1.14981 -1.125,-1.89062 -0.26054,-0.74088 -0.39062,-1.58031 -0.39062,-2.53125 0,-0.96201 0.15999,-1.82166 0.45312,-2.5625 0.29316,-0.74084 0.70844,-1.38195 1.21875,-1.89063 0.51031,-0.5197 1.08162,-0.87523 1.76563,-1.14062 0.69482,-0.26539 1.42138,-0.4375 2.20312,-0.4375 z m -11.95312,0.0312 c 0.16265,-0.0119 0.35294,0 0.53125,0 0.65923,2e-5 1.24329,0.11625 1.71875,0.28125 0.48629,0.15417 0.87409,0.3747 1.1875,0.67187 0.31336,0.28617 0.55183,0.60379 0.70312,1 0.15137,0.3852 0.20313,0.8659 0.20313,1.32813 0,0.45128 -0.11057,0.86764 -0.35938,1.29687 -0.24855,0.41823 -0.57856,0.73303 -1,0.95313 0.58353,0.24213 1.04599,0.57822 1.35938,1.0625 0.32418,0.47325 0.46874,1.04741 0.46875,1.71875 -1e-5,0.52829 -0.0772,1.03315 -0.25,1.48437 -0.17294,0.44026 -0.44508,0.85733 -0.8125,1.1875 -0.36744,0.31919 -0.8335,0.54724 -1.40625,0.73438 -0.56193,0.17614 -1.22194,0.25 -2,0.25 -0.29181,0 -0.61332,0.0114 -0.9375,-0.0312 -0.32423,-0.033 -0.65054,-0.12135 -0.95313,-0.1875 -0.30257,-0.0659 -0.53269,-0.11021 -0.78125,-0.1875 -0.24856,-0.077 -0.46891,-0.15257 -0.60937,-0.21875 l 0.45312,-2.0625 c 0.28095,0.12087 0.6615,0.24753 1.09375,0.39062 0.44307,0.13221 1.0235,0.21875 1.67188,0.21875 0.74564,0 1.2323,-0.13585 1.57812,-0.42187 0.34578,-0.28617 0.54688,-0.67198 0.54688,-1.15625 0,-0.29717 -0.0577,-0.53625 -0.1875,-0.73438 -0.11866,-0.20911 -0.29951,-0.37891 -0.51563,-0.5 -0.21615,-0.13219 -0.5099,-0.26849 -0.8125,-0.3125 -0.29178,-0.0549 -0.57125,-0.0625 -0.90625,-0.0625 l -0.98437,0 0,-1.9375 1.125,0 c 0.23775,0 0.42449,-0.0808 0.64062,-0.125 0.2269,-0.044 0.4677,-0.0885 0.64063,-0.1875 0.17295,-0.11003 0.29336,-0.26138 0.39062,-0.4375 0.10805,-0.18702 0.125,-0.42798 0.125,-0.70312 0,-0.20913 -0.0387,-0.37719 -0.125,-0.53125 -0.0864,-0.15419 -0.18757,-0.27592 -0.32812,-0.375 -0.12981,-0.0994 -0.23818,-0.19035 -0.42188,-0.23438 -0.17296,-0.0549 -0.36315,-0.0625 -0.54687,-0.0625 -0.46469,3e-5 -0.94393,0.0601 -1.34375,0.20313 -0.38903,0.14289 -0.73834,0.32216 -1.0625,0.53125 l -0.84375,-1.82813 c 0.17295,-0.11026 0.38242,-0.17568 0.60937,-0.29687 0.23773,-0.12084 0.46902,-0.24468 0.75,-0.34375 0.28097,-0.0989 0.59286,-0.2152 0.90625,-0.28125 0.16206,-0.0332 0.32171,-0.0833 0.48438,-0.0937 z"
         style="color:#000000;fill:#ff00ff;fill-opacity:1;fill-rule:nonzero;stroke:none;stroke-width:6;marker:none;visibility:visible;display:inline;overflow:visible;enable-background:accumulate" />
    </clipPath>
    <clipPath
       id="clipPath3017-4-5-2"
       clipPathUnits="userSpaceOnUse">
      <path
         inkscape:connector-curvature="0"
         id="path3019-4-1-6"
         d="m 199,186.36218 0,27 39,0 0,-27 -39,0 z m 25.14062,7.5 c 0.53199,1e-5 0.98285,0.0788 1.40625,0.15625 0.43428,0.0665 0.85228,0.1503 1.15625,0.25 0.31487,0.0883 0.52331,0.15051 0.71875,0.25 0.20629,0.0995 0.3975,0.21035 0.48438,0.26562 l -0.71875,2.04688 c -0.34742,-0.18802 -0.73152,-0.33605 -1.1875,-0.46875 -0.44518,-0.14367 -0.95236,-0.1875 -1.48438,-0.1875 -1.1834,2e-5 -2.0774,0.29423 -2.60937,0.96875 -0.52114,0.66344 -0.76563,1.58898 -0.76563,2.75 0,0.56396 0.0883,1.08247 0.21875,1.54687 0.13021,0.45338 0.2863,0.84012 0.54688,1.17188 0.26054,0.33171 0.60914,0.5933 1,0.78125 0.39089,0.17694 0.86949,0.23437 1.39062,0.23437 0.28227,0 0.47638,0.0119 0.67188,0 0.20624,-0.0118 0.39486,-0.029 0.54687,-0.0625 l 0,-4.01562 2.57813,0 0,5.6875 c -0.30401,0.12179 -0.77997,0.30476 -1.45313,0.4375 -0.67315,0.14368 -1.5276,0.1875 -2.51562,0.1875 -0.84687,0 -1.58638,-0.10962 -2.28125,-0.375 -0.684,-0.2654 -1.33954,-0.66323 -1.82813,-1.17188 -0.48862,-0.50864 -0.85358,-1.14981 -1.125,-1.89062 -0.26054,-0.74088 -0.39062,-1.58031 -0.39062,-2.53125 0,-0.96201 0.15999,-1.82166 0.45312,-2.5625 0.29316,-0.74084 0.70844,-1.38195 1.21875,-1.89063 0.51031,-0.5197 1.08162,-0.87523 1.76563,-1.14062 0.69482,-0.26539 1.42138,-0.4375 2.20312,-0.4375 z m -11.95312,0.0312 c 0.16265,-0.0119 0.35294,0 0.53125,0 0.65923,2e-5 1.24329,0.11625 1.71875,0.28125 0.48629,0.15417 0.87409,0.3747 1.1875,0.67187 0.31336,0.28617 0.55183,0.60379 0.70312,1 0.15137,0.3852 0.20313,0.8659 0.20313,1.32813 0,0.45128 -0.11057,0.86764 -0.35938,1.29687 -0.24855,0.41823 -0.57856,0.73303 -1,0.95313 0.58353,0.24213 1.04599,0.57822 1.35938,1.0625 0.32418,0.47325 0.46874,1.04741 0.46875,1.71875 -1e-5,0.52829 -0.0772,1.03315 -0.25,1.48437 -0.17294,0.44026 -0.44508,0.85733 -0.8125,1.1875 -0.36744,0.31919 -0.8335,0.54724 -1.40625,0.73438 -0.56193,0.17614 -1.22194,0.25 -2,0.25 -0.29181,0 -0.61332,0.0114 -0.9375,-0.0312 -0.32423,-0.033 -0.65054,-0.12135 -0.95313,-0.1875 -0.30257,-0.0659 -0.53269,-0.11021 -0.78125,-0.1875 -0.24856,-0.077 -0.46891,-0.15257 -0.60937,-0.21875 l 0.45312,-2.0625 c 0.28095,0.12087 0.6615,0.24753 1.09375,0.39062 0.44307,0.13221 1.0235,0.21875 1.67188,0.21875 0.74564,0 1.2323,-0.13585 1.57812,-0.42187 0.34578,-0.28617 0.54688,-0.67198 0.54688,-1.15625 0,-0.29717 -0.0577,-0.53625 -0.1875,-0.73438 -0.11866,-0.20911 -0.29951,-0.37891 -0.51563,-0.5 -0.21615,-0.13219 -0.5099,-0.26849 -0.8125,-0.3125 -0.29178,-0.0549 -0.57125,-0.0625 -0.90625,-0.0625 l -0.98437,0 0,-1.9375 1.125,0 c 0.23775,0 0.42449,-0.0808 0.64062,-0.125 0.2269,-0.044 0.4677,-0.0885 0.64063,-0.1875 0.17295,-0.11003 0.29336,-0.26138 0.39062,-0.4375 0.10805,-0.18702 0.125,-0.42798 0.125,-0.70312 0,-0.20913 -0.0387,-0.37719 -0.125,-0.53125 -0.0864,-0.15419 -0.18757,-0.27592 -0.32812,-0.375 -0.12981,-0.0994 -0.23818,-0.19035 -0.42188,-0.23438 -0.17296,-0.0549 -0.36315,-0.0625 -0.54687,-0.0625 -0.46469,3e-5 -0.94393,0.0601 -1.34375,0.20313 -0.38903,0.14289 -0.73834,0.32216 -1.0625,0.53125 l -0.84375,-1.82813 c 0.17295,-0.11026 0.38242,-0.17568 0.60937,-0.29687 0.23773,-0.12084 0.46902,-0.24468 0.75,-0.34375 0.28097,-0.0989 0.59286,-0.2152 0.90625,-0.28125 0.16206,-0.0332 0.32171,-0.0833 0.48438,-0.0937 z"
         style="color:#000000;fill:#ff00ff;fill-opacity:1;fill-rule:nonzero;stroke:none;stroke-width:6;marker:none;visibility:visible;display:inline;overflow:visible;enable-background:accumulate" />
    </clipPath>
  </defs>
  <sodipodi:namedview
     id="base"
     pagecolor="#ffffff"
     bordercolor="#666666"
     borderopacity="1.0"
     inkscape:pageopacity="0.0"
     inkscape:pageshadow="2"
     inkscape:zoom="6.3664628"
     inkscape:cx="13.688919"
     inkscape:cy="44.662847"
     inkscape:document-units="px"
     inkscape:current-layer="g6119"
     showgrid="true"
     fit-margin-top="0"
     fit-margin-left="0"
     fit-margin-right="0"
     fit-margin-bottom="0"
     inkscape:snap-global="true"
     inkscape:snap-bbox="true"
     inkscape:bbox-paths="true"
     inkscape:snap-bbox-midpoints="true"
     inkscape:snap-bbox-edge-midpoints="true"
     inkscape:bbox-nodes="true"
     inkscape:object-paths="true"
     inkscape:snap-intersection-paths="true"
     inkscape:object-nodes="true"
     inkscape:snap-smooth-nodes="true"
     inkscape:snap-midpoints="true"
     inkscape:snap-others="true"
     inkscape:snap-object-midpoints="true"
     inkscape:snap-center="true"
     showguides="true"
     inkscape:guide-bbox="true">
    <inkscape:grid
       type="xygrid"
       id="grid6700"
       empspacing="6" />
    <sodipodi:guide
       orientation="0,1"
       position="90,87"
       id="guide4064" />
    <sodipodi:guide
       orientation="0,1"
       position="89,84"
       id="guide4066" />
    <sodipodi:guide
       orientation="1,0"
       position="3,69"
       id="guide4068" />
    <sodipodi:guide
       orientation="1,0"
       position="6,60"
       id="guide4070" />
    <sodipodi:guide
       orientation="1,0"
       position="87,58"
       id="guide4072" />
    <sodipodi:guide
       orientation="1,0"
       position="84,47"
       id="guide4074" />
    <sodipodi:guide
       orientation="0,1"
       position="77,3"
       id="guide4076" />
    <sodipodi:guide
       orientation="0,1"
       position="81,6"
       id="guide4078" />
    <sodipodi:guide
       orientation="1,0"
       position="81,25"
       id="guide4080" />
    <sodipodi:guide
       orientation="0,1"
       position="78,9"
       id="guide4082" />
    <sodipodi:guide
       orientation="0,1"
       position="79,81"
       id="guide4084" />
    <sodipodi:guide
       orientation="1,0"
       position="9,39"
       id="guide4086" />
  </sodipodi:namedview>
  <metadata
     id="metadata6143">
    <rdf:RDF>
      <cc:Work
         rdf:about="">
        <dc:format>image/svg+xml</dc:format>
        <dc:type
           rdf:resource="http://purl.org/dc/dcmitype/StillImage" />
        <dc:title></dc:title>
      </cc:Work>
    </rdf:RDF>
  </metadata>
  <g
     inkscape:label="Layer 1"
     inkscape:groupmode="layer"
     id="layer1"
     transform="translate(-283.57144,-358.79068)">
    <g
       transform="translate(169.57144,223.42822)"
       id="g5937"
       inkscape:export-filename="envelope02.png"
       inkscape:export-xdpi="90"
       inkscape:export-ydpi="90" />
    <g
       id="g6119"
       transform="translate(221.57144,-513.5715)">
      <path
         style="font-size:15px;font-style:normal;font-variant:normal;font-weight:normal;font-stretch:normal;text-align:center;line-height:125%;letter-spacing:0px;word-spacing:0px;writing-mode:lr-tb;text-anchor:middle;opacity:0.5;fill:#808080;fill-opacity:1;stroke:none;font-family:Ubuntu;-inkscape-font-specification:Ubuntu"
         d="m 78.85519,889.36323 c -4.2326,-0.053 -7.07741,0.8969 -8.53711,2.6484 -1.5326,1.8245 -2.31836,4.8187 -2.31836,8.9786 l 0,32.746 c 0,4.16 0.78576,7.1541 2.31836,8.9786 1.4597,1.7516 4.30421,2.6484 8.53711,2.6484 l 56.29101,0 c 4.2329,0 7.07741,-0.8968 8.53711,-2.6484 1.5326,-1.8245 2.31641,-4.8186 2.31641,-8.9786 l 0,-32.746 c 0,-4.1599 -0.78381,-7.1541 -2.31641,-8.9786 -1.4596,-1.7515 -4.30421,-2.6484 -8.53711,-2.6484 l -56.29101,0 z m -0.0742,5.9941 c 0.0247,2e-4 0.0495,2e-4 0.0742,0 l 56.29101,0 c 4.85531,0.01 4.85533,2.0065 4.86133,5.6348 l 0,32.7461 c -0.006,3.6256 -1.00614,5.6258 -4.86133,5.6348 l -56.29101,0 c -4.85379,0 -4.85379,-2.0092 -4.86329,-5.6348 l 0,-32.7461 c 0.009,-3.6283 0.009,-5.6288 4.78907,-5.6348 z"
         id="path6129"
         inkscape:connector-curvature="0" />
      <path
         style="font-size:15px;font-style:normal;font-variant:normal;font-weight:normal;font-stretch:normal;text-align:center;line-height:125%;letter-spacing:0px;word-spacing:0px;writing-mode:lr-tb;text-anchor:middle;opacity:0.5;fill:#808080;fill-opacity:1;stroke:none;font-family:Ubuntu;-inkscape-font-specification:Ubuntu"
         d="m 94.85714,900.36118 12.14258,12.1426 12.14257,-12.1426 4.85938,4.8594 -12.14258,12.1406 12.14258,12.1426 -4.85938,4.8594 -12.14257,-12.1426 -12.14258,12.1426 -4.85938,-4.8594 12.14258,-12.1426 -12.14258,-12.1406 4.85938,-4.8594 z"
         id="path6121"
         inkscape:connector-curvature="0" />
      <rect
         style="fill:none;stroke:none"
         id="rect6123"
         width="90"
         height="90"
         x="62"
         y="872.36218" />
      <path
         transform="matrix(2,0,0,2,-330,517.63782)"
         style="fill:#cccccc;fill-opacity:1;stroke:none;display:none"
         d="m 213.5,189.36218 c -9,0 -10,0 -10,6 l 0,9 c 0,6 1,6 10,6 l 10,0 c 9,0 10,0 10,-6 l 0,-9 c 0,-6 -1,-6 -10,-6 z"
         id="path6125"
         inkscape:connector-curvature="0"
         sodipodi:nodetypes="ccccccccc"
         clip-path="url(#clipPath3017-4-5-2)" />
    </g>
  </g>
</svg>
