<?xml version="1.0" encoding="UTF-8" standalone="no"?>
<!-- Created with Inkscape (http://www.inkscape.org/) -->

<svg
   xmlns:dc="http://purl.org/dc/elements/1.1/"
   xmlns:cc="http://creativecommons.org/ns#"
   xmlns:rdf="http://www.w3.org/1999/02/22-rdf-syntax-ns#"
   xmlns:svg="http://www.w3.org/2000/svg"
   xmlns="http://www.w3.org/2000/svg"
   xmlns:sodipodi="http://sodipodi.sourceforge.net/DTD/sodipodi-0.dtd"
   xmlns:inkscape="http://www.inkscape.org/namespaces/inkscape"
   width="90"
   height="90"
   id="svg6138"
   version="1.1"
   inkscape:version="0.48+devel r"
   viewBox="0 0 90 90.000001"
   sodipodi:docname="simcard-error.svg">
  <defs
     id="defs6140" />
  <sodipodi:namedview
     id="base"
     pagecolor="#ffffff"
     bordercolor="#666666"
     borderopacity="1.0"
     inkscape:pageopacity="0.0"
     inkscape:pageshadow="2"
     inkscape:zoom="4.0745362"
     inkscape:cx="27.990915"
     inkscape:cy="64.105448"
     inkscape:document-units="px"
     inkscape:current-layer="g5937"
     showgrid="true"
     fit-margin-top="0"
     fit-margin-left="0"
     fit-margin-right="0"
     fit-margin-bottom="0"
     inkscape:snap-global="true"
     inkscape:snap-bbox="true"
     inkscape:bbox-paths="true"
     inkscape:snap-bbox-midpoints="true"
     inkscape:snap-bbox-edge-midpoints="true"
     inkscape:bbox-nodes="true"
     inkscape:object-paths="true"
     inkscape:snap-intersection-paths="true"
     inkscape:object-nodes="true"
     inkscape:snap-smooth-nodes="true"
     inkscape:snap-midpoints="true"
     inkscape:snap-others="true"
     inkscape:snap-object-midpoints="true"
     inkscape:snap-center="true"
     showguides="true"
     inkscape:guide-bbox="true">
    <inkscape:grid
       type="xygrid"
       id="grid6700"
       empspacing="6" />
    <sodipodi:guide
       orientation="0,1"
       position="90,87"
       id="guide4064" />
    <sodipodi:guide
       orientation="0,1"
       position="89,84"
       id="guide4066" />
    <sodipodi:guide
       orientation="1,0"
       position="3,69"
       id="guide4068" />
    <sodipodi:guide
       orientation="1,0"
       position="6,60"
       id="guide4070" />
    <sodipodi:guide
       orientation="1,0"
       position="87,58"
       id="guide4072" />
    <sodipodi:guide
       orientation="1,0"
       position="84,47"
       id="guide4074" />
    <sodipodi:guide
       orientation="0,1"
       position="77,3"
       id="guide4076" />
    <sodipodi:guide
       orientation="0,1"
       position="81,6"
       id="guide4078" />
    <sodipodi:guide
       orientation="1,0"
       position="81,25"
       id="guide4080" />
    <sodipodi:guide
       orientation="0,1"
       position="78,9"
       id="guide4082" />
    <sodipodi:guide
       orientation="0,1"
       position="79,81"
       id="guide4084" />
    <sodipodi:guide
       orientation="1,0"
       position="9,39"
       id="guide4086" />
  </sodipodi:namedview>
  <metadata
     id="metadata6143">
    <rdf:RDF>
      <cc:Work
         rdf:about="">
        <dc:format>image/svg+xml</dc:format>
        <dc:type
           rdf:resource="http://purl.org/dc/dcmitype/StillImage" />
        <dc:title></dc:title>
      </cc:Work>
    </rdf:RDF>
  </metadata>
  <g
     inkscape:label="Layer 1"
     inkscape:groupmode="layer"
     id="layer1"
     transform="translate(-283.57144,-358.79068)">
    <g
       transform="translate(169.57144,223.42822)"
       id="g5937"
       inkscape:export-filename="envelope02.png"
       inkscape:export-xdpi="90"
       inkscape:export-ydpi="90">
      <path
         style="font-style:normal;font-variant:normal;font-weight:normal;font-stretch:normal;font-size:15px;line-height:125%;font-family:Ubuntu;-inkscape-font-specification:Ubuntu;text-align:center;letter-spacing:0px;word-spacing:0px;writing-mode:lr-tb;text-anchor:middle;display:inline;opacity:1;fill:#df382c;fill-opacity:1;stroke:none"
         d="m 144,138.36246 c -10,0 -15,-2e-4 -15,11.62695 l 0,60.7461 c 0,11.62716 5,11.62695 15,11.62695 l 30,0 c 10,0 15,2.1e-4 15,-11.62695 l 0,-55.37305 -17,-17 z m 1.86719,6 23.13281,0 14,14 0,49.80859 c 0,8.19205 -2.93449,8.19141 -10.86719,8.19141 l -26.26562,0 c -7.9327,0 -10.86719,6.4e-4 -10.86719,-8.19141 l 0,-55.61718 c 0,-8.19205 2.93449,-8.19141 10.86719,-8.19141 z"
         id="path4101"
         inkscape:connector-curvature="0"
         sodipodi:nodetypes="ssssssccssccssssss" />
      <g
         id="g5939"
         transform="matrix(1.875,0,0,1.875,-426,-1657.8169)"
         style="fill:none">
        <rect
           transform="translate(0,804.3622)"
           y="152"
           x="288"
           height="48"
           width="48"
           id="rect5941"
           style="opacity:0.21171169;fill:none;stroke:none" />
      </g>
      <path
         style="color:#000000;display:inline;overflow:visible;visibility:visible;fill:#df382c;fill-opacity:1;fill-rule:nonzero;stroke:none;stroke-width:3;marker:none;enable-background:accumulate"
         d="m 155,162.36246 0,8.9668 c 0,2.63533 0.12502,5.07657 0.37305,7.32617 0.248,2.21747 0.5808,4.45146 0.99414,6.70117 l 5.32812,0 c 0.37204,-2.24971 0.68364,-4.4837 0.93164,-6.70117 0.24802,-2.21759 0.37305,-4.6586 0.37305,-7.32617 l 0,-8.9668 -8,0 z m 4,27 c -1.23751,0 -2.30703,0.43478 -3.20703,1.30273 -0.86251,0.83022 -1.29297,1.904 -1.29297,3.22461 0,1.32094 0.43046,2.39635 1.29297,3.22657 0.9,0.83022 1.96952,1.24609 3.20703,1.24609 1.27501,0 2.34452,-0.41587 3.20703,-1.24609 0.86251,-0.83022 1.29297,-1.90563 1.29297,-3.22657 0,-1.32061 -0.43046,-2.39439 -1.29297,-3.22461 -0.86251,-0.86795 -1.93202,-1.30273 -3.20703,-1.30273 z"
         id="path4116"
         inkscape:connector-curvature="0" />
    </g>
  </g>
</svg>
