<?xml version="1.0" encoding="UTF-8" standalone="no"?>
<!-- Created with Inkscape (http://www.inkscape.org/) -->

<svg
   xmlns:dc="http://purl.org/dc/elements/1.1/"
   xmlns:cc="http://creativecommons.org/ns#"
   xmlns:rdf="http://www.w3.org/1999/02/22-rdf-syntax-ns#"
   xmlns:svg="http://www.w3.org/2000/svg"
   xmlns="http://www.w3.org/2000/svg"
   xmlns:sodipodi="http://sodipodi.sourceforge.net/DTD/sodipodi-0.dtd"
   xmlns:inkscape="http://www.inkscape.org/namespaces/inkscape"
   width="90"
   height="90"
   id="svg6138"
   version="1.1"
   inkscape:version="0.48+devel r"
   viewBox="0 0 90 90.000001"
   sodipodi:docname="sync-error.svg">
  <defs
     id="defs6140" />
  <sodipodi:namedview
     id="base"
     pagecolor="#ffffff"
     bordercolor="#666666"
     borderopacity="1.0"
     inkscape:pageopacity="0.0"
     inkscape:pageshadow="2"
     inkscape:zoom="7.9580786"
     inkscape:cx="4.6254881"
     inkscape:cy="32.625963"
     inkscape:document-units="px"
     inkscape:current-layer="g6253"
     showgrid="true"
     fit-margin-top="0"
     fit-margin-left="0"
     fit-margin-right="0"
     fit-margin-bottom="0"
     inkscape:snap-global="true"
     inkscape:snap-bbox="true"
     inkscape:bbox-paths="true"
     inkscape:snap-bbox-midpoints="true"
     inkscape:snap-bbox-edge-midpoints="true"
     inkscape:bbox-nodes="true"
     inkscape:object-paths="true"
     inkscape:snap-intersection-paths="true"
     inkscape:object-nodes="true"
     inkscape:snap-smooth-nodes="true"
     inkscape:snap-midpoints="true"
     inkscape:snap-others="true"
     inkscape:snap-object-midpoints="true"
     inkscape:snap-center="true"
     showguides="true"
     inkscape:guide-bbox="true">
    <inkscape:grid
       type="xygrid"
       id="grid6700"
       empspacing="6" />
    <sodipodi:guide
       orientation="0,1"
       position="62,87"
       id="guide4084" />
    <sodipodi:guide
       orientation="0,1"
       position="63,84"
       id="guide4086" />
    <sodipodi:guide
       orientation="0,1"
       position="63,81"
       id="guide4088" />
    <sodipodi:guide
       orientation="1,0"
       position="3,70"
       id="guide4090" />
    <sodipodi:guide
       orientation="1,0"
       position="6,66"
       id="guide4092" />
    <sodipodi:guide
       orientation="1,0"
       position="9,59"
       id="guide4094" />
    <sodipodi:guide
       orientation="1,0"
       position="87,63"
       id="guide4096" />
    <sodipodi:guide
       orientation="1,0"
       position="84,64"
       id="guide4098" />
    <sodipodi:guide
       orientation="1,0"
       position="81,55"
       id="guide4100" />
    <sodipodi:guide
       orientation="0,1"
       position="60,3"
       id="guide4102" />
    <sodipodi:guide
       orientation="0,1"
       position="61,6"
       id="guide4104" />
    <sodipodi:guide
       orientation="0,1"
       position="62,9"
       id="guide4106" />
  </sodipodi:namedview>
  <metadata
     id="metadata6143">
    <rdf:RDF>
      <cc:Work
         rdf:about="">
        <dc:format>image/svg+xml</dc:format>
        <dc:type
           rdf:resource="http://purl.org/dc/dcmitype/StillImage" />
        <dc:title></dc:title>
      </cc:Work>
    </rdf:RDF>
  </metadata>
  <g
     inkscape:label="Layer 1"
     inkscape:groupmode="layer"
     id="layer1"
     transform="translate(-283.57144,-358.79068)">
    <g
       id="g6253"
       inkscape:export-filename="planemode01.png"
       inkscape:export-xdpi="90"
       inkscape:export-ydpi="90"
       transform="matrix(-1,0,0,1,547.57143,-1341.5715)">
      <rect
         style="fill:none;stroke:none"
         id="rect6257"
         width="90"
         height="90"
         x="174"
         y="1700.3622" />
      <path
         style="color:#000000;fill:#df382c;fill-opacity:1;fill-rule:nonzero;stroke:none;stroke-width:3;marker:none;visibility:visible;display:inline;overflow:visible;enable-background:accumulate"
         d="M 53.599609 15 A 21.500248 21.428818 0 0 0 34.037109 27.587891 A 10.750124 10.71441 0 0 0 25.650391 23.572266 A 10.750124 10.71441 0 0 0 14.900391 34.285156 A 10.750124 10.71441 0 0 0 15.080078 36.207031 C 7.4313882 38.992931 2 46.293097 2 54.904297 L 2 55.095703 C 2 66.123503 10.906193 75 21.970703 75 L 68.029297 75 C 79.093807 75 88 66.123503 88 55.095703 L 88 54.904297 C 88 46.359097 82.64983 39.108491 75.09375 36.275391 A 21.500248 21.428818 0 0 0 53.599609 15 z M 41.986328 29 L 50.974609 29 L 50.974609 39.074219 C 50.974609 42.071219 50.833336 44.813188 50.554688 47.304688 C 50.276048 49.796086 49.927746 52.306284 49.509766 54.833984 L 43.521484 54.833984 C 43.057084 52.306284 42.68489 49.796086 42.40625 47.304688 C 42.12759 44.777088 41.986328 42.035019 41.986328 39.074219 L 41.986328 29 z M 46.480469 59.890625 C 47.912659 59.890625 49.113201 60.378616 50.082031 61.353516 C 51.050871 62.286016 51.535156 63.493064 51.535156 64.976562 C 51.535156 66.460162 51.050871 67.667109 50.082031 68.599609 C 49.113201 69.532209 47.912659 70 46.480469 70 C 45.090409 70 43.889856 69.532209 42.878906 68.599609 C 41.910066 67.667109 41.425781 66.460162 41.425781 64.976562 C 41.425781 63.493064 41.910066 62.286016 42.878906 61.353516 C 43.889856 60.378616 45.090409 59.890625 46.480469 59.890625 z "
         transform="matrix(-1,0,0,1,263.99999,1700.3622)"
         id="path4079" />
    </g>
  </g>
</svg>
