<?xml version="1.0" encoding="UTF-8" standalone="no"?>
<!-- Created with Inkscape (http://www.inkscape.org/) -->

<svg
   xmlns:dc="http://purl.org/dc/elements/1.1/"
   xmlns:cc="http://creativecommons.org/ns#"
   xmlns:rdf="http://www.w3.org/1999/02/22-rdf-syntax-ns#"
   xmlns:svg="http://www.w3.org/2000/svg"
   xmlns="http://www.w3.org/2000/svg"
   xmlns:sodipodi="http://sodipodi.sourceforge.net/DTD/sodipodi-0.dtd"
   xmlns:inkscape="http://www.inkscape.org/namespaces/inkscape"
   width="90"
   height="90.012878"
   id="svg4311"
   version="1.1"
   inkscape:version="0.91pre2 r"
   viewBox="0 0 90 90.01288"
   sodipodi:docname="transfer-progress-upload.svg">
  <defs
     id="defs4313" />
  <sodipodi:namedview
     id="base"
     pagecolor="#ffffff"
     bordercolor="#666666"
     borderopacity="1.0"
     inkscape:pageopacity="0.0"
     inkscape:pageshadow="2"
     inkscape:zoom="9.9475983"
     inkscape:cx="42.778494"
     inkscape:cy="37.856288"
     inkscape:document-units="px"
     inkscape:current-layer="layer1"
     showgrid="true"
     fit-margin-top="0"
     fit-margin-left="0"
     fit-margin-right="0"
     fit-margin-bottom="0">
    <inkscape:grid
       type="xygrid"
       id="grid4167" />
  </sodipodi:namedview>
  <metadata
     id="metadata4316">
    <rdf:RDF>
      <cc:Work
         rdf:about="">
        <dc:format>image/svg+xml</dc:format>
        <dc:type
           rdf:resource="http://purl.org/dc/dcmitype/StillImage" />
        <dc:title></dc:title>
      </cc:Work>
    </rdf:RDF>
  </metadata>
  <g
     inkscape:label="Layer 1"
     inkscape:groupmode="layer"
     id="layer1"
     transform="translate(-360.08168,-365.27454)">
    <path
       style="color:#000000;display:inline;overflow:visible;visibility:visible;opacity:1;fill:#808080;fill-opacity:1;fill-rule:nonzero;stroke:none;stroke-width:3;marker:none;enable-background:accumulate"
       d="m 414.0973,365.27649 c -4.89067,6.55545 -9.6465,13.36689 -14.24414,20.42578 -3.52495,5.47638 -6.76674,10.25703 -9.77148,15.58594 l 5,0 1.15625,0 5.84375,0 0,9 6,0 0,-15 -6,0 -1.95508,0 c 4.51314,-6.91022 9.17639,-13.58545 13.9707,-20.01172 0.0168,0 0.0406,0.0244 0.0586,0.0254 4.69381,6.42055 9.28488,13.08317 13.79101,19.98633 l -4.86523,0 -3,0 0,18 6,0 0,-12 5.77148,0 1.22852,0 5,0 c -3.06317,-5.32638 -6.33855,-10.11288 -9.86133,-15.58594 -4.59337,-7.05224 -9.27609,-13.85052 -14.06445,-20.40039 -0.018,-0.001 -0.0418,-0.0254 -0.0586,-0.0254 z"
       id="path4179"
       inkscape:connector-curvature="0"
       sodipodi:nodetypes="ccccccccccccccccccccccccc" />
    <path
       style="color:#000000;display:inline;overflow:visible;visibility:visible;opacity:0.5;fill:#808080;fill-opacity:1;fill-rule:nonzero;stroke:none;stroke-width:3;marker:none;enable-background:accumulate"
       d="m 24,42.013672 0,4 0,8 -7,0 -5,0 c 3.00474,5.32717 6.246524,10.107431 9.771484,15.582031 4.59764,7.05659 9.353461,13.864649 14.244141,20.417969 0.0168,0 0.04059,-0.02439 0.05859,-0.02539 4.78836,-6.54774 9.471083,-13.342638 14.064453,-20.392578 3.485871,-5.413956 6.728191,-10.16014 9.763672,-15.417969 l 0,-0.164062 -6.132813,0 -5.769531,0 0,-9 -6,0 0,15 3,0 4.863281,0 c -4.50535,6.89953 -9.096102,13.557319 -13.789062,19.974609 -0.018,0.0013 -0.04179,0.02539 -0.05859,0.02539 -4.79323,-6.42274 -9.454597,-13.09373 -13.966797,-20 l 1.951172,0 6,0 0,-14 0,-4 z"
       transform="translate(360.08168,365.27454)"
       id="path4177"
       inkscape:connector-curvature="0"
       sodipodi:nodetypes="cccccccccccccccccccccccccc" />
    <path
       style="color:#000000;display:inline;overflow:visible;visibility:visible;opacity:1;fill:#808080;fill-opacity:1;fill-rule:nonzero;stroke:none;stroke-width:3;marker:none;enable-background:accumulate"
       d="m 419.98402,419.28821 0,0.16406 c 0.0321,-0.0557 0.0656,-0.10827 0.0977,-0.16406 l -0.0977,0 z"
       id="path4177-22" />
    <rect
       y="365.27454"
       x="-450.08167"
       height="90"
       width="90"
       id="rect1803-8"
       style="color:#000000;display:inline;overflow:visible;visibility:visible;fill:none;stroke:none;stroke-width:7.5;marker:none;enable-background:accumulate"
       transform="scale(-1,1)" />
    <rect
       style="color:#000000;display:inline;overflow:visible;visibility:visible;fill:none;stroke:none;stroke-width:6;marker:none;enable-background:accumulate"
       id="rect1813-6"
       width="90"
       height="90"
       x="-450.08167"
       y="365.2746"
       transform="scale(-1,1)" />
  </g>
</svg>
