<?xml version="1.0" encoding="UTF-8" standalone="no"?>
<!-- Created with Inkscape (http://www.inkscape.org/) -->

<svg
   xmlns:dc="http://purl.org/dc/elements/1.1/"
   xmlns:cc="http://creativecommons.org/ns#"
   xmlns:rdf="http://www.w3.org/1999/02/22-rdf-syntax-ns#"
   xmlns:svg="http://www.w3.org/2000/svg"
   xmlns="http://www.w3.org/2000/svg"
   xmlns:sodipodi="http://sodipodi.sourceforge.net/DTD/sodipodi-0.dtd"
   xmlns:inkscape="http://www.inkscape.org/namespaces/inkscape"
   width="90"
   height="90"
   id="svg4874"
   version="1.1"
   inkscape:version="0.48+devel r"
   viewBox="0 0 90 90.000001"
   sodipodi:docname="up-failure-down-none.svg">
  <defs
     id="defs4876" />
  <sodipodi:namedview
     id="base"
     pagecolor="#ffffff"
     bordercolor="#666666"
     borderopacity="1.0"
     inkscape:pageopacity="0.0"
     inkscape:pageshadow="2"
     inkscape:zoom="6.3664629"
     inkscape:cx="11.945408"
     inkscape:cy="36.865055"
     inkscape:document-units="px"
     inkscape:current-layer="g4281"
     showgrid="true"
     showborder="true"
     fit-margin-top="0"
     fit-margin-left="0"
     fit-margin-right="0"
     fit-margin-bottom="0"
     inkscape:snap-bbox="true"
     inkscape:bbox-paths="true"
     inkscape:bbox-nodes="true"
     inkscape:snap-bbox-edge-midpoints="true"
     inkscape:snap-bbox-midpoints="true"
     inkscape:object-paths="true"
     inkscape:snap-intersection-paths="true"
     inkscape:object-nodes="true"
     inkscape:snap-smooth-nodes="true"
     inkscape:snap-midpoints="true"
     inkscape:snap-object-midpoints="true"
     inkscape:snap-center="true"
     showguides="true"
     inkscape:guide-bbox="true">
    <inkscape:grid
       type="xygrid"
       id="grid5451"
       empspacing="6" />
    <sodipodi:guide
       orientation="1,0"
       position="9,71"
       id="guide4063" />
    <sodipodi:guide
       orientation="1,0"
       position="6,69"
       id="guide4065" />
    <sodipodi:guide
       orientation="0,1"
       position="64,87"
       id="guide4067" />
    <sodipodi:guide
       orientation="0,1"
       position="63,84"
       id="guide4069" />
    <sodipodi:guide
       orientation="0,1"
       position="78,3"
       id="guide4071" />
    <sodipodi:guide
       orientation="0,1"
       position="78,6"
       id="guide4073" />
    <sodipodi:guide
       orientation="1,0"
       position="84,75"
       id="guide4075" />
    <sodipodi:guide
       orientation="1,0"
       position="81,75"
       id="guide4077" />
    <sodipodi:guide
       orientation="0,1"
       position="72,81"
       id="guide4108" />
    <sodipodi:guide
       orientation="1,0"
       position="87,66"
       id="guide4110" />
    <sodipodi:guide
       orientation="1,0"
       position="3,65"
       id="guide4112" />
    <sodipodi:guide
       orientation="0,1"
       position="80,9"
       id="guide4114" />
  </sodipodi:namedview>
  <metadata
     id="metadata4879">
    <rdf:RDF>
      <cc:Work
         rdf:about="">
        <dc:format>image/svg+xml</dc:format>
        <dc:type
           rdf:resource="http://purl.org/dc/dcmitype/StillImage" />
        <dc:title></dc:title>
      </cc:Work>
    </rdf:RDF>
  </metadata>
  <g
     inkscape:label="Layer 1"
     inkscape:groupmode="layer"
     id="layer1"
     transform="translate(67.857146,-84.50504)">
    <g
       transform="translate(-241.85715,-577.86995)"
       id="g4281"
       inkscape:export-filename="save01.png"
       inkscape:export-xdpi="90"
       inkscape:export-ydpi="90">
      <rect
         style="color:#000000;fill:none;stroke:none;stroke-width:7.5;marker:none;visibility:visible;display:inline;overflow:visible;enable-background:accumulate"
         id="rect1803"
         width="90"
         height="90"
         x="174"
         y="662.36212" />
      <path
         style="color:#000000;fill:#df382c;fill-opacity:1;fill-rule:nonzero;stroke:none;stroke-width:3;marker:none;visibility:visible;display:inline;overflow:visible;enable-background:accumulate"
         d="M 22.513672,6.9882812 C 18.132452,13.254101 13.872616,19.764699 9.7539062,26.511719 6.5961463,31.746139 3.69176,36.90653 1,42 l 11.992188,0 0,24 19.015624,0 0,-24 L 44,42 c -2.74408,-5.09105 -5.678164,-10.257031 -8.833984,-15.488281 -4.11489,-6.74066 -8.31004,-13.2395 -12.59961,-19.5000002 -0.0162,-0.0012 -0.03763,-0.023438 -0.05273,-0.023438 z"
         transform="translate(174,662.37499)"
         id="path1807"
         class="error"
         inkscape:connector-curvature="0" />
      <rect
         y="662.36218"
         x="174"
         height="90"
         width="90"
         id="rect1813"
         style="color:#000000;fill:none;stroke:none;stroke-width:6;marker:none;visibility:visible;display:inline;overflow:visible;enable-background:accumulate" />
      <path
         style="opacity:0.5;color:#000000;fill:#808080;fill-opacity:1;fill-rule:nonzero;stroke:none;stroke-width:3;marker:none;visibility:visible;display:inline;overflow:visible;enable-background:accumulate"
         d="m 231.99219,686.37499 0,23.98828 -11.99219,0 c 2.69176,5.09347 5.59615,10.25386 8.75391,15.48828 4.11871,6.74702 8.37854,13.25762 12.75976,19.52344 0.0151,0 0.0365,-0.0222 0.0527,-0.0234 4.28957,-6.2605 8.48472,-12.75934 12.59961,-19.5 3.15582,-5.23125 6.0899,-10.39723 8.83398,-15.48828 l -11.99219,0 0,-23.98828 -19.01562,0 z m 5.98828,5.98828 7.03906,0 0,16.01172 -0.0195,0 0,8 7.67969,0 c -1.22327,2.12893 -2.3368,4.22131 -3.63477,6.37305 -2.46596,4.03916 -5.01706,7.81318 -7.54101,11.67187 -2.55858,-3.85672 -5.1613,-7.63014 -7.62305,-11.66211 -0.002,-0.004 -0.004,-0.008 -0.006,-0.0117 -0.003,-0.005 -0.007,-0.009 -0.01,-0.0137 -1.29568,-2.14826 -2.38146,-4.23451 -3.59179,-6.35742 l 7.72656,0 0,-8 -0.0195,0 0,-16.01172 z"
         id="path4131"
         inkscape:connector-curvature="0" />
    </g>
  </g>
</svg>
