<?xml version="1.0" encoding="UTF-8" standalone="no"?>
<!-- Created with Inkscape (http://www.inkscape.org/) -->

<svg
   xmlns:dc="http://purl.org/dc/elements/1.1/"
   xmlns:cc="http://creativecommons.org/ns#"
   xmlns:rdf="http://www.w3.org/1999/02/22-rdf-syntax-ns#"
   xmlns:svg="http://www.w3.org/2000/svg"
   xmlns="http://www.w3.org/2000/svg"
   xmlns:sodipodi="http://sodipodi.sourceforge.net/DTD/sodipodi-0.dtd"
   xmlns:inkscape="http://www.inkscape.org/namespaces/inkscape"
   width="90"
   height="90"
   id="svg6138"
   version="1.1"
   inkscape:version="0.48+devel r"
   viewBox="0 0 90 90.000001"
   sodipodi:docname="weather-showers-symbolic.svg">
  <defs
     id="defs6140" />
  <sodipodi:namedview
     id="base"
     pagecolor="#ffffff"
     bordercolor="#666666"
     borderopacity="1.0"
     inkscape:pageopacity="0.0"
     inkscape:pageshadow="2"
     inkscape:zoom="4.0745362"
     inkscape:cx="42.385191"
     inkscape:cy="24.223609"
     inkscape:document-units="px"
     inkscape:current-layer="g6442"
     showgrid="true"
     fit-margin-top="0"
     fit-margin-left="0"
     fit-margin-right="0"
     fit-margin-bottom="0"
     inkscape:snap-global="false"
     inkscape:snap-bbox="true"
     inkscape:bbox-paths="true"
     inkscape:snap-bbox-midpoints="true"
     inkscape:snap-bbox-edge-midpoints="true"
     inkscape:bbox-nodes="true"
     inkscape:object-paths="true"
     inkscape:snap-intersection-paths="true"
     inkscape:object-nodes="true"
     inkscape:snap-smooth-nodes="true"
     inkscape:snap-midpoints="true"
     inkscape:snap-others="true"
     inkscape:snap-object-midpoints="true"
     inkscape:snap-center="true"
     showguides="false"
     inkscape:guide-bbox="true">
    <inkscape:grid
       type="xygrid"
       id="grid6700"
       empspacing="6" />
    <sodipodi:guide
       orientation="0,1"
       position="90,87"
       id="guide4064" />
    <sodipodi:guide
       orientation="0,1"
       position="89,84"
       id="guide4066" />
    <sodipodi:guide
       orientation="1,0"
       position="3,69"
       id="guide4068" />
    <sodipodi:guide
       orientation="1,0"
       position="6,60"
       id="guide4070" />
    <sodipodi:guide
       orientation="1,0"
       position="87,58"
       id="guide4072" />
    <sodipodi:guide
       orientation="1,0"
       position="84,47"
       id="guide4074" />
    <sodipodi:guide
       orientation="0,1"
       position="77,3"
       id="guide4076" />
    <sodipodi:guide
       orientation="0,1"
       position="81,6"
       id="guide4078" />
    <sodipodi:guide
       orientation="1,0"
       position="81,25"
       id="guide4080" />
    <sodipodi:guide
       orientation="0,1"
       position="78,9"
       id="guide4082" />
    <sodipodi:guide
       orientation="0,1"
       position="79,81"
       id="guide4084" />
    <sodipodi:guide
       orientation="1,0"
       position="9,39"
       id="guide4086" />
  </sodipodi:namedview>
  <metadata
     id="metadata6143">
    <rdf:RDF>
      <cc:Work
         rdf:about="">
        <dc:format>image/svg+xml</dc:format>
        <dc:type
           rdf:resource="http://purl.org/dc/dcmitype/StillImage" />
        <dc:title></dc:title>
      </cc:Work>
    </rdf:RDF>
  </metadata>
  <g
     inkscape:label="Layer 1"
     inkscape:groupmode="layer"
     id="layer1"
     transform="translate(-283.57144,-358.79068)">
    <g
       transform="translate(169.57144,223.42822)"
       id="g5937"
       inkscape:export-filename="envelope02.png"
       inkscape:export-xdpi="90"
       inkscape:export-ydpi="90" />
    <g
       id="g6442"
       transform="translate(-753.45981,336.4283)">
      <path
         style="color:#000000;fill:#808080;fill-opacity:1;fill-rule:nonzero;stroke:none;stroke-width:3;marker:none;visibility:visible;display:inline;overflow:visible;enable-background:accumulate"
         d="m 1082.6038,110.84893 c -3.9778,0 -7.2025,-3.2233 -7.2025,-7.19954 0,-0.78952 0.1332,-1.547 0.3681,-2.25781 0.024,-0.0723 0.043,-0.1468 0.069,-0.21805 0.1834,-0.6068 2.8722,-9.425515 6.7728,-17.333874 0,0 0,5.62e-4 0,0.002 0,5.63e-4 0,0.0023 0,0.0041 0,0.0011 0,0.0028 0,0.0041 0,8.44e-4 0,0.002 0,0.002 4.1676,8.637301 6.8168,17.540204 6.8168,17.540204 l -0,0 c 0.2346,0.7104 0.3634,1.46878 0.3634,2.25778 0,3.97625 -3.2246,7.19955 -7.2024,7.19955 z"
         id="path4253"
         inkscape:connector-curvature="0"
         inkscape:transform-center-y="-47.999153" />
      <path
         inkscape:transform-center-x="-58.577355"
         inkscape:transform-center-y="-40.167092"
         inkscape:connector-curvature="0"
         id="path4248-8"
         d="m 1099.9184,104.09662 c -3.3287,0 -6.0272,-2.6973 -6.0272,-6.024681 0,-0.660676 0.1115,-1.29455 0.3081,-1.889371 0.02,-0.06048 0.036,-0.122836 0.058,-0.182459 0.1535,-0.507786 2.4036,-7.887413 5.6676,-14.505243 0,0 0,5.62e-4 0,0.0014 0,5.63e-4 0,0.0017 0,0.0035 0,0.0011 0,0.0023 0,0.0035 0,8.44e-4 0,0.0014 0,0.0014 3.4874,7.227821 5.7044,14.677903 5.7044,14.677903 l -0,0 c 0.1963,0.594472 0.3041,1.229092 0.3041,1.889343 0,3.327384 -2.6984,6.024684 -6.0271,6.024684 z"
         style="color:#000000;fill:#808080;fill-opacity:1;fill-rule:nonzero;stroke:none;stroke-width:3;marker:none;visibility:visible;display:inline;overflow:visible;enable-background:accumulate" />
      <path
         inkscape:transform-center-x="52.523195"
         inkscape:transform-center-y="-36.015557"
         inkscape:connector-curvature="0"
         id="path4250-0"
         d="m 1065.2845,102.97123 c -2.9846,0 -5.4042,-2.41854 -5.4042,-5.402041 0,-0.592396 0.1,-1.160759 0.2762,-1.694105 0.018,-0.05423 0.032,-0.110145 0.052,-0.163603 0.1376,-0.45531 2.1551,-7.072264 5.0818,-13.006157 0,0 0,5.63e-4 0,0.0014 0,5.63e-4 0,0.0017 0,0.0031 0,8.44e-4 0,0.002 0,0.0031 0,5.63e-4 0,0.0014 0,0.0014 3.127,6.480839 5.1148,13.160971 5.1148,13.160971 l -0,0 c 0.1761,0.533034 0.2727,1.102066 0.2727,1.694085 0,2.983497 -2.4196,5.402047 -5.4043,5.402047 z"
         style="color:#000000;fill:#808080;fill-opacity:1;fill-rule:nonzero;stroke:none;stroke-width:3;marker:none;visibility:visible;display:inline;overflow:visible;enable-background:accumulate" />
      <rect
         style="fill:none;stroke:none"
         id="rect1687"
         width="90"
         height="90"
         x="1037.0312"
         y="22.362379" />
      <path
         style="font-style:normal;font-variant:normal;font-weight:normal;font-stretch:normal;text-indent:0;text-align:start;text-decoration:none;line-height:normal;letter-spacing:normal;word-spacing:normal;text-transform:none;direction:ltr;block-progression:tb;writing-mode:lr-tb;text-anchor:start;baseline-shift:baseline;color:#000000;color-interpolation:sRGB;color-interpolation-filters:linearRGB;fill:#808080;fill-opacity:1;stroke:none;stroke-width:4;marker:none;visibility:visible;display:inline;overflow:visible;enable-background:accumulate;clip-rule:nonzero;color-rendering:auto;image-rendering:auto;shape-rendering:auto;text-rendering:auto;font-family:sans-serif;-inkscape-font-specification:sans-serif"
         d="M 47.949219 3 C 37.600219 3 28.809259 9.3851091 24.630859 18.453125 C 14.911859 19.161059 7.25 27.557927 7.25 37.720703 C 7.25 48.339276 15.590388 57.107422 25.929688 57.107422 L 47.949219 57.107422 L 68.474609 57.107422 C 76.381509 57.107422 82.75 50.39982 82.75 42.322266 C 82.75 36.193699 79.059066 31.019469 73.822266 28.794922 C 73.175766 14.52918 61.925119 3 47.949219 3 z M 48.025391 8.9824219 C 58.771957 8.9824649 67.483458 17.694847 67.482422 28.441406 C 67.476051 30.232669 67.222352 32.014472 66.728516 33.736328 C 67.137172 33.675098 67.549679 33.643125 67.962891 33.640625 C 72.757616 33.640655 76.644501 37.527541 76.644531 42.322266 C 76.644501 47.116991 72.757616 51.003876 67.962891 51.003906 L 26.560547 50.982422 C 19.27827 50.982666 13.374756 45.079152 13.375 37.796875 C 13.374756 30.514598 19.27827 24.611084 26.560547 24.611328 C 27.350848 24.615454 28.139178 24.690626 28.916016 24.835938 C 30.648074 15.645715 38.673375 8.9877655 48.025391 8.9824219 z "
         transform="translate(1037.0312,22.36238)"
         id="path4233" />
    </g>
  </g>
</svg>
