<?xml version="1.0" encoding="UTF-8" standalone="no"?>
<!-- Created with Inkscape (http://www.inkscape.org/) -->

<svg
   xmlns:dc="http://purl.org/dc/elements/1.1/"
   xmlns:cc="http://creativecommons.org/ns#"
   xmlns:rdf="http://www.w3.org/1999/02/22-rdf-syntax-ns#"
   xmlns:svg="http://www.w3.org/2000/svg"
   xmlns="http://www.w3.org/2000/svg"
   xmlns:sodipodi="http://sodipodi.sourceforge.net/DTD/sodipodi-0.dtd"
   xmlns:inkscape="http://www.inkscape.org/namespaces/inkscape"
   width="90"
   height="90"
   id="svg6138"
   version="1.1"
   inkscape:version="0.48+devel r"
   viewBox="0 0 90 90.000001"
   sodipodi:docname="weather-overcast-symbolic.svg">
  <defs
     id="defs6140" />
  <sodipodi:namedview
     id="base"
     pagecolor="#ffffff"
     bordercolor="#666666"
     borderopacity="1.0"
     inkscape:pageopacity="0.0"
     inkscape:pageshadow="2"
     inkscape:zoom="5.0931702"
     inkscape:cx="12.546213"
     inkscape:cy="36.843451"
     inkscape:document-units="px"
     inkscape:current-layer="g6442"
     showgrid="true"
     fit-margin-top="0"
     fit-margin-left="0"
     fit-margin-right="0"
     fit-margin-bottom="0"
     inkscape:snap-global="false"
     inkscape:snap-bbox="true"
     inkscape:bbox-paths="true"
     inkscape:snap-bbox-midpoints="true"
     inkscape:snap-bbox-edge-midpoints="true"
     inkscape:bbox-nodes="true"
     inkscape:object-paths="true"
     inkscape:snap-intersection-paths="true"
     inkscape:object-nodes="true"
     inkscape:snap-smooth-nodes="true"
     inkscape:snap-midpoints="true"
     inkscape:snap-others="true"
     inkscape:snap-object-midpoints="true"
     inkscape:snap-center="true"
     showguides="false"
     inkscape:guide-bbox="true">
    <inkscape:grid
       type="xygrid"
       id="grid6700"
       empspacing="6" />
    <sodipodi:guide
       orientation="0,1"
       position="90,87"
       id="guide4064" />
    <sodipodi:guide
       orientation="0,1"
       position="89,84"
       id="guide4066" />
    <sodipodi:guide
       orientation="1,0"
       position="3,69"
       id="guide4068" />
    <sodipodi:guide
       orientation="1,0"
       position="6,60"
       id="guide4070" />
    <sodipodi:guide
       orientation="1,0"
       position="87,58"
       id="guide4072" />
    <sodipodi:guide
       orientation="1,0"
       position="84,47"
       id="guide4074" />
    <sodipodi:guide
       orientation="0,1"
       position="77,3"
       id="guide4076" />
    <sodipodi:guide
       orientation="0,1"
       position="81,6"
       id="guide4078" />
    <sodipodi:guide
       orientation="1,0"
       position="81,25"
       id="guide4080" />
    <sodipodi:guide
       orientation="0,1"
       position="78,9"
       id="guide4082" />
    <sodipodi:guide
       orientation="0,1"
       position="79,81"
       id="guide4084" />
    <sodipodi:guide
       orientation="1,0"
       position="9,39"
       id="guide4086" />
  </sodipodi:namedview>
  <metadata
     id="metadata6143">
    <rdf:RDF>
      <cc:Work
         rdf:about="">
        <dc:format>image/svg+xml</dc:format>
        <dc:type
           rdf:resource="http://purl.org/dc/dcmitype/StillImage" />
        <dc:title></dc:title>
      </cc:Work>
    </rdf:RDF>
  </metadata>
  <g
     inkscape:label="Layer 1"
     inkscape:groupmode="layer"
     id="layer1"
     transform="translate(-283.57144,-358.79068)">
    <g
       transform="translate(169.57144,223.42822)"
       id="g5937"
       inkscape:export-filename="envelope02.png"
       inkscape:export-xdpi="90"
       inkscape:export-ydpi="90" />
    <g
       id="g6442"
       transform="translate(-753.45981,336.4283)">
      <rect
         style="fill:none;stroke:none"
         id="rect1687"
         width="90"
         height="90"
         x="1037.0312"
         y="22.362379" />
      <path
         style="color:#000000;fill:#808080;fill-opacity:1;fill-rule:nonzero;stroke:none;stroke-width:12;marker:none;visibility:visible;display:inline;overflow:visible;enable-background:accumulate"
         d="m 55.285156,9 c -7.1663,0.009 -13.89557,3.449452 -18.105468,9.257812 -1.5595,-0.441136 -3.172469,-0.66777 -4.792969,-0.673828 -9.6225,0.01081 -17.509303,7.649537 -17.845703,17.28125 C 7.9621154,35.655846 3.0084,41.240544 3,47.876953 2.9998,55.124515 8.8653632,60.999957 16.101562,61 l 3.951172,0 c 0.81106,-2.293753 2.078405,-4.369048 3.683594,-6.125 L 16.113281,55 c -3.929483,-3.66e-4 -7.1152341,-3.185751 -7.1152341,-7.115234 0,-6.068099 6.0292221,-8.370631 11.1933591,-7.404297 -1.425651,-8.858242 2.64857,-17.041016 11.824219,-17.041016 3.009839,0 5.732465,1.123245 7.859375,3.126953 C 41.944756,19.701274 48.26715,15.0023 55.4375,15 c 8.979989,7.8e-5 16.259688,7.279779 16.259766,16.259766 -0.0053,1.792408 -0.306859,3.571611 -0.892578,5.265625 0.135291,-0.0077 0.270746,-0.01227 0.40625,-0.01367 4.853895,4.05e-4 8.788657,3.935165 8.789062,8.789062 5.61e-4,4.03739 -2.724791,7.431654 -6.433594,8.462891 0.482009,1.428081 0.84682,2.90996 1.058594,4.439453 0.800692,0.51906 1.548702,1.114155 2.236328,1.769531 C 82.781995,57.72991 87.000077,52.016169 87,45.300781 87,39.09548 83.340181,33.476964 77.675781,30.962891 77.414681,18.762725 67.468856,9.006498 55.285156,9 Z"
         transform="translate(1037.0312,22.36238)"
         id="path4246"
         inkscape:connector-curvature="0"
         sodipodi:nodetypes="cccccscccscscccccccccccc" />
      <path
         style="font-style:normal;font-variant:normal;font-weight:normal;font-stretch:normal;text-indent:0;text-align:start;text-decoration:none;line-height:normal;letter-spacing:normal;word-spacing:normal;text-transform:none;direction:ltr;block-progression:tb;writing-mode:lr-tb;text-anchor:start;baseline-shift:baseline;color:#000000;color-interpolation:sRGB;color-interpolation-filters:linearRGB;fill:#808080;fill-opacity:1;stroke:none;stroke-width:4;marker:none;visibility:visible;display:inline;overflow:visible;enable-background:accumulate;clip-rule:nonzero;color-rendering:auto;image-rendering:auto;shape-rendering:auto;text-rendering:auto;font-family:sans-serif;-inkscape-font-specification:sans-serif"
         d="M 52.316406 41.96875 C 44.861606 41.96875 38.529331 46.575827 35.519531 53.117188 C 28.518531 53.627876 23 59.684528 23 67.015625 C 23 74.675506 29.007278 81 36.455078 81 L 52.316406 81 L 67.101562 81 C 72.797262 81 77.384766 76.160865 77.384766 70.333984 C 77.384766 65.91304 74.727378 62.180883 70.955078 60.576172 C 70.489478 50.285346 62.383906 41.96875 52.316406 41.96875 z M 52.392578 48.017578 C 59.251802 48.017841 64.812237 53.578276 64.8125 60.4375 C 64.812138 60.783971 64.790895 61.128541 64.761719 61.472656 L 64.767578 61.466797 C 64.755878 62.860314 64.335938 64.830078 64.335938 64.830078 C 64.335938 64.830078 65.129091 64.649529 66.212891 64.630859 C 69.094423 64.631796 71.429827 66.968077 71.429688 69.849609 C 71.429827 72.731141 69.094423 75.067422 66.212891 75.068359 L 36.976562 75.080078 C 32.526478 75.080586 28.918539 71.473522 28.917969 67.023438 C 28.91746 62.572589 32.525715 58.964335 36.976562 58.964844 C 38.018829 58.96628 39.050918 59.169912 40.015625 59.564453 C 40.473872 53.064852 45.876846 48.024278 52.392578 48.017578 z "
         transform="translate(1037.0312,22.36238)"
         id="path4233" />
      <path
         id="path4184"
         d="m 972.3164,31.36238 c -7.1663,0.009 -13.8956,3.449451 -18.1055,9.257812 -1.5595,-0.441137 -3.1725,-0.66777 -4.793,-0.673828 -9.6225,0.01081 -17.5093,7.649537 -17.8457,17.28125 -6.5789,0.790612 -11.5326,6.37531 -11.541,13.011719 -2e-4,7.247562 5.8654,13.123004 13.1016,13.123047 l 55.2246,0 c 8.6565,1.9e-4 15.6739,-7.029125 15.6738,-15.699219 0,-6.205301 -3.6598,-11.823817 -9.3242,-14.33789 C 994.4459,41.125105 984.5001,31.368878 972.3164,31.36238 Z m 0.1523,6 c 8.98,7.8e-5 16.2597,7.279779 16.2598,16.259766 -0.01,1.792408 -0.3069,3.571611 -0.8926,5.265625 0.1353,-0.0077 0.2707,-0.01227 0.4062,-0.01367 4.8539,4.05e-4 8.7887,3.935165 8.7891,8.789062 7e-4,4.85466 -3.9344,8.790611 -8.7891,8.791016 l -55.0976,0.908203 c -3.9295,-3.66e-4 -7.1153,-3.185751 -7.1153,-7.115234 0,-6.068099 6.0293,-8.370631 11.1934,-7.404297 -1.4256,-8.858242 2.6486,-17.041016 11.8242,-17.041016 3.0099,0 5.7325,1.123245 7.8594,3.126953 2.0698,-6.865132 8.3921,-11.564106 15.5625,-11.566406 z"
         style="color:#000000;fill:#808080;fill-opacity:1;fill-rule:nonzero;stroke:none;stroke-width:12;marker:none;visibility:visible;display:inline;overflow:visible;enable-background:accumulate"
         inkscape:connector-curvature="0" />
      <path
         id="path4186"
         d="m 969.3476,64.33113 c -7.4548,0 -13.7871,4.607077 -16.7969,11.148438 -7.001,0.510688 -12.5195,6.56734 -12.5195,13.898437 0,7.659881 6.0073,13.984375 13.4551,13.984375 l 15.8613,0 14.7852,0 c 5.6957,0 10.2832,-4.839135 10.2832,-10.666016 0,-4.420944 -2.6574,-8.153101 -6.4297,-9.757812 C 987.5207,72.647726 979.4151,64.33113 969.3476,64.33113 Z m 0.076,6.048828 c 6.8592,2.63e-4 12.4196,5.560698 12.4199,12.419922 -4e-4,0.346471 -0.022,0.691041 -0.051,1.035156 l 0.01,-0.0059 c -0.012,1.393517 -0.4317,3.363281 -0.4317,3.363281 0,0 0.7932,-0.180549 1.877,-0.199219 2.8815,9.37e-4 5.2169,2.337218 5.2168,5.21875 10e-5,2.881532 -2.3353,5.217813 -5.2168,5.21875 l -29.2363,0.01172 c -4.4501,5.08e-4 -8.0581,-3.606556 -8.0586,-8.05664 -5e-4,-4.450849 3.6077,-8.059103 8.0586,-8.058594 1.0422,0.0014 2.0743,0.205068 3.039,0.599609 0.4583,-6.499601 5.8612,-11.540175 12.377,-11.546875 z"
         style="font-style:normal;font-variant:normal;font-weight:normal;font-stretch:normal;text-indent:0;text-align:start;text-decoration:none;line-height:normal;letter-spacing:normal;word-spacing:normal;text-transform:none;direction:ltr;block-progression:tb;writing-mode:lr-tb;text-anchor:start;baseline-shift:baseline;color:#000000;color-interpolation:sRGB;color-interpolation-filters:linearRGB;fill:#4d4d4d;fill-opacity:1;stroke:none;stroke-width:4;marker:none;visibility:visible;display:inline;overflow:visible;enable-background:accumulate;clip-rule:nonzero;color-rendering:auto;image-rendering:auto;shape-rendering:auto;text-rendering:auto;font-family:sans-serif;-inkscape-font-specification:sans-serif"
         inkscape:connector-curvature="0" />
    </g>
  </g>
</svg>
