<?xml version="1.0" encoding="UTF-8" standalone="no"?>
<!-- Created with Inkscape (http://www.inkscape.org/) -->

<svg
   xmlns:dc="http://purl.org/dc/elements/1.1/"
   xmlns:cc="http://creativecommons.org/ns#"
   xmlns:rdf="http://www.w3.org/1999/02/22-rdf-syntax-ns#"
   xmlns:svg="http://www.w3.org/2000/svg"
   xmlns="http://www.w3.org/2000/svg"
   xmlns:sodipodi="http://sodipodi.sourceforge.net/DTD/sodipodi-0.dtd"
   xmlns:inkscape="http://www.inkscape.org/namespaces/inkscape"
   width="90"
   height="90"
   id="svg6138"
   version="1.1"
   inkscape:version="0.48+devel r"
   viewBox="0 0 90 90.000001"
   sodipodi:docname="weather-few-clouds-night-symbolic.svg">
  <defs
     id="defs6140">
    <linearGradient
       id="linearGradient3899">
      <stop
         id="stop4292"
         offset="0"
         style="stop-color:#fbf7e3;stop-opacity:1" />
      <stop
         id="stop4294"
         offset="1"
         style="stop-color:#c6b386;stop-opacity:1" />
    </linearGradient>
  </defs>
  <sodipodi:namedview
     id="base"
     pagecolor="#ffffff"
     bordercolor="#666666"
     borderopacity="1.0"
     inkscape:pageopacity="0.0"
     inkscape:pageshadow="2"
     inkscape:zoom="6.3664628"
     inkscape:cx="5.2540944"
     inkscape:cy="18.141937"
     inkscape:document-units="px"
     inkscape:current-layer="g6442"
     showgrid="true"
     fit-margin-top="0"
     fit-margin-left="0"
     fit-margin-right="0"
     fit-margin-bottom="0"
     inkscape:snap-global="true"
     inkscape:snap-bbox="true"
     inkscape:bbox-paths="true"
     inkscape:snap-bbox-midpoints="true"
     inkscape:snap-bbox-edge-midpoints="true"
     inkscape:bbox-nodes="true"
     inkscape:object-paths="true"
     inkscape:snap-intersection-paths="true"
     inkscape:object-nodes="true"
     inkscape:snap-smooth-nodes="true"
     inkscape:snap-midpoints="true"
     inkscape:snap-others="true"
     inkscape:snap-object-midpoints="true"
     inkscape:snap-center="true"
     showguides="true"
     inkscape:guide-bbox="true">
    <inkscape:grid
       type="xygrid"
       id="grid6700"
       empspacing="6" />
    <sodipodi:guide
       orientation="0,1"
       position="90,87"
       id="guide4064" />
    <sodipodi:guide
       orientation="0,1"
       position="89,84"
       id="guide4066" />
    <sodipodi:guide
       orientation="1,0"
       position="3,69"
       id="guide4068" />
    <sodipodi:guide
       orientation="1,0"
       position="6,60"
       id="guide4070" />
    <sodipodi:guide
       orientation="1,0"
       position="87,58"
       id="guide4072" />
    <sodipodi:guide
       orientation="1,0"
       position="84,47"
       id="guide4074" />
    <sodipodi:guide
       orientation="0,1"
       position="77,3"
       id="guide4076" />
    <sodipodi:guide
       orientation="0,1"
       position="81,6"
       id="guide4078" />
    <sodipodi:guide
       orientation="1,0"
       position="81,25"
       id="guide4080" />
    <sodipodi:guide
       orientation="0,1"
       position="78,9"
       id="guide4082" />
    <sodipodi:guide
       orientation="0,1"
       position="79,81"
       id="guide4084" />
    <sodipodi:guide
       orientation="1,0"
       position="9,39"
       id="guide4086" />
  </sodipodi:namedview>
  <metadata
     id="metadata6143">
    <rdf:RDF>
      <cc:Work
         rdf:about="">
        <dc:format>image/svg+xml</dc:format>
        <dc:type
           rdf:resource="http://purl.org/dc/dcmitype/StillImage" />
        <dc:title></dc:title>
      </cc:Work>
    </rdf:RDF>
  </metadata>
  <g
     inkscape:label="Layer 1"
     inkscape:groupmode="layer"
     id="layer1"
     transform="translate(-283.57144,-358.79068)">
    <g
       transform="translate(169.57144,223.42822)"
       id="g5937"
       inkscape:export-filename="envelope02.png"
       inkscape:export-xdpi="90"
       inkscape:export-ydpi="90" />
    <g
       id="g6442"
       transform="translate(-753.45981,336.4283)">
      <rect
         style="fill:none;stroke:none"
         id="rect1687"
         width="90"
         height="90"
         x="1037.0312"
         y="22.362379" />
      <path
         style="color:#000000;fill:#808080;fill-opacity:1;fill-rule:nonzero;stroke:none;stroke-width:6;marker:none;visibility:visible;display:inline;overflow:visible;enable-background:accumulate"
         d="M 59.527344 13.603516 A 29.818006 29.818006 0 0 1 65.248047 40.138672 A 29.818006 29.818006 0 0 1 61.832031 48.037109 C 55.955011 48.415203 51.01604 52.182688 48.603516 57.425781 C 45.282104 57.668062 42.357181 59.388429 40.427734 61.945312 A 29.818006 29.818006 0 0 1 40.425781 61.945312 A 29.818006 29.818006 0 0 1 28.728516 61.224609 A 29.818006 29.818006 0 0 1 17.626953 55.501953 A 33.872092 33.872092 0 0 0 41.365234 78.845703 A 33.872092 33.872092 0 0 0 43.589844 79.324219 C 45.289512 80.380594 47.268977 81 49.394531 81 L 62.806641 81 L 75.304688 81 C 80.120286 81 84 76.908913 84 71.982422 C 84 68.390884 81.915626 65.355096 78.923828 63.917969 A 33.872092 33.872092 0 0 0 82.849609 54.894531 A 33.872092 33.872092 0 0 0 59.527344 13.603516 z M 71.853516 28.792969 L 71.855469 28.792969 C 77.180469 35.455099 79.398931 44.429051 77.019531 53.332031 C 76.789131 54.191793 76.519297 55.03006 76.216797 55.847656 C 74.374597 52.729874 71.571709 50.301169 68.224609 49.017578 C 69.420809 46.736263 70.388131 44.29073 71.082031 41.701172 A 6.0376126 6.0376126 0 0 0 71.082031 41.691406 C 72.218631 37.423331 72.298816 33.074546 71.853516 28.792969 z M 62.863281 53.113281 L 62.869141 53.113281 C 68.665241 53.117181 73.365134 57.818169 73.365234 63.615234 C 73.365034 63.908167 73.346266 64.199293 73.322266 64.490234 L 73.333984 64.484375 C 73.322984 65.662561 72.96875 67.330078 72.96875 67.330078 C 72.96875 67.330078 73.638388 67.175941 74.554688 67.160156 C 76.990986 67.160949 78.964944 69.135999 78.964844 71.572266 C 78.964944 74.008533 76.990986 75.985536 74.554688 75.986328 L 49.837891 75.994141 C 46.075491 75.99457 43.023936 72.946034 43.023438 69.183594 C 43.023038 65.420506 46.074891 62.370664 49.837891 62.371094 C 50.719091 62.372394 51.59065 62.543379 52.40625 62.876953 C 52.79355 57.383935 57.357281 53.122409 62.863281 53.113281 z M 33.390625 68.0625 C 34.958525 68.19581 36.520306 68.223884 38.066406 68.152344 C 38.037406 68.490261 38.017578 68.830553 38.017578 69.175781 C 38.017578 69.847671 38.084353 70.503603 38.189453 71.146484 C 36.493953 70.268154 34.899325 69.218228 33.390625 68.0625 z "
         transform="translate(1037.0312,22.36238)"
         id="path4182" />
      <path
         style="color:#000000;fill:#808080;fill-opacity:1;fill-rule:nonzero;stroke:none;stroke-width:6;marker:none;visibility:visible;display:inline;overflow:visible;enable-background:accumulate"
         d="m 1054.1015,75.51863 a 33.872092,33.872092 0 0 0 0.5547,2.339844 33.872092,33.872092 0 0 1 -0.5547,-2.339844 z"
         id="path4162" />
      <path
         style="color:#000000;fill:#808080;fill-opacity:1;fill-rule:nonzero;stroke:none;stroke-width:3;marker:none;visibility:visible;display:inline;overflow:visible;enable-background:accumulate"
         d="m 1065.3927,31.930758 c 0,0.0025 0,0.0067 0,0.0067 l -0.012,0 c -1.4448,2.070987 -2.6219,4.17195 -3.4422,5.757785 -1.777,0.262817 -4.0698,0.683988 -6.3108,1.340954 0,0.0034 0,0.0065 0,0.0067 0,0.0034 0.012,0 0.012,0 0,0.0025 0,0.0065 0,0.0067 1.4719,2.027922 3.0599,3.815441 4.2856,5.108078 -0.2613,1.768012 -0.5175,4.04586 -0.5392,6.352193 0,0.0025 0.012,2.8e-5 0.012,0 0,0.0025 0.012,9.8e-5 0.012,0 2.3327,-0.807287 4.4689,-1.786893 6.0551,-2.578204 1.612,0.814059 3.7578,1.801646 5.9997,2.564366 0,-0.0025 0.012,0.0025 0.012,0 0,-0.0025 10e-5,-0.0067 0,-0.0067 0,-0.0025 10e-5,-0.0065 0,-0.0067 -0.037,-2.433386 -0.2877,-4.730817 -0.5391,-6.476621 1.2559,-1.30279 2.8473,-3.076563 4.244,-5.004377 -3e-4,-0.0025 0,0 -0.012,0 0,1.63e-4 -0.012,-0.0067 -0.012,-0.0067 -2.3302,-0.680915 -4.5976,-1.121978 -6.3384,-1.396203 -0.8355,-1.612922 -2.0183,-3.708332 -3.4146,-5.667921 0,-7.4e-5 -0.012,-0.0025 -0.012,0 z"
         id="path4446"
         inkscape:connector-curvature="0" />
      <path
         inkscape:connector-curvature="0"
         id="path4448"
         d="m 1046.1756,52.655735 c 0,0.0011 0,0.0046 0,0.0046 l 0,0 c -0.9101,1.304732 -1.6518,2.628356 -2.1686,3.627431 -1.1195,0.165581 -2.5639,0.430917 -3.9758,0.844807 0,0.0023 0,0.0036 0,0.0046 0,0.0023 0,0 0,0 0,0.0011 0,0.0046 0,0.0046 0.9274,1.2776 1.9278,2.40374 2.6999,3.218113 -0.1646,1.113852 -0.3259,2.548913 -0.3397,4.00191 0,0.0011 0,1.2e-5 0,0 0,0.0011 0,6e-5 0,0 1.4697,-0.508596 2.8153,-1.125755 3.8145,-1.624279 1.0159,0.512855 2.3675,1.135052 3.78,1.615557 0,-0.0011 0,0.0011 0,0 0,-0.0011 1e-4,-0.0046 0,-0.0046 0,-0.0011 1e-4,-0.0036 0,-0.0046 -0.022,-1.533047 -0.1813,-2.980435 -0.3395,-4.080305 0.7911,-0.820762 1.7938,-1.93825 2.6736,-3.152778 -10e-5,-0.0011 0,0 0,0 0,1.05e-4 0,-0.0046 0,-0.0046 -1.4681,-0.428994 -2.8967,-0.706863 -3.9931,-0.879626 -0.5266,-1.016148 -1.2716,-2.336262 -2.1514,-3.57081 0,-4.6e-5 0,-0.0011 0,0 z"
         style="color:#000000;fill:#808080;fill-opacity:1;fill-rule:nonzero;stroke:none;stroke-width:3;marker:none;visibility:visible;display:inline;overflow:visible;enable-background:accumulate" />
      <path
         id="path4141"
         d="m 1172.4057,74.362381 c -5.5389,0 -10.2437,3.423032 -12.48,8.283226 -5.2017,0.379439 -9.302,4.879497 -9.302,10.326461 0,5.691248 4.4634,10.390312 9.9971,10.390312 l 11.7849,0 10.9852,0 c 4.2319,0 7.6404,-3.59545 7.6404,-7.92479 0,-3.284737 -1.9744,-6.057708 -4.7772,-7.249999 -0.3459,-7.646026 -6.3683,-13.82521 -13.8484,-13.82521 z m 0.057,4.494245 c 5.0963,1.95e-4 9.2277,4.131567 9.2278,9.227932 -2e-4,0.257426 -0.016,0.51344 -0.037,0.769115 l 0.01,-0.0044 c -0.01,1.035375 -0.3207,2.498898 -0.3207,2.498898 0,0 0.5893,-0.134146 1.3945,-0.148018 2.141,6.97e-4 3.8762,1.73654 3.8761,3.877502 10e-5,2.140962 -1.7351,3.876806 -3.8761,3.877502 l -21.7224,0.0087 c -3.3063,3.77e-4 -5.9871,-2.679651 -5.9875,-5.986038 -4e-4,-3.306956 2.6806,-5.987869 5.9875,-5.987491 0.7744,0.0011 1.5412,0.152365 2.258,0.445506 0.3405,-4.829166 4.3549,-8.574285 9.1961,-8.579263 z"
         style="font-style:normal;font-variant:normal;font-weight:normal;font-stretch:normal;text-indent:0;text-align:start;text-decoration:none;line-height:normal;letter-spacing:normal;word-spacing:normal;text-transform:none;direction:ltr;block-progression:tb;writing-mode:lr-tb;text-anchor:start;baseline-shift:baseline;color:#000000;color-interpolation:sRGB;color-interpolation-filters:linearRGB;fill:#808080;fill-opacity:1;stroke:none;stroke-width:4;marker:none;visibility:visible;display:inline;overflow:visible;enable-background:accumulate;clip-rule:nonzero;color-rendering:auto;image-rendering:auto;shape-rendering:auto;text-rendering:auto;font-family:sans-serif;-inkscape-font-specification:sans-serif"
         inkscape:connector-curvature="0" />
      <path
         inkscape:connector-curvature="0"
         id="path4184"
         d="m 1009.8372,70.362381 c -6.3029,0 -11.6571,3.895148 -14.2019,9.425713 -5.9192,0.431776 -10.5858,5.552202 -10.5858,11.750472 0,6.476247 5.0801,11.823814 11.377,11.823814 l 13.4107,0 12.4995,0 c 4.8156,0 8.6945,-4.090279 8.6945,-9.01677 0,-3.737804 -2.2469,-6.893255 -5.4363,-8.25 -0.3936,-8.70065 -7.2458,-15.733229 -15.7577,-15.733229 z m 0.064,5.114022 0,0 0,0 c 5.7961,0.0039 10.4946,4.704348 10.4947,10.501413 -2e-4,0.292933 -0.018,0.584734 -0.042,0.875675 l 0.011,-0.0067 c -0.011,1.178186 -0.3645,2.844828 -0.3645,2.844828 0,0 0.6684,-0.153126 1.5847,-0.168911 2.4363,7.93e-4 4.4118,1.975438 4.4117,4.411705 1e-4,2.436267 -1.9754,4.413135 -4.4117,4.413927 l -24.7167,0.0089 c -3.7624,4.29e-4 -6.8138,-3.049588 -6.8143,-6.812028 -4e-4,-3.763088 3.0513,-6.812459 6.8143,-6.812029 0.8812,0.0013 1.7536,0.173162 2.5692,0.506736 0.3873,-5.493018 4.951,-9.754409 10.457,-9.763537 z"
         style="font-style:normal;font-variant:normal;font-weight:normal;font-stretch:normal;text-indent:0;text-align:start;text-decoration:none;line-height:normal;letter-spacing:normal;word-spacing:normal;text-transform:none;direction:ltr;block-progression:tb;writing-mode:lr-tb;text-anchor:start;baseline-shift:baseline;color:#000000;color-interpolation:sRGB;color-interpolation-filters:linearRGB;fill:#808080;fill-opacity:1;stroke:none;stroke-width:4;marker:none;visibility:visible;display:inline;overflow:visible;enable-background:accumulate;clip-rule:nonzero;color-rendering:auto;image-rendering:auto;shape-rendering:auto;text-rendering:auto;font-family:sans-serif;-inkscape-font-specification:sans-serif" />
    </g>
  </g>
</svg>
