<?xml version="1.0" encoding="UTF-8" standalone="no"?>
<!-- Created with Inkscape (http://www.inkscape.org/) -->

<svg
   xmlns:dc="http://purl.org/dc/elements/1.1/"
   xmlns:cc="http://creativecommons.org/ns#"
   xmlns:rdf="http://www.w3.org/1999/02/22-rdf-syntax-ns#"
   xmlns:svg="http://www.w3.org/2000/svg"
   xmlns="http://www.w3.org/2000/svg"
   xmlns:sodipodi="http://sodipodi.sourceforge.net/DTD/sodipodi-0.dtd"
   xmlns:inkscape="http://www.inkscape.org/namespaces/inkscape"
   width="90"
   height="90"
   id="svg6138"
   version="1.1"
   inkscape:version="0.48+devel r"
   viewBox="0 0 90 90.000001"
   sodipodi:docname="weather-clear-night-symbolic.svg">
  <defs
     id="defs6140">
    <linearGradient
       id="linearGradient3899">
      <stop
         id="stop4292"
         offset="0"
         style="stop-color:#fbf7e3;stop-opacity:1" />
      <stop
         id="stop4294"
         offset="1"
         style="stop-color:#c6b386;stop-opacity:1" />
    </linearGradient>
  </defs>
  <sodipodi:namedview
     id="base"
     pagecolor="#ffffff"
     bordercolor="#666666"
     borderopacity="1.0"
     inkscape:pageopacity="0.0"
     inkscape:pageshadow="2"
     inkscape:zoom="6.3664628"
     inkscape:cx="8.1285324"
     inkscape:cy="29.788907"
     inkscape:document-units="px"
     inkscape:current-layer="g6442"
     showgrid="true"
     fit-margin-top="0"
     fit-margin-left="0"
     fit-margin-right="0"
     fit-margin-bottom="0"
     inkscape:snap-global="true"
     inkscape:snap-bbox="true"
     inkscape:bbox-paths="true"
     inkscape:snap-bbox-midpoints="true"
     inkscape:snap-bbox-edge-midpoints="true"
     inkscape:bbox-nodes="true"
     inkscape:object-paths="true"
     inkscape:snap-intersection-paths="true"
     inkscape:object-nodes="true"
     inkscape:snap-smooth-nodes="true"
     inkscape:snap-midpoints="true"
     inkscape:snap-others="true"
     inkscape:snap-object-midpoints="true"
     inkscape:snap-center="true"
     showguides="true"
     inkscape:guide-bbox="true">
    <inkscape:grid
       type="xygrid"
       id="grid6700"
       empspacing="6" />
    <sodipodi:guide
       orientation="0,1"
       position="90,87"
       id="guide4064" />
    <sodipodi:guide
       orientation="0,1"
       position="89,84"
       id="guide4066" />
    <sodipodi:guide
       orientation="1,0"
       position="3,69"
       id="guide4068" />
    <sodipodi:guide
       orientation="1,0"
       position="6,60"
       id="guide4070" />
    <sodipodi:guide
       orientation="1,0"
       position="87,58"
       id="guide4072" />
    <sodipodi:guide
       orientation="1,0"
       position="84,47"
       id="guide4074" />
    <sodipodi:guide
       orientation="0,1"
       position="77,3"
       id="guide4076" />
    <sodipodi:guide
       orientation="0,1"
       position="81,6"
       id="guide4078" />
    <sodipodi:guide
       orientation="1,0"
       position="81,25"
       id="guide4080" />
    <sodipodi:guide
       orientation="0,1"
       position="78,9"
       id="guide4082" />
    <sodipodi:guide
       orientation="0,1"
       position="79,81"
       id="guide4084" />
    <sodipodi:guide
       orientation="1,0"
       position="9,39"
       id="guide4086" />
  </sodipodi:namedview>
  <metadata
     id="metadata6143">
    <rdf:RDF>
      <cc:Work
         rdf:about="">
        <dc:format>image/svg+xml</dc:format>
        <dc:type
           rdf:resource="http://purl.org/dc/dcmitype/StillImage" />
        <dc:title></dc:title>
      </cc:Work>
    </rdf:RDF>
  </metadata>
  <g
     inkscape:label="Layer 1"
     inkscape:groupmode="layer"
     id="layer1"
     transform="translate(-283.57144,-358.79068)">
    <g
       transform="translate(169.57144,223.42822)"
       id="g5937"
       inkscape:export-filename="envelope02.png"
       inkscape:export-xdpi="90"
       inkscape:export-ydpi="90" />
    <g
       id="g6442"
       transform="translate(-753.45981,336.4283)">
      <rect
         style="fill:none;stroke:none"
         id="rect1687"
         width="90"
         height="90"
         x="1037.0312"
         y="22.362379" />
      <path
         style="color:#000000;fill:#808080;fill-opacity:1;fill-rule:nonzero;stroke:none;stroke-width:6;marker:none;visibility:visible;display:inline;overflow:visible;enable-background:accumulate"
         d="M 59.527344 13.603516 C 65.583544 21.017783 67.711647 30.887757 65.248047 40.138672 C 60.985847 56.045477 44.635315 65.486611 28.728516 61.224609 C 24.665016 60.122518 20.882553 58.171832 17.626953 55.501953 C 20.905953 66.903783 29.909935 75.75888 41.365234 78.845703 C 59.434734 83.687273 78.007809 72.96395 82.849609 54.894531 C 87.614309 37.076396 77.247044 18.722027 59.527344 13.603516 z M 71.853516 28.792969 C 77.178516 35.455099 79.396978 44.429051 77.017578 53.332031 C 73.020278 68.25002 57.845734 77.010833 42.927734 73.013672 C 39.361634 72.051514 36.229425 70.237242 33.390625 68.0625 C 50.346425 69.504212 66.529278 58.685169 71.080078 41.701172 A 6.0376128 6.0376128 0 0 0 71.082031 41.691406 C 72.218631 37.423331 72.298816 33.074546 71.853516 28.792969 z "
         transform="translate(1037.0312,22.36238)"
         id="path4255" />
      <path
         style="color:#000000;fill:#808080;fill-opacity:1;fill-rule:nonzero;stroke:none;stroke-width:3;marker:none;visibility:visible;display:inline;overflow:visible;enable-background:accumulate"
         d="m 1065.3927,31.930758 c 0,0.0025 0,0.0067 0,0.0067 l -0.012,0 c -1.4448,2.070987 -2.6219,4.17195 -3.4422,5.757785 -1.777,0.262817 -4.0698,0.683988 -6.3108,1.340954 0,0.0034 0,0.0065 0,0.0067 0,0.0034 0.012,0 0.012,0 0,0.0025 0,0.0065 0,0.0067 1.4719,2.027922 3.0599,3.815441 4.2856,5.108078 -0.2613,1.768012 -0.5175,4.04586 -0.5392,6.352193 0,0.0025 0.012,2.8e-5 0.012,0 0,0.0025 0.012,9.8e-5 0.012,0 2.3327,-0.807287 4.4689,-1.786893 6.0551,-2.578204 1.612,0.814059 3.7578,1.801646 5.9997,2.564366 0,-0.0025 0.012,0.0025 0.012,0 0,-0.0025 10e-5,-0.0067 0,-0.0067 0,-0.0025 10e-5,-0.0065 0,-0.0067 -0.037,-2.433386 -0.2877,-4.730817 -0.5391,-6.476621 1.2559,-1.30279 2.8473,-3.076563 4.244,-5.004377 -3e-4,-0.0025 0,0 -0.012,0 0,1.63e-4 -0.012,-0.0067 -0.012,-0.0067 -2.3302,-0.680915 -4.5976,-1.121978 -6.3384,-1.396203 -0.8355,-1.612922 -2.0183,-3.708332 -3.4146,-5.667921 0,-7.4e-5 -0.012,-0.0025 -0.012,0 z"
         id="path4446"
         inkscape:connector-curvature="0" />
      <path
         inkscape:connector-curvature="0"
         id="path4448"
         d="m 1046.1756,52.655735 c 0,0.0011 0,0.0046 0,0.0046 l 0,0 c -0.9101,1.304732 -1.6518,2.628356 -2.1686,3.627431 -1.1195,0.165581 -2.5639,0.430917 -3.9758,0.844807 0,0.0023 0,0.0036 0,0.0046 0,0.0023 0,0 0,0 0,0.0011 0,0.0046 0,0.0046 0.9274,1.2776 1.9278,2.40374 2.6999,3.218113 -0.1646,1.113852 -0.3259,2.548913 -0.3397,4.00191 0,0.0011 0,1.2e-5 0,0 0,0.0011 0,6e-5 0,0 1.4697,-0.508596 2.8153,-1.125755 3.8145,-1.624279 1.0159,0.512855 2.3675,1.135052 3.78,1.615557 0,-0.0011 0,0.0011 0,0 0,-0.0011 1e-4,-0.0046 0,-0.0046 0,-0.0011 1e-4,-0.0036 0,-0.0046 -0.022,-1.533047 -0.1813,-2.980435 -0.3395,-4.080305 0.7911,-0.820762 1.7938,-1.93825 2.6736,-3.152778 -10e-5,-0.0011 0,0 0,0 0,1.05e-4 0,-0.0046 0,-0.0046 -1.4681,-0.428994 -2.8967,-0.706863 -3.9931,-0.879626 -0.5266,-1.016148 -1.2716,-2.336262 -2.1514,-3.57081 0,-4.6e-5 0,-0.0011 0,0 z"
         style="color:#000000;fill:#808080;fill-opacity:1;fill-rule:nonzero;stroke:none;stroke-width:3;marker:none;visibility:visible;display:inline;overflow:visible;enable-background:accumulate" />
    </g>
  </g>
</svg>
