<?xml version="1.0" encoding="UTF-8" standalone="no"?>
<!-- Created with Inkscape (http://www.inkscape.org/) -->

<svg
   xmlns:dc="http://purl.org/dc/elements/1.1/"
   xmlns:cc="http://creativecommons.org/ns#"
   xmlns:rdf="http://www.w3.org/1999/02/22-rdf-syntax-ns#"
   xmlns:svg="http://www.w3.org/2000/svg"
   xmlns="http://www.w3.org/2000/svg"
   xmlns:sodipodi="http://sodipodi.sourceforge.net/DTD/sodipodi-0.dtd"
   xmlns:inkscape="http://www.inkscape.org/namespaces/inkscape"
   width="90"
   height="90"
   id="svg6138"
   version="1.1"
   inkscape:version="0.48+devel r"
   viewBox="0 0 90 90.000001"
   sodipodi:docname="weather-clouds-symbolic.svg">
  <defs
     id="defs6140" />
  <sodipodi:namedview
     id="base"
     pagecolor="#ffffff"
     bordercolor="#666666"
     borderopacity="1.0"
     inkscape:pageopacity="0.0"
     inkscape:pageshadow="2"
     inkscape:zoom="5.0931702"
     inkscape:cx="14.735419"
     inkscape:cy="55.113015"
     inkscape:document-units="px"
     inkscape:current-layer="g6442"
     showgrid="true"
     fit-margin-top="0"
     fit-margin-left="0"
     fit-margin-right="0"
     fit-margin-bottom="0"
     inkscape:snap-global="false"
     inkscape:snap-bbox="true"
     inkscape:bbox-paths="true"
     inkscape:snap-bbox-midpoints="true"
     inkscape:snap-bbox-edge-midpoints="true"
     inkscape:bbox-nodes="true"
     inkscape:object-paths="true"
     inkscape:snap-intersection-paths="true"
     inkscape:object-nodes="true"
     inkscape:snap-smooth-nodes="true"
     inkscape:snap-midpoints="true"
     inkscape:snap-others="true"
     inkscape:snap-object-midpoints="true"
     inkscape:snap-center="true"
     showguides="false"
     inkscape:guide-bbox="true">
    <inkscape:grid
       type="xygrid"
       id="grid6700"
       empspacing="6" />
    <sodipodi:guide
       orientation="0,1"
       position="90,87"
       id="guide4064" />
    <sodipodi:guide
       orientation="0,1"
       position="89,84"
       id="guide4066" />
    <sodipodi:guide
       orientation="1,0"
       position="3,69"
       id="guide4068" />
    <sodipodi:guide
       orientation="1,0"
       position="6,60"
       id="guide4070" />
    <sodipodi:guide
       orientation="1,0"
       position="87,58"
       id="guide4072" />
    <sodipodi:guide
       orientation="1,0"
       position="84,47"
       id="guide4074" />
    <sodipodi:guide
       orientation="0,1"
       position="77,3"
       id="guide4076" />
    <sodipodi:guide
       orientation="0,1"
       position="81,6"
       id="guide4078" />
    <sodipodi:guide
       orientation="1,0"
       position="81,25"
       id="guide4080" />
    <sodipodi:guide
       orientation="0,1"
       position="78,9"
       id="guide4082" />
    <sodipodi:guide
       orientation="0,1"
       position="79,81"
       id="guide4084" />
    <sodipodi:guide
       orientation="1,0"
       position="9,39"
       id="guide4086" />
  </sodipodi:namedview>
  <metadata
     id="metadata6143">
    <rdf:RDF>
      <cc:Work
         rdf:about="">
        <dc:format>image/svg+xml</dc:format>
        <dc:type
           rdf:resource="http://purl.org/dc/dcmitype/StillImage" />
        <dc:title></dc:title>
      </cc:Work>
    </rdf:RDF>
  </metadata>
  <g
     inkscape:label="Layer 1"
     inkscape:groupmode="layer"
     id="layer1"
     transform="translate(-283.57144,-358.79068)">
    <g
       transform="translate(169.57144,223.42822)"
       id="g5937"
       inkscape:export-filename="envelope02.png"
       inkscape:export-xdpi="90"
       inkscape:export-ydpi="90" />
    <g
       id="g6442"
       transform="translate(-753.45981,336.4283)">
      <g
         style="fill:#ff00ff;enable-background:new"
         id="g4262"
         transform="matrix(0.32339525,0,0,0.32339525,1223.0834,294.38299)">
        <path
           style="font-style:normal;font-variant:normal;font-weight:normal;font-stretch:normal;text-indent:0;text-align:start;text-decoration:none;line-height:normal;letter-spacing:normal;word-spacing:normal;text-transform:none;direction:ltr;block-progression:tb;writing-mode:lr-tb;text-anchor:start;baseline-shift:baseline;color:#000000;color-interpolation:sRGB;color-interpolation-filters:linearRGB;fill:#ff00ff;fill-opacity:1;stroke:none;stroke-width:3.99999976;marker:none;visibility:visible;display:inline;overflow:visible;enable-background:accumulate;clip-rule:nonzero;color-rendering:auto;image-rendering:auto;shape-rendering:auto;text-rendering:auto;font-family:sans-serif;-inkscape-font-specification:sans-serif"
           d="m -113.93503,-702.79944 c 32.21501,0 58.60292,26.06527 58.60292,58.10479 0,32.03916 -26.38785,58.09635 -58.60292,58.09635 l -49.95729,0 c -21.61789,0 -39.38664,-17.61512 -39.38664,-39.20089 0,-20.13061 15.33803,-37.16385 35.22424,-39.45419 8.48444,-21.83302 29.28074,-37.54606 54.11969,-37.54606 z"
           id="path4294"
           inkscape:connector-curvature="0" />
        <g
           style="fill:#ff00ff;display:none"
           inkscape:label="Stroke"
           id="layer2">
          <path
             inkscape:connector-curvature="0"
             id="path812-2"
             d="m 47.333327,17.00002 c -7.842114,0 -14.553954,5.029207 -17.317707,12.187483 -0.0612,-6.73e-4 -0.12078,0 -0.182293,0 C 22.745673,29.187503 17,35.189704 17,42.593714 c 0,7.404076 5.745673,13.406305 12.833327,13.406305 l 17.5,0 16.33334,0 c 5.15466,0 9.333333,-4.365307 9.333333,-9.750058 0,-4.543363 -2.974073,-8.36314 -7,-9.445255 0.0013,-0.102879 0,-0.201522 0,-0.30467 C 66,25.730444 57.642647,17.00002 47.333327,17.00002 Z"
             style="color:#000000;fill:#ff00ff;stroke:#cccccc;stroke-width:12.36876583;stroke-miterlimit:4;stroke-dasharray:none;marker:none;visibility:visible;display:inline;overflow:visible;enable-background:accumulate" />
        </g>
      </g>
      <rect
         style="fill:none;stroke:none"
         id="rect1687"
         width="90"
         height="90"
         x="1037.0312"
         y="22.362379" />
      <path
         style="font-style:normal;font-variant:normal;font-weight:normal;font-stretch:normal;text-indent:0;text-align:start;text-decoration:none;line-height:normal;letter-spacing:normal;word-spacing:normal;text-transform:none;direction:ltr;block-progression:tb;writing-mode:lr-tb;text-anchor:start;baseline-shift:baseline;color:#000000;color-interpolation:sRGB;color-interpolation-filters:linearRGB;fill:#808080;fill-opacity:1;stroke:none;stroke-width:4;marker:none;visibility:visible;display:inline;overflow:visible;enable-background:accumulate;clip-rule:nonzero;color-rendering:auto;image-rendering:auto;shape-rendering:auto;text-rendering:auto;font-family:sans-serif;-inkscape-font-specification:sans-serif"
         d="m 1085.3125,35.163161 c -11.5142,0 -21.2945,7.104415 -25.9434,17.19336 -10.8132,0.787637 -19.3379,10.128589 -19.3379,21.435547 0,11.814071 9.2798,21.570312 20.7832,21.570312 l 24.4981,0 22.8359,0 c 8.7971,0 15.8828,-7.462248 15.8828,-16.449219 0,-6.818556 -4.1073,-12.575782 -9.9336,-15.050781 -0.7193,-15.871859 -13.2357,-28.699219 -28.7851,-28.699219 z m 0.2324,6.011719 c 12.3057,-3.03e-4 22.2815,9.97553 22.2812,22.28125 -0.01,1.723284 -0.2156,3.439837 -0.6191,5.115234 0.145,-0.0082 0.2903,-0.01343 0.4355,-0.01563 5.7538,-1.83e-4 10.4182,4.664208 10.418,10.417969 2e-4,5.753761 -4.6642,10.418152 -10.418,10.417969 l -46.0234,-0.140625 c -8.5475,4.2e-5 -15.4766,-6.929076 -15.4766,-15.476563 0,-8.547487 6.9291,-15.476604 15.4766,-15.476562 0.7468,0.006 1.4923,0.06605 2.2305,0.179687 2.3189,-10.116792 11.3161,-17.292404 21.6953,-17.302734 z"
         id="path4130"
         inkscape:connector-curvature="0" />
    </g>
  </g>
</svg>
