<?xml version="1.0" encoding="UTF-8" standalone="no"?>
<!-- Created with Inkscape (http://www.inkscape.org/) -->

<svg
   xmlns:dc="http://purl.org/dc/elements/1.1/"
   xmlns:cc="http://creativecommons.org/ns#"
   xmlns:rdf="http://www.w3.org/1999/02/22-rdf-syntax-ns#"
   xmlns:svg="http://www.w3.org/2000/svg"
   xmlns="http://www.w3.org/2000/svg"
   xmlns:sodipodi="http://sodipodi.sourceforge.net/DTD/sodipodi-0.dtd"
   xmlns:inkscape="http://www.inkscape.org/namespaces/inkscape"
   width="90"
   height="90"
   id="svg6138"
   version="1.1"
   inkscape:version="0.48+devel r"
   viewBox="0 0 90 90.000001"
   sodipodi:docname="weather-severe-alert-symbolic.svg">
  <defs
     id="defs6140" />
  <sodipodi:namedview
     id="base"
     pagecolor="#ffffff"
     bordercolor="#666666"
     borderopacity="1.0"
     inkscape:pageopacity="0.0"
     inkscape:pageshadow="2"
     inkscape:zoom="6.3664628"
     inkscape:cx="11.026531"
     inkscape:cy="25.359446"
     inkscape:document-units="px"
     inkscape:current-layer="g6442"
     showgrid="true"
     fit-margin-top="0"
     fit-margin-left="0"
     fit-margin-right="0"
     fit-margin-bottom="0"
     inkscape:snap-global="true"
     inkscape:snap-bbox="true"
     inkscape:bbox-paths="true"
     inkscape:snap-bbox-midpoints="true"
     inkscape:snap-bbox-edge-midpoints="true"
     inkscape:bbox-nodes="true"
     inkscape:object-paths="true"
     inkscape:snap-intersection-paths="true"
     inkscape:object-nodes="true"
     inkscape:snap-smooth-nodes="true"
     inkscape:snap-midpoints="true"
     inkscape:snap-others="true"
     inkscape:snap-object-midpoints="true"
     inkscape:snap-center="true"
     showguides="true"
     inkscape:guide-bbox="true">
    <inkscape:grid
       type="xygrid"
       id="grid6700"
       empspacing="6" />
    <sodipodi:guide
       orientation="0,1"
       position="90,87"
       id="guide4064" />
    <sodipodi:guide
       orientation="0,1"
       position="89,84"
       id="guide4066" />
    <sodipodi:guide
       orientation="1,0"
       position="3,69"
       id="guide4068" />
    <sodipodi:guide
       orientation="1,0"
       position="6,60"
       id="guide4070" />
    <sodipodi:guide
       orientation="1,0"
       position="87,58"
       id="guide4072" />
    <sodipodi:guide
       orientation="1,0"
       position="84,47"
       id="guide4074" />
    <sodipodi:guide
       orientation="0,1"
       position="77,3"
       id="guide4076" />
    <sodipodi:guide
       orientation="0,1"
       position="81,6"
       id="guide4078" />
    <sodipodi:guide
       orientation="1,0"
       position="81,25"
       id="guide4080" />
    <sodipodi:guide
       orientation="0,1"
       position="78,9"
       id="guide4082" />
    <sodipodi:guide
       orientation="0,1"
       position="79,81"
       id="guide4084" />
    <sodipodi:guide
       orientation="1,0"
       position="9,39"
       id="guide4086" />
  </sodipodi:namedview>
  <metadata
     id="metadata6143">
    <rdf:RDF>
      <cc:Work
         rdf:about="">
        <dc:format>image/svg+xml</dc:format>
        <dc:type
           rdf:resource="http://purl.org/dc/dcmitype/StillImage" />
        <dc:title></dc:title>
      </cc:Work>
    </rdf:RDF>
  </metadata>
  <g
     inkscape:label="Layer 1"
     inkscape:groupmode="layer"
     id="layer1"
     transform="translate(-283.57144,-358.79068)">
    <g
       transform="translate(169.57144,223.42822)"
       id="g5937"
       inkscape:export-filename="envelope02.png"
       inkscape:export-xdpi="90"
       inkscape:export-ydpi="90" />
    <g
       id="g6442"
       transform="translate(-753.45981,336.4283)">
      <rect
         style="fill:none;stroke:none"
         id="rect1687"
         width="90"
         height="90"
         x="1037.0312"
         y="22.362379" />
      <path
         id="path4184"
         d="m 1092.3164,31.36238 c -7.1663,0.009 -13.8956,3.449451 -18.1055,9.257812 -1.5595,-0.441137 -3.1725,-0.66777 -4.793,-0.673828 -9.6225,0.01081 -17.5093,7.649537 -17.8457,17.28125 -6.5789,0.790612 -11.5326,6.37531 -11.541,13.011719 -2e-4,7.247562 5.8654,13.123004 13.1016,13.123047 l 55.2246,0 c 8.6565,1.9e-4 15.6739,-7.029125 15.6738,-15.699219 0,-6.205301 -3.6598,-11.823817 -9.3242,-14.33789 -0.2611,-12.200166 -10.2069,-21.956393 -22.3906,-21.962891 z m 0.1523,6 c 8.98,7.8e-5 16.2597,7.279779 16.2598,16.259766 -0.01,1.792408 -0.3069,3.571611 -0.8926,5.265625 0.1353,-0.0077 0.2707,-0.01227 0.4062,-0.01367 4.8539,4.05e-4 8.7887,3.935165 8.7891,8.789062 7e-4,4.85466 -3.9344,8.790611 -8.7891,8.791016 l -55.0976,0.908203 c -3.9295,-3.66e-4 -7.1153,-3.185751 -7.1153,-7.115234 0,-6.068099 6.0293,-8.370631 11.1934,-7.404297 -1.4256,-8.858242 2.6486,-17.041016 11.8242,-17.041016 3.0099,0 5.7325,1.123245 7.8594,3.126953 2.0698,-6.865132 8.3921,-11.564106 15.5625,-11.566406 z"
         style="color:#000000;fill:#808080;fill-opacity:1;fill-rule:nonzero;stroke:none;stroke-width:12;marker:none;visibility:visible;display:inline;overflow:visible;enable-background:accumulate"
         inkscape:connector-curvature="0" />
      <path
         inkscape:transform-center-y="-19.500007"
         transform="matrix(2.0975129,0,0,2.1127785,998.54591,-31.129176)"
         d="m 44.919922,45.199219 a 1.5075373,1.5075373 0 0 0 -1.22461,0.751953 l -8.916015,15.443359 a 1.5075373,1.5075373 0 0 0 1.304687,2.261719 l 17.832032,0 a 1.5075373,1.5075373 0 0 0 1.304687,-2.261719 L 46.304688,45.951172 a 1.5075373,1.5075373 0 0 0 -1.384766,-0.751953 z"
         style="color:#000000;fill:#df382c;fill-opacity:1;fill-rule:nonzero;stroke:none;stroke-width:1.30533755;marker:none;visibility:visible;display:inline;overflow:visible;enable-background:accumulate"
         inkscape:original="M 45 46.705078 L 36.083984 62.148438 L 53.916016 62.148438 L 45 46.705078 z "
         inkscape:radius="1.5073866"
         sodipodi:type="inkscape:offset"
         id="path17"
         inkscape:transform-center-x="-4.3684446e-05"
         class="error" />
      <text
         xml:space="preserve"
         style="font-size:31.41806412px;font-style:normal;font-variant:normal;font-weight:500;font-stretch:normal;text-align:center;line-height:125%;letter-spacing:0px;word-spacing:0px;writing-mode:lr-tb;text-anchor:middle;fill:#ffffff;fill-opacity:1;stroke:none;enable-background:new;font-family:Ubuntu;-inkscape-font-specification:Ubuntu Medium"
         x="1092.7874"
         y="98.07074"
         id="text4264"
         sodipodi:linespacing="125%"
         transform="scale(1.0001435,0.99985652)"><tspan
           sodipodi:role="line"
           id="tspan4266"
           x="1092.7874"
           y="98.07074">!</tspan></text>
    </g>
  </g>
</svg>
