<?xml version="1.0" encoding="UTF-8" standalone="no"?>
<!-- Created with Inkscape (http://www.inkscape.org/) -->

<svg
   xmlns:dc="http://purl.org/dc/elements/1.1/"
   xmlns:cc="http://creativecommons.org/ns#"
   xmlns:rdf="http://www.w3.org/1999/02/22-rdf-syntax-ns#"
   xmlns:svg="http://www.w3.org/2000/svg"
   xmlns="http://www.w3.org/2000/svg"
   xmlns:sodipodi="http://sodipodi.sourceforge.net/DTD/sodipodi-0.dtd"
   xmlns:inkscape="http://www.inkscape.org/namespaces/inkscape"
   width="90"
   height="90"
   id="svg6138"
   version="1.1"
   inkscape:version="0.48+devel r"
   viewBox="0 0 90 90.000001"
   sodipodi:docname="weather-showers-scattered-symbolic.svg">
  <defs
     id="defs6140" />
  <sodipodi:namedview
     id="base"
     pagecolor="#ffffff"
     bordercolor="#666666"
     borderopacity="1.0"
     inkscape:pageopacity="0.0"
     inkscape:pageshadow="2"
     inkscape:zoom="7.9580785"
     inkscape:cx="40.763608"
     inkscape:cy="50.338781"
     inkscape:document-units="px"
     inkscape:current-layer="g6442"
     showgrid="true"
     fit-margin-top="0"
     fit-margin-left="0"
     fit-margin-right="0"
     fit-margin-bottom="0"
     inkscape:snap-global="false"
     inkscape:snap-bbox="true"
     inkscape:bbox-paths="true"
     inkscape:snap-bbox-midpoints="true"
     inkscape:snap-bbox-edge-midpoints="true"
     inkscape:bbox-nodes="true"
     inkscape:object-paths="true"
     inkscape:snap-intersection-paths="true"
     inkscape:object-nodes="true"
     inkscape:snap-smooth-nodes="true"
     inkscape:snap-midpoints="true"
     inkscape:snap-others="true"
     inkscape:snap-object-midpoints="true"
     inkscape:snap-center="true"
     showguides="false"
     inkscape:guide-bbox="true">
    <inkscape:grid
       type="xygrid"
       id="grid6700"
       empspacing="6" />
    <sodipodi:guide
       orientation="0,1"
       position="90,87"
       id="guide4064" />
    <sodipodi:guide
       orientation="0,1"
       position="89,84"
       id="guide4066" />
    <sodipodi:guide
       orientation="1,0"
       position="3,69"
       id="guide4068" />
    <sodipodi:guide
       orientation="1,0"
       position="6,60"
       id="guide4070" />
    <sodipodi:guide
       orientation="1,0"
       position="87,58"
       id="guide4072" />
    <sodipodi:guide
       orientation="1,0"
       position="84,47"
       id="guide4074" />
    <sodipodi:guide
       orientation="0,1"
       position="77,3"
       id="guide4076" />
    <sodipodi:guide
       orientation="0,1"
       position="81,6"
       id="guide4078" />
    <sodipodi:guide
       orientation="1,0"
       position="81,25"
       id="guide4080" />
    <sodipodi:guide
       orientation="0,1"
       position="78,9"
       id="guide4082" />
    <sodipodi:guide
       orientation="0,1"
       position="79,81"
       id="guide4084" />
    <sodipodi:guide
       orientation="1,0"
       position="9,39"
       id="guide4086" />
  </sodipodi:namedview>
  <metadata
     id="metadata6143">
    <rdf:RDF>
      <cc:Work
         rdf:about="">
        <dc:format>image/svg+xml</dc:format>
        <dc:type
           rdf:resource="http://purl.org/dc/dcmitype/StillImage" />
        <dc:title></dc:title>
      </cc:Work>
    </rdf:RDF>
  </metadata>
  <g
     inkscape:label="Layer 1"
     inkscape:groupmode="layer"
     id="layer1"
     transform="translate(-283.57144,-358.79068)">
    <g
       transform="translate(169.57144,223.42822)"
       id="g5937"
       inkscape:export-filename="envelope02.png"
       inkscape:export-xdpi="90"
       inkscape:export-ydpi="90" />
    <g
       id="g6442"
       transform="translate(-753.45981,336.4283)">
      <rect
         style="fill:none;stroke:none"
         id="rect1687"
         width="90"
         height="90"
         x="1037.0312"
         y="22.362379" />
      <path
         style="color:#000000;fill:#808080;fill-opacity:1;fill-rule:nonzero;stroke:none;stroke-width:3;marker:none;visibility:visible;display:inline;overflow:visible;enable-background:accumulate"
         d="m 1097.8222,101.18285 c -2.4333,0 -4.4058,-1.971728 -4.4058,-4.404034 0,-0.482956 0.081,-0.946314 0.2252,-1.38113 0.014,-0.04421 0.026,-0.08979 0.042,-0.133374 0.1122,-0.371193 1.757,-5.76568 4.143,-10.603304 0,0 0,5.64e-4 0,0.0011 0,5.63e-4 0,0.0011 0,0.0029 0,8.45e-4 0,0.0017 0,0.0029 0,5.64e-4 0,0.0011 0,0.0011 2.5494,5.283522 4.17,10.729509 4.17,10.729509 l 0,0 c 0.1434,0.434561 0.2222,0.898463 0.2222,1.381113 0,2.432305 -1.9726,4.404031 -4.4058,4.404031 z"
         id="path4274"
         inkscape:connector-curvature="0"
         inkscape:transform-center-y="-6.3297277"
         inkscape:transform-center-x="0.0040142635" />
      <path
         style="font-style:normal;font-variant:normal;font-weight:normal;font-stretch:normal;text-indent:0;text-align:start;text-decoration:none;line-height:normal;letter-spacing:normal;word-spacing:normal;text-transform:none;direction:ltr;block-progression:tb;writing-mode:lr-tb;text-anchor:start;baseline-shift:baseline;color:#000000;color-interpolation:sRGB;color-interpolation-filters:linearRGB;fill:#808080;fill-opacity:1;stroke:none;stroke-width:4;marker:none;visibility:visible;display:inline;overflow:visible;enable-background:accumulate;clip-rule:nonzero;color-rendering:auto;image-rendering:auto;shape-rendering:auto;text-rendering:auto;font-family:sans-serif;-inkscape-font-specification:sans-serif"
         d="M 47.949219 3 C 37.600219 3 28.809259 9.3851091 24.630859 18.453125 C 14.911859 19.161059 7.25 27.557927 7.25 37.720703 C 7.25 48.339276 15.590388 57.107422 25.929688 57.107422 L 47.949219 57.107422 L 68.474609 57.107422 C 76.381509 57.107422 82.75 50.39982 82.75 42.322266 C 82.75 36.193699 79.059066 31.019469 73.822266 28.794922 C 73.175766 14.52918 61.925119 3 47.949219 3 z M 48.025391 8.9824219 C 58.771957 8.9824649 67.483458 17.694847 67.482422 28.441406 C 67.476051 30.232669 67.222352 32.014472 66.728516 33.736328 C 67.137172 33.675098 67.549679 33.643125 67.962891 33.640625 C 72.757616 33.640655 76.644501 37.527541 76.644531 42.322266 C 76.644501 47.116991 72.757616 51.003876 67.962891 51.003906 L 26.560547 50.982422 C 19.27827 50.982666 13.374756 45.079152 13.375 37.796875 C 13.374756 30.514598 19.27827 24.611084 26.560547 24.611328 C 27.350848 24.615454 28.139178 24.690626 28.916016 24.835938 C 30.648074 15.645715 38.673375 8.9877655 48.025391 8.9824219 z "
         transform="translate(1037.0312,22.36238)"
         id="path4233" />
      <path
         inkscape:transform-center-x="0.0040296009"
         inkscape:transform-center-y="-7.9703526"
         inkscape:connector-curvature="0"
         id="path4248"
         d="m 1082.0308,109.36152 c -3.064,0 -5.5478,-2.48279 -5.5478,-5.54553 0,-0.60813 0.1031,-1.19159 0.2835,-1.7391 0.018,-0.0557 0.033,-0.11306 0.053,-0.16795 0.1412,-0.4674 2.2123,-7.260101 5.2168,-13.3516 0,0 0,5.64e-4 0,0.0014 0,5.64e-4 0,0.0017 0,0.0035 0,0.0011 0,0.002 0,0.0035 0,5.64e-4 0,0.0014 0,0.0014 3.21,6.65297 5.2506,13.510521 5.2506,13.510521 l 0,0 c 0.1807,0.54719 0.2799,1.13134 0.2799,1.73909 0,3.06273 -2.4839,5.54551 -5.5479,5.54551 z"
         style="color:#000000;fill:#808080;fill-opacity:1;fill-rule:nonzero;stroke:none;stroke-width:3;marker:none;visibility:visible;display:inline;overflow:visible;enable-background:accumulate" />
      <path
         style="color:#000000;fill:#808080;fill-opacity:1;fill-rule:nonzero;stroke:none;stroke-width:3;marker:none;visibility:visible;display:inline;overflow:visible;enable-background:accumulate"
         d="m 1066.2375,101.46487 c -2.1197,0 -3.8381,-1.717631 -3.8381,-3.836487 0,-0.420717 0.071,-0.824362 0.1962,-1.203145 0.013,-0.03851 0.022,-0.07821 0.036,-0.116188 0.098,-0.32336 1.5305,-5.022663 3.6091,-9.236867 0,0 0,5.64e-4 0,8.46e-4 0,5.64e-4 0,0.0011 0,0.0025 0,8.47e-4 0,0.0014 0,0.0025 0,5.64e-4 0,8.46e-4 0,8.46e-4 2.2208,4.602639 3.6326,9.346807 3.6326,9.346807 l 0,0 c 0.1253,0.378558 0.1936,0.78268 0.1936,1.203128 0,2.118856 -1.7183,3.836491 -3.8381,3.836491 z"
         id="path4250"
         inkscape:connector-curvature="0"
         inkscape:transform-center-y="-5.5140646"
         inkscape:transform-center-x="0.0039698761" />
    </g>
  </g>
</svg>
