<?xml version="1.0" encoding="UTF-8" standalone="no"?>
<!-- Created with Inkscape (http://www.inkscape.org/) -->

<svg
   xmlns:dc="http://purl.org/dc/elements/1.1/"
   xmlns:cc="http://creativecommons.org/ns#"
   xmlns:rdf="http://www.w3.org/1999/02/22-rdf-syntax-ns#"
   xmlns:svg="http://www.w3.org/2000/svg"
   xmlns="http://www.w3.org/2000/svg"
   xmlns:sodipodi="http://sodipodi.sourceforge.net/DTD/sodipodi-0.dtd"
   xmlns:inkscape="http://www.inkscape.org/namespaces/inkscape"
   width="512"
   height="476"
   id="svg3336"
   version="1.1"
   inkscape:version="0.48.3.1 r9886"
   sodipodi:docname="app_dash-home_512x476px_squared.svg">
  <defs
     id="defs3338">
    <filter
       inkscape:collect="always"
       id="filter3821">
      <feGaussianBlur
         inkscape:collect="always"
         stdDeviation="7.680003"
         id="feGaussianBlur3823" />
    </filter>
  </defs>
  <sodipodi:namedview
     id="base"
     pagecolor="#888888"
     bordercolor="#666666"
     borderopacity="1.0"
     inkscape:pageopacity="0.54117647"
     inkscape:pageshadow="2"
     inkscape:zoom="0.35"
     inkscape:cx="-390.71429"
     inkscape:cy="177.14286"
     inkscape:document-units="px"
     inkscape:current-layer="layer2"
     showgrid="false"
     inkscape:window-width="1920"
     inkscape:window-height="1029"
     inkscape:window-x="0"
     inkscape:window-y="24"
     inkscape:window-maximized="1" />
  <metadata
     id="metadata3341">
    <rdf:RDF>
      <cc:Work
         rdf:about="">
        <dc:format>image/svg+xml</dc:format>
        <dc:type
           rdf:resource="http://purl.org/dc/dcmitype/StillImage" />
        <dc:title></dc:title>
      </cc:Work>
    </rdf:RDF>
  </metadata>
  <g
     inkscape:groupmode="layer"
     id="layer2"
     inkscape:label="Icons">
    <rect
       style="opacity:0.1;color:#000000;fill:#ffffff;fill-opacity:1;fill-rule:nonzero;stroke:#ffffff;stroke-width:1.08863770999999998;stroke-linecap:round;stroke-linejoin:round;stroke-miterlimit:4;stroke-opacity:1;stroke-dasharray:none;stroke-dashoffset:2.89999999999999991;marker:none;visibility:visible;display:inline;overflow:visible;enable-background:accumulate"
       id="rect3825"
       x="0.54431885"
       y="0.54430473"
       height="474.91138"
       width="510.91135" />
    <path
       inkscape:connector-curvature="0"
       id="path4832"
       d="M 255.89026,45.99985 C 149.81647,45.99985 64,131.9878 64,238.00015 c 0,106.00467 85.81513,192 191.89026,192 106.07247,0 192.10974,-85.99533 192.10974,-192 C 448,131.9878 361.96421,45.99985 255.89026,45.99985 z m 63.67089,53.32092 c 4.92525,-0.348555 9.89082,0.85956 14.49039,3.51108 12.26571,7.08081 16.52427,22.63134 9.44079,34.88907 -7.07579,12.25786 -22.8638,16.51392 -35.12862,9.43561 -12.25698,-7.07196 -16.29606,-22.85775 -9.22131,-35.10868 4.42899,-7.66109 12.20928,-12.14517 20.41875,-12.72708 z m -63.67089,27.20935 c 10.31115,0 20.38272,1.5552 29.85955,4.16906 1.67099,10.29858 7.81307,19.83006 17.5643,25.45374 9.73411,5.60845 20.98752,6.09585 30.73743,2.41387 18.96,18.63582 31.35508,43.96062 33.15264,72.192 l -36.66564,0.66462 c -3.3696,-38.23902 -35.51985,-68.24271 -74.64828,-68.24271 -11.27217,0 -21.8112,2.34387 -31.39612,6.80271 l -17.78408,-31.8178 c 14.88015,-7.36068 31.45448,-11.62973 49.1802,-11.62973 z m -61.69476,18.8708 18.6621,31.3793 c -19.25937,13.5478 -31.83537,35.89366 -31.83537,61.21993 0,25.32776 12.576,47.67951 31.83537,61.21847 l -18.6621,31.38018 c -22.44363,-14.98782 -39.17835,-37.9008 -46.1066,-64.73059 8.09459,-6.60333 13.39304,-16.60948 13.39304,-27.86806 0,-11.26449 -5.29845,-21.26473 -13.39304,-27.86807 6.93696,-26.82386 23.67168,-49.74275 46.1066,-64.73116 z m -68.72049,66.92587 c 14.16102,0 25.46835,11.51409 25.46835,25.67336 0,14.15336 -11.30733,25.67336 -25.46835,25.67336 -14.16843,0 -25.68768,-11.52001 -25.68768,-25.67336 0,-14.16074 11.51925,-25.67336 25.68768,-25.67336 z m 205.06353,32.25454 36.66564,0.6646 c -1.798,28.23139 -14.19264,53.55766 -33.15264,72.192 -9.74991,-3.68049 -20.99682,-3.20196 -30.73743,2.41329 -9.74901,5.63595 -15.89331,15.1562 -17.5643,25.45478 -9.47595,2.62153 -19.5484,3.95077 -29.85955,3.95077 -17.72706,0 -34.30005,-4.04235 -49.1802,-11.4122 l 17.78408,-32.03445 c 9.58375,4.45588 20.12395,7.01981 31.39612,7.01981 39.1296,0 71.28651,-29.99335 74.64828,-68.24271 z m -12.51456,80.97082 c 9.91296,-1.24062 20.16132,3.54018 25.46835,12.72664 7.08348,12.25994 2.8227,27.81638 -9.44079,34.88936 -12.26481,7.07889 -27.83349,2.8224 -34.90914,-9.43754 -7.08495,-12.2496 -2.82402,-27.80751 9.44079,-34.8864 3.06387,-1.76788 6.13647,-2.88295 9.44079,-3.29206 z"
       style="fill:#ffffff" />
  </g>
  <g
     inkscape:label="Masks"
     inkscape:groupmode="layer"
     id="layer1"
     transform="translate(0,-576.36218)"
     style="display:none">
    <g
       transform="matrix(3.5555556,0,0,3.5522388,0,-2685.8796)"
       id="layer1-3"
       inkscape:label="Layer 1"
       style="fill:#000000;display:inline">
      <g
         style="fill:#000000"
         inkscape:label="Layer 1"
         id="layer1-2"
         transform="translate(0,9.99998)">
        <path
           sodipodi:nodetypes="sssssssss"
           inkscape:connector-curvature="0"
           id="path3774"
           d="m 46.702703,908.3622 50.594594,0 C 138.16216,908.3622 144,914.2 144,955.06487 l 0,40.59483 c 0,40.8647 -5.83784,46.7025 -46.702703,46.7025 l -50.594594,0 C 5.8378378,1042.3622 0,1036.5244 0,995.6597 L 0,955.06487 C 0,914.2 5.8378378,908.3622 46.702703,908.3622 z"
           style="fill:#000000;fill-opacity:1;stroke:none;display:inline" />
      </g>
    </g>
  </g>
</svg>
