<?xml version="1.0" encoding="UTF-8" standalone="no"?>
<!-- Created with Inkscape (http://www.inkscape.org/) -->

<svg
   xmlns:dc="http://purl.org/dc/elements/1.1/"
   xmlns:cc="http://creativecommons.org/ns#"
   xmlns:rdf="http://www.w3.org/1999/02/22-rdf-syntax-ns#"
   xmlns:svg="http://www.w3.org/2000/svg"
   xmlns="http://www.w3.org/2000/svg"
   xmlns:xlink="http://www.w3.org/1999/xlink"
   xmlns:sodipodi="http://sodipodi.sourceforge.net/DTD/sodipodi-0.dtd"
   xmlns:inkscape="http://www.inkscape.org/namespaces/inkscape"
   width="512"
   height="476"
   id="svg3336"
   version="1.1"
   inkscape:version="0.48+devel r12669"
   sodipodi:docname="facebook.svg">
  <defs
     id="defs3338">
    <linearGradient
       inkscape:collect="always"
       xlink:href="#linearGradient3700-8-3"
       id="linearGradient4014"
       gradientUnits="userSpaceOnUse"
       gradientTransform="matrix(1.4999999,0,0,1.5252192,0,-545.74762)"
       x1="44.236801"
       y1="1101.5593"
       x2="44.236801"
       y2="960.21375" />
    <linearGradient
       id="linearGradient3700-8-3">
      <stop
         id="stop3702-1-23"
         offset="0"
         style="stop-color:#3c5a98;stop-opacity:1" />
      <stop
         id="stop3704-8-56"
         offset="1"
         style="stop-color:#4e71b9;stop-opacity:1" />
    </linearGradient>
    <linearGradient
       y2="1004.3622"
       x2="-74"
       y1="1004.3622"
       x1="-170"
       gradientUnits="userSpaceOnUse"
       id="linearGradient11355"
       xlink:href="#linearGradient3994-4"
       inkscape:collect="always" />
    <linearGradient
       id="linearGradient3994-4">
      <stop
         style="stop-color:#ffffff;stop-opacity:1;"
         offset="0"
         id="stop3996-9" />
      <stop
         style="stop-color:#ffffff;stop-opacity:0;"
         offset="1"
         id="stop3998-9" />
    </linearGradient>
    <clipPath
       id="clipPath4058-7-9"
       clipPathUnits="userSpaceOnUse">
      <path
         style="fill:#dd4814;fill-opacity:1;stroke:none"
         d="m -133.42831,956.36216 22.85662,0 c 31.999999,0 31.999999,0 31.999999,32 l 0,32.00004 c 0,32 0,32 -31.999999,32 l -22.85662,0 c -32,0 -32,0 -32,-32 l 0,-32.00004 c 0,-32 0,-32 32,-32 z"
         id="path4060-38-5"
         inkscape:connector-curvature="0"
         sodipodi:nodetypes="sssssssss" />
    </clipPath>
    <linearGradient
       y2="960.21375"
       x2="44.236801"
       y1="1101.5593"
       x1="44.236801"
       gradientTransform="matrix(1.4999999,0,0,1.5252192,-4.6840784e-5,-1122.1098)"
       gradientUnits="userSpaceOnUse"
       id="linearGradient3091"
       xlink:href="#linearGradient3700-8-3"
       inkscape:collect="always" />
    <linearGradient
       inkscape:collect="always"
       xlink:href="#linearGradient3700-8-3"
       id="linearGradient3034"
       gradientUnits="userSpaceOnUse"
       gradientTransform="matrix(1.4999999,0,0,1.5252192,-4.6840784e-5,-1122.1098)"
       x1="44.236801"
       y1="1101.5593"
       x2="44.236801"
       y2="960.21375" />
    <linearGradient
       inkscape:collect="always"
       xlink:href="#linearGradient3994-4"
       id="linearGradient3036"
       gradientUnits="userSpaceOnUse"
       x1="-170"
       y1="1004.3622"
       x2="-74"
       y2="1004.3622" />
    <linearGradient
       inkscape:collect="always"
       xlink:href="#linearGradient3700-8-3"
       id="linearGradient3043"
       gradientUnits="userSpaceOnUse"
       gradientTransform="matrix(5.3329476,0,0,5.417942,0.01851931,-5200.867)"
       x1="44.236801"
       y1="1047.7903"
       x2="44.236801"
       y2="960.21375" />
  </defs>
  <sodipodi:namedview
     id="base"
     pagecolor="#ffffff"
     bordercolor="#666666"
     borderopacity="1.0"
     inkscape:pageopacity="0.0"
     inkscape:pageshadow="2"
     inkscape:zoom="0.34999999"
     inkscape:cx="353.14282"
     inkscape:cy="-40.714308"
     inkscape:document-units="px"
     inkscape:current-layer="layer2"
     showgrid="true"
     inkscape:window-width="1920"
     inkscape:window-height="1029"
     inkscape:window-x="0"
     inkscape:window-y="24"
     inkscape:window-maximized="1">
    <inkscape:grid
       type="xygrid"
       id="grid3045" />
  </sodipodi:namedview>
  <metadata
     id="metadata3341">
    <rdf:RDF>
      <cc:Work
         rdf:about="">
        <dc:format>image/svg+xml</dc:format>
        <dc:type
           rdf:resource="http://purl.org/dc/dcmitype/StillImage" />
        <dc:title />
      </cc:Work>
    </rdf:RDF>
  </metadata>
  <g
     inkscape:groupmode="layer"
     id="layer2"
     inkscape:label="Icon">
    <path
       style="fill:url(#linearGradient3043);fill-opacity:1;stroke:none;display:inline"
       d="m 0.01851931,0 0,476 511.96300069,0 0,-476 z"
       id="path6419"
       inkscape:connector-curvature="0"
       sodipodi:nodetypes="ccccc" />
    <g
       inkscape:label="Square"
       id="g6751"
       style="display:inline"
       inkscape:export-filename="./facebook.png"
       inkscape:export-xdpi="180"
       inkscape:export-ydpi="180"
       transform="matrix(3.5305171,0,0,3.5387254,-347.00806,-3357.0235)" />
    <path
       inkscape:connector-curvature="0"
       id="path16"
       style="fill:#6d84b3;fill-opacity:1;fill-rule:nonzero;stroke:none"
       d="m 88.252632,404 335.494738,0 0,-55.91579 -335.494738,0 0,55.91579 z"
       inkscape:transform-center-y="138.0421" />
    <path
       inkscape:connector-curvature="0"
       id="path18"
       style="fill:#ffffff;fill-opacity:1;fill-rule:nonzero;stroke:none"
       d="m 283.95789,404 0,-144.15789 -38.04901,0 0,-51.54737 38.04901,0 c 0,0 0,-21.23067 0,-44.25204 0,-34.77375 22.47564,-66.70726 74.26456,-66.70726 20.96842,0 36.47387,2.010173 36.47387,2.010173 l -1.22176,47.944997 c 0,0 -15.81299,-0.15377 -33.0686,-0.15377 -18.67587,0 -21.40596,9.0427 -21.40596,23.32751 0,11.29219 0,-24.07119 0,37.83039 l 55.95912,0 -2.44631,51.54737 -53.51281,0 0,144.15789 -55.04211,0"
       sodipodi:nodetypes="cccccssccsscccccc"
       inkscape:transform-center-x="-64.434"
       inkscape:transform-center-y="12.667722" />
  </g>
  <g
     inkscape:label="Masks"
     inkscape:groupmode="layer"
     id="layer1"
     transform="translate(0,-576.36218)"
     style="opacity:0.36842107;display:none"
     sodipodi:insensitive="true">
    <g
       transform="matrix(3.5555556,0,0,3.5522388,0,-2685.8796)"
       id="layer1-3"
       inkscape:label="Layer 1"
       style="fill:#000000;display:inline">
      <g
         style="fill:#000000"
         inkscape:label="Layer 1"
         id="layer1-2"
         transform="translate(0,9.99998)">
        <path
           sodipodi:nodetypes="sssssssss"
           inkscape:connector-curvature="0"
           id="path3774"
           d="m 46.702703,908.3622 50.594594,0 C 138.16216,908.3622 144,914.2 144,955.06487 l 0,40.59483 c 0,40.8647 -5.83784,46.7025 -46.702703,46.7025 l -50.594594,0 C 5.8378378,1042.3622 0,1036.5244 0,995.6597 L 0,955.06487 C 0,914.2 5.8378378,908.3622 46.702703,908.3622 z"
           style="fill:#000000;fill-opacity:1;stroke:none;display:inline" />
      </g>
    </g>
  </g>
</svg>
