<?xml version="1.0" encoding="UTF-8" standalone="no"?>
<!-- Created with Inkscape (http://www.inkscape.org/) -->

<svg
   xmlns:dc="http://purl.org/dc/elements/1.1/"
   xmlns:cc="http://creativecommons.org/ns#"
   xmlns:rdf="http://www.w3.org/1999/02/22-rdf-syntax-ns#"
   xmlns:svg="http://www.w3.org/2000/svg"
   xmlns="http://www.w3.org/2000/svg"
   xmlns:xlink="http://www.w3.org/1999/xlink"
   xmlns:sodipodi="http://sodipodi.sourceforge.net/DTD/sodipodi-0.dtd"
   xmlns:inkscape="http://www.inkscape.org/namespaces/inkscape"
   width="512"
   height="476"
   id="svg3336"
   version="1.1"
   inkscape:version="0.48+devel r12472"
   sodipodi:docname="app_rssreader_512x476px_squared.svg"
   inkscape:export-filename="PNG/app_soundcloud02_512x476px_squared.png"
   inkscape:export-xdpi="90"
   inkscape:export-ydpi="90">
  <defs
     id="defs3338">
    <linearGradient
       inkscape:collect="always"
       xlink:href="#linearGradient4146-2"
       id="linearGradient3850"
       gradientUnits="userSpaceOnUse"
       gradientTransform="matrix(1.376566,0,0,1.386728,8.0000023,380.00039)"
       x1="46.492699"
       y1="0"
       x2="46.492699"
       y2="53.006302" />
    <linearGradient
       id="linearGradient4146-2">
      <stop
         style="stop-color:#f6f6f6;stop-opacity:1;"
         offset="0"
         id="stop4148-2" />
      <stop
         style="stop-color:#e2e2e2;stop-opacity:1;"
         offset="1"
         id="stop4150-8" />
    </linearGradient>
    <clipPath
       clipPathUnits="userSpaceOnUse"
       id="clipPath3886">
      <path
         inkscape:connector-curvature="0"
         id="path3888"
         d="m 30.005209,918.36218 0,40.21875 c -0.01172,2.68103 0,5.54333 0,8.59375 l 0,36.37502 c 0,3.0504 -0.01172,5.9127 0,8.5937 l 0,40.2188 39.5625,0 64.875001,0 39.5625,0 0,-40.2188 c 0.0117,-2.681 0,-5.5433 0,-8.5937 l 0,-36.37502 c 0,-3.05042 0.0117,-5.91272 0,-8.59375 l 0,-40.21875 -39.5625,0 -64.875001,0 -39.5625,0 z"
         style="fill:#ff00ff;fill-opacity:1;stroke:none;display:inline" />
    </clipPath>
    <linearGradient
       inkscape:collect="always"
       xlink:href="#SVGID_1_"
       id="linearGradient3223"
       gradientUnits="userSpaceOnUse"
       gradientTransform="matrix(1.4999986,0,0,-1.5252169,0.00535589,1941.6322)"
       x1="44.236801"
       y1="1046.2661"
       x2="44.236801"
       y2="960.21375" />
    <linearGradient
       gradientUnits="userSpaceOnUse"
       id="SVGID_1_"
       y2="53.006302"
       x2="46.492699"
       y1="0"
       x1="46.492699"
       gradientTransform="matrix(1.376566,0,0,1.386728,8.0000023,956.36257)">
      <stop
         offset="0"
         style="stop-color:#f79810;stop-opacity:1"
         id="stop2461" />
      <stop
         offset="1"
         style="stop-color:#f8310e;stop-opacity:1"
         id="stop2463" />
    </linearGradient>
    <linearGradient
       y2="1004.3622"
       x2="-74"
       y1="1004.3622"
       x1="-170"
       gradientUnits="userSpaceOnUse"
       id="linearGradient11355"
       xlink:href="#linearGradient3994-4"
       inkscape:collect="always" />
    <linearGradient
       id="linearGradient3994-4">
      <stop
         style="stop-color:#ffffff;stop-opacity:1;"
         offset="0"
         id="stop3996-9" />
      <stop
         style="stop-color:#ffffff;stop-opacity:0;"
         offset="1"
         id="stop3998-9" />
    </linearGradient>
    <clipPath
       id="clipPath4058-7-9"
       clipPathUnits="userSpaceOnUse">
      <path
         style="fill:#dd4814;fill-opacity:1;stroke:none"
         d="m -133.42831,956.36216 22.85662,0 c 31.999999,0 31.999999,0 31.999999,32 l 0,32.00004 c 0,32 0,32 -31.999999,32 l -22.85662,0 c -32,0 -32,0 -32,-32 l 0,-32.00004 c 0,-32 0,-32 32,-32 z"
         id="path4060-38-5"
         inkscape:connector-curvature="0"
         sodipodi:nodetypes="sssssssss" />
    </clipPath>
    <filter
       color-interpolation-filters="sRGB"
       id="filter4080-7-0"
       inkscape:collect="always">
      <feGaussianBlur
         id="feGaussianBlur4082-6-2"
         stdDeviation="2.4000005"
         inkscape:collect="always" />
    </filter>
    <linearGradient
       y2="1004.3622"
       x2="-74"
       y1="1004.3622"
       x1="-170"
       gradientUnits="userSpaceOnUse"
       id="linearGradient3097"
       xlink:href="#linearGradient3994-4"
       inkscape:collect="always" />
    <linearGradient
       inkscape:collect="always"
       xlink:href="#linearGradient3994-4"
       id="linearGradient3113"
       gradientUnits="userSpaceOnUse"
       x1="-170"
       y1="1004.3622"
       x2="-74"
       y2="1004.3622" />
    <linearGradient
       inkscape:collect="always"
       xlink:href="#linearGradient2841"
       id="linearGradient3115"
       gradientUnits="userSpaceOnUse"
       gradientTransform="matrix(1.4999986,0,0,1.5252169,0.00535589,-1123.6322)"
       x1="44.236801"
       y1="1046.2661"
       x2="44.236801"
       y2="960.21375" />
    <linearGradient
       inkscape:collect="always"
       xlink:href="#linearGradient2841"
       id="linearGradient3707"
       x1="8"
       y1="40"
       x2="8"
       y2="-57.781818"
       gradientUnits="userSpaceOnUse"
       gradientTransform="matrix(0.5625,0,0,0.5625,34,57.5)" />
    <linearGradient
       id="linearGradient2841">
      <stop
         id="stop2843"
         offset="0"
         style="stop-color:#d4530d;stop-opacity:1" />
      <stop
         id="stop2845"
         offset="1"
         style="stop-color:#f7ad25;stop-opacity:1" />
    </linearGradient>
    <filter
       inkscape:collect="always"
       id="filter4950"
       x="-0.036"
       width="1.072"
       y="-0.036"
       height="1.072">
      <feGaussianBlur
         inkscape:collect="always"
         stdDeviation="4.32"
         id="feGaussianBlur4952" />
    </filter>
  </defs>
  <sodipodi:namedview
     id="base"
     pagecolor="#ffffff"
     bordercolor="#666666"
     borderopacity="1.0"
     inkscape:pageopacity="0.0"
     inkscape:pageshadow="2"
     inkscape:zoom="0.4375"
     inkscape:cx="-117.82857"
     inkscape:cy="139.65714"
     inkscape:document-units="px"
     inkscape:current-layer="layer2"
     showgrid="true"
     inkscape:window-width="1920"
     inkscape:window-height="1029"
     inkscape:window-x="0"
     inkscape:window-y="24"
     inkscape:window-maximized="1">
    <inkscape:grid
       type="xygrid"
       id="grid4922" />
  </sodipodi:namedview>
  <metadata
     id="metadata3341">
    <rdf:RDF>
      <cc:Work
         rdf:about="">
        <dc:format>image/svg+xml</dc:format>
        <dc:type
           rdf:resource="http://purl.org/dc/dcmitype/StillImage" />
        <dc:title />
      </cc:Work>
    </rdf:RDF>
  </metadata>
  <g
     inkscape:groupmode="layer"
     id="layer2"
     inkscape:label="Icons">
    <g
       id="g3106"
       transform="matrix(3.5552985,0,0,3.5522375,0,-1214.8652)">
      <path
         style="opacity:0.1;fill:none;stroke:url(#linearGradient3113);stroke-width:1.99986649;stroke-miterlimit:4;stroke-dasharray:none;display:inline;filter:url(#filter4080-7-0)"
         d="m -138,956.36216 32,0 c 32,0 32,0 32,32 l 0,32.00004 c 0,32 0,32 -32,32 l -32,0 c -32,0 -32,0 -32,-32 l 0,-32.00004 C -170,956.36216 -170,956.36216 -138,956.36216 Z"
         id="path4332"
         inkscape:connector-curvature="0"
         sodipodi:nodetypes="sssssssss"
         clip-path="url(#clipPath4058-7-9)"
         transform="matrix(0,1.500395,1.4999986,0,-1434.5419,593.88862)" />
      <path
         inkscape:connector-curvature="0"
         id="path6419"
         d="m 0.00520889,476.00002 0,-40.21875 c -0.01172,-2.68103 0,-5.54333 0,-8.59375 l 0,-36.37502 c 0,-3.0504 -0.01172,-5.9127 0,-8.5937 l 0,-40.2188 39.56250011,0 64.875001,0 39.5625,0 0,40.2188 c 0.0117,2.681 0,5.5433 0,8.5937 l 0,36.37502 c 0,3.05042 0.0117,5.91272 0,8.59375 l 0,40.21875 -39.5625,0 -64.875001,0 L 0.00520889,476.00002 Z"
         style="fill:url(#linearGradient3115);fill-opacity:1;stroke:none;display:inline" />
    </g>
    <path
       id="path4924"
       d="m 99.71429,98.57142 0,57.59999 A 230.40001,230.40001 0 0 1 330.1143,386.57142 l 57.59999,0 A 288.00001,288.00001 0 0 0 99.71429,98.57142 z m 0,97.0972 0,55.95424 a 134.94857,134.94857 0 0 1 134.94856,134.94856 l 55.95433,0 A 190.90286,190.90286 0 0 0 99.71429,195.66862 z m 39.49712,111.90856 c -21.81368,0 -39.49712,17.68345 -39.49712,39.49712 0,21.81368 17.68344,39.49712 39.49712,39.49712 21.81367,0 39.49712,-17.68344 39.49712,-39.49712 C 178.70853,325.26063 161.02508,307.57718 139.21141,307.57718 Z"
       style="opacity:0.5;fill:#552200;fill-opacity:1;display:inline;filter:url(#filter4950)"
       inkscape:connector-curvature="0" />
    <path
       inkscape:connector-curvature="0"
       style="fill:#ffffff;fill-opacity:1;display:inline"
       d="m 99.71429,94.57142 0,57.59999 A 230.40001,230.40001 0 0 1 330.1143,382.57142 l 57.59999,0 A 288.00001,288.00001 0 0 0 99.71429,94.57142 z m 0,97.0972 0,55.95424 a 134.94857,134.94857 0 0 1 134.94856,134.94856 l 55.95433,0 A 190.90286,190.90286 0 0 0 99.71429,191.66862 z m 39.49712,111.90856 c -21.81368,0 -39.49712,17.68345 -39.49712,39.49712 0,21.81368 17.68344,39.49712 39.49712,39.49712 21.81367,0 39.49712,-17.68344 39.49712,-39.49712 C 178.70853,321.26063 161.02508,303.57718 139.21141,303.57718 Z"
       id="circle3643" />
  </g>
  <g
     inkscape:label="Masks"
     inkscape:groupmode="layer"
     id="layer1"
     transform="translate(0,-576.36218)"
     style="display:none">
    <g
       transform="matrix(3.5555556,0,0,3.5522388,0,-2685.8796)"
       id="layer1-3"
       inkscape:label="Layer 1"
       style="fill:#000000;display:inline">
      <g
         style="fill:#000000"
         inkscape:label="Layer 1"
         id="layer1-2"
         transform="translate(0,9.99998)">
        <path
           sodipodi:nodetypes="sssssssss"
           inkscape:connector-curvature="0"
           id="path3774"
           d="m 46.702703,908.3622 50.594594,0 C 138.16216,908.3622 144,914.2 144,955.06487 l 0,40.59483 c 0,40.8647 -5.83784,46.7025 -46.702703,46.7025 l -50.594594,0 C 5.8378378,1042.3622 0,1036.5244 0,995.6597 L 0,955.06487 C 0,914.2 5.8378378,908.3622 46.702703,908.3622 Z"
           style="fill:#000000;fill-opacity:1;stroke:none;display:inline" />
      </g>
    </g>
  </g>
</svg>
