<?xml version="1.0" encoding="UTF-8" standalone="no"?>
<!-- Created with Inkscape (http://www.inkscape.org/) -->

<svg
   xmlns:dc="http://purl.org/dc/elements/1.1/"
   xmlns:cc="http://creativecommons.org/ns#"
   xmlns:rdf="http://www.w3.org/1999/02/22-rdf-syntax-ns#"
   xmlns:svg="http://www.w3.org/2000/svg"
   xmlns="http://www.w3.org/2000/svg"
   xmlns:sodipodi="http://sodipodi.sourceforge.net/DTD/sodipodi-0.dtd"
   xmlns:inkscape="http://www.inkscape.org/namespaces/inkscape"
   width="90"
   height="90"
   id="svg3289"
   version="1.1"
   inkscape:version="0.48.3.1 r9886"
   sodipodi:docname="skype@30.svg">
  <defs
     id="defs3291" />
  <sodipodi:namedview
     id="base"
     pagecolor="#ffffff"
     bordercolor="#666666"
     borderopacity="1.0"
     inkscape:pageopacity="0.0"
     inkscape:pageshadow="2"
     inkscape:zoom="5.0931703"
     inkscape:cx="36.912177"
     inkscape:cy="40.426736"
     inkscape:document-units="px"
     inkscape:current-layer="g4451"
     showgrid="true"
     inkscape:window-width="1920"
     inkscape:window-height="1029"
     inkscape:window-x="0"
     inkscape:window-y="24"
     inkscape:window-maximized="1"
     fit-margin-top="0"
     fit-margin-left="0"
     fit-margin-right="0"
     fit-margin-bottom="0">
    <inkscape:grid
       type="xygrid"
       id="grid3061"
       empspacing="6"
       visible="true"
       enabled="true"
       snapvisiblegridlinesonly="true"
       originx="0px"
       originy="2.5e-05px" />
  </sodipodi:namedview>
  <metadata
     id="metadata3294">
    <rdf:RDF>
      <cc:Work
         rdf:about="">
        <dc:format>image/svg+xml</dc:format>
        <dc:type
           rdf:resource="http://purl.org/dc/dcmitype/StillImage" />
        <dc:title />
      </cc:Work>
    </rdf:RDF>
  </metadata>
  <g
     inkscape:label="Layer 1"
     inkscape:groupmode="layer"
     id="layer1"
     transform="translate(0,-962.36223)">
    <g
       style="display:inline"
       transform="translate(-789,604.3622)"
       id="g4451">
      <g
         transform="matrix(1.875,0,0,1.875,249,-1435.1791)"
         id="g4143">
        <rect
           style="opacity:0.21171169;fill:none;stroke:none"
           id="rect4145"
           width="48"
           height="48"
           x="288"
           y="152"
           transform="translate(0,804.3622)" />
      </g>
      <path
         inkscape:connector-curvature="0"
         style="fill:#808080;fill-opacity:1;fill-rule:nonzero;stroke:none;display:inline"
         d="m 816.20918,364.00003 c -11.70149,0 -21.20918,9.50769 -21.20918,21.20917 0,3.61423 0.88891,7.00433 2.48605,9.98305 -0.5332,2.51007 -0.77687,5.13957 -0.77687,7.80778 0,20.59461 16.69621,37.29082 37.29082,37.29082 2.6682,0 5.29771,-0.24375 7.80777,-0.77688 2.98891,1.61147 6.35147,2.48606 9.98305,2.48606 11.70149,0 21.20918,-9.50769 21.20918,-21.20918 0,-3.63158 -0.87458,-6.99413 -2.48605,-9.98305 0.53319,-2.51006 0.77687,-5.13957 0.77687,-7.80777 0,-20.59461 -16.69622,-37.29083 -37.29082,-37.29083 -2.66887,0 -5.29718,0.32112 -7.80778,0.85456 -2.97897,-1.59748 -6.36838,-2.56373 -9.98304,-2.56373 z m 17.05276,14.33367 c 12.20018,0 18.49005,6.44516 18.49005,10.21612 0,3.77096 -1.82215,4.38945 -4.81674,4.38945 -5.81266,0 -3.4252,-6.99204 -14.33367,-6.99204 -3.61296,0 -8.07968,1.61755 -8.07968,5.8267 0,3.37725 3.94039,4.61945 10.99303,6.33167 10.60288,2.84103 18.60658,5.71601 18.60658,15.42133 0,9.4274 -7.76595,14.13943 -19.96612,14.13943 -12.2002,0 -19.96615,-7.29976 -19.96615,-11.07072 0,-3.77094 1.47254,-4.73903 4.46714,-4.73903 5.81262,0 4.97898,7.92429 15.88745,7.92429 3.61296,0 8.93426,-1.61749 8.93426,-5.8267 0,-3.37725 -0.23156,-4.57078 -7.96316,-6.64243 -8.26001,-1.12635 -21.63644,-3.80647 -21.63644,-14.06174 0,-9.42742 7.18328,-14.91633 19.38345,-14.91633 z"
         id="path3818" />
    </g>
  </g>
</svg>
