<?xml version="1.0" encoding="UTF-8" standalone="no"?>
<!-- Created with Inkscape (http://www.inkscape.org/) -->

<svg
   xmlns:dc="http://purl.org/dc/elements/1.1/"
   xmlns:cc="http://creativecommons.org/ns#"
   xmlns:rdf="http://www.w3.org/1999/02/22-rdf-syntax-ns#"
   xmlns:svg="http://www.w3.org/2000/svg"
   xmlns="http://www.w3.org/2000/svg"
   xmlns:xlink="http://www.w3.org/1999/xlink"
   xmlns:sodipodi="http://sodipodi.sourceforge.net/DTD/sodipodi-0.dtd"
   xmlns:inkscape="http://www.inkscape.org/namespaces/inkscape"
   width="512"
   height="476"
   id="svg3336"
   version="1.1"
   inkscape:version="0.48.3.1 r9886"
   sodipodi:docname="app_soundcloud02_512x476px_squared.svg"
   inkscape:export-filename="PNG/app_soundcloud02_512x476px_squared.png"
   inkscape:export-xdpi="90"
   inkscape:export-ydpi="90">
  <defs
     id="defs3338">
    <linearGradient
       inkscape:collect="always"
       xlink:href="#linearGradient4146-2"
       id="linearGradient3850"
       gradientUnits="userSpaceOnUse"
       gradientTransform="matrix(1.376566,0,0,1.386728,8.0000023,380.00039)"
       x1="46.492699"
       y1="0"
       x2="46.492699"
       y2="53.006302" />
    <linearGradient
       id="linearGradient4146-2">
      <stop
         style="stop-color:#f6f6f6;stop-opacity:1;"
         offset="0"
         id="stop4148-2" />
      <stop
         style="stop-color:#e2e2e2;stop-opacity:1;"
         offset="1"
         id="stop4150-8" />
    </linearGradient>
    <filter
       color-interpolation-filters="sRGB"
       inkscape:collect="always"
       id="filter3860">
      <feGaussianBlur
         inkscape:collect="always"
         stdDeviation="0.91999899"
         id="feGaussianBlur3862" />
    </filter>
    <clipPath
       clipPathUnits="userSpaceOnUse"
       id="clipPath3886">
      <path
         inkscape:connector-curvature="0"
         id="path3888"
         d="m 30.005209,918.36218 0,40.21875 c -0.01172,2.68103 0,5.54333 0,8.59375 l 0,36.37502 c 0,3.0504 -0.01172,5.9127 0,8.5937 l 0,40.2188 39.5625,0 64.875001,0 39.5625,0 0,-40.2188 c 0.0117,-2.681 0,-5.5433 0,-8.5937 l 0,-36.37502 c 0,-3.05042 0.0117,-5.91272 0,-8.59375 l 0,-40.21875 -39.5625,0 -64.875001,0 -39.5625,0 z"
         style="fill:#ff00ff;fill-opacity:1;stroke:none;display:inline" />
    </clipPath>
    <filter
       color-interpolation-filters="sRGB"
       inkscape:collect="always"
       id="filter3880"
       x="-0.17249981"
       width="1.3449996"
       y="-0.39428669"
       height="1.7885734">
      <feGaussianBlur
         inkscape:collect="always"
         stdDeviation="9.1999899"
         id="feGaussianBlur3882" />
    </filter>
    <linearGradient
       inkscape:collect="always"
       xlink:href="#SVGID_1_"
       id="linearGradient3223"
       gradientUnits="userSpaceOnUse"
       gradientTransform="matrix(1.4999986,0,0,-1.5252169,0.00535589,1941.6322)"
       x1="44.236801"
       y1="1046.2661"
       x2="44.236801"
       y2="960.21375" />
    <linearGradient
       gradientUnits="userSpaceOnUse"
       id="SVGID_1_"
       y2="53.006302"
       x2="46.492699"
       y1="0"
       x1="46.492699"
       gradientTransform="matrix(1.376566,0,0,1.386728,8.0000023,956.36257)">
      <stop
         offset="0"
         style="stop-color:#f79810;stop-opacity:1"
         id="stop2461" />
      <stop
         offset="1"
         style="stop-color:#f8310e;stop-opacity:1"
         id="stop2463" />
    </linearGradient>
    <linearGradient
       y2="1004.3622"
       x2="-74"
       y1="1004.3622"
       x1="-170"
       gradientUnits="userSpaceOnUse"
       id="linearGradient11355"
       xlink:href="#linearGradient3994-4"
       inkscape:collect="always" />
    <linearGradient
       id="linearGradient3994-4">
      <stop
         style="stop-color:#ffffff;stop-opacity:1;"
         offset="0"
         id="stop3996-9" />
      <stop
         style="stop-color:#ffffff;stop-opacity:0;"
         offset="1"
         id="stop3998-9" />
    </linearGradient>
    <clipPath
       id="clipPath4058-7-9"
       clipPathUnits="userSpaceOnUse">
      <path
         style="fill:#dd4814;fill-opacity:1;stroke:none"
         d="m -133.42831,956.36216 22.85662,0 c 31.999999,0 31.999999,0 31.999999,32 l 0,32.00004 c 0,32 0,32 -31.999999,32 l -22.85662,0 c -32,0 -32,0 -32,-32 l 0,-32.00004 c 0,-32 0,-32 32,-32 z"
         id="path4060-38-5"
         inkscape:connector-curvature="0"
         sodipodi:nodetypes="sssssssss" />
    </clipPath>
    <filter
       color-interpolation-filters="sRGB"
       id="filter4080-7-0"
       inkscape:collect="always">
      <feGaussianBlur
         id="feGaussianBlur4082-6-2"
         stdDeviation="2.4000005"
         inkscape:collect="always" />
    </filter>
    <linearGradient
       y2="1004.3622"
       x2="-74"
       y1="1004.3622"
       x1="-170"
       gradientUnits="userSpaceOnUse"
       id="linearGradient3097"
       xlink:href="#linearGradient3994-4"
       inkscape:collect="always" />
    <linearGradient
       inkscape:collect="always"
       xlink:href="#linearGradient3994-4"
       id="linearGradient3113"
       gradientUnits="userSpaceOnUse"
       x1="-170"
       y1="1004.3622"
       x2="-74"
       y2="1004.3622" />
    <linearGradient
       inkscape:collect="always"
       xlink:href="#SVGID_1_"
       id="linearGradient3115"
       gradientUnits="userSpaceOnUse"
       gradientTransform="matrix(1.4999986,0,0,-1.5252169,0.00535589,1941.6322)"
       x1="44.236801"
       y1="1046.2661"
       x2="44.236801"
       y2="960.21375" />
    <linearGradient
       inkscape:collect="always"
       xlink:href="#linearGradient4146-2"
       id="linearGradient3117"
       gradientUnits="userSpaceOnUse"
       gradientTransform="matrix(1.376566,0,0,1.386728,8.0000023,380.00039)"
       x1="46.492699"
       y1="0"
       x2="46.492699"
       y2="53.006302" />
  </defs>
  <sodipodi:namedview
     id="base"
     pagecolor="#ffffff"
     bordercolor="#666666"
     borderopacity="1.0"
     inkscape:pageopacity="0.0"
     inkscape:pageshadow="2"
     inkscape:zoom="0.35"
     inkscape:cx="-533.57143"
     inkscape:cy="520"
     inkscape:document-units="px"
     inkscape:current-layer="layer2"
     showgrid="false"
     inkscape:window-width="1920"
     inkscape:window-height="1029"
     inkscape:window-x="0"
     inkscape:window-y="24"
     inkscape:window-maximized="1" />
  <metadata
     id="metadata3341">
    <rdf:RDF>
      <cc:Work
         rdf:about="">
        <dc:format>image/svg+xml</dc:format>
        <dc:type
           rdf:resource="http://purl.org/dc/dcmitype/StillImage" />
        <dc:title></dc:title>
      </cc:Work>
    </rdf:RDF>
  </metadata>
  <g
     inkscape:groupmode="layer"
     id="layer2"
     inkscape:label="Icons">
    <g
       id="g3106"
       transform="matrix(3.5552985,0,0,3.5522375,0,-1214.8652)">
      <path
         style="opacity:0.1;fill:none;stroke:url(#linearGradient3113);stroke-width:1.99986649;stroke-miterlimit:4;stroke-dasharray:none;display:inline;filter:url(#filter4080-7-0)"
         d="m -138,956.36216 32,0 c 32,0 32,0 32,32 l 0,32.00004 c 0,32 0,32 -32,32 l -32,0 c -32,0 -32,0 -32,-32 l 0,-32.00004 c 0,-32 0,-32 32,-32 z"
         id="path4332"
         inkscape:connector-curvature="0"
         sodipodi:nodetypes="sssssssss"
         clip-path="url(#clipPath4058-7-9)"
         transform="matrix(0,1.500395,1.4999986,0,-1434.5419,593.88862)" />
      <path
         inkscape:connector-curvature="0"
         id="path6419"
         d="m 0.00520889,342 0,40.21875 c -0.01172,2.68103 0,5.54333 0,8.59375 l 0,36.37502 c 0,3.0504 -0.01172,5.9127 0,8.5937 l 0,40.2188 39.56250011,0 64.875001,0 39.5625,0 0,-40.2188 c 0.0117,-2.681 0,-5.5433 0,-8.5937 l 0,-36.37502 c 0,-3.05042 0.0117,-5.91272 0,-8.59375 l 0,-40.21875 -39.5625,0 -64.875001,0 -39.56250011,0 z"
         style="fill:url(#linearGradient3115);fill-opacity:1;stroke:none;display:inline" />
      <path
         transform="translate(-30,-576.36218)"
         clip-path="url(#clipPath3886)"
         style="opacity:0.5;fill:#ffffff;filter:url(#filter3880)"
         id="path3853"
         d="m 39.449526,989.85482 c -0.267053,0 -0.479045,0.20802 -0.513458,0.50476 l -0.936066,7.16244 0.936066,7.03908 c 0.03442,0.2967 0.246405,0.5034 0.513458,0.5034 0.258795,0 0.46941,-0.2053 0.510706,-0.5006 l 0,0 0,0 0,0 1.109513,-7.04188 -1.109513,-7.16382 c -0.03992,-0.29536 -0.253288,-0.50338 -0.510706,-0.50338 z m 5.263989,-3.91335 c -0.04405,-0.30784 -0.262925,-0.52001 -0.532731,-0.52001 -0.271183,0 -0.495564,0.2191 -0.532731,0.52001 0,0.003 -1.258183,11.58055 -1.258183,11.58055 l 1.258183,11.32408 c 0.03579,0.3037 0.26017,0.5227 0.532731,0.5227 0.268429,0 0.487304,-0.2135 0.531353,-0.5199 l 1.43163,-11.32688 z M 64.541572,975.2595 c -0.516214,0 -0.942947,0.42573 -0.967727,0.96655 l -1.00214,21.30566 1.00214,13.76879 c 0.02615,0.5381 0.451513,0.9624 0.967727,0.9624 0.513459,0 0.938817,-0.4256 0.9691,-0.9651 l 0,0.01 1.132918,-13.77026 -1.132918,-21.30566 c -0.03028,-0.54083 -0.455641,-0.96655 -0.9691,-0.96655 z m -10.262301,7.40515 c -0.39645,0 -0.719943,0.31893 -0.751604,0.74465 l -1.128784,14.11685 1.128784,13.65795 c 0.03028,0.423 0.355154,0.7419 0.751604,0.7419 0.392322,0 0.715815,-0.3189 0.750229,-0.7419 l 1.28296,-13.65795 -1.28296,-14.11961 c -0.03442,-0.42296 -0.357907,-0.74189 -0.750229,-0.74189 z m 20.691166,29.59695 c 0.6401,0 1.160441,-0.52 1.186597,-1.1856 l 0.98287,-13.53736 -0.981493,-28.3655 c -0.02613,-0.66562 -0.546496,-1.18562 -1.186602,-1.18562 -0.645604,0 -1.167322,0.52139 -1.187973,1.18702 0,0.002 -0.871365,28.36274 -0.871365,28.36274 l 0.871365,13.54272 c 0.02066,0.6602 0.542369,1.1816 1.186601,1.1816 z m 21.35054,0.063 c 0.881002,0 1.607829,-0.7308 1.624348,-1.6294 l 0,0.01 0,-0.01 0.68553,-13.14902 -0.68553,-32.76003 c -0.01514,-0.89721 -0.743346,-1.6294 -1.624348,-1.6294 -0.882379,0 -1.610583,0.7308 -1.624347,1.63078 l -0.612572,32.74753 c 0,0.0209 0.612572,13.16844 0.612572,13.16844 0.01378,0.8903 0.74334,1.6211 1.624347,1.6211 z m -10.756489,-0.051 c 0.766747,0 1.384823,-0.6199 1.405475,-1.4104 l 0,0.01 0.8342,-13.33204 -0.835578,-28.5707 c -0.02066,-0.79044 -0.638727,-1.40892 -1.405474,-1.40892 -0.772251,0 -1.390328,0.61848 -1.406853,1.40892 l -0.741968,28.57212 0.743346,13.32932 c 0.01651,0.782 0.634601,1.4019 1.406852,1.4019 z m -26.174026,-0.1249 c 0.455644,0 0.824564,-0.3674 0.858978,-0.8513 L 61.458065,997.52579 60.24944,984.4254 c -0.03304,-0.48397 -0.401957,-0.84867 -0.858978,-0.84867 -0.462525,0 -0.831446,0.36748 -0.860353,0.85424 l -1.064086,13.09483 1.064086,13.7703 c 0.03028,0.4853 0.397828,0.8527 0.860353,0.8527 z m -10.181083,-0.7543 c 0.333131,0 0.602937,-0.2648 0.641481,-0.6309 l 1.357294,-13.24058 -1.355917,-13.73968 c -0.03992,-0.36748 -0.309727,-0.63235 -0.642858,-0.63235 -0.337257,0 -0.607065,0.26626 -0.641479,0.63235 0,0.002 -1.194859,13.73968 -1.194859,13.73968 l 1.194859,13.23778 c 0.03304,0.3675 0.302845,0.6337 0.641479,0.6337 z m 41.712705,-42.89983 c -0.832822,0 -1.500456,0.66703 -1.516975,1.52124 l -0.67727,27.52793 0.67727,13.24606 c 0.01651,0.8432 0.682776,1.5101 1.516975,1.5101 0.831445,0 1.494951,-0.6656 1.51422,-1.5198 l 0,0.011 0.759865,-13.24618 -0.759866,-27.53087 c -0.01924,-0.85146 -0.682775,-1.51847 -1.51422,-1.51847 z m -21.18535,43.79423 c 0.575402,0 1.050318,-0.4728 1.077851,-1.0761 l 1.0572,-13.67733 -1.0572,-26.17859 c -0.02891,-0.60461 -0.502449,-1.0761 -1.077851,-1.0761 -0.580912,0 -1.054451,0.47286 -1.079228,1.0761 0,0.002 -0.936063,26.17859 -0.936063,26.17859 l 0.93744,13.68293 c 0.02339,0.5977 0.496939,1.0705 1.077851,1.0705 z m 11.80543,-1.2909 0,-0.01 0.908535,-13.45125 -0.908535,-29.32096 c -0.02203,-0.72803 -0.591926,-1.29937 -1.295352,-1.29937 -0.707553,0 -1.277451,0.56997 -1.296725,1.29937 l -0.806666,29.31959 0.808044,13.45822 c 0.01929,0.7211 0.589171,1.291 1.295347,1.291 0.704803,0 1.271951,-0.5699 1.295352,-1.2953 l 0,0.01 z m 68.715426,-30.35973 c -2.15708,0 -4.21505,0.43958 -6.08992,1.23141 -1.25268,-14.29441 -13.15172,-25.50748 -27.66624,-25.50748 -3.55154,0 -7.0136,0.70445 -10.07096,1.89565 -1.18797,0.46318 -1.50458,0.94021 -1.51559,1.86516 l 0,50.33829 c 0.0124,0.9707 0.75986,1.7791 1.70006,1.8747 0.0399,0.01 43.36045,0.026 43.64127,0.026 8.6944,0 15.74379,-7.1014 15.74379,-15.86144 0,-8.75993 -7.04802,-15.86276 -15.74241,-15.86276 z m -48.56113,-20.55866 c -0.9457,0 -1.722081,0.78211 -1.735844,1.7431 l -0.710308,35.72901 0.711685,12.96738 c 0.01241,0.9471 0.788767,1.7279 1.734477,1.7279 0.94295,0 1.71933,-0.7808 1.73309,-1.7418 l 0,0.015 0.77225,-12.96874 -0.77225,-35.73177 c -0.0138,-0.95822 -0.79014,-1.74033 -1.73309,-1.74033 z"
         inkscape:connector-curvature="0"
         sodipodi:nodetypes="scccsccccccscscccscccccccsccccccscccscccsscccscccsscccccscccscccccscccccscccscccsscccscccsccccsccccccscccscccsccccscccscccccsccccssccccccscccccc" />
      <path
         style="fill:#c42606;fill-opacity:1;filter:url(#filter3860)"
         id="path3852"
         d="m 9.4495265,413.49264 c -0.2670535,0 -0.4790453,0.20802 -0.5134583,0.50476 l -0.9360659,7.16244 0.9360659,7.03908 c 0.034418,0.2967 0.2464048,0.5034 0.5134583,0.5034 0.2587941,0 0.4694099,-0.2053 0.5107056,-0.5006 l 0,0 0,0 0,0 1.1095129,-7.04188 -1.1095129,-7.16382 c -0.039922,-0.29536 -0.2532884,-0.50338 -0.5107056,-0.50338 z m 5.2639885,-3.91335 c -0.04405,-0.30784 -0.262925,-0.52001 -0.532731,-0.52001 -0.271183,0 -0.495564,0.2191 -0.532731,0.52001 0,0.003 -1.258183,11.58055 -1.258183,11.58055 l 1.258183,11.32408 c 0.03579,0.3037 0.26017,0.5227 0.532731,0.5227 0.268429,0 0.487304,-0.2135 0.531353,-0.5199 l 1.43163,-11.32688 z m 19.828057,-10.68197 c -0.516214,0 -0.942947,0.42573 -0.967727,0.96655 l -1.00214,21.30566 1.00214,13.76879 c 0.02615,0.5381 0.451513,0.9624 0.967727,0.9624 0.513459,0 0.938817,-0.4256 0.9691,-0.9651 l 0,0.01 1.132918,-13.77026 -1.132918,-21.30566 c -0.03028,-0.54083 -0.455641,-0.96655 -0.9691,-0.96655 z m -10.262301,7.40515 c -0.39645,0 -0.719943,0.31893 -0.751604,0.74465 l -1.128784,14.11685 1.128784,13.65795 c 0.03028,0.423 0.355154,0.7419 0.751604,0.7419 0.392322,0 0.715815,-0.3189 0.750229,-0.7419 l 1.28296,-13.65795 -1.28296,-14.11961 c -0.03442,-0.42296 -0.357907,-0.74189 -0.750229,-0.74189 z m 20.691166,29.59695 c 0.6401,0 1.160441,-0.52 1.186597,-1.1856 l 0.98287,-13.53736 -0.981493,-28.3655 c -0.02613,-0.66562 -0.546496,-1.18562 -1.186602,-1.18562 -0.645604,0 -1.167322,0.52139 -1.187973,1.18702 0,0.002 -0.871365,28.36274 -0.871365,28.36274 l 0.871365,13.54272 c 0.02066,0.6602 0.542369,1.1816 1.186601,1.1816 z m 21.35054,0.063 c 0.881002,0 1.607829,-0.7308 1.624348,-1.6294 l 0,0.01 0,-0.01 0.68553,-13.14902 -0.68553,-32.76003 c -0.01514,-0.89721 -0.743346,-1.6294 -1.624348,-1.6294 -0.882379,0 -1.610583,0.7308 -1.624347,1.63078 l -0.612572,32.74753 c 0,0.0209 0.612572,13.16844 0.612572,13.16844 0.01378,0.8903 0.74334,1.6211 1.624347,1.6211 z m -10.756489,-0.051 c 0.766747,0 1.384823,-0.6199 1.405475,-1.4104 l 0,0.01 0.8342,-13.33204 -0.835578,-28.5707 c -0.02066,-0.79044 -0.638727,-1.40892 -1.405474,-1.40892 -0.772251,0 -1.390328,0.61848 -1.406853,1.40892 l -0.741968,28.57212 0.743346,13.32932 c 0.01651,0.782 0.634601,1.4019 1.406852,1.4019 z m -26.174026,-0.1249 c 0.455644,0 0.824564,-0.3674 0.858978,-0.8513 l 1.208625,-13.77161 -1.208625,-13.10039 c -0.03304,-0.48397 -0.401957,-0.84867 -0.858978,-0.84867 -0.462525,0 -0.831446,0.36748 -0.860353,0.85424 l -1.064086,13.09483 1.064086,13.7703 c 0.03028,0.4853 0.397828,0.8527 0.860353,0.8527 z m -10.181083,-0.7543 c 0.333131,0 0.602937,-0.2648 0.641481,-0.6309 l 1.357294,-13.24058 -1.355917,-13.73968 c -0.03992,-0.36748 -0.309727,-0.63235 -0.642858,-0.63235 -0.337257,0 -0.607065,0.26626 -0.641479,0.63235 0,0.002 -1.194859,13.73968 -1.194859,13.73968 l 1.194859,13.23778 c 0.03304,0.3675 0.302845,0.6337 0.641479,0.6337 z m 41.712705,-42.89983 c -0.832822,0 -1.500456,0.66703 -1.516975,1.52124 l -0.67727,27.52793 0.67727,13.24606 c 0.01651,0.8432 0.682776,1.5101 1.516975,1.5101 0.831445,0 1.494951,-0.6656 1.51422,-1.5198 l 0,0.011 0.759865,-13.24618 -0.759866,-27.53087 c -0.01924,-0.85146 -0.682775,-1.51847 -1.51422,-1.51847 z m -21.18535,43.79423 c 0.575402,0 1.050318,-0.4728 1.077851,-1.0761 l 1.0572,-13.67733 -1.0572,-26.17859 c -0.02891,-0.60461 -0.502449,-1.0761 -1.077851,-1.0761 -0.580912,0 -1.054451,0.47286 -1.079228,1.0761 0,0.002 -0.936063,26.17859 -0.936063,26.17859 l 0.93744,13.68293 c 0.02339,0.5977 0.496939,1.0705 1.077851,1.0705 z m 11.80543,-1.2909 0,-0.01 0.908535,-13.45125 -0.908535,-29.32096 c -0.02203,-0.72803 -0.591926,-1.29937 -1.295352,-1.29937 -0.707553,0 -1.277451,0.56997 -1.296725,1.29937 l -0.806666,29.31959 0.808044,13.45822 c 0.01929,0.7211 0.589171,1.291 1.295347,1.291 0.704803,0 1.271951,-0.5699 1.295352,-1.2953 l 0,0.01 z m 68.715426,-30.35973 c -2.15708,0 -4.21505,0.43958 -6.08992,1.23141 -1.25268,-14.29441 -13.15172,-25.50748 -27.666236,-25.50748 -3.551541,0 -7.013605,0.70445 -10.07096,1.89565 -1.187975,0.46318 -1.504584,0.94021 -1.515597,1.86516 l 0,50.33829 c 0.01241,0.9707 0.759865,1.7791 1.700061,1.8747 0.0399,0.01 43.360452,0.026 43.641272,0.026 8.6944,0 15.74379,-7.1014 15.74379,-15.86144 0,-8.75993 -7.04802,-15.86276 -15.74241,-15.86276 z M 71.696464,383.71733 c -0.9457,0 -1.722085,0.78211 -1.735848,1.7431 l -0.710308,35.72901 0.711685,12.96738 c 0.01241,0.9471 0.788771,1.7279 1.734472,1.7279 0.94295,0 1.719334,-0.7808 1.733098,-1.7418 l 0,0.015 0.772251,-12.96874 -0.772251,-35.73177 c -0.01378,-0.95822 -0.790148,-1.74033 -1.733098,-1.74033 z"
         inkscape:connector-curvature="0"
         sodipodi:nodetypes="scccsccccccscscccscccccccsccccccscccscccsscccscccsscccccscccscccccscccccscccscccsscccscccsccccsccccccscccscccsccccscccscccccsccccssccccccscccccc" />
      <path
         sodipodi:nodetypes="scccsccccccscscccscccccccsccccccscccscccsscccscccsscccccscccscccccscccccscccscccsscccscccsccccsccccccscccscccsccccscccscccccsccccssccccccscccccc"
         inkscape:connector-curvature="0"
         d="m 9.4495265,413.49264 c -0.2670535,0 -0.4790453,0.20802 -0.5134583,0.50476 l -0.9360659,7.16244 0.9360659,7.03908 c 0.034418,0.2967 0.2464048,0.5034 0.5134583,0.5034 0.2587941,0 0.4694099,-0.2053 0.5107056,-0.5006 l 0,0 0,0 0,0 1.1095129,-7.04188 -1.1095129,-7.16382 c -0.039922,-0.29536 -0.2532884,-0.50338 -0.5107056,-0.50338 z m 5.2639885,-3.91335 c -0.04405,-0.30784 -0.262925,-0.52001 -0.532731,-0.52001 -0.271183,0 -0.495564,0.2191 -0.532731,0.52001 0,0.003 -1.258183,11.58055 -1.258183,11.58055 l 1.258183,11.32408 c 0.03579,0.3037 0.26017,0.5227 0.532731,0.5227 0.268429,0 0.487304,-0.2135 0.531353,-0.5199 l 1.43163,-11.32688 z m 19.828057,-10.68197 c -0.516214,0 -0.942947,0.42573 -0.967727,0.96655 l -1.00214,21.30566 1.00214,13.76879 c 0.02615,0.5381 0.451513,0.9624 0.967727,0.9624 0.513459,0 0.938817,-0.4256 0.9691,-0.9651 l 0,0.01 1.132918,-13.77026 -1.132918,-21.30566 c -0.03028,-0.54083 -0.455641,-0.96655 -0.9691,-0.96655 z m -10.262301,7.40515 c -0.39645,0 -0.719943,0.31893 -0.751604,0.74465 l -1.128784,14.11685 1.128784,13.65795 c 0.03028,0.423 0.355154,0.7419 0.751604,0.7419 0.392322,0 0.715815,-0.3189 0.750229,-0.7419 l 1.28296,-13.65795 -1.28296,-14.11961 c -0.03442,-0.42296 -0.357907,-0.74189 -0.750229,-0.74189 z m 20.691166,29.59695 c 0.6401,0 1.160441,-0.52 1.186597,-1.1856 l 0.98287,-13.53736 -0.981493,-28.3655 c -0.02613,-0.66562 -0.546496,-1.18562 -1.186602,-1.18562 -0.645604,0 -1.167322,0.52139 -1.187973,1.18702 0,0.002 -0.871365,28.36274 -0.871365,28.36274 l 0.871365,13.54272 c 0.02066,0.6602 0.542369,1.1816 1.186601,1.1816 z m 21.35054,0.063 c 0.881002,0 1.607829,-0.7308 1.624348,-1.6294 l 0,0.01 0,-0.01 0.68553,-13.14902 -0.68553,-32.76003 c -0.01514,-0.89721 -0.743346,-1.6294 -1.624348,-1.6294 -0.882379,0 -1.610583,0.7308 -1.624347,1.63078 l -0.612572,32.74753 c 0,0.0209 0.612572,13.16844 0.612572,13.16844 0.01378,0.8903 0.74334,1.6211 1.624347,1.6211 z m -10.756489,-0.051 c 0.766747,0 1.384823,-0.6199 1.405475,-1.4104 l 0,0.01 0.8342,-13.33204 -0.835578,-28.5707 c -0.02066,-0.79044 -0.638727,-1.40892 -1.405474,-1.40892 -0.772251,0 -1.390328,0.61848 -1.406853,1.40892 l -0.741968,28.57212 0.743346,13.32932 c 0.01651,0.782 0.634601,1.4019 1.406852,1.4019 z m -26.174026,-0.1249 c 0.455644,0 0.824564,-0.3674 0.858978,-0.8513 l 1.208625,-13.77161 -1.208625,-13.10039 c -0.03304,-0.48397 -0.401957,-0.84867 -0.858978,-0.84867 -0.462525,0 -0.831446,0.36748 -0.860353,0.85424 l -1.064086,13.09483 1.064086,13.7703 c 0.03028,0.4853 0.397828,0.8527 0.860353,0.8527 z m -10.181083,-0.7543 c 0.333131,0 0.602937,-0.2648 0.641481,-0.6309 l 1.357294,-13.24058 -1.355917,-13.73968 c -0.03992,-0.36748 -0.309727,-0.63235 -0.642858,-0.63235 -0.337257,0 -0.607065,0.26626 -0.641479,0.63235 0,0.002 -1.194859,13.73968 -1.194859,13.73968 l 1.194859,13.23778 c 0.03304,0.3675 0.302845,0.6337 0.641479,0.6337 z m 41.712705,-42.89983 c -0.832822,0 -1.500456,0.66703 -1.516975,1.52124 l -0.67727,27.52793 0.67727,13.24606 c 0.01651,0.8432 0.682776,1.5101 1.516975,1.5101 0.831445,0 1.494951,-0.6656 1.51422,-1.5198 l 0,0.011 0.759865,-13.24618 -0.759866,-27.53087 c -0.01924,-0.85146 -0.682775,-1.51847 -1.51422,-1.51847 z m -21.18535,43.79423 c 0.575402,0 1.050318,-0.4728 1.077851,-1.0761 l 1.0572,-13.67733 -1.0572,-26.17859 c -0.02891,-0.60461 -0.502449,-1.0761 -1.077851,-1.0761 -0.580912,0 -1.054451,0.47286 -1.079228,1.0761 0,0.002 -0.936063,26.17859 -0.936063,26.17859 l 0.93744,13.68293 c 0.02339,0.5977 0.496939,1.0705 1.077851,1.0705 z m 11.80543,-1.2909 0,-0.01 0.908535,-13.45125 -0.908535,-29.32096 c -0.02203,-0.72803 -0.591926,-1.29937 -1.295352,-1.29937 -0.707553,0 -1.277451,0.56997 -1.296725,1.29937 l -0.806666,29.31959 0.808044,13.45822 c 0.01929,0.7211 0.589171,1.291 1.295347,1.291 0.704803,0 1.271951,-0.5699 1.295352,-1.2953 l 0,0.01 z m 68.715426,-30.35973 c -2.15708,0 -4.21505,0.43958 -6.08992,1.23141 -1.25268,-14.29441 -13.15172,-25.50748 -27.666236,-25.50748 -3.551541,0 -7.013605,0.70445 -10.07096,1.89565 -1.187975,0.46318 -1.504584,0.94021 -1.515597,1.86516 l 0,50.33829 c 0.01241,0.9707 0.759865,1.7791 1.700061,1.8747 0.0399,0.01 43.360452,0.026 43.641272,0.026 8.6944,0 15.74379,-7.1014 15.74379,-15.86144 0,-8.75993 -7.04802,-15.86276 -15.74241,-15.86276 z M 71.696464,383.71733 c -0.9457,0 -1.722085,0.78211 -1.735848,1.7431 l -0.710308,35.72901 0.711685,12.96738 c 0.01241,0.9471 0.788771,1.7279 1.734472,1.7279 0.94295,0 1.719334,-0.7808 1.733098,-1.7418 l 0,0.015 0.772251,-12.96874 -0.772251,-35.73177 c -0.01378,-0.95822 -0.790148,-1.74033 -1.733098,-1.74033 z"
         id="path2465"
         style="fill:url(#linearGradient3117);fill-opacity:1" />
    </g>
  </g>
  <g
     inkscape:label="Masks"
     inkscape:groupmode="layer"
     id="layer1"
     transform="translate(0,-576.36218)"
     style="display:none">
    <g
       transform="matrix(3.5555556,0,0,3.5522388,0,-2685.8796)"
       id="layer1-3"
       inkscape:label="Layer 1"
       style="fill:#000000;display:inline">
      <g
         style="fill:#000000"
         inkscape:label="Layer 1"
         id="layer1-2"
         transform="translate(0,9.99998)">
        <path
           sodipodi:nodetypes="sssssssss"
           inkscape:connector-curvature="0"
           id="path3774"
           d="m 46.702703,908.3622 50.594594,0 C 138.16216,908.3622 144,914.2 144,955.06487 l 0,40.59483 c 0,40.8647 -5.83784,46.7025 -46.702703,46.7025 l -50.594594,0 C 5.8378378,1042.3622 0,1036.5244 0,995.6597 L 0,955.06487 C 0,914.2 5.8378378,908.3622 46.702703,908.3622 z"
           style="fill:#000000;fill-opacity:1;stroke:none;display:inline" />
      </g>
    </g>
  </g>
</svg>
