<?xml version="1.0" encoding="UTF-8" standalone="no"?>
<!-- Created with Inkscape (http://www.inkscape.org/) -->

<svg
   xmlns:dc="http://purl.org/dc/elements/1.1/"
   xmlns:cc="http://creativecommons.org/ns#"
   xmlns:rdf="http://www.w3.org/1999/02/22-rdf-syntax-ns#"
   xmlns:svg="http://www.w3.org/2000/svg"
   xmlns="http://www.w3.org/2000/svg"
   xmlns:xlink="http://www.w3.org/1999/xlink"
   xmlns:sodipodi="http://sodipodi.sourceforge.net/DTD/sodipodi-0.dtd"
   xmlns:inkscape="http://www.inkscape.org/namespaces/inkscape"
   width="512"
   height="476"
   id="svg3336"
   version="1.1"
   inkscape:version="0.48.3.1 r9886"
   sodipodi:docname="vector_mask.svg">
  <defs
     id="defs3338">
    <filter
       color-interpolation-filters="sRGB"
       inkscape:collect="always"
       id="filter4164-8">
      <feGaussianBlur
         inkscape:collect="always"
         stdDeviation="0.65413895"
         id="feGaussianBlur4166-2" />
    </filter>
    <filter
       color-interpolation-filters="sRGB"
       inkscape:collect="always"
       id="filter4190-0"
       x="-0.32706946"
       width="1.6541389"
       y="-0.40030405"
       height="1.8006082">
      <feGaussianBlur
         inkscape:collect="always"
         stdDeviation="6.5413895"
         id="feGaussianBlur4192-1" />
    </filter>
    <linearGradient
       inkscape:collect="always"
       xlink:href="#linearGradient4146-2"
       id="linearGradient3223"
       gradientUnits="userSpaceOnUse"
       gradientTransform="matrix(5.3329917,0,0,-5.4178793,0.01669495,5682.2199)"
       x1="44.236801"
       y1="1046.2661"
       x2="44.236801"
       y2="960.21375" />
    <linearGradient
       id="linearGradient4146-2">
      <stop
         style="stop-color:#3abef0;stop-opacity:1;"
         offset="0"
         id="stop4148-2" />
      <stop
         style="stop-color:#0f96c9;stop-opacity:1;"
         offset="1"
         id="stop4150-8" />
    </linearGradient>
    <linearGradient
       y2="1004.3622"
       x2="-74"
       y1="1004.3622"
       x1="-170"
       gradientUnits="userSpaceOnUse"
       id="linearGradient11355"
       xlink:href="#linearGradient3994-4"
       inkscape:collect="always" />
    <linearGradient
       id="linearGradient3994-4">
      <stop
         style="stop-color:#ffffff;stop-opacity:1;"
         offset="0"
         id="stop3996-9" />
      <stop
         style="stop-color:#ffffff;stop-opacity:0;"
         offset="1"
         id="stop3998-9" />
    </linearGradient>
    <clipPath
       id="clipPath4058-7-9"
       clipPathUnits="userSpaceOnUse">
      <path
         style="fill:#dd4814;fill-opacity:1;stroke:none"
         d="m -133.42831,956.36216 22.85662,0 c 31.999999,0 31.999999,0 31.999999,32 l 0,32.00004 c 0,32 0,32 -31.999999,32 l -22.85662,0 c -32,0 -32,0 -32,-32 l 0,-32.00004 c 0,-32 0,-32 32,-32 z"
         id="path4060-38-5"
         inkscape:connector-curvature="0"
         sodipodi:nodetypes="sssssssss" />
    </clipPath>
    <filter
       color-interpolation-filters="sRGB"
       id="filter4080-7-0"
       inkscape:collect="always">
      <feGaussianBlur
         id="feGaussianBlur4082-6-2"
         stdDeviation="2.4000005"
         inkscape:collect="always" />
    </filter>
    <linearGradient
       y2="1004.3622"
       x2="-74"
       y1="1004.3622"
       x1="-170"
       gradientUnits="userSpaceOnUse"
       id="linearGradient3114"
       xlink:href="#linearGradient3994-4"
       inkscape:collect="always" />
  </defs>
  <sodipodi:namedview
     id="base"
     pagecolor="#ffffff"
     bordercolor="#666666"
     borderopacity="1.0"
     inkscape:pageopacity="0.0"
     inkscape:pageshadow="2"
     inkscape:zoom="0.35"
     inkscape:cx="72.142857"
     inkscape:cy="520"
     inkscape:document-units="px"
     inkscape:current-layer="layer2"
     showgrid="false"
     inkscape:window-width="1920"
     inkscape:window-height="1029"
     inkscape:window-x="0"
     inkscape:window-y="24"
     inkscape:window-maximized="1" />
  <metadata
     id="metadata3341">
    <rdf:RDF>
      <cc:Work
         rdf:about="">
        <dc:format>image/svg+xml</dc:format>
        <dc:type
           rdf:resource="http://purl.org/dc/dcmitype/StillImage" />
        <dc:title></dc:title>
      </cc:Work>
    </rdf:RDF>
  </metadata>
  <g
     inkscape:groupmode="layer"
     id="layer2"
     inkscape:label="Icons">
    <path
       transform="matrix(0,5.329707,5.3329917,0,-5100.2738,894.76179)"
       clip-path="url(#clipPath4058-7-9)"
       sodipodi:nodetypes="sssssssss"
       inkscape:connector-curvature="0"
       id="path4332"
       d="m -138,956.36216 32,0 c 32,0 32,0 32,32 l 0,32.00004 c 0,32 0,32 -32,32 l -32,0 c -32,0 -32,0 -32,-32 l 0,-32.00004 c 0,-32 0,-32 32,-32 z"
       style="opacity:0.1;fill:none;stroke:url(#linearGradient3114);stroke-width:1.99986649;stroke-miterlimit:4;stroke-dasharray:none;display:inline;filter:url(#filter4080-7-0)" />
    <path
       style="fill:url(#linearGradient3223);fill-opacity:1;stroke:none;display:inline"
       d="m 0.01617232,0.00239335 0,142.86514665 c -0.04166849,9.52356 0,19.69103 0,30.52674 l 0,129.21144 c 0,10.83563 -0.04166849,21.0031 0,30.52656 l 0,142.86532 140.65778768,0 230.65211,0 140.65779,0 0,-142.86532 c 0.0416,-9.52346 0,-19.69093 0,-30.52656 l 0,-129.21144 c 0,-10.83571 0.0416,-21.00318 0,-30.52674 l 0,-142.86514665 -140.65779,0 -230.65211,0 -140.65778768,0 z"
       id="path6419"
       inkscape:connector-curvature="0" />
    <path
       sodipodi:nodetypes="sccccccccscccccs"
       inkscape:connector-curvature="0"
       id="path6433"
       d="m 53.55503,985.4105 c -3.59404,1.0904 -7.05249,5.9425 -5.96755,11.4316 -11.92838,-0.7181 -17.19624,-7.1081 -20.364,-10.1661 -3.22859,5.6977 0.0823,11.2356 2.97433,13.0282 -1.52626,0.084 -3.37235,-0.5756 -4.28864,-1.1494 -0.34819,5.2565 3.93634,8.9003 7.58145,9.8448 -1.16526,0.3474 -2.26341,0.3941 -4.14064,0.1149 1.5986,5.2866 5.89337,6.7016 9.09259,6.9344 -4.11862,3.5728 -9.06461,4.3518 -14.44257,4.0891 13.94382,8.5282 28.0249,3.2814 34.87846,-3.4114 5.75512,-5.6202 8.32795,-14.0361 8.41698,-21.5664 1.31726,-1.0702 3.98074,-3.3386 4.70456,-5.114 -1.05051,0.404 -3.1287,1.3651 -5.29728,1.4515 1.786,-1.1699 3.83272,-3.5143 4.04709,-5.3471 -1.97752,1.0767 -4.2659,2.0096 -6.22587,2.3071 -3.69486,-3.5657 -7.29268,-3.5626 -10.96891,-2.4472 z"
       style="fill:#96dcf6;fill-opacity:1;stroke:none;display:inline;filter:url(#filter4190-0)"
       transform="matrix(6.0948462,0,0,6.0914423,-36.57115,-5873.4821)" />
    <path
       sodipodi:nodetypes="sccccccccscccccs"
       inkscape:connector-curvature="0"
       id="path6435"
       d="m 53.55503,985.4105 c -3.59404,1.0904 -7.05249,5.9425 -5.96755,11.4316 -11.92838,-0.7181 -17.19624,-7.1081 -20.364,-10.1661 -3.22859,5.6977 0.0823,11.2356 2.97433,13.0282 -1.52626,0.084 -3.37235,-0.5756 -4.28864,-1.1494 -0.34819,5.2565 3.93634,8.9003 7.58145,9.8448 -1.16526,0.3474 -2.26341,0.3941 -4.14064,0.1149 1.5986,5.2866 5.89337,6.7016 9.09259,6.9344 -4.11862,3.5728 -9.06461,4.3518 -14.44257,4.0891 13.94382,8.5282 28.0249,3.2814 34.87846,-3.4114 5.75512,-5.6202 8.32795,-14.0361 8.41698,-21.5664 1.31726,-1.0702 3.98074,-3.3386 4.70456,-5.114 -1.05051,0.404 -3.1287,1.3651 -5.29728,1.4515 1.786,-1.1699 3.83272,-3.5143 4.04709,-5.3471 -1.97752,1.0767 -4.2659,2.0096 -6.22587,2.3071 -3.69486,-3.5657 -7.29268,-3.5626 -10.96891,-2.4472 z"
       style="fill:#0b5775;fill-opacity:1;stroke:none;display:inline;filter:url(#filter4164-8)"
       transform="matrix(6.0948462,0,0,6.0914423,-36.554511,-5880.0295)" />
    <path
       style="fill:#ffffff;fill-opacity:1;stroke:none;display:inline"
       d="m 289.85519,122.5417 c -21.90513,6.64212 -42.98384,36.1984 -36.3713,69.63493 -72.70165,-4.37426 -104.80844,-43.29859 -124.11544,-61.92619 -19.67777,34.70718 0.50159,68.4411 18.12808,79.36053 -9.30232,0.51155 -20.55396,-3.50623 -26.1386,-7.00128 -2.12217,32.0193 23.99138,54.21524 46.20777,59.96804 -7.10209,2.11654 -13.79515,2.4011 -25.23656,0.70021 9.74321,32.20313 35.91917,40.82219 55.41793,42.24058 -25.10235,21.76399 -55.24741,26.50902 -88.02524,24.9084 84.98544,51.94954 170.80744,19.9886 212.57884,-20.78003 35.07656,-34.23563 50.75756,-85.50041 51.30021,-131.37032 8.02847,-6.51908 24.26197,-20.33689 28.67357,-31.15168 -6.40269,2.46097 -19.06895,8.31545 -32.2861,8.84182 10.88538,-7.12642 23.3598,-21.40721 24.66638,-32.57164 -12.05268,6.55869 -26.00003,12.24139 -37.94573,14.05358 -22.5196,-21.72025 -44.44776,-21.70136 -66.85381,-14.90695 z"
       id="path6437"
       inkscape:connector-curvature="0"
       sodipodi:nodetypes="sccccccccscccccs" />
  </g>
  <g
     inkscape:label="Masks"
     inkscape:groupmode="layer"
     id="layer1"
     transform="translate(0,-576.36218)"
     style="display:none">
    <g
       transform="matrix(3.5555556,0,0,3.5522388,0,-2685.8796)"
       id="layer1-3"
       inkscape:label="Layer 1"
       style="fill:#000000;display:inline">
      <g
         style="fill:#000000"
         inkscape:label="Layer 1"
         id="layer1-2"
         transform="translate(0,9.99998)">
        <path
           sodipodi:nodetypes="sssssssss"
           inkscape:connector-curvature="0"
           id="path3774"
           d="m 46.702703,908.3622 50.594594,0 C 138.16216,908.3622 144,914.2 144,955.06487 l 0,40.59483 c 0,40.8647 -5.83784,46.7025 -46.702703,46.7025 l -50.594594,0 C 5.8378378,1042.3622 0,1036.5244 0,995.6597 L 0,955.06487 C 0,914.2 5.8378378,908.3622 46.702703,908.3622 z"
           style="fill:#000000;fill-opacity:1;stroke:none;display:inline" />
      </g>
    </g>
  </g>
</svg>
