<?xml version="1.0" encoding="UTF-8" standalone="no"?>
<!-- Created with Inkscape (http://www.inkscape.org/) -->
<svg
   xmlns:svg="http://www.w3.org/2000/svg"
   xmlns="http://www.w3.org/2000/svg"
   version="1.0"
   width="16"
   height="16"
   id="svg3180">
  <defs
     id="defs3182" />
  <g
     id="layer1">
    <path
       d="M 7.9375,0.375 C 7.3871028,0.37174642 6.8757644,0.48331324 6.46875,0.75 C 6.4085321,0.78945639 6.4431664,0.79436072 6.40625,0.8125 C 6.3923723,0.80194249 6.3908101,0.79167406 6.375,0.78125 C 6.2485195,0.69785754 6.0271157,0.62875942 5.84375,0.6875 C 5.6017828,0.76501334 5.530161,0.90589122 5.46875,1.03125 C 5.3921973,1.0164077 5.2860778,0.98780101 5.09375,1.0625 C 4.9975861,1.0998495 4.8838826,1.1590807 4.8125,1.28125 C 4.7736679,1.3477101 4.7915925,1.4058097 4.78125,1.46875 C 4.7024853,1.533644 4.6644129,1.6093888 4.59375,1.6875 C 4.4524242,1.8437224 4.3026451,2.0387516 4.15625,2.25 C 3.926094,2.5821133 3.7454628,2.8880655 3.65625,3.28125 C 3.5670372,3.6744345 3.5311942,4.1192462 3.53125,4.78125 C 3.5312808,5.2040842 3.5448208,5.6127246 3.53125,5.875 C 3.5254339,5.9874038 3.5373465,6.0328984 3.53125,6.0625 C 3.5302339,6.0674336 3.5317232,6.0922326 3.53125,6.09375 C 3.498212,6.1258252 3.4266902,6.1264586 3.40625,6.15625 C 3.3398194,6.2530719 3.300541,6.3351779 3.28125,6.40625 C 3.2426679,6.5483941 3.2537035,6.6787055 3.25,6.8125 C 3.2425931,7.0800889 3.2758551,7.3770241 3.3125,7.6875 C 3.4094904,8.5092682 3.62908,9.0964104 4.09375,9.53125 C 4.3320201,9.7542223 4.5993811,10.078518 4.78125,10.40625 C 4.9631189,10.733982 5.03125,11.087392 5.03125,11.15625 C 5.03125,11.107944 5.0189537,11.238123 4.84375,11.4375 C 4.6685463,11.636877 4.3784535,11.916606 4,12.1875 C 3.243093,12.729287 2.1404222,13.333869 0.84375,13.90625 L -0.21875,14.34375 C -0.42334749,14.42626 -0.55872602,14.623174 -0.5625,14.84375 L -0.5625,16 C -0.56616862,16.150279 -0.50808425,16.295494 -0.40178935,16.401789 C -0.29549444,16.508084 -0.15027892,16.566169 3.8684189e-16,16.5625 L 16,16.5625 C 16.150279,16.566169 16.295494,16.508084 16.401789,16.401789 C 16.508084,16.295494 16.566169,16.150279 16.5625,16 L 16.5625,14.65625 C 16.558726,14.435674 16.423347,14.23876 16.21875,14.15625 L 15.25,13.75 C 14.158299,13.295636 13.110761,12.72115 12.375,12.1875 C 12.007119,11.920675 11.712472,11.642002 11.53125,11.4375 C 11.350028,11.232998 11.34375,11.083977 11.34375,11.15625 C 11.34375,11.088686 11.411746,10.734307 11.59375,10.40625 C 11.775754,10.078193 12.043482,9.753752 12.28125,9.53125 C 12.745912,9.0964124 12.96551,8.5092712 13.0625,7.6875 C 13.099233,7.3762589 13.133098,7.0777239 13.125,6.8125 C 13.120951,6.679888 13.130392,6.5444483 13.09375,6.40625 C 13.069396,6.3143987 12.995393,6.1806208 12.875,6.0625 C 12.865827,6.0154001 12.851466,5.9480417 12.84375,5.84375 C 12.823978,5.5765024 12.84375,5.1887087 12.84375,4.78125 C 12.84375,3.5945223 12.733148,2.9857515 12.375,2.40625 C 11.969301,1.7498148 11.241049,1.2796318 10.4375,0.9375 C 9.6339508,0.59536822 8.7429221,0.37976108 7.9375,0.375 z"
       transform="matrix(0.8758957,0,0,0.8648524,0.9928348,1.17574)"
       id="path3175"
       style="opacity:0.6;fill:none;fill-opacity:1;fill-rule:evenodd;stroke:#3a3935;stroke-width:1.14895439;stroke-linecap:round;stroke-linejoin:round;marker:none;marker-start:none;marker-mid:none;marker-end:none;stroke-miterlimit:4;stroke-dasharray:none;stroke-dashoffset:0;stroke-opacity:1;visibility:visible;display:inline;overflow:visible;enable-background:accumulate" />
    <path
       d="M 7.9375,0.9375 C 7.4662558,0.93471432 7.0628914,1.034211 6.78125,1.21875 C 6.417895,1.45683 6.25769,1.4766325 6.15625,1.3125 C 6.0591945,1.1554685 5.96051,1.1834292 5.875,1.40625 C 5.80269,1.5946921 5.641105,1.6598875 5.46875,1.59375 C 5.3044202,1.5306905 5.24745,1.551004 5.3125,1.65625 C 5.37501,1.7574035 5.34445,1.84375 5.25,1.84375 C 5.15555,1.84375 4.86348,2.173279 4.59375,2.5625 C 4.1637747,3.1829509 4.09364,3.4769369 4.09375,4.78125 C 4.0938097,5.599603 4.15492,6.386015 3.90625,6.4375 C 3.760405,6.467694 3.77429,7.036497 3.84375,7.625 C 3.93458,8.394573 4.0910851,8.77158 4.46875,9.125 C 5.0569849,9.675468 5.59375,10.63876 5.59375,11.15625 C 5.5937497,11.895752 3.70988,13.237636 1.0625,14.40625 L 0,14.84375 L 0,16 L 16,16 L 16,14.65625 L 15.03125,14.25 C 12.770885,13.309241 10.78125,11.877366 10.78125,11.15625 C 10.78125,10.64001 11.318605,9.674916 11.90625,9.125 C 12.28391,8.77158 12.440421,8.394573 12.53125,7.625 C 12.600705,7.036497 12.610095,6.484464 12.46875,6.4375 C 12.273989,6.372785 12.28125,5.592892 12.28125,4.78125 C 12.28125,3.6178263 12.2072,3.1744521 11.90625,2.6875 C 11.307402,1.7185429 9.3512353,0.945857 7.9375,0.9375 z"
       transform="matrix(0.875,0,0,0.8630673,1,1.1909232)"
       id="path3171"
       style="opacity:1;fill:#eae3d0;fill-opacity:1;fill-rule:evenodd;stroke:none;stroke-width:1.00213277;stroke-linecap:round;stroke-linejoin:round;marker:none;marker-start:none;marker-mid:none;marker-end:none;stroke-miterlimit:4;stroke-dasharray:none;stroke-dashoffset:0;stroke-opacity:1;visibility:visible;display:inline;overflow:visible;enable-background:accumulate" />
  </g>
</svg>
