<?xml version="1.0" encoding="UTF-8" standalone="no"?>
<!-- Created with Inkscape (http://www.inkscape.org/) -->

<svg
   xmlns:dc="http://purl.org/dc/elements/1.1/"
   xmlns:cc="http://creativecommons.org/ns#"
   xmlns:rdf="http://www.w3.org/1999/02/22-rdf-syntax-ns#"
   xmlns:svg="http://www.w3.org/2000/svg"
   xmlns="http://www.w3.org/2000/svg"
   xmlns:sodipodi="http://sodipodi.sourceforge.net/DTD/sodipodi-0.dtd"
   xmlns:inkscape="http://www.inkscape.org/namespaces/inkscape"
   version="1.0"
   width="16"
   height="16"
   id="svg3180"
   inkscape:version="0.48.0 r9654"
   sodipodi:docname="stock_person-panel.svg">
  <metadata
     id="metadata9">
    <rdf:RDF>
      <cc:Work
         rdf:about="">
        <dc:format>image/svg+xml</dc:format>
        <dc:type
           rdf:resource="http://purl.org/dc/dcmitype/StillImage" />
      </cc:Work>
    </rdf:RDF>
  </metadata>
  <sodipodi:namedview
     pagecolor="#ffffff"
     bordercolor="#666666"
     borderopacity="1"
     objecttolerance="10"
     gridtolerance="10"
     guidetolerance="10"
     inkscape:pageopacity="0"
     inkscape:pageshadow="2"
     inkscape:window-width="1280"
     inkscape:window-height="753"
     id="namedview7"
     showgrid="false"
     inkscape:zoom="18.1875"
     inkscape:cx="-0.35738832"
     inkscape:cy="8.5773196"
     inkscape:window-x="0"
     inkscape:window-y="24"
     inkscape:window-maximized="1"
     inkscape:current-layer="svg3180" />
  <defs
     id="defs3182" />
  <path
     inkscape:connector-curvature="0"
     style="fill:#000000;fill-opacity:1;fill-rule:evenodd;stroke:none;stroke-width:1.00213277000000001;marker:none;visibility:visible;display:inline;overflow:visible;enable-background:accumulate;opacity:0.3"
     id="path3171-2"
     d="M 7.9453125,3.0000491 C 7.5329738,2.9976449 7.18003,3.0835172 6.9335937,3.2427868 6.6156581,3.4482658 6.4754788,3.4653567 6.3867187,3.3236993 6.3017952,3.1881706 6.2154462,3.2123025 6.140625,3.4046119 6.0773538,3.5672501 5.9359669,3.6235181 5.7851562,3.566437 5.6413677,3.5120124 5.5915187,3.5295443 5.6484375,3.6203787 c 0.054696,0.087302 0.027956,0.1618251 -0.054687,0.1618251 -0.082644,0 -0.338205,0.2844057 -0.5742188,0.6203297 -0.3762283,0.5354908 -0.4375962,0.7892205 -0.4375,1.9149305 5.23e-5,0.7062937 0.053524,1.3850202 -0.1640625,1.4294552 -0.1276143,0.02606 -0.115465,0.5169748 -0.054687,1.0248925 0.079476,0.6641933 0.2164183,0.9895757 0.546875,1.2946013 0.5147056,0.475091 0.984375,1.306476 0.984375,1.753105 -2e-7,0.63824 -1.6483862,1.796376 -3.9648437,2.804968 L 1,15.002078 1,16 l 14,0 0,-1.159747 -0.847656,-0.350621 c -1.97782,-0.811938 -3.71875,-2.047743 -3.71875,-2.670114 0,-0.44555 0.470185,-1.278491 0.984375,-1.753105 0.330452,-0.3050256 0.467399,-0.630408 0.546875,-1.2946013 0.06077,-0.5079177 0.06899,-0.9843594 -0.05469,-1.0248925 -0.170414,-0.055853 -0.16406,-0.7289535 -0.16406,-1.4294552 0,-1.0041129 -0.06479,-1.3867747 -0.328125,-1.8070471 C 10.893977,3.6741417 9.1823309,3.0072617 7.9453125,3.0000491 z" />
  <path
     inkscape:connector-curvature="0"
     style="fill:#dfdbd2;fill-opacity:1;fill-rule:evenodd;stroke:none;stroke-width:1.00213277000000001;marker:none;visibility:visible;display:inline;overflow:visible;enable-background:accumulate"
     id="path3171"
     d="M 7.9453125,2.0000488 C 7.5329738,1.9976446 7.18003,2.0835169 6.9335937,2.2427865 6.6156581,2.4482655 6.4754788,2.4653564 6.3867187,2.323699 6.3017952,2.1881703 6.2154462,2.2123022 6.140625,2.4046116 6.0773538,2.5672498 5.9359669,2.6235178 5.7851562,2.5664367 5.6413677,2.5120121 5.5915187,2.529544 5.6484375,2.6203784 c 0.054696,0.087302 0.027956,0.1618251 -0.054687,0.1618251 -0.082644,0 -0.338205,0.2844057 -0.5742188,0.6203297 -0.3762283,0.5354908 -0.4375962,0.7892205 -0.4375,1.9149305 5.23e-5,0.7062937 0.053524,1.3850202 -0.1640625,1.4294552 -0.1276143,0.02606 -0.115465,0.5169748 -0.054687,1.0248925 0.079476,0.6641933 0.2164183,0.9895757 0.546875,1.2946009 0.5147056,0.4750909 0.984375,1.3064767 0.984375,1.7531057 -2e-7,0.63824 -1.6483862,1.796376 -3.9648437,2.804968 L 1,14.002078 1,15 l 14,0 0,-1.159747 -0.847656,-0.350621 c -1.97782,-0.811938 -3.71875,-2.047743 -3.71875,-2.670114 0,-0.44555 0.470185,-1.2784912 0.984375,-1.7531057 0.330452,-0.3050252 0.467399,-0.6304076 0.546875,-1.2946009 0.06077,-0.5079177 0.06899,-0.9843594 -0.05469,-1.0248925 C 11.73974,6.6910655 11.746094,6.0179654 11.746094,5.3174637 11.746094,4.3133508 11.6813,3.930689 11.417969,3.5104166 10.893977,2.6741414 9.1823309,2.0072614 7.9453125,2.0000488 z" />
</svg>
