<?xml version="1.0" encoding="UTF-8" standalone="no"?>
<!-- Created with Inkscape (http://www.inkscape.org/) -->
<svg
   xmlns:svg="http://www.w3.org/2000/svg"
   xmlns="http://www.w3.org/2000/svg"
   version="1.0"
   width="22"
   height="22"
   id="svg3252">
  <defs
     id="defs3254" />
  <path
     d="M 11,3 C 6.5840002,3 2.9999999,6.5840001 3.0000001,11 C 3.0000001,15.416 6.5840003,19 11,19 C 15.416,19 19,15.416 19,11 C 19,6.5840001 15.416,3.0000002 11,3 z M 11,8 C 12.656,8.0000001 14,9.344 14,11 C 14,12.656 12.656,14 11,14 C 9.3440001,14 8.0000001,12.656 8.0000001,11 C 8.0000002,9.344 9.3440001,8 11,8 z"
     id="path3170"
     style="opacity:0.4;fill:#3a3935;fill-opacity:1;fill-rule:evenodd;stroke:none;stroke-width:1;stroke-linecap:butt;stroke-linejoin:miter;marker:none;marker-start:none;marker-mid:none;marker-end:none;stroke-miterlimit:4;stroke-dasharray:none;stroke-dashoffset:0;stroke-opacity:1;visibility:visible;display:inline;overflow:visible;enable-background:accumulate" />
  <path
     d="M 19.5,11 C 19.5,15.69442 15.694421,19.5 11,19.5 C 6.3055796,19.5 2.4999999,15.69442 2.5,11 C 2.4999999,6.3055794 6.3055796,2.4999998 11,2.4999998 C 15.694421,2.4999998 19.5,6.3055794 19.5,11 L 19.5,11 z"
     id="path2402"
     style="opacity:0.6;fill:none;fill-opacity:1;fill-rule:evenodd;stroke:#eae3d0;stroke-width:1;stroke-linecap:butt;stroke-linejoin:miter;marker:none;marker-start:none;marker-mid:none;marker-end:none;stroke-miterlimit:4;stroke-dasharray:none;stroke-dashoffset:0;stroke-opacity:1;visibility:visible;display:inline;overflow:visible;enable-background:accumulate" />
  <path
     d="M 13.75,11 C 13.75,12.518782 12.518782,13.75 11,13.75 C 9.4812171,13.75 8.2499998,12.518782 8.2499998,11 C 8.2499998,9.481217 9.4812171,8.2499996 11,8.2499996 C 12.518782,8.2499996 13.75,9.481217 13.75,11 z"
     id="path3174"
     style="opacity:0.3;fill:none;fill-opacity:1;fill-rule:evenodd;stroke:#000000;stroke-width:0.5;stroke-linecap:butt;stroke-linejoin:miter;marker:none;marker-start:none;marker-mid:none;marker-end:none;stroke-miterlimit:4;stroke-dasharray:none;stroke-dashoffset:0;stroke-opacity:1;visibility:visible;display:inline;overflow:visible;enable-background:accumulate" />
  <path
     d="M 11,3 L 11,8 C 11.295765,8 11.574348,8.075908 11.84375,8.15625 L 13.4375,3.375 C 12.667155,3.1279913 11.851831,3 11,3 z"
     id="path3288"
     style="fill:#3a3935;fill-opacity:1;fill-rule:nonzero;stroke:none;stroke-width:1;stroke-linecap:butt;stroke-linejoin:miter;marker:none;marker-start:none;marker-mid:none;marker-end:none;stroke-miterlimit:4;stroke-dasharray:none;stroke-dashoffset:0;stroke-opacity:1;visibility:visible;display:inline;overflow:visible;enable-background:accumulate" />
</svg>
