<?xml version="1.0" encoding="UTF-8" standalone="no"?>
<!-- Created with Inkscape (http://www.inkscape.org/) -->

<svg
   xmlns:dc="http://purl.org/dc/elements/1.1/"
   xmlns:cc="http://creativecommons.org/ns#"
   xmlns:rdf="http://www.w3.org/1999/02/22-rdf-syntax-ns#"
   xmlns:svg="http://www.w3.org/2000/svg"
   xmlns="http://www.w3.org/2000/svg"
   xmlns:sodipodi="http://sodipodi.sourceforge.net/DTD/sodipodi-0.dtd"
   xmlns:inkscape="http://www.inkscape.org/namespaces/inkscape"
   id="svg7739"
   height="22"
   width="22"
   version="1.1"
   inkscape:version="0.48.1 r9760"
   sodipodi:docname="people_dark.svg">
  <defs
     id="defs8" />
  <sodipodi:namedview
     pagecolor="#ffffff"
     bordercolor="#666666"
     borderopacity="1"
     objecttolerance="10"
     gridtolerance="10"
     guidetolerance="10"
     inkscape:pageopacity="0"
     inkscape:pageshadow="2"
     inkscape:window-width="730"
     inkscape:window-height="591"
     id="namedview6"
     showgrid="false"
     inkscape:zoom="13.090909"
     inkscape:cx="10.754816"
     inkscape:cy="15.428828"
     inkscape:window-x="170"
     inkscape:window-y="24"
     inkscape:window-maximized="0"
     inkscape:current-layer="g5"
     inkscape:snap-global="true" />
  <metadata
     id="metadata9">
    <rdf:RDF>
      <cc:Work
         rdf:about="">
        <dc:format>image/svg+xml</dc:format>
        <dc:type
           rdf:resource="http://purl.org/dc/dcmitype/StillImage" />
        <dc:title></dc:title>
      </cc:Work>
    </rdf:RDF>
  </metadata>
  <g
     transform="matrix(1.0044905,0,0,1.0004119,-5.0675952,-4.0068844)"
     id="g3">
    <g
       id="g5"
       transform="translate(0.68442658,-0.15271487)">
      <path
         inkscape:connector-curvature="0"
         d="m 20.299338,21.357509 c -1.701,-0.842 -2.435,-2.297 -2.435,-2.985 0,-0.461 0.309,-1.173 0.606,-1.519 0.291,-0.339 0.724,-0.507 0.929,-0.884 0.334,-0.616 0.513,-1.844 0.408,-2.384 -0.074,-0.385 -0.408,-0.423 -0.408,-0.769 0,-0.308 0.073,-0.808 0.073,-1.653 0,-1.192001 -0.459,-1.830001 -1.076,-2.3840007 -0.558,-0.4999992 -1.672,-1.0379992 -3.084,-1.0379992 -0.299,0 -0.622,0.026 -0.892,0.077 -0.578,0.108 -0.977,0.371 -1.197,0.589 0.03,-0.171 0.097,-0.346 0.226,-0.505 l -0.285,-0.246 c -0.152,0.188 -0.257,0.399 -0.307,0.611 -0.193,-0.07 -0.414,-0.103 -0.665,-0.103 v 0.3849992 c 0.171,0 0.317,0.023 0.451,0.06 -0.184,0.056 -0.381,0.142 -0.562,0.286 -0.483,0.3839997 -0.929,1.0769997 -0.929,2.2690007 0,0.846 0.073,1.345 0.073,1.653 0,0.345 -0.334,0.384 -0.408,0.769 -0.104,0.54 0.074,1.769 0.408,2.384 0.206,0.377 0.638,0.545 0.93,0.884 0.297,0.346 0.605,1.058 0.605,1.519 0,0.688 -0.733,2.144 -2.436,2.985 -2.3299998,1.154 -3.4749998,1.684 -3.4749998,3.291 H 23.773338 c 0.002,-1.608 -1.143,-2.138 -3.474,-3.292 z"
         id="path7"
         style="opacity:0.3;fill:#000000;fill-opacity:1" />
      <path
         inkscape:connector-curvature="0"
         d="m 20.29934,20.357921 c -1.701,-0.842 -2.435,-2.297 -2.435,-2.985 0,-0.461001 0.309,-1.173 0.606,-1.519 0.291,-0.339 0.724,-0.507 0.929001,-0.884 0.333999,-0.616 0.512999,-1.844 0.407999,-2.384 -0.074,-0.385 -0.407999,-0.423 -0.407999,-0.769 0,-0.308 0.073,-0.808 0.073,-1.653001 0,-1.1920007 -0.459,-1.8300006 -1.076,-2.3840006 -0.558003,-0.4999993 -1.672003,-1.0379993 -3.084003,-1.0379993 -0.299,0 -0.622,0.026 -0.892,0.077 -0.578,0.108 -0.977,0.371 -1.197,0.589 0.03,-0.171 0.097,-0.346 0.226,-0.505 l -0.285,-0.246 c -0.152,0.188 -0.257,0.399 -0.307,0.611 -0.193,-0.07 -0.414,-0.103 -0.665,-0.103 v 0.3849992 c 0.171,0 0.317,0.023 0.451,0.06 -0.184,0.056 -0.381,0.142 -0.562,0.286 -0.483,0.384 -0.929,1.0770001 -0.929,2.2690007 0,0.846001 0.073,1.345001 0.073,1.653001 0,0.345 -0.334,0.384 -0.408,0.769 -0.104,0.54 0.074,1.769 0.408,2.384 0.206,0.377 0.638,0.545 0.93,0.884 0.297,0.346 0.605,1.058 0.605,1.519 0,0.688 -0.733,2.144 -2.436,2.985 -2.3299997,1.154 -3.4749998,1.684 -3.4749998,3.291 H 23.77334 c 0.002,-1.608001 -1.143,-2.138 -3.474,-3.292 z"
         id="path7-3"
         style="fill:#dfdbd2;fill-opacity:1" />
    </g>
  </g>
</svg>
