<?xml version="1.0" encoding="UTF-8" standalone="no"?>
<!-- Created with Inkscape (http://www.inkscape.org/) -->

<svg
   xmlns:dc="http://purl.org/dc/elements/1.1/"
   xmlns:cc="http://creativecommons.org/ns#"
   xmlns:rdf="http://www.w3.org/1999/02/22-rdf-syntax-ns#"
   xmlns:svg="http://www.w3.org/2000/svg"
   xmlns="http://www.w3.org/2000/svg"
   xmlns:sodipodi="http://sodipodi.sourceforge.net/DTD/sodipodi-0.dtd"
   xmlns:inkscape="http://www.inkscape.org/namespaces/inkscape"
   version="1.0"
   width="128"
   height="128"
   id="svg3178"
   inkscape:version="0.48.0 r9654"
   sodipodi:docname="stock_person-panel.svg">
  <metadata
     id="metadata9">
    <rdf:RDF>
      <cc:Work
         rdf:about="">
        <dc:format>image/svg+xml</dc:format>
        <dc:type
           rdf:resource="http://purl.org/dc/dcmitype/StillImage" />
      </cc:Work>
    </rdf:RDF>
  </metadata>
  <sodipodi:namedview
     pagecolor="#ffffff"
     bordercolor="#666666"
     borderopacity="1"
     objecttolerance="10"
     gridtolerance="10"
     guidetolerance="10"
     inkscape:pageopacity="0"
     inkscape:pageshadow="2"
     inkscape:window-width="1280"
     inkscape:window-height="753"
     id="namedview7"
     showgrid="false"
     inkscape:zoom="2.2734375"
     inkscape:cx="-2.8591065"
     inkscape:cy="68.618557"
     inkscape:window-x="0"
     inkscape:window-y="24"
     inkscape:window-maximized="1"
     inkscape:current-layer="svg3178" />
  <defs
     id="defs3180" />
  <path
     inkscape:connector-curvature="0"
     style="fill:#ffffff;fill-opacity:1;fill-rule:nonzero;stroke:none;stroke-width:1.00178742000000010;marker:none;visibility:visible;display:inline;overflow:visible;enable-background:accumulate;opacity:0.3"
     id="rect2382-5"
     d="M 4.9375,2 C 2.756125,2 1,3.7553997 1,5.9358739 L 1,119 9.4287109,115.27937 C 30.276789,106.08033 44.958495,95.517363 44.958496,89.696189 c 0,-4.073557 -4.13476,-11.594848 -8.76709,-15.927989 -2.974112,-2.782036 -4.175846,-5.626739 -4.891113,-11.684625 -0.546978,-4.632548 -0.656343,-9.202257 0.492187,-9.439948 1.958257,-0.405269 1.446314,-6.718711 1.445801,-13.160579 -8.27e-4,-10.267221 0.45918,-12.396913 3.845215,-17.280946 2.124124,-3.063849 4.485718,-5.565571 5.229492,-5.565571 0.743774,0 0.953734,-0.648951 0.461426,-1.445203 -0.512229,-0.828473 0.05942,-1.080623 1.353516,-0.584232 1.357276,0.520616 2.660539,-0.115585 3.22998,-1.598949 0.673352,-1.753991 1.235222,-1.974089 1.999512,-0.737976 0.79884,1.292008 2.091196,1.105376 4.952637,-0.768726 1.940688,-1.271064 4.646069,-1.9332674 7.782714,-2.0601835 11.202303,-0.4532721 27.69499,5.7381155 32.607422,13.6833115 2.370001,3.833163 2.983888,7.323296 2.983887,16.481471 0,6.38905 -0.08794,12.528164 1.445801,13.037583 1.113077,0.369693 1.039147,4.8074 0.492187,9.439948 -0.715286,6.057886 -1.917002,8.902587 -4.891113,11.684625 -4.627685,4.328794 -8.767087,11.833524 -8.76709,15.89724 0,5.67644 15.545333,17.10154 33.345703,24.50696 L 127,117.3703 127,5.9358739 C 127,3.7553997 125.24388,2 123.0625,2 L 4.9375,2 z" />
  <path
     inkscape:connector-curvature="0"
     style="fill:#3c3c3c;fill-opacity:1;fill-rule:nonzero;stroke:none;stroke-width:1.00178742000000010;marker:none;visibility:visible;display:inline;overflow:visible;enable-background:accumulate"
     id="rect2382"
     d="M 4.9375,1 C 2.756125,1 1,2.7553997 1,4.9358739 L 1,118 9.4287109,114.27937 C 30.276789,105.08033 44.958495,94.517363 44.958496,88.696189 c 0,-4.073557 -4.13476,-11.594848 -8.76709,-15.927989 -2.974112,-2.782036 -4.175846,-5.626739 -4.891113,-11.684625 -0.546978,-4.632548 -0.656343,-9.202257 0.492187,-9.439948 1.958257,-0.405269 1.446314,-6.718711 1.445801,-13.160579 -8.27e-4,-10.267221 0.45918,-12.396913 3.845215,-17.280946 2.124124,-3.063849 4.485718,-5.565571 5.229492,-5.565571 0.743774,0 0.953734,-0.648951 0.461426,-1.445203 -0.512229,-0.828473 0.05942,-1.080623 1.353516,-0.584232 1.357276,0.520616 2.660539,-0.115585 3.22998,-1.598949 0.673352,-1.753991 1.235222,-1.974089 1.999512,-0.737976 0.79884,1.292008 2.091196,1.105376 4.952637,-0.768726 1.940688,-1.271064 4.646069,-1.9332674 7.782714,-2.0601835 11.202303,-0.4532721 27.69499,5.7381155 32.607422,13.6833115 2.370001,3.833163 2.983888,7.323296 2.983887,16.481471 0,6.38905 -0.08794,12.528164 1.445801,13.037583 1.113077,0.369693 1.039147,4.8074 0.492187,9.439948 -0.715286,6.057886 -1.917002,8.902587 -4.891113,11.684625 -4.627685,4.328794 -8.767087,11.833524 -8.76709,15.89724 0,5.67644 15.545333,17.10154 33.345703,24.50696 L 127,116.3703 127,4.9358739 C 127,2.7553997 125.24388,1 123.0625,1 L 4.9375,1 z" />
</svg>
