<?xml version="1.0" encoding="UTF-8" standalone="no"?>
<!-- Generator: Adobe Illustrator 15.0.0, SVG Export Plug-In . SVG Version: 6.00 Build 0)  -->

<svg
   xmlns:dc="http://purl.org/dc/elements/1.1/"
   xmlns:cc="http://creativecommons.org/ns#"
   xmlns:rdf="http://www.w3.org/1999/02/22-rdf-syntax-ns#"
   xmlns:svg="http://www.w3.org/2000/svg"
   xmlns="http://www.w3.org/2000/svg"
   xmlns:xlink="http://www.w3.org/1999/xlink"
   xmlns:sodipodi="http://sodipodi.sourceforge.net/DTD/sodipodi-0.dtd"
   xmlns:inkscape="http://www.inkscape.org/namespaces/inkscape"
   version="1.1"
   id="Layer_1"
   x="0px"
   y="0px"
   width="24px"
   height="16px"
   viewBox="0 0 24 16"
   enable-background="new 0 0 24 16"
   xml:space="preserve"
   inkscape:version="0.48.2 r9819"
   sodipodi:docname="indicator-messages-new-invisible-mono-light.svg"><metadata
   id="metadata3023"><rdf:RDF><cc:Work
       rdf:about=""><dc:format>image/svg+xml</dc:format><dc:type
         rdf:resource="http://purl.org/dc/dcmitype/StillImage" /><dc:title /></cc:Work></rdf:RDF></metadata><defs
   id="defs3021"><linearGradient
     inkscape:collect="always"
     xlink:href="#path4832_1_"
     id="linearGradient3805"
     gradientUnits="userSpaceOnUse"
     gradientTransform="matrix(0,-1,1,0,-2023,-2162)"
     x1="-2175"
     y1="2041"
     x2="-2169"
     y2="2041" /></defs><sodipodi:namedview
   pagecolor="#ffffff"
   bordercolor="#666666"
   borderopacity="1"
   objecttolerance="10"
   gridtolerance="10"
   guidetolerance="10"
   inkscape:pageopacity="0"
   inkscape:pageshadow="2"
   inkscape:window-width="1440"
   inkscape:window-height="852"
   id="namedview3019"
   showgrid="false"
   inkscape:zoom="29.333333"
   inkscape:cx="9.122586"
   inkscape:cy="4.6874037"
   inkscape:window-x="0"
   inkscape:window-y="0"
   inkscape:window-maximized="1"
   inkscape:current-layer="Layer_1" />
<path
   id="path4826"
   connector-curvature="0"
   opacity="0.3"
   fill="#FFFFFF"
   enable-background="new    "
   d="M18.59,4  L5.305,4.022C4.695,4.022,4,4.782,4,5.336v7.298C4,13.366,4.789,14,5.453,14h13.049C19.299,14,20,13.322,20,12.624V5.465  C20,4.689,19.311,4,18.59,4z M15.75,9l2.387,2.448l-0.688,0.688L15,9.688L12.721,12h-1.438L9,9.688l-2.449,2.481L5.864,11.45  L8.282,9L4.863,5.551l0.688-0.688l0,0L11.688,11l0.595-0.001l6.168-6.136l0.688,0.687L15.75,9z" />
<path
   id="path4828"
   connector-curvature="0"
   fill="#2EB5E9"
   fill-opacity="0.9529"
   d="M18.59,3L5.305,3.022  C4.695,3.022,4,3.782,4,4.336v7.298C4,12.366,4.789,13,5.453,13h13.049C19.299,13,20,12.322,20,11.624V4.465  C20,3.689,19.311,3,18.59,3z M15.75,8l2.387,2.448l-0.688,0.688L15,8.688L12.721,11h-1.438L9,8.688l-2.449,2.481L5.864,10.45  L8.282,8L4.863,4.551l0.688-0.688l0,0L11.688,10l0.595-0.001l6.168-6.136l0.688,0.687L15.75,8z" />
<path
   style="opacity:0.3;fill:#ffffff;fill-opacity:1"
   d="m 18,10 c -0.553,0 -1,0.447 -1,1 l 0,4 c 0,0.553 0.447,1 1,1 l 4,0 c 0.553,0 1,-0.447 1,-1 l 0,-4 c 0,-0.553 -0.447,-1 -1,-1 l -4,0 z"
   id="path4830"
   inkscape:connector-curvature="0" />
<linearGradient
   id="path4832_1_"
   gradientUnits="userSpaceOnUse"
   x1="-2175"
   y1="2041"
   x2="-2169"
   y2="2041"
   gradientTransform="matrix(0,-1,1,0,-2021,-2160)">
	<stop
   offset="0"
   style="stop-color:#413f3b;stop-opacity:1;"
   id="stop3006" />
	<stop
   offset="1"
   style="stop-color:#58564d;stop-opacity:1;"
   id="stop3008" />
</linearGradient>

<radialGradient
   id="path4834_1_"
   cx="1773.9951"
   cy="2024.6914"
   r="3.6297"
   gradientTransform="matrix(1.1033,0,0,1.1033,-1937.2578,-2224.8506)"
   gradientUnits="userSpaceOnUse">
	<stop
   offset="0"
   style="stop-color:#FFFFFF"
   id="stop3012" />
	<stop
   offset="0.3958"
   style="stop-color:#FFFFFF;stop-opacity:0.498"
   id="stop3014" />
	<stop
   offset="1"
   style="stop-color:#FFFFFF;stop-opacity:0"
   id="stop3016" />
</radialGradient>

<path
   style="fill:#ede8e5;fill-opacity:1"
   d="m 18,9 c -0.553,0 -1,0.447 -1,1 l 0,4 c 0,0.553 0.447,1 1,1 l 4,0 c 0.553,0 1,-0.447 1,-1 l 0,-4 C 23,9.447 22.553,9 22,9 l -4,0 z"
   id="path3803"
   inkscape:connector-curvature="0" /><path
   style="fill:url(#path4832_1_)"
   d="M 18 9 C 17.447 9 17 9.447 17 10 L 17 14 C 17 14.553 17.447 15 18 15 L 22 15 C 22.553 15 23 14.553 23 14 L 23 10 C 23 9.447 22.553 9 22 9 L 18 9 z M 18 10 L 22 10 L 22 14 L 18 14 L 18 10 z "
   id="path4832" /><path
   style="fill:url(#path4834_1_)"
   d="M 18 9 C 17.447 9 17 9.447 17 10 L 17 11.65625 C 17.282487 11.975784 17.62828 12.222621 18 12.4375 L 18 10 L 22 10 L 22 12.4375 C 22.37172 12.222621 22.717513 11.975784 23 11.65625 L 23 10 C 23 9.447 22.553 9 22 9 L 18 9 z "
   id="path4834" /></svg>