<?xml version="1.0" encoding="UTF-8" standalone="no"?>
<!-- Generator: Adobe Illustrator 15.0.0, SVG Export Plug-In . SVG Version: 6.00 Build 0)  -->

<svg
   xmlns:dc="http://purl.org/dc/elements/1.1/"
   xmlns:cc="http://creativecommons.org/ns#"
   xmlns:rdf="http://www.w3.org/1999/02/22-rdf-syntax-ns#"
   xmlns:svg="http://www.w3.org/2000/svg"
   xmlns="http://www.w3.org/2000/svg"
   xmlns:sodipodi="http://sodipodi.sourceforge.net/DTD/sodipodi-0.dtd"
   xmlns:inkscape="http://www.inkscape.org/namespaces/inkscape"
   version="1.1"
   id="Layer_1"
   x="0px"
   y="0px"
   width="24px"
   height="16px"
   viewBox="0 0 24 16"
   enable-background="new 0 0 24 16"
   xml:space="preserve"
   inkscape:version="0.48.2 r9819"
   sodipodi:docname="indicator-messages-new-offline-mono-light.svg"><metadata
   id="metadata3071"><rdf:RDF><cc:Work
       rdf:about=""><dc:format>image/svg+xml</dc:format><dc:type
         rdf:resource="http://purl.org/dc/dcmitype/StillImage" /></cc:Work></rdf:RDF></metadata><defs
   id="defs3069" /><sodipodi:namedview
   pagecolor="#ffffff"
   bordercolor="#666666"
   borderopacity="1"
   objecttolerance="10"
   gridtolerance="10"
   guidetolerance="10"
   inkscape:pageopacity="0"
   inkscape:pageshadow="2"
   inkscape:window-width="927"
   inkscape:window-height="812"
   id="namedview3067"
   showgrid="false"
   inkscape:zoom="14.666667"
   inkscape:cx="12"
   inkscape:cy="4.6040036"
   inkscape:window-x="103"
   inkscape:window-y="0"
   inkscape:window-maximized="0"
   inkscape:current-layer="Layer_1" />
<path
   id="path4836"
   connector-curvature="0"
   opacity="0.3"
   fill="#FFFFFF"
   enable-background="new    "
   d="M18.59,4  L5.305,4.022C4.696,4.022,4,4.782,4,5.336v7.298C4,13.366,4.789,14,5.453,14h13.049C19.299,14,20,13.322,20,12.624V5.465  C20,4.689,19.311,4,18.59,4z M15.75,9l2.387,2.448l-0.688,0.688L15,9.688L12.721,12h-1.438L9,9.688l-2.449,2.481L5.864,11.45  L8.282,9L4.863,5.551l0.688-0.688l0,0L11.688,11l0.596-0.001l6.168-6.136l0.688,0.687L15.75,9z" />
<path
   id="path4838"
   connector-curvature="0"
   fill="#2EB5E9"
   fill-opacity="0.9529"
   d="M18.59,3L5.305,3.022  C4.696,3.022,4,3.782,4,4.336v7.298C4,12.366,4.789,13,5.453,13h13.049C19.299,13,20,12.322,20,11.624V4.465  C20,3.689,19.311,3,18.59,3z M15.75,8l2.387,2.448l-0.688,0.688L15,8.688L12.721,11h-1.438L9,8.688l-2.449,2.481L5.864,10.45  L8.282,8L4.863,4.551l0.688-0.688l0,0L11.688,10l0.596-0.001l6.168-6.136l0.688,0.687L15.75,8z" />
<path
   id="path4840"
   connector-curvature="0"
   opacity="0.3"
   fill="#FFFFFF"
   enable-background="new    "
   d="M22.566,14.156  l-1.666-1.66l1.656-1.662c-0.326-0.596-0.815-1.082-1.414-1.402L19.49,11.09l-1.652-1.648c-0.591,0.322-1.072,0.81-1.396,1.396  l1.666,1.646l-1.674,1.682c0.322,0.598,0.812,1.086,1.406,1.41l1.686-1.691l1.688,1.662C21.786,15.215,22.254,14.738,22.566,14.156z  " />
<linearGradient
   id="path4842_1_"
   gradientUnits="userSpaceOnUse"
   x1="-2590.5664"
   y1="-2186.0039"
   x2="-2584.4321"
   y2="-2186.0039"
   gradientTransform="matrix(0 -1 -1 0 -2166.5 -2575.998)">
	<stop
   offset="0"
   style="stop-color:#413f3b;stop-opacity:1;"
   id="stop3054" />
	
	<stop
   offset="1"
   style="stop-color:#58564d;stop-opacity:1;"
   id="stop3058" />
</linearGradient>
<path
   id="path4842"
   connector-curvature="0"
   fill="url(#path4842_1_)"
   d="M21.154,8.434L19.495,10.1l-1.662-1.656  c-0.597,0.328-1.082,0.816-1.401,1.416l1.657,1.651l-1.647,1.652c0.322,0.591,0.809,1.073,1.396,1.396l1.646-1.666l1.683,1.676  c0.599-0.317,1.086-0.812,1.409-1.401l-1.69-1.688l1.662-1.688C22.214,9.215,21.736,8.747,21.154,8.434z" />
<radialGradient
   id="path4844_1_"
   cx="2581.1689"
   cy="3040.1709"
   r="4.6161"
   gradientTransform="matrix(0.8669 0 0 0.8669 -2218.1152 -2627.021)"
   gradientUnits="userSpaceOnUse">
	<stop
   offset="0"
   style="stop-color:#FFFFFF"
   id="stop3062" />
	<stop
   offset="1"
   style="stop-color:#FFFFFF;stop-opacity:0"
   id="stop3064" />
</radialGradient>
<path
   id="path4844"
   connector-curvature="0"
   fill="url(#path4844_1_)"
   d="M17.844,8.438  c-0.596,0.328-1.086,0.81-1.406,1.406l1.656,1.656l-0.5,0.5c0.566,0.309,1.217,0.5,1.906,0.5s1.34-0.191,1.906-0.5l-0.531-0.531  l1.656-1.688c-0.326-0.573-0.793-1.031-1.375-1.344L19.5,10.094L17.844,8.438z" />
</svg>