<?xml version="1.0" encoding="utf-8"?>
<!-- Generator: Adobe Illustrator 15.0.0, SVG Export Plug-In . SVG Version: 6.00 Build 0)  -->
<!DOCTYPE svg PUBLIC "-//W3C//DTD SVG 1.1//EN" "http://www.w3.org/Graphics/SVG/1.1/DTD/svg11.dtd">
<svg version="1.1" id="Layer_1" xmlns="http://www.w3.org/2000/svg" xmlns:xlink="http://www.w3.org/1999/xlink" x="0px" y="0px"
	 width="24px" height="16px" viewBox="0 0 24 16" enable-background="new 0 0 24 16" xml:space="preserve">
<path id="path5_13_" inkscape:connector-curvature="0" opacity="0.3" fill="#FFFFFF" enable-background="new    " d="M18.59,4
	L5.305,4.021C4.695,4.021,4,4.782,4,5.335v7.298C4,13.366,4.789,14,5.453,14h13.049C19.299,14,20,13.322,20,12.624V5.465
	C20,4.689,19.311,4,18.59,4z M15.75,9l2.387,2.448l-0.688,0.688L15,9.688l-1.543,1.53h-2.913L9,9.688l-2.449,2.481L5.864,11.45
	L8.282,9L4.863,5.551l0.688-0.688l0,0L11.03,8h1.953l5.471-3.137l0.688,0.688L15.75,9z"/>
<path id="path5" inkscape:connector-curvature="0" fill="#3E3E34" d="M18.59,3L5.305,3.021C4.695,3.021,4,3.782,4,4.335v7.298
	C4,12.366,4.789,13,5.453,13h13.049C19.299,13,20,12.322,20,11.624V4.465C20,3.689,19.311,3,18.59,3z M15.75,8l2.387,2.448
	l-0.688,0.688L15,8.688l-1.543,1.53h-2.913L9,8.688l-2.449,2.481L5.864,10.45L8.282,8L4.863,4.551l0.688-0.688l0,0L11.03,7h1.953
	l5.471-3.137l0.688,0.688L15.75,8z"/>
<path id="path8_3_" inkscape:connector-curvature="0" opacity="0.3" fill="#FFFFFF" enable-background="new    " d="M23,15
	c0,0.553-0.447,1-1,1h-4c-0.553,0-1-0.447-1-1v-4c0-0.553,0.447-1,1-1h4c0.553,0,1,0.447,1,1V15z"/>
<linearGradient id="path10_1_" gradientUnits="userSpaceOnUse" x1="-1796" y1="-1620.5" x2="-1790" y2="-1620.5" gradientTransform="matrix(0 -1 -1 0 -1600.5 -1781)">
	<stop  offset="0" style="stop-color:#E03D2B"/>
	<stop  offset="1" style="stop-color:#F47F78"/>
</linearGradient>
<path id="path10_3_" inkscape:connector-curvature="0" fill="url(#path10_1_)" d="M22,9c0.553,0,1,0.447,1,1v4c0,0.553-0.447,1-1,1
	h-4c-0.553,0-1-0.447-1-1v-4c0-0.553,0.447-1,1-1H22z"/>
<radialGradient id="path3789_1_" cx="1519.8057" cy="-1542.1299" r="3.6278" gradientTransform="matrix(1.1033 0 0 -1.1033 -1656.8086 -1692.4395)" gradientUnits="userSpaceOnUse">
	<stop  offset="0" style="stop-color:#FFFFFF"/>
	<stop  offset="0.3958" style="stop-color:#FFFFFF;stop-opacity:0.498"/>
	<stop  offset="1" style="stop-color:#FFFFFF;stop-opacity:0"/>
</radialGradient>
<path id="path3789" inkscape:connector-curvature="0" fill="url(#path3789_1_)" d="M18,9c-0.553,0-1,0.447-1,1v1.656
	C17.732,12.484,18.807,13,20,13s2.268-0.516,3-1.344V10c0-0.553-0.447-1-1-1H18z"/>
</svg>
