<?xml version="1.0" encoding="utf-8"?>
<!-- Generator: Adobe Illustrator 15.0.0, SVG Export Plug-In . SVG Version: 6.00 Build 0)  -->
<!DOCTYPE svg PUBLIC "-//W3C//DTD SVG 1.1//EN" "http://www.w3.org/Graphics/SVG/1.1/DTD/svg11.dtd">
<svg version="1.1" id="Layer_1" xmlns="http://www.w3.org/2000/svg" xmlns:xlink="http://www.w3.org/1999/xlink" x="0px" y="0px"
	 width="24px" height="16px" viewBox="0 0 24 16" enable-background="new 0 0 24 16" xml:space="preserve">
<path id="path4806" inkscape:connector-curvature="0" opacity="0.3" fill="#FFFFFF" enable-background="new    " d="M18.59,4
	L5.305,4.022C4.695,4.022,4,4.783,4,5.336v7.298C4,13.367,4.789,14,5.453,14h13.049C19.299,14,20,13.322,20,12.625v-7.16
	C20,4.689,19.311,4,18.59,4z M15.75,9l2.387,2.449l-0.688,0.688L15,9.688L12.721,12h-1.438L9,9.688L6.551,12.17l-0.687-0.719
	L8.282,9L4.863,5.551l0.688-0.688l0,0L11.688,11h0.595l6.168-6.137l0.688,0.687L15.75,9z"/>
<path id="path4808" inkscape:connector-curvature="0" fill="#2EB5E9" fill-opacity="0.9529" d="M18.59,3L5.305,3.022
	C4.695,3.022,4,3.783,4,4.336v7.298C4,12.367,4.789,13,5.453,13h13.049C19.299,13,20,12.322,20,11.625v-7.16
	C20,3.689,19.311,3,18.59,3z M15.75,8l2.387,2.449l-0.688,0.688L15,8.688L12.721,11h-1.438L9,8.688L6.551,11.17l-0.687-0.719
	L8.282,8L4.863,4.551l0.688-0.688l0,0L11.688,10h0.595l6.168-6.137l0.688,0.687L15.75,8z"/>
<circle id="circle4810" sodipodi:cx="-160.5" sodipodi:cy="-95.5" sodipodi:rx="3.5" sodipodi:ry="3.5" opacity="0.3" fill="#FFFFFF" enable-background="new    " cx="19.5" cy="12.5" r="3.5">
</circle>
<linearGradient id="circle4812_1_" gradientUnits="userSpaceOnUse" x1="-2585.9082" y1="2315.9551" x2="-2579.001" y2="2316.0483" gradientTransform="matrix(0 -1 1 0 -2296.5 -2571)">
	<stop  offset="0" style="stop-color:#2E8942"/>
	<stop  offset="1" style="stop-color:#6CBF5A"/>
</linearGradient>
<circle id="circle4812" sodipodi:cx="-160.5" sodipodi:cy="-96.5" sodipodi:rx="3.5" sodipodi:ry="3.5" fill="url(#circle4812_1_)" cx="19.5" cy="11.5" r="3.5">
</circle>
<radialGradient id="path4814_1_" cx="2009.6641" cy="2376.918" r="3.5932" gradientTransform="matrix(1.1134 0 0 1.1134 -2218.0732 -2637.9756)" gradientUnits="userSpaceOnUse">
	<stop  offset="0" style="stop-color:#FFFFFF"/>
	<stop  offset="0.4375" style="stop-color:#FFFFFF;stop-opacity:0.498"/>
	<stop  offset="1" style="stop-color:#FFFFFF;stop-opacity:0"/>
</radialGradient>
<path id="path4814" inkscape:connector-curvature="0" fill="url(#path4814_1_)" d="M19.5,8c-1.633,0-2.988,1.113-3.375,2.625
	C16.832,11.754,18.07,12.5,19.5,12.5s2.668-0.746,3.375-1.875C22.488,9.113,21.133,8,19.5,8z"/>
</svg>
