<?xml version="1.0" encoding="utf-8"?>
<!-- Generator: Adobe Illustrator 15.0.0, SVG Export Plug-In . SVG Version: 6.00 Build 0)  -->
<!DOCTYPE svg PUBLIC "-//W3C//DTD SVG 1.1//EN" "http://www.w3.org/Graphics/SVG/1.1/DTD/svg11.dtd">
<svg version="1.1" id="Layer_1" xmlns="http://www.w3.org/2000/svg" xmlns:xlink="http://www.w3.org/1999/xlink" x="0px" y="0px"
	 width="24px" height="16px" viewBox="0 0 24 16" enable-background="new 0 0 24 16" xml:space="preserve">
<path id="path4846" inkscape:connector-curvature="0" opacity="0.3" fill="#FFFFFF" enable-background="new    " d="M18.59,4
	L5.305,4.022C4.696,4.022,4,4.783,4,5.336v7.298C4,13.367,4.789,14,5.453,14h13.049C19.299,14,20,13.322,20,12.625v-7.16
	C20,4.689,19.311,4,18.59,4z M15.75,9l2.387,2.449l-0.688,0.688L15,9.688L12.721,12h-1.438L9,9.688L6.551,12.17l-0.687-0.719
	L8.282,9L4.863,5.551l0.688-0.688l0,0L11.688,11h0.595l6.168-6.137l0.688,0.687L15.75,9z"/>
<path id="path4848" inkscape:connector-curvature="0" fill="#2EB5E9" fill-opacity="0.9529" d="M18.59,3L5.305,3.022
	C4.696,3.022,4,3.783,4,4.336v7.298C4,12.367,4.789,13,5.453,13h13.049C19.299,13,20,12.322,20,11.625v-7.16
	C20,3.689,19.311,3,18.59,3z M15.75,8l2.387,2.449l-0.688,0.688L15,8.688L12.721,11h-1.438L9,8.688L6.551,11.17l-0.687-0.719
	L8.282,8L4.863,4.551l0.688-0.688l0,0L11.688,10h0.595l6.168-6.137l0.688,0.687L15.75,8z"/>
<path id="path4850" inkscape:connector-curvature="0" opacity="0.3" fill="#FFFFFF" enable-background="new    " d="M16,13.504
	c0,0.537,0.131,1.041,0.348,1.496l6.313-0.018C22.873,14.533,23,14.035,23,13.504c0-0.537-0.131-1.039-0.348-1.494l-6.314,0.02
	C16.127,12.479,16,12.977,16,13.504z"/>
<linearGradient id="path4852_1_" gradientUnits="userSpaceOnUse" x1="1958.4941" y1="2231.9551" x2="1958.507" y2="2228.9219" gradientTransform="matrix(1 0 0 1 -1939 -2218)">
	<stop  offset="0" style="stop-color:#676868"/>
	<stop  offset="1" style="stop-color:#EAEAEA"/>
</linearGradient>
<path id="path4852" inkscape:connector-curvature="0" fill="url(#path4852_1_)" d="M16,12.504c0,0.537,0.131,1.041,0.348,1.496
	l6.313-0.018C22.873,13.533,23,13.035,23,12.504c0-0.537-0.131-1.039-0.348-1.494l-6.314,0.02C16.127,11.479,16,11.977,16,12.504z"
	/>
<radialGradient id="path4854_1_" cx="1562.3281" cy="-1658.2588" r="3.2025" gradientTransform="matrix(1.2512 0 0 -1.2512 -1935.2852 -2065.1064)" gradientUnits="userSpaceOnUse">
	<stop  offset="0" style="stop-color:#FFFFFF"/>
	<stop  offset="0.3" style="stop-color:#FFFFFF;stop-opacity:0.498"/>
	<stop  offset="1" style="stop-color:#FFFFFF;stop-opacity:0"/>
</radialGradient>
<path id="path4854" inkscape:connector-curvature="0" fill="url(#path4854_1_)" d="M22.656,11.006l-6.312,0.031
	c-0.109,0.232-0.191,0.461-0.25,0.719c0.7,1.16,1.951,1.938,3.406,1.938s2.706-0.773,3.406-1.938
	C22.846,11.496,22.77,11.242,22.656,11.006z"/>
</svg>
