<?xml version="1.0" encoding="utf-8"?>
<!-- Generator: Adobe Illustrator 15.0.0, SVG Export Plug-In . SVG Version: 6.00 Build 0)  -->
<!DOCTYPE svg PUBLIC "-//W3C//DTD SVG 1.1//EN" "http://www.w3.org/Graphics/SVG/1.1/DTD/svg11.dtd">
<svg version="1.1" id="Layer_1" xmlns="http://www.w3.org/2000/svg" xmlns:xlink="http://www.w3.org/1999/xlink" x="0px" y="0px"
	 width="24px" height="16px" viewBox="0 0 24 16" enable-background="new 0 0 24 16" xml:space="preserve">
<path id="path5_21_" inkscape:connector-curvature="0" opacity="0.3" fill="#FFFFFF" enable-background="new    " d="M18.59,4
	L5.305,4.021C4.695,4.021,4,4.782,4,5.335v7.298c0,0.732,0.789,1.366,1.453,1.366h13.049c0.797,0,1.498-0.679,1.498-1.376V5.464
	C20,4.689,19.311,4,18.59,4z M15.75,9l2.387,2.448l-0.688,0.688L15,9.688l-1.543,1.53h-2.913L9,9.688l-2.449,2.481L5.864,11.45
	L8.282,9L4.863,5.551l0.688-0.688l0,0L11.03,8h1.953l5.471-3.137l0.688,0.688L15.75,9z"/>
<path id="path5_20_" inkscape:connector-curvature="0" fill="#3E3E34" d="M18.59,3L5.305,3.021C4.695,3.021,4,3.782,4,4.335v7.298
	c0,0.732,0.789,1.366,1.453,1.366h13.049c0.797,0,1.498-0.679,1.498-1.376V4.464C20,3.689,19.311,3,18.59,3z M15.75,8l2.387,2.448
	l-0.688,0.688L15,8.688l-1.543,1.53h-2.913L9,8.688l-2.449,2.481L5.864,10.45L8.282,8L4.863,4.551l0.688-0.688l0,0L11.03,7h1.953
	l5.471-3.137l0.688,0.688L15.75,8z"/>
<circle id="circle5" sodipodi:cx="-160.5" sodipodi:cy="-23.5" sodipodi:rx="3.5" sodipodi:ry="3.5" opacity="0.3" fill="#FFFFFF" enable-background="new    " cx="19.5" cy="12.5" r="3.5">
</circle>
<linearGradient id="circle7_1_" gradientUnits="userSpaceOnUse" x1="-2208.9087" y1="-1897.4551" x2="-2202.0015" y2="-1897.5483" gradientTransform="matrix(0 -1 -1 0 -1878 -2194)">
	<stop  offset="0" style="stop-color:#2E8942"/>
	<stop  offset="1" style="stop-color:#6CBF5A"/>
</linearGradient>
<circle id="circle7" sodipodi:cx="-160.5" sodipodi:cy="-24.5" sodipodi:rx="3.5" sodipodi:ry="3.5" fill="url(#circle7_1_)" cx="19.5" cy="11.5" r="3.5">
</circle>
<radialGradient id="path3798_1_" cx="1757.5811" cy="-1897.4678" r="3.593" gradientTransform="matrix(1.1134 0 0 -1.1134 -1937.4033 -2104.1582)" gradientUnits="userSpaceOnUse">
	<stop  offset="0" style="stop-color:#FFFFFF"/>
	<stop  offset="0.4375" style="stop-color:#FFFFFF;stop-opacity:0.498"/>
	<stop  offset="1" style="stop-color:#FFFFFF;stop-opacity:0"/>
</radialGradient>
<path id="path3798" inkscape:connector-curvature="0" fill="url(#path3798_1_)" d="M19.5,8c-1.633,0-2.988,1.113-3.375,2.625
	C16.832,11.754,18.07,12.5,19.5,12.5s2.668-0.746,3.375-1.875C22.488,9.113,21.133,8,19.5,8z"/>
</svg>
