<?xml version="1.0" encoding="UTF-8" standalone="no"?>
<!-- Created with Inkscape (http://www.inkscape.org/) -->

<svg
   xmlns:dc="http://purl.org/dc/elements/1.1/"
   xmlns:cc="http://creativecommons.org/ns#"
   xmlns:rdf="http://www.w3.org/1999/02/22-rdf-syntax-ns#"
   xmlns:svg="http://www.w3.org/2000/svg"
   xmlns="http://www.w3.org/2000/svg"
   xmlns:xlink="http://www.w3.org/1999/xlink"
   xmlns:sodipodi="http://sodipodi.sourceforge.net/DTD/sodipodi-0.dtd"
   xmlns:inkscape="http://www.inkscape.org/namespaces/inkscape"
   width="16"
   height="16"
   id="svg4144"
   version="1.1"
   inkscape:version="0.48.3.1 r9886"
   sodipodi:docname="indicator-messages-busy.svg">
  <defs
     id="defs4146">
    <linearGradient
       inkscape:collect="always"
       xlink:href="#linearGradient4241-1"
       id="linearGradient5602"
       gradientUnits="userSpaceOnUse"
       gradientTransform="matrix(0,0.7532525,-0.69975886,0,718.1117,870.32539)"
       x1="231"
       y1="1008.3622"
       x2="236"
       y2="1008.3622" />
    <linearGradient
       inkscape:collect="always"
       id="linearGradient4241-1">
      <stop
         style="stop-color:#ffffff;stop-opacity:1;"
         offset="0"
         id="stop4243-7" />
      <stop
         style="stop-color:#ffffff;stop-opacity:0;"
         offset="1"
         id="stop4245-4" />
    </linearGradient>
    <linearGradient
       inkscape:collect="always"
       xlink:href="#linearGradient5693"
       id="linearGradient5596"
       gradientUnits="userSpaceOnUse"
       x1="243"
       y1="769.36218"
       x2="243"
       y2="776.36218"
       gradientTransform="translate(-230.99997,274.9872)" />
    <linearGradient
       id="linearGradient5693">
      <stop
         id="stop5695"
         offset="0"
         style="stop-color:#bb271c;stop-opacity:1;" />
      <stop
         id="stop5697"
         offset="1"
         style="stop-color:#e55d53;stop-opacity:1;" />
    </linearGradient>
  </defs>
  <sodipodi:namedview
     id="base"
     pagecolor="#ffffff"
     bordercolor="#666666"
     borderopacity="1.0"
     inkscape:pageopacity="0.0"
     inkscape:pageshadow="2"
     inkscape:zoom="19.428903"
     inkscape:cx="-3.7701564"
     inkscape:cy="5.7440197"
     inkscape:document-units="px"
     inkscape:current-layer="layer1"
     showgrid="true"
     inkscape:window-width="1920"
     inkscape:window-height="1030"
     inkscape:window-x="0"
     inkscape:window-y="22"
     inkscape:window-maximized="1">
    <inkscape:grid
       type="xygrid"
       id="grid2996"
       empspacing="8"
       visible="true"
       enabled="true"
       snapvisiblegridlinesonly="true" />
  </sodipodi:namedview>
  <metadata
     id="metadata4149">
    <rdf:RDF>
      <cc:Work
         rdf:about="">
        <dc:format>image/svg+xml</dc:format>
        <dc:type
           rdf:resource="http://purl.org/dc/dcmitype/StillImage" />
        <dc:title />
      </cc:Work>
    </rdf:RDF>
  </metadata>
  <g
     inkscape:label="Layer 1"
     inkscape:groupmode="layer"
     id="layer1"
     transform="translate(0,-1036.3622)">
    <path
       id="path4922"
       d="m 14.59375,1040.3622 -13.28125,0.031 c -0.61,0 -1.3125,0.7595 -1.3125,1.3125 l 0,7.2812 c 0,0.733 0.7735,1.375 1.4375,1.375 l 6.5625,0 0,-2 -0.71875,0 L 5,1046.0497 l -2.4375,2.4688 -0.6875,-0.7188 2.40625,-2.4375 -3.40625,-3.4375 0.6875,-0.6875 6.125,6.125 0.3125,0 0,-1 c 0,-1.093 0.90698,-2 2,-2 l 1.28125,0 3.15625,-3.125 0.6875,0.6875 -2.40625,2.4375 2.28125,0 c 0.361149,0 0.705478,0.1092 1,0.2813 l 0,-2.8125 c 0,-0.776 -0.68525,-1.4688 -1.40625,-1.4688 z"
       style="fill:#ffffff;fill-opacity:1;opacity:0.29999999999999999"
       inkscape:connector-curvature="0" />
    <rect
       ry="1"
       y="1045.3494"
       x="9.0000114"
       height="7"
       width="7"
       id="rect5568"
       style="opacity:0.6;color:#000000;fill:#000000;fill-opacity:1;fill-rule:nonzero;stroke:none;stroke-width:2;marker:none;visibility:visible;display:inline;overflow:visible;enable-background:accumulate" />
    <rect
       style="color:#000000;fill:url(#linearGradient5596);fill-opacity:1;fill-rule:nonzero;stroke:none;stroke-width:2;marker:none;visibility:visible;display:inline;overflow:visible;enable-background:accumulate"
       id="rect5570"
       width="7"
       height="7"
       x="9.0000114"
       y="1044.3494"
       ry="1" />
    <path
       id="path5590"
       d="m 10,1044.3494 c -0.554,0 -1,0.446 -1,1 l 0,0.4687 c -0.012,0.1079 -0.012,0.2193 0,0.3125 0.1764,1.3986 2.844,1.2097 3.5,1.2188 0.6998,0.01 3.5,0.2667 3.5,-1.5 l 0,-0.5 c 0,-0.554 -0.446,-1 -1,-1 l -5,0 z"
       style="opacity:0.7;color:#000000;fill:url(#linearGradient5602);fill-opacity:1;fill-rule:nonzero;stroke:none;stroke-width:2;marker:none;visibility:visible;display:inline;overflow:visible;enable-background:accumulate"
       inkscape:connector-curvature="0" />
    <path
       style="fill:#3c3c3c;fill-opacity:1"
       d="M 14.59375 3 L 1.3125 3.03125 C 0.7025 3.03125 1.4802974e-16 3.79075 0 4.34375 L 0 11.625 C 0 12.358 0.7735 13 1.4375 13 L 8 13 L 8 11 L 7.28125 11 L 5 8.6875 L 2.5625 11.15625 L 1.875 10.4375 L 4.28125 8 L 0.875 4.5625 L 1.5625 3.875 L 7.6875 10 L 8 10 L 8 9 C 8 7.90698 8.90698 7 10 7 L 11.28125 7 L 14.4375 3.875 L 15.125 4.5625 L 12.71875 7 L 15 7 C 15.361149 7 15.705478 7.1092198 16 7.28125 L 16 4.46875 C 16 3.69275 15.31475 3 14.59375 3 z "
       transform="translate(0,1036.3622)"
       id="path3037" />
  </g>
</svg>
