<?xml version="1.0" encoding="UTF-8" standalone="no"?>
<!-- Created with Inkscape (http://www.inkscape.org/) -->

<svg
   xmlns:dc="http://purl.org/dc/elements/1.1/"
   xmlns:cc="http://creativecommons.org/ns#"
   xmlns:rdf="http://www.w3.org/1999/02/22-rdf-syntax-ns#"
   xmlns:svg="http://www.w3.org/2000/svg"
   xmlns="http://www.w3.org/2000/svg"
   xmlns:sodipodi="http://sodipodi.sourceforge.net/DTD/sodipodi-0.dtd"
   xmlns:inkscape="http://www.inkscape.org/namespaces/inkscape"
   version="1.0"
   width="16"
   height="16"
   id="svg3229"
   inkscape:version="0.48.1 r9760"
   sodipodi:docname="nm-signal-75.svg">
  <sodipodi:namedview
     pagecolor="#ffffff"
     bordercolor="#666666"
     borderopacity="1"
     objecttolerance="10"
     gridtolerance="10"
     guidetolerance="10"
     inkscape:pageopacity="0"
     inkscape:pageshadow="2"
     inkscape:window-width="1366"
     inkscape:window-height="744"
     id="namedview14"
     showgrid="false"
     inkscape:zoom="35.9375"
     inkscape:cx="4.4486957"
     inkscape:cy="8"
     inkscape:window-x="0"
     inkscape:window-y="24"
     inkscape:window-maximized="1"
     inkscape:current-layer="svg3229" />
  <metadata
     id="metadata9">
    <rdf:RDF>
      <cc:Work
         rdf:about="">
        <dc:format>image/svg+xml</dc:format>
        <dc:type
           rdf:resource="http://purl.org/dc/dcmitype/StillImage" />
        <dc:title />
      </cc:Work>
    </rdf:RDF>
  </metadata>
  <defs
     id="defs3231" />
  <g
     transform="matrix(0.8,0,0,0.8,-1.6,-2.3999999)"
     id="g3893"
     style="opacity:0.4">
    <path
       d="m 2.85,11.144409 c 0,0 2.8977535,-3.294409 9.131958,-3.294409 6.203557,0 9.168042,3.3 9.168042,3.3"
       id="path3683-5"
       style="opacity:0.3;fill:none;stroke:#ffffff;stroke-width:1.70000005;stroke-linecap:round;stroke-linejoin:miter;stroke-miterlimit:4;stroke-opacity:1;stroke-dasharray:none;stroke-dashoffset:0;marker:none;visibility:visible;display:inline;overflow:visible;enable-background:accumulate"
       inkscape:connector-curvature="0" />
    <path
       d="m 2.85,10.144409 c 0,0 2.8977535,-3.2944092 9.131958,-3.2944092 C 18.185515,6.8499998 21.15,10.15 21.15,10.15"
       id="path3683"
       style="fill:none;stroke:#3c3c3c;stroke-width:1.70000005;stroke-linecap:round;stroke-linejoin:miter;stroke-miterlimit:4;stroke-opacity:1;stroke-dasharray:none;stroke-dashoffset:0;marker:none;visibility:visible;display:inline;overflow:visible;enable-background:accumulate"
       inkscape:connector-curvature="0" />
  </g>
  <path
     d="m 2.6799998,8.6020861 c 0,0 1.7175134,-1.7726156 5.320001,-1.7095484 C 11.632369,6.9561297 13.32,8.6305581 13.32,8.6305581"
     id="path3681-0"
     style="opacity:0.3;fill:none;stroke:#ffffff;stroke-width:1.3599999;stroke-linecap:round;stroke-linejoin:miter;stroke-miterlimit:4;stroke-opacity:1;stroke-dasharray:none;stroke-dashoffset:0;marker:none;visibility:visible;display:inline;overflow:visible;enable-background:accumulate"
     inkscape:connector-curvature="0" />
  <path
     d="m 2.6799998,7.8020861 c 0,0 1.7175134,-1.7726164 5.320001,-1.7095492 C 11.632369,6.1561289 13.32,7.8305581 13.32,7.8305581"
     id="path3681"
     style="fill:none;stroke:#3c3c3c;stroke-width:1.3599999;stroke-linecap:round;stroke-linejoin:miter;stroke-miterlimit:4;stroke-opacity:1;stroke-dasharray:none;stroke-dashoffset:0;marker:none;visibility:visible;display:inline;overflow:visible;enable-background:accumulate"
     inkscape:connector-curvature="0" />
  <path
     d="m 5.0799999,10.552837 c 0,0 0.7735185,-0.8575869 2.8789449,-0.8737669 C 10.038126,9.6630941 10.92,10.552837 10.92,10.552837"
     id="path3209-5"
     style="opacity:0.3;fill:none;stroke:#ffffff;stroke-width:1.3599999;stroke-linecap:round;stroke-linejoin:miter;stroke-miterlimit:4;stroke-opacity:1;stroke-dasharray:none;stroke-dashoffset:0;marker:none;visibility:visible;display:inline;overflow:visible;enable-background:accumulate"
     inkscape:connector-curvature="0" />
  <path
     d="m 5.0799999,9.7528371 c 0,0 0.7735185,-0.857587 2.8789449,-0.873767 C 10.038126,8.8630941 10.92,9.7528371 10.92,9.7528371"
     id="path3209"
     style="fill:none;stroke:#3c3c3c;stroke-width:1.3599999;stroke-linecap:round;stroke-linejoin:miter;stroke-miterlimit:4;stroke-opacity:1;stroke-dasharray:none;stroke-dashoffset:0;marker:none;visibility:visible;display:inline;overflow:visible;enable-background:accumulate"
     inkscape:connector-curvature="0" />
  <path
     d="m 7.316084,12 c -0.3775216,0 -0.683916,0.238934 -0.683916,0.533334 0,0.109406 0.04232,0.211152 0.1148696,0.295822 0,0 0.8060816,0.64115 0.8060816,0.64115 0.119888,0.0808 0.276108,0.129694 0.4468816,0.129694 0.2026424,0 0.3847944,-0.06884 0.510064,-0.178154 0,0 0.7207272,-0.568318 0.7207272,-0.568318 0.086033,-0.08919 0.13704,-0.200075 0.13704,-0.320194 C 9.367832,12.238934 9.0614376,12 8.683916,12 c 0,0 -1.367832,0 -1.367832,0 z"
     id="path3196-5-7"
     style="opacity:0.3;fill:#ffffff;fill-opacity:1;fill-rule:evenodd;stroke:none;stroke-width:1.69999993;marker:none;visibility:visible;display:inline;overflow:visible;enable-background:accumulate"
     inkscape:connector-curvature="0" />
  <path
     d="m 7.316084,11.2 c -0.3775216,0 -0.683916,0.238934 -0.683916,0.533334 0,0.109406 0.04232,0.211152 0.1148696,0.295822 0,0 0.8060816,0.64115 0.8060816,0.64115 0.119888,0.0808 0.276108,0.129694 0.4468816,0.129694 0.2026424,0 0.3847944,-0.06884 0.510064,-0.178154 0,0 0.7207272,-0.568318 0.7207272,-0.568318 0.086033,-0.08919 0.13704,-0.200075 0.13704,-0.320194 0,-0.2944 -0.3063944,-0.533334 -0.683916,-0.533334 0,0 -1.367832,0 -1.367832,0 z"
     id="path3196-5"
     style="fill:#3c3c3c;fill-opacity:1;fill-rule:evenodd;stroke:none;stroke-width:1.69999993;marker:none;visibility:visible;display:inline;overflow:visible;enable-background:accumulate"
     inkscape:connector-curvature="0" />
</svg>
