<?xml version="1.0" encoding="UTF-8" standalone="no"?>
<!-- Created with Inkscape (http://www.inkscape.org/) -->

<svg
   xmlns:dc="http://purl.org/dc/elements/1.1/"
   xmlns:cc="http://creativecommons.org/ns#"
   xmlns:rdf="http://www.w3.org/1999/02/22-rdf-syntax-ns#"
   xmlns:svg="http://www.w3.org/2000/svg"
   xmlns="http://www.w3.org/2000/svg"
   version="1.0"
   width="16"
   height="16"
   id="svg3187">
  <metadata
     id="metadata10">
    <rdf:RDF>
      <cc:Work
         rdf:about="">
        <dc:format>image/svg+xml</dc:format>
        <dc:type
           rdf:resource="http://purl.org/dc/dcmitype/StillImage" />
        <dc:title></dc:title>
      </cc:Work>
    </rdf:RDF>
  </metadata>
  <defs
     id="defs3189" />
  <path
     d="M 9,1 C 7.873696,1 6.919214,1.5937616 6.40625,2.46875 6.117404,2.2628039 5.74855,2.15625 5.34375,2.15625 c -0.9199998,-10e-8 -1.6874999,0.6176786 -1.6875,1.40625 -10e-8,0.1771007 0.056173,0.3434552 0.125,0.5 C 2.7349116,4.463232 2,5.388376 2,6.4375 2,7.378617 2.5892405,8.15538 3.46875,8.59375 L 9.75,2.3125 c 0.143143,-0.1472274 0.329019,-0.2456325 0.53125,-0.28125 0.351606,-0.059063 0.716366,0.06408 0.9375,0.34375 0.221134,0.2796697 0.263557,0.6714922 0.125,1 L 9.875,7.03125 l 1.5625,0 c 0.387717,-0.0072 0.743746,0.210409 0.90625,0.5625 0.162504,0.352091 0.100744,0.772105 -0.15625,1.0625 l -0.15625,0.1875 C 13.17335,8.483254 14,7.545732 14,6.4375 14,5.309116 13.143764,4.34798 11.96875,4 11.97136,3.9511852 12,3.8931797 12,3.84375 12,2.2666071 10.656,1 9,1 z m 1.4375,2 -7,7 4,0 -3,6 7,-8 -3,0 2,-5 z"
     id="path2397-2"
     style="opacity:0.3;fill:#ffffff;fill-opacity:1;fill-rule:evenodd;stroke:none;stroke-width:4;marker:none;visibility:visible;display:inline;overflow:visible;enable-background:accumulate" />
  <path
     d="M 9,0 C 7.873696,0 6.919214,0.5937616 6.40625,1.46875 6.117404,1.2628039 5.74855,1.15625 5.34375,1.15625 c -0.9199998,-1e-7 -1.6874999,0.6176786 -1.6875,1.40625 -10e-8,0.1771007 0.056173,0.3434552 0.125,0.5 C 2.7349116,3.4632319 2,4.388376 2,5.4375 2,6.378617 2.5892405,7.15538 3.46875,7.59375 L 9.75,1.3125 c 0.143143,-0.1472274 0.329019,-0.2456325 0.53125,-0.28125 0.351606,-0.059063 0.716366,0.06408 0.9375,0.34375 0.221134,0.2796697 0.263557,0.6714922 0.125,1 L 9.875,6.03125 l 1.5625,0 c 0.387717,-0.0072 0.743746,0.210409 0.90625,0.5625 0.162504,0.352091 0.100744,0.772105 -0.15625,1.0625 l -0.15625,0.1875 C 13.17335,7.483254 14,6.545732 14,5.4375 14,4.309116 13.143764,3.34798 11.96875,3 11.97136,2.9511852 12,2.8931797 12,2.84375 12,1.2666071 10.656,0 9,0 z m 1.4375,2 -7,7 4,0 -3,6 7,-8 -3,0 2,-5 z"
     id="path2397"
     style="fill:#3c3c3c;fill-opacity:1;fill-rule:evenodd;stroke:none;stroke-width:4;marker:none;visibility:visible;display:inline;overflow:visible;enable-background:accumulate" />
</svg>
