<?xml version="1.0" encoding="UTF-8" standalone="no"?>
<!-- Created with Inkscape (http://www.inkscape.org/) -->

<svg
   xmlns:dc="http://purl.org/dc/elements/1.1/"
   xmlns:cc="http://creativecommons.org/ns#"
   xmlns:rdf="http://www.w3.org/1999/02/22-rdf-syntax-ns#"
   xmlns:svg="http://www.w3.org/2000/svg"
   xmlns="http://www.w3.org/2000/svg"
   xmlns:sodipodi="http://sodipodi.sourceforge.net/DTD/sodipodi-0.dtd"
   xmlns:inkscape="http://www.inkscape.org/namespaces/inkscape"
   width="18"
   height="16"
   id="svg3795"
   version="1.1"
   inkscape:version="0.48.0 r9654"
   sodipodi:docname="user-available-panel.svg">
  <defs
     id="defs3797" />
  <sodipodi:namedview
     id="base"
     pagecolor="#ffffff"
     bordercolor="#666666"
     borderopacity="1.0"
     inkscape:pageopacity="0.0"
     inkscape:pageshadow="2"
     inkscape:zoom="8.172433"
     inkscape:cx="8"
     inkscape:cy="8.4730198"
     inkscape:current-layer="layer1"
     showgrid="true"
     inkscape:grid-bbox="true"
     inkscape:document-units="px"
     inkscape:window-width="755"
     inkscape:window-height="567"
     inkscape:window-x="415"
     inkscape:window-y="177"
     inkscape:window-maximized="0" />
  <metadata
     id="metadata3800">
    <rdf:RDF>
      <cc:Work
         rdf:about="">
        <dc:format>image/svg+xml</dc:format>
        <dc:type
           rdf:resource="http://purl.org/dc/dcmitype/StillImage" />
        <dc:title></dc:title>
      </cc:Work>
    </rdf:RDF>
  </metadata>
  <g
     id="layer1"
     inkscape:label="Layer 1"
     inkscape:groupmode="layer">
    <path
       inkscape:connector-curvature="0"
       d="M 7.5,1 C 3.36,1 1e-7,4.3599999 0,8.5 0,12.64 3.3600001,16 7.5,16 c 1.964788,0 3.756106,-0.76222 5.09375,-2 L 18,14 14.65625,10.65625 C 14.864192,9.968633 15,9.255184 15,8.5 15,4.36 11.64,1.0000001 7.5,1 z"
       id="path2396-2"
       style="opacity:0.3;fill:#ffffff;fill-opacity:1;fill-rule:evenodd;stroke:none;stroke-width:1;marker:none;visibility:visible;display:inline;overflow:visible;enable-background:accumulate" />
    <path
       inkscape:connector-curvature="0"
       d="M 7.5,0 C 3.36,0 1e-7,3.3599999 0,7.5 0,11.64 3.3600001,15 7.5,15 c 1.964788,0 3.756106,-0.76222 5.09375,-2 L 18,13 14.65625,9.65625 C 14.864192,8.968633 15,8.255184 15,7.5 15,3.36 11.64,1e-7 7.5,0 z"
       id="path2396"
       style="fill:#3c3c3c;fill-opacity:1;fill-rule:evenodd;stroke:none;stroke-width:1;marker:none;visibility:visible;display:inline;overflow:visible;enable-background:accumulate" />
  </g>
</svg>
