<?xml version="1.0" encoding="UTF-8" standalone="no"?>
<!-- Created with Inkscape (http://www.inkscape.org/) -->
<svg
   xmlns:svg="http://www.w3.org/2000/svg"
   xmlns="http://www.w3.org/2000/svg"
   version="1.0"
   width="16"
   height="16"
   id="svg3187">
  <defs
     id="defs3189" />
  <path
     d="M 12.454801,3.5452299 L 12.9497,3.0502498"
     id="path2476"
     style="opacity:0.6;fill:none;stroke:#eae3d0;stroke-width:4;stroke-linecap:round;stroke-linejoin:miter;marker:none;stroke-miterlimit:4;stroke-dasharray:none;stroke-dashoffset:0;stroke-opacity:1;visibility:visible;display:inline;overflow:visible;enable-background:accumulate" />
  <path
     d="M 3.6159,3.6159299 L 3.0503,3.0502498"
     id="path2474"
     style="opacity:0.6;fill:none;stroke:#eae3d0;stroke-width:4;stroke-linecap:round;stroke-linejoin:miter;marker:none;stroke-miterlimit:4;stroke-dasharray:none;stroke-dashoffset:0;stroke-opacity:1;visibility:visible;display:inline;overflow:visible;enable-background:accumulate" />
  <path
     d="M 1,7.9999998 L 2,8"
     id="path2470"
     style="opacity:0.6;fill:none;stroke:#eae3d0;stroke-width:4;stroke-linecap:round;stroke-linejoin:miter;marker:none;stroke-miterlimit:4;stroke-dasharray:none;stroke-dashoffset:0;stroke-opacity:1;visibility:visible;display:inline;overflow:visible;enable-background:accumulate" />
  <path
     d="M 14,8 L 15,7.9999998"
     id="path2468"
     style="opacity:0.6;fill:none;stroke:#eae3d0;stroke-width:4;stroke-linecap:round;stroke-linejoin:miter;marker:none;stroke-miterlimit:4;stroke-dasharray:none;stroke-dashoffset:0;stroke-opacity:1;visibility:visible;display:inline;overflow:visible;enable-background:accumulate" />
  <path
     d="M 8,2 L 8,0.9999999"
     id="path3185"
     style="opacity:0.6;fill:none;stroke:#eae3d0;stroke-width:4;stroke-linecap:round;stroke-linejoin:miter;marker:none;stroke-miterlimit:4;stroke-dasharray:none;stroke-dashoffset:0;stroke-opacity:1;visibility:visible;display:inline;overflow:visible;enable-background:accumulate" />
  <path
     d="M 8,4 C 5.7908711,3.9999999 4,5.7908616 4,8 C 4,8.3216506 4.0533067,8.6378205 4.125,8.9375 C 4.2512532,8.7819549 4.3769525,8.6450091 4.53125,8.53125 C 5.0374211,8.1580648 5.6750457,7.9687501 6.34375,7.96875 C 6.6369896,7.96875 6.8815455,8.1126346 7.15625,8.1875 C 7.9001923,7.4779801 8.8577039,6.96875 10,6.96875 C 10.703605,6.96875 11.356392,7.1386072 11.9375,7.4375 C 11.663873,5.494925 10.018047,4 8,4 z"
     id="path2876-6-6-4-0"
     style="fill:#3a3935;fill-opacity:1;fill-rule:nonzero;stroke:none;stroke-width:11.49051189;stroke-linecap:round;stroke-linejoin:miter;marker:none;marker-start:none;marker-mid:none;marker-end:none;stroke-miterlimit:4;stroke-dasharray:none;stroke-dashoffset:0;stroke-opacity:1;visibility:visible;display:inline;overflow:visible;enable-background:accumulate" />
  <path
     d="M 12.454801,3.5452299 L 12.9497,3.0502498"
     id="path2492"
     style="fill:none;stroke:#3a3935;stroke-width:2;stroke-linecap:round;stroke-linejoin:miter;marker:none;stroke-miterlimit:4;stroke-dasharray:none;stroke-dashoffset:0;stroke-opacity:1;visibility:visible;display:inline;overflow:visible;enable-background:accumulate" />
  <path
     d="M 3.6159,3.6159299 L 3.0503,3.0502498"
     id="path2490"
     style="fill:none;stroke:#3a3935;stroke-width:2;stroke-linecap:round;stroke-linejoin:miter;marker:none;stroke-miterlimit:4;stroke-dasharray:none;stroke-dashoffset:0;stroke-opacity:1;visibility:visible;display:inline;overflow:visible;enable-background:accumulate" />
  <path
     d="M 1,7.9999998 L 2,8"
     id="path2486"
     style="fill:none;stroke:#3a3935;stroke-width:2;stroke-linecap:round;stroke-linejoin:miter;marker:none;stroke-miterlimit:4;stroke-dasharray:none;stroke-dashoffset:0;stroke-opacity:1;visibility:visible;display:inline;overflow:visible;enable-background:accumulate" />
  <path
     d="M 14,8 L 15,7.9999998"
     id="path2484"
     style="fill:none;stroke:#3a3935;stroke-width:2;stroke-linecap:round;stroke-linejoin:miter;marker:none;stroke-miterlimit:4;stroke-dasharray:none;stroke-dashoffset:0;stroke-opacity:1;visibility:visible;display:inline;overflow:visible;enable-background:accumulate" />
  <path
     d="M 8,2 L 8,0.9999999"
     id="path2826"
     style="fill:none;stroke:#3a3935;stroke-width:2;stroke-linecap:round;stroke-linejoin:miter;marker:none;stroke-miterlimit:4;stroke-dasharray:none;stroke-dashoffset:0;stroke-opacity:1;visibility:visible;display:inline;overflow:visible;enable-background:accumulate" />
  <g
     transform="matrix(1.1250049,0,0,1.1250048,-1689.6335,-201.25094)"
     id="g3181"
     style="opacity:0.6;fill:none;fill-opacity:1;fill-rule:nonzero;stroke:#eae3d0;stroke-width:0.88888514;stroke-linecap:round;stroke-linejoin:miter;marker:none;marker-start:none;marker-mid:none;marker-end:none;stroke-miterlimit:4;stroke-dasharray:none;stroke-dashoffset:0;stroke-opacity:1;visibility:visible;display:inline;overflow:visible;enable-background:accumulate">
    <path
       d="M -2.8284264,179.43886 C -2.8284263,192.1309 -13.117357,202.41983 -25.809397,202.41983 C -38.501436,202.41983 -48.790367,192.1309 -48.790367,179.43886 C -48.790367,166.74682 -38.501436,156.45789 -25.809397,156.45789 C -13.117357,156.45789 -2.8284264,166.74682 -2.8284264,179.43886 L -2.8284264,179.43886 z"
       transform="matrix(0.1740563,0,0,-0.174057,1513.4933,217.23261)"
       id="path3183"
       style="fill:none;fill-opacity:1;fill-rule:nonzero;stroke:#eae3d0;stroke-width:5.10687256;stroke-linecap:round;stroke-linejoin:miter;marker:none;marker-start:none;marker-mid:none;marker-end:none;stroke-miterlimit:4;stroke-dasharray:none;stroke-dashoffset:0;stroke-opacity:1;visibility:visible;display:inline;overflow:visible;enable-background:accumulate" />
  </g>
  <path
     d="M 9.9999996,8 C 8.8736959,8 7.9087972,8.5312601 7.3958333,9.2968749 C 7.1069868,9.1166722 6.7381333,9.0000001 6.3333333,9.0000001 C 5.4133334,9.0000001 4.6666667,9.5600001 4.6666666,10.25 C 4.6666666,10.404963 4.7020064,10.550522 4.7708333,10.687499 C 3.7244948,11.03814 3,11.832015 3,12.749999 C 3,13.996499 4.338,15 6,15 L 12,15 C 13.662,15 15,13.996499 15,12.749999 C 15,11.762663 14.15418,10.929483 12.979166,10.625 C 12.981776,10.582287 13,10.543251 13,10.5 C 13,9.12 11.656,8 9.9999996,8 z"
     id="rect3193"
     style="fill:#3a3935;fill-opacity:1;fill-rule:evenodd;stroke:none;stroke-width:4;stroke-linecap:butt;stroke-linejoin:miter;marker:none;marker-start:none;marker-mid:none;marker-end:none;stroke-miterlimit:4;stroke-dasharray:none;stroke-dashoffset:0;stroke-opacity:1;visibility:visible;display:inline;overflow:visible;enable-background:accumulate" />
  <path
     d="M 10.024748,7.5001268 C 8.8777273,7.4903313 7.8258076,8.0513405 7.2450942,8.798942 C 6.2209806,8.2539438 4.7166471,8.7298311 4.3344286,9.6175591 C 4.0220592,10.036805 4.5724177,10.589613 3.8239175,10.755039 C 2.5426522,11.487067 2.1195964,12.951826 2.8734511,14.039867 C 3.477778,14.990261 4.8487585,15.571936 6.1998073,15.492835 C 8.2464718,15.487836 10.293777,15.502961 12.340031,15.485044 C 14.036664,15.41094 15.490043,14.220974 15.497409,12.897197 C 15.554153,11.845589 14.673015,10.843008 13.445861,10.430787 C 13.482826,9.0849669 12.229871,7.7080911 10.461059,7.5238742 C 10.316574,7.5080177 10.170658,7.5001201 10.024748,7.5001268 z"
     id="path3203"
     style="opacity:0.6;fill:none;fill-opacity:1;fill-rule:nonzero;stroke:#eae3d0;stroke-width:0.99999982;stroke-linecap:round;stroke-linejoin:miter;marker:none;marker-start:none;marker-mid:none;marker-end:none;stroke-miterlimit:4;stroke-dasharray:none;stroke-dashoffset:0;stroke-opacity:1;visibility:visible;display:inline;overflow:visible;enable-background:accumulate" />
</svg>
