<?xml version="1.0" encoding="UTF-8" standalone="no"?>
<!-- Created with Inkscape (http://www.inkscape.org/) -->

<svg
   xmlns:dc="http://purl.org/dc/elements/1.1/"
   xmlns:cc="http://creativecommons.org/ns#"
   xmlns:rdf="http://www.w3.org/1999/02/22-rdf-syntax-ns#"
   xmlns:svg="http://www.w3.org/2000/svg"
   xmlns="http://www.w3.org/2000/svg"
   version="1.0"
   width="16"
   height="16"
   id="svg3186">
  <metadata
     id="metadata9">
    <rdf:RDF>
      <cc:Work
         rdf:about="">
        <dc:format>image/svg+xml</dc:format>
        <dc:type
           rdf:resource="http://purl.org/dc/dcmitype/StillImage" />
        <dc:title></dc:title>
      </cc:Work>
    </rdf:RDF>
  </metadata>
  <defs
     id="defs3188" />
  <path
     d="M 8,2.9999997 C 6.449025,3.2603299 5.0385869,4.1823924 4.125,5.46875 3.2417569,6.712518 2.8529615,8.299488 3.0625,9.8125 3.2033131,9.786662 3.3537654,9.78125 3.5,9.78125 c 0.2115101,0 0.3204114,0.105916 0.5,0.15625 0.5975807,-0.573754 1.346862,-1 2.25,-1 1.615109,0 2.924891,1.187134 3.1875,2.71875 0.891321,0.510019 1.625,1.305903 1.625,2.40625 0,0.195054 -0.02459,0.380361 -0.0625,0.5625 1.149381,-0.414251 2.196317,-1.156643 2.90625,-2.15625 C 14.819937,11.182383 9.60273,12.49639 9.34375,10.9375 9.41483,8.973192 8.177711,8.421551 7.84375,8.125 6.665478,7.078437 9.551076,2.7396696 8,2.9999997 z M 6.25,10 C 5.4052722,10 4.6972229,10.468759 4.3125,11.125 4.0958651,10.970541 3.8035999,10.84375 3.5,10.84375 c -0.69,0 -1.2499999,0.502322 -1.25,1.09375 0,0.132826 0.04213,0.257591 0.09375,0.375 C 1.5589962,12.613049 1,13.275656 1,14.0625 1,15.130929 2.0035,16 3.25,16 l 4.5,0 C 8.9965,16 10,15.130929 10,14.0625 10,13.216212 9.350011,12.510986 8.46875,12.25 8.470708,12.213389 8.5,12.193323 8.5,12.15625 8.5,10.973393 7.492,10 6.25,10 z"
     id="rect3193-4"
     style="opacity:0.3;fill:#ffffff;fill-opacity:1;fill-rule:evenodd;stroke:none;stroke-width:4;marker:none;visibility:visible;display:inline;overflow:visible;enable-background:accumulate" />
  <path
     d="M 8,2 C 6.449025,2.2603302 5.0385869,3.1823927 4.125,4.46875 3.2417569,5.712519 2.8529615,7.299488 3.0625,8.8125 3.2033131,8.786662 3.3537654,8.78125 3.5,8.78125 c 0.2115101,0 0.3204114,0.105916 0.5,0.15625 0.5975807,-0.573754 1.346862,-1 2.25,-1 1.615109,0 2.924891,1.187134 3.1875,2.71875 0.891321,0.510019 1.625,1.305903 1.625,2.40625 0,0.195054 -0.02459,0.380361 -0.0625,0.5625 1.149381,-0.414251 2.196317,-1.156643 2.90625,-2.15625 C 14.819937,10.182383 9.60273,11.49639 9.34375,9.9375 9.41483,7.973192 8.177711,7.421551 7.84375,7.125 6.665478,6.078437 9.551076,1.7396699 8,2 z M 6.25,9 C 5.4052722,9 4.6972229,9.468759 4.3125,10.125 4.0958651,9.970541 3.8035999,9.84375 3.5,9.84375 c -0.69,0 -1.2499999,0.502322 -1.25,1.09375 0,0.132826 0.04213,0.257591 0.09375,0.375 C 1.5589962,11.613049 1,12.275656 1,13.0625 1,14.130929 2.0035,15 3.25,15 l 4.5,0 C 8.9965,15 10,14.130929 10,13.0625 10,12.216212 9.350011,11.510986 8.46875,11.25 8.470708,11.213389 8.5,11.193323 8.5,11.15625 8.5,9.973393 7.492,9 6.25,9 z"
     id="rect3193"
     style="fill:#3c3c3c;fill-opacity:1;fill-rule:evenodd;stroke:none;stroke-width:4;marker:none;visibility:visible;display:inline;overflow:visible;enable-background:accumulate" />
</svg>
