<?xml version="1.0" encoding="UTF-8" standalone="no"?>
<!-- Created with Inkscape (http://www.inkscape.org/) -->
<svg
   xmlns:svg="http://www.w3.org/2000/svg"
   xmlns="http://www.w3.org/2000/svg"
   version="1.0"
   width="16"
   height="16"
   id="svg3187">
  <defs
     id="defs3189" />
  <path
     d="M 10.024748,0.500142 C 8.8777273,0.4891221 7.8258076,1.1202575 7.2450942,1.9613091 C 6.2209806,1.3481862 4.7166471,1.8835594 4.3344286,2.8822534 C 4.0220592,3.353905 4.5724177,3.975814 3.8239175,4.1619183 C 2.5426522,4.9854493 2.1195964,6.6333033 2.8734511,7.8573493 C 3.477778,8.9265433 4.8487585,9.5809273 6.1998073,9.4919383 C 8.2464718,9.4863153 10.293777,9.5033303 12.340031,9.4831743 C 14.036664,9.3998073 15.490043,8.0610953 15.497409,6.5718463 C 15.554153,5.3887873 14.673015,4.2608833 13.445861,3.7971348 C 13.482826,2.2830872 12.229871,0.7341019 10.461059,0.5268579 C 10.316574,0.5090193 10.170658,0.5001345 10.024748,0.500142 z M 5.4999999,8.5000007 C 5.4999999,9.6045695 6.3954304,10.5 7.4999998,10.5 C 8.6045692,10.5 9.4999998,9.6045695 9.4999998,8.5000007 C 9.4999998,7.395431 8.6045692,6.5000003 7.4999998,6.5000003 C 6.3954304,6.5000003 5.4999999,7.395431 5.4999999,8.5000007 L 5.4999999,8.5000007 z M 8.4999999,11.500001 C 8.4999999,12.60457 9.3954304,13.5 10.499999,13.5 C 11.604569,13.5 12.499999,12.60457 12.499999,11.500001 C 12.499999,10.395431 11.604569,9.5000005 10.499999,9.5000005 C 9.3954304,9.5000005 8.4999999,10.395431 8.4999999,11.500001 L 8.4999999,11.500001 z M 4.4999999,13.500001 C 4.4999999,14.60457 5.3954304,15.5 6.4999998,15.5 C 7.6045692,15.5 8.4999998,14.60457 8.4999998,13.500001 C 8.4999998,12.395431 7.6045692,11.5 6.4999998,11.5 C 5.3954304,11.5 4.4999999,12.395431 4.4999999,13.500001 L 4.4999999,13.500001 z"
     id="path2395"
     style="opacity:0.6;fill:none;fill-opacity:1;fill-rule:nonzero;stroke:#eae3d0;stroke-width:0.99999982;stroke-linecap:round;stroke-linejoin:miter;marker:none;marker-start:none;marker-mid:none;marker-end:none;stroke-miterlimit:4;stroke-dasharray:none;stroke-dashoffset:0;stroke-opacity:1;visibility:visible;display:inline;overflow:visible;enable-background:accumulate" />
  <path
     d="M 10,1 C 8.8736959,1 7.9192139,1.5937616 7.40625,2.46875 C 7.1174033,2.2628039 6.74855,2.15625 6.34375,2.15625 C 5.4237499,2.1562499 4.6562501,2.7739286 4.65625,3.5625 C 4.6562501,3.7396007 4.7124231,3.9059552 4.78125,4.0625 C 3.7349113,4.4632319 3,5.388376 3,6.4375 C 3,7.564587 3.8583589,8.494777 5.03125,8.84375 C 5.0153936,8.7299596 5,8.6181571 5,8.5 C 5,7.119288 6.1192882,6 7.5,6 C 8.8807118,6 10,7.1192883 10,8.5 C 10,8.6725889 9.9708022,8.8372561 9.9375,9 L 12,9 C 13.662,9.0000003 15,7.862071 15,6.4375 C 15,5.309116 14.143764,4.34798 12.96875,4 C 12.97136,3.9511852 13,3.8931797 13,3.84375 C 13,2.2666071 11.656,1 10,1 z"
     id="path2397"
     style="fill:#3a3935;fill-opacity:1;fill-rule:evenodd;stroke:none;stroke-width:4;stroke-linecap:butt;stroke-linejoin:miter;marker:none;marker-start:none;marker-mid:none;marker-end:none;stroke-miterlimit:4;stroke-dasharray:none;stroke-dashoffset:0;stroke-opacity:1;visibility:visible;display:inline;overflow:visible;enable-background:accumulate" />
  <path
     d="M 9.000001,11.5 C 9.000001,12.328427 9.6715741,13 10.5,13 C 11.328429,13 12.000001,12.328427 12.000001,11.5 C 12.000001,10.671573 11.328429,10 10.5,10 C 9.6715741,10 9.000001,10.671573 9.000001,11.5 L 9.000001,11.5 z"
     id="path2823"
     style="fill:#3a3935;fill-opacity:1;stroke:none;stroke-width:0.90254229;stroke-opacity:1" />
  <path
     d="M 6,8.5000002 C 6,9.3284268 6.6715729,10 7.5,10 C 8.3284271,10 9,9.3284268 9,8.5000002 C 9,7.671573 8.3284271,7 7.5,7 C 6.6715729,7 6,7.671573 6,8.5000002 L 6,8.5000002 z"
     id="path3630"
     style="fill:#3a3935;fill-opacity:1;stroke:none;stroke-width:0.90254229;stroke-opacity:1" />
  <path
     d="M 5,13.5 C 5,14.328427 5.6715728,15 6.5,15 C 7.3284272,15 8,14.328427 8,13.5 C 8,12.671573 7.3284272,12 6.5,12 C 5.6715728,12 5,12.671573 5,13.5 L 5,13.5 z"
     id="path3632"
     style="fill:#3a3935;fill-opacity:1;stroke:none;stroke-width:0.90254229;stroke-opacity:1" />
</svg>
