<?xml version="1.0" encoding="UTF-8" standalone="no"?>
<!-- Created with Inkscape (http://www.inkscape.org/) -->
<svg
   xmlns:svg="http://www.w3.org/2000/svg"
   xmlns="http://www.w3.org/2000/svg"
   version="1.0"
   width="16"
   height="16"
   id="svg3187">
  <defs
     id="defs3189" />
  <path
     d="M 13.5,10.5 L 11.5,14.5 M 9.5000001,10.5 L 7.5000002,14.5 M 5.5000002,10.5 L 3.5000001,14.5 M 11.5,10.513871 L 9.5000001,14.513871 M 7.5000001,10.513871 L 5.5000001,14.513871 M 3.5000001,10.513871 L 1.5,14.513871"
     id="path3408"
     style="opacity:0.6;fill:none;fill-opacity:1;fill-rule:nonzero;stroke:#eae3d0;stroke-width:3;stroke-linecap:round;stroke-linejoin:miter;marker:none;marker-start:none;marker-mid:none;marker-end:none;stroke-miterlimit:4;stroke-dasharray:none;stroke-dashoffset:0;stroke-opacity:1;visibility:visible;display:inline;overflow:visible;enable-background:accumulate" />
  <g
     transform="translate(0,-6.0000007)"
     id="g2390">
    <path
       d="M 10.024748,6.5001427 C 8.8777273,6.4891228 7.8258076,7.1202582 7.2450942,7.9613098 C 6.2209806,7.3481869 4.7166471,7.8835601 4.3344286,8.8822541 C 4.0220592,9.3539057 4.5724177,9.9758147 3.8239175,10.161919 C 2.5426522,10.98545 2.1195964,12.633304 2.8734511,13.85735 C 3.477778,14.926544 4.8487585,15.580928 6.1998073,15.491939 C 8.2464718,15.486316 10.293777,15.503331 12.340031,15.483175 C 14.036664,15.399808 15.490043,14.061096 15.497409,12.571847 C 15.554153,11.388788 14.673015,10.260884 13.445861,9.7971355 C 13.482826,8.2830879 12.229871,6.7341026 10.461059,6.5268586 C 10.316574,6.50902 10.170658,6.5001352 10.024748,6.5001427 z"
       id="path2395"
       style="opacity:0.6;fill:none;fill-opacity:1;fill-rule:nonzero;stroke:#eae3d0;stroke-width:0.99999982;stroke-linecap:round;stroke-linejoin:miter;marker:none;marker-start:none;marker-mid:none;marker-end:none;stroke-miterlimit:4;stroke-dasharray:none;stroke-dashoffset:0;stroke-opacity:1;visibility:visible;display:inline;overflow:visible;enable-background:accumulate" />
    <path
       d="M 9.9999996,7 C 8.8736959,7 7.9087972,7.6071544 7.3958333,8.4821428 C 7.1069868,8.2761968 6.7381333,8.1428572 6.3333333,8.1428572 C 5.4133334,8.1428572 4.6666667,8.7828572 4.6666666,9.5714286 C 4.6666666,9.7485292 4.7020064,9.9148822 4.7708333,10.071427 C 3.7244948,10.472159 3,11.379446 3,12.42857 C 3,13.853141 4.338,15 6,15 L 12,15 C 13.662,15 15,13.853141 15,12.42857 C 15,11.300186 14.15418,10.34798 12.979166,10 C 12.981776,9.9511852 13,9.9065726 13,9.8571429 C 13,8.28 11.656,7 9.9999996,7 z"
       id="path2397"
       style="fill:#3a3935;fill-opacity:1;fill-rule:evenodd;stroke:none;stroke-width:4;stroke-linecap:butt;stroke-linejoin:miter;marker:none;marker-start:none;marker-mid:none;marker-end:none;stroke-miterlimit:4;stroke-dasharray:none;stroke-dashoffset:0;stroke-opacity:1;visibility:visible;display:inline;overflow:visible;enable-background:accumulate" />
  </g>
  <path
     d="M 1.5,14.513871 L 3.5000001,10.513871 M 5.5000001,14.513871 L 7.5000001,10.513871 M 9.5000001,14.513871 L 11.5,10.513871 M 3.482548,14.513871 L 5.4825481,10.513871 M 7.4825481,14.513871 L 9.4825481,10.513871 M 11.482548,14.513871 L 13.482548,10.513871"
     id="path3350"
     style="fill:none;fill-rule:evenodd;stroke:#000000;stroke-width:0.99999994px;stroke-linecap:round;stroke-linejoin:miter;stroke-opacity:1" />
</svg>
