<?xml version="1.0" encoding="UTF-8" standalone="no"?>
<!-- Created with Inkscape (http://www.inkscape.org/) -->

<svg
   xmlns:dc="http://purl.org/dc/elements/1.1/"
   xmlns:cc="http://creativecommons.org/ns#"
   xmlns:rdf="http://www.w3.org/1999/02/22-rdf-syntax-ns#"
   xmlns:svg="http://www.w3.org/2000/svg"
   xmlns="http://www.w3.org/2000/svg"
   xmlns:sodipodi="http://sodipodi.sourceforge.net/DTD/sodipodi-0.dtd"
   xmlns:inkscape="http://www.inkscape.org/namespaces/inkscape"
   version="1.0"
   width="16"
   height="16"
   id="svg3187"
   inkscape:version="0.48.0 r9654"
   sodipodi:docname="weather-severe-alert.svg">
  <metadata
     id="metadata10">
    <rdf:RDF>
      <cc:Work
         rdf:about="">
        <dc:format>image/svg+xml</dc:format>
        <dc:type
           rdf:resource="http://purl.org/dc/dcmitype/StillImage" />
        <dc:title></dc:title>
      </cc:Work>
    </rdf:RDF>
  </metadata>
  <sodipodi:namedview
     pagecolor="#ffffff"
     bordercolor="#666666"
     borderopacity="1"
     objecttolerance="10"
     gridtolerance="10"
     guidetolerance="10"
     inkscape:pageopacity="0"
     inkscape:pageshadow="2"
     inkscape:window-width="1280"
     inkscape:window-height="753"
     id="namedview8"
     showgrid="false"
     inkscape:zoom="11.3125"
     inkscape:cx="12"
     inkscape:cy="12"
     inkscape:window-x="0"
     inkscape:window-y="24"
     inkscape:window-maximized="1"
     inkscape:current-layer="svg3187" />
  <defs
     id="defs3189" />
  <path
     style="opacity:0.3;fill:#ffffff;fill-opacity:1;fill-rule:evenodd;stroke:none;stroke-width:4;marker:none;visibility:visible;display:inline;overflow:visible;enable-background:accumulate"
     d="M 9.00004,2 C 7.873736,2 6.919254,2.5937616 6.40629,3.46875 6.117444,3.2628039 5.7485903,3.15625 5.3437903,3.15625 c -0.9199998,-10e-8 -1.6874999,0.6176786 -1.6875,1.40625 -1e-7,0.1771007 0.056173,0.3434552 0.125,0.5 -1.0463384,0.400732 -1.78125,1.325876 -1.78125,2.375 0,1.424571 1.338,2.5625 3,2.5625 l 0.9999997,0 0,-3.96875 c 0,-0.511869 0.425631,-0.9375 0.9375,-0.9375 l 2.125,0 c 0.511869,0 0.9375,0.425631 0.9375,0.9375 l 0,3.96875 1,0 c 1.662,0 3,-1.137929 3,-2.5625 0,-1.128384 -0.856236,-2.08952 -2.03125,-2.4375 0.0026,-0.048815 0.03125,-0.1068203 0.03125,-0.15625 0,-1.5771429 -1.344,-2.84375 -3,-2.84375 z m -1,4 c -0.554,0 -1,0.446 -1,1 l 0,5 c 0,0.554 0.446,1 1,1 0.554,0 1,-0.446 1,-1 l 0,-5 c 0,-0.554 -0.446,-1 -1,-1 z m -0.5,8 c -0.277,0 -0.5,0.223 -0.5,0.5 l 0,0.5 0,0.5 c 0,0.277 0.223,0.5 0.5,0.5 l 0.5,0 0.5,0 c 0.277,0 0.5,-0.223 0.5,-0.5 l 0,-0.5 0,-0.5 c 0,-0.277 -0.223,-0.5 -0.5,-0.5 l -0.5,0 -0.5,0 z"
     id="path2397-8"
     inkscape:connector-curvature="0" />
  <path
     d="M 9,1 C 7.873696,1 6.919214,1.5937616 6.40625,2.46875 6.117404,2.2628039 5.74855,2.15625 5.34375,2.15625 c -0.9199998,-10e-8 -1.6874999,0.6176786 -1.6875,1.40625 -10e-8,0.1771007 0.056173,0.3434552 0.125,0.5 C 2.7349116,4.4632319 2,5.388376 2,6.4375 2,7.862071 3.338,9 5,9 L 6,9 6,5.03125 C 6,4.5193811 6.425631,4.09375 6.9375,4.09375 l 2.125,0 C 9.574369,4.09375 10,4.519381 10,5.03125 L 10,9 11,9 C 12.662,9 14,7.862071 14,6.4375 14,5.309116 13.143764,4.34798 11.96875,4 11.97135,3.951185 12,3.8931797 12,3.84375 12,2.2666071 10.656,1 9,1 z"
     id="path2397"
     style="fill:#3c3c3c;fill-opacity:1;fill-rule:evenodd;stroke:none;stroke-width:4;marker:none;visibility:visible;display:inline;overflow:visible;enable-background:accumulate"
     inkscape:connector-curvature="0" />
  <path
     style="fill:#df382c;fill-opacity:1;fill-rule:evenodd;stroke:none;stroke-width:1.69999993;marker:none;visibility:visible;display:inline;overflow:visible;enable-background:accumulate"
     d="m 8.00004,5 c -0.554,0 -1,0.446 -1,1 l 0,5 c 0,0.554 0.446,1 1,1 0.554,0 1,-0.446 1,-1 l 0,-5 c 0,-0.554 -0.446,-1 -1,-1 z m -0.5,8 c -0.277,0 -0.5,0.223 -0.5,0.5 l 0,0.5 0,0.5 c 0,0.277 0.223,0.5 0.5,0.5 l 0.5,0 0.5,0 c 0.277,0 0.5,-0.223 0.5,-0.5 l 0,-0.5 0,-0.5 c 0,-0.277 -0.223,-0.5 -0.5,-0.5 l -0.5,0 -0.5,0 z"
     id="path3160"
     inkscape:connector-curvature="0" />
</svg>
