<?xml version="1.0" encoding="UTF-8" standalone="no"?>
<!-- Created with Inkscape (http://www.inkscape.org/) -->

<svg
   xmlns:dc="http://purl.org/dc/elements/1.1/"
   xmlns:cc="http://creativecommons.org/ns#"
   xmlns:rdf="http://www.w3.org/1999/02/22-rdf-syntax-ns#"
   xmlns:svg="http://www.w3.org/2000/svg"
   xmlns="http://www.w3.org/2000/svg"
   xmlns:sodipodi="http://sodipodi.sourceforge.net/DTD/sodipodi-0.dtd"
   xmlns:inkscape="http://www.inkscape.org/namespaces/inkscape"
   width="16"
   height="16"
   id="svg3797"
   version="1.1"
   inkscape:version="0.48.0 r9654"
   sodipodi:docname="weather-clouds-night.svg">
  <defs
     id="defs3799" />
  <sodipodi:namedview
     id="base"
     pagecolor="#ffffff"
     bordercolor="#666666"
     borderopacity="1.0"
     inkscape:pageopacity="0.0"
     inkscape:pageshadow="2"
     inkscape:zoom="11.098901"
     inkscape:cx="8"
     inkscape:cy="8"
     inkscape:current-layer="layer1"
     showgrid="true"
     inkscape:grid-bbox="true"
     inkscape:document-units="px"
     inkscape:window-width="1280"
     inkscape:window-height="753"
     inkscape:window-x="0"
     inkscape:window-y="24"
     inkscape:window-maximized="1" />
  <metadata
     id="metadata3802">
    <rdf:RDF>
      <cc:Work
         rdf:about="">
        <dc:format>image/svg+xml</dc:format>
        <dc:type
           rdf:resource="http://purl.org/dc/dcmitype/StillImage" />
        <dc:title></dc:title>
      </cc:Work>
    </rdf:RDF>
  </metadata>
  <g
     id="layer1"
     inkscape:label="Layer 1"
     inkscape:groupmode="layer">
    <path
       inkscape:connector-curvature="0"
       style="opacity:0.3;fill:#ffffff;fill-opacity:1;stroke:none;display:inline"
       d="M 7,2.9999994 C 5.4490246,3.2603296 4.0385869,4.1823921 3.125,5.4687494 2.2115131,6.755107 1.8347702,8.4098777 2.09375,9.9687497 2.173179,10.446852 2.3080346,10.899361 2.5,11.34375 2.543145,11.31488 2.58104,11.27774 2.625,11.25 c 10e-8,-0.726382 0.4000789,-1.3455653 0.90625,-1.7187503 0.5061711,-0.373185 1.1437957,-0.5625 1.8125,-0.5625 0.2932396,0 0.5377955,0.143885 0.8125,0.21875 0.312148,-0.297704 0.67728,-0.545639 1.0625,-0.75 -0.160154,-0.124016 -0.29151,-0.238362 -0.375,-0.3125 C 5.6654774,7.0784367 8.551076,2.7396693 7,2.9999994 z m 2,6.0000003 c -1.126304,0 -2.080786,0.515635 -2.59375,1.2812503 C 6.117404,10.101047 5.74855,9.9999997 5.34375,9.9999997 4.4237501,9.9999997 3.6562501,10.56 3.65625,11.25 c 0,0.154963 0.056173,0.300523 0.125,0.4375 C 2.7349115,12.038141 2,12.832016 2,13.75 2,14.9965 3.338,16 5,16 l 6,0 c 1.662,0 3,-1.0035 3,-2.25 0,-0.987336 -0.856236,-1.820517 -2.03125,-2.125 C 11.97136,11.582287 12,11.543251 12,11.5 12,10.12 10.656,8.9999997 9,8.9999997 z"
       id="path2876-6-6-4-6" />
    <path
       inkscape:connector-curvature="0"
       style="fill:#3c3c3c;fill-opacity:1;stroke:none;display:inline"
       d="m 7,1.9999997 c -1.5509754,0.2603302 -2.9614131,1.1823927 -3.875,2.46875 -0.9134869,1.2863576 -1.2902298,2.941128 -1.03125,4.5 C 2.173179,9.4468517 2.3080346,9.8993607 2.5,10.34375 2.543145,10.31488 2.58104,10.27774 2.625,10.25 c 10e-8,-0.7263823 0.4000789,-1.3455653 0.90625,-1.7187503 0.5061711,-0.373185 1.1437957,-0.5625 1.8125,-0.5625 0.2932396,0 0.5377955,0.143885 0.8125,0.21875 0.312148,-0.297704 0.67728,-0.545639 1.0625,-0.75 -0.160154,-0.124016 -0.29151,-0.238362 -0.375,-0.3125 C 5.6654774,6.0784373 8.551076,1.7396696 7,1.9999997 z m 2,6 c -1.126304,0 -2.080786,0.515635 -2.59375,1.28125 -0.288846,-0.180203 -0.6577,-0.28125 -1.0625,-0.28125 -0.9199999,0 -1.6874999,0.56 -1.6875,1.2500003 0,0.154963 0.056173,0.300523 0.125,0.4375 C 2.7349115,11.038141 2,11.832016 2,12.75 2,13.9965 3.338,15 5,15 l 6,0 c 1.662,0 3,-1.0035 3,-2.25 0,-0.987336 -0.856236,-1.820517 -2.03125,-2.125 C 11.97136,10.582287 12,10.543251 12,10.5 12,9.1199997 10.656,7.9999997 9,7.9999997 z"
       id="path2876-6-6-4" />
  </g>
</svg>
