<?xml version="1.0" encoding="UTF-8" standalone="no"?>
<!-- Created with Inkscape (http://www.inkscape.org/) -->

<svg
   xmlns:dc="http://purl.org/dc/elements/1.1/"
   xmlns:cc="http://creativecommons.org/ns#"
   xmlns:rdf="http://www.w3.org/1999/02/22-rdf-syntax-ns#"
   xmlns:svg="http://www.w3.org/2000/svg"
   xmlns="http://www.w3.org/2000/svg"
   version="1.0"
   width="16"
   height="16"
   id="svg3187">
  <metadata
     id="metadata8">
    <rdf:RDF>
      <cc:Work
         rdf:about="">
        <dc:format>image/svg+xml</dc:format>
        <dc:type
           rdf:resource="http://purl.org/dc/dcmitype/StillImage" />
        <dc:title></dc:title>
      </cc:Work>
    </rdf:RDF>
  </metadata>
  <defs
     id="defs3189" />
  <path
     d="M 9,2 C 7.873696,2 6.919214,2.5937616 6.40625,3.46875 6.117403,3.2628039 5.74855,3.15625 5.34375,3.15625 c -0.9200001,-10e-8 -1.6874999,0.6176786 -1.6875,1.40625 10e-8,0.1771007 0.056173,0.3434552 0.125,0.5 C 2.7349113,5.463232 2,6.388376 2,7.4375 2,8.564587 2.8583589,9.494777 4.03125,9.84375 4.015394,9.72996 4,9.618157 4,9.5 4,8.119288 5.1192882,7 6.5,7 7.880712,7 9,8.119288 9,9.5 9,9.672589 8.9708,9.837256 8.9375,10 L 11,10 C 12.662,10 14,8.862071 14,7.4375 14,6.309116 13.143764,5.34798 11.96875,5 11.97135,4.951185 12,4.8931797 12,4.84375 12,3.2666071 10.656,2 9,2 z M 8.000001,12.5 c 0,0.828427 0.671573,1.5 1.499999,1.5 0.828429,0 1.500001,-0.671573 1.500001,-1.5 0,-0.828427 -0.671572,-1.5 -1.500001,-1.5 -0.828426,0 -1.499999,0.671573 -1.499999,1.5 l 0,0 z M 5,9.5 C 5,10.328427 5.6715729,11 6.5,11 7.328427,11 8,10.328427 8,9.5 8,8.671573 7.328427,8 6.5,8 5.6715729,8 5,8.671573 5,9.5 l 0,0 z m -1,5 C 4,15.328427 4.6715728,16 5.5,16 6.328427,16 7,15.328427 7,14.5 7,13.671573 6.328427,13 5.5,13 4.6715728,13 4,13.671573 4,14.5 l 0,0 z"
     id="path2397-5"
     style="opacity:0.3;fill:#ffffff;fill-opacity:1;fill-rule:evenodd;stroke:none;stroke-width:4;marker:none;visibility:visible;display:inline;overflow:visible;enable-background:accumulate" />
  <path
     d="m 9,1.0000001 c -1.126304,0 -2.080786,0.5937616 -2.59375,1.46875 -0.288847,-0.2059461 -0.6577,-0.3125 -1.0625,-0.3125 -0.9200001,-10e-8 -1.6874999,0.6176786 -1.6875,1.40625 10e-8,0.1771007 0.056173,0.3434552 0.125,0.5 C 2.7349113,4.463232 2,5.388376 2,6.4375 2,7.564587 2.8583589,8.494777 4.03125,8.84375 4.015394,8.72996 4,8.618157 4,8.5 4,7.119288 5.1192882,6 6.5,6 7.880712,6 9,7.119288 9,8.5 9,8.672589 8.9708,8.837256 8.9375,9 L 11,9 C 12.662,9 14,7.862071 14,6.4375 14,5.309116 13.143764,4.3479801 11.96875,4.0000001 11.97135,3.9511851 12,3.8931798 12,3.8437501 12,2.2666072 10.656,1.0000001 9,1.0000001 z M 8.000001,11.5 c 0,0.828427 0.671573,1.5 1.499999,1.5 0.828429,0 1.500001,-0.671573 1.500001,-1.5 0,-0.828427 -0.671572,-1.5 -1.500001,-1.5 -0.828426,0 -1.499999,0.671573 -1.499999,1.5 l 0,0 z M 5,8.5 C 5,9.328427 5.6715729,10 6.5,10 7.328427,10 8,9.328427 8,8.5 8,7.671573 7.328427,7 6.5,7 5.6715729,7 5,7.671573 5,8.5 l 0,0 z m -1,5 C 4,14.328427 4.6715728,15 5.5,15 6.328427,15 7,14.328427 7,13.5 7,12.671573 6.328427,12 5.5,12 4.6715728,12 4,12.671573 4,13.5 l 0,0 z"
     id="path2397"
     style="fill:#3c3c3c;fill-opacity:1;fill-rule:evenodd;stroke:none;stroke-width:4;marker:none;visibility:visible;display:inline;overflow:visible;enable-background:accumulate" />
</svg>
