<?xml version="1.0" encoding="UTF-8" standalone="no"?>
<!-- Created with Inkscape (http://www.inkscape.org/) -->
<svg
   xmlns:svg="http://www.w3.org/2000/svg"
   xmlns="http://www.w3.org/2000/svg"
   version="1.0"
   width="16"
   height="16"
   id="svg3187">
  <defs
     id="defs3189" />
  <path
     d="M 12.9497,12.949749 L 12.384101,12.38405"
     id="path2480"
     style="opacity:0.6;fill:none;stroke:#eae3d0;stroke-width:4;stroke-linecap:round;stroke-linejoin:miter;marker:none;stroke-miterlimit:4;stroke-dasharray:none;stroke-dashoffset:0;stroke-opacity:1;visibility:visible;display:inline;overflow:visible;enable-background:accumulate" />
  <path
     d="M 12.454801,3.5452299 L 12.9497,3.0502498"
     id="path2476"
     style="opacity:0.6;fill:none;stroke:#eae3d0;stroke-width:4;stroke-linecap:round;stroke-linejoin:miter;marker:none;stroke-miterlimit:4;stroke-dasharray:none;stroke-dashoffset:0;stroke-opacity:1;visibility:visible;display:inline;overflow:visible;enable-background:accumulate" />
  <path
     d="M 3.6159,3.6159299 L 3.0503,3.0502498"
     id="path2474"
     style="opacity:0.6;fill:none;stroke:#eae3d0;stroke-width:4;stroke-linecap:round;stroke-linejoin:miter;marker:none;stroke-miterlimit:4;stroke-dasharray:none;stroke-dashoffset:0;stroke-opacity:1;visibility:visible;display:inline;overflow:visible;enable-background:accumulate" />
  <path
     d="M 1,7.9999998 L 2,8"
     id="path2470"
     style="opacity:0.6;fill:none;stroke:#eae3d0;stroke-width:4;stroke-linecap:round;stroke-linejoin:miter;marker:none;stroke-miterlimit:4;stroke-dasharray:none;stroke-dashoffset:0;stroke-opacity:1;visibility:visible;display:inline;overflow:visible;enable-background:accumulate" />
  <path
     d="M 14,8 L 15,7.9999998"
     id="path2468"
     style="opacity:0.6;fill:none;stroke:#eae3d0;stroke-width:4;stroke-linecap:round;stroke-linejoin:miter;marker:none;stroke-miterlimit:4;stroke-dasharray:none;stroke-dashoffset:0;stroke-opacity:1;visibility:visible;display:inline;overflow:visible;enable-background:accumulate" />
  <path
     d="M 8,2 L 8,0.9999999"
     id="path3185"
     style="opacity:0.6;fill:none;stroke:#eae3d0;stroke-width:4;stroke-linecap:round;stroke-linejoin:miter;marker:none;stroke-miterlimit:4;stroke-dasharray:none;stroke-dashoffset:0;stroke-opacity:1;visibility:visible;display:inline;overflow:visible;enable-background:accumulate" />
  <path
     d="M 8,4 C 5.7908711,3.9999999 4,5.7908616 4,8 C 4,8.2867462 4.0364069,8.5740998 4.09375,8.84375 C 4.674795,8.3162128 5.3949988,7.9375 6.25,7.9375 C 7.8651086,7.9375 9.174891,9.1246337 9.4375,10.65625 C 9.7455301,10.832507 10.0034,11.067193 10.25,11.3125 C 10.255247,11.317719 10.276042,11.307249 10.28125,11.3125 C 11.333643,10.591924 12,9.3717583 12,8 C 12,5.7908614 10.209129,4 8,4 z"
     id="path2876-6-6-4-0"
     style="fill:#3a3935;fill-opacity:1;fill-rule:nonzero;stroke:none;stroke-width:11.49051189;stroke-linecap:round;stroke-linejoin:miter;marker:none;marker-start:none;marker-mid:none;marker-end:none;stroke-miterlimit:4;stroke-dasharray:none;stroke-dashoffset:0;stroke-opacity:1;visibility:visible;display:inline;overflow:visible;enable-background:accumulate" />
  <path
     d="M 12.9497,12.949749 L 12.384101,12.38405"
     id="path2496"
     style="fill:none;stroke:#3a3935;stroke-width:2;stroke-linecap:round;stroke-linejoin:miter;marker:none;stroke-miterlimit:4;stroke-dasharray:none;stroke-dashoffset:0;stroke-opacity:1;visibility:visible;display:inline;overflow:visible;enable-background:accumulate" />
  <path
     d="M 12.454801,3.5452299 L 12.9497,3.0502498"
     id="path2492"
     style="fill:none;stroke:#3a3935;stroke-width:2;stroke-linecap:round;stroke-linejoin:miter;marker:none;stroke-miterlimit:4;stroke-dasharray:none;stroke-dashoffset:0;stroke-opacity:1;visibility:visible;display:inline;overflow:visible;enable-background:accumulate" />
  <path
     d="M 3.6159,3.6159299 L 3.0503,3.0502498"
     id="path2490"
     style="fill:none;stroke:#3a3935;stroke-width:2;stroke-linecap:round;stroke-linejoin:miter;marker:none;stroke-miterlimit:4;stroke-dasharray:none;stroke-dashoffset:0;stroke-opacity:1;visibility:visible;display:inline;overflow:visible;enable-background:accumulate" />
  <path
     d="M 1,7.9999998 L 2,8"
     id="path2486"
     style="fill:none;stroke:#3a3935;stroke-width:2;stroke-linecap:round;stroke-linejoin:miter;marker:none;stroke-miterlimit:4;stroke-dasharray:none;stroke-dashoffset:0;stroke-opacity:1;visibility:visible;display:inline;overflow:visible;enable-background:accumulate" />
  <path
     d="M 14,8 L 15,7.9999998"
     id="path2484"
     style="fill:none;stroke:#3a3935;stroke-width:2;stroke-linecap:round;stroke-linejoin:miter;marker:none;stroke-miterlimit:4;stroke-dasharray:none;stroke-dashoffset:0;stroke-opacity:1;visibility:visible;display:inline;overflow:visible;enable-background:accumulate" />
  <path
     d="M 8,2 L 8,0.9999999"
     id="path2826"
     style="fill:none;stroke:#3a3935;stroke-width:2;stroke-linecap:round;stroke-linejoin:miter;marker:none;stroke-miterlimit:4;stroke-dasharray:none;stroke-dashoffset:0;stroke-opacity:1;visibility:visible;display:inline;overflow:visible;enable-background:accumulate" />
  <g
     transform="matrix(1.1250049,0,0,1.1250048,-1689.6335,-201.25094)"
     id="g3181"
     style="opacity:0.6;fill:none;fill-opacity:1;fill-rule:nonzero;stroke:#eae3d0;stroke-width:0.88888514;stroke-linecap:round;stroke-linejoin:miter;marker:none;marker-start:none;marker-mid:none;marker-end:none;stroke-miterlimit:4;stroke-dasharray:none;stroke-dashoffset:0;stroke-opacity:1;visibility:visible;display:inline;overflow:visible;enable-background:accumulate">
    <path
       d="M -2.8284264,179.43886 C -2.8284263,192.1309 -13.117357,202.41983 -25.809397,202.41983 C -38.501436,202.41983 -48.790367,192.1309 -48.790367,179.43886 C -48.790367,166.74682 -38.501436,156.45789 -25.809397,156.45789 C -13.117357,156.45789 -2.8284264,166.74682 -2.8284264,179.43886 L -2.8284264,179.43886 z"
       transform="matrix(0.1740563,0,0,-0.174057,1513.4933,217.23261)"
       id="path3183"
       style="fill:none;fill-opacity:1;fill-rule:nonzero;stroke:#eae3d0;stroke-width:5.10687256;stroke-linecap:round;stroke-linejoin:miter;marker:none;marker-start:none;marker-mid:none;marker-end:none;stroke-miterlimit:4;stroke-dasharray:none;stroke-dashoffset:0;stroke-opacity:1;visibility:visible;display:inline;overflow:visible;enable-background:accumulate" />
  </g>
  <path
     d="M 6.2882411,8.500111 C 5.405912,8.49154 4.596738,8.982423 4.1500327,9.6365743 C 3.362248,9.1597009 2.2050613,9.5761023 1.9110452,10.352864 C 1.6707596,10.719704 2.0941149,11.203411 1.518342,11.348159 C 0.53274717,11.988684 0.20731763,13.270348 0.78720944,14.222384 C 1.2520791,15.053978 2.306686,15.562944 3.3459609,15.493731 C 4.9203279,15.489357 6.4951878,15.502591 8.0692389,15.486914 C 9.3743499,15.422073 10.492341,14.380852 10.498006,13.222547 C 10.541656,12.30239 9.8638535,11.425132 8.9198825,11.064439 C 8.948318,9.8868461 7.9844998,8.6820798 6.6238671,8.52089 C 6.5127241,8.5070156 6.4004803,8.5001052 6.2882411,8.500111 z"
     id="path3203"
     style="opacity:0.6;fill:none;fill-opacity:1;fill-rule:nonzero;stroke:#eae3d0;stroke-width:0.99999976;stroke-linecap:round;stroke-linejoin:miter;marker:none;marker-start:none;marker-mid:none;marker-end:none;stroke-miterlimit:4;stroke-dasharray:none;stroke-dashoffset:0;stroke-opacity:1;visibility:visible;display:inline;overflow:visible;enable-background:accumulate" />
  <path
     d="M 6.2499995,9 C 5.4052717,9 4.6815977,9.4553658 4.2968748,10.111607 C 4.0802399,9.9571476 3.8035998,9.857143 3.4999999,9.857143 C 2.8099999,9.857143 2.25,10.337143 2.2499999,10.928571 C 2.2499999,11.061397 2.2765047,11.186162 2.3281249,11.303571 C 1.5433711,11.60412 1,12.284584 1,13.071428 C 1,14.139857 2.0035,15 3.25,15 L 7.7499999,15 C 8.9964995,15 10,14.139857 10,13.071428 C 10,12.22514 9.3656349,11.510986 8.4843742,11.25 C 8.4863321,11.213389 8.4999998,11.17993 8.4999998,11.142857 C 8.4999998,9.96 7.4919997,9 6.2499995,9 z"
     id="rect3193"
     style="fill:#3a3935;fill-opacity:1;fill-rule:evenodd;stroke:none;stroke-width:4;stroke-linecap:butt;stroke-linejoin:miter;marker:none;marker-start:none;marker-mid:none;marker-end:none;stroke-miterlimit:4;stroke-dasharray:none;stroke-dashoffset:0;stroke-opacity:1;visibility:visible;display:inline;overflow:visible;enable-background:accumulate" />
</svg>
