<?xml version="1.0" encoding="UTF-8" standalone="no"?>
<!-- Created with Inkscape (http://www.inkscape.org/) -->

<svg
   xmlns:dc="http://purl.org/dc/elements/1.1/"
   xmlns:cc="http://creativecommons.org/ns#"
   xmlns:rdf="http://www.w3.org/1999/02/22-rdf-syntax-ns#"
   xmlns:svg="http://www.w3.org/2000/svg"
   xmlns="http://www.w3.org/2000/svg"
   xmlns:sodipodi="http://sodipodi.sourceforge.net/DTD/sodipodi-0.dtd"
   xmlns:inkscape="http://www.inkscape.org/namespaces/inkscape"
   version="1.0"
   width="16"
   height="16"
   id="svg3187"
   inkscape:version="0.48.0 r9654"
   sodipodi:docname="weather-overcast.svg">
  <sodipodi:namedview
     pagecolor="#ffffff"
     bordercolor="#666666"
     borderopacity="1"
     objecttolerance="10"
     gridtolerance="10"
     guidetolerance="10"
     inkscape:pageopacity="0"
     inkscape:pageshadow="2"
     inkscape:window-width="1017"
     inkscape:window-height="602"
     id="namedview7"
     showgrid="false"
     inkscape:zoom="9.3530942"
     inkscape:cx="11"
     inkscape:cy="11.793814"
     inkscape:window-x="0"
     inkscape:window-y="24"
     inkscape:window-maximized="0"
     inkscape:current-layer="svg3187" />
  <metadata
     id="metadata8">
    <rdf:RDF>
      <cc:Work
         rdf:about="">
        <dc:format>image/svg+xml</dc:format>
        <dc:type
           rdf:resource="http://purl.org/dc/dcmitype/StillImage" />
        <dc:title></dc:title>
      </cc:Work>
    </rdf:RDF>
  </metadata>
  <defs
     id="defs3189" />
  <path
     d="M 8,2 C 6.873696,2 5.9192139,2.5937616 5.40625,3.46875 5.1174033,3.2628041 4.74855,3.15625 4.34375,3.15625 c -0.9200001,10e-8 -1.6874999,0.6176786 -1.6875,1.40625 10e-8,0.1771006 0.056173,0.3434552 0.125,0.5 C 1.7349115,5.463232 1,6.388376 1,7.4375 1,8.7684 2.1786846,9.831357 3.6875,9.96875 3.9956974,8.829407 5.1473135,8.093749 6.34375,8.09375 6.616208,8.09375 6.861679,8.242098 7.125,8.3125 7.864399,7.528128 8.826494,6.9375 10,6.9375 c 1.131647,0 2.146962,0.470581 2.875,1.21875 C 12.954138,7.925082 13,7.691191 13,7.4375 13,6.309116 12.143764,5.34798 10.96875,5 10.97136,4.9511852 11,4.8931797 11,4.84375 11,3.2666071 9.656,2 8,2 z m 2,6 C 8.873696,8 7.908797,8.607154 7.395833,9.482142 7.106987,9.276196 6.738133,9.142857 6.333333,9.142857 c -0.9199996,0 -1.6666663,0.64 -1.6666664,1.428571 0,0.177101 0.03534,0.343454 0.1041667,0.499999 C 3.7244948,11.472159 3,12.379446 3,13.42857 3,14.853141 4.338,16 6,16 l 6,0 c 1.662,0 3,-1.146859 3,-2.57143 C 15,12.300186 14.15418,11.34798 12.979166,11 12.981776,10.951185 13,10.906572 13,10.857142 13,9.28 11.656,8 10,8 z"
     id="path2397-9"
     style="opacity:0.3;fill:#ffffff;fill-opacity:1;fill-rule:evenodd;stroke:none;stroke-width:4;marker:none;visibility:visible;display:inline;overflow:visible;enable-background:accumulate"
     inkscape:connector-curvature="0" />
  <path
     d="m 8,0.9999996 c -1.126304,0 -2.0807861,0.5937616 -2.59375,1.46875 -0.2888467,-0.2059459 -0.6577,-0.3125 -1.0625,-0.3125 -0.9200001,10e-8 -1.6874999,0.6176786 -1.6875,1.40625 10e-8,0.1771006 0.056173,0.3434552 0.125,0.5 C 1.7349115,4.4632317 1,5.388376 1,6.4375 1,7.7684 2.1786846,8.831357 3.6875,8.96875 3.9956974,7.829407 5.1473135,7.093749 6.34375,7.09375 6.616208,7.09375 6.861679,7.242098 7.125,7.3125 7.864399,6.528127 8.826494,5.9375 10,5.9375 c 1.131647,0 2.146962,0.470581 2.875,1.21875 C 12.954138,6.925082 13,6.69119 13,6.4375 13,5.309116 12.143764,4.3479796 10.96875,3.9999996 10.97136,3.9511848 11,3.8931793 11,3.8437496 11,2.2666067 9.656,0.9999996 8,0.9999996 z M 10,7 C 8.873696,7 7.908797,7.607154 7.395833,8.482142 7.106987,8.276196 6.738133,8.142857 6.333333,8.142857 c -0.9199996,0 -1.6666663,0.64 -1.6666664,1.428571 0,0.177101 0.03534,0.343454 0.1041667,0.499999 C 3.7244948,10.472159 3,11.379446 3,12.42857 3,13.853141 4.338,15 6,15 l 6,0 c 1.662,0 3,-1.146859 3,-2.57143 C 15,11.300186 14.15418,10.34798 12.979166,10 12.981776,9.951185 13,9.906572 13,9.857142 13,8.28 11.656,7 10,7 z"
     id="path2397"
     style="fill:#3c3c3c;fill-opacity:1;fill-rule:evenodd;stroke:none;stroke-width:4;marker:none;visibility:visible;display:inline;overflow:visible;enable-background:accumulate"
     inkscape:connector-curvature="0" />
</svg>
