<?xml version="1.0" encoding="UTF-8" standalone="no"?>
<!-- Created with Inkscape (http://www.inkscape.org/) -->

<svg
   xmlns:dc="http://purl.org/dc/elements/1.1/"
   xmlns:cc="http://creativecommons.org/ns#"
   xmlns:rdf="http://www.w3.org/1999/02/22-rdf-syntax-ns#"
   xmlns:svg="http://www.w3.org/2000/svg"
   xmlns="http://www.w3.org/2000/svg"
   xmlns:sodipodi="http://sodipodi.sourceforge.net/DTD/sodipodi-0.dtd"
   xmlns:inkscape="http://www.inkscape.org/namespaces/inkscape"
   version="1.1"
   width="32"
   height="16"
   id="svg3014"
   inkscape:version="0.48.0 r9654"
   sodipodi:docname="battery-040-charging.svg">
  <sodipodi:namedview
     pagecolor="#ffffff"
     bordercolor="#666666"
     borderopacity="1"
     objecttolerance="10"
     gridtolerance="10"
     guidetolerance="10"
     inkscape:pageopacity="0"
     inkscape:pageshadow="2"
     inkscape:window-width="1280"
     inkscape:window-height="753"
     id="namedview3007"
     showgrid="false"
     inkscape:zoom="13.181818"
     inkscape:cx="16"
     inkscape:cy="13.54138"
     inkscape:window-x="0"
     inkscape:window-y="24"
     inkscape:window-maximized="1"
     inkscape:current-layer="svg3014" />
  <defs
     id="defs3016" />
  <metadata
     id="metadata3019">
    <rdf:RDF>
      <cc:Work
         rdf:about="">
        <dc:format>image/svg+xml</dc:format>
        <dc:type
           rdf:resource="http://purl.org/dc/dcmitype/StillImage" />
        <dc:title></dc:title>
      </cc:Work>
    </rdf:RDF>
  </metadata>
  <g
     id="g3076"
     style="opacity:0.4"
     transform="matrix(0.38888889,0,0,1,4.2777777,-3)">
    <rect
       width="8"
       height="18"
       rx="0.5"
       ry="1.2857143"
       x="8"
       y="-25"
       transform="matrix(0,1,-1,0,0,0)"
       id="rect3190-4"
       style="opacity:0.3;fill:#ffffff;fill-opacity:1;fill-rule:evenodd;stroke:none;stroke-width:1.69999993;marker:none;visibility:visible;display:inline;overflow:visible;enable-background:accumulate" />
    <rect
       width="8"
       height="18"
       rx="0.5"
       ry="1.2857143"
       x="7"
       y="-25"
       transform="matrix(0,1,-1,0,0,0)"
       id="rect3190"
       style="fill:#3c3c3c;fill-opacity:1;fill-rule:evenodd;stroke:none;stroke-width:1.69999993;marker:none;visibility:visible;display:inline;overflow:visible;enable-background:accumulate" />
  </g>
  <path
     d="M 7,3 C 5.892,3 5,3.892 5,5 l 0,8 c 0,1.108 0.892,2 2,2 l 18,0 c 1.108,0 2,-0.892 2,-2 l 0,-1 0.384328,0 C 28.492328,12 29,11.108 29,10 L 29,8 C 29,6.892 28.574418,6 27.466418,6 L 27,6 27,5 C 27,3.892 26.108,3 25,3 z m 0,1 18,0 c 0.554,0 1,0.446 1,1 l 0,8 c 0,0.554 -0.446,1 -1,1 L 7,14 C 6.446,14 6,13.554 6,13 L 6,5 C 6,4.446 6.446,4 7,4 z m 20,3 c 0.597415,0 1,0.051 1,1 l 0,2 c 0,0.9914 -0.406448,1 -1,1 z"
     id="rect2401-5"
     style="opacity:0.3;fill:#ffffff;fill-opacity:1;fill-rule:nonzero;stroke:none;stroke-width:1;marker:none;visibility:visible;display:inline;overflow:visible;enable-background:accumulate"
     inkscape:connector-curvature="0" />
  <path
     d="M 7,2 C 5.892,2 5,2.892 5,4 l 0,8 c 0,1.108 0.892,2 2,2 l 18,0 c 1.108,0 2,-0.892 2,-2 l 0,-1 0.384328,0 C 28.492328,11 29,10.108 29,9 L 29,7 C 29,5.892 28.574418,5 27.466418,5 L 27,5 27,4 C 27,2.892 26.108,2 25,2 z m 0,1 18,0 c 0.554,0 1,0.446 1,1 l 0,8 c 0,0.554 -0.446,1 -1,1 L 7,13 C 6.446,13 6,12.554 6,12 L 6,4 C 6,3.446 6.446,3 7,3 z m 20,3 c 0.597415,0 1,0.051 1,1 l 0,2 c 0,0.9914 -0.406448,1 -1,1 z"
     id="rect2401"
     style="fill:#3c3c3c;fill-opacity:1;fill-rule:nonzero;stroke:none;stroke-width:1;marker:none;visibility:visible;display:inline;overflow:visible;enable-background:accumulate"
     inkscape:connector-curvature="0" />
  <rect
     width="19.5"
     height="9.500001"
     rx="0.75"
     ry="0.75"
     x="6.25"
     y="3.25"
     id="rect3192"
     style="opacity:0.3;fill:none;stroke:#3c3c3c;stroke-width:0.49999994;stroke-linecap:round;stroke-linejoin:miter;stroke-miterlimit:4;stroke-opacity:1;stroke-dasharray:none;stroke-dashoffset:0;marker:none;visibility:visible;display:inline;overflow:visible;enable-background:accumulate" />
  <path
     inkscape:connector-curvature="0"
     d="m 22.997788,12 -6.999999,-7 0,4 -6.0000007,-3 8.0000007,7 0,-3 4.999999,2 z"
     id="path3172-8"
     style="opacity:0.3;fill:#ffffff;fill-opacity:1;fill-rule:evenodd;stroke:none" />
  <path
     inkscape:connector-curvature="0"
     d="m 22.997788,11.005385 -6.999999,-7 0,4 -6.0000007,-3 8.0000007,7 0,-3 4.999999,2 z"
     id="path3172"
     style="fill:#3c3c3c;fill-opacity:1;fill-rule:evenodd;stroke:none" />
</svg>
