<?xml version="1.0" encoding="UTF-8" standalone="no"?>
<!-- Created with Inkscape (http://www.inkscape.org/) -->

<svg
   xmlns:dc="http://purl.org/dc/elements/1.1/"
   xmlns:cc="http://creativecommons.org/ns#"
   xmlns:rdf="http://www.w3.org/1999/02/22-rdf-syntax-ns#"
   xmlns:svg="http://www.w3.org/2000/svg"
   xmlns="http://www.w3.org/2000/svg"
   xmlns:sodipodi="http://sodipodi.sourceforge.net/DTD/sodipodi-0.dtd"
   xmlns:inkscape="http://www.inkscape.org/namespaces/inkscape"
   width="90"
   height="89.999916"
   id="svg3140"
   version="1.1"
   inkscape:version="0.48.3.1 r9886"
   sodipodi:docname="browser-tabs@30.svg">
  <defs
     id="defs3142">
    <clipPath
       clipPathUnits="userSpaceOnUse"
       id="clipPath2991">
      <path
         inkscape:connector-curvature="0"
         id="path2993"
         d="m 0,968.36224 0,83.99996 16.375,0 c -1.525081,-1.7576 -2.659363,-3.8737 -3.25,-6 -0.996189,-3.5863 -1.09375,-7.3341 -1.09375,-12 l 0,-35.99996 c 0,-4.66586 0.09756,-8.41372 1.09375,-12 0.996189,-3.58628 3.508218,-7.14653 6.90625,-9 C 26.827314,973.6553 34.5,974.39349 48,974.39349 l 6,0 c 10.951245,0 18.075349,-0.45164 24,1.34375 l 0,-7.375 z"
         style="color:#000000;fill:#ff00ff;fill-opacity:1;fill-rule:nonzero;stroke:none;stroke-width:4;marker:none;visibility:visible;display:inline;overflow:visible;enable-background:accumulate"
         sodipodi:nodetypes="cccsssssssccc" />
    </clipPath>
  </defs>
  <sodipodi:namedview
     id="base"
     pagecolor="#ffffff"
     bordercolor="#666666"
     borderopacity="1.0"
     inkscape:pageopacity="0.0"
     inkscape:pageshadow="2"
     inkscape:zoom="7.9580785"
     inkscape:cx="59.405042"
     inkscape:cy="46.041185"
     inkscape:document-units="px"
     inkscape:current-layer="layer1"
     showgrid="true"
     inkscape:window-width="1920"
     inkscape:window-height="1029"
     inkscape:window-x="0"
     inkscape:window-y="24"
     inkscape:window-maximized="1"
     showguides="true"
     inkscape:guide-bbox="true"
     fit-margin-top="0"
     fit-margin-left="0"
     fit-margin-right="0"
     fit-margin-bottom="0">
    <inkscape:grid
       type="xygrid"
       id="grid3178"
       empspacing="6"
       visible="true"
       enabled="true"
       snapvisiblegridlinesonly="true"
       originx="0px"
       originy="-4.0270996e-05px" />
  </sodipodi:namedview>
  <metadata
     id="metadata3145">
    <rdf:RDF>
      <cc:Work
         rdf:about="">
        <dc:format>image/svg+xml</dc:format>
        <dc:type
           rdf:resource="http://purl.org/dc/dcmitype/StillImage" />
        <dc:title />
      </cc:Work>
    </rdf:RDF>
  </metadata>
  <g
     inkscape:label="Layer 1"
     inkscape:groupmode="layer"
     id="layer1"
     transform="translate(0,-962.36224)">
    <rect
       style="color:#000000;fill:none;stroke:none;stroke-width:7.5;marker:none;visibility:visible;display:inline;overflow:visible;enable-background:accumulate"
       id="rect4198"
       width="90"
       height="89.999916"
       x="0"
       y="962.36224" />
    <path
       d="m 18,995.36218 0,35.99992 c 0,18 3,18 30,18 l 6,0 c 27,0 30,0 30,-18 l 0,-35.99992 c 0,-18 -3,-18 -30,-18 l -6,0 c -27,0 -30,0 -30,18 z m 30,-12 6,0 c 24,0 24,0 24,12 l 0,35.99992 c 0,12 0,12 -24,12 l -6,0 c -24,0 -24,0 -24,-12 l 0,-35.99992 c 0,-12 0,-12 24,-12 z"
       id="path3759"
       style="fill:#808080;fill-opacity:1"
       inkscape:connector-curvature="0"
       sodipodi:nodetypes="cssssssccccccccccc" />
    <path
       sodipodi:nodetypes="cssssssccccccccccc"
       inkscape:connector-curvature="0"
       style="fill:#808080;fill-opacity:1"
       id="path3762"
       d="m 6,986.36218 0,35.99992 c 0,18 3,18 30,18 l 6,0 c 27,0 30,0 30,-18 l 0,-35.99992 c 0,-18 -3,-18 -30,-18 l -6,0 c -27,0 -30,0 -30,18 z m 30,-12 6,0 c 24,0 24,0 24,12 l 0,35.99992 c 0,12 0,12 -24,12 l -6,0 c -24,0 -24,0 -24,-12 l 0,-35.99992 c 0,-12 0,-12 24,-12 z"
       clip-path="url(#clipPath2991)"
       transform="translate(0,-3)" />
  </g>
</svg>
