<?xml version="1.0" encoding="UTF-8" standalone="no"?>
<!-- Created with Inkscape (http://www.inkscape.org/) -->

<svg
   xmlns:dc="http://purl.org/dc/elements/1.1/"
   xmlns:cc="http://creativecommons.org/ns#"
   xmlns:rdf="http://www.w3.org/1999/02/22-rdf-syntax-ns#"
   xmlns:svg="http://www.w3.org/2000/svg"
   xmlns="http://www.w3.org/2000/svg"
   xmlns:sodipodi="http://sodipodi.sourceforge.net/DTD/sodipodi-0.dtd"
   xmlns:inkscape="http://www.inkscape.org/namespaces/inkscape"
   width="90"
   height="90"
   id="svg3140"
   version="1.1"
   inkscape:version="0.48.3.1 r9886"
   sodipodi:docname="camcorder@30.svg">
  <defs
     id="defs3142" />
  <sodipodi:namedview
     id="base"
     pagecolor="#ffffff"
     bordercolor="#666666"
     borderopacity="1.0"
     inkscape:pageopacity="0.0"
     inkscape:pageshadow="2"
     inkscape:zoom="5.0931702"
     inkscape:cx="64.272346"
     inkscape:cy="48.378457"
     inkscape:document-units="px"
     inkscape:current-layer="g4978"
     showgrid="true"
     inkscape:window-width="1920"
     inkscape:window-height="1029"
     inkscape:window-x="0"
     inkscape:window-y="24"
     inkscape:window-maximized="1"
     showguides="true"
     inkscape:guide-bbox="true"
     fit-margin-top="0"
     fit-margin-left="0"
     fit-margin-right="0"
     fit-margin-bottom="0">
    <inkscape:grid
       type="xygrid"
       id="grid3178"
       empspacing="6"
       visible="true"
       enabled="true"
       snapvisiblegridlinesonly="true"
       originx="0px"
       originy="-1.7382813e-05px"
       color="#ff0000"
       opacity="0.27843137"
       empcolor="#ff0000"
       empopacity="0.45882353" />
  </sodipodi:namedview>
  <metadata
     id="metadata3145">
    <rdf:RDF>
      <cc:Work
         rdf:about="">
        <dc:format>image/svg+xml</dc:format>
        <dc:type
           rdf:resource="http://purl.org/dc/dcmitype/StillImage" />
        <dc:title />
      </cc:Work>
    </rdf:RDF>
  </metadata>
  <g
     inkscape:label="Layer 1"
     inkscape:groupmode="layer"
     id="layer1"
     transform="translate(0,-962.36218)">
    <rect
       style="color:#000000;fill:none;stroke:none;stroke-width:7.5;marker:none;visibility:visible;display:inline;overflow:visible;enable-background:accumulate"
       id="rect4198"
       width="89.688538"
       height="90"
       x="0"
       y="962.36218" />
    <g
       id="g4978"
       transform="translate(-60,548.00002)">
      <path
         style="fill:#808080;fill-opacity:1"
         d="M 33 12 C 6 12 3 12 3 30 L 3 60 C 3 78 6 78 33 78 L 48 78 C 75 78 78 78 78 60 L 78 30 C 78 12 75 12 48 12 L 33 12 z M 64.5 21 C 66.98528 21 69 22.92605 69 25.4375 C 69 27.94896 66.98528 30 64.5 30 C 62.0147 30 60 27.94896 60 25.4375 C 60 22.92605 62.0147 21 64.5 21 z M 22.78125 36 C 24.045898 35.978 25.4375 36 27 36 L 39 36 C 51.5 36 54 36.00001 54 47 L 54 58 C 54 68.99999 51.5 69 39 69 L 27 69 C 14.5 69 12 68.99999 12 58 L 12 47 C 12 37.37501 13.92871 36.15039 22.78125 36 z "
         transform="translate(60,414.36216)"
         id="path3016" />
      <path
         inkscape:transform-center-x="2.4978393"
         transform="matrix(2.5864287,0,0,4.1586165,-146.01225,-264.63003)"
         d="m 113.91548,179.14423 c -0.52479,0.30299 -8.74643,-4.44378 -8.74643,-5.04975 0,-0.60597 8.22164,-5.35273 8.74643,-5.04975 0.52478,0.30299 0.52478,9.79652 0,10.0995 z"
         inkscape:randomized="0"
         inkscape:rounded="0.06"
         inkscape:flatsided="true"
         sodipodi:arg2="2.0943951"
         sodipodi:arg1="1.0471976"
         sodipodi:r2="2.9154758"
         sodipodi:r1="5.8309517"
         sodipodi:cy="174.09448"
         sodipodi:cx="111"
         sodipodi:sides="3"
         id="path3807"
         style="color:#000000;fill:#808080;fill-opacity:1;fill-rule:nonzero;stroke:none;stroke-width:3;marker:none;visibility:visible;display:inline;overflow:visible;enable-background:accumulate"
         sodipodi:type="star" />
      <path
         style="fill:#808080;fill-opacity:1"
         d="m 63.00001,456.36217 3,0 0,-18 -3,0 c -3,0 -3.00002,1 -3.00002,5 l 0,8 c 2e-5,4 2e-5,5 3.00002,5 z"
         id="path3779"
         inkscape:connector-curvature="0"
         sodipodi:nodetypes="cccsscc" />
      <rect
         style="color:#000000;fill:none;stroke:none;stroke-width:6;marker:none;visibility:visible;display:inline;overflow:visible;enable-background:accumulate"
         id="rect3036"
         width="90"
         height="90"
         x="0"
         y="1.7382814e-05"
         transform="translate(60,414.36216)" />
    </g>
    <rect
       y="962.36218"
       x="140"
       height="90"
       width="89.688538"
       id="rect3797"
       style="color:#000000;fill:none;stroke:none;stroke-width:7.5;marker:none;visibility:visible;display:inline;overflow:visible;enable-background:accumulate" />
  </g>
</svg>
