<?xml version="1.0" encoding="UTF-8" standalone="no"?>
<!-- Created with Inkscape (http://www.inkscape.org/) -->

<svg
   xmlns:dc="http://purl.org/dc/elements/1.1/"
   xmlns:cc="http://creativecommons.org/ns#"
   xmlns:rdf="http://www.w3.org/1999/02/22-rdf-syntax-ns#"
   xmlns:svg="http://www.w3.org/2000/svg"
   xmlns="http://www.w3.org/2000/svg"
   xmlns:sodipodi="http://sodipodi.sourceforge.net/DTD/sodipodi-0.dtd"
   xmlns:inkscape="http://www.inkscape.org/namespaces/inkscape"
   width="90"
   height="90"
   id="svg3140"
   version="1.1"
   inkscape:version="0.48+devel r12221"
   sodipodi:docname="camera-flip.svg">
  <defs
     id="defs3142">
    <clipPath
       clipPathUnits="userSpaceOnUse"
       id="clipPath3841-3">
      <path
         style="opacity:0.52702703;color:#000000;fill:#0000ff;stroke:none;stroke-width:6;marker:none;visibility:visible;display:inline;overflow:visible;enable-background:accumulate"
         d="M -6,30 -6,60 96,60 96,30 54,30 54,48 36,48 36,30 -6,30 Z"
         id="path3843-3"
         inkscape:connector-curvature="0" />
    </clipPath>
  </defs>
  <sodipodi:namedview
     id="base"
     pagecolor="#ffffff"
     bordercolor="#666666"
     borderopacity="1.0"
     inkscape:pageopacity="0.0"
     inkscape:pageshadow="2"
     inkscape:zoom="5.0931704"
     inkscape:cx="13.920602"
     inkscape:cy="36.823785"
     inkscape:document-units="px"
     inkscape:current-layer="layer1"
     showgrid="true"
     inkscape:window-width="1920"
     inkscape:window-height="1029"
     inkscape:window-x="0"
     inkscape:window-y="24"
     inkscape:window-maximized="1"
     fit-margin-top="0"
     fit-margin-left="0"
     fit-margin-right="0"
     fit-margin-bottom="0">
    <inkscape:grid
       type="xygrid"
       id="grid3178"
       empspacing="6"
       visible="true"
       enabled="true"
       snapvisiblegridlinesonly="true"
       originx="0px"
       originy="-1.7382813e-05px" />
  </sodipodi:namedview>
  <metadata
     id="metadata3145">
    <rdf:RDF>
      <cc:Work
         rdf:about="">
        <dc:format>image/svg+xml</dc:format>
        <dc:type
           rdf:resource="http://purl.org/dc/dcmitype/StillImage" />
        <dc:title />
      </cc:Work>
    </rdf:RDF>
  </metadata>
  <g
     inkscape:label="Layer 1"
     inkscape:groupmode="layer"
     id="layer1"
     transform="translate(0,-962.36218)">
    <path
       style="font-size:xx-small;font-style:normal;font-variant:normal;font-weight:normal;font-stretch:normal;text-indent:0;text-align:start;text-decoration:none;line-height:normal;letter-spacing:normal;word-spacing:normal;text-transform:none;direction:ltr;block-progression:tb;writing-mode:lr-tb;text-anchor:start;baseline-shift:baseline;color:#000000;color-interpolation:sRGB;color-interpolation-filters:linearRGB;fill:#808080;fill-opacity:1;stroke:none;stroke-width:6;marker:none;visibility:visible;display:inline;overflow:visible;enable-background:accumulate;clip-rule:nonzero;font-family:sans-serif;-inkscape-font-specification:sans-serif"
       clip-path="none"
       d="M 36 33.15625 C 24.713889 33.666532 14.349915 35.179465 7.59375 37.6875 L 7.5 37.71875 C 4.3678246 38.88785 2.0728529 40.0361 0.71875 42.375 C 0.03430217 43.5572 -0.19469078 45.2139 0.25 46.5625 C 0.69469079 47.9111 1.5765225 48.8988 2.5625 49.6875 C 6.5064101 52.8421 13.356119 54.51055 23.625 55.78125 L 24.375 49.8125 C 14.630145 48.6067 8.0544852 46.33165 6.375 45.03125 C 6.8348247 44.66965 7.7326427 44.0266 9.65625 43.3125 C 15.184974 41.260119 25.045868 39.818354 36 39.28125 L 36 33.15625 z M 54 33.1875 L 54 39.25 C 57.998726 39.429011 61.924799 39.729638 65.625 40.1875 C 75.369855 41.3933 81.945515 43.66835 83.625 44.96875 C 83.165176 45.33045 82.267357 45.9734 80.34375 46.6875 C 73.595863 49.1925 59.77412 51 45 51 L 45 57 C 60.231326 57 74.151413 55.3769 82.40625 52.3125 C 85.591507 51.1301 87.912355 49.9895 89.28125 47.625 C 89.965698 46.4428 90.194691 44.7862 89.75 43.4375 C 89.305309 42.0889 88.423477 41.1011 87.4375 40.3125 C 83.493589 37.15784 76.643882 35.48943 66.375 34.21875 L 66 34.1875 C 62.130574 33.718581 58.09173 33.390954 54 33.1875 z "
       transform="translate(0,962.36218)"
       id="path3834" />
    <rect
       style="color:#000000;fill:none;stroke:none;stroke-width:7.5;marker:none;visibility:visible;display:inline;overflow:visible;enable-background:accumulate"
       id="rect4198"
       width="90"
       height="90"
       x="0"
       y="962.36218" />
    <path
       id="path3153"
       sodipodi:nodetypes="cccc"
       inkscape:connector-curvature="0"
       d="m 53.847817,1004.0539 v 22.1195 l -17.695635,-11.0598 17.695635,-11.0597 z" />
    <path
       sodipodi:type="star"
       style="color:#000000;fill:#808080;fill-opacity:1;fill-rule:nonzero;stroke:none;stroke-width:3;marker:none;visibility:visible;display:inline;overflow:visible;enable-background:accumulate;opacity:1"
       id="path4984"
       sodipodi:sides="3"
       sodipodi:cx="111"
       sodipodi:cy="174.09448"
       sodipodi:r1="5.8309517"
       sodipodi:r2="2.9154758"
       sodipodi:arg1="1.0471976"
       sodipodi:arg2="2.0943951"
       inkscape:flatsided="true"
       inkscape:rounded="0.06"
       inkscape:randomized="0"
       d="m 113.91548,179.14423 c -0.52479,0.30299 -8.74643,-4.44378 -8.74643,-5.04975 0,-0.60597 8.22164,-5.35273 8.74643,-5.04975 C 114.44026,169.34772 114.44026,178.84125 113.91548,179.14423 Z"
       transform="matrix(2.2975888,0,0,2.3698341,-207.63522,602.78713)"
       inkscape:transform-center-x="2.2188816" />
    <path
       style="color:#000000;fill:#808080;fill-opacity:1;fill-rule:nonzero;stroke:none;stroke-width:6;marker:none;visibility:visible;display:inline;overflow:visible;enable-background:accumulate"
       d="m 42,0 0,41.28125 c 2.119688,-1.246166 4.19894,-2.426818 6,-3.34375 L 48,0 z M 42,64.71875 42,75 l 6,0 0,-6.9375 C 46.19894,67.145568 44.119688,65.964916 42,64.71875 z M 42,81 l 0,9 6,0 0,-9 z"
       id="rect3056"
       transform="translate(0,962.36218)"
       inkscape:connector-curvature="0"
       sodipodi:nodetypes="ccccccccccccccc" />
  </g>
  <g
     inkscape:groupmode="layer"
     id="layer2"
     inkscape:label="Clips"
     style="display:none"
     sodipodi:insensitive="true">
    <path
       sodipodi:type="arc"
       style="color:#000000;fill:none;stroke:#808080;stroke-width:6;marker:none;visibility:visible;display:inline;overflow:visible;enable-background:accumulate"
       id="path3834-1"
       sodipodi:cx="45"
       sodipodi:cy="45.000019"
       sodipodi:rx="42"
       sodipodi:ry="9"
       d="m 24,52.794248 a 42,9 0 1 1 21.000001,1.205771"
       transform="matrix(0.99983801,0,0,1.0000231,0.00728951,-0.00104)"
       sodipodi:start="2.0943951"
       sodipodi:end="7.8539816"
       sodipodi:open="true"
       clip-path="url(#clipPath3841-3)" />
    <rect
       style="color:#000000;fill:none;stroke:none;stroke-width:7.5;marker:none;visibility:visible;display:inline;overflow:visible;enable-background:accumulate"
       id="rect4198-5"
       width="90"
       height="90"
       x="0"
       y="2.6171874e-06" />
    <path
       id="path3153-9"
       sodipodi:nodetypes="cccc"
       inkscape:connector-curvature="0"
       d="m 53.847817,41.69172 0,22.1195 L 36.152182,52.75142 53.847817,41.69172 Z" />
    <path
       sodipodi:type="star"
       style="color:#000000;fill:#808080;fill-opacity:1;fill-rule:nonzero;stroke:none;stroke-width:3;marker:none;visibility:visible;display:inline;overflow:visible;enable-background:accumulate"
       id="path4984-3"
       sodipodi:sides="3"
       sodipodi:cx="111"
       sodipodi:cy="174.09448"
       sodipodi:r1="5.8309517"
       sodipodi:r2="2.9154758"
       sodipodi:arg1="1.0471976"
       sodipodi:arg2="2.0943951"
       inkscape:flatsided="true"
       inkscape:rounded="0.06"
       inkscape:randomized="0"
       d="m 113.91548,179.14423 c -0.52479,0.30299 -8.74643,-4.44378 -8.74643,-5.04975 0,-0.60597 8.22164,-5.35273 8.74643,-5.04975 C 114.44026,169.34772 114.44026,178.84125 113.91548,179.14423 Z"
       transform="matrix(2.2975888,0,0,2.3698341,-207.63522,-359.57505)"
       inkscape:transform-center-x="2.2188816" />
    <path
       style="color:#000000;fill:#808080;fill-opacity:1;fill-rule:nonzero;stroke:none;stroke-width:6;marker:none;visibility:visible;display:inline;overflow:visible;enable-background:accumulate"
       d="m 42,0 0,41.28125 c 2.119688,-1.246166 4.19894,-2.426818 6,-3.34375 L 48,0 Z M 42,64.71875 42,75 l 6,0 0,-6.9375 C 46.19894,67.145568 44.119688,65.964916 42,64.71875 Z M 42,81 42,90 48,90 48,81 Z"
       id="rect3056-0"
       inkscape:connector-curvature="0"
       sodipodi:nodetypes="ccccccccccccccc" />
  </g>
</svg>
