<?xml version="1.0" encoding="UTF-8" standalone="no"?>
<!-- Created with Inkscape (http://www.inkscape.org/) -->

<svg
   xmlns:dc="http://purl.org/dc/elements/1.1/"
   xmlns:cc="http://creativecommons.org/ns#"
   xmlns:rdf="http://www.w3.org/1999/02/22-rdf-syntax-ns#"
   xmlns:svg="http://www.w3.org/2000/svg"
   xmlns="http://www.w3.org/2000/svg"
   xmlns:sodipodi="http://sodipodi.sourceforge.net/DTD/sodipodi-0.dtd"
   xmlns:inkscape="http://www.inkscape.org/namespaces/inkscape"
   width="90"
   height="90.000031"
   id="svg3615"
   version="1.1"
   inkscape:version="0.48.3.1 r9886"
   sodipodi:docname="contact@30.svg">
  <defs
     id="defs3617">
    <clipPath
       clipPathUnits="userSpaceOnUse"
       id="clipPath2995">
      <path
         style="color:#000000;fill:#ff00ff;fill-opacity:1;fill-rule:nonzero;stroke:none;stroke-width:4;marker:none;visibility:visible;display:inline;overflow:visible;enable-background:accumulate"
         d="m 222,818.36215 0,54 126,0 0,-54 -43.875,0 c -0.0316,0.0521 -0.062,0.1043 -0.0937,0.15625 -2.2906,3.75334 -4.87723,7.16686 -7.875,9.875 -2.99777,2.70814 -6.52444,5 -11.125,5 -4.60056,0 -8.12214,-2.29391 -11.125,-5 -3.00286,-2.70609 -5.60728,-6.12218 -7.90625,-9.875 -0.0318,-0.0519 -0.062,-0.1042 -0.0937,-0.15625 l -43.90625,0 z"
         id="path2997"
         inkscape:connector-curvature="0" />
    </clipPath>
  </defs>
  <sodipodi:namedview
     id="base"
     pagecolor="#ffffff"
     bordercolor="#666666"
     borderopacity="1.0"
     inkscape:pageopacity="0.0"
     inkscape:pageshadow="2"
     inkscape:zoom="7.9580786"
     inkscape:cx="55.101665"
     inkscape:cy="48.918863"
     inkscape:document-units="px"
     inkscape:current-layer="g4271"
     showgrid="true"
     fit-margin-top="0"
     fit-margin-left="0"
     fit-margin-right="0"
     fit-margin-bottom="0"
     inkscape:window-width="1920"
     inkscape:window-height="1029"
     inkscape:window-x="0"
     inkscape:window-y="24"
     inkscape:window-maximized="1">
    <inkscape:grid
       type="xygrid"
       id="grid2986"
       empspacing="6"
       visible="true"
       enabled="true"
       snapvisiblegridlinesonly="true"
       originx="0px"
       originy="2.6171875e-06px" />
  </sodipodi:namedview>
  <metadata
     id="metadata3620">
    <rdf:RDF>
      <cc:Work
         rdf:about="">
        <dc:format>image/svg+xml</dc:format>
        <dc:type
           rdf:resource="http://purl.org/dc/dcmitype/StillImage" />
        <dc:title />
      </cc:Work>
    </rdf:RDF>
  </metadata>
  <g
     inkscape:label="Layer 1"
     inkscape:groupmode="layer"
     id="layer1"
     transform="translate(1978.2857,336.49495)">
    <g
       id="g4271"
       transform="translate(-2218.2857,-1106.8571)">
      <path
         style="color:#000000;fill:#808080;fill-opacity:1;fill-rule:nonzero;stroke:none;stroke-width:2;marker:none;visibility:visible;display:inline;overflow:visible;enable-background:accumulate"
         d="m 246,851.36218 c 0,9 0,9 12,9 l 54,0 c 12,0 12,0 12,-9 l 0,-6 c 0,-15 -6,-21 -30,-21 l -18,0 c -24,0 -30,6 -30,21 z"
         id="rect3461-3-1"
         inkscape:connector-curvature="0"
         sodipodi:nodetypes="csscccccc"
         clip-path="url(#clipPath2995)" />
      <rect
         y="770.36218"
         x="240"
         height="90"
         width="90"
         id="rect4269"
         style="color:#000000;fill:none;stroke:none;stroke-width:4;marker:none;visibility:visible;display:inline;overflow:visible;enable-background:accumulate" />
      <path
         inkscape:transform-center-y="21.408856"
         inkscape:transform-center-x="-0.0067782248"
         id="path3447-0-6"
         d="m 285.00024,770.36215 c -14.99976,-3e-5 -20.99976,6.00003 -20.99976,21.00003 l 0,3 c 0,12 12.03506,33 21.01729,33 8.98223,0 20.98223,-21 20.98223,-33 l 0,-3 c 0,-15 -6,-21 -20.99976,-21.00003 z"
         style="color:#000000;fill:#808080;fill-opacity:1;fill-rule:nonzero;stroke:none;stroke-width:4;marker:none;visibility:visible;display:inline;overflow:visible;enable-background:accumulate"
         inkscape:connector-curvature="0"
         sodipodi:nodetypes="zsszssz" />
    </g>
  </g>
</svg>
