<?xml version="1.0" encoding="UTF-8" standalone="no"?>
<!-- Created with Inkscape (http://www.inkscape.org/) -->

<svg
   xmlns:dc="http://purl.org/dc/elements/1.1/"
   xmlns:cc="http://creativecommons.org/ns#"
   xmlns:rdf="http://www.w3.org/1999/02/22-rdf-syntax-ns#"
   xmlns:svg="http://www.w3.org/2000/svg"
   xmlns="http://www.w3.org/2000/svg"
   xmlns:sodipodi="http://sodipodi.sourceforge.net/DTD/sodipodi-0.dtd"
   xmlns:inkscape="http://www.inkscape.org/namespaces/inkscape"
   width="90"
   height="90.000015"
   id="svg3140"
   version="1.1"
   inkscape:version="0.48.3.1 r9886"
   sodipodi:docname="delete@30.svg">
  <defs
     id="defs3142" />
  <sodipodi:namedview
     id="base"
     pagecolor="#ffffff"
     bordercolor="#666666"
     borderopacity="1.0"
     inkscape:pageopacity="0.0"
     inkscape:pageshadow="2"
     inkscape:zoom="4.0745363"
     inkscape:cx="93.311234"
     inkscape:cy="28.764012"
     inkscape:document-units="px"
     inkscape:current-layer="g4978"
     showgrid="true"
     inkscape:window-width="1920"
     inkscape:window-height="1029"
     inkscape:window-x="0"
     inkscape:window-y="24"
     inkscape:window-maximized="1"
     fit-margin-top="0"
     fit-margin-left="0"
     fit-margin-right="0"
     fit-margin-bottom="0">
    <inkscape:grid
       type="xygrid"
       id="grid3178"
       empspacing="6"
       visible="true"
       enabled="true"
       snapvisiblegridlinesonly="true"
       originx="0px"
       originy="-5.6843419e-14px"
       color="#ff0000"
       opacity="0.34901961"
       empcolor="#ff0000"
       empopacity="0.50196078" />
  </sodipodi:namedview>
  <metadata
     id="metadata3145">
    <rdf:RDF>
      <cc:Work
         rdf:about="">
        <dc:format>image/svg+xml</dc:format>
        <dc:type
           rdf:resource="http://purl.org/dc/dcmitype/StillImage" />
        <dc:title />
      </cc:Work>
    </rdf:RDF>
  </metadata>
  <g
     inkscape:label="Layer 1"
     inkscape:groupmode="layer"
     id="layer1"
     transform="translate(0,-962.36218)">
    <rect
       style="color:#000000;fill:none;stroke:none;stroke-width:7.5;marker:none;visibility:visible;display:inline;overflow:visible;enable-background:accumulate"
       id="rect4198"
       width="90"
       height="89.999908"
       x="0"
       y="962.36218" />
    <g
       id="g4978"
       transform="translate(-60,548.00002)">
      <path
         style="font-size:medium;font-style:normal;font-variant:normal;font-weight:normal;font-stretch:normal;text-indent:0;text-align:start;text-decoration:none;line-height:normal;letter-spacing:normal;word-spacing:normal;text-transform:none;direction:ltr;block-progression:tb;writing-mode:lr-tb;text-anchor:start;baseline-shift:baseline;color:#000000;fill:#808080;fill-opacity:1;stroke:none;stroke-width:2;marker:none;visibility:visible;display:inline;overflow:visible;enable-background:accumulate;font-family:Sans;-inkscape-font-specification:Sans"
         d="m 101,414.36218 c -6,0 -8,0 -8,4.99998 l 0,7 3,0 0,-6 18,0 0,6 3,0 0,-7 c 0,-4.99998 -2,-4.99998 -8,-4.99998 z"
         id="path4385"
         inkscape:connector-curvature="0"
         sodipodi:nodetypes="ssccccccsss" />
      <path
         style="color:#000000;fill:#808080;fill-opacity:1;fill-rule:nonzero;stroke:none;stroke-width:4;marker:none;visibility:visible;display:inline;overflow:visible;enable-background:accumulate"
         d="m 12,33 0,39 c 0,17.99999 3,18 30,18 l 6,0 c 27,0 30,-1e-5 30,-18 l 0,-39 -12,0 0,36 c 0,3.00002 -1,2.99998 -3,3 -2,2e-5 -3,2e-5 -3,-3 l 0,-36 -12,0 0,36 c 0,3.00002 -1,2.99998 -3,3 -2,2e-5 -3,2e-5 -3,-3 l 0,-36 -12,0 0,36 c 0,3.000015 -1,2.999985 -3,3 -2,1.5e-5 -2.916698,-0.0011 -3,-3 l 0,-36 z"
         transform="translate(60,414.36216)"
         id="rect2988"
         inkscape:connector-curvature="0"
         sodipodi:nodetypes="cssssccsssccsssccssscc" />
      <path
         style="color:#000000;fill:#808080;fill-opacity:1;fill-rule:nonzero;stroke:none;stroke-width:4;marker:none;visibility:visible;display:inline;overflow:visible;enable-background:accumulate"
         d="m 99,423.36216 c -27,0 -30,10e-6 -30,18 l 72,0 c 0,-17.99999 -3,-18 -30,-18 z"
         id="path3783"
         inkscape:connector-curvature="0"
         sodipodi:nodetypes="sccss" />
      <rect
         style="color:#000000;fill:none;stroke:none;stroke-width:6;marker:none;visibility:visible;display:inline;overflow:visible;enable-background:accumulate"
         id="rect2989"
         width="90"
         height="90"
         x="0"
         y="1.5258789e-05"
         transform="translate(60,414.36216)" />
    </g>
  </g>
</svg>
