<?xml version="1.0" encoding="UTF-8" standalone="no"?>
<!-- Created with Inkscape (http://www.inkscape.org/) -->

<svg
   xmlns:dc="http://purl.org/dc/elements/1.1/"
   xmlns:cc="http://creativecommons.org/ns#"
   xmlns:rdf="http://www.w3.org/1999/02/22-rdf-syntax-ns#"
   xmlns:svg="http://www.w3.org/2000/svg"
   xmlns="http://www.w3.org/2000/svg"
   xmlns:sodipodi="http://sodipodi.sourceforge.net/DTD/sodipodi-0.dtd"
   xmlns:inkscape="http://www.inkscape.org/namespaces/inkscape"
   width="90"
   height="90"
   id="svg3242"
   version="1.1"
   inkscape:version="0.48+devel r12439"
   sodipodi:docname="dialer.svg">
  <defs
     id="defs3244" />
  <sodipodi:namedview
     id="base"
     pagecolor="#ffffff"
     bordercolor="#666666"
     borderopacity="1.0"
     inkscape:pageopacity="0.0"
     inkscape:pageshadow="2"
     inkscape:zoom="5.0931703"
     inkscape:cx="-17.759077"
     inkscape:cy="65.214781"
     inkscape:document-units="px"
     inkscape:current-layer="layer1"
     showgrid="true"
     fit-margin-top="0"
     fit-margin-left="0"
     fit-margin-right="0"
     fit-margin-bottom="0"
     inkscape:window-width="1920"
     inkscape:window-height="1029"
     inkscape:window-x="0"
     inkscape:window-y="24"
     inkscape:window-maximized="1"
     inkscape:snap-global="true"
     inkscape:snap-bbox="true"
     inkscape:bbox-paths="true"
     inkscape:snap-bbox-edge-midpoints="true"
     inkscape:bbox-nodes="true"
     inkscape:snap-bbox-midpoints="true"
     inkscape:object-paths="true"
     inkscape:snap-intersection-paths="true"
     inkscape:object-nodes="true"
     inkscape:snap-smooth-nodes="true"
     inkscape:snap-midpoints="true"
     inkscape:snap-object-midpoints="true"
     inkscape:snap-center="true">
    <inkscape:grid
       type="xygrid"
       id="grid3753"
       empspacing="6"
       visible="true"
       enabled="true"
       snapvisiblegridlinesonly="true"
       originx="0px"
       originy="-4.1975098e-06px" />
  </sodipodi:namedview>
  <metadata
     id="metadata3247">
    <rdf:RDF>
      <cc:Work
         rdf:about="">
        <dc:format>image/svg+xml</dc:format>
        <dc:type
           rdf:resource="http://purl.org/dc/dcmitype/StillImage" />
        <dc:title></dc:title>
      </cc:Work>
    </rdf:RDF>
  </metadata>
  <g
     inkscape:label="Layer 1"
     inkscape:groupmode="layer"
     id="layer1"
     transform="translate(-2.6171875e-6,-962.3622)">
    <g
       transform="matrix(-1,0,0,1,90.000003,96.000017)"
       inkscape:label="#g3021"
       id="g4255">
      <rect
         style="opacity:0.4;fill:none;stroke:none"
         id="rect4257"
         width="90"
         height="90"
         x="0"
         y="866.36218" />
      <path
         style="fill:#808080;fill-opacity:1;stroke:none"
         d="m 70.726062,950.36218 c -28.77138,0 -64.7260601,-38.04794 -64.7260601,-64.63902 0,-2.08513 7.9904201,-17.04192 12.5276501,-12.51078 6.26382,6.25538 12.52761,18.76616 10.43966,22.93643 -1.7607,3.51666 -8.35175,2.22293 -8.35175,6.25537 0,4.03247 9.04774,9.03558 14.61557,14.59592 5.56784,5.56035 14.84647,18.76616 18.79142,18.76616 4.16766,0 3.25012,-6.6029 6.26384,-8.3405 4.06548,-2.34408 16.70346,4.17025 22.96727,10.42564 C 87.429562,942.02165 72.813992,950.36218 70.726062,950.36218 Z"
         id="path4259"
         inkscape:connector-curvature="0"
         sodipodi:nodetypes="ccsszzsssc" />
    </g>
    <path
       sodipodi:type="arc"
       style="color:#000000;fill:#808080;fill-opacity:1;fill-rule:nonzero;stroke:none;stroke-width:4;marker:none;visibility:visible;display:inline;overflow:visible;enable-background:accumulate"
       id="path4091"
       sodipodi:cx="12"
       sodipodi:cy="12.000004"
       sodipodi:rx="6"
       sodipodi:ry="6"
       d="m 18,12.000004 a 6,6 0 1 1 -12,0 A 6,6 0 1 1 18,12.000004 Z"
       transform="matrix(0.8333334,0,0,0.8333334,1.0000022,963.3622)" />
    <path
       transform="matrix(0.8333334,0,0,0.8333334,15.000002,963.3622)"
       d="m 18,12.000004 a 6,6 0 1 1 -12,0 A 6,6 0 1 1 18,12.000004 Z"
       sodipodi:ry="6"
       sodipodi:rx="6"
       sodipodi:cy="12.000004"
       sodipodi:cx="12"
       id="path4109"
       style="color:#000000;fill:#808080;fill-opacity:1;fill-rule:nonzero;stroke:none;stroke-width:4;marker:none;visibility:visible;display:inline;overflow:visible;enable-background:accumulate"
       sodipodi:type="arc" />
    <path
       sodipodi:type="arc"
       style="color:#000000;fill:#808080;fill-opacity:1;fill-rule:nonzero;stroke:none;stroke-width:4;marker:none;visibility:visible;display:inline;overflow:visible;enable-background:accumulate"
       id="path4111"
       sodipodi:cx="12"
       sodipodi:cy="12.000004"
       sodipodi:rx="6"
       sodipodi:ry="6"
       d="m 18,12.000004 a 6,6 0 1 1 -12,0 A 6,6 0 1 1 18,12.000004 Z"
       transform="matrix(0.8333334,0,0,0.8333334,29.000002,963.3622)" />
    <path
       transform="matrix(0.8333334,0,0,0.8333334,1.0000022,977.3622)"
       d="m 18,12.000004 a 6,6 0 1 1 -12,0 A 6,6 0 1 1 18,12.000004 Z"
       sodipodi:ry="6"
       sodipodi:rx="6"
       sodipodi:cy="12.000004"
       sodipodi:cx="12"
       id="path4113"
       style="color:#000000;fill:#808080;fill-opacity:1;fill-rule:nonzero;stroke:none;stroke-width:4;marker:none;visibility:visible;display:inline;overflow:visible;enable-background:accumulate"
       sodipodi:type="arc" />
    <path
       sodipodi:type="arc"
       style="color:#000000;fill:#808080;fill-opacity:1;fill-rule:nonzero;stroke:none;stroke-width:4;marker:none;visibility:visible;display:inline;overflow:visible;enable-background:accumulate"
       id="path4115"
       sodipodi:cx="12"
       sodipodi:cy="12.000004"
       sodipodi:rx="6"
       sodipodi:ry="6"
       d="m 18,12.000004 a 6,6 0 1 1 -12,0 A 6,6 0 1 1 18,12.000004 Z"
       transform="matrix(0.8333334,0,0,0.8333334,15.000002,977.3622)" />
    <path
       transform="matrix(0.8333334,0,0,0.8333334,29.000002,977.3622)"
       d="m 18,12.000004 a 6,6 0 1 1 -12,0 A 6,6 0 1 1 18,12.000004 Z"
       sodipodi:ry="6"
       sodipodi:rx="6"
       sodipodi:cy="12.000004"
       sodipodi:cx="12"
       id="path4117"
       style="color:#000000;fill:#808080;fill-opacity:1;fill-rule:nonzero;stroke:none;stroke-width:4;marker:none;visibility:visible;display:inline;overflow:visible;enable-background:accumulate"
       sodipodi:type="arc" />
    <path
       sodipodi:type="arc"
       style="color:#000000;fill:#808080;fill-opacity:1;fill-rule:nonzero;stroke:none;stroke-width:4;marker:none;visibility:visible;display:inline;overflow:visible;enable-background:accumulate"
       id="path4119"
       sodipodi:cx="12"
       sodipodi:cy="12.000004"
       sodipodi:rx="6"
       sodipodi:ry="6"
       d="m 18,12.000004 a 6,6 0 1 1 -12,0 A 6,6 0 1 1 18,12.000004 Z"
       transform="matrix(0.8333334,0,0,0.8333334,1.0000022,991.3622)" />
    <path
       transform="matrix(0.8333334,0,0,0.8333334,15.000002,991.3622)"
       d="m 18,12.000004 a 6,6 0 1 1 -12,0 A 6,6 0 1 1 18,12.000004 Z"
       sodipodi:ry="6"
       sodipodi:rx="6"
       sodipodi:cy="12.000004"
       sodipodi:cx="12"
       id="path4121"
       style="color:#000000;fill:#808080;fill-opacity:1;fill-rule:nonzero;stroke:none;stroke-width:4;marker:none;visibility:visible;display:inline;overflow:visible;enable-background:accumulate"
       sodipodi:type="arc" />
    <path
       sodipodi:type="arc"
       style="color:#000000;fill:#808080;fill-opacity:1;fill-rule:nonzero;stroke:none;stroke-width:4;marker:none;visibility:visible;display:inline;overflow:visible;enable-background:accumulate"
       id="path4123"
       sodipodi:cx="12"
       sodipodi:cy="12.000004"
       sodipodi:rx="6"
       sodipodi:ry="6"
       d="m 18,12.000004 a 6,6 0 1 1 -12,0 A 6,6 0 1 1 18,12.000004 Z"
       transform="matrix(0.8333334,0,0,0.8333334,29.000002,991.3622)" />
  </g>
</svg>
