<?xml version="1.0" encoding="UTF-8" standalone="no"?>
<!-- Created with Inkscape (http://www.inkscape.org/) -->

<svg
   xmlns:dc="http://purl.org/dc/elements/1.1/"
   xmlns:cc="http://creativecommons.org/ns#"
   xmlns:rdf="http://www.w3.org/1999/02/22-rdf-syntax-ns#"
   xmlns:svg="http://www.w3.org/2000/svg"
   xmlns="http://www.w3.org/2000/svg"
   xmlns:xlink="http://www.w3.org/1999/xlink"
   xmlns:sodipodi="http://sodipodi.sourceforge.net/DTD/sodipodi-0.dtd"
   xmlns:inkscape="http://www.inkscape.org/namespaces/inkscape"
   width="90"
   height="90"
   id="svg3289"
   version="1.1"
   inkscape:version="0.48+devel r12221"
   sodipodi:docname="email.svg">
  <defs
     id="defs3291">
    <linearGradient
       id="linearGradient3992">
      <stop
         style="stop-color:#b5b5b5;stop-opacity:1"
         offset="0"
         id="stop3994" />
      <stop
         style="stop-color:#dbdbdb;stop-opacity:1"
         offset="1"
         id="stop3996" />
    </linearGradient>
    <linearGradient
       id="linearGradient3992-5">
      <stop
         style="stop-color:#b5b5b5;stop-opacity:1"
         offset="0"
         id="stop3994-3" />
      <stop
         style="stop-color:#dbdbdb;stop-opacity:1"
         offset="1"
         id="stop3996-0" />
    </linearGradient>
    <linearGradient
       id="linearGradient3382">
      <stop
         style="stop-color:#b5b5b5;stop-opacity:1"
         offset="0"
         id="stop3384" />
      <stop
         style="stop-color:#dbdbdb;stop-opacity:1"
         offset="1"
         id="stop3386" />
    </linearGradient>
    <linearGradient
       id="linearGradient4091">
      <stop
         id="stop4093"
         offset="0"
         style="stop-color:#dbdbdb;stop-opacity:1;" />
      <stop
         id="stop4095"
         offset="1"
         style="stop-color:#b5b5b5;stop-opacity:1;" />
    </linearGradient>
    <linearGradient
       id="linearGradient3468">
      <stop
         id="stop3470"
         offset="0"
         style="stop-color:#dbdbdb;stop-opacity:1;" />
      <stop
         id="stop3472"
         offset="1"
         style="stop-color:#b5b5b5;stop-opacity:1;" />
    </linearGradient>
    <linearGradient
       id="linearGradient3992-7">
      <stop
         style="stop-color:#b5b5b5;stop-opacity:1"
         offset="0"
         id="stop3994-6" />
      <stop
         style="stop-color:#dbdbdb;stop-opacity:1"
         offset="1"
         id="stop3996-7" />
    </linearGradient>
    <linearGradient
       inkscape:collect="always"
       xlink:href="#linearGradient3992-54"
       id="linearGradient4158"
       gradientUnits="userSpaceOnUse"
       gradientTransform="matrix(2,0,0,1.9861112,-1031,-247.30555)"
       x1="1001.1268"
       y1="332"
       x2="1001.1268"
       y2="344" />
    <linearGradient
       id="linearGradient3992-54">
      <stop
         style="stop-color:#b5b5b5;stop-opacity:1"
         offset="0"
         id="stop3994-9" />
      <stop
         style="stop-color:#dbdbdb;stop-opacity:1"
         offset="1"
         id="stop3996-5" />
    </linearGradient>
    <linearGradient
       inkscape:collect="always"
       xlink:href="#linearGradient3992-54"
       id="linearGradient4428"
       gradientUnits="userSpaceOnUse"
       gradientTransform="matrix(2,0,0,1.9861112,-1031,-247.30555)"
       x1="1010"
       y1="344"
       x2="1010"
       y2="332" />
    <linearGradient
       id="linearGradient3613">
      <stop
         style="stop-color:#b5b5b5;stop-opacity:1"
         offset="0"
         id="stop3615" />
      <stop
         style="stop-color:#dbdbdb;stop-opacity:1"
         offset="1"
         id="stop3617" />
    </linearGradient>
    <linearGradient
       id="linearGradient4091-5">
      <stop
         id="stop4093-8"
         offset="0"
         style="stop-color:#dbdbdb;stop-opacity:1;" />
      <stop
         id="stop4095-6"
         offset="1"
         style="stop-color:#b5b5b5;stop-opacity:1;" />
    </linearGradient>
    <linearGradient
       id="linearGradient3747">
      <stop
         id="stop3749"
         offset="0"
         style="stop-color:#dbdbdb;stop-opacity:1;" />
      <stop
         id="stop3751"
         offset="1"
         style="stop-color:#b5b5b5;stop-opacity:1;" />
    </linearGradient>
    <clipPath
       clipPathUnits="userSpaceOnUse"
       id="clipPath3823-8">
      <path
         style="opacity:0.44594595;color:#000000;fill:#0000ff;fill-opacity:1;fill-rule:nonzero;stroke:none;stroke-width:6;marker:none;visibility:visible;display:inline;overflow:visible;enable-background:accumulate"
         d="m 778.33329,392 0,52 80,0 0,-52 L 778.33329,392 z m 8.02084,7.1875 29.45833,27.16667 c 0.007,-4e-5 0.0138,-4e-5 0.0208,0 1.83337,1.64582 4.50003,1.64582 6.27084,0.0625 0.0204,-0.0213 0.0412,-0.0421 0.0625,-0.0625 l 29.47916,-27.16667 2.70834,2.95833 L 834.99996,420 l 12.66667,14.66667 -15.08334,-12.45834 -7.64583,7.04167 -0.0625,0.0417 c -1.68336,1.66161 -3.68494,3.02583 -5.8125,3.02083 -2.14588,-0.005 -4.16977,-1.38815 -5.9375,-3.04167 l -0.0208,0 0,0.0208 -7.6875,-7.08334 -15.08334,12.45834 L 802.99996,420 783.64579,402.14583 786.35413,399.1875 Z"
         id="path3825-7"
         inkscape:connector-curvature="0" />
    </clipPath>
  </defs>
  <sodipodi:namedview
     id="base"
     pagecolor="#ffffff"
     bordercolor="#666666"
     borderopacity="1.0"
     inkscape:pageopacity="0"
     inkscape:pageshadow="2"
     inkscape:zoom="4.7683716"
     inkscape:cx="52.709398"
     inkscape:cy="64.809937"
     inkscape:document-units="px"
     inkscape:current-layer="g4451"
     showgrid="true"
     inkscape:window-width="1920"
     inkscape:window-height="1029"
     inkscape:window-x="0"
     inkscape:window-y="24"
     inkscape:window-maximized="1"
     fit-margin-top="0"
     fit-margin-left="0"
     fit-margin-right="0"
     fit-margin-bottom="0">
    <inkscape:grid
       type="xygrid"
       id="grid3020"
       empspacing="6"
       visible="true"
       enabled="true"
       snapvisiblegridlinesonly="true"
       originx="0px"
       originy="0px" />
  </sodipodi:namedview>
  <metadata
     id="metadata3294">
    <rdf:RDF>
      <cc:Work
         rdf:about="">
        <dc:format>image/svg+xml</dc:format>
        <dc:type
           rdf:resource="http://purl.org/dc/dcmitype/StillImage" />
        <dc:title />
      </cc:Work>
    </rdf:RDF>
  </metadata>
  <g
     inkscape:label="Layer 1"
     inkscape:groupmode="layer"
     id="layer1"
     transform="translate(0,-962.3622)">
    <g
       style="display:inline"
       transform="matrix(1.5,0,0,1.5,-1183.5,380.3622)"
       id="g4451">
      <rect
         style="fill:none;stroke:none"
         id="rect3332"
         width="60"
         height="60"
         x="789"
         y="388" />
      <path
         style="opacity:1;fill:#808080;fill-opacity:1"
         clip-path="none"
         d="M 30 12 C 8.6089555 12 2.2992506 12.017634 0.59375 20.96875 L 40.21875 57.53125 C 40.22925 57.53119 40.2395 57.53119 40.25 57.53125 C 43.000055 59.99998 47.000035 59.99998 49.65625 57.625 C 49.68685 57.59305 49.71805 57.56185 49.75 57.53125 L 89.40625 20.96875 C 87.700749 12.017634 81.391044 12 60 12 L 30 12 z M 0 28.625 C -0.0048709868 29.088731 0 29.509949 0 30 L 0 60 C 0 78 3 78 30 78 L 60 78 C 87 78 90 78 90 60 L 90 30 C 90 29.509949 90.004871 29.088731 90 28.625 L 69 48 L 88 70 L 65.375 51.3125 L 53.90625 61.875 L 53.8125 61.9375 C 51.28746 64.429915 48.28509 66.47625 45.09375 66.46875 C 41.87493 66.46125 38.839095 64.38653 36.1875 61.90625 L 36.15625 61.90625 L 36.15625 61.9375 L 24.625 51.3125 L 2 70 L 21 48 L 0 28.625 z "
         transform="matrix(0.66666667,0,0,0.66666667,789,388)"
         id="path3036" />
    </g>
  </g>
  <g
     inkscape:groupmode="layer"
     id="layer2"
     inkscape:label="Clips"
     style="display:none"
     sodipodi:insensitive="true">
    <rect
       style="fill:none;stroke:none;display:inline"
       id="rect3332-6"
       width="90"
       height="90"
       x="0"
       y="0" />
    <path
       transform="matrix(1.5,0,0,1.5,-1183.5,-582)"
       style="fill:#808080;fill-opacity:1;display:inline"
       d="m 809,396 c -18,0 -20,0 -20,12 l 0,20 c 0,12 2,12 20,12 l 20,0 c 18,0 20,0 20,-12 l 0,-20 C 849,396 847,396 829,396 Z"
       id="path3036-3"
       inkscape:connector-curvature="0"
       sodipodi:nodetypes="sssssssss"
       clip-path="url(#clipPath3823-8)" />
  </g>
</svg>
