<?xml version="1.0" encoding="UTF-8" standalone="no"?>
<!-- Created with Inkscape (http://www.inkscape.org/) -->

<svg
   xmlns:dc="http://purl.org/dc/elements/1.1/"
   xmlns:cc="http://creativecommons.org/ns#"
   xmlns:rdf="http://www.w3.org/1999/02/22-rdf-syntax-ns#"
   xmlns:svg="http://www.w3.org/2000/svg"
   xmlns="http://www.w3.org/2000/svg"
   xmlns:sodipodi="http://sodipodi.sourceforge.net/DTD/sodipodi-0.dtd"
   xmlns:inkscape="http://www.inkscape.org/namespaces/inkscape"
   width="90"
   height="90.000008"
   id="svg3289"
   version="1.1"
   inkscape:version="0.48.3.1 r9886"
   sodipodi:docname="favorite-unselected@30.svg">
  <defs
     id="defs3291" />
  <sodipodi:namedview
     id="base"
     pagecolor="#ffffff"
     bordercolor="#666666"
     borderopacity="1.0"
     inkscape:pageopacity="0.0"
     inkscape:pageshadow="2"
     inkscape:zoom="3.6893488"
     inkscape:cx="124.15513"
     inkscape:cy="87.635058"
     inkscape:document-units="px"
     inkscape:current-layer="g4451"
     showgrid="true"
     inkscape:window-width="1920"
     inkscape:window-height="1029"
     inkscape:window-x="0"
     inkscape:window-y="24"
     inkscape:window-maximized="1"
     fit-margin-top="0"
     fit-margin-left="0"
     fit-margin-right="0"
     fit-margin-bottom="0"
     showguides="true"
     inkscape:guide-bbox="true"
     inkscape:snap-global="true"
     inkscape:snap-grids="false"
     inkscape:snap-midpoints="true"
     inkscape:snap-smooth-nodes="true"
     inkscape:object-nodes="true"
     inkscape:object-paths="true"
     inkscape:snap-intersection-paths="true">
    <inkscape:grid
       type="xygrid"
       id="grid3061"
       empspacing="6"
       visible="true"
       enabled="true"
       snapvisiblegridlinesonly="true"
       originx="0px"
       originy="-7.412756e-05px" />
    <sodipodi:guide
       orientation="1,0"
       position="45,33.999926"
       id="guide3021" />
  </sodipodi:namedview>
  <metadata
     id="metadata3294">
    <rdf:RDF>
      <cc:Work
         rdf:about="">
        <dc:format>image/svg+xml</dc:format>
        <dc:type
           rdf:resource="http://purl.org/dc/dcmitype/StillImage" />
        <dc:title />
      </cc:Work>
    </rdf:RDF>
  </metadata>
  <g
     inkscape:label="Layer 1"
     inkscape:groupmode="layer"
     id="layer1"
     transform="translate(0,-962.36212)">
    <g
       style="display:inline"
       transform="translate(-789,604.3622)"
       id="g4451">
      <g
         transform="matrix(1.875,0,0,1.8750002,249,-1435.1794)"
         id="g4143">
        <rect
           style="opacity:0.21171169;fill:none;stroke:none"
           id="rect4145"
           width="48"
           height="48"
           x="288"
           y="152"
           transform="translate(0,804.3622)" />
      </g>
      <path
         style="color:#000000;fill:#808080;fill-opacity:1;fill-rule:nonzero;stroke:none;stroke-width:6;marker:none;visibility:visible;display:inline;overflow:visible;enable-background:accumulate"
         d="M 44.9375 3 C 43.498438 3.0026013 29.506447 25.683286 28.34375 26.53125 C 27.181053 27.379214 1.3484707 33.755567 0.90625 35.125 C 0.46402931 36.494433 17.677831 56.788425 18.125 58.15625 C 18.572169 59.524076 16.677995 86.093745 17.84375 86.9375 C 19.009505 87.781255 43.623438 77.658851 45.0625 77.65625 C 46.501562 77.653649 71.181053 87.691714 72.34375 86.84375 C 73.506447 85.995786 71.495279 59.431933 71.9375 58.0625 C 72.379721 56.693067 89.540919 36.336576 89.09375 34.96875 C 88.646581 33.600924 62.790755 27.312505 61.625 26.46875 C 60.459245 25.624995 46.376562 2.9973987 44.9375 3 z M 45 15 L 55 30 C 56.43621 32.3432 58.1831 33.14575 60.375 33.875 L 77.75 38.6875 L 66.65625 52.875 C 64.86646 54.98109 64.48135 57.07504 64.59375 59.3125 L 65.40625 77.3125 L 48.46875 71.125 C 46.01751 70.1341 44.02431 70.19272 41.65625 71.15625 L 24.78125 77.4375 L 25.46875 59.4375 C 25.62326 56.63199 24.92074 54.94613 23.34375 52.9375 L 12.21875 38.78125 L 29.5625 33.9375 C 32.16502 33.16903 33.54779 31.93304 35 30 L 45 15 z "
         transform="translate(789,357.99992)"
         id="path3008" />
      <rect
         style="color:#000000;fill:none;stroke:none;stroke-width:6;marker:none;visibility:visible;display:inline;overflow:visible;enable-background:accumulate"
         id="rect2989"
         width="90"
         height="90.000008"
         x="0"
         y="-3.7275599e-06"
         transform="translate(789,357.99992)" />
    </g>
  </g>
</svg>
