<?xml version="1.0" encoding="UTF-8" standalone="no"?>
<!-- Created with Inkscape (http://www.inkscape.org/) -->

<svg
   xmlns:dc="http://purl.org/dc/elements/1.1/"
   xmlns:cc="http://creativecommons.org/ns#"
   xmlns:rdf="http://www.w3.org/1999/02/22-rdf-syntax-ns#"
   xmlns:svg="http://www.w3.org/2000/svg"
   xmlns="http://www.w3.org/2000/svg"
   xmlns:sodipodi="http://sodipodi.sourceforge.net/DTD/sodipodi-0.dtd"
   xmlns:inkscape="http://www.inkscape.org/namespaces/inkscape"
   width="90"
   height="90"
   id="svg3133"
   version="1.1"
   inkscape:version="0.48.3.1 r9886"
   sodipodi:docname="filter@30.svg">
  <defs
     id="defs3135" />
  <sodipodi:namedview
     id="base"
     pagecolor="#ffffff"
     bordercolor="#666666"
     borderopacity="1.0"
     inkscape:pageopacity="0.0"
     inkscape:pageshadow="2"
     inkscape:zoom="5.0931703"
     inkscape:cx="27.79211"
     inkscape:cy="48.702489"
     inkscape:document-units="px"
     inkscape:current-layer="g4978"
     showgrid="true"
     inkscape:window-width="1920"
     inkscape:window-height="1029"
     inkscape:window-x="0"
     inkscape:window-y="24"
     inkscape:window-maximized="1"
     fit-margin-top="0"
     fit-margin-left="0"
     fit-margin-right="0"
     fit-margin-bottom="0">
    <inkscape:grid
       type="xygrid"
       id="grid2986"
       empspacing="6"
       visible="true"
       enabled="true"
       snapvisiblegridlinesonly="true"
       originx="-2.98e-06px"
       originy="5.2343748e-06px" />
  </sodipodi:namedview>
  <metadata
     id="metadata3138">
    <rdf:RDF>
      <cc:Work
         rdf:about="">
        <dc:format>image/svg+xml</dc:format>
        <dc:type
           rdf:resource="http://purl.org/dc/dcmitype/StillImage" />
        <dc:title />
      </cc:Work>
    </rdf:RDF>
  </metadata>
  <g
     inkscape:label="Layer 1"
     inkscape:groupmode="layer"
     id="layer1"
     transform="translate(-2.98e-6,-962.3622)">
    <g
       id="g4978"
       transform="matrix(0.99934414,0,0,1,-106.92982,549.00002)">
      <path
         sodipodi:type="arc"
         style="color:#000000;fill:#808080;fill-opacity:1;fill-rule:nonzero;stroke:none;stroke-width:1;marker:none;visibility:visible;display:inline;overflow:visible;enable-background:accumulate"
         id="path4138"
         sodipodi:cx="53.5"
         sodipodi:cy="53.5"
         sodipodi:rx="2.5"
         sodipodi:ry="2.5"
         d="m 56,53.5 a 2.5,2.5 0 1 1 -5,0 2.5,2.5 0 1 1 5,0 z"
         transform="matrix(2.4015751,0,0,2.4,23.545266,314.96218)" />
      <rect
         style="opacity:0.01000001;color:#000000;fill:none;stroke:none;stroke-width:2;marker:none;visibility:visible;display:inline;overflow:visible;enable-background:accumulate"
         id="rect4980"
         width="90.059067"
         height="90"
         x="107"
         y="413.36218" />
      <path
         transform="matrix(2.4015751,0,0,2.4,5.533453,314.96218)"
         d="m 56,53.5 a 2.5,2.5 0 1 1 -5,0 2.5,2.5 0 1 1 5,0 z"
         sodipodi:ry="2.5"
         sodipodi:rx="2.5"
         sodipodi:cy="53.5"
         sodipodi:cx="53.5"
         id="path3759"
         style="color:#000000;fill:#808080;fill-opacity:1;fill-rule:nonzero;stroke:none;stroke-width:1;marker:none;visibility:visible;display:inline;overflow:visible;enable-background:accumulate"
         sodipodi:type="arc" />
      <path
         sodipodi:type="arc"
         style="color:#000000;fill:#808080;fill-opacity:1;fill-rule:nonzero;stroke:none;stroke-width:1;marker:none;visibility:visible;display:inline;overflow:visible;enable-background:accumulate"
         id="path3761"
         sodipodi:cx="53.5"
         sodipodi:cy="53.5"
         sodipodi:rx="2.5"
         sodipodi:ry="2.5"
         d="m 56,53.5 a 2.5,2.5 0 1 1 -5,0 2.5,2.5 0 1 1 5,0 z"
         transform="matrix(2.4015751,0,0,2.4,41.557081,314.96218)" />
      <path
         transform="matrix(2.4015751,0,0,2.4,32.55117,328.96218)"
         d="m 56,53.5 a 2.5,2.5 0 1 1 -5,0 2.5,2.5 0 1 1 5,0 z"
         sodipodi:ry="2.5"
         sodipodi:rx="2.5"
         sodipodi:cy="53.5"
         sodipodi:cx="53.5"
         id="path3763"
         style="color:#000000;fill:#808080;fill-opacity:1;fill-rule:nonzero;stroke:none;stroke-width:1;marker:none;visibility:visible;display:inline;overflow:visible;enable-background:accumulate"
         sodipodi:type="arc" />
      <path
         sodipodi:type="arc"
         style="color:#000000;fill:#808080;fill-opacity:1;fill-rule:nonzero;stroke:none;stroke-width:1;marker:none;visibility:visible;display:inline;overflow:visible;enable-background:accumulate"
         id="path3765"
         sodipodi:cx="53.5"
         sodipodi:cy="53.5"
         sodipodi:rx="2.5"
         sodipodi:ry="2.5"
         d="m 56,53.5 a 2.5,2.5 0 1 1 -5,0 2.5,2.5 0 1 1 5,0 z"
         transform="matrix(2.4015751,0,0,2.4,14.539358,328.96218)" />
      <path
         transform="matrix(2.4015751,0,0,2.4,23.545266,341.96218)"
         d="m 56,53.5 a 2.5,2.5 0 1 1 -5,0 2.5,2.5 0 1 1 5,0 z"
         sodipodi:ry="2.5"
         sodipodi:rx="2.5"
         sodipodi:cy="53.5"
         sodipodi:cx="53.5"
         id="path3767"
         style="color:#000000;fill:#808080;fill-opacity:1;fill-rule:nonzero;stroke:none;stroke-width:1;marker:none;visibility:visible;display:inline;overflow:visible;enable-background:accumulate"
         sodipodi:type="arc" />
    </g>
  </g>
</svg>
