<?xml version="1.0" encoding="UTF-8" standalone="no"?>
<!-- Created with Inkscape (http://www.inkscape.org/) -->

<svg
   xmlns:dc="http://purl.org/dc/elements/1.1/"
   xmlns:cc="http://creativecommons.org/ns#"
   xmlns:rdf="http://www.w3.org/1999/02/22-rdf-syntax-ns#"
   xmlns:svg="http://www.w3.org/2000/svg"
   xmlns="http://www.w3.org/2000/svg"
   xmlns:sodipodi="http://sodipodi.sourceforge.net/DTD/sodipodi-0.dtd"
   xmlns:inkscape="http://www.inkscape.org/namespaces/inkscape"
   width="90"
   height="90"
   id="svg3140"
   version="1.1"
   inkscape:version="0.48.3.1 r9886"
   sodipodi:docname="hud@30.svg">
  <defs
     id="defs3142">
    <clipPath
       clipPathUnits="userSpaceOnUse"
       id="clipPath3776">
      <path
         style="color:#000000;fill:#ff00ff;fill-opacity:1;fill-rule:nonzero;stroke:none;stroke-width:9;marker:none;visibility:visible;display:inline;overflow:visible;enable-background:accumulate"
         d="m -9.1578982,-12.868408 0,28.210526 34.7368422,0 0,42.31579 -34.7368422,0 0,42.315789 104.2105252,0 0,-112.842105 -104.2105252,0 z"
         id="path3778"
         inkscape:connector-curvature="0" />
    </clipPath>
  </defs>
  <sodipodi:namedview
     id="base"
     pagecolor="#ffffff"
     bordercolor="#666666"
     borderopacity="1.0"
     inkscape:pageopacity="0.0"
     inkscape:pageshadow="2"
     inkscape:zoom="7.9580785"
     inkscape:cx="42.315489"
     inkscape:cy="53.260346"
     inkscape:document-units="px"
     inkscape:current-layer="g4978"
     showgrid="true"
     inkscape:window-width="1920"
     inkscape:window-height="1029"
     inkscape:window-x="0"
     inkscape:window-y="24"
     inkscape:window-maximized="1"
     showguides="true"
     inkscape:guide-bbox="true"
     fit-margin-top="0"
     fit-margin-left="0"
     fit-margin-right="0"
     fit-margin-bottom="0">
    <inkscape:grid
       type="xygrid"
       id="grid3178"
       empspacing="6"
       visible="true"
       enabled="true"
       snapvisiblegridlinesonly="true"
       originx="0px"
       originy="2.6171874e-06px" />
  </sodipodi:namedview>
  <metadata
     id="metadata3145">
    <rdf:RDF>
      <cc:Work
         rdf:about="">
        <dc:format>image/svg+xml</dc:format>
        <dc:type
           rdf:resource="http://purl.org/dc/dcmitype/StillImage" />
        <dc:title />
      </cc:Work>
    </rdf:RDF>
  </metadata>
  <g
     inkscape:label="Layer 1"
     inkscape:groupmode="layer"
     id="layer1"
     transform="translate(0,-962.3622)">
    <g
       id="g4978"
       transform="translate(-60,548.00002)">
      <path
         sodipodi:nodetypes="sszsszs"
         inkscape:connector-curvature="0"
         id="path3214"
         d="m 64.764706,462.36216 17.470588,0 c 3.17647,0 4.764706,0 4.764706,-2.99995 0,-2.99997 -1.588236,-3.00005 -4.764706,-3.00005 l -17.470588,0 c -3.17647,0 -4.764706,8e-5 -4.764706,3.00005 0,2.99995 1.588236,2.99995 4.764706,2.99995 z"
         style="color:#000000;fill:#808080;fill-opacity:1;fill-rule:nonzero;stroke:none;stroke-width:1.5;marker:none;visibility:visible;display:inline;overflow:visible;enable-background:accumulate" />
      <path
         style="color:#000000;fill:#808080;fill-opacity:1;fill-rule:nonzero;stroke:none;stroke-width:1.5;marker:none;visibility:visible;display:inline;overflow:visible;enable-background:accumulate"
         d="m 73.764706,453.36218 17.470588,0 c 3.17647,0 4.764706,0 4.764706,-2.99995 0,-2.99996 -1.588236,-3.00005 -4.764706,-3.00005 l -17.470588,0 c -3.17647,0 -4.764706,9e-5 -4.764706,3.00005 0,2.99995 1.588236,2.99995 4.764706,2.99995 z"
         id="path3216"
         inkscape:connector-curvature="0"
         sodipodi:nodetypes="sszsszs" />
      <path
         sodipodi:nodetypes="sszsszs"
         inkscape:connector-curvature="0"
         id="path3218"
         d="m 64.764706,444.36216 17.470588,0 c 3.17647,0 4.764706,0 4.764706,-2.99995 0,-2.99996 -1.588236,-3.00005 -4.764706,-3.00005 l -17.470588,0 c -3.17647,0 -4.764706,9e-5 -4.764706,3.00005 0,2.99995 1.588236,2.99995 4.764706,2.99995 z"
         style="color:#000000;fill:#808080;fill-opacity:1;fill-rule:nonzero;stroke:none;stroke-width:1.5;marker:none;visibility:visible;display:inline;overflow:visible;enable-background:accumulate" />
      <rect
         style="color:#000000;fill:none;stroke:none;stroke-width:11.80000019;marker:none;visibility:visible;display:inline;overflow:visible;enable-background:accumulate"
         id="rect2990"
         width="90"
         height="90"
         x="60"
         y="414.36218" />
      <path
         sodipodi:type="arc"
         style="color:#000000;fill:none;stroke:#808080;stroke-width:10.49970341;stroke-miterlimit:4;stroke-dasharray:none;marker:none;visibility:visible;display:inline;overflow:visible;enable-background:accumulate"
         id="path2995"
         sodipodi:cx="35.999996"
         sodipodi:cy="36.500011"
         sodipodi:rx="33"
         sodipodi:ry="33.5"
         d="m 68.999996,36.500011 a 33,33.5 0 1 1 -65.9999998,0 33,33.5 0 1 1 65.9999998,0 z"
         transform="matrix(0.86363637,0,0,0.85074627,70.909094,419.30993)"
         clip-path="url(#clipPath3776)" />
      <path
         style="font-size:medium;font-style:normal;font-variant:normal;font-weight:normal;font-stretch:normal;text-indent:0;text-align:start;text-decoration:none;line-height:normal;letter-spacing:normal;word-spacing:normal;text-transform:none;direction:ltr;block-progression:tb;writing-mode:lr-tb;text-anchor:start;baseline-shift:baseline;color:#000000;fill:#808080;fill-opacity:1;stroke:none;stroke-width:6;marker:none;visibility:visible;display:inline;overflow:visible;enable-background:accumulate;font-family:Sans;-inkscape-font-specification:Sans"
         d="m 123.04974,467.44522 -3.96685,3.96685 19.60091,19.60091 3.96685,-3.96685 -19.60091,-19.60091 z"
         id="path3765"
         inkscape:connector-curvature="0" />
      <path
         style="font-size:medium;font-style:normal;font-variant:normal;font-weight:normal;font-stretch:normal;text-indent:0;text-align:start;text-decoration:none;line-height:normal;letter-spacing:normal;word-spacing:normal;text-transform:none;direction:ltr;block-progression:tb;writing-mode:lr-tb;text-anchor:start;baseline-shift:baseline;color:#000000;fill:#808080;fill-opacity:1;stroke:none;stroke-width:11.80387211;marker:none;visibility:visible;display:inline;overflow:visible;enable-background:accumulate;font-family:Sans;-inkscape-font-specification:Sans"
         d="m 131.32869,474.2033 c -2.1681,0.0112 -4.26304,1.43274 -5.07575,3.4441 -0.8127,2.01135 -0.29378,4.4904 1.25724,6.00633 l 11.87177,11.88052 c 3.75657,3.98926 4.56659,3.45093 7.9001,0.11742 3.33353,-3.33352 3.87794,-3.91 -0.11734,-7.90528 l -11.87178,-11.88052 c -1.0277,-1.05442 -2.49234,-1.66868 -3.96424,-1.66257 z"
         id="path3767"
         inkscape:connector-curvature="0"
         sodipodi:nodetypes="cscczccc" />
    </g>
  </g>
</svg>
