<?xml version="1.0" encoding="UTF-8" standalone="no"?>
<!-- Created with Inkscape (http://www.inkscape.org/) -->

<svg
   xmlns:dc="http://purl.org/dc/elements/1.1/"
   xmlns:cc="http://creativecommons.org/ns#"
   xmlns:rdf="http://www.w3.org/1999/02/22-rdf-syntax-ns#"
   xmlns:svg="http://www.w3.org/2000/svg"
   xmlns="http://www.w3.org/2000/svg"
   xmlns:sodipodi="http://sodipodi.sourceforge.net/DTD/sodipodi-0.dtd"
   xmlns:inkscape="http://www.inkscape.org/namespaces/inkscape"
   width="90"
   height="90"
   id="svg3140"
   version="1.1"
   inkscape:version="0.48+devel r12226"
   sodipodi:docname="hud.svg">
  <defs
     id="defs3142">
    <clipPath
       clipPathUnits="userSpaceOnUse"
       id="clipPath3776-0">
      <path
         style="color:#000000;fill:#ff00ff;fill-opacity:1;fill-rule:nonzero;stroke:none;stroke-width:9;marker:none;visibility:visible;display:inline;overflow:visible;enable-background:accumulate"
         d="m -9.1578982,-12.868408 0,28.210526 34.7368422,0 0,42.31579 -34.7368422,0 0,42.315789 104.2105252,0 0,-112.842105 L -9.1578982,-12.868408 Z"
         id="path3778-8"
         inkscape:connector-curvature="0" />
    </clipPath>
  </defs>
  <sodipodi:namedview
     id="base"
     pagecolor="#ffffff"
     bordercolor="#666666"
     borderopacity="1.0"
     inkscape:pageopacity="0.0"
     inkscape:pageshadow="2"
     inkscape:zoom="7.9580785"
     inkscape:cx="4.8692641"
     inkscape:cy="53.260346"
     inkscape:document-units="px"
     inkscape:current-layer="g4978"
     showgrid="true"
     inkscape:window-width="1920"
     inkscape:window-height="1029"
     inkscape:window-x="0"
     inkscape:window-y="24"
     inkscape:window-maximized="1"
     showguides="true"
     inkscape:guide-bbox="true"
     fit-margin-top="0"
     fit-margin-left="0"
     fit-margin-right="0"
     fit-margin-bottom="0">
    <inkscape:grid
       type="xygrid"
       id="grid3178"
       empspacing="6"
       visible="true"
       enabled="true"
       snapvisiblegridlinesonly="true"
       originx="0px"
       originy="2.6171874e-06px" />
  </sodipodi:namedview>
  <metadata
     id="metadata3145">
    <rdf:RDF>
      <cc:Work
         rdf:about="">
        <dc:format>image/svg+xml</dc:format>
        <dc:type
           rdf:resource="http://purl.org/dc/dcmitype/StillImage" />
        <dc:title />
      </cc:Work>
    </rdf:RDF>
  </metadata>
  <g
     inkscape:label="Layer 1"
     inkscape:groupmode="layer"
     id="layer1"
     transform="translate(0,-962.3622)">
    <g
       id="g4978"
       transform="translate(-60,548.00002)">
      <path
         sodipodi:nodetypes="sszsszs"
         inkscape:connector-curvature="0"
         id="path3214"
         d="m 64.764706,462.36216 17.470588,0 c 3.17647,0 4.764706,0 4.764706,-2.99995 0,-2.99997 -1.588236,-3.00005 -4.764706,-3.00005 l -17.470588,0 c -3.17647,0 -4.764706,8e-5 -4.764706,3.00005 0,2.99995 1.588236,2.99995 4.764706,2.99995 z"
         style="color:#000000;fill:#808080;fill-opacity:1;fill-rule:nonzero;stroke:none;stroke-width:1.5;marker:none;visibility:visible;display:inline;overflow:visible;enable-background:accumulate" />
      <path
         style="color:#000000;fill:#808080;fill-opacity:1;fill-rule:nonzero;stroke:none;stroke-width:1.5;marker:none;visibility:visible;display:inline;overflow:visible;enable-background:accumulate"
         d="m 73.764706,453.36218 17.470588,0 c 3.17647,0 4.764706,0 4.764706,-2.99995 0,-2.99996 -1.588236,-3.00005 -4.764706,-3.00005 l -17.470588,0 c -3.17647,0 -4.764706,9e-5 -4.764706,3.00005 0,2.99995 1.588236,2.99995 4.764706,2.99995 z"
         id="path3216"
         inkscape:connector-curvature="0"
         sodipodi:nodetypes="sszsszs" />
      <path
         sodipodi:nodetypes="sszsszs"
         inkscape:connector-curvature="0"
         id="path3218"
         d="m 64.764706,444.36216 17.470588,0 c 3.17647,0 4.764706,0 4.764706,-2.99995 0,-2.99996 -1.588236,-3.00005 -4.764706,-3.00005 l -17.470588,0 c -3.17647,0 -4.764706,9e-5 -4.764706,3.00005 0,2.99995 1.588236,2.99995 4.764706,2.99995 z"
         style="color:#000000;fill:#808080;fill-opacity:1;fill-rule:nonzero;stroke:none;stroke-width:1.5;marker:none;visibility:visible;display:inline;overflow:visible;enable-background:accumulate" />
      <rect
         style="color:#000000;fill:none;stroke:none;stroke-width:11.80000019;marker:none;visibility:visible;display:inline;overflow:visible;enable-background:accumulate"
         id="rect2990"
         width="90"
         height="90"
         x="60"
         y="414.36218" />
      <path
         style="font-size:xx-small;font-style:normal;font-variant:normal;font-weight:normal;font-stretch:normal;text-indent:0;text-align:start;text-decoration:none;line-height:normal;letter-spacing:normal;word-spacing:normal;text-transform:none;direction:ltr;block-progression:tb;writing-mode:lr-tb;text-anchor:start;baseline-shift:baseline;color:#000000;color-interpolation:sRGB;color-interpolation-filters:linearRGB;fill:#808080;fill-opacity:1;stroke:none;stroke-width:10.49970341;marker:none;visibility:visible;display:inline;overflow:visible;enable-background:accumulate;clip-rule:nonzero;font-family:sans-serif;-inkscape-font-specification:sans-serif"
         clip-path="none"
         d="M 42 3.03125 C 30.438375 3.03125 20.278354 9.0069787 14.375 18 L 26.09375 18 C 30.322851 14.247024 35.891356 11.96875 42 11.96875 C 55.25266 11.96875 65.96875 22.63762 65.96875 36 C 65.96875 49.36238 55.25266 60.03125 42 60.03125 C 35.891356 60.03125 30.322851 57.752976 26.09375 54 L 14.375 54 C 20.278354 62.993021 30.438375 68.96875 42 68.96875 C 60.22758 68.96875 75.03125 54.11785 75.03125 36 C 75.03125 17.88215 60.22758 3.03125 42 3.03125 z "
         transform="translate(60,414.36218)"
         id="path2995" />
      <path
         style="font-size:medium;font-style:normal;font-variant:normal;font-weight:normal;font-stretch:normal;text-indent:0;text-align:start;text-decoration:none;line-height:normal;letter-spacing:normal;word-spacing:normal;text-transform:none;direction:ltr;block-progression:tb;writing-mode:lr-tb;text-anchor:start;baseline-shift:baseline;color:#000000;fill:#808080;fill-opacity:1;stroke:none;stroke-width:6;marker:none;visibility:visible;display:inline;overflow:visible;enable-background:accumulate;font-family:Sans;-inkscape-font-specification:Sans"
         d="m 123.04974,467.44522 -3.96685,3.96685 19.60091,19.60091 3.96685,-3.96685 -19.60091,-19.60091 z"
         id="path3765"
         inkscape:connector-curvature="0" />
      <path
         style="font-size:xx-small;font-style:normal;font-variant:normal;font-weight:normal;font-stretch:normal;text-indent:0;text-align:start;text-decoration:none;line-height:normal;letter-spacing:normal;word-spacing:normal;text-transform:none;direction:ltr;block-progression:tb;writing-mode:lr-tb;text-anchor:start;baseline-shift:baseline;color:#000000;fill:#808080;fill-opacity:1;stroke:none;stroke-width:11.80387211;marker:none;visibility:visible;display:inline;overflow:visible;enable-background:accumulate;font-family:Sans;-inkscape-font-specification:Sans"
         d="m 131.32869,474.2033 c -2.1681,0.0112 -4.26304,1.43274 -5.07575,3.4441 -0.8127,2.01135 -0.29378,4.4904 1.25724,6.00633 l 11.87177,11.88052 c 3.75657,3.98926 4.56659,3.45093 7.9001,0.11742 3.33353,-3.33352 3.87794,-3.91 -0.11734,-7.90528 L 135.29293,475.86587 C 134.26523,474.81145 132.80059,474.19719 131.32869,474.2033 Z"
         id="path3767"
         inkscape:connector-curvature="0"
         sodipodi:nodetypes="cscczccc" />
    </g>
  </g>
  <g
     inkscape:groupmode="layer"
     id="layer2"
     inkscape:label="Clips"
     sodipodi:insensitive="true"
     style="display:none">
    <path
       sodipodi:nodetypes="sszsszs"
       inkscape:connector-curvature="0"
       id="path3214-7"
       d="m 4.764706,47.99998 17.470588,0 c 3.17647,0 4.764706,0 4.764706,-2.99995 0,-2.99997 -1.588236,-3.00005 -4.764706,-3.00005 l -17.470588,0 C 1.588236,41.99998 0,42.00006 0,45.00003 0,47.99998 1.588236,47.99998 4.764706,47.99998 Z"
       style="color:#000000;fill:#808080;fill-opacity:1;fill-rule:nonzero;stroke:none;stroke-width:1.5;marker:none;visibility:visible;display:inline;overflow:visible;enable-background:accumulate" />
    <path
       style="color:#000000;fill:#808080;fill-opacity:1;fill-rule:nonzero;stroke:none;stroke-width:1.5;marker:none;visibility:visible;display:inline;overflow:visible;enable-background:accumulate"
       d="m 13.764706,39 17.470588,0 C 34.411764,39 36,39 36,36.00005 36,33.00009 34.411764,33 31.235294,33 L 13.764706,33 C 10.588236,33 9,33.00009 9,36.00005 9,39 10.588236,39 13.764706,39 Z"
       id="path3216-2"
       inkscape:connector-curvature="0"
       sodipodi:nodetypes="sszsszs" />
    <path
       sodipodi:nodetypes="sszsszs"
       inkscape:connector-curvature="0"
       id="path3218-4"
       d="m 4.764706,29.99998 17.470588,0 c 3.17647,0 4.764706,0 4.764706,-2.99995 0,-2.99996 -1.588236,-3.00005 -4.764706,-3.00005 l -17.470588,0 C 1.588236,23.99998 0,24.00007 0,27.00003 0,29.99998 1.588236,29.99998 4.764706,29.99998 Z"
       style="color:#000000;fill:#808080;fill-opacity:1;fill-rule:nonzero;stroke:none;stroke-width:1.5;marker:none;visibility:visible;display:inline;overflow:visible;enable-background:accumulate" />
    <rect
       style="color:#000000;fill:none;stroke:none;stroke-width:11.80000019;marker:none;visibility:visible;display:inline;overflow:visible;enable-background:accumulate"
       id="rect2990-7"
       width="90"
       height="90"
       x="0"
       y="3.0000001e-06" />
    <path
       sodipodi:type="arc"
       style="color:#000000;fill:none;stroke:#808080;stroke-width:10.49970341;stroke-miterlimit:4;stroke-dasharray:none;marker:none;visibility:visible;display:inline;overflow:visible;enable-background:accumulate"
       id="path2995-5"
       sodipodi:cx="35.999996"
       sodipodi:cy="36.500011"
       sodipodi:rx="33"
       sodipodi:ry="33.5"
       d="m 68.999996,36.500011 a 33,33.5 0 1 1 -65.9999998,0 A 33,33.5 0 1 1 68.999996,36.500011 Z"
       transform="matrix(0.86363637,0,0,0.85074627,10.909094,4.9477504)"
       clip-path="url(#clipPath3776-0)" />
    <path
       style="font-size:xx-small;font-style:normal;font-variant:normal;font-weight:normal;font-stretch:normal;text-indent:0;text-align:start;text-decoration:none;line-height:normal;letter-spacing:normal;word-spacing:normal;text-transform:none;direction:ltr;block-progression:tb;writing-mode:lr-tb;text-anchor:start;baseline-shift:baseline;color:#000000;fill:#808080;fill-opacity:1;stroke:none;stroke-width:6;marker:none;visibility:visible;display:inline;overflow:visible;enable-background:accumulate;font-family:Sans;-inkscape-font-specification:Sans"
       d="M 63.04974,53.08304 59.08289,57.04989 78.6838,76.6508 82.65065,72.68395 63.04974,53.08304 Z"
       id="path3765-1"
       inkscape:connector-curvature="0" />
    <path
       style="font-size:xx-small;font-style:normal;font-variant:normal;font-weight:normal;font-stretch:normal;text-indent:0;text-align:start;text-decoration:none;line-height:normal;letter-spacing:normal;word-spacing:normal;text-transform:none;direction:ltr;block-progression:tb;writing-mode:lr-tb;text-anchor:start;baseline-shift:baseline;color:#000000;fill:#808080;fill-opacity:1;stroke:none;stroke-width:11.80387211;marker:none;visibility:visible;display:inline;overflow:visible;enable-background:accumulate;font-family:Sans;-inkscape-font-specification:Sans"
       d="m 71.32869,59.84112 c -2.1681,0.0112 -4.26304,1.43274 -5.07575,3.4441 -0.8127,2.01135 -0.29378,4.4904 1.25724,6.00633 l 11.87177,11.88052 c 3.75657,3.98926 4.56659,3.45093 7.9001,0.11742 3.33353,-3.33352 3.87794,-3.91 -0.11734,-7.90528 L 75.29293,61.50369 C 74.26523,60.44927 72.80059,59.83501 71.32869,59.84112 Z"
       id="path3767-9"
       inkscape:connector-curvature="0"
       sodipodi:nodetypes="cscczccc" />
  </g>
</svg>
