<?xml version="1.0" encoding="UTF-8" standalone="no"?>
<!-- Created with Inkscape (http://www.inkscape.org/) -->

<svg
   xmlns:dc="http://purl.org/dc/elements/1.1/"
   xmlns:cc="http://creativecommons.org/ns#"
   xmlns:rdf="http://www.w3.org/1999/02/22-rdf-syntax-ns#"
   xmlns:svg="http://www.w3.org/2000/svg"
   xmlns="http://www.w3.org/2000/svg"
   xmlns:sodipodi="http://sodipodi.sourceforge.net/DTD/sodipodi-0.dtd"
   xmlns:inkscape="http://www.inkscape.org/namespaces/inkscape"
   width="90"
   height="89.999954"
   id="svg3140"
   version="1.1"
   inkscape:version="0.48.3.1 r9886"
   sodipodi:docname="import-image@30.svg">
  <defs
     id="defs3142">
    <clipPath
       clipPathUnits="userSpaceOnUse"
       id="clipPath3003">
      <path
         style="opacity:0.1;color:#000000;fill:#ff00ff;fill-opacity:1;fill-rule:nonzero;stroke:none;stroke-width:4;marker:none;visibility:visible;display:inline;overflow:visible;enable-background:accumulate"
         d="m 60,414.36216 0,90 72,0 0,-41.46875 c -2.6124,-1.29359 -5.65169,-2.90792 -8.71875,-4.6875 -3.2275,-1.87267 -6.35426,-3.87533 -8.84375,-5.5625 -1.24474,-0.8436 -2.40017,-1.6208 -3.34375,-2.40625 -0.47179,-0.39271 -0.84797,-0.71658 -1.375,-1.3125 -0.52703,-0.59592 -1.84375,-0.98832 -1.84375,-4.53125 0,-3.54293 1.31672,-3.93533 1.84375,-4.53125 0.52703,-0.59592 0.90321,-0.88854 1.375,-1.28125 0.94358,-0.78545 2.09901,-1.56265 3.34375,-2.40625 2.48949,-1.68717 5.61625,-3.68983 8.84375,-5.5625 3.06706,-1.77958 6.10635,-3.39391 8.71875,-4.6875 l 0,-11.5625 -72,0 z"
         id="path3005"
         inkscape:connector-curvature="0" />
    </clipPath>
  </defs>
  <sodipodi:namedview
     id="base"
     pagecolor="#ffffff"
     bordercolor="#666666"
     borderopacity="1.0"
     inkscape:pageopacity="0.0"
     inkscape:pageshadow="2"
     inkscape:zoom="5.0931704"
     inkscape:cx="86.341111"
     inkscape:cy="46.375751"
     inkscape:document-units="px"
     inkscape:current-layer="g4978"
     showgrid="true"
     inkscape:window-width="1920"
     inkscape:window-height="1029"
     inkscape:window-x="0"
     inkscape:window-y="24"
     inkscape:window-maximized="1"
     showguides="true"
     inkscape:guide-bbox="true"
     fit-margin-top="0"
     fit-margin-left="0"
     fit-margin-right="0"
     fit-margin-bottom="0">
    <inkscape:grid
       type="xygrid"
       id="grid3178"
       empspacing="6"
       visible="true"
       enabled="true"
       snapvisiblegridlinesonly="true"
       originx="0px"
       originy="-6.315918e-05px"
       color="#ff0000"
       opacity="0.2627451"
       empcolor="#ff0000"
       empopacity="0.45882353" />
  </sodipodi:namedview>
  <metadata
     id="metadata3145">
    <rdf:RDF>
      <cc:Work
         rdf:about="">
        <dc:format>image/svg+xml</dc:format>
        <dc:type
           rdf:resource="http://purl.org/dc/dcmitype/StillImage" />
        <dc:title />
      </cc:Work>
    </rdf:RDF>
  </metadata>
  <g
     inkscape:label="Layer 1"
     inkscape:groupmode="layer"
     id="layer1"
     transform="translate(0,-962.36218)">
    <rect
       style="color:#000000;fill:none;stroke:none;stroke-width:7.5;marker:none;visibility:visible;display:inline;overflow:visible;enable-background:accumulate"
       id="rect4198"
       width="89.999954"
       height="89.999954"
       x="0"
       y="962.36218" />
    <g
       id="g4978"
       transform="translate(-60,548.00002)">
      <path
         d="m 60,438.36213 0,42 c 0,18 3,18 30,18 l 12,0 c 27,0 30,0 30,-18 l 0,-42 c 0,-18 -3,-18 -30,-18 l -12,0 c -27,0 -30,0 -30,18 z m 30,-12 12,0 c 24,0 24,0 24,12 l 0,30 c 0,12 0,12 -24,12 l -12,0 c -24,0 -24,0 -24,-12 l 0,-30 c 0,-12 0,-12 24,-12 z"
         id="path3759"
         style="fill:#808080;fill-opacity:1"
         inkscape:connector-curvature="0"
         sodipodi:nodetypes="cssssssccccccccccc"
         clip-path="url(#clipPath3003)" />
      <path
         d="m 72,468.36218 0,-15 12,-12 15,15 6,-6 15,15 0,3 c 0,6 -1,6 -12,6 l -24,0 c -11,0 -12,0 -12,-6 z"
         inkscape:connector-curvature="0"
         sodipodi:nodetypes="cccccccccc"
         id="path4072"
         style="fill:#808080;fill-opacity:1" />
      <path
         inkscape:connector-curvature="0"
         id="path4500-9"
         d="m 138,438.36218 0,12 12,0 0,-12 -12,0 z"
         style="color:#000000;fill:#808080;fill-opacity:1;fill-rule:nonzero;stroke:none;stroke-width:3;marker:none;visibility:visible;display:inline;overflow:visible;enable-background:accumulate" />
      <path
         sodipodi:type="star"
         style="color:#000000;fill:#808080;fill-opacity:1;fill-rule:nonzero;stroke:none;stroke-width:3;marker:none;visibility:visible;display:inline;overflow:visible;enable-background:accumulate"
         id="path4502-7"
         sodipodi:sides="3"
         sodipodi:cx="111"
         sodipodi:cy="174.09448"
         sodipodi:r1="5.8309517"
         sodipodi:r2="2.9154758"
         sodipodi:arg1="1.0471976"
         sodipodi:arg2="2.0943951"
         inkscape:flatsided="true"
         inkscape:rounded="0.06"
         inkscape:randomized="0"
         d="m 113.91548,179.14423 c -0.52479,0.30299 -8.74643,-4.44378 -8.74643,-5.04975 0,-0.60597 8.22164,-5.35273 8.74643,-5.04975 0.52478,0.30299 0.52478,9.79652 0,10.0995 z"
         transform="matrix(2.9540427,0,0,2.9622927,-196.67386,-71.315302)"
         inkscape:transform-center-x="2.852855" />
      <rect
         style="color:#000000;fill:none;stroke:none;stroke-width:6;marker:none;visibility:visible;display:inline;overflow:visible;enable-background:accumulate"
         id="rect2991"
         width="90"
         height="90"
         x="0"
         y="1.7382812e-05"
         transform="translate(60,414.36216)" />
    </g>
  </g>
</svg>
