<?xml version="1.0" encoding="UTF-8" standalone="no"?>
<!-- Created with Inkscape (http://www.inkscape.org/) -->

<svg
   xmlns:dc="http://purl.org/dc/elements/1.1/"
   xmlns:cc="http://creativecommons.org/ns#"
   xmlns:rdf="http://www.w3.org/1999/02/22-rdf-syntax-ns#"
   xmlns:svg="http://www.w3.org/2000/svg"
   xmlns="http://www.w3.org/2000/svg"
   xmlns:sodipodi="http://sodipodi.sourceforge.net/DTD/sodipodi-0.dtd"
   xmlns:inkscape="http://www.inkscape.org/namespaces/inkscape"
   width="90"
   height="90.000076"
   id="svg3140"
   version="1.1"
   inkscape:version="0.48.3.1 r9886"
   sodipodi:docname="keyboard-caps-lock@30.svg">
  <defs
     id="defs3142" />
  <sodipodi:namedview
     id="base"
     pagecolor="#ffffff"
     bordercolor="#666666"
     borderopacity="1.0"
     inkscape:pageopacity="0.0"
     inkscape:pageshadow="2"
     inkscape:zoom="5.0931704"
     inkscape:cx="83.877034"
     inkscape:cy="28.086632"
     inkscape:document-units="px"
     inkscape:current-layer="g4978"
     showgrid="true"
     inkscape:window-width="1920"
     inkscape:window-height="1029"
     inkscape:window-x="0"
     inkscape:window-y="24"
     inkscape:window-maximized="1"
     showguides="true"
     inkscape:guide-bbox="true"
     fit-margin-top="0"
     fit-margin-left="0"
     fit-margin-right="0"
     fit-margin-bottom="0">
    <inkscape:grid
       type="xygrid"
       id="grid3178"
       empspacing="6"
       visible="true"
       enabled="true"
       snapvisiblegridlinesonly="true"
       originx="0px"
       originy="-1.1368684e-13px" />
  </sodipodi:namedview>
  <metadata
     id="metadata3145">
    <rdf:RDF>
      <cc:Work
         rdf:about="">
        <dc:format>image/svg+xml</dc:format>
        <dc:type
           rdf:resource="http://purl.org/dc/dcmitype/StillImage" />
        <dc:title />
      </cc:Work>
    </rdf:RDF>
  </metadata>
  <g
     inkscape:label="Layer 1"
     inkscape:groupmode="layer"
     id="layer1"
     transform="translate(0,-962.36212)">
    <rect
       style="color:#000000;fill:none;stroke:none;stroke-width:7.5;marker:none;visibility:visible;display:inline;overflow:visible;enable-background:accumulate"
       id="rect4198"
       width="90"
       height="90"
       x="0"
       y="962.36212" />
    <g
       id="g4978"
       transform="translate(-60,548.00002)">
      <path
         style="color:#000000;fill:#808080;fill-opacity:1;fill-rule:nonzero;stroke:none;stroke-width:3;marker:none;visibility:visible;display:inline;overflow:visible;enable-background:accumulate"
         d="M 45 12.65625 C 41.409877 12.65625 13.298689 60.656549 15.09375 63.71875 C 15.668207 64.698718 21.841837 65.366003 30 65.71875 L 30 78 L 60 78 L 60 65.71875 C 68.158163 65.366002 74.331793 64.698718 74.90625 63.71875 C 76.701311 60.656549 48.590123 12.65625 45 12.65625 z M 45 21.53125 C 45.521245 22.248214 45.876943 22.668757 46.46875 23.53125 C 49.463272 27.895239 53.260502 33.838138 56.84375 39.9375 C 60.426998 46.036862 63.745304 52.175172 66.09375 56.90625 C 66.556519 57.83859 66.848404 58.293401 67.21875 59.09375 C 66.295107 59.183319 65.728395 59.392893 64.625 59.46875 C 61.564544 59.67916 57.899431 59.817477 54 59.90625 L 54 72 L 36 72 L 36 59.90625 C 32.100569 59.817477 28.435456 59.67916 25.375 59.46875 C 24.271605 59.392893 23.704893 59.183319 22.78125 59.09375 C 23.151596 58.293401 23.412231 57.83859 23.875 56.90625 C 26.223446 52.175172 29.573002 46.036862 33.15625 39.9375 C 36.739498 33.838138 40.505478 27.895239 43.5 23.53125 C 44.091807 22.668757 44.478755 22.248214 45 21.53125 z "
         transform="translate(60,414.3621)"
         id="path4984" />
      <rect
         style="color:#000000;fill:none;stroke:none;stroke-width:6;marker:none;visibility:visible;display:inline;overflow:visible;enable-background:accumulate"
         id="rect3034"
         width="90"
         height="90"
         x="0"
         y="7.6293945e-05"
         transform="translate(60,414.3621)" />
    </g>
  </g>
</svg>
