<?xml version="1.0" encoding="UTF-8" standalone="no"?>
<!-- Created with Inkscape (http://www.inkscape.org/) -->

<svg
   xmlns:dc="http://purl.org/dc/elements/1.1/"
   xmlns:cc="http://creativecommons.org/ns#"
   xmlns:rdf="http://www.w3.org/1999/02/22-rdf-syntax-ns#"
   xmlns:svg="http://www.w3.org/2000/svg"
   xmlns="http://www.w3.org/2000/svg"
   xmlns:sodipodi="http://sodipodi.sourceforge.net/DTD/sodipodi-0.dtd"
   xmlns:inkscape="http://www.inkscape.org/namespaces/inkscape"
   width="90"
   height="90"
   id="svg3537"
   version="1.1"
   inkscape:version="0.48.3.1 r9886"
   sodipodi:docname="keypad@30.svg">
  <defs
     id="defs3539" />
  <sodipodi:namedview
     id="base"
     pagecolor="#ffffff"
     bordercolor="#666666"
     borderopacity="1.0"
     inkscape:pageopacity="0.0"
     inkscape:pageshadow="2"
     inkscape:zoom="7.9580786"
     inkscape:cx="67.654521"
     inkscape:cy="40.248406"
     inkscape:document-units="px"
     inkscape:current-layer="layer1"
     showgrid="true"
     fit-margin-top="0"
     fit-margin-left="0"
     fit-margin-right="0"
     fit-margin-bottom="0"
     inkscape:window-width="1920"
     inkscape:window-height="1029"
     inkscape:window-x="0"
     inkscape:window-y="24"
     inkscape:window-maximized="1">
    <inkscape:grid
       type="xygrid"
       id="grid3005"
       empspacing="6"
       visible="true"
       enabled="true"
       snapvisiblegridlinesonly="true" />
  </sodipodi:namedview>
  <metadata
     id="metadata3542">
    <rdf:RDF>
      <cc:Work
         rdf:about="">
        <dc:format>image/svg+xml</dc:format>
        <dc:type
           rdf:resource="http://purl.org/dc/dcmitype/StillImage" />
        <dc:title />
      </cc:Work>
    </rdf:RDF>
  </metadata>
  <g
     inkscape:label="Layer 1"
     inkscape:groupmode="layer"
     id="layer1"
     transform="translate(2144,579.35211)">
    <rect
       y="-579.35211"
       x="-2144"
       height="90"
       width="90"
       id="rect4298"
       style="opacity:0.01000001;color:#000000;fill:none;stroke:none;stroke-width:2;marker:none;visibility:visible;display:inline;overflow:visible;enable-background:accumulate" />
    <path
       sodipodi:nodetypes="czszc"
       style="color:#000000;fill:#808080;fill-opacity:1;fill-rule:nonzero;stroke:none;stroke-width:2;marker:none;visibility:visible;display:inline;overflow:visible;enable-background:accumulate"
       d="m -2138,-565.85211 c 0,7.5 0,7.5 10.5,7.5 10.5,0 10.5,0 10.5,-7.5 0,-7.5 0,-7.5 -10.5,-7.5 -10.5,0 -10.5,0 -10.5,7.5 z"
       id="path4300"
       inkscape:connector-curvature="0" />
    <path
       inkscape:connector-curvature="0"
       id="path3009"
       d="m -2108,-565.85211 c 0,7.5 0,7.5 10.5,7.5 10.5,0 10.5,0 10.5,-7.5 0,-7.5 0,-7.5 -10.5,-7.5 -10.5,0 -10.5,0 -10.5,7.5 z"
       style="color:#000000;fill:#808080;fill-opacity:1;fill-rule:nonzero;stroke:none;stroke-width:2;marker:none;visibility:visible;display:inline;overflow:visible;enable-background:accumulate"
       sodipodi:nodetypes="czszc" />
    <path
       sodipodi:nodetypes="czszc"
       style="color:#000000;fill:#808080;fill-opacity:1;fill-rule:nonzero;stroke:none;stroke-width:2;marker:none;visibility:visible;display:inline;overflow:visible;enable-background:accumulate"
       d="m -2078,-565.85211 c 0,7.5 0,7.5 10.5,7.5 10.5,0 10.5,0 10.5,-7.5 0,-7.5 0,-7.5 -10.5,-7.5 -10.5,0 -10.5,0 -10.5,7.5 z"
       id="path3011"
       inkscape:connector-curvature="0" />
    <path
       inkscape:connector-curvature="0"
       id="path3013"
       d="m -2138,-544.85211 c 0,7.5 0,7.5 10.5,7.5 10.5,0 10.5,0 10.5,-7.5 0,-7.5 0,-7.5 -10.5,-7.5 -10.5,0 -10.5,0 -10.5,7.5 z"
       style="color:#000000;fill:#808080;fill-opacity:1;fill-rule:nonzero;stroke:none;stroke-width:2;marker:none;visibility:visible;display:inline;overflow:visible;enable-background:accumulate"
       sodipodi:nodetypes="czszc" />
    <path
       sodipodi:nodetypes="czszc"
       style="color:#000000;fill:#808080;fill-opacity:1;fill-rule:nonzero;stroke:none;stroke-width:2;marker:none;visibility:visible;display:inline;overflow:visible;enable-background:accumulate"
       d="m -2108,-544.85211 c 0,7.5 0,7.5 10.5,7.5 10.5,0 10.5,0 10.5,-7.5 0,-7.5 0,-7.5 -10.5,-7.5 -10.5,0 -10.5,0 -10.5,7.5 z"
       id="path3015"
       inkscape:connector-curvature="0" />
    <path
       inkscape:connector-curvature="0"
       id="path3017"
       d="m -2078,-544.85211 c 0,7.5 0,7.5 10.5,7.5 10.5,0 10.5,0 10.5,-7.5 0,-7.5 0,-7.5 -10.5,-7.5 -10.5,0 -10.5,0 -10.5,7.5 z"
       style="color:#000000;fill:#808080;fill-opacity:1;fill-rule:nonzero;stroke:none;stroke-width:2;marker:none;visibility:visible;display:inline;overflow:visible;enable-background:accumulate"
       sodipodi:nodetypes="czszc" />
    <path
       sodipodi:nodetypes="czszc"
       style="color:#000000;fill:#808080;fill-opacity:1;fill-rule:nonzero;stroke:none;stroke-width:2;marker:none;visibility:visible;display:inline;overflow:visible;enable-background:accumulate"
       d="m -2138,-523.85211 c 0,7.5 0,7.5 10.5,7.5 10.5,0 10.5,0 10.5,-7.5 0,-7.5 0,-7.5 -10.5,-7.5 -10.5,0 -10.5,0 -10.5,7.5 z"
       id="path3019"
       inkscape:connector-curvature="0" />
    <path
       inkscape:connector-curvature="0"
       id="path3021"
       d="m -2108,-523.85211 c 0,7.5 0,7.5 10.5,7.5 10.5,0 10.5,0 10.5,-7.5 0,-7.5 0,-7.5 -10.5,-7.5 -10.5,0 -10.5,0 -10.5,7.5 z"
       style="color:#000000;fill:#808080;fill-opacity:1;fill-rule:nonzero;stroke:none;stroke-width:2;marker:none;visibility:visible;display:inline;overflow:visible;enable-background:accumulate"
       sodipodi:nodetypes="czszc" />
    <path
       sodipodi:nodetypes="czszc"
       style="color:#000000;fill:#808080;fill-opacity:1;fill-rule:nonzero;stroke:none;stroke-width:2;marker:none;visibility:visible;display:inline;overflow:visible;enable-background:accumulate"
       d="m -2078,-523.85211 c 0,7.5 0,7.5 10.5,7.5 10.5,0 10.5,0 10.5,-7.5 0,-7.5 0,-7.5 -10.5,-7.5 -10.5,0 -10.5,0 -10.5,7.5 z"
       id="path3023"
       inkscape:connector-curvature="0" />
    <path
       sodipodi:nodetypes="czszc"
       style="color:#000000;fill:#808080;fill-opacity:1;fill-rule:nonzero;stroke:none;stroke-width:2;marker:none;visibility:visible;display:inline;overflow:visible;enable-background:accumulate"
       d="m -2108,-502.85211 c 0,7.5 0,7.5 10.5,7.5 10.5,0 10.5,0 10.5,-7.5 0,-7.5 0,-7.5 -10.5,-7.5 -10.5,0 -10.5,0 -10.5,7.5 z"
       id="path3025"
       inkscape:connector-curvature="0" />
  </g>
</svg>
