<?xml version="1.0" encoding="UTF-8" standalone="no"?>
<!-- Created with Inkscape (http://www.inkscape.org/) -->

<svg
   xmlns:dc="http://purl.org/dc/elements/1.1/"
   xmlns:cc="http://creativecommons.org/ns#"
   xmlns:rdf="http://www.w3.org/1999/02/22-rdf-syntax-ns#"
   xmlns:svg="http://www.w3.org/2000/svg"
   xmlns="http://www.w3.org/2000/svg"
   xmlns:sodipodi="http://sodipodi.sourceforge.net/DTD/sodipodi-0.dtd"
   xmlns:inkscape="http://www.inkscape.org/namespaces/inkscape"
   width="90"
   height="90"
   id="svg3140"
   version="1.1"
   inkscape:version="0.48+devel r12667"
   sodipodi:docname="location.svg">
  <defs
     id="defs3142" />
  <sodipodi:namedview
     id="base"
     pagecolor="#ffffff"
     bordercolor="#666666"
     borderopacity="1.0"
     inkscape:pageopacity="0.0"
     inkscape:pageshadow="2"
     inkscape:zoom="4.0745362"
     inkscape:cx="-19.572781"
     inkscape:cy="71.603195"
     inkscape:document-units="px"
     inkscape:current-layer="layer1"
     showgrid="true"
     inkscape:window-width="1920"
     inkscape:window-height="1029"
     inkscape:window-x="0"
     inkscape:window-y="24"
     inkscape:window-maximized="1"
     fit-margin-top="0"
     fit-margin-left="0"
     fit-margin-right="0"
     fit-margin-bottom="0"
     inkscape:snap-bbox="true"
     inkscape:object-paths="true"
     inkscape:snap-intersection-paths="true"
     inkscape:object-nodes="true"
     inkscape:snap-smooth-nodes="true"
     inkscape:snap-midpoints="true">
    <inkscape:grid
       type="xygrid"
       id="grid3178"
       empspacing="6"
       visible="true"
       enabled="true"
       snapvisiblegridlinesonly="true"
       originx="0px"
       originy="-1.7382813e-05px" />
  </sodipodi:namedview>
  <metadata
     id="metadata3145">
    <rdf:RDF>
      <cc:Work
         rdf:about="">
        <dc:format>image/svg+xml</dc:format>
        <dc:type
           rdf:resource="http://purl.org/dc/dcmitype/StillImage" />
        <dc:title></dc:title>
      </cc:Work>
    </rdf:RDF>
  </metadata>
  <g
     inkscape:label="Layer 1"
     inkscape:groupmode="layer"
     id="layer1"
     transform="translate(0,-962.36218)">
    <rect
       style="color:#000000;fill:none;stroke:none;stroke-width:7.5;marker:none;visibility:visible;display:inline;overflow:visible;enable-background:accumulate"
       id="rect4198"
       width="90"
       height="90"
       x="0"
       y="962.36218" />
    <path
       inkscape:connector-curvature="0"
       style="color:#000000;fill:#808080;fill-opacity:1;fill-rule:nonzero;stroke:none;stroke-width:3;marker:none;visibility:visible;display:inline;overflow:visible;enable-background:accumulate"
       d="m 45,962.36218 c -14.911688,0 -27,12.08831 -27,27 0,0.56158 0.0287,1.10317 0.0625,1.65625 0.01333,0.24822 0.01224,0.49695 0.03125,0.75 0.0203,0.22861 0.06779,0.46057 0.09375,0.6875 2.032165,21.76047 23.734728,59.90627 26.8125,59.90627 3.077772,0 24.780331,-38.1458 26.8125,-59.90627 0.02163,-0.23162 0.07663,-0.45966 0.09375,-0.6875 0.02202,-0.24799 0.01598,-0.50012 0.03125,-0.75 0.03015,-0.56145 0.0625,-1.12104 0.0625,-1.65625 0,-14.91169 -12.088312,-27 -27,-27 z m 0,9 c 9.941116,0 18,8.05889 18,18 0,9.94111 -8.058884,18.00002 -18,18.00002 -9.941116,0 -18,-8.05891 -18,-18.00002 0,-9.94111 8.058884,-18 18,-18 z"
       id="path816" />
  </g>
  <g
     inkscape:groupmode="layer"
     id="layer2"
     inkscape:label="Shapes"
     sodipodi:insensitive="true"
     style="display:none">
    <path
       style="color:#000000;fill:#808080;fill-opacity:1;fill-rule:nonzero;stroke:none;stroke-width:3;marker:none;visibility:visible;display:inline;overflow:visible;enable-background:accumulate"
       inkscape:transform-center-y="6.7348177"
       d="m 72.000025,27.000021 c 0,21.00001 -23.770828,62.99996 -27.000046,62.99996 -3.229217,0 -26.999993,-41.99995 -26.999993,-62.99996 C 19.614621,23.340381 72.000025,23.000066 72.000025,27.000021 Z"
       id="path4984-5"
       inkscape:connector-curvature="0"
       sodipodi:nodetypes="sscs" />
    <path
       sodipodi:type="arc"
       style="color:#000000;fill:#808080;fill-opacity:1;fill-rule:nonzero;stroke:none;stroke-width:6;marker:none;visibility:visible;display:inline;overflow:visible;enable-background:accumulate"
       id="path830-6"
       sodipodi:cx="45"
       sodipodi:cy="21.000017"
       sodipodi:rx="21"
       sodipodi:ry="21"
       d="m 66,21.000017 a 21,21 0 1 1 -42,0 A 21,21 0 1 1 66,21.000017 Z"
       transform="matrix(1.2857143,0,0,1.2857143,-12.857144,-2.0070749e-5)" />
    <path
       transform="matrix(0.42857143,0,0,0.42857143,25.714286,17.99999)"
       d="m 66,21.000017 a 21,21 0 1 1 -42,0 A 21,21 0 1 1 66,21.000017 Z"
       sodipodi:ry="21"
       sodipodi:rx="21"
       sodipodi:cy="21.000017"
       sodipodi:cx="45"
       id="path832-2"
       style="color:#000000;fill:#ffffff;fill-opacity:1;fill-rule:nonzero;stroke:none;stroke-width:6;marker:none;visibility:visible;display:inline;overflow:visible;enable-background:accumulate"
       sodipodi:type="arc" />
  </g>
</svg>
