<?xml version="1.0" encoding="UTF-8" standalone="no"?>
<!-- Created with Inkscape (http://www.inkscape.org/) -->

<svg
   xmlns:dc="http://purl.org/dc/elements/1.1/"
   xmlns:cc="http://creativecommons.org/ns#"
   xmlns:rdf="http://www.w3.org/1999/02/22-rdf-syntax-ns#"
   xmlns:svg="http://www.w3.org/2000/svg"
   xmlns="http://www.w3.org/2000/svg"
   xmlns:sodipodi="http://sodipodi.sourceforge.net/DTD/sodipodi-0.dtd"
   xmlns:inkscape="http://www.inkscape.org/namespaces/inkscape"
   width="90"
   height="90"
   id="svg3679"
   version="1.1"
   inkscape:version="0.48.3.1 r9886"
   sodipodi:docname="microphone@30.svg">
  <defs
     id="defs3681" />
  <sodipodi:namedview
     id="base"
     pagecolor="#ffffff"
     bordercolor="#666666"
     borderopacity="1.0"
     inkscape:pageopacity="0.0"
     inkscape:pageshadow="2"
     inkscape:zoom="7.9580787"
     inkscape:cx="37.84851"
     inkscape:cy="45.205636"
     inkscape:document-units="px"
     inkscape:current-layer="g4131"
     showgrid="true"
     fit-margin-top="0"
     fit-margin-left="0"
     fit-margin-right="0"
     fit-margin-bottom="0"
     inkscape:window-width="1920"
     inkscape:window-height="1029"
     inkscape:window-x="0"
     inkscape:window-y="24"
     inkscape:window-maximized="1">
    <inkscape:grid
       type="xygrid"
       id="grid2988"
       empspacing="6"
       visible="true"
       enabled="true"
       snapvisiblegridlinesonly="true" />
  </sodipodi:namedview>
  <metadata
     id="metadata3684">
    <rdf:RDF>
      <cc:Work
         rdf:about="">
        <dc:format>image/svg+xml</dc:format>
        <dc:type
           rdf:resource="http://purl.org/dc/dcmitype/StillImage" />
        <dc:title />
      </cc:Work>
    </rdf:RDF>
  </metadata>
  <g
     inkscape:label="Layer 1"
     inkscape:groupmode="layer"
     id="layer1"
     transform="translate(2224,279.35211)">
    <g
       id="g4131"
       transform="translate(-2566,-630.71429)">
      <rect
         y="351.36218"
         x="342"
         height="90"
         width="90"
         id="rect2989"
         style="opacity:0.01000001;color:#000000;fill:none;stroke:none;stroke-width:2;marker:none;visibility:visible;display:inline;overflow:visible;enable-background:accumulate" />
      <path
         sodipodi:nodetypes="zsszssz"
         inkscape:connector-curvature="0"
         id="rect3780"
         d="m 387,351.36218 c 12,0 12,2 12,24 l 0,9 c 0,22 0,23.99995 -12,24 -12,5e-5 -12,-2 -12,-24 l 0,-9 c 0,-22 0,-24 12,-24 z"
         style="color:#000000;fill:#808080;fill-opacity:1;fill-rule:nonzero;stroke:none;stroke-width:2;marker:none;visibility:visible;display:inline;overflow:visible;enable-background:accumulate"
         inkscape:transform-center-y="-28.499996" />
      <path
         sodipodi:nodetypes="ccccccc"
         inkscape:connector-curvature="0"
         id="rect4660"
         d="m 369,439.36217 c 0,-3.99999 13.60183,-3.99999 13.60183,-3.99999 l 9.03294,0 c 0,0 13.36523,0 13.36523,3.99999 l 0,2.00001 -36,0 z"
         style="color:#000000;fill:#808080;fill-opacity:1;fill-rule:nonzero;stroke:none;stroke-width:3;marker:none;visibility:visible;display:inline;overflow:visible;enable-background:accumulate"
         inkscape:transform-center-y="-2.9999969" />
      <rect
         ry="2.5"
         y="411.36218"
         x="381"
         height="26.000002"
         width="12"
         id="rect4733"
         style="color:#000000;fill:#808080;stroke:none;stroke-width:3;marker:none;visibility:visible;display:inline;overflow:visible;enable-background:accumulate" />
      <path
         style="font-size:medium;font-style:normal;font-variant:normal;font-weight:normal;font-stretch:normal;text-indent:0;text-align:start;text-decoration:none;line-height:normal;letter-spacing:normal;word-spacing:normal;text-transform:none;direction:ltr;block-progression:tb;writing-mode:lr-tb;text-anchor:start;baseline-shift:baseline;color:#000000;fill:#808080;fill-opacity:1;stroke:none;stroke-width:6;marker:none;visibility:visible;display:inline;overflow:visible;enable-background:accumulate;font-family:Sans;-inkscape-font-specification:Sans"
         d="m 363,390.375 c 0,9 -0.24708,16.1227 3.03125,21.75 1.63916,2.81365 4.28226,5.02124 7.75,6.34375 3.46774,1.32251 7.73003,1.90676 13.1875,1.90625 5.4711,5.1e-4 9.74388,-0.5846 13.21875,-1.90625 3.47487,-1.32165 6.13743,-3.52974 7.78125,-6.34375 C 411.25639,406.49697 411,399.375 411,390.375 l -6,0 c 0,9 -0.24928,15.34727 -2.21875,18.71875 -0.98473,1.68574 -2.27937,2.85345 -4.71875,3.78125 -2.43938,0.9278 -6.05064,1.50047 -11.09375,1.5 -5.02832,4.7e-4 -8.63199,-0.57306 -11.0625,-1.5 -2.43051,-0.92694 -3.70522,-2.09515 -4.6875,-3.78125 C 369.25418,405.72154 369,399.375 369,390.375 l -6,0 z"
         id="path3760"
         inkscape:connector-curvature="0" />
    </g>
  </g>
</svg>
