<?xml version="1.0" encoding="UTF-8" standalone="no"?>
<!-- Created with Inkscape (http://www.inkscape.org/) -->

<svg
   xmlns:dc="http://purl.org/dc/elements/1.1/"
   xmlns:cc="http://creativecommons.org/ns#"
   xmlns:rdf="http://www.w3.org/1999/02/22-rdf-syntax-ns#"
   xmlns:svg="http://www.w3.org/2000/svg"
   xmlns="http://www.w3.org/2000/svg"
   xmlns:sodipodi="http://sodipodi.sourceforge.net/DTD/sodipodi-0.dtd"
   xmlns:inkscape="http://www.inkscape.org/namespaces/inkscape"
   width="90"
   height="90.015564"
   id="svg3443"
   version="1.1"
   inkscape:version="0.48+devel r12648"
   sodipodi:docname="new-event.svg">
  <defs
     id="defs3445" />
  <sodipodi:namedview
     id="base"
     pagecolor="#ffffff"
     bordercolor="#666666"
     borderopacity="1.0"
     inkscape:pageopacity="0.0"
     inkscape:pageshadow="2"
     inkscape:zoom="2.0861625"
     inkscape:cx="37.724764"
     inkscape:cy="31.68505"
     inkscape:document-units="px"
     inkscape:current-layer="g3466"
     showgrid="true"
     fit-margin-top="0"
     fit-margin-left="0"
     fit-margin-right="0"
     fit-margin-bottom="0"
     inkscape:window-width="1920"
     inkscape:window-height="1029"
     inkscape:window-x="0"
     inkscape:window-y="24"
     inkscape:window-maximized="1">
    <inkscape:grid
       type="xygrid"
       id="grid4095"
       empspacing="6" />
  </sodipodi:namedview>
  <metadata
     id="metadata3448">
    <rdf:RDF>
      <cc:Work
         rdf:about="">
        <dc:format>image/svg+xml</dc:format>
        <dc:type
           rdf:resource="http://purl.org/dc/dcmitype/StillImage" />
        <dc:title></dc:title>
      </cc:Work>
    </rdf:RDF>
  </metadata>
  <g
     inkscape:label="Layer 1"
     inkscape:groupmode="layer"
     id="layer1"
     transform="translate(0,-962.34667)">
    <g
       transform="matrix(1.875,0,0,1.875,-990,-830.81693)"
       id="g4136">
      <rect
         transform="translate(0,412.36217)"
         y="544"
         x="528"
         height="48"
         width="48"
         id="rect4134"
         style="color:#000000;fill:none;stroke:none;stroke-width:7.5;marker:none;visibility:visible;display:inline;overflow:visible;enable-background:accumulate" />
    </g>
    <g
       id="g3466"
       transform="translate(-528,48.000013)">
      <rect
         y="962.36218"
         x="594"
         height="41.999966"
         width="6"
         id="rect3470"
         style="color:#000000;fill:#808080;fill-opacity:1;fill-rule:nonzero;stroke:none;stroke-width:7.5;marker:none;visibility:visible;display:inline;overflow:visible;enable-background:accumulate" />
      <rect
         transform="matrix(0,1,-1,0,0,0)"
         style="color:#000000;fill:#808080;fill-opacity:1;fill-rule:nonzero;stroke:none;stroke-width:7.5;marker:none;visibility:visible;display:inline;overflow:visible;enable-background:accumulate"
         id="rect3472"
         width="5.9999876"
         height="42"
         x="980.36218"
         y="-618" />
      <rect
         style="color:#000000;fill:none;stroke:none;stroke-width:7.5;marker:none;visibility:visible;display:inline;overflow:visible;enable-background:accumulate"
         id="rect3474"
         width="90"
         height="90"
         x="528"
         y="914.36212" />
      <path
         style="fill:#808080;fill-opacity:1;display:inline"
         d="M 20.921875 6.015625 L 20.921875 12.015625 C 20.921875 15.245975 18.23035 17.9375 15 17.9375 C 11.76965 17.9375 9.078125 15.245975 9.078125 12.015625 L 9.078125 6.2226562 C 1.1186462 6.8103958 0 9.0959727 0 18.015625 L 0 48.015625 C 0 60.015625 2 60.015625 20 60.015625 L 40 60.015625 C 58 60.015625 60 60.015625 60 48.015625 L 60 18.015625 C 60 9.0959652 58.881372 6.8103934 50.921875 6.2226562 L 50.921875 12.015625 C 50.921875 15.245975 48.23035 17.9375 45 17.9375 C 41.76965 17.9375 39.078125 15.245975 39.078125 12.015625 L 39.078125 6.015625 L 20.921875 6.015625 z M 15.953125 21.046875 C 17.156189 21.038067 18.5 21.043075 20 21.046875 L 40 21.046875 C 52 21.016515 54 21.016515 53.96875 27.015625 L 53.96875 48.015625 C 54 54.016475 52 54.016475 40 53.984375 L 20 53.984375 C 8 54.016515 6 54.016515 6.03125 48.015625 L 6.03125 27.015625 C 6.0039062 21.766369 7.5316772 21.108529 15.953125 21.046875 z "
         transform="translate(528,914.34666)"
         id="path4093" />
      <rect
         style="color:#000000;fill:#808080;fill-opacity:1;fill-rule:nonzero;stroke:none;stroke-width:0.1;stroke-linecap:round;stroke-linejoin:round;stroke-miterlimit:4;stroke-opacity:1;stroke-dasharray:none;stroke-dashoffset:0;marker:none;visibility:visible;display:inline;overflow:visible;enable-background:accumulate"
         id="rect4102"
         width="6"
         height="15"
         x="540"
         y="914.36224"
         ry="3" />
      <rect
         ry="3"
         y="914.36224"
         x="570"
         height="15"
         width="6"
         id="rect4110"
         style="color:#000000;fill:#808080;fill-opacity:1;fill-rule:nonzero;stroke:none;stroke-width:0.1;marker:none;visibility:visible;display:inline;overflow:visible;enable-background:accumulate" />
    </g>
  </g>
</svg>
