<?xml version="1.0" encoding="UTF-8" standalone="no"?>
<!-- Created with Inkscape (http://www.inkscape.org/) -->

<svg
   xmlns:dc="http://purl.org/dc/elements/1.1/"
   xmlns:cc="http://creativecommons.org/ns#"
   xmlns:rdf="http://www.w3.org/1999/02/22-rdf-syntax-ns#"
   xmlns:svg="http://www.w3.org/2000/svg"
   xmlns="http://www.w3.org/2000/svg"
   xmlns:sodipodi="http://sodipodi.sourceforge.net/DTD/sodipodi-0.dtd"
   xmlns:inkscape="http://www.inkscape.org/namespaces/inkscape"
   width="90"
   height="90"
   id="svg3140"
   version="1.1"
   inkscape:version="0.48+devel r12667"
   sodipodi:docname="select.svg">
  <defs
     id="defs3142" />
  <sodipodi:namedview
     id="base"
     pagecolor="#ffffff"
     bordercolor="#666666"
     borderopacity="1.0"
     inkscape:pageopacity="0.0"
     inkscape:pageshadow="2"
     inkscape:zoom="6.3664629"
     inkscape:cx="22.516428"
     inkscape:cy="35.600587"
     inkscape:document-units="px"
     inkscape:current-layer="g4978"
     showgrid="true"
     inkscape:window-width="1920"
     inkscape:window-height="1029"
     inkscape:window-x="0"
     inkscape:window-y="24"
     inkscape:window-maximized="1"
     fit-margin-top="0"
     fit-margin-left="0"
     fit-margin-right="0"
     fit-margin-bottom="0">
    <inkscape:grid
       type="xygrid"
       id="grid3178"
       empspacing="6"
       visible="true"
       enabled="true"
       snapvisiblegridlinesonly="true"
       originx="0px"
       originy="-1.7382813e-05px" />
  </sodipodi:namedview>
  <metadata
     id="metadata3145">
    <rdf:RDF>
      <cc:Work
         rdf:about="">
        <dc:format>image/svg+xml</dc:format>
        <dc:type
           rdf:resource="http://purl.org/dc/dcmitype/StillImage" />
        <dc:title></dc:title>
      </cc:Work>
    </rdf:RDF>
  </metadata>
  <g
     inkscape:label="Layer 1"
     inkscape:groupmode="layer"
     id="layer1"
     transform="translate(0,-962.36218)">
    <rect
       style="color:#000000;fill:none;stroke:none;stroke-width:7.5;marker:none;visibility:visible;display:inline;overflow:visible;enable-background:accumulate"
       id="rect4198"
       width="90"
       height="90"
       x="0"
       y="962.36218" />
    <g
       id="g4978"
       transform="translate(-60,548.00002)">
      <path
         d="m 66,438.36218 0,42 c 0,18 3,18 30,18 l 18,0 c 27,0 30,0 30,-18 l 0,-42 c 0,-18 -3,-18 -30,-18 l -18,0 c -27,0 -30,0 -30,18 z m 30,-12 18,0 c 24,0 24,0 24,12 l 0,42 c 0,12 0,12 -24,12 l -18,0 c -24,0 -24,0 -24,-12 l 0,-42 c 0,-12 0,-12 24,-12 z"
         id="path3759"
         style="fill:#808080;fill-opacity:1"
         inkscape:connector-curvature="0"
         sodipodi:nodetypes="cssssssccccccccccc" />
      <rect
         style="color:#000000;fill:none;stroke:none;stroke-width:6;marker:none;visibility:visible;display:inline;overflow:visible;enable-background:accumulate"
         id="rect3045"
         width="90"
         height="90"
         x="0"
         y="1.7382814e-05"
         transform="translate(60,414.36216)" />
      <path
         style="font-size:15px;font-style:normal;font-variant:normal;font-weight:normal;font-stretch:normal;text-align:center;line-height:125%;letter-spacing:0px;word-spacing:0px;writing-mode:lr-tb;text-anchor:middle;fill:#808080;fill-opacity:1;stroke:none;font-family:Ubuntu;-inkscape-font-specification:Ubuntu"
         d="m 128.00421,440.65904 -0.375,0.32812 -26.94727,23.60352 -15.796867,-13.55079 -4.775391,5.4004 20.576168,21.64843 31.30078,-32.9375 -3.98242,-4.49218 z"
         id="path4041-9"
         inkscape:connector-curvature="0" />
    </g>
  </g>
</svg>
