<?xml version="1.0" encoding="UTF-8" standalone="no"?>
<!-- Created with Inkscape (http://www.inkscape.org/) -->

<svg
   xmlns:dc="http://purl.org/dc/elements/1.1/"
   xmlns:cc="http://creativecommons.org/ns#"
   xmlns:rdf="http://www.w3.org/1999/02/22-rdf-syntax-ns#"
   xmlns:svg="http://www.w3.org/2000/svg"
   xmlns="http://www.w3.org/2000/svg"
   xmlns:sodipodi="http://sodipodi.sourceforge.net/DTD/sodipodi-0.dtd"
   xmlns:inkscape="http://www.inkscape.org/namespaces/inkscape"
   width="90"
   height="90"
   id="svg3140"
   version="1.1"
   inkscape:version="0.48.3.1 r9886"
   sodipodi:docname="select@30.svg">
  <defs
     id="defs3142" />
  <sodipodi:namedview
     id="base"
     pagecolor="#ffffff"
     bordercolor="#666666"
     borderopacity="1.0"
     inkscape:pageopacity="0.0"
     inkscape:pageshadow="2"
     inkscape:zoom="6.3664629"
     inkscape:cx="58.564702"
     inkscape:cy="35.600587"
     inkscape:document-units="px"
     inkscape:current-layer="g4978"
     showgrid="true"
     inkscape:window-width="1920"
     inkscape:window-height="1029"
     inkscape:window-x="0"
     inkscape:window-y="24"
     inkscape:window-maximized="1"
     fit-margin-top="0"
     fit-margin-left="0"
     fit-margin-right="0"
     fit-margin-bottom="0">
    <inkscape:grid
       type="xygrid"
       id="grid3178"
       empspacing="6"
       visible="true"
       enabled="true"
       snapvisiblegridlinesonly="true"
       originx="0px"
       originy="-1.7382813e-05px" />
  </sodipodi:namedview>
  <metadata
     id="metadata3145">
    <rdf:RDF>
      <cc:Work
         rdf:about="">
        <dc:format>image/svg+xml</dc:format>
        <dc:type
           rdf:resource="http://purl.org/dc/dcmitype/StillImage" />
        <dc:title />
      </cc:Work>
    </rdf:RDF>
  </metadata>
  <g
     inkscape:label="Layer 1"
     inkscape:groupmode="layer"
     id="layer1"
     transform="translate(0,-962.36218)">
    <rect
       style="color:#000000;fill:none;stroke:none;stroke-width:7.5;marker:none;visibility:visible;display:inline;overflow:visible;enable-background:accumulate"
       id="rect4198"
       width="90"
       height="90"
       x="0"
       y="962.36218" />
    <g
       id="g4978"
       transform="translate(-60,548.00002)">
      <path
         d="m 66,438.36218 0,42 c 0,18 3,18 30,18 l 18,0 c 27,0 30,0 30,-18 l 0,-42 c 0,-18 -3,-18 -30,-18 l -18,0 c -27,0 -30,0 -30,18 z m 30,-12 18,0 c 24,0 24,0 24,12 l 0,42 c 0,12 0,12 -24,12 l -18,0 c -24,0 -24,0 -24,-12 l 0,-42 c 0,-12 0,-12 24,-12 z"
         id="path3759"
         style="fill:#808080;fill-opacity:1"
         inkscape:connector-curvature="0"
         sodipodi:nodetypes="cssssssccccccccccc" />
      <path
         d="m 129,438.36218 c -1.81558,1.00331 -17.17854,9.77155 -31.199968,26.97311 -5.649594,-6.92991 -11.585412,-12.5365 -16.799981,-16.8301 l 0,12.69783 c 4.481779,4.11207 9.314774,9.20798 13.874984,15.32741 l 2.324998,3.08039 0.599999,0.75134 0.599999,-0.75134 2.324999,-3.08039 C 111.29152,462.34939 123.25798,453.68525 129,450.00788 z"
         id="path3921-8"
         style="fill:#808080;fill-opacity:1"
         inkscape:connector-curvature="0" />
      <rect
         style="color:#000000;fill:none;stroke:none;stroke-width:6;marker:none;visibility:visible;display:inline;overflow:visible;enable-background:accumulate"
         id="rect3045"
         width="90"
         height="90"
         x="0"
         y="1.7382814e-05"
         transform="translate(60,414.36216)" />
    </g>
  </g>
</svg>
