<?xml version="1.0" encoding="UTF-8" standalone="no"?>
<!-- Created with Inkscape (http://www.inkscape.org/) -->
<svg
   xmlns:svg="http://www.w3.org/2000/svg"
   xmlns="http://www.w3.org/2000/svg"
   version="1.0"
   width="24"
   height="24"
   id="svg3356">
  <defs
     id="defs3358" />
  <path
     d="M 8.90625,2.96875 C 8.5362447,2.9797709 8.2438088,3.2861324 8.25,3.65625 L 8.28125,7.03125 L 4.1875,6.15625 C 3.8997756,6.0998929 3.6111365,6.2437042 3.46875,6.5 C 3.3263635,6.7562957 3.3626443,7.0667292 3.5625,7.28125 L 6.875,10.5625 L 3.78125,11.53125 C 3.4801736,11.606592 3.28125,11.87714 3.28125,12.1875 C 3.28125,12.49786 3.4801736,12.768408 3.78125,12.84375 L 6.46875,13.71875 L 3.125,18.21875 C 2.9629949,18.454966 2.9565284,18.768351 3.125,19 C 3.2934717,19.231649 3.6003603,19.331344 3.875,19.25 L 8.625,17.53125 L 8.75,19.9375 C 8.7532738,20.209992 8.9349525,20.460116 9.1875,20.5625 C 9.4400476,20.664884 9.7141473,20.599536 9.90625,20.40625 L 12.15625,18.3125 L 13.28125,20.0625 C 13.436226,20.312458 13.745928,20.44633 14.03125,20.375 C 14.316572,20.303669 14.512134,20.043481 14.53125,19.75 L 14.65625,18.25 L 19,20.90625 C 19.255582,21.044367 19.568868,21.010723 19.78125,20.8125 C 19.993631,20.614277 20.057684,20.295739 19.9375,20.03125 L 17.78125,15.90625 L 19.3125,15.875 C 19.593806,15.872608 19.840248,15.701471 19.9375,15.4375 C 20.034752,15.173529 19.962515,14.871826 19.75,14.6875 L 18.375,13.40625 L 20.71875,11.90625 C 20.942495,11.766154 21.06482,11.511843 21.03125,11.25 C 20.997681,10.988157 20.81435,10.766622 20.5625,10.6875 L 18.28125,9.9375 L 20.9375,4.0625 C 21.057684,3.7980107 20.993632,3.4794734 20.78125,3.28125 C 20.568867,3.0830266 20.255582,3.0493829 20,3.1875 L 14.96875,5.875 L 14.5625,4.5 C 14.49055,4.2551841 14.282198,4.0774772 14.03125,4.03125 C 13.780303,3.985023 13.529463,4.0781417 13.375,4.28125 L 12.28125,5.75 L 9.375,3.15625 C 9.2487999,3.0356027 9.0808413,2.9684193 8.90625,2.96875 z M 12,7 C 12.554,6.9999999 13,7.446 13,8 L 13,13 C 13,13.554 12.554,14 12,14 C 11.446,14 11,13.554 11,13 L 11,8 C 11,7.4459999 11.446,7 12,7 z M 11.5,15 L 12,15 L 12.5,15 C 12.777,15 13,15.223 13,15.5 L 13,16 L 13,16.5 C 13,16.777 12.777,17 12.5,17 L 12,17 L 11.5,17 C 11.223,17 11,16.777 11,16.5 L 11,16 L 11,15.5 C 11,15.223 11.223,15 11.5,15 z"
     id="path3186"
     style="opacity:1;fill:#3a3935;fill-opacity:1;fill-rule:evenodd;stroke:none;stroke-width:4;stroke-linecap:butt;stroke-linejoin:miter;marker:none;marker-start:none;marker-mid:none;marker-end:none;stroke-miterlimit:4;stroke-dasharray:none;stroke-dashoffset:0;stroke-opacity:1;visibility:visible;display:inline;overflow:visible;enable-background:accumulate" />
  <path
     d="M 8.875,2.4375 C 8.2198979,2.4570127 7.7077884,3.0009492 7.71875,3.65625 L 7.75,6.34375 L 4.3125,5.625 C 4.3020856,5.6246942 4.2916644,5.6246942 4.28125,5.625 C 3.7599904,5.5228999 3.2496468,5.8006355 3,6.25 C 2.7503532,6.6993643 2.8349572,7.2778381 3.1875,7.65625 L 5.875,10.3125 L 3.65625,11.03125 L 3.625,11.03125 C 3.1106131,11.181612 2.75,11.664462 2.75,12.1875 C 2.75,12.710538 3.1106131,13.193388 3.625,13.34375 C 3.6322653,13.345874 3.6521035,13.336931 3.65625,13.34375 L 5.59375,14 L 2.6875,17.90625 C 2.4050269,18.318118 2.3809001,18.890924 2.6875,19.3125 C 2.9941006,19.734077 3.5395252,19.895641 4.03125,19.75 C 4.0416644,19.750306 4.0520856,19.750306 4.0625,19.75 L 8.125,18.28125 L 8.21875,19.96875 C 8.2248188,20.473881 8.5500864,20.880103 9,21.0625 C 9.4499123,21.244897 9.952969,21.111553 10.28125,20.78125 L 12.0625,19.125 L 12.84375,20.34375 C 13.121232,20.791295 13.63097,21.037569 14.15625,20.90625 C 14.68153,20.774929 15.029405,20.289341 15.0625,19.78125 L 15.125,19.15625 L 18.71875,21.375 C 18.729164,21.375306 18.739586,21.375306 18.75,21.375 C 19.197452,21.616804 19.774943,21.543386 20.15625,21.1875 C 20.537555,20.831614 20.653745,20.28839 20.4375,19.8125 C 20.42752,19.801655 20.417095,19.79123 20.40625,19.78125 L 18.65625,16.40625 L 19.3125,16.40625 C 19.807031,16.402045 20.265203,16.092666 20.4375,15.625 C 20.609796,15.157336 20.478353,14.614838 20.09375,14.28125 L 19.21875,13.46875 L 21,12.34375 C 21.395364,12.096196 21.62234,11.654243 21.5625,11.1875 C 21.502662,10.720756 21.171183,10.329638 20.71875,10.1875 L 19.03125,9.625 L 21.4375,4.28125 C 21.653744,3.8053614 21.537556,3.2621363 21.15625,2.90625 C 20.774943,2.5503647 20.197451,2.4769465 19.75,2.71875 L 15.28125,5.09375 L 15.0625,4.34375 C 14.931811,3.8990702 14.563353,3.5807491 14.125,3.5 C 13.686648,3.419251 13.212595,3.6070188 12.9375,3.96875 L 12.1875,4.96875 L 9.71875,2.75 C 9.4933761,2.5345425 9.2180429,2.4369094 8.90625,2.4375 C 8.8958356,2.4371942 8.8854144,2.4371942 8.875,2.4375 z"
     id="path3196"
     style="opacity:0.6;fill:none;fill-opacity:1;fill-rule:nonzero;stroke:#eae3d0;stroke-width:0.99999994;stroke-linecap:round;stroke-linejoin:miter;marker:none;marker-start:none;marker-mid:none;marker-end:none;stroke-miterlimit:4;stroke-dasharray:none;stroke-dashoffset:0;stroke-opacity:1;visibility:visible;display:inline;overflow:visible;enable-background:accumulate" />
</svg>
