<?xml version="1.0" encoding="UTF-8" standalone="no"?>
<!-- Created with Inkscape (http://www.inkscape.org/) -->

<svg
   xmlns:dc="http://purl.org/dc/elements/1.1/"
   xmlns:cc="http://creativecommons.org/ns#"
   xmlns:rdf="http://www.w3.org/1999/02/22-rdf-syntax-ns#"
   xmlns:svg="http://www.w3.org/2000/svg"
   xmlns="http://www.w3.org/2000/svg"
   xmlns:sodipodi="http://sodipodi.sourceforge.net/DTD/sodipodi-0.dtd"
   xmlns:inkscape="http://www.inkscape.org/namespaces/inkscape"
   version="1.1"
   width="24"
   height="24"
   id="svg2882"
   inkscape:version="0.48.0 r9654"
   sodipodi:docname="audacious-panel.svg">
  <metadata
     id="metadata10">
    <rdf:RDF>
      <cc:Work
         rdf:about="">
        <dc:format>image/svg+xml</dc:format>
        <dc:type
           rdf:resource="http://purl.org/dc/dcmitype/StillImage" />
        <dc:title />
      </cc:Work>
    </rdf:RDF>
  </metadata>
  <sodipodi:namedview
     pagecolor="#ffffff"
     bordercolor="#666666"
     borderopacity="1"
     objecttolerance="10"
     gridtolerance="10"
     guidetolerance="10"
     inkscape:pageopacity="0"
     inkscape:pageshadow="2"
     inkscape:window-width="1280"
     inkscape:window-height="753"
     id="namedview8"
     showgrid="false"
     inkscape:zoom="12.340909"
     inkscape:cx="11"
     inkscape:cy="11"
     inkscape:window-x="0"
     inkscape:window-y="24"
     inkscape:window-maximized="1"
     inkscape:current-layer="svg2882" />
  <defs
     id="defs2884" />
  <path
     inkscape:connector-curvature="0"
     style="opacity:0.3;fill:#ffffff;fill-opacity:1;stroke:none"
     id="path2555-4-5"
     d="m 12,4 c -4.9658897,0 -9,4.0341105 -9,9 0,4.96589 4.0341103,9 9,9 5.80693,0 9.000006,-3.529484 9,-9 -5e-6,-4.9658895 -4.034113,-9 -9,-9 z m 0.375,3 c 0.958999,0.00441 1.975485,-0.00144 2.84375,0.4375 1.086337,0.5138064 1.66388,1.72068 1.75,2.875 C 17.04823,11.544334 16.98466,12.765959 17,14 c 0.05054,0.194009 -0.24514,1.970646 0,2 0.740957,0.09501 0.995615,0.290521 1,1 0.0044,0.709479 -0.114432,0.900148 -0.84375,1 -0.640249,0.08554 -1.29328,0.023 -1.9375,0 C 14.74294,17.97246 14.332771,17.362801 14.1875,16.90625 14,18 10.532511,18.35129 8.71875,17.6875 7.5255246,17.282686 7,15.854039 7,14.90625 7,14 7.0088786,13.297972 8,12 8.9911214,10.702028 12,11 14,11 14.313179,10.738534 14.28155,9.682271 12.983021,9.614 11.684493,9.545729 10.960698,9.40533 10.121,10.064 8.6940908,11.183286 7.6485142,10.91944 7.40625,9.71875 7.1310625,8.9637456 8.1975302,8.1399143 8.85,7.75 10.083439,7.249488 10.965732,7.02135 12.375,7 z m -0.125,6.2 c -0.895441,-0.02526 -1.125307,0.15818 -1.609,0.431 -0.499727,0.231959 -0.8798181,0.708947 -0.3,0.913 0.569377,0.395134 3.211751,0.734236 3.721,-0.332 l 0,-0.612 C 13.826959,13.328285 13.145441,13.225261 12.25,13.2 z" />
  <path
     inkscape:connector-curvature="0"
     style="opacity:0.3;fill:none;stroke:#ffffff;stroke-opacity:1"
     id="path3767"
     d="m 12.375,6 c 0.958999,0.00441 1.975485,-0.00144 2.84375,0.4375 1.086337,0.5138064 1.66388,1.72068 1.75,2.875 C 17.04823,10.544334 16.98466,11.765959 17,13 c 0.05054,0.194009 -0.24514,1.970646 0,2 0.740957,0.09501 0.995615,0.290521 1,1 0.0044,0.709479 -0.114432,0.900148 -0.84375,1 -0.640249,0.08554 -1.29328,0.023 -1.9375,0 C 14.74294,16.97246 14.332771,16.362801 14.1875,15.90625 14,17 10.532511,17.35129 8.71875,16.6875 7.5255246,16.282686 7,14.854039 7,13.90625 7,13 7.0088786,12.297972 8,11 8.9911214,9.702028 12,10 14,10 14.313179,9.738534 14.28155,8.6822708 12.983021,8.614 11.684493,8.5457292 10.960698,8.4053299 10.121,9.064 8.6940908,10.183286 7.6485142,9.91944 7.40625,8.71875 7.1310625,7.9637456 8.1975302,7.1399143 8.85,6.75 10.083439,6.249488 10.965732,6.02135 12.375,6 z m -0.125,6.1 c -0.895441,-0.02526 -1.125307,0.35818 -1.609,0.631 -0.499727,0.231959 -0.7798181,0.608947 -0.2,0.813 0.569377,0.395134 3.111751,0.734236 3.621,-0.332 l 0,-0.612 C 13.826959,12.328285 13.145441,12.125261 12.25,12.1 z" />
  <path
     inkscape:connector-curvature="0"
     style="fill:#3c3c3c;fill-opacity:1;stroke:none"
     id="path2555-4"
     d="m 12,3 c -4.9658897,0 -9,4.0341105 -9,9 0,4.96589 4.0341103,9 9,9 5.80693,0 9.000006,-3.529484 9,-9 -5e-6,-4.9658895 -4.034113,-9 -9,-9 z m 0.375,3 c 0.958999,0.00441 1.975485,-0.00144 2.84375,0.4375 1.086337,0.5138064 1.66388,1.72068 1.75,2.875 C 17.04823,10.544334 16.98466,11.765959 17,13 c 0.05054,0.194009 -0.24514,1.970646 0,2 0.740957,0.09501 0.995615,0.290521 1,1 0.0044,0.709479 -0.114432,0.900148 -0.84375,1 -0.640249,0.08554 -1.29328,0.023 -1.9375,0 C 14.74294,16.97246 14.332771,16.362801 14.1875,15.90625 14,17 10.532511,17.35129 8.71875,16.6875 7.5255246,16.282686 7,14.854039 7,13.90625 7,13 7.0088786,12.297972 8,11 8.9911214,9.702028 12,10 14,10 14.313179,9.738534 14.28155,8.6822708 12.983021,8.614 11.684493,8.5457292 10.960698,8.4053299 10.121,9.064 8.6940908,10.183286 7.6485142,9.91944 7.40625,8.71875 7.1310625,7.9637456 8.1975302,7.1399143 8.85,6.75 10.083439,6.249488 10.965732,6.02135 12.375,6 z m -0.125,6.2 c -0.895441,-0.02526 -1.125307,0.15818 -1.609,0.431 -0.499727,0.231959 -0.8798181,0.708947 -0.3,0.913 0.569377,0.395134 3.211751,0.734236 3.721,-0.332 l 0,-0.612 C 13.826959,12.328285 13.145441,12.225261 12.25,12.2 z" />
</svg>
