<?xml version="1.0" encoding="UTF-8" standalone="no"?>
<!-- Created with Inkscape (http://www.inkscape.org/) -->

<svg
   xmlns:dc="http://purl.org/dc/elements/1.1/"
   xmlns:cc="http://creativecommons.org/ns#"
   xmlns:rdf="http://www.w3.org/1999/02/22-rdf-syntax-ns#"
   xmlns:svg="http://www.w3.org/2000/svg"
   xmlns="http://www.w3.org/2000/svg"
   xmlns:sodipodi="http://sodipodi.sourceforge.net/DTD/sodipodi-0.dtd"
   xmlns:inkscape="http://www.inkscape.org/namespaces/inkscape"
   version="1.0"
   width="24"
   height="24"
   id="svg3215"
   inkscape:version="0.48.0 r9654"
   sodipodi:docname="banshee-panel.svg">
  <metadata
     id="metadata13">
    <rdf:RDF>
      <cc:Work
         rdf:about="">
        <dc:format>image/svg+xml</dc:format>
        <dc:type
           rdf:resource="http://purl.org/dc/dcmitype/StillImage" />
        <dc:title></dc:title>
      </cc:Work>
    </rdf:RDF>
  </metadata>
  <sodipodi:namedview
     pagecolor="#ffffff"
     bordercolor="#666666"
     borderopacity="1"
     objecttolerance="10"
     gridtolerance="10"
     guidetolerance="10"
     inkscape:pageopacity="0"
     inkscape:pageshadow="2"
     inkscape:window-width="1280"
     inkscape:window-height="753"
     id="namedview11"
     showgrid="false"
     inkscape:zoom="13.227273"
     inkscape:cx="-0.49140893"
     inkscape:cy="11.793814"
     inkscape:window-x="0"
     inkscape:window-y="24"
     inkscape:window-maximized="1"
     inkscape:current-layer="svg3215" />
  <defs
     id="defs3217" />
  <path
     inkscape:connector-curvature="0"
     style="opacity:0.3;fill:none;stroke:#ffffff;stroke-width:2;stroke-linecap:round;stroke-linejoin:round;stroke-miterlimit:10;stroke-opacity:1;stroke-dasharray:none"
     id="path3198"
     d="m 6.0005754,5.9997926 3,-3 0,12.5427044 c 0,-1.782405 1.7175966,-3.542705 3.4999996,-3.542705 1.782404,0 3.5,1.760595 3.5,3.543001 0,1.782402 -1.717596,3.457 -3.5,3.457 -1.782404,0 -3.4999996,-1.674598 -3.4999996,-3.457 M 11.984253,9.0201841 c 2.797705,-0.2229326 5.422554,1.3749379 6.509345,3.9625489 1.086792,2.587612 0.390069,5.580536 -1.727799,7.422135 -2.117867,1.841598 -5.178546,2.115934 -7.5901591,0.680326 -2.4116126,-1.43561 -3.6294809,-4.256924 -3.020184,-6.99656" />
  <path
     inkscape:connector-curvature="0"
     style="fill:none;stroke:#3c3c3c;stroke-width:2;stroke-linecap:round;stroke-linejoin:round;stroke-miterlimit:10;stroke-opacity:1;stroke-dasharray:none"
     id="path5"
     d="m 6.0005754,5.0000002 3,-3 0,12.5427048 C 9.0005754,12.7603 10.718172,11 12.500575,11 c 1.782404,0 3.5,1.760595 3.5,3.543 0,1.782402 -1.717596,3.457 -3.5,3.457 -1.782404,0 -3.4999996,-1.674598 -3.4999996,-3.457 M 11.984253,8.020392 c 2.797705,-0.2229329 5.422554,1.3749371 6.509345,3.962548 1.086792,2.587613 0.390069,5.580536 -1.727799,7.422135 -2.117867,1.841599 -5.178546,2.115935 -7.5901591,0.680326 -2.4116126,-1.43561 -3.6294809,-4.256923 -3.020184,-6.99656" />
</svg>
