<?xml version="1.0" encoding="UTF-8" standalone="no"?>
<!-- Created with Inkscape (http://www.inkscape.org/) -->

<svg
   xmlns:dc="http://purl.org/dc/elements/1.1/"
   xmlns:cc="http://creativecommons.org/ns#"
   xmlns:rdf="http://www.w3.org/1999/02/22-rdf-syntax-ns#"
   xmlns:svg="http://www.w3.org/2000/svg"
   xmlns="http://www.w3.org/2000/svg"
   xmlns:sodipodi="http://sodipodi.sourceforge.net/DTD/sodipodi-0.dtd"
   xmlns:inkscape="http://www.inkscape.org/namespaces/inkscape"
   version="1.1"
   width="24"
   height="24"
   id="svg3833"
   inkscape:version="0.48.0 r9654"
   sodipodi:docname="dropboxstatus-busy.svg">
  <metadata
     id="metadata13">
    <rdf:RDF>
      <cc:Work
         rdf:about="">
        <dc:format>image/svg+xml</dc:format>
        <dc:type
           rdf:resource="http://purl.org/dc/dcmitype/StillImage" />
        <dc:title></dc:title>
      </cc:Work>
    </rdf:RDF>
  </metadata>
  <sodipodi:namedview
     pagecolor="#ffffff"
     bordercolor="#666666"
     borderopacity="1"
     objecttolerance="10"
     gridtolerance="10"
     guidetolerance="10"
     inkscape:pageopacity="0"
     inkscape:pageshadow="2"
     inkscape:window-width="1280"
     inkscape:window-height="753"
     id="namedview11"
     showgrid="false"
     inkscape:zoom="13.227273"
     inkscape:cx="-0.49140893"
     inkscape:cy="11.793814"
     inkscape:window-x="0"
     inkscape:window-y="24"
     inkscape:window-maximized="1"
     inkscape:current-layer="svg3833" />
  <defs
     id="defs3835" />
  <path
     inkscape:connector-curvature="0"
     style="opacity:0.3;color:#ffffff;fill:#ffffff;fill-opacity:1;fill-rule:nonzero;stroke:none;stroke-width:1;marker:none;visibility:visible;display:inline;overflow:visible;enable-background:accumulate"
     id="path2835-6"
     d="M 7.5,5.5 3,9 7.5,12 3,16 12,22 21,16 16.5,12 21,9 16.5,5.5 12,9 7.5,5.5 z M 12,10 c 1.482632,0 2.412772,0.558291 3,1.25 l 0,-1.25 1,0 0,2 0,1 -1,0 -2,0 0,-1 1.3125,0 C 13.877148,11.443283 13.170048,11 12,11 9,11 9,14 9,14 l -1,0 c 0,0 0,-4 4,-4 z m 3,4 1,0 c 0,0 0,4 -4,4 -1.482632,0 -2.412772,-0.558291 -3,-1.25 l 0,1.25 -1,0 0,-2 0,-1 1,0 2,0 0,1 -1.3125,0 c 0.435352,0.556717 1.142452,1 2.3125,1 3,0 3,-3 3,-3 z" />
  <path
     inkscape:connector-curvature="0"
     style="color:#ffffff;fill:#3c3c3c;fill-opacity:1;fill-rule:nonzero;stroke:none;stroke-width:1;marker:none;visibility:visible;display:inline;overflow:visible;enable-background:accumulate"
     id="path2835"
     d="M 7.5,4.5 3,8 7.5,11 3,15 12,21 21,15 16.5,11 21,8 16.5,4.5 12,8 7.5,4.5 z M 12,9 c 1.482632,0 2.412772,0.558291 3,1.25 L 15,9 l 1,0 0,2 0,1 -1,0 -2,0 0,-1 1.3125,0 C 13.877148,10.443283 13.170048,10 12,10 9,10 9,13 9,13 l -1,0 c 0,0 0,-4.0000004 4,-4 z m 3,4 1,0 c 0,0 0,4 -4,4 -1.482632,0 -2.412772,-0.558291 -3,-1.25 l 0,1.25 -1,0 0,-2 0,-1 1,0 2,0 0,1 -1.3125,0 c 0.435352,0.556717 1.142452,1 2.3125,1 3,0 3,-3 3,-3 z" />
</svg>
