<?xml version="1.0" encoding="UTF-8" standalone="no"?>
<!-- Created with Inkscape (http://www.inkscape.org/) -->
<svg
   xmlns:svg="http://www.w3.org/2000/svg"
   xmlns="http://www.w3.org/2000/svg"
   xmlns:xlink="http://www.w3.org/1999/xlink"
   version="1.0"
   width="24"
   height="24"
   id="svg2822">
  <defs
     id="defs2824">
    <linearGradient
       id="linearGradient3587-6-5">
      <stop
         id="stop3589-9-2"
         style="stop-color:#000000;stop-opacity:1"
         offset="0" />
      <stop
         id="stop3591-7-4"
         style="stop-color:#363636;stop-opacity:1"
         offset="1" />
    </linearGradient>
    <linearGradient
       x1="11"
       y1="3"
       x2="11"
       y2="19.031219"
       id="linearGradient3307"
       xlink:href="#linearGradient3587-6-5"
       gradientUnits="userSpaceOnUse"
       gradientTransform="translate(1,1)" />
  </defs>
  <path
     d="M 10.40625,3.03125 C 9.9069251,3.0772599 9.5263747,3.4985835 9.53125,4 L 9.53125,5.5625 C 9.4170294,5.6086314 9.2972175,5.6361053 9.1875,5.6875 L 8.09375,4.59375 C 7.9125856,4.4092204 7.6648456,4.3125 7.40625,4.3125 C 7.1476544,4.3125002 6.8999144,4.4092204 6.71875,4.59375 L 4.59375,6.71875 C 4.4092204,6.8999144 4.3125,7.1476544 4.3125,7.40625 C 4.3125002,7.6648456 4.4092204,7.9125856 4.59375,8.09375 L 5.6875,9.1875 C 5.6361053,9.2972175 5.6086314,9.4170294 5.5625,9.53125 L 4,9.53125 C 3.7426387,9.5298295 3.4944847,9.6305153 3.3125,9.8125 C 3.1305153,9.9944849 3.0298295,10.242639 3.03125,10.5 L 3.03125,13.5 C 3.0298295,13.757361 3.1305153,14.005515 3.3125,14.1875 C 3.4944847,14.369484 3.7426387,14.47017 4,14.46875 L 5.5625,14.46875 C 5.6086314,14.582971 5.6361053,14.702782 5.6875,14.8125 L 4.59375,15.90625 C 4.4092204,16.087414 4.3125,16.335154 4.3125,16.59375 C 4.3125002,16.852346 4.4092204,17.100086 4.59375,17.28125 L 6.71875,19.40625 C 6.8999144,19.59078 7.1476544,19.6875 7.40625,19.6875 C 7.6648456,19.6875 7.9125856,19.59078 8.09375,19.40625 L 9.1875,18.3125 C 9.2972176,18.363895 9.4170293,18.391369 9.53125,18.4375 L 9.53125,20 C 9.5298295,20.257361 9.6305153,20.505515 9.8125,20.6875 C 9.9944849,20.869485 10.242639,20.97017 10.5,20.96875 L 13.5,20.96875 C 13.757361,20.97017 14.005515,20.869485 14.1875,20.6875 C 14.369484,20.505516 14.47017,20.257361 14.46875,20 L 14.46875,18.4375 C 14.582971,18.391369 14.702782,18.363895 14.8125,18.3125 L 15.90625,19.40625 C 16.087414,19.59078 16.335154,19.6875 16.59375,19.6875 C 16.852346,19.6875 17.100086,19.59078 17.28125,19.40625 L 19.40625,17.28125 C 19.59078,17.100086 19.6875,16.852346 19.6875,16.59375 C 19.6875,16.335154 19.59078,16.087414 19.40625,15.90625 L 18.3125,14.8125 C 18.363895,14.702782 18.391369,14.582971 18.4375,14.46875 L 20,14.46875 C 20.257361,14.47017 20.505515,14.369485 20.6875,14.1875 C 20.869485,14.005515 20.97017,13.757361 20.96875,13.5 L 20.96875,10.5 C 20.97017,10.242639 20.869485,9.9944847 20.6875,9.8125 C 20.505516,9.6305155 20.257361,9.5298295 20,9.53125 L 18.4375,9.53125 C 18.391369,9.4170293 18.363895,9.2972176 18.3125,9.1875 L 19.40625,8.09375 C 19.59078,7.9125856 19.6875,7.6648456 19.6875,7.40625 C 19.6875,7.1476544 19.59078,6.8999144 19.40625,6.71875 L 17.28125,4.59375 C 17.100086,4.4092204 16.852346,4.3125 16.59375,4.3125 C 16.335154,4.3125002 16.087414,4.4092204 15.90625,4.59375 L 14.8125,5.6875 C 14.702782,5.6361053 14.582971,5.6086314 14.46875,5.5625 L 14.46875,4 C 14.47017,3.7426387 14.369485,3.4944847 14.1875,3.3125 C 14.005515,3.1305153 13.757361,3.0298295 13.5,3.03125 L 10.5,3.03125 C 10.468769,3.0297287 10.437481,3.0297287 10.40625,3.03125 z M 12,10 C 13.104,10 14,10.896 14,12 C 14,13.104 13.104,14 12,14 C 10.896,14 10,13.104 10,12 C 10,10.896 10.896,10 12,10 z"
     id="path3200"
     style="opacity:0.6;fill:#eae3d0;fill-opacity:1;fill-rule:evenodd;stroke:none;stroke-width:1.69999993;stroke-linecap:round;stroke-linejoin:miter;marker:none;marker-start:none;marker-mid:none;marker-end:none;stroke-miterlimit:4;stroke-dasharray:none;stroke-dashoffset:0;stroke-opacity:1;visibility:visible;display:inline;overflow:visible;enable-background:accumulate" />
  <path
     d="M 10.5,4 L 10.5,6.1875 C 9.9460968,6.3297005 9.4488356,6.5593783 8.96875,6.84375 L 7.40625,5.28125 L 5.28125,7.40625 L 6.84375,8.96875 C 6.5593783,9.4488356 6.3297005,9.9460968 6.1875,10.5 L 4,10.5 L 4,13.5 L 6.1875,13.5 C 6.3297005,14.053903 6.5593783,14.551164 6.84375,15.03125 L 5.28125,16.59375 L 7.40625,18.71875 L 8.96875,17.15625 C 9.4488356,17.440622 9.9460968,17.6703 10.5,17.8125 L 10.5,20 L 13.5,20 L 13.5,17.8125 C 14.053903,17.6703 14.551164,17.440622 15.03125,17.15625 L 16.59375,18.71875 L 18.71875,16.59375 L 17.15625,15.03125 C 17.440622,14.551164 17.6703,14.053903 17.8125,13.5 L 20,13.5 L 20,10.5 L 17.8125,10.5 C 17.6703,9.9460968 17.440622,9.4488356 17.15625,8.96875 L 18.71875,7.40625 L 16.59375,5.28125 L 15.03125,6.84375 C 14.551164,6.5593783 14.053903,6.3297005 13.5,6.1875 L 13.5,4 L 10.5,4 z M 12,10 C 13.104,9.9999999 14,10.896 14,12 C 14,13.104 13.104,14 12,14 C 10.896,14 10,13.104 10,12 C 9.9999999,10.896 10.896,10 12,10 z"
     id="path3276"
     style="opacity:1;fill:#3a3935;fill-opacity:1;fill-rule:evenodd;stroke:none;stroke-width:1;stroke-linecap:butt;stroke-linejoin:miter;marker:none;marker-start:none;marker-mid:none;marker-end:none;stroke-miterlimit:4;stroke-dasharray:none;stroke-dashoffset:0;stroke-opacity:1;visibility:visible;display:inline;overflow:visible;enable-background:accumulate" />
</svg>
