<?xml version="1.0" encoding="UTF-8" standalone="no"?>
<!-- Created with Inkscape (http://www.inkscape.org/) -->

<svg
   xmlns:dc="http://purl.org/dc/elements/1.1/"
   xmlns:cc="http://creativecommons.org/ns#"
   xmlns:rdf="http://www.w3.org/1999/02/22-rdf-syntax-ns#"
   xmlns:svg="http://www.w3.org/2000/svg"
   xmlns="http://www.w3.org/2000/svg"
   xmlns:sodipodi="http://sodipodi.sourceforge.net/DTD/sodipodi-0.dtd"
   xmlns:inkscape="http://www.inkscape.org/namespaces/inkscape"
   version="1.0"
   width="24"
   height="24"
   id="svg3239"
   inkscape:version="0.48.0 r9654"
   sodipodi:docname="gnome-do-symbolic.svg">
  <metadata
     id="metadata13">
    <rdf:RDF>
      <cc:Work
         rdf:about="">
        <dc:format>image/svg+xml</dc:format>
        <dc:type
           rdf:resource="http://purl.org/dc/dcmitype/StillImage" />
        <dc:title></dc:title>
      </cc:Work>
    </rdf:RDF>
  </metadata>
  <sodipodi:namedview
     pagecolor="#ffffff"
     bordercolor="#666666"
     borderopacity="1"
     objecttolerance="10"
     gridtolerance="10"
     guidetolerance="10"
     inkscape:pageopacity="0"
     inkscape:pageshadow="2"
     inkscape:window-width="1280"
     inkscape:window-height="753"
     id="namedview11"
     showgrid="false"
     inkscape:zoom="13.227273"
     inkscape:cx="-0.49140893"
     inkscape:cy="11.793814"
     inkscape:window-x="0"
     inkscape:window-y="24"
     inkscape:window-maximized="1"
     inkscape:current-layer="svg3239" />
  <defs
     id="defs3241" />
  <path
     inkscape:connector-curvature="0"
     style="opacity:0.3;fill:#ffffff;fill-opacity:1;fill-rule:nonzero;stroke:none;stroke-width:1;marker:none;visibility:visible;display:inline;overflow:visible;enable-background:accumulate"
     id="path3235"
     d="M 6,6 C 4.892,6 4,6.892 4,8 l 0,10 c 0,1.108 0.892,2 2,2 l 12,0 c 1.108,0 2,-0.892 2,-2 L 20,8 C 20,6.892 19.108,6 18,6 L 6,6 z m 6.5625,2 c 0.134251,0.023366 0.218751,0.1134665 0.21875,0.34375 l 0,1.46875 c 0.299919,0.077419 0.645256,0.22389 0.90625,0.375 L 14.75,9.21875 c 0.335981,-0.419071 0.585882,-0.122791 0.90625,0.25 0.300156,0.349272 0.450602,0.4555809 0.125,0.78125 l -0.9375,1.0625 c 0.158474,0.262819 0.295269,0.63367 0.375,0.9375 l 1.40625,0 c 0.460469,0 0.375,0.289435 0.375,0.75 0,0.460567 0.02297,0.78125 -0.4375,0.78125 l -1.34375,0 c -0.07988,0.305823 -0.216043,0.642624 -0.375,0.90625 l 1,1.0625 c 0.371282,0.325669 0.06958,0.528902 -0.25,0.875 -0.325838,0.352876 -0.571623,0.527051 -0.90625,0.15625 l -1,-0.9375 c -0.260993,0.151108 -0.606331,0.266331 -0.90625,0.34375 L 12.8125,17.625 C 12.8125,18.085566 12.460471,18 12,18 c -0.460472,0 -0.75,0.05432 -0.75,-0.40625 l 0.03125,-1.40625 c -0.299918,-0.07742 -0.67651,-0.192642 -0.9375,-0.34375 l -1,0.96875 c -0.325603,0.325668 -0.5241113,0.07949 -0.875,-0.21875 -0.348898,-0.296545 -0.6153081,-0.53094 -0.25,-0.90625 l 0.9375,-1 C 8.997775,14.424679 8.8609797,14.085075 8.78125,13.78125 l -1.40625,0 c -0.460471,0 -0.34375,-0.320683 -0.34375,-0.78125 0,-0.460565 -0.1479719,-0.75 0.3125,-0.75 l 1.4375,0 c 0.079884,-0.305826 0.2160411,-0.673874 0.375,-0.9375 l -0.9375,-1.03125 c -0.270911,-0.265716 -0.166449,-0.4111272 0.25,-0.8125 0.184284,-0.177613 0.2875367,-0.3124997 0.5,-0.3125 0.212465,0 0.2434474,-0.037836 0.40625,0.125 l 0.96875,0.90625 C 10.604741,10.03639 10.950082,9.8899171 11.25,9.8125 l 0,-1.4375 c 0,-0.460567 0.289528,-0.3437498 0.75,-0.34375 0.230236,0 0.428249,-0.054616 0.5625,-0.03125 z M 12,11.46875 c -0.847034,0 -1.53125,0.684042 -1.53125,1.53125 0,0.847208 0.684216,1.53125 1.53125,1.53125 0.847032,0 1.53125,-0.684042 1.53125,-1.53125 0,-0.847208 -0.684219,-1.53125 -1.53125,-1.53125 z" />
  <path
     inkscape:connector-curvature="0"
     style="fill:#3c3c3c;fill-opacity:1;fill-rule:nonzero;stroke:none;stroke-width:1;marker:none;visibility:visible;display:inline;overflow:visible;enable-background:accumulate"
     id="rect2386"
     d="M 6,5 C 4.892,5 4,5.892 4,7 l 0,10 c 0,1.108 0.892,2 2,2 l 12,0 c 1.108,0 2,-0.892 2,-2 L 20,7 C 20,5.892 19.108,5 18,5 L 6,5 z m 6.5625,2 c 0.134251,0.023366 0.218751,0.1134665 0.21875,0.34375 l 0,1.46875 c 0.299919,0.077419 0.645256,0.2238897 0.90625,0.375 L 14.75,8.21875 c 0.335981,-0.419071 0.585882,-0.122791 0.90625,0.25 0.300156,0.349272 0.450602,0.4555809 0.125,0.78125 l -0.9375,1.0625 c 0.158474,0.262819 0.295269,0.63367 0.375,0.9375 l 1.40625,0 c 0.460469,0 0.375,0.289435 0.375,0.75 0,0.460567 0.02297,0.78125 -0.4375,0.78125 l -1.34375,0 c -0.07988,0.305823 -0.216043,0.642624 -0.375,0.90625 l 1,1.0625 c 0.371282,0.325669 0.06958,0.528902 -0.25,0.875 -0.325838,0.352876 -0.571623,0.527051 -0.90625,0.15625 l -1,-0.9375 c -0.260993,0.151108 -0.606331,0.266331 -0.90625,0.34375 L 12.8125,16.625 C 12.8125,17.085566 12.460471,17 12,17 c -0.460472,0 -0.75,0.05432 -0.75,-0.40625 l 0.03125,-1.40625 c -0.299918,-0.07742 -0.67651,-0.192642 -0.9375,-0.34375 l -1,0.96875 c -0.325603,0.325668 -0.5241113,0.07949 -0.875,-0.21875 -0.348898,-0.296545 -0.6153081,-0.53094 -0.25,-0.90625 l 0.9375,-1 C 8.997775,13.424679 8.8609797,13.085075 8.78125,12.78125 l -1.40625,0 c -0.460471,0 -0.34375,-0.320683 -0.34375,-0.78125 0,-0.460565 -0.1479719,-0.75 0.3125,-0.75 l 1.4375,0 c 0.079884,-0.305826 0.2160411,-0.673874 0.375,-0.9375 L 8.21875,9.28125 c -0.270911,-0.265716 -0.166449,-0.4111272 0.25,-0.8125 0.184284,-0.177613 0.2875367,-0.3124997 0.5,-0.3125 0.212465,0 0.2434474,-0.037836 0.40625,0.125 L 10.34375,9.1875 C 10.604741,9.03639 10.950082,8.8899171 11.25,8.8125 l 0,-1.4375 c 0,-0.460567 0.289528,-0.3437498 0.75,-0.34375 0.230236,0 0.428249,-0.054616 0.5625,-0.03125 z M 12,10.46875 c -0.847034,0 -1.53125,0.684042 -1.53125,1.53125 0,0.847208 0.684216,1.53125 1.53125,1.53125 0.847032,0 1.53125,-0.684042 1.53125,-1.53125 0,-0.847208 -0.684219,-1.53125 -1.53125,-1.53125 z" />
</svg>
