<?xml version="1.0" encoding="UTF-8" standalone="no"?>
<!-- Created with Inkscape (http://www.inkscape.org/) -->

<svg
   xmlns:dc="http://purl.org/dc/elements/1.1/"
   xmlns:cc="http://creativecommons.org/ns#"
   xmlns:rdf="http://www.w3.org/1999/02/22-rdf-syntax-ns#"
   xmlns:svg="http://www.w3.org/2000/svg"
   xmlns="http://www.w3.org/2000/svg"
   xmlns:sodipodi="http://sodipodi.sourceforge.net/DTD/sodipodi-0.dtd"
   xmlns:inkscape="http://www.inkscape.org/namespaces/inkscape"
   version="1.0"
   width="24"
   height="24"
   id="svg3294"
   inkscape:version="0.48.0 r9654"
   sodipodi:docname="gsd-xrandr.svg">
  <metadata
     id="metadata15">
    <rdf:RDF>
      <cc:Work
         rdf:about="">
        <dc:format>image/svg+xml</dc:format>
        <dc:type
           rdf:resource="http://purl.org/dc/dcmitype/StillImage" />
        <dc:title></dc:title>
      </cc:Work>
    </rdf:RDF>
  </metadata>
  <sodipodi:namedview
     pagecolor="#ffffff"
     bordercolor="#666666"
     borderopacity="1"
     objecttolerance="10"
     gridtolerance="10"
     guidetolerance="10"
     inkscape:pageopacity="0"
     inkscape:pageshadow="2"
     inkscape:window-width="1280"
     inkscape:window-height="749"
     id="namedview13"
     showgrid="false"
     inkscape:zoom="13.181818"
     inkscape:cx="-0.53103448"
     inkscape:cy="11.872414"
     inkscape:window-x="0"
     inkscape:window-y="24"
     inkscape:window-maximized="1"
     inkscape:current-layer="svg3294" />
  <defs
     id="defs3296" />
  <path
     inkscape:connector-curvature="0"
     style="opacity:0.3;fill:#ffffff;fill-opacity:1;fill-rule:nonzero;stroke:none;stroke-width:1;marker:none;visibility:visible;display:inline;overflow:visible;enable-background:accumulate"
     d="M 5,5 C 4.446,5 4,5.4893865 4,6.09375 l 0,9.8125 C 4,16.510614 4.446,17 5,17 l 14,0 c 0.554,0 1,-0.489386 1,-1.09375 l 0,-9.8125 C 20,5.4893863 19.554,5 19,5 L 5,5 z m 1,2 12,0 0,8 -12,0 0,-8 z m 3,11 0,1 -2,0 0,2 10,0 0,-2 -2,0 0,-1 -6,0 z"
     id="rect2722-3" />
  <path
     style="fill:#3c3c3c;fill-opacity:1;fill-rule:nonzero;stroke:none;stroke-width:1;marker:none;visibility:visible;display:inline;overflow:visible;enable-background:accumulate"
     d="M 5,4 C 4.446,4 4,4.4893865 4,5.09375 l 0,9.8125 C 4,15.510614 4.446,16 5,16 l 14,0 c 0.554,0 1,-0.489386 1,-1.09375 l 0,-9.8125 C 20,4.4893863 19.554,4 19,4 L 5,4 z m 1,2 12,0 0,8 -12,0 0,-8 z m 3,11 0,1 -2,0 0,2 10,0 0,-2 -2,0 0,-1 -6,0 z"
     id="rect2722"
     inkscape:connector-curvature="0" />
</svg>
