<?xml version="1.0" encoding="UTF-8" standalone="no"?>
<!-- Created with Inkscape (http://www.inkscape.org/) -->

<svg
   xmlns:dc="http://purl.org/dc/elements/1.1/"
   xmlns:cc="http://creativecommons.org/ns#"
   xmlns:rdf="http://www.w3.org/1999/02/22-rdf-syntax-ns#"
   xmlns:svg="http://www.w3.org/2000/svg"
   xmlns="http://www.w3.org/2000/svg"
   version="1.0"
   width="24"
   height="24"
   id="svg3212">
  <metadata
     id="metadata13">
    <rdf:RDF>
      <cc:Work
         rdf:about="">
        <dc:format>image/svg+xml</dc:format>
        <dc:type
           rdf:resource="http://purl.org/dc/dcmitype/StillImage" />
        <dc:title></dc:title>
      </cc:Work>
    </rdf:RDF>
  </metadata>
  <defs
     id="defs3214" />
  <path
     d="M 6,6 C 4.892,6 4,6.892 4,8 l 0,10 c 0,1.108 0.892,2 2,2 l 12,0 c 1.108,0 2,-0.892 2,-2 L 20,8 C 20,6.892 19.108,6 18,6 L 6,6 z m 9.03125,2 c 0.05517,0.00526 0.135626,0.03589 0.1875,0.0625 l 1.5625,0.78125 c 0.207499,0.1064389 0.269632,0.3677093 0.15625,0.5625 l -4.875,8.375 C 11.975693,17.930386 11.793876,18.020032 11.625,18 c -0.0517,-0.0061 -0.107619,-0.0063 -0.15625,-0.03125 -0.0052,-0.0024 -4.2500001,-3.3125 -4.25,-3.3125 C 7.0112529,14.549811 6.9491197,14.288537 7.0625,14.09375 l 1.03125,-1.25 C 8.2071332,12.648957 8.4800012,12.581059 8.6875,12.6875 L 11,14.4375 14.625,8.21875 C 14.710038,8.0726566 14.865742,7.9842316 15.03125,8 z"
     id="path3208"
     style="opacity:0.3;fill:#ffffff;fill-opacity:1;fill-rule:nonzero;stroke:none;stroke-width:1;marker:none;visibility:visible;display:inline;overflow:visible;enable-background:accumulate" />
  <path
     d="M 6,5 C 4.892,5 4,5.892 4,7 l 0,10 c 0,1.108 0.892,2 2,2 l 12,0 c 1.108,0 2,-0.892 2,-2 L 20,7 C 20,5.892 19.108,5 18,5 L 6,5 z m 9.03125,2 c 0.05517,0.00526 0.135626,0.03589 0.1875,0.0625 l 1.5625,0.78125 c 0.207499,0.1064389 0.269632,0.3677093 0.15625,0.5625 l -4.875,8.375 C 11.975693,16.930386 11.793876,17.020032 11.625,17 c -0.0517,-0.0061 -0.107619,-0.0063 -0.15625,-0.03125 -0.0052,-0.0024 -4.2500001,-3.3125 -4.25,-3.3125 C 7.0112529,13.549811 6.9491197,13.288537 7.0625,13.09375 l 1.03125,-1.25 C 8.2071332,11.648957 8.4800012,11.581059 8.6875,11.6875 L 11,13.4375 14.625,7.21875 C 14.710038,7.0726566 14.865742,6.9842316 15.03125,7 z"
     id="rect2386"
     style="fill:#3c3c3c;fill-opacity:1;fill-rule:nonzero;stroke:none;stroke-width:1;marker:none;visibility:visible;display:inline;overflow:visible;enable-background:accumulate" />
</svg>
