<?xml version="1.0" encoding="UTF-8" standalone="no"?>
<!-- Created with Inkscape (http://www.inkscape.org/) -->

<svg
   xmlns:svg="http://www.w3.org/2000/svg"
   xmlns="http://www.w3.org/2000/svg"
   version="1.1"
   width="24"
   height="24"
   id="svg7698">
  <defs
     id="defs7700" />
  <g
     transform="translate(-0.9998301,-6.999927)"
     id="layer1">
    <rect
       width="7.5778294"
       height="1.4840224"
       rx="0.42111161"
       ry="0.74200493"
       x="9.1874638"
       y="11.234356"
       id="rect3596"
       style="opacity:0.3;fill:none;stroke:#000000;stroke-width:0.5;stroke-miterlimit:4;stroke-opacity:1;stroke-dasharray:none" />
    <path
       d="m 7.6648807,12.186531 c -0.1372802,1.415117 0.825916,1.813723 1.9909127,2.110283 l 6.4245916,0 c 2.199906,-0.294124 1.992726,-1.198923 2.096746,-2.110283 1.254991,0 2.608718,0.499858 2.525699,2.410531 l 0,8.597086 c 0.08302,1.827655 -0.277459,2.774704 -2.44566,2.608666 l -10.4323312,0 C 5.9056975,25.968852 5.1138112,25.187841 5.1968301,23.194148 l 0,-8.597086 C 5.1138112,13.014024 5.994796,12.186531 7.6648807,12.186531 z"
       id="path3594"
       style="opacity:0.3;fill:none;stroke:#000000;stroke-width:0.5;stroke-linecap:round;stroke-miterlimit:4;stroke-opacity:1;stroke-dasharray:none" />
    <path
       d="M 6.2200625,6.1566875 C 5.980625,6.257625 5.76525,6.40375 5.5845,6.5845 5.223,6.946 5,7.446 5,8 l 0,8 c 0,1.108 0.892,2 2,2 l 10,0 c 1.108,0 2,-0.892 2,-2 l 0,-2.3125 -2.03125,2 c -0.0089,0.02153 -0.01939,0.04243 -0.03125,0.0625 l -0.09375,0.09375 c 3.26e-4,0.01041 3.26e-4,0.02084 0,0.03125 -0.04577,0.04044 -0.09903,0.07239 -0.15625,0.09375 -0.01041,3.26e-4 -0.02084,3.26e-4 -0.03125,0 -0.02007,0.01186 -0.04097,0.02231 -0.0625,0.03125 -0.03116,0.0029 -0.06259,0.0029 -0.09375,0 -0.01041,3.26e-4 -0.02084,3.26e-4 -0.03125,0 -0.02081,0.0013 -0.04169,0.0013 -0.0625,0 -0.01041,3.26e-4 -0.02084,3.26e-4 -0.03125,0 -0.04431,-0.01486 -0.08653,-0.03596 -0.125,-0.0625 -0.01041,3.26e-4 -0.02084,3.26e-4 -0.03125,0 -3.26e-4,-0.01041 -3.26e-4,-0.02084 0,-0.03125 -0.01041,3.26e-4 -0.02084,3.26e-4 -0.03125,0 -3.26e-4,-0.01041 -3.26e-4,-0.02084 0,-0.03125 -0.01087,-0.0099 -0.0213,-0.02038 -0.03125,-0.03125 L 16.125,15.8125 c -0.03753,-0.03642 -0.06929,-0.07877 -0.09375,-0.125 l -0.875,-0.84375 c -0.25698,-0.157182 -0.305677,-0.567161 -0.09267,-0.780169 0.213008,-0.213008 0.622987,-0.164311 0.780169,0.09267 L 16.5,14.8125 18.65625,12.65625 c 0.06525,-0.07545 0.153584,-0.130666 0.25,-0.15625 0.03116,-0.0029 0.06259,-0.0029 0.09375,0 l 0,-3.8125 -2.03125,2 c -0.0089,0.02153 -0.01939,0.04243 -0.03125,0.0625 l -0.09375,0.09375 c 3.26e-4,0.01041 3.26e-4,0.02084 0,0.03125 -0.02007,0.01186 -0.04097,0.02231 -0.0625,0.03125 -0.0099,0.01087 -0.02038,0.0213 -0.03125,0.03125 -0.02007,0.01186 -0.04097,0.02231 -0.0625,0.03125 -0.01041,3.26e-4 -0.02084,3.26e-4 -0.03125,0 -0.02007,0.01186 -0.04097,0.02231 -0.0625,0.03125 -0.01041,3.26e-4 -0.02084,3.26e-4 -0.03125,0 -0.06176,0.01179 -0.125743,0.01179 -0.1875,0 -0.01087,-0.0099 -0.0213,-0.02038 -0.03125,-0.03125 -0.02153,-0.0089 -0.04243,-0.01939 -0.0625,-0.03125 -0.01041,3.26e-4 -0.02084,3.26e-4 -0.03125,0 -0.01041,3.26e-4 -0.02084,3.26e-4 -0.03125,0 -3.26e-4,-0.01041 -3.26e-4,-0.02084 0,-0.03125 -0.01041,3.26e-4 -0.02084,3.26e-4 -0.03125,0 -3.26e-4,-0.01041 -3.26e-4,-0.02084 0,-0.03125 -0.01087,-0.0099 -0.0213,-0.02038 -0.03125,-0.03125 L 16.125,10.8125 c -0.03753,-0.03642 -0.06929,-0.07877 -0.09375,-0.125 l -0.875,-0.84375 C 14.89927,9.6865678 14.850573,9.2765891 15.063581,9.0635813 15.276589,8.8505734 15.686568,8.8992705 15.84375,9.15625 L 16.5,9.8125 18.65625,7.65625 C 18.7215,7.580795 18.809834,7.5255839 18.90625,7.5 18.91666,7.4996745 18.93979,7.50985 18.9375,7.5 18.839566,7.078182 18.576209,6.6930016 18.236352,6.4260012 18.066423,6.292501 17.874195,6.1860007 17.666019,6.1128755 L 17,8 7,8 6.2200625,6.1566875 z M 18.9375,7.5 C 18.978476,7.6599994 19,7.826875 19,8 l 0,0.6875 0.34375,-0.34375 C 19.623126,8.0518054 19.339945,7.4636607 18.9375,7.5 z m 0.0625,5 0,1.1875 0.34375,-0.34375 C 19.606545,13.066598 19.381656,12.514598 19,12.5 z M 6,9 7,9 7,10 6,10 6,9 z M 8.84375,9 C 8.864556,8.9987 8.885444,8.9987 8.90625,9 8.937408,8.99707 8.968842,8.99707 9,9 l 4,0 c 0.264156,-0.00374 0.507121,0.2358173 0.507121,0.5 0,0.2641827 -0.242965,0.503736 -0.507121,0.5 L 9,10 C 8.7382006,10.040906 8.4627814,9.8399243 8.4218752,9.578125 8.3809691,9.3163256 8.5819506,9.0409062 8.84375,9 z m 0,2 C 8.864556,10.9987 8.885444,10.9987 8.90625,11 8.937408,10.9971 8.968842,10.9971 9,11 l 4,0 c 0.264156,-0.0037 0.507121,0.235817 0.507121,0.5 0,0.264183 -0.242965,0.503736 -0.507121,0.5 L 9,12 C 8.7382006,12.040906 8.4627814,11.839924 8.4218752,11.578125 8.3809691,11.316326 8.5819506,11.040906 8.84375,11 z M 6,14 l 1,0 0,1 -1,0 0,-1 z m 2.84375,0 C 8.864556,13.9987 8.885444,13.9987 8.90625,14 8.937408,13.9971 8.968842,13.9971 9,14 l 4,0 c 0.264156,-0.0037 0.507121,0.235817 0.507121,0.5 0,0.264183 -0.242965,0.503736 -0.507121,0.5 L 9,15 C 8.7382006,15.040906 8.4627814,14.839924 8.4218752,14.578125 8.3809691,14.316326 8.5819506,14.040906 8.84375,14 z m 0,2 C 8.864556,15.9987 8.885444,15.9987 8.90625,16 8.937408,15.9971 8.968842,15.9971 9,16 l 4,0 c 0.264156,-0.0037 0.507121,0.235817 0.507121,0.5 0,0.264183 -0.242965,0.503736 -0.507121,0.5 L 9,17 C 8.7382006,17.040906 8.4627814,16.839924 8.4218752,16.578125 8.3809691,16.316326 8.5819506,16.040906 8.84375,16 z"
       transform="translate(1,7.000076)"
       id="rect2831"
       style="fill:#3a3935;fill-opacity:1;stroke:none" />
    <path
       d="m 18.000007,4.4528303 c 1.411132,0 2.54717,1.1360377 2.54717,2.5471697 l 0,10.090569 c 0,1.411132 -1.136038,2.547169 -2.54717,2.547169 l -12.0000072,0 c -1.411132,0 -2.5471697,-1.136037 -2.5471697,-2.547169 L 3.4528301,7 c 0,-1.411132 1.1360377,-2.5471697 2.5471697,-2.5471697"
       transform="translate(1,7.000076)"
       id="rect2821"
       style="fill:none;stroke:#3a3935;stroke-linecap:round;stroke-opacity:1" />
    <rect
       width="9.0000029"
       height="3"
       rx="1.5000029"
       ry="1"
       x="8.5"
       y="10.500076"
       id="rect3639"
       style="fill:none;stroke:#3a3935;stroke-opacity:1" />
    <path
       d="m 6.3329808,10.499814 c 0.3919916,0 -0.034186,0 1.1668493,0 0.6005178,0 0.2795366,-0.7516649 1.3205674,-1 l 8.0267885,0 c 1.041032,0.2483351 1.052127,1 1.652644,1 1.201035,0 0.575008,0 0.967,0 1.567967,0 3.030114,1.47473 3.030114,3.054 l 0,10.892 c 0,1.579271 -1.362147,3.051113 -2.930114,3.051113 l -13.0339999,0 c -1.5679663,0 -3.033,-1.471842 -3.033,-3.051113 l 0,-10.892 c 0,-1.164176 1.2651844,-3.054 2.8331507,-3.054 z"
       id="path2820"
       style="opacity:0.6;fill:none;stroke:#eae3d0;stroke-width:1;stroke-linecap:round;stroke-miterlimit:4;stroke-opacity:1;stroke-dasharray:none" />
  </g>
</svg>
