<?xml version="1.0" encoding="UTF-8" standalone="no"?>
<!-- Created with Inkscape (http://www.inkscape.org/) -->
<svg
   xmlns:svg="http://www.w3.org/2000/svg"
   xmlns="http://www.w3.org/2000/svg"
   version="1.0"
   width="24"
   height="24"
   id="svg3215">
  <defs
     id="defs3217" />
  <g
     id="g3271"
     style="opacity:0.4">
    <path
       d="M 8.5,4 C 7.669,4 7,4.669 7,5.5 L 7,18.5 C 7,19.331 7.669,20 8.5,20 L 16.5,20 C 17.331,20 18,19.331 18,18.5 L 18,5.5 C 18,4.669 17.331,4 16.5,4 L 8.5,4 z M 12.5,6 C 14.433374,6 16.000462,7.5671386 16,9.5 C 16.000462,11.432862 14.433374,13 12.5,13 C 10.566626,13 8.999538,11.432862 9,9.5 C 8.9995376,7.5671389 10.566626,6 12.5,6 z M 10,16 C 10.552428,16 11.000202,16.447775 11,17 C 11.000202,17.552225 10.552428,18 10,18 C 9.4475722,18 8.999798,17.552225 9,17 C 8.9997981,16.447775 9.4475726,16 10,16 z M 15,16 C 15.552428,16 16.000202,16.447775 16,17 C 16.000202,17.552225 15.552428,18 15,18 C 14.447572,18 13.999798,17.552225 14,17 C 13.999798,16.447775 14.447572,16 15,16 z"
       id="rect2406"
       style="fill:#3a3935;fill-opacity:1;fill-rule:evenodd;stroke:none;stroke-width:0.99999994;stroke-linecap:round;stroke-linejoin:miter;marker:none;marker-start:none;marker-mid:none;marker-end:none;stroke-miterlimit:4;stroke-dasharray:none;stroke-dashoffset:0;stroke-opacity:1;visibility:visible;display:inline;overflow:visible;enable-background:accumulate" />
    <rect
       width="12"
       height="17"
       rx="2"
       ry="2"
       x="6.5"
       y="3.5"
       id="rect3178"
       style="opacity:0.6;fill:none;fill-opacity:1;fill-rule:nonzero;stroke:#eae3d0;stroke-width:0.99999994;stroke-linecap:round;stroke-linejoin:miter;marker:none;marker-start:none;marker-mid:none;marker-end:none;stroke-miterlimit:4;stroke-dasharray:none;stroke-dashoffset:0;stroke-opacity:1;visibility:visible;display:inline;overflow:visible;enable-background:accumulate" />
    <path
       d="M 14.004663,9.8313255 A 1.715506,1.060241 0 1 1 10.573651,9.8313255 A 1.715506,1.060241 0 1 1 14.004663,9.8313255 z"
       transform="matrix(0.8743776,0,0,1.4147727,1.7546365,-4.409091)"
       id="path3194"
       style="opacity:1;fill:#3a3935;fill-opacity:1;fill-rule:evenodd;stroke:none;stroke-width:0.99999994;stroke-linecap:round;stroke-linejoin:miter;marker:none;marker-start:none;marker-mid:none;marker-end:none;stroke-miterlimit:4;stroke-dasharray:none;stroke-dashoffset:0;stroke-opacity:1;visibility:visible;display:inline;overflow:visible;enable-background:accumulate" />
    <path
       d="M 15.759036,9.5421686 A 3.180723,3.180723 0 1 1 9.3975899,9.5421686 A 3.180723,3.180723 0 1 1 15.759036,9.5421686 z"
       transform="matrix(1.0217803,0,0,1.0217803,-0.3522721,-0.2499998)"
       id="path3201"
       style="opacity:0.3;fill:none;fill-opacity:1;fill-rule:evenodd;stroke:#000000;stroke-width:0.48934197;stroke-linecap:round;stroke-linejoin:miter;marker:none;marker-start:none;marker-mid:none;marker-end:none;stroke-miterlimit:4;stroke-dasharray:none;stroke-dashoffset:0;stroke-opacity:1;visibility:visible;display:inline;overflow:visible;enable-background:accumulate" />
    <path
       d="M 15.759036,9.5421686 A 3.180723,3.180723 0 1 1 9.3975899,9.5421686 A 3.180723,3.180723 0 1 1 15.759036,9.5421686 z"
       transform="matrix(0.5501894,0,0,0.5501894,5.5795458,4.2500001)"
       id="path3203"
       style="opacity:0.3;fill:none;fill-opacity:1;fill-rule:evenodd;stroke:#000000;stroke-width:0.90877789;stroke-linecap:round;stroke-linejoin:miter;marker:none;marker-start:none;marker-mid:none;marker-end:none;stroke-miterlimit:4;stroke-dasharray:none;stroke-dashoffset:0;stroke-opacity:1;visibility:visible;display:inline;overflow:visible;enable-background:accumulate" />
  </g>
</svg>
