<?xml version="1.0" encoding="UTF-8" standalone="no"?>
<!-- Created with Inkscape (http://www.inkscape.org/) -->

<svg
   xmlns:dc="http://purl.org/dc/elements/1.1/"
   xmlns:cc="http://creativecommons.org/ns#"
   xmlns:rdf="http://www.w3.org/1999/02/22-rdf-syntax-ns#"
   xmlns:svg="http://www.w3.org/2000/svg"
   xmlns="http://www.w3.org/2000/svg"
   version="1.1"
   width="24"
   height="24"
   id="svg3801">
  <metadata
     id="metadata16">
    <rdf:RDF>
      <cc:Work
         rdf:about="">
        <dc:format>image/svg+xml</dc:format>
        <dc:type
           rdf:resource="http://purl.org/dc/dcmitype/StillImage" />
        <dc:title></dc:title>
      </cc:Work>
    </rdf:RDF>
  </metadata>
  <defs
     id="defs3803" />
  <g
     transform="translate(-6.5,-3.5000005)"
     id="layer1-5"
     style="opacity:0.3;color:#ffffff;fill:#ffffff;fill-opacity:1;fill-rule:evenodd;stroke:none;stroke-width:0.99999994;marker:none;visibility:visible;display:inline;overflow:visible;enable-background:accumulate">
    <path
       d="M 13.644926,8.5000003 23.5,17.817529 19.007247,17.958704 c 0,0 1.884058,3.811715 1.884058,3.811715 0.57971,1.694097 -2.028987,2.329382 -2.46377,1.058811 0,0 -1.73913,-3.811717 -1.73913,-3.811717 L 13.5,22.335119 13.644926,8.5000003 z"
       id="path3970-4"
       style="color:#ffffff;fill:#ffffff;fill-opacity:1;fill-rule:evenodd;stroke:none;stroke-width:0.99999994;marker:none;visibility:visible;display:inline;overflow:visible;enable-background:accumulate" />
  </g>
  <g
     transform="translate(-6.5,-4.5000005)"
     id="layer1-2"
     style="color:#ffffff;fill:#3c3c3c;fill-opacity:1;fill-rule:evenodd;stroke:none;stroke-width:0.99999994;marker:none;visibility:visible;display:inline;overflow:visible;enable-background:accumulate">
    <path
       d="M 13.644926,8.5000003 23.5,17.817529 19.007247,17.958704 c 0,0 1.884058,3.811715 1.884058,3.811715 0.57971,1.694097 -2.028987,2.329382 -2.46377,1.058811 0,0 -1.73913,-3.811717 -1.73913,-3.811717 L 13.5,22.335119 13.644926,8.5000003 z"
       id="path3970"
       style="color:#ffffff;fill:#3c3c3c;fill-opacity:1;fill-rule:evenodd;stroke:none;stroke-width:0.99999994;marker:none;visibility:visible;display:inline;overflow:visible;enable-background:accumulate" />
  </g>
</svg>
