<?xml version="1.0" encoding="UTF-8" standalone="no"?>
<!-- Created with Inkscape (http://www.inkscape.org/) -->

<svg
   xmlns:dc="http://purl.org/dc/elements/1.1/"
   xmlns:cc="http://creativecommons.org/ns#"
   xmlns:rdf="http://www.w3.org/1999/02/22-rdf-syntax-ns#"
   xmlns:svg="http://www.w3.org/2000/svg"
   xmlns="http://www.w3.org/2000/svg"
   xmlns:sodipodi="http://sodipodi.sourceforge.net/DTD/sodipodi-0.dtd"
   xmlns:inkscape="http://www.inkscape.org/namespaces/inkscape"
   version="1.0"
   width="24"
   height="24"
   id="svg3182"
   inkscape:version="0.48.0 r9654"
   sodipodi:docname="tomboy-panel.svg">
  <metadata
     id="metadata9">
    <rdf:RDF>
      <cc:Work
         rdf:about="">
        <dc:format>image/svg+xml</dc:format>
        <dc:type
           rdf:resource="http://purl.org/dc/dcmitype/StillImage" />
        <dc:title></dc:title>
      </cc:Work>
    </rdf:RDF>
  </metadata>
  <sodipodi:namedview
     pagecolor="#ffffff"
     bordercolor="#666666"
     borderopacity="1"
     objecttolerance="10"
     gridtolerance="10"
     guidetolerance="10"
     inkscape:pageopacity="0"
     inkscape:pageshadow="2"
     inkscape:window-width="1280"
     inkscape:window-height="753"
     id="namedview7"
     showgrid="false"
     inkscape:zoom="13.227273"
     inkscape:cx="-0.49140893"
     inkscape:cy="11.793814"
     inkscape:window-x="0"
     inkscape:window-y="24"
     inkscape:window-maximized="1"
     inkscape:current-layer="svg3182" />
  <defs
     id="defs3184" />
  <g
     id="layer1"
     transform="translate(1.0002882,0.99999966)">
    <path
       inkscape:connector-curvature="0"
       d="M 3.03125,5.2184612 C 3.02407,5.2592992 3.003396,5.3017122 3,5.3434612 2.984853,8.9454101 2.9999879,12.553633 3,16.155962 3.00438,12.506977 3.023266,8.8673565 3.03125,5.2184612 z M 19,5.8122112 c -3e-5,3.6073911 -0.01609,7.2054898 -0.03125,10.8125008 -0.06084,0.89097 -0.972713,1.492273 -1.8125,1.375 -4.270805,-0.0051 -8.5420171,-0.01328 -12.8125,-0.03125 C 3.5648303,17.915182 3.0428972,17.236999 3,16.499712 c -8.77e-5,0.562211 6.746e-4,1.125304 0,1.6875 -0.1173936,0.841386 0.451861,1.751543 1.34375,1.8125 4.2786156,0.01799 8.564812,-0.0051 12.84375,0 0.841386,0.117394 1.751543,-0.45186 1.8125,-1.34375 0.01799,-4.278615 -0.0051,-8.564813 0,-12.8437508 z M 4.5,3.9997112 C 3.7518446,3.9867972 3.0918979,4.4870725 3.03125,5.0934612 3.0132923,8.5662487 3.005125,12.026662 3,15.499712 c -0.1171704,0.68292 0.453556,1.419275 1.34375,1.46875 4.2704829,0.0146 8.541695,0.02708 12.8125,0.03125 0.839787,0.09529 1.751659,-0.369836 1.8125,-1.09375 C 18.98429,12.901062 18.9995,9.8799191 19,6.8747112 l -5.03125,5.0312498 c -0.374994,0.374994 -0.836558,0.509592 -1.3125,0.531251 -0.230652,0.188767 -0.4591,0.371783 -0.75,0.46875 -0.394494,0.131498 -1.005074,0.182427 -1.5,-0.3125 -0.494927,-0.494928 -0.443998,-1.105507 -0.3125,-1.500001 0.09697,-0.2909 0.279984,-0.519348 0.46875,-0.75 0.02166,-0.475942 0.156256,-0.9375064 0.53125,-1.3124998 l 5.03125,-5.03125 c -3.866726,-0.00785 -7.7581455,0.00368 -11.625,0 z m 7.336221,5.7495661 C 11.57735,10.008149 11.509885,10.369782 11.593153,10.699452 l -0.110486,0.110486 c -0.391737,0.391737 -0.549422,0.864791 -0.353553,1.06066 0.195869,0.195869 0.668923,0.03818 1.06066,-0.353553 l 0.110486,-0.110486 c 0.32967,0.08327 0.691303,0.0158 0.950174,-0.243068 l 7.071068,-7.0710679 c 0.391737,-0.3917372 0.391737,-1.0224764 0,-1.4142136 -0.391737,-0.3917371 -1.022476,-0.3917371 -1.414213,0 l -7.071068,7.0710678 z"
       id="rect3226-9"
       style="opacity:0.3;fill:#ffffff;fill-opacity:1;fill-rule:nonzero;stroke:none;stroke-width:3;marker:none;visibility:visible;display:inline;overflow:visible;enable-background:accumulate" />
    <path
       d="M 3.03125,4.21875 C 3.02407,4.259588 3.003396,4.302001 3,4.34375 2.984853,7.9456989 2.9999879,11.553921 3,15.15625 3.00438,11.507265 3.023266,7.8676453 3.03125,4.21875 z M 19,4.8125 c -3e-5,3.6073911 -0.01609,7.205489 -0.03125,10.8125 C 18.90791,16.51597 17.996037,17.117273 17.15625,17 12.885445,16.9949 8.6142329,16.98672 4.34375,16.96875 3.5648303,16.915469 3.0428972,16.237287 3,15.5 c -8.77e-5,0.562211 6.746e-4,1.125304 0,1.6875 C 2.8826064,18.028886 3.451861,18.939043 4.34375,19 8.6223656,19.01799 12.908562,18.9949 17.1875,19 18.028886,19.117394 18.939043,18.54814 19,17.65625 19.01799,13.377635 18.9949,9.091438 19,4.8125 z M 4.5,3 C 3.7518446,2.987086 3.0918979,3.4873613 3.03125,4.09375 3.0132923,7.5665375 3.005125,11.026951 3,14.5 c -0.1171704,0.68292 0.453556,1.419275 1.34375,1.46875 4.2704829,0.0146 8.541695,0.02708 12.8125,0.03125 0.839787,0.09529 1.751659,-0.369836 1.8125,-1.09375 C 18.984289,11.90135 18.9995,8.8802079 19,5.875 l -5.03125,5.03125 c -0.374994,0.374994 -0.836558,0.509591 -1.3125,0.53125 -0.230652,0.188767 -0.4591,0.371783 -0.75,0.46875 -0.394494,0.131498 -1.005074,0.182427 -1.5,-0.3125 -0.494927,-0.494927 -0.443998,-1.105506 -0.3125,-1.5 0.09697,-0.2909 0.279984,-0.519348 0.46875,-0.75 0.02166,-0.4759422 0.156256,-0.9375066 0.53125,-1.3125 L 16.125,3 C 12.258274,2.9921484 8.3668545,3.0036828 4.5,3 z m 7.336221,5.7495661 C 11.57735,9.008438 11.509885,9.370071 11.593153,9.699741 l -0.110486,0.110486 c -0.391737,0.391737 -0.549422,0.864791 -0.353553,1.06066 0.195869,0.195869 0.668923,0.03818 1.06066,-0.353553 l 0.110486,-0.110486 c 0.32967,0.08327 0.691303,0.0158 0.950174,-0.243068 l 7.071068,-7.0710681 c 0.391737,-0.3917372 0.391737,-1.0224764 0,-1.4142136 -0.391737,-0.3917371 -1.022476,-0.3917371 -1.414213,0 l -7.071068,7.0710678 z"
       id="rect3226"
       style="fill:#3c3c3c;fill-opacity:1;fill-rule:nonzero;stroke:none;stroke-width:3;marker:none;visibility:visible;display:inline;overflow:visible;enable-background:accumulate"
       inkscape:connector-curvature="0" />
  </g>
</svg>
