<?xml version="1.0" encoding="UTF-8" standalone="no"?>
<!-- Created with Inkscape (http://www.inkscape.org/) -->
<svg
   xmlns:svg="http://www.w3.org/2000/svg"
   xmlns="http://www.w3.org/2000/svg"
   version="1.0"
   width="24"
   height="24"
   id="svg3191">
  <defs
     id="defs3193" />
  <g
     id="layer1">
    <path
       d="M 20.625,1.34375 C 20.104027,1.34375 19.581865,1.5431352 19.1875,1.9375 L 18.125,3 L 5,3 C 3.892,3 3,3.892 3,5 L 3,19 C 3,20.108 3.892,21 5,21 L 19,21 C 20.108,21 21,20.108 21,19 L 21,5.875 L 22.0625,4.8125 C 22.85123,4.0237704 22.85123,2.7262296 22.0625,1.9375 C 21.668136,1.5431352 21.145973,1.34375 20.625,1.34375 z"
       id="rect3228"
       style="opacity:0.6;fill:#eae3d0;fill-opacity:1;fill-rule:nonzero;stroke:none;stroke-width:3;stroke-linecap:round;stroke-linejoin:miter;marker:none;marker-start:none;marker-mid:none;marker-end:none;stroke-miterlimit:4;stroke-dasharray:none;stroke-dashoffset:0;stroke-opacity:1;visibility:visible;display:inline;overflow:visible;enable-background:accumulate" />
    <path
       d="M 4.03125,5.21875 C 4.0240713,5.2595875 4.0033956,5.3020006 4,5.34375 C 3.9848535,8.9456989 3.9999879,12.553921 4,16.15625 C 4.004375,12.507265 4.0232656,8.8676453 4.03125,5.21875 z M 20,5.8125 C 19.99997,9.4198911 19.983905,13.017989 19.96875,16.625 C 19.907909,17.51597 18.996037,18.117273 18.15625,18 C 13.885445,17.994871 9.6142329,17.986723 5.34375,17.96875 C 4.5648303,17.915469 4.0428972,17.237287 4,16.5 C 3.9999123,17.062211 4.0006746,17.625304 4,18.1875 C 3.8826064,19.028886 4.451861,19.939043 5.34375,20 C 9.6223656,20.017992 13.908562,19.994865 18.1875,20 C 19.028886,20.117394 19.939043,19.54814 20,18.65625 C 20.017992,14.377635 19.994865,10.091438 20,5.8125 z"
       id="rect3226"
       style="opacity:1;fill:#3a3935;fill-opacity:1;fill-rule:nonzero;stroke:none;stroke-width:3;stroke-linecap:round;stroke-linejoin:miter;marker:none;marker-start:none;marker-mid:none;marker-end:none;stroke-miterlimit:4;stroke-dasharray:none;stroke-dashoffset:0;stroke-opacity:1;visibility:visible;display:inline;overflow:visible;enable-background:accumulate" />
    <path
       d="M 5.5,4 C 4.7518446,3.987086 4.0918979,4.4873613 4.03125,5.09375 C 4.0132923,8.5665375 4.005125,12.026951 4,15.5 C 3.8828296,16.18292 4.453556,16.919275 5.34375,16.96875 C 9.6142329,16.983353 13.885445,16.995833 18.15625,17 C 18.996037,17.095285 19.907909,16.630164 19.96875,15.90625 C 19.984289,12.90135 19.9995,9.8802079 20,6.875 L 14.96875,11.90625 C 14.593756,12.281244 14.132192,12.415841 13.65625,12.4375 C 13.425598,12.626267 13.19715,12.809283 12.90625,12.90625 C 12.511756,13.037748 11.901176,13.088677 11.40625,12.59375 C 10.911323,12.098823 10.962252,11.488244 11.09375,11.09375 C 11.190716,10.80285 11.373734,10.574402 11.5625,10.34375 C 11.584159,9.8678078 11.718756,9.4062434 12.09375,9.03125 L 17.125,4 C 13.258274,3.9921484 9.3668545,4.0036828 5.5,4 z"
       id="path2397"
       style="opacity:1;fill:#3a3935;fill-opacity:1;fill-rule:nonzero;stroke:none;stroke-width:3;stroke-linecap:round;stroke-linejoin:miter;marker:none;marker-start:none;marker-mid:none;marker-end:none;stroke-miterlimit:4;stroke-dasharray:none;stroke-dashoffset:0;stroke-opacity:1;visibility:visible;display:inline;overflow:visible;enable-background:accumulate" />
    <path
       d="M 12.836221,9.7495661 C 12.57735,10.008438 12.509885,10.370071 12.593153,10.699741 L 12.482667,10.810227 C 12.09093,11.201964 11.933245,11.675018 12.129114,11.870887 C 12.324983,12.066756 12.798037,11.909071 13.189774,11.517334 L 13.30026,11.406848 C 13.62993,11.490116 13.991563,11.422651 14.250434,11.16378 L 21.321502,4.0927119 C 21.713239,3.7009747 21.713239,3.0702355 21.321502,2.6784983 C 20.929765,2.2867612 20.299026,2.2867612 19.907289,2.6784983 L 12.836221,9.7495661 z"
       id="rect2408"
       style="opacity:1;fill:#3a3935;fill-opacity:1;fill-rule:nonzero;stroke:none;stroke-width:3;stroke-linecap:round;stroke-linejoin:miter;marker:none;marker-start:none;marker-mid:none;marker-end:none;stroke-miterlimit:4;stroke-dasharray:none;stroke-dashoffset:0;stroke-opacity:1;visibility:visible;display:inline;overflow:visible;enable-background:accumulate" />
  </g>
</svg>
