<?xml version="1.0" encoding="UTF-8" standalone="no"?>
<!-- Created with Inkscape (http://www.inkscape.org/) -->

<svg
   xmlns:dc="http://purl.org/dc/elements/1.1/"
   xmlns:cc="http://creativecommons.org/ns#"
   xmlns:rdf="http://www.w3.org/1999/02/22-rdf-syntax-ns#"
   xmlns:svg="http://www.w3.org/2000/svg"
   xmlns="http://www.w3.org/2000/svg"
   version="1.1"
   width="24"
   height="24"
   id="svg3738">
  <metadata
     id="metadata13">
    <rdf:RDF>
      <cc:Work
         rdf:about="">
        <dc:format>image/svg+xml</dc:format>
        <dc:type
           rdf:resource="http://purl.org/dc/dcmitype/StillImage" />
        <dc:title></dc:title>
      </cc:Work>
    </rdf:RDF>
  </metadata>
  <defs
     id="defs3740" />
  <path
     d="m 8.0005,5 c -0.554,0 -1,0.446 -1,1 0,0.554 0.446,1 1,1 l 3.03125,0 -0.0625,4 -4.15625,0 -1.875,8 0,1 14.0625,0 0,-0.9375 -1.75,-8.0625 -4.25,0 0,3 2,0 -2.96875,3.0625 L 9.0005,14 l 1.96875,0 0.0625,-3 1.96875,0 0,-4 3,0 c 0.554,0 1,-0.446 1,-1 0,-0.554 -0.446,-1 -1,-1 l -8,0 z"
     id="path3712-8"
     style="opacity:0.3;color:#ffffff;fill:#ffffff;fill-opacity:1;fill-rule:evenodd;stroke:none;marker:none;visibility:visible;display:inline;overflow:visible;enable-background:accumulate" />
  <path
     d="m 8.0005,4 c -0.554,0 -1,0.446 -1,1 0,0.554 0.446,1 1,1 l 3.03125,0 -0.0625,4 -4.15625,0 -1.875,8 0,1 14.0625,0 0,-0.9375 -1.75,-8.0625 -4.25,0 0,3 2,0 -2.96875,3.0625 L 9.0005,13 l 1.96875,0 0.0625,-3 1.96875,0 0,-4 3,0 c 0.554,0 1,-0.446 1,-1 0,-0.554 -0.446,-1 -1,-1 l -8,0 z"
     id="path3712"
     style="color:#ffffff;fill:#3c3c3c;fill-opacity:1;fill-rule:evenodd;stroke:none;marker:none;visibility:visible;display:inline;overflow:visible;enable-background:accumulate" />
</svg>
