<?xml version="1.0" encoding="UTF-8" standalone="no"?>
<!-- Created with Inkscape (http://www.inkscape.org/) -->

<svg
   xmlns:dc="http://purl.org/dc/elements/1.1/"
   xmlns:cc="http://creativecommons.org/ns#"
   xmlns:rdf="http://www.w3.org/1999/02/22-rdf-syntax-ns#"
   xmlns:svg="http://www.w3.org/2000/svg"
   xmlns="http://www.w3.org/2000/svg"
   xmlns:sodipodi="http://sodipodi.sourceforge.net/DTD/sodipodi-0.dtd"
   xmlns:inkscape="http://www.inkscape.org/namespaces/inkscape"
   version="1.1"
   width="24"
   height="24"
   id="svg3872"
   inkscape:version="0.48.0 r9654"
   sodipodi:docname="xchat-panel.svg">
  <metadata
     id="metadata16">
    <rdf:RDF>
      <cc:Work
         rdf:about="">
        <dc:format>image/svg+xml</dc:format>
        <dc:type
           rdf:resource="http://purl.org/dc/dcmitype/StillImage" />
        <dc:title></dc:title>
      </cc:Work>
    </rdf:RDF>
  </metadata>
  <sodipodi:namedview
     pagecolor="#ffffff"
     bordercolor="#666666"
     borderopacity="1"
     objecttolerance="10"
     gridtolerance="10"
     guidetolerance="10"
     inkscape:pageopacity="0"
     inkscape:pageshadow="2"
     inkscape:window-width="1280"
     inkscape:window-height="753"
     id="namedview14"
     showgrid="false"
     inkscape:zoom="13.227273"
     inkscape:cx="-0.49140893"
     inkscape:cy="11.793814"
     inkscape:window-x="0"
     inkscape:window-y="24"
     inkscape:window-maximized="1"
     inkscape:current-layer="svg3872" />
  <defs
     id="defs3874" />
  <path
     inkscape:connector-curvature="0"
     style="opacity:0.3;color:#ffffff;fill:#ffffff;fill-opacity:1;fill-rule:evenodd;stroke:none;stroke-width:1;marker:none;visibility:visible;display:inline;overflow:visible;enable-background:accumulate"
     id="rect3637-0"
     d="m 7.40625,6.0004474 c -0.2556191,0 -0.5228814,0.08538 -0.71875,0.28125 l -1.40625,1.40625 c -0.3917372,0.391737 -0.3917372,1.0457631 0,1.4374998 l 0.875,0.8749998 5.6875,0 L 8.125,6.2816974 C 7.9291314,6.0858284 7.6618691,6.0004474 7.40625,6.0004474 z m 9.1875,0 c -0.261441,0 -0.522882,0.08538 -0.71875,0.28125 l -3.71875,3.7187496 5.6875,0 0.875,-0.8749998 c 0.391737,-0.3917368 0.391737,-1.0457628 0,-1.4374998 l -1.40625,-1.40625 c -0.195868,-0.195869 -0.457309,-0.28125 -0.71875,-0.28125 z m -10.4375,9.9999996 -0.875,0.875 c -0.3917372,0.391737 -0.3917372,1.045763 0,1.4375 l 1.40625,1.40625 c 0.3917372,0.391737 1.0457628,0.391737 1.4375,0 l 3.71875,-3.71875 -5.6875,0 z m 6,0 3.71875,3.71875 c 0.391737,0.391737 1.045763,0.391737 1.4375,0 l 1.40625,-1.40625 c 0.391737,-0.391737 0.391737,-1.045763 0,-1.4375 l -0.875,-0.875 -5.6875,0 z" />
  <path
     inkscape:connector-curvature="0"
     style="color:#ffffff;fill:#3c3c3c;fill-opacity:1;fill-rule:evenodd;stroke:none;stroke-width:1;marker:none;visibility:visible;display:inline;overflow:visible;enable-background:accumulate"
     id="rect3637"
     d="m 7.40625,5.0000004 c -0.2556191,0 -0.5228814,0.085381 -0.71875,0.28125 l -1.40625,1.40625 c -0.3917372,0.3917372 -0.3917372,1.0457628 0,1.4375 l 0.875,0.8749998 5.6875,0 L 8.125,5.2812504 C 7.9291314,5.0853818 7.6618691,5.0000004 7.40625,5.0000004 z m 9.1875,0 c -0.261441,0 -0.522882,0.085381 -0.71875,0.28125 l -3.71875,3.7187498 5.6875,0 0.875,-0.8749997 c 0.391737,-0.3917373 0.391737,-1.0457629 0,-1.4375001 l -1.40625,-1.40625 c -0.195868,-0.1958686 -0.457309,-0.28125 -0.71875,-0.28125 z M 6.15625,15 l -0.875,0.875 c -0.3917372,0.391737 -0.3917372,1.045763 0,1.4375 l 1.40625,1.40625 c 0.3917372,0.391737 1.0457628,0.391737 1.4375,0 L 11.84375,15 6.15625,15 z m 6,0 3.71875,3.71875 c 0.391737,0.391737 1.045763,0.391737 1.4375,0 l 1.40625,-1.40625 c 0.391737,-0.391737 0.391737,-1.045763 0,-1.4375 l -0.875,-0.875 -5.6875,0 z" />
  <path
     inkscape:connector-curvature="0"
     style="opacity:0.3;fill:none;stroke:#ffffff;stroke-width:1px;stroke-linecap:round;stroke-linejoin:round;stroke-opacity:1"
     id="path3615-0"
     d="m 21,12.5 -2.5,0 1,0 0,-1.5 0,3.5 1.5,0 m -5.5,0 0,-2 -2,0 0,2 0.75,0 m -3.75,0 0,-2 -2,0 0,-1.5 0,3.5 m -3,-2 -2,0 0,2 2,0" />
  <path
     inkscape:connector-curvature="0"
     style="fill:none;stroke:#3c3c3c;stroke-width:1px;stroke-linecap:round;stroke-linejoin:round;stroke-opacity:1"
     id="path3615"
     d="m 21,11.5 -2.5,0 1,0 0,-1.5 0,3.5 1.5,0 m -5.5,0 0,-2 -2,0 0,2 0.75,0 m -3.75,0 0,-2 -2,0 0,-1.5 0,3.5 m -3,-2 -2,0 0,2 2,0" />
</svg>
