<?xml version="1.0" encoding="UTF-8" standalone="no"?>
<!-- Created with Inkscape (http://www.inkscape.org/) -->

<svg
   xmlns:dc="http://purl.org/dc/elements/1.1/"
   xmlns:cc="http://creativecommons.org/ns#"
   xmlns:rdf="http://www.w3.org/1999/02/22-rdf-syntax-ns#"
   xmlns:svg="http://www.w3.org/2000/svg"
   xmlns="http://www.w3.org/2000/svg"
   xmlns:sodipodi="http://sodipodi.sourceforge.net/DTD/sodipodi-0.dtd"
   xmlns:inkscape="http://www.inkscape.org/namespaces/inkscape"
   version="1.0"
   width="22"
   height="22"
   id="svg3172"
   inkscape:version="0.47 r22583"
   sodipodi:docname="audio-volume-muted-panel.svg">
  <metadata
     id="metadata11">
    <rdf:RDF>
      <cc:Work
         rdf:about="">
        <dc:format>image/svg+xml</dc:format>
        <dc:type
           rdf:resource="http://purl.org/dc/dcmitype/StillImage" />
        <dc:title></dc:title>
      </cc:Work>
    </rdf:RDF>
  </metadata>
  <sodipodi:namedview
     pagecolor="#ffffff"
     bordercolor="#666666"
     borderopacity="1"
     objecttolerance="10"
     gridtolerance="10"
     guidetolerance="10"
     inkscape:pageopacity="0"
     inkscape:pageshadow="2"
     inkscape:window-width="640"
     inkscape:window-height="480"
     id="namedview9"
     showgrid="false"
     inkscape:zoom="13.863636"
     inkscape:cx="11"
     inkscape:cy="11"
     inkscape:window-x="0"
     inkscape:window-y="24"
     inkscape:window-maximized="0"
     inkscape:current-layer="svg3172" />
  <defs
     id="defs3174">
    <inkscape:perspective
       sodipodi:type="inkscape:persp3d"
       inkscape:vp_x="0 : 11 : 1"
       inkscape:vp_y="0 : 1000 : 0"
       inkscape:vp_z="22 : 11 : 1"
       inkscape:persp3d-origin="11 : 7.3333333 : 1"
       id="perspective13" />
  </defs>
  <path
     style="opacity:0.6;fill:#43423e;fill-opacity:1;fill-rule:evenodd;stroke:none;stroke-width:1.69999993;marker:none;visibility:visible;display:inline;overflow:visible;enable-background:accumulate"
     id="path3228"
     d="m 14.012934,5.0055461 c -0.718294,-0.02119 -1.337055,0.4198054 -1.746013,0.9764677 -0.574246,0.6745108 -1.148491,1.3490215 -1.722737,2.0235323 -0.73611,0.042812 -1.50042,-0.1078992 -2.21341,0.1229015 -0.87506,0.3070779 -1.4179066,1.2492865 -1.31925,2.1602554 0.01125,1.005727 -0.025826,2.01446 0.02478,3.018247 0.141279,1.033379 1.16893,1.804949 2.198005,1.698596 0.447041,0 0.894082,0 1.341122,0 0.71306,0.820463 1.43678,1.633689 2.135657,2.464539 0.769733,0.799637 2.175485,0.662661 2.840699,-0.198063 0.459338,-0.501242 0.482375,-1.195617 0.461144,-1.835735 -0.0018,-2.844139 0.0035,-5.6883689 -0.0026,-8.532451 -0.03886,-1.0302482 -0.964978,-1.9138304 -1.99736,-1.8982899 z" />
  <path
     style="fill:#dfd8c8;fill-opacity:1;fill-rule:evenodd;stroke:none;stroke-width:1.69999993;marker:none;visibility:visible;display:inline;overflow:visible;enable-background:accumulate"
     id="rect3180"
     d="m 14.012934,6.0055461 c -0.305224,0 -0.566527,0.1279595 -0.75,0.34375 l -2.25,2.65625 c 0,0 -2,0 -2,0 -0.552,0 -1,0.448 -1,0.9999999 -0.0063,0.996071 0.0022,2.014549 0,3 0,0.552 0.448,1 1,1 l 2,0 2.15625,2.46875 c 0.171358,0.304919 0.469304,0.53125 0.84375,0.53125 0.552,0 1,-0.448 1,-1 l 0,-8.9999999 c 0,-0.552 -0.448001,-1 -1,-1 z" />
</svg>
