<?xml version="1.0" encoding="UTF-8" standalone="no"?>
<!-- Created with Inkscape (http://www.inkscape.org/) -->
<svg
   xmlns:dc="http://purl.org/dc/elements/1.1/"
   xmlns:cc="http://creativecommons.org/ns#"
   xmlns:rdf="http://www.w3.org/1999/02/22-rdf-syntax-ns#"
   xmlns:svg="http://www.w3.org/2000/svg"
   xmlns="http://www.w3.org/2000/svg"
   xmlns:sodipodi="http://sodipodi.sourceforge.net/DTD/sodipodi-0.dtd"
   xmlns:inkscape="http://www.inkscape.org/namespaces/inkscape"
   version="1.0"
   width="22"
   height="22"
   id="svg3240"
   sodipodi:version="0.32"
   inkscape:version="0.46"
   sodipodi:docname="battery-020.svg"
   inkscape:output_extension="org.inkscape.output.svg.inkscape">
  <metadata
     id="metadata10">
    <rdf:RDF>
      <cc:Work
         rdf:about="">
        <dc:format>image/svg+xml</dc:format>
        <dc:type
           rdf:resource="http://purl.org/dc/dcmitype/StillImage" />
      </cc:Work>
    </rdf:RDF>
  </metadata>
  <sodipodi:namedview
     inkscape:window-height="706"
     inkscape:window-width="640"
     inkscape:pageshadow="2"
     inkscape:pageopacity="0.0"
     guidetolerance="10.0"
     gridtolerance="10.0"
     objecttolerance="10.0"
     borderopacity="1.0"
     bordercolor="#666666"
     pagecolor="#ffffff"
     id="base"
     showgrid="false"
     inkscape:zoom="10.375"
     inkscape:cx="4.5301205"
     inkscape:cy="12"
     inkscape:window-x="696"
     inkscape:window-y="76"
     inkscape:current-layer="layer1" />
  <defs
     id="defs3242">
    <inkscape:perspective
       sodipodi:type="inkscape:persp3d"
       inkscape:vp_x="0 : 12 : 1"
       inkscape:vp_y="0 : 1000 : 0"
       inkscape:vp_z="24 : 12 : 1"
       inkscape:persp3d-origin="12 : 8 : 1"
       id="perspective12" />
  </defs>
  <g
     id="layer1">
    <rect
       width="14.5"
       height="7.5"
       rx="0.25"
       ry="0.25"
       x="3.25"
       y="7.25"
       id="rect3236"
       style="opacity:0.3;fill:none;fill-opacity:1;fill-rule:nonzero;stroke:#ffffff;stroke-width:0.5;stroke-linecap:round;stroke-linejoin:miter;marker:none;marker-start:none;marker-mid:none;marker-end:none;stroke-miterlimit:4;stroke-dasharray:none;stroke-dashoffset:0;stroke-opacity:1;visibility:visible;display:inline;overflow:visible;enable-background:accumulate" />
    <path
       d="M 3.5,5.5 C 2.392,5.5 1.5,6.392 1.5,7.5 L 1.5,14.5 C 1.5,15.608 2.3919998,16.5 3.5,16.5 L 17.5,16.5 C 18.608,16.5 19.500001,15.608 19.5,14.5 L 19.5,13.5 C 20.086861,13.465401 20.660328,13.262611 21.03125,12.78125 C 21.556463,12.206345 21.446061,11.592479 21.5,10.6875 C 21.553939,9.782521 20.530965,8.5237494 19.426211,8.5 L 19.5,7.5 C 19.5,6.392 18.608001,5.5 17.5,5.5 L 3.5,5.5 z"
       id="rect3225"
       style="opacity:0.6;fill:none;fill-opacity:1;fill-rule:nonzero;stroke:#43423e;stroke-width:0.99999994;stroke-linecap:round;stroke-linejoin:miter;marker:none;marker-start:none;marker-mid:none;marker-end:none;stroke-miterlimit:4;stroke-dasharray:none;stroke-dashoffset:0;stroke-opacity:1;visibility:visible;display:inline;overflow:visible;enable-background:accumulate" />
    <rect
       width="6"
       height="3"
       rx="0.5"
       ry="0.49999994"
       x="8.0500002"
       y="-7"
       transform="matrix(0,1,-1,0,0,0)"
       id="rect3728"
       style="opacity:1;fill:#dc0000;fill-opacity:1;fill-rule:evenodd;stroke:none;stroke-width:1.69999993;stroke-linecap:round;stroke-linejoin:miter;marker:none;marker-start:none;marker-mid:none;marker-end:none;stroke-miterlimit:4;stroke-dasharray:none;stroke-dashoffset:0;stroke-opacity:1;visibility:visible;display:inline;overflow:visible;enable-background:accumulate" />
    <path
       d="M 3.5,6.5 L 17.5,6.5 C 18.054,6.5 18.5,6.946 18.5,7.5 L 18.5,14.5 C 18.5,15.054 18.054,15.5 17.5,15.5 L 3.5,15.5 C 2.946,15.5 2.5,15.054 2.5,14.5 L 2.5,7.5 C 2.5,6.946 2.946,6.5 3.5,6.5 z M 18.618451,9.50264 C 18.946491,9.50334 19.274527,9.504168 19.602559,9.505144 C 20.200384,9.545901 20.579292,10.15474 20.500033,10.717338 C 20.4766,11.25026 20.624154,11.894234 20.136838,12.272203 C 19.69836,12.622964 19.115638,12.463608 18.599631,12.5"
       id="rect2442"
       style="fill:none;fill-opacity:1;fill-rule:nonzero;stroke:#dfd8c8;stroke-width:1;stroke-linecap:round;stroke-linejoin:miter;marker:none;marker-start:none;marker-mid:none;marker-end:none;stroke-miterlimit:4;stroke-dashoffset:0;stroke-opacity:1;visibility:visible;display:inline;overflow:visible;enable-background:accumulate" />
  </g>
</svg>
