<?xml version="1.0" encoding="UTF-8" standalone="no"?>
<!-- Created with Inkscape (http://www.inkscape.org/) -->
<svg
   xmlns:svg="http://www.w3.org/2000/svg"
   xmlns="http://www.w3.org/2000/svg"
   version="1.0"
   width="22"
   height="22"
   id="svg3206">
  <defs
     id="defs3208" />
  <rect
     width="4"
     height="9"
     rx="0.5"
     ry="0.5"
     x="13.999999"
     y="8"
     id="rect3728"
     style="fill:#dfd8c8;fill-opacity:1;fill-rule:evenodd;stroke:none;stroke-width:1.69999993;stroke-linecap:round;stroke-linejoin:miter;marker:none;marker-start:none;marker-mid:none;marker-end:none;stroke-miterlimit:4;stroke-dasharray:none;stroke-dashoffset:0;stroke-opacity:1;visibility:visible;display:inline;overflow:visible;enable-background:accumulate" />
  <path
     d="M 12.499999,17.5 L 12.499999,5.5 C 12.499999,4.946 12.945999,4.5 13.499999,4.5 L 18.499999,4.5 C 19.053999,4.5 19.499999,4.946 19.499999,5.5 L 19.499999,17.5 C 19.499999,18.054 19.053999,18.5 18.499999,18.5 L 13.499999,18.5 C 12.945999,18.5 12.499999,18.054 12.499999,17.5 z M 14.502639,4.381549 C 14.503339,4.053509 14.504167,3.725473 14.505143,3.397441 C 14.5459,2.799616 15.154739,2.420708 15.717337,2.499967 C 16.250259,2.5234 16.894233,2.375846 17.272202,2.863162 C 17.622963,3.30164 17.463607,3.884362 17.499999,4.400369"
     id="rect2442"
     style="fill:none;fill-opacity:1;fill-rule:nonzero;stroke:#dfd8c8;stroke-width:1;stroke-linecap:round;stroke-linejoin:miter;marker:none;marker-start:none;marker-mid:none;marker-end:none;stroke-miterlimit:4;stroke-dashoffset:0;stroke-opacity:1;visibility:visible;display:inline;overflow:visible;enable-background:accumulate" />
  <path
     d="M 2.9999995,4 C 2.4459995,4 1.9999995,4.446 1.9999995,5 L 1.9999995,18 C 1.9999995,18.554 2.4459995,19 2.9999995,19 L 8.9999995,19 C 9.5539995,19 9.9999995,18.554 9.9999995,18 L 9.9999995,5 C 9.9999995,4.446 9.5539995,4 8.9999995,4 L 2.9999995,4 z M 3.4999995,5 L 8.4999995,5 C 8.7769995,5 8.9999995,5.223 8.9999995,5.5 L 8.9999995,12.5 C 8.9999995,12.777 8.7769995,13 8.4999995,13 L 3.4999995,13 C 3.2229995,13 2.9999995,12.777 2.9999995,12.5 L 2.9999995,5.5 C 2.9999995,5.223 3.2229995,5 3.4999995,5 z M 3.4999995,15 C 3.7769995,15 3.9999995,15.223 3.9999995,15.5 C 3.9999995,15.777 3.7769995,16 3.4999995,16 C 3.2229995,16 2.9999995,15.777 2.9999995,15.5 C 2.9999995,15.223 3.2229995,15 3.4999995,15 z M 5.4999995,15 C 5.7769995,15 5.9999995,15.223 5.9999995,15.5 C 5.9999995,15.223 6.2229995,15 6.4999995,15 C 6.7769995,15 6.9999995,15.223 6.9999995,15.5 C 6.9999995,15.777 6.7769995,16 6.4999995,16 C 6.2229995,16 5.9999995,15.777 5.9999995,15.5 C 5.9999995,15.777 5.7769995,16 5.4999995,16 C 5.2229995,16 4.9999995,15.777 4.9999995,15.5 C 4.9999995,15.223 5.2229995,15 5.4999995,15 z M 8.4999995,15 C 8.7769995,15 8.9999995,15.223 8.9999995,15.5 C 8.9999995,15.777 8.7769995,16 8.4999995,16 C 8.2229995,16 7.9999995,15.777 7.9999995,15.5 C 7.9999995,15.223 8.2229995,15 8.4999995,15 z M 3.4999995,17 C 3.7769995,17 3.9999995,17.223 3.9999995,17.5 C 3.9999995,17.777 3.7769995,18 3.4999995,18 C 3.2229995,18 2.9999995,17.777 2.9999995,17.5 C 2.9999995,17.223 3.2229995,17 3.4999995,17 z M 5.4999995,17 C 5.7769995,17 5.9999995,17.223 5.9999995,17.5 C 5.9999995,17.223 6.2229995,17 6.4999995,17 C 6.7769995,17 6.9999995,17.223 6.9999995,17.5 C 6.9999995,17.777 6.7769995,18 6.4999995,18 C 6.2229995,18 5.9999995,17.777 5.9999995,17.5 C 5.9999995,17.777 5.7769995,18 5.4999995,18 C 5.2229995,18 4.9999995,17.777 4.9999995,17.5 C 4.9999995,17.223 5.2229995,17 5.4999995,17 z M 8.4999995,17 C 8.7769995,17 8.9999995,17.223 8.9999995,17.5 C 8.9999995,17.777 8.7769995,18 8.4999995,18 C 8.2229995,18 7.9999995,17.777 7.9999995,17.5 C 7.9999995,17.223 8.2229995,17 8.4999995,17 z"
     id="rect2397"
     style="fill:#dfd8c8;fill-opacity:1;fill-rule:evenodd;stroke:none;stroke-width:1.69999993;stroke-linecap:round;stroke-linejoin:miter;marker:none;marker-start:none;marker-mid:none;marker-end:none;stroke-miterlimit:4;stroke-dasharray:none;stroke-dashoffset:0;stroke-opacity:1;visibility:visible;display:inline;overflow:visible;enable-background:accumulate" />
  <path
     d="M 13.249999,17.5 L 13.249999,5.5 C 13.249999,5.3615 13.361499,5.25 13.499999,5.25 L 18.499999,5.25 C 18.638499,5.25 18.749999,5.3615 18.749999,5.5 L 18.749999,17.5 C 18.749999,17.6385 18.638499,17.75 18.499999,17.75 L 13.499999,17.75 C 13.361499,17.75 13.249999,17.6385 13.249999,17.5 z M 3.2499995,12.500001 L 3.2499995,5.5000005 C 3.2499995,5.3615005 3.3614995,5.2500005 3.4999995,5.2500005 L 8.499999,5.2500005 C 8.638499,5.2500005 8.749999,5.3615005 8.749999,5.5000005 L 8.749999,12.500001 C 8.749999,12.638501 8.638499,12.750001 8.499999,12.750001 L 3.4999995,12.750001 C 3.3614995,12.750001 3.2499995,12.638501 3.2499995,12.500001 z"
     id="rect3236"
     style="opacity:0.3;fill:none;fill-opacity:1;fill-rule:nonzero;stroke:#ffffff;stroke-width:0.5;stroke-linecap:round;stroke-linejoin:miter;marker:none;marker-start:none;marker-mid:none;marker-end:none;stroke-miterlimit:4;stroke-dashoffset:0;stroke-opacity:1;visibility:visible;display:inline;overflow:visible;enable-background:accumulate" />
  <path
     d="M 11.499999,17.5 C 11.499999,18.608 12.391999,19.5 13.499999,19.5 L 18.499999,19.5 C 19.607999,19.5 20.499999,18.608 20.499999,17.5 L 20.499999,5.5 C 20.499999,4.197903 19.949516,3.5963187 18.499999,3.5 C 18.4654,2.913139 18.26261,2.339672 17.781249,1.96875 C 17.206344,1.443537 16.592478,1.553939 15.687499,1.5 C 14.78252,1.446061 13.523748,2.469035 13.499999,3.573789 C 12.364935,3.573789 11.543703,3.9287747 11.499999,5.5 L 11.499999,17.5 z M 3,3.5 L 8.9999995,3.5 C 9.8309995,3.5 10.499999,4.169 10.499999,5 L 10.499999,18 C 10.499999,18.831 9.8309995,19.5 8.9999995,19.5 L 3,19.5 C 2.169,19.5 1.5,18.831 1.5,18 L 1.5,5 C 1.5,4.169 2.169,3.5 3,3.5 z"
     id="rect3225"
     style="opacity:0.6;fill:none;fill-opacity:1;fill-rule:nonzero;stroke:#43423e;stroke-width:0.99999994;stroke-linecap:round;stroke-linejoin:miter;marker:none;marker-start:none;marker-mid:none;marker-end:none;stroke-miterlimit:4;stroke-dasharray:none;stroke-dashoffset:0;stroke-opacity:1;visibility:visible;display:inline;overflow:visible;enable-background:accumulate" />
</svg>
