<?xml version="1.0" encoding="UTF-8" standalone="no"?>
<!-- Created with Inkscape (http://www.inkscape.org/) -->
<svg
   xmlns:svg="http://www.w3.org/2000/svg"
   xmlns="http://www.w3.org/2000/svg"
   version="1.0"
   width="22"
   height="22"
   id="svg3200">
  <defs
     id="defs3202" />
  <path
     d="M 7,2 L 0,9 L 4,9 L 4,16 L 10,16 L 15,21 L 22,14 L 18,14 L 18,7 L 12,7 L 7,2 z M 10,9 L 12,9 L 12,14 L 10,14 L 10,9 z"
     id="path2427"
     style="opacity:0.6;fill:#43423e;fill-opacity:1;fill-rule:evenodd;stroke:none;stroke-width:1.69999993;stroke-linecap:round;stroke-linejoin:miter;marker:none;marker-start:none;marker-mid:none;marker-end:none;stroke-miterlimit:4;stroke-dasharray:none;stroke-dashoffset:0;stroke-opacity:1;visibility:visible;display:inline;overflow:visible;enable-background:accumulate" />
  <path
     d="M 20,15 L 15,20 L 10,15 L 13,15 L 13,8 L 17,8 L 17,15 L 20,15 z M 12,8 L 7,3 L 2,8 L 5,8 L 5,15 L 9,15 L 9,8 L 12,8 z"
     id="path4348-1"
     style="opacity:1;fill:#dfd8c8;fill-opacity:1;fill-rule:evenodd;stroke:none;stroke-width:1.69999993;stroke-linecap:round;stroke-linejoin:miter;marker:none;marker-start:none;marker-mid:none;marker-end:none;stroke-miterlimit:4;stroke-dasharray:none;stroke-dashoffset:0;stroke-opacity:1;visibility:visible;display:inline;overflow:visible;enable-background:accumulate" />
</svg>
