<?xml version="1.0" encoding="UTF-8" standalone="no"?>
<!-- Created with Inkscape (http://www.inkscape.org/) -->
<svg
   xmlns:svg="http://www.w3.org/2000/svg"
   xmlns="http://www.w3.org/2000/svg"
   version="1.0"
   width="22"
   height="22"
   id="svg3459">
  <defs
     id="defs3461" />
  <path
     d="M 8.5026176,9.9944557 C 8.5026176,9.9944557 8.9999998,8.9944567 11,8.9944567 C 13,8.9944567 13.497382,10.036341 13.497382,10.036341 M 6.9999998,8.4918389 C 6.9999998,8.4918389 7.9635156,6.9415913 11,6.9839855 C 14,7.0258703 15,8.4918389 15,8.4918389 M 10.434555,11.559902 L 11.481675,11.559902"
     id="path3457"
     style="opacity:0.3;fill:none;fill-rule:evenodd;stroke:#ffffff;stroke-width:1.75;stroke-linecap:round;stroke-linejoin:miter;stroke-miterlimit:4;stroke-dasharray:none;stroke-opacity:1" />
  <rect
     width="11.5"
     height="7.5"
     rx="0.25"
     ry="0.25"
     x="5.25"
     y="5.2444568"
     id="rect3236"
     style="opacity:0.3;fill:none;fill-opacity:1;fill-rule:nonzero;stroke:#ffffff;stroke-width:0.5;stroke-linecap:round;stroke-linejoin:miter;marker:none;marker-start:none;marker-mid:none;marker-end:none;stroke-miterlimit:4;stroke-dasharray:none;stroke-dashoffset:0;stroke-opacity:1;visibility:visible;display:inline;overflow:visible;enable-background:accumulate" />
  <path
     d="M 3.9999998,2.9944567 C 3.4459999,2.9944567 2.9999998,3.4404567 2.9999998,3.9944567 L 2.9999998,13.994457 C 2.9999998,14.548457 3.4459997,14.994457 3.9999998,14.994457 L 18,14.994457 C 18.554,14.994457 19,14.548457 19,13.994457 L 19,3.9944567 C 19,3.4404567 18.554,2.9944567 18,2.9944567 L 3.9999998,2.9944567 z M 5.4999998,4.9944567 L 16.5,4.9944567 C 16.777,4.9944567 17,5.2174567 17,5.4944567 L 17,12.494457 C 17,12.771457 16.777,12.994457 16.5,12.994457 L 5.4999998,12.994457 C 5.2229998,12.994457 4.9999998,12.771457 4.9999998,12.494457 L 4.9999998,5.4944567 C 4.9999998,5.2174567 5.2229998,4.9944567 5.4999998,4.9944567 z M 8.9999998,15.994457 C 8.4459998,15.994457 7.9999998,16.440457 7.9999998,16.994457 L 6.9999998,16.994457 C 6.4459998,16.994457 5.9999998,17.440457 5.9999998,17.994457 C 5.9999998,18.548457 6.4459998,18.994457 6.9999998,18.994457 L 8.9999998,18.994457 L 13,18.994457 L 15,18.994457 C 15.554,18.994457 16,18.548457 16,17.994457 C 16,17.440457 15.554,16.994457 15,16.994457 L 14,16.994457 C 14,16.440457 13.554,15.994457 13,15.994457 L 8.9999998,15.994457 z"
     id="rect2419"
     style="fill:#dfd8c8;fill-opacity:1;fill-rule:evenodd;stroke:none;stroke-width:1.69999993;stroke-linecap:round;stroke-linejoin:miter;marker:none;marker-start:none;marker-mid:none;marker-end:none;stroke-miterlimit:4;stroke-dasharray:none;stroke-dashoffset:0;stroke-opacity:1;visibility:visible;display:inline;overflow:visible;enable-background:accumulate" />
  <path
     d="M 4,2.4944565 L 18,2.4944565 C 18.831,2.4944565 19.5,3.1634565 19.5,3.9944565 L 19.5,13.994456 C 19.5,14.825456 18.831,15.494456 18,15.494456 L 4,15.494456 C 3.169,15.494456 2.5,14.825456 2.5,13.994456 L 2.5,3.9944565 C 2.5,3.1634565 3.169,2.4944565 4,2.4944565 z M 8.9999998,15.494457 C 8.3996975,15.479084 7.7407115,16.004002 7.6092946,16.494457 C 7.0605893,16.504367 6.5622447,16.415636 6.1046086,16.793879 C 5.3806663,17.298289 5.2948772,18.450669 5.9411574,19.0533 C 6.3044587,19.449045 6.8558057,19.52325 7.3639998,19.494457 C 9.9349128,19.493151 12.505892,19.497072 15.076763,19.492491 C 15.988092,19.473324 16.710604,18.498311 16.452476,17.621201 C 16.281767,16.903578 15.591926,16.494457 14.489634,16.494457 C 14.497751,15.994457 13.318493,15.436061 12.896,15.494457 C 11.597333,15.494457 10.298667,15.494457 8.9999998,15.494457 z"
     id="rect2430"
     style="opacity:0.6;fill:none;fill-opacity:1;fill-rule:nonzero;stroke:#43423e;stroke-width:0.99999994;stroke-linecap:round;stroke-linejoin:miter;marker:none;marker-start:none;marker-mid:none;marker-end:none;stroke-miterlimit:4;stroke-dashoffset:0;stroke-opacity:1;visibility:visible;display:inline;overflow:visible;enable-background:accumulate" />
  <path
     d="M 8.5026176,9.9944557 C 8.5026176,9.9944557 8.9999998,8.9944567 11,8.9944567 C 13,8.9944567 13.497382,10.036341 13.497382,10.036341 M 6.9999998,8.5023101 C 6.9999998,8.5023101 7.9817577,6.9523172 11,6.9944567 C 14.018242,7.0365962 15,8.5023101 15,8.5023101 M 10.434555,11.559902 C 10.434555,11.559902 10.413613,10.994457 11,10.994457 C 11.576517,10.994457 11.481675,11.559902 11.481675,11.559902"
     id="path3445"
     style="fill:none;fill-rule:evenodd;stroke:#dfd8c8;stroke-width:1px;stroke-linecap:round;stroke-linejoin:miter;stroke-opacity:1" />
</svg>
