<?xml version="1.0" encoding="UTF-8" standalone="no"?>
<!-- Created with Inkscape (http://www.inkscape.org/) -->
<svg
   xmlns:svg="http://www.w3.org/2000/svg"
   xmlns="http://www.w3.org/2000/svg"
   version="1.0"
   width="22"
   height="22"
   id="svg3208">
  <defs
     id="defs3210" />
  <path
     d="M 10.00107,15.031717 C 9.0244848,15.015416 8.1285638,15.830418 8.0426359,16.801449 C 7.9840131,17.380785 8.1621836,18.008882 8.6154306,18.396078 C 8.962727,18.743374 9.3100238,19.090671 9.6573198,19.437967 C 9.8979343,19.60252 10.134506,19.790327 10.421159,19.87413 C 11.146873,20.124321 11.99398,19.869089 12.491104,19.291683 C 12.86467,18.910993 13.25302,18.542852 13.618607,18.155507 C 14.136763,17.422292 14.076547,16.336881 13.45354,15.682203 C 13.046959,15.223557 12.424363,14.989432 11.8165,15.031717 C 11.211356,15.031717 10.606213,15.031717 10.00107,15.031717 z"
     id="path3205"
     style="opacity:0.6;fill:#43423e;fill-opacity:1;fill-rule:evenodd;stroke:none;stroke-width:1.69999993;stroke-linecap:round;stroke-linejoin:miter;marker:none;marker-start:none;marker-mid:none;marker-end:none;stroke-miterlimit:4;stroke-dasharray:none;stroke-dashoffset:0;stroke-opacity:1;visibility:visible;display:inline;overflow:visible;enable-background:accumulate" />
  <path
     d="M 6.7707888,14.449915 C 6.7707888,14.449915 7.789293,13.158913 10.909767,13.126007 C 13.991338,13.093507 15.170438,14.449915 15.170438,14.449915 M 4.0566101,11.453155 C 4.0566101,11.453155 6.2919817,9.0307699 10.980674,9.1169549 C 15.708258,9.2038549 17.904736,11.492061 17.904736,11.492061 M 1.1991225,8.4142631 C 1.1991225,8.4142631 4.3030052,4.9834829 10.980674,4.9834829 C 17.625515,4.9834829 20.800878,8.4200853 20.800878,8.4200853"
     id="path3192"
     style="opacity:0.6;fill:none;fill-opacity:1;fill-rule:nonzero;stroke:#43423e;stroke-width:3.70000005;stroke-linecap:round;stroke-linejoin:miter;marker:none;marker-start:none;marker-mid:none;marker-end:none;stroke-miterlimit:4;stroke-dasharray:none;stroke-dashoffset:0;stroke-opacity:1;visibility:visible;display:inline;overflow:visible;enable-background:accumulate" />
  <path
     d="M 6.7707888,14.449915 C 6.7707888,14.449915 7.789293,13.158913 10.909767,13.126007 C 13.991338,13.093507 15.170438,14.449915 15.170438,14.449915 M 4.0566101,11.453155 C 4.0566101,11.453155 6.2919817,9.0307699 10.980674,9.1169549 C 15.708258,9.2038549 17.904736,11.492061 17.904736,11.492061 M 1.1991225,8.4142631 C 1.1991225,8.4142631 4.3030052,4.9834829 10.980674,4.9834829 C 17.625515,4.9834829 20.800878,8.4200853 20.800878,8.4200853"
     id="path3209"
     style="opacity:1;fill:none;fill-opacity:1;fill-rule:nonzero;stroke:#dfd8c8;stroke-width:1.70000005;stroke-linecap:round;stroke-linejoin:miter;marker:none;marker-start:none;marker-mid:none;marker-end:none;stroke-miterlimit:4;stroke-dasharray:none;stroke-dashoffset:0;stroke-opacity:1;visibility:visible;display:inline;overflow:visible;enable-background:accumulate" />
  <path
     d="M 10,16.000467 C 9.4479997,16.000467 8.9999998,16.448467 8.9999998,17.000467 C 8.9999998,17.205604 9.0618708,17.396379 9.1679588,17.555135 C 9.1679588,17.555135 10.346585,18.757293 10.346585,18.757293 C 10.521881,18.908795 10.7503,19.000467 11,19.000467 C 11.296299,19.000467 11.562634,18.871386 11.7458,18.666428 C 11.7458,18.666428 12.799623,17.600832 12.799623,17.600832 C 12.925419,17.433601 13,17.225691 13,17.000467 C 13,16.448467 12.552,16.000467 12,16.000467 C 12,16.000467 10,16.000467 10,16.000467 z"
     id="path3196"
     style="opacity:1;fill:#dfd8c8;fill-opacity:1;fill-rule:evenodd;stroke:none;stroke-width:1.69999993;stroke-linecap:round;stroke-linejoin:miter;marker:none;marker-start:none;marker-mid:none;marker-end:none;stroke-miterlimit:4;stroke-dasharray:none;stroke-dashoffset:0;stroke-opacity:1;visibility:visible;display:inline;overflow:visible;enable-background:accumulate" />
</svg>
