<?xml version="1.0" encoding="UTF-8" standalone="no"?>
<!-- Created with Inkscape (http://www.inkscape.org/) -->
<svg
   xmlns:svg="http://www.w3.org/2000/svg"
   xmlns="http://www.w3.org/2000/svg"
   version="1.0"
   width="22"
   height="22"
   id="svg3340">
  <defs
     id="defs3342" />
  <g
     id="layer1">
    <path
       d="M 10.000462,1.9830526 C 7.7844623,1.9830526 6.0004623,3.7670526 6.0004623,5.9830526 L 6.0004623,8.9830526 L 5.0004623,8.9830526 C 4.4464623,8.9830526 4.0004623,9.4290526 4.0004623,9.9830526 L 4.0004623,18.983053 C 4.0004623,19.537053 4.4464623,19.983053 5.0004623,19.983053 L 17.000462,19.983053 C 17.554462,19.983053 18.000462,19.537053 18.000462,18.983053 L 18.000462,9.9830526 C 18.000462,9.4290526 17.554462,8.9830526 17.000462,8.9830526 L 16.000462,8.9830526 L 16.000462,5.9830526 C 16.000462,3.7670526 14.216462,1.9830526 12.000462,1.9830526 L 10.000462,1.9830526 z M 10.000462,3.9830526 L 12.000462,3.9830526 C 13.108462,3.9830526 14.000462,4.8750526 14.000462,5.9830526 L 14.000462,8.9830526 L 8.0004623,8.9830526 L 8.0004623,5.9830526 C 8.0004623,4.8750526 8.8924623,3.9830526 10.000462,3.9830526 z"
       id="rect2822"
       style="opacity:1;fill:#dfd8c8;fill-opacity:1;fill-rule:evenodd;stroke:none;stroke-width:1.69999993;stroke-linecap:round;stroke-linejoin:miter;marker:none;marker-start:none;marker-mid:none;marker-end:none;stroke-miterlimit:4;stroke-dasharray:none;stroke-dashoffset:0;stroke-opacity:1;visibility:visible;display:inline;overflow:visible;enable-background:accumulate" />
    <path
       d="M 10.000462,1.4830526 C 7.721834,1.4285905 5.6353266,3.3612139 5.5135809,5.6367601 C 5.4854335,6.5849346 5.5074437,7.5343564 5.5004623,8.4830526 C 4.7614059,8.4096892 3.9082274,8.6353843 3.6189966,9.4011556 C 3.3982021,10.167786 3.5414418,10.985132 3.5004623,11.775928 C 3.5056161,14.229103 3.4901261,16.682805 3.5082579,19.13565 C 3.5748683,20.045569 4.5064732,20.606467 5.3590373,20.483053 C 9.2903113,20.477863 13.222116,20.493437 17.153059,20.475257 C 18.062978,20.408647 18.623876,19.477042 18.500462,18.624478 C 18.495296,15.693203 18.510815,12.7614 18.492666,9.8304556 C 18.426056,8.9205367 17.494451,8.3596387 16.641887,8.4830526 C 16.340506,8.4640919 16.574159,7.9100975 16.500462,7.6634527 C 16.484671,6.3396239 16.6492,4.9209082 15.904367,3.7429353 C 15.06294,2.2268653 13.305676,1.3499036 11.590662,1.4830526 C 11.060595,1.4830526 10.530529,1.4830526 10.000462,1.4830526 z"
       id="path3330"
       style="opacity:0.6;fill:none;fill-opacity:1;fill-rule:nonzero;stroke:#43423e;stroke-width:1;stroke-linecap:round;stroke-linejoin:miter;marker:none;marker-start:none;marker-mid:none;marker-end:none;stroke-miterlimit:4;stroke-dasharray:none;stroke-dashoffset:0;stroke-opacity:1;visibility:visible;display:inline;overflow:visible;enable-background:accumulate" />
    <path
       d="M 10.000462,4.2018026 C 10.844611,4.2321186 11.702177,4.1287045 12.53455,4.2808691 C 13.440153,4.5248637 13.881917,5.4923726 13.781712,6.3689671 C 13.781712,7.1674123 13.781712,7.9658574 13.781712,8.7643026 C 11.927545,8.7643026 10.073379,8.7643026 8.2192123,8.7643026 C 8.2380255,7.7168658 8.1785445,6.6645495 8.2549151,5.620668 C 8.4030074,4.8054811 9.1736033,4.1842328 10.000462,4.2018026 z"
       id="path3337"
       style="opacity:0.3;fill:none;fill-opacity:1;stroke:#ffffff;stroke-width:0.5;stroke-miterlimit:4;stroke-dasharray:none;stroke-opacity:1" />
  </g>
</svg>
