<?xml version="1.0" encoding="UTF-8" standalone="no"?>
<!-- Created with Inkscape (http://www.inkscape.org/) -->
<svg
   xmlns:svg="http://www.w3.org/2000/svg"
   xmlns="http://www.w3.org/2000/svg"
   version="1.0"
   width="22"
   height="22"
   id="svg3215">
  <defs
     id="defs3217" />
  <path
     d="M 12.497397,3.4995529 C 10.821011,3.4811697 9.2836169,4.5340216 8.4348969,5.9370529 C 6.9381419,4.9142493 4.7395395,5.8073518 4.1809223,7.4733601 C 3.7243904,8.2601633 4.5287463,9.2976233 3.4348038,9.6080803 C 1.5622183,10.981885 0.94391695,13.730814 2.0456852,15.772752 C 2.9289165,17.556365 4.932622,18.648 6.9071969,18.499552 C 9.8984229,18.490169 12.890585,18.518555 15.881212,18.484929 C 18.360862,18.345859 20.484994,16.112636 20.495759,13.628289 C 20.578692,11.654726 19.290897,9.7731713 17.497397,8.9995533 C 17.551421,6.4738389 15.720212,3.8898419 13.13507,3.5441201 C 12.923904,3.5143619 12.710646,3.4995405 12.497397,3.4995529 z"
     id="path3203"
     style="opacity:0.6;fill:none;fill-opacity:1;fill-rule:nonzero;stroke:#43423e;stroke-width:0.99999994;stroke-linecap:round;stroke-linejoin:miter;marker:none;marker-start:none;marker-mid:none;marker-end:none;stroke-miterlimit:4;stroke-dasharray:none;stroke-dashoffset:0;stroke-opacity:1;visibility:visible;display:inline;overflow:visible;enable-background:accumulate" />
  <path
     d="M 12.497397,4.0000006 C 10.807941,4.0000007 9.3605929,5.0625207 8.5911469,6.5937506 C 8.1578772,6.233345 7.6045969,6.0000007 6.9973969,6.0000006 C 5.617397,6.0000007 4.497397,7.1200008 4.4973969,8.5000003 C 4.4973969,8.8099273 4.5504066,9.1010433 4.6536469,9.3750003 C 3.0841392,10.07628 1.9973969,11.664032 1.9973969,13.5 C 1.9973969,15.993 4.0043969,18 6.4973969,18 L 15.497397,18 C 17.990397,18 19.997397,15.993 19.997397,13.5 C 19.997397,11.525327 18.728667,9.8589673 16.966147,9.2500003 C 16.97006,9.1645743 16.997397,9.0865013 16.997397,9.0000003 C 16.997397,6.2400002 14.981397,4.0000006 12.497397,4.0000006 z"
     id="rect3193"
     style="opacity:1;fill:#dfd8c8;fill-opacity:1;fill-rule:evenodd;stroke:none;stroke-width:1.69999993;stroke-linecap:round;stroke-linejoin:miter;marker:none;marker-start:none;marker-mid:none;marker-end:none;stroke-miterlimit:4;stroke-dasharray:none;stroke-dashoffset:0;stroke-opacity:1;visibility:visible;display:inline;overflow:visible;enable-background:accumulate" />
</svg>
