<?xml version="1.0" encoding="UTF-8" standalone="no"?>
<!-- Created with Inkscape (http://www.inkscape.org/) -->

<svg
   xmlns:dc="http://purl.org/dc/elements/1.1/"
   xmlns:cc="http://creativecommons.org/ns#"
   xmlns:rdf="http://www.w3.org/1999/02/22-rdf-syntax-ns#"
   xmlns:svg="http://www.w3.org/2000/svg"
   xmlns="http://www.w3.org/2000/svg"
   xmlns:sodipodi="http://sodipodi.sourceforge.net/DTD/sodipodi-0.dtd"
   xmlns:inkscape="http://www.inkscape.org/namespaces/inkscape"
   version="1.0"
   width="22"
   height="16"
   id="svg3225"
   inkscape:version="0.48.0 r9654"
   sodipodi:docname="ibus-keyboard.svg">
  <metadata
     id="metadata21">
    <rdf:RDF>
      <cc:Work
         rdf:about="">
        <dc:format>image/svg+xml</dc:format>
        <dc:type
           rdf:resource="http://purl.org/dc/dcmitype/StillImage" />
        <dc:title></dc:title>
      </cc:Work>
    </rdf:RDF>
  </metadata>
  <sodipodi:namedview
     pagecolor="#ffffff"
     bordercolor="#666666"
     borderopacity="1"
     objecttolerance="10"
     gridtolerance="10"
     guidetolerance="10"
     inkscape:pageopacity="0"
     inkscape:pageshadow="2"
     inkscape:window-width="1280"
     inkscape:window-height="753"
     id="namedview19"
     showgrid="false"
     inkscape:zoom="6.6136365"
     inkscape:cx="-0.49140893"
     inkscape:cy="11.793814"
     inkscape:window-x="0"
     inkscape:window-y="24"
     inkscape:window-maximized="1"
     inkscape:current-layer="svg3225" />
  <defs
     id="defs3227" />
  <path
     inkscape:connector-curvature="0"
     style="opacity:0.3;fill:#000000;fill-opacity:1;fill-rule:evenodd;stroke:none;stroke-width:1.70000005;marker:none;visibility:visible;display:inline;overflow:visible"
     id="rect2396-7"
     d="M 10,1 10,4 3.21875,4 C 1.9876388,4 1,4.892 1,6 l 0,8 c 0,1.108 0.9876389,2 2.21875,2 l 15.5625,0 C 20.01236,16 21,15.108 21,14 L 21,6 C 21,4.892 20.012361,4 18.78125,4 L 11,4 l 0,-2 1,0 0,1 4,0 0,-1 c 0,0 -3,0 -3,0 L 13,1 10,1 z M 4.5,6 C 4.223,6 4,6.223 4,6.5 l 0,1 C 4,7.777 4.223,8 4.5,8 l 1,0 C 5.777,8 6,7.777 6,7.5 l 0,-1 C 6,6.223 5.777,6 5.5,6 l -1,0 z m 3,0 C 7.223,6 7,6.223 7,6.5 l 0,1 C 7,7.777 7.223,8 7.5,8 l 1,0 C 8.777,8 9,7.777 9,7.5 l 0,-1 C 9,6.223 8.777,6 8.5,6 l -1,0 z m 3,0 C 10.223,6 10,6.223 10,6.5 l 0,1 C 10,7.777 10.223,8 10.5,8 l 1,0 C 11.777,8 12,7.777 12,7.5 l 0,-1 C 12,6.223 11.777,6 11.5,6 l -1,0 z m 3,0 C 13.223,6 13,6.223 13,6.5 l 0,1 C 13,7.777 13.223,8 13.5,8 l 1,0 C 14.777,8 15,7.777 15,7.5 l 0,-1 C 15,6.223 14.777,6 14.5,6 l -1,0 z m 3,0 C 16.223,6 16,6.223 16,6.5 l 0,1 C 16,7.777 16.223,8 16.5,8 l 1,0 C 17.777,8 18,7.777 18,7.5 l 0,-1 C 18,6.223 17.777,6 17.5,6 l -1,0 z M 4.5,9 C 4.223,9 4,9.223 4,9.5 l 0,1 C 4,10.777 4.223,11 4.5,11 l 1,0 C 5.777,11 6,10.777 6,10.5 l 0,-1 C 6,9.223 5.777,9 5.5,9 l -1,0 z m 3,0 C 7.223,9 7,9.223 7,9.5 l 0,1 C 7,10.777 7.223,11 7.5,11 l 1,0 C 8.777,11 9,10.777 9,10.5 l 0,-1 C 9,9.223 8.777,9 8.5,9 l -1,0 z m 3,0 C 10.223,9 10,9.223 10,9.5 l 0,1 c 0,0.277 0.223,0.5 0.5,0.5 l 1,0 c 0.277,0 0.5,-0.223 0.5,-0.5 l 0,-1 C 12,9.223 11.777,9 11.5,9 l -1,0 z m 3,0 C 13.223,9 13,9.223 13,9.5 l 0,1 c 0,0.277 0.223,0.5 0.5,0.5 l 1,0 c 0.277,0 0.5,-0.223 0.5,-0.5 l 0,-1 C 15,9.223 14.777,9 14.5,9 l -1,0 z m 3,0 C 16.223,9 16,9.223 16,9.5 l 0,1 c 0,0.277 0.223,0.5 0.5,0.5 l 1,0 c 0.277,0 0.5,-0.223 0.5,-0.5 l 0,-1 C 18,9.223 17.777,9 17.5,9 l -1,0 z m -10,3 C 6.223,12 6,12.223 6,12.5 l 0,1 C 6,13.777 6.223,14 6.5,14 l 9,0 c 0.277,0 0.5,-0.223 0.5,-0.5 l 0,-1 C 16,12.223 15.777,12 15.5,12 l -9,0 z" />
  <g
     transform="translate(0,-2)"
     id="g3615"
     style="opacity:0.3">
    <rect
       width="1.623428"
       height="1.611037"
       ry="0.38089144"
       x="4.1456728"
       y="7.2185087"
       id="rect2819"
       style="fill:none;stroke:#ffffff;stroke-width:0.5;stroke-miterlimit:4;stroke-opacity:1;stroke-dasharray:none"
       rx="0.38089144" />
    <rect
       width="1.623428"
       height="1.611037"
       ry="0.38089144"
       x="10.145673"
       y="7.2185087"
       id="rect3593"
       style="fill:none;stroke:#ffffff;stroke-width:0.5;stroke-miterlimit:4;stroke-opacity:1;stroke-dasharray:none"
       rx="0.38089144" />
    <rect
       width="1.623428"
       height="1.611037"
       ry="0.38089144"
       x="16.145672"
       y="7.2185087"
       id="rect3595"
       style="fill:none;stroke:#ffffff;stroke-width:0.5;stroke-miterlimit:4;stroke-opacity:1;stroke-dasharray:none"
       rx="0.38089144" />
    <rect
       width="1.623428"
       height="1.611037"
       ry="0.38089144"
       x="4.1456728"
       y="10.218963"
       id="rect3597"
       style="fill:none;stroke:#ffffff;stroke-width:0.5;stroke-miterlimit:4;stroke-opacity:1;stroke-dasharray:none"
       rx="0.38089144" />
    <rect
       width="1.623428"
       height="1.611037"
       ry="0.38089144"
       x="10.145673"
       y="10.218963"
       id="rect3599"
       style="fill:none;stroke:#ffffff;stroke-width:0.5;stroke-miterlimit:4;stroke-opacity:1;stroke-dasharray:none"
       rx="0.38089144" />
    <rect
       width="1.623428"
       height="1.611037"
       ry="0.38089144"
       x="16.145672"
       y="10.218963"
       id="rect3601"
       style="fill:none;stroke:#ffffff;stroke-width:0.5;stroke-miterlimit:4;stroke-opacity:1;stroke-dasharray:none"
       rx="0.38089144" />
    <rect
       width="1.623428"
       height="1.611037"
       ry="0.38089144"
       x="7.1459999"
       y="7.2185087"
       id="rect3603"
       style="fill:none;stroke:#ffffff;stroke-width:0.5;stroke-miterlimit:4;stroke-opacity:1;stroke-dasharray:none"
       rx="0.38089144" />
    <rect
       width="1.623428"
       height="1.611037"
       ry="0.38089144"
       x="7.1459999"
       y="10.218963"
       id="rect3605"
       style="fill:none;stroke:#ffffff;stroke-width:0.5;stroke-miterlimit:4;stroke-opacity:1;stroke-dasharray:none"
       rx="0.38089144" />
    <rect
       width="1.623428"
       height="1.611037"
       ry="0.38089144"
       x="13.146"
       y="7.2185087"
       id="rect3607"
       style="fill:none;stroke:#ffffff;stroke-width:0.5;stroke-miterlimit:4;stroke-opacity:1;stroke-dasharray:none"
       rx="0.38089144" />
    <rect
       width="1.623428"
       height="1.611037"
       ry="0.38089144"
       x="13.146"
       y="10.218963"
       id="rect3609"
       style="fill:none;stroke:#ffffff;stroke-width:0.5;stroke-miterlimit:4;stroke-opacity:1;stroke-dasharray:none"
       rx="0.38089144" />
    <rect
       width="9.5336552"
       height="1.5213989"
       ry="0.29125711"
       x="6.2441564"
       y="13.240917"
       id="rect3613"
       style="fill:none;stroke:#ffffff;stroke-width:0.5;stroke-miterlimit:4;stroke-opacity:1;stroke-dasharray:none"
       rx="0.29125711" />
  </g>
  <path
     inkscape:connector-curvature="0"
     style="fill:#dfdbd2;fill-opacity:1;fill-rule:evenodd;stroke:none;stroke-width:1.70000005;marker:none;visibility:visible;display:inline;overflow:visible"
     id="rect2396"
     d="M 10,0 10,3 3.21875,3 C 1.9876388,3 1,3.892 1,5 l 0,8 c 0,1.108 0.9876389,2 2.21875,2 l 15.5625,0 C 20.01236,15 21,14.108 21,13 L 21,5 C 21,3.892 20.012361,3 18.78125,3 L 11,3 l 0,-2 1,0 0,1 4,0 0,-1 c 0,0 -3,0 -3,0 L 13,0 10,0 z M 4.5,5 C 4.223,5 4,5.223 4,5.5 l 0,1 C 4,6.777 4.223,7 4.5,7 l 1,0 C 5.777,7 6,6.777 6,6.5 l 0,-1 C 6,5.223 5.777,5 5.5,5 l -1,0 z m 3,0 C 7.223,5 7,5.223 7,5.5 l 0,1 C 7,6.777 7.223,7 7.5,7 l 1,0 C 8.777,7 9,6.777 9,6.5 l 0,-1 C 9,5.223 8.777,5 8.5,5 l -1,0 z m 3,0 C 10.223,5 10,5.223 10,5.5 l 0,1 C 10,6.777 10.223,7 10.5,7 l 1,0 C 11.777,7 12,6.777 12,6.5 l 0,-1 C 12,5.223 11.777,5 11.5,5 l -1,0 z m 3,0 C 13.223,5 13,5.223 13,5.5 l 0,1 C 13,6.777 13.223,7 13.5,7 l 1,0 C 14.777,7 15,6.777 15,6.5 l 0,-1 C 15,5.223 14.777,5 14.5,5 l -1,0 z m 3,0 C 16.223,5 16,5.223 16,5.5 l 0,1 C 16,6.777 16.223,7 16.5,7 l 1,0 C 17.777,7 18,6.777 18,6.5 l 0,-1 C 18,5.223 17.777,5 17.5,5 l -1,0 z M 4.5,8 C 4.223,8 4,8.223 4,8.5 l 0,1 C 4,9.777 4.223,10 4.5,10 l 1,0 C 5.777,10 6,9.777 6,9.5 l 0,-1 C 6,8.223 5.777,8 5.5,8 l -1,0 z m 3,0 C 7.223,8 7,8.223 7,8.5 l 0,1 C 7,9.777 7.223,10 7.5,10 l 1,0 C 8.777,10 9,9.777 9,9.5 l 0,-1 C 9,8.223 8.777,8 8.5,8 l -1,0 z m 3,0 C 10.223,8 10,8.223 10,8.5 l 0,1 c 0,0.277 0.223,0.5 0.5,0.5 l 1,0 C 11.777,10 12,9.777 12,9.5 l 0,-1 C 12,8.223 11.777,8 11.5,8 l -1,0 z m 3,0 C 13.223,8 13,8.223 13,8.5 l 0,1 c 0,0.277 0.223,0.5 0.5,0.5 l 1,0 C 14.777,10 15,9.777 15,9.5 l 0,-1 C 15,8.223 14.777,8 14.5,8 l -1,0 z m 3,0 C 16.223,8 16,8.223 16,8.5 l 0,1 c 0,0.277 0.223,0.5 0.5,0.5 l 1,0 C 17.777,10 18,9.777 18,9.5 l 0,-1 C 18,8.223 17.777,8 17.5,8 l -1,0 z m -10,3 C 6.223,11 6,11.223 6,11.5 l 0,1 C 6,12.777 6.223,13 6.5,13 l 9,0 c 0.277,0 0.5,-0.223 0.5,-0.5 l 0,-1 C 16,11.223 15.777,11 15.5,11 l -9,0 z" />
</svg>
