<?xml version="1.0" encoding="utf-8"?>
<!-- Generator: Adobe Illustrator 15.0.0, SVG Export Plug-In . SVG Version: 6.00 Build 0)  -->
<!DOCTYPE svg PUBLIC "-//W3C//DTD SVG 1.1//EN" "http://www.w3.org/Graphics/SVG/1.1/DTD/svg11.dtd">
<svg version="1.1" id="Layer_1" xmlns="http://www.w3.org/2000/svg" xmlns:xlink="http://www.w3.org/1999/xlink" x="0px" y="0px"
	 width="24px" height="16px" viewBox="0 0 24 16" enable-background="new 0 0 24 16" xml:space="preserve">
<path id="path5_12_" opacity="0.3" fill="#020202" enable-background="new    " d="M18.59,4.005L5.305,4.027
	C4.695,4.027,4,4.787,4,5.341v7.298c0,0.732,0.789,1.366,1.453,1.366h13.049c0.797,0,1.498-0.678,1.498-1.376V5.47
	C20,4.694,19.311,4.005,18.59,4.005z M15.75,9.005l2.387,2.448l-0.688,0.688L15,9.691l-1.543,1.531h-2.913L9,9.691l-2.449,2.481
	l-0.687-0.719l2.418-2.45L4.863,5.555l0.688-0.688l0,0l5.479,3.137h1.953l5.472-3.136l0.688,0.687L15.75,9.005z"/>
<path id="path5_11_" fill="#DFDBD2" d="M18.59,3.005L5.305,3.027C4.695,3.027,4,3.787,4,4.341v7.298
	c0,0.732,0.789,1.366,1.453,1.366h13.049c0.797,0,1.498-0.678,1.498-1.376V4.47C20,3.694,19.311,3.005,18.59,3.005z M15.75,8.005
	l2.387,2.448l-0.688,0.688L15,8.692l-1.543,1.531h-2.913L9,8.692l-2.449,2.481l-0.687-0.719l2.418-2.45L4.863,4.555l0.688-0.688l0,0
	l5.479,3.137h1.953l5.472-3.136l0.688,0.687L15.75,8.005z"/>
<path id="path8_2_" opacity="0.3" fill="#020202" enable-background="new    " d="M16,13.504c0,0.537,0.131,1.041,0.348,1.496
	l6.313-0.018C22.873,14.532,23,14.034,23,13.504c0-0.537-0.131-1.039-0.348-1.494l-6.314,0.02C16.127,12.479,16,12.977,16,13.504z"
	/>
<linearGradient id="path10_1_" gradientUnits="userSpaceOnUse" x1="2238.9951" y1="-2606.9565" x2="2239.0081" y2="-2603.9214" gradientTransform="matrix(1 0 0 -1 -2219.5 -2593)">
	<stop  offset="0" style="stop-color:#676868"/>
	<stop  offset="1" style="stop-color:#EAEAEA"/>
</linearGradient>
<path id="path10_2_" fill="url(#path10_1_)" d="M16,12.504c0,0.537,0.131,1.041,0.348,1.496l6.313-0.018
	C22.873,13.532,23,13.034,23,12.504c0-0.537-0.131-1.039-0.348-1.494l-6.314,0.02C16.127,11.479,16,11.977,16,12.504z"/>
<radialGradient id="path4312_2_" cx="1785.6104" cy="2208.9648" r="3.199" gradientTransform="matrix(1.2512 0 0 1.2512 -2214.6553 -2754.1504)" gradientUnits="userSpaceOnUse">
	<stop  offset="0" style="stop-color:#FFFFFF"/>
	<stop  offset="0.3" style="stop-color:#FFFFFF;stop-opacity:0.498"/>
	<stop  offset="1" style="stop-color:#FFFFFF;stop-opacity:0"/>
</radialGradient>
<path id="path4312_1_" fill="url(#path4312_2_)" d="M22.656,11.005l-6.312,0.031c-0.109,0.233-0.191,0.461-0.25,0.719
	c0.7,1.161,1.951,1.938,3.406,1.938s2.706-0.771,3.406-1.938C22.846,11.495,22.77,11.241,22.656,11.005z"/>
</svg>
