<?xml version="1.0" encoding="utf-8"?>
<!-- Generator: Adobe Illustrator 15.0.0, SVG Export Plug-In . SVG Version: 6.00 Build 0)  -->
<!DOCTYPE svg PUBLIC "-//W3C//DTD SVG 1.1//EN" "http://www.w3.org/Graphics/SVG/1.1/DTD/svg11.dtd">
<svg version="1.1" id="Layer_1" xmlns="http://www.w3.org/2000/svg" xmlns:xlink="http://www.w3.org/1999/xlink" x="0px" y="0px"
	 width="24px" height="16px" viewBox="0 0 24 16" enable-background="new 0 0 24 16" xml:space="preserve">
<path id="path5_4_" opacity="0.3" fill="#020202" enable-background="new    " d="M18.59,4L5.305,4.022C4.696,4.022,4,4.782,4,5.336
	v7.298C4,13.366,4.789,14,5.453,14h13.049C19.299,14,20,13.322,20,12.624V5.465C20,4.689,19.311,4,18.59,4z M15.75,9l2.387,2.448
	l-0.688,0.688L15,9.688l-1.543,1.53h-2.913L9,9.688l-2.449,2.481L5.864,11.45L8.282,9L4.863,5.551l0.688-0.688l0,0L11.029,8h1.953
	l5.471-3.136l0.688,0.687L15.75,9z"/>
<path id="path5_3_" fill="#DFDBD2" d="M18.59,3L5.305,3.022C4.696,3.022,4,3.782,4,4.336v7.298C4,12.366,4.789,13,5.453,13h13.049
	C19.299,13,20,12.322,20,11.624V4.465C20,3.689,19.311,3,18.59,3z M15.75,8l2.387,2.448l-0.688,0.688L15,8.688l-1.543,1.53h-2.913
	L9,8.688l-2.449,2.481L5.864,10.45L8.282,8L4.863,4.551l0.688-0.688l0,0L11.029,7h1.953l5.471-3.136l0.688,0.687L15.75,8z"/>
<path id="path2997_1_" opacity="0.3" fill="#020202" enable-background="new    " d="M22.566,14.58L20.9,12.92l1.656-1.662
	c-0.326-0.596-0.815-1.082-1.414-1.402l-1.652,1.658l-1.652-1.646c-0.591,0.32-1.072,0.808-1.396,1.396l1.666,1.646l-1.674,1.682
	c0.322,0.599,0.812,1.086,1.406,1.41l1.686-1.69l1.688,1.662C21.786,15.639,22.254,15.162,22.566,14.58z"/>
<linearGradient id="path2999_2_" gradientUnits="userSpaceOnUse" x1="-2692.9893" y1="-2186.0039" x2="-2686.855" y2="-2186.0039" gradientTransform="matrix(0 -1 -1 0 -2166.5 -2677.998)">
	<stop  offset="0" style="stop-color:#676868"/>
	<stop  offset="0.3958" style="stop-color:#AAA9A8"/>
	<stop  offset="1" style="stop-color:#EAEAEA"/>
</linearGradient>
<path id="path2999_1_" fill="url(#path2999_2_)" d="M21.154,8.857l-1.659,1.667l-1.662-1.656c-0.597,0.328-1.082,0.816-1.401,1.416
	l1.657,1.65l-1.647,1.651c0.322,0.591,0.809,1.073,1.396,1.396l1.646-1.666l1.683,1.677c0.599-0.319,1.086-0.812,1.409-1.403
	l-1.69-1.688l1.662-1.688C22.214,9.639,21.736,9.171,21.154,8.857z"/>
<radialGradient id="path3783_2_" cx="2581.168" cy="3158.3213" r="4.6155" gradientTransform="matrix(0.8669 0 0 0.8669 -2218.1152 -2729.021)" gradientUnits="userSpaceOnUse">
	<stop  offset="0" style="stop-color:#FFFFFF"/>
	<stop  offset="1" style="stop-color:#FFFFFF;stop-opacity:0"/>
</radialGradient>
<path id="path3783_1_" fill="url(#path3783_2_)" d="M17.844,8.861c-0.596,0.329-1.086,0.811-1.406,1.407l1.656,1.654l-0.5,0.5
	c0.566,0.311,1.217,0.5,1.906,0.5s1.34-0.189,1.906-0.5l-0.531-0.529l1.656-1.688c-0.326-0.573-0.793-1.031-1.375-1.345L19.5,10.518
	L17.844,8.861z"/>
</svg>
