<?xml version="1.0" encoding="UTF-8" standalone="no"?>
<!-- Created with Inkscape (http://www.inkscape.org/) -->

<svg
   xmlns:dc="http://purl.org/dc/elements/1.1/"
   xmlns:cc="http://creativecommons.org/ns#"
   xmlns:rdf="http://www.w3.org/1999/02/22-rdf-syntax-ns#"
   xmlns:svg="http://www.w3.org/2000/svg"
   xmlns="http://www.w3.org/2000/svg"
   xmlns:xlink="http://www.w3.org/1999/xlink"
   xmlns:sodipodi="http://sodipodi.sourceforge.net/DTD/sodipodi-0.dtd"
   xmlns:inkscape="http://www.inkscape.org/namespaces/inkscape"
   width="16"
   height="16"
   id="svg3800"
   version="1.1"
   inkscape:version="0.48.3.1 r9886"
   sodipodi:docname="indicator-messages-available.svg">
  <defs
     id="defs3802">
    <radialGradient
       inkscape:collect="always"
       xlink:href="#linearGradient7101-2"
       id="radialGradient5598"
       gradientUnits="userSpaceOnUse"
       gradientTransform="matrix(1.3722,-1.9719084e-6,1.8993601e-6,1.3217155,-67.374701,-287.23597)"
       cx="181.01292"
       cy="892.82703"
       fx="181.01292"
       fy="892.82703"
       r="3.5" />
    <linearGradient
       id="linearGradient7101-2">
      <stop
         id="stop7103-3"
         offset="0"
         style="stop-color:#5bcb6b;stop-opacity:1;" />
      <stop
         id="stop7105-6"
         offset="1"
         style="stop-color:#287f34;stop-opacity:1;" />
    </linearGradient>
    <linearGradient
       inkscape:collect="always"
       xlink:href="#linearGradient4241-8"
       id="linearGradient5600"
       gradientUnits="userSpaceOnUse"
       x1="564"
       y1="541.09448"
       x2="564"
       y2="545.09448" />
    <linearGradient
       inkscape:collect="always"
       id="linearGradient4241-8">
      <stop
         style="stop-color:#ffffff;stop-opacity:1;"
         offset="0"
         id="stop4243-9" />
      <stop
         style="stop-color:#ffffff;stop-opacity:0;"
         offset="1"
         id="stop4245-8" />
    </linearGradient>
    <radialGradient
       inkscape:collect="always"
       xlink:href="#linearGradient7101-2"
       id="radialGradient3015"
       gradientUnits="userSpaceOnUse"
       gradientTransform="matrix(1.3722,-1.9719084e-6,1.8993601e-6,1.3217155,-67.374701,-287.23597)"
       cx="181.01292"
       cy="892.82703"
       fx="181.01292"
       fy="892.82703"
       r="3.5" />
    <linearGradient
       inkscape:collect="always"
       xlink:href="#linearGradient4241-8"
       id="linearGradient3017"
       gradientUnits="userSpaceOnUse"
       x1="564"
       y1="541.09448"
       x2="564"
       y2="545.09448" />
  </defs>
  <sodipodi:namedview
     id="base"
     pagecolor="#ffffff"
     bordercolor="#666666"
     borderopacity="1.0"
     inkscape:pageopacity="0.0"
     inkscape:pageshadow="2"
     inkscape:zoom="12.434498"
     inkscape:cx="-5.0665496"
     inkscape:cy="5.2072869"
     inkscape:document-units="px"
     inkscape:current-layer="layer1"
     showgrid="true"
     inkscape:window-width="1920"
     inkscape:window-height="1030"
     inkscape:window-x="0"
     inkscape:window-y="22"
     inkscape:window-maximized="1">
    <inkscape:grid
       type="xygrid"
       id="grid3868"
       empspacing="8"
       visible="true"
       enabled="true"
       snapvisiblegridlinesonly="true" />
  </sodipodi:namedview>
  <metadata
     id="metadata3805">
    <rdf:RDF>
      <cc:Work
         rdf:about="">
        <dc:format>image/svg+xml</dc:format>
        <dc:type
           rdf:resource="http://purl.org/dc/dcmitype/StillImage" />
        <dc:title></dc:title>
      </cc:Work>
    </rdf:RDF>
  </metadata>
  <g
     inkscape:label="Layer 1"
     inkscape:groupmode="layer"
     id="layer1"
     transform="translate(0,-1036.3622)">
    <path
       id="path3808"
       d="m 14.59375,1040.3622 -13.28125,0.031 c -0.61,0 -1.3125,0.7595 -1.3125,1.3125 l 0,7.2812 c 0,0.733 0.7735,1.375 1.4375,1.375 l 6.84375,0 C 8.1126874,1049.8897 8,1049.3926 8,1048.8622 c 0,-0.1717 0.043757,-0.3332 0.0625,-0.5 l -0.78125,0 L 5,1046.0497 l -2.4375,2.4688 -0.6875,-0.7188 2.40625,-2.4375 -3.40625,-3.4375 0.6875,-0.6875 6.125,6.125 0.59375,0 c 0.4570114,-1.2811 1.4637965,-2.3038 2.75,-2.75 l 3.40625,-3.375 0.6875,0.6875 -2.40625,2.4688 c 1.330527,0.065 2.500194,0.6805 3.28125,1.6562 l 0,-4.2187 c 0,-0.776 -0.68525,-1.4688 -1.40625,-1.4688 z"
       style="fill:#000000;fill-opacity:1;opacity:0.3"
       inkscape:connector-curvature="0"
       sodipodi:nodetypes="ccssscscccccccccccccccsc" />
    <path
       style="fill:#19b6ee;fill-opacity:1"
       d="M 14.59375,3 1.3125,3.03125 C 0.7025,3.03125 0,3.79075 0,4.34375 L 0,11.625 C 0,12.358 0.7735,13 1.4375,13 l 6.84375,0 C 8.1126874,12.527473 8,12.030352 8,11.5 8,11.32825 8.0437568,11.166751 8.0625,11 L 7.28125,11 5,8.6875 2.5625,11.15625 1.875,10.4375 4.28125,8 0.875,4.5625 1.5625,3.875 7.6875,10 8.28125,10 c 0.4570114,-1.2811287 1.4637965,-2.3037797 2.75,-2.75 L 14.4375,3.875 15.125,4.5625 12.71875,7.03125 C 14.049277,7.0966508 15.218944,7.7118169 16,8.6875 L 16,4.46875 C 16,3.69275 15.31475,3 14.59375,3 z"
       transform="translate(0,1036.3622)"
       id="path4808"
       inkscape:connector-curvature="0"
       sodipodi:nodetypes="ccssscscccccccccccccccsc" />
    <g
       transform="translate(-551,195.00002)"
       id="g5580"
       style="enable-background:new">
      <path
         sodipodi:type="arc"
         style="opacity:0.6;color:#000000;fill:#000000;fill-opacity:1;fill-rule:nonzero;stroke:none;stroke-width:2;marker:none;visibility:visible;display:inline;overflow:visible;enable-background:accumulate"
         id="path5584"
         sodipodi:cx="179.5"
         sodipodi:cy="892.86218"
         sodipodi:rx="3.5"
         sodipodi:ry="3.5"
         d="m 183,892.86218 c 0,1.933 -1.567,3.5 -3.5,3.5 -1.933,0 -3.5,-1.567 -3.5,-3.5 0,-1.93299 1.567,-3.5 3.5,-3.5 1.933,0 3.5,1.56701 3.5,3.5 z"
         transform="matrix(0,1,-1,0,1456.3622,674.36218)" />
      <path
         transform="matrix(0,1,-1,0,1456.3622,673.36218)"
         d="m 183,892.86218 c 0,1.933 -1.567,3.5 -3.5,3.5 -1.933,0 -3.5,-1.567 -3.5,-3.5 0,-1.93299 1.567,-3.5 3.5,-3.5 1.933,0 3.5,1.56701 3.5,3.5 z"
         sodipodi:ry="3.5"
         sodipodi:rx="3.5"
         sodipodi:cy="892.86218"
         sodipodi:cx="179.5"
         id="path5586"
         style="color:#000000;fill:url(#radialGradient3015);fill-opacity:1;fill-rule:nonzero;stroke:none;stroke-width:2;marker:none;visibility:visible;display:inline;overflow:visible;enable-background:accumulate"
         sodipodi:type="arc" />
      <path
         sodipodi:type="arc"
         style="color:#000000;fill:url(#linearGradient3017);fill-opacity:1;fill-rule:nonzero;stroke:none;stroke-width:2;marker:none;visibility:visible;display:inline;overflow:visible;enable-background:accumulate"
         id="path5588"
         sodipodi:cx="563.5"
         sodipodi:cy="542.59448"
         sodipodi:rx="2.5"
         sodipodi:ry="1.5"
         d="m 566,542.59448 c 0,0.82843 -1.11929,1.5 -2.5,1.5 -1.38071,0 -2.5,-0.67157 -2.5,-1.5 0,-0.82842 1.11929,-1.5 2.5,-1.5 1.38071,0 2.5,0.67158 2.5,1.5 z"
         transform="matrix(0.95849483,0,0,1,23.40618,308.70005)" />
    </g>
  </g>
</svg>
