<?xml version="1.0" encoding="utf-8"?>
<!-- Generator: Adobe Illustrator 15.0.0, SVG Export Plug-In . SVG Version: 6.00 Build 0)  -->
<!DOCTYPE svg PUBLIC "-//W3C//DTD SVG 1.1//EN" "http://www.w3.org/Graphics/SVG/1.1/DTD/svg11.dtd">
<svg version="1.1" id="Layer_1" xmlns="http://www.w3.org/2000/svg" xmlns:xlink="http://www.w3.org/1999/xlink" x="0px" y="0px"
	 width="24px" height="16px" viewBox="0 0 24 16" enable-background="new 0 0 24 16" xml:space="preserve">
<path id="path5_23_" opacity="0.3" fill="#020202" enable-background="new    " d="M18.59,4L5.305,4.022
	C4.695,4.022,4,4.782,4,5.336v7.298C4,13.366,4.789,14,5.453,14h13.049C19.299,14,20,13.322,20,12.624V5.465
	C20,4.689,19.311,4,18.59,4z M15.75,9l2.387,2.448l-0.688,0.688L15,9.688l-1.543,1.53h-2.913L9,9.688l-2.449,2.481L5.864,11.45
	L8.282,9L4.863,5.551l0.688-0.688l0,0L11.03,8h1.953l5.471-3.136l0.688,0.687L15.75,9z"/>
<path id="path5_22_" fill="#DFDBD2" d="M18.59,3L5.305,3.022C4.695,3.022,4,3.782,4,4.336v7.298C4,12.366,4.789,13,5.453,13h13.049
	C19.299,13,20,12.322,20,11.624V4.465C20,3.689,19.311,3,18.59,3z M15.75,8l2.387,2.448l-0.688,0.688L15,8.688l-1.543,1.53h-2.913
	L9,8.688l-2.449,2.481L5.864,10.45L8.282,8L4.863,4.551l0.688-0.688l0,0L11.03,7h1.953l5.471-3.136l0.688,0.687L15.75,8z"/>
<circle id="circle5_2_" opacity="0.3" fill="#020202" enable-background="new    " cx="19.5" cy="12.5" r="3.5"/>
<linearGradient id="circle7_1_" gradientUnits="userSpaceOnUse" x1="-1869.9087" y1="1755.9541" x2="-1863.0015" y2="1756.0472" gradientTransform="matrix(0 -1 1 0 -1736.5 -1855)">
	<stop  offset="0" style="stop-color:#2E8942"/>
	<stop  offset="1" style="stop-color:#6CBF5A"/>
</linearGradient>
<circle id="circle7_2_" fill="url(#circle7_1_)" cx="19.5" cy="11.5" r="3.5"/>
<radialGradient id="path3798_1_" cx="1506.0068" cy="1738.6387" r="3.5931" gradientTransform="matrix(1.1134 0 0 1.1134 -1657.2998 -1927.3154)" gradientUnits="userSpaceOnUse">
	<stop  offset="0" style="stop-color:#FFFFFF"/>
	<stop  offset="0.4375" style="stop-color:#FFFFFF;stop-opacity:0.498"/>
	<stop  offset="1" style="stop-color:#FFFFFF;stop-opacity:0"/>
</radialGradient>
<path id="path3798_2_" fill="url(#path3798_1_)" d="M19.5,8c-1.633,0-2.988,1.113-3.375,2.625C16.832,11.754,18.07,12.5,19.5,12.5
	s2.668-0.746,3.375-1.875C22.488,9.113,21.133,8,19.5,8z"/>
</svg>
