<?xml version="1.0" encoding="UTF-8" standalone="no"?>
<!-- Created with Inkscape (http://www.inkscape.org/) -->

<svg
   xmlns:dc="http://purl.org/dc/elements/1.1/"
   xmlns:cc="http://creativecommons.org/ns#"
   xmlns:rdf="http://www.w3.org/1999/02/22-rdf-syntax-ns#"
   xmlns:svg="http://www.w3.org/2000/svg"
   xmlns="http://www.w3.org/2000/svg"
   xmlns:sodipodi="http://sodipodi.sourceforge.net/DTD/sodipodi-0.dtd"
   xmlns:inkscape="http://www.inkscape.org/namespaces/inkscape"
   width="16"
   height="16"
   id="svg4315"
   version="1.1"
   inkscape:version="0.48.3.1 r9886"
   sodipodi:docname="indicator-messages-offline-new.svg">
  <defs
     id="defs4317" />
  <sodipodi:namedview
     id="base"
     pagecolor="#ffffff"
     bordercolor="#666666"
     borderopacity="1.0"
     inkscape:pageopacity="0.0"
     inkscape:pageshadow="2"
     inkscape:zoom="15.543122"
     inkscape:cx="6.9291096"
     inkscape:cy="1.2417066"
     inkscape:document-units="px"
     inkscape:current-layer="layer1"
     showgrid="true"
     inkscape:window-width="1920"
     inkscape:window-height="1030"
     inkscape:window-x="0"
     inkscape:window-y="22"
     inkscape:window-maximized="1">
    <inkscape:grid
       type="xygrid"
       id="grid3068"
       empspacing="8"
       visible="true"
       enabled="true"
       snapvisiblegridlinesonly="true" />
  </sodipodi:namedview>
  <metadata
     id="metadata4320">
    <rdf:RDF>
      <cc:Work
         rdf:about="">
        <dc:format>image/svg+xml</dc:format>
        <dc:type
           rdf:resource="http://purl.org/dc/dcmitype/StillImage" />
        <dc:title></dc:title>
      </cc:Work>
    </rdf:RDF>
  </metadata>
  <g
     inkscape:label="Layer 1"
     inkscape:groupmode="layer"
     id="layer1"
     transform="translate(0,-1036.3622)">
    <path
       id="path3074"
       d="m 14.59375,1040.3622 -13.28125,0.031 c -0.61,0 -1.3125,0.7595 -1.3125,1.3125 l 0,7.2812 c 0,0.733 0.7735,1.375 1.4375,1.375 l 6.65625,0 c 0.042781,-0.105 0.1069743,-0.2013 0.1875,-0.2812 0.4061004,-0.4063 0.812427,-0.8125 1.21875,-1.2188 -0.2180166,-0.218 -0.4372944,-0.4373 -0.65625,-0.6562 l -0.125,0.1562 -1.4375,0 L 5,1046.0497 l -2.4375,2.4688 -0.6875,-0.7188 2.40625,-2.4375 -3.40625,-3.4375 0.6875,-0.6875 6.125,6.125 0.40625,0 c -0.062879,-0.1705 -0.075382,-0.4021 -0.03125,-0.5937 0.013412,-0.065 0.034436,-0.1277 0.0625,-0.1875 0.4335504,-0.9066 1.157587,-1.6238 2,-2.0938 0.09676,-0.051 0.203559,-0.083 0.3125,-0.094 0.02082,-8e-4 0.04168,-8e-4 0.0625,0 0.05382,-10e-4 0.106474,-8e-4 0.15625,0 0.167086,0 0.33256,0.059 0.46875,0.1562 l 3.3125,-3.3125 0.6875,0.6875 -3.28125,3.3125 0.65625,0.6563 c 0.33386,-0.3407 0.660789,-0.6862 1,-1.0313 0.02872,-0.034 0.0601,-0.065 0.09375,-0.094 -0.143528,0.1046 -0.09065,0.096 0.03125,-0.031 0.06095,-0.064 0.141062,-0.1693 0.3125,-0.25 0.171438,-0.081 0.443026,-0.1115 0.65625,-0.062 0.06463,0.013 0.127707,0.034 0.1875,0.062 0.464461,0.2189 0.871519,0.5067 1.21875,0.8438 l 0,-3.5 c 0,-0.776 -0.68525,-1.4688 -1.40625,-1.4688 z"
       style="opacity:0.3;fill:#000000;fill-opacity:1"
       inkscape:connector-curvature="0"
       sodipodi:nodetypes="ccsssccccccccccccccccccccccccccccccccscc" />
    <path
       id="path5576"
       d="m 14.379879,1044.3736 -1.890129,1.8981 -1.89356,-1.8867 c -0.68017,0.3737 -1.23275,0.9297 -1.59619,1.6133 l 1.887859,1.8798 -1.876469,1.8822 c 0.366869,0.6733 0.92285,1.2225 1.590499,1.5905 l 1.875321,-1.8981 1.917479,1.9095 C 15.07715,1051.001 15.632,1050.4371 16,1049.766 l -1.925459,-1.9232 1.89356,-1.9232 c -0.380531,-0.6551 -0.925131,-1.1883 -1.588222,-1.546 z"
       style="opacity:0.4;fill:#dfdbd2;fill-opacity:1;enable-background:new"
       inkscape:connector-curvature="0" />
    <path
       style="fill:#19b6ee;fill-opacity:1"
       d="M 14.59375,3 1.3125,3.03125 C 0.7025,3.03125 0,3.79075 0,4.34375 L 0,11.625 C 0,12.358 0.7735,13 1.4375,13 l 6.65625,0 C 8.1365247,12.894935 8.2007188,12.798644 8.28125,12.71875 8.6873504,12.31245 9.093677,11.9063 9.5,11.5 9.2819834,11.281994 9.0627056,11.062708 8.84375,10.84375 L 8.71875,11 7.28125,11 5,8.6875 2.5625,11.15625 1.875,10.4375 4.28125,8 0.875,4.5625 1.5625,3.875 7.6875,10 8.09375,10 C 8.0308711,9.8295081 8.0183677,9.5979404 8.0625,9.40625 8.0759119,9.3415945 8.0969362,9.2785215 8.125,9.21875 8.5585504,8.31215 9.282587,7.595 10.125,7.125 c 0.09678,-0.051092 0.203576,-0.083131 0.3125,-0.09375 0.02082,-7.706e-4 0.04168,-7.706e-4 0.0625,0 0.05382,-0.001 0.106474,-8e-4 0.15625,0 0.167091,0.00419 0.332565,0.059344 0.46875,0.15625 L 14.4375,3.875 15.125,4.5625 11.84375,7.875 12.5,8.53125 c 0.33386,-0.3407 0.660789,-0.68615 1,-1.03125 0.02873,-0.03364 0.06011,-0.065018 0.09375,-0.09375 -0.143528,0.1046 -0.09065,0.09585 0.03125,-0.03125 0.06095,-0.0636 0.141062,-0.1693 0.3125,-0.25 0.171438,-0.0807 0.443026,-0.1115 0.65625,-0.0625 0.06466,0.013412 0.127728,0.034436 0.1875,0.0625 C 15.245711,7.3439308 15.652769,7.631678 16,7.96875 l 0,-3.5 C 16,3.69275 15.31475,3 14.59375,3 z"
       transform="translate(0,1036.3622)"
       id="path3037"
       inkscape:connector-curvature="0"
       sodipodi:nodetypes="ccsssccccccccccccccccccccccccccccscccsc" />
  </g>
</svg>
