<?xml version="1.0" encoding="UTF-8" standalone="no"?>
<!-- Created with Inkscape (http://www.inkscape.org/) -->

<svg
   xmlns:dc="http://purl.org/dc/elements/1.1/"
   xmlns:cc="http://creativecommons.org/ns#"
   xmlns:rdf="http://www.w3.org/1999/02/22-rdf-syntax-ns#"
   xmlns:svg="http://www.w3.org/2000/svg"
   xmlns="http://www.w3.org/2000/svg"
   xmlns:xlink="http://www.w3.org/1999/xlink"
   xmlns:sodipodi="http://sodipodi.sourceforge.net/DTD/sodipodi-0.dtd"
   xmlns:inkscape="http://www.inkscape.org/namespaces/inkscape"
   width="16"
   height="16"
   id="svg3800"
   version="1.1"
   inkscape:version="0.48.3.1 r9886"
   sodipodi:docname="indicator-messages-away.svg">
  <defs
     id="defs3802">
    <linearGradient
       inkscape:collect="always"
       xlink:href="#linearGradient4241-11-3"
       id="linearGradient5740"
       gradientUnits="userSpaceOnUse"
       gradientTransform="matrix(0.88629178,0,0,0.88629178,-445.9173,152.74591)"
       x1="524"
       y1="1003.3622"
       x2="524.04871"
       y2="1009.1414" />
    <linearGradient
       inkscape:collect="always"
       id="linearGradient4241-11-3">
      <stop
         style="stop-color:#ffffff;stop-opacity:1;"
         offset="0"
         id="stop4243-76-7" />
      <stop
         style="stop-color:#ffffff;stop-opacity:0;"
         offset="1"
         id="stop4245-7-8" />
    </linearGradient>
    <linearGradient
       inkscape:collect="always"
       xlink:href="#linearGradient5148"
       id="linearGradient5730"
       gradientUnits="userSpaceOnUse"
       gradientTransform="translate(-192,272)"
       x1="210.49998"
       y1="776.36218"
       x2="210.49998"
       y2="770.36218" />
    <linearGradient
       id="linearGradient5148">
      <stop
         id="stop5150"
         offset="0"
         style="stop-color:#ffce2c;stop-opacity:1;" />
      <stop
         id="stop5152"
         offset="1"
         style="stop-color:#e06800;stop-opacity:1;" />
    </linearGradient>
    <linearGradient
       inkscape:collect="always"
       xlink:href="#linearGradient4241-11-3-8"
       id="linearGradient5604"
       gradientUnits="userSpaceOnUse"
       gradientTransform="matrix(0.88629178,0,0,0.88629178,-446.9173,153.74591)"
       x1="524"
       y1="1003.3622"
       x2="524.04871"
       y2="1009.1414" />
    <linearGradient
       inkscape:collect="always"
       id="linearGradient4241-11-3-8">
      <stop
         style="stop-color:#ffffff;stop-opacity:1;"
         offset="0"
         id="stop4243-76-7-3" />
      <stop
         style="stop-color:#ffffff;stop-opacity:0;"
         offset="1"
         id="stop4245-7-8-3" />
    </linearGradient>
    <linearGradient
       inkscape:collect="always"
       xlink:href="#linearGradient5148-4"
       id="linearGradient5594"
       gradientUnits="userSpaceOnUse"
       x1="210.49998"
       y1="776.36218"
       x2="210.49998"
       y2="770.36218"
       gradientTransform="translate(-193,273)" />
    <linearGradient
       id="linearGradient5148-4">
      <stop
         id="stop5150-3"
         offset="0"
         style="stop-color:#ffce2c;stop-opacity:1;" />
      <stop
         id="stop5152-0"
         offset="1"
         style="stop-color:#e06800;stop-opacity:1;" />
    </linearGradient>
    <linearGradient
       inkscape:collect="always"
       xlink:href="#linearGradient4241-11-3-1"
       id="linearGradient5740-4"
       gradientUnits="userSpaceOnUse"
       gradientTransform="matrix(1.0129112,0,0,1.0330651,-518.76592,7.4284)"
       x1="524"
       y1="1003.3622"
       x2="524.04871"
       y2="1009.1414" />
    <linearGradient
       inkscape:collect="always"
       id="linearGradient4241-11-3-1">
      <stop
         style="stop-color:#ffffff;stop-opacity:1;"
         offset="0"
         id="stop4243-76-7-9" />
      <stop
         style="stop-color:#ffffff;stop-opacity:0;"
         offset="1"
         id="stop4245-7-8-7" />
    </linearGradient>
    <linearGradient
       inkscape:collect="always"
       xlink:href="#linearGradient5148-43"
       id="linearGradient5730-8"
       gradientUnits="userSpaceOnUse"
       gradientTransform="matrix(1.1428643,0,0,1.1656039,-228.57291,146.43141)"
       x1="210.49998"
       y1="776.36218"
       x2="210.49998"
       y2="770.36218" />
    <linearGradient
       id="linearGradient5148-43">
      <stop
         id="stop5150-7"
         offset="0"
         style="stop-color:#ffce2c;stop-opacity:1;" />
      <stop
         id="stop5152-6"
         offset="1"
         style="stop-color:#e06800;stop-opacity:1;" />
    </linearGradient>
  </defs>
  <sodipodi:namedview
     id="base"
     pagecolor="#ffffff"
     bordercolor="#666666"
     borderopacity="1.0"
     inkscape:pageopacity="0.0"
     inkscape:pageshadow="2"
     inkscape:zoom="19.428903"
     inkscape:cx="5.7414461"
     inkscape:cy="7.9906724"
     inkscape:document-units="px"
     inkscape:current-layer="layer1"
     showgrid="true"
     inkscape:window-width="1920"
     inkscape:window-height="1030"
     inkscape:window-x="0"
     inkscape:window-y="22"
     inkscape:window-maximized="1">
    <inkscape:grid
       type="xygrid"
       id="grid3868"
       empspacing="8"
       visible="true"
       enabled="true"
       snapvisiblegridlinesonly="true" />
  </sodipodi:namedview>
  <metadata
     id="metadata3805">
    <rdf:RDF>
      <cc:Work
         rdf:about="">
        <dc:format>image/svg+xml</dc:format>
        <dc:type
           rdf:resource="http://purl.org/dc/dcmitype/StillImage" />
        <dc:title />
      </cc:Work>
    </rdf:RDF>
  </metadata>
  <g
     inkscape:label="Layer 1"
     inkscape:groupmode="layer"
     id="layer1"
     transform="translate(0,-1036.3622)">
    <path
       id="path5447"
       d="m 14.59375,1040.3622 -13.28125,0.031 c -0.61,0 -1.3125,0.7595 -1.3125,1.3125 l 0,7.2812 c 0,0.733 0.7735,1.375 1.4375,1.375 l 6,0 c 0.3925214,-0.6695 0.790407,-1.3321 1.1875,-2 l -1.34375,0 L 5,1046.0497 l -2.4375,2.4688 -0.6875,-0.7188 2.40625,-2.4375 -3.40625,-3.4375 0.6875,-0.6875 6.125,6.125 0.59375,0 2.1875,-2.1562 c 0.0205,-0.04 0.06972,-0.057 0.09375,-0.094 0.101482,-0.1559 0.22568,-0.3011 0.375,-0.4062 l 0.09375,-0.062 3.40625,-3.4063 0.6875,0.6875 -2.5,2.5313 c 0.403471,0.097 0.670948,0.4636 0.90625,0.75 0.783748,1.3487 1.585577,2.6855 2.375,4.0312 0.01018,0.019 0.02066,0.043 0.03125,0.062 0.03243,-0.1063 0.0625,-0.2027 0.0625,-0.3125 l 0,-7.1562 c 0,-0.776 -0.68525,-1.4688 -1.40625,-1.4688 z"
       style="fill:#000000;fill-opacity:1;opacity:0.3"
       inkscape:connector-curvature="0" />
    <path
       style="fill:#dfdbd2;fill-opacity:1"
       d="M 14.59375 3 L 1.3125 3.03125 C 0.7025 3.03125 1.4802974e-16 3.79075 0 4.34375 L 0 11.625 C 0 12.358 0.7735 13 1.4375 13 L 7.4375 13 C 7.8300214 12.330518 8.227907 11.667899 8.625 11 L 7.28125 11 L 5 8.6875 L 2.5625 11.15625 L 1.875 10.4375 L 4.28125 8 L 0.875 4.5625 L 1.5625 3.875 L 7.6875 10 L 8.28125 10 L 10.46875 7.84375 C 10.489253 7.8035216 10.538465 7.7869313 10.5625 7.75 C 10.663982 7.5940677 10.78818 7.4488771 10.9375 7.34375 L 11.03125 7.28125 L 14.4375 3.875 L 15.125 4.5625 L 12.625 7.09375 C 13.028471 7.1907534 13.295948 7.557351 13.53125 7.84375 C 14.314998 9.19245 15.116827 10.5293 15.90625 11.875 C 15.916429 11.893789 15.926913 11.918479 15.9375 11.9375 C 15.969928 11.831218 16 11.734801 16 11.625 L 16 4.46875 C 16 3.69275 15.31475 3 14.59375 3 z "
       transform="translate(0,1036.3622)"
       id="path4808" />
    <path
       id="path3867"
       d="m 11.883908,1045.376 a 0.76184722,0.75150106 0 0 0 -0.536986,0.3723 l -3.2509,5.4973 a 0.76184722,0.75150106 0 0 0 0.653078,1.1166 l 6.501812,0 a 0.76184722,0.75150106 0 0 0 0.65309,-1.1166 l -3.250912,-5.4973 a 0.76184722,0.75150106 0 0 0 -0.769182,-0.3723 z"
       style="opacity:0.6;fill:#000000;fill-opacity:1;stroke:none;enable-background:new"
       inkscape:connector-curvature="0" />
    <path
       inkscape:connector-curvature="0"
       style="fill:url(#linearGradient5730-8);fill-opacity:1;stroke:none;enable-background:new"
       d="m 11.883908,1044.376 a 0.76184722,0.75150106 0 0 0 -0.536986,0.3723 l -3.2509,5.4973 a 0.76184722,0.75150106 0 0 0 0.653078,1.1166 l 6.501812,0 a 0.76184722,0.75150106 0 0 0 0.65309,-1.1166 l -3.250912,-5.4973 a 0.76184722,0.75150106 0 0 0 -0.769182,-0.3723 z"
       id="path5688" />
    <path
       inkscape:connector-curvature="0"
       style="fill:url(#linearGradient5740-4);fill-opacity:1;stroke:none;enable-background:new"
       d="m 11.89288,1044.3686 a 0.76184722,0.75150106 0 0 0 -0.535718,0.3642 l -1.500009,2.5133 c -0.674793,1.5135 0.809193,1.886 2.14287,1.8941 1.485918,0.012 2.756486,-0.6195 2.071442,-2.0033 l -0.03566,-0.072 c -0.462997,-0.7723 -0.934451,-1.5559 -1.392865,-2.3312 a 0.76184722,0.75150106 0 0 0 -0.07143,-0.1096 0.76184722,0.75150106 0 0 0 -0.678576,-0.255 z"
       id="path5716" />
  </g>
</svg>
