<?xml version="1.0" encoding="utf-8"?>
<!-- Generator: Adobe Illustrator 15.0.0, SVG Export Plug-In . SVG Version: 6.00 Build 0)  -->
<!DOCTYPE svg PUBLIC "-//W3C//DTD SVG 1.1//EN" "http://www.w3.org/Graphics/SVG/1.1/DTD/svg11.dtd">
<svg version="1.1"
	 id="svg3229" xmlns:rdf="http://www.w3.org/1999/02/22-rdf-syntax-ns#" xmlns:cc="http://creativecommons.org/ns#" xmlns:dc="http://purl.org/dc/elements/1.1/"
	 xmlns="http://www.w3.org/2000/svg" xmlns:xlink="http://www.w3.org/1999/xlink" x="0px" y="0px" width="22px" height="16px"
	 viewBox="0 0 22 16" enable-background="new 0 0 22 16" xml:space="preserve">
<path id="rect3170-2" opacity="0.3" fill="#231F20" enable-background="new    " d="M3.305,3.022C2.696,3.022,2,3.782,2,4.336v9.298
	C2,14.366,2.789,15,3.454,15h15.048C19.299,15,20,14.322,20,13.624V4.465C20,3.689,19.311,3,18.59,3L3.305,3.022L3.305,3.022z
	 M3.844,4.156L10.688,11h0.594l6.875-6.844l0.688,0.688L14.75,9l3.094,3.156l-0.688,0.688L14,9.688L11.72,12h-1.438L8,9.688
	l-3.156,3.188l-0.688-0.719L7.282,9L3.157,4.844L3.844,4.156L3.844,4.156z"/>
<path id="rect3170" fill="#19B6EE" d="M3.305,2.022C2.696,2.022,2,2.782,2,3.336v9.298C2,13.366,2.789,14,3.454,14h15.048
	C19.299,14,20,13.322,20,12.624V3.465C20,2.689,19.311,2,18.59,2L3.305,2.022L3.305,2.022z M3.844,3.156L10.688,10h0.594
	l6.875-6.844l0.688,0.688L14.75,8l3.094,3.156l-0.688,0.688L14,8.688L11.72,11h-1.438L8,8.688l-3.156,3.188l-0.688-0.719L7.282,8
	L3.157,3.844L3.844,3.156L3.844,3.156z"/>
</svg>
