<?xml version="1.0" encoding="UTF-8" standalone="no"?>
<!-- Created with Inkscape (http://www.inkscape.org/) -->

<svg
   xmlns:dc="http://purl.org/dc/elements/1.1/"
   xmlns:cc="http://creativecommons.org/ns#"
   xmlns:rdf="http://www.w3.org/1999/02/22-rdf-syntax-ns#"
   xmlns:svg="http://www.w3.org/2000/svg"
   xmlns="http://www.w3.org/2000/svg"
   xmlns:sodipodi="http://sodipodi.sourceforge.net/DTD/sodipodi-0.dtd"
   xmlns:inkscape="http://www.inkscape.org/namespaces/inkscape"
   width="16"
   height="16"
   id="svg4374"
   version="1.1"
   inkscape:version="0.48.3.1 r9886"
   sodipodi:docname="indicator-messages-mixed.svg">
  <defs
     id="defs4376" />
  <sodipodi:namedview
     id="base"
     pagecolor="#ffffff"
     bordercolor="#666666"
     borderopacity="1.0"
     inkscape:pageopacity="0.0"
     inkscape:pageshadow="2"
     inkscape:zoom="15.543122"
     inkscape:cx="-6.1409803"
     inkscape:cy="10.467653"
     inkscape:document-units="px"
     inkscape:current-layer="layer1"
     showgrid="true"
     inkscape:window-width="1920"
     inkscape:window-height="1030"
     inkscape:window-x="0"
     inkscape:window-y="22"
     inkscape:window-maximized="1">
    <inkscape:grid
       type="xygrid"
       id="grid3855"
       empspacing="8"
       visible="true"
       enabled="true"
       snapvisiblegridlinesonly="true" />
  </sodipodi:namedview>
  <metadata
     id="metadata4379">
    <rdf:RDF>
      <cc:Work
         rdf:about="">
        <dc:format>image/svg+xml</dc:format>
        <dc:type
           rdf:resource="http://purl.org/dc/dcmitype/StillImage" />
        <dc:title></dc:title>
      </cc:Work>
    </rdf:RDF>
  </metadata>
  <g
     inkscape:label="Layer 1"
     inkscape:groupmode="layer"
     id="layer1"
     transform="translate(0,-1036.3622)">
    <path
       id="path4366"
       d="m 14.59375,1040.3622 -13.28125,0.031 c -0.61,0 -1.3125,0.7595 -1.3125,1.3125 l 0,7.2812 c 0,0.733 0.7735,1.375 1.4375,1.375 l 6.5625,0 0,-1.0312 a 1.0056912,1.0056912 0 0 1 0.71875,-0.9688 l -1.4375,0 L 5,1046.0497 l -2.4375,2.4688 -0.6875,-0.7188 2.40625,-2.4375 -3.40625,-3.4375 0.6875,-0.6875 6.125,6.125 0.59375,0 6.15625,-6.125 0.6875,0.6875 -3.375,3.4375 2.375,2.4375 -0.53125,0.5313 2.40625,0 0,-6.5 c 0,-0.776 -0.68525,-1.4688 -1.40625,-1.4688 z m -5.875,8 a 1.0056912,1.0056912 0 0 1 0.09375,-0.031 1.0056912,1.0056912 0 0 1 0.1875,0 l 4.28125,0 -2.28125,-2.2813 -2.28125,2.3125 z"
       style="fill:#000000;fill-opacity:1;opacity:0.3"
       inkscape:connector-curvature="0" />
    <rect
       style="opacity:0.4;color:#000000;fill:#dfdbd2;fill-opacity:1;fill-rule:nonzero;stroke:none;stroke-width:2;marker:none;visibility:visible;display:inline;overflow:visible;enable-background:accumulate"
       id="rect5578"
       width="7"
       height="2"
       x="9.0000229"
       y="1048.3494" />
    <path
       style="fill:#19b6ee;fill-opacity:1"
       d="M 14.59375 3 L 1.3125 3.03125 C 0.7025 3.03125 1.4802974e-16 3.79075 0 4.34375 L 0 11.625 C 0 12.358 0.7735 13 1.4375 13 L 8 13 L 8 11.96875 A 1.0056912 1.0056912 0 0 1 8.71875 11 L 7.28125 11 L 5 8.6875 L 2.5625 11.15625 L 1.875 10.4375 L 4.28125 8 L 0.875 4.5625 L 1.5625 3.875 L 7.6875 10 L 8.28125 10 L 14.4375 3.875 L 15.125 4.5625 L 11.75 8 L 14.125 10.4375 L 13.59375 10.96875 L 16 10.96875 L 16 4.46875 C 16 3.69275 15.31475 3 14.59375 3 z M 8.71875 11 A 1.0056912 1.0056912 0 0 1 8.8125 10.96875 A 1.0056912 1.0056912 0 0 1 9 10.96875 L 13.28125 10.96875 L 11 8.6875 L 8.71875 11 z "
       transform="translate(0,1036.3622)"
       id="path3037" />
  </g>
</svg>
