<?xml version="1.0" encoding="UTF-8" standalone="no"?>
<!-- Created with Inkscape (http://www.inkscape.org/) -->

<svg
   xmlns:dc="http://purl.org/dc/elements/1.1/"
   xmlns:cc="http://creativecommons.org/ns#"
   xmlns:rdf="http://www.w3.org/1999/02/22-rdf-syntax-ns#"
   xmlns:svg="http://www.w3.org/2000/svg"
   xmlns="http://www.w3.org/2000/svg"
   xmlns:sodipodi="http://sodipodi.sourceforge.net/DTD/sodipodi-0.dtd"
   xmlns:inkscape="http://www.inkscape.org/namespaces/inkscape"
   version="1.0"
   width="18"
   height="16"
   id="svg3215"
   inkscape:version="0.48.0 r9654"
   sodipodi:docname="ubuntuone-client-offline.svg">
  <sodipodi:namedview
     pagecolor="#ffffff"
     bordercolor="#666666"
     borderopacity="1"
     objecttolerance="10"
     gridtolerance="10"
     guidetolerance="10"
     inkscape:pageopacity="0"
     inkscape:pageshadow="2"
     inkscape:window-width="1182"
     inkscape:window-height="690"
     id="namedview7"
     showgrid="false"
     inkscape:zoom="5.7014107"
     inkscape:cx="-19.518763"
     inkscape:cy="15.905138"
     inkscape:window-x="0"
     inkscape:window-y="24"
     inkscape:window-maximized="0"
     inkscape:current-layer="svg3215" />
  <metadata
     id="metadata8">
    <rdf:RDF>
      <cc:Work
         rdf:about="">
        <dc:format>image/svg+xml</dc:format>
        <dc:type
           rdf:resource="http://purl.org/dc/dcmitype/StillImage" />
        <dc:title />
      </cc:Work>
    </rdf:RDF>
  </metadata>
  <defs
     id="defs3217" />
  <path
     d="m 10.5,2.000001 c -1.6894559,0 -3.136804,1.0625201 -3.90625,2.59375 C 6.1604803,4.233345 5.6072,4.000001 5,4.000001 c -1.3799999,0 -2.4999999,1.12 -2.5,2.5 0,0.309927 0.05301,0.601043 0.15625,0.875 C 1.0867423,8.07628 0,9.664032 0,11.5 0,13.993 2.007,16 4.5,16 l 9,0 C 15.993,16 18,13.993 18,11.5 18,9.525327 16.73127,7.858968 14.96875,7.250001 14.97265,7.164571 15,7.086502 15,7.000001 c 0,-2.76 -2.016,-5 -4.5,-5 z m -1.4999999,3 c 0.554,0 0.9999999,0.446 0.9999999,1 L 10,11 C 10,11.554 9.5540001,12 9.0000001,12 8.4460001,12 8,11.554 8,11 L 8,6.000001 c 0,-0.554 0.4460001,-1 1.0000001,-1 z m -0.5,7.999999 0.5,0 0.5,0 C 9.7770001,13 10,13.223 10,13.5 l 0,0.5 0,0.5 C 10,14.777 9.7770001,15 9.5000001,15 l -0.5,0 -0.5,0 C 8.2230001,15 8,14.777 8,14.5 L 8,14 8,13.5 C 8,13.223 8.2230001,13 8.5000001,13 z"
     id="rect3193-5"
     style="opacity:0.3;fill:#000000;fill-opacity:1;fill-rule:evenodd;stroke:none;stroke-width:1.69999993;marker:none;visibility:visible;display:inline;overflow:visible;enable-background:accumulate"
     inkscape:connector-curvature="0" />
  <path
     d="m 10.5,0.9995526 c -1.6894559,0 -3.136804,1.0625201 -3.90625,2.59375 C 6.1604803,3.2328969 5.6072,2.9995527 5,2.9995526 3.6200001,2.9995526 2.5000001,4.119553 2.5,5.499553 2.5,5.80948 2.55301,6.100595 2.65625,6.374552 1.0867423,7.075832 0,8.663584 0,10.499552 c 0,2.493 2.007,4.5 4.5,4.5 l 9,0 c 2.493,0 4.5,-2.007 4.5,-4.5 0,-1.974673 -1.26873,-3.641033 -3.03125,-4.25 C 14.97265,6.164126 15,6.086053 15,5.999553 15,3.2395526 12.984,0.9995526 10.5,0.9995526 z m -1.4999999,3 C 9.5540001,3.9995526 10,4.445553 10,4.999553 l 0,4.999999 c 0,0.554 -0.4459999,1 -0.9999999,1 -0.554,0 -1.0000001,-0.446 -1.0000001,-1 L 8,4.999553 c 0,-0.554 0.4460001,-1.0000004 1.0000001,-1.0000004 z m -0.5,7.9999994 0.5,0 0.5,0 c 0.277,0 0.4999999,0.223 0.4999999,0.5 l 0,0.5 0,0.5 c 0,0.277 -0.2229999,0.5 -0.4999999,0.5 l -0.5,0 -0.5,0 c -0.277,0 -0.5000001,-0.223 -0.5000001,-0.5 l 0,-0.5 0,-0.5 c 0,-0.277 0.2230001,-0.5 0.5000001,-0.5 z"
     id="rect3193"
     style="fill:#dfdbd2;fill-opacity:1;fill-rule:evenodd;stroke:none;stroke-width:1.69999993;marker:none;visibility:visible;display:inline;overflow:visible;enable-background:accumulate"
     inkscape:connector-curvature="0" />
</svg>
