<?xml version="1.0" encoding="UTF-8" standalone="no"?>
<!-- Created with Inkscape (http://www.inkscape.org/) -->

<svg
   xmlns:dc="http://purl.org/dc/elements/1.1/"
   xmlns:cc="http://creativecommons.org/ns#"
   xmlns:rdf="http://www.w3.org/1999/02/22-rdf-syntax-ns#"
   xmlns:svg="http://www.w3.org/2000/svg"
   xmlns="http://www.w3.org/2000/svg"
   xmlns:sodipodi="http://sodipodi.sourceforge.net/DTD/sodipodi-0.dtd"
   xmlns:inkscape="http://www.inkscape.org/namespaces/inkscape"
   version="1.0"
   width="18"
   height="16"
   id="svg2467"
   sodipodi:version="0.32"
   inkscape:version="0.48.0 r9654"
   sodipodi:docname="ubuntuone-client-updating.svg"
   inkscape:output_extension="org.inkscape.output.svg.inkscape">
  <metadata
     id="metadata8">
    <rdf:RDF>
      <cc:Work
         rdf:about="">
        <dc:format>image/svg+xml</dc:format>
        <dc:type
           rdf:resource="http://purl.org/dc/dcmitype/StillImage" />
        <dc:title />
      </cc:Work>
    </rdf:RDF>
  </metadata>
  <sodipodi:namedview
     inkscape:window-height="753"
     inkscape:window-width="1280"
     inkscape:pageshadow="2"
     inkscape:pageopacity="0.0"
     guidetolerance="10.0"
     gridtolerance="10.0"
     objecttolerance="10.0"
     borderopacity="1.0"
     bordercolor="#666666"
     pagecolor="#ffffff"
     id="base"
     showgrid="false"
     inkscape:zoom="5.7042236"
     inkscape:cx="-40.624195"
     inkscape:cy="12"
     inkscape:window-x="0"
     inkscape:window-y="24"
     inkscape:current-layer="svg2467"
     inkscape:window-maximized="1" />
  <defs
     id="defs2469" />
  <path
     inkscape:connector-curvature="0"
     style="opacity:0.3;fill:#000000;fill-opacity:1;fill-rule:evenodd;stroke:none;stroke-width:4;marker:none;visibility:visible;display:inline;overflow:visible;enable-background:accumulate"
     id="rect3193-52"
     d="M 10.5,2 C 8.8105441,2.0000001 7.363196,3.0625201 6.59375,4.59375 6.1604803,4.233344 5.6072,4 5,4 3.6200001,4 2.5000001,5.12 2.5,6.5 2.5,6.809927 2.55301,7.101043 2.65625,7.375 1.0867423,8.07628 0,9.664032 0,11.5 0,13.993 2.007,16 4.5,16 l 9,0 C 15.993,16 18,13.993 18,11.5 18,9.525327 16.73127,7.858967 14.96875,7.25 14.97265,7.16457 15,7.086501 15,7 15,4.24 12.984,2 10.5,2 z M 9.0000001,6 C 10.482632,6 11.412772,6.558291 12,7.25 L 12,6 l 1,0 0,2 0,1 -1,0 -2,0 0,-1 1.3125,0 C 10.877148,7.443283 10.170048,7 9.0000001,7 6,7 6,10 6,10 L 5,10 C 5,10 5,6 9.0000001,6 z M 12,10 l 1,0 c 0,0 0,4 -3.9999999,4 C 7.517368,14 6.587228,13.441709 6,12.75 l 0,1.25 -1,0 0,-2 0,-1 1,0 2,0 0,1 -1.3125,0 c 0.435352,0.556717 1.142452,1 2.3125001,1 C 12,13 12,10 12,10 z" />
  <path
     inkscape:connector-curvature="0"
     style="fill:#dfdbd2;fill-opacity:1;fill-rule:evenodd;stroke:none;stroke-width:4;marker:none;visibility:visible;display:inline;overflow:visible;enable-background:accumulate"
     id="rect3193"
     d="m 10.5,0.9870003 c -1.6894559,10e-8 -3.136804,1.0625201 -3.90625,2.59375 C 6.1604803,3.2203447 5.6072,2.9870004 5,2.9870003 3.6200001,2.9870004 2.5000001,4.107001 2.5,5.487 2.5,5.796927 2.55301,6.088043 2.65625,6.362 1.0867423,7.06328 0,8.651032 0,10.487 c 0,2.493 2.007,4.5 4.5,4.5 l 9,0 c 2.493,0 4.5,-2.007 4.5,-4.5 C 18,8.512327 16.73127,6.845967 14.96875,6.237 14.97265,6.151574 15,6.073501 15,5.987 15,3.2269999 12.984,0.9870003 10.5,0.9870003 z M 9.0000001,4.987 C 10.482632,4.987 11.412772,5.545292 12,6.237 l 0,-1.25 1,0 0,2 0,1 -1,0 -2,0 0,-1 1.3125,0 c -0.435352,-0.556717 -1.142452,-1 -2.3124999,-1 C 6,5.987 6,8.987 6,8.987 l -1,0 c 0,0 0,-4 4.0000001,-4 z M 12,8.987 l 1,0 c 0,0 0,4 -3.9999999,4 C 7.517368,12.987 6.587228,12.428709 6,11.737 l 0,1.25 -1,0 0,-2 0,-1 1,0 2,0 0,1 -1.3125,0 c 0.435352,0.556717 1.142452,1 2.3125001,1 C 12,11.987 12,8.987 12,8.987 z" />
</svg>
