<?xml version="1.0" encoding="UTF-8" standalone="no"?>
<!-- Created with Inkscape (http://www.inkscape.org/) -->

<svg
   xmlns:dc="http://purl.org/dc/elements/1.1/"
   xmlns:cc="http://creativecommons.org/ns#"
   xmlns:rdf="http://www.w3.org/1999/02/22-rdf-syntax-ns#"
   xmlns:svg="http://www.w3.org/2000/svg"
   xmlns="http://www.w3.org/2000/svg"
   xmlns:sodipodi="http://sodipodi.sourceforge.net/DTD/sodipodi-0.dtd"
   xmlns:inkscape="http://www.inkscape.org/namespaces/inkscape"
   id="svg3215"
   height="16"
   width="18"
   version="1.0"
   inkscape:version="0.48.3.1 r9886"
   sodipodi:docname="ubuntuone-client-paused.svg">
  <defs
     id="defs8" />
  <sodipodi:namedview
     pagecolor="#ffffff"
     bordercolor="#666666"
     borderopacity="1"
     objecttolerance="10"
     gridtolerance="10"
     guidetolerance="10"
     inkscape:pageopacity="0"
     inkscape:pageshadow="2"
     inkscape:window-width="1920"
     inkscape:window-height="1030"
     id="namedview6"
     showgrid="false"
     inkscape:zoom="19.1875"
     inkscape:cx="0.60912052"
     inkscape:cy="8"
     inkscape:window-x="0"
     inkscape:window-y="22"
     inkscape:window-maximized="1"
     inkscape:current-layer="svg3215" />
  <metadata
     id="metadata8">
    <rdf:RDF>
      <cc:Work
         rdf:about="">
        <dc:format>image/svg+xml</dc:format>
        <dc:type
           rdf:resource="http://purl.org/dc/dcmitype/StillImage" />
        <dc:title />
      </cc:Work>
    </rdf:RDF>
  </metadata>
  <path
     id="path2996"
     d="M 10.5,2 C 8.8105,2.0000001 7.36315,3.06245 6.59375,4.59375 6.16045,4.23325 5.6072,4 5,4 3.62,4 2.5,5.12 2.5,6.5 2.5,6.8099 2.55305,7.101 2.65625,7.375 1.08675,8.0763 0,9.664 0,11.5 0,13.993 2.007,16 4.5,16 l 9,0 C 15.993,16 18,13.993 18,11.5 18,9.5253 16.73075,7.859 14.96875,7.25 14.97275,7.1646 15,7.0865 15,7 15,4.24 12.984,2 10.5,2 z M 6,7 8,7 8,13 6,13 6,7 z m 4,0 2,0 0,6 -2,0 0,-6 z"
     style="fill:#000000;fill-rule:evenodd;opacity:0.3"
     inkscape:connector-curvature="0" />
  <path
     style="fill-rule:evenodd;fill:#dfdbd2"
     d="M 10.5 1 C 8.8105 1.0000001 7.36315 2.06245 6.59375 3.59375 C 6.16045 3.23325 5.6072 3 5 3 C 3.62 3 2.5 4.12 2.5 5.5 C 2.5 5.8099 2.55305 6.101 2.65625 6.375 C 1.08675 7.0763 0 8.664 0 10.5 C 0 12.993 2.007 15 4.5 15 L 13.5 15 C 15.993 15 18 12.993 18 10.5 C 18 8.5253 16.73075 6.859 14.96875 6.25 C 14.97275 6.1646 15 6.0865 15 6 C 15 3.24 12.984 1 10.5 1 z M 6 6 L 8 6 L 8 12 L 6 12 L 6 6 z M 10 6 L 12 6 L 12 12 L 10 12 L 10 6 z "
     id="rect3193" />
</svg>
