<?xml version="1.0" encoding="UTF-8" standalone="no"?>
<!-- Created with Inkscape (http://www.inkscape.org/) -->

<svg
   xmlns:dc="http://purl.org/dc/elements/1.1/"
   xmlns:cc="http://creativecommons.org/ns#"
   xmlns:rdf="http://www.w3.org/1999/02/22-rdf-syntax-ns#"
   xmlns:svg="http://www.w3.org/2000/svg"
   xmlns="http://www.w3.org/2000/svg"
   xmlns:sodipodi="http://sodipodi.sourceforge.net/DTD/sodipodi-0.dtd"
   xmlns:inkscape="http://www.inkscape.org/namespaces/inkscape"
   version="1.0"
   width="18"
   height="16"
   id="svg3215"
   inkscape:version="0.48.0 r9654"
   sodipodi:docname="ubuntuone-client-idle.svg">
  <metadata
     id="metadata8">
    <rdf:RDF>
      <cc:Work
         rdf:about="">
        <dc:format>image/svg+xml</dc:format>
        <dc:type
           rdf:resource="http://purl.org/dc/dcmitype/StillImage" />
        <dc:title />
      </cc:Work>
    </rdf:RDF>
  </metadata>
  <sodipodi:namedview
     pagecolor="#ffffff"
     bordercolor="#666666"
     borderopacity="1"
     objecttolerance="10"
     gridtolerance="10"
     guidetolerance="10"
     inkscape:pageopacity="0"
     inkscape:pageshadow="2"
     inkscape:window-width="1280"
     inkscape:window-height="753"
     id="namedview6"
     showgrid="false"
     inkscape:zoom="7.2724167"
     inkscape:cx="-24.417431"
     inkscape:cy="11.793814"
     inkscape:window-x="0"
     inkscape:window-y="24"
     inkscape:window-maximized="1"
     inkscape:current-layer="svg3215" />
  <defs
     id="defs3217" />
  <path
     inkscape:connector-curvature="0"
     d="M 10.5,2.000001 C 8.8105441,2.0000011 7.363196,3.0625211 6.59375,4.593751 6.1604803,4.233345 5.6072,4.000001 5,4.000001 c -1.3799999,0 -2.4999999,1.12 -2.5,2.5 0,0.309927 0.05301,0.601043 0.15625,0.875 C 1.0867423,8.07628 0,9.664032 0,11.5 0,13.993 2.007,16 4.5,16 l 9,0 C 15.993,16 18,13.993 18,11.5 18,9.525327 16.73127,7.858968 14.96875,7.250001 14.97265,7.164571 15,7.086502 15,7.000001 c 0,-2.76 -2.016,-5 -4.5,-5 z"
     id="rect3193-5"
     style="opacity:0.3;fill:#000000;fill-opacity:1;fill-rule:evenodd;stroke:none;stroke-width:1.69999993;marker:none;visibility:visible;display:inline;overflow:visible;enable-background:accumulate" />
  <path
     d="m 10.5,1.0000006 c -1.6894559,1e-7 -3.136804,1.0625201 -3.90625,2.59375 C 6.1604803,3.233345 5.6072,3.0000007 5,3.0000006 3.6200001,3.0000007 2.5000001,4.120001 2.5,5.5 2.5,5.809927 2.55301,6.101043 2.65625,6.375 1.0867423,7.07628 0,8.664032 0,10.5 0,12.993 2.007,15 4.5,15 l 9,0 C 15.993,15 18,12.993 18,10.5 18,8.525327 16.73127,6.858967 14.96875,6.25 14.97265,6.16457 15,6.086501 15,6 15,3.2400002 12.984,1.0000006 10.5,1.0000006 z"
     id="rect3193"
     style="fill:#dfdbd2;fill-opacity:1;fill-rule:evenodd;stroke:none;stroke-width:1.69999993;marker:none;visibility:visible;display:inline;overflow:visible;enable-background:accumulate"
     inkscape:connector-curvature="0" />
</svg>
