<?xml version="1.0" encoding="UTF-8" standalone="no"?>
<!-- Created with Inkscape (http://www.inkscape.org/) -->
<svg
   xmlns:dc="http://purl.org/dc/elements/1.1/"
   xmlns:cc="http://creativecommons.org/ns#"
   xmlns:rdf="http://www.w3.org/1999/02/22-rdf-syntax-ns#"
   xmlns:svg="http://www.w3.org/2000/svg"
   xmlns="http://www.w3.org/2000/svg"
   xmlns:sodipodi="http://sodipodi.sourceforge.net/DTD/sodipodi-0.dtd"
   xmlns:inkscape="http://www.inkscape.org/namespaces/inkscape"
   version="1.0"
   width="16"
   height="16"
   id="svg3186"
   sodipodi:version="0.32"
   inkscape:version="0.46"
   sodipodi:docname="weather-clouds-night.svg"
   inkscape:output_extension="org.inkscape.output.svg.inkscape">
  <metadata
     id="metadata9">
    <rdf:RDF>
      <cc:Work
         rdf:about="">
        <dc:format>image/svg+xml</dc:format>
        <dc:type
           rdf:resource="http://purl.org/dc/dcmitype/StillImage" />
      </cc:Work>
    </rdf:RDF>
  </metadata>
  <sodipodi:namedview
     inkscape:window-height="781"
     inkscape:window-width="1440"
     inkscape:pageshadow="2"
     inkscape:pageopacity="0.0"
     guidetolerance="10.0"
     gridtolerance="10.0"
     objecttolerance="10.0"
     borderopacity="1.0"
     bordercolor="#666666"
     pagecolor="#ffffff"
     id="base"
     showgrid="false"
     inkscape:zoom="31.125"
     inkscape:cx="3.0200803"
     inkscape:cy="8"
     inkscape:window-x="0"
     inkscape:window-y="24"
     inkscape:current-layer="svg3186" />
  <defs
     id="defs3188">
    <inkscape:perspective
       sodipodi:type="inkscape:persp3d"
       inkscape:vp_x="0 : 8 : 1"
       inkscape:vp_y="0 : 1000 : 0"
       inkscape:vp_z="16 : 8 : 1"
       inkscape:persp3d-origin="8 : 5.3333333 : 1"
       id="perspective11" />
  </defs>
  <path
     id="path3184"
     style="opacity:0.59999999999999998;fill:none;fill-opacity:1;fill-rule:nonzero;stroke:#3a3835;stroke-width:1.00000011999999994;stroke-linecap:round;stroke-linejoin:miter;marker:none;marker-start:none;marker-mid:none;marker-end:none;stroke-miterlimit:4;stroke-dasharray:none;stroke-dashoffset:0;stroke-opacity:1;visibility:visible;display:inline;overflow:visible;enable-background:accumulate"
     d="M 7.8969433,1.5121505 C 6.2068308,1.795795 4.6985879,2.8077719 3.7108105,4.1983967 C 2.7189147,5.5949729 2.3053163,7.3807751 2.5861778,9.0711225 C 2.8663082,10.757049 3.8194262,12.290193 5.2103208,13.287904 C 6.6035868,14.287305 8.4000913,14.694938 10.083729,14.41238 C 11.766503,14.129985 13.308065,13.155397 14.301102,11.757369 C 14.384583,11.639852 14.4574,11.511806 14.48854,11.351308 C 14.519681,11.19081 14.487005,11.000786 14.394821,10.851542 C 14.210452,10.553053 13.94194,10.498221 13.707546,10.445481 C 13.238757,10.340001 12.658719,10.334018 12.051836,10.320539 C 11.444954,10.307061 10.832473,10.263463 10.396127,10.164362 C 10.177954,10.114811 10.012953,10.067876 9.9275301,10.008185 C 9.8421071,9.9484943 9.8432703,9.908941 9.8338107,9.8520081 L 9.8025709,9.8520081 C 9.8080282,8.8411461 9.5044618,8.0813083 9.1152954,7.6030577 C 8.7077385,7.1022069 8.2322369,6.8077659 8.1781015,6.7597013 C 8.0852791,6.6772664 8.0130936,6.4026493 8.0843821,5.9163449 C 8.1556706,5.4300406 8.3319139,4.820132 8.5217392,4.2296322 C 8.7115646,3.6391324 8.9154756,3.1012736 8.9590964,2.6053902 C 8.9809068,2.3574485 8.9690659,2.0876235 8.7716576,1.8245047 C 8.5742493,1.5613859 8.1889332,1.4631502 7.8969433,1.5121505 zM 10.024748,7.5001268 C 8.8777273,7.4903313 7.8258076,8.0513405 7.2450942,8.798942 C 6.2209806,8.2539438 4.7166471,8.7298311 4.3344286,9.6175591 C 4.0220592,10.036805 4.5724177,10.589613 3.8239175,10.755039 C 2.5426522,11.487067 2.1195964,12.951826 2.8734511,14.039867 C 3.477778,14.990261 4.8487585,15.571936 6.1998073,15.492835 C 8.2464718,15.487836 10.293777,15.502961 12.340031,15.485044 C 14.036664,15.41094 15.490043,14.220974 15.497409,12.897197 C 15.554153,11.845589 14.673015,10.843008 13.445861,10.430787 C 13.482826,9.0849669 12.229871,7.7080911 10.461059,7.5238742 C 10.316574,7.5080177 10.170658,7.5001201 10.024748,7.5001268 z" />
  <path
     d="M 8,2 C 6.4490246,2.2603302 5.0385869,3.1823927 4.125,4.46875 C 3.2115131,5.7551076 2.8347702,7.4098781 3.09375,8.96875 C 3.1731793,9.4468516 3.3080346,9.8993607 3.5,10.34375 C 3.5431454,10.314879 3.5810403,10.277745 3.625,10.25 C 3.6250001,9.5236178 4.0250789,8.9044352 4.53125,8.53125 C 5.0374211,8.1580648 5.6750457,7.9687501 6.34375,7.96875 C 6.6369896,7.96875 6.8815455,8.1126346 7.15625,8.1875 C 7.4683978,7.8897954 7.8335298,7.6418605 8.21875,7.4375 C 8.0585957,7.3134842 7.9272402,7.1991379 7.84375,7.125 C 6.6654774,6.0784374 9.5510756,1.7396699 8,2 z"
     id="path2876-6-6-4"
     style="fill:#eae3d1;fill-opacity:1;stroke:none;stroke-width:2;stroke-linecap:round;stroke-miterlimit:4;stroke-dasharray:none;stroke-dashoffset:0;stroke-opacity:1;display:inline" />
  <path
     d="M 9.9999996,8 C 8.8736959,8 7.9087972,8.5312601 7.3958333,9.2968749 C 7.1069868,9.1166722 6.7381333,9.0000001 6.3333333,9.0000001 C 5.4133334,9.0000001 4.6666667,9.5600001 4.6666666,10.25 C 4.6666666,10.404963 4.7020064,10.550522 4.7708333,10.687499 C 3.7244948,11.03814 3,11.832015 3,12.749999 C 3,13.996499 4.338,15 6,15 L 12,15 C 13.662,15 15,13.996499 15,12.749999 C 15,11.762663 14.15418,10.929483 12.979166,10.625 C 12.981776,10.582287 13,10.543251 13,10.5 C 13,9.12 11.656,8 9.9999996,8 z"
     id="rect3193"
     style="fill:#eae3d1;fill-opacity:1;fill-rule:evenodd;stroke:none;stroke-width:4;stroke-linecap:butt;stroke-linejoin:miter;marker:none;marker-start:none;marker-mid:none;marker-end:none;stroke-miterlimit:4;stroke-dasharray:none;stroke-dashoffset:0;stroke-opacity:1;visibility:visible;display:inline;overflow:visible;enable-background:accumulate" />
</svg>
