<?xml version="1.0" encoding="UTF-8" standalone="no"?>
<!-- Created with Inkscape (http://www.inkscape.org/) -->
<svg
   xmlns:dc="http://purl.org/dc/elements/1.1/"
   xmlns:cc="http://creativecommons.org/ns#"
   xmlns:rdf="http://www.w3.org/1999/02/22-rdf-syntax-ns#"
   xmlns:svg="http://www.w3.org/2000/svg"
   xmlns="http://www.w3.org/2000/svg"
   xmlns:sodipodi="http://sodipodi.sourceforge.net/DTD/sodipodi-0.dtd"
   xmlns:inkscape="http://www.inkscape.org/namespaces/inkscape"
   version="1.0"
   width="16"
   height="16"
   id="svg3186"
   sodipodi:version="0.32"
   inkscape:version="0.46"
   sodipodi:docname="weather-few-clouds-night.svg"
   inkscape:output_extension="org.inkscape.output.svg.inkscape">
  <metadata
     id="metadata9">
    <rdf:RDF>
      <cc:Work
         rdf:about="">
        <dc:format>image/svg+xml</dc:format>
        <dc:type
           rdf:resource="http://purl.org/dc/dcmitype/StillImage" />
      </cc:Work>
    </rdf:RDF>
  </metadata>
  <sodipodi:namedview
     inkscape:window-height="781"
     inkscape:window-width="1440"
     inkscape:pageshadow="2"
     inkscape:pageopacity="0.0"
     guidetolerance="10.0"
     gridtolerance="10.0"
     objecttolerance="10.0"
     borderopacity="1.0"
     bordercolor="#666666"
     pagecolor="#ffffff"
     id="base"
     showgrid="false"
     inkscape:zoom="31.125"
     inkscape:cx="2.9879518"
     inkscape:cy="8"
     inkscape:window-x="0"
     inkscape:window-y="24"
     inkscape:current-layer="svg3186" />
  <defs
     id="defs3188" />
  <path
     d="M 8,2 C 6.4490246,2.2603302 5.0385869,3.1823927 4.125,4.46875 C 3.2417569,5.7125187 2.8529615,7.2994879 3.0625,8.8125 C 3.2033131,8.7866616 3.3537654,8.7812499 3.5,8.78125 C 3.7115101,8.78125 3.8204114,8.8871663 4,8.9375 C 4.5975807,8.3637463 5.346862,7.9375 6.25,7.9375 C 7.8651086,7.9375 9.174891,9.1246337 9.4375,10.65625 C 10.328821,11.166269 11.0625,11.962153 11.0625,13.0625 C 11.0625,13.257554 11.037905,13.442861 11,13.625 C 12.149381,13.210749 13.196317,12.468357 13.90625,11.46875 C 14.819937,10.182383 9.6027298,11.496392 9.34375,9.9375 C 9.4148266,7.9731919 8.1777108,7.4215514 7.84375,7.125 C 6.6654774,6.0784374 9.5510756,1.7396699 8,2 z"
     id="path2876-6-6-4"
     style="fill:#eae3d1;fill-opacity:1;stroke:none;stroke-width:2;stroke-linecap:round;stroke-miterlimit:4;stroke-dasharray:none;stroke-dashoffset:0;stroke-opacity:1;display:inline" />
  <path
     id="path3184"
     style="opacity:0.59999999999999998;fill:none;fill-opacity:1;fill-rule:nonzero;stroke:#3a3935;stroke-width:1.00000011999999994;stroke-linecap:round;stroke-linejoin:miter;marker:none;marker-start:none;marker-mid:none;marker-end:none;stroke-miterlimit:4;stroke-dasharray:none;stroke-dashoffset:0;stroke-opacity:1;visibility:visible;display:inline;overflow:visible;enable-background:accumulate"
     d="M 7.8969433,1.5121505 C 6.2068308,1.795795 4.6985879,2.8077719 3.7108105,4.1983967 C 2.7189147,5.5949729 2.3053163,7.3807751 2.5861778,9.0711225 C 2.8663082,10.757049 3.8194262,12.290193 5.2103208,13.287904 C 6.6035868,14.287305 8.4000913,14.694938 10.083729,14.41238 C 11.766503,14.129985 13.308065,13.155397 14.301102,11.757369 C 14.384583,11.639852 14.4574,11.511806 14.48854,11.351308 C 14.519681,11.19081 14.487005,11.000786 14.394821,10.851542 C 14.210452,10.553053 13.94194,10.498221 13.707546,10.445481 C 13.238757,10.340001 12.658719,10.334018 12.051836,10.320539 C 11.444954,10.307061 10.832473,10.263463 10.396127,10.164362 C 10.177954,10.114811 10.012953,10.067876 9.9275301,10.008185 C 9.8421071,9.9484943 9.8432703,9.908941 9.8338107,9.8520081 L 9.8025709,9.8520081 C 9.8080282,8.8411461 9.5044618,8.0813083 9.1152954,7.6030577 C 8.7077385,7.1022069 8.2322369,6.8077659 8.1781015,6.7597013 C 8.0852791,6.6772664 8.0130936,6.4026493 8.0843821,5.9163449 C 8.1556706,5.4300406 8.3319139,4.820132 8.5217392,4.2296322 C 8.7115646,3.6391324 8.9154756,3.1012736 8.9590964,2.6053902 C 8.9809068,2.3574485 8.9690659,2.0876235 8.7716576,1.8245047 C 8.5742493,1.5613859 8.1889332,1.4631502 7.8969433,1.5121505 zM 6.2882411,8.500111 C 5.405912,8.49154 4.596738,8.982423 4.1500327,9.6365743 C 3.362248,9.1597009 2.2050613,9.5761023 1.9110452,10.352864 C 1.6707596,10.719704 2.0941149,11.203411 1.518342,11.348159 C 0.53274717,11.988684 0.20731763,13.270348 0.78720944,14.222384 C 1.2520791,15.053978 2.306686,15.562944 3.3459609,15.493731 C 4.9203279,15.489357 6.4951878,15.502591 8.0692389,15.486914 C 9.3743499,15.422073 10.492341,14.380852 10.498006,13.222547 C 10.541656,12.30239 9.8638535,11.425132 8.9198825,11.064439 C 8.948318,9.8868461 7.9844998,8.6820798 6.6238671,8.52089 C 6.5127241,8.5070156 6.4004803,8.5001052 6.2882411,8.500111 z" />
  <path
     d="M 6.2499995,9 C 5.4052717,9 4.6815977,9.4553658 4.2968748,10.111607 C 4.0802399,9.9571476 3.8035998,9.857143 3.4999999,9.857143 C 2.8099999,9.857143 2.25,10.337143 2.2499999,10.928571 C 2.2499999,11.061397 2.2765047,11.186162 2.3281249,11.303571 C 1.5433711,11.60412 1,12.284584 1,13.071428 C 1,14.139857 2.0035,15 3.25,15 L 7.7499999,15 C 8.9964995,15 10,14.139857 10,13.071428 C 10,12.22514 9.3656349,11.510986 8.4843742,11.25 C 8.4863321,11.213389 8.4999998,11.17993 8.4999998,11.142857 C 8.4999998,9.96 7.4919997,9 6.2499995,9 z"
     id="rect3193"
     style="fill:#eae3d1;fill-opacity:1;fill-rule:evenodd;stroke:none;stroke-width:4;stroke-linecap:butt;stroke-linejoin:miter;marker:none;marker-start:none;marker-mid:none;marker-end:none;stroke-miterlimit:4;stroke-dasharray:none;stroke-dashoffset:0;stroke-opacity:1;visibility:visible;display:inline;overflow:visible;enable-background:accumulate" />
</svg>
