<?xml version="1.0" encoding="UTF-8" standalone="no"?>
<!-- Created with Inkscape (http://www.inkscape.org/) -->
<svg
   xmlns:svg="http://www.w3.org/2000/svg"
   xmlns="http://www.w3.org/2000/svg"
   version="1.0"
   width="16"
   height="16"
   id="svg3186">
  <defs
     id="defs3188" />
  <path
     d="M 9.3337419,9.9504645 C 9.4048187,7.9861561 8.1856017,7.4355327 7.8516409,7.1389813 C 6.6733681,6.0924187 9.5655924,1.7508997 8.0145168,2.0112298 C 6.4635414,2.27156 5.0286915,3.1720102 4.1151046,4.4583675 C 3.2016178,5.7447249 2.8205061,7.4011729 3.0794859,8.9600448 C 3.3384656,10.518897 4.2344335,11.960985 5.5143161,12.879194 C 6.7941986,13.797392 8.4422789,14.180402 9.9932543,13.920072 C 11.54433,13.659742 12.97908,12.759291 13.892667,11.472934 C 14.806354,10.186567 9.5927217,11.509357 9.3337419,9.9504645 L 9.3337419,9.9504645 z"
     id="path2876-6-6-4"
     style="fill:#eae3d0;fill-opacity:1;stroke:none;stroke-width:2;stroke-linecap:round;stroke-miterlimit:4;stroke-dasharray:none;stroke-dashoffset:0;stroke-opacity:1;display:inline" />
  <path
     d="M 7.8969433,1.5121505 C 6.2068308,1.795795 4.6985879,2.8077719 3.7108105,4.1983967 C 2.7189147,5.5949729 2.3053163,7.3807751 2.5861778,9.0711225 C 2.8663082,10.757049 3.8194262,12.290193 5.2103208,13.287904 C 6.6035868,14.287305 8.4000913,14.694938 10.083729,14.41238 C 11.766503,14.129985 13.308065,13.155397 14.301102,11.757369 C 14.384583,11.639852 14.4574,11.511806 14.48854,11.351308 C 14.519681,11.19081 14.487005,11.000786 14.394821,10.851542 C 14.210452,10.553053 13.94194,10.498221 13.707546,10.445481 C 13.238757,10.340001 12.658719,10.334018 12.051836,10.320539 C 11.444954,10.307061 10.832473,10.263463 10.396127,10.164362 C 10.177954,10.114811 10.012953,10.067876 9.9275301,10.008185 C 9.8421071,9.9484943 9.8432703,9.908941 9.8338107,9.8520081 L 9.8025709,9.8520081 C 9.8080282,8.8411461 9.5044618,8.0813083 9.1152954,7.6030577 C 8.7077385,7.1022069 8.2322369,6.8077659 8.1781015,6.7597013 C 8.0852791,6.6772664 8.0130936,6.4026493 8.0843821,5.9163449 C 8.1556706,5.4300406 8.3319139,4.820132 8.5217392,4.2296322 C 8.7115646,3.6391324 8.9154756,3.1012736 8.9590964,2.6053902 C 8.9809068,2.3574485 8.9690659,2.0876235 8.7716576,1.8245047 C 8.5742493,1.5613859 8.1889332,1.4631502 7.8969433,1.5121505 z"
     id="path3184"
     style="opacity:0.6;fill:none;fill-opacity:1;fill-rule:nonzero;stroke:#3a3935;stroke-width:1.00000012;stroke-linecap:round;stroke-linejoin:miter;marker:none;marker-start:none;marker-mid:none;marker-end:none;stroke-miterlimit:4;stroke-dasharray:none;stroke-dashoffset:0;stroke-opacity:1;visibility:visible;display:inline;overflow:visible;enable-background:accumulate" />
</svg>
