<?xml version="1.0" encoding="UTF-8" standalone="no"?>
<!-- Created with Inkscape (http://www.inkscape.org/) -->

<svg
   xmlns:dc="http://purl.org/dc/elements/1.1/"
   xmlns:cc="http://creativecommons.org/ns#"
   xmlns:rdf="http://www.w3.org/1999/02/22-rdf-syntax-ns#"
   xmlns:svg="http://www.w3.org/2000/svg"
   xmlns="http://www.w3.org/2000/svg"
   xmlns:xlink="http://www.w3.org/1999/xlink"
   xmlns:sodipodi="http://sodipodi.sourceforge.net/DTD/sodipodi-0.dtd"
   xmlns:inkscape="http://www.inkscape.org/namespaces/inkscape"
   width="48"
   height="48"
   id="svg4383"
   version="1.1"
   inkscape:version="0.48.2 r9819"
   sodipodi:docname="show-desktop.svg">
  <defs
     id="defs4385">
    <filter
       color-interpolation-filters="sRGB"
       inkscape:collect="always"
       id="filter4188">
      <feGaussianBlur
         inkscape:collect="always"
         stdDeviation="1.2"
         id="feGaussianBlur4190" />
    </filter>
    <filter
       color-interpolation-filters="sRGB"
       inkscape:collect="always"
       id="filter4192">
      <feGaussianBlur
         inkscape:collect="always"
         stdDeviation="0.84"
         id="feGaussianBlur4194" />
    </filter>
  </defs>
  <sodipodi:namedview
     id="base"
     pagecolor="#ffffff"
     bordercolor="#666666"
     borderopacity="1.0"
     inkscape:pageopacity="0.0"
     inkscape:pageshadow="2"
     inkscape:zoom="8.0390625"
     inkscape:cx="32"
     inkscape:cy="15.340137"
     inkscape:document-units="px"
     inkscape:current-layer="layer1"
     showgrid="true"
     inkscape:window-width="1400"
     inkscape:window-height="1026"
     inkscape:window-x="0"
     inkscape:window-y="24"
     inkscape:window-maximized="1">
    <inkscape:grid
       type="xygrid"
       id="grid4635"
       empspacing="5"
       visible="true"
       enabled="true"
       snapvisiblegridlinesonly="true" />
  </sodipodi:namedview>
  <metadata
     id="metadata4388">
    <rdf:RDF>
      <cc:Work
         rdf:about="">
        <dc:format>image/svg+xml</dc:format>
        <dc:type
           rdf:resource="http://purl.org/dc/dcmitype/StillImage" />
        <dc:title></dc:title>
      </cc:Work>
    </rdf:RDF>
  </metadata>
  <g
     inkscape:label="Layer 1"
     inkscape:groupmode="layer"
     id="layer1"
     transform="translate(0,-1004.3622)">
    <g
       id="g4740"
       transform="translate(-63,-29)">
      <image
         y="1047.3622"
         x="73"
         id="image4432"
         xlink:href="file:///usr/share/backgrounds/warty-final-ubuntu.png"
         height="20"
         width="28" />
      <path
         inkscape:connector-curvature="0"
         id="path4462"
         style="opacity:0.5;fill:#ffffff;filter:url(#filter4192)"
         d="M 100,1049.3622 H 74 v -1 h 26 v 1 z m 1,-4 H 73 c -1.104,0 -2,0.896 -2,2 v 20 c 0,1.105 0.896,2 2,2 h 28 c 1.104,0 2,-0.895 2,-2 v -20 c 0,-1.104 -0.896,-2 -2,-2 z m 0,22 H 73 v -20 h 28 v 20 z" />
      <path
         d="M 100,1049.3622 H 74 v -1 h 26 v 1 z m 1,-4 H 73 c -1.104,0 -2,0.896 -2,2 v 20 c 0,1.105 0.896,2 2,2 h 28 c 1.104,0 2,-0.895 2,-2 v -20 c 0,-1.104 -0.896,-2 -2,-2 z m 0,22 H 73 v -20 h 28 v 20 z"
         style="fill:#ffffff"
         id="path4498"
         inkscape:connector-curvature="0" />
    </g>
  </g>
</svg>
