<?xml version="1.0" encoding="UTF-8" standalone="no"?>
<!-- Created with Inkscape (http://www.inkscape.org/) -->

<svg
   xmlns:dc="http://purl.org/dc/elements/1.1/"
   xmlns:cc="http://creativecommons.org/ns#"
   xmlns:rdf="http://www.w3.org/1999/02/22-rdf-syntax-ns#"
   xmlns:svg="http://www.w3.org/2000/svg"
   xmlns="http://www.w3.org/2000/svg"
   xmlns:xlink="http://www.w3.org/1999/xlink"
   xmlns:sodipodi="http://sodipodi.sourceforge.net/DTD/sodipodi-0.dtd"
   xmlns:inkscape="http://www.inkscape.org/namespaces/inkscape"
   width="32"
   height="32"
   id="svg4383"
   version="1.1"
   inkscape:version="0.48.2 r9819"
   sodipodi:docname="show-desktop.svg">
  <defs
     id="defs4385">
    <filter
       color-interpolation-filters="sRGB"
       inkscape:collect="always"
       id="filter4192">
      <feGaussianBlur
         inkscape:collect="always"
         stdDeviation="0.84"
         id="feGaussianBlur4194" />
    </filter>
    <filter
       color-interpolation-filters="sRGB"
       inkscape:collect="always"
       id="filter4208">
      <feGaussianBlur
         inkscape:collect="always"
         stdDeviation="0.285"
         id="feGaussianBlur4210" />
    </filter>
  </defs>
  <sodipodi:namedview
     id="base"
     pagecolor="#ffffff"
     bordercolor="#666666"
     borderopacity="1.0"
     inkscape:pageopacity="0.0"
     inkscape:pageshadow="2"
     inkscape:zoom="16.078125"
     inkscape:cx="27.024295"
     inkscape:cy="15.340137"
     inkscape:document-units="px"
     inkscape:current-layer="layer1"
     showgrid="true"
     inkscape:window-width="1400"
     inkscape:window-height="1026"
     inkscape:window-x="0"
     inkscape:window-y="24"
     inkscape:window-maximized="1">
    <inkscape:grid
       type="xygrid"
       id="grid4635"
       empspacing="5"
       visible="true"
       enabled="true"
       snapvisiblegridlinesonly="true" />
  </sodipodi:namedview>
  <metadata
     id="metadata4388">
    <rdf:RDF>
      <cc:Work
         rdf:about="">
        <dc:format>image/svg+xml</dc:format>
        <dc:type
           rdf:resource="http://purl.org/dc/dcmitype/StillImage" />
        <dc:title></dc:title>
      </cc:Work>
    </rdf:RDF>
  </metadata>
  <g
     inkscape:label="Layer 1"
     inkscape:groupmode="layer"
     id="layer1"
     transform="translate(0,-1020.3622)">
    <g
       id="g4794"
       transform="translate(-4,30)">
      <image
         width="20"
         height="14"
         xlink:href="file:///usr/share/backgrounds/warty-final-ubuntu.png"
         id="image4452"
         x="10"
         y="999.36218" />
      <path
         inkscape:connector-curvature="0"
         id="path4466"
         d="M 30,998.3622 H 10 c -0.553,0 -1,0.447 -1,1 v 14 c 0,0.553 0.447,1 1,1 h 20 c 0.552,0 1,-0.447 1,-1 v -14 c 0,-0.553 -0.448,-1 -1,-1 z m 0,15 H 10 v -14 h 20 v 14 z"
         style="opacity:0.5;fill:#ffffff;filter:url(#filter4208)" />
      <path
         style="fill:#ffffff"
         inkscape:connector-curvature="0"
         d="M 30,998.3622 H 10 c -0.553,0 -1,0.447 -1,1 v 14 c 0,0.553 0.447,1 1,1 h 20 c 0.552,0 1,-0.447 1,-1 v -14 c 0,-0.553 -0.448,-1 -1,-1 z m 0,15 H 10 v -14 h 20 v 14 z"
         id="path4502" />
    </g>
  </g>
</svg>
