<?xml version="1.0" encoding="UTF-8" standalone="no"?>
<!-- Created with Inkscape (http://www.inkscape.org/) -->
<svg
   xmlns:svg="http://www.w3.org/2000/svg"
   xmlns="http://www.w3.org/2000/svg"
   version="1.0"
   width="22"
   height="22"
   id="svg2816"
   style="display:inline">
  <defs
     id="defs2818" />
  <path
     d="M 10.500145,3 C 8.6393581,3 6.9616587,3.7018058 5.5626447,4.71875 C 4.76916,4.3784613 3.5577111,3.96146 1.9688947,4 C 1.6278757,4.0065879 1.3024896,4.1773977 1.1251447,4.46875 C 0.94779977,4.7601024 0.94311307,5.1315551 1.0938947,5.4375 C 1.0938947,5.4375 1.9908806,7.2627218 2.5313947,8.34375 C 1.4395257,8.6167172 -0.24985533,9.03125 -0.24985533,9.03125 C -0.57406442,9.110926 -0.82427184,9.342129 -0.93735533,9.65625 C -1.0504388,9.970371 -1.011386,10.325708 -0.81235533,10.59375 C -0.81235533,10.59375 -0.39268307,11.174409 0.25014467,11.75 C 0.73597857,12.185018 1.4216427,12.59722 2.2188947,12.8125 C 2.8660139,16.856052 6.28057,20 10.500145,20 C 12.536536,20 14.379303,19.198815 15.843895,18 L 21.000145,18 C 21.413455,18.01309 21.778107,17.756503 21.937645,17.375 C 22.097182,16.993497 22.018484,16.566282 21.718895,16.28125 L 18.718895,13.28125 C 18.853615,12.705545 19.000145,12.139591 19.000145,11.5 C 19.000145,6.8206352 15.17951,3.0000001 10.500145,3 z M 7.0001447,7 C 7.5526332,6.9998671 8.0001447,7.4477767 8.0001447,8 C 8.0001447,8.5523553 7.5524913,9 7.0001447,9 C 6.4479116,9 6.0001447,8.5522218 6.0001447,8 C 6.0001447,7.4477767 6.4480535,7 7.0001447,7 z M 10.125145,10 C 11.120227,9.995811 12.115691,10.365824 12.875145,11.125 C 13.887449,12.137381 14.219445,13.584413 13.875145,14.875 C 12.584775,15.219379 11.137599,14.88753 10.125145,13.875 C 9.1127617,12.862471 8.7808438,11.415292 9.1251447,10.125 C 9.4477547,10.038887 9.7934507,10.001396 10.125145,10 z"
     id="path3249"
     style="opacity:0.6;fill:#3a3935;fill-opacity:1;fill-rule:evenodd;stroke:none;stroke-width:1;stroke-linecap:butt;stroke-linejoin:miter;marker:none;marker-start:none;marker-mid:none;marker-end:none;stroke-miterlimit:4;stroke-dasharray:none;stroke-dashoffset:0;stroke-opacity:1;visibility:visible;display:inline;overflow:visible;enable-background:accumulate" />
  <path
     d="M 10.500145,4 C 8.6405679,4 6.9361724,4.6905051 5.6251447,5.8125 C 5.004479,5.5122059 3.649263,4.9599973 2.0001447,5 C 2.0001447,5 3.2426984,7.4851074 3.6876447,8.375 C 3.570379,8.629114 3.4638458,8.8877778 3.3751447,9.15625 C 2.4852521,9.378723 0.00014466754,10 0.00014466754,10 C 0.00014466754,10 1.4673969,12 3.0001447,12 C 3.0001447,12 3.024695,11.995771 3.0313947,12 C 3.2856951,15.910326 6.5258936,19 10.500145,19 C 12.464933,19 14.256251,18.23778 15.593895,17 L 21.000145,17 L 17.656395,13.65625 C 17.864337,12.968633 18.000145,12.255184 18.000145,11.5 C 18.000145,7.36 14.640145,4.0000001 10.500145,4 z M 7.0001447,7 C 7.5526332,6.9998671 8.0001447,7.4477767 8.0001447,8 C 8.0001447,8.5523553 7.5524913,9 7.0001447,9 C 6.4479116,9 6.0001447,8.5522218 6.0001447,8 C 6.0001447,7.4477767 6.4480535,7 7.0001447,7 z M 10.125145,10 C 11.120227,9.995811 12.115691,10.365824 12.875145,11.125 C 13.887449,12.137381 14.219445,13.584413 13.875145,14.875 C 12.584775,15.219379 11.137599,14.88753 10.125145,13.875 C 9.1127617,12.862471 8.7808438,11.415292 9.1251447,10.125 C 9.4477547,10.038887 9.7934507,10.001396 10.125145,10 z"
     id="path2396"
     style="fill:#eae3d1;fill-opacity:1;fill-rule:evenodd;stroke:none;stroke-width:1;stroke-linecap:butt;stroke-linejoin:miter;marker:none;marker-start:none;marker-mid:none;marker-end:none;stroke-miterlimit:4;stroke-dasharray:none;stroke-dashoffset:0;stroke-opacity:1;visibility:visible;display:inline;overflow:visible;enable-background:accumulate" />
</svg>
