<?xml version="1.0" encoding="UTF-8" standalone="no"?>
<!-- Created with Inkscape (http://www.inkscape.org/) -->
<svg
   xmlns:svg="http://www.w3.org/2000/svg"
   xmlns="http://www.w3.org/2000/svg"
   version="1.0"
   width="22"
   height="22"
   id="svg3245">
  <defs
     id="defs3247" />
  <path
     d="M 6.4164911,4.1176784 L 8.0351283,6.0556702"
     id="path3221"
     style="opacity:0.6;fill:none;fill-opacity:0.29803922;fill-rule:evenodd;stroke:#3a3935;stroke-width:3;stroke-linecap:round;stroke-linejoin:miter;stroke-miterlimit:4;stroke-dasharray:none;stroke-opacity:1" />
  <path
     d="M 9.2963271,6.144414 L 9.56365,3.4997309"
     id="path3223"
     style="opacity:0.6;fill:none;fill-opacity:0.29803922;fill-rule:evenodd;stroke:#3a3935;stroke-width:3;stroke-linecap:round;stroke-linejoin:miter;stroke-miterlimit:4;stroke-dasharray:none;stroke-opacity:1" />
  <path
     d="M 10.536749,6.6626633 L 12.262135,4.6575048"
     id="path3225"
     style="opacity:0.6;fill:none;fill-opacity:0.29803922;fill-rule:evenodd;stroke:#3a3935;stroke-width:3;stroke-linecap:round;stroke-linejoin:miter;stroke-miterlimit:4;stroke-dasharray:none;stroke-opacity:1" />
  <path
     d="M 9.9672067,7.259851 C 9.5699011,7.1904086 9.1706237,7.3714836 8.9670846,7.7134132 C 8.963557,7.6988981 8.941789,7.5921203 8.941789,7.5921203 C 8.8531589,7.2019151 8.5237943,6.9087061 8.1194009,6.8600091 C 7.5398062,6.7957684 6.9532862,6.7886365 6.4165909,6.7848948 C 6.3958561,6.7883679 6.3752427,6.7925069 6.3547842,6.7973052 C 4.2061122,6.9598203 2.1845183,8.1592372 1.0839921,10.05452 C -0.49400715,12.595836 -0.16964345,16.03361 1.9719217,18.140961 C 3.965897,20.243033 7.2880068,20.573682 9.7783221,19.075652 L 9.7982721,19.109558 C 9.8314912,19.097577 9.8424035,19.056763 9.8746832,19.043667 C 9.9148379,19.018595 9.9659096,19.018182 10.005599,18.992105 L 9.9856487,18.958199 C 10.542331,18.696579 10.986643,18.312882 11.380998,17.806055 C 11.827835,17.23178 12.217963,16.539453 12.517522,15.783365 C 12.896867,14.825896 13.022014,13.780577 12.939234,12.741582 C 14.968639,13.281847 20.153772,14.667083 20.153772,14.667083 C 20.665236,14.799635 21.18988,14.502417 21.328623,14.001515 C 21.549382,13.221751 21.842129,12.199195 22.064189,11.414837 C 22.199278,10.912974 21.896374,10.398179 21.385889,10.262041 C 17.897641,9.3450286 13.53718,8.1984653 10.048963,7.2813464 C 10.022045,7.2730086 9.9947669,7.2658366 9.9672067,7.259851 L 9.9672067,7.259851 z"
     id="path3219"
     style="opacity:0.6;fill:#3a3835;fill-opacity:1;fill-rule:nonzero;stroke:none;stroke-width:3;stroke-linecap:round;stroke-linejoin:miter;marker:none;marker-start:none;marker-mid:none;marker-end:none;stroke-miterlimit:4;stroke-dasharray:none;stroke-dashoffset:0;stroke-opacity:1;visibility:visible;display:inline;overflow:visible;enable-background:accumulate" />
  <path
     d="M 9.8014706,8.1876598 L 9.9474535,9.6966478 L 8.2457211,9.6697758 C 8.2457211,9.6697758 7.9939246,7.8141276 7.9939246,7.8141276 C 7.4734416,7.7564387 6.9483413,7.7326252 6.4216711,7.7289534 C 4.6008538,7.866671 2.8526487,8.9198032 1.9183792,10.528766 C 0.5790231,12.685754 0.86439895,15.695625 2.6550596,17.457679 C 4.3624108,19.257589 7.3609107,19.592824 9.4584729,18.214648 C 10.959842,17.673143 12.993472,13.612584 11.716672,11.442615 C 11.716672,11.442615 19.677609,13.568236 19.677609,13.568236 C 20.352885,13.728668 20.36404,13.733053 20.622552,12.981508 C 20.728957,12.67217 20.805068,12.340857 20.895144,12.02452 C 21.119312,11.143127 21.011799,11.155413 20.205171,10.923017 C 16.894741,10.052714 12.984872,9.0246372 9.8014706,8.1876598 z"
     id="path2387"
     style="fill:#eae3d1;fill-opacity:1;fill-rule:nonzero;stroke:none;stroke-width:3;stroke-linecap:round;stroke-linejoin:miter;marker:none;marker-start:none;marker-mid:none;marker-end:none;stroke-miterlimit:4;stroke-dasharray:none;stroke-dashoffset:0;stroke-opacity:1;visibility:visible;display:inline;overflow:visible;enable-background:accumulate" />
  <path
     d="M 6.4164911,4.1176784 L 8.0351283,6.0556702"
     id="path3211"
     style="fill:none;fill-rule:evenodd;stroke:#eae3d1;stroke-width:1px;stroke-linecap:round;stroke-linejoin:miter;stroke-opacity:1" />
  <path
     d="M 9.3827671,6.1868228 L 9.6500902,3.5421396"
     id="path3213"
     style="fill:none;fill-rule:evenodd;stroke:#eae3d1;stroke-width:1px;stroke-linecap:round;stroke-linejoin:miter;stroke-opacity:1" />
  <path
     d="M 10.730407,6.3179751 L 12.432066,4.3032605"
     id="path3215"
     style="fill:none;fill-rule:evenodd;stroke:#eae3d1;stroke-width:1px;stroke-linecap:round;stroke-linejoin:miter;stroke-opacity:1" />
</svg>
