<?xml version="1.0" encoding="UTF-8" standalone="no"?>
<!-- Created with Inkscape (http://www.inkscape.org/) -->
<svg
   xmlns:svg="http://www.w3.org/2000/svg"
   xmlns="http://www.w3.org/2000/svg"
   version="1.0"
   width="22"
   height="22"
   id="svg3171">
  <defs
     id="defs3173" />
  <g
     id="layer1">
    <path
       d="M 13.066344,2.4665536 C 12.995728,2.4819434 12.930073,2.5144284 12.875261,2.5610979 C 7.7826716,6.2334609 5.3871906,9.085842 4.2765638,11.070085 C 3.7212504,12.062206 3.5101889,12.831183 3.416694,13.370662 C 3.3328596,13.8544 3.375822,14.126177 3.384847,14.190046 L 3.353,14.190046 C 3.3530001,15.964314 4.1225316,17.097556 4.8816573,17.7197 C 5.6407831,18.341844 6.4103147,18.476055 6.4103147,18.476055 C 6.4098357,18.495157 6.4103147,18.520353 6.4103147,18.539084 C 6.4103145,19.1126 6.7522667,19.620135 7.2064904,19.957249 C 7.6607141,20.294362 8.2431569,20.493 8.8943829,20.493 C 9.9521119,20.493001 10.887002,19.956904 11.219216,19.137865 C 11.965736,19.238399 12.715831,19.358871 13.448508,19.453012 C 13.469711,19.454545 13.490998,19.454545 13.512202,19.453012 C 14.613072,19.453013 15.601994,18.829951 16.31474,17.908789 C 17.027487,16.987627 17.493081,15.747454 17.49308,14.379135 C 17.49308,12.766353 16.777318,11.395075 15.868882,10.471304 L 19.435749,5.7125744 C 19.527298,5.5824038 19.53952,5.4130932 19.467596,5.2713677 L 18.575879,3.4750261 C 18.518276,3.344126 18.399108,3.2497863 18.257409,3.222908 L 13.193732,2.4665536 C 13.151497,2.4603978 13.108578,2.4603978 13.066344,2.4665536 z"
       id="path3215"
       style="opacity:0.6;fill:none;fill-opacity:1;fill-rule:nonzero;stroke:#3a3935;stroke-width:0.99999994;stroke-linecap:round;stroke-linejoin:miter;marker:none;marker-start:none;marker-mid:none;marker-end:none;stroke-miterlimit:4;stroke-dasharray:none;stroke-dashoffset:0;stroke-opacity:1;visibility:visible;display:inline;overflow:visible;enable-background:accumulate" />
    <path
       d="M 17.343469,4.87462 C 13.65764,8.2693994 11.993514,10.695286 11.280969,12.24962 C 10.916627,13.04439 10.784819,13.607622 10.749719,13.96837 C 10.714619,14.329118 10.780969,14.46837 10.780969,14.46837 C 11.081057,16.006321 11.744143,16.868092 12.343469,17.34337 C 12.885168,17.772948 13.322606,17.855786 13.405969,17.87462 C 14.742576,17.510231 15.303962,16.595357 15.562219,15.71837 C 15.825192,14.82537 15.749719,14.03087 15.749719,14.03087 C 15.749063,14.020464 15.749063,14.010026 15.749719,13.99962 C 15.819682,12.320506 13.905969,10.96837 13.905969,10.96837 C 13.878234,10.942317 13.856851,10.910242 13.843469,10.87462 C 13.826882,10.845777 13.816255,10.813897 13.812219,10.78087 C 13.806272,10.749903 13.806272,10.718087 13.812219,10.68712 C 13.831472,10.590855 13.869072,10.564379 13.905969,10.49962 C 13.942866,10.434861 13.973066,10.36827 14.030969,10.28087 C 14.146776,10.10607 14.313586,9.880003 14.499719,9.62462 C 14.871985,9.113853 15.359341,8.4723632 15.843469,7.84337 C 16.763528,6.6480023 17.598831,5.6112247 17.687219,5.49962 L 17.343469,4.87462 z"
       id="path3211"
       style="opacity:0.3;fill:none;fill-opacity:1;fill-rule:nonzero;stroke:#ffffff;stroke-width:0.5;stroke-linecap:round;stroke-linejoin:miter;marker:none;marker-start:none;marker-mid:none;marker-end:none;stroke-miterlimit:4;stroke-dasharray:none;stroke-dashoffset:0;stroke-opacity:1;visibility:visible;display:inline;overflow:visible;enable-background:accumulate" />
    <path
       d="M 13.155969,2.99962 C 3.2303839,10.232611 3.9997187,14.18712 3.9997187,14.18712 C 3.9997186,17.474843 6.6559689,18.03087 6.6559687,18.03087 C 6.7909159,18.050458 6.9268074,18.073894 7.0622187,18.09337 C 7.0165497,18.219143 6.9997187,18.363043 6.9997187,18.49962 C 6.9997187,19.32762 7.8957187,19.99962 8.9997187,19.99962 C 10.049066,19.99962 10.917,19.395747 10.999719,18.62462 C 11.846104,18.737962 12.703755,18.860961 13.530969,18.96837 C 15.370609,18.96837 16.99972,16.904125 16.999719,14.37462 C 16.999719,12.754764 16.235714,11.345869 15.312219,10.53087 C 15.312266,10.530664 15.312219,10.49962 15.312219,10.49962 L 18.999719,5.53087 L 18.124719,3.74962 L 13.155969,2.99962 z M 17.405969,4.46837 L 17.968469,5.53087 C 17.968469,5.5308701 14.139842,10.361499 14.062219,10.74962 C 14.062219,10.74962 16.077343,12.136637 15.999719,13.99962 C 15.999719,13.99962 16.364957,17.410926 13.405969,18.15587 C 13.405969,18.15587 11.151963,17.713466 10.530969,14.53087 C 10.530969,14.53087 9.6435407,11.53218 17.405969,4.46837 z M 7.7809687,8.84337 L 11.468469,9.37462 L 10.937219,10.15587 L 7.1559687,9.59337 L 7.7809687,8.84337 z M 8.0616322,18.223086 C 8.6685258,18.308349 9.3914977,18.416912 9.9997187,18.49962 C 9.9997187,18.775621 9.5428737,19.176516 8.9908739,19.176516 C 8.438874,19.176517 7.9378052,18.890602 7.9378052,18.614602 C 7.9378052,18.51393 7.9591173,18.301574 8.0616322,18.223086 z"
       id="path3207"
       style="fill:#eae3d0;fill-opacity:1;fill-rule:evenodd;stroke:none;stroke-width:1px;stroke-linecap:butt;stroke-linejoin:miter;stroke-opacity:1" />
  </g>
</svg>
